<?xml version="1.0" encoding="UTF-8" standalone="no"?>
<!DOCTYPE svg PUBLIC "-//W3C//DTD SVG 1.1//EN"
 "http://www.w3.org/Graphics/SVG/1.1/DTD/svg11.dtd">
<!-- Generated by graphviz version 4.0.0 (0)
 -->
<!-- Pages: 1 -->
<svg width="1316pt" height="926pt"
 viewBox="0.00 0.00 1315.76 926.27" xmlns="http://www.w3.org/2000/svg" xmlns:xlink="http://www.w3.org/1999/xlink">
<g id="graph0" class="graph" transform="scale(1 1) rotate(0) translate(28.8 897.47)">
<polygon fill="white" stroke="transparent" points="-28.8,28.8 -28.8,-897.47 1286.96,-897.47 1286.96,28.8 -28.8,28.8"/>
<text text-anchor="middle" x="629.08" y="-835.87" font-family="Helvetica,sans-Serif" font-size="36.00">lightning_types</text>
<!-- lightning_types -->
<g id="node1" class="node">
<title>lightning_types</title>
<polygon fill="#5397c8" stroke="black" points="423.66,-371.93 423.66,-409.93 530.66,-409.93 530.66,-371.93 423.66,-371.93"/>
<text text-anchor="middle" x="477.16" y="-397.93" font-family="monospace" font-size="10.00">crate</text>
<polyline fill="none" stroke="black" points="423.66,-390.93 530.66,-390.93 "/>
<text text-anchor="middle" x="477.16" y="-378.93" font-family="monospace" font-size="10.00">lightning_types</text>
</g>
<!-- lightning_types::application -->
<g id="node2" class="node">
<title>lightning_types::application</title>
<polygon fill="#f8c04c" stroke="black" points="649.41,-260.17 649.41,-298.17 834.41,-298.17 834.41,-260.17 649.41,-260.17"/>
<text text-anchor="middle" x="741.91" y="-286.17" font-family="monospace" font-size="10.00">pub(crate) mod</text>
<polyline fill="none" stroke="black" points="649.41,-279.17 834.41,-279.17 "/>
<text text-anchor="middle" x="741.91" y="-267.17" font-family="monospace" font-size="10.00">lightning_types::application</text>
</g>
<!-- lightning_types&#45;&gt;lightning_types::application -->
<g id="edge1" class="edge">
<title>lightning_types&#45;&gt;lightning_types::application</title>
<path fill="none" stroke="#000000" d="M530.83,-391.03C590.52,-375.91 683.27,-335.2 723.15,-305.19"/>
<polygon fill="#000000" stroke="#000000" points="725.72,-307.61 731.25,-298.58 721.29,-302.19 725.72,-307.61"/>
<text text-anchor="middle" x="614.49" y="-351.11" font-family="monospace" font-size="10.00">owns</text>
</g>
<!-- lightning_types&#45;&gt;lightning_types::application -->
<g id="edge2" class="edge">
<title>lightning_types&#45;&gt;lightning_types::application</title>
<path fill="none" stroke="#7f7f7f" stroke-dasharray="5,2" d="M487.62,-371.7C513.52,-348.3 580.63,-315.54 639.49,-294.32"/>
<polygon fill="#7f7f7f" stroke="#7f7f7f" points="640.96,-297.51 649.23,-290.89 638.63,-290.91 640.96,-297.51"/>
<text text-anchor="middle" x="551.05" y="-336.01" font-family="monospace" font-size="10.00">uses</text>
</g>
<!-- lightning_types::blockstore -->
<g id="node3" class="node">
<title>lightning_types::blockstore</title>
<polygon fill="#f8c04c" stroke="black" points="263.94,-467.73 263.94,-505.73 442.94,-505.73 442.94,-467.73 263.94,-467.73"/>
<text text-anchor="middle" x="353.44" y="-493.73" font-family="monospace" font-size="10.00">pub(crate) mod</text>
<polyline fill="none" stroke="black" points="263.94,-486.73 442.94,-486.73 "/>
<text text-anchor="middle" x="353.44" y="-474.73" font-family="monospace" font-size="10.00">lightning_types::blockstore</text>
</g>
<!-- lightning_types&#45;&gt;lightning_types::blockstore -->
<g id="edge3" class="edge">
<title>lightning_types&#45;&gt;lightning_types::blockstore</title>
<path fill="none" stroke="#000000" d="M423.64,-400.57C398.17,-415.5 371.03,-439.07 358.27,-458.86"/>
<polygon fill="#000000" stroke="#000000" points="355.2,-457.19 353.48,-467.65 361.34,-460.55 355.2,-457.19"/>
<text text-anchor="middle" x="378.45" y="-432.72" font-family="monospace" font-size="10.00">owns</text>
</g>
<!-- lightning_types&#45;&gt;lightning_types::blockstore -->
<g id="edge4" class="edge">
<title>lightning_types&#45;&gt;lightning_types::blockstore</title>
<path fill="none" stroke="#7f7f7f" stroke-dasharray="5,2" d="M477.11,-410.06C470.29,-425.66 451.33,-445.36 430.07,-461.53"/>
<polygon fill="#7f7f7f" stroke="#7f7f7f" points="427.85,-458.82 421.83,-467.54 431.97,-464.48 427.85,-458.82"/>
<text text-anchor="middle" x="441.09" y="-438.8" font-family="monospace" font-size="10.00">uses</text>
</g>
<!-- lightning_types::blockstore_server -->
<g id="node4" class="node">
<title>lightning_types::blockstore_server</title>
<polygon fill="#f8c04c" stroke="black" points="290.34,-187.4 290.34,-225.4 511.34,-225.4 511.34,-187.4 290.34,-187.4"/>
<text text-anchor="middle" x="400.84" y="-213.4" font-family="monospace" font-size="10.00">pub(crate) mod</text>
<polyline fill="none" stroke="black" points="290.34,-206.4 511.34,-206.4 "/>
<text text-anchor="middle" x="400.84" y="-194.4" font-family="monospace" font-size="10.00">lightning_types::blockstore_server</text>
</g>
<!-- lightning_types&#45;&gt;lightning_types::blockstore_server -->
<g id="edge5" class="edge">
<title>lightning_types&#45;&gt;lightning_types::blockstore_server</title>
<path fill="none" stroke="#000000" d="M485.37,-371.65C485.97,-338.46 461.04,-272.1 436.05,-234.11"/>
<polygon fill="#000000" stroke="#000000" points="438.65,-231.73 430.05,-225.55 432.92,-235.75 438.65,-231.73"/>
<text text-anchor="middle" x="448.21" y="-305.88" font-family="monospace" font-size="10.00">owns</text>
</g>
<!-- lightning_types&#45;&gt;lightning_types::blockstore_server -->
<g id="edge6" class="edge">
<title>lightning_types&#45;&gt;lightning_types::blockstore_server</title>
<path fill="none" stroke="#7f7f7f" stroke-dasharray="5,2" d="M447.85,-371.63C423.3,-338.88 396.85,-273.7 393.08,-235.47"/>
<polygon fill="#7f7f7f" stroke="#7f7f7f" points="396.58,-235.28 392.64,-225.45 389.58,-235.59 396.58,-235.28"/>
<text text-anchor="middle" x="407.97" y="-306.55" font-family="monospace" font-size="10.00">uses</text>
</g>
<!-- lightning_types::bridge -->
<g id="node5" class="node">
<title>lightning_types::bridge</title>
<polygon fill="#f8c04c" stroke="black" points="615.68,-638.14 615.68,-676.14 770.68,-676.14 770.68,-638.14 615.68,-638.14"/>
<text text-anchor="middle" x="693.18" y="-664.14" font-family="monospace" font-size="10.00">pub(crate) mod</text>
<polyline fill="none" stroke="black" points="615.68,-657.14 770.68,-657.14 "/>
<text text-anchor="middle" x="693.18" y="-645.14" font-family="monospace" font-size="10.00">lightning_types::bridge</text>
</g>
<!-- lightning_types&#45;&gt;lightning_types::bridge -->
<g id="edge7" class="edge">
<title>lightning_types&#45;&gt;lightning_types::bridge</title>
<path fill="none" stroke="#000000" d="M477.43,-410.25C494.54,-458.34 587.48,-576.95 646.56,-630.95"/>
<polygon fill="#000000" stroke="#000000" points="644.5,-633.8 654.31,-637.82 649.15,-628.56 644.5,-633.8"/>
<text text-anchor="middle" x="549.5" y="-512.6" font-family="monospace" font-size="10.00">owns</text>
</g>
<!-- lightning_types&#45;&gt;lightning_types::bridge -->
<g id="edge8" class="edge">
<title>lightning_types&#45;&gt;lightning_types::bridge</title>
<path fill="none" stroke="#7f7f7f" stroke-dasharray="5,2" d="M515.9,-410.14C570.85,-457.25 663.51,-573.08 689,-628.36"/>
<polygon fill="#7f7f7f" stroke="#7f7f7f" points="685.91,-630.04 692.96,-637.95 692.38,-627.37 685.91,-630.04"/>
<text text-anchor="middle" x="589.95" y="-511.25" font-family="monospace" font-size="10.00">uses</text>
</g>
<!-- lightning_types::broadcast -->
<g id="node6" class="node">
<title>lightning_types::broadcast</title>
<polygon fill="#f8c04c" stroke="black" points="155.44,-18.42 155.44,-56.42 328.44,-56.42 328.44,-18.42 155.44,-18.42"/>
<text text-anchor="middle" x="241.94" y="-44.42" font-family="monospace" font-size="10.00">pub(crate) mod</text>
<polyline fill="none" stroke="black" points="155.44,-37.42 328.44,-37.42 "/>
<text text-anchor="middle" x="241.94" y="-25.42" font-family="monospace" font-size="10.00">lightning_types::broadcast</text>
</g>
<!-- lightning_types&#45;&gt;lightning_types::broadcast -->
<g id="edge9" class="edge">
<title>lightning_types&#45;&gt;lightning_types::broadcast</title>
<path fill="none" stroke="#000000" d="M477.68,-371.83C460.57,-311.75 343.82,-132.61 280.11,-63.88"/>
<polygon fill="#000000" stroke="#000000" points="282.43,-61.24 272.99,-56.44 277.37,-66.08 282.43,-61.24"/>
<text text-anchor="middle" x="366.4" y="-220.85" font-family="monospace" font-size="10.00">owns</text>
</g>
<!-- lightning_types&#45;&gt;lightning_types::broadcast -->
<g id="edge10" class="edge">
<title>lightning_types&#45;&gt;lightning_types::broadcast</title>
<path fill="none" stroke="#7f7f7f" stroke-dasharray="5,2" d="M445.91,-371.71C387.15,-312.32 271.15,-137.03 244.74,-66.47"/>
<polygon fill="#7f7f7f" stroke="#7f7f7f" points="248.01,-65.21 241.52,-56.84 241.38,-67.44 248.01,-65.21"/>
<text text-anchor="middle" x="332.83" y="-222.09" font-family="monospace" font-size="10.00">uses</text>
</g>
<!-- lightning_types::compression -->
<g id="node7" class="node">
<title>lightning_types::compression</title>
<polygon fill="#f8c04c" stroke="black" points="0,-499.19 0,-537.19 185,-537.19 185,-499.19 0,-499.19"/>
<text text-anchor="middle" x="92.5" y="-525.19" font-family="monospace" font-size="10.00">pub(crate) mod</text>
<polyline fill="none" stroke="black" points="0,-518.19 185,-518.19 "/>
<text text-anchor="middle" x="92.5" y="-506.19" font-family="monospace" font-size="10.00">lightning_types::compression</text>
</g>
<!-- lightning_types&#45;&gt;lightning_types::compression -->
<g id="edge11" class="edge">
<title>lightning_types&#45;&gt;lightning_types::compression</title>
<path fill="none" stroke="#000000" d="M423.39,-389.15C339.09,-404.16 179.53,-458.09 117.66,-493.72"/>
<polygon fill="#000000" stroke="#000000" points="115.64,-490.86 108.93,-499.06 119.29,-496.83 115.64,-490.86"/>
<text text-anchor="middle" x="258.03" y="-444.44" font-family="monospace" font-size="10.00">owns</text>
</g>
<!-- lightning_types&#45;&gt;lightning_types::compression -->
<g id="edge12" class="edge">
<title>lightning_types&#45;&gt;lightning_types::compression</title>
<path fill="none" stroke="#7f7f7f" stroke-dasharray="5,2" d="M460.58,-410.16C415.17,-439.77 287.32,-485.8 194.98,-509.21"/>
<polygon fill="#7f7f7f" stroke="#7f7f7f" points="193.9,-505.87 185.03,-511.67 195.58,-512.66 193.9,-505.87"/>
<text text-anchor="middle" x="315.28" y="-451.68" font-family="monospace" font-size="10.00">uses</text>
</g>
<!-- lightning_types::connection -->
<g id="node8" class="node">
<title>lightning_types::connection</title>
<polygon fill="#f8c04c" stroke="black" points="52.79,-624.27 52.79,-662.27 231.79,-662.27 231.79,-624.27 52.79,-624.27"/>
<text text-anchor="middle" x="142.29" y="-650.27" font-family="monospace" font-size="10.00">pub(crate) mod</text>
<polyline fill="none" stroke="black" points="52.79,-643.27 231.79,-643.27 "/>
<text text-anchor="middle" x="142.29" y="-631.27" font-family="monospace" font-size="10.00">lightning_types::connection</text>
</g>
<!-- lightning_types&#45;&gt;lightning_types::connection -->
<g id="edge13" class="edge">
<title>lightning_types&#45;&gt;lightning_types::connection</title>
<path fill="none" stroke="#000000" d="M423.5,-407.96C343.67,-452.52 199.93,-562.77 155.05,-616.1"/>
<polygon fill="#000000" stroke="#000000" points="152.15,-614.12 148.72,-624.15 157.65,-618.45 152.15,-614.12"/>
<text text-anchor="middle" x="276.78" y="-515.03" font-family="monospace" font-size="10.00">owns</text>
</g>
<!-- lightning_types&#45;&gt;lightning_types::connection -->
<g id="edge14" class="edge">
<title>lightning_types&#45;&gt;lightning_types::connection</title>
<path fill="none" stroke="#7f7f7f" stroke-dasharray="5,2" d="M470.54,-410.31C436.25,-457.51 294.35,-568.17 208.38,-619.08"/>
<polygon fill="#7f7f7f" stroke="#7f7f7f" points="206.36,-616.2 199.48,-624.25 209.88,-622.26 206.36,-616.2"/>
<text text-anchor="middle" x="326.96" y="-517.7" font-family="monospace" font-size="10.00">uses</text>
</g>
<!-- lightning_types::content -->
<g id="node9" class="node">
<title>lightning_types::content</title>
<polygon fill="#f8c04c" stroke="black" points="339.08,-782.17 339.08,-820.17 500.08,-820.17 500.08,-782.17 339.08,-782.17"/>
<text text-anchor="middle" x="419.58" y="-808.17" font-family="monospace" font-size="10.00">pub(crate) mod</text>
<polyline fill="none" stroke="black" points="339.08,-801.17 500.08,-801.17 "/>
<text text-anchor="middle" x="419.58" y="-789.17" font-family="monospace" font-size="10.00">lightning_types::content</text>
</g>
<!-- lightning_types&#45;&gt;lightning_types::content -->
<g id="edge15" class="edge">
<title>lightning_types&#45;&gt;lightning_types::content</title>
<path fill="none" stroke="#000000" d="M461.61,-410.07C433.75,-475.81 402.82,-692.32 409.21,-771.71"/>
<polygon fill="#000000" stroke="#000000" points="405.77,-772.42 410.37,-781.97 412.73,-771.64 405.77,-772.42"/>
<text text-anchor="middle" x="422.91" y="-593.89" font-family="monospace" font-size="10.00">owns</text>
</g>
<!-- lightning_types&#45;&gt;lightning_types::content -->
<g id="edge16" class="edge">
<title>lightning_types&#45;&gt;lightning_types::content</title>
<path fill="none" stroke="#7f7f7f" stroke-dasharray="5,2" d="M486.39,-410.2C496.38,-476.26 467.01,-693.42 438.91,-772.28"/>
<polygon fill="#7f7f7f" stroke="#7f7f7f" points="435.48,-771.45 435.14,-782.04 442.01,-773.97 435.48,-771.45"/>
<text text-anchor="middle" x="450.15" y="-594.24" font-family="monospace" font-size="10.00">uses</text>
</g>
<!-- lightning_types::content_registry -->
<g id="node10" class="node">
<title>lightning_types::content_registry</title>
<polygon fill="#f8c04c" stroke="black" points="471.98,-521.42 471.98,-559.42 686.98,-559.42 686.98,-521.42 471.98,-521.42"/>
<text text-anchor="middle" x="579.48" y="-547.42" font-family="monospace" font-size="10.00">pub(crate) mod</text>
<polyline fill="none" stroke="black" points="471.98,-540.42 686.98,-540.42 "/>
<text text-anchor="middle" x="579.48" y="-528.42" font-family="monospace" font-size="10.00">lightning_types::content_registry</text>
</g>
<!-- lightning_types&#45;&gt;lightning_types::content_registry -->
<g id="edge17" class="edge">
<title>lightning_types&#45;&gt;lightning_types::content_registry</title>
<path fill="none" stroke="#000000" d="M472.3,-410.05C476.33,-437.2 504.64,-484.11 532.17,-514.15"/>
<polygon fill="#000000" stroke="#000000" points="529.68,-516.62 539.13,-521.4 534.73,-511.77 529.68,-516.62"/>
<text text-anchor="middle" x="489.73" y="-465.1" font-family="monospace" font-size="10.00">owns</text>
</g>
<!-- lightning_types&#45;&gt;lightning_types::content_registry -->
<g id="edge18" class="edge">
<title>lightning_types&#45;&gt;lightning_types::content_registry</title>
<path fill="none" stroke="#7f7f7f" stroke-dasharray="5,2" d="M517.79,-410.22C544.12,-436.37 573.09,-481.08 582.04,-511.25"/>
<polygon fill="#7f7f7f" stroke="#7f7f7f" points="578.69,-512.29 584.34,-521.25 585.51,-510.73 578.69,-512.29"/>
<text text-anchor="middle" x="537.42" y="-463.73" font-family="monospace" font-size="10.00">uses</text>
</g>
<!-- lightning_types::dack_aggregator -->
<g id="node11" class="node">
<title>lightning_types::dack_aggregator</title>
<polygon fill="#f8c04c" stroke="black" points="779.99,-485.19 779.99,-523.19 988.99,-523.19 988.99,-485.19 779.99,-485.19"/>
<text text-anchor="middle" x="884.49" y="-511.19" font-family="monospace" font-size="10.00">pub(crate) mod</text>
<polyline fill="none" stroke="black" points="779.99,-504.19 988.99,-504.19 "/>
<text text-anchor="middle" x="884.49" y="-492.19" font-family="monospace" font-size="10.00">lightning_types::dack_aggregator</text>
</g>
<!-- lightning_types&#45;&gt;lightning_types::dack_aggregator -->
<g id="edge19" class="edge">
<title>lightning_types&#45;&gt;lightning_types::dack_aggregator</title>
<path fill="none" stroke="#000000" d="M496.38,-410.05C544.68,-437.28 673.42,-476.85 769.5,-497.32"/>
<polygon fill="#000000" stroke="#000000" points="769.07,-500.81 779.58,-499.42 770.5,-493.96 769.07,-500.81"/>
<text text-anchor="middle" x="620.44" y="-456.69" font-family="monospace" font-size="10.00">owns</text>
</g>
<!-- lightning_types&#45;&gt;lightning_types::dack_aggregator -->
<g id="edge20" class="edge">
<title>lightning_types&#45;&gt;lightning_types::dack_aggregator</title>
<path fill="none" stroke="#7f7f7f" stroke-dasharray="5,2" d="M530.79,-386.87C618.26,-398.23 788.35,-446.48 855.95,-480.14"/>
<polygon fill="#7f7f7f" stroke="#7f7f7f" points="854.68,-483.43 865.16,-485 857.94,-477.24 854.68,-483.43"/>
<text text-anchor="middle" x="680.87" y="-436.51" font-family="monospace" font-size="10.00">uses</text>
</g>
<!-- lightning_types::fetcher -->
<g id="node12" class="node">
<title>lightning_types::fetcher</title>
<polygon fill="#f8c04c" stroke="black" points="246.37,-671.26 246.37,-709.26 407.37,-709.26 407.37,-671.26 246.37,-671.26"/>
<text text-anchor="middle" x="326.87" y="-697.26" font-family="monospace" font-size="10.00">pub(crate) mod</text>
<polyline fill="none" stroke="black" points="246.37,-690.26 407.37,-690.26 "/>
<text text-anchor="middle" x="326.87" y="-678.26" font-family="monospace" font-size="10.00">lightning_types::fetcher</text>
</g>
<!-- lightning_types&#45;&gt;lightning_types::fetcher -->
<g id="edge21" class="edge">
<title>lightning_types&#45;&gt;lightning_types::fetcher</title>
<path fill="none" stroke="#000000" d="M449.36,-410.23C406.95,-461.78 338.09,-599.73 324.69,-660.96"/>
<polygon fill="#000000" stroke="#000000" points="321.19,-660.66 322.89,-671.12 328.08,-661.88 321.19,-660.66"/>
<text text-anchor="middle" x="374.52" y="-538.59" font-family="monospace" font-size="10.00">owns</text>
</g>
<!-- lightning_types&#45;&gt;lightning_types::fetcher -->
<g id="edge22" class="edge">
<title>lightning_types&#45;&gt;lightning_types::fetcher</title>
<path fill="none" stroke="#7f7f7f" stroke-dasharray="5,2" d="M481.15,-410.01C474.67,-462.01 406.25,-602.79 360.94,-662.98"/>
<polygon fill="#7f7f7f" stroke="#7f7f7f" points="358.13,-660.9 354.71,-670.92 363.63,-665.22 358.13,-660.9"/>
<text text-anchor="middle" x="408.55" y="-539.5" font-family="monospace" font-size="10.00">uses</text>
</g>
<!-- lightning_types::metrics -->
<g id="node13" class="node">
<title>lightning_types::metrics</title>
<polygon fill="#f8c04c" stroke="black" points="48.95,-161.3 48.95,-199.3 209.95,-199.3 209.95,-161.3 48.95,-161.3"/>
<text text-anchor="middle" x="129.45" y="-187.3" font-family="monospace" font-size="10.00">pub(crate) mod</text>
<polyline fill="none" stroke="black" points="48.95,-180.3 209.95,-180.3 "/>
<text text-anchor="middle" x="129.45" y="-168.3" font-family="monospace" font-size="10.00">lightning_types::metrics</text>
</g>
<!-- lightning_types&#45;&gt;lightning_types::metrics -->
<g id="edge23" class="edge">
<title>lightning_types&#45;&gt;lightning_types::metrics</title>
<path fill="none" stroke="#000000" d="M445.69,-371.87C382.42,-333.54 239.87,-247.18 169.83,-204.76"/>
<polygon fill="#000000" stroke="#000000" points="171.22,-201.51 160.85,-199.32 167.59,-207.49 171.22,-201.51"/>
<text text-anchor="middle" x="295.26" y="-291.31" font-family="monospace" font-size="10.00">owns</text>
</g>
<!-- lightning_types::misbehavior -->
<g id="node14" class="node">
<title>lightning_types::misbehavior</title>
<polygon fill="#f8c04c" stroke="black" points="709.58,-591.14 709.58,-629.14 894.58,-629.14 894.58,-591.14 709.58,-591.14"/>
<text text-anchor="middle" x="802.08" y="-617.14" font-family="monospace" font-size="10.00">pub(crate) mod</text>
<polyline fill="none" stroke="black" points="709.58,-610.14 894.58,-610.14 "/>
<text text-anchor="middle" x="802.08" y="-598.14" font-family="monospace" font-size="10.00">lightning_types::misbehavior</text>
</g>
<!-- lightning_types&#45;&gt;lightning_types::misbehavior -->
<g id="edge24" class="edge">
<title>lightning_types&#45;&gt;lightning_types::misbehavior</title>
<path fill="none" stroke="#000000" d="M484.52,-410.14C517.84,-452.01 644.64,-541.55 727.86,-586.31"/>
<polygon fill="#000000" stroke="#000000" points="726.3,-589.45 736.77,-591.02 729.56,-583.26 726.3,-589.45"/>
<text text-anchor="middle" x="593.69" y="-490.23" font-family="monospace" font-size="10.00">owns</text>
</g>
<!-- lightning_types&#45;&gt;lightning_types::misbehavior -->
<g id="edge25" class="edge">
<title>lightning_types&#45;&gt;lightning_types::misbehavior</title>
<path fill="none" stroke="#7f7f7f" stroke-dasharray="5,2" d="M530.96,-404.26C607.8,-441.66 743.25,-534.89 788.09,-583.27"/>
<polygon fill="#7f7f7f" stroke="#7f7f7f" points="785.52,-585.65 794.72,-590.91 790.82,-581.06 785.52,-585.65"/>
<text text-anchor="middle" x="647.03" y="-496.76" font-family="monospace" font-size="10.00">uses</text>
</g>
<!-- lightning_types::pool -->
<g id="node15" class="node">
<title>lightning_types::pool</title>
<polygon fill="#f8c04c" stroke="black" points="351.04,-0.5 351.04,-38.5 494.04,-38.5 494.04,-0.5 351.04,-0.5"/>
<text text-anchor="middle" x="422.54" y="-26.5" font-family="monospace" font-size="10.00">pub(crate) mod</text>
<polyline fill="none" stroke="black" points="351.04,-19.5 494.04,-19.5 "/>
<text text-anchor="middle" x="422.54" y="-7.5" font-family="monospace" font-size="10.00">lightning_types::pool</text>
</g>
<!-- lightning_types&#45;&gt;lightning_types::pool -->
<g id="edge26" class="edge">
<title>lightning_types&#45;&gt;lightning_types::pool</title>
<path fill="none" stroke="#000000" d="M486.76,-371.73C496.36,-310.56 469.56,-120.48 442.61,-47.95"/>
<polygon fill="#000000" stroke="#000000" points="445.8,-46.49 438.81,-38.53 439.31,-49.11 445.8,-46.49"/>
<text text-anchor="middle" x="452.18" y="-212.84" font-family="monospace" font-size="10.00">owns</text>
</g>
<!-- lightning_types&#45;&gt;lightning_types::pool -->
<g id="edge27" class="edge">
<title>lightning_types&#45;&gt;lightning_types::pool</title>
<path fill="none" stroke="#7f7f7f" stroke-dasharray="5,2" d="M460.86,-371.84C434.08,-311.06 405.76,-122.16 411.77,-48.9"/>
<polygon fill="#7f7f7f" stroke="#7f7f7f" points="415.29,-48.9 412.97,-38.56 408.34,-48.09 415.29,-48.9"/>
<text text-anchor="middle" x="423.81" y="-213.37" font-family="monospace" font-size="10.00">uses</text>
</g>
<!-- lightning_types::reputation -->
<g id="node16" class="node">
<title>lightning_types::reputation</title>
<polygon fill="#f8c04c" stroke="black" points="741.86,-181.78 741.86,-219.78 920.86,-219.78 920.86,-181.78 741.86,-181.78"/>
<text text-anchor="middle" x="831.36" y="-207.78" font-family="monospace" font-size="10.00">pub(crate) mod</text>
<polyline fill="none" stroke="black" points="741.86,-200.78 920.86,-200.78 "/>
<text text-anchor="middle" x="831.36" y="-188.78" font-family="monospace" font-size="10.00">lightning_types::reputation</text>
</g>
<!-- lightning_types&#45;&gt;lightning_types::reputation -->
<g id="edge28" class="edge">
<title>lightning_types&#45;&gt;lightning_types::reputation</title>
<path fill="none" stroke="#000000" d="M530.87,-383.32C612.32,-353.57 762.04,-271.62 813.79,-226.73"/>
<polygon fill="#000000" stroke="#000000" points="816.26,-229.21 821.23,-219.85 811.51,-224.07 816.26,-229.21"/>
<text text-anchor="middle" x="659.83" y="-308.02" font-family="monospace" font-size="10.00">owns</text>
</g>
<!-- lightning_types&#45;&gt;lightning_types::reputation -->
<g id="edge29" class="edge">
<title>lightning_types&#45;&gt;lightning_types::reputation</title>
<path fill="none" stroke="#7f7f7f" stroke-dasharray="5,2" d="M487.57,-371.58C525.11,-334.41 650.8,-262.78 739.45,-223.9"/>
<polygon fill="#7f7f7f" stroke="#7f7f7f" points="740.92,-227.08 748.72,-219.9 738.15,-220.65 740.92,-227.08"/>
<text text-anchor="middle" x="601.01" y="-300.74" font-family="monospace" font-size="10.00">uses</text>
</g>
<!-- lightning_types::response -->
<g id="node17" class="node">
<title>lightning_types::response</title>
<polygon fill="#f8c04c" stroke="black" points="647.68,-115.21 647.68,-153.21 814.68,-153.21 814.68,-115.21 647.68,-115.21"/>
<text text-anchor="middle" x="731.18" y="-141.21" font-family="monospace" font-size="10.00">pub(crate) mod</text>
<polyline fill="none" stroke="black" points="647.68,-134.21 814.68,-134.21 "/>
<text text-anchor="middle" x="731.18" y="-122.21" font-family="monospace" font-size="10.00">lightning_types::response</text>
</g>
<!-- lightning_types&#45;&gt;lightning_types::response -->
<g id="edge30" class="edge">
<title>lightning_types&#45;&gt;lightning_types::response</title>
<path fill="none" stroke="#000000" d="M522.32,-371.78C585.16,-325.85 692.03,-215.95 723.81,-162.47"/>
<polygon fill="#000000" stroke="#000000" points="727,-163.93 728.7,-153.47 720.85,-160.59 727,-163.93"/>
<text text-anchor="middle" x="610.57" y="-270.13" font-family="monospace" font-size="10.00">owns</text>
</g>
<!-- lightning_types&#45;&gt;lightning_types::response -->
<g id="edge31" class="edge">
<title>lightning_types&#45;&gt;lightning_types::response</title>
<path fill="none" stroke="#7f7f7f" stroke-dasharray="5,2" d="M479.68,-371.59C502.53,-324.39 610.65,-211.2 678.11,-159.29"/>
<polygon fill="#7f7f7f" stroke="#7f7f7f" points="680.23,-162.08 686.13,-153.28 676.03,-156.48 680.23,-162.08"/>
<text text-anchor="middle" x="566.4" y="-268.44" font-family="monospace" font-size="10.00">uses</text>
</g>
<!-- lightning_types::rpc -->
<g id="node18" class="node">
<title>lightning_types::rpc</title>
<polygon fill="#f8c04c" stroke="black" points="6.44,-318.99 6.44,-356.99 143.44,-356.99 143.44,-318.99 6.44,-318.99"/>
<text text-anchor="middle" x="74.94" y="-344.99" font-family="monospace" font-size="10.00">pub(crate) mod</text>
<polyline fill="none" stroke="black" points="6.44,-337.99 143.44,-337.99 "/>
<text text-anchor="middle" x="74.94" y="-325.99" font-family="monospace" font-size="10.00">lightning_types::rpc</text>
</g>
<!-- lightning_types&#45;&gt;lightning_types::rpc -->
<g id="edge32" class="edge">
<title>lightning_types&#45;&gt;lightning_types::rpc</title>
<path fill="none" stroke="#000000" d="M448.58,-371.87C387.9,-350.6 244.48,-329.53 154.01,-326.51"/>
<polygon fill="#000000" stroke="#000000" points="153.89,-323 143.8,-326.24 153.7,-330 153.89,-323"/>
<text text-anchor="middle" x="288.8" y="-352.19" font-family="monospace" font-size="10.00">owns</text>
</g>
<!-- lightning_types&#45;&gt;lightning_types::rpc -->
<g id="edge33" class="edge">
<title>lightning_types&#45;&gt;lightning_types::rpc</title>
<path fill="none" stroke="#7f7f7f" stroke-dasharray="5,2" d="M423.37,-402.76C340.95,-403.54 185.51,-382.52 113.41,-360.29"/>
<polygon fill="#7f7f7f" stroke="#7f7f7f" points="114.4,-356.93 103.81,-357.15 112.23,-363.59 114.4,-356.93"/>
<text text-anchor="middle" x="255.89" y="-384.53" font-family="monospace" font-size="10.00">uses</text>
</g>
<!-- lightning_types::state -->
<g id="node19" class="node">
<title>lightning_types::state</title>
<polygon fill="#f8c04c" stroke="black" points="553.09,-169.35 553.09,-207.35 702.09,-207.35 702.09,-169.35 553.09,-169.35"/>
<text text-anchor="middle" x="627.59" y="-195.35" font-family="monospace" font-size="10.00">pub(crate) mod</text>
<polyline fill="none" stroke="black" points="553.09,-188.35 702.09,-188.35 "/>
<text text-anchor="middle" x="627.59" y="-176.35" font-family="monospace" font-size="10.00">lightning_types::state</text>
</g>
<!-- lightning_types&#45;&gt;lightning_types::state -->
<g id="edge34" class="edge">
<title>lightning_types&#45;&gt;lightning_types::state</title>
<path fill="none" stroke="#000000" d="M516.51,-371.73C556.31,-335.27 610.97,-259.64 626.8,-217.17"/>
<polygon fill="#000000" stroke="#000000" points="630.22,-217.97 629.89,-207.38 623.54,-215.86 630.22,-217.97"/>
<text text-anchor="middle" x="559.16" y="-297.45" font-family="monospace" font-size="10.00">owns</text>
</g>
<!-- lightning_types&#45;&gt;lightning_types::state -->
<g id="edge35" class="edge">
<title>lightning_types&#45;&gt;lightning_types::state</title>
<path fill="none" stroke="#7f7f7f" stroke-dasharray="5,2" d="M474.87,-371.88C484.13,-334.57 538.52,-256.48 580.81,-214.64"/>
<polygon fill="#7f7f7f" stroke="#7f7f7f" points="583.46,-216.95 588.28,-207.51 578.63,-211.88 583.46,-216.95"/>
<text text-anchor="middle" x="515.34" y="-296.26" font-family="monospace" font-size="10.00">uses</text>
</g>
<!-- lightning_types::transaction -->
<g id="node20" class="node">
<title>lightning_types::transaction</title>
<polygon fill="#f8c04c" stroke="black" points="718.78,-376.32 718.78,-414.32 903.78,-414.32 903.78,-376.32 718.78,-376.32"/>
<text text-anchor="middle" x="811.28" y="-402.32" font-family="monospace" font-size="10.00">pub(crate) mod</text>
<polyline fill="none" stroke="black" points="718.78,-395.32 903.78,-395.32 "/>
<text text-anchor="middle" x="811.28" y="-383.32" font-family="monospace" font-size="10.00">lightning_types::transaction</text>
</g>
<!-- lightning_types&#45;&gt;lightning_types::transaction -->
<g id="edge36" class="edge">
<title>lightning_types&#45;&gt;lightning_types::transaction</title>
<path fill="none" stroke="#000000" d="M518.23,-409.99C577.04,-421.15 685.58,-423.42 752.79,-415.62"/>
<polygon fill="#000000" stroke="#000000" points="753.32,-419.08 762.8,-414.34 752.43,-412.14 753.32,-419.08"/>
<text text-anchor="middle" x="623.01" y="-415.81" font-family="monospace" font-size="10.00">owns</text>
</g>
<!-- lightning_types&#45;&gt;lightning_types::transaction -->
<g id="edge37" class="edge">
<title>lightning_types&#45;&gt;lightning_types::transaction</title>
<path fill="none" stroke="#7f7f7f" stroke-dasharray="5,2" d="M525.65,-371.91C588.17,-363.1 696.43,-364.36 760.2,-374.52"/>
<polygon fill="#7f7f7f" stroke="#7f7f7f" points="759.96,-378.03 770.42,-376.3 761.16,-371.14 759.96,-378.03"/>
<text text-anchor="middle" x="630.42" y="-376.21" font-family="monospace" font-size="10.00">uses</text>
</g>
<!-- lightning_types::application&#45;&gt;lightning_types::response -->
<g id="edge38" class="edge">
<title>lightning_types::application&#45;&gt;lightning_types::response</title>
<path fill="none" stroke="#7f7f7f" stroke-dasharray="5,2" d="M759,-260.03C767.03,-235.23 765.16,-191.8 755.85,-163.01"/>
<polygon fill="#7f7f7f" stroke="#7f7f7f" points="759.06,-161.61 752.25,-153.5 752.51,-164.09 759.06,-161.61"/>
<text text-anchor="middle" x="744.92" y="-214.52" font-family="monospace" font-size="10.00">uses</text>
</g>
<!-- lightning_types::blockstore_server&#45;&gt;lightning_types::blockstore -->
<g id="edge39" class="edge">
<title>lightning_types::blockstore_server&#45;&gt;lightning_types::blockstore</title>
<path fill="none" stroke="#7f7f7f" stroke-dasharray="5,2" d="M397.58,-225.67C389.43,-273.89 368.1,-400.05 358.39,-457.48"/>
<polygon fill="#7f7f7f" stroke="#7f7f7f" points="354.88,-457.25 356.66,-467.69 361.78,-458.42 354.88,-457.25"/>
<text text-anchor="middle" x="365.48" y="-344.58" font-family="monospace" font-size="10.00">uses</text>
</g>
<!-- lightning_types::blockstore_server&#45;&gt;lightning_types::pool -->
<g id="edge40" class="edge">
<title>lightning_types::blockstore_server&#45;&gt;lightning_types::pool</title>
<path fill="none" stroke="#7f7f7f" stroke-dasharray="5,2" d="M403.08,-187.1C406.89,-154.28 414.66,-87.4 419.14,-48.78"/>
<polygon fill="#7f7f7f" stroke="#7f7f7f" points="422.63,-49.03 420.31,-38.69 415.68,-48.22 422.63,-49.03"/>
<text text-anchor="middle" x="398.61" y="-120.94" font-family="monospace" font-size="10.00">uses</text>
</g>
<!-- lightning_types::blockstore_server&#45;&gt;lightning_types::state -->
<g id="edge41" class="edge">
<title>lightning_types::blockstore_server&#45;&gt;lightning_types::state</title>
<path fill="none" stroke="#7f7f7f" stroke-dasharray="5,2" d="M511.56,-197.59C522.1,-196.75 532.67,-195.91 542.9,-195.09"/>
<polygon fill="#7f7f7f" stroke="#7f7f7f" points="543.32,-198.57 553.01,-194.29 542.77,-191.59 543.32,-198.57"/>
<text text-anchor="middle" x="539.73" y="-199.34" font-family="monospace" font-size="10.00">uses</text>
</g>
<!-- lightning_types::connection&#45;&gt;lightning_types::compression -->
<g id="edge42" class="edge">
<title>lightning_types::connection&#45;&gt;lightning_types::compression</title>
<path fill="none" stroke="#7f7f7f" stroke-dasharray="5,2" d="M134.62,-624C126.41,-603.37 113.29,-570.43 103.88,-546.78"/>
<polygon fill="#7f7f7f" stroke="#7f7f7f" points="107.05,-545.27 100.1,-537.28 100.54,-547.86 107.05,-545.27"/>
<text text-anchor="middle" x="106.75" y="-588.39" font-family="monospace" font-size="10.00">uses</text>
</g>
<!-- lightning_types::content_registry&#45;&gt;lightning_types::blockstore -->
<g id="edge43" class="edge">
<title>lightning_types::content_registry&#45;&gt;lightning_types::blockstore</title>
<path fill="none" stroke="#7f7f7f" stroke-dasharray="5,2" d="M499.47,-521.41C481.38,-517.12 462.06,-512.53 443.59,-508.14"/>
<polygon fill="#7f7f7f" stroke="#7f7f7f" points="444.26,-504.7 433.73,-505.8 442.65,-511.51 444.26,-504.7"/>
<text text-anchor="middle" x="459.03" y="-517.78" font-family="monospace" font-size="10.00">uses</text>
</g>
<!-- lightning_types::fetcher&#45;&gt;lightning_types::blockstore -->
<g id="edge44" class="edge">
<title>lightning_types::fetcher&#45;&gt;lightning_types::blockstore</title>
<path fill="none" stroke="#7f7f7f" stroke-dasharray="5,2" d="M329.37,-671.11C334.04,-635.35 344.11,-558.22 349.63,-515.93"/>
<polygon fill="#7f7f7f" stroke="#7f7f7f" points="353.11,-516.34 350.93,-505.97 346.17,-515.43 353.11,-516.34"/>
<text text-anchor="middle" x="327" y="-596.52" font-family="monospace" font-size="10.00">uses</text>
</g>
<!-- lightning_types::fetcher&#45;&gt;lightning_types::content -->
<g id="edge45" class="edge">
<title>lightning_types::fetcher&#45;&gt;lightning_types::content</title>
<path fill="none" stroke="#7f7f7f" stroke-dasharray="5,2" d="M343.02,-709.58C357.98,-727.47 380.36,-754.25 397.07,-774.24"/>
<polygon fill="#7f7f7f" stroke="#7f7f7f" points="394.52,-776.65 403.62,-782.07 399.89,-772.16 394.52,-776.65"/>
<text text-anchor="middle" x="357.55" y="-744.91" font-family="monospace" font-size="10.00">uses</text>
</g>
<!-- lightning_types::response&#45;&gt;lightning_types::application -->
<g id="edge46" class="edge">
<title>lightning_types::response&#45;&gt;lightning_types::application</title>
<path fill="none" stroke="#7f7f7f" stroke-dasharray="5,2" d="M714.09,-153.35C706.06,-178.15 707.93,-221.58 717.24,-250.37"/>
<polygon fill="#7f7f7f" stroke="#7f7f7f" points="714.03,-251.77 720.84,-259.89 720.57,-249.29 714.03,-251.77"/>
<text text-anchor="middle" x="728.16" y="-193.86" font-family="monospace" font-size="10.00">uses</text>
</g>
<!-- lightning_types::response&#45;&gt;lightning_types::state -->
<g id="edge47" class="edge">
<title>lightning_types::response&#45;&gt;lightning_types::state</title>
<path fill="none" stroke="#7f7f7f" stroke-dasharray="5,2" d="M694.66,-153.3C687.69,-156.94 680.33,-160.79 673.12,-164.55"/>
<polygon fill="#7f7f7f" stroke="#7f7f7f" points="671.37,-161.52 664.13,-169.26 674.61,-167.73 671.37,-161.52"/>
<text text-anchor="middle" x="696.39" y="-161.93" font-family="monospace" font-size="10.00">uses</text>
</g>
<!-- lightning_types::response&#45;&gt;lightning_types::transaction -->
<g id="edge48" class="edge">
<title>lightning_types::response&#45;&gt;lightning_types::transaction</title>
<path fill="none" stroke="#7f7f7f" stroke-dasharray="5,2" d="M722.92,-153.34C720.21,-199.2 753.68,-314.22 783.19,-367.6"/>
<polygon fill="#7f7f7f" stroke="#7f7f7f" points="780.18,-369.38 788.27,-376.22 786.21,-365.83 780.18,-369.38"/>
<text text-anchor="middle" x="740.56" y="-252.47" font-family="monospace" font-size="10.00">uses</text>
</g>
<!-- lightning_types::state&#45;&gt;lightning_types::reputation -->
<g id="edge49" class="edge">
<title>lightning_types::state&#45;&gt;lightning_types::reputation</title>
<path fill="none" stroke="#7f7f7f" stroke-dasharray="5,2" d="M702.31,-192.91C711.83,-193.49 721.7,-194.09 731.54,-194.69"/>
<polygon fill="#7f7f7f" stroke="#7f7f7f" points="731.58,-198.2 741.78,-195.31 732.01,-191.21 731.58,-198.2"/>
<text text-anchor="middle" x="716.93" y="-185.8" font-family="monospace" font-size="10.00">uses</text>
</g>
<!-- lightning_types::transaction&#45;&gt;lightning_types::application -->
<g id="edge50" class="edge">
<title>lightning_types::transaction&#45;&gt;lightning_types::application</title>
<path fill="none" stroke="#7f7f7f" stroke-dasharray="5,2" d="M799.83,-376.14C788.58,-357.31 771.3,-328.38 758.54,-307.02"/>
<polygon fill="#7f7f7f" stroke="#7f7f7f" points="761.51,-305.17 753.38,-298.38 755.5,-308.76 761.51,-305.17"/>
<text text-anchor="middle" x="766.68" y="-344.58" font-family="monospace" font-size="10.00">uses</text>
</g>
<!-- lightning_types::transaction&#45;&gt;lightning_types::bridge -->
<g id="edge51" class="edge">
<title>lightning_types::transaction&#45;&gt;lightning_types::bridge</title>
<path fill="none" stroke="#7f7f7f" stroke-dasharray="5,2" d="M802.6,-414.57C782.04,-460.16 730.29,-574.87 706.06,-628.58"/>
<polygon fill="#7f7f7f" stroke="#7f7f7f" points="702.8,-627.31 701.87,-637.86 709.18,-630.19 702.8,-627.31"/>
<text text-anchor="middle" x="741.83" y="-524.57" font-family="monospace" font-size="10.00">uses</text>
</g>
<!-- lightning_types::transaction&#45;&gt;lightning_types::content_registry -->
<g id="edge52" class="edge">
<title>lightning_types::transaction&#45;&gt;lightning_types::content_registry</title>
<path fill="none" stroke="#7f7f7f" stroke-dasharray="5,2" d="M780.5,-414.59C738.82,-440.68 664.41,-487.26 618.75,-515.84"/>
<polygon fill="#7f7f7f" stroke="#7f7f7f" points="616.64,-513.03 610.02,-521.3 620.35,-518.96 616.64,-513.03"/>
<text text-anchor="middle" x="687.13" y="-468.21" font-family="monospace" font-size="10.00">uses</text>
</g>
<!-- lightning_types::transaction&#45;&gt;lightning_types::dack_aggregator -->
<g id="edge53" class="edge">
<title>lightning_types::transaction&#45;&gt;lightning_types::dack_aggregator</title>
<path fill="none" stroke="#7f7f7f" stroke-dasharray="5,2" d="M824.2,-414.53C835.81,-431.79 852.97,-457.32 866.03,-476.73"/>
<polygon fill="#7f7f7f" stroke="#7f7f7f" points="863.21,-478.82 871.7,-485.17 869.02,-474.92 863.21,-478.82"/>
<text text-anchor="middle" x="832.61" y="-448.63" font-family="monospace" font-size="10.00">uses</text>
</g>
<!-- lightning_types::transaction&#45;&gt;lightning_types::misbehavior -->
<g id="edge54" class="edge">
<title>lightning_types::transaction&#45;&gt;lightning_types::misbehavior</title>
<path fill="none" stroke="#7f7f7f" stroke-dasharray="5,2" d="M810.47,-414.38C808.85,-452.04 805.25,-536.2 803.33,-580.91"/>
<polygon fill="#7f7f7f" stroke="#7f7f7f" points="799.83,-580.98 802.9,-591.12 806.82,-581.28 799.83,-580.98"/>
<text text-anchor="middle" x="794.4" y="-500.65" font-family="monospace" font-size="10.00">uses</text>
</g>
<!-- lightning_types::transaction&#45;&gt;lightning_types::reputation -->
<g id="edge55" class="edge">
<title>lightning_types::transaction&#45;&gt;lightning_types::reputation</title>
<path fill="none" stroke="#7f7f7f" stroke-dasharray="5,2" d="M813.24,-376.31C816.77,-342.17 824.19,-270.27 828.36,-229.88"/>
<polygon fill="#7f7f7f" stroke="#7f7f7f" points="831.85,-230.17 829.39,-219.86 824.88,-229.45 831.85,-230.17"/>
<text text-anchor="middle" x="808.3" y="-306.1" font-family="monospace" font-size="10.00">uses</text>
</g>
<!-- lightning_types::transaction&#45;&gt;lightning_types::response -->
<g id="edge56" class="edge">
<title>lightning_types::transaction&#45;&gt;lightning_types::response</title>
<path fill="none" stroke="#7f7f7f" stroke-dasharray="5,2" d="M819.54,-376.19C822.25,-330.33 788.79,-215.31 759.27,-161.93"/>
<polygon fill="#7f7f7f" stroke="#7f7f7f" points="762.28,-160.15 754.19,-153.31 756.25,-163.7 762.28,-160.15"/>
<text text-anchor="middle" x="776.9" y="-261.06" font-family="monospace" font-size="10.00">uses</text>
</g>
<!-- lightning_types::transaction&#45;&gt;lightning_types::state -->
<g id="edge57" class="edge">
<title>lightning_types::transaction&#45;&gt;lightning_types::state</title>
<path fill="none" stroke="#7f7f7f" stroke-dasharray="5,2" d="M794.33,-376.22C761.45,-339.18 688.97,-257.51 651.32,-215.1"/>
<polygon fill="#7f7f7f" stroke="#7f7f7f" points="653.76,-212.56 644.5,-207.41 648.52,-217.21 653.76,-212.56"/>
<text text-anchor="middle" x="710.33" y="-298.66" font-family="monospace" font-size="10.00">uses</text>
</g>
<!-- rlp -->
<g id="node21" class="node">
<title>rlp</title>
<polygon fill="#5397c8" stroke="black" points="1157.16,-376.32 1157.16,-414.32 1258.16,-414.32 1258.16,-376.32 1157.16,-376.32"/>
<text text-anchor="middle" x="1207.66" y="-402.32" font-family="monospace" font-size="10.00">external crate</text>
<polyline fill="none" stroke="black" points="1157.16,-395.32 1258.16,-395.32 "/>
<text text-anchor="middle" x="1207.66" y="-383.32" font-family="monospace" font-size="10.00">rlp</text>
</g>
<!-- lightning_types::transaction&#45;&gt;rlp -->
<g id="edge58" class="edge">
<title>lightning_types::transaction&#45;&gt;rlp</title>
<path fill="none" stroke="#7f7f7f" stroke-dasharray="5,2" d="M903.96,-395.32C978.89,-395.32 1082.21,-395.32 1146.95,-395.32"/>
<polygon fill="#7f7f7f" stroke="#7f7f7f" points="1147,-398.82 1157,-395.32 1147,-391.82 1147,-398.82"/>
<text text-anchor="middle" x="1012.96" y="-398.32" font-family="monospace" font-size="10.00">uses</text>
</g>
</g>
</svg>
