<?xml version="1.0" encoding="UTF-8" standalone="no"?>
<!DOCTYPE svg PUBLIC "-//W3C//DTD SVG 1.1//EN"
 "http://www.w3.org/Graphics/SVG/1.1/DTD/svg11.dtd">
<!-- Generated by graphviz version 4.0.0 (0)
 -->
<!-- Pages: 1 -->
<svg width="669pt" height="4050pt"
 viewBox="0.00 0.00 668.56 4050.00" xmlns="http://www.w3.org/2000/svg" xmlns:xlink="http://www.w3.org/1999/xlink">
<g id="graph0" class="graph" transform="scale(0.522069 0.522069) rotate(0) translate(28.8 7728.8)">
<polygon fill="white" stroke="transparent" points="-28.8,28.8 -28.8,-7728.8 1251.8,-7728.8 1251.8,28.8 -28.8,28.8"/>
<text text-anchor="middle" x="611.5" y="-7667.2" font-family="Helvetica,sans-Serif" font-size="36.00">lightning_application</text>
<!-- lightning_application -->
<g id="node1" class="node">
<title>lightning_application</title>
<polygon fill="#5397c8" stroke="black" points="33,-2329.5 33,-2367.5 176,-2367.5 176,-2329.5 33,-2329.5"/>
<text text-anchor="middle" x="104.5" y="-2355.5" font-family="monospace" font-size="10.00">crate</text>
<polyline fill="none" stroke="black" points="33,-2348.5 176,-2348.5 "/>
<text text-anchor="middle" x="104.5" y="-2336.5" font-family="monospace" font-size="10.00">lightning_application</text>
</g>
<!-- lightning_application::app -->
<g id="node2" class="node">
<title>lightning_application::app</title>
<polygon fill="#81c169" stroke="black" points="1023,-7613.5 1023,-7651.5 1196,-7651.5 1196,-7613.5 1023,-7613.5"/>
<text text-anchor="middle" x="1109.5" y="-7639.5" font-family="monospace" font-size="10.00">pub mod</text>
<polyline fill="none" stroke="black" points="1023,-7632.5 1196,-7632.5 "/>
<text text-anchor="middle" x="1109.5" y="-7620.5" font-family="monospace" font-size="10.00">lightning_application::app</text>
</g>
<!-- lightning_application&#45;&gt;lightning_application::app -->
<g id="edge1" class="edge">
<title>lightning_application&#45;&gt;lightning_application::app</title>
<path fill="none" stroke="#000000" d="M106.51,-2367.74C139.88,-2687.44 578,-6884.5 578,-6884.5 578,-6884.5 994.16,-7470.18 1089.99,-7605.04"/>
<polygon fill="#000000" stroke="#000000" points="1087.18,-7607.13 1095.83,-7613.26 1092.89,-7603.08 1087.18,-7607.13"/>
<text text-anchor="middle" x="590.5" y="-6887.5" font-family="monospace" font-size="10.00">owns</text>
</g>
<!-- lightning_application::config -->
<g id="node3" class="node">
<title>lightning_application::config</title>
<polygon fill="#81c169" stroke="black" points="1014,-6134.5 1014,-6172.5 1205,-6172.5 1205,-6134.5 1014,-6134.5"/>
<text text-anchor="middle" x="1109.5" y="-6160.5" font-family="monospace" font-size="10.00">pub mod</text>
<polyline fill="none" stroke="black" points="1014,-6153.5 1205,-6153.5 "/>
<text text-anchor="middle" x="1109.5" y="-6141.5" font-family="monospace" font-size="10.00">lightning_application::config</text>
</g>
<!-- lightning_application&#45;&gt;lightning_application::config -->
<g id="edge2" class="edge">
<title>lightning_application&#45;&gt;lightning_application::config</title>
<path fill="none" stroke="#000000" d="M106.99,-2367.61C143.87,-2650.61 578,-5981.5 578,-5981.5 578,-5981.5 897.36,-6084.85 1040.97,-6131.32"/>
<polygon fill="#000000" stroke="#000000" points="1040,-6134.69 1050.59,-6134.44 1042.15,-6128.03 1040,-6134.69"/>
<text text-anchor="middle" x="590.5" y="-5984.5" font-family="monospace" font-size="10.00">owns</text>
</g>
<!-- lightning_application::env -->
<g id="node4" class="node">
<title>lightning_application::env</title>
<polygon fill="#81c169" stroke="black" points="1023,-4655.5 1023,-4693.5 1196,-4693.5 1196,-4655.5 1023,-4655.5"/>
<text text-anchor="middle" x="1109.5" y="-4681.5" font-family="monospace" font-size="10.00">pub mod</text>
<polyline fill="none" stroke="black" points="1023,-4674.5 1196,-4674.5 "/>
<text text-anchor="middle" x="1109.5" y="-4662.5" font-family="monospace" font-size="10.00">lightning_application::env</text>
</g>
<!-- lightning_application&#45;&gt;lightning_application::env -->
<g id="edge3" class="edge">
<title>lightning_application&#45;&gt;lightning_application::env</title>
<path fill="none" stroke="#000000" d="M109.03,-2367.7C157.49,-2572.89 578,-4353.5 578,-4353.5 578,-4353.5 944.83,-4575.05 1068.99,-4650.03"/>
<polygon fill="#000000" stroke="#000000" points="1067.47,-4653.21 1077.84,-4655.38 1071.09,-4647.22 1067.47,-4653.21"/>
<text text-anchor="middle" x="590.5" y="-4356.5" font-family="monospace" font-size="10.00">owns</text>
</g>
<!-- lightning_application::genesis -->
<g id="node5" class="node">
<title>lightning_application::genesis</title>
<polygon fill="#81c169" stroke="black" points="1011,-3176.5 1011,-3214.5 1208,-3214.5 1208,-3176.5 1011,-3176.5"/>
<text text-anchor="middle" x="1109.5" y="-3202.5" font-family="monospace" font-size="10.00">pub mod</text>
<polyline fill="none" stroke="black" points="1011,-3195.5 1208,-3195.5 "/>
<text text-anchor="middle" x="1109.5" y="-3183.5" font-family="monospace" font-size="10.00">lightning_application::genesis</text>
</g>
<!-- lightning_application&#45;&gt;lightning_application::genesis -->
<g id="edge4" class="edge">
<title>lightning_application&#45;&gt;lightning_application::genesis</title>
<path fill="none" stroke="#000000" d="M110.4,-2367.56C164.87,-2543.43 578,-3877.5 578,-3877.5 578,-3877.5 988.86,-3350.3 1088.11,-3222.95"/>
<polygon fill="#000000" stroke="#000000" points="1091.06,-3224.85 1094.45,-3214.81 1085.54,-3220.55 1091.06,-3224.85"/>
<text text-anchor="middle" x="590.5" y="-3880.5" font-family="monospace" font-size="10.00">owns</text>
</g>
<!-- lightning_application::query_runner -->
<g id="node6" class="node">
<title>lightning_application::query_runner</title>
<polygon fill="#81c169" stroke="black" points="996,-3065.5 996,-3103.5 1223,-3103.5 1223,-3065.5 996,-3065.5"/>
<text text-anchor="middle" x="1109.5" y="-3091.5" font-family="monospace" font-size="10.00">pub mod</text>
<polyline fill="none" stroke="black" points="996,-3084.5 1223,-3084.5 "/>
<text text-anchor="middle" x="1109.5" y="-3072.5" font-family="monospace" font-size="10.00">lightning_application::query_runner</text>
</g>
<!-- lightning_application&#45;&gt;lightning_application::query_runner -->
<g id="edge5" class="edge">
<title>lightning_application&#45;&gt;lightning_application::query_runner</title>
<path fill="none" stroke="#000000" d="M110.89,-2329.36C168.96,-2155.56 603,-856.5 603,-856.5 603,-856.5 1043.32,-2793.41 1102.87,-3055.32"/>
<polygon fill="#000000" stroke="#000000" points="1099.49,-3056.26 1105.12,-3065.24 1106.32,-3054.71 1099.49,-3056.26"/>
<text text-anchor="middle" x="590.5" y="-848.5" font-family="monospace" font-size="10.00">owns</text>
</g>
<!-- lightning_application::state -->
<g id="node7" class="node">
<title>lightning_application::state</title>
<polygon fill="#81c169" stroke="black" points="1017,-1586.5 1017,-1624.5 1202,-1624.5 1202,-1586.5 1017,-1586.5"/>
<text text-anchor="middle" x="1109.5" y="-1612.5" font-family="monospace" font-size="10.00">pub mod</text>
<polyline fill="none" stroke="black" points="1017,-1605.5 1202,-1605.5 "/>
<text text-anchor="middle" x="1109.5" y="-1593.5" font-family="monospace" font-size="10.00">lightning_application::state</text>
</g>
<!-- lightning_application&#45;&gt;lightning_application::state -->
<g id="edge6" class="edge">
<title>lightning_application&#45;&gt;lightning_application::state</title>
<path fill="none" stroke="#000000" d="M110.27,-2329.43C165.78,-2146.04 603,-701.5 603,-701.5 603,-701.5 1008.14,-1424.59 1093.74,-1577.37"/>
<polygon fill="#000000" stroke="#000000" points="1090.75,-1579.19 1098.69,-1586.2 1096.85,-1575.77 1090.75,-1579.19"/>
<text text-anchor="middle" x="590.5" y="-693.5" font-family="monospace" font-size="10.00">owns</text>
</g>
<!-- lightning_application::storage -->
<g id="node8" class="node">
<title>lightning_application::storage</title>
<polygon fill="#f8c04c" stroke="black" points="1011,-516.5 1011,-554.5 1208,-554.5 1208,-516.5 1011,-516.5"/>
<text text-anchor="middle" x="1109.5" y="-542.5" font-family="monospace" font-size="10.00">pub(crate) mod</text>
<polyline fill="none" stroke="black" points="1011,-535.5 1208,-535.5 "/>
<text text-anchor="middle" x="1109.5" y="-523.5" font-family="monospace" font-size="10.00">lightning_application::storage</text>
</g>
<!-- lightning_application&#45;&gt;lightning_application::storage -->
<g id="edge7" class="edge">
<title>lightning_application&#45;&gt;lightning_application::storage</title>
<path fill="none" stroke="#000000" d="M109.76,-2329.48C163.04,-2136.9 603,-546.5 603,-546.5 603,-546.5 852.02,-541.09 1000.84,-537.86"/>
<polygon fill="#000000" stroke="#000000" points="1001.02,-541.36 1010.94,-537.64 1000.87,-534.36 1001.02,-541.36"/>
<text text-anchor="middle" x="590.5" y="-538.5" font-family="monospace" font-size="10.00">owns</text>
</g>
<!-- lightning_application::table -->
<g id="node9" class="node">
<title>lightning_application::table</title>
<polygon fill="#81c169" stroke="black" points="1017,-0.5 1017,-38.5 1202,-38.5 1202,-0.5 1017,-0.5"/>
<text text-anchor="middle" x="1109.5" y="-26.5" font-family="monospace" font-size="10.00">pub mod</text>
<polyline fill="none" stroke="black" points="1017,-19.5 1202,-19.5 "/>
<text text-anchor="middle" x="1109.5" y="-7.5" font-family="monospace" font-size="10.00">lightning_application::table</text>
</g>
<!-- lightning_application&#45;&gt;lightning_application::table -->
<g id="edge8" class="edge">
<title>lightning_application&#45;&gt;lightning_application::table</title>
<path fill="none" stroke="#000000" d="M108.96,-2329.26C158.45,-2115.81 603,-198.5 603,-198.5 603,-198.5 909.73,-90.1 1045.8,-42.01"/>
<polygon fill="#000000" stroke="#000000" points="1047.03,-45.29 1055.3,-38.66 1044.7,-38.69 1047.03,-45.29"/>
<text text-anchor="middle" x="590.5" y="-190.5" font-family="monospace" font-size="10.00">owns</text>
</g>
<!-- lightning_application::app&#45;&gt;lightning_application::config -->
<g id="edge9" class="edge">
<title>lightning_application::app&#45;&gt;lightning_application::config</title>
</g>
<!-- lightning_application::app&#45;&gt;lightning_application::env -->
<g id="edge10" class="edge">
<title>lightning_application::app&#45;&gt;lightning_application::env</title>
<path fill="none" stroke="#7f7f7f" stroke-dasharray="5,2" d="M1107.9,-7613.38C1091.41,-7416.34 953,-5762.5 953,-5762.5 953,-5762.5 1080.33,-4877.27 1105.29,-4703.79"/>
<polygon fill="#7f7f7f" stroke="#7f7f7f" points="1108.76,-4704.24 1106.72,-4693.85 1101.83,-4703.25 1108.76,-4704.24"/>
<text text-anchor="middle" x="947.5" y="-5760" font-family="monospace" font-size="10.00">uses</text>
</g>
<!-- lightning_application::app&#45;&gt;lightning_application::query_runner -->
<g id="edge11" class="edge">
<title>lightning_application::app&#45;&gt;lightning_application::query_runner</title>
<path fill="none" stroke="#7f7f7f" stroke-dasharray="5,2" d="M1108.4,-7613.33C1094.44,-7371.12 953,-4915.5 953,-4915.5 953,-4915.5 1086.98,-3347.99 1107.01,-3113.66"/>
<polygon fill="#7f7f7f" stroke="#7f7f7f" points="1110.51,-3113.78 1107.87,-3103.52 1103.54,-3113.19 1110.51,-3113.78"/>
<text text-anchor="middle" x="947.5" y="-4913" font-family="monospace" font-size="10.00">uses</text>
</g>
<!-- lightning_application::config&#45;&gt;lightning_application::genesis -->
<g id="edge12" class="edge">
<title>lightning_application::config&#45;&gt;lightning_application::genesis</title>
<path fill="none" stroke="#7f7f7f" stroke-dasharray="5,2" d="M1107.38,-6134.23C1088.69,-5964.7 953,-4733.5 953,-4733.5 953,-4733.5 1084.92,-3437.06 1106.52,-3224.75"/>
<polygon fill="#7f7f7f" stroke="#7f7f7f" points="1110.02,-3224.97 1107.55,-3214.67 1103.06,-3224.26 1110.02,-3224.97"/>
<text text-anchor="middle" x="947.5" y="-4731" font-family="monospace" font-size="10.00">uses</text>
</g>
<!-- lightning_application::env&#45;&gt;lightning_application::config -->
<g id="edge13" class="edge">
<title>lightning_application::env&#45;&gt;lightning_application::config</title>
</g>
<!-- lightning_application::env&#45;&gt;lightning_application::genesis -->
<g id="edge14" class="edge">
<title>lightning_application::env&#45;&gt;lightning_application::genesis</title>
</g>
<!-- lightning_application::env&#45;&gt;lightning_application::query_runner -->
<g id="edge15" class="edge">
<title>lightning_application::env&#45;&gt;lightning_application::query_runner</title>
<path fill="none" stroke="#7f7f7f" stroke-dasharray="5,2" d="M1105.94,-4655.26C1082.64,-4529.48 953,-3829.5 953,-3829.5 953,-3829.5 1074.56,-3250.82 1103.41,-3113.48"/>
<polygon fill="#7f7f7f" stroke="#7f7f7f" points="1106.84,-3114.17 1105.47,-3103.66 1099.99,-3112.73 1106.84,-3114.17"/>
<text text-anchor="middle" x="947.5" y="-3827" font-family="monospace" font-size="10.00">uses</text>
</g>
<!-- lightning_application::env&#45;&gt;lightning_application::state -->
<g id="edge16" class="edge">
<title>lightning_application::env&#45;&gt;lightning_application::state</title>
<path fill="none" stroke="#7f7f7f" stroke-dasharray="5,2" d="M1107.61,-4655.22C1089.83,-4474.31 953,-3081.5 953,-3081.5 953,-3081.5 1084.38,-1842.45 1106.39,-1634.84"/>
<polygon fill="#7f7f7f" stroke="#7f7f7f" points="1109.89,-1635.02 1107.46,-1624.7 1102.93,-1634.28 1109.89,-1635.02"/>
<text text-anchor="middle" x="947.5" y="-3079" font-family="monospace" font-size="10.00">uses</text>
</g>
<!-- lightning_application::env&#45;&gt;lightning_application::storage -->
<g id="edge17" class="edge">
<title>lightning_application::env&#45;&gt;lightning_application::storage</title>
<path fill="none" stroke="#7f7f7f" stroke-dasharray="5,2" d="M1108.22,-4655.19C1093.28,-4430.39 953,-2318.5 953,-2318.5 953,-2318.5 1086.7,-795.25 1106.94,-564.61"/>
<polygon fill="#7f7f7f" stroke="#7f7f7f" points="1110.43,-564.88 1107.82,-554.62 1103.46,-564.27 1110.43,-564.88"/>
<text text-anchor="middle" x="947.5" y="-2316" font-family="monospace" font-size="10.00">uses</text>
</g>
<!-- lightning_application::env&#45;&gt;lightning_application::table -->
<g id="edge18" class="edge">
<title>lightning_application::env&#45;&gt;lightning_application::table</title>
<path fill="none" stroke="#7f7f7f" stroke-dasharray="5,2" d="M1108.73,-4655.31C1096.93,-4360.34 953,-764.5 953,-764.5 953,-764.5 1074.56,-185.82 1103.41,-48.48"/>
<polygon fill="#7f7f7f" stroke="#7f7f7f" points="1106.84,-49.17 1105.47,-38.66 1099.99,-47.73 1106.84,-49.17"/>
<text text-anchor="middle" x="947.5" y="-762" font-family="monospace" font-size="10.00">uses</text>
</g>
<!-- lightning_application::query_runner&#45;&gt;lightning_application::state -->
<g id="edge19" class="edge">
<title>lightning_application::query_runner&#45;&gt;lightning_application::state</title>
</g>
<!-- lightning_application::query_runner&#45;&gt;lightning_application::storage -->
<g id="edge20" class="edge">
<title>lightning_application::query_runner&#45;&gt;lightning_application::storage</title>
<path fill="none" stroke="#7f7f7f" stroke-dasharray="5,2" d="M1107.17,-3065.29C1087.7,-2905.07 953,-1796.5 953,-1796.5 953,-1796.5 1082.34,-754.31 1105.86,-564.86"/>
<polygon fill="#7f7f7f" stroke="#7f7f7f" points="1109.35,-565.16 1107.1,-554.8 1102.4,-564.3 1109.35,-565.16"/>
<text text-anchor="middle" x="947.5" y="-1794" font-family="monospace" font-size="10.00">uses</text>
</g>
<!-- lightning_application::query_runner&#45;&gt;lightning_application::table -->
<g id="edge21" class="edge">
<title>lightning_application::query_runner&#45;&gt;lightning_application::table</title>
<path fill="none" stroke="#7f7f7f" stroke-dasharray="5,2" d="M1107.52,-3065.4C1089.4,-2890.48 953,-1573.5 953,-1573.5 953,-1573.5 1085.06,-262.2 1106.56,-48.71"/>
<polygon fill="#7f7f7f" stroke="#7f7f7f" points="1110.06,-48.89 1107.58,-38.59 1103.09,-48.19 1110.06,-48.89"/>
<text text-anchor="middle" x="947.5" y="-1571" font-family="monospace" font-size="10.00">uses</text>
</g>
<!-- lightning_application::state&#45;&gt;lightning_application::table -->
<g id="edge22" class="edge">
<title>lightning_application::state&#45;&gt;lightning_application::table</title>
<path fill="none" stroke="#7f7f7f" stroke-dasharray="5,2" d="M1105.47,-1586.34C1080.98,-1469.73 953,-860.5 953,-860.5 953,-860.5 1076.39,-197.43 1104.04,-48.82"/>
<polygon fill="#7f7f7f" stroke="#7f7f7f" points="1107.55,-49.12 1105.94,-38.65 1100.67,-47.84 1107.55,-49.12"/>
<text text-anchor="middle" x="947.5" y="-858" font-family="monospace" font-size="10.00">uses</text>
</g>
<!-- lightning_reputation::statistics -->
<g id="node10" class="node">
<title>lightning_reputation::statistics</title>
<polygon fill="#81c169" stroke="black" points="0,-2002.5 0,-2040.5 209,-2040.5 209,-2002.5 0,-2002.5"/>
<text text-anchor="middle" x="104.5" y="-2028.5" font-family="monospace" font-size="10.00">external mod</text>
<polyline fill="none" stroke="black" points="0,-2021.5 209,-2021.5 "/>
<text text-anchor="middle" x="104.5" y="-2009.5" font-family="monospace" font-size="10.00">lightning_reputation::statistics</text>
</g>
<!-- lightning_application::state&#45;&gt;lightning_reputation::statistics -->
<g id="edge23" class="edge">
<title>lightning_application::state&#45;&gt;lightning_reputation::statistics</title>
<path fill="none" stroke="#7f7f7f" stroke-dasharray="5,2" d="M1103.28,-1586.31C1045.39,-1407.78 603,-43.5 603,-43.5 603,-43.5 173.61,-1747.28 111.86,-1992.29"/>
<polygon fill="#7f7f7f" stroke="#7f7f7f" points="108.4,-1991.69 109.35,-2002.24 115.19,-1993.4 108.4,-1991.69"/>
<text text-anchor="middle" x="590.5" y="-35.5" font-family="monospace" font-size="10.00">uses</text>
</g>
</g>
</svg>
