<?xml version="1.0" encoding="UTF-8" standalone="no"?>
<!DOCTYPE svg PUBLIC "-//W3C//DTD SVG 1.1//EN"
 "http://www.w3.org/Graphics/SVG/1.1/DTD/svg11.dtd">
<!-- Generated by graphviz version 4.0.0 (0)
 -->
<!-- Pages: 1 -->
<svg width="595pt" height="545pt"
 viewBox="0.00 0.00 594.51 545.07" xmlns="http://www.w3.org/2000/svg" xmlns:xlink="http://www.w3.org/1999/xlink">
<g id="graph0" class="graph" transform="scale(1 1) rotate(0) translate(28.8 516.27)">
<polygon fill="white" stroke="transparent" points="-28.8,28.8 -28.8,-516.27 565.71,-516.27 565.71,28.8 -28.8,28.8"/>
<text text-anchor="middle" x="268.45" y="-454.67" font-family="Helvetica,sans-Serif" font-size="36.00">lightning_metrics</text>
<!-- lightning_metrics -->
<g id="node1" class="node">
<title>lightning_metrics</title>
<polygon fill="#5397c8" stroke="black" points="150.5,-258.02 150.5,-296.02 269.5,-296.02 269.5,-258.02 150.5,-258.02"/>
<text text-anchor="middle" x="210" y="-284.02" font-family="monospace" font-size="10.00">crate</text>
<polyline fill="none" stroke="black" points="150.5,-277.02 269.5,-277.02 "/>
<text text-anchor="middle" x="210" y="-265.02" font-family="monospace" font-size="10.00">lightning_metrics</text>
</g>
<!-- lightning_metrics::counter::Counter -->
<g id="node2" class="node">
<title>lightning_metrics::counter::Counter</title>
<polygon fill="#81c169" stroke="black" points="196.84,-400.97 196.84,-438.97 309.84,-438.97 309.84,-400.97 196.84,-400.97"/>
<text text-anchor="middle" x="253.34" y="-426.97" font-family="monospace" font-size="10.00">pub trait</text>
<polyline fill="none" stroke="black" points="196.84,-419.97 309.84,-419.97 "/>
<text text-anchor="middle" x="253.34" y="-407.97" font-family="monospace" font-size="10.00">counter::Counter</text>
</g>
<!-- lightning_metrics&#45;&gt;lightning_metrics::counter::Counter -->
<g id="edge1" class="edge">
<title>lightning_metrics&#45;&gt;lightning_metrics::counter::Counter</title>
<path fill="none" stroke="#000000" d="M215.85,-296.3C223.21,-320.6 235.94,-362.6 244.5,-390.82"/>
<polygon fill="#000000" stroke="#000000" points="241.2,-391.99 247.45,-400.54 247.9,-389.96 241.2,-391.99"/>
<text text-anchor="middle" x="217.67" y="-346.56" font-family="monospace" font-size="10.00">owns</text>
</g>
<!-- lightning_metrics::histogram::Histogram -->
<g id="node3" class="node">
<title>lightning_metrics::histogram::Histogram</title>
<polygon fill="#81c169" stroke="black" points="0,-210.6 0,-248.6 137,-248.6 137,-210.6 0,-210.6"/>
<text text-anchor="middle" x="68.5" y="-236.6" font-family="monospace" font-size="10.00">pub trait</text>
<polyline fill="none" stroke="black" points="0,-229.6 137,-229.6 "/>
<text text-anchor="middle" x="68.5" y="-217.6" font-family="monospace" font-size="10.00">histogram::Histogram</text>
</g>
<!-- lightning_metrics&#45;&gt;lightning_metrics::histogram::Histogram -->
<g id="edge2" class="edge">
<title>lightning_metrics&#45;&gt;lightning_metrics::histogram::Histogram</title>
<path fill="none" stroke="#000000" d="M153.26,-258.01C147.21,-255.98 141.01,-253.9 134.86,-251.84"/>
<polygon fill="#000000" stroke="#000000" points="135.85,-248.48 125.25,-248.62 133.62,-255.11 135.85,-248.48"/>
<text text-anchor="middle" x="131.56" y="-257.92" font-family="monospace" font-size="10.00">owns</text>
</g>
<!-- lightning_metrics::labels::Label -->
<g id="node4" class="node">
<title>lightning_metrics::labels::Label</title>
<polygon fill="#f8c04c" stroke="black" points="55.88,-356.68 55.88,-394.68 162.88,-394.68 162.88,-356.68 55.88,-356.68"/>
<text text-anchor="middle" x="109.38" y="-382.68" font-family="monospace" font-size="10.00">pub(crate) type</text>
<polyline fill="none" stroke="black" points="55.88,-375.68 162.88,-375.68 "/>
<text text-anchor="middle" x="109.38" y="-363.68" font-family="monospace" font-size="10.00">labels::Label</text>
</g>
<!-- lightning_metrics&#45;&gt;lightning_metrics::labels::Label -->
<g id="edge3" class="edge">
<title>lightning_metrics&#45;&gt;lightning_metrics::labels::Label</title>
<path fill="none" stroke="#000000" d="M190.6,-296.05C175.25,-311.1 153.63,-332.3 136.55,-349.04"/>
<polygon fill="#000000" stroke="#000000" points="133.75,-346.88 129.06,-356.38 138.65,-351.88 133.75,-346.88"/>
<text text-anchor="middle" x="151.08" y="-325.54" font-family="monospace" font-size="10.00">owns</text>
</g>
<!-- lightning_metrics::labels::Labels -->
<g id="node5" class="node">
<title>lightning_metrics::labels::Labels</title>
<polygon fill="#81c169" stroke="black" points="272.71,-149.05 272.71,-187.05 373.71,-187.05 373.71,-149.05 272.71,-149.05"/>
<text text-anchor="middle" x="323.21" y="-175.05" font-family="monospace" font-size="10.00">pub struct</text>
<polyline fill="none" stroke="black" points="272.71,-168.05 373.71,-168.05 "/>
<text text-anchor="middle" x="323.21" y="-156.05" font-family="monospace" font-size="10.00">labels::Labels</text>
</g>
<!-- lightning_metrics&#45;&gt;lightning_metrics::labels::Labels -->
<g id="edge4" class="edge">
<title>lightning_metrics&#45;&gt;lightning_metrics::labels::Labels</title>
<path fill="none" stroke="#000000" d="M267.2,-257.84C289.33,-240.4 311.24,-216.22 321.21,-196.59"/>
<polygon fill="#000000" stroke="#000000" points="324.43,-197.95 325.09,-187.37 317.98,-195.23 324.43,-197.95"/>
<text text-anchor="middle" x="281.7" y="-230.22" font-family="monospace" font-size="10.00">owns</text>
</g>
<!-- lightning_metrics&#45;&gt;lightning_metrics::labels::Labels -->
<g id="edge5" class="edge">
<title>lightning_metrics&#45;&gt;lightning_metrics::labels::Labels</title>
<path fill="none" stroke="#7f7f7f" stroke-dasharray="5,2" d="M208.04,-257.96C214.47,-237.61 239.14,-208.81 264.44,-188.49"/>
<polygon fill="#7f7f7f" stroke="#7f7f7f" points="266.84,-191.07 272.66,-182.21 262.59,-185.51 266.84,-191.07"/>
<text text-anchor="middle" x="223.74" y="-226.23" font-family="monospace" font-size="10.00">uses</text>
</g>
<!-- lightning_metrics::labels::Labels::extract_fn_name -->
<g id="node6" class="node">
<title>lightning_metrics::labels::Labels::extract_fn_name</title>
<polygon fill="#81c169" stroke="black" points="310.94,-263.07 310.94,-301.07 513.94,-301.07 513.94,-263.07 310.94,-263.07"/>
<text text-anchor="middle" x="412.44" y="-289.07" font-family="monospace" font-size="10.00">pub fn</text>
<polyline fill="none" stroke="black" points="310.94,-282.07 513.94,-282.07 "/>
<text text-anchor="middle" x="412.44" y="-270.07" font-family="monospace" font-size="10.00">labels::Labels::extract_fn_name</text>
</g>
<!-- lightning_metrics::labels::Labels&#45;&gt;lightning_metrics::labels::Labels::extract_fn_name -->
<g id="edge6" class="edge">
<title>lightning_metrics::labels::Labels&#45;&gt;lightning_metrics::labels::Labels::extract_fn_name</title>
<path fill="none" stroke="#000000" d="M338.15,-187.14C352.69,-205.72 374.93,-234.13 391.29,-255.03"/>
<polygon fill="#000000" stroke="#000000" points="388.54,-257.2 397.46,-262.92 394.05,-252.89 388.54,-257.2"/>
<text text-anchor="middle" x="352.22" y="-224.09" font-family="monospace" font-size="10.00">owns</text>
</g>
<!-- lightning_metrics::labels::Labels::increment_by -->
<g id="node7" class="node">
<title>lightning_metrics::labels::Labels::increment_by</title>
<polygon fill="#db5367" stroke="black" points="119.89,-55.79 119.89,-93.79 304.89,-93.79 304.89,-55.79 119.89,-55.79"/>
<text text-anchor="middle" x="212.39" y="-81.79" font-family="monospace" font-size="10.00">pub(self) fn</text>
<polyline fill="none" stroke="black" points="119.89,-74.79 304.89,-74.79 "/>
<text text-anchor="middle" x="212.39" y="-62.79" font-family="monospace" font-size="10.00">labels::Labels::increment_by</text>
</g>
<!-- lightning_metrics::labels::Labels&#45;&gt;lightning_metrics::labels::Labels::increment_by -->
<g id="edge7" class="edge">
<title>lightning_metrics::labels::Labels&#45;&gt;lightning_metrics::labels::Labels::increment_by</title>
<path fill="none" stroke="#000000" d="M300.52,-148.96C283.94,-135 261.26,-115.92 243.06,-100.6"/>
<polygon fill="#000000" stroke="#000000" points="244.96,-97.62 235.05,-93.86 240.45,-102.98 244.96,-97.62"/>
<text text-anchor="middle" x="259.29" y="-127.78" font-family="monospace" font-size="10.00">owns</text>
</g>
<!-- lightning_metrics::labels::Labels::new -->
<g id="node8" class="node">
<title>lightning_metrics::labels::Labels::new</title>
<polygon fill="#81c169" stroke="black" points="405.91,-164.07 405.91,-202.07 536.91,-202.07 536.91,-164.07 405.91,-164.07"/>
<text text-anchor="middle" x="471.41" y="-190.07" font-family="monospace" font-size="10.00">pub fn</text>
<polyline fill="none" stroke="black" points="405.91,-183.07 536.91,-183.07 "/>
<text text-anchor="middle" x="471.41" y="-171.07" font-family="monospace" font-size="10.00">labels::Labels::new</text>
</g>
<!-- lightning_metrics::labels::Labels&#45;&gt;lightning_metrics::labels::Labels::new -->
<g id="edge8" class="edge">
<title>lightning_metrics::labels::Labels&#45;&gt;lightning_metrics::labels::Labels::new</title>
<path fill="none" stroke="#000000" d="M337.58,-187.21C358.58,-199.04 398.4,-205.3 429.18,-203.15"/>
<polygon fill="#000000" stroke="#000000" points="429.65,-206.62 439.23,-202.1 428.92,-199.66 429.65,-206.62"/>
<text text-anchor="middle" x="370.88" y="-198.18" font-family="monospace" font-size="10.00">owns</text>
</g>
<!-- lightning_metrics::labels::Labels::observe -->
<g id="node9" class="node">
<title>lightning_metrics::labels::Labels::observe</title>
<polygon fill="#db5367" stroke="black" points="235.84,-0.5 235.84,-38.5 390.84,-38.5 390.84,-0.5 235.84,-0.5"/>
<text text-anchor="middle" x="313.34" y="-26.5" font-family="monospace" font-size="10.00">pub(self) fn</text>
<polyline fill="none" stroke="black" points="235.84,-19.5 390.84,-19.5 "/>
<text text-anchor="middle" x="313.34" y="-7.5" font-family="monospace" font-size="10.00">labels::Labels::observe</text>
</g>
<!-- lightning_metrics::labels::Labels&#45;&gt;lightning_metrics::labels::Labels::observe -->
<g id="edge9" class="edge">
<title>lightning_metrics::labels::Labels&#45;&gt;lightning_metrics::labels::Labels::observe</title>
<path fill="none" stroke="#000000" d="M321.94,-148.94C320.25,-123.53 317.25,-78.41 315.28,-48.72"/>
<polygon fill="#000000" stroke="#000000" points="318.76,-48.29 314.6,-38.54 311.77,-48.75 318.76,-48.29"/>
<text text-anchor="middle" x="306.11" y="-101.83" font-family="monospace" font-size="10.00">owns</text>
</g>
<!-- lightning_metrics::labels::Labels::to_vec -->
<g id="node10" class="node">
<title>lightning_metrics::labels::Labels::to_vec</title>
<polygon fill="#81c169" stroke="black" points="353.74,-47.5 353.74,-85.5 502.74,-85.5 502.74,-47.5 353.74,-47.5"/>
<text text-anchor="middle" x="428.24" y="-73.5" font-family="monospace" font-size="10.00">pub fn</text>
<polyline fill="none" stroke="black" points="353.74,-66.5 502.74,-66.5 "/>
<text text-anchor="middle" x="428.24" y="-54.5" font-family="monospace" font-size="10.00">labels::Labels::to_vec</text>
</g>
<!-- lightning_metrics::labels::Labels&#45;&gt;lightning_metrics::labels::Labels::to_vec -->
<g id="edge10" class="edge">
<title>lightning_metrics::labels::Labels&#45;&gt;lightning_metrics::labels::Labels::to_vec</title>
<path fill="none" stroke="#000000" d="M373.72,-154.36C395.22,-138.5 416.97,-114.87 426.74,-95.31"/>
<polygon fill="#000000" stroke="#000000" points="430.08,-96.38 430.61,-85.8 423.6,-93.75 430.08,-96.38"/>
<text text-anchor="middle" x="387.73" y="-127.84" font-family="monospace" font-size="10.00">owns</text>
</g>
<!-- lightning_metrics::labels::Labels::new&#45;&gt;lightning_metrics::labels::Labels -->
<g id="edge11" class="edge">
<title>lightning_metrics::labels::Labels::new&#45;&gt;lightning_metrics::labels::Labels</title>
<path fill="none" stroke="#7f7f7f" stroke-dasharray="5,2" d="M457.04,-163.91C436.04,-152.08 396.22,-145.82 365.44,-147.97"/>
<polygon fill="#7f7f7f" stroke="#7f7f7f" points="364.97,-144.5 355.39,-149.02 365.7,-151.46 364.97,-144.5"/>
<text text-anchor="middle" x="398.74" y="-147.94" font-family="monospace" font-size="10.00">uses</text>
</g>
<!-- lightning_metrics::labels::Labels::to_vec&#45;&gt;lightning_metrics::labels::Labels -->
<g id="edge12" class="edge">
<title>lightning_metrics::labels::Labels::to_vec&#45;&gt;lightning_metrics::labels::Labels</title>
<path fill="none" stroke="#7f7f7f" stroke-dasharray="5,2" d="M370.6,-85.74C351.46,-101.33 333.21,-122.08 324.58,-139.53"/>
<polygon fill="#7f7f7f" stroke="#7f7f7f" points="321.32,-138.25 320.83,-148.83 327.82,-140.86 321.32,-138.25"/>
<text text-anchor="middle" x="335.09" y="-115.64" font-family="monospace" font-size="10.00">uses</text>
</g>
</g>
</svg>
