<?xml version="1.0" encoding="UTF-8" standalone="no"?>
<!DOCTYPE svg PUBLIC "-//W3C//DTD SVG 1.1//EN"
 "http://www.w3.org/Graphics/SVG/1.1/DTD/svg11.dtd">
<!-- Generated by graphviz version 4.0.0 (0)
 -->
<!-- Pages: 1 -->
<svg width="2055pt" height="3411pt"
 viewBox="0.00 0.00 2054.60 3410.60" xmlns="http://www.w3.org/2000/svg" xmlns:xlink="http://www.w3.org/1999/xlink">
<g id="graph0" class="graph" transform="scale(1 1) rotate(0) translate(28.8 3381.8)">
<polygon fill="white" stroke="transparent" points="-28.8,28.8 -28.8,-3381.8 2025.8,-3381.8 2025.8,28.8 -28.8,28.8"/>
<text text-anchor="middle" x="998.5" y="-3320.2" font-family="Helvetica,sans-Serif" font-size="36.00">lightning_signer</text>
<!-- lightning_signer -->
<g id="node1" class="node">
<title>lightning_signer</title>
<polygon fill="#5397c8" stroke="black" points="0,-1625 0,-1663 113,-1663 113,-1625 0,-1625"/>
<text text-anchor="middle" x="56.5" y="-1651" font-family="monospace" font-size="10.00">crate</text>
<polyline fill="none" stroke="black" points="0,-1644 113,-1644 "/>
<text text-anchor="middle" x="56.5" y="-1632" font-family="monospace" font-size="10.00">lightning_signer</text>
</g>
<!-- lightning_signer::PendingTransaction -->
<g id="node2" class="node">
<title>lightning_signer::PendingTransaction</title>
<polygon fill="#f8c04c" stroke="black" points="882,-2533 882,-2571 1007,-2571 1007,-2533 882,-2533"/>
<text text-anchor="middle" x="944.5" y="-2559" font-family="monospace" font-size="10.00">pub(crate) struct</text>
<polyline fill="none" stroke="black" points="882,-2552 1007,-2552 "/>
<text text-anchor="middle" x="944.5" y="-2540" font-family="monospace" font-size="10.00">PendingTransaction</text>
</g>
<!-- lightning_signer&#45;&gt;lightning_signer::PendingTransaction -->
<g id="edge1" class="edge">
<title>lightning_signer&#45;&gt;lightning_signer::PendingTransaction</title>
<path fill="none" stroke="#000000" d="M67.88,-1663.34C135.55,-1778.32 482,-2367 482,-2367 482,-2367 763.71,-2479.68 887.41,-2529.16"/>
<polygon fill="#000000" stroke="#000000" points="886.16,-2532.43 896.75,-2532.9 888.76,-2525.93 886.16,-2532.43"/>
<text text-anchor="middle" x="494.5" y="-2370" font-family="monospace" font-size="10.00">owns</text>
</g>
<!-- lightning_signer::Signer -->
<g id="node3" class="node">
<title>lightning_signer::Signer</title>
<polygon fill="#81c169" stroke="black" points="906,-2422 906,-2460 983,-2460 983,-2422 906,-2422"/>
<text text-anchor="middle" x="944.5" y="-2448" font-family="monospace" font-size="10.00">pub struct</text>
<polyline fill="none" stroke="black" points="906,-2441 983,-2441 "/>
<text text-anchor="middle" x="944.5" y="-2429" font-family="monospace" font-size="10.00">Signer</text>
</g>
<!-- lightning_signer&#45;&gt;lightning_signer::Signer -->
<g id="edge2" class="edge">
<title>lightning_signer&#45;&gt;lightning_signer::Signer</title>
<path fill="none" stroke="#000000" d="M76.74,-1663.26C161.3,-1743.75 482,-2049 482,-2049 482,-2049 810.96,-2327.82 914.02,-2415.16"/>
<polygon fill="#000000" stroke="#000000" points="911.99,-2418.03 921.88,-2421.83 916.51,-2412.69 911.99,-2418.03"/>
<text text-anchor="middle" x="494.5" y="-2052" font-family="monospace" font-size="10.00">owns</text>
</g>
<!-- lightning_signer::SignerInner -->
<g id="node12" class="node">
<title>lightning_signer::SignerInner</title>
<polygon fill="#f8c04c" stroke="black" points="885,-795 885,-833 1004,-833 1004,-795 885,-795"/>
<text text-anchor="middle" x="944.5" y="-821" font-family="monospace" font-size="10.00">pub(crate) struct</text>
<polyline fill="none" stroke="black" points="885,-814 1004,-814 "/>
<text text-anchor="middle" x="944.5" y="-802" font-family="monospace" font-size="10.00">SignerInner</text>
</g>
<!-- lightning_signer&#45;&gt;lightning_signer::SignerInner -->
<g id="edge3" class="edge">
<title>lightning_signer&#45;&gt;lightning_signer::SignerInner</title>
<path fill="none" stroke="#000000" d="M113,-1633.77C228.75,-1612.83 482,-1567 482,-1567 482,-1567 843.41,-978.58 927.27,-842.05"/>
<polygon fill="#000000" stroke="#000000" points="930.35,-843.72 932.6,-833.37 924.39,-840.06 930.35,-843.72"/>
<text text-anchor="middle" x="494.5" y="-1570" font-family="monospace" font-size="10.00">owns</text>
</g>
<!-- lightning_signer::config::SignerConfig -->
<g id="node16" class="node">
<title>lightning_signer::config::SignerConfig</title>
<polygon fill="#81c169" stroke="black" points="876,-684 876,-722 1013,-722 1013,-684 876,-684"/>
<text text-anchor="middle" x="944.5" y="-710" font-family="monospace" font-size="10.00">pub struct</text>
<polyline fill="none" stroke="black" points="876,-703 1013,-703 "/>
<text text-anchor="middle" x="944.5" y="-691" font-family="monospace" font-size="10.00">config::SignerConfig</text>
</g>
<!-- lightning_signer&#45;&gt;lightning_signer::config::SignerConfig -->
<g id="edge4" class="edge">
<title>lightning_signer&#45;&gt;lightning_signer::config::SignerConfig</title>
<path fill="none" stroke="#000000" d="M66.33,-1624.93C132.21,-1497.12 507,-770 507,-770 507,-770 739.68,-734.37 865.67,-715.07"/>
<polygon fill="#000000" stroke="#000000" points="866.3,-718.52 875.66,-713.54 865.24,-711.6 866.3,-718.52"/>
<text text-anchor="middle" x="494.5" y="-762" font-family="monospace" font-size="10.00">owns</text>
</g>
<!-- lightning_signer&#45;&gt;lightning_signer::config::SignerConfig -->
<g id="edge5" class="edge">
<title>lightning_signer&#45;&gt;lightning_signer::config::SignerConfig</title>
<path fill="none" stroke="#7f7f7f" stroke-dasharray="5,2" d="M64.9,-1624.81C126.57,-1483.95 507,-615 507,-615 507,-615 739.68,-661.8 865.67,-687.14"/>
<polygon fill="#7f7f7f" stroke="#7f7f7f" points="865.17,-690.61 875.66,-689.15 866.55,-683.75 865.17,-690.61"/>
<text text-anchor="middle" x="494.5" y="-607" font-family="monospace" font-size="10.00">uses</text>
</g>
<!-- lightning_signer::Signer::Config -->
<g id="node4" class="node">
<title>lightning_signer::Signer::Config</title>
<polygon fill="#f8c04c" stroke="black" points="1833,-3120 1833,-3158 1940,-3158 1940,-3120 1833,-3120"/>
<text text-anchor="middle" x="1886.5" y="-3146" font-family="monospace" font-size="10.00">pub(crate) type</text>
<polyline fill="none" stroke="black" points="1833,-3139 1940,-3139 "/>
<text text-anchor="middle" x="1886.5" y="-3127" font-family="monospace" font-size="10.00">Signer::Config</text>
</g>
<!-- lightning_signer::Signer&#45;&gt;lightning_signer::Signer::Config -->
<g id="edge6" class="edge">
<title>lightning_signer::Signer&#45;&gt;lightning_signer::Signer::Config</title>
<path fill="none" stroke="#000000" d="M956.43,-2460.03C1026.55,-2571.9 1382,-3139 1382,-3139 1382,-3139 1687.05,-3139 1822.74,-3139"/>
<polygon fill="#000000" stroke="#000000" points="1822.99,-3142.5 1832.99,-3139 1822.99,-3135.5 1822.99,-3142.5"/>
<text text-anchor="middle" x="1394.5" y="-3142" font-family="monospace" font-size="10.00">owns</text>
</g>
<!-- lightning_signer::Signer::get_socket -->
<g id="node5" class="node">
<title>lightning_signer::Signer::get_socket</title>
<polygon fill="#f8c04c" stroke="black" points="1824,-2965 1824,-3003 1949,-3003 1949,-2965 1824,-2965"/>
<text text-anchor="middle" x="1886.5" y="-2991" font-family="monospace" font-size="10.00">pub(crate) fn</text>
<polyline fill="none" stroke="black" points="1824,-2984 1949,-2984 "/>
<text text-anchor="middle" x="1886.5" y="-2972" font-family="monospace" font-size="10.00">Signer::get_socket</text>
</g>
<!-- lightning_signer::Signer&#45;&gt;lightning_signer::Signer::get_socket -->
<g id="edge7" class="edge">
<title>lightning_signer::Signer&#45;&gt;lightning_signer::Signer::get_socket</title>
<path fill="none" stroke="#000000" d="M959.81,-2460.01C1037.25,-2556.11 1382,-2984 1382,-2984 1382,-2984 1673.97,-2984 1813.68,-2984"/>
<polygon fill="#000000" stroke="#000000" points="1813.88,-2987.5 1823.88,-2984 1813.88,-2980.5 1813.88,-2987.5"/>
<text text-anchor="middle" x="1394.5" y="-2987" font-family="monospace" font-size="10.00">owns</text>
</g>
<!-- lightning_signer::Signer::init -->
<g id="node6" class="node">
<title>lightning_signer::Signer::init</title>
<polygon fill="#f8c04c" stroke="black" points="1839,-2810 1839,-2848 1934,-2848 1934,-2810 1839,-2810"/>
<text text-anchor="middle" x="1886.5" y="-2836" font-family="monospace" font-size="10.00">pub(crate) fn</text>
<polyline fill="none" stroke="black" points="1839,-2829 1934,-2829 "/>
<text text-anchor="middle" x="1886.5" y="-2817" font-family="monospace" font-size="10.00">Signer::init</text>
</g>
<!-- lightning_signer::Signer&#45;&gt;lightning_signer::Signer::init -->
<g id="edge8" class="edge">
<title>lightning_signer::Signer&#45;&gt;lightning_signer::Signer::init</title>
<path fill="none" stroke="#000000" d="M966.2,-2460.24C1054.47,-2538.53 1382,-2829 1382,-2829 1382,-2829 1695.44,-2829 1828.2,-2829"/>
<polygon fill="#000000" stroke="#000000" points="1828.58,-2832.5 1838.58,-2829 1828.58,-2825.5 1828.58,-2832.5"/>
<text text-anchor="middle" x="1394.5" y="-2832" font-family="monospace" font-size="10.00">owns</text>
</g>
<!-- lightning_signer::Signer::is_running -->
<g id="node7" class="node">
<title>lightning_signer::Signer::is_running</title>
<polygon fill="#f8c04c" stroke="black" points="1824,-2655 1824,-2693 1949,-2693 1949,-2655 1824,-2655"/>
<text text-anchor="middle" x="1886.5" y="-2681" font-family="monospace" font-size="10.00">pub(crate) fn</text>
<polyline fill="none" stroke="black" points="1824,-2674 1949,-2674 "/>
<text text-anchor="middle" x="1886.5" y="-2662" font-family="monospace" font-size="10.00">Signer::is_running</text>
</g>
<!-- lightning_signer::Signer&#45;&gt;lightning_signer::Signer::is_running -->
<g id="edge9" class="edge">
<title>lightning_signer::Signer&#45;&gt;lightning_signer::Signer::is_running</title>
<path fill="none" stroke="#000000" d="M980.3,-2460.07C1084.79,-2515.71 1382,-2674 1382,-2674 1382,-2674 1673.97,-2674 1813.68,-2674"/>
<polygon fill="#000000" stroke="#000000" points="1813.88,-2677.5 1823.88,-2674 1813.88,-2670.5 1813.88,-2677.5"/>
<text text-anchor="middle" x="1394.5" y="-2677" font-family="monospace" font-size="10.00">owns</text>
</g>
<!-- lightning_signer::Signer::provide_new_block_notify -->
<g id="node8" class="node">
<title>lightning_signer::Signer::provide_new_block_notify</title>
<polygon fill="#f8c04c" stroke="black" points="1782,-2500 1782,-2538 1991,-2538 1991,-2500 1782,-2500"/>
<text text-anchor="middle" x="1886.5" y="-2526" font-family="monospace" font-size="10.00">pub(crate) fn</text>
<polyline fill="none" stroke="black" points="1782,-2519 1991,-2519 "/>
<text text-anchor="middle" x="1886.5" y="-2507" font-family="monospace" font-size="10.00">Signer::provide_new_block_notify</text>
</g>
<!-- lightning_signer::Signer&#45;&gt;lightning_signer::Signer::provide_new_block_notify -->
<g id="edge10" class="edge">
<title>lightning_signer::Signer&#45;&gt;lightning_signer::Signer::provide_new_block_notify</title>
<path fill="none" stroke="#000000" d="M983.33,-2447.92C1090.4,-2467.01 1382,-2519 1382,-2519 1382,-2519 1622.99,-2519 1771.86,-2519"/>
<polygon fill="#000000" stroke="#000000" points="1771.97,-2522.5 1781.97,-2519 1771.97,-2515.5 1771.97,-2522.5"/>
<text text-anchor="middle" x="1394.5" y="-2522" font-family="monospace" font-size="10.00">owns</text>
</g>
<!-- lightning_signer::Signer::shutdown -->
<g id="node9" class="node">
<title>lightning_signer::Signer::shutdown</title>
<polygon fill="#f8c04c" stroke="black" points="1821,-2345 1821,-2383 1952,-2383 1952,-2345 1821,-2345"/>
<text text-anchor="middle" x="1886.5" y="-2371" font-family="monospace" font-size="10.00">pub(crate) async fn</text>
<polyline fill="none" stroke="black" points="1821,-2364 1952,-2364 "/>
<text text-anchor="middle" x="1886.5" y="-2352" font-family="monospace" font-size="10.00">Signer::shutdown</text>
</g>
<!-- lightning_signer::Signer&#45;&gt;lightning_signer::Signer::shutdown -->
<g id="edge11" class="edge">
<title>lightning_signer::Signer&#45;&gt;lightning_signer::Signer::shutdown</title>
<path fill="none" stroke="#000000" d="M983.14,-2435.49C1094.29,-2419.62 1407,-2375 1407,-2375 1407,-2375 1675.35,-2368.84 1810.54,-2365.74"/>
<polygon fill="#000000" stroke="#000000" points="1810.92,-2369.23 1820.83,-2365.51 1810.76,-2362.24 1810.92,-2369.23"/>
<text text-anchor="middle" x="1394.5" y="-2367" font-family="monospace" font-size="10.00">owns</text>
</g>
<!-- lightning_signer::Signer::sign_raw_digest -->
<g id="node10" class="node">
<title>lightning_signer::Signer::sign_raw_digest</title>
<polygon fill="#f8c04c" stroke="black" points="1809,-2190 1809,-2228 1964,-2228 1964,-2190 1809,-2190"/>
<text text-anchor="middle" x="1886.5" y="-2216" font-family="monospace" font-size="10.00">pub(crate) fn</text>
<polyline fill="none" stroke="black" points="1809,-2209 1964,-2209 "/>
<text text-anchor="middle" x="1886.5" y="-2197" font-family="monospace" font-size="10.00">Signer::sign_raw_digest</text>
</g>
<!-- lightning_signer::Signer&#45;&gt;lightning_signer::Signer::sign_raw_digest -->
<g id="edge12" class="edge">
<title>lightning_signer::Signer&#45;&gt;lightning_signer::Signer::sign_raw_digest</title>
<path fill="none" stroke="#000000" d="M983.14,-2422.54C1094.29,-2369.42 1407,-2220 1407,-2220 1407,-2220 1660.38,-2214.19 1798.76,-2211.01"/>
<polygon fill="#000000" stroke="#000000" points="1799.01,-2214.51 1808.93,-2210.78 1798.85,-2207.51 1799.01,-2214.51"/>
<text text-anchor="middle" x="1394.5" y="-2212" font-family="monospace" font-size="10.00">owns</text>
</g>
<!-- lightning_signer::Signer::start -->
<g id="node11" class="node">
<title>lightning_signer::Signer::start</title>
<polygon fill="#f8c04c" stroke="black" points="1821,-2035 1821,-2073 1952,-2073 1952,-2035 1821,-2035"/>
<text text-anchor="middle" x="1886.5" y="-2061" font-family="monospace" font-size="10.00">pub(crate) async fn</text>
<polyline fill="none" stroke="black" points="1821,-2054 1952,-2054 "/>
<text text-anchor="middle" x="1886.5" y="-2042" font-family="monospace" font-size="10.00">Signer::start</text>
</g>
<!-- lightning_signer::Signer&#45;&gt;lightning_signer::Signer::start -->
<g id="edge13" class="edge">
<title>lightning_signer::Signer&#45;&gt;lightning_signer::Signer::start</title>
<path fill="none" stroke="#000000" d="M968.07,-2421.84C1062.32,-2345.22 1407,-2065 1407,-2065 1407,-2065 1675.35,-2058.84 1810.54,-2055.74"/>
<polygon fill="#000000" stroke="#000000" points="1810.92,-2059.23 1820.83,-2055.51 1810.76,-2052.24 1810.92,-2059.23"/>
<text text-anchor="middle" x="1394.5" y="-2057" font-family="monospace" font-size="10.00">owns</text>
</g>
<!-- lightning_signer::Signer::Config&#45;&gt;lightning_signer::config::SignerConfig -->
<g id="edge14" class="edge">
<title>lightning_signer::Signer::Config&#45;&gt;lightning_signer::config::SignerConfig</title>
<path fill="none" stroke="#7f7f7f" stroke-dasharray="5,2" d="M1883.37,-3119.62C1842.15,-2864.05 1407,-166 1407,-166 1407,-166 1060.89,-567.86 967.49,-676.31"/>
<polygon fill="#7f7f7f" stroke="#7f7f7f" points="964.83,-674.03 960.96,-683.89 970.14,-678.59 964.83,-674.03"/>
<text text-anchor="middle" x="1394.5" y="-158" font-family="monospace" font-size="10.00">uses</text>
</g>
<!-- lightning_signer::Signer::get_socket&#45;&gt;lightning_signer::Signer -->
<g id="edge15" class="edge">
<title>lightning_signer::Signer::get_socket&#45;&gt;lightning_signer::Signer</title>
<path fill="none" stroke="#7f7f7f" stroke-dasharray="5,2" d="M1877.97,-2964.9C1813.64,-2820.81 1407,-1910 1407,-1910 1407,-1910 1062.34,-2305.7 968.08,-2413.93"/>
<polygon fill="#7f7f7f" stroke="#7f7f7f" points="965.16,-2411.95 961.23,-2421.79 970.44,-2416.55 965.16,-2411.95"/>
<text text-anchor="middle" x="1394.5" y="-1902" font-family="monospace" font-size="10.00">uses</text>
</g>
<!-- lightning_signer::Signer::init&#45;&gt;lightning_signer::Signer -->
<g id="edge16" class="edge">
<title>lightning_signer::Signer::init&#45;&gt;lightning_signer::Signer</title>
<path fill="none" stroke="#7f7f7f" stroke-dasharray="5,2" d="M1877.97,-2809.9C1813.64,-2665.81 1407,-1755 1407,-1755 1407,-1755 1049.42,-2285.38 963.09,-2413.43"/>
<polygon fill="#7f7f7f" stroke="#7f7f7f" points="960.04,-2411.69 957.35,-2421.94 965.84,-2415.6 960.04,-2411.69"/>
<text text-anchor="middle" x="1394.5" y="-1747" font-family="monospace" font-size="10.00">uses</text>
</g>
<!-- lightning_signer::Signer::init&#45;&gt;lightning_signer::config::SignerConfig -->
<g id="edge17" class="edge">
<title>lightning_signer::Signer::init&#45;&gt;lightning_signer::config::SignerConfig</title>
<path fill="none" stroke="#7f7f7f" stroke-dasharray="5,2" d="M1883.25,-2809.88C1841.26,-2563.14 1407,-11 1407,-11 1407,-11 1049.42,-546.02 963.09,-675.18"/>
<polygon fill="#7f7f7f" stroke="#7f7f7f" points="960,-673.51 957.35,-683.77 965.82,-677.4 960,-673.51"/>
<text text-anchor="middle" x="1394.5" y="-3" font-family="monospace" font-size="10.00">uses</text>
</g>
<!-- lightning_signer::Signer::is_running&#45;&gt;lightning_signer::Signer -->
<g id="edge18" class="edge">
<title>lightning_signer::Signer::is_running&#45;&gt;lightning_signer::Signer</title>
<path fill="none" stroke="#7f7f7f" stroke-dasharray="5,2" d="M1877.97,-2654.9C1813.64,-2510.81 1407,-1600 1407,-1600 1407,-1600 1040.16,-2267.06 959.89,-2413.01"/>
<polygon fill="#7f7f7f" stroke="#7f7f7f" points="956.78,-2411.41 955.03,-2421.85 962.91,-2414.78 956.78,-2411.41"/>
<text text-anchor="middle" x="1394.5" y="-1592" font-family="monospace" font-size="10.00">uses</text>
</g>
<!-- lightning_signer::Signer::provide_new_block_notify&#45;&gt;lightning_signer::Signer -->
<g id="edge19" class="edge">
<title>lightning_signer::Signer::provide_new_block_notify&#45;&gt;lightning_signer::Signer</title>
<path fill="none" stroke="#7f7f7f" stroke-dasharray="5,2" d="M1877.97,-2499.9C1813.64,-2355.81 1407,-1445 1407,-1445 1407,-1445 1033.09,-2250.22 957.66,-2412.65"/>
<polygon fill="#7f7f7f" stroke="#7f7f7f" points="954.36,-2411.45 953.33,-2421.99 960.71,-2414.4 954.36,-2411.45"/>
<text text-anchor="middle" x="1394.5" y="-1437" font-family="monospace" font-size="10.00">uses</text>
</g>
<!-- lightning_signer::Signer::shutdown&#45;&gt;lightning_signer::Signer -->
<g id="edge20" class="edge">
<title>lightning_signer::Signer::shutdown&#45;&gt;lightning_signer::Signer</title>
<path fill="none" stroke="#7f7f7f" stroke-dasharray="5,2" d="M1877.97,-2344.9C1813.64,-2200.81 1407,-1290 1407,-1290 1407,-1290 1027.17,-2235.27 955.94,-2412.54"/>
<polygon fill="#7f7f7f" stroke="#7f7f7f" points="952.62,-2411.4 952.14,-2421.98 959.12,-2414.01 952.62,-2411.4"/>
<text text-anchor="middle" x="1394.5" y="-1282" font-family="monospace" font-size="10.00">uses</text>
</g>
<!-- lightning_signer::Signer::sign_raw_digest&#45;&gt;lightning_signer::Signer -->
<g id="edge21" class="edge">
<title>lightning_signer::Signer::sign_raw_digest&#45;&gt;lightning_signer::Signer</title>
<path fill="none" stroke="#7f7f7f" stroke-dasharray="5,2" d="M1877.97,-2189.9C1813.64,-2045.81 1407,-1135 1407,-1135 1407,-1135 1022.78,-2219.96 954.74,-2412.09"/>
<polygon fill="#7f7f7f" stroke="#7f7f7f" points="951.35,-2411.19 951.31,-2421.78 957.94,-2413.52 951.35,-2411.19"/>
<text text-anchor="middle" x="1394.5" y="-1127" font-family="monospace" font-size="10.00">uses</text>
</g>
<!-- lightning_signer::Signer::start&#45;&gt;lightning_signer::Signer -->
<g id="edge22" class="edge">
<title>lightning_signer::Signer::start&#45;&gt;lightning_signer::Signer</title>
<path fill="none" stroke="#7f7f7f" stroke-dasharray="5,2" d="M1877.97,-2034.9C1813.64,-1890.81 1407,-980 1407,-980 1407,-980 1018.36,-2207.68 953.6,-2412.26"/>
<polygon fill="#7f7f7f" stroke="#7f7f7f" points="950.2,-2411.4 950.52,-2421.99 956.87,-2413.52 950.2,-2411.4"/>
<text text-anchor="middle" x="1394.5" y="-972" font-family="monospace" font-size="10.00">uses</text>
</g>
<!-- lightning_signer::SignerInner::handle -->
<g id="node13" class="node">
<title>lightning_signer::SignerInner::handle</title>
<polygon fill="#f8c04c" stroke="black" points="1821,-795 1821,-833 1952,-833 1952,-795 1821,-795"/>
<text text-anchor="middle" x="1886.5" y="-821" font-family="monospace" font-size="10.00">pub(crate) async fn</text>
<polyline fill="none" stroke="black" points="1821,-814 1952,-814 "/>
<text text-anchor="middle" x="1886.5" y="-802" font-family="monospace" font-size="10.00">SignerInner::handle</text>
</g>
<!-- lightning_signer::SignerInner&#45;&gt;lightning_signer::SignerInner::handle -->
<g id="edge23" class="edge">
<title>lightning_signer::SignerInner&#45;&gt;lightning_signer::SignerInner::handle</title>
<path fill="none" stroke="#000000" d="M1004.42,-814C1124.24,-814 1382,-814 1382,-814 1382,-814 1669.6,-814 1810.51,-814"/>
<polygon fill="#000000" stroke="#000000" points="1810.8,-817.5 1820.8,-814 1810.8,-810.5 1810.8,-817.5"/>
<text text-anchor="middle" x="1394.5" y="-817" font-family="monospace" font-size="10.00">owns</text>
</g>
<!-- lightning_signer::SignerInner::init -->
<g id="node14" class="node">
<title>lightning_signer::SignerInner::init</title>
<polygon fill="#f8c04c" stroke="black" points="1827,-640 1827,-678 1946,-678 1946,-640 1827,-640"/>
<text text-anchor="middle" x="1886.5" y="-666" font-family="monospace" font-size="10.00">pub(crate) fn</text>
<polyline fill="none" stroke="black" points="1827,-659 1946,-659 "/>
<text text-anchor="middle" x="1886.5" y="-647" font-family="monospace" font-size="10.00">SignerInner::init</text>
</g>
<!-- lightning_signer::SignerInner&#45;&gt;lightning_signer::SignerInner::init -->
<g id="edge24" class="edge">
<title>lightning_signer::SignerInner&#45;&gt;lightning_signer::SignerInner::init</title>
<path fill="none" stroke="#000000" d="M1004.02,-795.47C1128.93,-756.58 1407,-670 1407,-670 1407,-670 1683.6,-663.65 1816.64,-660.6"/>
<polygon fill="#000000" stroke="#000000" points="1816.82,-664.1 1826.74,-660.37 1816.66,-657.1 1816.82,-664.1"/>
<text text-anchor="middle" x="1394.5" y="-662" font-family="monospace" font-size="10.00">owns</text>
</g>
<!-- lightning_signer::SignerInner::sync_with_application -->
<g id="node15" class="node">
<title>lightning_signer::SignerInner::sync_with_application</title>
<polygon fill="#f8c04c" stroke="black" points="1776,-485 1776,-523 1997,-523 1997,-485 1776,-485"/>
<text text-anchor="middle" x="1886.5" y="-511" font-family="monospace" font-size="10.00">pub(crate) async fn</text>
<polyline fill="none" stroke="black" points="1776,-504 1997,-504 "/>
<text text-anchor="middle" x="1886.5" y="-492" font-family="monospace" font-size="10.00">SignerInner::sync_with_application</text>
</g>
<!-- lightning_signer::SignerInner&#45;&gt;lightning_signer::SignerInner::sync_with_application -->
<g id="edge25" class="edge">
<title>lightning_signer::SignerInner&#45;&gt;lightning_signer::SignerInner::sync_with_application</title>
<path fill="none" stroke="#000000" d="M974.14,-794.84C1076.21,-728.85 1407,-515 1407,-515 1407,-515 1623.75,-510.03 1765.8,-506.77"/>
<polygon fill="#000000" stroke="#000000" points="1765.97,-510.27 1775.89,-506.54 1765.81,-503.27 1765.97,-510.27"/>
<text text-anchor="middle" x="1394.5" y="-507" font-family="monospace" font-size="10.00">owns</text>
</g>
<!-- lightning_signer::SignerInner::handle&#45;&gt;lightning_signer::PendingTransaction -->
<g id="edge26" class="edge">
<title>lightning_signer::SignerInner::handle&#45;&gt;lightning_signer::PendingTransaction</title>
<path fill="none" stroke="#7f7f7f" stroke-dasharray="5,2" d="M1882.59,-833.24C1835.63,-1064.08 1382,-3294 1382,-3294 1382,-3294 1040.81,-2715.34 961.04,-2580.05"/>
<polygon fill="#7f7f7f" stroke="#7f7f7f" points="963.85,-2577.92 955.75,-2571.09 957.82,-2581.48 963.85,-2577.92"/>
<text text-anchor="middle" x="1394.5" y="-3297" font-family="monospace" font-size="10.00">uses</text>
</g>
<!-- lightning_signer::SignerInner::init&#45;&gt;lightning_signer::SignerInner -->
<g id="edge27" class="edge">
<title>lightning_signer::SignerInner::init&#45;&gt;lightning_signer::SignerInner</title>
<path fill="none" stroke="#7f7f7f" stroke-dasharray="5,2" d="M1857.23,-639.95C1753.12,-572.21 1407,-347 1407,-347 1407,-347 1068.4,-688.9 970.63,-787.61"/>
<polygon fill="#7f7f7f" stroke="#7f7f7f" points="968.04,-785.25 963.49,-794.82 973.02,-790.18 968.04,-785.25"/>
<text text-anchor="middle" x="1394.5" y="-339" font-family="monospace" font-size="10.00">uses</text>
</g>
</g>
</svg>
