<?xml version="1.0" encoding="UTF-8" standalone="no"?>
<!DOCTYPE svg PUBLIC "-//W3C//DTD SVG 1.1//EN"
 "http://www.w3.org/Graphics/SVG/1.1/DTD/svg11.dtd">
<!-- Generated by graphviz version 4.0.0 (0)
 -->
<!-- Pages: 1 -->
<svg width="1952pt" height="1201pt"
 viewBox="0.00 0.00 1951.89 1201.03" xmlns="http://www.w3.org/2000/svg" xmlns:xlink="http://www.w3.org/1999/xlink">
<g id="graph0" class="graph" transform="scale(1 1) rotate(0) translate(28.8 1172.23)">
<polygon fill="white" stroke="transparent" points="-28.8,28.8 -28.8,-1172.23 1923.09,-1172.23 1923.09,28.8 -28.8,28.8"/>
<text text-anchor="middle" x="947.15" y="-1110.63" font-family="Helvetica,sans-Serif" font-size="36.00">lightning_consensus</text>
<!-- fdi -->
<g id="node1" class="node">
<title>fdi</title>
<polygon fill="#5397c8" stroke="black" points="1590.05,-398.13 1590.05,-436.13 1691.05,-436.13 1691.05,-398.13 1590.05,-398.13"/>
<text text-anchor="middle" x="1640.55" y="-424.13" font-family="monospace" font-size="10.00">external crate</text>
<polyline fill="none" stroke="black" points="1590.05,-417.13 1691.05,-417.13 "/>
<text text-anchor="middle" x="1640.55" y="-405.13" font-family="monospace" font-size="10.00">fdi</text>
</g>
<!-- fleek_blake3 -->
<g id="node2" class="node">
<title>fleek_blake3</title>
<polygon fill="#5397c8" stroke="black" points="1585.41,-0.5 1585.41,-38.5 1686.41,-38.5 1686.41,-0.5 1585.41,-0.5"/>
<text text-anchor="middle" x="1635.91" y="-26.5" font-family="monospace" font-size="10.00">external crate</text>
<polyline fill="none" stroke="black" points="1585.41,-19.5 1686.41,-19.5 "/>
<text text-anchor="middle" x="1635.91" y="-7.5" font-family="monospace" font-size="10.00">fleek_blake3</text>
</g>
<!-- lightning_consensus -->
<g id="node3" class="node">
<title>lightning_consensus</title>
<polygon fill="#5397c8" stroke="black" points="865.8,-701.49 865.8,-739.49 996.8,-739.49 996.8,-701.49 865.8,-701.49"/>
<text text-anchor="middle" x="931.3" y="-727.49" font-family="monospace" font-size="10.00">crate</text>
<polyline fill="none" stroke="black" points="865.8,-720.49 996.8,-720.49 "/>
<text text-anchor="middle" x="931.3" y="-708.49" font-family="monospace" font-size="10.00">lightning_consensus</text>
</g>
<!-- lightning_consensus::config -->
<g id="node4" class="node">
<title>lightning_consensus::config</title>
<polygon fill="#81c169" stroke="black" points="927.61,-1056.93 927.61,-1094.93 1106.61,-1094.93 1106.61,-1056.93 927.61,-1056.93"/>
<text text-anchor="middle" x="1017.11" y="-1082.93" font-family="monospace" font-size="10.00">pub mod</text>
<polyline fill="none" stroke="black" points="927.61,-1075.93 1106.61,-1075.93 "/>
<text text-anchor="middle" x="1017.11" y="-1063.93" font-family="monospace" font-size="10.00">lightning_consensus::config</text>
</g>
<!-- lightning_consensus&#45;&gt;lightning_consensus::config -->
<g id="edge1" class="edge">
<title>lightning_consensus&#45;&gt;lightning_consensus::config</title>
<path fill="none" stroke="#000000" d="M935.91,-739.6C950.08,-798.3 993.06,-976.29 1010.07,-1046.75"/>
<polygon fill="#000000" stroke="#000000" points="1006.73,-1047.83 1012.48,-1056.73 1013.53,-1046.18 1006.73,-1047.83"/>
<text text-anchor="middle" x="960.49" y="-896.18" font-family="monospace" font-size="10.00">owns</text>
</g>
<!-- lightning_consensus::consensus -->
<g id="node5" class="node">
<title>lightning_consensus::consensus</title>
<polygon fill="#81c169" stroke="black" points="1105.02,-609.63 1105.02,-647.63 1302.02,-647.63 1302.02,-609.63 1105.02,-609.63"/>
<text text-anchor="middle" x="1203.52" y="-635.63" font-family="monospace" font-size="10.00">pub mod</text>
<polyline fill="none" stroke="black" points="1105.02,-628.63 1302.02,-628.63 "/>
<text text-anchor="middle" x="1203.52" y="-616.63" font-family="monospace" font-size="10.00">lightning_consensus::consensus</text>
</g>
<!-- lightning_consensus&#45;&gt;lightning_consensus::consensus -->
<g id="edge2" class="edge">
<title>lightning_consensus&#45;&gt;lightning_consensus::consensus</title>
<path fill="none" stroke="#000000" d="M987.7,-701.46C1031.32,-686.74 1091.8,-666.33 1137.64,-650.86"/>
<polygon fill="#000000" stroke="#000000" points="1138.83,-654.15 1147.19,-647.64 1136.6,-647.52 1138.83,-654.15"/>
<text text-anchor="middle" x="1050.17" y="-679.16" font-family="monospace" font-size="10.00">owns</text>
</g>
<!-- lightning_consensus::edge_node -->
<g id="node6" class="node">
<title>lightning_consensus::edge_node</title>
<polygon fill="#81c169" stroke="black" points="1194.68,-1042.42 1194.68,-1080.42 1391.68,-1080.42 1391.68,-1042.42 1194.68,-1042.42"/>
<text text-anchor="middle" x="1293.18" y="-1068.42" font-family="monospace" font-size="10.00">pub mod</text>
<polyline fill="none" stroke="black" points="1194.68,-1061.42 1391.68,-1061.42 "/>
<text text-anchor="middle" x="1293.18" y="-1049.42" font-family="monospace" font-size="10.00">lightning_consensus::edge_node</text>
</g>
<!-- lightning_consensus&#45;&gt;lightning_consensus::edge_node -->
<g id="edge3" class="edge">
<title>lightning_consensus&#45;&gt;lightning_consensus::edge_node</title>
<path fill="none" stroke="#000000" d="M951.53,-739.55C1012.59,-797.07 1195.1,-969.02 1265.27,-1035.13"/>
<polygon fill="#000000" stroke="#000000" points="1263.19,-1037.98 1272.87,-1042.29 1267.99,-1032.88 1263.19,-1037.98"/>
<text text-anchor="middle" x="1095.9" y="-890.34" font-family="monospace" font-size="10.00">owns</text>
</g>
<!-- lightning_consensus::execution -->
<g id="node10" class="node">
<title>lightning_consensus::execution</title>
<polygon fill="#81c169" stroke="black" points="1288.36,-437.22 1288.36,-475.22 1485.36,-475.22 1485.36,-437.22 1288.36,-437.22"/>
<text text-anchor="middle" x="1386.86" y="-463.22" font-family="monospace" font-size="10.00">pub mod</text>
<polyline fill="none" stroke="black" points="1288.36,-456.22 1485.36,-456.22 "/>
<text text-anchor="middle" x="1386.86" y="-444.22" font-family="monospace" font-size="10.00">lightning_consensus::execution</text>
</g>
<!-- lightning_consensus&#45;&gt;lightning_consensus::execution -->
<g id="edge4" class="edge">
<title>lightning_consensus&#45;&gt;lightning_consensus::execution</title>
<path fill="none" stroke="#000000" d="M964.06,-701.49C1045.23,-654.4 1255.53,-532.4 1345.28,-480.34"/>
<polygon fill="#000000" stroke="#000000" points="1347.2,-483.27 1354.09,-475.23 1343.69,-477.22 1347.2,-483.27"/>
<text text-anchor="middle" x="1142.17" y="-593.91" font-family="monospace" font-size="10.00">owns</text>
</g>
<!-- lightning_consensus::narwhal -->
<g id="node11" class="node">
<title>lightning_consensus::narwhal</title>
<polygon fill="#81c169" stroke="black" points="688.52,-457.41 688.52,-495.41 873.52,-495.41 873.52,-457.41 688.52,-457.41"/>
<text text-anchor="middle" x="781.02" y="-483.41" font-family="monospace" font-size="10.00">pub mod</text>
<polyline fill="none" stroke="black" points="688.52,-476.41 873.52,-476.41 "/>
<text text-anchor="middle" x="781.02" y="-464.41" font-family="monospace" font-size="10.00">lightning_consensus::narwhal</text>
</g>
<!-- lightning_consensus&#45;&gt;lightning_consensus::narwhal -->
<g id="edge5" class="edge">
<title>lightning_consensus&#45;&gt;lightning_consensus::narwhal</title>
<path fill="none" stroke="#000000" d="M919.51,-701.34C893.06,-658.39 828.93,-554.22 798.11,-504.16"/>
<polygon fill="#000000" stroke="#000000" points="800.98,-502.15 792.76,-495.47 795.02,-505.82 800.98,-502.15"/>
<text text-anchor="middle" x="846.31" y="-605.75" font-family="monospace" font-size="10.00">owns</text>
</g>
<!-- lightning_consensus::validator -->
<g id="node12" class="node">
<title>lightning_consensus::validator</title>
<polygon fill="#81c169" stroke="black" points="373.12,-649.72 373.12,-687.72 570.12,-687.72 570.12,-649.72 373.12,-649.72"/>
<text text-anchor="middle" x="471.62" y="-675.72" font-family="monospace" font-size="10.00">pub mod</text>
<polyline fill="none" stroke="black" points="373.12,-668.72 570.12,-668.72 "/>
<text text-anchor="middle" x="471.62" y="-656.72" font-family="monospace" font-size="10.00">lightning_consensus::validator</text>
</g>
<!-- lightning_consensus&#45;&gt;lightning_consensus::validator -->
<g id="edge6" class="edge">
<title>lightning_consensus&#45;&gt;lightning_consensus::validator</title>
<path fill="none" stroke="#000000" d="M865.44,-713.08C791.09,-704.7 668.99,-690.95 580.43,-680.98"/>
<polygon fill="#000000" stroke="#000000" points="580.68,-677.48 570.35,-679.84 579.89,-684.44 580.68,-677.48"/>
<text text-anchor="middle" x="710.44" y="-700.03" font-family="monospace" font-size="10.00">owns</text>
</g>
<!-- lightning_consensus::consensus&#45;&gt;fdi -->
<g id="edge7" class="edge">
<title>lightning_consensus::consensus&#45;&gt;fdi</title>
<path fill="none" stroke="#7f7f7f" stroke-dasharray="5,2" d="M1243.08,-609.49C1323.25,-570.69 1504.7,-482.87 1591.93,-440.66"/>
<polygon fill="#7f7f7f" stroke="#7f7f7f" points="1593.61,-443.74 1601.08,-436.23 1590.56,-437.44 1593.61,-443.74"/>
<text text-anchor="middle" x="1405" y="-528.07" font-family="monospace" font-size="10.00">uses</text>
</g>
<!-- lightning_consensus::consensus&#45;&gt;lightning_consensus::config -->
<g id="edge8" class="edge">
<title>lightning_consensus::consensus&#45;&gt;lightning_consensus::config</title>
<path fill="none" stroke="#7f7f7f" stroke-dasharray="5,2" d="M1195.51,-647.85C1166.12,-718.39 1064.05,-963.3 1029.02,-1047.35"/>
<polygon fill="#7f7f7f" stroke="#7f7f7f" points="1025.71,-1046.2 1025.09,-1056.78 1032.17,-1048.9 1025.71,-1046.2"/>
<text text-anchor="middle" x="1099.77" y="-850.6" font-family="monospace" font-size="10.00">uses</text>
</g>
<!-- lightning_consensus::edge_node::consensus -->
<g id="node7" class="node">
<title>lightning_consensus::edge_node::consensus</title>
<polygon fill="#81c169" stroke="black" points="1310.05,-613.64 1310.05,-651.64 1573.05,-651.64 1573.05,-613.64 1310.05,-613.64"/>
<text text-anchor="middle" x="1441.55" y="-639.64" font-family="monospace" font-size="10.00">pub mod</text>
<polyline fill="none" stroke="black" points="1310.05,-632.64 1573.05,-632.64 "/>
<text text-anchor="middle" x="1441.55" y="-620.64" font-family="monospace" font-size="10.00">lightning_consensus::edge_node::consensus</text>
</g>
<!-- lightning_consensus::consensus&#45;&gt;lightning_consensus::edge_node::consensus -->
<g id="edge9" class="edge">
<title>lightning_consensus::consensus&#45;&gt;lightning_consensus::edge_node::consensus</title>
<path fill="none" stroke="#7f7f7f" stroke-dasharray="5,2" d="M1232.87,-647.7C1273.92,-658.52 1348.81,-660.78 1396.82,-653.47"/>
<polygon fill="#7f7f7f" stroke="#7f7f7f" points="1397.69,-656.87 1406.94,-651.7 1396.48,-649.98 1397.69,-656.87"/>
<text text-anchor="middle" x="1302.35" y="-653.59" font-family="monospace" font-size="10.00">uses</text>
</g>
<!-- lightning_consensus::consensus&#45;&gt;lightning_consensus::execution -->
<g id="edge10" class="edge">
<title>lightning_consensus::consensus&#45;&gt;lightning_consensus::execution</title>
<path fill="none" stroke="#7f7f7f" stroke-dasharray="5,2" d="M1223.84,-609.52C1256.75,-578.58 1321.74,-517.46 1358.95,-482.46"/>
<polygon fill="#7f7f7f" stroke="#7f7f7f" points="1361.56,-484.81 1366.45,-475.41 1356.77,-479.71 1361.56,-484.81"/>
<text text-anchor="middle" x="1278.9" y="-548.99" font-family="monospace" font-size="10.00">uses</text>
</g>
<!-- lightning_consensus::consensus&#45;&gt;lightning_consensus::narwhal -->
<g id="edge11" class="edge">
<title>lightning_consensus::consensus&#45;&gt;lightning_consensus::narwhal</title>
<path fill="none" stroke="#7f7f7f" stroke-dasharray="5,2" d="M1150.44,-609.5C1072.31,-581.35 926.63,-528.87 843.46,-498.91"/>
<polygon fill="#7f7f7f" stroke="#7f7f7f" points="844.48,-495.55 833.89,-495.46 842.11,-502.14 844.48,-495.55"/>
<text text-anchor="middle" x="984.45" y="-557.21" font-family="monospace" font-size="10.00">uses</text>
</g>
<!-- lightning_schema -->
<g id="node13" class="node">
<title>lightning_schema</title>
<polygon fill="#5397c8" stroke="black" points="1686.86,-531.09 1686.86,-569.09 1799.86,-569.09 1799.86,-531.09 1686.86,-531.09"/>
<text text-anchor="middle" x="1743.36" y="-557.09" font-family="monospace" font-size="10.00">external crate</text>
<polyline fill="none" stroke="black" points="1686.86,-550.09 1799.86,-550.09 "/>
<text text-anchor="middle" x="1743.36" y="-538.09" font-family="monospace" font-size="10.00">lightning_schema</text>
</g>
<!-- lightning_consensus::consensus&#45;&gt;lightning_schema -->
<g id="edge12" class="edge">
<title>lightning_consensus::consensus&#45;&gt;lightning_schema</title>
<path fill="none" stroke="#7f7f7f" stroke-dasharray="5,2" d="M1302.22,-614.27C1410.98,-598.45 1582.91,-573.44 1676.78,-559.78"/>
<polygon fill="#7f7f7f" stroke="#7f7f7f" points="1677.34,-563.24 1686.73,-558.33 1676.33,-556.31 1677.34,-563.24"/>
<text text-anchor="middle" x="1477" y="-590.03" font-family="monospace" font-size="10.00">uses</text>
</g>
<!-- lightning_types -->
<g id="node14" class="node">
<title>lightning_types</title>
<polygon fill="#5397c8" stroke="black" points="1448.36,-969.41 1448.36,-1007.41 1555.36,-1007.41 1555.36,-969.41 1448.36,-969.41"/>
<text text-anchor="middle" x="1501.86" y="-995.41" font-family="monospace" font-size="10.00">external crate</text>
<polyline fill="none" stroke="black" points="1448.36,-988.41 1555.36,-988.41 "/>
<text text-anchor="middle" x="1501.86" y="-976.41" font-family="monospace" font-size="10.00">lightning_types</text>
</g>
<!-- lightning_consensus::consensus&#45;&gt;lightning_types -->
<g id="edge13" class="edge">
<title>lightning_consensus::consensus&#45;&gt;lightning_types</title>
<path fill="none" stroke="#7f7f7f" stroke-dasharray="5,2" d="M1219.35,-647.72C1269.01,-707.61 1421.85,-891.92 1479.52,-961.47"/>
<polygon fill="#7f7f7f" stroke="#7f7f7f" points="1476.99,-963.9 1486.07,-969.37 1482.38,-959.44 1476.99,-963.9"/>
<text text-anchor="middle" x="1336.94" y="-807.59" font-family="monospace" font-size="10.00">uses</text>
</g>
<!-- tokio::sync::mpsc -->
<g id="node16" class="node">
<title>tokio::sync::mpsc</title>
<polygon fill="#81c169" stroke="black" points="1193.5,-190.93 1193.5,-228.93 1312.5,-228.93 1312.5,-190.93 1193.5,-190.93"/>
<text text-anchor="middle" x="1253" y="-216.93" font-family="monospace" font-size="10.00">external mod</text>
<polyline fill="none" stroke="black" points="1193.5,-209.93 1312.5,-209.93 "/>
<text text-anchor="middle" x="1253" y="-197.93" font-family="monospace" font-size="10.00">tokio::sync::mpsc</text>
</g>
<!-- lightning_consensus::consensus&#45;&gt;tokio::sync::mpsc -->
<g id="edge14" class="edge">
<title>lightning_consensus::consensus&#45;&gt;tokio::sync::mpsc</title>
<path fill="none" stroke="#7f7f7f" stroke-dasharray="5,2" d="M1205.78,-609.55C1213.66,-542.8 1240.06,-319.43 1249.55,-239.05"/>
<polygon fill="#7f7f7f" stroke="#7f7f7f" points="1253.03,-239.46 1250.73,-229.12 1246.08,-238.64 1253.03,-239.46"/>
<text text-anchor="middle" x="1215.17" y="-427.3" font-family="monospace" font-size="10.00">uses</text>
</g>
<!-- tokio::task -->
<g id="node17" class="node">
<title>tokio::task</title>
<polygon fill="#81c169" stroke="black" points="942.69,-143.09 942.69,-181.09 1031.69,-181.09 1031.69,-143.09 942.69,-143.09"/>
<text text-anchor="middle" x="987.19" y="-169.09" font-family="monospace" font-size="10.00">external mod</text>
<polyline fill="none" stroke="black" points="942.69,-162.09 1031.69,-162.09 "/>
<text text-anchor="middle" x="987.19" y="-150.09" font-family="monospace" font-size="10.00">tokio::task</text>
</g>
<!-- lightning_consensus::consensus&#45;&gt;tokio::task -->
<g id="edge15" class="edge">
<title>lightning_consensus::consensus&#45;&gt;tokio::task</title>
<path fill="none" stroke="#7f7f7f" stroke-dasharray="5,2" d="M1194.64,-609.47C1160.88,-536.66 1040.43,-276.9 1000.3,-190.37"/>
<polygon fill="#7f7f7f" stroke="#7f7f7f" points="1003.42,-188.75 996.03,-181.15 997.06,-191.7 1003.42,-188.75"/>
<text text-anchor="middle" x="1084.97" y="-402.92" font-family="monospace" font-size="10.00">uses</text>
</g>
<!-- tokio::time -->
<g id="node18" class="node">
<title>tokio::time</title>
<polygon fill="#81c169" stroke="black" points="820.77,-951.32 820.77,-989.32 909.77,-989.32 909.77,-951.32 820.77,-951.32"/>
<text text-anchor="middle" x="865.27" y="-977.32" font-family="monospace" font-size="10.00">external mod</text>
<polyline fill="none" stroke="black" points="820.77,-970.32 909.77,-970.32 "/>
<text text-anchor="middle" x="865.27" y="-958.32" font-family="monospace" font-size="10.00">tokio::time</text>
</g>
<!-- lightning_consensus::consensus&#45;&gt;tokio::time -->
<g id="edge16" class="edge">
<title>lightning_consensus::consensus&#45;&gt;tokio::time</title>
<path fill="none" stroke="#7f7f7f" stroke-dasharray="5,2" d="M1184.37,-647.98C1127.04,-705.89 956.76,-877.9 891.3,-944.02"/>
<polygon fill="#7f7f7f" stroke="#7f7f7f" points="888.76,-941.61 884.22,-951.18 893.74,-946.53 888.76,-941.61"/>
<text text-anchor="middle" x="1025.34" y="-799" font-family="monospace" font-size="10.00">uses</text>
</g>
<!-- lightning_consensus::edge_node&#45;&gt;lightning_consensus::edge_node::consensus -->
<g id="edge17" class="edge">
<title>lightning_consensus::edge_node&#45;&gt;lightning_consensus::edge_node::consensus</title>
<path fill="none" stroke="#000000" d="M1299.85,-1042.17C1323.48,-973.87 1403.36,-743.02 1431.57,-661.47"/>
<polygon fill="#000000" stroke="#000000" points="1434.94,-662.44 1434.9,-651.85 1428.32,-660.15 1434.94,-662.44"/>
<text text-anchor="middle" x="1353.21" y="-854.82" font-family="monospace" font-size="10.00">owns</text>
</g>
<!-- lightning_consensus::edge_node::ring_buffer -->
<g id="node8" class="node">
<title>lightning_consensus::edge_node::ring_buffer</title>
<polygon fill="#f8c04c" stroke="black" points="1619.29,-780.61 1619.29,-818.61 1894.29,-818.61 1894.29,-780.61 1619.29,-780.61"/>
<text text-anchor="middle" x="1756.79" y="-806.61" font-family="monospace" font-size="10.00">pub(crate) mod</text>
<polyline fill="none" stroke="black" points="1619.29,-799.61 1894.29,-799.61 "/>
<text text-anchor="middle" x="1756.79" y="-787.61" font-family="monospace" font-size="10.00">lightning_consensus::edge_node::ring_buffer</text>
</g>
<!-- lightning_consensus::edge_node&#45;&gt;lightning_consensus::edge_node::ring_buffer -->
<g id="edge18" class="edge">
<title>lightning_consensus::edge_node&#45;&gt;lightning_consensus::edge_node::ring_buffer</title>
<path fill="none" stroke="#000000" d="M1326.9,-1042.38C1409.68,-995.64 1622.81,-875.27 1714.18,-823.68"/>
<polygon fill="#000000" stroke="#000000" points="1715.9,-826.72 1722.89,-818.75 1712.46,-820.62 1715.9,-826.72"/>
<text text-anchor="middle" x="1508.04" y="-936.03" font-family="monospace" font-size="10.00">owns</text>
</g>
<!-- lightning_consensus::edge_node::transaction_store -->
<g id="node9" class="node">
<title>lightning_consensus::edge_node::transaction_store</title>
<polygon fill="#db5367" stroke="black" points="1300.25,-777.81 1300.25,-815.81 1611.25,-815.81 1611.25,-777.81 1300.25,-777.81"/>
<text text-anchor="middle" x="1455.75" y="-803.81" font-family="monospace" font-size="10.00">pub(self) mod</text>
<polyline fill="none" stroke="black" points="1300.25,-796.81 1611.25,-796.81 "/>
<text text-anchor="middle" x="1455.75" y="-784.81" font-family="monospace" font-size="10.00">lightning_consensus::edge_node::transaction_store</text>
</g>
<!-- lightning_consensus::edge_node&#45;&gt;lightning_consensus::edge_node::transaction_store -->
<g id="edge19" class="edge">
<title>lightning_consensus::edge_node&#45;&gt;lightning_consensus::edge_node::transaction_store</title>
<path fill="none" stroke="#000000" d="M1304.88,-1042.39C1333.16,-996.35 1405.4,-878.77 1438.59,-824.74"/>
<polygon fill="#000000" stroke="#000000" points="1441.69,-826.38 1443.95,-816.03 1435.73,-822.71 1441.69,-826.38"/>
<text text-anchor="middle" x="1359.23" y="-936.57" font-family="monospace" font-size="10.00">owns</text>
</g>
<!-- lightning_consensus::edge_node::consensus&#45;&gt;fdi -->
<g id="edge20" class="edge">
<title>lightning_consensus::edge_node::consensus&#45;&gt;fdi</title>
<path fill="none" stroke="#7f7f7f" stroke-dasharray="5,2" d="M1459.21,-613.52C1494.83,-574.94 1575.36,-487.72 1616.05,-443.67"/>
<polygon fill="#7f7f7f" stroke="#7f7f7f" points="1618.71,-445.94 1622.93,-436.22 1613.57,-441.19 1618.71,-445.94"/>
<text text-anchor="middle" x="1525.13" y="-531.59" font-family="monospace" font-size="10.00">uses</text>
</g>
<!-- lightning_consensus::edge_node::consensus&#45;&gt;lightning_consensus::consensus -->
<g id="edge21" class="edge">
<title>lightning_consensus::edge_node::consensus&#45;&gt;lightning_consensus::consensus</title>
<path fill="none" stroke="#7f7f7f" stroke-dasharray="5,2" d="M1412.2,-613.57C1371.15,-602.75 1296.26,-600.49 1248.24,-607.8"/>
<polygon fill="#7f7f7f" stroke="#7f7f7f" points="1247.38,-604.4 1238.13,-609.57 1248.59,-611.3 1247.38,-604.4"/>
<text text-anchor="middle" x="1317.72" y="-602.69" font-family="monospace" font-size="10.00">uses</text>
</g>
<!-- lightning_consensus::edge_node::consensus&#45;&gt;lightning_consensus::edge_node::transaction_store -->
<g id="edge22" class="edge">
<title>lightning_consensus::edge_node::consensus&#45;&gt;lightning_consensus::edge_node::transaction_store</title>
<path fill="none" stroke="#7f7f7f" stroke-dasharray="5,2" d="M1443.2,-651.8C1445.67,-680.34 1450.34,-734.26 1453.23,-767.7"/>
<polygon fill="#7f7f7f" stroke="#7f7f7f" points="1449.76,-768.12 1454.1,-777.78 1456.73,-767.52 1449.76,-768.12"/>
<text text-anchor="middle" x="1435.72" y="-701.75" font-family="monospace" font-size="10.00">uses</text>
</g>
<!-- lightning_consensus::edge_node::consensus&#45;&gt;lightning_consensus::execution -->
<g id="edge23" class="edge">
<title>lightning_consensus::edge_node::consensus&#45;&gt;lightning_consensus::execution</title>
<path fill="none" stroke="#7f7f7f" stroke-dasharray="5,2" d="M1435.59,-613.43C1426.02,-582.54 1407.14,-521.65 1395.9,-485.38"/>
<polygon fill="#7f7f7f" stroke="#7f7f7f" points="1399.12,-483.93 1392.81,-475.41 1392.43,-486 1399.12,-483.93"/>
<text text-anchor="middle" x="1403.25" y="-552.4" font-family="monospace" font-size="10.00">uses</text>
</g>
<!-- lightning_consensus::edge_node::consensus&#45;&gt;lightning_schema -->
<g id="edge24" class="edge">
<title>lightning_consensus::edge_node::consensus&#45;&gt;lightning_schema</title>
<path fill="none" stroke="#7f7f7f" stroke-dasharray="5,2" d="M1511.17,-613.6C1561,-599.97 1627.7,-581.73 1676.82,-568.29"/>
<polygon fill="#7f7f7f" stroke="#7f7f7f" points="1677.99,-571.6 1686.71,-565.59 1676.14,-564.85 1677.99,-571.6"/>
<text text-anchor="middle" x="1581.49" y="-593.95" font-family="monospace" font-size="10.00">uses</text>
</g>
<!-- lightning_consensus::edge_node::consensus&#45;&gt;lightning_types -->
<g id="edge25" class="edge">
<title>lightning_consensus::edge_node::consensus&#45;&gt;lightning_types</title>
<path fill="none" stroke="#7f7f7f" stroke-dasharray="5,2" d="M1444.79,-651.77C1454.75,-710.53 1484.95,-888.68 1496.91,-959.21"/>
<polygon fill="#7f7f7f" stroke="#7f7f7f" points="1493.48,-959.91 1498.6,-969.19 1500.38,-958.74 1493.48,-959.91"/>
<text text-anchor="middle" x="1458.35" y="-808.49" font-family="monospace" font-size="10.00">uses</text>
</g>
<!-- lightning_consensus::edge_node::consensus&#45;&gt;tokio::sync::mpsc -->
<g id="edge26" class="edge">
<title>lightning_consensus::edge_node::consensus&#45;&gt;tokio::sync::mpsc</title>
<path fill="none" stroke="#7f7f7f" stroke-dasharray="5,2" d="M1432.96,-613.38C1402.83,-545.85 1301.89,-319.56 1265.89,-238.84"/>
<polygon fill="#7f7f7f" stroke="#7f7f7f" points="1268.91,-237.01 1261.64,-229.3 1262.51,-239.86 1268.91,-237.01"/>
<text text-anchor="middle" x="1336.92" y="-418.11" font-family="monospace" font-size="10.00">uses</text>
</g>
<!-- lightning_consensus::edge_node::ring_buffer&#45;&gt;fdi -->
<g id="edge27" class="edge">
<title>lightning_consensus::edge_node::ring_buffer&#45;&gt;fdi</title>
<path fill="none" stroke="#7f7f7f" stroke-dasharray="5,2" d="M1750.95,-780.38C1731.95,-717.88 1671.88,-520.22 1649.27,-445.83"/>
<polygon fill="#7f7f7f" stroke="#7f7f7f" points="1652.59,-444.73 1646.33,-436.18 1645.89,-446.76 1652.59,-444.73"/>
<text text-anchor="middle" x="1687.61" y="-616.1" font-family="monospace" font-size="10.00">uses</text>
</g>
<!-- lightning_consensus::edge_node::ring_buffer&#45;&gt;lightning_consensus::consensus -->
<g id="edge28" class="edge">
<title>lightning_consensus::edge_node::ring_buffer&#45;&gt;lightning_consensus::consensus</title>
<path fill="none" stroke="#7f7f7f" stroke-dasharray="5,2" d="M1695.2,-780.58C1591.85,-748.64 1384.11,-684.44 1274.68,-650.62"/>
<polygon fill="#7f7f7f" stroke="#7f7f7f" points="1275.64,-647.25 1265.05,-647.64 1273.57,-653.94 1275.64,-647.25"/>
<text text-anchor="middle" x="1472.44" y="-718.6" font-family="monospace" font-size="10.00">uses</text>
</g>
<!-- lightning_consensus::edge_node::ring_buffer&#45;&gt;lightning_consensus::edge_node::transaction_store -->
<g id="edge29" class="edge">
<title>lightning_consensus::edge_node::ring_buffer&#45;&gt;lightning_consensus::edge_node::transaction_store</title>
<path fill="none" stroke="#7f7f7f" stroke-dasharray="5,2" d="M1718.84,-780.56C1665.54,-769.84 1568.32,-768.15 1508.15,-776.26"/>
<polygon fill="#7f7f7f" stroke="#7f7f7f" points="1507.47,-772.83 1498.1,-777.77 1508.51,-779.75 1507.47,-772.83"/>
<text text-anchor="middle" x="1625.99" y="-770.41" font-family="monospace" font-size="10.00">uses</text>
</g>
<!-- lightning_consensus::edge_node::ring_buffer&#45;&gt;lightning_consensus::execution -->
<g id="edge30" class="edge">
<title>lightning_consensus::edge_node::ring_buffer&#45;&gt;lightning_consensus::execution</title>
<path fill="none" stroke="#7f7f7f" stroke-dasharray="5,2" d="M1736.11,-780.41C1673.57,-722.36 1486.37,-548.58 1414.96,-482.3"/>
<polygon fill="#7f7f7f" stroke="#7f7f7f" points="1417.34,-479.73 1407.63,-475.49 1412.58,-484.86 1417.34,-479.73"/>
<text text-anchor="middle" x="1588.03" y="-634.36" font-family="monospace" font-size="10.00">uses</text>
</g>
<!-- lightning_consensus::edge_node::ring_buffer&#45;&gt;lightning_schema -->
<g id="edge31" class="edge">
<title>lightning_consensus::edge_node::ring_buffer&#45;&gt;lightning_schema</title>
<path fill="none" stroke="#7f7f7f" stroke-dasharray="5,2" d="M1755.76,-780.45C1753.42,-737.08 1747.72,-631.21 1744.94,-579.5"/>
<polygon fill="#7f7f7f" stroke="#7f7f7f" points="1748.42,-579.12 1744.39,-569.32 1741.43,-579.5 1748.42,-579.12"/>
<text text-anchor="middle" x="1737.85" y="-682.97" font-family="monospace" font-size="10.00">uses</text>
</g>
<!-- lightning_consensus::edge_node::ring_buffer&#45;&gt;lightning_types -->
<g id="edge32" class="edge">
<title>lightning_consensus::edge_node::ring_buffer&#45;&gt;lightning_types</title>
<path fill="none" stroke="#7f7f7f" stroke-dasharray="5,2" d="M1730.94,-818.75C1684.66,-853.03 1587.65,-924.88 1535.97,-963.15"/>
<polygon fill="#7f7f7f" stroke="#7f7f7f" points="1533.73,-960.45 1527.78,-969.22 1537.9,-966.08 1533.73,-960.45"/>
<text text-anchor="middle" x="1620.96" y="-893.95" font-family="monospace" font-size="10.00">uses</text>
</g>
<!-- lightning_consensus::edge_node::transaction_store&#45;&gt;fdi -->
<g id="edge33" class="edge">
<title>lightning_consensus::edge_node::transaction_store&#45;&gt;fdi</title>
<path fill="none" stroke="#7f7f7f" stroke-dasharray="5,2" d="M1465.04,-777.72C1495.23,-715.7 1590.69,-519.58 1626.65,-445.68"/>
<polygon fill="#7f7f7f" stroke="#7f7f7f" points="1629.9,-447.01 1631.13,-436.49 1623.6,-443.95 1629.9,-447.01"/>
<text text-anchor="middle" x="1533.35" y="-603.7" font-family="monospace" font-size="10.00">uses</text>
</g>
<!-- lightning_consensus::edge_node::transaction_store&#45;&gt;lightning_consensus::consensus -->
<g id="edge34" class="edge">
<title>lightning_consensus::edge_node::transaction_store&#45;&gt;lightning_consensus::consensus</title>
<path fill="none" stroke="#7f7f7f" stroke-dasharray="5,2" d="M1426.82,-777.52C1380.82,-746.85 1291.08,-687.01 1240.49,-653.28"/>
<polygon fill="#7f7f7f" stroke="#7f7f7f" points="1242.38,-650.33 1232.12,-647.7 1238.5,-656.16 1242.38,-650.33"/>
<text text-anchor="middle" x="1321.15" y="-718.4" font-family="monospace" font-size="10.00">uses</text>
</g>
<!-- lightning_consensus::edge_node::transaction_store&#45;&gt;lightning_consensus::edge_node::ring_buffer -->
<g id="edge35" class="edge">
<title>lightning_consensus::edge_node::transaction_store&#45;&gt;lightning_consensus::edge_node::ring_buffer</title>
<path fill="none" stroke="#7f7f7f" stroke-dasharray="5,2" d="M1493.7,-815.86C1547,-826.59 1644.23,-828.27 1704.39,-820.16"/>
<polygon fill="#7f7f7f" stroke="#7f7f7f" points="1705.07,-823.59 1714.44,-818.65 1704.03,-816.67 1705.07,-823.59"/>
<text text-anchor="middle" x="1586.55" y="-821.01" font-family="monospace" font-size="10.00">uses</text>
</g>
<!-- lightning_consensus::edge_node::transaction_store&#45;&gt;lightning_consensus::execution -->
<g id="edge36" class="edge">
<title>lightning_consensus::edge_node::transaction_store&#45;&gt;lightning_consensus::execution</title>
<path fill="none" stroke="#7f7f7f" stroke-dasharray="5,2" d="M1451.85,-777.52C1440.34,-720.62 1406.48,-553.18 1392.75,-485.3"/>
<polygon fill="#7f7f7f" stroke="#7f7f7f" points="1396.13,-484.4 1390.72,-475.29 1389.27,-485.79 1396.13,-484.4"/>
<text text-anchor="middle" x="1409.8" y="-634.41" font-family="monospace" font-size="10.00">uses</text>
</g>
<!-- lightning_consensus::edge_node::transaction_store&#45;&gt;lightning_schema -->
<g id="edge37" class="edge">
<title>lightning_consensus::edge_node::transaction_store&#45;&gt;lightning_schema</title>
<path fill="none" stroke="#7f7f7f" stroke-dasharray="5,2" d="M1478.32,-777.45C1529.67,-733.4 1655.26,-625.67 1713.18,-575.98"/>
<polygon fill="#7f7f7f" stroke="#7f7f7f" points="1715.58,-578.53 1720.89,-569.36 1711.02,-573.22 1715.58,-578.53"/>
<text text-anchor="middle" x="1583.25" y="-679.72" font-family="monospace" font-size="10.00">uses</text>
</g>
<!-- lightning_consensus::edge_node::transaction_store&#45;&gt;lightning_types -->
<g id="edge38" class="edge">
<title>lightning_consensus::edge_node::transaction_store&#45;&gt;lightning_types</title>
<path fill="none" stroke="#7f7f7f" stroke-dasharray="5,2" d="M1460.34,-815.88C1468.43,-849.51 1485.29,-919.53 1494.85,-959.26"/>
<polygon fill="#7f7f7f" stroke="#7f7f7f" points="1491.48,-960.23 1497.22,-969.13 1498.29,-958.59 1491.48,-960.23"/>
<text text-anchor="middle" x="1465.09" y="-890.57" font-family="monospace" font-size="10.00">uses</text>
</g>
<!-- lightning_consensus::execution&#45;&gt;fdi -->
<g id="edge39" class="edge">
<title>lightning_consensus::execution&#45;&gt;fdi</title>
<path fill="none" stroke="#7f7f7f" stroke-dasharray="5,2" d="M1485.67,-441C1517.39,-436.11 1551.57,-430.84 1579.73,-426.5"/>
<polygon fill="#7f7f7f" stroke="#7f7f7f" points="1580.47,-429.93 1589.82,-424.95 1579.4,-423.01 1580.47,-429.93"/>
<text text-anchor="middle" x="1520.2" y="-436.75" font-family="monospace" font-size="10.00">uses</text>
</g>
<!-- lightning_consensus::execution&#45;&gt;fleek_blake3 -->
<g id="edge40" class="edge">
<title>lightning_consensus::execution&#45;&gt;fleek_blake3</title>
<path fill="none" stroke="#7f7f7f" stroke-dasharray="5,2" d="M1397.72,-437.17C1437.21,-367.93 1573.26,-129.36 1620,-47.41"/>
<polygon fill="#7f7f7f" stroke="#7f7f7f" points="1623.08,-49.07 1624.99,-38.65 1617,-45.6 1623.08,-49.07"/>
<text text-anchor="middle" x="1496.36" y="-245.29" font-family="monospace" font-size="10.00">uses</text>
</g>
<!-- lightning_consensus::execution&#45;&gt;lightning_schema -->
<g id="edge41" class="edge">
<title>lightning_consensus::execution&#45;&gt;lightning_schema</title>
<path fill="none" stroke="#7f7f7f" stroke-dasharray="5,2" d="M1459.43,-475.33C1523.07,-492.09 1614.84,-516.25 1676.66,-532.53"/>
<polygon fill="#7f7f7f" stroke="#7f7f7f" points="1676.14,-536.01 1686.7,-535.18 1677.92,-529.24 1676.14,-536.01"/>
<text text-anchor="middle" x="1555.55" y="-506.93" font-family="monospace" font-size="10.00">uses</text>
</g>
<!-- lightning_consensus::execution&#45;&gt;lightning_types -->
<g id="edge42" class="edge">
<title>lightning_consensus::execution&#45;&gt;lightning_types</title>
<path fill="none" stroke="#7f7f7f" stroke-dasharray="5,2" d="M1391.02,-475.47C1408.33,-555.58 1474.71,-862.77 1495.56,-959.24"/>
<polygon fill="#7f7f7f" stroke="#7f7f7f" points="1492.17,-960.15 1497.71,-969.18 1499.02,-958.67 1492.17,-960.15"/>
<text text-anchor="middle" x="1430.79" y="-720.36" font-family="monospace" font-size="10.00">uses</text>
</g>
<!-- lightning_consensus::execution&#45;&gt;tokio::sync::mpsc -->
<g id="edge43" class="edge">
<title>lightning_consensus::execution&#45;&gt;tokio::sync::mpsc</title>
<path fill="none" stroke="#7f7f7f" stroke-dasharray="5,2" d="M1376.36,-436.89C1352.85,-393.64 1295.91,-288.87 1268.39,-238.25"/>
<polygon fill="#7f7f7f" stroke="#7f7f7f" points="1271.3,-236.28 1263.45,-229.17 1265.15,-239.62 1271.3,-236.28"/>
<text text-anchor="middle" x="1309.87" y="-340.57" font-family="monospace" font-size="10.00">uses</text>
</g>
<!-- lightning_consensus::narwhal&#45;&gt;lightning_consensus::validator -->
<g id="edge44" class="edge">
<title>lightning_consensus::narwhal&#45;&gt;lightning_consensus::validator</title>
<path fill="none" stroke="#7f7f7f" stroke-dasharray="5,2" d="M750.22,-495.55C693.7,-530.69 573.48,-605.41 511.06,-644.2"/>
<polygon fill="#7f7f7f" stroke="#7f7f7f" points="508.94,-641.4 502.29,-649.65 512.63,-647.35 508.94,-641.4"/>
<text text-anchor="middle" x="618.14" y="-572.88" font-family="monospace" font-size="10.00">uses</text>
</g>
<!-- lightning_utils::eth -->
<g id="node15" class="node">
<title>lightning_utils::eth</title>
<polygon fill="#81c169" stroke="black" points="0,-645.71 0,-683.71 137,-683.71 137,-645.71 0,-645.71"/>
<text text-anchor="middle" x="68.5" y="-671.71" font-family="monospace" font-size="10.00">external mod</text>
<polyline fill="none" stroke="black" points="0,-664.71 137,-664.71 "/>
<text text-anchor="middle" x="68.5" y="-652.71" font-family="monospace" font-size="10.00">lightning_utils::eth</text>
</g>
<!-- lightning_consensus::validator&#45;&gt;lightning_utils::eth -->
<g id="edge45" class="edge">
<title>lightning_consensus::validator&#45;&gt;lightning_utils::eth</title>
<path fill="none" stroke="#7f7f7f" stroke-dasharray="5,2" d="M373,-667.74C303.53,-667.05 211.75,-666.13 147.18,-665.49"/>
<polygon fill="#7f7f7f" stroke="#7f7f7f" points="147.09,-661.99 137.06,-665.39 147.02,-668.99 147.09,-661.99"/>
<text text-anchor="middle" x="247.59" y="-669.61" font-family="monospace" font-size="10.00">uses</text>
</g>
</g>
</svg>
