<?xml version="1.0" encoding="UTF-8" standalone="no"?>
<!DOCTYPE svg PUBLIC "-//W3C//DTD SVG 1.1//EN"
 "http://www.w3.org/Graphics/SVG/1.1/DTD/svg11.dtd">
<!-- Generated by graphviz version 4.0.0 (0)
 -->
<!-- Pages: 1 -->
<svg width="1111pt" height="1099pt"
 viewBox="0.00 0.00 1110.62 1098.88" xmlns="http://www.w3.org/2000/svg" xmlns:xlink="http://www.w3.org/1999/xlink">
<g id="graph0" class="graph" transform="scale(1 1) rotate(0) translate(28.8 1070.08)">
<polygon fill="white" stroke="transparent" points="-28.8,28.8 -28.8,-1070.08 1081.82,-1070.08 1081.82,28.8 -28.8,28.8"/>
<text text-anchor="middle" x="526.51" y="-1008.48" font-family="Helvetica,sans-Serif" font-size="36.00">lightning_types</text>
<!-- lightning_types -->
<g id="node1" class="node">
<title>lightning_types</title>
<polygon fill="#5397c8" stroke="black" points="374.53,-744.96 374.53,-782.96 481.53,-782.96 481.53,-744.96 374.53,-744.96"/>
<text text-anchor="middle" x="428.03" y="-770.96" font-family="monospace" font-size="10.00">crate</text>
<polyline fill="none" stroke="black" points="374.53,-763.96 481.53,-763.96 "/>
<text text-anchor="middle" x="428.03" y="-751.96" font-family="monospace" font-size="10.00">lightning_types</text>
</g>
<!-- lightning_types::application -->
<g id="node2" class="node">
<title>lightning_types::application</title>
<polygon fill="#f8c04c" stroke="black" points="723.75,-221.29 723.75,-259.29 908.75,-259.29 908.75,-221.29 723.75,-221.29"/>
<text text-anchor="middle" x="816.25" y="-247.29" font-family="monospace" font-size="10.00">pub(crate) mod</text>
<polyline fill="none" stroke="black" points="723.75,-240.29 908.75,-240.29 "/>
<text text-anchor="middle" x="816.25" y="-228.29" font-family="monospace" font-size="10.00">lightning_types::application</text>
</g>
<!-- lightning_types&#45;&gt;lightning_types::application -->
<g id="edge1" class="edge">
<title>lightning_types&#45;&gt;lightning_types::application</title>
<path fill="none" stroke="#000000" d="M458.05,-744.86C541.52,-664.81 763.97,-364.11 809.55,-268.79"/>
<polygon fill="#000000" stroke="#000000" points="812.84,-270.02 813.72,-259.46 806.45,-267.17 812.84,-270.02"/>
<text text-anchor="middle" x="621.3" y="-509.83" font-family="monospace" font-size="10.00">owns</text>
</g>
<!-- lightning_types&#45;&gt;lightning_types::application -->
<g id="edge2" class="edge">
<title>lightning_types&#45;&gt;lightning_types::application</title>
<path fill="none" stroke="#7f7f7f" stroke-dasharray="5,2" d="M430.5,-744.92C463.24,-664.24 687.37,-359.14 779.02,-266.49"/>
<polygon fill="#7f7f7f" stroke="#7f7f7f" points="781.5,-268.96 786.17,-259.44 776.59,-263.97 781.5,-268.96"/>
<text text-anchor="middle" x="592.26" y="-508.71" font-family="monospace" font-size="10.00">uses</text>
</g>
<!-- lightning_types::blockstore -->
<g id="node3" class="node">
<title>lightning_types::blockstore</title>
<polygon fill="#f8c04c" stroke="black" points="19.07,-295.67 19.07,-333.67 198.07,-333.67 198.07,-295.67 19.07,-295.67"/>
<text text-anchor="middle" x="108.57" y="-321.67" font-family="monospace" font-size="10.00">pub(crate) mod</text>
<polyline fill="none" stroke="black" points="19.07,-314.67 198.07,-314.67 "/>
<text text-anchor="middle" x="108.57" y="-302.67" font-family="monospace" font-size="10.00">lightning_types::blockstore</text>
</g>
<!-- lightning_types&#45;&gt;lightning_types::blockstore -->
<g id="edge3" class="edge">
<title>lightning_types&#45;&gt;lightning_types::blockstore</title>
<path fill="none" stroke="#000000" d="M426.63,-744.7C400.57,-672.41 226.57,-424.57 146.55,-341.41"/>
<polygon fill="#000000" stroke="#000000" points="148.63,-338.54 139.11,-333.89 143.65,-343.46 148.63,-338.54"/>
<text text-anchor="middle" x="274.09" y="-546.06" font-family="monospace" font-size="10.00">owns</text>
</g>
<!-- lightning_types&#45;&gt;lightning_types::blockstore -->
<g id="edge4" class="edge">
<title>lightning_types&#45;&gt;lightning_types::blockstore</title>
<path fill="none" stroke="#7f7f7f" stroke-dasharray="5,2" d="M397.57,-744.82C324.39,-673.21 150.54,-427.91 113.63,-343.07"/>
<polygon fill="#7f7f7f" stroke="#7f7f7f" points="116.87,-341.75 109.91,-333.77 110.37,-344.35 116.87,-341.75"/>
<text text-anchor="middle" x="243.1" y="-546.94" font-family="monospace" font-size="10.00">uses</text>
</g>
<!-- lightning_types::blockstore_server -->
<g id="node4" class="node">
<title>lightning_types::blockstore_server</title>
<polygon fill="#f8c04c" stroke="black" points="56.94,-592.86 56.94,-630.86 277.94,-630.86 277.94,-592.86 56.94,-592.86"/>
<text text-anchor="middle" x="167.44" y="-618.86" font-family="monospace" font-size="10.00">pub(crate) mod</text>
<polyline fill="none" stroke="black" points="56.94,-611.86 277.94,-611.86 "/>
<text text-anchor="middle" x="167.44" y="-599.86" font-family="monospace" font-size="10.00">lightning_types::blockstore_server</text>
</g>
<!-- lightning_types&#45;&gt;lightning_types::blockstore_server -->
<g id="edge5" class="edge">
<title>lightning_types&#45;&gt;lightning_types::blockstore_server</title>
<path fill="none" stroke="#000000" d="M420.88,-744.85C396.27,-715.39 319.81,-666.13 257.08,-635.36"/>
<polygon fill="#000000" stroke="#000000" points="258.46,-632.14 247.94,-630.96 255.43,-638.45 258.46,-632.14"/>
<text text-anchor="middle" x="326.48" y="-682.11" font-family="monospace" font-size="10.00">owns</text>
</g>
<!-- lightning_types&#45;&gt;lightning_types::blockstore_server -->
<g id="edge6" class="edge">
<title>lightning_types&#45;&gt;lightning_types::blockstore_server</title>
<path fill="none" stroke="#7f7f7f" stroke-dasharray="5,2" d="M374.26,-756.56C313.13,-732.19 218,-674.79 181.5,-638.43"/>
<polygon fill="#7f7f7f" stroke="#7f7f7f" points="183.99,-635.98 174.63,-631.02 178.85,-640.73 183.99,-635.98"/>
<text text-anchor="middle" x="265.38" y="-689.5" font-family="monospace" font-size="10.00">uses</text>
</g>
<!-- lightning_types::bridge -->
<g id="node5" class="node">
<title>lightning_types::bridge</title>
<polygon fill="#f8c04c" stroke="black" points="520.5,-729.53 520.5,-767.53 675.5,-767.53 675.5,-729.53 520.5,-729.53"/>
<text text-anchor="middle" x="598" y="-755.53" font-family="monospace" font-size="10.00">pub(crate) mod</text>
<polyline fill="none" stroke="black" points="520.5,-748.53 675.5,-748.53 "/>
<text text-anchor="middle" x="598" y="-736.53" font-family="monospace" font-size="10.00">lightning_types::bridge</text>
</g>
<!-- lightning_types&#45;&gt;lightning_types::bridge -->
<g id="edge7" class="edge">
<title>lightning_types&#45;&gt;lightning_types::bridge</title>
<path fill="none" stroke="#000000" d="M464.85,-782.99C497.09,-786.88 543.11,-782.16 571.75,-771.67"/>
<polygon fill="#000000" stroke="#000000" points="573.25,-774.84 581.1,-767.73 570.53,-768.39 573.25,-774.84"/>
<text text-anchor="middle" x="505.8" y="-780.33" font-family="monospace" font-size="10.00">owns</text>
</g>
<!-- lightning_types&#45;&gt;lightning_types::bridge -->
<g id="edge8" class="edge">
<title>lightning_types&#45;&gt;lightning_types::bridge</title>
<path fill="none" stroke="#7f7f7f" stroke-dasharray="5,2" d="M444.64,-744.9C469.08,-732.8 515.6,-726.35 551.04,-728.58"/>
<polygon fill="#7f7f7f" stroke="#7f7f7f" points="550.9,-732.08 561.18,-729.49 551.53,-725.11 550.9,-732.08"/>
<text text-anchor="middle" x="485.34" y="-728.74" font-family="monospace" font-size="10.00">uses</text>
</g>
<!-- lightning_types::broadcast -->
<g id="node6" class="node">
<title>lightning_types::broadcast</title>
<polygon fill="#f8c04c" stroke="black" points="580.64,-930.99 580.64,-968.99 753.64,-968.99 753.64,-930.99 580.64,-930.99"/>
<text text-anchor="middle" x="667.14" y="-956.99" font-family="monospace" font-size="10.00">pub(crate) mod</text>
<polyline fill="none" stroke="black" points="580.64,-949.99 753.64,-949.99 "/>
<text text-anchor="middle" x="667.14" y="-937.99" font-family="monospace" font-size="10.00">lightning_types::broadcast</text>
</g>
<!-- lightning_types&#45;&gt;lightning_types::broadcast -->
<g id="edge9" class="edge">
<title>lightning_types&#45;&gt;lightning_types::broadcast</title>
<path fill="none" stroke="#000000" d="M432.15,-783.12C454.1,-818.66 536.46,-887.19 597.88,-925.43"/>
<polygon fill="#000000" stroke="#000000" points="596.42,-928.64 606.78,-930.85 600.05,-922.66 596.42,-928.64"/>
<text text-anchor="middle" x="502.51" y="-857.28" font-family="monospace" font-size="10.00">owns</text>
</g>
<!-- lightning_types&#45;&gt;lightning_types::broadcast -->
<g id="edge10" class="edge">
<title>lightning_types&#45;&gt;lightning_types::broadcast</title>
<path fill="none" stroke="#7f7f7f" stroke-dasharray="5,2" d="M481.7,-779.22C539.67,-812.15 626.51,-881.95 657.28,-922.55"/>
<polygon fill="#7f7f7f" stroke="#7f7f7f" points="654.54,-924.75 663.11,-930.99 660.3,-920.77 654.54,-924.75"/>
<text text-anchor="middle" x="556.99" y="-853.88" font-family="monospace" font-size="10.00">uses</text>
</g>
<!-- lightning_types::compression -->
<g id="node7" class="node">
<title>lightning_types::compression</title>
<polygon fill="#f8c04c" stroke="black" points="200.31,-934.62 200.31,-972.62 385.31,-972.62 385.31,-934.62 200.31,-934.62"/>
<text text-anchor="middle" x="292.81" y="-960.62" font-family="monospace" font-size="10.00">pub(crate) mod</text>
<polyline fill="none" stroke="black" points="200.31,-953.62 385.31,-953.62 "/>
<text text-anchor="middle" x="292.81" y="-941.62" font-family="monospace" font-size="10.00">lightning_types::compression</text>
</g>
<!-- lightning_types&#45;&gt;lightning_types::compression -->
<g id="edge11" class="edge">
<title>lightning_types&#45;&gt;lightning_types::compression</title>
<path fill="none" stroke="#000000" d="M388.87,-783.28C352.82,-817.43 305.95,-885.29 292.46,-924.86"/>
<polygon fill="#000000" stroke="#000000" points="289.08,-923.93 289.72,-934.51 295.82,-925.84 289.08,-923.93"/>
<text text-anchor="middle" x="328.16" y="-857.07" font-family="monospace" font-size="10.00">owns</text>
</g>
<!-- lightning_types&#45;&gt;lightning_types::compression -->
<g id="edge12" class="edge">
<title>lightning_types&#45;&gt;lightning_types::compression</title>
<path fill="none" stroke="#7f7f7f" stroke-dasharray="5,2" d="M431.09,-783.18C423.51,-818.15 377.18,-888.16 339.12,-927.23"/>
<polygon fill="#7f7f7f" stroke="#7f7f7f" points="336.3,-925.1 331.63,-934.61 341.21,-930.08 336.3,-925.1"/>
<text text-anchor="middle" x="372.6" y="-858.2" font-family="monospace" font-size="10.00">uses</text>
</g>
<!-- lightning_types::connection -->
<g id="node8" class="node">
<title>lightning_types::connection</title>
<polygon fill="#f8c04c" stroke="black" points="393.48,-954.78 393.48,-992.78 572.48,-992.78 572.48,-954.78 393.48,-954.78"/>
<text text-anchor="middle" x="482.98" y="-980.78" font-family="monospace" font-size="10.00">pub(crate) mod</text>
<polyline fill="none" stroke="black" points="393.48,-973.78 572.48,-973.78 "/>
<text text-anchor="middle" x="482.98" y="-961.78" font-family="monospace" font-size="10.00">lightning_types::connection</text>
</g>
<!-- lightning_types&#45;&gt;lightning_types::connection -->
<g id="edge13" class="edge">
<title>lightning_types&#45;&gt;lightning_types::connection</title>
<path fill="none" stroke="#000000" d="M417.6,-783.18C412.91,-820.58 432.51,-902.49 454.66,-945.85"/>
<polygon fill="#000000" stroke="#000000" points="451.67,-947.67 459.56,-954.74 457.8,-944.29 451.67,-947.67"/>
<text text-anchor="middle" x="423.63" y="-867.51" font-family="monospace" font-size="10.00">owns</text>
</g>
<!-- lightning_types&#45;&gt;lightning_types::connection -->
<g id="edge14" class="edge">
<title>lightning_types&#45;&gt;lightning_types::connection</title>
<path fill="none" stroke="#7f7f7f" stroke-dasharray="5,2" d="M451.49,-783.1C473.71,-820.13 494.98,-901.01 494.07,-944.7"/>
<polygon fill="#7f7f7f" stroke="#7f7f7f" points="490.58,-944.48 493.38,-954.7 497.56,-944.96 490.58,-944.48"/>
<text text-anchor="middle" x="460.28" y="-866.9" font-family="monospace" font-size="10.00">uses</text>
</g>
<!-- lightning_types::content -->
<g id="node9" class="node">
<title>lightning_types::content</title>
<polygon fill="#f8c04c" stroke="black" points="204.62,-49.23 204.62,-87.23 365.62,-87.23 365.62,-49.23 204.62,-49.23"/>
<text text-anchor="middle" x="285.12" y="-75.23" font-family="monospace" font-size="10.00">pub(crate) mod</text>
<polyline fill="none" stroke="black" points="204.62,-68.23 365.62,-68.23 "/>
<text text-anchor="middle" x="285.12" y="-56.23" font-family="monospace" font-size="10.00">lightning_types::content</text>
</g>
<!-- lightning_types&#45;&gt;lightning_types::content -->
<g id="edge15" class="edge">
<title>lightning_types&#45;&gt;lightning_types::content</title>
<path fill="none" stroke="#000000" d="M433.48,-744.91C436.89,-648.22 348.41,-212.8 303.21,-96.7"/>
<polygon fill="#000000" stroke="#000000" points="306.41,-95.29 299.37,-87.37 299.94,-97.95 306.41,-95.29"/>
<text text-anchor="middle" x="355.84" y="-412.8" font-family="monospace" font-size="10.00">owns</text>
</g>
<!-- lightning_types&#45;&gt;lightning_types::content -->
<g id="edge16" class="edge">
<title>lightning_types&#45;&gt;lightning_types::content</title>
<path fill="none" stroke="#7f7f7f" stroke-dasharray="5,2" d="M413.77,-744.79C371.33,-648.1 281.95,-214.95 279.62,-97.58"/>
<polygon fill="#7f7f7f" stroke="#7f7f7f" points="283.12,-97.55 279.66,-87.53 276.12,-97.52 283.12,-97.55"/>
<text text-anchor="middle" x="334.2" y="-424.19" font-family="monospace" font-size="10.00">uses</text>
</g>
<!-- lightning_types::content_registry -->
<g id="node10" class="node">
<title>lightning_types::content_registry</title>
<polygon fill="#f8c04c" stroke="black" points="0,-451.1 0,-489.1 215,-489.1 215,-451.1 0,-451.1"/>
<text text-anchor="middle" x="107.5" y="-477.1" font-family="monospace" font-size="10.00">pub(crate) mod</text>
<polyline fill="none" stroke="black" points="0,-470.1 215,-470.1 "/>
<text text-anchor="middle" x="107.5" y="-458.1" font-family="monospace" font-size="10.00">lightning_types::content_registry</text>
</g>
<!-- lightning_types&#45;&gt;lightning_types::content_registry -->
<g id="edge17" class="edge">
<title>lightning_types&#45;&gt;lightning_types::content_registry</title>
<path fill="none" stroke="#000000" d="M423.4,-744.56C392.16,-691.42 245.15,-553.1 162.62,-494.87"/>
<polygon fill="#000000" stroke="#000000" points="164.57,-491.96 154.35,-489.16 160.59,-497.72 164.57,-491.96"/>
<text text-anchor="middle" x="305.51" y="-622.72" font-family="monospace" font-size="10.00">owns</text>
</g>
<!-- lightning_types&#45;&gt;lightning_types::content_registry -->
<g id="edge18" class="edge">
<title>lightning_types&#45;&gt;lightning_types::content_registry</title>
<path fill="none" stroke="#7f7f7f" stroke-dasharray="5,2" d="M381.22,-744.93C304.51,-693.2 159.2,-558.23 117.58,-497.99"/>
<polygon fill="#7f7f7f" stroke="#7f7f7f" points="120.37,-495.84 112.02,-489.32 114.48,-499.62 120.37,-495.84"/>
<text text-anchor="middle" x="236.9" y="-624.46" font-family="monospace" font-size="10.00">uses</text>
</g>
<!-- lightning_types::dack_aggregator -->
<g id="node11" class="node">
<title>lightning_types::dack_aggregator</title>
<polygon fill="#f8c04c" stroke="black" points="624.74,-651.48 624.74,-689.48 833.74,-689.48 833.74,-651.48 624.74,-651.48"/>
<text text-anchor="middle" x="729.24" y="-677.48" font-family="monospace" font-size="10.00">pub(crate) mod</text>
<polyline fill="none" stroke="black" points="624.74,-670.48 833.74,-670.48 "/>
<text text-anchor="middle" x="729.24" y="-658.48" font-family="monospace" font-size="10.00">lightning_types::dack_aggregator</text>
</g>
<!-- lightning_types&#45;&gt;lightning_types::dack_aggregator -->
<g id="edge19" class="edge">
<title>lightning_types&#45;&gt;lightning_types::dack_aggregator</title>
<path fill="none" stroke="#000000" d="M481.79,-768.59C548.2,-758.43 657.95,-723.04 705.89,-695.07"/>
<polygon fill="#000000" stroke="#000000" points="708.01,-697.87 714.62,-689.59 704.29,-691.94 708.01,-697.87"/>
<text text-anchor="middle" x="581.34" y="-723.83" font-family="monospace" font-size="10.00">owns</text>
</g>
<!-- lightning_types&#45;&gt;lightning_types::dack_aggregator -->
<g id="edge20" class="edge">
<title>lightning_types&#45;&gt;lightning_types::dack_aggregator</title>
<path fill="none" stroke="#7f7f7f" stroke-dasharray="5,2" d="M442.73,-744.79C474.1,-723.38 549.18,-695.88 614.65,-678.86"/>
<polygon fill="#7f7f7f" stroke="#7f7f7f" points="615.82,-682.17 624.65,-676.32 614.1,-675.38 615.82,-682.17"/>
<text text-anchor="middle" x="516.19" y="-714.82" font-family="monospace" font-size="10.00">uses</text>
</g>
<!-- lightning_types::fetcher -->
<g id="node12" class="node">
<title>lightning_types::fetcher</title>
<polygon fill="#f8c04c" stroke="black" points="91.31,-153.56 91.31,-191.56 252.31,-191.56 252.31,-153.56 91.31,-153.56"/>
<text text-anchor="middle" x="171.81" y="-179.56" font-family="monospace" font-size="10.00">pub(crate) mod</text>
<polyline fill="none" stroke="black" points="91.31,-172.56 252.31,-172.56 "/>
<text text-anchor="middle" x="171.81" y="-160.56" font-family="monospace" font-size="10.00">lightning_types::fetcher</text>
</g>
<!-- lightning_types&#45;&gt;lightning_types::fetcher -->
<g id="edge21" class="edge">
<title>lightning_types&#45;&gt;lightning_types::fetcher</title>
<path fill="none" stroke="#000000" d="M429.96,-744.69C416.21,-657.47 264.17,-303.29 198.38,-200.44"/>
<polygon fill="#000000" stroke="#000000" points="201.11,-198.22 192.67,-191.83 195.28,-202.09 201.11,-198.22"/>
<text text-anchor="middle" x="301.67" y="-464.57" font-family="monospace" font-size="10.00">owns</text>
</g>
<!-- lightning_types&#45;&gt;lightning_types::fetcher -->
<g id="edge22" class="edge">
<title>lightning_types&#45;&gt;lightning_types::fetcher</title>
<path fill="none" stroke="#7f7f7f" stroke-dasharray="5,2" d="M407.35,-744.95C347.3,-658.48 194.49,-305.88 171.73,-201.53"/>
<polygon fill="#7f7f7f" stroke="#7f7f7f" points="175.17,-200.84 169.86,-191.67 168.29,-202.15 175.17,-200.84"/>
<text text-anchor="middle" x="277.04" y="-476.24" font-family="monospace" font-size="10.00">uses</text>
</g>
<!-- lightning_types::misbehavior -->
<g id="node13" class="node">
<title>lightning_types::misbehavior</title>
<polygon fill="#f8c04c" stroke="black" points="724.43,-525.65 724.43,-563.65 909.43,-563.65 909.43,-525.65 724.43,-525.65"/>
<text text-anchor="middle" x="816.93" y="-551.65" font-family="monospace" font-size="10.00">pub(crate) mod</text>
<polyline fill="none" stroke="black" points="724.43,-544.65 909.43,-544.65 "/>
<text text-anchor="middle" x="816.93" y="-532.65" font-family="monospace" font-size="10.00">lightning_types::misbehavior</text>
</g>
<!-- lightning_types&#45;&gt;lightning_types::misbehavior -->
<g id="edge23" class="edge">
<title>lightning_types&#45;&gt;lightning_types::misbehavior</title>
<path fill="none" stroke="#000000" d="M481.88,-754.3C570.66,-719.32 742.35,-621 798.93,-570.98"/>
<polygon fill="#000000" stroke="#000000" points="801.52,-573.36 806.42,-563.97 796.73,-568.25 801.52,-573.36"/>
<text text-anchor="middle" x="627.9" y="-665.64" font-family="monospace" font-size="10.00">owns</text>
</g>
<!-- lightning_types&#45;&gt;lightning_types::misbehavior -->
<g id="edge24" class="edge">
<title>lightning_types&#45;&gt;lightning_types::misbehavior</title>
<path fill="none" stroke="#7f7f7f" stroke-dasharray="5,2" d="M438.52,-744.66C480.57,-702.39 632.94,-612.57 731.21,-567.92"/>
<polygon fill="#7f7f7f" stroke="#7f7f7f" points="732.85,-571.03 740.55,-563.75 729.99,-564.64 732.85,-571.03"/>
<text text-anchor="middle" x="572.36" y="-659.29" font-family="monospace" font-size="10.00">uses</text>
</g>
<!-- lightning_types::pool -->
<g id="node14" class="node">
<title>lightning_types::pool</title>
<polygon fill="#f8c04c" stroke="black" points="203.25,-696.06 203.25,-734.06 346.25,-734.06 346.25,-696.06 203.25,-696.06"/>
<text text-anchor="middle" x="274.75" y="-722.06" font-family="monospace" font-size="10.00">pub(crate) mod</text>
<polyline fill="none" stroke="black" points="203.25,-715.06 346.25,-715.06 "/>
<text text-anchor="middle" x="274.75" y="-703.06" font-family="monospace" font-size="10.00">lightning_types::pool</text>
</g>
<!-- lightning_types&#45;&gt;lightning_types::pool -->
<g id="edge25" class="edge">
<title>lightning_types&#45;&gt;lightning_types::pool</title>
<path fill="none" stroke="#000000" d="M419.8,-744.62C407,-732.42 381.93,-720.56 356.15,-712.71"/>
<polygon fill="#000000" stroke="#000000" points="356.83,-709.27 346.26,-709.91 354.92,-716 356.83,-709.27"/>
<text text-anchor="middle" x="375.47" y="-731.67" font-family="monospace" font-size="10.00">owns</text>
</g>
<!-- lightning_types&#45;&gt;lightning_types::pool -->
<g id="edge26" class="edge">
<title>lightning_types&#45;&gt;lightning_types::pool</title>
<path fill="none" stroke="#7f7f7f" stroke-dasharray="5,2" d="M374.45,-773.09C344.99,-767.81 310.61,-754.95 290.72,-740.72"/>
<polygon fill="#7f7f7f" stroke="#7f7f7f" points="292.87,-737.95 282.91,-734.33 288.44,-743.37 292.87,-737.95"/>
<text text-anchor="middle" x="320.08" y="-759.9" font-family="monospace" font-size="10.00">uses</text>
</g>
<!-- lightning_types::reputation -->
<g id="node15" class="node">
<title>lightning_types::reputation</title>
<polygon fill="#f8c04c" stroke="black" points="337.19,-0.5 337.19,-38.5 516.19,-38.5 516.19,-0.5 337.19,-0.5"/>
<text text-anchor="middle" x="426.69" y="-26.5" font-family="monospace" font-size="10.00">pub(crate) mod</text>
<polyline fill="none" stroke="black" points="337.19,-19.5 516.19,-19.5 "/>
<text text-anchor="middle" x="426.69" y="-7.5" font-family="monospace" font-size="10.00">lightning_types::reputation</text>
</g>
<!-- lightning_types&#45;&gt;lightning_types::reputation -->
<g id="edge27" class="edge">
<title>lightning_types&#45;&gt;lightning_types::reputation</title>
<path fill="none" stroke="#000000" d="M437.34,-744.79C460.01,-643.57 459.83,-171.23 438.07,-48.63"/>
<polygon fill="#000000" stroke="#000000" points="441.44,-47.62 436.04,-38.51 434.57,-49 441.44,-47.62"/>
<text text-anchor="middle" x="425.2" y="-388.71" font-family="monospace" font-size="10.00">owns</text>
</g>
<!-- lightning_types&#45;&gt;lightning_types::reputation -->
<g id="edge28" class="edge">
<title>lightning_types&#45;&gt;lightning_types::reputation</title>
<path fill="none" stroke="#7f7f7f" stroke-dasharray="5,2" d="M418.64,-744.82C395.61,-643.68 394.1,-171.35 415.41,-48.67"/>
<polygon fill="#7f7f7f" stroke="#7f7f7f" points="418.91,-49.03 417.4,-38.54 412.04,-47.68 418.91,-49.03"/>
<text text-anchor="middle" x="404.53" y="-399.75" font-family="monospace" font-size="10.00">uses</text>
</g>
<!-- lightning_types::response -->
<g id="node16" class="node">
<title>lightning_types::response</title>
<polygon fill="#f8c04c" stroke="black" points="645.05,-95.86 645.05,-133.86 812.05,-133.86 812.05,-95.86 645.05,-95.86"/>
<text text-anchor="middle" x="728.55" y="-121.86" font-family="monospace" font-size="10.00">pub(crate) mod</text>
<polyline fill="none" stroke="black" points="645.05,-114.86 812.05,-114.86 "/>
<text text-anchor="middle" x="728.55" y="-102.86" font-family="monospace" font-size="10.00">lightning_types::response</text>
</g>
<!-- lightning_types&#45;&gt;lightning_types::response -->
<g id="edge29" class="edge">
<title>lightning_types&#45;&gt;lightning_types::response</title>
<path fill="none" stroke="#000000" d="M449.07,-744.71C515.47,-651.95 699.14,-255.35 727.37,-143.86"/>
<polygon fill="#000000" stroke="#000000" points="730.81,-144.5 729.61,-133.98 723.98,-142.96 730.81,-144.5"/>
<text text-anchor="middle" x="575.72" y="-447.28" font-family="monospace" font-size="10.00">owns</text>
</g>
<!-- lightning_types&#45;&gt;lightning_types::response -->
<g id="edge30" class="edge">
<title>lightning_types&#45;&gt;lightning_types::response</title>
<path fill="none" stroke="#7f7f7f" stroke-dasharray="5,2" d="M426.99,-744.77C445.08,-651.68 628.87,-251.79 701.81,-142.37"/>
<polygon fill="#7f7f7f" stroke="#7f7f7f" points="704.7,-144.35 707.49,-134.13 698.94,-140.38 704.7,-144.35"/>
<text text-anchor="middle" x="551.9" y="-435.57" font-family="monospace" font-size="10.00">uses</text>
</g>
<!-- lightning_types::rpc -->
<g id="node17" class="node">
<title>lightning_types::rpc</title>
<polygon fill="#f8c04c" stroke="black" points="113.73,-885.79 113.73,-923.79 250.73,-923.79 250.73,-885.79 113.73,-885.79"/>
<text text-anchor="middle" x="182.23" y="-911.79" font-family="monospace" font-size="10.00">pub(crate) mod</text>
<polyline fill="none" stroke="black" points="113.73,-904.79 250.73,-904.79 "/>
<text text-anchor="middle" x="182.23" y="-892.79" font-family="monospace" font-size="10.00">lightning_types::rpc</text>
</g>
<!-- lightning_types&#45;&gt;lightning_types::rpc -->
<g id="edge31" class="edge">
<title>lightning_types&#45;&gt;lightning_types::rpc</title>
<path fill="none" stroke="#000000" d="M374.43,-770.33C317.11,-792.54 230.64,-843.95 196.21,-878.03"/>
<polygon fill="#000000" stroke="#000000" points="193.57,-875.74 189.33,-885.45 198.7,-880.5 193.57,-875.74"/>
<text text-anchor="middle" x="272.82" y="-827.18" font-family="monospace" font-size="10.00">owns</text>
</g>
<!-- lightning_types&#45;&gt;lightning_types::rpc -->
<g id="edge32" class="edge">
<title>lightning_types&#45;&gt;lightning_types::rpc</title>
<path fill="none" stroke="#7f7f7f" stroke-dasharray="5,2" d="M421.02,-783.19C396.59,-812.51 320.48,-860.37 260.48,-887.92"/>
<polygon fill="#7f7f7f" stroke="#7f7f7f" points="258.7,-884.88 251,-892.16 261.56,-891.27 258.7,-884.88"/>
<text text-anchor="middle" x="328.25" y="-838.55" font-family="monospace" font-size="10.00">uses</text>
</g>
<!-- lightning_types::state -->
<g id="node18" class="node">
<title>lightning_types::state</title>
<polygon fill="#f8c04c" stroke="black" points="524.21,-18.59 524.21,-56.59 673.21,-56.59 673.21,-18.59 524.21,-18.59"/>
<text text-anchor="middle" x="598.71" y="-44.59" font-family="monospace" font-size="10.00">pub(crate) mod</text>
<polyline fill="none" stroke="black" points="524.21,-37.59 673.21,-37.59 "/>
<text text-anchor="middle" x="598.71" y="-25.59" font-family="monospace" font-size="10.00">lightning_types::state</text>
</g>
<!-- lightning_types&#45;&gt;lightning_types::state -->
<g id="edge33" class="edge">
<title>lightning_types&#45;&gt;lightning_types::state</title>
<path fill="none" stroke="#000000" d="M442.72,-744.89C489.06,-645.47 596.93,-188.01 603.14,-66.97"/>
<polygon fill="#000000" stroke="#000000" points="606.65,-66.73 603.42,-56.64 599.65,-66.54 606.65,-66.73"/>
<text text-anchor="middle" x="510.43" y="-408.93" font-family="monospace" font-size="10.00">owns</text>
</g>
<!-- lightning_types&#45;&gt;lightning_types::state -->
<g id="edge34" class="edge">
<title>lightning_types&#45;&gt;lightning_types::state</title>
<path fill="none" stroke="#7f7f7f" stroke-dasharray="5,2" d="M423.31,-744.66C423.19,-644.52 530.07,-185.59 579.89,-66.05"/>
<polygon fill="#7f7f7f" stroke="#7f7f7f" points="583.14,-67.35 583.95,-56.79 576.73,-64.54 583.14,-67.35"/>
<text text-anchor="middle" x="489.1" y="-397.36" font-family="monospace" font-size="10.00">uses</text>
</g>
<!-- lightning_types::transaction -->
<g id="node19" class="node">
<title>lightning_types::transaction</title>
<polygon fill="#f8c04c" stroke="black" points="756.08,-373.44 756.08,-411.44 941.08,-411.44 941.08,-373.44 756.08,-373.44"/>
<text text-anchor="middle" x="848.58" y="-399.44" font-family="monospace" font-size="10.00">pub(crate) mod</text>
<polyline fill="none" stroke="black" points="756.08,-392.44 941.08,-392.44 "/>
<text text-anchor="middle" x="848.58" y="-380.44" font-family="monospace" font-size="10.00">lightning_types::transaction</text>
</g>
<!-- lightning_types&#45;&gt;lightning_types::transaction -->
<g id="edge35" class="edge">
<title>lightning_types&#45;&gt;lightning_types::transaction</title>
<path fill="none" stroke="#000000" d="M473.61,-744.75C568.79,-681.98 781.09,-492.98 836.25,-420.05"/>
<polygon fill="#000000" stroke="#000000" points="839.22,-421.92 842.18,-411.75 833.52,-417.85 839.22,-421.92"/>
<text text-anchor="middle" x="642.43" y="-585.4" font-family="monospace" font-size="10.00">owns</text>
</g>
<!-- lightning_types&#45;&gt;lightning_types::transaction -->
<g id="edge36" class="edge">
<title>lightning_types&#45;&gt;lightning_types::transaction</title>
<path fill="none" stroke="#7f7f7f" stroke-dasharray="5,2" d="M434.33,-744.8C476.56,-681.04 691.88,-487.76 794.76,-417.19"/>
<polygon fill="#7f7f7f" stroke="#7f7f7f" points="796.82,-420.02 803.16,-411.54 792.91,-414.22 796.82,-420.02"/>
<text text-anchor="middle" x="602.04" y="-583.99" font-family="monospace" font-size="10.00">uses</text>
</g>
<!-- lightning_types::application&#45;&gt;lightning_types::response -->
<g id="edge37" class="edge">
<title>lightning_types::application&#45;&gt;lightning_types::response</title>
<path fill="none" stroke="#7f7f7f" stroke-dasharray="5,2" d="M821.89,-221.06C819.14,-199.25 799.76,-165.76 778.57,-141.76"/>
<polygon fill="#7f7f7f" stroke="#7f7f7f" points="781.03,-139.26 771.65,-134.33 775.91,-144.03 781.03,-139.26"/>
<text text-anchor="middle" x="787.73" y="-184.41" font-family="monospace" font-size="10.00">uses</text>
</g>
<!-- lightning_types::blockstore_server&#45;&gt;lightning_types::blockstore -->
<g id="edge38" class="edge">
<title>lightning_types::blockstore_server&#45;&gt;lightning_types::blockstore</title>
<path fill="none" stroke="#7f7f7f" stroke-dasharray="5,2" d="M163.67,-592.81C153.66,-542.3 126.39,-404.61 114.38,-343.98"/>
<polygon fill="#7f7f7f" stroke="#7f7f7f" points="117.76,-343.06 112.39,-333.93 110.9,-344.42 117.76,-343.06"/>
<text text-anchor="middle" x="126.52" y="-471.4" font-family="monospace" font-size="10.00">uses</text>
</g>
<!-- lightning_types::blockstore_server&#45;&gt;lightning_types::pool -->
<g id="edge39" class="edge">
<title>lightning_types::blockstore_server&#45;&gt;lightning_types::pool</title>
<path fill="none" stroke="#7f7f7f" stroke-dasharray="5,2" d="M187.38,-631.03C204.24,-647.25 228.58,-670.65 247.29,-688.65"/>
<polygon fill="#7f7f7f" stroke="#7f7f7f" points="245.29,-691.58 254.93,-695.99 250.15,-686.54 245.29,-691.58"/>
<text text-anchor="middle" x="204.83" y="-662.84" font-family="monospace" font-size="10.00">uses</text>
</g>
<!-- lightning_types::blockstore_server&#45;&gt;lightning_types::state -->
<g id="edge40" class="edge">
<title>lightning_types::blockstore_server&#45;&gt;lightning_types::state</title>
<path fill="none" stroke="#7f7f7f" stroke-dasharray="5,2" d="M181.79,-592.75C245.56,-507.84 503.37,-164.53 578.23,-64.85"/>
<polygon fill="#7f7f7f" stroke="#7f7f7f" points="581.1,-66.86 584.3,-56.77 575.5,-62.66 581.1,-66.86"/>
<text text-anchor="middle" x="367.51" y="-331.8" font-family="monospace" font-size="10.00">uses</text>
</g>
<!-- lightning_types::connection&#45;&gt;lightning_types::compression -->
<g id="edge41" class="edge">
<title>lightning_types::connection&#45;&gt;lightning_types::compression</title>
<path fill="none" stroke="#7f7f7f" stroke-dasharray="5,2" d="M393.46,-964.29C393.38,-964.28 393.29,-964.27 393.21,-964.26"/>
<polygon fill="#7f7f7f" stroke="#7f7f7f" points="395.67,-961.01 385.36,-963.43 394.94,-967.97 395.67,-961.01"/>
<text text-anchor="middle" x="380.84" y="-967.28" font-family="monospace" font-size="10.00">uses</text>
</g>
<!-- lightning_types::content_registry&#45;&gt;lightning_types::blockstore -->
<g id="edge42" class="edge">
<title>lightning_types::content_registry&#45;&gt;lightning_types::blockstore</title>
<path fill="none" stroke="#7f7f7f" stroke-dasharray="5,2" d="M107.63,-451.04C107.81,-424.36 108.15,-375.61 108.37,-344.2"/>
<polygon fill="#7f7f7f" stroke="#7f7f7f" points="111.87,-343.9 108.44,-333.88 104.87,-343.86 111.87,-343.9"/>
<text text-anchor="middle" x="95.5" y="-400.62" font-family="monospace" font-size="10.00">uses</text>
</g>
<!-- lightning_types::fetcher&#45;&gt;lightning_types::blockstore -->
<g id="edge43" class="edge">
<title>lightning_types::fetcher&#45;&gt;lightning_types::blockstore</title>
<path fill="none" stroke="#7f7f7f" stroke-dasharray="5,2" d="M163.28,-191.73C152.49,-215.99 133.79,-257.99 121.3,-286.06"/>
<polygon fill="#7f7f7f" stroke="#7f7f7f" points="118.03,-284.79 117.16,-295.35 124.43,-287.64 118.03,-284.79"/>
<text text-anchor="middle" x="129.79" y="-241.89" font-family="monospace" font-size="10.00">uses</text>
</g>
<!-- lightning_types::fetcher&#45;&gt;lightning_types::content -->
<g id="edge44" class="edge">
<title>lightning_types::fetcher&#45;&gt;lightning_types::content</title>
<path fill="none" stroke="#7f7f7f" stroke-dasharray="5,2" d="M192.6,-153.43C210.65,-136.81 236.95,-112.59 256.9,-94.22"/>
<polygon fill="#7f7f7f" stroke="#7f7f7f" points="259.49,-96.59 264.47,-87.24 254.75,-91.44 259.49,-96.59"/>
<text text-anchor="middle" x="212.25" y="-126.82" font-family="monospace" font-size="10.00">uses</text>
</g>
<!-- lightning_types::response&#45;&gt;lightning_types::application -->
<g id="edge45" class="edge">
<title>lightning_types::response&#45;&gt;lightning_types::application</title>
<path fill="none" stroke="#7f7f7f" stroke-dasharray="5,2" d="M722.91,-134.09C725.66,-155.91 745.04,-189.4 766.23,-213.4"/>
<polygon fill="#7f7f7f" stroke="#7f7f7f" points="763.77,-215.9 773.15,-220.83 768.89,-211.13 763.77,-215.9"/>
<text text-anchor="middle" x="732.07" y="-176.75" font-family="monospace" font-size="10.00">uses</text>
</g>
<!-- lightning_types::response&#45;&gt;lightning_types::state -->
<g id="edge46" class="edge">
<title>lightning_types::response&#45;&gt;lightning_types::state</title>
<path fill="none" stroke="#7f7f7f" stroke-dasharray="5,2" d="M696.46,-95.76C679.29,-85.54 657.97,-72.85 639.62,-61.94"/>
<polygon fill="#7f7f7f" stroke="#7f7f7f" points="641.27,-58.84 630.88,-56.74 637.69,-64.86 641.27,-58.84"/>
<text text-anchor="middle" x="655.54" y="-81.85" font-family="monospace" font-size="10.00">uses</text>
</g>
<!-- lightning_types::response&#45;&gt;lightning_types::transaction -->
<g id="edge47" class="edge">
<title>lightning_types::response&#45;&gt;lightning_types::transaction</title>
<path fill="none" stroke="#7f7f7f" stroke-dasharray="5,2" d="M722.97,-134.07C725.75,-182.78 778.05,-308.68 816.43,-365.01"/>
<polygon fill="#7f7f7f" stroke="#7f7f7f" points="813.79,-367.34 822.46,-373.43 819.48,-363.26 813.79,-367.34"/>
<text text-anchor="middle" x="757.2" y="-252.54" font-family="monospace" font-size="10.00">uses</text>
</g>
<!-- lightning_types::state&#45;&gt;lightning_types::reputation -->
<g id="edge48" class="edge">
<title>lightning_types::state&#45;&gt;lightning_types::reputation</title>
<path fill="none" stroke="#7f7f7f" stroke-dasharray="5,2" d="M524.01,-29.73C523.85,-29.72 523.69,-29.7 523.53,-29.68"/>
<polygon fill="#7f7f7f" stroke="#7f7f7f" points="526.67,-26.49 516.36,-28.93 525.94,-33.45 526.67,-26.49"/>
<text text-anchor="middle" x="511.27" y="-32.71" font-family="monospace" font-size="10.00">uses</text>
</g>
<!-- lightning_types::transaction&#45;&gt;lightning_types::application -->
<g id="edge49" class="edge">
<title>lightning_types::transaction&#45;&gt;lightning_types::application</title>
<path fill="none" stroke="#7f7f7f" stroke-dasharray="5,2" d="M844.48,-373.17C838.92,-346.99 828.93,-299.96 822.44,-269.45"/>
<polygon fill="#7f7f7f" stroke="#7f7f7f" points="825.81,-268.46 820.31,-259.41 818.96,-269.92 825.81,-268.46"/>
<text text-anchor="middle" x="820.96" y="-324.31" font-family="monospace" font-size="10.00">uses</text>
</g>
<!-- lightning_types::transaction&#45;&gt;lightning_types::bridge -->
<g id="edge50" class="edge">
<title>lightning_types::transaction&#45;&gt;lightning_types::bridge</title>
<path fill="none" stroke="#7f7f7f" stroke-dasharray="5,2" d="M835.11,-411.58C793.38,-470.88 666.18,-651.64 617.36,-721.01"/>
<polygon fill="#7f7f7f" stroke="#7f7f7f" points="614.44,-719.09 611.54,-729.29 620.16,-723.12 614.44,-719.09"/>
<text text-anchor="middle" x="713.73" y="-569.3" font-family="monospace" font-size="10.00">uses</text>
</g>
<!-- lightning_types::transaction&#45;&gt;lightning_types::content_registry -->
<g id="edge51" class="edge">
<title>lightning_types::transaction&#45;&gt;lightning_types::content_registry</title>
<path fill="none" stroke="#7f7f7f" stroke-dasharray="5,2" d="M755.84,-402.16C621.35,-416.25 372.2,-442.36 225.01,-457.79"/>
<polygon fill="#7f7f7f" stroke="#7f7f7f" points="224.61,-454.31 215.03,-458.83 225.34,-461.27 224.61,-454.31"/>
<text text-anchor="middle" x="477.93" y="-432.97" font-family="monospace" font-size="10.00">uses</text>
</g>
<!-- lightning_types::transaction&#45;&gt;lightning_types::dack_aggregator -->
<g id="edge52" class="edge">
<title>lightning_types::transaction&#45;&gt;lightning_types::dack_aggregator</title>
<path fill="none" stroke="#7f7f7f" stroke-dasharray="5,2" d="M840.37,-411.55C819.81,-459.47 765.96,-584.94 741.57,-641.77"/>
<polygon fill="#7f7f7f" stroke="#7f7f7f" points="738.23,-640.66 737.5,-651.23 744.66,-643.42 738.23,-640.66"/>
<text text-anchor="middle" x="778.47" y="-518.66" font-family="monospace" font-size="10.00">uses</text>
</g>
<!-- lightning_types::transaction&#45;&gt;lightning_types::misbehavior -->
<g id="edge53" class="edge">
<title>lightning_types::transaction&#45;&gt;lightning_types::misbehavior</title>
<path fill="none" stroke="#7f7f7f" stroke-dasharray="5,2" d="M844.57,-411.72C839.12,-437.91 829.34,-484.96 823,-515.48"/>
<polygon fill="#7f7f7f" stroke="#7f7f7f" points="819.52,-515.03 820.91,-525.53 826.37,-516.45 819.52,-515.03"/>
<text text-anchor="middle" x="821.28" y="-466.6" font-family="monospace" font-size="10.00">uses</text>
</g>
<!-- lightning_types::transaction&#45;&gt;lightning_types::reputation -->
<g id="edge54" class="edge">
<title>lightning_types::transaction&#45;&gt;lightning_types::reputation</title>
<path fill="none" stroke="#7f7f7f" stroke-dasharray="5,2" d="M827.08,-373.43C757.19,-311.65 536.34,-116.43 456.15,-45.54"/>
<polygon fill="#7f7f7f" stroke="#7f7f7f" points="458.21,-42.69 448.4,-38.69 453.57,-47.94 458.21,-42.69"/>
<text text-anchor="middle" x="629.11" y="-212.49" font-family="monospace" font-size="10.00">uses</text>
</g>
<!-- lightning_types::transaction&#45;&gt;lightning_types::response -->
<g id="edge55" class="edge">
<title>lightning_types::transaction&#45;&gt;lightning_types::response</title>
<path fill="none" stroke="#7f7f7f" stroke-dasharray="5,2" d="M854.16,-373.23C851.38,-324.52 799.08,-198.62 760.7,-142.29"/>
<polygon fill="#7f7f7f" stroke="#7f7f7f" points="763.34,-139.96 754.67,-133.87 757.65,-144.04 763.34,-139.96"/>
<text text-anchor="middle" x="794.93" y="-260.76" font-family="monospace" font-size="10.00">uses</text>
</g>
<!-- lightning_types::transaction&#45;&gt;lightning_types::state -->
<g id="edge56" class="edge">
<title>lightning_types::transaction&#45;&gt;lightning_types::state</title>
<path fill="none" stroke="#7f7f7f" stroke-dasharray="5,2" d="M835.14,-373.36C793.54,-314.27 666.69,-134.14 618.01,-65"/>
<polygon fill="#7f7f7f" stroke="#7f7f7f" points="620.83,-62.92 612.21,-56.76 615.1,-66.95 620.83,-62.92"/>
<text text-anchor="middle" x="714.08" y="-211.18" font-family="monospace" font-size="10.00">uses</text>
</g>
<!-- rlp -->
<g id="node20" class="node">
<title>rlp</title>
<polygon fill="#5397c8" stroke="black" points="952.02,-373.44 952.02,-411.44 1053.02,-411.44 1053.02,-373.44 952.02,-373.44"/>
<text text-anchor="middle" x="1002.52" y="-399.44" font-family="monospace" font-size="10.00">external crate</text>
<polyline fill="none" stroke="black" points="952.02,-392.44 1053.02,-392.44 "/>
<text text-anchor="middle" x="1002.52" y="-380.44" font-family="monospace" font-size="10.00">rlp</text>
</g>
<!-- lightning_types::transaction&#45;&gt;rlp -->
<g id="edge57" class="edge">
<title>lightning_types::transaction&#45;&gt;rlp</title>
<path fill="none" stroke="#7f7f7f" stroke-dasharray="5,2" d="M941.24,-392.44C941.35,-392.44 941.46,-392.44 941.57,-392.44"/>
<polygon fill="#7f7f7f" stroke="#7f7f7f" points="941.76,-395.94 951.76,-392.44 941.76,-388.94 941.76,-395.94"/>
<text text-anchor="middle" x="953.9" y="-395.44" font-family="monospace" font-size="10.00">uses</text>
</g>
</g>
</svg>
