<?xml version="1.0" encoding="UTF-8" standalone="no"?>
<!DOCTYPE svg PUBLIC "-//W3C//DTD SVG 1.1//EN"
 "http://www.w3.org/Graphics/SVG/1.1/DTD/svg11.dtd">
<!-- Generated by graphviz version 4.0.0 (0)
 -->
<!-- Pages: 1 -->
<svg width="436pt" height="4050pt"
 viewBox="0.00 0.00 435.99 4050.00" xmlns="http://www.w3.org/2000/svg" xmlns:xlink="http://www.w3.org/1999/xlink">
<g id="graph0" class="graph" transform="scale(0.352003 0.352003) rotate(0) translate(28.8 11476.8)">
<polygon fill="white" stroke="transparent" points="-28.8,28.8 -28.8,-11476.8 1209.8,-11476.8 1209.8,28.8 -28.8,28.8"/>
<text text-anchor="middle" x="590.5" y="-11415.2" font-family="Helvetica,sans-Serif" font-size="36.00">lightning_broadcast</text>
<!-- lightning_broadcast -->
<g id="node1" class="node">
<title>lightning_broadcast</title>
<polygon fill="#5397c8" stroke="black" points="27,-7957.5 27,-7995.5 158,-7995.5 158,-7957.5 27,-7957.5"/>
<text text-anchor="middle" x="92.5" y="-7983.5" font-family="monospace" font-size="10.00">crate</text>
<polyline fill="none" stroke="black" points="27,-7976.5 158,-7976.5 "/>
<text text-anchor="middle" x="92.5" y="-7964.5" font-family="monospace" font-size="10.00">lightning_broadcast</text>
</g>
<!-- lightning_broadcast::backend -->
<g id="node2" class="node">
<title>lightning_broadcast::backend</title>
<polygon fill="#f8c04c" stroke="black" points="984,-11361.5 984,-11399.5 1169,-11399.5 1169,-11361.5 984,-11361.5"/>
<text text-anchor="middle" x="1076.5" y="-11387.5" font-family="monospace" font-size="10.00">pub(crate) mod</text>
<polyline fill="none" stroke="black" points="984,-11380.5 1169,-11380.5 "/>
<text text-anchor="middle" x="1076.5" y="-11368.5" font-family="monospace" font-size="10.00">lightning_broadcast::backend</text>
</g>
<!-- lightning_broadcast&#45;&gt;lightning_broadcast::backend -->
<g id="edge1" class="edge">
<title>lightning_broadcast&#45;&gt;lightning_broadcast::backend</title>
<path fill="none" stroke="#000000" d="M95.39,-7995.72C134.32,-8254.89 554,-11048.5 554,-11048.5 554,-11048.5 917.11,-11279.22 1037.93,-11355.99"/>
<polygon fill="#000000" stroke="#000000" points="1036.21,-11359.05 1046.53,-11361.46 1039.97,-11353.14 1036.21,-11359.05"/>
<text text-anchor="middle" x="566.5" y="-11051.5" font-family="monospace" font-size="10.00">owns</text>
</g>
<!-- lightning_broadcast&#45;&gt;lightning_broadcast::backend -->
<g id="edge2" class="edge">
<title>lightning_broadcast&#45;&gt;lightning_broadcast::backend</title>
<path fill="none" stroke="#7f7f7f" stroke-dasharray="5,2" d="M95.95,-7995.83C138.18,-8232.47 554,-10562.5 554,-10562.5 554,-10562.5 967.54,-11209.92 1058.82,-11352.81"/>
<polygon fill="#7f7f7f" stroke="#7f7f7f" points="1056.02,-11354.94 1064.35,-11361.48 1061.92,-11351.17 1056.02,-11354.94"/>
<text text-anchor="middle" x="566.5" y="-10565.5" font-family="monospace" font-size="10.00">uses</text>
</g>
<!-- lightning_broadcast::broadcast -->
<g id="node3" class="node">
<title>lightning_broadcast::broadcast</title>
<polygon fill="#f8c04c" stroke="black" points="978,-9882.5 978,-9920.5 1175,-9920.5 1175,-9882.5 978,-9882.5"/>
<text text-anchor="middle" x="1076.5" y="-9908.5" font-family="monospace" font-size="10.00">pub(crate) mod</text>
<polyline fill="none" stroke="black" points="978,-9901.5 1175,-9901.5 "/>
<text text-anchor="middle" x="1076.5" y="-9889.5" font-family="monospace" font-size="10.00">lightning_broadcast::broadcast</text>
</g>
<!-- lightning_broadcast&#45;&gt;lightning_broadcast::broadcast -->
<g id="edge3" class="edge">
<title>lightning_broadcast&#45;&gt;lightning_broadcast::broadcast</title>
<path fill="none" stroke="#000000" d="M97.53,-7995.75C147.54,-8187.35 554,-9744.5 554,-9744.5 554,-9744.5 859.89,-9836.41 1003.57,-9879.59"/>
<polygon fill="#000000" stroke="#000000" points="1002.63,-9882.96 1013.21,-9882.48 1004.64,-9876.25 1002.63,-9882.96"/>
<text text-anchor="middle" x="566.5" y="-9747.5" font-family="monospace" font-size="10.00">owns</text>
</g>
<!-- lightning_broadcast&#45;&gt;lightning_broadcast::broadcast -->
<g id="edge4" class="edge">
<title>lightning_broadcast&#45;&gt;lightning_broadcast::broadcast</title>
<path fill="none" stroke="#7f7f7f" stroke-dasharray="5,2" d="M98.59,-7995.72C153.02,-8167.56 554,-9433.5 554,-9433.5 554,-9433.5 937.3,-9776.82 1047.31,-9875.35"/>
<polygon fill="#7f7f7f" stroke="#7f7f7f" points="1045.26,-9878.22 1055.04,-9882.28 1049.93,-9873 1045.26,-9878.22"/>
<text text-anchor="middle" x="566.5" y="-9436.5" font-family="monospace" font-size="10.00">uses</text>
</g>
<!-- lightning_broadcast::command -->
<g id="node4" class="node">
<title>lightning_broadcast::command</title>
<polygon fill="#f8c04c" stroke="black" points="984,-8403.5 984,-8441.5 1169,-8441.5 1169,-8403.5 984,-8403.5"/>
<text text-anchor="middle" x="1076.5" y="-8429.5" font-family="monospace" font-size="10.00">pub(crate) mod</text>
<polyline fill="none" stroke="black" points="984,-8422.5 1169,-8422.5 "/>
<text text-anchor="middle" x="1076.5" y="-8410.5" font-family="monospace" font-size="10.00">lightning_broadcast::command</text>
</g>
<!-- lightning_broadcast&#45;&gt;lightning_broadcast::command -->
<g id="edge5" class="edge">
<title>lightning_broadcast&#45;&gt;lightning_broadcast::command</title>
<path fill="none" stroke="#000000" d="M101.51,-7995.81C165.94,-8133.87 554,-8965.5 554,-8965.5 554,-8965.5 946.66,-8557.44 1051.19,-8448.8"/>
<polygon fill="#000000" stroke="#000000" points="1053.8,-8451.14 1058.21,-8441.51 1048.75,-8446.29 1053.8,-8451.14"/>
<text text-anchor="middle" x="566.5" y="-8968.5" font-family="monospace" font-size="10.00">owns</text>
</g>
<!-- lightning_broadcast::config -->
<g id="node5" class="node">
<title>lightning_broadcast::config</title>
<polygon fill="#f8c04c" stroke="black" points="987,-8153.5 987,-8191.5 1166,-8191.5 1166,-8153.5 987,-8153.5"/>
<text text-anchor="middle" x="1076.5" y="-8179.5" font-family="monospace" font-size="10.00">pub(crate) mod</text>
<polyline fill="none" stroke="black" points="987,-8172.5 1166,-8172.5 "/>
<text text-anchor="middle" x="1076.5" y="-8160.5" font-family="monospace" font-size="10.00">lightning_broadcast::config</text>
</g>
<!-- lightning_broadcast&#45;&gt;lightning_broadcast::config -->
<g id="edge6" class="edge">
<title>lightning_broadcast&#45;&gt;lightning_broadcast::config</title>
<path fill="none" stroke="#000000" d="M103.23,-7995.89C172.52,-8121.11 554,-8810.5 554,-8810.5 554,-8810.5 955.27,-8320.52 1054.51,-8199.35"/>
<polygon fill="#000000" stroke="#000000" points="1057.23,-8201.55 1060.86,-8191.59 1051.82,-8197.11 1057.23,-8201.55"/>
<text text-anchor="middle" x="566.5" y="-8813.5" font-family="monospace" font-size="10.00">owns</text>
</g>
<!-- lightning_broadcast&#45;&gt;lightning_broadcast::config -->
<g id="edge7" class="edge">
<title>lightning_broadcast&#45;&gt;lightning_broadcast::config</title>
<path fill="none" stroke="#7f7f7f" stroke-dasharray="5,2" d="M105.57,-7995.73C180.67,-8106.23 554,-8655.5 554,-8655.5 554,-8655.5 939.01,-8299.6 1048.04,-8198.81"/>
<polygon fill="#7f7f7f" stroke="#7f7f7f" points="1050.73,-8201.09 1055.69,-8191.73 1045.98,-8195.95 1050.73,-8201.09"/>
<text text-anchor="middle" x="566.5" y="-8658.5" font-family="monospace" font-size="10.00">uses</text>
</g>
<!-- lightning_broadcast::db -->
<g id="node6" class="node">
<title>lightning_broadcast::db</title>
<polygon fill="#f8c04c" stroke="black" points="999,-6817.5 999,-6855.5 1154,-6855.5 1154,-6817.5 999,-6817.5"/>
<text text-anchor="middle" x="1076.5" y="-6843.5" font-family="monospace" font-size="10.00">pub(crate) mod</text>
<polyline fill="none" stroke="black" points="999,-6836.5 1154,-6836.5 "/>
<text text-anchor="middle" x="1076.5" y="-6824.5" font-family="monospace" font-size="10.00">lightning_broadcast::db</text>
</g>
<!-- lightning_broadcast&#45;&gt;lightning_broadcast::db -->
<g id="edge8" class="edge">
<title>lightning_broadcast&#45;&gt;lightning_broadcast::db</title>
<path fill="none" stroke="#000000" d="M109.47,-7995.77C192.73,-8090.31 554,-8500.5 554,-8500.5 554,-8500.5 998.06,-7086.3 1067.43,-6865.37"/>
<polygon fill="#000000" stroke="#000000" points="1070.79,-6866.35 1070.45,-6855.76 1064.12,-6864.26 1070.79,-6866.35"/>
<text text-anchor="middle" x="566.5" y="-8503.5" font-family="monospace" font-size="10.00">owns</text>
</g>
<!-- lightning_broadcast&#45;&gt;lightning_broadcast::db -->
<g id="edge9" class="edge">
<title>lightning_broadcast&#45;&gt;lightning_broadcast::db</title>
<path fill="none" stroke="#7f7f7f" stroke-dasharray="5,2" d="M116.34,-7995.56C210.84,-8071.12 554,-8345.5 554,-8345.5 554,-8345.5 994.41,-7073.57 1066.56,-6865.21"/>
<polygon fill="#7f7f7f" stroke="#7f7f7f" points="1069.93,-6866.17 1069.89,-6855.58 1063.31,-6863.88 1069.93,-6866.17"/>
<text text-anchor="middle" x="566.5" y="-8348.5" font-family="monospace" font-size="10.00">uses</text>
</g>
<!-- lightning_broadcast::ev -->
<g id="node7" class="node">
<title>lightning_broadcast::ev</title>
<polygon fill="#f8c04c" stroke="black" points="999,-5338.5 999,-5376.5 1154,-5376.5 1154,-5338.5 999,-5338.5"/>
<text text-anchor="middle" x="1076.5" y="-5364.5" font-family="monospace" font-size="10.00">pub(crate) mod</text>
<polyline fill="none" stroke="black" points="999,-5357.5 1154,-5357.5 "/>
<text text-anchor="middle" x="1076.5" y="-5345.5" font-family="monospace" font-size="10.00">lightning_broadcast::ev</text>
</g>
<!-- lightning_broadcast&#45;&gt;lightning_broadcast::ev -->
<g id="edge10" class="edge">
<title>lightning_broadcast&#45;&gt;lightning_broadcast::ev</title>
<path fill="none" stroke="#000000" d="M133.86,-7995.68C247.14,-8048.21 554,-8190.5 554,-8190.5 554,-8190.5 1015.72,-5687.03 1071.09,-5386.83"/>
<polygon fill="#000000" stroke="#000000" points="1074.58,-5387.19 1072.96,-5376.72 1067.7,-5385.92 1074.58,-5387.19"/>
<text text-anchor="middle" x="566.5" y="-8193.5" font-family="monospace" font-size="10.00">owns</text>
</g>
<!-- lightning_broadcast&#45;&gt;lightning_broadcast::ev -->
<g id="edge11" class="edge">
<title>lightning_broadcast&#45;&gt;lightning_broadcast::ev</title>
<path fill="none" stroke="#7f7f7f" stroke-dasharray="5,2" d="M158.13,-7984.89C285.54,-8001.18 554,-8035.5 554,-8035.5 554,-8035.5 1013.85,-5678.61 1070.75,-5386.98"/>
<polygon fill="#7f7f7f" stroke="#7f7f7f" points="1074.26,-5387.25 1072.74,-5376.77 1067.39,-5385.91 1074.26,-5387.25"/>
<text text-anchor="middle" x="566.5" y="-8038.5" font-family="monospace" font-size="10.00">uses</text>
</g>
<!-- lightning_broadcast::interner -->
<g id="node8" class="node">
<title>lightning_broadcast::interner</title>
<polygon fill="#f8c04c" stroke="black" points="981,-3859.5 981,-3897.5 1172,-3897.5 1172,-3859.5 981,-3859.5"/>
<text text-anchor="middle" x="1076.5" y="-3885.5" font-family="monospace" font-size="10.00">pub(crate) mod</text>
<polyline fill="none" stroke="black" points="981,-3878.5 1172,-3878.5 "/>
<text text-anchor="middle" x="1076.5" y="-3866.5" font-family="monospace" font-size="10.00">lightning_broadcast::interner</text>
</g>
<!-- lightning_broadcast&#45;&gt;lightning_broadcast::interner -->
<g id="edge12" class="edge">
<title>lightning_broadcast&#45;&gt;lightning_broadcast::interner</title>
<path fill="none" stroke="#000000" d="M158.13,-7962.85C285.54,-7936.34 554,-7880.5 554,-7880.5 554,-7880.5 1025.43,-4269.69 1072.69,-3907.66"/>
<polygon fill="#000000" stroke="#000000" points="1076.17,-3908.06 1073.99,-3897.69 1069.23,-3907.15 1076.17,-3908.06"/>
<text text-anchor="middle" x="566.5" y="-7883.5" font-family="monospace" font-size="10.00">owns</text>
</g>
<!-- lightning_broadcast::pending -->
<g id="node9" class="node">
<title>lightning_broadcast::pending</title>
<polygon fill="#f8c04c" stroke="black" points="984,-3382.5 984,-3420.5 1169,-3420.5 1169,-3382.5 984,-3382.5"/>
<text text-anchor="middle" x="1076.5" y="-3408.5" font-family="monospace" font-size="10.00">pub(crate) mod</text>
<polyline fill="none" stroke="black" points="984,-3401.5 1169,-3401.5 "/>
<text text-anchor="middle" x="1076.5" y="-3389.5" font-family="monospace" font-size="10.00">lightning_broadcast::pending</text>
</g>
<!-- lightning_broadcast&#45;&gt;lightning_broadcast::pending -->
<g id="edge13" class="edge">
<title>lightning_broadcast&#45;&gt;lightning_broadcast::pending</title>
<path fill="none" stroke="#000000" d="M127.57,-7957.43C235.26,-7898.85 554,-7725.5 554,-7725.5 554,-7725.5 1027.1,-3810.32 1072.94,-3430.96"/>
<polygon fill="#000000" stroke="#000000" points="1076.45,-3431.13 1074.17,-3420.78 1069.5,-3430.29 1076.45,-3431.13"/>
<text text-anchor="middle" x="566.5" y="-7728.5" font-family="monospace" font-size="10.00">owns</text>
</g>
<!-- lightning_broadcast::pubsub -->
<g id="node10" class="node">
<title>lightning_broadcast::pubsub</title>
<polygon fill="#f8c04c" stroke="black" points="987,-1701.5 987,-1739.5 1166,-1739.5 1166,-1701.5 987,-1701.5"/>
<text text-anchor="middle" x="1076.5" y="-1727.5" font-family="monospace" font-size="10.00">pub(crate) mod</text>
<polyline fill="none" stroke="black" points="987,-1720.5 1166,-1720.5 "/>
<text text-anchor="middle" x="1076.5" y="-1708.5" font-family="monospace" font-size="10.00">lightning_broadcast::pubsub</text>
</g>
<!-- lightning_broadcast&#45;&gt;lightning_broadcast::pubsub -->
<g id="edge14" class="edge">
<title>lightning_broadcast&#45;&gt;lightning_broadcast::pubsub</title>
<path fill="none" stroke="#000000" d="M114.14,-7957.46C205.38,-7877.19 554,-7570.5 554,-7570.5 554,-7570.5 1034.06,-2195.64 1073.88,-1749.85"/>
<polygon fill="#000000" stroke="#000000" points="1077.38,-1749.97 1074.79,-1739.7 1070.41,-1749.34 1077.38,-1749.97"/>
<text text-anchor="middle" x="566.5" y="-7573.5" font-family="monospace" font-size="10.00">owns</text>
</g>
<!-- lightning_broadcast&#45;&gt;lightning_broadcast::pubsub -->
<g id="edge15" class="edge">
<title>lightning_broadcast&#45;&gt;lightning_broadcast::pubsub</title>
<path fill="none" stroke="#7f7f7f" stroke-dasharray="5,2" d="M95.69,-7957.21C136.47,-7710.88 554,-5188.5 554,-5188.5 554,-5188.5 1021.4,-2086.24 1072.06,-1749.96"/>
<polygon fill="#7f7f7f" stroke="#7f7f7f" points="1075.6,-1749.99 1073.63,-1739.58 1068.67,-1748.95 1075.6,-1749.99"/>
<text text-anchor="middle" x="566.5" y="-5191.5" font-family="monospace" font-size="10.00">uses</text>
</g>
<!-- lightning_broadcast::recv_buffer -->
<g id="node11" class="node">
<title>lightning_broadcast::recv_buffer</title>
<polygon fill="#f8c04c" stroke="black" points="972,-1590.5 972,-1628.5 1181,-1628.5 1181,-1590.5 972,-1590.5"/>
<text text-anchor="middle" x="1076.5" y="-1616.5" font-family="monospace" font-size="10.00">pub(crate) mod</text>
<polyline fill="none" stroke="black" points="972,-1609.5 1181,-1609.5 "/>
<text text-anchor="middle" x="1076.5" y="-1597.5" font-family="monospace" font-size="10.00">lightning_broadcast::recv_buffer</text>
</g>
<!-- lightning_broadcast&#45;&gt;lightning_broadcast::recv_buffer -->
<g id="edge16" class="edge">
<title>lightning_broadcast&#45;&gt;lightning_broadcast::recv_buffer</title>
<path fill="none" stroke="#000000" d="M95.3,-7957.3C134.77,-7686.19 579,-4635.5 579,-4635.5 579,-4635.5 1020.42,-1950.59 1071.67,-1638.9"/>
<polygon fill="#000000" stroke="#000000" points="1075.15,-1639.26 1073.32,-1628.82 1068.25,-1638.12 1075.15,-1639.26"/>
<text text-anchor="middle" x="566.5" y="-4627.5" font-family="monospace" font-size="10.00">owns</text>
</g>
<!-- lightning_broadcast::ring -->
<g id="node12" class="node">
<title>lightning_broadcast::ring</title>
<polygon fill="#f8c04c" stroke="black" points="993,-111.5 993,-149.5 1160,-149.5 1160,-111.5 993,-111.5"/>
<text text-anchor="middle" x="1076.5" y="-137.5" font-family="monospace" font-size="10.00">pub(crate) mod</text>
<polyline fill="none" stroke="black" points="993,-130.5 1160,-130.5 "/>
<text text-anchor="middle" x="1076.5" y="-118.5" font-family="monospace" font-size="10.00">lightning_broadcast::ring</text>
</g>
<!-- lightning_broadcast&#45;&gt;lightning_broadcast::ring -->
<g id="edge17" class="edge">
<title>lightning_broadcast&#45;&gt;lightning_broadcast::ring</title>
<path fill="none" stroke="#000000" d="M95.04,-7957.21C131.74,-7678.32 554,-4469.5 554,-4469.5 554,-4469.5 1027.33,-538.8 1072.97,-159.78"/>
<polygon fill="#000000" stroke="#000000" points="1076.45,-160.19 1074.17,-149.85 1069.5,-159.35 1076.45,-160.19"/>
<text text-anchor="middle" x="566.5" y="-4472.5" font-family="monospace" font-size="10.00">owns</text>
</g>
<!-- lightning_broadcast::stats -->
<g id="node13" class="node">
<title>lightning_broadcast::stats</title>
<polygon fill="#f8c04c" stroke="black" points="990,-0.5 990,-38.5 1163,-38.5 1163,-0.5 990,-0.5"/>
<text text-anchor="middle" x="1076.5" y="-26.5" font-family="monospace" font-size="10.00">pub(crate) mod</text>
<polyline fill="none" stroke="black" points="990,-19.5 1163,-19.5 "/>
<text text-anchor="middle" x="1076.5" y="-7.5" font-family="monospace" font-size="10.00">lightning_broadcast::stats</text>
</g>
<!-- lightning_broadcast&#45;&gt;lightning_broadcast::stats -->
<g id="edge18" class="edge">
<title>lightning_broadcast&#45;&gt;lightning_broadcast::stats</title>
<path fill="none" stroke="#000000" d="M94.93,-7957.24C130.88,-7671.98 554,-4314.5 554,-4314.5 554,-4314.5 1027.1,-425.58 1072.94,-48.77"/>
<polygon fill="#000000" stroke="#000000" points="1076.44,-49 1074.17,-38.65 1069.49,-48.15 1076.44,-49"/>
<text text-anchor="middle" x="566.5" y="-4317.5" font-family="monospace" font-size="10.00">owns</text>
</g>
<!-- tokio::sync::mpsc -->
<g id="node15" class="node">
<title>tokio::sync::mpsc</title>
<polygon fill="#81c169" stroke="black" points="33,-3793.5 33,-3831.5 152,-3831.5 152,-3793.5 33,-3793.5"/>
<text text-anchor="middle" x="92.5" y="-3819.5" font-family="monospace" font-size="10.00">external mod</text>
<polyline fill="none" stroke="black" points="33,-3812.5 152,-3812.5 "/>
<text text-anchor="middle" x="92.5" y="-3800.5" font-family="monospace" font-size="10.00">tokio::sync::mpsc</text>
</g>
<!-- lightning_broadcast::backend&#45;&gt;tokio::sync::mpsc -->
<g id="edge19" class="edge">
<title>lightning_broadcast::backend&#45;&gt;tokio::sync::mpsc</title>
<path fill="none" stroke="#7f7f7f" stroke-dasharray="5,2" d="M1075.18,-11361.39C1047.07,-10953.98 579,-4170.5 579,-4170.5 579,-4170.5 237.72,-3919.36 126.84,-3837.77"/>
<polygon fill="#7f7f7f" stroke="#7f7f7f" points="128.79,-3834.86 118.66,-3831.75 124.64,-3840.49 128.79,-3834.86"/>
<text text-anchor="middle" x="566.5" y="-4162.5" font-family="monospace" font-size="10.00">uses</text>
</g>
<!-- lightning_broadcast::broadcast&#45;&gt;lightning_broadcast::backend -->
<g id="edge20" class="edge">
<title>lightning_broadcast::broadcast&#45;&gt;lightning_broadcast::backend</title>
</g>
<!-- lightning_broadcast::broadcast&#45;&gt;lightning_broadcast::command -->
<g id="edge21" class="edge">
<title>lightning_broadcast::broadcast&#45;&gt;lightning_broadcast::command</title>
</g>
<!-- lightning_broadcast::broadcast&#45;&gt;lightning_broadcast::config -->
<g id="edge22" class="edge">
<title>lightning_broadcast::broadcast&#45;&gt;lightning_broadcast::config</title>
<path fill="none" stroke="#7f7f7f" stroke-dasharray="5,2" d="M1073.62,-9882.29C1053.03,-9744.92 929,-8917.5 929,-8917.5 929,-8917.5 1043.57,-8338.82 1070.76,-8201.48"/>
<polygon fill="#7f7f7f" stroke="#7f7f7f" points="1074.2,-8202.15 1072.71,-8191.66 1067.33,-8200.79 1074.2,-8202.15"/>
<text text-anchor="middle" x="923.5" y="-8915" font-family="monospace" font-size="10.00">uses</text>
</g>
<!-- lightning_broadcast::broadcast&#45;&gt;lightning_broadcast::db -->
<g id="edge23" class="edge">
<title>lightning_broadcast::broadcast&#45;&gt;lightning_broadcast::db</title>
<path fill="none" stroke="#7f7f7f" stroke-dasharray="5,2" d="M1075.29,-9882.48C1061.22,-9661.12 929,-7581.5 929,-7581.5 929,-7581.5 1043.57,-7002.82 1070.76,-6865.48"/>
<polygon fill="#7f7f7f" stroke="#7f7f7f" points="1074.2,-6866.15 1072.71,-6855.66 1067.33,-6864.79 1074.2,-6866.15"/>
<text text-anchor="middle" x="923.5" y="-7579" font-family="monospace" font-size="10.00">uses</text>
</g>
<!-- lightning_broadcast::broadcast&#45;&gt;lightning_broadcast::ev -->
<g id="edge24" class="edge">
<title>lightning_broadcast::broadcast&#45;&gt;lightning_broadcast::ev</title>
<path fill="none" stroke="#7f7f7f" stroke-dasharray="5,2" d="M1075.6,-9882.1C1063.27,-9617.54 929,-6735.5 929,-6735.5 929,-6735.5 1052.05,-5585.91 1073.37,-5386.73"/>
<polygon fill="#7f7f7f" stroke="#7f7f7f" points="1076.86,-5387.03 1074.44,-5376.72 1069.9,-5386.29 1076.86,-5387.03"/>
<text text-anchor="middle" x="923.5" y="-6733" font-family="monospace" font-size="10.00">uses</text>
</g>
<!-- lightning_broadcast::broadcast&#45;&gt;lightning_broadcast::pubsub -->
<g id="edge25" class="edge">
<title>lightning_broadcast::broadcast&#45;&gt;lightning_broadcast::pubsub</title>
<path fill="none" stroke="#7f7f7f" stroke-dasharray="5,2" d="M1076.11,-9882.47C1067.77,-9476.81 929,-2722.5 929,-2722.5 929,-2722.5 1047.77,-1915.65 1072.16,-1750.01"/>
<polygon fill="#7f7f7f" stroke="#7f7f7f" points="1075.69,-1750.02 1073.69,-1739.62 1068.77,-1749.01 1075.69,-1750.02"/>
<text text-anchor="middle" x="923.5" y="-2720" font-family="monospace" font-size="10.00">uses</text>
</g>
<!-- tokio::sync::oneshot -->
<g id="node16" class="node">
<title>tokio::sync::oneshot</title>
<polygon fill="#81c169" stroke="black" points="24,-3199.5 24,-3237.5 161,-3237.5 161,-3199.5 24,-3199.5"/>
<text text-anchor="middle" x="92.5" y="-3225.5" font-family="monospace" font-size="10.00">external mod</text>
<polyline fill="none" stroke="black" points="24,-3218.5 161,-3218.5 "/>
<text text-anchor="middle" x="92.5" y="-3206.5" font-family="monospace" font-size="10.00">tokio::sync::oneshot</text>
</g>
<!-- lightning_broadcast::broadcast&#45;&gt;tokio::sync::oneshot -->
<g id="edge26" class="edge">
<title>lightning_broadcast::broadcast&#45;&gt;tokio::sync::oneshot</title>
<path fill="none" stroke="#7f7f7f" stroke-dasharray="5,2" d="M1074.96,-9882.33C1044.72,-9505.66 579,-3705.5 579,-3705.5 579,-3705.5 219.72,-3345.86 118.66,-3244.69"/>
<polygon fill="#7f7f7f" stroke="#7f7f7f" points="121.11,-3242.19 111.57,-3237.59 116.16,-3247.14 121.11,-3242.19"/>
<text text-anchor="middle" x="566.5" y="-3697.5" font-family="monospace" font-size="10.00">uses</text>
</g>
<!-- lightning_broadcast::command&#45;&gt;tokio::sync::mpsc -->
<g id="edge27" class="edge">
<title>lightning_broadcast::command&#45;&gt;tokio::sync::mpsc</title>
<path fill="none" stroke="#7f7f7f" stroke-dasharray="5,2" d="M1074.34,-8403.33C1038.86,-8089.06 579,-4015.5 579,-4015.5 579,-4015.5 275.4,-3888.82 147.87,-3835.6"/>
<polygon fill="#7f7f7f" stroke="#7f7f7f" points="148.85,-3832.22 138.27,-3831.6 146.15,-3838.68 148.85,-3832.22"/>
<text text-anchor="middle" x="566.5" y="-4007.5" font-family="monospace" font-size="10.00">uses</text>
</g>
<!-- lightning_broadcast::command&#45;&gt;tokio::sync::oneshot -->
<g id="edge28" class="edge">
<title>lightning_broadcast::command&#45;&gt;tokio::sync::oneshot</title>
<path fill="none" stroke="#7f7f7f" stroke-dasharray="5,2" d="M1074.55,-8403.38C1040.73,-8072.2 579,-3550.5 579,-3550.5 579,-3550.5 241.59,-3320.24 128.76,-3243.24"/>
<polygon fill="#7f7f7f" stroke="#7f7f7f" points="130.64,-3240.29 120.4,-3237.54 126.69,-3246.07 130.64,-3240.29"/>
<text text-anchor="middle" x="566.5" y="-3542.5" font-family="monospace" font-size="10.00">uses</text>
</g>
<!-- lightning_broadcast::ev&#45;&gt;lightning_broadcast::backend -->
<g id="edge29" class="edge">
<title>lightning_broadcast::ev&#45;&gt;lightning_broadcast::backend</title>
<path fill="none" stroke="#7f7f7f" stroke-dasharray="5,2" d="M1074.84,-5376.72C1058.64,-5564.69 929,-7068.5 929,-7068.5 929,-7068.5 1062.55,-10972.82 1075.49,-11351.12"/>
<polygon fill="#7f7f7f" stroke="#7f7f7f" points="1072,-11351.4 1075.84,-11361.28 1079,-11351.16 1072,-11351.4"/>
<text text-anchor="middle" x="923.5" y="-7066" font-family="monospace" font-size="10.00">uses</text>
</g>
<!-- lightning_broadcast::ev&#45;&gt;lightning_broadcast::command -->
<g id="edge30" class="edge">
<title>lightning_broadcast::ev&#45;&gt;lightning_broadcast::command</title>
<path fill="none" stroke="#7f7f7f" stroke-dasharray="5,2" d="M1075.29,-5376.52C1061.22,-5597.88 929,-7677.5 929,-7677.5 929,-7677.5 1043.57,-8256.18 1070.76,-8393.52"/>
<polygon fill="#7f7f7f" stroke="#7f7f7f" points="1067.33,-8394.21 1072.71,-8403.34 1074.2,-8392.85 1067.33,-8394.21"/>
<text text-anchor="middle" x="923.5" y="-7675" font-family="monospace" font-size="10.00">uses</text>
</g>
<!-- lightning_broadcast::ev&#45;&gt;lightning_broadcast::db -->
<g id="edge31" class="edge">
<title>lightning_broadcast::ev&#45;&gt;lightning_broadcast::db</title>
</g>
<!-- lightning_broadcast::ev&#45;&gt;lightning_broadcast::interner -->
<g id="edge32" class="edge">
<title>lightning_broadcast::ev&#45;&gt;lightning_broadcast::interner</title>
</g>
<!-- lightning_broadcast::ev&#45;&gt;lightning_broadcast::pending -->
<g id="edge33" class="edge">
<title>lightning_broadcast::ev&#45;&gt;lightning_broadcast::pending</title>
<path fill="none" stroke="#7f7f7f" stroke-dasharray="5,2" d="M1074.18,-5338.48C1055.42,-5184.41 929,-4146.5 929,-4146.5 929,-4146.5 1043.57,-3567.82 1070.76,-3430.48"/>
<polygon fill="#7f7f7f" stroke="#7f7f7f" points="1074.2,-3431.15 1072.71,-3420.66 1067.33,-3429.79 1074.2,-3431.15"/>
<text text-anchor="middle" x="923.5" y="-4144" font-family="monospace" font-size="10.00">uses</text>
</g>
<!-- lightning_broadcast::ev&#45;&gt;lightning_broadcast::recv_buffer -->
<g id="edge34" class="edge">
<title>lightning_broadcast::ev&#45;&gt;lightning_broadcast::recv_buffer</title>
<path fill="none" stroke="#7f7f7f" stroke-dasharray="5,2" d="M1072.71,-5338.34C1049.62,-5221.73 929,-4612.5 929,-4612.5 929,-4612.5 1059.87,-1948 1075.07,-1638.68"/>
<polygon fill="#7f7f7f" stroke="#7f7f7f" points="1078.56,-1638.84 1075.56,-1628.68 1071.57,-1638.49 1078.56,-1638.84"/>
<text text-anchor="middle" x="923.5" y="-4610" font-family="monospace" font-size="10.00">uses</text>
</g>
<!-- lightning_broadcast::ev&#45;&gt;lightning_broadcast::ring -->
<g id="edge35" class="edge">
<title>lightning_broadcast::ev&#45;&gt;lightning_broadcast::ring</title>
<path fill="none" stroke="#7f7f7f" stroke-dasharray="5,2" d="M1072.78,-5338.31C1049.88,-5220.15 929,-4596.5 929,-4596.5 929,-4596.5 1062.76,-546.64 1075.52,-160.05"/>
<polygon fill="#7f7f7f" stroke="#7f7f7f" points="1079.03,-160.03 1075.86,-149.92 1072.03,-159.8 1079.03,-160.03"/>
<text text-anchor="middle" x="923.5" y="-4594" font-family="monospace" font-size="10.00">uses</text>
</g>
<!-- lightning_broadcast::ev&#45;&gt;lightning_broadcast::stats -->
<g id="edge36" class="edge">
<title>lightning_broadcast::ev&#45;&gt;lightning_broadcast::stats</title>
<path fill="none" stroke="#7f7f7f" stroke-dasharray="5,2" d="M1075.52,-5338.37C1062.72,-5088.84 929,-2481.5 929,-2481.5 929,-2481.5 1058.15,-325.75 1074.75,-48.69"/>
<polygon fill="#7f7f7f" stroke="#7f7f7f" points="1078.25,-48.79 1075.36,-38.6 1071.26,-48.38 1078.25,-48.79"/>
<text text-anchor="middle" x="923.5" y="-2479" font-family="monospace" font-size="10.00">uses</text>
</g>
<!-- lightning_metrics::histogram -->
<g id="node14" class="node">
<title>lightning_metrics::histogram</title>
<polygon fill="#81c169" stroke="black" points="0,-2997.5 0,-3035.5 185,-3035.5 185,-2997.5 0,-2997.5"/>
<text text-anchor="middle" x="92.5" y="-3023.5" font-family="monospace" font-size="10.00">external mod</text>
<polyline fill="none" stroke="black" points="0,-3016.5 185,-3016.5 "/>
<text text-anchor="middle" x="92.5" y="-3004.5" font-family="monospace" font-size="10.00">lightning_metrics::histogram</text>
</g>
<!-- lightning_broadcast::ev&#45;&gt;lightning_metrics::histogram -->
<g id="edge37" class="edge">
<title>lightning_broadcast::ev&#45;&gt;lightning_metrics::histogram</title>
<path fill="none" stroke="#7f7f7f" stroke-dasharray="5,2" d="M1072.57,-5338.28C1025.87,-5110.01 579,-2925.5 579,-2925.5 579,-2925.5 338.01,-2970.58 195.26,-2997.28"/>
<polygon fill="#7f7f7f" stroke="#7f7f7f" points="194.34,-2993.89 185.15,-2999.17 195.63,-3000.77 194.34,-2993.89"/>
<text text-anchor="middle" x="566.5" y="-2917.5" font-family="monospace" font-size="10.00">uses</text>
</g>
<!-- lightning_broadcast::ev&#45;&gt;tokio::sync::mpsc -->
<g id="edge38" class="edge">
<title>lightning_broadcast::ev&#45;&gt;tokio::sync::mpsc</title>
<path fill="none" stroke="#7f7f7f" stroke-dasharray="5,2" d="M1070.12,-5338.3C1012.17,-5163.92 579,-3860.5 579,-3860.5 579,-3860.5 296.95,-3832.67 162.37,-3819.39"/>
<polygon fill="#7f7f7f" stroke="#7f7f7f" points="162.45,-3815.88 152.15,-3818.39 161.76,-3822.85 162.45,-3815.88"/>
<text text-anchor="middle" x="566.5" y="-3852.5" font-family="monospace" font-size="10.00">uses</text>
</g>
<!-- lightning_broadcast::ev&#45;&gt;tokio::sync::oneshot -->
<g id="edge39" class="edge">
<title>lightning_broadcast::ev&#45;&gt;tokio::sync::oneshot</title>
<path fill="none" stroke="#7f7f7f" stroke-dasharray="5,2" d="M1071.66,-5338.4C1020.36,-5136.12 579,-3395.5 579,-3395.5 579,-3395.5 285.69,-3288.79 154.56,-3241.08"/>
<polygon fill="#7f7f7f" stroke="#7f7f7f" points="155.62,-3237.74 145.03,-3237.61 153.23,-3244.32 155.62,-3237.74"/>
<text text-anchor="middle" x="566.5" y="-3387.5" font-family="monospace" font-size="10.00">uses</text>
</g>
<!-- lightning_broadcast::pending&#45;&gt;lightning_broadcast::backend -->
<g id="edge40" class="edge">
<title>lightning_broadcast::pending&#45;&gt;lightning_broadcast::backend</title>
<path fill="none" stroke="#7f7f7f" stroke-dasharray="5,2" d="M1075.79,-3420.88C1064.79,-3722.48 929,-7443.5 929,-7443.5 929,-7443.5 1061.88,-10990.29 1075.39,-11351"/>
<polygon fill="#7f7f7f" stroke="#7f7f7f" points="1071.9,-11351.31 1075.78,-11361.17 1078.9,-11351.05 1071.9,-11351.31"/>
<text text-anchor="middle" x="923.5" y="-7441" font-family="monospace" font-size="10.00">uses</text>
</g>
<!-- lightning_broadcast::pending&#45;&gt;lightning_broadcast::stats -->
<g id="edge41" class="edge">
<title>lightning_broadcast::pending&#45;&gt;lightning_broadcast::stats</title>
<path fill="none" stroke="#7f7f7f" stroke-dasharray="5,2" d="M1072.71,-3382.34C1049.62,-3265.73 929,-2656.5 929,-2656.5 929,-2656.5 1058.68,-338.08 1074.85,-48.98"/>
<polygon fill="#7f7f7f" stroke="#7f7f7f" points="1078.35,-49.02 1075.42,-38.84 1071.37,-48.63 1078.35,-49.02"/>
<text text-anchor="middle" x="923.5" y="-2654" font-family="monospace" font-size="10.00">uses</text>
</g>
<!-- lightning_broadcast::pubsub&#45;&gt;lightning_broadcast::command -->
<g id="edge42" class="edge">
<title>lightning_broadcast::pubsub&#45;&gt;lightning_broadcast::command</title>
<path fill="none" stroke="#7f7f7f" stroke-dasharray="5,2" d="M1072.71,-1739.66C1049.62,-1856.27 929,-2465.5 929,-2465.5 929,-2465.5 1064.59,-7941.43 1075.77,-8392.96"/>
<polygon fill="#7f7f7f" stroke="#7f7f7f" points="1072.28,-8393.32 1076.02,-8403.23 1079.27,-8393.15 1072.28,-8393.32"/>
<text text-anchor="middle" x="923.5" y="-2463" font-family="monospace" font-size="10.00">uses</text>
</g>
<!-- lightning_broadcast::pubsub&#45;&gt;tokio::sync::oneshot -->
<g id="edge43" class="edge">
<title>lightning_broadcast::pubsub&#45;&gt;tokio::sync::oneshot</title>
<path fill="none" stroke="#7f7f7f" stroke-dasharray="5,2" d="M1069.89,-1739.57C1009.41,-1914.13 554,-3228.5 554,-3228.5 554,-3228.5 302.91,-3223.06 171.14,-3220.2"/>
<polygon fill="#7f7f7f" stroke="#7f7f7f" points="171.17,-3216.7 161.09,-3219.99 171.01,-3223.7 171.17,-3216.7"/>
<text text-anchor="middle" x="566.5" y="-3231.5" font-family="monospace" font-size="10.00">uses</text>
</g>
<!-- lightning_broadcast::recv_buffer&#45;&gt;lightning_broadcast::command -->
<g id="edge44" class="edge">
<title>lightning_broadcast::recv_buffer&#45;&gt;lightning_broadcast::command</title>
<path fill="none" stroke="#7f7f7f" stroke-dasharray="5,2" d="M1072.93,-1628.69C1050.4,-1749.64 929,-2401.5 929,-2401.5 929,-2401.5 1064.66,-7939.06 1075.78,-8392.99"/>
<polygon fill="#7f7f7f" stroke="#7f7f7f" points="1072.29,-8393.4 1076.03,-8403.31 1079.28,-8393.23 1072.29,-8393.4"/>
<text text-anchor="middle" x="923.5" y="-2399" font-family="monospace" font-size="10.00">uses</text>
</g>
<!-- lightning_broadcast::recv_buffer&#45;&gt;lightning_broadcast::ring -->
<g id="edge45" class="edge">
<title>lightning_broadcast::recv_buffer&#45;&gt;lightning_broadcast::ring</title>
</g>
<!-- lightning_broadcast::recv_buffer&#45;&gt;tokio::sync::oneshot -->
<g id="edge46" class="edge">
<title>lightning_broadcast::recv_buffer&#45;&gt;tokio::sync::oneshot</title>
<path fill="none" stroke="#7f7f7f" stroke-dasharray="5,2" d="M1069.7,-1628.53C1008.46,-1800.02 554,-3072.5 554,-3072.5 554,-3072.5 291.77,-3155.46 162.65,-3196.31"/>
<polygon fill="#7f7f7f" stroke="#7f7f7f" points="161.31,-3193.06 152.83,-3199.41 163.42,-3199.73 161.31,-3193.06"/>
<text text-anchor="middle" x="566.5" y="-3075.5" font-family="monospace" font-size="10.00">uses</text>
</g>
</g>
</svg>
