<?xml version="1.0" encoding="UTF-8" standalone="no"?>
<!DOCTYPE svg PUBLIC "-//W3C//DTD SVG 1.1//EN"
 "http://www.w3.org/Graphics/SVG/1.1/DTD/svg11.dtd">
<!-- Generated by graphviz version 4.0.0 (0)
 -->
<!-- Pages: 1 -->
<svg width="1278pt" height="1035pt"
 viewBox="0.00 0.00 1278.35 1034.58" xmlns="http://www.w3.org/2000/svg" xmlns:xlink="http://www.w3.org/1999/xlink">
<g id="graph0" class="graph" transform="scale(1 1) rotate(0) translate(28.8 1005.78)">
<polygon fill="white" stroke="transparent" points="-28.8,28.8 -28.8,-1005.78 1249.55,-1005.78 1249.55,28.8 -28.8,28.8"/>
<text text-anchor="middle" x="610.38" y="-944.18" font-family="Helvetica,sans-Serif" font-size="36.00">lightning_notifier</text>
<!-- lightning_notifier -->
<g id="node1" class="node">
<title>lightning_notifier</title>
<polygon fill="#5397c8" stroke="black" points="801.78,-481.5 801.78,-519.5 926.78,-519.5 926.78,-481.5 801.78,-481.5"/>
<text text-anchor="middle" x="864.28" y="-507.5" font-family="monospace" font-size="10.00">crate</text>
<polyline fill="none" stroke="black" points="801.78,-500.5 926.78,-500.5 "/>
<text text-anchor="middle" x="864.28" y="-488.5" font-family="monospace" font-size="10.00">lightning_notifier</text>
</g>
<!-- lightning_notifier::BroadcastSub -->
<g id="node2" class="node">
<title>lightning_notifier::BroadcastSub</title>
<polygon fill="#f8c04c" stroke="black" points="754.56,-653.29 754.56,-691.29 873.56,-691.29 873.56,-653.29 754.56,-653.29"/>
<text text-anchor="middle" x="814.06" y="-679.29" font-family="monospace" font-size="10.00">pub(crate) struct</text>
<polyline fill="none" stroke="black" points="754.56,-672.29 873.56,-672.29 "/>
<text text-anchor="middle" x="814.06" y="-660.29" font-family="monospace" font-size="10.00">BroadcastSub</text>
</g>
<!-- lightning_notifier&#45;&gt;lightning_notifier::BroadcastSub -->
<g id="edge1" class="edge">
<title>lightning_notifier&#45;&gt;lightning_notifier::BroadcastSub</title>
<path fill="none" stroke="#000000" d="M858.72,-519.54C849.93,-549.59 832.79,-608.22 822.48,-643.46"/>
<polygon fill="#000000" stroke="#000000" points="819.09,-642.58 819.65,-653.16 825.81,-644.54 819.09,-642.58"/>
<text text-anchor="middle" x="828.1" y="-584.5" font-family="monospace" font-size="10.00">owns</text>
</g>
<!-- lightning_notifier::NotificationsEmitter -->
<g id="node5" class="node">
<title>lightning_notifier::NotificationsEmitter</title>
<polygon fill="#81c169" stroke="black" points="609.99,-192.4 609.99,-230.4 746.99,-230.4 746.99,-192.4 609.99,-192.4"/>
<text text-anchor="middle" x="678.49" y="-218.4" font-family="monospace" font-size="10.00">pub struct</text>
<polyline fill="none" stroke="black" points="609.99,-211.4 746.99,-211.4 "/>
<text text-anchor="middle" x="678.49" y="-199.4" font-family="monospace" font-size="10.00">NotificationsEmitter</text>
</g>
<!-- lightning_notifier&#45;&gt;lightning_notifier::NotificationsEmitter -->
<g id="edge2" class="edge">
<title>lightning_notifier&#45;&gt;lightning_notifier::NotificationsEmitter</title>
<path fill="none" stroke="#000000" d="M851.8,-481.08C819.68,-431.09 734.02,-297.8 696.51,-239.43"/>
<polygon fill="#000000" stroke="#000000" points="699.27,-237.26 690.92,-230.74 693.38,-241.04 699.27,-237.26"/>
<text text-anchor="middle" x="761.66" y="-363.26" font-family="monospace" font-size="10.00">owns</text>
</g>
<!-- lightning_notifier::Notifier -->
<g id="node8" class="node">
<title>lightning_notifier::Notifier</title>
<polygon fill="#81c169" stroke="black" points="203.03,-571.03 203.03,-609.03 280.03,-609.03 280.03,-571.03 203.03,-571.03"/>
<text text-anchor="middle" x="241.53" y="-597.03" font-family="monospace" font-size="10.00">pub struct</text>
<polyline fill="none" stroke="black" points="203.03,-590.03 280.03,-590.03 "/>
<text text-anchor="middle" x="241.53" y="-578.03" font-family="monospace" font-size="10.00">Notifier</text>
</g>
<!-- lightning_notifier&#45;&gt;lightning_notifier::Notifier -->
<g id="edge3" class="edge">
<title>lightning_notifier&#45;&gt;lightning_notifier::Notifier</title>
<path fill="none" stroke="#000000" d="M801.72,-509.49C677.44,-527.36 401.84,-566.98 290.05,-583.06"/>
<polygon fill="#000000" stroke="#000000" points="289.47,-579.61 280.07,-584.49 290.47,-586.53 289.47,-579.61"/>
<text text-anchor="middle" x="533.39" y="-549.27" font-family="monospace" font-size="10.00">owns</text>
</g>
<!-- lightning_notifier::before_epoch_change -->
<g id="node16" class="node">
<title>lightning_notifier::before_epoch_change</title>
<polygon fill="#f8c04c" stroke="black" points="748.33,-309.67 748.33,-347.67 879.33,-347.67 879.33,-309.67 748.33,-309.67"/>
<text text-anchor="middle" x="813.83" y="-335.67" font-family="monospace" font-size="10.00">pub(crate) async fn</text>
<polyline fill="none" stroke="black" points="748.33,-328.67 879.33,-328.67 "/>
<text text-anchor="middle" x="813.83" y="-316.67" font-family="monospace" font-size="10.00">before_epoch_change</text>
</g>
<!-- lightning_notifier&#45;&gt;lightning_notifier::before_epoch_change -->
<g id="edge4" class="edge">
<title>lightning_notifier&#45;&gt;lightning_notifier::before_epoch_change</title>
<path fill="none" stroke="#000000" d="M858.69,-481.45C849.86,-451.39 832.64,-392.75 822.3,-357.5"/>
<polygon fill="#000000" stroke="#000000" points="825.62,-356.41 819.45,-347.8 818.91,-358.38 825.62,-356.41"/>
<text text-anchor="middle" x="827.99" y="-422.48" font-family="monospace" font-size="10.00">owns</text>
</g>
<!-- lightning_notifier::get_sleep_amount -->
<g id="node17" class="node">
<title>lightning_notifier::get_sleep_amount</title>
<polygon fill="#f8c04c" stroke="black" points="1107.75,-392.93 1107.75,-430.93 1220.75,-430.93 1220.75,-392.93 1107.75,-392.93"/>
<text text-anchor="middle" x="1164.25" y="-418.93" font-family="monospace" font-size="10.00">pub(crate) fn</text>
<polyline fill="none" stroke="black" points="1107.75,-411.93 1220.75,-411.93 "/>
<text text-anchor="middle" x="1164.25" y="-399.93" font-family="monospace" font-size="10.00">get_sleep_amount</text>
</g>
<!-- lightning_notifier&#45;&gt;lightning_notifier::get_sleep_amount -->
<g id="edge5" class="edge">
<title>lightning_notifier&#45;&gt;lightning_notifier::get_sleep_amount</title>
<path fill="none" stroke="#000000" d="M926.8,-482.04C976.81,-467.27 1046.75,-446.62 1097.77,-431.56"/>
<polygon fill="#000000" stroke="#000000" points="1098.79,-434.91 1107.39,-428.72 1096.81,-428.19 1098.79,-434.91"/>
<text text-anchor="middle" x="999.79" y="-459.8" font-family="monospace" font-size="10.00">owns</text>
</g>
<!-- lightning_notifier::now -->
<g id="node18" class="node">
<title>lightning_notifier::now</title>
<polygon fill="#f8c04c" stroke="black" points="1116.72,-570.28 1116.72,-608.28 1211.72,-608.28 1211.72,-570.28 1116.72,-570.28"/>
<text text-anchor="middle" x="1164.22" y="-596.28" font-family="monospace" font-size="10.00">pub(crate) fn</text>
<polyline fill="none" stroke="black" points="1116.72,-589.28 1211.72,-589.28 "/>
<text text-anchor="middle" x="1164.22" y="-577.28" font-family="monospace" font-size="10.00">now</text>
</g>
<!-- lightning_notifier&#45;&gt;lightning_notifier::now -->
<g id="edge6" class="edge">
<title>lightning_notifier&#45;&gt;lightning_notifier::now</title>
<path fill="none" stroke="#000000" d="M926.79,-519C979.86,-534.71 1055.38,-557.06 1106.91,-572.31"/>
<polygon fill="#000000" stroke="#000000" points="1105.98,-575.69 1116.56,-575.17 1107.96,-568.98 1105.98,-575.69"/>
<text text-anchor="middle" x="1004.35" y="-548.66" font-family="monospace" font-size="10.00">owns</text>
</g>
<!-- lightning_notifier::BroadcastSub::last -->
<g id="node3" class="node">
<title>lightning_notifier::BroadcastSub::last</title>
<polygon fill="#f8c04c" stroke="black" points="1048.98,-740.74 1048.98,-778.74 1179.98,-778.74 1179.98,-740.74 1048.98,-740.74"/>
<text text-anchor="middle" x="1114.48" y="-766.74" font-family="monospace" font-size="10.00">pub(crate) async fn</text>
<polyline fill="none" stroke="black" points="1048.98,-759.74 1179.98,-759.74 "/>
<text text-anchor="middle" x="1114.48" y="-747.74" font-family="monospace" font-size="10.00">BroadcastSub::last</text>
</g>
<!-- lightning_notifier::BroadcastSub&#45;&gt;lightning_notifier::BroadcastSub::last -->
<g id="edge7" class="edge">
<title>lightning_notifier::BroadcastSub&#45;&gt;lightning_notifier::BroadcastSub::last</title>
<path fill="none" stroke="#000000" d="M829.37,-691.42C867.5,-716.36 967.66,-748.67 1038.52,-761.77"/>
<polygon fill="#000000" stroke="#000000" points="1038.29,-765.29 1048.75,-763.56 1039.5,-758.39 1038.29,-765.29"/>
<text text-anchor="middle" x="921.44" y="-729.6" font-family="monospace" font-size="10.00">owns</text>
</g>
<!-- lightning_notifier::BroadcastSub::recv -->
<g id="node4" class="node">
<title>lightning_notifier::BroadcastSub::recv</title>
<polygon fill="#f8c04c" stroke="black" points="952.81,-890.48 952.81,-928.48 1083.81,-928.48 1083.81,-890.48 952.81,-890.48"/>
<text text-anchor="middle" x="1018.31" y="-916.48" font-family="monospace" font-size="10.00">pub(crate) async fn</text>
<polyline fill="none" stroke="black" points="952.81,-909.48 1083.81,-909.48 "/>
<text text-anchor="middle" x="1018.31" y="-897.48" font-family="monospace" font-size="10.00">BroadcastSub::recv</text>
</g>
<!-- lightning_notifier::BroadcastSub&#45;&gt;lightning_notifier::BroadcastSub::recv -->
<g id="edge8" class="edge">
<title>lightning_notifier::BroadcastSub&#45;&gt;lightning_notifier::BroadcastSub::recv</title>
<path fill="none" stroke="#000000" d="M814.33,-691.42C830.41,-735 913.03,-835.23 968.89,-883.77"/>
<polygon fill="#000000" stroke="#000000" points="966.69,-886.49 976.59,-890.26 971.2,-881.14 966.69,-886.49"/>
<text text-anchor="middle" x="879.11" y="-790.6" font-family="monospace" font-size="10.00">owns</text>
</g>
<!-- lightning_notifier::BroadcastSub::last&#45;&gt;lightning_notifier::BroadcastSub -->
<g id="edge9" class="edge">
<title>lightning_notifier::BroadcastSub::last&#45;&gt;lightning_notifier::BroadcastSub</title>
<path fill="none" stroke="#7f7f7f" stroke-dasharray="5,2" d="M1099.17,-740.6C1059.91,-714.93 954.91,-681.44 883.83,-669.15"/>
<polygon fill="#7f7f7f" stroke="#7f7f7f" points="884.03,-665.63 873.6,-667.49 882.91,-672.54 884.03,-665.63"/>
<text text-anchor="middle" x="979" y="-707.88" font-family="monospace" font-size="10.00">uses</text>
</g>
<!-- lightning_notifier::BroadcastSub::recv&#45;&gt;lightning_notifier::BroadcastSub -->
<g id="edge10" class="edge">
<title>lightning_notifier::BroadcastSub::recv&#45;&gt;lightning_notifier::BroadcastSub</title>
<path fill="none" stroke="#7f7f7f" stroke-dasharray="5,2" d="M1018.04,-890.34C1001.95,-846.76 919.33,-746.54 863.47,-697.99"/>
<polygon fill="#7f7f7f" stroke="#7f7f7f" points="865.68,-695.27 855.78,-691.5 861.16,-700.62 865.68,-695.27"/>
<text text-anchor="middle" x="928.25" y="-797.17" font-family="monospace" font-size="10.00">uses</text>
</g>
<!-- lightning_notifier::NotificationsEmitter::epoch_changed -->
<g id="node6" class="node">
<title>lightning_notifier::NotificationsEmitter::epoch_changed</title>
<polygon fill="#f8c04c" stroke="black" points="554.04,-0.5 554.04,-38.5 781.04,-38.5 781.04,-0.5 554.04,-0.5"/>
<text text-anchor="middle" x="667.54" y="-26.5" font-family="monospace" font-size="10.00">pub(crate) fn</text>
<polyline fill="none" stroke="black" points="554.04,-19.5 781.04,-19.5 "/>
<text text-anchor="middle" x="667.54" y="-7.5" font-family="monospace" font-size="10.00">NotificationsEmitter::epoch_changed</text>
</g>
<!-- lightning_notifier::NotificationsEmitter&#45;&gt;lightning_notifier::NotificationsEmitter::epoch_changed -->
<g id="edge11" class="edge">
<title>lightning_notifier::NotificationsEmitter&#45;&gt;lightning_notifier::NotificationsEmitter::epoch_changed</title>
<path fill="none" stroke="#000000" d="M694.13,-192.05C704.64,-158.12 701.79,-87.77 689.42,-48.17"/>
<polygon fill="#000000" stroke="#000000" points="692.64,-46.8 685.97,-38.58 686.06,-49.17 692.64,-46.8"/>
<text text-anchor="middle" x="679.27" y="-123.11" font-family="monospace" font-size="10.00">owns</text>
</g>
<!-- lightning_notifier::NotificationsEmitter::new_block -->
<g id="node7" class="node">
<title>lightning_notifier::NotificationsEmitter::new_block</title>
<polygon fill="#f8c04c" stroke="black" points="729.44,-75.18 729.44,-113.18 932.44,-113.18 932.44,-75.18 729.44,-75.18"/>
<text text-anchor="middle" x="830.94" y="-101.18" font-family="monospace" font-size="10.00">pub(crate) fn</text>
<polyline fill="none" stroke="black" points="729.44,-94.18 932.44,-94.18 "/>
<text text-anchor="middle" x="830.94" y="-82.18" font-family="monospace" font-size="10.00">NotificationsEmitter::new_block</text>
</g>
<!-- lightning_notifier::NotificationsEmitter&#45;&gt;lightning_notifier::NotificationsEmitter::new_block -->
<g id="edge12" class="edge">
<title>lightning_notifier::NotificationsEmitter&#45;&gt;lightning_notifier::NotificationsEmitter::new_block</title>
<path fill="none" stroke="#000000" d="M745.32,-192.39C776.16,-172.71 808.91,-144.34 824.22,-122.15"/>
<polygon fill="#000000" stroke="#000000" points="827.35,-123.74 829.51,-113.37 821.36,-120.13 827.35,-123.74"/>
<text text-anchor="middle" x="772.27" y="-160.27" font-family="monospace" font-size="10.00">owns</text>
</g>
<!-- lightning_notifier::NotificationsEmitter::epoch_changed&#45;&gt;lightning_notifier::NotificationsEmitter -->
<g id="edge13" class="edge">
<title>lightning_notifier::NotificationsEmitter::epoch_changed&#45;&gt;lightning_notifier::NotificationsEmitter</title>
<path fill="none" stroke="#7f7f7f" stroke-dasharray="5,2" d="M651.9,-38.85C641.39,-72.79 644.24,-143.13 656.61,-182.73"/>
<polygon fill="#7f7f7f" stroke="#7f7f7f" points="653.39,-184.1 660.06,-192.33 659.97,-181.73 653.39,-184.1"/>
<text text-anchor="middle" x="641.76" y="-113.79" font-family="monospace" font-size="10.00">uses</text>
</g>
<!-- lightning_notifier::NotificationsEmitter::new_block&#45;&gt;lightning_notifier::NotificationsEmitter -->
<g id="edge14" class="edge">
<title>lightning_notifier::NotificationsEmitter::new_block&#45;&gt;lightning_notifier::NotificationsEmitter</title>
<path fill="none" stroke="#7f7f7f" stroke-dasharray="5,2" d="M764.11,-113.2C733.27,-132.88 700.53,-161.25 685.21,-183.44"/>
<polygon fill="#7f7f7f" stroke="#7f7f7f" points="682.08,-181.85 679.92,-192.22 688.08,-185.46 682.08,-181.85"/>
<text text-anchor="middle" x="712.16" y="-151.32" font-family="monospace" font-size="10.00">uses</text>
</g>
<!-- lightning_notifier::Notifier&#45;&gt;lightning_notifier::NotificationsEmitter -->
<g id="edge15" class="edge">
<title>lightning_notifier::Notifier&#45;&gt;lightning_notifier::NotificationsEmitter</title>
<path fill="none" stroke="#7f7f7f" stroke-dasharray="5,2" d="M263.5,-571C335.77,-508.38 566.22,-308.69 648.74,-237.18"/>
<polygon fill="#7f7f7f" stroke="#7f7f7f" points="651.22,-239.67 656.48,-230.48 646.63,-234.38 651.22,-239.67"/>
<text text-anchor="middle" x="443.62" y="-407.09" font-family="monospace" font-size="10.00">uses</text>
</g>
<!-- lightning_notifier::Notifier::Emitter -->
<g id="node9" class="node">
<title>lightning_notifier::Notifier::Emitter</title>
<polygon fill="#f8c04c" stroke="black" points="441.74,-166.92 441.74,-204.92 560.74,-204.92 560.74,-166.92 441.74,-166.92"/>
<text text-anchor="middle" x="501.24" y="-192.92" font-family="monospace" font-size="10.00">pub(crate) type</text>
<polyline fill="none" stroke="black" points="441.74,-185.92 560.74,-185.92 "/>
<text text-anchor="middle" x="501.24" y="-173.92" font-family="monospace" font-size="10.00">Notifier::Emitter</text>
</g>
<!-- lightning_notifier::Notifier&#45;&gt;lightning_notifier::Notifier::Emitter -->
<g id="edge16" class="edge">
<title>lightning_notifier::Notifier&#45;&gt;lightning_notifier::Notifier::Emitter</title>
<path fill="none" stroke="#000000" d="M253.88,-570.81C295.92,-505.4 433.59,-291.18 483.21,-213.97"/>
<polygon fill="#000000" stroke="#000000" points="486.35,-215.56 488.81,-205.25 480.46,-211.77 486.35,-215.56"/>
<text text-anchor="middle" x="356.05" y="-395.39" font-family="monospace" font-size="10.00">owns</text>
</g>
<!-- lightning_notifier::Notifier::build_graph -->
<g id="node10" class="node">
<title>lightning_notifier::Notifier::build_graph</title>
<polygon fill="#f8c04c" stroke="black" points="0,-620.95 0,-658.95 143,-658.95 143,-620.95 0,-620.95"/>
<text text-anchor="middle" x="71.5" y="-646.95" font-family="monospace" font-size="10.00">pub(crate) fn</text>
<polyline fill="none" stroke="black" points="0,-639.95 143,-639.95 "/>
<text text-anchor="middle" x="71.5" y="-627.95" font-family="monospace" font-size="10.00">Notifier::build_graph</text>
</g>
<!-- lightning_notifier::Notifier&#45;&gt;lightning_notifier::Notifier::build_graph -->
<g id="edge17" class="edge">
<title>lightning_notifier::Notifier&#45;&gt;lightning_notifier::Notifier::build_graph</title>
<path fill="none" stroke="#000000" d="M202.95,-601.36C186.1,-606.31 165.74,-612.28 146.13,-618.04"/>
<polygon fill="#000000" stroke="#000000" points="144.89,-614.76 136.28,-620.93 146.86,-621.48 144.89,-614.76"/>
<text text-anchor="middle" x="162.04" y="-612.7" font-family="monospace" font-size="10.00">owns</text>
</g>
<!-- lightning_notifier::Notifier::get_emitter -->
<g id="node11" class="node">
<title>lightning_notifier::Notifier::get_emitter</title>
<polygon fill="#f8c04c" stroke="black" points="266.85,-241.31 266.85,-279.31 409.85,-279.31 409.85,-241.31 266.85,-241.31"/>
<text text-anchor="middle" x="338.35" y="-267.31" font-family="monospace" font-size="10.00">pub(crate) fn</text>
<polyline fill="none" stroke="black" points="266.85,-260.31 409.85,-260.31 "/>
<text text-anchor="middle" x="338.35" y="-248.31" font-family="monospace" font-size="10.00">Notifier::get_emitter</text>
</g>
<!-- lightning_notifier::Notifier&#45;&gt;lightning_notifier::Notifier::get_emitter -->
<g id="edge18" class="edge">
<title>lightning_notifier::Notifier&#45;&gt;lightning_notifier::Notifier::get_emitter</title>
<path fill="none" stroke="#000000" d="M262.41,-570.98C295.58,-515.71 342.54,-356.45 345.53,-289.87"/>
<polygon fill="#000000" stroke="#000000" points="349.03,-289.68 345.61,-279.65 342.03,-289.62 349.03,-289.68"/>
<text text-anchor="middle" x="291.47" y="-433.43" font-family="monospace" font-size="10.00">owns</text>
</g>
<!-- lightning_notifier::Notifier::new -->
<g id="node12" class="node">
<title>lightning_notifier::Notifier::new</title>
<polygon fill="#f8c04c" stroke="black" points="194.03,-391.96 194.03,-429.96 289.03,-429.96 289.03,-391.96 194.03,-391.96"/>
<text text-anchor="middle" x="241.53" y="-417.96" font-family="monospace" font-size="10.00">pub(crate) fn</text>
<polyline fill="none" stroke="black" points="194.03,-410.96 289.03,-410.96 "/>
<text text-anchor="middle" x="241.53" y="-398.96" font-family="monospace" font-size="10.00">Notifier::new</text>
</g>
<!-- lightning_notifier::Notifier&#45;&gt;lightning_notifier::Notifier::new -->
<g id="edge19" class="edge">
<title>lightning_notifier::Notifier&#45;&gt;lightning_notifier::Notifier::new</title>
<path fill="none" stroke="#000000" d="M259.01,-570.87C270.63,-539.36 271.61,-476.46 261.96,-439.63"/>
<polygon fill="#000000" stroke="#000000" points="265.27,-438.49 258.96,-429.98 258.59,-440.57 265.27,-438.49"/>
<text text-anchor="middle" x="247.99" y="-508.25" font-family="monospace" font-size="10.00">owns</text>
</g>
<!-- lightning_notifier::Notifier::subscribe_before_epoch_change -->
<g id="node13" class="node">
<title>lightning_notifier::Notifier::subscribe_before_epoch_change</title>
<polygon fill="#f8c04c" stroke="black" points="343.7,-800.68 343.7,-838.68 594.7,-838.68 594.7,-800.68 343.7,-800.68"/>
<text text-anchor="middle" x="469.2" y="-826.68" font-family="monospace" font-size="10.00">pub(crate) fn</text>
<polyline fill="none" stroke="black" points="343.7,-819.68 594.7,-819.68 "/>
<text text-anchor="middle" x="469.2" y="-807.68" font-family="monospace" font-size="10.00">Notifier::subscribe_before_epoch_change</text>
</g>
<!-- lightning_notifier::Notifier&#45;&gt;lightning_notifier::Notifier::subscribe_before_epoch_change -->
<g id="edge20" class="edge">
<title>lightning_notifier::Notifier&#45;&gt;lightning_notifier::Notifier::subscribe_before_epoch_change</title>
<path fill="none" stroke="#000000" d="M243.29,-609.04C262.77,-651.67 353.62,-747.54 414.66,-794.57"/>
<polygon fill="#000000" stroke="#000000" points="412.59,-797.39 422.69,-800.6 416.79,-791.79 412.59,-797.39"/>
<text text-anchor="middle" x="316.48" y="-704.8" font-family="monospace" font-size="10.00">owns</text>
</g>
<!-- lightning_notifier::Notifier::subscribe_block_executed -->
<g id="node14" class="node">
<title>lightning_notifier::Notifier::subscribe_block_executed</title>
<polygon fill="#f8c04c" stroke="black" points="227.66,-721.71 227.66,-759.71 448.66,-759.71 448.66,-721.71 227.66,-721.71"/>
<text text-anchor="middle" x="338.16" y="-747.71" font-family="monospace" font-size="10.00">pub(crate) fn</text>
<polyline fill="none" stroke="black" points="227.66,-740.71 448.66,-740.71 "/>
<text text-anchor="middle" x="338.16" y="-728.71" font-family="monospace" font-size="10.00">Notifier::subscribe_block_executed</text>
</g>
<!-- lightning_notifier::Notifier&#45;&gt;lightning_notifier::Notifier::subscribe_block_executed -->
<g id="edge21" class="edge">
<title>lightning_notifier::Notifier&#45;&gt;lightning_notifier::Notifier::subscribe_block_executed</title>
<path fill="none" stroke="#000000" d="M236.05,-609.19C239.28,-636.34 265.89,-683.51 292.23,-713.83"/>
<polygon fill="#000000" stroke="#000000" points="289.94,-716.51 299.27,-721.53 295.1,-711.79 289.94,-716.51"/>
<text text-anchor="middle" x="251.64" y="-664.51" font-family="monospace" font-size="10.00">owns</text>
</g>
<!-- lightning_notifier::Notifier::subscribe_epoch_changed -->
<g id="node15" class="node">
<title>lightning_notifier::Notifier::subscribe_epoch_changed</title>
<polygon fill="#f8c04c" stroke="black" points="602.73,-766.03 602.73,-804.03 817.73,-804.03 817.73,-766.03 602.73,-766.03"/>
<text text-anchor="middle" x="710.23" y="-792.03" font-family="monospace" font-size="10.00">pub(crate) fn</text>
<polyline fill="none" stroke="black" points="602.73,-785.03 817.73,-785.03 "/>
<text text-anchor="middle" x="710.23" y="-773.03" font-family="monospace" font-size="10.00">Notifier::subscribe_epoch_changed</text>
</g>
<!-- lightning_notifier::Notifier&#45;&gt;lightning_notifier::Notifier::subscribe_epoch_changed -->
<g id="edge22" class="edge">
<title>lightning_notifier::Notifier&#45;&gt;lightning_notifier::Notifier::subscribe_epoch_changed</title>
<path fill="none" stroke="#000000" d="M256.86,-609.12C309.02,-647.54 480.33,-722.85 596.86,-762.68"/>
<polygon fill="#000000" stroke="#000000" points="595.96,-766.07 606.55,-765.96 598.2,-759.44 595.96,-766.07"/>
<text text-anchor="middle" x="414.36" y="-688.9" font-family="monospace" font-size="10.00">owns</text>
</g>
<!-- lightning_notifier::Notifier::Emitter&#45;&gt;lightning_notifier::NotificationsEmitter -->
<g id="edge23" class="edge">
<title>lightning_notifier::Notifier::Emitter&#45;&gt;lightning_notifier::NotificationsEmitter</title>
<path fill="none" stroke="#7f7f7f" stroke-dasharray="5,2" d="M560.76,-194.47C573.34,-196.28 586.8,-198.22 599.96,-200.11"/>
<polygon fill="#7f7f7f" stroke="#7f7f7f" points="599.56,-203.59 609.95,-201.55 600.55,-196.66 599.56,-203.59"/>
<text text-anchor="middle" x="592.86" y="-200.29" font-family="monospace" font-size="10.00">uses</text>
</g>
<!-- lightning_notifier::Notifier::get_emitter&#45;&gt;lightning_notifier::NotificationsEmitter -->
<g id="edge24" class="edge">
<title>lightning_notifier::Notifier::get_emitter&#45;&gt;lightning_notifier::NotificationsEmitter</title>
<path fill="none" stroke="#7f7f7f" stroke-dasharray="5,2" d="M410.07,-250C465.6,-242.01 542.44,-230.96 599.68,-222.73"/>
<polygon fill="#7f7f7f" stroke="#7f7f7f" points="600.37,-226.17 609.77,-221.28 599.38,-219.24 600.37,-226.17"/>
<text text-anchor="middle" x="492.37" y="-239.37" font-family="monospace" font-size="10.00">uses</text>
</g>
<!-- lightning_notifier::Notifier::get_emitter&#45;&gt;lightning_notifier::Notifier -->
<g id="edge25" class="edge">
<title>lightning_notifier::Notifier::get_emitter&#45;&gt;lightning_notifier::Notifier</title>
<path fill="none" stroke="#7f7f7f" stroke-dasharray="5,2" d="M317.46,-279.36C284.29,-334.63 237.34,-493.89 234.35,-560.47"/>
<polygon fill="#7f7f7f" stroke="#7f7f7f" points="230.85,-560.66 234.27,-570.69 237.85,-560.72 230.85,-560.66"/>
<text text-anchor="middle" x="288.4" y="-422.91" font-family="monospace" font-size="10.00">uses</text>
</g>
<!-- lightning_notifier::Notifier::new&#45;&gt;lightning_notifier::NotificationsEmitter -->
<g id="edge26" class="edge">
<title>lightning_notifier::Notifier::new&#45;&gt;lightning_notifier::NotificationsEmitter</title>
<path fill="none" stroke="#7f7f7f" stroke-dasharray="5,2" d="M283.43,-391.82C364.01,-355.02 540.33,-274.5 627.55,-234.67"/>
<polygon fill="#7f7f7f" stroke="#7f7f7f" points="629.08,-237.82 636.72,-230.48 626.17,-231.45 629.08,-237.82"/>
<text text-anchor="middle" x="442.99" y="-316.24" font-family="monospace" font-size="10.00">uses</text>
</g>
<!-- lightning_notifier::Notifier::new&#45;&gt;lightning_notifier::Notifier -->
<g id="edge27" class="edge">
<title>lightning_notifier::Notifier::new&#45;&gt;lightning_notifier::Notifier</title>
<path fill="none" stroke="#7f7f7f" stroke-dasharray="5,2" d="M224.05,-430.12C212.43,-461.63 211.45,-524.53 221.1,-561.36"/>
<polygon fill="#7f7f7f" stroke="#7f7f7f" points="217.78,-562.5 224.1,-571.01 224.47,-560.42 217.78,-562.5"/>
<text text-anchor="middle" x="210.07" y="-498.74" font-family="monospace" font-size="10.00">uses</text>
</g>
<!-- lightning_notifier::Notifier::subscribe_before_epoch_change&#45;&gt;lightning_notifier::BroadcastSub -->
<g id="edge28" class="edge">
<title>lightning_notifier::Notifier::subscribe_before_epoch_change&#45;&gt;lightning_notifier::BroadcastSub</title>
<path fill="none" stroke="#7f7f7f" stroke-dasharray="5,2" d="M513.93,-800.56C577.12,-773.56 692.34,-724.31 760.16,-695.32"/>
<polygon fill="#7f7f7f" stroke="#7f7f7f" points="761.59,-698.52 769.4,-691.37 758.83,-692.08 761.59,-698.52"/>
<text text-anchor="middle" x="624.55" y="-750.94" font-family="monospace" font-size="10.00">uses</text>
</g>
<!-- lightning_notifier::Notifier::subscribe_before_epoch_change&#45;&gt;lightning_notifier::NotificationsEmitter -->
<g id="edge29" class="edge">
<title>lightning_notifier::Notifier::subscribe_before_epoch_change&#45;&gt;lightning_notifier::NotificationsEmitter</title>
<path fill="none" stroke="#7f7f7f" stroke-dasharray="5,2" d="M475.81,-800.47C506.14,-712.33 632.05,-346.38 668.54,-240.33"/>
<polygon fill="#7f7f7f" stroke="#7f7f7f" points="671.94,-241.21 671.88,-230.62 665.32,-238.93 671.94,-241.21"/>
<text text-anchor="middle" x="559.68" y="-523.4" font-family="monospace" font-size="10.00">uses</text>
</g>
<!-- lightning_notifier::Notifier::subscribe_before_epoch_change&#45;&gt;lightning_notifier::Notifier -->
<g id="edge30" class="edge">
<title>lightning_notifier::Notifier::subscribe_before_epoch_change&#45;&gt;lightning_notifier::Notifier</title>
<path fill="none" stroke="#7f7f7f" stroke-dasharray="5,2" d="M467.44,-800.68C447.17,-756.3 349.56,-654.25 288.75,-609.63"/>
<polygon fill="#7f7f7f" stroke="#7f7f7f" points="290.6,-606.66 280.42,-603.73 286.55,-612.37 290.6,-606.66"/>
<text text-anchor="middle" x="365.59" y="-708.15" font-family="monospace" font-size="10.00">uses</text>
</g>
<!-- lightning_notifier::Notifier::subscribe_block_executed&#45;&gt;lightning_notifier::BroadcastSub -->
<g id="edge31" class="edge">
<title>lightning_notifier::Notifier::subscribe_block_executed&#45;&gt;lightning_notifier::BroadcastSub</title>
<path fill="none" stroke="#7f7f7f" stroke-dasharray="5,2" d="M448.83,-724.8C540.03,-711.69 666.57,-693.49 744.24,-682.32"/>
<polygon fill="#7f7f7f" stroke="#7f7f7f" points="745,-685.75 754.4,-680.86 744.01,-678.82 745,-685.75"/>
<text text-anchor="middle" x="584.04" y="-706.56" font-family="monospace" font-size="10.00">uses</text>
</g>
<!-- lightning_notifier::Notifier::subscribe_block_executed&#45;&gt;lightning_notifier::NotificationsEmitter -->
<g id="edge32" class="edge">
<title>lightning_notifier::Notifier::subscribe_block_executed&#45;&gt;lightning_notifier::NotificationsEmitter</title>
<path fill="none" stroke="#7f7f7f" stroke-dasharray="5,2" d="M350.47,-721.56C401.96,-641.48 600.14,-333.26 660.77,-238.97"/>
<polygon fill="#7f7f7f" stroke="#7f7f7f" points="663.73,-240.83 666.2,-230.53 657.84,-237.05 663.73,-240.83"/>
<text text-anchor="middle" x="493.12" y="-483.26" font-family="monospace" font-size="10.00">uses</text>
</g>
<!-- lightning_notifier::Notifier::subscribe_block_executed&#45;&gt;lightning_notifier::Notifier -->
<g id="edge33" class="edge">
<title>lightning_notifier::Notifier::subscribe_block_executed&#45;&gt;lightning_notifier::Notifier</title>
<path fill="none" stroke="#7f7f7f" stroke-dasharray="5,2" d="M343.64,-721.56C340.4,-694.32 313.64,-646.95 287.22,-616.64"/>
<polygon fill="#7f7f7f" stroke="#7f7f7f" points="289.5,-613.95 280.16,-608.95 284.34,-618.68 289.5,-613.95"/>
<text text-anchor="middle" x="302.93" y="-672.1" font-family="monospace" font-size="10.00">uses</text>
</g>
<!-- lightning_notifier::Notifier::subscribe_epoch_changed&#45;&gt;lightning_notifier::BroadcastSub -->
<g id="edge34" class="edge">
<title>lightning_notifier::Notifier::subscribe_epoch_changed&#45;&gt;lightning_notifier::BroadcastSub</title>
<path fill="none" stroke="#7f7f7f" stroke-dasharray="5,2" d="M727.84,-765.9C744.77,-747.52 770.51,-719.57 789.46,-698.99"/>
<polygon fill="#7f7f7f" stroke="#7f7f7f" points="792.16,-701.23 796.36,-691.51 787.01,-696.49 792.16,-701.23"/>
<text text-anchor="middle" x="746.15" y="-735.45" font-family="monospace" font-size="10.00">uses</text>
</g>
<!-- lightning_notifier::Notifier::subscribe_epoch_changed&#45;&gt;lightning_notifier::NotificationsEmitter -->
<g id="edge35" class="edge">
<title>lightning_notifier::Notifier::subscribe_epoch_changed&#45;&gt;lightning_notifier::NotificationsEmitter</title>
<path fill="none" stroke="#7f7f7f" stroke-dasharray="5,2" d="M709.17,-765.94C704.51,-681.72 685.78,-343.02 680.12,-240.77"/>
<polygon fill="#7f7f7f" stroke="#7f7f7f" points="683.6,-240.35 679.55,-230.56 676.61,-240.74 683.6,-240.35"/>
<text text-anchor="middle" x="682.15" y="-506.36" font-family="monospace" font-size="10.00">uses</text>
</g>
<!-- lightning_notifier::Notifier::subscribe_epoch_changed&#45;&gt;lightning_notifier::Notifier -->
<g id="edge36" class="edge">
<title>lightning_notifier::Notifier::subscribe_epoch_changed&#45;&gt;lightning_notifier::Notifier</title>
<path fill="none" stroke="#7f7f7f" stroke-dasharray="5,2" d="M694.9,-765.94C631.76,-719.43 394.02,-618.86 290.21,-592.61"/>
<polygon fill="#7f7f7f" stroke="#7f7f7f" points="290.84,-589.16 280.3,-590.24 289.21,-595.97 290.84,-589.16"/>
<text text-anchor="middle" x="480.05" y="-682.28" font-family="monospace" font-size="10.00">uses</text>
</g>
<!-- lightning_notifier::before_epoch_change&#45;&gt;lightning_notifier::BroadcastSub -->
<g id="edge37" class="edge">
<title>lightning_notifier::before_epoch_change&#45;&gt;lightning_notifier::BroadcastSub</title>
<path fill="none" stroke="#7f7f7f" stroke-dasharray="5,2" d="M813.84,-348.13C813.88,-405.54 813.99,-574.46 814.04,-642.94"/>
<polygon fill="#7f7f7f" stroke="#7f7f7f" points="810.54,-643.04 814.04,-653.04 817.54,-643.04 810.54,-643.04"/>
<text text-anchor="middle" x="801.44" y="-498.54" font-family="monospace" font-size="10.00">uses</text>
</g>
</g>
</svg>
