<?xml version="1.0" encoding="UTF-8" standalone="no"?>
<!DOCTYPE svg PUBLIC "-//W3C//DTD SVG 1.1//EN"
 "http://www.w3.org/Graphics/SVG/1.1/DTD/svg11.dtd">
<!-- Generated by graphviz version 4.0.0 (0)
 -->
<!-- Pages: 1 -->
<svg width="424pt" height="332pt"
 viewBox="0.00 0.00 423.62 331.62" xmlns="http://www.w3.org/2000/svg" xmlns:xlink="http://www.w3.org/1999/xlink">
<g id="graph0" class="graph" transform="scale(1 1) rotate(0) translate(28.8 302.82)">
<polygon fill="white" stroke="transparent" points="-28.8,28.8 -28.8,-302.82 394.82,-302.82 394.82,28.8 -28.8,28.8"/>
<text text-anchor="middle" x="183.01" y="-241.22" font-family="Helvetica,sans-Serif" font-size="36.00">lightning_metrics</text>
<!-- lightning_metrics -->
<g id="node1" class="node">
<title>lightning_metrics</title>
<polygon fill="#5397c8" stroke="black" points="120.51,-0.5 120.51,-38.5 239.51,-38.5 239.51,-0.5 120.51,-0.5"/>
<text text-anchor="middle" x="180.01" y="-26.5" font-family="monospace" font-size="10.00">crate</text>
<polyline fill="none" stroke="black" points="120.51,-19.5 239.51,-19.5 "/>
<text text-anchor="middle" x="180.01" y="-7.5" font-family="monospace" font-size="10.00">lightning_metrics</text>
</g>
<!-- lightning_metrics::counter -->
<g id="node2" class="node">
<title>lightning_metrics::counter</title>
<polygon fill="#81c169" stroke="black" points="0,-94.01 0,-132.01 173,-132.01 173,-94.01 0,-94.01"/>
<text text-anchor="middle" x="86.5" y="-120.01" font-family="monospace" font-size="10.00">pub mod</text>
<polyline fill="none" stroke="black" points="0,-113.01 173,-113.01 "/>
<text text-anchor="middle" x="86.5" y="-101.01" font-family="monospace" font-size="10.00">lightning_metrics::counter</text>
</g>
<!-- lightning_metrics&#45;&gt;lightning_metrics::counter -->
<g id="edge1" class="edge">
<title>lightning_metrics&#45;&gt;lightning_metrics::counter</title>
<path fill="none" stroke="#000000" d="M160.63,-38.88C146.75,-52.76 127.89,-71.62 112.67,-86.84"/>
<polygon fill="#000000" stroke="#000000" points="110.13,-84.43 105.53,-93.98 115.08,-89.38 110.13,-84.43"/>
<text text-anchor="middle" x="124.15" y="-65.86" font-family="monospace" font-size="10.00">owns</text>
</g>
<!-- lightning_metrics::histogram -->
<g id="node3" class="node">
<title>lightning_metrics::histogram</title>
<polygon fill="#81c169" stroke="black" points="181.02,-94.01 181.02,-132.01 366.02,-132.01 366.02,-94.01 181.02,-94.01"/>
<text text-anchor="middle" x="273.52" y="-120.01" font-family="monospace" font-size="10.00">pub mod</text>
<polyline fill="none" stroke="black" points="181.02,-113.01 366.02,-113.01 "/>
<text text-anchor="middle" x="273.52" y="-101.01" font-family="monospace" font-size="10.00">lightning_metrics::histogram</text>
</g>
<!-- lightning_metrics&#45;&gt;lightning_metrics::histogram -->
<g id="edge2" class="edge">
<title>lightning_metrics&#45;&gt;lightning_metrics::histogram</title>
<path fill="none" stroke="#000000" d="M199.38,-38.88C213.27,-52.76 232.13,-71.62 247.35,-86.84"/>
<polygon fill="#000000" stroke="#000000" points="244.94,-89.38 254.49,-93.98 249.89,-84.43 244.94,-89.38"/>
<text text-anchor="middle" x="210.87" y="-65.86" font-family="monospace" font-size="10.00">owns</text>
</g>
<!-- lightning_metrics::labels -->
<g id="node4" class="node">
<title>lightning_metrics::labels</title>
<polygon fill="#81c169" stroke="black" points="96.51,-187.52 96.51,-225.52 263.51,-225.52 263.51,-187.52 96.51,-187.52"/>
<text text-anchor="middle" x="180.01" y="-213.52" font-family="monospace" font-size="10.00">pub mod</text>
<polyline fill="none" stroke="black" points="96.51,-206.52 263.51,-206.52 "/>
<text text-anchor="middle" x="180.01" y="-194.52" font-family="monospace" font-size="10.00">lightning_metrics::labels</text>
</g>
<!-- lightning_metrics&#45;&gt;lightning_metrics::labels -->
<g id="edge3" class="edge">
<title>lightning_metrics&#45;&gt;lightning_metrics::labels</title>
<path fill="none" stroke="#000000" d="M180.01,-38.81C180.01,-71.65 180.01,-138.58 180.01,-177.22"/>
<polygon fill="#000000" stroke="#000000" points="176.51,-177.31 180.01,-187.31 183.51,-177.31 176.51,-177.31"/>
<text text-anchor="middle" x="186.26" y="-100.01" font-family="monospace" font-size="10.00">owns</text>
</g>
<!-- lightning_metrics::counter&#45;&gt;lightning_metrics::labels -->
<g id="edge4" class="edge">
<title>lightning_metrics::counter&#45;&gt;lightning_metrics::labels</title>
<path fill="none" stroke="#7f7f7f" stroke-dasharray="5,2" d="M105.88,-132.38C119.76,-146.27 138.62,-165.13 153.84,-180.35"/>
<polygon fill="#7f7f7f" stroke="#7f7f7f" points="151.43,-182.89 160.98,-187.49 156.38,-177.94 151.43,-182.89"/>
<text text-anchor="middle" x="117.36" y="-159.37" font-family="monospace" font-size="10.00">uses</text>
</g>
<!-- lightning_metrics::histogram&#45;&gt;lightning_metrics::labels -->
<g id="edge5" class="edge">
<title>lightning_metrics::histogram&#45;&gt;lightning_metrics::labels</title>
<path fill="none" stroke="#7f7f7f" stroke-dasharray="5,2" d="M254.14,-132.38C240.26,-146.27 221.4,-165.13 206.18,-180.35"/>
<polygon fill="#7f7f7f" stroke="#7f7f7f" points="203.64,-177.94 199.04,-187.49 208.59,-182.89 203.64,-177.94"/>
<text text-anchor="middle" x="217.66" y="-159.37" font-family="monospace" font-size="10.00">uses</text>
</g>
</g>
</svg>
