<?xml version="1.0" encoding="UTF-8" standalone="no"?>
<!DOCTYPE svg PUBLIC "-//W3C//DTD SVG 1.1//EN"
 "http://www.w3.org/Graphics/SVG/1.1/DTD/svg11.dtd">
<!-- Generated by graphviz version 4.0.0 (0)
 -->
<!-- Pages: 1 -->
<svg width="794pt" height="834pt"
 viewBox="0.00 0.00 793.60 833.60" xmlns="http://www.w3.org/2000/svg" xmlns:xlink="http://www.w3.org/1999/xlink">
<g id="graph0" class="graph" transform="scale(1 1) rotate(0) translate(28.8 804.8)">
<polygon fill="white" stroke="transparent" points="-28.8,28.8 -28.8,-804.8 764.8,-804.8 764.8,28.8 -28.8,28.8"/>
<text text-anchor="middle" x="368" y="-743.2" font-family="Helvetica,sans-Serif" font-size="36.00">lightning_notifier</text>
<!-- lightning_notifier -->
<g id="node1" class="node">
<title>lightning_notifier</title>
<polygon fill="#5397c8" stroke="black" points="19.59,-378.43 19.59,-416.43 144.59,-416.43 144.59,-378.43 19.59,-378.43"/>
<text text-anchor="middle" x="82.09" y="-404.43" font-family="monospace" font-size="10.00">crate</text>
<polyline fill="none" stroke="black" points="19.59,-397.43 144.59,-397.43 "/>
<text text-anchor="middle" x="82.09" y="-385.43" font-family="monospace" font-size="10.00">lightning_notifier</text>
</g>
<!-- lightning_notifier::NotificationsEmitter -->
<g id="node2" class="node">
<title>lightning_notifier::NotificationsEmitter</title>
<polygon fill="#81c169" stroke="black" points="295.22,-418.45 295.22,-456.45 432.22,-456.45 432.22,-418.45 295.22,-418.45"/>
<text text-anchor="middle" x="363.72" y="-444.45" font-family="monospace" font-size="10.00">pub struct</text>
<polyline fill="none" stroke="black" points="295.22,-437.45 432.22,-437.45 "/>
<text text-anchor="middle" x="363.72" y="-425.45" font-family="monospace" font-size="10.00">NotificationsEmitter</text>
</g>
<!-- lightning_notifier&#45;&gt;lightning_notifier::NotificationsEmitter -->
<g id="edge1" class="edge">
<title>lightning_notifier&#45;&gt;lightning_notifier::NotificationsEmitter</title>
<path fill="none" stroke="#000000" d="M144.59,-406.31C185.94,-412.19 240.49,-419.94 284.82,-426.24"/>
<polygon fill="#000000" stroke="#000000" points="284.58,-429.74 294.98,-427.68 285.57,-422.81 284.58,-429.74"/>
<text text-anchor="middle" x="202.2" y="-419.27" font-family="monospace" font-size="10.00">owns</text>
</g>
<!-- lightning_notifier::Notifier -->
<g id="node6" class="node">
<title>lightning_notifier::Notifier</title>
<polygon fill="#81c169" stroke="black" points="303.72,-247.82 303.72,-285.82 380.72,-285.82 380.72,-247.82 303.72,-247.82"/>
<text text-anchor="middle" x="342.22" y="-273.82" font-family="monospace" font-size="10.00">pub struct</text>
<polyline fill="none" stroke="black" points="303.72,-266.82 380.72,-266.82 "/>
<text text-anchor="middle" x="342.22" y="-254.82" font-family="monospace" font-size="10.00">Notifier</text>
</g>
<!-- lightning_notifier&#45;&gt;lightning_notifier::Notifier -->
<g id="edge2" class="edge">
<title>lightning_notifier&#45;&gt;lightning_notifier::Notifier</title>
<path fill="none" stroke="#000000" d="M120.19,-378.3C166.56,-355.02 244.84,-315.71 294.99,-290.53"/>
<polygon fill="#000000" stroke="#000000" points="296.65,-293.62 304.01,-286 293.5,-287.36 296.65,-293.62"/>
<text text-anchor="middle" x="195.09" y="-337.42" font-family="monospace" font-size="10.00">owns</text>
</g>
<!-- lightning_notifier::NotificationsEmitter::epoch_changed -->
<g id="node3" class="node">
<title>lightning_notifier::NotificationsEmitter::epoch_changed</title>
<polygon fill="#f8c04c" stroke="black" points="260.84,-0.46 260.84,-38.46 487.84,-38.46 487.84,-0.46 260.84,-0.46"/>
<text text-anchor="middle" x="374.34" y="-26.46" font-family="monospace" font-size="10.00">pub(crate) fn</text>
<polyline fill="none" stroke="black" points="260.84,-19.46 487.84,-19.46 "/>
<text text-anchor="middle" x="374.34" y="-7.46" font-family="monospace" font-size="10.00">NotificationsEmitter::epoch_changed</text>
</g>
<!-- lightning_notifier::NotificationsEmitter&#45;&gt;lightning_notifier::NotificationsEmitter::epoch_changed -->
<g id="edge3" class="edge">
<title>lightning_notifier::NotificationsEmitter&#45;&gt;lightning_notifier::NotificationsEmitter::epoch_changed</title>
<path fill="none" stroke="#000000" d="M376.41,-418.44C397.01,-351.93 403.46,-129.36 388.19,-48.85"/>
<polygon fill="#000000" stroke="#000000" points="391.57,-47.9 386,-38.89 384.73,-49.41 391.57,-47.9"/>
<text text-anchor="middle" x="369.8" y="-236.64" font-family="monospace" font-size="10.00">owns</text>
</g>
<!-- lightning_notifier::NotificationsEmitter::new_block -->
<g id="node4" class="node">
<title>lightning_notifier::NotificationsEmitter::new_block</title>
<polygon fill="#f8c04c" stroke="black" points="366.17,-689.93 366.17,-727.93 569.17,-727.93 569.17,-689.93 366.17,-689.93"/>
<text text-anchor="middle" x="467.67" y="-715.93" font-family="monospace" font-size="10.00">pub(crate) fn</text>
<polyline fill="none" stroke="black" points="366.17,-708.93 569.17,-708.93 "/>
<text text-anchor="middle" x="467.67" y="-696.93" font-family="monospace" font-size="10.00">NotificationsEmitter::new_block</text>
</g>
<!-- lightning_notifier::NotificationsEmitter&#45;&gt;lightning_notifier::NotificationsEmitter::new_block -->
<g id="edge4" class="edge">
<title>lightning_notifier::NotificationsEmitter&#45;&gt;lightning_notifier::NotificationsEmitter::new_block</title>
<path fill="none" stroke="#000000" d="M357.12,-456.72C357.73,-504.33 402.16,-625.66 436.92,-681.04"/>
<polygon fill="#000000" stroke="#000000" points="434.19,-683.25 442.63,-689.65 440.02,-679.38 434.19,-683.25"/>
<text text-anchor="middle" x="384.52" y="-571.88" font-family="monospace" font-size="10.00">owns</text>
</g>
<!-- lightning_notifier::NotificationsEmitter::shutdown -->
<g id="node5" class="node">
<title>lightning_notifier::NotificationsEmitter::shutdown</title>
<polygon fill="#f8c04c" stroke="black" points="108.68,-683.41 108.68,-721.41 305.68,-721.41 305.68,-683.41 108.68,-683.41"/>
<text text-anchor="middle" x="207.18" y="-709.41" font-family="monospace" font-size="10.00">pub(crate) fn</text>
<polyline fill="none" stroke="black" points="108.68,-702.41 305.68,-702.41 "/>
<text text-anchor="middle" x="207.18" y="-690.41" font-family="monospace" font-size="10.00">NotificationsEmitter::shutdown</text>
</g>
<!-- lightning_notifier::NotificationsEmitter&#45;&gt;lightning_notifier::NotificationsEmitter::shutdown -->
<g id="edge5" class="edge">
<title>lightning_notifier::NotificationsEmitter&#45;&gt;lightning_notifier::NotificationsEmitter::shutdown</title>
<path fill="none" stroke="#000000" d="M332.32,-456.48C289.24,-502.93 221.65,-618.58 206.31,-673.51"/>
<polygon fill="#000000" stroke="#000000" points="202.88,-672.81 204.01,-683.34 209.69,-674.4 202.88,-672.81"/>
<text text-anchor="middle" x="256.81" y="-568" font-family="monospace" font-size="10.00">owns</text>
</g>
<!-- lightning_notifier::NotificationsEmitter::epoch_changed&#45;&gt;lightning_notifier::NotificationsEmitter -->
<g id="edge6" class="edge">
<title>lightning_notifier::NotificationsEmitter::epoch_changed&#45;&gt;lightning_notifier::NotificationsEmitter</title>
<path fill="none" stroke="#7f7f7f" stroke-dasharray="5,2" d="M361.65,-38.47C341.06,-104.99 334.61,-327.55 349.87,-408.07"/>
<polygon fill="#7f7f7f" stroke="#7f7f7f" points="346.5,-409.01 352.06,-418.03 353.33,-407.51 346.5,-409.01"/>
<text text-anchor="middle" x="343.26" y="-226.27" font-family="monospace" font-size="10.00">uses</text>
</g>
<!-- lightning_notifier::NotificationsEmitter::new_block&#45;&gt;lightning_notifier::NotificationsEmitter -->
<g id="edge7" class="edge">
<title>lightning_notifier::NotificationsEmitter::new_block&#45;&gt;lightning_notifier::NotificationsEmitter</title>
<path fill="none" stroke="#7f7f7f" stroke-dasharray="5,2" d="M474.27,-689.67C473.66,-642.05 429.23,-520.72 394.46,-465.34"/>
<polygon fill="#7f7f7f" stroke="#7f7f7f" points="397.2,-463.13 388.76,-456.73 391.36,-467 397.2,-463.13"/>
<text text-anchor="middle" x="421.86" y="-580.5" font-family="monospace" font-size="10.00">uses</text>
</g>
<!-- lightning_notifier::NotificationsEmitter::shutdown&#45;&gt;lightning_notifier::NotificationsEmitter -->
<g id="edge8" class="edge">
<title>lightning_notifier::NotificationsEmitter::shutdown&#45;&gt;lightning_notifier::NotificationsEmitter</title>
<path fill="none" stroke="#7f7f7f" stroke-dasharray="5,2" d="M238.58,-683.38C281.66,-636.93 349.25,-521.28 364.59,-466.35"/>
<polygon fill="#7f7f7f" stroke="#7f7f7f" points="368.02,-467.05 366.89,-456.52 361.21,-465.46 368.02,-467.05"/>
<text text-anchor="middle" x="289.08" y="-577.86" font-family="monospace" font-size="10.00">uses</text>
</g>
<!-- lightning_notifier::Notifier&#45;&gt;lightning_notifier::NotificationsEmitter -->
<g id="edge9" class="edge">
<title>lightning_notifier::Notifier&#45;&gt;lightning_notifier::NotificationsEmitter</title>
<path fill="none" stroke="#7f7f7f" stroke-dasharray="5,2" d="M344.64,-286.06C348.39,-315.84 355.63,-373.29 360.04,-408.22"/>
<polygon fill="#7f7f7f" stroke="#7f7f7f" points="356.58,-408.8 361.3,-418.28 363.53,-407.92 356.58,-408.8"/>
<text text-anchor="middle" x="339.84" y="-350.14" font-family="monospace" font-size="10.00">uses</text>
</g>
<!-- lightning_notifier::Notifier::Emitter -->
<g id="node7" class="node">
<title>lightning_notifier::Notifier::Emitter</title>
<polygon fill="#f8c04c" stroke="black" points="141.92,-255.55 141.92,-293.55 260.92,-293.55 260.92,-255.55 141.92,-255.55"/>
<text text-anchor="middle" x="201.42" y="-281.55" font-family="monospace" font-size="10.00">pub(crate) type</text>
<polyline fill="none" stroke="black" points="141.92,-274.55 260.92,-274.55 "/>
<text text-anchor="middle" x="201.42" y="-262.55" font-family="monospace" font-size="10.00">Notifier::Emitter</text>
</g>
<!-- lightning_notifier::Notifier&#45;&gt;lightning_notifier::Notifier::Emitter -->
<g id="edge10" class="edge">
<title>lightning_notifier::Notifier&#45;&gt;lightning_notifier::Notifier::Emitter</title>
<path fill="none" stroke="#000000" d="M303.37,-268.95C293.34,-269.5 282.23,-270.11 271.14,-270.72"/>
<polygon fill="#000000" stroke="#000000" points="270.79,-267.24 260.99,-271.28 271.17,-274.22 270.79,-267.24"/>
<text text-anchor="middle" x="274.76" y="-272.84" font-family="monospace" font-size="10.00">owns</text>
</g>
<!-- lightning_notifier::Notifier::get_emitter -->
<g id="node8" class="node">
<title>lightning_notifier::Notifier::get_emitter</title>
<polygon fill="#f8c04c" stroke="black" points="593.01,-341.05 593.01,-379.05 736.01,-379.05 736.01,-341.05 593.01,-341.05"/>
<text text-anchor="middle" x="664.51" y="-367.05" font-family="monospace" font-size="10.00">pub(crate) fn</text>
<polyline fill="none" stroke="black" points="593.01,-360.05 736.01,-360.05 "/>
<text text-anchor="middle" x="664.51" y="-348.05" font-family="monospace" font-size="10.00">Notifier::get_emitter</text>
</g>
<!-- lightning_notifier::Notifier&#45;&gt;lightning_notifier::Notifier::get_emitter -->
<g id="edge11" class="edge">
<title>lightning_notifier::Notifier&#45;&gt;lightning_notifier::Notifier::get_emitter</title>
<path fill="none" stroke="#000000" d="M358.5,-286.05C399.23,-311.75 506.71,-346.06 582.8,-360.62"/>
<polygon fill="#000000" stroke="#000000" points="582.38,-364.1 592.85,-362.46 583.64,-357.22 582.38,-364.1"/>
<text text-anchor="middle" x="458.15" y="-326.33" font-family="monospace" font-size="10.00">owns</text>
</g>
<!-- lightning_notifier::Notifier::get_until_epoch_end -->
<g id="node9" class="node">
<title>lightning_notifier::Notifier::get_until_epoch_end</title>
<polygon fill="#f8c04c" stroke="black" points="-0.47,-24.58 -0.47,-62.58 190.53,-62.58 190.53,-24.58 -0.47,-24.58"/>
<text text-anchor="middle" x="95.03" y="-50.58" font-family="monospace" font-size="10.00">pub(crate) fn</text>
<polyline fill="none" stroke="black" points="-0.47,-43.58 190.53,-43.58 "/>
<text text-anchor="middle" x="95.03" y="-31.58" font-family="monospace" font-size="10.00">Notifier::get_until_epoch_end</text>
</g>
<!-- lightning_notifier::Notifier&#45;&gt;lightning_notifier::Notifier::get_until_epoch_end -->
<g id="edge12" class="edge">
<title>lightning_notifier::Notifier&#45;&gt;lightning_notifier::Notifier::get_until_epoch_end</title>
<path fill="none" stroke="#000000" d="M339.08,-247.65C316.61,-205.84 220.01,-114.41 154.78,-68.62"/>
<polygon fill="#000000" stroke="#000000" points="156.42,-65.5 146.19,-62.74 152.47,-71.28 156.42,-65.5"/>
<text text-anchor="middle" x="234.43" y="-161.13" font-family="monospace" font-size="10.00">owns</text>
</g>
<!-- lightning_notifier::Notifier::init -->
<g id="node10" class="node">
<title>lightning_notifier::Notifier::init</title>
<polygon fill="#f8c04c" stroke="black" points="494.08,-183.77 494.08,-221.77 595.08,-221.77 595.08,-183.77 494.08,-183.77"/>
<text text-anchor="middle" x="544.58" y="-209.77" font-family="monospace" font-size="10.00">pub(crate) fn</text>
<polyline fill="none" stroke="black" points="494.08,-202.77 595.08,-202.77 "/>
<text text-anchor="middle" x="544.58" y="-190.77" font-family="monospace" font-size="10.00">Notifier::init</text>
</g>
<!-- lightning_notifier::Notifier&#45;&gt;lightning_notifier::Notifier::init -->
<g id="edge13" class="edge">
<title>lightning_notifier::Notifier&#45;&gt;lightning_notifier::Notifier::init</title>
<path fill="none" stroke="#000000" d="M380.9,-276.04C424.16,-272.15 492.11,-249.94 525.36,-228.21"/>
<polygon fill="#000000" stroke="#000000" points="527.72,-230.81 533.76,-222.1 523.61,-225.15 527.72,-230.81"/>
<text text-anchor="middle" x="440.63" y="-255.12" font-family="monospace" font-size="10.00">owns</text>
</g>
<!-- lightning_notifier::Notifier::notify_before_epoch_change -->
<g id="node11" class="node">
<title>lightning_notifier::Notifier::notify_before_epoch_change</title>
<polygon fill="#f8c04c" stroke="black" points="495.87,-25.72 495.87,-63.72 728.87,-63.72 728.87,-25.72 495.87,-25.72"/>
<text text-anchor="middle" x="612.37" y="-51.72" font-family="monospace" font-size="10.00">pub(crate) fn</text>
<polyline fill="none" stroke="black" points="495.87,-44.72 728.87,-44.72 "/>
<text text-anchor="middle" x="612.37" y="-32.72" font-family="monospace" font-size="10.00">Notifier::notify_before_epoch_change</text>
</g>
<!-- lightning_notifier::Notifier&#45;&gt;lightning_notifier::Notifier::notify_before_epoch_change -->
<g id="edge14" class="edge">
<title>lightning_notifier::Notifier&#45;&gt;lightning_notifier::Notifier::notify_before_epoch_change</title>
<path fill="none" stroke="#000000" d="M380.76,-257.36C444.35,-223.02 565.01,-122.8 602.4,-72.06"/>
<polygon fill="#000000" stroke="#000000" points="605.3,-74.01 608.03,-63.77 599.51,-70.08 605.3,-74.01"/>
<text text-anchor="middle" x="479.08" y="-167.71" font-family="monospace" font-size="10.00">owns</text>
</g>
<!-- lightning_notifier::Notifier::notify_on_new_block -->
<g id="node12" class="node">
<title>lightning_notifier::Notifier::notify_on_new_block</title>
<polygon fill="#f8c04c" stroke="black" points="144.69,-494.69 144.69,-532.69 335.69,-532.69 335.69,-494.69 144.69,-494.69"/>
<text text-anchor="middle" x="240.19" y="-520.69" font-family="monospace" font-size="10.00">pub(crate) fn</text>
<polyline fill="none" stroke="black" points="144.69,-513.69 335.69,-513.69 "/>
<text text-anchor="middle" x="240.19" y="-501.69" font-family="monospace" font-size="10.00">Notifier::notify_on_new_block</text>
</g>
<!-- lightning_notifier::Notifier&#45;&gt;lightning_notifier::Notifier::notify_on_new_block -->
<g id="edge15" class="edge">
<title>lightning_notifier::Notifier&#45;&gt;lightning_notifier::Notifier::notify_on_new_block</title>
<path fill="none" stroke="#000000" d="M315.45,-286.15C283.3,-329.56 240.83,-433.05 234.43,-484.37"/>
<polygon fill="#000000" stroke="#000000" points="230.93,-484.25 233.63,-494.49 237.9,-484.8 230.93,-484.25"/>
<text text-anchor="middle" x="262.44" y="-388.26" font-family="monospace" font-size="10.00">owns</text>
</g>
<!-- lightning_notifier::Notifier::notify_on_new_epoch -->
<g id="node13" class="node">
<title>lightning_notifier::Notifier::notify_on_new_epoch</title>
<polygon fill="#f8c04c" stroke="black" points="452.85,-542.5 452.85,-580.5 643.85,-580.5 643.85,-542.5 452.85,-542.5"/>
<text text-anchor="middle" x="548.35" y="-568.5" font-family="monospace" font-size="10.00">pub(crate) fn</text>
<polyline fill="none" stroke="black" points="452.85,-561.5 643.85,-561.5 "/>
<text text-anchor="middle" x="548.35" y="-549.5" font-family="monospace" font-size="10.00">Notifier::notify_on_new_epoch</text>
</g>
<!-- lightning_notifier::Notifier&#45;&gt;lightning_notifier::Notifier::notify_on_new_epoch -->
<g id="edge16" class="edge">
<title>lightning_notifier::Notifier&#45;&gt;lightning_notifier::Notifier::notify_on_new_epoch</title>
<path fill="none" stroke="#000000" d="M341.39,-286.25C356.41,-338.53 450.16,-476.48 507.34,-535.32"/>
<polygon fill="#000000" stroke="#000000" points="504.91,-537.84 514.47,-542.42 509.85,-532.88 504.91,-537.84"/>
<text text-anchor="middle" x="411.87" y="-402.79" font-family="monospace" font-size="10.00">owns</text>
</g>
<!-- lightning_notifier::Notifier::Emitter&#45;&gt;lightning_notifier::NotificationsEmitter -->
<g id="edge17" class="edge">
<title>lightning_notifier::Notifier::Emitter&#45;&gt;lightning_notifier::NotificationsEmitter</title>
<path fill="none" stroke="#7f7f7f" stroke-dasharray="5,2" d="M220.36,-293.55C249.23,-322.54 304.37,-377.88 337.21,-410.84"/>
<polygon fill="#7f7f7f" stroke="#7f7f7f" points="335.12,-413.7 344.65,-418.32 340.08,-408.76 335.12,-413.7"/>
<text text-anchor="middle" x="266.29" y="-355.2" font-family="monospace" font-size="10.00">uses</text>
</g>
<!-- lightning_notifier::Notifier::get_emitter&#45;&gt;lightning_notifier::NotificationsEmitter -->
<g id="edge18" class="edge">
<title>lightning_notifier::Notifier::get_emitter&#45;&gt;lightning_notifier::NotificationsEmitter</title>
<path fill="none" stroke="#7f7f7f" stroke-dasharray="5,2" d="M592.85,-378.49C547.42,-390.18 488.66,-405.3 442.01,-417.31"/>
<polygon fill="#7f7f7f" stroke="#7f7f7f" points="441.06,-413.94 432.25,-419.82 442.81,-420.72 441.06,-413.94"/>
<text text-anchor="middle" x="504.93" y="-400.9" font-family="monospace" font-size="10.00">uses</text>
</g>
<!-- lightning_notifier::Notifier::get_emitter&#45;&gt;lightning_notifier::Notifier -->
<g id="edge19" class="edge">
<title>lightning_notifier::Notifier::get_emitter&#45;&gt;lightning_notifier::Notifier</title>
<path fill="none" stroke="#7f7f7f" stroke-dasharray="5,2" d="M648.23,-340.82C601.12,-311.11 464.77,-269.86 390.91,-260.98"/>
<polygon fill="#7f7f7f" stroke="#7f7f7f" points="391.22,-257.5 380.92,-259.95 390.5,-264.46 391.22,-257.5"/>
<text text-anchor="middle" x="507.07" y="-303.9" font-family="monospace" font-size="10.00">uses</text>
</g>
<!-- lightning_notifier::Notifier::get_until_epoch_end&#45;&gt;lightning_notifier::Notifier -->
<g id="edge20" class="edge">
<title>lightning_notifier::Notifier::get_until_epoch_end&#45;&gt;lightning_notifier::Notifier</title>
<path fill="none" stroke="#7f7f7f" stroke-dasharray="5,2" d="M98.17,-62.75C122.06,-107.2 229.75,-207.75 294.44,-249.89"/>
<polygon fill="#7f7f7f" stroke="#7f7f7f" points="292.94,-253.08 303.27,-255.44 296.66,-247.15 292.94,-253.08"/>
<text text-anchor="middle" x="183.8" y="-159.32" font-family="monospace" font-size="10.00">uses</text>
</g>
<!-- lightning_notifier::Notifier::init&#45;&gt;lightning_notifier::NotificationsEmitter -->
<g id="edge21" class="edge">
<title>lightning_notifier::Notifier::init&#45;&gt;lightning_notifier::NotificationsEmitter</title>
<path fill="none" stroke="#7f7f7f" stroke-dasharray="5,2" d="M529.78,-221.97C497.7,-263.59 421.71,-362.21 384.7,-410.23"/>
<polygon fill="#7f7f7f" stroke="#7f7f7f" points="381.8,-408.25 378.47,-418.31 387.35,-412.53 381.8,-408.25"/>
<text text-anchor="middle" x="444.74" y="-308.1" font-family="monospace" font-size="10.00">uses</text>
</g>
<!-- lightning_notifier::Notifier::init&#45;&gt;lightning_notifier::Notifier -->
<g id="edge22" class="edge">
<title>lightning_notifier::Notifier::init&#45;&gt;lightning_notifier::Notifier</title>
<path fill="none" stroke="#7f7f7f" stroke-dasharray="5,2" d="M494.07,-194.97C450.91,-201.33 391.35,-221.7 361.1,-241.61"/>
<polygon fill="#7f7f7f" stroke="#7f7f7f" points="358.71,-239.02 352.71,-247.75 362.84,-244.67 358.71,-239.02"/>
<text text-anchor="middle" x="415.09" y="-221.29" font-family="monospace" font-size="10.00">uses</text>
</g>
<!-- lightning_notifier::Notifier::notify_before_epoch_change&#45;&gt;lightning_notifier::Notifier -->
<g id="edge23" class="edge">
<title>lightning_notifier::Notifier::notify_before_epoch_change&#45;&gt;lightning_notifier::Notifier</title>
<path fill="none" stroke="#7f7f7f" stroke-dasharray="5,2" d="M557.3,-63.78C491.36,-104.36 387.04,-192.44 352.43,-239.15"/>
<polygon fill="#7f7f7f" stroke="#7f7f7f" points="349.38,-237.41 346.63,-247.64 355.16,-241.35 349.38,-237.41"/>
<text text-anchor="middle" x="442.36" y="-154.47" font-family="monospace" font-size="10.00">uses</text>
</g>
<!-- lightning_notifier::Notifier::notify_on_new_block&#45;&gt;lightning_notifier::NotificationsEmitter -->
<g id="edge24" class="edge">
<title>lightning_notifier::Notifier::notify_on_new_block&#45;&gt;lightning_notifier::NotificationsEmitter</title>
<path fill="none" stroke="#7f7f7f" stroke-dasharray="5,2" d="M271.04,-494.65C287.11,-484.74 306.93,-472.5 324.12,-461.89"/>
<polygon fill="#7f7f7f" stroke="#7f7f7f" points="326.16,-464.75 332.83,-456.52 322.48,-458.79 326.16,-464.75"/>
<text text-anchor="middle" x="285.08" y="-481.27" font-family="monospace" font-size="10.00">uses</text>
</g>
<!-- lightning_notifier::Notifier::notify_on_new_block&#45;&gt;lightning_notifier::Notifier -->
<g id="edge25" class="edge">
<title>lightning_notifier::Notifier::notify_on_new_block&#45;&gt;lightning_notifier::Notifier</title>
<path fill="none" stroke="#7f7f7f" stroke-dasharray="5,2" d="M266.95,-494.37C299.1,-450.96 341.57,-347.47 347.97,-296.14"/>
<polygon fill="#7f7f7f" stroke="#7f7f7f" points="351.48,-296.27 348.78,-286.02 344.5,-295.72 351.48,-296.27"/>
<text text-anchor="middle" x="294.96" y="-398.26" font-family="monospace" font-size="10.00">uses</text>
</g>
<!-- lightning_notifier::Notifier::notify_on_new_epoch&#45;&gt;lightning_notifier::NotificationsEmitter -->
<g id="edge26" class="edge">
<title>lightning_notifier::Notifier::notify_on_new_epoch&#45;&gt;lightning_notifier::NotificationsEmitter</title>
<path fill="none" stroke="#7f7f7f" stroke-dasharray="5,2" d="M519.91,-542.39C487.92,-520.9 435.87,-485.93 400.74,-462.33"/>
<polygon fill="#7f7f7f" stroke="#7f7f7f" points="402.45,-459.26 392.2,-456.58 398.54,-465.07 402.45,-459.26"/>
<text text-anchor="middle" x="447.82" y="-505.36" font-family="monospace" font-size="10.00">uses</text>
</g>
<!-- lightning_notifier::Notifier::notify_on_new_epoch&#45;&gt;lightning_notifier::Notifier -->
<g id="edge27" class="edge">
<title>lightning_notifier::Notifier::notify_on_new_epoch&#45;&gt;lightning_notifier::Notifier</title>
<path fill="none" stroke="#7f7f7f" stroke-dasharray="5,2" d="M549.17,-542.06C534.15,-489.79 440.41,-351.84 383.23,-293"/>
<polygon fill="#7f7f7f" stroke="#7f7f7f" points="385.65,-290.48 376.1,-285.9 380.71,-295.44 385.65,-290.48"/>
<text text-anchor="middle" x="453.7" y="-420.53" font-family="monospace" font-size="10.00">uses</text>
</g>
</g>
</svg>
