<?xml version="1.0" encoding="UTF-8" standalone="no"?>
<!DOCTYPE svg PUBLIC "-//W3C//DTD SVG 1.1//EN"
 "http://www.w3.org/Graphics/SVG/1.1/DTD/svg11.dtd">
<!-- Generated by graphviz version 4.0.0 (0)
 -->
<!-- Pages: 1 -->
<svg width="1118pt" height="1093pt"
 viewBox="0.00 0.00 1117.92 1093.41" xmlns="http://www.w3.org/2000/svg" xmlns:xlink="http://www.w3.org/1999/xlink">
<g id="graph0" class="graph" transform="scale(1 1) rotate(0) translate(28.8 1064.61)">
<polygon fill="white" stroke="transparent" points="-28.8,28.8 -28.8,-1064.61 1089.12,-1064.61 1089.12,28.8 -28.8,28.8"/>
<text text-anchor="middle" x="530.16" y="-1003.01" font-family="Helvetica,sans-Serif" font-size="36.00">lightning_types</text>
<!-- lightning_types -->
<g id="node1" class="node">
<title>lightning_types</title>
<polygon fill="#5397c8" stroke="black" points="373.33,-741.79 373.33,-779.79 480.33,-779.79 480.33,-741.79 373.33,-741.79"/>
<text text-anchor="middle" x="426.83" y="-767.79" font-family="monospace" font-size="10.00">crate</text>
<polyline fill="none" stroke="black" points="373.33,-760.79 480.33,-760.79 "/>
<text text-anchor="middle" x="426.83" y="-748.79" font-family="monospace" font-size="10.00">lightning_types</text>
</g>
<!-- lightning_types::application -->
<g id="node2" class="node">
<title>lightning_types::application</title>
<polygon fill="#f8c04c" stroke="black" points="730.93,-220.44 730.93,-258.44 915.93,-258.44 915.93,-220.44 730.93,-220.44"/>
<text text-anchor="middle" x="823.43" y="-246.44" font-family="monospace" font-size="10.00">pub(crate) mod</text>
<polyline fill="none" stroke="black" points="730.93,-239.44 915.93,-239.44 "/>
<text text-anchor="middle" x="823.43" y="-227.44" font-family="monospace" font-size="10.00">lightning_types::application</text>
</g>
<!-- lightning_types&#45;&gt;lightning_types::application -->
<g id="edge1" class="edge">
<title>lightning_types&#45;&gt;lightning_types::application</title>
<path fill="none" stroke="#000000" d="M457.52,-741.62C542.59,-661.68 769.39,-362.87 816.34,-267.9"/>
<polygon fill="#000000" stroke="#000000" points="819.62,-269.15 820.63,-258.6 813.26,-266.22 819.62,-269.15"/>
<text text-anchor="middle" x="624.43" y="-507.76" font-family="monospace" font-size="10.00">owns</text>
</g>
<!-- lightning_types&#45;&gt;lightning_types::application -->
<g id="edge2" class="edge">
<title>lightning_types&#45;&gt;lightning_types::application</title>
<path fill="none" stroke="#7f7f7f" stroke-dasharray="5,2" d="M429.59,-741.72C463.54,-661.22 692.06,-358.05 785.43,-265.66"/>
<polygon fill="#7f7f7f" stroke="#7f7f7f" points="787.96,-268.09 792.72,-258.63 783.09,-263.06 787.96,-268.09"/>
<text text-anchor="middle" x="595.01" y="-506.69" font-family="monospace" font-size="10.00">uses</text>
</g>
<!-- lightning_types::blockstore -->
<g id="node3" class="node">
<title>lightning_types::blockstore</title>
<polygon fill="#f8c04c" stroke="black" points="21.76,-294.3 21.76,-332.3 200.76,-332.3 200.76,-294.3 21.76,-294.3"/>
<text text-anchor="middle" x="111.26" y="-320.3" font-family="monospace" font-size="10.00">pub(crate) mod</text>
<polyline fill="none" stroke="black" points="21.76,-313.3 200.76,-313.3 "/>
<text text-anchor="middle" x="111.26" y="-301.3" font-family="monospace" font-size="10.00">lightning_types::blockstore</text>
</g>
<!-- lightning_types&#45;&gt;lightning_types::blockstore -->
<g id="edge3" class="edge">
<title>lightning_types&#45;&gt;lightning_types::blockstore</title>
<path fill="none" stroke="#000000" d="M425.58,-741.62C400.08,-669.63 228.22,-422.79 148.97,-339.96"/>
<polygon fill="#000000" stroke="#000000" points="151.1,-337.14 141.59,-332.46 146.11,-342.05 151.1,-337.14"/>
<text text-anchor="middle" x="274.77" y="-543.79" font-family="monospace" font-size="10.00">owns</text>
</g>
<!-- lightning_types&#45;&gt;lightning_types::blockstore -->
<g id="edge4" class="edge">
<title>lightning_types&#45;&gt;lightning_types::blockstore</title>
<path fill="none" stroke="#7f7f7f" stroke-dasharray="5,2" d="M396.58,-741.71C324.14,-670.45 152.69,-426.56 116.22,-341.84"/>
<polygon fill="#7f7f7f" stroke="#7f7f7f" points="119.39,-340.33 112.46,-332.32 112.88,-342.9 119.39,-340.33"/>
<text text-anchor="middle" x="243.9" y="-544.78" font-family="monospace" font-size="10.00">uses</text>
</g>
<!-- lightning_types::blockstore_server -->
<g id="node4" class="node">
<title>lightning_types::blockstore_server</title>
<polygon fill="#f8c04c" stroke="black" points="50.16,-590.15 50.16,-628.15 271.16,-628.15 271.16,-590.15 50.16,-590.15"/>
<text text-anchor="middle" x="160.66" y="-616.15" font-family="monospace" font-size="10.00">pub(crate) mod</text>
<polyline fill="none" stroke="black" points="50.16,-609.15 271.16,-609.15 "/>
<text text-anchor="middle" x="160.66" y="-597.15" font-family="monospace" font-size="10.00">lightning_types::blockstore_server</text>
</g>
<!-- lightning_types&#45;&gt;lightning_types::blockstore_server -->
<g id="edge5" class="edge">
<title>lightning_types&#45;&gt;lightning_types::blockstore_server</title>
<path fill="none" stroke="#000000" d="M419.28,-741.64C393.95,-712.26 316.2,-663.34 252.34,-632.68"/>
<polygon fill="#000000" stroke="#000000" points="253.57,-629.39 243.03,-628.29 250.58,-635.72 253.57,-629.39"/>
<text text-anchor="middle" x="323.31" y="-679.16" font-family="monospace" font-size="10.00">owns</text>
</g>
<!-- lightning_types&#45;&gt;lightning_types::blockstore_server -->
<g id="edge6" class="edge">
<title>lightning_types&#45;&gt;lightning_types::blockstore_server</title>
<path fill="none" stroke="#7f7f7f" stroke-dasharray="5,2" d="M373.29,-753.95C311.02,-729.93 212.85,-672.18 175.2,-635.65"/>
<polygon fill="#7f7f7f" stroke="#7f7f7f" points="177.54,-633.04 168.12,-628.2 172.47,-637.86 177.54,-633.04"/>
<text text-anchor="middle" x="261.75" y="-686.8" font-family="monospace" font-size="10.00">uses</text>
</g>
<!-- lightning_types::bridge -->
<g id="node5" class="node">
<title>lightning_types::bridge</title>
<polygon fill="#f8c04c" stroke="black" points="537.41,-724.33 537.41,-762.33 692.41,-762.33 692.41,-724.33 537.41,-724.33"/>
<text text-anchor="middle" x="614.91" y="-750.33" font-family="monospace" font-size="10.00">pub(crate) mod</text>
<polyline fill="none" stroke="black" points="537.41,-743.33 692.41,-743.33 "/>
<text text-anchor="middle" x="614.91" y="-731.33" font-family="monospace" font-size="10.00">lightning_types::bridge</text>
</g>
<!-- lightning_types&#45;&gt;lightning_types::bridge -->
<g id="edge7" class="edge">
<title>lightning_types&#45;&gt;lightning_types::bridge</title>
<path fill="none" stroke="#000000" d="M472.12,-779.81C507.94,-782.48 556.8,-777.01 587.08,-766.33"/>
<polygon fill="#000000" stroke="#000000" points="588.62,-769.49 596.6,-762.51 586.01,-762.99 588.62,-769.49"/>
<text text-anchor="middle" x="517.1" y="-776.07" font-family="monospace" font-size="10.00">owns</text>
</g>
<!-- lightning_types&#45;&gt;lightning_types::bridge -->
<g id="edge8" class="edge">
<title>lightning_types&#45;&gt;lightning_types::bridge</title>
<path fill="none" stroke="#7f7f7f" stroke-dasharray="5,2" d="M445,-741.67C471.21,-729.55 520.67,-722.54 559.51,-723.78"/>
<polygon fill="#7f7f7f" stroke="#7f7f7f" points="559.47,-727.28 569.64,-724.31 559.84,-720.29 559.47,-727.28"/>
<text text-anchor="middle" x="489.75" y="-724.73" font-family="monospace" font-size="10.00">uses</text>
</g>
<!-- lightning_types::broadcast -->
<g id="node6" class="node">
<title>lightning_types::broadcast</title>
<polygon fill="#f8c04c" stroke="black" points="677.69,-896.63 677.69,-934.63 850.69,-934.63 850.69,-896.63 677.69,-896.63"/>
<text text-anchor="middle" x="764.19" y="-922.63" font-family="monospace" font-size="10.00">pub(crate) mod</text>
<polyline fill="none" stroke="black" points="677.69,-915.63 850.69,-915.63 "/>
<text text-anchor="middle" x="764.19" y="-903.63" font-family="monospace" font-size="10.00">lightning_types::broadcast</text>
</g>
<!-- lightning_types&#45;&gt;lightning_types::broadcast -->
<g id="edge9" class="edge">
<title>lightning_types&#45;&gt;lightning_types::broadcast</title>
<path fill="none" stroke="#000000" d="M438.31,-779.91C474.5,-811.99 585.39,-867.04 667.94,-897.75"/>
<polygon fill="#000000" stroke="#000000" points="666.75,-901.05 677.35,-901.19 669.16,-894.47 666.75,-901.05"/>
<text text-anchor="middle" x="540.62" y="-841.83" font-family="monospace" font-size="10.00">owns</text>
</g>
<!-- lightning_types&#45;&gt;lightning_types::broadcast -->
<g id="edge10" class="edge">
<title>lightning_types&#45;&gt;lightning_types::broadcast</title>
<path fill="none" stroke="#7f7f7f" stroke-dasharray="5,2" d="M480.69,-764.37C557.39,-786.83 693.68,-850.85 744.68,-889.93"/>
<polygon fill="#7f7f7f" stroke="#7f7f7f" points="742.69,-892.82 752.64,-896.44 747.12,-887.4 742.69,-892.82"/>
<text text-anchor="middle" x="600.18" y="-830.15" font-family="monospace" font-size="10.00">uses</text>
</g>
<!-- lightning_types::compression -->
<g id="node7" class="node">
<title>lightning_types::compression</title>
<polygon fill="#f8c04c" stroke="black" points="308.06,-949.31 308.06,-987.31 493.06,-987.31 493.06,-949.31 308.06,-949.31"/>
<text text-anchor="middle" x="400.56" y="-975.31" font-family="monospace" font-size="10.00">pub(crate) mod</text>
<polyline fill="none" stroke="black" points="308.06,-968.31 493.06,-968.31 "/>
<text text-anchor="middle" x="400.56" y="-956.31" font-family="monospace" font-size="10.00">lightning_types::compression</text>
</g>
<!-- lightning_types&#45;&gt;lightning_types::compression -->
<g id="edge11" class="edge">
<title>lightning_types&#45;&gt;lightning_types::compression</title>
<path fill="none" stroke="#000000" d="M407.02,-780.05C389.8,-816.66 379.2,-896.25 385.29,-939.32"/>
<polygon fill="#000000" stroke="#000000" points="381.85,-940 387.14,-949.18 388.73,-938.71 381.85,-940"/>
<text text-anchor="middle" x="383.66" y="-862.69" font-family="monospace" font-size="10.00">owns</text>
</g>
<!-- lightning_types&#45;&gt;lightning_types::compression -->
<g id="edge12" class="edge">
<title>lightning_types&#45;&gt;lightning_types::compression</title>
<path fill="none" stroke="#7f7f7f" stroke-dasharray="5,2" d="M440.29,-780.11C449.16,-816.86 440.43,-896.8 424.26,-939.74"/>
<polygon fill="#7f7f7f" stroke="#7f7f7f" points="420.99,-938.49 420.35,-949.06 427.45,-941.2 420.99,-938.49"/>
<text text-anchor="middle" x="419.78" y="-862.92" font-family="monospace" font-size="10.00">uses</text>
</g>
<!-- lightning_types::connection -->
<g id="node8" class="node">
<title>lightning_types::connection</title>
<polygon fill="#f8c04c" stroke="black" points="501.11,-943.65 501.11,-981.65 680.11,-981.65 680.11,-943.65 501.11,-943.65"/>
<text text-anchor="middle" x="590.61" y="-969.65" font-family="monospace" font-size="10.00">pub(crate) mod</text>
<polyline fill="none" stroke="black" points="501.11,-962.65 680.11,-962.65 "/>
<text text-anchor="middle" x="590.61" y="-950.65" font-family="monospace" font-size="10.00">lightning_types::connection</text>
</g>
<!-- lightning_types&#45;&gt;lightning_types::connection -->
<g id="edge13" class="edge">
<title>lightning_types&#45;&gt;lightning_types::connection</title>
<path fill="none" stroke="#000000" d="M425.5,-779.86C436.7,-817.25 495.95,-895.02 541.2,-936.67"/>
<polygon fill="#000000" stroke="#000000" points="539.1,-939.49 548.9,-943.53 543.75,-934.26 539.1,-939.49"/>
<text text-anchor="middle" x="470.85" y="-861.27" font-family="monospace" font-size="10.00">owns</text>
</g>
<!-- lightning_types&#45;&gt;lightning_types::connection -->
<g id="edge14" class="edge">
<title>lightning_types&#45;&gt;lightning_types::connection</title>
<path fill="none" stroke="#7f7f7f" stroke-dasharray="5,2" d="M468.59,-779.95C511.13,-816.43 570.55,-891.8 588.48,-934.14"/>
<polygon fill="#7f7f7f" stroke="#7f7f7f" points="585.24,-935.46 591.96,-943.65 591.81,-933.05 585.24,-935.46"/>
<text text-anchor="middle" x="516.03" y="-860.04" font-family="monospace" font-size="10.00">uses</text>
</g>
<!-- lightning_types::content -->
<g id="node9" class="node">
<title>lightning_types::content</title>
<polygon fill="#f8c04c" stroke="black" points="207.79,-48.95 207.79,-86.95 368.79,-86.95 368.79,-48.95 207.79,-48.95"/>
<text text-anchor="middle" x="288.29" y="-74.95" font-family="monospace" font-size="10.00">pub(crate) mod</text>
<polyline fill="none" stroke="black" points="207.79,-67.95 368.79,-67.95 "/>
<text text-anchor="middle" x="288.29" y="-55.95" font-family="monospace" font-size="10.00">lightning_types::content</text>
</g>
<!-- lightning_types&#45;&gt;lightning_types::content -->
<g id="edge15" class="edge">
<title>lightning_types&#45;&gt;lightning_types::content</title>
<path fill="none" stroke="#000000" d="M432.42,-741.5C436.19,-644.57 350.57,-211.76 306.17,-96.28"/>
<polygon fill="#000000" stroke="#000000" points="309.4,-94.96 302.39,-87.01 302.92,-97.59 309.4,-94.96"/>
<text text-anchor="middle" x="356.79" y="-410.89" font-family="monospace" font-size="10.00">owns</text>
</g>
<!-- lightning_types&#45;&gt;lightning_types::content -->
<g id="edge16" class="edge">
<title>lightning_types&#45;&gt;lightning_types::content</title>
<path fill="none" stroke="#7f7f7f" stroke-dasharray="5,2" d="M412.7,-741.66C370.91,-645.37 284.38,-214.78 282.61,-97.48"/>
<polygon fill="#7f7f7f" stroke="#7f7f7f" points="286.11,-97.16 282.71,-87.13 279.11,-97.1 286.11,-97.16"/>
<text text-anchor="middle" x="335.15" y="-422.57" font-family="monospace" font-size="10.00">uses</text>
</g>
<!-- lightning_types::content_registry -->
<g id="node10" class="node">
<title>lightning_types::content_registry</title>
<polygon fill="#f8c04c" stroke="black" points="0,-449.03 0,-487.03 215,-487.03 215,-449.03 0,-449.03"/>
<text text-anchor="middle" x="107.5" y="-475.03" font-family="monospace" font-size="10.00">pub(crate) mod</text>
<polyline fill="none" stroke="black" points="0,-468.03 215,-468.03 "/>
<text text-anchor="middle" x="107.5" y="-456.03" font-family="monospace" font-size="10.00">lightning_types::content_registry</text>
</g>
<!-- lightning_types&#45;&gt;lightning_types::content_registry -->
<g id="edge17" class="edge">
<title>lightning_types&#45;&gt;lightning_types::content_registry</title>
<path fill="none" stroke="#000000" d="M422.25,-741.43C391.21,-688.51 245.08,-550.98 162.77,-492.87"/>
<polygon fill="#000000" stroke="#000000" points="164.74,-489.98 154.52,-487.17 160.76,-495.74 164.74,-489.98"/>
<text text-anchor="middle" x="305.01" y="-620.15" font-family="monospace" font-size="10.00">owns</text>
</g>
<!-- lightning_types&#45;&gt;lightning_types::content_registry -->
<g id="edge18" class="edge">
<title>lightning_types&#45;&gt;lightning_types::content_registry</title>
<path fill="none" stroke="#7f7f7f" stroke-dasharray="5,2" d="M379.8,-741.64C303.24,-689.96 158.79,-555.74 117.48,-495.79"/>
<polygon fill="#7f7f7f" stroke="#7f7f7f" points="120.29,-493.7 111.95,-487.17 114.4,-497.48 120.29,-493.7"/>
<text text-anchor="middle" x="261.14" y="-621.72" font-family="monospace" font-size="10.00">uses</text>
</g>
<!-- lightning_types::dack_aggregator -->
<g id="node11" class="node">
<title>lightning_types::dack_aggregator</title>
<polygon fill="#f8c04c" stroke="black" points="649.15,-646.74 649.15,-684.74 858.15,-684.74 858.15,-646.74 649.15,-646.74"/>
<text text-anchor="middle" x="753.65" y="-672.74" font-family="monospace" font-size="10.00">pub(crate) mod</text>
<polyline fill="none" stroke="black" points="649.15,-665.74 858.15,-665.74 "/>
<text text-anchor="middle" x="753.65" y="-653.74" font-family="monospace" font-size="10.00">lightning_types::dack_aggregator</text>
</g>
<!-- lightning_types&#45;&gt;lightning_types::dack_aggregator -->
<g id="edge19" class="edge">
<title>lightning_types&#45;&gt;lightning_types::dack_aggregator</title>
<path fill="none" stroke="#000000" d="M480.59,-765.8C552.23,-756.03 675.81,-718.87 728.69,-689.99"/>
<polygon fill="#000000" stroke="#000000" points="730.56,-692.95 737.42,-684.88 727.02,-686.91 730.56,-692.95"/>
<text text-anchor="middle" x="592.14" y="-719.89" font-family="monospace" font-size="10.00">owns</text>
</g>
<!-- lightning_types&#45;&gt;lightning_types::dack_aggregator -->
<g id="edge20" class="edge">
<title>lightning_types&#45;&gt;lightning_types::dack_aggregator</title>
<path fill="none" stroke="#7f7f7f" stroke-dasharray="5,2" d="M442.93,-741.74C478.58,-719.15 566.06,-689.63 639.19,-672.44"/>
<polygon fill="#7f7f7f" stroke="#7f7f7f" points="639.98,-675.85 648.95,-670.2 638.42,-669.03 639.98,-675.85"/>
<text text-anchor="middle" x="528.56" y="-710.09" font-family="monospace" font-size="10.00">uses</text>
</g>
<!-- lightning_types::fetcher -->
<g id="node12" class="node">
<title>lightning_types::fetcher</title>
<polygon fill="#f8c04c" stroke="black" points="95.17,-152.72 95.17,-190.72 256.17,-190.72 256.17,-152.72 95.17,-152.72"/>
<text text-anchor="middle" x="175.67" y="-178.72" font-family="monospace" font-size="10.00">pub(crate) mod</text>
<polyline fill="none" stroke="black" points="95.17,-171.72 256.17,-171.72 "/>
<text text-anchor="middle" x="175.67" y="-159.72" font-family="monospace" font-size="10.00">lightning_types::fetcher</text>
</g>
<!-- lightning_types&#45;&gt;lightning_types::fetcher -->
<g id="edge21" class="edge">
<title>lightning_types&#45;&gt;lightning_types::fetcher</title>
<path fill="none" stroke="#000000" d="M428.92,-741.64C415.89,-654.84 266.87,-302.06 201.98,-199.54"/>
<polygon fill="#000000" stroke="#000000" points="204.76,-197.39 196.34,-190.95 198.91,-201.23 204.76,-197.39"/>
<text text-anchor="middle" x="302.95" y="-462.59" font-family="monospace" font-size="10.00">owns</text>
</g>
<!-- lightning_types&#45;&gt;lightning_types::fetcher -->
<g id="edge22" class="edge">
<title>lightning_types&#45;&gt;lightning_types::fetcher</title>
<path fill="none" stroke="#7f7f7f" stroke-dasharray="5,2" d="M406.1,-741.47C346.71,-654.77 197.48,-304.9 175.41,-200.81"/>
<polygon fill="#7f7f7f" stroke="#7f7f7f" points="178.85,-200.18 173.6,-190.98 171.97,-201.45 178.85,-200.18"/>
<text text-anchor="middle" x="278.26" y="-474.14" font-family="monospace" font-size="10.00">uses</text>
</g>
<!-- lightning_types::metrics -->
<g id="node13" class="node">
<title>lightning_types::metrics</title>
<polygon fill="#f8c04c" stroke="black" points="138.99,-911.79 138.99,-949.79 299.99,-949.79 299.99,-911.79 138.99,-911.79"/>
<text text-anchor="middle" x="219.49" y="-937.79" font-family="monospace" font-size="10.00">pub(crate) mod</text>
<polyline fill="none" stroke="black" points="138.99,-930.79 299.99,-930.79 "/>
<text text-anchor="middle" x="219.49" y="-918.79" font-family="monospace" font-size="10.00">lightning_types::metrics</text>
</g>
<!-- lightning_types&#45;&gt;lightning_types::metrics -->
<g id="edge23" class="edge">
<title>lightning_types&#45;&gt;lightning_types::metrics</title>
<path fill="none" stroke="#000000" d="M403.45,-779.96C366.02,-810.65 292.6,-870.84 250.72,-905.18"/>
<polygon fill="#000000" stroke="#000000" points="248.3,-902.64 242.79,-911.69 252.74,-908.05 248.3,-902.64"/>
<text text-anchor="middle" x="314.59" y="-845.57" font-family="monospace" font-size="10.00">owns</text>
</g>
<!-- lightning_types::misbehavior -->
<g id="node14" class="node">
<title>lightning_types::misbehavior</title>
<polygon fill="#f8c04c" stroke="black" points="740.05,-522.36 740.05,-560.36 925.05,-560.36 925.05,-522.36 740.05,-522.36"/>
<text text-anchor="middle" x="832.55" y="-548.36" font-family="monospace" font-size="10.00">pub(crate) mod</text>
<polyline fill="none" stroke="black" points="740.05,-541.36 925.05,-541.36 "/>
<text text-anchor="middle" x="832.55" y="-529.36" font-family="monospace" font-size="10.00">lightning_types::misbehavior</text>
</g>
<!-- lightning_types&#45;&gt;lightning_types::misbehavior -->
<g id="edge24" class="edge">
<title>lightning_types&#45;&gt;lightning_types::misbehavior</title>
<path fill="none" stroke="#000000" d="M480.65,-751.91C572.57,-717.49 754.43,-617.67 813.82,-567.34"/>
<polygon fill="#000000" stroke="#000000" points="816.25,-569.86 821.37,-560.58 811.58,-564.65 816.25,-569.86"/>
<text text-anchor="middle" x="634.74" y="-662.62" font-family="monospace" font-size="10.00">owns</text>
</g>
<!-- lightning_types&#45;&gt;lightning_types::misbehavior -->
<g id="edge25" class="edge">
<title>lightning_types&#45;&gt;lightning_types::misbehavior</title>
<path fill="none" stroke="#7f7f7f" stroke-dasharray="5,2" d="M438.2,-741.39C482.65,-698.98 641.62,-609.14 743.81,-564.52"/>
<polygon fill="#7f7f7f" stroke="#7f7f7f" points="745.4,-567.65 753.2,-560.48 742.64,-561.22 745.4,-567.65"/>
<text text-anchor="middle" x="578.5" y="-655.96" font-family="monospace" font-size="10.00">uses</text>
</g>
<!-- lightning_types::pool -->
<g id="node15" class="node">
<title>lightning_types::pool</title>
<polygon fill="#f8c04c" stroke="black" points="194.09,-693.18 194.09,-731.18 337.09,-731.18 337.09,-693.18 194.09,-693.18"/>
<text text-anchor="middle" x="265.59" y="-719.18" font-family="monospace" font-size="10.00">pub(crate) mod</text>
<polyline fill="none" stroke="black" points="194.09,-712.18 337.09,-712.18 "/>
<text text-anchor="middle" x="265.59" y="-700.18" font-family="monospace" font-size="10.00">lightning_types::pool</text>
</g>
<!-- lightning_types&#45;&gt;lightning_types::pool -->
<g id="edge26" class="edge">
<title>lightning_types&#45;&gt;lightning_types::pool</title>
<path fill="none" stroke="#000000" d="M417.68,-741.4C403.44,-728.72 375.42,-716.44 347.23,-708.68"/>
<polygon fill="#000000" stroke="#000000" points="347.83,-705.22 337.27,-706.12 346.09,-712 347.83,-705.22"/>
<text text-anchor="middle" x="369.95" y="-728.04" font-family="monospace" font-size="10.00">owns</text>
</g>
<!-- lightning_types&#45;&gt;lightning_types::pool -->
<g id="edge27" class="edge">
<title>lightning_types&#45;&gt;lightning_types::pool</title>
<path fill="none" stroke="#7f7f7f" stroke-dasharray="5,2" d="M373.05,-770.42C341.55,-765.37 303.96,-752.18 282.48,-737.53"/>
<polygon fill="#7f7f7f" stroke="#7f7f7f" points="284.37,-734.57 274.33,-731.19 280.07,-740.09 284.37,-734.57"/>
<text text-anchor="middle" x="315.27" y="-756.98" font-family="monospace" font-size="10.00">uses</text>
</g>
<!-- lightning_types::reputation -->
<g id="node16" class="node">
<title>lightning_types::reputation</title>
<polygon fill="#f8c04c" stroke="black" points="340.75,-0.5 340.75,-38.5 519.75,-38.5 519.75,-0.5 340.75,-0.5"/>
<text text-anchor="middle" x="430.25" y="-26.5" font-family="monospace" font-size="10.00">pub(crate) mod</text>
<polyline fill="none" stroke="black" points="340.75,-19.5 519.75,-19.5 "/>
<text text-anchor="middle" x="430.25" y="-7.5" font-family="monospace" font-size="10.00">lightning_types::reputation</text>
</g>
<!-- lightning_types&#45;&gt;lightning_types::reputation -->
<g id="edge28" class="edge">
<title>lightning_types&#45;&gt;lightning_types::reputation</title>
<path fill="none" stroke="#000000" d="M436.26,-741.76C459.56,-641.23 462.41,-171.82 441.51,-48.98"/>
<polygon fill="#000000" stroke="#000000" points="444.88,-47.98 439.55,-38.83 438.01,-49.31 444.88,-47.98"/>
<text text-anchor="middle" x="426.39" y="-398.37" font-family="monospace" font-size="10.00">owns</text>
</g>
<!-- lightning_types&#45;&gt;lightning_types::reputation -->
<g id="edge29" class="edge">
<title>lightning_types&#45;&gt;lightning_types::reputation</title>
<path fill="none" stroke="#7f7f7f" stroke-dasharray="5,2" d="M417.57,-741.68C395.2,-640.93 396.68,-171.52 418.71,-48.88"/>
<polygon fill="#7f7f7f" stroke="#7f7f7f" points="422.21,-49.24 420.76,-38.74 415.35,-47.85 422.21,-49.24"/>
<text text-anchor="middle" x="405.64" y="-387.28" font-family="monospace" font-size="10.00">uses</text>
</g>
<!-- lightning_types::response -->
<g id="node17" class="node">
<title>lightning_types::response</title>
<polygon fill="#f8c04c" stroke="black" points="650.32,-95.59 650.32,-133.59 817.32,-133.59 817.32,-95.59 650.32,-95.59"/>
<text text-anchor="middle" x="733.82" y="-121.59" font-family="monospace" font-size="10.00">pub(crate) mod</text>
<polyline fill="none" stroke="black" points="650.32,-114.59 817.32,-114.59 "/>
<text text-anchor="middle" x="733.82" y="-102.59" font-family="monospace" font-size="10.00">lightning_types::response</text>
</g>
<!-- lightning_types&#45;&gt;lightning_types::response -->
<g id="edge30" class="edge">
<title>lightning_types&#45;&gt;lightning_types::response</title>
<path fill="none" stroke="#000000" d="M448.07,-741.75C515.39,-649.63 703,-254.79 732.35,-143.57"/>
<polygon fill="#000000" stroke="#000000" points="735.78,-144.25 734.68,-133.71 728.97,-142.63 735.78,-144.25"/>
<text text-anchor="middle" x="577.71" y="-445.66" font-family="monospace" font-size="10.00">owns</text>
</g>
<!-- lightning_types&#45;&gt;lightning_types::response -->
<g id="edge31" class="edge">
<title>lightning_types&#45;&gt;lightning_types::response</title>
<path fill="none" stroke="#7f7f7f" stroke-dasharray="5,2" d="M425.98,-741.59C445.01,-648.67 632.78,-250.54 706.81,-141.83"/>
<polygon fill="#7f7f7f" stroke="#7f7f7f" points="709.68,-143.84 712.57,-133.65 703.95,-139.81 709.68,-143.84"/>
<text text-anchor="middle" x="553.9" y="-433.71" font-family="monospace" font-size="10.00">uses</text>
</g>
<!-- lightning_types::rpc -->
<g id="node18" class="node">
<title>lightning_types::rpc</title>
<polygon fill="#f8c04c" stroke="black" points="37.81,-844.47 37.81,-882.47 174.81,-882.47 174.81,-844.47 37.81,-844.47"/>
<text text-anchor="middle" x="106.31" y="-870.47" font-family="monospace" font-size="10.00">pub(crate) mod</text>
<polyline fill="none" stroke="black" points="37.81,-863.47 174.81,-863.47 "/>
<text text-anchor="middle" x="106.31" y="-851.47" font-family="monospace" font-size="10.00">lightning_types::rpc</text>
</g>
<!-- lightning_types&#45;&gt;lightning_types::rpc -->
<g id="edge32" class="edge">
<title>lightning_types&#45;&gt;lightning_types::rpc</title>
<path fill="none" stroke="#000000" d="M373.13,-757.12C302.25,-768.69 180.87,-808.87 129.79,-838.96"/>
<polygon fill="#000000" stroke="#000000" points="127.68,-836.15 121.1,-844.45 131.42,-842.07 127.68,-836.15"/>
<text text-anchor="middle" x="238.96" y="-801.04" font-family="monospace" font-size="10.00">owns</text>
</g>
<!-- lightning_types&#45;&gt;lightning_types::rpc -->
<g id="edge33" class="edge">
<title>lightning_types&#45;&gt;lightning_types::rpc</title>
<path fill="none" stroke="#7f7f7f" stroke-dasharray="5,2" d="M411.9,-779.9C371.94,-807.2 261.73,-845.76 185.14,-862.32"/>
<polygon fill="#7f7f7f" stroke="#7f7f7f" points="184.12,-858.96 175.04,-864.41 185.54,-865.81 184.12,-858.96"/>
<text text-anchor="middle" x="286.02" y="-824.11" font-family="monospace" font-size="10.00">uses</text>
</g>
<!-- lightning_types::state -->
<g id="node19" class="node">
<title>lightning_types::state</title>
<polygon fill="#f8c04c" stroke="black" points="527.76,-18.59 527.76,-56.59 676.76,-56.59 676.76,-18.59 527.76,-18.59"/>
<text text-anchor="middle" x="602.26" y="-44.59" font-family="monospace" font-size="10.00">pub(crate) mod</text>
<polyline fill="none" stroke="black" points="527.76,-37.59 676.76,-37.59 "/>
<text text-anchor="middle" x="602.26" y="-25.59" font-family="monospace" font-size="10.00">lightning_types::state</text>
</g>
<!-- lightning_types&#45;&gt;lightning_types::state -->
<g id="edge34" class="edge">
<title>lightning_types&#45;&gt;lightning_types::state</title>
<path fill="none" stroke="#000000" d="M441.82,-741.51C488.92,-641.93 599.54,-187.32 606.51,-66.87"/>
<polygon fill="#000000" stroke="#000000" points="610.01,-66.7 606.85,-56.59 603.02,-66.47 610.01,-66.7"/>
<text text-anchor="middle" x="511.66" y="-407.19" font-family="monospace" font-size="10.00">owns</text>
</g>
<!-- lightning_types&#45;&gt;lightning_types::state -->
<g id="edge35" class="edge">
<title>lightning_types&#45;&gt;lightning_types::state</title>
<path fill="none" stroke="#7f7f7f" stroke-dasharray="5,2" d="M422.24,-741.5C422.78,-641.62 532.67,-184.68 583.26,-65.83"/>
<polygon fill="#7f7f7f" stroke="#7f7f7f" points="586.49,-67.18 587.39,-56.63 580.11,-64.32 586.49,-67.18"/>
<text text-anchor="middle" x="490.25" y="-395.67" font-family="monospace" font-size="10.00">uses</text>
</g>
<!-- lightning_types::transaction -->
<g id="node20" class="node">
<title>lightning_types::transaction</title>
<polygon fill="#f8c04c" stroke="black" points="764.51,-371.57 764.51,-409.57 949.51,-409.57 949.51,-371.57 764.51,-371.57"/>
<text text-anchor="middle" x="857.01" y="-397.57" font-family="monospace" font-size="10.00">pub(crate) mod</text>
<polyline fill="none" stroke="black" points="764.51,-390.57 949.51,-390.57 "/>
<text text-anchor="middle" x="857.01" y="-378.57" font-family="monospace" font-size="10.00">lightning_types::transaction</text>
</g>
<!-- lightning_types&#45;&gt;lightning_types::transaction -->
<g id="edge36" class="edge">
<title>lightning_types&#45;&gt;lightning_types::transaction</title>
<path fill="none" stroke="#000000" d="M473.48,-741.56C570.66,-678.9 787.4,-490.91 844.13,-418.17"/>
<polygon fill="#000000" stroke="#000000" points="847.12,-420.02 850.24,-409.89 841.49,-415.86 847.12,-420.02"/>
<text text-anchor="middle" x="646.3" y="-582.87" font-family="monospace" font-size="10.00">owns</text>
</g>
<!-- lightning_types&#45;&gt;lightning_types::transaction -->
<g id="edge37" class="edge">
<title>lightning_types&#45;&gt;lightning_types::transaction</title>
<path fill="none" stroke="#7f7f7f" stroke-dasharray="5,2" d="M433.53,-741.58C477.17,-677.91 697,-485.67 802,-415.3"/>
<polygon fill="#7f7f7f" stroke="#7f7f7f" points="804.15,-418.08 810.58,-409.66 800.3,-412.23 804.15,-418.08"/>
<text text-anchor="middle" x="605.27" y="-581.44" font-family="monospace" font-size="10.00">uses</text>
</g>
<!-- lightning_types::application&#45;&gt;lightning_types::response -->
<g id="edge38" class="edge">
<title>lightning_types::application&#45;&gt;lightning_types::response</title>
<path fill="none" stroke="#7f7f7f" stroke-dasharray="5,2" d="M828.85,-220.39C825.92,-198.6 806.04,-165.12 784.43,-141.18"/>
<polygon fill="#7f7f7f" stroke="#7f7f7f" points="786.81,-138.6 777.37,-133.77 781.74,-143.43 786.81,-138.6"/>
<text text-anchor="middle" x="794.14" y="-183.78" font-family="monospace" font-size="10.00">uses</text>
</g>
<!-- lightning_types::blockstore_server&#45;&gt;lightning_types::blockstore -->
<g id="edge39" class="edge">
<title>lightning_types::blockstore_server&#45;&gt;lightning_types::blockstore</title>
<path fill="none" stroke="#7f7f7f" stroke-dasharray="5,2" d="M157.42,-589.74C148.95,-539.05 126.15,-402.47 116.11,-342.36"/>
<polygon fill="#7f7f7f" stroke="#7f7f7f" points="119.55,-341.69 114.45,-332.4 112.64,-342.84 119.55,-341.69"/>
<text text-anchor="middle" x="124.26" y="-469.05" font-family="monospace" font-size="10.00">uses</text>
</g>
<!-- lightning_types::blockstore_server&#45;&gt;lightning_types::pool -->
<g id="edge40" class="edge">
<title>lightning_types::blockstore_server&#45;&gt;lightning_types::pool</title>
<path fill="none" stroke="#7f7f7f" stroke-dasharray="5,2" d="M180.4,-628.53C196.81,-644.65 220.34,-667.75 238.52,-685.6"/>
<polygon fill="#7f7f7f" stroke="#7f7f7f" points="236.36,-688.38 245.95,-692.89 241.26,-683.38 236.36,-688.38"/>
<text text-anchor="middle" x="196.96" y="-660.06" font-family="monospace" font-size="10.00">uses</text>
</g>
<!-- lightning_types::blockstore_server&#45;&gt;lightning_types::state -->
<g id="edge41" class="edge">
<title>lightning_types::blockstore_server&#45;&gt;lightning_types::state</title>
<path fill="none" stroke="#7f7f7f" stroke-dasharray="5,2" d="M175.35,-590.14C240.65,-505.63 504.65,-163.93 581.3,-64.72"/>
<polygon fill="#7f7f7f" stroke="#7f7f7f" points="584.17,-66.73 587.52,-56.68 578.63,-62.45 584.17,-66.73"/>
<text text-anchor="middle" x="365.83" y="-330.43" font-family="monospace" font-size="10.00">uses</text>
</g>
<!-- lightning_types::connection&#45;&gt;lightning_types::compression -->
<g id="edge42" class="edge">
<title>lightning_types::connection&#45;&gt;lightning_types::compression</title>
<path fill="none" stroke="#7f7f7f" stroke-dasharray="5,2" d="M500.87,-965.32C500.71,-965.33 500.55,-965.33 500.38,-965.34"/>
<polygon fill="#7f7f7f" stroke="#7f7f7f" points="502.97,-961.76 493.08,-965.56 503.18,-968.76 502.97,-961.76"/>
<text text-anchor="middle" x="494.38" y="-957.33" font-family="monospace" font-size="10.00">uses</text>
</g>
<!-- lightning_types::content_registry&#45;&gt;lightning_types::blockstore -->
<g id="edge43" class="edge">
<title>lightning_types::content_registry&#45;&gt;lightning_types::blockstore</title>
<path fill="none" stroke="#7f7f7f" stroke-dasharray="5,2" d="M107.97,-448.75C108.62,-422.08 109.79,-373.71 110.55,-342.57"/>
<polygon fill="#7f7f7f" stroke="#7f7f7f" points="114.05,-342.42 110.8,-332.34 107.05,-342.25 114.05,-342.42"/>
<text text-anchor="middle" x="96.76" y="-398.66" font-family="monospace" font-size="10.00">uses</text>
</g>
<!-- lightning_types::fetcher&#45;&gt;lightning_types::blockstore -->
<g id="edge44" class="edge">
<title>lightning_types::fetcher&#45;&gt;lightning_types::blockstore</title>
<path fill="none" stroke="#7f7f7f" stroke-dasharray="5,2" d="M166.98,-190.82C155.99,-214.99 136.94,-256.84 124.22,-284.8"/>
<polygon fill="#7f7f7f" stroke="#7f7f7f" points="120.97,-283.51 120.01,-294.06 127.34,-286.41 120.97,-283.51"/>
<text text-anchor="middle" x="133.1" y="-240.81" font-family="monospace" font-size="10.00">uses</text>
</g>
<!-- lightning_types::fetcher&#45;&gt;lightning_types::content -->
<g id="edge45" class="edge">
<title>lightning_types::fetcher&#45;&gt;lightning_types::content</title>
<path fill="none" stroke="#7f7f7f" stroke-dasharray="5,2" d="M196.32,-152.69C214.15,-136.26 240.08,-112.37 259.86,-94.14"/>
<polygon fill="#7f7f7f" stroke="#7f7f7f" points="262.4,-96.56 267.38,-87.21 257.66,-91.41 262.4,-96.56"/>
<text text-anchor="middle" x="215.59" y="-126.41" font-family="monospace" font-size="10.00">uses</text>
</g>
<!-- lightning_types::response&#45;&gt;lightning_types::application -->
<g id="edge46" class="edge">
<title>lightning_types::response&#45;&gt;lightning_types::application</title>
<path fill="none" stroke="#7f7f7f" stroke-dasharray="5,2" d="M728.4,-133.64C731.33,-155.43 751.22,-188.91 772.83,-212.84"/>
<polygon fill="#7f7f7f" stroke="#7f7f7f" points="770.45,-215.43 779.88,-220.25 775.52,-210.6 770.45,-215.43"/>
<text text-anchor="middle" x="738.11" y="-176.24" font-family="monospace" font-size="10.00">uses</text>
</g>
<!-- lightning_types::response&#45;&gt;lightning_types::state -->
<g id="edge47" class="edge">
<title>lightning_types::response&#45;&gt;lightning_types::state</title>
<path fill="none" stroke="#7f7f7f" stroke-dasharray="5,2" d="M701.3,-95.55C683.91,-85.37 662.3,-72.73 643.72,-61.85"/>
<polygon fill="#7f7f7f" stroke="#7f7f7f" points="645.26,-58.7 634.87,-56.67 641.73,-64.74 645.26,-58.7"/>
<text text-anchor="middle" x="660.01" y="-81.7" font-family="monospace" font-size="10.00">uses</text>
</g>
<!-- lightning_types::response&#45;&gt;lightning_types::transaction -->
<g id="edge48" class="edge">
<title>lightning_types::response&#45;&gt;lightning_types::transaction</title>
<path fill="none" stroke="#7f7f7f" stroke-dasharray="5,2" d="M728.46,-133.85C731.79,-182.38 785.27,-307.08 824.26,-363.12"/>
<polygon fill="#7f7f7f" stroke="#7f7f7f" points="821.66,-365.5 830.38,-371.51 827.31,-361.37 821.66,-365.5"/>
<text text-anchor="middle" x="763.86" y="-251.48" font-family="monospace" font-size="10.00">uses</text>
</g>
<!-- lightning_types::state&#45;&gt;lightning_types::reputation -->
<g id="edge49" class="edge">
<title>lightning_types::state&#45;&gt;lightning_types::reputation</title>
<path fill="none" stroke="#7f7f7f" stroke-dasharray="5,2" d="M527.56,-29.73C527.41,-29.72 527.25,-29.7 527.09,-29.68"/>
<polygon fill="#7f7f7f" stroke="#7f7f7f" points="530.23,-26.49 519.92,-28.93 529.5,-33.46 530.23,-26.49"/>
<text text-anchor="middle" x="514.83" y="-32.71" font-family="monospace" font-size="10.00">uses</text>
</g>
<!-- lightning_types::transaction&#45;&gt;lightning_types::application -->
<g id="edge50" class="edge">
<title>lightning_types::transaction&#45;&gt;lightning_types::application</title>
<path fill="none" stroke="#7f7f7f" stroke-dasharray="5,2" d="M852.76,-371.43C847.01,-345.57 836.72,-299.22 829.98,-268.9"/>
<polygon fill="#7f7f7f" stroke="#7f7f7f" points="833.34,-267.9 827.76,-258.9 826.51,-269.42 833.34,-267.9"/>
<text text-anchor="middle" x="828.87" y="-323.16" font-family="monospace" font-size="10.00">uses</text>
</g>
<!-- lightning_types::transaction&#45;&gt;lightning_types::bridge -->
<g id="edge51" class="edge">
<title>lightning_types::transaction&#45;&gt;lightning_types::bridge</title>
<path fill="none" stroke="#7f7f7f" stroke-dasharray="5,2" d="M843.82,-409.79C803.41,-468.68 681.15,-646.82 633.86,-715.71"/>
<polygon fill="#7f7f7f" stroke="#7f7f7f" points="630.74,-714.09 627.96,-724.31 636.51,-718.05 630.74,-714.09"/>
<text text-anchor="middle" x="726.34" y="-565.75" font-family="monospace" font-size="10.00">uses</text>
</g>
<!-- lightning_types::transaction&#45;&gt;lightning_types::content_registry -->
<g id="edge52" class="edge">
<title>lightning_types::transaction&#45;&gt;lightning_types::content_registry</title>
<path fill="none" stroke="#7f7f7f" stroke-dasharray="5,2" d="M764.36,-400.15C628.25,-414.21 374.3,-440.46 225.18,-455.87"/>
<polygon fill="#7f7f7f" stroke="#7f7f7f" points="224.65,-452.4 215.07,-456.91 225.37,-459.37 224.65,-452.4"/>
<text text-anchor="middle" x="482.27" y="-431.01" font-family="monospace" font-size="10.00">uses</text>
</g>
<!-- lightning_types::transaction&#45;&gt;lightning_types::dack_aggregator -->
<g id="edge53" class="edge">
<title>lightning_types::transaction&#45;&gt;lightning_types::dack_aggregator</title>
<path fill="none" stroke="#7f7f7f" stroke-dasharray="5,2" d="M849.74,-409.92C831.84,-457.58 785.54,-580.84 764.43,-637.05"/>
<polygon fill="#7f7f7f" stroke="#7f7f7f" points="761.15,-635.82 760.91,-646.41 767.71,-638.28 761.15,-635.82"/>
<text text-anchor="middle" x="794.59" y="-515.48" font-family="monospace" font-size="10.00">uses</text>
</g>
<!-- lightning_types::transaction&#45;&gt;lightning_types::misbehavior -->
<g id="edge54" class="edge">
<title>lightning_types::transaction&#45;&gt;lightning_types::misbehavior</title>
<path fill="none" stroke="#7f7f7f" stroke-dasharray="5,2" d="M853.91,-409.67C849.73,-435.47 842.23,-481.72 837.32,-511.97"/>
<polygon fill="#7f7f7f" stroke="#7f7f7f" points="833.85,-511.51 835.7,-521.94 840.76,-512.63 833.85,-511.51"/>
<text text-anchor="middle" x="833.12" y="-463.82" font-family="monospace" font-size="10.00">uses</text>
</g>
<!-- lightning_types::transaction&#45;&gt;lightning_types::reputation -->
<g id="edge55" class="edge">
<title>lightning_types::transaction&#45;&gt;lightning_types::reputation</title>
<path fill="none" stroke="#7f7f7f" stroke-dasharray="5,2" d="M834.97,-371.4C763.93,-309.63 540.94,-115.75 459.99,-45.36"/>
<polygon fill="#7f7f7f" stroke="#7f7f7f" points="462,-42.47 452.16,-38.55 457.41,-47.76 462,-42.47"/>
<text text-anchor="middle" x="634.98" y="-211.38" font-family="monospace" font-size="10.00">uses</text>
</g>
<!-- lightning_types::transaction&#45;&gt;lightning_types::response -->
<g id="edge56" class="edge">
<title>lightning_types::transaction&#45;&gt;lightning_types::response</title>
<path fill="none" stroke="#7f7f7f" stroke-dasharray="5,2" d="M862.37,-371.31C859.05,-322.78 805.57,-198.08 766.57,-142.03"/>
<polygon fill="#7f7f7f" stroke="#7f7f7f" points="769.17,-139.66 760.45,-133.65 763.52,-143.79 769.17,-139.66"/>
<text text-anchor="middle" x="801.97" y="-259.67" font-family="monospace" font-size="10.00">uses</text>
</g>
<!-- lightning_types::transaction&#45;&gt;lightning_types::state -->
<g id="edge57" class="edge">
<title>lightning_types::transaction&#45;&gt;lightning_types::state</title>
<path fill="none" stroke="#7f7f7f" stroke-dasharray="5,2" d="M843.13,-371.34C800.52,-312.29 671.43,-133.43 621.9,-64.8"/>
<polygon fill="#7f7f7f" stroke="#7f7f7f" points="624.69,-62.68 616,-56.62 619.01,-66.78 624.69,-62.68"/>
<text text-anchor="middle" x="720.02" y="-210.07" font-family="monospace" font-size="10.00">uses</text>
</g>
<!-- rlp -->
<g id="node21" class="node">
<title>rlp</title>
<polygon fill="#5397c8" stroke="black" points="959.32,-371.45 959.32,-409.45 1060.32,-409.45 1060.32,-371.45 959.32,-371.45"/>
<text text-anchor="middle" x="1009.82" y="-397.45" font-family="monospace" font-size="10.00">external crate</text>
<polyline fill="none" stroke="black" points="959.32,-390.45 1060.32,-390.45 "/>
<text text-anchor="middle" x="1009.82" y="-378.45" font-family="monospace" font-size="10.00">rlp</text>
</g>
<!-- lightning_types::transaction&#45;&gt;rlp -->
<g id="edge58" class="edge">
<title>lightning_types::transaction&#45;&gt;rlp</title>
<path fill="none" stroke="#7f7f7f" stroke-dasharray="5,2" d="M949.87,-390.5C949.96,-390.5 950.06,-390.5 950.16,-390.5"/>
<polygon fill="#7f7f7f" stroke="#7f7f7f" points="949.11,-394 959.1,-390.49 949.1,-387 949.11,-394"/>
<text text-anchor="middle" x="962.51" y="-393.5" font-family="monospace" font-size="10.00">uses</text>
</g>
</g>
</svg>
