<?xml version="1.0" encoding="UTF-8" standalone="no"?>
<!DOCTYPE svg PUBLIC "-//W3C//DTD SVG 1.1//EN"
 "http://www.w3.org/Graphics/SVG/1.1/DTD/svg11.dtd">
<!-- Generated by graphviz version 4.0.0 (0)
 -->
<!-- Pages: 1 -->
<svg width="703pt" height="490pt"
 viewBox="0.00 0.00 702.65 490.18" xmlns="http://www.w3.org/2000/svg" xmlns:xlink="http://www.w3.org/1999/xlink">
<g id="graph0" class="graph" transform="scale(1 1) rotate(0) translate(28.8 461.38)">
<polygon fill="white" stroke="transparent" points="-28.8,28.8 -28.8,-461.38 673.85,-461.38 673.85,28.8 -28.8,28.8"/>
<text text-anchor="middle" x="322.53" y="-399.78" font-family="Helvetica,sans-Serif" font-size="36.00">lightning_origin_http</text>
<!-- lightning_origin_http -->
<g id="node1" class="node">
<title>lightning_origin_http</title>
<polygon fill="#5397c8" stroke="black" points="115.01,-115.69 115.01,-153.69 258.01,-153.69 258.01,-115.69 115.01,-115.69"/>
<text text-anchor="middle" x="186.51" y="-141.69" font-family="monospace" font-size="10.00">crate</text>
<polyline fill="none" stroke="black" points="115.01,-134.69 258.01,-134.69 "/>
<text text-anchor="middle" x="186.51" y="-122.69" font-family="monospace" font-size="10.00">lightning_origin_http</text>
</g>
<!-- lightning_origin_http::HttpOrigin -->
<g id="node2" class="node">
<title>lightning_origin_http::HttpOrigin</title>
<polygon fill="#81c169" stroke="black" points="347.53,-230.89 347.53,-268.89 424.53,-268.89 424.53,-230.89 347.53,-230.89"/>
<text text-anchor="middle" x="386.03" y="-256.89" font-family="monospace" font-size="10.00">pub struct</text>
<polyline fill="none" stroke="black" points="347.53,-249.89 424.53,-249.89 "/>
<text text-anchor="middle" x="386.03" y="-237.89" font-family="monospace" font-size="10.00">HttpOrigin</text>
</g>
<!-- lightning_origin_http&#45;&gt;lightning_origin_http::HttpOrigin -->
<g id="edge1" class="edge">
<title>lightning_origin_http&#45;&gt;lightning_origin_http::HttpOrigin</title>
<path fill="none" stroke="#000000" d="M219.46,-153.71C253.54,-173.39 306.87,-204.18 343.98,-225.6"/>
<polygon fill="#000000" stroke="#000000" points="342.63,-228.87 353.04,-230.84 346.13,-222.8 342.63,-228.87"/>
<text text-anchor="middle" x="269.22" y="-192.66" font-family="monospace" font-size="10.00">owns</text>
</g>
<!-- lightning_origin_http::config::Config -->
<g id="node5" class="node">
<title>lightning_origin_http::config::Config</title>
<polygon fill="#81c169" stroke="black" points="468.55,-0.5 468.55,-38.5 569.55,-38.5 569.55,-0.5 468.55,-0.5"/>
<text text-anchor="middle" x="519.05" y="-26.5" font-family="monospace" font-size="10.00">pub struct</text>
<polyline fill="none" stroke="black" points="468.55,-19.5 569.55,-19.5 "/>
<text text-anchor="middle" x="519.05" y="-7.5" font-family="monospace" font-size="10.00">config::Config</text>
</g>
<!-- lightning_origin_http&#45;&gt;lightning_origin_http::config::Config -->
<g id="edge2" class="edge">
<title>lightning_origin_http&#45;&gt;lightning_origin_http::config::Config</title>
<path fill="none" stroke="#000000" d="M258.18,-133.02C333.52,-115.86 447.46,-74.27 496.06,-44.27"/>
<polygon fill="#000000" stroke="#000000" points="498.2,-47.05 504.62,-38.62 494.34,-41.21 498.2,-47.05"/>
<text text-anchor="middle" x="364.62" y="-91.64" font-family="monospace" font-size="10.00">owns</text>
</g>
<!-- lightning_origin_http&#45;&gt;lightning_origin_http::config::Config -->
<g id="edge3" class="edge">
<title>lightning_origin_http&#45;&gt;lightning_origin_http::config::Config</title>
<path fill="none" stroke="#7f7f7f" stroke-dasharray="5,2" d="M200.97,-115.55C245.35,-83.9 379.33,-34.97 458.65,-18.73"/>
<polygon fill="#7f7f7f" stroke="#7f7f7f" points="459.35,-22.16 468.51,-16.83 458.03,-15.29 459.35,-22.16"/>
<text text-anchor="middle" x="317.31" y="-70.14" font-family="monospace" font-size="10.00">uses</text>
</g>
<!-- lightning_origin_http::get_url_and_sri -->
<g id="node6" class="node">
<title>lightning_origin_http::get_url_and_sri</title>
<polygon fill="#f8c04c" stroke="black" points="0,-115.69 0,-153.69 107,-153.69 107,-115.69 0,-115.69"/>
<text text-anchor="middle" x="53.5" y="-141.69" font-family="monospace" font-size="10.00">pub(crate) fn</text>
<polyline fill="none" stroke="black" points="0,-134.69 107,-134.69 "/>
<text text-anchor="middle" x="53.5" y="-122.69" font-family="monospace" font-size="10.00">get_url_and_sri</text>
</g>
<!-- lightning_origin_http&#45;&gt;lightning_origin_http::get_url_and_sri -->
<g id="edge4" class="edge">
<title>lightning_origin_http&#45;&gt;lightning_origin_http::get_url_and_sri</title>
<path fill="none" stroke="#000000" d="M114.95,-134.69C114.78,-134.69 114.62,-134.69 114.46,-134.69"/>
<polygon fill="#000000" stroke="#000000" points="117.24,-131.19 107.24,-134.69 117.24,-138.19 117.24,-131.19"/>
<text text-anchor="middle" x="108.45" y="-126.69" font-family="monospace" font-size="10.00">owns</text>
</g>
<!-- lightning_origin_http::HttpOrigin::fetch -->
<g id="node3" class="node">
<title>lightning_origin_http::HttpOrigin::fetch</title>
<polygon fill="#81c169" stroke="black" points="526.05,-346.08 526.05,-384.08 645.05,-384.08 645.05,-346.08 526.05,-346.08"/>
<text text-anchor="middle" x="585.55" y="-372.08" font-family="monospace" font-size="10.00">pub async fn</text>
<polyline fill="none" stroke="black" points="526.05,-365.08 645.05,-365.08 "/>
<text text-anchor="middle" x="585.55" y="-353.08" font-family="monospace" font-size="10.00">HttpOrigin::fetch</text>
</g>
<!-- lightning_origin_http::HttpOrigin&#45;&gt;lightning_origin_http::HttpOrigin::fetch -->
<g id="edge5" class="edge">
<title>lightning_origin_http::HttpOrigin&#45;&gt;lightning_origin_http::HttpOrigin::fetch</title>
<path fill="none" stroke="#000000" d="M391.54,-269.17C410.86,-294.63 468.6,-332.09 516.32,-353.57"/>
<polygon fill="#000000" stroke="#000000" points="515.15,-356.88 525.72,-357.65 517.94,-350.46 515.15,-356.88"/>
<text text-anchor="middle" x="441.43" y="-314.37" font-family="monospace" font-size="10.00">owns</text>
</g>
<!-- lightning_origin_http::HttpOrigin::new -->
<g id="node4" class="node">
<title>lightning_origin_http::HttpOrigin::new</title>
<polygon fill="#81c169" stroke="black" points="399.04,-115.69 399.04,-153.69 506.04,-153.69 506.04,-115.69 399.04,-115.69"/>
<text text-anchor="middle" x="452.54" y="-141.69" font-family="monospace" font-size="10.00">pub fn</text>
<polyline fill="none" stroke="black" points="399.04,-134.69 506.04,-134.69 "/>
<text text-anchor="middle" x="452.54" y="-122.69" font-family="monospace" font-size="10.00">HttpOrigin::new</text>
</g>
<!-- lightning_origin_http::HttpOrigin&#45;&gt;lightning_origin_http::HttpOrigin::new -->
<g id="edge6" class="edge">
<title>lightning_origin_http::HttpOrigin&#45;&gt;lightning_origin_http::HttpOrigin::new</title>
<path fill="none" stroke="#000000" d="M424.61,-231.4C440.75,-212.89 455.31,-185.31 459.47,-163.95"/>
<polygon fill="#000000" stroke="#000000" points="462.98,-164.07 460.65,-153.73 456.03,-163.27 462.98,-164.07"/>
<text text-anchor="middle" x="429.54" y="-200.68" font-family="monospace" font-size="10.00">owns</text>
</g>
<!-- lightning_origin_http::HttpOrigin::fetch&#45;&gt;lightning_origin_http::HttpOrigin -->
<g id="edge7" class="edge">
<title>lightning_origin_http::HttpOrigin::fetch&#45;&gt;lightning_origin_http::HttpOrigin</title>
<path fill="none" stroke="#7f7f7f" stroke-dasharray="5,2" d="M580.05,-345.79C557.82,-316.5 484.74,-271.33 434.57,-252.87"/>
<polygon fill="#7f7f7f" stroke="#7f7f7f" points="435.45,-249.48 424.86,-249.55 433.19,-256.1 435.45,-249.48"/>
<text text-anchor="middle" x="494.81" y="-302.33" font-family="monospace" font-size="10.00">uses</text>
</g>
<!-- lightning_origin_http::HttpOrigin::new&#45;&gt;lightning_origin_http::HttpOrigin -->
<g id="edge8" class="edge">
<title>lightning_origin_http::HttpOrigin::new&#45;&gt;lightning_origin_http::HttpOrigin</title>
<path fill="none" stroke="#7f7f7f" stroke-dasharray="5,2" d="M413.5,-153.72C397.57,-172.19 383.27,-199.38 379.12,-220.52"/>
<polygon fill="#7f7f7f" stroke="#7f7f7f" points="375.62,-220.3 377.93,-230.64 382.57,-221.12 375.62,-220.3"/>
<text text-anchor="middle" x="383.81" y="-190.12" font-family="monospace" font-size="10.00">uses</text>
</g>
<!-- lightning_origin_http::HttpOrigin::new&#45;&gt;lightning_origin_http::config::Config -->
<g id="edge9" class="edge">
<title>lightning_origin_http::HttpOrigin::new&#45;&gt;lightning_origin_http::config::Config</title>
<path fill="none" stroke="#7f7f7f" stroke-dasharray="5,2" d="M463.52,-115.67C474.26,-97.08 490.72,-68.56 502.94,-47.4"/>
<polygon fill="#7f7f7f" stroke="#7f7f7f" points="506.08,-48.96 508.05,-38.55 500.02,-45.46 506.08,-48.96"/>
<text text-anchor="middle" x="470.73" y="-84.54" font-family="monospace" font-size="10.00">uses</text>
</g>
</g>
</svg>
