<?xml version="1.0" encoding="UTF-8" standalone="no"?>
<!DOCTYPE svg PUBLIC "-//W3C//DTD SVG 1.1//EN"
 "http://www.w3.org/Graphics/SVG/1.1/DTD/svg11.dtd">
<!-- Generated by graphviz version 4.0.0 (0)
 -->
<!-- Pages: 1 -->
<svg width="1113pt" height="762pt"
 viewBox="0.00 0.00 1112.60 762.10" xmlns="http://www.w3.org/2000/svg" xmlns:xlink="http://www.w3.org/1999/xlink">
<g id="graph0" class="graph" transform="scale(1 1) rotate(0) translate(28.8 733.3)">
<polygon fill="white" stroke="transparent" points="-28.8,28.8 -28.8,-733.3 1083.8,-733.3 1083.8,28.8 -28.8,28.8"/>
<text text-anchor="middle" x="527.5" y="-671.7" font-family="Helvetica,sans-Serif" font-size="36.00">lightning_schema</text>
<!-- lightning_schema -->
<g id="node1" class="node">
<title>lightning_schema</title>
<polygon fill="#5397c8" stroke="black" points="0,-463 0,-501 113,-501 113,-463 0,-463"/>
<text text-anchor="middle" x="56.5" y="-489" font-family="monospace" font-size="10.00">crate</text>
<polyline fill="none" stroke="black" points="0,-482 113,-482 "/>
<text text-anchor="middle" x="56.5" y="-470" font-family="monospace" font-size="10.00">lightning_schema</text>
</g>
<!-- lightning_schema::broadcast -->
<g id="node2" class="node">
<title>lightning_schema::broadcast</title>
<polygon fill="#81c169" stroke="black" points="876,-618 876,-656 1055,-656 1055,-618 876,-618"/>
<text text-anchor="middle" x="965.5" y="-644" font-family="monospace" font-size="10.00">pub mod</text>
<polyline fill="none" stroke="black" points="876,-637 1055,-637 "/>
<text text-anchor="middle" x="965.5" y="-625" font-family="monospace" font-size="10.00">lightning_schema::broadcast</text>
</g>
<!-- lightning_schema&#45;&gt;lightning_schema::broadcast -->
<g id="edge1" class="edge">
<title>lightning_schema&#45;&gt;lightning_schema::broadcast</title>
<path fill="none" stroke="#000000" d="M108.67,-501.01C222.3,-542.4 482,-637 482,-637 482,-637 724.43,-637 865.96,-637"/>
<polygon fill="#000000" stroke="#000000" points="865.97,-640.5 875.97,-637 865.97,-633.5 865.97,-640.5"/>
<text text-anchor="middle" x="494.5" y="-640" font-family="monospace" font-size="10.00">owns</text>
</g>
<!-- lightning_schema::envelope -->
<g id="node3" class="node">
<title>lightning_schema::envelope</title>
<polygon fill="#81c169" stroke="black" points="879,-463 879,-501 1052,-501 1052,-463 879,-463"/>
<text text-anchor="middle" x="965.5" y="-489" font-family="monospace" font-size="10.00">pub mod</text>
<polyline fill="none" stroke="black" points="879,-482 1052,-482 "/>
<text text-anchor="middle" x="965.5" y="-470" font-family="monospace" font-size="10.00">lightning_schema::envelope</text>
</g>
<!-- lightning_schema&#45;&gt;lightning_schema::envelope -->
<g id="edge2" class="edge">
<title>lightning_schema&#45;&gt;lightning_schema::envelope</title>
<path fill="none" stroke="#000000" d="M113,-482C228.75,-482 482,-482 482,-482 482,-482 727.22,-482 868.38,-482"/>
<polygon fill="#000000" stroke="#000000" points="868.78,-485.5 878.78,-482 868.78,-478.5 868.78,-485.5"/>
<text text-anchor="middle" x="494.5" y="-485" font-family="monospace" font-size="10.00">owns</text>
</g>
<!-- lightning_schema::handshake -->
<g id="node4" class="node">
<title>lightning_schema::handshake</title>
<polygon fill="#81c169" stroke="black" points="876,-308 876,-346 1055,-346 1055,-308 876,-308"/>
<text text-anchor="middle" x="965.5" y="-334" font-family="monospace" font-size="10.00">pub mod</text>
<polyline fill="none" stroke="black" points="876,-327 1055,-327 "/>
<text text-anchor="middle" x="965.5" y="-315" font-family="monospace" font-size="10.00">lightning_schema::handshake</text>
</g>
<!-- lightning_schema&#45;&gt;lightning_schema::handshake -->
<g id="edge3" class="edge">
<title>lightning_schema&#45;&gt;lightning_schema::handshake</title>
<path fill="none" stroke="#000000" d="M113.1,-463.91C234.09,-425.23 507,-338 507,-338 507,-338 730.46,-332.64 865.38,-329.4"/>
<polygon fill="#000000" stroke="#000000" points="865.82,-332.89 875.74,-329.15 865.65,-325.89 865.82,-332.89"/>
<text text-anchor="middle" x="494.5" y="-330" font-family="monospace" font-size="10.00">owns</text>
</g>
<!-- lightning_schema::broadcast&#45;&gt;lightning_schema -->
<g id="edge4" class="edge">
<title>lightning_schema::broadcast&#45;&gt;lightning_schema</title>
<path fill="none" stroke="#7f7f7f" stroke-dasharray="5,2" d="M946.96,-617.95C861.18,-529.84 507,-166 507,-166 507,-166 198.65,-382.29 92.16,-456.99"/>
<polygon fill="#7f7f7f" stroke="#7f7f7f" points="89.84,-454.34 83.67,-462.94 93.86,-460.07 89.84,-454.34"/>
<text text-anchor="middle" x="494.5" y="-158" font-family="monospace" font-size="10.00">uses</text>
</g>
<!-- lightning_schema::envelope&#45;&gt;lightning_schema -->
<g id="edge5" class="edge">
<title>lightning_schema::envelope&#45;&gt;lightning_schema</title>
<path fill="none" stroke="#7f7f7f" stroke-dasharray="5,2" d="M946.96,-462.95C861.18,-374.84 507,-11 507,-11 507,-11 176.45,-356.59 81.64,-455.72"/>
<polygon fill="#7f7f7f" stroke="#7f7f7f" points="79.1,-453.31 74.72,-462.95 84.16,-458.15 79.1,-453.31"/>
<text text-anchor="middle" x="494.5" y="-3" font-family="monospace" font-size="10.00">uses</text>
</g>
</g>
</svg>
