<?xml version="1.0" encoding="UTF-8" standalone="no"?>
<!DOCTYPE svg PUBLIC "-//W3C//DTD SVG 1.1//EN"
 "http://www.w3.org/Graphics/SVG/1.1/DTD/svg11.dtd">
<!-- Generated by graphviz version 4.0.0 (0)
 -->
<!-- Pages: 1 -->
<svg width="505pt" height="516pt"
 viewBox="0.00 0.00 504.98 515.55" xmlns="http://www.w3.org/2000/svg" xmlns:xlink="http://www.w3.org/1999/xlink">
<g id="graph0" class="graph" transform="scale(1 1) rotate(0) translate(28.8 486.75)">
<polygon fill="white" stroke="transparent" points="-28.8,28.8 -28.8,-486.75 476.18,-486.75 476.18,28.8 -28.8,28.8"/>
<text text-anchor="middle" x="223.69" y="-425.15" font-family="Helvetica,sans-Serif" font-size="36.00">infusion</text>
<!-- infusion -->
<g id="node1" class="node">
<title>infusion</title>
<polygon fill="#5397c8" stroke="black" points="194.19,-124.15 194.19,-162.15 259.19,-162.15 259.19,-124.15 194.19,-124.15"/>
<text text-anchor="middle" x="226.69" y="-150.15" font-family="monospace" font-size="10.00">crate</text>
<polyline fill="none" stroke="black" points="194.19,-143.15 259.19,-143.15 "/>
<text text-anchor="middle" x="226.69" y="-131.15" font-family="monospace" font-size="10.00">infusion</text>
</g>
<!-- infusion::container -->
<g id="node2" class="node">
<title>infusion::container</title>
<polygon fill="#81c169" stroke="black" points="121.01,-247.8 121.01,-285.8 252.01,-285.8 252.01,-247.8 121.01,-247.8"/>
<text text-anchor="middle" x="186.51" y="-273.8" font-family="monospace" font-size="10.00">pub mod</text>
<polyline fill="none" stroke="black" points="121.01,-266.8 252.01,-266.8 "/>
<text text-anchor="middle" x="186.51" y="-254.8" font-family="monospace" font-size="10.00">infusion::container</text>
</g>
<!-- infusion&#45;&gt;infusion::container -->
<g id="edge1" class="edge">
<title>infusion&#45;&gt;infusion::container</title>
<path fill="none" stroke="#000000" d="M196.73,-162.41C183.5,-182.71 173.6,-214.42 173.47,-237.72"/>
<polygon fill="#000000" stroke="#000000" points="169.99,-238.01 174.13,-247.76 176.97,-237.56 169.99,-238.01"/>
<text text-anchor="middle" x="172.6" y="-203.06" font-family="monospace" font-size="10.00">owns</text>
</g>
<!-- infusion&#45;&gt;infusion::container -->
<g id="edge2" class="edge">
<title>infusion&#45;&gt;infusion::container</title>
<path fill="none" stroke="#7f7f7f" stroke-dasharray="5,2" d="M239.1,-162.33C242.1,-182.95 234.05,-215.3 221.66,-238.69"/>
<polygon fill="#7f7f7f" stroke="#7f7f7f" points="218.55,-237.08 216.52,-247.47 224.59,-240.61 218.55,-237.08"/>
<text text-anchor="middle" x="217.88" y="-203.51" font-family="monospace" font-size="10.00">uses</text>
</g>
<!-- infusion::error -->
<g id="node3" class="node">
<title>infusion::error</title>
<polygon fill="#81c169" stroke="black" points="238.2,-324.22 238.2,-362.22 345.2,-362.22 345.2,-324.22 238.2,-324.22"/>
<text text-anchor="middle" x="291.7" y="-350.22" font-family="monospace" font-size="10.00">pub mod</text>
<polyline fill="none" stroke="black" points="238.2,-343.22 345.2,-343.22 "/>
<text text-anchor="middle" x="291.7" y="-331.22" font-family="monospace" font-size="10.00">infusion::error</text>
</g>
<!-- infusion&#45;&gt;infusion::error -->
<g id="edge3" class="edge">
<title>infusion&#45;&gt;infusion::error</title>
<path fill="none" stroke="#000000" d="M217.25,-162.48C214.47,-198.35 237,-274.16 260.65,-315.43"/>
<polygon fill="#000000" stroke="#000000" points="257.81,-317.49 266.03,-324.18 263.77,-313.82 257.81,-317.49"/>
<text text-anchor="middle" x="226.45" y="-230.96" font-family="monospace" font-size="10.00">owns</text>
</g>
<!-- infusion&#45;&gt;infusion::error -->
<g id="edge4" class="edge">
<title>infusion&#45;&gt;infusion::error</title>
<path fill="none" stroke="#7f7f7f" stroke-dasharray="5,2" d="M252.46,-162.34C275.92,-197.76 300.06,-272.49 301.32,-314.12"/>
<polygon fill="#7f7f7f" stroke="#7f7f7f" points="297.82,-314.12 301.11,-324.19 304.82,-314.27 297.82,-314.12"/>
<text text-anchor="middle" x="264.39" y="-230.23" font-family="monospace" font-size="10.00">uses</text>
</g>
<!-- infusion::graph -->
<g id="node4" class="node">
<title>infusion::graph</title>
<polygon fill="#81c169" stroke="black" points="92.84,-371.45 92.84,-409.45 199.84,-409.45 199.84,-371.45 92.84,-371.45"/>
<text text-anchor="middle" x="146.34" y="-397.45" font-family="monospace" font-size="10.00">pub mod</text>
<polyline fill="none" stroke="black" points="92.84,-390.45 199.84,-390.45 "/>
<text text-anchor="middle" x="146.34" y="-378.45" font-family="monospace" font-size="10.00">infusion::graph</text>
</g>
<!-- infusion&#45;&gt;infusion::graph -->
<g id="edge5" class="edge">
<title>infusion&#45;&gt;infusion::graph</title>
<path fill="none" stroke="#000000" d="M202.55,-162.52C174.33,-205.93 140.6,-309.93 138.16,-361.21"/>
<polygon fill="#000000" stroke="#000000" points="134.66,-361.31 138.13,-371.32 141.66,-361.33 134.66,-361.31"/>
<text text-anchor="middle" x="157.85" y="-264.87" font-family="monospace" font-size="10.00">owns</text>
</g>
<!-- infusion&#45;&gt;infusion::graph -->
<g id="edge6" class="edge">
<title>infusion&#45;&gt;infusion::graph</title>
<path fill="none" stroke="#7f7f7f" stroke-dasharray="5,2" d="M234.91,-162.51C237.01,-206.31 204.68,-311.71 175.68,-362.5"/>
<polygon fill="#7f7f7f" stroke="#7f7f7f" points="172.52,-360.96 170.32,-371.33 178.5,-364.6 172.52,-360.96"/>
<text text-anchor="middle" x="192.8" y="-265.51" font-family="monospace" font-size="10.00">uses</text>
</g>
<!-- infusion::macros2 -->
<g id="node5" class="node">
<title>infusion::macros2</title>
<polygon fill="#f8c04c" stroke="black" points="46.66,-0.5 46.66,-38.5 165.66,-38.5 165.66,-0.5 46.66,-0.5"/>
<text text-anchor="middle" x="106.16" y="-26.5" font-family="monospace" font-size="10.00">pub(crate) mod</text>
<polyline fill="none" stroke="black" points="46.66,-19.5 165.66,-19.5 "/>
<text text-anchor="middle" x="106.16" y="-7.5" font-family="monospace" font-size="10.00">infusion::macros2</text>
</g>
<!-- infusion&#45;&gt;infusion::macros2 -->
<g id="edge7" class="edge">
<title>infusion&#45;&gt;infusion::macros2</title>
<path fill="none" stroke="#000000" d="M208.12,-124.1C187.74,-103.19 154.89,-69.49 132,-46.01"/>
<polygon fill="#000000" stroke="#000000" points="134.44,-43.49 124.95,-38.77 129.42,-48.38 134.44,-43.49"/>
<text text-anchor="middle" x="157.56" y="-88.06" font-family="monospace" font-size="10.00">owns</text>
</g>
<!-- infusion::note -->
<g id="node6" class="node">
<title>infusion::note</title>
<polygon fill="#81c169" stroke="black" points="346.38,-94.96 346.38,-132.96 447.38,-132.96 447.38,-94.96 346.38,-94.96"/>
<text text-anchor="middle" x="396.88" y="-120.96" font-family="monospace" font-size="10.00">pub mod</text>
<polyline fill="none" stroke="black" points="346.38,-113.96 447.38,-113.96 "/>
<text text-anchor="middle" x="396.88" y="-101.96" font-family="monospace" font-size="10.00">infusion::note</text>
</g>
<!-- infusion&#45;&gt;infusion::note -->
<g id="edge8" class="edge">
<title>infusion&#45;&gt;infusion::note</title>
<path fill="none" stroke="#000000" d="M259.5,-137.52C281.16,-133.81 310.2,-128.83 336,-124.4"/>
<polygon fill="#000000" stroke="#000000" points="336.81,-127.81 346.08,-122.67 335.63,-120.91 336.81,-127.81"/>
<text text-anchor="middle" x="285.25" y="-133.96" font-family="monospace" font-size="10.00">owns</text>
</g>
<!-- infusion::vtable -->
<g id="node7" class="node">
<title>infusion::vtable</title>
<polygon fill="#81c169" stroke="black" points="0,-247.8 0,-285.8 113,-285.8 113,-247.8 0,-247.8"/>
<text text-anchor="middle" x="56.5" y="-273.8" font-family="monospace" font-size="10.00">pub mod</text>
<polyline fill="none" stroke="black" points="0,-266.8 113,-266.8 "/>
<text text-anchor="middle" x="56.5" y="-254.8" font-family="monospace" font-size="10.00">infusion::vtable</text>
</g>
<!-- infusion&#45;&gt;infusion::vtable -->
<g id="edge9" class="edge">
<title>infusion&#45;&gt;infusion::vtable</title>
<path fill="none" stroke="#000000" d="M200.47,-162.2C171.11,-183.53 123.42,-218.18 91.04,-241.71"/>
<polygon fill="#000000" stroke="#000000" points="88.78,-239.02 82.75,-247.73 92.9,-244.68 88.78,-239.02"/>
<text text-anchor="middle" x="133.25" y="-204.95" font-family="monospace" font-size="10.00">owns</text>
</g>
<!-- infusion::container&#45;&gt;infusion::error -->
<g id="edge10" class="edge">
<title>infusion::container&#45;&gt;infusion::error</title>
<path fill="none" stroke="#7f7f7f" stroke-dasharray="5,2" d="M212.78,-285.89C226.21,-295.64 242.73,-307.64 257.17,-318.13"/>
<polygon fill="#7f7f7f" stroke="#7f7f7f" points="255.25,-321.06 265.4,-324.11 259.36,-315.4 255.25,-321.06"/>
<text text-anchor="middle" x="222.48" y="-305.01" font-family="monospace" font-size="10.00">uses</text>
</g>
<!-- infusion::container&#45;&gt;infusion::graph -->
<g id="edge11" class="edge">
<title>infusion::container&#45;&gt;infusion::graph</title>
<path fill="none" stroke="#7f7f7f" stroke-dasharray="5,2" d="M180.32,-285.85C173.77,-306.03 163.33,-338.14 155.75,-361.46"/>
<polygon fill="#7f7f7f" stroke="#7f7f7f" points="152.36,-360.58 152.6,-371.17 159.02,-362.75 152.36,-360.58"/>
<text text-anchor="middle" x="155.54" y="-326.66" font-family="monospace" font-size="10.00">uses</text>
</g>
<!-- infusion::container&#45;&gt;infusion::vtable -->
<g id="edge12" class="edge">
<title>infusion::container&#45;&gt;infusion::vtable</title>
<path fill="none" stroke="#7f7f7f" stroke-dasharray="5,2" d="M169.25,-247.76C147.3,-238.4 109.15,-237.29 83.38,-244.44"/>
<polygon fill="#7f7f7f" stroke="#7f7f7f" points="82.15,-241.17 73.84,-247.73 84.43,-247.78 82.15,-241.17"/>
<text text-anchor="middle" x="113.81" y="-238.1" font-family="monospace" font-size="10.00">uses</text>
</g>
<!-- infusion::error&#45;&gt;infusion::vtable -->
<g id="edge13" class="edge">
<title>infusion::error&#45;&gt;infusion::vtable</title>
<path fill="none" stroke="#7f7f7f" stroke-dasharray="5,2" d="M238.03,-325.78C203.81,-314.66 159.2,-300.17 122.77,-288.33"/>
<polygon fill="#7f7f7f" stroke="#7f7f7f" points="123.81,-284.99 113.21,-285.23 121.64,-291.65 123.81,-284.99"/>
<text text-anchor="middle" x="167.9" y="-310.06" font-family="monospace" font-size="10.00">uses</text>
</g>
<!-- infusion::graph&#45;&gt;infusion::error -->
<g id="edge14" class="edge">
<title>infusion::graph&#45;&gt;infusion::error</title>
<path fill="none" stroke="#7f7f7f" stroke-dasharray="5,2" d="M200.05,-373C209.17,-370.03 218.73,-366.93 228.08,-363.89"/>
<polygon fill="#7f7f7f" stroke="#7f7f7f" points="229.29,-367.18 237.72,-360.76 227.13,-360.52 229.29,-367.18"/>
<text text-anchor="middle" x="201.56" y="-360.44" font-family="monospace" font-size="10.00">uses</text>
</g>
<!-- infusion::graph&#45;&gt;infusion::vtable -->
<g id="edge15" class="edge">
<title>infusion::graph&#45;&gt;infusion::vtable</title>
<path fill="none" stroke="#7f7f7f" stroke-dasharray="5,2" d="M151.68,-371.42C148.71,-349.88 129,-316.98 107.53,-293.35"/>
<polygon fill="#7f7f7f" stroke="#7f7f7f" points="109.96,-290.82 100.51,-286.02 104.9,-295.66 109.96,-290.82"/>
<text text-anchor="middle" x="117.11" y="-335.38" font-family="monospace" font-size="10.00">uses</text>
</g>
<!-- infusion::vtable&#45;&gt;infusion::container -->
<g id="edge16" class="edge">
<title>infusion::vtable&#45;&gt;infusion::container</title>
<path fill="none" stroke="#7f7f7f" stroke-dasharray="5,2" d="M73.76,-285.84C95.72,-295.2 133.86,-296.3 159.63,-289.15"/>
<polygon fill="#7f7f7f" stroke="#7f7f7f" points="160.86,-292.43 169.18,-285.87 158.58,-285.81 160.86,-292.43"/>
<text text-anchor="middle" x="104.2" y="-290.5" font-family="monospace" font-size="10.00">uses</text>
</g>
<!-- infusion::vtable&#45;&gt;infusion::graph -->
<g id="edge17" class="edge">
<title>infusion::vtable&#45;&gt;infusion::graph</title>
<path fill="none" stroke="#7f7f7f" stroke-dasharray="5,2" d="M51.15,-285.83C54.12,-307.37 73.84,-340.27 95.31,-363.9"/>
<polygon fill="#7f7f7f" stroke="#7f7f7f" points="92.88,-366.43 102.33,-371.23 97.94,-361.58 92.88,-366.43"/>
<text text-anchor="middle" x="60.73" y="-327.86" font-family="monospace" font-size="10.00">uses</text>
</g>
</g>
</svg>
