<?xml version="1.0" encoding="UTF-8" standalone="no"?>
<!DOCTYPE svg PUBLIC "-//W3C//DTD SVG 1.1//EN"
 "http://www.w3.org/Graphics/SVG/1.1/DTD/svg11.dtd">
<!-- Generated by graphviz version 4.0.0 (0)
 -->
<!-- Pages: 1 -->
<svg width="1811pt" height="1418pt"
 viewBox="0.00 0.00 1810.76 1418.10" xmlns="http://www.w3.org/2000/svg" xmlns:xlink="http://www.w3.org/1999/xlink">
<g id="graph0" class="graph" transform="scale(1 1) rotate(0) translate(28.8 1389.3)">
<polygon fill="white" stroke="transparent" points="-28.8,28.8 -28.8,-1389.3 1781.96,-1389.3 1781.96,28.8 -28.8,28.8"/>
<text text-anchor="middle" x="876.58" y="-1327.7" font-family="Helvetica,sans-Serif" font-size="36.00">lightning_resolver</text>
<!-- lightning_resolver -->
<g id="node1" class="node">
<title>lightning_resolver</title>
<polygon fill="#5397c8" stroke="black" points="836.74,-706.1 836.74,-744.1 961.74,-744.1 961.74,-706.1 836.74,-706.1"/>
<text text-anchor="middle" x="899.24" y="-732.1" font-family="monospace" font-size="10.00">crate</text>
<polyline fill="none" stroke="black" points="836.74,-725.1 961.74,-725.1 "/>
<text text-anchor="middle" x="899.24" y="-713.1" font-family="monospace" font-size="10.00">lightning_resolver</text>
</g>
<!-- lightning_resolver::config::Config -->
<g id="node2" class="node">
<title>lightning_resolver::config::Config</title>
<polygon fill="#81c169" stroke="black" points="819.71,-1034.69 819.71,-1072.69 920.71,-1072.69 920.71,-1034.69 819.71,-1034.69"/>
<text text-anchor="middle" x="870.21" y="-1060.69" font-family="monospace" font-size="10.00">pub struct</text>
<polyline fill="none" stroke="black" points="819.71,-1053.69 920.71,-1053.69 "/>
<text text-anchor="middle" x="870.21" y="-1041.69" font-family="monospace" font-size="10.00">config::Config</text>
</g>
<!-- lightning_resolver&#45;&gt;lightning_resolver::config::Config -->
<g id="edge1" class="edge">
<title>lightning_resolver&#45;&gt;lightning_resolver::config::Config</title>
<path fill="none" stroke="#000000" d="M883.53,-744.43C861.86,-799.65 847.19,-958.27 856.83,-1024.31"/>
<polygon fill="#000000" stroke="#000000" points="853.44,-1025.23 858.67,-1034.44 860.33,-1023.98 853.44,-1025.23"/>
<text text-anchor="middle" x="882.68" y="-876.37" font-family="monospace" font-size="10.00">owns</text>
</g>
<!-- lightning_resolver&#45;&gt;lightning_resolver::config::Config -->
<g id="edge2" class="edge">
<title>lightning_resolver&#45;&gt;lightning_resolver::config::Config</title>
<path fill="none" stroke="#7f7f7f" stroke-dasharray="5,2" d="M910.79,-744.4C923.19,-799.68 910.24,-958.74 889.34,-1024.61"/>
<polygon fill="#7f7f7f" stroke="#7f7f7f" points="885.93,-1023.76 885.92,-1034.35 892.53,-1026.07 885.93,-1023.76"/>
<text text-anchor="middle" x="912.56" y="-887.5" font-family="monospace" font-size="10.00">uses</text>
</g>
<!-- lightning_resolver::origin_finder::OriginFinder -->
<g id="node3" class="node">
<title>lightning_resolver::origin_finder::OriginFinder</title>
<polygon fill="#81c169" stroke="black" points="1038.94,-333.08 1038.94,-371.08 1217.94,-371.08 1217.94,-333.08 1038.94,-333.08"/>
<text text-anchor="middle" x="1128.44" y="-359.08" font-family="monospace" font-size="10.00">pub struct</text>
<polyline fill="none" stroke="black" points="1038.94,-352.08 1217.94,-352.08 "/>
<text text-anchor="middle" x="1128.44" y="-340.08" font-family="monospace" font-size="10.00">origin_finder::OriginFinder</text>
</g>
<!-- lightning_resolver&#45;&gt;lightning_resolver::origin_finder::OriginFinder -->
<g id="edge3" class="edge">
<title>lightning_resolver&#45;&gt;lightning_resolver::origin_finder::OriginFinder</title>
<path fill="none" stroke="#000000" d="M928.34,-706.03C985.76,-644.36 1101.52,-455.21 1126.46,-381.34"/>
<polygon fill="#000000" stroke="#000000" points="1129.95,-381.89 1129.46,-371.31 1123.24,-379.89 1129.95,-381.89"/>
<text text-anchor="middle" x="1014.9" y="-546.69" font-family="monospace" font-size="10.00">owns</text>
</g>
<!-- lightning_resolver&#45;&gt;lightning_resolver::origin_finder::OriginFinder -->
<g id="edge4" class="edge">
<title>lightning_resolver&#45;&gt;lightning_resolver::origin_finder::OriginFinder</title>
<path fill="none" stroke="#7f7f7f" stroke-dasharray="5,2" d="M898.22,-705.88C914.01,-643.34 1029.91,-451.03 1092.3,-379.01"/>
<polygon fill="#7f7f7f" stroke="#7f7f7f" points="1095.2,-381.01 1099.27,-371.23 1089.99,-376.34 1095.2,-381.01"/>
<text text-anchor="middle" x="982.76" y="-545.45" font-family="monospace" font-size="10.00">uses</text>
</g>
<!-- lightning_resolver::resolver::Resolver -->
<g id="node7" class="node">
<title>lightning_resolver::resolver::Resolver</title>
<polygon fill="#81c169" stroke="black" points="1191.56,-910.48 1191.56,-948.48 1316.56,-948.48 1316.56,-910.48 1191.56,-910.48"/>
<text text-anchor="middle" x="1254.06" y="-936.48" font-family="monospace" font-size="10.00">pub struct</text>
<polyline fill="none" stroke="black" points="1191.56,-929.48 1316.56,-929.48 "/>
<text text-anchor="middle" x="1254.06" y="-917.48" font-family="monospace" font-size="10.00">resolver::Resolver</text>
</g>
<!-- lightning_resolver&#45;&gt;lightning_resolver::resolver::Resolver -->
<g id="edge5" class="edge">
<title>lightning_resolver&#45;&gt;lightning_resolver::resolver::Resolver</title>
<path fill="none" stroke="#000000" d="M932.3,-744.15C997.14,-781.49 1140.86,-864.28 1212.21,-905.37"/>
<polygon fill="#000000" stroke="#000000" points="1210.54,-908.45 1220.95,-910.41 1214.03,-902.39 1210.54,-908.45"/>
<text text-anchor="middle" x="1059.75" y="-827.76" font-family="monospace" font-size="10.00">owns</text>
</g>
<!-- lightning_resolver::resolver::ResolverInner -->
<g id="node17" class="node">
<title>lightning_resolver::resolver::ResolverInner</title>
<polygon fill="#db5367" stroke="black" points="367.08,-790.3 367.08,-828.3 522.08,-828.3 522.08,-790.3 367.08,-790.3"/>
<text text-anchor="middle" x="444.58" y="-816.3" font-family="monospace" font-size="10.00">pub(self) struct</text>
<polyline fill="none" stroke="black" points="367.08,-809.3 522.08,-809.3 "/>
<text text-anchor="middle" x="444.58" y="-797.3" font-family="monospace" font-size="10.00">resolver::ResolverInner</text>
</g>
<!-- lightning_resolver&#45;&gt;lightning_resolver::resolver::ResolverInner -->
<g id="edge6" class="edge">
<title>lightning_resolver&#45;&gt;lightning_resolver::resolver::ResolverInner</title>
<path fill="none" stroke="#000000" d="M836.5,-736.72C757.56,-751.34 621.58,-776.52 532.36,-793.05"/>
<polygon fill="#000000" stroke="#000000" points="531.45,-789.65 522.26,-794.92 532.73,-796.54 531.45,-789.65"/>
<text text-anchor="middle" x="671.93" y="-767.88" font-family="monospace" font-size="10.00">owns</text>
</g>
<!-- lightning_resolver::origin_finder::OriginFinder::hash -->
<g id="node4" class="node">
<title>lightning_resolver::origin_finder::OriginFinder::hash</title>
<polygon fill="#db5367" stroke="black" points="815.64,-100.87 815.64,-138.87 1030.64,-138.87 1030.64,-100.87 815.64,-100.87"/>
<text text-anchor="middle" x="923.14" y="-126.87" font-family="monospace" font-size="10.00">pub(self) fn</text>
<polyline fill="none" stroke="black" points="815.64,-119.87 1030.64,-119.87 "/>
<text text-anchor="middle" x="923.14" y="-107.87" font-family="monospace" font-size="10.00">origin_finder::OriginFinder::hash</text>
</g>
<!-- lightning_resolver::origin_finder::OriginFinder&#45;&gt;lightning_resolver::origin_finder::OriginFinder::hash -->
<g id="edge7" class="edge">
<title>lightning_resolver::origin_finder::OriginFinder&#45;&gt;lightning_resolver::origin_finder::OriginFinder::hash</title>
<path fill="none" stroke="#000000" d="M1128.02,-333.06C1111.73,-290.24 1029.44,-192.87 973.44,-145.31"/>
<polygon fill="#000000" stroke="#000000" points="975.66,-142.61 965.72,-138.94 971.21,-148.01 975.66,-142.61"/>
<text text-anchor="middle" x="1038.23" y="-242.18" font-family="monospace" font-size="10.00">owns</text>
</g>
<!-- lightning_resolver::origin_finder::OriginFinder::next -->
<g id="node5" class="node">
<title>lightning_resolver::origin_finder::OriginFinder::next</title>
<polygon fill="#db5367" stroke="black" points="1283.37,-140.04 1283.37,-178.04 1498.37,-178.04 1498.37,-140.04 1283.37,-140.04"/>
<text text-anchor="middle" x="1390.87" y="-166.04" font-family="monospace" font-size="10.00">pub(self) async fn</text>
<polyline fill="none" stroke="black" points="1283.37,-159.04 1498.37,-159.04 "/>
<text text-anchor="middle" x="1390.87" y="-147.04" font-family="monospace" font-size="10.00">origin_finder::OriginFinder::next</text>
</g>
<!-- lightning_resolver::origin_finder::OriginFinder&#45;&gt;lightning_resolver::origin_finder::OriginFinder::next -->
<g id="edge8" class="edge">
<title>lightning_resolver::origin_finder::OriginFinder&#45;&gt;lightning_resolver::origin_finder::OriginFinder::next</title>
<path fill="none" stroke="#000000" d="M1190.97,-333.02C1254.16,-297.43 1346.1,-227.18 1379.44,-186.51"/>
<polygon fill="#000000" stroke="#000000" points="1382.4,-188.39 1385.63,-178.3 1376.81,-184.18 1382.4,-188.39"/>
<text text-anchor="middle" x="1272.7" y="-262.76" font-family="monospace" font-size="10.00">owns</text>
</g>
<!-- lightning_resolver::origin_finder::OriginFinder::next_sync -->
<g id="node6" class="node">
<title>lightning_resolver::origin_finder::OriginFinder::next_sync</title>
<polygon fill="#db5367" stroke="black" points="1045.26,-0.5 1045.26,-38.5 1290.26,-38.5 1290.26,-0.5 1045.26,-0.5"/>
<text text-anchor="middle" x="1167.76" y="-26.5" font-family="monospace" font-size="10.00">pub(self) fn</text>
<polyline fill="none" stroke="black" points="1045.26,-19.5 1290.26,-19.5 "/>
<text text-anchor="middle" x="1167.76" y="-7.5" font-family="monospace" font-size="10.00">origin_finder::OriginFinder::next_sync</text>
</g>
<!-- lightning_resolver::origin_finder::OriginFinder&#45;&gt;lightning_resolver::origin_finder::OriginFinder::next_sync -->
<g id="edge9" class="edge">
<title>lightning_resolver::origin_finder::OriginFinder&#45;&gt;lightning_resolver::origin_finder::OriginFinder::next_sync</title>
<path fill="none" stroke="#000000" d="M1144.75,-332.91C1168.25,-277.23 1187.96,-115.46 1180.11,-48.75"/>
<polygon fill="#000000" stroke="#000000" points="1183.51,-47.88 1178.53,-38.53 1176.59,-48.94 1183.51,-47.88"/>
<text text-anchor="middle" x="1149.93" y="-193.83" font-family="monospace" font-size="10.00">owns</text>
</g>
<!-- lightning_resolver::origin_finder::OriginFinder::hash&#45;&gt;lightning_resolver::origin_finder::OriginFinder -->
<g id="edge10" class="edge">
<title>lightning_resolver::origin_finder::OriginFinder::hash&#45;&gt;lightning_resolver::origin_finder::OriginFinder</title>
<path fill="none" stroke="#7f7f7f" stroke-dasharray="5,2" d="M923.56,-138.9C939.85,-181.72 1022.13,-279.09 1078.14,-326.64"/>
<polygon fill="#7f7f7f" stroke="#7f7f7f" points="1075.91,-329.35 1085.85,-333.01 1080.37,-323.95 1075.91,-329.35"/>
<text text-anchor="middle" x="988.35" y="-235.77" font-family="monospace" font-size="10.00">uses</text>
</g>
<!-- lightning_resolver::origin_finder::OriginFinder::next&#45;&gt;lightning_resolver::origin_finder::OriginFinder -->
<g id="edge11" class="edge">
<title>lightning_resolver::origin_finder::OriginFinder::next&#45;&gt;lightning_resolver::origin_finder::OriginFinder</title>
<path fill="none" stroke="#7f7f7f" stroke-dasharray="5,2" d="M1328.35,-178.1C1265.16,-213.68 1173.22,-283.94 1139.88,-324.61"/>
<polygon fill="#7f7f7f" stroke="#7f7f7f" points="1136.92,-322.72 1133.69,-332.81 1142.5,-326.94 1136.92,-322.72"/>
<text text-anchor="middle" x="1221.61" y="-254.35" font-family="monospace" font-size="10.00">uses</text>
</g>
<!-- lightning_resolver::origin_finder::OriginFinder::next_sync&#45;&gt;lightning_resolver::origin_finder::OriginFinder -->
<g id="edge12" class="edge">
<title>lightning_resolver::origin_finder::OriginFinder::next_sync&#45;&gt;lightning_resolver::origin_finder::OriginFinder</title>
<path fill="none" stroke="#7f7f7f" stroke-dasharray="5,2" d="M1151.45,-38.67C1127.95,-94.35 1108.24,-256.12 1116.1,-322.83"/>
<polygon fill="#7f7f7f" stroke="#7f7f7f" points="1112.69,-323.7 1117.67,-333.06 1119.61,-322.64 1112.69,-323.7"/>
<text text-anchor="middle" x="1121.27" y="-183.75" font-family="monospace" font-size="10.00">uses</text>
</g>
<!-- lightning_resolver::resolver::Resolver::Config -->
<g id="node8" class="node">
<title>lightning_resolver::resolver::Resolver::Config</title>
<polygon fill="#db5367" stroke="black" points="974.15,-1143.53 974.15,-1181.53 1147.15,-1181.53 1147.15,-1143.53 974.15,-1143.53"/>
<text text-anchor="middle" x="1060.65" y="-1169.53" font-family="monospace" font-size="10.00">pub(self) type</text>
<polyline fill="none" stroke="black" points="974.15,-1162.53 1147.15,-1162.53 "/>
<text text-anchor="middle" x="1060.65" y="-1150.53" font-family="monospace" font-size="10.00">resolver::Resolver::Config</text>
</g>
<!-- lightning_resolver::resolver::Resolver&#45;&gt;lightning_resolver::resolver::Resolver::Config -->
<g id="edge13" class="edge">
<title>lightning_resolver::resolver::Resolver&#45;&gt;lightning_resolver::resolver::Resolver::Config</title>
<path fill="none" stroke="#000000" d="M1238.23,-948.55C1203.86,-989.96 1122.33,-1088.21 1082.84,-1135.79"/>
<polygon fill="#000000" stroke="#000000" points="1080.12,-1133.59 1076.43,-1143.52 1085.51,-1138.06 1080.12,-1133.59"/>
<text text-anchor="middle" x="1148.04" y="-1045.17" font-family="monospace" font-size="10.00">owns</text>
</g>
<!-- lightning_resolver::resolver::Resolver::OriginFinder -->
<g id="node9" class="node">
<title>lightning_resolver::resolver::Resolver::OriginFinder</title>
<polygon fill="#db5367" stroke="black" points="1051.8,-605.89 1051.8,-643.89 1260.8,-643.89 1260.8,-605.89 1051.8,-605.89"/>
<text text-anchor="middle" x="1156.3" y="-631.89" font-family="monospace" font-size="10.00">pub(self) type</text>
<polyline fill="none" stroke="black" points="1051.8,-624.89 1260.8,-624.89 "/>
<text text-anchor="middle" x="1156.3" y="-612.89" font-family="monospace" font-size="10.00">resolver::Resolver::OriginFinder</text>
</g>
<!-- lightning_resolver::resolver::Resolver&#45;&gt;lightning_resolver::resolver::Resolver::OriginFinder -->
<g id="edge14" class="edge">
<title>lightning_resolver::resolver::Resolver&#45;&gt;lightning_resolver::resolver::Resolver::OriginFinder</title>
<path fill="none" stroke="#000000" d="M1247.94,-910.43C1231.35,-858.72 1185.38,-715.51 1165.58,-653.8"/>
<polygon fill="#000000" stroke="#000000" points="1168.8,-652.39 1162.41,-643.94 1162.13,-654.53 1168.8,-652.39"/>
<text text-anchor="middle" x="1194.26" y="-785.11" font-family="monospace" font-size="10.00">owns</text>
</g>
<!-- lightning_resolver::resolver::Resolver::build_graph -->
<g id="node10" class="node">
<title>lightning_resolver::resolver::Resolver::build_graph</title>
<polygon fill="#db5367" stroke="black" points="1156.21,-1274 1156.21,-1312 1359.21,-1312 1359.21,-1274 1156.21,-1274"/>
<text text-anchor="middle" x="1257.71" y="-1300" font-family="monospace" font-size="10.00">pub(self) fn</text>
<polyline fill="none" stroke="black" points="1156.21,-1293 1359.21,-1293 "/>
<text text-anchor="middle" x="1257.71" y="-1281" font-family="monospace" font-size="10.00">resolver::Resolver::build_graph</text>
</g>
<!-- lightning_resolver::resolver::Resolver&#45;&gt;lightning_resolver::resolver::Resolver::build_graph -->
<g id="edge15" class="edge">
<title>lightning_resolver::resolver::Resolver&#45;&gt;lightning_resolver::resolver::Resolver::build_graph</title>
<path fill="none" stroke="#000000" d="M1254.25,-948.51C1254.85,-1008.12 1256.69,-1191.53 1257.41,-1263.54"/>
<polygon fill="#000000" stroke="#000000" points="1253.91,-1263.75 1257.51,-1273.72 1260.91,-1263.68 1253.91,-1263.75"/>
<text text-anchor="middle" x="1243.33" y="-1109.03" font-family="monospace" font-size="10.00">owns</text>
</g>
<!-- lightning_resolver::resolver::Resolver::get_blake3_hash -->
<g id="node11" class="node">
<title>lightning_resolver::resolver::Resolver::get_blake3_hash</title>
<polygon fill="#db5367" stroke="black" points="1339.14,-986.62 1339.14,-1024.62 1566.14,-1024.62 1566.14,-986.62 1339.14,-986.62"/>
<text text-anchor="middle" x="1452.64" y="-1012.62" font-family="monospace" font-size="10.00">pub(self) async fn</text>
<polyline fill="none" stroke="black" points="1339.14,-1005.62 1566.14,-1005.62 "/>
<text text-anchor="middle" x="1452.64" y="-993.62" font-family="monospace" font-size="10.00">resolver::Resolver::get_blake3_hash</text>
</g>
<!-- lightning_resolver::resolver::Resolver&#45;&gt;lightning_resolver::resolver::Resolver::get_blake3_hash -->
<g id="edge16" class="edge">
<title>lightning_resolver::resolver::Resolver&#45;&gt;lightning_resolver::resolver::Resolver::get_blake3_hash</title>
<path fill="none" stroke="#000000" d="M1262.77,-948.53C1275.93,-961.16 1301.54,-975.29 1329.81,-987.19"/>
<polygon fill="#000000" stroke="#000000" points="1328.49,-990.43 1339.08,-990.96 1331.14,-983.95 1328.49,-990.43"/>
<text text-anchor="middle" x="1283.79" y="-970.86" font-family="monospace" font-size="10.00">owns</text>
</g>
<!-- lightning_resolver::resolver::Resolver::get_origin_finder -->
<g id="node12" class="node">
<title>lightning_resolver::resolver::Resolver::get_origin_finder</title>
<polygon fill="#db5367" stroke="black" points="1224.07,-555.73 1224.07,-593.73 1463.07,-593.73 1463.07,-555.73 1224.07,-555.73"/>
<text text-anchor="middle" x="1343.57" y="-581.73" font-family="monospace" font-size="10.00">pub(self) fn</text>
<polyline fill="none" stroke="black" points="1224.07,-574.73 1463.07,-574.73 "/>
<text text-anchor="middle" x="1343.57" y="-562.73" font-family="monospace" font-size="10.00">resolver::Resolver::get_origin_finder</text>
</g>
<!-- lightning_resolver::resolver::Resolver&#45;&gt;lightning_resolver::resolver::Resolver::get_origin_finder -->
<g id="edge17" class="edge">
<title>lightning_resolver::resolver::Resolver&#45;&gt;lightning_resolver::resolver::Resolver::get_origin_finder</title>
<path fill="none" stroke="#000000" d="M1273.32,-910.45C1305.64,-851.87 1350.56,-675.04 1351.49,-604.29"/>
<polygon fill="#000000" stroke="#000000" points="1354.98,-603.8 1351.25,-593.89 1347.98,-603.96 1354.98,-603.8"/>
<text text-anchor="middle" x="1299.9" y="-760.37" font-family="monospace" font-size="10.00">owns</text>
</g>
<!-- lightning_resolver::resolver::Resolver::get_origins -->
<g id="node13" class="node">
<title>lightning_resolver::resolver::Resolver::get_origins</title>
<polygon fill="#db5367" stroke="black" points="1376.53,-1223.01 1376.53,-1261.01 1579.53,-1261.01 1579.53,-1223.01 1376.53,-1223.01"/>
<text text-anchor="middle" x="1478.03" y="-1249.01" font-family="monospace" font-size="10.00">pub(self) fn</text>
<polyline fill="none" stroke="black" points="1376.53,-1242.01 1579.53,-1242.01 "/>
<text text-anchor="middle" x="1478.03" y="-1230.01" font-family="monospace" font-size="10.00">resolver::Resolver::get_origins</text>
</g>
<!-- lightning_resolver::resolver::Resolver&#45;&gt;lightning_resolver::resolver::Resolver::get_origins -->
<g id="edge18" class="edge">
<title>lightning_resolver::resolver::Resolver&#45;&gt;lightning_resolver::resolver::Resolver::get_origins</title>
<path fill="none" stroke="#000000" d="M1253.77,-948.81C1270.72,-1003.6 1375.61,-1153.79 1436.84,-1215.74"/>
<polygon fill="#000000" stroke="#000000" points="1434.5,-1218.34 1444.09,-1222.85 1439.4,-1213.35 1434.5,-1218.34"/>
<text text-anchor="middle" x="1332.81" y="-1085.28" font-family="monospace" font-size="10.00">owns</text>
</g>
<!-- lightning_resolver::resolver::Resolver::init -->
<g id="node14" class="node">
<title>lightning_resolver::resolver::Resolver::init</title>
<polygon fill="#db5367" stroke="black" points="722.6,-879.61 722.6,-917.61 883.6,-917.61 883.6,-879.61 722.6,-879.61"/>
<text text-anchor="middle" x="803.1" y="-905.61" font-family="monospace" font-size="10.00">pub(self) fn</text>
<polyline fill="none" stroke="black" points="722.6,-898.61 883.6,-898.61 "/>
<text text-anchor="middle" x="803.1" y="-886.61" font-family="monospace" font-size="10.00">resolver::Resolver::init</text>
</g>
<!-- lightning_resolver::resolver::Resolver&#45;&gt;lightning_resolver::resolver::Resolver::init -->
<g id="edge19" class="edge">
<title>lightning_resolver::resolver::Resolver&#45;&gt;lightning_resolver::resolver::Resolver::init</title>
<path fill="none" stroke="#000000" d="M1214.36,-910.4C1143.14,-893.54 992.02,-881.28 894.14,-882.74"/>
<polygon fill="#000000" stroke="#000000" points="893.88,-879.25 883.95,-882.95 894.02,-886.25 893.88,-879.25"/>
<text text-anchor="middle" x="1041.75" y="-899.57" font-family="monospace" font-size="10.00">owns</text>
</g>
<!-- lightning_resolver::resolver::Resolver::publish -->
<g id="node15" class="node">
<title>lightning_resolver::resolver::Resolver::publish</title>
<polygon fill="#db5367" stroke="black" points="1574.16,-1005.69 1574.16,-1043.69 1753.16,-1043.69 1753.16,-1005.69 1574.16,-1005.69"/>
<text text-anchor="middle" x="1663.66" y="-1031.69" font-family="monospace" font-size="10.00">pub(self) async fn</text>
<polyline fill="none" stroke="black" points="1574.16,-1024.69 1753.16,-1024.69 "/>
<text text-anchor="middle" x="1663.66" y="-1012.69" font-family="monospace" font-size="10.00">resolver::Resolver::publish</text>
</g>
<!-- lightning_resolver::resolver::Resolver&#45;&gt;lightning_resolver::resolver::Resolver::publish -->
<g id="edge20" class="edge">
<title>lightning_resolver::resolver::Resolver&#45;&gt;lightning_resolver::resolver::Resolver::publish</title>
<path fill="none" stroke="#000000" d="M1275.65,-948.59C1328.7,-974.89 1467.59,-1010.41 1563.96,-1025.3"/>
<polygon fill="#000000" stroke="#000000" points="1563.62,-1028.78 1574.02,-1026.8 1564.65,-1021.86 1563.62,-1028.78"/>
<text text-anchor="middle" x="1407.3" y="-978.94" font-family="monospace" font-size="10.00">owns</text>
</g>
<!-- lightning_resolver::resolver::Resolver::start -->
<g id="node16" class="node">
<title>lightning_resolver::resolver::Resolver::start</title>
<polygon fill="#db5367" stroke="black" points="1484.69,-747.85 1484.69,-785.85 1651.69,-785.85 1651.69,-747.85 1484.69,-747.85"/>
<text text-anchor="middle" x="1568.19" y="-773.85" font-family="monospace" font-size="10.00">pub(self) async fn</text>
<polyline fill="none" stroke="black" points="1484.69,-766.85 1651.69,-766.85 "/>
<text text-anchor="middle" x="1568.19" y="-754.85" font-family="monospace" font-size="10.00">resolver::Resolver::start</text>
</g>
<!-- lightning_resolver::resolver::Resolver&#45;&gt;lightning_resolver::resolver::Resolver::start -->
<g id="edge21" class="edge">
<title>lightning_resolver::resolver::Resolver&#45;&gt;lightning_resolver::resolver::Resolver::start</title>
<path fill="none" stroke="#000000" d="M1316.56,-920.56C1390.04,-893.57 1506.91,-830.96 1551.11,-792.83"/>
<polygon fill="#000000" stroke="#000000" points="1553.52,-795.37 1558.49,-786.01 1548.77,-790.23 1553.52,-795.37"/>
<text text-anchor="middle" x="1421.34" y="-859.7" font-family="monospace" font-size="10.00">owns</text>
</g>
<!-- lightning_resolver::resolver::Resolver::Config&#45;&gt;lightning_resolver::config::Config -->
<g id="edge22" class="edge">
<title>lightning_resolver::resolver::Resolver::Config&#45;&gt;lightning_resolver::config::Config</title>
<path fill="none" stroke="#7f7f7f" stroke-dasharray="5,2" d="M1027.04,-1143.32C995.09,-1125.06 946.91,-1097.52 912.39,-1077.8"/>
<polygon fill="#7f7f7f" stroke="#7f7f7f" points="913.9,-1074.63 903.48,-1072.71 910.43,-1080.71 913.9,-1074.63"/>
<text text-anchor="middle" x="957.22" y="-1113.56" font-family="monospace" font-size="10.00">uses</text>
</g>
<!-- lightning_resolver::resolver::Resolver::OriginFinder&#45;&gt;lightning_resolver::origin_finder::OriginFinder -->
<g id="edge23" class="edge">
<title>lightning_resolver::resolver::Resolver::OriginFinder&#45;&gt;lightning_resolver::origin_finder::OriginFinder</title>
<path fill="none" stroke="#7f7f7f" stroke-dasharray="5,2" d="M1154.34,-605.71C1149.53,-558.65 1137.14,-437.27 1131.42,-381.23"/>
<polygon fill="#7f7f7f" stroke="#7f7f7f" points="1134.9,-380.84 1130.4,-371.24 1127.93,-381.55 1134.9,-380.84"/>
<text text-anchor="middle" x="1130.38" y="-496.47" font-family="monospace" font-size="10.00">uses</text>
</g>
<!-- lightning_resolver::resolver::Resolver::get_blake3_hash&#45;&gt;lightning_resolver::resolver::Resolver -->
<g id="edge24" class="edge">
<title>lightning_resolver::resolver::Resolver::get_blake3_hash&#45;&gt;lightning_resolver::resolver::Resolver</title>
<path fill="none" stroke="#7f7f7f" stroke-dasharray="5,2" d="M1443.92,-986.56C1423.03,-966.52 1370.74,-942.66 1326.22,-930.01"/>
<polygon fill="#7f7f7f" stroke="#7f7f7f" points="1327.13,-926.63 1316.56,-927.41 1325.31,-933.39 1327.13,-926.63"/>
<text text-anchor="middle" x="1372.57" y="-961.29" font-family="monospace" font-size="10.00">uses</text>
</g>
<!-- lightning_resolver::resolver::Resolver::get_origin_finder&#45;&gt;lightning_resolver::origin_finder::OriginFinder -->
<g id="edge25" class="edge">
<title>lightning_resolver::resolver::Resolver::get_origin_finder&#45;&gt;lightning_resolver::origin_finder::OriginFinder</title>
<path fill="none" stroke="#7f7f7f" stroke-dasharray="5,2" d="M1324.85,-555.36C1286.29,-515.46 1197.96,-424.03 1154.11,-378.64"/>
<polygon fill="#7f7f7f" stroke="#7f7f7f" points="1156.43,-376.01 1146.96,-371.25 1151.39,-380.87 1156.43,-376.01"/>
<text text-anchor="middle" x="1226.98" y="-470" font-family="monospace" font-size="10.00">uses</text>
</g>
<!-- lightning_resolver::resolver::Resolver::get_origin_finder&#45;&gt;lightning_resolver::resolver::Resolver -->
<g id="edge26" class="edge">
<title>lightning_resolver::resolver::Resolver::get_origin_finder&#45;&gt;lightning_resolver::resolver::Resolver</title>
<path fill="none" stroke="#7f7f7f" stroke-dasharray="5,2" d="M1324.31,-593.76C1291.99,-652.35 1247.06,-829.17 1246.14,-899.92"/>
<polygon fill="#7f7f7f" stroke="#7f7f7f" points="1242.65,-900.41 1246.38,-910.33 1249.65,-900.25 1242.65,-900.41"/>
<text text-anchor="middle" x="1272.72" y="-749.84" font-family="monospace" font-size="10.00">uses</text>
</g>
<!-- lightning_resolver::resolver::Resolver::get_origins&#45;&gt;lightning_resolver::resolver::Resolver -->
<g id="edge27" class="edge">
<title>lightning_resolver::resolver::Resolver::get_origins&#45;&gt;lightning_resolver::resolver::Resolver</title>
<path fill="none" stroke="#7f7f7f" stroke-dasharray="5,2" d="M1478.31,-1222.68C1461.36,-1167.89 1356.47,-1017.7 1295.24,-955.75"/>
<polygon fill="#7f7f7f" stroke="#7f7f7f" points="1297.59,-953.15 1288,-948.64 1292.69,-958.14 1297.59,-953.15"/>
<text text-anchor="middle" x="1374.28" y="-1092.21" font-family="monospace" font-size="10.00">uses</text>
</g>
<!-- lightning_resolver::resolver::Resolver::init&#45;&gt;lightning_resolver::config::Config -->
<g id="edge28" class="edge">
<title>lightning_resolver::resolver::Resolver::init&#45;&gt;lightning_resolver::config::Config</title>
<path fill="none" stroke="#7f7f7f" stroke-dasharray="5,2" d="M811.33,-917.63C822.95,-944.49 844.26,-993.74 857.81,-1025.04"/>
<polygon fill="#7f7f7f" stroke="#7f7f7f" points="854.73,-1026.73 861.91,-1034.52 861.15,-1023.95 854.73,-1026.73"/>
<text text-anchor="middle" x="822.07" y="-974.33" font-family="monospace" font-size="10.00">uses</text>
</g>
<!-- lightning_resolver::resolver::Resolver::init&#45;&gt;lightning_resolver::resolver::Resolver -->
<g id="edge29" class="edge">
<title>lightning_resolver::resolver::Resolver::init&#45;&gt;lightning_resolver::resolver::Resolver</title>
<path fill="none" stroke="#7f7f7f" stroke-dasharray="5,2" d="M842.8,-917.69C918.6,-935.64 1084.91,-948.37 1181.22,-944.9"/>
<polygon fill="#7f7f7f" stroke="#7f7f7f" points="1181.62,-948.38 1191.46,-944.45 1181.31,-941.39 1181.62,-948.38"/>
<text text-anchor="middle" x="999.51" y="-934.29" font-family="monospace" font-size="10.00">uses</text>
</g>
<!-- lightning_resolver::resolver::Resolver::init&#45;&gt;lightning_resolver::resolver::ResolverInner -->
<g id="edge30" class="edge">
<title>lightning_resolver::resolver::Resolver::init&#45;&gt;lightning_resolver::resolver::ResolverInner</title>
<path fill="none" stroke="#7f7f7f" stroke-dasharray="5,2" d="M726.63,-879.56C669.16,-865.25 590.4,-845.63 530.72,-830.76"/>
<polygon fill="#7f7f7f" stroke="#7f7f7f" points="531.48,-827.35 520.93,-828.32 529.79,-834.14 531.48,-827.35"/>
<text text-anchor="middle" x="616.17" y="-858.16" font-family="monospace" font-size="10.00">uses</text>
</g>
<!-- lightning_resolver::resolver::Resolver::publish&#45;&gt;lightning_resolver::resolver::Resolver -->
<g id="edge31" class="edge">
<title>lightning_resolver::resolver::Resolver::publish&#45;&gt;lightning_resolver::resolver::Resolver</title>
<path fill="none" stroke="#7f7f7f" stroke-dasharray="5,2" d="M1642.07,-1005.58C1583.87,-976.73 1422.34,-936.78 1327,-925.15"/>
<polygon fill="#7f7f7f" stroke="#7f7f7f" points="1327.19,-921.65 1316.85,-923.99 1326.39,-928.6 1327.19,-921.65"/>
<text text-anchor="middle" x="1472.03" y="-968.37" font-family="monospace" font-size="10.00">uses</text>
</g>
<!-- lightning_resolver::resolver::Resolver::start&#45;&gt;lightning_resolver::resolver::Resolver -->
<g id="edge32" class="edge">
<title>lightning_resolver::resolver::Resolver::start&#45;&gt;lightning_resolver::resolver::Resolver</title>
<path fill="none" stroke="#7f7f7f" stroke-dasharray="5,2" d="M1484.66,-783.96C1411.59,-813.93 1311.4,-868.79 1271.18,-903.46"/>
<polygon fill="#7f7f7f" stroke="#7f7f7f" points="1268.73,-900.96 1263.76,-910.32 1273.48,-906.11 1268.73,-900.96"/>
<text text-anchor="middle" x="1365.42" y="-846.71" font-family="monospace" font-size="10.00">uses</text>
</g>
<!-- lightning_resolver::resolver::ResolverInner::get_blake3_hash -->
<g id="node18" class="node">
<title>lightning_resolver::resolver::ResolverInner::get_blake3_hash</title>
<polygon fill="#db5367" stroke="black" points="281.73,-498.07 281.73,-536.07 538.73,-536.07 538.73,-498.07 281.73,-498.07"/>
<text text-anchor="middle" x="410.23" y="-524.07" font-family="monospace" font-size="10.00">pub(self) async fn</text>
<polyline fill="none" stroke="black" points="281.73,-517.07 538.73,-517.07 "/>
<text text-anchor="middle" x="410.23" y="-505.07" font-family="monospace" font-size="10.00">resolver::ResolverInner::get_blake3_hash</text>
</g>
<!-- lightning_resolver::resolver::ResolverInner&#45;&gt;lightning_resolver::resolver::ResolverInner::get_blake3_hash -->
<g id="edge33" class="edge">
<title>lightning_resolver::resolver::ResolverInner&#45;&gt;lightning_resolver::resolver::ResolverInner::get_blake3_hash</title>
<path fill="none" stroke="#000000" d="M456.18,-789.85C466.7,-739.57 452.12,-605.29 431.14,-545.93"/>
<polygon fill="#000000" stroke="#000000" points="434.32,-544.46 427.44,-536.41 427.8,-547 434.32,-544.46"/>
<text text-anchor="middle" x="431.16" y="-670.89" font-family="monospace" font-size="10.00">owns</text>
</g>
<!-- lightning_resolver::resolver::ResolverInner::get_origins -->
<g id="node19" class="node">
<title>lightning_resolver::resolver::ResolverInner::get_origins</title>
<polygon fill="#db5367" stroke="black" points="65.28,-573.3 65.28,-611.3 298.28,-611.3 298.28,-573.3 65.28,-573.3"/>
<text text-anchor="middle" x="181.78" y="-599.3" font-family="monospace" font-size="10.00">pub(self) fn</text>
<polyline fill="none" stroke="black" points="65.28,-592.3 298.28,-592.3 "/>
<text text-anchor="middle" x="181.78" y="-580.3" font-family="monospace" font-size="10.00">resolver::ResolverInner::get_origins</text>
</g>
<!-- lightning_resolver::resolver::ResolverInner&#45;&gt;lightning_resolver::resolver::ResolverInner::get_origins -->
<g id="edge34" class="edge">
<title>lightning_resolver::resolver::ResolverInner&#45;&gt;lightning_resolver::resolver::ResolverInner::get_origins</title>
<path fill="none" stroke="#000000" d="M440.32,-790.06C415.44,-749 314.11,-661.18 245.51,-616.76"/>
<polygon fill="#000000" stroke="#000000" points="247.21,-613.7 236.89,-611.31 243.47,-619.61 247.21,-613.7"/>
<text text-anchor="middle" x="330.42" y="-706.41" font-family="monospace" font-size="10.00">owns</text>
</g>
<!-- lightning_resolver::resolver::ResolverInner::publish -->
<g id="node20" class="node">
<title>lightning_resolver::resolver::ResolverInner::publish</title>
<polygon fill="#db5367" stroke="black" points="0,-788.85 0,-826.85 209,-826.85 209,-788.85 0,-788.85"/>
<text text-anchor="middle" x="104.5" y="-814.85" font-family="monospace" font-size="10.00">pub(self) async fn</text>
<polyline fill="none" stroke="black" points="0,-807.85 209,-807.85 "/>
<text text-anchor="middle" x="104.5" y="-795.85" font-family="monospace" font-size="10.00">resolver::ResolverInner::publish</text>
</g>
<!-- lightning_resolver::resolver::ResolverInner&#45;&gt;lightning_resolver::resolver::ResolverInner::publish -->
<g id="edge35" class="edge">
<title>lightning_resolver::resolver::ResolverInner&#45;&gt;lightning_resolver::resolver::ResolverInner::publish</title>
<path fill="none" stroke="#000000" d="M400.55,-790.25C339.22,-779.78 228.07,-778.71 160.79,-787.42"/>
<polygon fill="#000000" stroke="#000000" points="160.2,-783.97 150.79,-788.84 161.18,-790.9 160.2,-783.97"/>
<text text-anchor="middle" x="268.17" y="-791.84" font-family="monospace" font-size="10.00">owns</text>
</g>
<!-- lightning_resolver::resolver::ResolverInner::start -->
<g id="node21" class="node">
<title>lightning_resolver::resolver::ResolverInner::start</title>
<polygon fill="#db5367" stroke="black" points="78.13,-1004.46 78.13,-1042.46 275.13,-1042.46 275.13,-1004.46 78.13,-1004.46"/>
<text text-anchor="middle" x="176.63" y="-1030.46" font-family="monospace" font-size="10.00">pub(self) async fn</text>
<polyline fill="none" stroke="black" points="78.13,-1023.46 275.13,-1023.46 "/>
<text text-anchor="middle" x="176.63" y="-1011.46" font-family="monospace" font-size="10.00">resolver::ResolverInner::start</text>
</g>
<!-- lightning_resolver::resolver::ResolverInner&#45;&gt;lightning_resolver::resolver::ResolverInner::start -->
<g id="edge36" class="edge">
<title>lightning_resolver::resolver::ResolverInner&#45;&gt;lightning_resolver::resolver::ResolverInner::start</title>
<path fill="none" stroke="#000000" d="M387.76,-828.32C322.45,-867.59 221.27,-950.86 187.05,-995.95"/>
<polygon fill="#000000" stroke="#000000" points="184.17,-993.97 181.3,-1004.17 189.9,-997.98 184.17,-993.97"/>
<text text-anchor="middle" x="274.91" y="-915.14" font-family="monospace" font-size="10.00">owns</text>
</g>
<!-- lightning_resolver::resolver::ResolverInner::store_mapping -->
<g id="node22" class="node">
<title>lightning_resolver::resolver::ResolverInner::store_mapping</title>
<polygon fill="#db5367" stroke="black" points="271.95,-1093.94 271.95,-1131.94 516.95,-1131.94 516.95,-1093.94 271.95,-1093.94"/>
<text text-anchor="middle" x="394.45" y="-1119.94" font-family="monospace" font-size="10.00">pub(self) fn</text>
<polyline fill="none" stroke="black" points="271.95,-1112.94 516.95,-1112.94 "/>
<text text-anchor="middle" x="394.45" y="-1100.94" font-family="monospace" font-size="10.00">resolver::ResolverInner::store_mapping</text>
</g>
<!-- lightning_resolver::resolver::ResolverInner&#45;&gt;lightning_resolver::resolver::ResolverInner::store_mapping -->
<g id="edge37" class="edge">
<title>lightning_resolver::resolver::ResolverInner&#45;&gt;lightning_resolver::resolver::ResolverInner::store_mapping</title>
<path fill="none" stroke="#000000" d="M441.36,-828.76C432.82,-880.5 409.51,-1021.72 399.32,-1083.43"/>
<polygon fill="#000000" stroke="#000000" points="395.81,-1083.21 397.64,-1093.65 402.72,-1084.35 395.81,-1083.21"/>
<text text-anchor="middle" x="407.84" y="-959.09" font-family="monospace" font-size="10.00">owns</text>
</g>
<!-- lightning_resolver::resolver::ResolverInner::get_blake3_hash&#45;&gt;lightning_resolver::resolver::ResolverInner -->
<g id="edge38" class="edge">
<title>lightning_resolver::resolver::ResolverInner::get_blake3_hash&#45;&gt;lightning_resolver::resolver::ResolverInner</title>
<path fill="none" stroke="#7f7f7f" stroke-dasharray="5,2" d="M398.63,-536.52C388.11,-586.81 402.69,-721.09 423.67,-780.45"/>
<polygon fill="#7f7f7f" stroke="#7f7f7f" points="420.49,-781.91 427.37,-789.96 427.01,-779.38 420.49,-781.91"/>
<text text-anchor="middle" x="398.65" y="-661.48" font-family="monospace" font-size="10.00">uses</text>
</g>
<!-- lightning_resolver::resolver::ResolverInner::get_origins&#45;&gt;lightning_resolver::resolver::ResolverInner -->
<g id="edge39" class="edge">
<title>lightning_resolver::resolver::ResolverInner::get_origins&#45;&gt;lightning_resolver::resolver::ResolverInner</title>
<path fill="none" stroke="#7f7f7f" stroke-dasharray="5,2" d="M186.03,-611.54C210.91,-652.61 312.25,-740.43 380.85,-784.84"/>
<polygon fill="#7f7f7f" stroke="#7f7f7f" points="379.14,-787.91 389.46,-790.3 382.88,-781.99 379.14,-787.91"/>
<text text-anchor="middle" x="270.94" y="-701.19" font-family="monospace" font-size="10.00">uses</text>
</g>
<!-- lightning_resolver::resolver::ResolverInner::publish&#45;&gt;lightning_resolver::resolver::ResolverInner -->
<g id="edge40" class="edge">
<title>lightning_resolver::resolver::ResolverInner::publish&#45;&gt;lightning_resolver::resolver::ResolverInner</title>
<path fill="none" stroke="#7f7f7f" stroke-dasharray="5,2" d="M148.53,-826.91C209.86,-837.37 321.01,-838.45 388.29,-829.74"/>
<polygon fill="#7f7f7f" stroke="#7f7f7f" points="388.88,-833.19 398.29,-828.32 387.89,-826.26 388.88,-833.19"/>
<text text-anchor="middle" x="255.91" y="-831.32" font-family="monospace" font-size="10.00">uses</text>
</g>
<!-- lightning_resolver::resolver::ResolverInner::start&#45;&gt;lightning_resolver::resolver::ResolverInner -->
<g id="edge41" class="edge">
<title>lightning_resolver::resolver::ResolverInner::start&#45;&gt;lightning_resolver::resolver::ResolverInner</title>
<path fill="none" stroke="#7f7f7f" stroke-dasharray="5,2" d="M233.44,-1004.44C298.75,-965.17 399.93,-881.9 434.15,-836.81"/>
<polygon fill="#7f7f7f" stroke="#7f7f7f" points="437.03,-838.79 439.9,-828.59 431.3,-834.78 437.03,-838.79"/>
<text text-anchor="middle" x="321.29" y="-923.62" font-family="monospace" font-size="10.00">uses</text>
</g>
</g>
</svg>
