<?xml version="1.0" encoding="UTF-8" standalone="no"?>
<!DOCTYPE svg PUBLIC "-//W3C//DTD SVG 1.1//EN"
 "http://www.w3.org/Graphics/SVG/1.1/DTD/svg11.dtd">
<!-- Generated by graphviz version 4.0.0 (0)
 -->
<!-- Pages: 1 -->
<svg width="569pt" height="371pt"
 viewBox="0.00 0.00 568.60 370.60" xmlns="http://www.w3.org/2000/svg" xmlns:xlink="http://www.w3.org/1999/xlink">
<g id="graph0" class="graph" transform="scale(1 1) rotate(0) translate(28.8 341.8)">
<polygon fill="white" stroke="transparent" points="-28.8,28.8 -28.8,-341.8 539.8,-341.8 539.8,28.8 -28.8,28.8"/>
<text text-anchor="middle" x="255.5" y="-280.2" font-family="Helvetica,sans-Serif" font-size="36.00">mock</text>
<!-- mock -->
<g id="node1" class="node">
<title>mock</title>
<polygon fill="#5397c8" stroke="black" points="259.94,-41.42 259.94,-79.42 313.94,-79.42 313.94,-41.42 259.94,-41.42"/>
<text text-anchor="middle" x="286.94" y="-67.42" font-family="monospace" font-size="10.00">crate</text>
<polyline fill="none" stroke="black" points="259.94,-60.42 313.94,-60.42 "/>
<text text-anchor="middle" x="286.94" y="-48.42" font-family="monospace" font-size="10.00">mock</text>
</g>
<!-- mock::consensus -->
<g id="node2" class="node">
<title>mock::consensus</title>
<polygon fill="#81c169" stroke="black" points="276.68,-142.59 276.68,-180.59 383.68,-180.59 383.68,-142.59 276.68,-142.59"/>
<text text-anchor="middle" x="330.18" y="-168.59" font-family="monospace" font-size="10.00">pub mod</text>
<polyline fill="none" stroke="black" points="276.68,-161.59 383.68,-161.59 "/>
<text text-anchor="middle" x="330.18" y="-149.59" font-family="monospace" font-size="10.00">mock::consensus</text>
</g>
<!-- mock&#45;&gt;mock::consensus -->
<g id="edge1" class="edge">
<title>mock&#45;&gt;mock::consensus</title>
<path fill="none" stroke="#000000" d="M295.07,-79.45C301.49,-94.47 310.56,-115.68 317.87,-132.78"/>
<polygon fill="#000000" stroke="#000000" points="314.79,-134.48 321.94,-142.3 321.23,-131.73 314.79,-134.48"/>
<text text-anchor="middle" x="293.97" y="-109.12" font-family="monospace" font-size="10.00">owns</text>
</g>
<!-- mock::syncronizer -->
<g id="node3" class="node">
<title>mock::syncronizer</title>
<polygon fill="#81c169" stroke="black" points="119.42,-0.69 119.42,-38.69 238.42,-38.69 238.42,-0.69 119.42,-0.69"/>
<text text-anchor="middle" x="178.92" y="-26.69" font-family="monospace" font-size="10.00">pub mod</text>
<polyline fill="none" stroke="black" points="119.42,-19.69 238.42,-19.69 "/>
<text text-anchor="middle" x="178.92" y="-7.69" font-family="monospace" font-size="10.00">mock::syncronizer</text>
</g>
<!-- mock&#45;&gt;mock::syncronizer -->
<g id="edge2" class="edge">
<title>mock&#45;&gt;mock::syncronizer</title>
<path fill="none" stroke="#000000" d="M259.68,-50.14C253.32,-47.75 246.3,-45.1 239.13,-42.4"/>
<polygon fill="#000000" stroke="#000000" points="239.9,-38.95 229.31,-38.69 237.43,-45.5 239.9,-38.95"/>
<text text-anchor="middle" x="236.9" y="-49.27" font-family="monospace" font-size="10.00">owns</text>
</g>
<!-- tokio::sync::broadcast -->
<g id="node4" class="node">
<title>tokio::sync::broadcast</title>
<polygon fill="#81c169" stroke="black" points="188.27,-226.08 188.27,-264.08 337.27,-264.08 337.27,-226.08 188.27,-226.08"/>
<text text-anchor="middle" x="262.77" y="-252.08" font-family="monospace" font-size="10.00">external mod</text>
<polyline fill="none" stroke="black" points="188.27,-245.08 337.27,-245.08 "/>
<text text-anchor="middle" x="262.77" y="-233.08" font-family="monospace" font-size="10.00">tokio::sync::broadcast</text>
</g>
<!-- mock::consensus&#45;&gt;tokio::sync::broadcast -->
<g id="edge3" class="edge">
<title>mock::consensus&#45;&gt;tokio::sync::broadcast</title>
<path fill="none" stroke="#7f7f7f" stroke-dasharray="5,2" d="M314.55,-180.95C305.7,-191.91 294.49,-205.79 284.76,-217.83"/>
<polygon fill="#7f7f7f" stroke="#7f7f7f" points="281.88,-215.84 278.32,-225.82 287.32,-220.24 281.88,-215.84"/>
<text text-anchor="middle" x="287.16" y="-202.39" font-family="monospace" font-size="10.00">uses</text>
</g>
<!-- tokio::sync::mpsc -->
<g id="node5" class="node">
<title>tokio::sync::mpsc</title>
<polygon fill="#81c169" stroke="black" points="391.69,-98.95 391.69,-136.95 510.69,-136.95 510.69,-98.95 391.69,-98.95"/>
<text text-anchor="middle" x="451.19" y="-124.95" font-family="monospace" font-size="10.00">external mod</text>
<polyline fill="none" stroke="black" points="391.69,-117.95 510.69,-117.95 "/>
<text text-anchor="middle" x="451.19" y="-105.95" font-family="monospace" font-size="10.00">tokio::sync::mpsc</text>
</g>
<!-- mock::consensus&#45;&gt;tokio::sync::mpsc -->
<g id="edge4" class="edge">
<title>mock::consensus&#45;&gt;tokio::sync::mpsc</title>
<path fill="none" stroke="#7f7f7f" stroke-dasharray="5,2" d="M382.91,-142.57C384.82,-141.89 386.74,-141.19 388.66,-140.5"/>
<polygon fill="#7f7f7f" stroke="#7f7f7f" points="390.05,-143.72 398.27,-137.03 387.68,-137.13 390.05,-143.72"/>
<text text-anchor="middle" x="373.29" y="-133.54" font-family="monospace" font-size="10.00">uses</text>
</g>
<!-- tokio::sync::oneshot -->
<g id="node6" class="node">
<title>tokio::sync::oneshot</title>
<polygon fill="#81c169" stroke="black" points="0.2,-60.19 0.2,-98.19 137.2,-98.19 137.2,-60.19 0.2,-60.19"/>
<text text-anchor="middle" x="68.7" y="-86.19" font-family="monospace" font-size="10.00">external mod</text>
<polyline fill="none" stroke="black" points="0.2,-79.19 137.2,-79.19 "/>
<text text-anchor="middle" x="68.7" y="-67.19" font-family="monospace" font-size="10.00">tokio::sync::oneshot</text>
</g>
<!-- mock::syncronizer&#45;&gt;tokio::sync::oneshot -->
<g id="edge5" class="edge">
<title>mock::syncronizer&#45;&gt;tokio::sync::oneshot</title>
<path fill="none" stroke="#7f7f7f" stroke-dasharray="5,2" d="M143.44,-38.84C133.8,-44.05 123.24,-49.74 113.18,-55.18"/>
<polygon fill="#7f7f7f" stroke="#7f7f7f" points="111.25,-52.24 104.11,-60.07 114.57,-58.4 111.25,-52.24"/>
<text text-anchor="middle" x="115.81" y="-50.01" font-family="monospace" font-size="10.00">uses</text>
</g>
</g>
</svg>
