<?xml version="1.0" encoding="UTF-8" standalone="no"?>
<!DOCTYPE svg PUBLIC "-//W3C//DTD SVG 1.1//EN"
 "http://www.w3.org/Graphics/SVG/1.1/DTD/svg11.dtd">
<!-- Generated by graphviz version 4.0.0 (0)
 -->
<!-- Pages: 1 -->
<svg width="1019pt" height="737pt"
 viewBox="0.00 0.00 1018.91 736.66" xmlns="http://www.w3.org/2000/svg" xmlns:xlink="http://www.w3.org/1999/xlink">
<g id="graph0" class="graph" transform="scale(1 1) rotate(0) translate(28.8 707.86)">
<polygon fill="white" stroke="transparent" points="-28.8,28.8 -28.8,-707.86 990.11,-707.86 990.11,28.8 -28.8,28.8"/>
<text text-anchor="middle" x="480.65" y="-646.26" font-family="Helvetica,sans-Serif" font-size="36.00">blake3_wasm</text>
<!-- blake3_wasm -->
<g id="node1" class="node">
<title>blake3_wasm</title>
<polygon fill="#5397c8" stroke="black" points="244.27,-196.53 244.27,-234.53 327.27,-234.53 327.27,-196.53 244.27,-196.53"/>
<text text-anchor="middle" x="285.77" y="-222.53" font-family="monospace" font-size="10.00">crate</text>
<polyline fill="none" stroke="black" points="244.27,-215.53 327.27,-215.53 "/>
<text text-anchor="middle" x="285.77" y="-203.53" font-family="monospace" font-size="10.00">blake3_wasm</text>
</g>
<!-- blake3_wasm::IncrementalVerifier -->
<g id="node2" class="node">
<title>blake3_wasm::IncrementalVerifier</title>
<polygon fill="#81c169" stroke="black" points="516.12,-288.66 516.12,-326.66 647.12,-326.66 647.12,-288.66 516.12,-288.66"/>
<text text-anchor="middle" x="581.62" y="-314.66" font-family="monospace" font-size="10.00">pub struct</text>
<polyline fill="none" stroke="black" points="516.12,-307.66 647.12,-307.66 "/>
<text text-anchor="middle" x="581.62" y="-295.66" font-family="monospace" font-size="10.00">IncrementalVerifier</text>
</g>
<!-- blake3_wasm&#45;&gt;blake3_wasm::IncrementalVerifier -->
<g id="edge1" class="edge">
<title>blake3_wasm&#45;&gt;blake3_wasm::IncrementalVerifier</title>
<path fill="none" stroke="#000000" d="M327.53,-228.54C375.11,-243.35 453.67,-267.81 510.85,-285.62"/>
<polygon fill="#000000" stroke="#000000" points="509.97,-289.01 520.55,-288.64 512.05,-282.33 509.97,-289.01"/>
<text text-anchor="middle" x="406.69" y="-260.08" font-family="monospace" font-size="10.00">owns</text>
</g>
<!-- blake3_wasm::hash -->
<g id="node9" class="node">
<title>blake3_wasm::hash</title>
<polygon fill="#81c169" stroke="black" points="0,-88.28 0,-126.28 54,-126.28 54,-88.28 0,-88.28"/>
<text text-anchor="middle" x="27" y="-114.28" font-family="monospace" font-size="10.00">pub fn</text>
<polyline fill="none" stroke="black" points="0,-107.28 54,-107.28 "/>
<text text-anchor="middle" x="27" y="-95.28" font-family="monospace" font-size="10.00">hash</text>
</g>
<!-- blake3_wasm&#45;&gt;blake3_wasm::hash -->
<g id="edge2" class="edge">
<title>blake3_wasm&#45;&gt;blake3_wasm::hash</title>
<path fill="none" stroke="#000000" d="M244.2,-198.14C194.21,-177.23 111.11,-142.46 63.5,-122.55"/>
<polygon fill="#000000" stroke="#000000" points="64.76,-119.28 54.19,-118.65 62.06,-125.74 64.76,-119.28"/>
<text text-anchor="middle" x="141.35" y="-163.34" font-family="monospace" font-size="10.00">owns</text>
</g>
<!-- blake3_wasm::IncrementalVerifier::feed_content -->
<g id="node3" class="node">
<title>blake3_wasm::IncrementalVerifier::feed_content</title>
<polygon fill="#81c169" stroke="black" points="648.15,-38.07 648.15,-76.07 863.15,-76.07 863.15,-38.07 648.15,-38.07"/>
<text text-anchor="middle" x="755.65" y="-64.07" font-family="monospace" font-size="10.00">pub fn</text>
<polyline fill="none" stroke="black" points="648.15,-57.07 863.15,-57.07 "/>
<text text-anchor="middle" x="755.65" y="-45.07" font-family="monospace" font-size="10.00">IncrementalVerifier::feed_content</text>
</g>
<!-- blake3_wasm::IncrementalVerifier&#45;&gt;blake3_wasm::IncrementalVerifier::feed_content -->
<g id="edge3" class="edge">
<title>blake3_wasm::IncrementalVerifier&#45;&gt;blake3_wasm::IncrementalVerifier::feed_content</title>
<path fill="none" stroke="#000000" d="M617.23,-288.32C663.41,-243.82 735.6,-138.3 754.42,-86.08"/>
<polygon fill="#000000" stroke="#000000" points="757.8,-86.97 757.44,-76.39 751.12,-84.89 757.8,-86.97"/>
<text text-anchor="middle" x="673.32" y="-190.2" font-family="monospace" font-size="10.00">owns</text>
</g>
<!-- blake3_wasm::IncrementalVerifier::feed_content_inner -->
<g id="node4" class="node">
<title>blake3_wasm::IncrementalVerifier::feed_content_inner</title>
<polygon fill="#f8c04c" stroke="black" points="457.43,-592.56 457.43,-630.56 708.43,-630.56 708.43,-592.56 457.43,-592.56"/>
<text text-anchor="middle" x="582.93" y="-618.56" font-family="monospace" font-size="10.00">pub(crate) fn</text>
<polyline fill="none" stroke="black" points="457.43,-611.56 708.43,-611.56 "/>
<text text-anchor="middle" x="582.93" y="-599.56" font-family="monospace" font-size="10.00">IncrementalVerifier::feed_content_inner</text>
</g>
<!-- blake3_wasm::IncrementalVerifier&#45;&gt;blake3_wasm::IncrementalVerifier::feed_content_inner -->
<g id="edge4" class="edge">
<title>blake3_wasm::IncrementalVerifier&#45;&gt;blake3_wasm::IncrementalVerifier::feed_content_inner</title>
<path fill="none" stroke="#000000" d="M567.76,-326.73C551.57,-378.27 551.25,-520.6 566.06,-582.35"/>
<polygon fill="#000000" stroke="#000000" points="562.75,-583.51 568.78,-592.22 569.5,-581.65 562.75,-583.51"/>
<text text-anchor="middle" x="554.41" y="-457.54" font-family="monospace" font-size="10.00">owns</text>
</g>
<!-- blake3_wasm::IncrementalVerifier::feed_proof -->
<g id="node5" class="node">
<title>blake3_wasm::IncrementalVerifier::feed_proof</title>
<polygon fill="#81c169" stroke="black" points="705.76,-488.06 705.76,-526.06 908.76,-526.06 908.76,-488.06 705.76,-488.06"/>
<text text-anchor="middle" x="807.26" y="-514.06" font-family="monospace" font-size="10.00">pub fn</text>
<polyline fill="none" stroke="black" points="705.76,-507.06 908.76,-507.06 "/>
<text text-anchor="middle" x="807.26" y="-495.06" font-family="monospace" font-size="10.00">IncrementalVerifier::feed_proof</text>
</g>
<!-- blake3_wasm::IncrementalVerifier&#45;&gt;blake3_wasm::IncrementalVerifier::feed_proof -->
<g id="edge5" class="edge">
<title>blake3_wasm::IncrementalVerifier&#45;&gt;blake3_wasm::IncrementalVerifier::feed_proof</title>
<path fill="none" stroke="#000000" d="M584.47,-326.98C604.58,-364.79 686.18,-441.29 745.29,-482.24"/>
<polygon fill="#000000" stroke="#000000" points="743.6,-485.31 753.84,-488.01 747.52,-479.51 743.6,-485.31"/>
<text text-anchor="middle" x="652.38" y="-407.61" font-family="monospace" font-size="10.00">owns</text>
</g>
<!-- blake3_wasm::IncrementalVerifier::feed_proof_and_content -->
<g id="node6" class="node">
<title>blake3_wasm::IncrementalVerifier::feed_proof_and_content</title>
<polygon fill="#81c169" stroke="black" points="227.77,-491.77 227.77,-529.77 502.77,-529.77 502.77,-491.77 227.77,-491.77"/>
<text text-anchor="middle" x="365.27" y="-517.77" font-family="monospace" font-size="10.00">pub fn</text>
<polyline fill="none" stroke="black" points="227.77,-510.77 502.77,-510.77 "/>
<text text-anchor="middle" x="365.27" y="-498.77" font-family="monospace" font-size="10.00">IncrementalVerifier::feed_proof_and_content</text>
</g>
<!-- blake3_wasm::IncrementalVerifier&#45;&gt;blake3_wasm::IncrementalVerifier::feed_proof_and_content -->
<g id="edge6" class="edge">
<title>blake3_wasm::IncrementalVerifier&#45;&gt;blake3_wasm::IncrementalVerifier::feed_proof_and_content</title>
<path fill="none" stroke="#000000" d="M530.92,-326.71C477.26,-363.76 398.55,-440.03 372.25,-482.77"/>
<polygon fill="#000000" stroke="#000000" points="369.13,-481.17 367.33,-491.61 375.25,-484.57 369.13,-481.17"/>
<text text-anchor="middle" x="439.08" y="-407.74" font-family="monospace" font-size="10.00">owns</text>
</g>
<!-- blake3_wasm::IncrementalVerifier::feed_proof_inner -->
<g id="node7" class="node">
<title>blake3_wasm::IncrementalVerifier::feed_proof_inner</title>
<polygon fill="#f8c04c" stroke="black" points="401.13,-0.5 401.13,-38.5 640.13,-38.5 640.13,-0.5 401.13,-0.5"/>
<text text-anchor="middle" x="520.63" y="-26.5" font-family="monospace" font-size="10.00">pub(crate) fn</text>
<polyline fill="none" stroke="black" points="401.13,-19.5 640.13,-19.5 "/>
<text text-anchor="middle" x="520.63" y="-7.5" font-family="monospace" font-size="10.00">IncrementalVerifier::feed_proof_inner</text>
</g>
<!-- blake3_wasm::IncrementalVerifier&#45;&gt;blake3_wasm::IncrementalVerifier::feed_proof_inner -->
<g id="edge7" class="edge">
<title>blake3_wasm::IncrementalVerifier&#45;&gt;blake3_wasm::IncrementalVerifier::feed_proof_inner</title>
<path fill="none" stroke="#000000" d="M591.23,-288.58C597.69,-238.9 571.06,-106.09 544.68,-47.64"/>
<polygon fill="#000000" stroke="#000000" points="547.8,-46.06 540.28,-38.59 541.5,-49.12 547.8,-46.06"/>
<text text-anchor="middle" x="555.46" y="-171.11" font-family="monospace" font-size="10.00">owns</text>
</g>
<!-- blake3_wasm::IncrementalVerifier::new -->
<g id="node8" class="node">
<title>blake3_wasm::IncrementalVerifier::new</title>
<polygon fill="#81c169" stroke="black" points="800.31,-249.88 800.31,-287.88 961.31,-287.88 961.31,-249.88 800.31,-249.88"/>
<text text-anchor="middle" x="880.81" y="-275.88" font-family="monospace" font-size="10.00">pub fn</text>
<polyline fill="none" stroke="black" points="800.31,-268.88 961.31,-268.88 "/>
<text text-anchor="middle" x="880.81" y="-256.88" font-family="monospace" font-size="10.00">IncrementalVerifier::new</text>
</g>
<!-- blake3_wasm::IncrementalVerifier&#45;&gt;blake3_wasm::IncrementalVerifier::new -->
<g id="edge8" class="edge">
<title>blake3_wasm::IncrementalVerifier&#45;&gt;blake3_wasm::IncrementalVerifier::new</title>
<path fill="none" stroke="#000000" d="M647.23,-321.8C709.27,-321.07 799.79,-307.89 847.91,-291.46"/>
<polygon fill="#000000" stroke="#000000" points="849.35,-294.66 857.51,-287.9 846.92,-288.09 849.35,-294.66"/>
<text text-anchor="middle" x="735.07" y="-309.63" font-family="monospace" font-size="10.00">owns</text>
</g>
<!-- blake3_wasm::IncrementalVerifier::feed_content&#45;&gt;blake3_wasm::IncrementalVerifier -->
<g id="edge9" class="edge">
<title>blake3_wasm::IncrementalVerifier::feed_content&#45;&gt;blake3_wasm::IncrementalVerifier</title>
<path fill="none" stroke="#7f7f7f" stroke-dasharray="5,2" d="M720.04,-76.41C673.87,-120.91 601.67,-226.43 582.86,-278.65"/>
<polygon fill="#7f7f7f" stroke="#7f7f7f" points="579.47,-277.76 579.83,-288.35 586.16,-279.84 579.47,-277.76"/>
<text text-anchor="middle" x="638.95" y="-180.53" font-family="monospace" font-size="10.00">uses</text>
</g>
<!-- blake3_wasm::IncrementalVerifier::feed_content_inner&#45;&gt;blake3_wasm::IncrementalVerifier -->
<g id="edge10" class="edge">
<title>blake3_wasm::IncrementalVerifier::feed_content_inner&#45;&gt;blake3_wasm::IncrementalVerifier</title>
<path fill="none" stroke="#7f7f7f" stroke-dasharray="5,2" d="M596.8,-592.49C612.99,-540.95 613.31,-398.61 598.5,-336.87"/>
<polygon fill="#7f7f7f" stroke="#7f7f7f" points="601.81,-335.7 595.78,-326.99 595.06,-337.56 601.81,-335.7"/>
<text text-anchor="middle" x="585.15" y="-467.68" font-family="monospace" font-size="10.00">uses</text>
</g>
<!-- blake3_wasm::IncrementalVerifier::feed_proof&#45;&gt;blake3_wasm::IncrementalVerifier -->
<g id="edge11" class="edge">
<title>blake3_wasm::IncrementalVerifier::feed_proof&#45;&gt;blake3_wasm::IncrementalVerifier</title>
<path fill="none" stroke="#7f7f7f" stroke-dasharray="5,2" d="M804.41,-487.74C784.3,-449.94 702.69,-373.44 643.58,-332.49"/>
<polygon fill="#7f7f7f" stroke="#7f7f7f" points="645.28,-329.41 635.04,-326.71 641.36,-335.21 645.28,-329.41"/>
<text text-anchor="middle" x="711.5" y="-413.11" font-family="monospace" font-size="10.00">uses</text>
</g>
<!-- blake3_wasm::IncrementalVerifier::feed_proof_and_content&#45;&gt;blake3_wasm::IncrementalVerifier -->
<g id="edge12" class="edge">
<title>blake3_wasm::IncrementalVerifier::feed_proof_and_content&#45;&gt;blake3_wasm::IncrementalVerifier</title>
<path fill="none" stroke="#7f7f7f" stroke-dasharray="5,2" d="M415.98,-491.72C469.63,-454.67 548.35,-378.4 574.65,-335.66"/>
<polygon fill="#7f7f7f" stroke="#7f7f7f" points="577.76,-337.26 579.56,-326.82 571.64,-333.86 577.76,-337.26"/>
<text text-anchor="middle" x="482.81" y="-416.69" font-family="monospace" font-size="10.00">uses</text>
</g>
<!-- blake3_wasm::IncrementalVerifier::feed_proof_inner&#45;&gt;blake3_wasm::IncrementalVerifier -->
<g id="edge13" class="edge">
<title>blake3_wasm::IncrementalVerifier::feed_proof_inner&#45;&gt;blake3_wasm::IncrementalVerifier</title>
<path fill="none" stroke="#7f7f7f" stroke-dasharray="5,2" d="M511.02,-38.58C504.56,-88.26 531.19,-221.07 557.58,-279.52"/>
<polygon fill="#7f7f7f" stroke="#7f7f7f" points="554.45,-281.1 561.98,-288.57 560.75,-278.04 554.45,-281.1"/>
<text text-anchor="middle" x="521.8" y="-162.05" font-family="monospace" font-size="10.00">uses</text>
</g>
<!-- blake3_wasm::IncrementalVerifier::new&#45;&gt;blake3_wasm::IncrementalVerifier -->
<g id="edge14" class="edge">
<title>blake3_wasm::IncrementalVerifier::new&#45;&gt;blake3_wasm::IncrementalVerifier</title>
<path fill="none" stroke="#7f7f7f" stroke-dasharray="5,2" d="M800.29,-255.13C739.39,-257.53 658.93,-269.91 614.54,-285.07"/>
<polygon fill="#7f7f7f" stroke="#7f7f7f" points="613.28,-281.81 605.11,-288.56 615.7,-288.37 613.28,-281.81"/>
<text text-anchor="middle" x="694.91" y="-273.1" font-family="monospace" font-size="10.00">uses</text>
</g>
</g>
</svg>
