<?xml version="1.0" encoding="UTF-8" standalone="no"?>
<!DOCTYPE svg PUBLIC "-//W3C//DTD SVG 1.1//EN"
 "http://www.w3.org/Graphics/SVG/1.1/DTD/svg11.dtd">
<!-- Generated by graphviz version 4.0.0 (0)
 -->
<!-- Pages: 1 -->
<svg width="1095pt" height="1857pt"
 viewBox="0.00 0.00 1094.60 1856.60" xmlns="http://www.w3.org/2000/svg" xmlns:xlink="http://www.w3.org/1999/xlink">
<g id="graph0" class="graph" transform="scale(1 1) rotate(0) translate(28.8 1827.8)">
<polygon fill="white" stroke="transparent" points="-28.8,28.8 -28.8,-1827.8 1065.8,-1827.8 1065.8,28.8 -28.8,28.8"/>
<text text-anchor="middle" x="518.5" y="-1766.2" font-family="Helvetica,sans-Serif" font-size="36.00">infusion_proc</text>
<!-- infusion_proc -->
<g id="node1" class="node">
<title>infusion_proc</title>
<polygon fill="#5397c8" stroke="black" points="0,-939.5 0,-977.5 95,-977.5 95,-939.5 0,-939.5"/>
<text text-anchor="middle" x="47.5" y="-965.5" font-family="monospace" font-size="10.00">crate</text>
<polyline fill="none" stroke="black" points="0,-958.5 95,-958.5 "/>
<text text-anchor="middle" x="47.5" y="-946.5" font-family="monospace" font-size="10.00">infusion_proc</text>
</g>
<!-- infusion_proc::helpers -->
<g id="node2" class="node">
<title>infusion_proc::helpers</title>
<polygon fill="#f8c04c" stroke="black" points="885,-1712.5 885,-1750.5 1034,-1750.5 1034,-1712.5 885,-1712.5"/>
<text text-anchor="middle" x="959.5" y="-1738.5" font-family="monospace" font-size="10.00">pub(crate) mod</text>
<polyline fill="none" stroke="black" points="885,-1731.5 1034,-1731.5 "/>
<text text-anchor="middle" x="959.5" y="-1719.5" font-family="monospace" font-size="10.00">infusion_proc::helpers</text>
</g>
<!-- infusion_proc&#45;&gt;infusion_proc::helpers -->
<g id="edge1" class="edge">
<title>infusion_proc&#45;&gt;infusion_proc::helpers</title>
<path fill="none" stroke="#000000" d="M58.43,-977.76C124.14,-1093.57 464,-1692.5 464,-1692.5 464,-1692.5 732.74,-1713.65 874.39,-1724.8"/>
<polygon fill="#000000" stroke="#000000" points="874.54,-1728.32 884.78,-1725.62 875.09,-1721.35 874.54,-1728.32"/>
<text text-anchor="middle" x="476.5" y="-1695.5" font-family="monospace" font-size="10.00">owns</text>
</g>
<!-- infusion_proc&#45;&gt;infusion_proc::helpers -->
<g id="edge2" class="edge">
<title>infusion_proc&#45;&gt;infusion_proc::helpers</title>
<path fill="none" stroke="#7f7f7f" stroke-dasharray="5,2" d="M62.32,-977.75C136.52,-1074.13 464,-1499.5 464,-1499.5 464,-1499.5 783.62,-1649.15 909.45,-1708.07"/>
<polygon fill="#7f7f7f" stroke="#7f7f7f" points="907.99,-1711.25 918.53,-1712.32 910.96,-1704.91 907.99,-1711.25"/>
<text text-anchor="middle" x="476.5" y="-1502.5" font-family="monospace" font-size="10.00">uses</text>
</g>
<!-- infusion_proc::on_trait -->
<g id="node3" class="node">
<title>infusion_proc::on_trait</title>
<polygon fill="#f8c04c" stroke="black" points="882,-1601.5 882,-1639.5 1037,-1639.5 1037,-1601.5 882,-1601.5"/>
<text text-anchor="middle" x="959.5" y="-1627.5" font-family="monospace" font-size="10.00">pub(crate) mod</text>
<polyline fill="none" stroke="black" points="882,-1620.5 1037,-1620.5 "/>
<text text-anchor="middle" x="959.5" y="-1608.5" font-family="monospace" font-size="10.00">infusion_proc::on_trait</text>
</g>
<!-- infusion_proc&#45;&gt;infusion_proc::on_trait -->
<g id="edge3" class="edge">
<title>infusion_proc&#45;&gt;infusion_proc::on_trait</title>
<path fill="none" stroke="#000000" d="M73.24,-977.6C164.05,-1044.97 464,-1267.5 464,-1267.5 464,-1267.5 810.8,-1514.57 924.14,-1595.31"/>
<polygon fill="#000000" stroke="#000000" points="922.33,-1598.32 932.51,-1601.27 926.39,-1592.62 922.33,-1598.32"/>
<text text-anchor="middle" x="476.5" y="-1270.5" font-family="monospace" font-size="10.00">owns</text>
</g>
<!-- infusion_proc::parse -->
<g id="node4" class="node">
<title>infusion_proc::parse</title>
<polygon fill="#f8c04c" stroke="black" points="891,-939.5 891,-977.5 1028,-977.5 1028,-939.5 891,-939.5"/>
<text text-anchor="middle" x="959.5" y="-965.5" font-family="monospace" font-size="10.00">pub(crate) mod</text>
<polyline fill="none" stroke="black" points="891,-958.5 1028,-958.5 "/>
<text text-anchor="middle" x="959.5" y="-946.5" font-family="monospace" font-size="10.00">infusion_proc::parse</text>
</g>
<!-- infusion_proc&#45;&gt;infusion_proc::parse -->
<g id="edge4" class="edge">
<title>infusion_proc&#45;&gt;infusion_proc::parse</title>
<path fill="none" stroke="#000000" d="M95.28,-958.5C204.68,-958.5 464,-958.5 464,-958.5 464,-958.5 740.8,-958.5 880.63,-958.5"/>
<polygon fill="#000000" stroke="#000000" points="880.86,-962 890.86,-958.5 880.86,-955 880.86,-962"/>
<text text-anchor="middle" x="476.5" y="-961.5" font-family="monospace" font-size="10.00">owns</text>
</g>
<!-- infusion_proc&#45;&gt;infusion_proc::parse -->
<g id="edge5" class="edge">
<title>infusion_proc&#45;&gt;infusion_proc::parse</title>
<path fill="none" stroke="#7f7f7f" stroke-dasharray="5,2" d="M83.63,-939.35C189.07,-883.46 489,-724.5 489,-724.5 489,-724.5 791.99,-875.19 911.69,-934.72"/>
<polygon fill="#7f7f7f" stroke="#7f7f7f" points="910.48,-938.03 921,-939.35 913.6,-931.76 910.48,-938.03"/>
<text text-anchor="middle" x="476.5" y="-716.5" font-family="monospace" font-size="10.00">uses</text>
</g>
<!-- infusion_proc::sig -->
<g id="node5" class="node">
<title>infusion_proc::sig</title>
<polygon fill="#f8c04c" stroke="black" points="897,-111.5 897,-149.5 1022,-149.5 1022,-111.5 897,-111.5"/>
<text text-anchor="middle" x="959.5" y="-137.5" font-family="monospace" font-size="10.00">pub(crate) mod</text>
<polyline fill="none" stroke="black" points="897,-130.5 1022,-130.5 "/>
<text text-anchor="middle" x="959.5" y="-118.5" font-family="monospace" font-size="10.00">infusion_proc::sig</text>
</g>
<!-- infusion_proc&#45;&gt;infusion_proc::sig -->
<g id="edge6" class="edge">
<title>infusion_proc&#45;&gt;infusion_proc::sig</title>
<path fill="none" stroke="#000000" d="M67.04,-939.29C152.48,-855.3 489,-524.5 489,-524.5 489,-524.5 824.41,-243.63 928.84,-156.17"/>
<polygon fill="#000000" stroke="#000000" points="931.39,-158.61 936.81,-149.5 926.89,-153.24 931.39,-158.61"/>
<text text-anchor="middle" x="476.5" y="-516.5" font-family="monospace" font-size="10.00">owns</text>
</g>
<!-- infusion_proc::utils -->
<g id="node6" class="node">
<title>infusion_proc::utils</title>
<polygon fill="#f8c04c" stroke="black" points="891,-0.5 891,-38.5 1028,-38.5 1028,-0.5 891,-0.5"/>
<text text-anchor="middle" x="959.5" y="-26.5" font-family="monospace" font-size="10.00">pub(crate) mod</text>
<polyline fill="none" stroke="black" points="891,-19.5 1028,-19.5 "/>
<text text-anchor="middle" x="959.5" y="-7.5" font-family="monospace" font-size="10.00">infusion_proc::utils</text>
</g>
<!-- infusion_proc&#45;&gt;infusion_proc::utils -->
<g id="edge7" class="edge">
<title>infusion_proc&#45;&gt;infusion_proc::utils</title>
<path fill="none" stroke="#000000" d="M58.41,-939.47C126.4,-820.89 489,-188.5 489,-188.5 489,-188.5 768.63,-88.06 896.75,-42.04"/>
<polygon fill="#000000" stroke="#000000" points="898.21,-45.23 906.44,-38.56 895.85,-38.64 898.21,-45.23"/>
<text text-anchor="middle" x="476.5" y="-180.5" font-family="monospace" font-size="10.00">owns</text>
</g>
<!-- infusion_proc&#45;&gt;infusion_proc::utils -->
<g id="edge8" class="edge">
<title>infusion_proc&#45;&gt;infusion_proc::utils</title>
<path fill="none" stroke="#7f7f7f" stroke-dasharray="5,2" d="M56.72,-939.18C120.12,-806.35 489,-33.5 489,-33.5 489,-33.5 746.64,-25.83 880.62,-21.85"/>
<polygon fill="#7f7f7f" stroke="#7f7f7f" points="880.94,-25.34 890.83,-21.54 880.73,-18.34 880.94,-25.34"/>
<text text-anchor="middle" x="476.5" y="-25.5" font-family="monospace" font-size="10.00">uses</text>
</g>
<!-- infusion_proc::on_trait&#45;&gt;infusion_proc::sig -->
<g id="edge9" class="edge">
<title>infusion_proc::on_trait&#45;&gt;infusion_proc::sig</title>
<path fill="none" stroke="#7f7f7f" stroke-dasharray="5,2" d="M956.4,-1601.34C937.54,-1484.73 839,-875.5 839,-875.5 839,-875.5 932.41,-297.98 954.75,-159.9"/>
<polygon fill="#7f7f7f" stroke="#7f7f7f" points="958.26,-160.1 956.4,-149.66 951.35,-158.98 958.26,-160.1"/>
<text text-anchor="middle" x="833.5" y="-873" font-family="monospace" font-size="10.00">uses</text>
</g>
<!-- infusion_proc::on_trait&#45;&gt;infusion_proc::utils -->
<g id="edge10" class="edge">
<title>infusion_proc::on_trait&#45;&gt;infusion_proc::utils</title>
<path fill="none" stroke="#7f7f7f" stroke-dasharray="5,2" d="M956.64,-1601.3C938.39,-1478.79 839,-811.5 839,-811.5 839,-811.5 933.21,-192.32 955.03,-48.91"/>
<polygon fill="#7f7f7f" stroke="#7f7f7f" points="958.54,-49.1 956.58,-38.69 951.62,-48.04 958.54,-49.1"/>
<text text-anchor="middle" x="833.5" y="-809" font-family="monospace" font-size="10.00">uses</text>
</g>
</g>
</svg>
