<?xml version="1.0" encoding="UTF-8" standalone="no"?>
<!DOCTYPE svg PUBLIC "-//W3C//DTD SVG 1.1//EN"
 "http://www.w3.org/Graphics/SVG/1.1/DTD/svg11.dtd">
<!-- Generated by graphviz version 4.0.0 (0)
 -->
<!-- Pages: 1 -->
<svg width="1060pt" height="909pt"
 viewBox="0.00 0.00 1060.39 909.16" xmlns="http://www.w3.org/2000/svg" xmlns:xlink="http://www.w3.org/1999/xlink">
<g id="graph0" class="graph" transform="scale(1 1) rotate(0) translate(28.8 880.36)">
<polygon fill="white" stroke="transparent" points="-28.8,28.8 -28.8,-880.36 1031.59,-880.36 1031.59,28.8 -28.8,28.8"/>
<text text-anchor="middle" x="501.4" y="-818.76" font-family="Helvetica,sans-Serif" font-size="36.00">fleek_service_ai</text>
<!-- fleek_service_ai -->
<g id="node1" class="node">
<title>fleek_service_ai</title>
<polygon fill="#5397c8" stroke="black" points="139.9,-330.39 139.9,-368.39 252.9,-368.39 252.9,-330.39 139.9,-330.39"/>
<text text-anchor="middle" x="196.4" y="-356.39" font-family="monospace" font-size="10.00">crate</text>
<polyline fill="none" stroke="black" points="139.9,-349.39 252.9,-349.39 "/>
<text text-anchor="middle" x="196.4" y="-337.39" font-family="monospace" font-size="10.00">fleek_service_ai</text>
</g>
<!-- fleek_service_ai::StartSession -->
<g id="node2" class="node">
<title>fleek_service_ai::StartSession</title>
<polygon fill="#81c169" stroke="black" points="823.58,-429.89 823.58,-467.89 912.58,-467.89 912.58,-429.89 823.58,-429.89"/>
<text text-anchor="middle" x="868.08" y="-455.89" font-family="monospace" font-size="10.00">pub struct</text>
<polyline fill="none" stroke="black" points="823.58,-448.89 912.58,-448.89 "/>
<text text-anchor="middle" x="868.08" y="-436.89" font-family="monospace" font-size="10.00">StartSession</text>
</g>
<!-- fleek_service_ai&#45;&gt;fleek_service_ai::StartSession -->
<g id="edge1" class="edge">
<title>fleek_service_ai&#45;&gt;fleek_service_ai::StartSession</title>
<path fill="none" stroke="#000000" d="M233.43,-368.52C345.39,-402.65 680.48,-452.92 813.15,-456.29"/>
<polygon fill="#000000" stroke="#000000" points="813.42,-459.79 823.48,-456.46 813.54,-452.79 813.42,-459.79"/>
<text text-anchor="middle" x="535.79" y="-415.41" font-family="monospace" font-size="10.00">owns</text>
</g>
<!-- fleek_service_ai&#45;&gt;fleek_service_ai::StartSession -->
<g id="edge2" class="edge">
<title>fleek_service_ai&#45;&gt;fleek_service_ai::StartSession</title>
<path fill="none" stroke="#7f7f7f" stroke-dasharray="5,2" d="M253.08,-342.04C383.39,-345.7 702.13,-393.16 821.75,-427.02"/>
<polygon fill="#7f7f7f" stroke="#7f7f7f" points="820.77,-430.38 831.35,-429.84 822.75,-423.67 820.77,-430.38"/>
<text text-anchor="middle" x="524.91" y="-376.53" font-family="monospace" font-size="10.00">uses</text>
</g>
<!-- fleek_service_ai::handler::handle -->
<g id="node3" class="node">
<title>fleek_service_ai::handler::handle</title>
<polygon fill="#81c169" stroke="black" points="733.12,-659.8 733.12,-697.8 840.12,-697.8 840.12,-659.8 733.12,-659.8"/>
<text text-anchor="middle" x="786.62" y="-685.8" font-family="monospace" font-size="10.00">pub async fn</text>
<polyline fill="none" stroke="black" points="733.12,-678.8 840.12,-678.8 "/>
<text text-anchor="middle" x="786.62" y="-666.8" font-family="monospace" font-size="10.00">handler::handle</text>
</g>
<!-- fleek_service_ai&#45;&gt;fleek_service_ai::handler::handle -->
<g id="edge3" class="edge">
<title>fleek_service_ai&#45;&gt;fleek_service_ai::handler::handle</title>
<path fill="none" stroke="#000000" d="M230.68,-368.52C332.15,-425.15 630.85,-591.86 743.22,-654.58"/>
<polygon fill="#000000" stroke="#000000" points="741.8,-657.8 752.24,-659.61 745.22,-651.68 741.8,-657.8"/>
<text text-anchor="middle" x="474.45" y="-514.55" font-family="monospace" font-size="10.00">owns</text>
</g>
<!-- fleek_service_ai::handler::load_model -->
<g id="node4" class="node">
<title>fleek_service_ai::handler::load_model</title>
<polygon fill="#db5367" stroke="black" points="672.42,-706.82 672.42,-744.82 803.42,-744.82 803.42,-706.82 672.42,-706.82"/>
<text text-anchor="middle" x="737.92" y="-732.82" font-family="monospace" font-size="10.00">pub(self) async fn</text>
<polyline fill="none" stroke="black" points="672.42,-725.82 803.42,-725.82 "/>
<text text-anchor="middle" x="737.92" y="-713.82" font-family="monospace" font-size="10.00">handler::load_model</text>
</g>
<!-- fleek_service_ai&#45;&gt;fleek_service_ai::handler::load_model -->
<g id="edge4" class="edge">
<title>fleek_service_ai&#45;&gt;fleek_service_ai::handler::load_model</title>
<path fill="none" stroke="#000000" d="M224,-368.57C314.26,-431.32 600.7,-630.44 702,-700.85"/>
<polygon fill="#000000" stroke="#000000" points="700.17,-703.84 710.38,-706.68 704.16,-698.1 700.17,-703.84"/>
<text text-anchor="middle" x="450.5" y="-537.71" font-family="monospace" font-size="10.00">owns</text>
</g>
<!-- fleek_service_ai::handler::parse_http_url -->
<g id="node5" class="node">
<title>fleek_service_ai::handler::parse_http_url</title>
<polygon fill="#db5367" stroke="black" points="517.09,-753.88 517.09,-791.88 672.09,-791.88 672.09,-753.88 517.09,-753.88"/>
<text text-anchor="middle" x="594.59" y="-779.88" font-family="monospace" font-size="10.00">pub(self) fn</text>
<polyline fill="none" stroke="black" points="517.09,-772.88 672.09,-772.88 "/>
<text text-anchor="middle" x="594.59" y="-760.88" font-family="monospace" font-size="10.00">handler::parse_http_url</text>
</g>
<!-- fleek_service_ai&#45;&gt;fleek_service_ai::handler::parse_http_url -->
<g id="edge5" class="edge">
<title>fleek_service_ai&#45;&gt;fleek_service_ai::handler::parse_http_url</title>
<path fill="none" stroke="#000000" d="M214.28,-368.41C278.07,-436.25 494.6,-666.54 569.13,-745.81"/>
<polygon fill="#000000" stroke="#000000" points="566.9,-748.54 576.3,-753.43 572,-743.75 566.9,-748.54"/>
<text text-anchor="middle" x="379.21" y="-560.11" font-family="monospace" font-size="10.00">owns</text>
</g>
<!-- fleek_service_ai::handler::parse_query_params -->
<g id="node6" class="node">
<title>fleek_service_ai::handler::parse_query_params</title>
<polygon fill="#db5367" stroke="black" points="329.51,-765.06 329.51,-803.06 508.51,-803.06 508.51,-765.06 329.51,-765.06"/>
<text text-anchor="middle" x="419.01" y="-791.06" font-family="monospace" font-size="10.00">pub(self) fn</text>
<polyline fill="none" stroke="black" points="329.51,-784.06 508.51,-784.06 "/>
<text text-anchor="middle" x="419.01" y="-772.06" font-family="monospace" font-size="10.00">handler::parse_query_params</text>
</g>
<!-- fleek_service_ai&#45;&gt;fleek_service_ai::handler::parse_query_params -->
<g id="edge6" class="edge">
<title>fleek_service_ai&#45;&gt;fleek_service_ai::handler::parse_query_params</title>
<path fill="none" stroke="#000000" d="M206.25,-368.63C241.67,-437.78 362.63,-673.97 404.56,-755.84"/>
<polygon fill="#000000" stroke="#000000" points="401.6,-757.74 409.27,-765.04 407.83,-754.55 401.6,-757.74"/>
<text text-anchor="middle" x="292.91" y="-565.24" font-family="monospace" font-size="10.00">owns</text>
</g>
<!-- fleek_service_ai::handler::serialize_output -->
<g id="node7" class="node">
<title>fleek_service_ai::handler::serialize_output</title>
<polygon fill="#db5367" stroke="black" points="152.25,-730.69 152.25,-768.69 319.25,-768.69 319.25,-730.69 152.25,-730.69"/>
<text text-anchor="middle" x="235.75" y="-756.69" font-family="monospace" font-size="10.00">pub(self) fn</text>
<polyline fill="none" stroke="black" points="152.25,-749.69 319.25,-749.69 "/>
<text text-anchor="middle" x="235.75" y="-737.69" font-family="monospace" font-size="10.00">handler::serialize_output</text>
</g>
<!-- fleek_service_ai&#45;&gt;fleek_service_ai::handler::serialize_output -->
<g id="edge7" class="edge">
<title>fleek_service_ai&#45;&gt;fleek_service_ai::handler::serialize_output</title>
<path fill="none" stroke="#000000" d="M198.27,-368.43C204.6,-432.83 225.24,-642.84 232.88,-720.49"/>
<polygon fill="#000000" stroke="#000000" points="229.4,-720.93 233.86,-730.54 236.37,-720.25 229.4,-720.93"/>
<text text-anchor="middle" x="203.07" y="-547.46" font-family="monospace" font-size="10.00">owns</text>
</g>
<!-- fleek_service_ai::main -->
<g id="node8" class="node">
<title>fleek_service_ai::main</title>
<polygon fill="#81c169" stroke="black" points="91.67,-683.62 91.67,-721.62 180.67,-721.62 180.67,-683.62 91.67,-683.62"/>
<text text-anchor="middle" x="136.17" y="-709.62" font-family="monospace" font-size="10.00">pub async fn</text>
<polyline fill="none" stroke="black" points="91.67,-702.62 180.67,-702.62 "/>
<text text-anchor="middle" x="136.17" y="-690.62" font-family="monospace" font-size="10.00">main</text>
</g>
<!-- fleek_service_ai&#45;&gt;fleek_service_ai::main -->
<g id="edge8" class="edge">
<title>fleek_service_ai&#45;&gt;fleek_service_ai::main</title>
<path fill="none" stroke="#000000" d="M193.12,-368.63C183.12,-427.24 153.02,-603.8 141.1,-673.69"/>
<polygon fill="#000000" stroke="#000000" points="137.65,-673.13 139.42,-683.57 144.55,-674.31 137.65,-673.13"/>
<text text-anchor="middle" x="154.61" y="-524.16" font-family="monospace" font-size="10.00">owns</text>
</g>
<!-- fleek_service_ai::opts::BorshNamedVectors -->
<g id="node9" class="node">
<title>fleek_service_ai::opts::BorshNamedVectors</title>
<polygon fill="#81c169" stroke="black" points="22.62,-630.11 22.62,-668.11 177.62,-668.11 177.62,-630.11 22.62,-630.11"/>
<text text-anchor="middle" x="100.12" y="-656.11" font-family="monospace" font-size="10.00">pub type</text>
<polyline fill="none" stroke="black" points="22.62,-649.11 177.62,-649.11 "/>
<text text-anchor="middle" x="100.12" y="-637.11" font-family="monospace" font-size="10.00">opts::BorshNamedVectors</text>
</g>
<!-- fleek_service_ai&#45;&gt;fleek_service_ai::opts::BorshNamedVectors -->
<g id="edge9" class="edge">
<title>fleek_service_ai&#45;&gt;fleek_service_ai::opts::BorshNamedVectors</title>
<path fill="none" stroke="#000000" d="M173.91,-368.67C141.41,-419.95 96.85,-558.5 93.11,-619.68"/>
<polygon fill="#000000" stroke="#000000" points="89.61,-619.76 92.89,-629.83 96.61,-619.91 89.61,-619.76"/>
<text text-anchor="middle" x="146.01" y="-497.18" font-family="monospace" font-size="10.00">owns</text>
</g>
<!-- fleek_service_ai&#45;&gt;fleek_service_ai::opts::BorshNamedVectors -->
<g id="edge10" class="edge">
<title>fleek_service_ai&#45;&gt;fleek_service_ai::opts::BorshNamedVectors</title>
<path fill="none" stroke="#7f7f7f" stroke-dasharray="5,2" d="M203.63,-368.56C205.05,-420.22 161.64,-560.83 127.72,-621.23"/>
<polygon fill="#7f7f7f" stroke="#7f7f7f" points="124.68,-619.49 122.58,-629.87 130.7,-623.07 124.68,-619.49"/>
<text text-anchor="middle" x="178.17" y="-497.89" font-family="monospace" font-size="10.00">uses</text>
</g>
<!-- fleek_service_ai::opts::BorshVector -->
<g id="node10" class="node">
<title>fleek_service_ai::opts::BorshVector</title>
<polygon fill="#81c169" stroke="black" points="23.15,-559.33 23.15,-597.33 142.15,-597.33 142.15,-559.33 23.15,-559.33"/>
<text text-anchor="middle" x="82.65" y="-585.33" font-family="monospace" font-size="10.00">pub struct</text>
<polyline fill="none" stroke="black" points="23.15,-578.33 142.15,-578.33 "/>
<text text-anchor="middle" x="82.65" y="-566.33" font-family="monospace" font-size="10.00">opts::BorshVector</text>
</g>
<!-- fleek_service_ai&#45;&gt;fleek_service_ai::opts::BorshVector -->
<g id="edge11" class="edge">
<title>fleek_service_ai&#45;&gt;fleek_service_ai::opts::BorshVector</title>
<path fill="none" stroke="#000000" d="M166.59,-368.44C132.84,-408.93 87.57,-501.23 78.56,-549.13"/>
<polygon fill="#000000" stroke="#000000" points="75.07,-548.8 77.16,-559.19 82,-549.77 75.07,-548.8"/>
<text text-anchor="middle" x="110.07" y="-461.79" font-family="monospace" font-size="10.00">owns</text>
</g>
<!-- fleek_service_ai&#45;&gt;fleek_service_ai::opts::BorshVector -->
<g id="edge12" class="edge">
<title>fleek_service_ai&#45;&gt;fleek_service_ai::opts::BorshVector</title>
<path fill="none" stroke="#7f7f7f" stroke-dasharray="5,2" d="M201.88,-368.69C198.48,-410 154.21,-504.21 118.78,-551.29"/>
<polygon fill="#7f7f7f" stroke="#7f7f7f" points="115.95,-549.22 112.5,-559.23 121.44,-553.56 115.95,-549.22"/>
<text text-anchor="middle" x="147.83" y="-462.99" font-family="monospace" font-size="10.00">uses</text>
</g>
<!-- fleek_service_ai::opts::BorshVectorType -->
<g id="node11" class="node">
<title>fleek_service_ai::opts::BorshVectorType</title>
<polygon fill="#81c169" stroke="black" points="3.45,-477.24 3.45,-515.24 146.45,-515.24 146.45,-477.24 3.45,-477.24"/>
<text text-anchor="middle" x="74.95" y="-503.24" font-family="monospace" font-size="10.00">pub enum</text>
<polyline fill="none" stroke="black" points="3.45,-496.24 146.45,-496.24 "/>
<text text-anchor="middle" x="74.95" y="-484.24" font-family="monospace" font-size="10.00">opts::BorshVectorType</text>
</g>
<!-- fleek_service_ai&#45;&gt;fleek_service_ai::opts::BorshVectorType -->
<g id="edge13" class="edge">
<title>fleek_service_ai&#45;&gt;fleek_service_ai::opts::BorshVectorType</title>
<path fill="none" stroke="#000000" d="M150.35,-368.66C120.73,-394.45 87.12,-437.71 75.27,-467.31"/>
<polygon fill="#000000" stroke="#000000" points="71.83,-466.57 72.03,-477.17 78.48,-468.76 71.83,-466.57"/>
<text text-anchor="middle" x="125.31" y="-420.99" font-family="monospace" font-size="10.00">owns</text>
</g>
<!-- fleek_service_ai&#45;&gt;fleek_service_ai::opts::BorshVectorType -->
<g id="edge14" class="edge">
<title>fleek_service_ai&#45;&gt;fleek_service_ai::opts::BorshVectorType</title>
<path fill="none" stroke="#7f7f7f" stroke-dasharray="5,2" d="M199.32,-368.42C192.76,-395.27 159.6,-440.73 128.42,-470.22"/>
<polygon fill="#7f7f7f" stroke="#7f7f7f" points="126.02,-467.67 120.97,-476.98 130.73,-472.85 126.02,-467.67"/>
<text text-anchor="middle" x="151.37" y="-422.32" font-family="monospace" font-size="10.00">uses</text>
</g>
<!-- fleek_service_ai::opts::Device -->
<g id="node12" class="node">
<title>fleek_service_ai::opts::Device</title>
<polygon fill="#81c169" stroke="black" points="33.15,-388.44 33.15,-426.44 122.15,-426.44 122.15,-388.44 33.15,-388.44"/>
<text text-anchor="middle" x="77.65" y="-414.44" font-family="monospace" font-size="10.00">pub enum</text>
<polyline fill="none" stroke="black" points="33.15,-407.44 122.15,-407.44 "/>
<text text-anchor="middle" x="77.65" y="-395.44" font-family="monospace" font-size="10.00">opts::Device</text>
</g>
<!-- fleek_service_ai&#45;&gt;fleek_service_ai::opts::Device -->
<g id="edge15" class="edge">
<title>fleek_service_ai&#45;&gt;fleek_service_ai::opts::Device</title>
<path fill="none" stroke="#000000" d="M139.61,-347.86C119.56,-355.54 99.15,-367.8 87.09,-380.41"/>
<polygon fill="#000000" stroke="#000000" points="84.3,-378.29 80.73,-388.26 89.74,-382.69 84.3,-378.29"/>
<text text-anchor="middle" x="100.85" y="-367.14" font-family="monospace" font-size="10.00">owns</text>
</g>
<!-- fleek_service_ai&#45;&gt;fleek_service_ai::opts::Device -->
<g id="edge16" class="edge">
<title>fleek_service_ai&#45;&gt;fleek_service_ai::opts::Device</title>
<path fill="none" stroke="#7f7f7f" stroke-dasharray="5,2" d="M193.26,-368.64C182.99,-384.26 157.04,-400.72 132.15,-409.81"/>
<polygon fill="#7f7f7f" stroke="#7f7f7f" points="130.75,-406.59 122.33,-413.03 132.93,-413.24 130.75,-406.59"/>
<text text-anchor="middle" x="150.21" y="-392.23" font-family="monospace" font-size="10.00">uses</text>
</g>
<!-- fleek_service_ai::opts::Encoding -->
<g id="node13" class="node">
<title>fleek_service_ai::opts::Encoding</title>
<polygon fill="#81c169" stroke="black" points="686.15,-414.84 686.15,-452.84 787.15,-452.84 787.15,-414.84 686.15,-414.84"/>
<text text-anchor="middle" x="736.65" y="-440.84" font-family="monospace" font-size="10.00">pub enum</text>
<polyline fill="none" stroke="black" points="686.15,-433.84 787.15,-433.84 "/>
<text text-anchor="middle" x="736.65" y="-421.84" font-family="monospace" font-size="10.00">opts::Encoding</text>
</g>
<!-- fleek_service_ai&#45;&gt;fleek_service_ai::opts::Encoding -->
<g id="edge17" class="edge">
<title>fleek_service_ai&#45;&gt;fleek_service_ai::opts::Encoding</title>
<path fill="none" stroke="#000000" d="M228.04,-368.45C315.47,-398.44 561.21,-438.05 676.08,-442.07"/>
<polygon fill="#000000" stroke="#000000" points="676.03,-445.57 686.12,-442.34 676.22,-438.57 676.03,-445.57"/>
<text text-anchor="middle" x="439.56" y="-408.26" font-family="monospace" font-size="10.00">owns</text>
</g>
<!-- fleek_service_ai&#45;&gt;fleek_service_ai::opts::Encoding -->
<g id="edge18" class="edge">
<title>fleek_service_ai&#45;&gt;fleek_service_ai::opts::Encoding</title>
<path fill="none" stroke="#7f7f7f" stroke-dasharray="5,2" d="M253.05,-341.03C362.29,-344.15 599.61,-381.73 695.38,-411.63"/>
<polygon fill="#7f7f7f" stroke="#7f7f7f" points="694.41,-415 705,-414.77 696.58,-408.34 694.41,-415"/>
<text text-anchor="middle" x="461.71" y="-379.33" font-family="monospace" font-size="10.00">uses</text>
</g>
<!-- fleek_service_ai::opts::Format -->
<g id="node14" class="node">
<title>fleek_service_ai::opts::Format</title>
<polygon fill="#81c169" stroke="black" points="42.67,-299.19 42.67,-337.19 131.67,-337.19 131.67,-299.19 42.67,-299.19"/>
<text text-anchor="middle" x="87.17" y="-325.19" font-family="monospace" font-size="10.00">pub enum</text>
<polyline fill="none" stroke="black" points="42.67,-318.19 131.67,-318.19 "/>
<text text-anchor="middle" x="87.17" y="-306.19" font-family="monospace" font-size="10.00">opts::Format</text>
</g>
<!-- fleek_service_ai&#45;&gt;fleek_service_ai::opts::Format -->
<g id="edge19" class="edge">
<title>fleek_service_ai&#45;&gt;fleek_service_ai::opts::Format</title>
<path fill="none" stroke="#000000" d="M190.51,-330.32C180.75,-319.39 161.39,-310.37 141.99,-305.99"/>
<polygon fill="#000000" stroke="#000000" points="142.36,-302.49 131.89,-304.13 141.09,-309.38 142.36,-302.49"/>
<text text-anchor="middle" x="153.75" y="-321.15" font-family="monospace" font-size="10.00">owns</text>
</g>
<!-- fleek_service_ai&#45;&gt;fleek_service_ai::opts::Format -->
<g id="edge20" class="edge">
<title>fleek_service_ai&#45;&gt;fleek_service_ai::opts::Format</title>
<path fill="none" stroke="#7f7f7f" stroke-dasharray="5,2" d="M139.83,-361.19C125.3,-357.69 110.94,-351.64 100.8,-344.17"/>
<polygon fill="#7f7f7f" stroke="#7f7f7f" points="102.86,-341.32 93.07,-337.28 98.2,-346.55 102.86,-341.32"/>
<text text-anchor="middle" x="107.82" y="-355.68" font-family="monospace" font-size="10.00">uses</text>
</g>
<!-- fleek_service_ai::opts::Origin -->
<g id="node15" class="node">
<title>fleek_service_ai::opts::Origin</title>
<polygon fill="#81c169" stroke="black" points="32.69,-216.67 32.69,-254.67 121.69,-254.67 121.69,-216.67 32.69,-216.67"/>
<text text-anchor="middle" x="77.19" y="-242.67" font-family="monospace" font-size="10.00">pub enum</text>
<polyline fill="none" stroke="black" points="32.69,-235.67 121.69,-235.67 "/>
<text text-anchor="middle" x="77.19" y="-223.67" font-family="monospace" font-size="10.00">opts::Origin</text>
</g>
<!-- fleek_service_ai&#45;&gt;fleek_service_ai::opts::Origin -->
<g id="edge21" class="edge">
<title>fleek_service_ai&#45;&gt;fleek_service_ai::opts::Origin</title>
<path fill="none" stroke="#000000" d="M197.95,-330.21C190.24,-307.23 159.45,-273.23 130.34,-251.82"/>
<polygon fill="#000000" stroke="#000000" points="132,-248.71 121.79,-245.86 128,-254.45 132,-248.71"/>
<text text-anchor="middle" x="151.65" y="-294.01" font-family="monospace" font-size="10.00">owns</text>
</g>
<!-- fleek_service_ai&#45;&gt;fleek_service_ai::opts::Origin -->
<g id="edge22" class="edge">
<title>fleek_service_ai&#45;&gt;fleek_service_ai::opts::Origin</title>
<path fill="none" stroke="#7f7f7f" stroke-dasharray="5,2" d="M139.75,-330.62C115.45,-311.99 90.68,-285.32 79.68,-264.18"/>
<polygon fill="#7f7f7f" stroke="#7f7f7f" points="82.85,-262.68 75.65,-254.9 76.43,-265.47 82.85,-262.68"/>
<text text-anchor="middle" x="97.22" y="-289.4" font-family="monospace" font-size="10.00">uses</text>
</g>
<!-- fleek_service_ai::opts::Service -->
<g id="node16" class="node">
<title>fleek_service_ai::opts::Service</title>
<polygon fill="#81c169" stroke="black" points="35.99,-145.73 35.99,-183.73 130.99,-183.73 130.99,-145.73 35.99,-145.73"/>
<text text-anchor="middle" x="83.49" y="-171.73" font-family="monospace" font-size="10.00">pub enum</text>
<polyline fill="none" stroke="black" points="35.99,-164.73 130.99,-164.73 "/>
<text text-anchor="middle" x="83.49" y="-152.73" font-family="monospace" font-size="10.00">opts::Service</text>
</g>
<!-- fleek_service_ai&#45;&gt;fleek_service_ai::opts::Service -->
<g id="edge23" class="edge">
<title>fleek_service_ai&#45;&gt;fleek_service_ai::opts::Service</title>
<path fill="none" stroke="#000000" d="M201.19,-330.2C196.64,-296.43 158.94,-229.47 126.09,-191.46"/>
<polygon fill="#000000" stroke="#000000" points="128.47,-188.88 119.17,-183.81 123.28,-193.58 128.47,-188.88"/>
<text text-anchor="middle" x="151.14" y="-263.83" font-family="monospace" font-size="10.00">owns</text>
</g>
<!-- fleek_service_ai&#45;&gt;fleek_service_ai::opts::Service -->
<g id="edge24" class="edge">
<title>fleek_service_ai&#45;&gt;fleek_service_ai::opts::Service</title>
<path fill="none" stroke="#7f7f7f" stroke-dasharray="5,2" d="M160.46,-330.04C129.18,-297.06 90.8,-232.38 80.75,-193.97"/>
<polygon fill="#7f7f7f" stroke="#7f7f7f" points="84.12,-192.97 78.69,-183.87 77.26,-194.37 84.12,-192.97"/>
<text text-anchor="middle" x="108.11" y="-265" font-family="monospace" font-size="10.00">uses</text>
</g>
<!-- fleek_service_ai::opts::borsh_base64::deserialize -->
<g id="node17" class="node">
<title>fleek_service_ai::opts::borsh_base64::deserialize</title>
<polygon fill="#81c169" stroke="black" points="0,-91.85 0,-129.85 203,-129.85 203,-91.85 0,-91.85"/>
<text text-anchor="middle" x="101.5" y="-117.85" font-family="monospace" font-size="10.00">pub fn</text>
<polyline fill="none" stroke="black" points="0,-110.85 203,-110.85 "/>
<text text-anchor="middle" x="101.5" y="-98.85" font-family="monospace" font-size="10.00">opts::borsh_base64::deserialize</text>
</g>
<!-- fleek_service_ai&#45;&gt;fleek_service_ai::opts::borsh_base64::deserialize -->
<g id="edge25" class="edge">
<title>fleek_service_ai&#45;&gt;fleek_service_ai::opts::borsh_base64::deserialize</title>
<path fill="none" stroke="#000000" d="M188.79,-330.27C172.17,-288.48 132.52,-188.82 112.9,-139.5"/>
<polygon fill="#000000" stroke="#000000" points="116.09,-138.05 109.14,-130.05 109.59,-140.64 116.09,-138.05"/>
<text text-anchor="middle" x="138.34" y="-237.88" font-family="monospace" font-size="10.00">owns</text>
</g>
<!-- fleek_service_ai::opts::borsh_base64::serialize -->
<g id="node18" class="node">
<title>fleek_service_ai::opts::borsh_base64::serialize</title>
<polygon fill="#81c169" stroke="black" points="103.87,-44.81 103.87,-82.81 294.87,-82.81 294.87,-44.81 103.87,-44.81"/>
<text text-anchor="middle" x="199.37" y="-70.81" font-family="monospace" font-size="10.00">pub fn</text>
<polyline fill="none" stroke="black" points="103.87,-63.81 294.87,-63.81 "/>
<text text-anchor="middle" x="199.37" y="-51.81" font-family="monospace" font-size="10.00">opts::borsh_base64::serialize</text>
</g>
<!-- fleek_service_ai&#45;&gt;fleek_service_ai::opts::borsh_base64::serialize -->
<g id="edge26" class="edge">
<title>fleek_service_ai&#45;&gt;fleek_service_ai::opts::borsh_base64::serialize</title>
<path fill="none" stroke="#000000" d="M196.6,-330.21C197.11,-281.23 198.46,-151.32 199.07,-92.94"/>
<polygon fill="#000000" stroke="#000000" points="202.57,-92.94 199.17,-82.91 195.57,-92.87 202.57,-92.94"/>
<text text-anchor="middle" x="185.33" y="-214.57" font-family="monospace" font-size="10.00">owns</text>
</g>
<!-- fleek_service_ai::runtime::RunOutput -->
<g id="node19" class="node">
<title>fleek_service_ai::runtime::RunOutput</title>
<polygon fill="#81c169" stroke="black" points="760.14,-595.4 760.14,-633.4 885.14,-633.4 885.14,-595.4 760.14,-595.4"/>
<text text-anchor="middle" x="822.64" y="-621.4" font-family="monospace" font-size="10.00">pub enum</text>
<polyline fill="none" stroke="black" points="760.14,-614.4 885.14,-614.4 "/>
<text text-anchor="middle" x="822.64" y="-602.4" font-family="monospace" font-size="10.00">runtime::RunOutput</text>
</g>
<!-- fleek_service_ai&#45;&gt;fleek_service_ai::runtime::RunOutput -->
<g id="edge27" class="edge">
<title>fleek_service_ai&#45;&gt;fleek_service_ai::runtime::RunOutput</title>
<path fill="none" stroke="#000000" d="M214.12,-368.58C292.46,-422.56 606.77,-557.94 750.5,-602.67"/>
<polygon fill="#000000" stroke="#000000" points="749.55,-606.04 760.14,-605.61 751.59,-599.34 749.55,-606.04"/>
<text text-anchor="middle" x="469.81" y="-477.62" font-family="monospace" font-size="10.00">owns</text>
</g>
<!-- fleek_service_ai&#45;&gt;fleek_service_ai::runtime::RunOutput -->
<g id="edge28" class="edge">
<title>fleek_service_ai&#45;&gt;fleek_service_ai::runtime::RunOutput</title>
<path fill="none" stroke="#7f7f7f" stroke-dasharray="5,2" d="M252.91,-356.42C383.72,-394.19 702.38,-530.11 796.37,-589.58"/>
<polygon fill="#7f7f7f" stroke="#7f7f7f" points="794.72,-592.69 804.99,-595.26 798.57,-586.84 794.72,-592.69"/>
<text text-anchor="middle" x="512.14" y="-465" font-family="monospace" font-size="10.00">uses</text>
</g>
<!-- fleek_service_ai::runtime::Session -->
<g id="node20" class="node">
<title>fleek_service_ai::runtime::Session</title>
<polygon fill="#81c169" stroke="black" points="213.12,-408.94 213.12,-446.94 326.12,-446.94 326.12,-408.94 213.12,-408.94"/>
<text text-anchor="middle" x="269.62" y="-434.94" font-family="monospace" font-size="10.00">pub struct</text>
<polyline fill="none" stroke="black" points="213.12,-427.94 326.12,-427.94 "/>
<text text-anchor="middle" x="269.62" y="-415.94" font-family="monospace" font-size="10.00">runtime::Session</text>
</g>
<!-- fleek_service_ai&#45;&gt;fleek_service_ai::runtime::Session -->
<g id="edge29" class="edge">
<title>fleek_service_ai&#45;&gt;fleek_service_ai::runtime::Session</title>
<path fill="none" stroke="#000000" d="M191.27,-368.78C193.07,-379.01 199.59,-390.79 208.32,-401.43"/>
<polygon fill="#000000" stroke="#000000" points="205.75,-403.81 215.03,-408.93 210.97,-399.15 205.75,-403.81"/>
<text text-anchor="middle" x="187.29" y="-388.1" font-family="monospace" font-size="10.00">owns</text>
</g>
<!-- fleek_service_ai&#45;&gt;fleek_service_ai::runtime::Session -->
<g id="edge30" class="edge">
<title>fleek_service_ai&#45;&gt;fleek_service_ai::runtime::Session</title>
<path fill="none" stroke="#7f7f7f" stroke-dasharray="5,2" d="M251.02,-368.43C260.16,-377.83 267.86,-388.83 271.99,-399.16"/>
<polygon fill="#7f7f7f" stroke="#7f7f7f" points="268.63,-400.16 274.79,-408.78 275.36,-398.2 268.63,-400.16"/>
<text text-anchor="middle" x="249.01" y="-386.8" font-family="monospace" font-size="10.00">uses</text>
</g>
<!-- fleek_service_ai::runtime::deserialize::deserialize_borsh -->
<g id="node24" class="node">
<title>fleek_service_ai::runtime::deserialize::deserialize_borsh</title>
<polygon fill="#81c169" stroke="black" points="302.92,-0.5 302.92,-38.5 553.92,-38.5 553.92,-0.5 302.92,-0.5"/>
<text text-anchor="middle" x="428.42" y="-26.5" font-family="monospace" font-size="10.00">pub fn</text>
<polyline fill="none" stroke="black" points="302.92,-19.5 553.92,-19.5 "/>
<text text-anchor="middle" x="428.42" y="-7.5" font-family="monospace" font-size="10.00">runtime::deserialize::deserialize_borsh</text>
</g>
<!-- fleek_service_ai&#45;&gt;fleek_service_ai::runtime::deserialize::deserialize_borsh -->
<g id="edge31" class="edge">
<title>fleek_service_ai&#45;&gt;fleek_service_ai::runtime::deserialize::deserialize_borsh</title>
<path fill="none" stroke="#000000" d="M209.87,-330.23C249.04,-274.54 362.96,-112.56 408.89,-47.27"/>
<polygon fill="#000000" stroke="#000000" points="412.01,-48.91 414.9,-38.71 406.29,-44.88 412.01,-48.91"/>
<text text-anchor="middle" x="296.88" y="-191.75" font-family="monospace" font-size="10.00">owns</text>
</g>
<!-- fleek_service_ai::runtime::deserialize::deserialize_safetensors -->
<g id="node25" class="node">
<title>fleek_service_ai::runtime::deserialize::deserialize_safetensors</title>
<polygon fill="#81c169" stroke="black" points="561.95,-19.52 561.95,-57.52 848.95,-57.52 848.95,-19.52 561.95,-19.52"/>
<text text-anchor="middle" x="705.45" y="-45.52" font-family="monospace" font-size="10.00">pub fn</text>
<polyline fill="none" stroke="black" points="561.95,-38.52 848.95,-38.52 "/>
<text text-anchor="middle" x="705.45" y="-26.52" font-family="monospace" font-size="10.00">runtime::deserialize::deserialize_safetensors</text>
</g>
<!-- fleek_service_ai&#45;&gt;fleek_service_ai::runtime::deserialize::deserialize_safetensors -->
<g id="edge32" class="edge">
<title>fleek_service_ai&#45;&gt;fleek_service_ai::runtime::deserialize::deserialize_safetensors</title>
<path fill="none" stroke="#000000" d="M227.86,-330.18C316.35,-276.13 567.37,-122.84 665.47,-62.94"/>
<polygon fill="#000000" stroke="#000000" points="667.49,-65.8 674.2,-57.6 663.84,-59.83 667.49,-65.8"/>
<text text-anchor="middle" x="434.16" y="-199.56" font-family="monospace" font-size="10.00">owns</text>
</g>
<!-- fleek_service_ai::runtime::element_type_to_str -->
<g id="node26" class="node">
<title>fleek_service_ai::runtime::element_type_to_str</title>
<polygon fill="#db5367" stroke="black" points="694.17,-67.32 694.17,-105.32 879.17,-105.32 879.17,-67.32 694.17,-67.32"/>
<text text-anchor="middle" x="786.67" y="-93.32" font-family="monospace" font-size="10.00">pub(self) fn</text>
<polyline fill="none" stroke="black" points="694.17,-86.32 879.17,-86.32 "/>
<text text-anchor="middle" x="786.67" y="-74.32" font-family="monospace" font-size="10.00">runtime::element_type_to_str</text>
</g>
<!-- fleek_service_ai&#45;&gt;fleek_service_ai::runtime::element_type_to_str -->
<g id="edge33" class="edge">
<title>fleek_service_ai&#45;&gt;fleek_service_ai::runtime::element_type_to_str</title>
<path fill="none" stroke="#000000" d="M239.32,-330.26C345.38,-282.99 619.5,-160.82 734.58,-109.53"/>
<polygon fill="#000000" stroke="#000000" points="736.2,-112.65 743.91,-105.38 733.35,-106.25 736.2,-112.65"/>
<text text-anchor="middle" x="474.45" y="-222.89" font-family="monospace" font-size="10.00">owns</text>
</g>
<!-- fleek_service_ai::runtime::model::Info -->
<g id="node27" class="node">
<title>fleek_service_ai::runtime::model::Info</title>
<polygon fill="#81c169" stroke="black" points="544.84,-367.52 544.84,-405.52 681.84,-405.52 681.84,-367.52 544.84,-367.52"/>
<text text-anchor="middle" x="613.34" y="-393.52" font-family="monospace" font-size="10.00">pub struct</text>
<polyline fill="none" stroke="black" points="544.84,-386.52 681.84,-386.52 "/>
<text text-anchor="middle" x="613.34" y="-374.52" font-family="monospace" font-size="10.00">runtime::model::Info</text>
</g>
<!-- fleek_service_ai&#45;&gt;fleek_service_ai::runtime::model::Info -->
<g id="edge34" class="edge">
<title>fleek_service_ai&#45;&gt;fleek_service_ai::runtime::model::Info</title>
<path fill="none" stroke="#000000" d="M230.53,-368.41C296.52,-386.93 443.05,-401.84 534.47,-401.08"/>
<polygon fill="#000000" stroke="#000000" points="534.57,-404.58 544.52,-400.93 534.46,-397.58 534.57,-404.58"/>
<text text-anchor="middle" x="370" y="-376.75" font-family="monospace" font-size="10.00">owns</text>
</g>
<!-- fleek_service_ai&#45;&gt;fleek_service_ai::runtime::model::Info -->
<g id="edge35" class="edge">
<title>fleek_service_ai&#45;&gt;fleek_service_ai::runtime::model::Info</title>
<path fill="none" stroke="#7f7f7f" stroke-dasharray="5,2" d="M253.02,-335.37C337.17,-331.69 493.46,-346.07 569.51,-364.94"/>
<polygon fill="#7f7f7f" stroke="#7f7f7f" points="568.69,-368.35 579.26,-367.51 570.48,-361.58 568.69,-368.35"/>
<text text-anchor="middle" x="398.76" y="-353.16" font-family="monospace" font-size="10.00">uses</text>
</g>
<!-- fleek_service_ai::runtime::serialize::borsh_serialize_outputs -->
<g id="node28" class="node">
<title>fleek_service_ai::runtime::serialize::borsh_serialize_outputs</title>
<polygon fill="#81c169" stroke="black" points="688.44,-114.32 688.44,-152.32 963.44,-152.32 963.44,-114.32 688.44,-114.32"/>
<text text-anchor="middle" x="825.94" y="-140.32" font-family="monospace" font-size="10.00">pub fn</text>
<polyline fill="none" stroke="black" points="688.44,-133.32 963.44,-133.32 "/>
<text text-anchor="middle" x="825.94" y="-121.32" font-family="monospace" font-size="10.00">runtime::serialize::borsh_serialize_outputs</text>
</g>
<!-- fleek_service_ai&#45;&gt;fleek_service_ai::runtime::serialize::borsh_serialize_outputs -->
<g id="edge36" class="edge">
<title>fleek_service_ai&#45;&gt;fleek_service_ai::runtime::serialize::borsh_serialize_outputs</title>
<path fill="none" stroke="#000000" d="M251.99,-330.31C368.14,-290.45 636.04,-198.5 760.36,-155.83"/>
<polygon fill="#000000" stroke="#000000" points="761.82,-159.03 770.14,-152.47 759.54,-152.41 761.82,-159.03"/>
<text text-anchor="middle" x="493.67" y="-246.07" font-family="monospace" font-size="10.00">owns</text>
</g>
<!-- fleek_service_ai::runtime::serialize::safetensors_serialize_outputs -->
<g id="node29" class="node">
<title>fleek_service_ai::runtime::serialize::safetensors_serialize_outputs</title>
<polygon fill="#81c169" stroke="black" points="691.79,-178.15 691.79,-216.15 1002.79,-216.15 1002.79,-178.15 691.79,-178.15"/>
<text text-anchor="middle" x="847.29" y="-204.15" font-family="monospace" font-size="10.00">pub fn</text>
<polyline fill="none" stroke="black" points="691.79,-197.15 1002.79,-197.15 "/>
<text text-anchor="middle" x="847.29" y="-185.15" font-family="monospace" font-size="10.00">runtime::serialize::safetensors_serialize_outputs</text>
</g>
<!-- fleek_service_ai&#45;&gt;fleek_service_ai::runtime::serialize::safetensors_serialize_outputs -->
<g id="edge37" class="edge">
<title>fleek_service_ai&#45;&gt;fleek_service_ai::runtime::serialize::safetensors_serialize_outputs</title>
<path fill="none" stroke="#000000" d="M253.02,-336.14C365.8,-309.77 619.34,-250.47 755.96,-218.52"/>
<polygon fill="#000000" stroke="#000000" points="757.05,-221.85 765.99,-216.17 755.45,-215.04 757.05,-221.85"/>
<text text-anchor="middle" x="491.99" y="-280.33" font-family="monospace" font-size="10.00">owns</text>
</g>
<!-- fleek_service_ai::runtime::value_type_to_string -->
<g id="node30" class="node">
<title>fleek_service_ai::runtime::value_type_to_string</title>
<polygon fill="#db5367" stroke="black" points="772.7,-256 772.7,-294 963.7,-294 963.7,-256 772.7,-256"/>
<text text-anchor="middle" x="868.2" y="-282" font-family="monospace" font-size="10.00">pub(self) fn</text>
<polyline fill="none" stroke="black" points="772.7,-275 963.7,-275 "/>
<text text-anchor="middle" x="868.2" y="-263" font-family="monospace" font-size="10.00">runtime::value_type_to_string</text>
</g>
<!-- fleek_service_ai&#45;&gt;fleek_service_ai::runtime::value_type_to_string -->
<g id="edge38" class="edge">
<title>fleek_service_ai&#45;&gt;fleek_service_ai::runtime::value_type_to_string</title>
<path fill="none" stroke="#000000" d="M253.1,-343.11C365.54,-330.66 618.34,-302.67 762.41,-286.72"/>
<polygon fill="#000000" stroke="#000000" points="763.03,-290.17 772.59,-285.59 762.26,-283.21 763.03,-290.17"/>
<text text-anchor="middle" x="495.25" y="-317.91" font-family="monospace" font-size="10.00">owns</text>
</g>
<!-- fleek_service_ai::StartSession&#45;&gt;fleek_service_ai::opts::Device -->
<g id="edge39" class="edge">
<title>fleek_service_ai::StartSession&#45;&gt;fleek_service_ai::opts::Device</title>
<path fill="none" stroke="#7f7f7f" stroke-dasharray="5,2" d="M823.32,-446.54C687.62,-439.42 281.04,-418.1 132.64,-410.32"/>
<polygon fill="#7f7f7f" stroke="#7f7f7f" points="132.58,-406.81 122.41,-409.78 132.21,-413.8 132.58,-406.81"/>
<text text-anchor="middle" x="465.48" y="-431.43" font-family="monospace" font-size="10.00">uses</text>
</g>
<!-- fleek_service_ai::StartSession&#45;&gt;fleek_service_ai::opts::Encoding -->
<g id="edge40" class="edge">
<title>fleek_service_ai::StartSession&#45;&gt;fleek_service_ai::opts::Encoding</title>
<path fill="none" stroke="#7f7f7f" stroke-dasharray="5,2" d="M823.22,-443.75C814.88,-442.8 806.04,-441.78 797.33,-440.79"/>
<polygon fill="#7f7f7f" stroke="#7f7f7f" points="797.52,-437.28 787.18,-439.62 796.72,-444.24 797.52,-437.28"/>
<text text-anchor="middle" x="810.27" y="-434.27" font-family="monospace" font-size="10.00">uses</text>
</g>
<!-- fleek_service_ai::StartSession&#45;&gt;fleek_service_ai::opts::Format -->
<g id="edge41" class="edge">
<title>fleek_service_ai::StartSession&#45;&gt;fleek_service_ai::opts::Format</title>
<path fill="none" stroke="#7f7f7f" stroke-dasharray="5,2" d="M823.58,-441.44C689.37,-418.98 288.84,-351.95 141.96,-327.36"/>
<polygon fill="#7f7f7f" stroke="#7f7f7f" points="142.27,-323.87 131.83,-325.67 141.11,-330.77 142.27,-323.87"/>
<text text-anchor="middle" x="495.27" y="-376.4" font-family="monospace" font-size="10.00">uses</text>
</g>
<!-- fleek_service_ai::StartSession&#45;&gt;fleek_service_ai::opts::Origin -->
<g id="edge42" class="edge">
<title>fleek_service_ai::StartSession&#45;&gt;fleek_service_ai::opts::Origin</title>
<path fill="none" stroke="#7f7f7f" stroke-dasharray="5,2" d="M823.58,-436.89C687.97,-400.33 280.1,-290.37 131.83,-250.4"/>
<polygon fill="#7f7f7f" stroke="#7f7f7f" points="132.59,-246.98 122.03,-247.76 130.77,-253.74 132.59,-246.98"/>
<text text-anchor="middle" x="465.21" y="-346.65" font-family="monospace" font-size="10.00">uses</text>
</g>
<!-- fleek_service_ai::handler::handle&#45;&gt;fleek_service_ai::opts::Origin -->
<g id="edge43" class="edge">
<title>fleek_service_ai::handler::handle&#45;&gt;fleek_service_ai::opts::Origin</title>
<path fill="none" stroke="#7f7f7f" stroke-dasharray="5,2" d="M756.14,-659.76C642.57,-588.82 244.04,-339.89 116.65,-260.32"/>
<polygon fill="#7f7f7f" stroke="#7f7f7f" points="118.3,-257.22 107.96,-254.89 114.59,-263.16 118.3,-257.22"/>
<text text-anchor="middle" x="423.9" y="-463.04" font-family="monospace" font-size="10.00">uses</text>
</g>
<!-- fleek_service_ai::handler::handle&#45;&gt;fleek_service_ai::opts::Service -->
<g id="edge44" class="edge">
<title>fleek_service_ai::handler::handle&#45;&gt;fleek_service_ai::opts::Service</title>
<path fill="none" stroke="#7f7f7f" stroke-dasharray="5,2" d="M760.34,-659.59C652,-580.38 239.96,-279.13 117.81,-189.83"/>
<polygon fill="#7f7f7f" stroke="#7f7f7f" points="119.67,-186.85 109.53,-183.77 115.53,-192.5 119.67,-186.85"/>
<text text-anchor="middle" x="426.58" y="-427.71" font-family="monospace" font-size="10.00">uses</text>
</g>
<!-- fleek_service_ai::handler::load_model&#45;&gt;fleek_service_ai::opts::Origin -->
<g id="edge45" class="edge">
<title>fleek_service_ai::handler::load_model&#45;&gt;fleek_service_ai::opts::Origin</title>
<path fill="none" stroke="#7f7f7f" stroke-dasharray="5,2" d="M712.02,-706.61C608.9,-630.11 227.54,-347.21 111.15,-260.86"/>
<polygon fill="#7f7f7f" stroke="#7f7f7f" points="113.03,-257.9 102.91,-254.75 108.86,-263.52 113.03,-257.9"/>
<text text-anchor="middle" x="399.08" y="-486.73" font-family="monospace" font-size="10.00">uses</text>
</g>
<!-- fleek_service_ai::handler::serialize_output&#45;&gt;fleek_service_ai::opts::Format -->
<g id="edge46" class="edge">
<title>fleek_service_ai::handler::serialize_output&#45;&gt;fleek_service_ai::opts::Format</title>
<path fill="none" stroke="#7f7f7f" stroke-dasharray="5,2" d="M229.17,-730.6C205.64,-662.24 125.49,-429.49 97.18,-347.26"/>
<polygon fill="#7f7f7f" stroke="#7f7f7f" points="100.4,-345.88 93.84,-337.56 93.79,-348.16 100.4,-345.88"/>
<text text-anchor="middle" x="150.68" y="-541.93" font-family="monospace" font-size="10.00">uses</text>
</g>
<!-- fleek_service_ai::handler::serialize_output&#45;&gt;fleek_service_ai::runtime::RunOutput -->
<g id="edge47" class="edge">
<title>fleek_service_ai::handler::serialize_output&#45;&gt;fleek_service_ai::runtime::RunOutput</title>
<path fill="none" stroke="#7f7f7f" stroke-dasharray="5,2" d="M318.28,-730.67C433.4,-704.13 640.34,-656.43 749.94,-631.16"/>
<polygon fill="#7f7f7f" stroke="#7f7f7f" points="750.96,-634.52 759.92,-628.86 749.39,-627.7 750.96,-634.52"/>
<text text-anchor="middle" x="521.61" y="-683.92" font-family="monospace" font-size="10.00">uses</text>
</g>
<!-- fleek_service_ai::opts::BorshVector&#45;&gt;fleek_service_ai::opts::BorshVectorType -->
<g id="edge48" class="edge">
<title>fleek_service_ai::opts::BorshVector&#45;&gt;fleek_service_ai::opts::BorshVectorType</title>
<path fill="none" stroke="#7f7f7f" stroke-dasharray="5,2" d="M80.87,-559.29C79.93,-549.31 78.76,-536.87 77.71,-525.68"/>
<polygon fill="#7f7f7f" stroke="#7f7f7f" points="81.17,-525.09 76.75,-515.46 74.2,-525.74 81.17,-525.09"/>
<text text-anchor="middle" x="66.79" y="-545.49" font-family="monospace" font-size="10.00">uses</text>
</g>
<!-- fleek_service_ai::runtime::Session&#45;&gt;fleek_service_ai::opts::Encoding -->
<g id="edge49" class="edge">
<title>fleek_service_ai::runtime::Session&#45;&gt;fleek_service_ai::opts::Encoding</title>
<path fill="none" stroke="#7f7f7f" stroke-dasharray="5,2" d="M326.42,-428.66C414.9,-429.78 584.9,-431.92 675.8,-433.07"/>
<polygon fill="#7f7f7f" stroke="#7f7f7f" points="675.9,-436.57 685.94,-433.2 675.99,-429.57 675.9,-436.57"/>
<text text-anchor="middle" x="513.61" y="-433.86" font-family="monospace" font-size="10.00">uses</text>
</g>
<!-- fleek_service_ai::runtime::Session::model_info -->
<g id="node21" class="node">
<title>fleek_service_ai::runtime::Session::model_info</title>
<polygon fill="#81c169" stroke="black" points="351.75,-389.68 351.75,-427.68 536.75,-427.68 536.75,-389.68 351.75,-389.68"/>
<text text-anchor="middle" x="444.25" y="-415.68" font-family="monospace" font-size="10.00">pub fn</text>
<polyline fill="none" stroke="black" points="351.75,-408.68 536.75,-408.68 "/>
<text text-anchor="middle" x="444.25" y="-396.68" font-family="monospace" font-size="10.00">runtime::Session::model_info</text>
</g>
<!-- fleek_service_ai::runtime::Session&#45;&gt;fleek_service_ai::runtime::Session::model_info -->
<g id="edge50" class="edge">
<title>fleek_service_ai::runtime::Session&#45;&gt;fleek_service_ai::runtime::Session::model_info</title>
<path fill="none" stroke="#000000" d="M321.9,-446.95C353.87,-447.67 393.35,-441.9 418.68,-432.01"/>
<polygon fill="#000000" stroke="#000000" points="420.26,-435.14 427.97,-427.87 417.41,-428.75 420.26,-435.14"/>
<text text-anchor="middle" x="357.79" y="-442.48" font-family="monospace" font-size="10.00">owns</text>
</g>
<!-- fleek_service_ai::runtime::Session::new -->
<g id="node22" class="node">
<title>fleek_service_ai::runtime::Session::new</title>
<polygon fill="#81c169" stroke="black" points="658.12,-472.93 658.12,-510.93 801.12,-510.93 801.12,-472.93 658.12,-472.93"/>
<text text-anchor="middle" x="729.62" y="-498.93" font-family="monospace" font-size="10.00">pub fn</text>
<polyline fill="none" stroke="black" points="658.12,-491.93 801.12,-491.93 "/>
<text text-anchor="middle" x="729.62" y="-479.93" font-family="monospace" font-size="10.00">runtime::Session::new</text>
</g>
<!-- fleek_service_ai::runtime::Session&#45;&gt;fleek_service_ai::runtime::Session::new -->
<g id="edge51" class="edge">
<title>fleek_service_ai::runtime::Session&#45;&gt;fleek_service_ai::runtime::Session::new</title>
<path fill="none" stroke="#000000" d="M299.95,-446.97C369.77,-470.78 543.68,-497.1 647.6,-501.69"/>
<polygon fill="#000000" stroke="#000000" points="647.61,-505.2 657.74,-502.08 647.88,-498.2 647.61,-505.2"/>
<text text-anchor="middle" x="461.27" y="-466.33" font-family="monospace" font-size="10.00">owns</text>
</g>
<!-- fleek_service_ai::runtime::Session::run -->
<g id="node23" class="node">
<title>fleek_service_ai::runtime::Session::run</title>
<polygon fill="#81c169" stroke="black" points="640.38,-525.65 640.38,-563.65 783.38,-563.65 783.38,-525.65 640.38,-525.65"/>
<text text-anchor="middle" x="711.88" y="-551.65" font-family="monospace" font-size="10.00">pub fn</text>
<polyline fill="none" stroke="black" points="640.38,-544.65 783.38,-544.65 "/>
<text text-anchor="middle" x="711.88" y="-532.65" font-family="monospace" font-size="10.00">runtime::Session::run</text>
</g>
<!-- fleek_service_ai::runtime::Session&#45;&gt;fleek_service_ai::runtime::Session::run -->
<g id="edge52" class="edge">
<title>fleek_service_ai::runtime::Session&#45;&gt;fleek_service_ai::runtime::Session::run</title>
<path fill="none" stroke="#000000" d="M290.36,-446.99C350.36,-478.69 525.62,-527.65 630.35,-544.84"/>
<polygon fill="#000000" stroke="#000000" points="629.84,-548.3 640.26,-546.4 630.93,-541.39 629.84,-548.3"/>
<text text-anchor="middle" x="447.86" y="-498.92" font-family="monospace" font-size="10.00">owns</text>
</g>
<!-- fleek_service_ai::runtime::Session::model_info&#45;&gt;fleek_service_ai::runtime::Session -->
<g id="edge53" class="edge">
<title>fleek_service_ai::runtime::Session::model_info&#45;&gt;fleek_service_ai::runtime::Session</title>
<path fill="none" stroke="#7f7f7f" stroke-dasharray="5,2" d="M351.68,-391.74C330.81,-394.19 310.34,-398.67 295.06,-404.66"/>
<polygon fill="#7f7f7f" stroke="#7f7f7f" points="293.51,-401.52 285.82,-408.8 296.37,-407.9 293.51,-401.52"/>
<text text-anchor="middle" x="310.87" y="-390.2" font-family="monospace" font-size="10.00">uses</text>
</g>
<!-- fleek_service_ai::runtime::Session::model_info&#45;&gt;fleek_service_ai::runtime::model::Info -->
<g id="edge54" class="edge">
<title>fleek_service_ai::runtime::Session::model_info&#45;&gt;fleek_service_ai::runtime::model::Info</title>
<path fill="none" stroke="#7f7f7f" stroke-dasharray="5,2" d="M537.2,-396.5C537.36,-396.48 537.51,-396.46 537.66,-396.44"/>
<polygon fill="#7f7f7f" stroke="#7f7f7f" points="535.07,-400.31 544.53,-395.54 534.16,-393.37 535.07,-400.31"/>
<text text-anchor="middle" x="531.18" y="-388.47" font-family="monospace" font-size="10.00">uses</text>
</g>
<!-- fleek_service_ai::runtime::Session::new&#45;&gt;fleek_service_ai::opts::Encoding -->
<g id="edge55" class="edge">
<title>fleek_service_ai::runtime::Session::new&#45;&gt;fleek_service_ai::opts::Encoding</title>
<path fill="none" stroke="#7f7f7f" stroke-dasharray="5,2" d="M731.92,-472.91C732.29,-469.83 732.69,-466.58 733.08,-463.33"/>
<polygon fill="#7f7f7f" stroke="#7f7f7f" points="736.59,-463.45 734.32,-453.1 729.64,-462.61 736.59,-463.45"/>
<text text-anchor="middle" x="720" y="-460.12" font-family="monospace" font-size="10.00">uses</text>
</g>
<!-- fleek_service_ai::runtime::Session::new&#45;&gt;fleek_service_ai::runtime::Session -->
<g id="edge56" class="edge">
<title>fleek_service_ai::runtime::Session::new&#45;&gt;fleek_service_ai::runtime::Session</title>
<path fill="none" stroke="#7f7f7f" stroke-dasharray="5,2" d="M699.29,-472.9C625.99,-447.89 437.92,-420.14 336.61,-417.65"/>
<polygon fill="#7f7f7f" stroke="#7f7f7f" points="336.54,-414.15 326.49,-417.49 336.43,-421.15 336.54,-414.15"/>
<text text-anchor="middle" x="505.45" y="-448.28" font-family="monospace" font-size="10.00">uses</text>
</g>
<!-- fleek_service_ai::runtime::Session::run&#45;&gt;fleek_service_ai::opts::Encoding -->
<g id="edge57" class="edge">
<title>fleek_service_ai::runtime::Session::run&#45;&gt;fleek_service_ai::opts::Encoding</title>
<path fill="none" stroke="#7f7f7f" stroke-dasharray="5,2" d="M716.19,-525.35C720.05,-508.11 725.75,-482.61 730.15,-462.9"/>
<polygon fill="#7f7f7f" stroke="#7f7f7f" points="733.62,-463.44 732.39,-452.92 726.79,-461.92 733.62,-463.44"/>
<text text-anchor="middle" x="710.67" y="-497.13" font-family="monospace" font-size="10.00">uses</text>
</g>
<!-- fleek_service_ai::runtime::Session::run&#45;&gt;fleek_service_ai::runtime::RunOutput -->
<g id="edge58" class="edge">
<title>fleek_service_ai::runtime::Session::run&#45;&gt;fleek_service_ai::runtime::RunOutput</title>
<path fill="none" stroke="#7f7f7f" stroke-dasharray="5,2" d="M742.15,-563.71C754.97,-571.78 770.06,-581.29 783.7,-589.88"/>
<polygon fill="#7f7f7f" stroke="#7f7f7f" points="782.09,-593 792.41,-595.37 785.82,-587.08 782.09,-593"/>
<text text-anchor="middle" x="750.42" y="-579.8" font-family="monospace" font-size="10.00">uses</text>
</g>
<!-- fleek_service_ai::runtime::Session::run&#45;&gt;fleek_service_ai::runtime::Session -->
<g id="edge59" class="edge">
<title>fleek_service_ai::runtime::Session::run&#45;&gt;fleek_service_ai::runtime::Session</title>
<path fill="none" stroke="#7f7f7f" stroke-dasharray="5,2" d="M691.14,-525.6C628.23,-492.37 438.63,-440.16 336.45,-425.49"/>
<polygon fill="#7f7f7f" stroke="#7f7f7f" points="336.62,-421.98 326.24,-424.11 335.68,-428.92 336.62,-421.98"/>
<text text-anchor="middle" x="501.29" y="-478.54" font-family="monospace" font-size="10.00">uses</text>
</g>
</g>
</svg>
