<?xml version="1.0" encoding="UTF-8" standalone="no"?>
<!DOCTYPE svg PUBLIC "-//W3C//DTD SVG 1.1//EN"
 "http://www.w3.org/Graphics/SVG/1.1/DTD/svg11.dtd">
<!-- Generated by graphviz version 4.0.0 (0)
 -->
<!-- Pages: 1 -->
<svg width="864pt" height="812pt"
 viewBox="0.00 0.00 863.87 812.46" xmlns="http://www.w3.org/2000/svg" xmlns:xlink="http://www.w3.org/1999/xlink">
<g id="graph0" class="graph" transform="scale(1 1) rotate(0) translate(28.8 783.66)">
<polygon fill="white" stroke="transparent" points="-28.8,28.8 -28.8,-783.66 835.07,-783.66 835.07,28.8 -28.8,28.8"/>
<text text-anchor="middle" x="403.14" y="-722.06" font-family="Helvetica,sans-Serif" font-size="36.00">fleek_crypto</text>
<!-- fleek_crypto -->
<g id="node1" class="node">
<title>fleek_crypto</title>
<polygon fill="#5397c8" stroke="black" points="237.26,-19.9 237.26,-57.9 326.26,-57.9 326.26,-19.9 237.26,-19.9"/>
<text text-anchor="middle" x="281.76" y="-45.9" font-family="monospace" font-size="10.00">crate</text>
<polyline fill="none" stroke="black" points="237.26,-38.9 326.26,-38.9 "/>
<text text-anchor="middle" x="281.76" y="-26.9" font-family="monospace" font-size="10.00">fleek_crypto</text>
</g>
<!-- fleek_crypto::address -->
<g id="node2" class="node">
<title>fleek_crypto::address</title>
<polygon fill="#f8c04c" stroke="black" points="627.27,-178.05 627.27,-216.05 770.27,-216.05 770.27,-178.05 627.27,-178.05"/>
<text text-anchor="middle" x="698.77" y="-204.05" font-family="monospace" font-size="10.00">pub(crate) mod</text>
<polyline fill="none" stroke="black" points="627.27,-197.05 770.27,-197.05 "/>
<text text-anchor="middle" x="698.77" y="-185.05" font-family="monospace" font-size="10.00">fleek_crypto::address</text>
</g>
<!-- fleek_crypto&#45;&gt;fleek_crypto::address -->
<g id="edge1" class="edge">
<title>fleek_crypto&#45;&gt;fleek_crypto::address</title>
<path fill="none" stroke="#000000" d="M297.47,-58.16C349.33,-94.74 515.37,-160.85 617,-188.75"/>
<polygon fill="#000000" stroke="#000000" points="616.37,-192.2 626.93,-191.4 618.18,-185.44 616.37,-192.2"/>
<text text-anchor="middle" x="444.73" y="-126.45" font-family="monospace" font-size="10.00">owns</text>
</g>
<!-- fleek_crypto&#45;&gt;fleek_crypto::address -->
<g id="edge2" class="edge">
<title>fleek_crypto&#45;&gt;fleek_crypto::address</title>
<path fill="none" stroke="#7f7f7f" stroke-dasharray="5,2" d="M326.48,-38.19C414.67,-56.03 607.48,-129.84 675.07,-172.48"/>
<polygon fill="#7f7f7f" stroke="#7f7f7f" points="673.13,-175.39 683.4,-178.02 677.01,-169.57 673.13,-175.39"/>
<text text-anchor="middle" x="488.27" y="-108.33" font-family="monospace" font-size="10.00">uses</text>
</g>
<!-- fleek_crypto::base58_array -->
<g id="node3" class="node">
<title>fleek_crypto::base58_array</title>
<polygon fill="#f8c04c" stroke="black" points="62.8,-111.33 62.8,-149.33 235.8,-149.33 235.8,-111.33 62.8,-111.33"/>
<text text-anchor="middle" x="149.3" y="-137.33" font-family="monospace" font-size="10.00">pub(crate) mod</text>
<polyline fill="none" stroke="black" points="62.8,-130.33 235.8,-130.33 "/>
<text text-anchor="middle" x="149.3" y="-118.33" font-family="monospace" font-size="10.00">fleek_crypto::base58_array</text>
</g>
<!-- fleek_crypto&#45;&gt;fleek_crypto::base58_array -->
<g id="edge3" class="edge">
<title>fleek_crypto&#45;&gt;fleek_crypto::base58_array</title>
<path fill="none" stroke="#000000" d="M253.99,-58.07C234.04,-71.84 206.95,-90.54 185.32,-105.47"/>
<polygon fill="#000000" stroke="#000000" points="183.27,-102.63 177.03,-111.19 187.25,-108.39 183.27,-102.63"/>
<text text-anchor="middle" x="207.16" y="-84.77" font-family="monospace" font-size="10.00">owns</text>
</g>
<!-- fleek_crypto::hex_array -->
<g id="node4" class="node">
<title>fleek_crypto::hex_array</title>
<polygon fill="#f8c04c" stroke="black" points="514.54,-57.58 514.54,-95.58 669.54,-95.58 669.54,-57.58 514.54,-57.58"/>
<text text-anchor="middle" x="592.04" y="-83.58" font-family="monospace" font-size="10.00">pub(crate) mod</text>
<polyline fill="none" stroke="black" points="514.54,-76.58 669.54,-76.58 "/>
<text text-anchor="middle" x="592.04" y="-64.58" font-family="monospace" font-size="10.00">fleek_crypto::hex_array</text>
</g>
<!-- fleek_crypto&#45;&gt;fleek_crypto::hex_array -->
<g id="edge4" class="edge">
<title>fleek_crypto&#45;&gt;fleek_crypto::hex_array</title>
<path fill="none" stroke="#000000" d="M326.55,-44.34C372.78,-49.95 446.11,-58.86 504,-65.89"/>
<polygon fill="#000000" stroke="#000000" points="503.9,-69.4 514.25,-67.13 504.75,-62.45 503.9,-69.4"/>
<text text-anchor="middle" x="402.78" y="-58.11" font-family="monospace" font-size="10.00">owns</text>
</g>
<!-- fleek_crypto::keys -->
<g id="node5" class="node">
<title>fleek_crypto::keys</title>
<polygon fill="#f8c04c" stroke="black" points="380.67,-668.36 380.67,-706.36 505.67,-706.36 505.67,-668.36 380.67,-668.36"/>
<text text-anchor="middle" x="443.17" y="-694.36" font-family="monospace" font-size="10.00">pub(crate) mod</text>
<polyline fill="none" stroke="black" points="380.67,-687.36 505.67,-687.36 "/>
<text text-anchor="middle" x="443.17" y="-675.36" font-family="monospace" font-size="10.00">fleek_crypto::keys</text>
</g>
<!-- fleek_crypto&#45;&gt;fleek_crypto::keys -->
<g id="edge5" class="edge">
<title>fleek_crypto&#45;&gt;fleek_crypto::keys</title>
<path fill="none" stroke="#000000" d="M286.51,-57.96C309.38,-149.86 408.34,-547.46 435.98,-658.47"/>
<polygon fill="#000000" stroke="#000000" points="432.61,-659.44 438.42,-668.3 439.4,-657.75 432.61,-659.44"/>
<text text-anchor="middle" x="348.74" y="-361.21" font-family="monospace" font-size="10.00">owns</text>
</g>
<!-- fleek_crypto::keys::pk -->
<g id="node6" class="node">
<title>fleek_crypto::keys::pk</title>
<polygon fill="#db5367" stroke="black" points="0,-253.85 0,-291.85 149,-291.85 149,-253.85 0,-253.85"/>
<text text-anchor="middle" x="74.5" y="-279.85" font-family="monospace" font-size="10.00">pub(self) mod</text>
<polyline fill="none" stroke="black" points="0,-272.85 149,-272.85 "/>
<text text-anchor="middle" x="74.5" y="-260.85" font-family="monospace" font-size="10.00">fleek_crypto::keys::pk</text>
</g>
<!-- fleek_crypto&#45;&gt;fleek_crypto::keys::pk -->
<g id="edge6" class="edge">
<title>fleek_crypto&#45;&gt;fleek_crypto::keys::pk</title>
<path fill="none" stroke="#7f7f7f" stroke-dasharray="5,2" d="M264.8,-58.05C227.97,-99.62 140.59,-198.25 98.28,-246.01"/>
<polygon fill="#7f7f7f" stroke="#7f7f7f" points="95.42,-243.96 91.4,-253.77 100.66,-248.61 95.42,-243.96"/>
<text text-anchor="middle" x="169.04" y="-155.03" font-family="monospace" font-size="10.00">uses</text>
</g>
<!-- fleek_crypto::keys::sk::account -->
<g id="node8" class="node">
<title>fleek_crypto::keys::sk::account</title>
<polygon fill="#db5367" stroke="black" points="47.8,-557.33 47.8,-595.33 250.8,-595.33 250.8,-557.33 47.8,-557.33"/>
<text text-anchor="middle" x="149.3" y="-583.33" font-family="monospace" font-size="10.00">pub(self) mod</text>
<polyline fill="none" stroke="black" points="47.8,-576.33 250.8,-576.33 "/>
<text text-anchor="middle" x="149.3" y="-564.33" font-family="monospace" font-size="10.00">fleek_crypto::keys::sk::account</text>
</g>
<!-- fleek_crypto&#45;&gt;fleek_crypto::keys::sk::account -->
<g id="edge7" class="edge">
<title>fleek_crypto&#45;&gt;fleek_crypto::keys::sk::account</title>
<path fill="none" stroke="#7f7f7f" stroke-dasharray="5,2" d="M277.05,-58.03C257.19,-138.58 180.31,-450.52 156.42,-547.43"/>
<polygon fill="#7f7f7f" stroke="#7f7f7f" points="153.02,-546.6 154.03,-557.15 159.82,-548.28 153.02,-546.6"/>
<text text-anchor="middle" x="204.23" y="-305.73" font-family="monospace" font-size="10.00">uses</text>
</g>
<!-- fleek_crypto::keys::sk::consensus -->
<g id="node9" class="node">
<title>fleek_crypto::keys::sk::consensus</title>
<polygon fill="#db5367" stroke="black" points="591.27,-490.61 591.27,-528.61 806.27,-528.61 806.27,-490.61 591.27,-490.61"/>
<text text-anchor="middle" x="698.77" y="-516.61" font-family="monospace" font-size="10.00">pub(self) mod</text>
<polyline fill="none" stroke="black" points="591.27,-509.61 806.27,-509.61 "/>
<text text-anchor="middle" x="698.77" y="-497.61" font-family="monospace" font-size="10.00">fleek_crypto::keys::sk::consensus</text>
</g>
<!-- fleek_crypto&#45;&gt;fleek_crypto::keys::sk::consensus -->
<g id="edge8" class="edge">
<title>fleek_crypto&#45;&gt;fleek_crypto::keys::sk::consensus</title>
<path fill="none" stroke="#7f7f7f" stroke-dasharray="5,2" d="M298.63,-57.94C363.8,-131.5 599.32,-397.35 675.1,-482.89"/>
<polygon fill="#7f7f7f" stroke="#7f7f7f" points="672.68,-485.43 681.93,-490.59 677.92,-480.79 672.68,-485.43"/>
<text text-anchor="middle" x="474.36" y="-273.41" font-family="monospace" font-size="10.00">uses</text>
</g>
<!-- fleek_crypto::keys::sk::node -->
<g id="node10" class="node">
<title>fleek_crypto::keys::sk::node</title>
<polygon fill="#db5367" stroke="black" points="187.65,-648.56 187.65,-686.56 372.65,-686.56 372.65,-648.56 187.65,-648.56"/>
<text text-anchor="middle" x="280.15" y="-674.56" font-family="monospace" font-size="10.00">pub(self) mod</text>
<polyline fill="none" stroke="black" points="187.65,-667.56 372.65,-667.56 "/>
<text text-anchor="middle" x="280.15" y="-655.56" font-family="monospace" font-size="10.00">fleek_crypto::keys::sk::node</text>
</g>
<!-- fleek_crypto&#45;&gt;fleek_crypto::keys::sk::node -->
<g id="edge9" class="edge">
<title>fleek_crypto&#45;&gt;fleek_crypto::keys::sk::node</title>
<path fill="none" stroke="#7f7f7f" stroke-dasharray="5,2" d="M281.71,-58.06C281.48,-148.08 280.5,-529.25 280.22,-638.3"/>
<polygon fill="#7f7f7f" stroke="#7f7f7f" points="276.72,-638.55 280.2,-648.55 283.72,-638.56 276.72,-638.55"/>
<text text-anchor="middle" x="268.47" y="-351.18" font-family="monospace" font-size="10.00">uses</text>
</g>
<!-- fleek_crypto::traits -->
<g id="node11" class="node">
<title>fleek_crypto::traits</title>
<polygon fill="#f8c04c" stroke="black" points="6,-414.81 6,-452.81 143,-452.81 143,-414.81 6,-414.81"/>
<text text-anchor="middle" x="74.5" y="-440.81" font-family="monospace" font-size="10.00">pub(crate) mod</text>
<polyline fill="none" stroke="black" points="6,-433.81 143,-433.81 "/>
<text text-anchor="middle" x="74.5" y="-421.81" font-family="monospace" font-size="10.00">fleek_crypto::traits</text>
</g>
<!-- fleek_crypto&#45;&gt;fleek_crypto::traits -->
<g id="edge10" class="edge">
<title>fleek_crypto&#45;&gt;fleek_crypto::traits</title>
<path fill="none" stroke="#000000" d="M255.78,-57.92C202.49,-122.19 95.09,-327.27 74.6,-404.53"/>
<polygon fill="#000000" stroke="#000000" points="71.12,-404.03 72.3,-414.56 77.95,-405.59 71.12,-404.03"/>
<text text-anchor="middle" x="152.69" y="-234.23" font-family="monospace" font-size="10.00">owns</text>
</g>
<!-- fleek_crypto&#45;&gt;fleek_crypto::traits -->
<g id="edge11" class="edge">
<title>fleek_crypto&#45;&gt;fleek_crypto::traits</title>
<path fill="none" stroke="#7f7f7f" stroke-dasharray="5,2" d="M283.99,-58C272.04,-122.93 164.91,-330.85 107.08,-406.48"/>
<polygon fill="#7f7f7f" stroke="#7f7f7f" points="104.09,-404.61 100.62,-414.62 109.58,-408.96 104.09,-404.61"/>
<text text-anchor="middle" x="183.03" y="-235.24" font-family="monospace" font-size="10.00">uses</text>
</g>
<!-- fleek_crypto::transaction -->
<g id="node12" class="node">
<title>fleek_crypto::transaction</title>
<polygon fill="#f8c04c" stroke="black" points="358.04,-0.5 358.04,-38.5 525.04,-38.5 525.04,-0.5 358.04,-0.5"/>
<text text-anchor="middle" x="441.54" y="-26.5" font-family="monospace" font-size="10.00">pub(crate) mod</text>
<polyline fill="none" stroke="black" points="358.04,-19.5 525.04,-19.5 "/>
<text text-anchor="middle" x="441.54" y="-7.5" font-family="monospace" font-size="10.00">fleek_crypto::transaction</text>
</g>
<!-- fleek_crypto&#45;&gt;fleek_crypto::transaction -->
<g id="edge12" class="edge">
<title>fleek_crypto&#45;&gt;fleek_crypto::transaction</title>
<path fill="none" stroke="#000000" d="M326.65,-57.72C356.32,-58.97 394,-53.21 417.98,-43.08"/>
<polygon fill="#000000" stroke="#000000" points="419.6,-46.18 427.05,-38.65 416.53,-39.89 419.6,-46.18"/>
<text text-anchor="middle" x="359.81" y="-53.4" font-family="monospace" font-size="10.00">owns</text>
</g>
<!-- fleek_crypto&#45;&gt;fleek_crypto::transaction -->
<g id="edge13" class="edge">
<title>fleek_crypto&#45;&gt;fleek_crypto::transaction</title>
<path fill="none" stroke="#7f7f7f" stroke-dasharray="5,2" d="M296.18,-19.79C308.6,-12.69 327.64,-7.16 347.89,-3.88"/>
<polygon fill="#7f7f7f" stroke="#7f7f7f" points="348.5,-7.33 357.91,-2.46 347.51,-0.4 348.5,-7.33"/>
<text text-anchor="middle" x="309.54" y="-3.84" font-family="monospace" font-size="10.00">uses</text>
</g>
<!-- fleek_crypto::address&#45;&gt;fleek_crypto::hex_array -->
<g id="edge14" class="edge">
<title>fleek_crypto::address&#45;&gt;fleek_crypto::hex_array</title>
<path fill="none" stroke="#7f7f7f" stroke-dasharray="5,2" d="M681.86,-177.96C663.98,-157.78 635.65,-125.8 615.59,-103.16"/>
<polygon fill="#7f7f7f" stroke="#7f7f7f" points="618.12,-100.74 608.87,-95.58 612.88,-105.38 618.12,-100.74"/>
<text text-anchor="middle" x="636.23" y="-143.56" font-family="monospace" font-size="10.00">uses</text>
</g>
<!-- fleek_crypto::address&#45;&gt;fleek_crypto::keys::pk -->
<g id="edge15" class="edge">
<title>fleek_crypto::address&#45;&gt;fleek_crypto::keys::pk</title>
<path fill="none" stroke="#7f7f7f" stroke-dasharray="5,2" d="M627.16,-205.75C511.28,-219.82 283.17,-247.51 159.34,-262.55"/>
<polygon fill="#7f7f7f" stroke="#7f7f7f" points="158.65,-259.11 149.14,-263.79 159.49,-266.06 158.65,-259.11"/>
<text text-anchor="middle" x="380.75" y="-237.15" font-family="monospace" font-size="10.00">uses</text>
</g>
<!-- fleek_crypto::keys&#45;&gt;fleek_crypto::keys::pk -->
<g id="edge16" class="edge">
<title>fleek_crypto::keys&#45;&gt;fleek_crypto::keys::pk</title>
<path fill="none" stroke="#000000" d="M439.62,-668.29C406,-599.83 209.71,-376.06 118.94,-298.56"/>
<polygon fill="#000000" stroke="#000000" points="120.94,-295.67 111.02,-291.96 116.46,-301.05 120.94,-295.67"/>
<text text-anchor="middle" x="266.78" y="-486.43" font-family="monospace" font-size="10.00">owns</text>
</g>
<!-- fleek_crypto::keys&#45;&gt;fleek_crypto::keys::pk -->
<g id="edge17" class="edge">
<title>fleek_crypto::keys&#45;&gt;fleek_crypto::keys::pk</title>
<path fill="none" stroke="#7f7f7f" stroke-dasharray="5,2" d="M406.63,-668.24C323.47,-600.64 129.39,-381.38 83.13,-301.36"/>
<polygon fill="#7f7f7f" stroke="#7f7f7f" points="86.07,-299.44 78.24,-292.31 79.91,-302.77 86.07,-299.44"/>
<text text-anchor="middle" x="232.38" y="-487.8" font-family="monospace" font-size="10.00">uses</text>
</g>
<!-- fleek_crypto::keys::sk -->
<g id="node7" class="node">
<title>fleek_crypto::keys::sk</title>
<polygon fill="#db5367" stroke="black" points="517.54,-611.08 517.54,-649.08 666.54,-649.08 666.54,-611.08 517.54,-611.08"/>
<text text-anchor="middle" x="592.04" y="-637.08" font-family="monospace" font-size="10.00">pub(self) mod</text>
<polyline fill="none" stroke="black" points="517.54,-630.08 666.54,-630.08 "/>
<text text-anchor="middle" x="592.04" y="-618.08" font-family="monospace" font-size="10.00">fleek_crypto::keys::sk</text>
</g>
<!-- fleek_crypto::keys&#45;&gt;fleek_crypto::keys::sk -->
<g id="edge18" class="edge">
<title>fleek_crypto::keys&#45;&gt;fleek_crypto::keys::sk</title>
<path fill="none" stroke="#000000" d="M492.74,-668.29C505.6,-663.34 519.59,-657.96 532.89,-652.84"/>
<polygon fill="#000000" stroke="#000000" points="534.35,-656.03 542.43,-649.17 531.84,-649.49 534.35,-656.03"/>
<text text-anchor="middle" x="500.31" y="-652.56" font-family="monospace" font-size="10.00">owns</text>
</g>
<!-- fleek_crypto::keys&#45;&gt;fleek_crypto::keys::sk::account -->
<g id="edge19" class="edge">
<title>fleek_crypto::keys&#45;&gt;fleek_crypto::keys::sk::account</title>
<path fill="none" stroke="#7f7f7f" stroke-dasharray="5,2" d="M392.65,-668.27C341.72,-649.03 263.11,-619.33 209.1,-598.92"/>
<polygon fill="#7f7f7f" stroke="#7f7f7f" points="210.24,-595.61 199.65,-595.35 207.77,-602.16 210.24,-595.61"/>
<text text-anchor="middle" x="288.37" y="-636.59" font-family="monospace" font-size="10.00">uses</text>
</g>
<!-- fleek_crypto::keys&#45;&gt;fleek_crypto::keys::sk::consensus -->
<g id="edge20" class="edge">
<title>fleek_crypto::keys&#45;&gt;fleek_crypto::keys::sk::consensus</title>
<path fill="none" stroke="#7f7f7f" stroke-dasharray="5,2" d="M470.52,-668.33C517,-636.01 611.37,-570.39 663.02,-534.47"/>
<polygon fill="#7f7f7f" stroke="#7f7f7f" points="665.02,-537.34 671.23,-528.76 661.02,-531.6 665.02,-537.34"/>
<text text-anchor="middle" x="554.27" y="-593.4" font-family="monospace" font-size="10.00">uses</text>
</g>
<!-- fleek_crypto::keys&#45;&gt;fleek_crypto::keys::sk::node -->
<g id="edge21" class="edge">
<title>fleek_crypto::keys&#45;&gt;fleek_crypto::keys::sk::node</title>
<path fill="none" stroke="#7f7f7f" stroke-dasharray="5,2" d="M380.61,-679.76C380.44,-679.74 380.28,-679.72 380.12,-679.7"/>
<polygon fill="#7f7f7f" stroke="#7f7f7f" points="383.07,-676.53 372.72,-678.8 382.23,-683.48 383.07,-676.53"/>
<text text-anchor="middle" x="367.86" y="-682.73" font-family="monospace" font-size="10.00">uses</text>
</g>
<!-- fleek_crypto::keys::pk&#45;&gt;fleek_crypto::base58_array -->
<g id="edge22" class="edge">
<title>fleek_crypto::keys::pk&#45;&gt;fleek_crypto::base58_array</title>
<path fill="none" stroke="#7f7f7f" stroke-dasharray="5,2" d="M84.59,-253.63C97.41,-229.19 119.66,-186.8 134.43,-158.66"/>
<polygon fill="#7f7f7f" stroke="#7f7f7f" points="137.58,-160.19 139.13,-149.71 131.39,-156.93 137.58,-160.19"/>
<text text-anchor="middle" x="97.01" y="-209.14" font-family="monospace" font-size="10.00">uses</text>
</g>
<!-- fleek_crypto::keys::pk&#45;&gt;fleek_crypto::traits -->
<g id="edge23" class="edge">
<title>fleek_crypto::keys::pk&#45;&gt;fleek_crypto::traits</title>
<path fill="none" stroke="#7f7f7f" stroke-dasharray="5,2" d="M74.5,-291.95C74.5,-319.78 74.5,-371.72 74.5,-404.44"/>
<polygon fill="#7f7f7f" stroke="#7f7f7f" points="71,-404.74 74.5,-414.74 78,-404.74 71,-404.74"/>
<text text-anchor="middle" x="62" y="-351.19" font-family="monospace" font-size="10.00">uses</text>
</g>
<!-- fleek_crypto::keys::sk&#45;&gt;fleek_crypto::keys::sk::account -->
<g id="edge24" class="edge">
<title>fleek_crypto::keys::sk&#45;&gt;fleek_crypto::keys::sk::account</title>
<path fill="none" stroke="#000000" d="M560.58,-611.06C499.15,-591.36 360.65,-571.67 261.34,-566.11"/>
<polygon fill="#000000" stroke="#000000" points="261.41,-562.61 251.25,-565.59 261.05,-569.6 261.41,-562.61"/>
<text text-anchor="middle" x="398.46" y="-591.58" font-family="monospace" font-size="10.00">owns</text>
</g>
<!-- fleek_crypto::keys::sk&#45;&gt;fleek_crypto::keys::sk::account -->
<g id="edge25" class="edge">
<title>fleek_crypto::keys::sk&#45;&gt;fleek_crypto::keys::sk::account</title>
<path fill="none" stroke="#7f7f7f" stroke-dasharray="5,2" d="M517.44,-641.74C423.49,-640.08 265.36,-619.64 190.69,-598.35"/>
<polygon fill="#7f7f7f" stroke="#7f7f7f" points="191.31,-594.88 180.72,-595.34 189.28,-601.58 191.31,-594.88"/>
<text text-anchor="middle" x="341.56" y="-623.04" font-family="monospace" font-size="10.00">uses</text>
</g>
<!-- fleek_crypto::keys::sk&#45;&gt;fleek_crypto::keys::sk::consensus -->
<g id="edge26" class="edge">
<title>fleek_crypto::keys::sk&#45;&gt;fleek_crypto::keys::sk::consensus</title>
<path fill="none" stroke="#000000" d="M642.1,-611.08C665.47,-590.99 689.36,-561.1 698.84,-538.25"/>
<polygon fill="#000000" stroke="#000000" points="702.21,-539.22 702.06,-528.63 695.57,-537 702.21,-539.22"/>
<text text-anchor="middle" x="657.97" y="-577.66" font-family="monospace" font-size="10.00">owns</text>
</g>
<!-- fleek_crypto::keys::sk&#45;&gt;fleek_crypto::keys::sk::consensus -->
<g id="edge27" class="edge">
<title>fleek_crypto::keys::sk&#45;&gt;fleek_crypto::keys::sk::consensus</title>
<path fill="none" stroke="#7f7f7f" stroke-dasharray="5,2" d="M588.76,-611.02C593.86,-589.87 616.81,-558.48 640.96,-535.62"/>
<polygon fill="#7f7f7f" stroke="#7f7f7f" points="643.41,-538.12 648.48,-528.82 638.71,-532.93 643.41,-538.12"/>
<text text-anchor="middle" x="602.36" y="-576.32" font-family="monospace" font-size="10.00">uses</text>
</g>
<!-- fleek_crypto::keys::sk&#45;&gt;fleek_crypto::keys::sk::node -->
<g id="edge28" class="edge">
<title>fleek_crypto::keys::sk&#45;&gt;fleek_crypto::keys::sk::node</title>
<path fill="none" stroke="#000000" d="M517.33,-615.73C453.08,-616.97 363.31,-629.43 314.7,-645.12"/>
<polygon fill="#000000" stroke="#000000" points="313.26,-641.91 304.98,-648.51 315.57,-648.52 313.26,-641.91"/>
<text text-anchor="middle" x="403.52" y="-633.42" font-family="monospace" font-size="10.00">owns</text>
</g>
<!-- fleek_crypto::keys::sk&#45;&gt;fleek_crypto::keys::sk::node -->
<g id="edge29" class="edge">
<title>fleek_crypto::keys::sk&#45;&gt;fleek_crypto::keys::sk::node</title>
<path fill="none" stroke="#7f7f7f" stroke-dasharray="5,2" d="M567.35,-649.08C527.87,-664.11 448.43,-676.83 383.07,-680.76"/>
<polygon fill="#7f7f7f" stroke="#7f7f7f" points="382.51,-677.29 372.71,-681.32 382.89,-684.28 382.51,-677.29"/>
<text text-anchor="middle" x="462.71" y="-656.92" font-family="monospace" font-size="10.00">uses</text>
</g>
<!-- fleek_crypto::keys::sk::account&#45;&gt;fleek_crypto::keys::pk -->
<g id="edge30" class="edge">
<title>fleek_crypto::keys::sk::account&#45;&gt;fleek_crypto::keys::pk</title>
<path fill="none" stroke="#7f7f7f" stroke-dasharray="5,2" d="M144.51,-556.88C131.74,-505.06 96.83,-363.44 81.68,-301.97"/>
<polygon fill="#7f7f7f" stroke="#7f7f7f" points="85.04,-301.01 79.25,-292.14 78.25,-302.68 85.04,-301.01"/>
<text text-anchor="middle" x="100.59" y="-432.42" font-family="monospace" font-size="10.00">uses</text>
</g>
<!-- fleek_crypto::keys::sk::account&#45;&gt;fleek_crypto::traits -->
<g id="edge31" class="edge">
<title>fleek_crypto::keys::sk::account&#45;&gt;fleek_crypto::traits</title>
<path fill="none" stroke="#7f7f7f" stroke-dasharray="5,2" d="M139.21,-557.1C126.39,-532.67 104.14,-490.27 89.37,-462.13"/>
<polygon fill="#7f7f7f" stroke="#7f7f7f" points="92.41,-460.41 84.67,-453.18 86.22,-463.66 92.41,-460.41"/>
<text text-anchor="middle" x="101.79" y="-512.62" font-family="monospace" font-size="10.00">uses</text>
</g>
<!-- pem_rfc7468 -->
<g id="node13" class="node">
<title>pem_rfc7468</title>
<polygon fill="#5397c8" stroke="black" points="686.79,-334.33 686.79,-372.33 787.79,-372.33 787.79,-334.33 686.79,-334.33"/>
<text text-anchor="middle" x="737.29" y="-360.33" font-family="monospace" font-size="10.00">external crate</text>
<polyline fill="none" stroke="black" points="686.79,-353.33 787.79,-353.33 "/>
<text text-anchor="middle" x="737.29" y="-341.33" font-family="monospace" font-size="10.00">pem_rfc7468</text>
</g>
<!-- fleek_crypto::keys::sk::account&#45;&gt;pem_rfc7468 -->
<g id="edge32" class="edge">
<title>fleek_crypto::keys::sk::account&#45;&gt;pem_rfc7468</title>
<path fill="none" stroke="#7f7f7f" stroke-dasharray="5,2" d="M199.43,-557.31C307.35,-516.39 561.26,-420.09 677.41,-376.04"/>
<polygon fill="#7f7f7f" stroke="#7f7f7f" points="678.76,-379.27 686.87,-372.45 676.28,-372.73 678.76,-379.27"/>
<text text-anchor="middle" x="425.92" y="-469.68" font-family="monospace" font-size="10.00">uses</text>
</g>
<!-- fleek_crypto::keys::sk::consensus&#45;&gt;fleek_crypto::keys::pk -->
<g id="edge33" class="edge">
<title>fleek_crypto::keys::sk::consensus&#45;&gt;fleek_crypto::keys::pk</title>
<path fill="none" stroke="#7f7f7f" stroke-dasharray="5,2" d="M648.48,-490.53C534.49,-447.3 256.87,-342.02 134.32,-295.54"/>
<polygon fill="#7f7f7f" stroke="#7f7f7f" points="135.31,-292.17 124.71,-291.9 132.82,-298.71 135.31,-292.17"/>
<text text-anchor="middle" x="378.9" y="-396.04" font-family="monospace" font-size="10.00">uses</text>
</g>
<!-- fleek_crypto::keys::sk::consensus&#45;&gt;fleek_crypto::traits -->
<g id="edge34" class="edge">
<title>fleek_crypto::keys::sk::consensus&#45;&gt;fleek_crypto::traits</title>
<path fill="none" stroke="#7f7f7f" stroke-dasharray="5,2" d="M591.1,-496.53C466.46,-481.4 264.16,-456.84 153.31,-443.38"/>
<polygon fill="#7f7f7f" stroke="#7f7f7f" points="153.55,-439.88 143.21,-442.15 152.71,-446.83 153.55,-439.88"/>
<text text-anchor="middle" x="359.71" y="-472.96" font-family="monospace" font-size="10.00">uses</text>
</g>
<!-- fleek_crypto::keys::sk::consensus&#45;&gt;pem_rfc7468 -->
<g id="edge35" class="edge">
<title>fleek_crypto::keys::sk::consensus&#45;&gt;pem_rfc7468</title>
<path fill="none" stroke="#7f7f7f" stroke-dasharray="5,2" d="M703.5,-490.44C710.14,-463.5 722.29,-414.18 730.07,-382.61"/>
<polygon fill="#7f7f7f" stroke="#7f7f7f" points="733.53,-383.2 732.53,-372.65 726.74,-381.52 733.53,-383.2"/>
<text text-anchor="middle" x="704.28" y="-439.53" font-family="monospace" font-size="10.00">uses</text>
</g>
<!-- fleek_crypto::keys::sk::node&#45;&gt;fleek_crypto::keys::pk -->
<g id="edge36" class="edge">
<title>fleek_crypto::keys::sk::node&#45;&gt;fleek_crypto::keys::pk</title>
<path fill="none" stroke="#7f7f7f" stroke-dasharray="5,2" d="M270.23,-648.52C236.91,-584.58 128.9,-377.26 89.26,-301.18"/>
<polygon fill="#7f7f7f" stroke="#7f7f7f" points="92.28,-299.41 84.56,-292.16 86.08,-302.65 92.28,-299.41"/>
<text text-anchor="middle" x="167.25" y="-477.85" font-family="monospace" font-size="10.00">uses</text>
</g>
<!-- fleek_crypto::keys::sk::node&#45;&gt;fleek_crypto::traits -->
<g id="edge37" class="edge">
<title>fleek_crypto::keys::sk::node&#45;&gt;fleek_crypto::traits</title>
<path fill="none" stroke="#7f7f7f" stroke-dasharray="5,2" d="M263.32,-648.43C226.78,-606.89 140.08,-508.35 98.09,-460.62"/>
<polygon fill="#7f7f7f" stroke="#7f7f7f" points="100.51,-458.07 91.27,-452.87 95.25,-462.69 100.51,-458.07"/>
<text text-anchor="middle" x="168.21" y="-546.53" font-family="monospace" font-size="10.00">uses</text>
</g>
<!-- fleek_crypto::keys::sk::node&#45;&gt;pem_rfc7468 -->
<g id="edge38" class="edge">
<title>fleek_crypto::keys::sk::node&#45;&gt;pem_rfc7468</title>
<path fill="none" stroke="#7f7f7f" stroke-dasharray="5,2" d="M308.06,-648.38C387.13,-594.02 612.66,-439 701.09,-378.21"/>
<polygon fill="#7f7f7f" stroke="#7f7f7f" points="703.2,-381.01 709.46,-372.46 699.24,-375.24 703.2,-381.01"/>
<text text-anchor="middle" x="492.07" y="-516.3" font-family="monospace" font-size="10.00">uses</text>
</g>
<!-- fleek_crypto::transaction&#45;&gt;fleek_crypto::address -->
<g id="edge39" class="edge">
<title>fleek_crypto::transaction&#45;&gt;fleek_crypto::address</title>
<path fill="none" stroke="#7f7f7f" stroke-dasharray="5,2" d="M469.07,-38.5C515.85,-70.79 610.81,-136.34 662.79,-172.21"/>
<polygon fill="#7f7f7f" stroke="#7f7f7f" points="660.84,-175.12 671.05,-177.92 664.81,-169.36 660.84,-175.12"/>
<text text-anchor="middle" x="553.43" y="-108.36" font-family="monospace" font-size="10.00">uses</text>
</g>
<!-- fleek_crypto::transaction&#45;&gt;fleek_crypto::keys::pk -->
<g id="edge40" class="edge">
<title>fleek_crypto::transaction&#45;&gt;fleek_crypto::keys::pk</title>
<path fill="none" stroke="#7f7f7f" stroke-dasharray="5,2" d="M413.96,-38.54C348.59,-83.66 184.29,-197.07 110.89,-247.73"/>
<polygon fill="#7f7f7f" stroke="#7f7f7f" points="108.65,-245.03 102.41,-253.59 112.63,-250.79 108.65,-245.03"/>
<text text-anchor="middle" x="249.93" y="-146.14" font-family="monospace" font-size="10.00">uses</text>
</g>
<!-- fleek_crypto::transaction&#45;&gt;fleek_crypto::traits -->
<g id="edge41" class="edge">
<title>fleek_crypto::transaction&#45;&gt;fleek_crypto::traits</title>
<path fill="none" stroke="#7f7f7f" stroke-dasharray="5,2" d="M424.58,-38.65C365.4,-105.45 168,-328.27 98.76,-406.43"/>
<polygon fill="#7f7f7f" stroke="#7f7f7f" points="95.72,-404.57 91.71,-414.38 100.96,-409.22 95.72,-404.57"/>
<text text-anchor="middle" x="249.17" y="-225.54" font-family="monospace" font-size="10.00">uses</text>
</g>
</g>
</svg>
