<?xml version="1.0" encoding="UTF-8" standalone="no"?>
<!DOCTYPE svg PUBLIC "-//W3C//DTD SVG 1.1//EN"
 "http://www.w3.org/Graphics/SVG/1.1/DTD/svg11.dtd">
<!-- Generated by graphviz version 4.0.0 (0)
 -->
<!-- Pages: 1 -->
<svg width="568pt" height="436pt"
 viewBox="0.00 0.00 568.23 435.62" xmlns="http://www.w3.org/2000/svg" xmlns:xlink="http://www.w3.org/1999/xlink">
<g id="graph0" class="graph" transform="scale(1 1) rotate(0) translate(28.8 406.82)">
<polygon fill="white" stroke="transparent" points="-28.8,28.8 -28.8,-406.82 539.43,-406.82 539.43,28.8 -28.8,28.8"/>
<text text-anchor="middle" x="255.31" y="-345.22" font-family="Helvetica,sans-Serif" font-size="36.00">lightning_indexer</text>
<!-- lightning_indexer -->
<g id="node1" class="node">
<title>lightning_indexer</title>
<polygon fill="#5397c8" stroke="black" points="86.74,-35.36 86.74,-73.36 205.74,-73.36 205.74,-35.36 86.74,-35.36"/>
<text text-anchor="middle" x="146.24" y="-61.36" font-family="monospace" font-size="10.00">crate</text>
<polyline fill="none" stroke="black" points="86.74,-54.36 205.74,-54.36 "/>
<text text-anchor="middle" x="146.24" y="-42.36" font-family="monospace" font-size="10.00">lightning_indexer</text>
</g>
<!-- lightning_indexer::Indexer -->
<g id="node2" class="node">
<title>lightning_indexer::Indexer</title>
<polygon fill="#81c169" stroke="black" points="246.96,-146.02 246.96,-184.02 323.96,-184.02 323.96,-146.02 246.96,-146.02"/>
<text text-anchor="middle" x="285.46" y="-172.02" font-family="monospace" font-size="10.00">pub struct</text>
<polyline fill="none" stroke="black" points="246.96,-165.02 323.96,-165.02 "/>
<text text-anchor="middle" x="285.46" y="-153.02" font-family="monospace" font-size="10.00">Indexer</text>
</g>
<!-- lightning_indexer&#45;&gt;lightning_indexer::Indexer -->
<g id="edge1" class="edge">
<title>lightning_indexer&#45;&gt;lightning_indexer::Indexer</title>
<path fill="none" stroke="#000000" d="M170.18,-73.38C193.19,-91.67 228.12,-119.44 253.5,-139.61"/>
<polygon fill="#000000" stroke="#000000" points="251.37,-142.39 261.38,-145.87 255.73,-136.91 251.37,-142.39"/>
<text text-anchor="middle" x="199.34" y="-109.49" font-family="monospace" font-size="10.00">owns</text>
</g>
<!-- lightning_indexer::config::Config -->
<g id="node8" class="node">
<title>lightning_indexer::config::Config</title>
<polygon fill="#81c169" stroke="black" points="0,-146.54 0,-184.54 101,-184.54 101,-146.54 0,-146.54"/>
<text text-anchor="middle" x="50.5" y="-172.54" font-family="monospace" font-size="10.00">pub struct</text>
<polyline fill="none" stroke="black" points="0,-165.54 101,-165.54 "/>
<text text-anchor="middle" x="50.5" y="-153.54" font-family="monospace" font-size="10.00">config::Config</text>
</g>
<!-- lightning_indexer&#45;&gt;lightning_indexer::config::Config -->
<g id="edge2" class="edge">
<title>lightning_indexer&#45;&gt;lightning_indexer::config::Config</title>
<path fill="none" stroke="#000000" d="M96.16,-73.56C76.43,-91.38 57.29,-116.54 49.42,-136.68"/>
<polygon fill="#000000" stroke="#000000" points="46.03,-135.8 46.45,-146.39 52.72,-137.85 46.03,-135.8"/>
<text text-anchor="middle" x="60.29" y="-108.12" font-family="monospace" font-size="10.00">owns</text>
</g>
<!-- lightning_indexer&#45;&gt;lightning_indexer::config::Config -->
<g id="edge3" class="edge">
<title>lightning_indexer&#45;&gt;lightning_indexer::config::Config</title>
<path fill="none" stroke="#7f7f7f" stroke-dasharray="5,2" d="M150.32,-73.39C146.43,-92.35 128.09,-119.21 107.67,-139.6"/>
<polygon fill="#7f7f7f" stroke="#7f7f7f" points="105.22,-137.1 100.38,-146.52 110.04,-142.17 105.22,-137.1"/>
<text text-anchor="middle" x="116.5" y="-109.49" font-family="monospace" font-size="10.00">uses</text>
</g>
<!-- lightning_indexer::Indexer::Config -->
<g id="node3" class="node">
<title>lightning_indexer::Indexer::Config</title>
<polygon fill="#f8c04c" stroke="black" points="109.01,-146.18 109.01,-184.18 216.01,-184.18 216.01,-146.18 109.01,-146.18"/>
<text text-anchor="middle" x="162.51" y="-172.18" font-family="monospace" font-size="10.00">pub(crate) type</text>
<polyline fill="none" stroke="black" points="109.01,-165.18 216.01,-165.18 "/>
<text text-anchor="middle" x="162.51" y="-153.18" font-family="monospace" font-size="10.00">Indexer::Config</text>
</g>
<!-- lightning_indexer::Indexer&#45;&gt;lightning_indexer::Indexer::Config -->
<g id="edge4" class="edge">
<title>lightning_indexer::Indexer&#45;&gt;lightning_indexer::Indexer::Config</title>
<path fill="none" stroke="#000000" d="M246.9,-165.07C240.37,-165.08 233.44,-165.09 226.46,-165.09"/>
<polygon fill="#000000" stroke="#000000" points="226.25,-161.59 216.25,-165.11 226.26,-168.59 226.25,-161.59"/>
<text text-anchor="middle" x="230.43" y="-157.08" font-family="monospace" font-size="10.00">owns</text>
</g>
<!-- lightning_indexer::Indexer::get_index -->
<g id="node4" class="node">
<title>lightning_indexer::Indexer::get_index</title>
<polygon fill="#f8c04c" stroke="black" points="385.63,-145.83 385.63,-183.83 510.63,-183.83 510.63,-145.83 385.63,-145.83"/>
<text text-anchor="middle" x="448.13" y="-171.83" font-family="monospace" font-size="10.00">pub(crate) fn</text>
<polyline fill="none" stroke="black" points="385.63,-164.83 510.63,-164.83 "/>
<text text-anchor="middle" x="448.13" y="-152.83" font-family="monospace" font-size="10.00">Indexer::get_index</text>
</g>
<!-- lightning_indexer::Indexer&#45;&gt;lightning_indexer::Indexer::get_index -->
<g id="edge5" class="edge">
<title>lightning_indexer::Indexer&#45;&gt;lightning_indexer::Indexer::get_index</title>
<path fill="none" stroke="#000000" d="M307.08,-184.03C335.25,-193.6 384.68,-194.46 416.91,-186.67"/>
<polygon fill="#000000" stroke="#000000" points="418.08,-189.98 426.72,-183.84 416.14,-183.25 418.08,-189.98"/>
<text text-anchor="middle" x="349.49" y="-188.35" font-family="monospace" font-size="10.00">owns</text>
</g>
<!-- lightning_indexer::Indexer::init -->
<g id="node5" class="node">
<title>lightning_indexer::Indexer::init</title>
<polygon fill="#f8c04c" stroke="black" points="99.72,-256.94 99.72,-294.94 194.72,-294.94 194.72,-256.94 99.72,-256.94"/>
<text text-anchor="middle" x="147.22" y="-282.94" font-family="monospace" font-size="10.00">pub(crate) fn</text>
<polyline fill="none" stroke="black" points="99.72,-275.94 194.72,-275.94 "/>
<text text-anchor="middle" x="147.22" y="-263.94" font-family="monospace" font-size="10.00">Indexer::init</text>
</g>
<!-- lightning_indexer::Indexer&#45;&gt;lightning_indexer::Indexer::init -->
<g id="edge6" class="edge">
<title>lightning_indexer::Indexer&#45;&gt;lightning_indexer::Indexer::init</title>
<path fill="none" stroke="#000000" d="M246.68,-168.63C213.63,-184.53 170.25,-220.61 152.66,-247.88"/>
<polygon fill="#000000" stroke="#000000" points="149.54,-246.3 147.74,-256.74 155.66,-249.7 149.54,-246.3"/>
<text text-anchor="middle" x="187.17" y="-211.25" font-family="monospace" font-size="10.00">owns</text>
</g>
<!-- lightning_indexer::Indexer::register -->
<g id="node6" class="node">
<title>lightning_indexer::Indexer::register</title>
<polygon fill="#f8c04c" stroke="black" points="293.14,-291.52 293.14,-329.52 424.14,-329.52 424.14,-291.52 293.14,-291.52"/>
<text text-anchor="middle" x="358.64" y="-317.52" font-family="monospace" font-size="10.00">pub(crate) async fn</text>
<polyline fill="none" stroke="black" points="293.14,-310.52 424.14,-310.52 "/>
<text text-anchor="middle" x="358.64" y="-298.52" font-family="monospace" font-size="10.00">Indexer::register</text>
</g>
<!-- lightning_indexer::Indexer&#45;&gt;lightning_indexer::Indexer::register -->
<g id="edge7" class="edge">
<title>lightning_indexer::Indexer&#45;&gt;lightning_indexer::Indexer::register</title>
<path fill="none" stroke="#000000" d="M277.47,-184.27C277.8,-210.04 296.91,-254.2 317.95,-283.19"/>
<polygon fill="#000000" stroke="#000000" points="315.33,-285.53 324.22,-291.3 320.87,-281.25 315.33,-285.53"/>
<text text-anchor="middle" x="285.21" y="-236.73" font-family="monospace" font-size="10.00">owns</text>
</g>
<!-- lightning_indexer::Indexer::unregister -->
<g id="node7" class="node">
<title>lightning_indexer::Indexer::unregister</title>
<polygon fill="#f8c04c" stroke="black" points="292.66,-0.5 292.66,-38.5 423.66,-38.5 423.66,-0.5 292.66,-0.5"/>
<text text-anchor="middle" x="358.16" y="-26.5" font-family="monospace" font-size="10.00">pub(crate) async fn</text>
<polyline fill="none" stroke="black" points="292.66,-19.5 423.66,-19.5 "/>
<text text-anchor="middle" x="358.16" y="-7.5" font-family="monospace" font-size="10.00">Indexer::unregister</text>
</g>
<!-- lightning_indexer::Indexer&#45;&gt;lightning_indexer::Indexer::unregister -->
<g id="edge8" class="edge">
<title>lightning_indexer::Indexer&#45;&gt;lightning_indexer::Indexer::unregister</title>
<path fill="none" stroke="#000000" d="M319.77,-145.8C340.47,-120.7 360.89,-77.89 365.33,-48.82"/>
<polygon fill="#000000" stroke="#000000" points="368.82,-49.06 366.21,-38.79 361.85,-48.44 368.82,-49.06"/>
<text text-anchor="middle" x="330.05" y="-100.31" font-family="monospace" font-size="10.00">owns</text>
</g>
<!-- lightning_indexer::Indexer::Config&#45;&gt;lightning_indexer::config::Config -->
<g id="edge9" class="edge">
<title>lightning_indexer::Indexer::Config&#45;&gt;lightning_indexer::config::Config</title>
<path fill="none" stroke="#7f7f7f" stroke-dasharray="5,2" d="M108.8,-165.35C108.64,-165.35 108.48,-165.35 108.32,-165.35"/>
<polygon fill="#7f7f7f" stroke="#7f7f7f" points="111.04,-161.85 101.06,-165.38 111.07,-168.85 111.04,-161.85"/>
<text text-anchor="middle" x="96.06" y="-168.35" font-family="monospace" font-size="10.00">uses</text>
</g>
<!-- lightning_indexer::Indexer::get_index&#45;&gt;lightning_indexer::Indexer -->
<g id="edge10" class="edge">
<title>lightning_indexer::Indexer::get_index&#45;&gt;lightning_indexer::Indexer</title>
<path fill="none" stroke="#7f7f7f" stroke-dasharray="5,2" d="M426.5,-145.82C398.34,-136.26 348.91,-135.39 316.68,-143.18"/>
<polygon fill="#7f7f7f" stroke="#7f7f7f" points="315.51,-139.88 306.87,-146.01 317.45,-146.6 315.51,-139.88"/>
<text text-anchor="middle" x="359.09" y="-147.5" font-family="monospace" font-size="10.00">uses</text>
</g>
<!-- lightning_indexer::Indexer::init&#45;&gt;lightning_indexer::Indexer -->
<g id="edge11" class="edge">
<title>lightning_indexer::Indexer::init&#45;&gt;lightning_indexer::Indexer</title>
<path fill="none" stroke="#7f7f7f" stroke-dasharray="5,2" d="M195,-267.65C226.53,-250.1 263.98,-217.94 280.01,-193.09"/>
<polygon fill="#7f7f7f" stroke="#7f7f7f" points="283.1,-194.75 284.9,-184.31 276.98,-191.34 283.1,-194.75"/>
<text text-anchor="middle" x="225.01" y="-233.37" font-family="monospace" font-size="10.00">uses</text>
</g>
<!-- lightning_indexer::Indexer::init&#45;&gt;lightning_indexer::config::Config -->
<g id="edge12" class="edge">
<title>lightning_indexer::Indexer::init&#45;&gt;lightning_indexer::config::Config</title>
<path fill="none" stroke="#7f7f7f" stroke-dasharray="5,2" d="M130.38,-256.71C114.7,-238.82 91.21,-212.01 73.75,-192.08"/>
<polygon fill="#7f7f7f" stroke="#7f7f7f" points="76.38,-189.77 67.16,-184.55 71.11,-194.38 76.38,-189.77"/>
<text text-anchor="middle" x="89.57" y="-227.4" font-family="monospace" font-size="10.00">uses</text>
</g>
<!-- lightning_indexer::Indexer::register&#45;&gt;lightning_indexer::Indexer -->
<g id="edge13" class="edge">
<title>lightning_indexer::Indexer::register&#45;&gt;lightning_indexer::Indexer</title>
<path fill="none" stroke="#7f7f7f" stroke-dasharray="5,2" d="M366.63,-291.27C366.31,-265.5 347.19,-221.34 326.16,-192.35"/>
<polygon fill="#7f7f7f" stroke="#7f7f7f" points="328.78,-190.01 319.89,-184.24 323.24,-194.29 328.78,-190.01"/>
<text text-anchor="middle" x="333.9" y="-244.81" font-family="monospace" font-size="10.00">uses</text>
</g>
<!-- lightning_indexer::Indexer::unregister&#45;&gt;lightning_indexer::Indexer -->
<g id="edge14" class="edge">
<title>lightning_indexer::Indexer::unregister&#45;&gt;lightning_indexer::Indexer</title>
<path fill="none" stroke="#7f7f7f" stroke-dasharray="5,2" d="M323.85,-38.72C303.15,-63.82 282.73,-106.62 278.3,-135.7"/>
<polygon fill="#7f7f7f" stroke="#7f7f7f" points="274.8,-135.46 277.42,-145.73 281.78,-136.07 274.8,-135.46"/>
<text text-anchor="middle" x="288.57" y="-90.21" font-family="monospace" font-size="10.00">uses</text>
</g>
</g>
</svg>
