<?xml version="1.0" encoding="UTF-8" standalone="no"?>
<!DOCTYPE svg PUBLIC "-//W3C//DTD SVG 1.1//EN"
 "http://www.w3.org/Graphics/SVG/1.1/DTD/svg11.dtd">
<!-- Generated by graphviz version 4.0.0 (0)
 -->
<!-- Pages: 1 -->
<svg width="1427pt" height="1839pt"
 viewBox="0.00 0.00 1426.60 1838.60" xmlns="http://www.w3.org/2000/svg" xmlns:xlink="http://www.w3.org/1999/xlink">
<g id="graph0" class="graph" transform="scale(1 1) rotate(0) translate(28.8 1809.8)">
<polygon fill="white" stroke="transparent" points="-28.8,28.8 -28.8,-1809.8 1397.8,-1809.8 1397.8,28.8 -28.8,28.8"/>
<text text-anchor="middle" x="684.5" y="-1748.2" font-family="Helvetica,sans-Serif" font-size="36.00">lightning_reputation</text>
<!-- lightning_reputation -->
<g id="node1" class="node">
<title>lightning_reputation</title>
<polygon fill="#5397c8" stroke="black" points="624.68,-859.96 624.68,-897.96 761.68,-897.96 761.68,-859.96 624.68,-859.96"/>
<text text-anchor="middle" x="693.18" y="-885.96" font-family="monospace" font-size="10.00">crate</text>
<polyline fill="none" stroke="black" points="624.68,-878.96 761.68,-878.96 "/>
<text text-anchor="middle" x="693.18" y="-866.96" font-family="monospace" font-size="10.00">lightning_reputation</text>
</g>
<!-- lightning_reputation::calculate_normalized_measurements -->
<g id="node2" class="node">
<title>lightning_reputation::calculate_normalized_measurements</title>
<polygon fill="#f8c04c" stroke="black" points="579.15,-1040.61 579.15,-1078.61 794.15,-1078.61 794.15,-1040.61 579.15,-1040.61"/>
<text text-anchor="middle" x="686.65" y="-1066.61" font-family="monospace" font-size="10.00">pub(crate) fn</text>
<polyline fill="none" stroke="black" points="579.15,-1059.61 794.15,-1059.61 "/>
<text text-anchor="middle" x="686.65" y="-1047.61" font-family="monospace" font-size="10.00">calculate_normalized_measurements</text>
</g>
<!-- lightning_reputation&#45;&gt;lightning_reputation::calculate_normalized_measurements -->
<g id="edge1" class="edge">
<title>lightning_reputation&#45;&gt;lightning_reputation::calculate_normalized_measurements</title>
<path fill="none" stroke="#000000" d="M692.48,-898.3C691.34,-929.94 689.06,-992.99 687.72,-1030.2"/>
<polygon fill="#000000" stroke="#000000" points="684.21,-1030.29 687.35,-1040.41 691.21,-1030.55 684.21,-1030.29"/>
<text text-anchor="middle" x="677.6" y="-967.25" font-family="monospace" font-size="10.00">owns</text>
</g>
<!-- lightning_reputation::calculate_reputation_scores -->
<g id="node3" class="node">
<title>lightning_reputation::calculate_reputation_scores</title>
<polygon fill="#81c169" stroke="black" points="236.08,-921.92 236.08,-959.92 415.08,-959.92 415.08,-921.92 236.08,-921.92"/>
<text text-anchor="middle" x="325.58" y="-947.92" font-family="monospace" font-size="10.00">pub fn</text>
<polyline fill="none" stroke="black" points="236.08,-940.92 415.08,-940.92 "/>
<text text-anchor="middle" x="325.58" y="-928.92" font-family="monospace" font-size="10.00">calculate_reputation_scores</text>
</g>
<!-- lightning_reputation&#45;&gt;lightning_reputation::calculate_reputation_scores -->
<g id="edge2" class="edge">
<title>lightning_reputation&#45;&gt;lightning_reputation::calculate_reputation_scores</title>
<path fill="none" stroke="#000000" d="M624.47,-890.54C568.35,-900 488.28,-913.5 425.13,-924.14"/>
<polygon fill="#000000" stroke="#000000" points="424.43,-920.71 415.15,-925.82 425.59,-927.61 424.43,-920.71"/>
<text text-anchor="middle" x="512.3" y="-910.34" font-family="monospace" font-size="10.00">owns</text>
</g>
<!-- lightning_reputation::statistics::abs_difference -->
<g id="node4" class="node">
<title>lightning_reputation::statistics::abs_difference</title>
<polygon fill="#db5367" stroke="black" points="966.32,-1285.84 966.32,-1323.84 1139.32,-1323.84 1139.32,-1285.84 966.32,-1285.84"/>
<text text-anchor="middle" x="1052.82" y="-1311.84" font-family="monospace" font-size="10.00">pub(self) fn</text>
<polyline fill="none" stroke="black" points="966.32,-1304.84 1139.32,-1304.84 "/>
<text text-anchor="middle" x="1052.82" y="-1292.84" font-family="monospace" font-size="10.00">statistics::abs_difference</text>
</g>
<!-- lightning_reputation&#45;&gt;lightning_reputation::statistics::abs_difference -->
<g id="edge3" class="edge">
<title>lightning_reputation&#45;&gt;lightning_reputation::statistics::abs_difference</title>
<path fill="none" stroke="#000000" d="M709.33,-898.09C766.96,-966.33 962.61,-1198.02 1029.88,-1277.68"/>
<polygon fill="#000000" stroke="#000000" points="1027.58,-1280.38 1036.71,-1285.77 1032.93,-1275.87 1027.58,-1280.38"/>
<text text-anchor="middle" x="857.11" y="-1090.88" font-family="monospace" font-size="10.00">owns</text>
</g>
<!-- lightning_reputation::statistics::approx_quantile -->
<g id="node5" class="node">
<title>lightning_reputation::statistics::approx_quantile</title>
<polygon fill="#81c169" stroke="black" points="561.06,-521.82 561.06,-559.82 740.06,-559.82 740.06,-521.82 561.06,-521.82"/>
<text text-anchor="middle" x="650.56" y="-547.82" font-family="monospace" font-size="10.00">pub fn</text>
<polyline fill="none" stroke="black" points="561.06,-540.82 740.06,-540.82 "/>
<text text-anchor="middle" x="650.56" y="-528.82" font-family="monospace" font-size="10.00">statistics::approx_quantile</text>
</g>
<!-- lightning_reputation&#45;&gt;lightning_reputation::statistics::approx_quantile -->
<g id="edge4" class="edge">
<title>lightning_reputation&#45;&gt;lightning_reputation::statistics::approx_quantile</title>
<path fill="none" stroke="#000000" d="M690.77,-859.81C683.66,-803.45 662.79,-637.87 654.26,-570.17"/>
<polygon fill="#000000" stroke="#000000" points="657.72,-569.66 653,-560.18 650.78,-570.54 657.72,-569.66"/>
<text text-anchor="middle" x="660.01" y="-717.99" font-family="monospace" font-size="10.00">owns</text>
</g>
<!-- lightning_reputation::statistics::calculate_mean -->
<g id="node6" class="node">
<title>lightning_reputation::statistics::calculate_mean</title>
<polygon fill="#db5367" stroke="black" points="973.93,-436.36 973.93,-474.36 1146.93,-474.36 1146.93,-436.36 973.93,-436.36"/>
<text text-anchor="middle" x="1060.43" y="-462.36" font-family="monospace" font-size="10.00">pub(self) fn</text>
<polyline fill="none" stroke="black" points="973.93,-455.36 1146.93,-455.36 "/>
<text text-anchor="middle" x="1060.43" y="-443.36" font-family="monospace" font-size="10.00">statistics::calculate_mean</text>
</g>
<!-- lightning_reputation&#45;&gt;lightning_reputation::statistics::calculate_mean -->
<g id="edge5" class="edge">
<title>lightning_reputation&#45;&gt;lightning_reputation::statistics::calculate_mean</title>
<path fill="none" stroke="#000000" d="M709.67,-859.94C768.51,-792.08 968.21,-561.73 1036.96,-482.43"/>
<polygon fill="#000000" stroke="#000000" points="1039.66,-484.66 1043.57,-474.81 1034.37,-480.08 1039.66,-484.66"/>
<text text-anchor="middle" x="860.81" y="-674.19" font-family="monospace" font-size="10.00">owns</text>
</g>
<!-- lightning_reputation::statistics::calculate_variance -->
<g id="node7" class="node">
<title>lightning_reputation::statistics::calculate_variance</title>
<polygon fill="#db5367" stroke="black" points="179.59,-464.84 179.59,-502.84 376.59,-502.84 376.59,-464.84 179.59,-464.84"/>
<text text-anchor="middle" x="278.09" y="-490.84" font-family="monospace" font-size="10.00">pub(self) fn</text>
<polyline fill="none" stroke="black" points="179.59,-483.84 376.59,-483.84 "/>
<text text-anchor="middle" x="278.09" y="-471.84" font-family="monospace" font-size="10.00">statistics::calculate_variance</text>
</g>
<!-- lightning_reputation&#45;&gt;lightning_reputation::statistics::calculate_variance -->
<g id="edge6" class="edge">
<title>lightning_reputation&#45;&gt;lightning_reputation::statistics::calculate_variance</title>
<path fill="none" stroke="#000000" d="M673.16,-859.91C605.36,-795.37 384.32,-584.96 305.95,-510.36"/>
<polygon fill="#000000" stroke="#000000" points="308.05,-507.52 298.4,-503.17 303.23,-512.59 308.05,-507.52"/>
<text text-anchor="middle" x="477.06" y="-688.13" font-family="monospace" font-size="10.00">owns</text>
</g>
<!-- lightning_reputation::statistics::calculate_weighted_mean -->
<g id="node8" class="node">
<title>lightning_reputation::statistics::calculate_weighted_mean</title>
<polygon fill="#db5367" stroke="black" points="919.79,-780.35 919.79,-818.35 1146.79,-818.35 1146.79,-780.35 919.79,-780.35"/>
<text text-anchor="middle" x="1033.29" y="-806.35" font-family="monospace" font-size="10.00">pub(self) fn</text>
<polyline fill="none" stroke="black" points="919.79,-799.35 1146.79,-799.35 "/>
<text text-anchor="middle" x="1033.29" y="-787.35" font-family="monospace" font-size="10.00">statistics::calculate_weighted_mean</text>
</g>
<!-- lightning_reputation&#45;&gt;lightning_reputation::statistics::calculate_weighted_mean -->
<g id="edge7" class="edge">
<title>lightning_reputation&#45;&gt;lightning_reputation::statistics::calculate_weighted_mean</title>
<path fill="none" stroke="#000000" d="M762.01,-862.85C813.83,-850.72 885.36,-833.98 941.97,-820.73"/>
<polygon fill="#000000" stroke="#000000" points="943.06,-824.07 952,-818.38 941.46,-817.25 943.06,-824.07"/>
<text text-anchor="middle" x="839.49" y="-844.79" font-family="monospace" font-size="10.00">owns</text>
</g>
<!-- lightning_reputation::statistics::calculate_z_normalized_weighted_mean -->
<g id="node9" class="node">
<title>lightning_reputation::statistics::calculate_z_normalized_weighted_mean</title>
<polygon fill="#81c169" stroke="black" points="279.86,-642.03 279.86,-680.03 584.86,-680.03 584.86,-642.03 279.86,-642.03"/>
<text text-anchor="middle" x="432.36" y="-668.03" font-family="monospace" font-size="10.00">pub fn</text>
<polyline fill="none" stroke="black" points="279.86,-661.03 584.86,-661.03 "/>
<text text-anchor="middle" x="432.36" y="-649.03" font-family="monospace" font-size="10.00">statistics::calculate_z_normalized_weighted_mean</text>
</g>
<!-- lightning_reputation&#45;&gt;lightning_reputation::statistics::calculate_z_normalized_weighted_mean -->
<g id="edge8" class="edge">
<title>lightning_reputation&#45;&gt;lightning_reputation::statistics::calculate_z_normalized_weighted_mean</title>
<path fill="none" stroke="#000000" d="M670.03,-859.62C622.96,-820.29 516.04,-730.95 463.16,-686.76"/>
<polygon fill="#000000" stroke="#000000" points="465.37,-684.05 455.46,-680.33 460.89,-689.42 465.37,-684.05"/>
<text text-anchor="middle" x="554.1" y="-776.19" font-family="monospace" font-size="10.00">owns</text>
</g>
<!-- lightning_reputation::statistics::calculate_z_score -->
<g id="node10" class="node">
<title>lightning_reputation::statistics::calculate_z_score</title>
<polygon fill="#db5367" stroke="black" points="664.16,-250.78 664.16,-288.78 855.16,-288.78 855.16,-250.78 664.16,-250.78"/>
<text text-anchor="middle" x="759.66" y="-276.78" font-family="monospace" font-size="10.00">pub(self) fn</text>
<polyline fill="none" stroke="black" points="664.16,-269.78 855.16,-269.78 "/>
<text text-anchor="middle" x="759.66" y="-257.78" font-family="monospace" font-size="10.00">statistics::calculate_z_score</text>
</g>
<!-- lightning_reputation&#45;&gt;lightning_reputation::statistics::calculate_z_score -->
<g id="edge9" class="edge">
<title>lightning_reputation&#45;&gt;lightning_reputation::statistics::calculate_z_score</title>
<path fill="none" stroke="#000000" d="M695.28,-859.73C704.9,-771.54 744.83,-405.7 756.47,-299.07"/>
<polygon fill="#000000" stroke="#000000" points="759.96,-299.34 757.56,-289.02 753,-298.58 759.96,-299.34"/>
<text text-anchor="middle" x="713.37" y="-582.4" font-family="monospace" font-size="10.00">owns</text>
</g>
<!-- lightning_reputation::statistics::min_max_normalize -->
<g id="node11" class="node">
<title>lightning_reputation::statistics::min_max_normalize</title>
<polygon fill="#81c169" stroke="black" points="837.87,-614.34 837.87,-652.34 1028.87,-652.34 1028.87,-614.34 837.87,-614.34"/>
<text text-anchor="middle" x="933.37" y="-640.34" font-family="monospace" font-size="10.00">pub fn</text>
<polyline fill="none" stroke="black" points="837.87,-633.34 1028.87,-633.34 "/>
<text text-anchor="middle" x="933.37" y="-621.34" font-family="monospace" font-size="10.00">statistics::min_max_normalize</text>
</g>
<!-- lightning_reputation&#45;&gt;lightning_reputation::statistics::min_max_normalize -->
<g id="edge10" class="edge">
<title>lightning_reputation&#45;&gt;lightning_reputation::statistics::min_max_normalize</title>
<path fill="none" stroke="#000000" d="M712.03,-859.69C754.73,-816.02 858.94,-709.46 907.58,-659.72"/>
<polygon fill="#000000" stroke="#000000" points="910.12,-662.12 914.61,-652.53 905.12,-657.23 910.12,-662.12"/>
<text text-anchor="middle" x="797.3" y="-762.71" font-family="monospace" font-size="10.00">owns</text>
</g>
<!-- lightning_reputation::statistics::try_min_max_normalize -->
<g id="node12" class="node">
<title>lightning_reputation::statistics::try_min_max_normalize</title>
<polygon fill="#81c169" stroke="black" points="-0.48,-765.21 -0.48,-803.21 214.52,-803.21 214.52,-765.21 -0.48,-765.21"/>
<text text-anchor="middle" x="107.02" y="-791.21" font-family="monospace" font-size="10.00">pub fn</text>
<polyline fill="none" stroke="black" points="-0.48,-784.21 214.52,-784.21 "/>
<text text-anchor="middle" x="107.02" y="-772.21" font-family="monospace" font-size="10.00">statistics::try_min_max_normalize</text>
</g>
<!-- lightning_reputation&#45;&gt;lightning_reputation::statistics::try_min_max_normalize -->
<g id="edge11" class="edge">
<title>lightning_reputation&#45;&gt;lightning_reputation::statistics::try_min_max_normalize</title>
<path fill="none" stroke="#000000" d="M624.5,-867.86C526.29,-851.98 344.37,-822.58 224.51,-803.2"/>
<polygon fill="#000000" stroke="#000000" points="224.99,-799.73 214.56,-801.59 223.87,-806.64 224.99,-799.73"/>
<text text-anchor="middle" x="412.01" y="-838.53" font-family="monospace" font-size="10.00">owns</text>
</g>
<!-- lightning_reputation::statistics::z_score_normalize_filter -->
<g id="node13" class="node">
<title>lightning_reputation::statistics::z_score_normalize_filter</title>
<polygon fill="#db5367" stroke="black" points="1136.31,-675.91 1136.31,-713.91 1369.31,-713.91 1369.31,-675.91 1136.31,-675.91"/>
<text text-anchor="middle" x="1252.81" y="-701.91" font-family="monospace" font-size="10.00">pub(self) fn</text>
<polyline fill="none" stroke="black" points="1136.31,-694.91 1369.31,-694.91 "/>
<text text-anchor="middle" x="1252.81" y="-682.91" font-family="monospace" font-size="10.00">statistics::z_score_normalize_filter</text>
</g>
<!-- lightning_reputation&#45;&gt;lightning_reputation::statistics::z_score_normalize_filter -->
<g id="edge12" class="edge">
<title>lightning_reputation&#45;&gt;lightning_reputation::statistics::z_score_normalize_filter</title>
<path fill="none" stroke="#000000" d="M750.96,-859.96C855.19,-825.68 1074.15,-753.67 1185.17,-717.15"/>
<polygon fill="#000000" stroke="#000000" points="1186.52,-720.4 1194.92,-713.95 1184.33,-713.75 1186.52,-720.4"/>
<text text-anchor="middle" x="955.57" y="-780.56" font-family="monospace" font-size="10.00">owns</text>
</g>
<!-- lightning_reputation::types::CollectedMeasurements -->
<g id="node14" class="node">
<title>lightning_reputation::types::CollectedMeasurements</title>
<polygon fill="#f8c04c" stroke="black" points="802.18,-1048.48 802.18,-1086.48 987.18,-1086.48 987.18,-1048.48 802.18,-1048.48"/>
<text text-anchor="middle" x="894.68" y="-1074.48" font-family="monospace" font-size="10.00">pub(crate) struct</text>
<polyline fill="none" stroke="black" points="802.18,-1067.48 987.18,-1067.48 "/>
<text text-anchor="middle" x="894.68" y="-1055.48" font-family="monospace" font-size="10.00">types::CollectedMeasurements</text>
</g>
<!-- lightning_reputation&#45;&gt;lightning_reputation::types::CollectedMeasurements -->
<g id="edge13" class="edge">
<title>lightning_reputation&#45;&gt;lightning_reputation::types::CollectedMeasurements</title>
<path fill="none" stroke="#000000" d="M694.92,-898.25C711.84,-933.94 781.62,-1003.77 834.52,-1042.49"/>
<polygon fill="#000000" stroke="#000000" points="832.68,-1045.48 842.85,-1048.43 836.74,-1039.77 832.68,-1045.48"/>
<text text-anchor="middle" x="752.22" y="-973.37" font-family="monospace" font-size="10.00">owns</text>
</g>
<!-- lightning_reputation&#45;&gt;lightning_reputation::types::CollectedMeasurements -->
<g id="edge14" class="edge">
<title>lightning_reputation&#45;&gt;lightning_reputation::types::CollectedMeasurements</title>
<path fill="none" stroke="#7f7f7f" stroke-dasharray="5,2" d="M745.06,-898.06C794.8,-932.47 864.19,-999.9 888.19,-1039.47"/>
<polygon fill="#7f7f7f" stroke="#7f7f7f" points="885.21,-1041.31 893.06,-1048.42 891.36,-1037.97 885.21,-1041.31"/>
<text text-anchor="middle" x="804.13" y="-971.77" font-family="monospace" font-size="10.00">uses</text>
</g>
<!-- lightning_reputation::types::MinMaxValues -->
<g id="node15" class="node">
<title>lightning_reputation::types::MinMaxValues</title>
<polygon fill="#f8c04c" stroke="black" points="97.58,-1057.76 97.58,-1095.76 228.58,-1095.76 228.58,-1057.76 97.58,-1057.76"/>
<text text-anchor="middle" x="163.08" y="-1083.76" font-family="monospace" font-size="10.00">pub(crate) struct</text>
<polyline fill="none" stroke="black" points="97.58,-1076.76 228.58,-1076.76 "/>
<text text-anchor="middle" x="163.08" y="-1064.76" font-family="monospace" font-size="10.00">types::MinMaxValues</text>
</g>
<!-- lightning_reputation&#45;&gt;lightning_reputation::types::MinMaxValues -->
<g id="edge15" class="edge">
<title>lightning_reputation&#45;&gt;lightning_reputation::types::MinMaxValues</title>
<path fill="none" stroke="#000000" d="M624.46,-885.22C506.26,-915.31 269.92,-1005.09 189.99,-1052.12"/>
<polygon fill="#000000" stroke="#000000" points="187.72,-1049.41 181.04,-1057.64 191.39,-1055.37 187.72,-1049.41"/>
<text text-anchor="middle" x="394.73" y="-971.67" font-family="monospace" font-size="10.00">owns</text>
</g>
<!-- lightning_reputation&#45;&gt;lightning_reputation::types::MinMaxValues -->
<g id="edge16" class="edge">
<title>lightning_reputation&#45;&gt;lightning_reputation::types::MinMaxValues</title>
<path fill="none" stroke="#7f7f7f" stroke-dasharray="5,2" d="M675.15,-898.13C606.83,-942.49 363.69,-1035.78 238.52,-1068.76"/>
<polygon fill="#7f7f7f" stroke="#7f7f7f" points="237.43,-1065.42 228.62,-1071.3 239.18,-1072.2 237.43,-1065.42"/>
<text text-anchor="middle" x="444.34" y="-986.44" font-family="monospace" font-size="10.00">uses</text>
</g>
<!-- lightning_reputation::types::NormalizedMeasurements -->
<g id="node16" class="node">
<title>lightning_reputation::types::NormalizedMeasurements</title>
<polygon fill="#f8c04c" stroke="black" points="415.8,-1421.39 415.8,-1459.39 606.8,-1459.39 606.8,-1421.39 415.8,-1421.39"/>
<text text-anchor="middle" x="511.3" y="-1447.39" font-family="monospace" font-size="10.00">pub(crate) struct</text>
<polyline fill="none" stroke="black" points="415.8,-1440.39 606.8,-1440.39 "/>
<text text-anchor="middle" x="511.3" y="-1428.39" font-family="monospace" font-size="10.00">types::NormalizedMeasurements</text>
</g>
<!-- lightning_reputation&#45;&gt;lightning_reputation::types::NormalizedMeasurements -->
<g id="edge17" class="edge">
<title>lightning_reputation&#45;&gt;lightning_reputation::types::NormalizedMeasurements</title>
<path fill="none" stroke="#000000" d="M674.89,-898.12C626.37,-981.48 519.54,-1310.59 508.04,-1411.19"/>
<polygon fill="#000000" stroke="#000000" points="504.54,-1410.99 507.17,-1421.25 511.52,-1411.59 504.54,-1410.99"/>
<text text-anchor="middle" x="578.96" y="-1157.66" font-family="monospace" font-size="10.00">owns</text>
</g>
<!-- lightning_reputation&#45;&gt;lightning_reputation::types::NormalizedMeasurements -->
<g id="edge18" class="edge">
<title>lightning_reputation&#45;&gt;lightning_reputation::types::NormalizedMeasurements</title>
<path fill="none" stroke="#7f7f7f" stroke-dasharray="5,2" d="M697.31,-898.2C692.86,-982.01 586.8,-1313.26 534.48,-1412.39"/>
<polygon fill="#7f7f7f" stroke="#7f7f7f" points="531.36,-1410.79 529.59,-1421.24 537.49,-1414.18 531.36,-1410.79"/>
<text text-anchor="middle" x="628.39" y="-1158.29" font-family="monospace" font-size="10.00">uses</text>
</g>
<!-- lightning_reputation::types::Values -->
<g id="node20" class="node">
<title>lightning_reputation::types::Values</title>
<polygon fill="#f8c04c" stroke="black" points="315.32,-1125.99 315.32,-1163.99 434.32,-1163.99 434.32,-1125.99 315.32,-1125.99"/>
<text text-anchor="middle" x="374.82" y="-1151.99" font-family="monospace" font-size="10.00">pub(crate) struct</text>
<polyline fill="none" stroke="black" points="315.32,-1144.99 434.32,-1144.99 "/>
<text text-anchor="middle" x="374.82" y="-1132.99" font-family="monospace" font-size="10.00">types::Values</text>
</g>
<!-- lightning_reputation&#45;&gt;lightning_reputation::types::Values -->
<g id="edge19" class="edge">
<title>lightning_reputation&#45;&gt;lightning_reputation::types::Values</title>
<path fill="none" stroke="#000000" d="M670.28,-898.09C614.09,-945.05 469.32,-1066.02 405.65,-1119.23"/>
<polygon fill="#000000" stroke="#000000" points="403.37,-1116.57 397.94,-1125.67 407.86,-1121.94 403.37,-1116.57"/>
<text text-anchor="middle" x="525.47" y="-1011.66" font-family="monospace" font-size="10.00">owns</text>
</g>
<!-- lightning_reputation::types::WeightedFloat -->
<g id="node21" class="node">
<title>lightning_reputation::types::WeightedFloat</title>
<polygon fill="#f8c04c" stroke="black" points="446.54,-347.05 446.54,-385.05 583.54,-385.05 583.54,-347.05 446.54,-347.05"/>
<text text-anchor="middle" x="515.04" y="-373.05" font-family="monospace" font-size="10.00">pub(crate) struct</text>
<polyline fill="none" stroke="black" points="446.54,-366.05 583.54,-366.05 "/>
<text text-anchor="middle" x="515.04" y="-354.05" font-family="monospace" font-size="10.00">types::WeightedFloat</text>
</g>
<!-- lightning_reputation&#45;&gt;lightning_reputation::types::WeightedFloat -->
<g id="edge20" class="edge">
<title>lightning_reputation&#45;&gt;lightning_reputation::types::WeightedFloat</title>
<path fill="none" stroke="#000000" d="M686.52,-859.79C659.46,-781.87 557.61,-488.63 525.09,-394.98"/>
<polygon fill="#000000" stroke="#000000" points="528.32,-393.62 521.73,-385.32 521.71,-395.91 528.32,-393.62"/>
<text text-anchor="middle" x="593.31" y="-630.39" font-family="monospace" font-size="10.00">owns</text>
</g>
<!-- lightning_reputation::types::WeightedReputationMeasurements -->
<g id="node23" class="node">
<title>lightning_reputation::types::WeightedReputationMeasurements</title>
<polygon fill="#81c169" stroke="black" points="719.3,-1281.87 719.3,-1319.87 958.3,-1319.87 958.3,-1281.87 719.3,-1281.87"/>
<text text-anchor="middle" x="838.8" y="-1307.87" font-family="monospace" font-size="10.00">pub struct</text>
<polyline fill="none" stroke="black" points="719.3,-1300.87 958.3,-1300.87 "/>
<text text-anchor="middle" x="838.8" y="-1288.87" font-family="monospace" font-size="10.00">types::WeightedReputationMeasurements</text>
</g>
<!-- lightning_reputation&#45;&gt;lightning_reputation::types::WeightedReputationMeasurements -->
<g id="edge21" class="edge">
<title>lightning_reputation&#45;&gt;lightning_reputation::types::WeightedReputationMeasurements</title>
<path fill="none" stroke="#000000" d="M688.13,-898.07C690.62,-965.8 767.26,-1192.33 812.74,-1272.6"/>
<polygon fill="#000000" stroke="#000000" points="810,-1274.85 818.13,-1281.65 816.02,-1271.27 810,-1274.85"/>
<text text-anchor="middle" x="737.93" y="-1088.34" font-family="monospace" font-size="10.00">owns</text>
</g>
<!-- lightning_reputation&#45;&gt;lightning_reputation::types::WeightedReputationMeasurements -->
<g id="edge22" class="edge">
<title>lightning_reputation&#45;&gt;lightning_reputation::types::WeightedReputationMeasurements</title>
<path fill="none" stroke="#7f7f7f" stroke-dasharray="5,2" d="M713.87,-898.22C756.47,-965.85 834.16,-1190.67 843.07,-1271.69"/>
<polygon fill="#7f7f7f" stroke="#7f7f7f" points="839.59,-1272.01 843.85,-1281.71 846.57,-1271.47 839.59,-1272.01"/>
<text text-anchor="middle" x="765.97" y="-1087.95" font-family="monospace" font-size="10.00">uses</text>
</g>
<!-- lightning_reputation::types::WeightedValue -->
<g id="node24" class="node">
<title>lightning_reputation::types::WeightedValue</title>
<polygon fill="#81c169" stroke="black" points="1170.8,-983.8 1170.8,-1021.8 1307.8,-1021.8 1307.8,-983.8 1170.8,-983.8"/>
<text text-anchor="middle" x="1239.3" y="-1009.8" font-family="monospace" font-size="10.00">pub trait</text>
<polyline fill="none" stroke="black" points="1170.8,-1002.8 1307.8,-1002.8 "/>
<text text-anchor="middle" x="1239.3" y="-990.8" font-family="monospace" font-size="10.00">types::WeightedValue</text>
</g>
<!-- lightning_reputation&#45;&gt;lightning_reputation::types::WeightedValue -->
<g id="edge23" class="edge">
<title>lightning_reputation&#45;&gt;lightning_reputation::types::WeightedValue</title>
<path fill="none" stroke="#000000" d="M718.92,-898.03C797.38,-932.6 1035.2,-988.7 1160.39,-1004.65"/>
<polygon fill="#000000" stroke="#000000" points="1160.33,-1008.16 1170.68,-1005.9 1161.17,-1001.22 1160.33,-1008.16"/>
<text text-anchor="middle" x="927.16" y="-954.34" font-family="monospace" font-size="10.00">owns</text>
</g>
<!-- lightning_reputation&#45;&gt;lightning_reputation::types::WeightedValue -->
<g id="edge24" class="edge">
<title>lightning_reputation&#45;&gt;lightning_reputation::types::WeightedValue</title>
<path fill="none" stroke="#7f7f7f" stroke-dasharray="5,2" d="M761.72,-875.86C879.23,-889.35 1114.89,-943.99 1204.08,-979.76"/>
<polygon fill="#7f7f7f" stroke="#7f7f7f" points="1202.91,-983.06 1213.48,-983.7 1205.61,-976.61 1202.91,-983.06"/>
<text text-anchor="middle" x="970.4" y="-930.81" font-family="monospace" font-size="10.00">uses</text>
</g>
<!-- lightning_reputation::calculate_normalized_measurements&#45;&gt;lightning_reputation::types::CollectedMeasurements -->
<g id="edge25" class="edge">
<title>lightning_reputation::calculate_normalized_measurements&#45;&gt;lightning_reputation::types::CollectedMeasurements</title>
<path fill="none" stroke="#7f7f7f" stroke-dasharray="5,2" d="M794.33,-1063.68C794.49,-1063.69 794.65,-1063.7 794.81,-1063.7"/>
<polygon fill="#7f7f7f" stroke="#7f7f7f" points="791.92,-1067.09 802.04,-1063.98 792.18,-1060.1 791.92,-1067.09"/>
<text text-anchor="middle" x="807.07" y="-1066.69" font-family="monospace" font-size="10.00">uses</text>
</g>
<!-- lightning_reputation::calculate_normalized_measurements&#45;&gt;lightning_reputation::types::NormalizedMeasurements -->
<g id="edge26" class="edge">
<title>lightning_reputation::calculate_normalized_measurements&#45;&gt;lightning_reputation::types::NormalizedMeasurements</title>
<path fill="none" stroke="#7f7f7f" stroke-dasharray="5,2" d="M677.84,-1078.75C649.19,-1140.96 558.61,-1337.65 524.48,-1411.77"/>
<polygon fill="#7f7f7f" stroke="#7f7f7f" points="521.24,-1410.44 520.24,-1420.98 527.6,-1413.37 521.24,-1410.44"/>
<text text-anchor="middle" x="588.66" y="-1248.26" font-family="monospace" font-size="10.00">uses</text>
</g>
<!-- lightning_reputation::calculate_reputation_scores&#45;&gt;lightning_reputation::types::MinMaxValues -->
<g id="edge27" class="edge">
<title>lightning_reputation::calculate_reputation_scores&#45;&gt;lightning_reputation::types::MinMaxValues</title>
<path fill="none" stroke="#7f7f7f" stroke-dasharray="5,2" d="M302.64,-960.09C274.21,-983.86 225.65,-1024.45 193.96,-1050.94"/>
<polygon fill="#7f7f7f" stroke="#7f7f7f" points="191.33,-1048.58 185.9,-1057.68 195.82,-1053.95 191.33,-1048.58"/>
<text text-anchor="middle" x="235.8" y="-1008.52" font-family="monospace" font-size="10.00">uses</text>
</g>
<!-- lightning_reputation::types::MinMaxValues&#45;&gt;lightning_reputation::types::Values -->
<g id="edge28" class="edge">
<title>lightning_reputation::types::MinMaxValues&#45;&gt;lightning_reputation::types::Values</title>
<path fill="none" stroke="#7f7f7f" stroke-dasharray="5,2" d="M222.06,-1095.76C248.11,-1104.16 278.9,-1114.08 305.99,-1122.81"/>
<polygon fill="#7f7f7f" stroke="#7f7f7f" points="305.2,-1126.23 315.79,-1125.96 307.34,-1119.57 305.2,-1126.23"/>
<text text-anchor="middle" x="251.53" y="-1112.29" font-family="monospace" font-size="10.00">uses</text>
</g>
<!-- lightning_reputation::types::NormalizedMeasurements::calculate_score -->
<g id="node17" class="node">
<title>lightning_reputation::types::NormalizedMeasurements::calculate_score</title>
<polygon fill="#81c169" stroke="black" points="546.51,-1694.92 546.51,-1732.92 839.51,-1732.92 839.51,-1694.92 546.51,-1694.92"/>
<text text-anchor="middle" x="693.01" y="-1720.92" font-family="monospace" font-size="10.00">pub fn</text>
<polyline fill="none" stroke="black" points="546.51,-1713.92 839.51,-1713.92 "/>
<text text-anchor="middle" x="693.01" y="-1701.92" font-family="monospace" font-size="10.00">types::NormalizedMeasurements::calculate_score</text>
</g>
<!-- lightning_reputation::types::NormalizedMeasurements&#45;&gt;lightning_reputation::types::NormalizedMeasurements::calculate_score -->
<g id="edge29" class="edge">
<title>lightning_reputation::types::NormalizedMeasurements&#45;&gt;lightning_reputation::types::NormalizedMeasurements::calculate_score</title>
<path fill="none" stroke="#000000" d="M509.48,-1459.57C521.36,-1508.36 600.8,-1632.2 652.45,-1687.52"/>
<polygon fill="#000000" stroke="#000000" points="650.08,-1690.1 659.55,-1694.86 655.11,-1685.24 650.08,-1690.1"/>
<text text-anchor="middle" x="568.47" y="-1576.54" font-family="monospace" font-size="10.00">owns</text>
</g>
<!-- lightning_reputation::types::NormalizedMeasurements::get_uptime -->
<g id="node18" class="node">
<title>lightning_reputation::types::NormalizedMeasurements::get_uptime</title>
<polygon fill="#81c169" stroke="black" points="220.98,-1680.05 220.98,-1718.05 483.98,-1718.05 483.98,-1680.05 220.98,-1680.05"/>
<text text-anchor="middle" x="352.48" y="-1706.05" font-family="monospace" font-size="10.00">pub fn</text>
<polyline fill="none" stroke="black" points="220.98,-1699.05 483.98,-1699.05 "/>
<text text-anchor="middle" x="352.48" y="-1687.05" font-family="monospace" font-size="10.00">types::NormalizedMeasurements::get_uptime</text>
</g>
<!-- lightning_reputation::types::NormalizedMeasurements&#45;&gt;lightning_reputation::types::NormalizedMeasurements::get_uptime -->
<g id="edge30" class="edge">
<title>lightning_reputation::types::NormalizedMeasurements&#45;&gt;lightning_reputation::types::NormalizedMeasurements::get_uptime</title>
<path fill="none" stroke="#000000" d="M478.59,-1459.79C435.21,-1505.49 367.97,-1616.38 352.03,-1670.05"/>
<polygon fill="#000000" stroke="#000000" points="348.58,-1669.43 349.55,-1679.98 355.37,-1671.13 348.58,-1669.43"/>
<text text-anchor="middle" x="402.81" y="-1567.92" font-family="monospace" font-size="10.00">owns</text>
</g>
<!-- lightning_reputation::types::NormalizedMeasurements::normalize -->
<g id="node19" class="node">
<title>lightning_reputation::types::NormalizedMeasurements::normalize</title>
<polygon fill="#81c169" stroke="black" points="51.97,-1390.82 51.97,-1428.82 308.97,-1428.82 308.97,-1390.82 51.97,-1390.82"/>
<text text-anchor="middle" x="180.47" y="-1416.82" font-family="monospace" font-size="10.00">pub fn</text>
<polyline fill="none" stroke="black" points="51.97,-1409.82 308.97,-1409.82 "/>
<text text-anchor="middle" x="180.47" y="-1397.82" font-family="monospace" font-size="10.00">types::NormalizedMeasurements::normalize</text>
</g>
<!-- lightning_reputation::types::NormalizedMeasurements&#45;&gt;lightning_reputation::types::NormalizedMeasurements::normalize -->
<g id="edge31" class="edge">
<title>lightning_reputation::types::NormalizedMeasurements&#45;&gt;lightning_reputation::types::NormalizedMeasurements::normalize</title>
<path fill="none" stroke="#000000" d="M482.86,-1421.38C446.35,-1409.52 380.43,-1399.98 319.44,-1395.92"/>
<polygon fill="#000000" stroke="#000000" points="319.5,-1392.41 309.31,-1395.29 319.07,-1399.4 319.5,-1392.41"/>
<text text-anchor="middle" x="388.65" y="-1411.65" font-family="monospace" font-size="10.00">owns</text>
</g>
<!-- lightning_reputation::types::NormalizedMeasurements::calculate_score&#45;&gt;lightning_reputation::types::NormalizedMeasurements -->
<g id="edge32" class="edge">
<title>lightning_reputation::types::NormalizedMeasurements::calculate_score&#45;&gt;lightning_reputation::types::NormalizedMeasurements</title>
<path fill="none" stroke="#7f7f7f" stroke-dasharray="5,2" d="M694.83,-1694.74C682.95,-1645.95 603.51,-1522.11 551.86,-1466.79"/>
<polygon fill="#7f7f7f" stroke="#7f7f7f" points="554.23,-1464.21 544.77,-1459.45 549.2,-1469.07 554.23,-1464.21"/>
<text text-anchor="middle" x="610.85" y="-1583.76" font-family="monospace" font-size="10.00">uses</text>
</g>
<!-- lightning_reputation::types::NormalizedMeasurements::get_uptime&#45;&gt;lightning_reputation::types::NormalizedMeasurements -->
<g id="edge33" class="edge">
<title>lightning_reputation::types::NormalizedMeasurements::get_uptime&#45;&gt;lightning_reputation::types::NormalizedMeasurements</title>
<path fill="none" stroke="#7f7f7f" stroke-dasharray="5,2" d="M385.19,-1679.66C428.56,-1633.96 495.81,-1523.06 511.74,-1469.4"/>
<polygon fill="#7f7f7f" stroke="#7f7f7f" points="515.2,-1470.01 514.22,-1459.46 508.41,-1468.32 515.2,-1470.01"/>
<text text-anchor="middle" x="435.97" y="-1577.53" font-family="monospace" font-size="10.00">uses</text>
</g>
<!-- lightning_reputation::types::NormalizedMeasurements::normalize&#45;&gt;lightning_reputation::types::MinMaxValues -->
<g id="edge34" class="edge">
<title>lightning_reputation::types::NormalizedMeasurements::normalize&#45;&gt;lightning_reputation::types::MinMaxValues</title>
<path fill="none" stroke="#7f7f7f" stroke-dasharray="5,2" d="M179.46,-1390.47C176.55,-1334.71 168.12,-1173.38 164.63,-1106.43"/>
<polygon fill="#7f7f7f" stroke="#7f7f7f" points="168.11,-1105.96 164.09,-1096.16 161.12,-1106.33 168.11,-1105.96"/>
<text text-anchor="middle" x="159.54" y="-1251.45" font-family="monospace" font-size="10.00">uses</text>
</g>
<!-- lightning_reputation::types::NormalizedMeasurements::normalize&#45;&gt;lightning_reputation::types::NormalizedMeasurements -->
<g id="edge35" class="edge">
<title>lightning_reputation::types::NormalizedMeasurements::normalize&#45;&gt;lightning_reputation::types::NormalizedMeasurements</title>
<path fill="none" stroke="#7f7f7f" stroke-dasharray="5,2" d="M208.91,-1428.84C252.18,-1442.88 336.74,-1453.69 405.47,-1455.96"/>
<polygon fill="#7f7f7f" stroke="#7f7f7f" points="405.39,-1459.46 415.48,-1456.24 405.58,-1452.47 405.39,-1459.46"/>
<text text-anchor="middle" x="294.69" y="-1445.4" font-family="monospace" font-size="10.00">uses</text>
</g>
<!-- lightning_reputation::types::NormalizedMeasurements::normalize&#45;&gt;lightning_reputation::types::Values -->
<g id="edge36" class="edge">
<title>lightning_reputation::types::NormalizedMeasurements::normalize&#45;&gt;lightning_reputation::types::Values</title>
<path fill="none" stroke="#7f7f7f" stroke-dasharray="5,2" d="M194.44,-1390.77C228.33,-1344.6 314.98,-1226.53 354.55,-1172.6"/>
<polygon fill="#7f7f7f" stroke="#7f7f7f" points="357.61,-1174.35 360.71,-1164.22 351.97,-1170.21 357.61,-1174.35"/>
<text text-anchor="middle" x="262" y="-1284.69" font-family="monospace" font-size="10.00">uses</text>
</g>
<!-- lightning_reputation::types::WeightedFloat::get_weighted_value -->
<g id="node22" class="node">
<title>lightning_reputation::types::WeightedFloat::get_weighted_value</title>
<polygon fill="#db5367" stroke="black" points="234.11,-0.91 234.11,-38.91 491.11,-38.91 491.11,-0.91 234.11,-0.91"/>
<text text-anchor="middle" x="362.61" y="-26.91" font-family="monospace" font-size="10.00">pub(self) fn</text>
<polyline fill="none" stroke="black" points="234.11,-19.91 491.11,-19.91 "/>
<text text-anchor="middle" x="362.61" y="-7.91" font-family="monospace" font-size="10.00">types::WeightedFloat::get_weighted_value</text>
</g>
<!-- lightning_reputation::types::WeightedFloat&#45;&gt;lightning_reputation::types::WeightedFloat::get_weighted_value -->
<g id="edge37" class="edge">
<title>lightning_reputation::types::WeightedFloat&#45;&gt;lightning_reputation::types::WeightedFloat::get_weighted_value</title>
<path fill="none" stroke="#000000" d="M519.35,-346.92C513.86,-288.52 439.6,-115.52 393.26,-47.44"/>
<polygon fill="#000000" stroke="#000000" points="395.85,-45.04 387.2,-38.93 390.15,-49.1 395.85,-45.04"/>
<text text-anchor="middle" x="443.81" y="-200.18" font-family="monospace" font-size="10.00">owns</text>
</g>
<!-- lightning_reputation::types::WeightedFloat::get_weighted_value&#45;&gt;lightning_reputation::types::WeightedFloat -->
<g id="edge38" class="edge">
<title>lightning_reputation::types::WeightedFloat::get_weighted_value&#45;&gt;lightning_reputation::types::WeightedFloat</title>
<path fill="none" stroke="#7f7f7f" stroke-dasharray="5,2" d="M358.3,-39.04C363.79,-97.44 438.05,-270.43 484.39,-338.52"/>
<polygon fill="#7f7f7f" stroke="#7f7f7f" points="481.8,-340.92 490.45,-347.03 487.5,-336.86 481.8,-340.92"/>
<text text-anchor="middle" x="408.84" y="-191.78" font-family="monospace" font-size="10.00">uses</text>
</g>
</g>
</svg>
