<?xml version="1.0" encoding="UTF-8" standalone="no"?>
<!DOCTYPE svg PUBLIC "-//W3C//DTD SVG 1.1//EN"
 "http://www.w3.org/Graphics/SVG/1.1/DTD/svg11.dtd">
<!-- Generated by graphviz version 4.0.0 (0)
 -->
<!-- Pages: 1 -->
<svg width="488pt" height="390pt"
 viewBox="0.00 0.00 488.02 390.19" xmlns="http://www.w3.org/2000/svg" xmlns:xlink="http://www.w3.org/1999/xlink">
<g id="graph0" class="graph" transform="scale(1 1) rotate(0) translate(28.8 361.39)">
<polygon fill="white" stroke="transparent" points="-28.8,28.8 -28.8,-361.39 459.22,-361.39 459.22,28.8 -28.8,28.8"/>
<text text-anchor="middle" x="215.21" y="-299.79" font-family="Helvetica,sans-Serif" font-size="36.00">lightning_indexer</text>
<!-- lightning_indexer -->
<g id="node1" class="node">
<title>lightning_indexer</title>
<polygon fill="#5397c8" stroke="black" points="106.01,-221.15 106.01,-259.15 225.01,-259.15 225.01,-221.15 106.01,-221.15"/>
<text text-anchor="middle" x="165.51" y="-247.15" font-family="monospace" font-size="10.00">crate</text>
<polyline fill="none" stroke="black" points="106.01,-240.15 225.01,-240.15 "/>
<text text-anchor="middle" x="165.51" y="-228.15" font-family="monospace" font-size="10.00">lightning_indexer</text>
</g>
<!-- lightning_indexer::Indexer -->
<g id="node2" class="node">
<title>lightning_indexer::Indexer</title>
<polygon fill="#81c169" stroke="black" points="198.09,-123.32 198.09,-161.32 275.09,-161.32 275.09,-123.32 198.09,-123.32"/>
<text text-anchor="middle" x="236.59" y="-149.32" font-family="monospace" font-size="10.00">pub struct</text>
<polyline fill="none" stroke="black" points="198.09,-142.32 275.09,-142.32 "/>
<text text-anchor="middle" x="236.59" y="-130.32" font-family="monospace" font-size="10.00">Indexer</text>
</g>
<!-- lightning_indexer&#45;&gt;lightning_indexer::Indexer -->
<g id="edge1" class="edge">
<title>lightning_indexer&#45;&gt;lightning_indexer::Indexer</title>
<path fill="none" stroke="#000000" d="M179.55,-220.82C190.17,-206.22 204.87,-185.97 216.7,-169.7"/>
<polygon fill="#000000" stroke="#000000" points="219.53,-171.75 222.58,-161.61 213.87,-167.64 219.53,-171.75"/>
<text text-anchor="middle" x="185.63" y="-198.26" font-family="monospace" font-size="10.00">owns</text>
</g>
<!-- lightning_indexer::config::Config -->
<g id="node8" class="node">
<title>lightning_indexer::config::Config</title>
<polygon fill="#81c169" stroke="black" points="0,-62.85 0,-100.85 101,-100.85 101,-62.85 0,-62.85"/>
<text text-anchor="middle" x="50.5" y="-88.85" font-family="monospace" font-size="10.00">pub struct</text>
<polyline fill="none" stroke="black" points="0,-81.85 101,-81.85 "/>
<text text-anchor="middle" x="50.5" y="-69.85" font-family="monospace" font-size="10.00">config::Config</text>
</g>
<!-- lightning_indexer&#45;&gt;lightning_indexer::config::Config -->
<g id="edge2" class="edge">
<title>lightning_indexer&#45;&gt;lightning_indexer::config::Config</title>
<path fill="none" stroke="#000000" d="M169.42,-221.07C163.94,-192.1 130.27,-140.37 99.19,-108.23"/>
<polygon fill="#000000" stroke="#000000" points="101.35,-105.44 91.78,-100.89 96.43,-110.41 101.35,-105.44"/>
<text text-anchor="middle" x="121.81" y="-167.65" font-family="monospace" font-size="10.00">owns</text>
</g>
<!-- lightning_indexer&#45;&gt;lightning_indexer::config::Config -->
<g id="edge3" class="edge">
<title>lightning_indexer&#45;&gt;lightning_indexer::config::Config</title>
<path fill="none" stroke="#7f7f7f" stroke-dasharray="5,2" d="M123.93,-220.83C94.28,-192.75 59.94,-143.06 49.2,-110.72"/>
<polygon fill="#7f7f7f" stroke="#7f7f7f" points="52.53,-109.64 46.58,-100.88 45.77,-111.44 52.53,-109.64"/>
<text text-anchor="middle" x="74.07" y="-168.78" font-family="monospace" font-size="10.00">uses</text>
</g>
<!-- lightning_indexer::Indexer::Config -->
<g id="node3" class="node">
<title>lightning_indexer::Indexer::Config</title>
<polygon fill="#f8c04c" stroke="black" points="112.01,-25.48 112.01,-63.48 219.01,-63.48 219.01,-25.48 112.01,-25.48"/>
<text text-anchor="middle" x="165.51" y="-51.48" font-family="monospace" font-size="10.00">pub(crate) type</text>
<polyline fill="none" stroke="black" points="112.01,-44.48 219.01,-44.48 "/>
<text text-anchor="middle" x="165.51" y="-32.48" font-family="monospace" font-size="10.00">Indexer::Config</text>
</g>
<!-- lightning_indexer::Indexer&#45;&gt;lightning_indexer::Indexer::Config -->
<g id="edge4" class="edge">
<title>lightning_indexer::Indexer&#45;&gt;lightning_indexer::Indexer::Config</title>
<path fill="none" stroke="#000000" d="M222.55,-122.99C211.94,-108.38 197.23,-88.14 185.41,-71.87"/>
<polygon fill="#000000" stroke="#000000" points="188.24,-69.81 179.53,-63.77 182.57,-73.92 188.24,-69.81"/>
<text text-anchor="middle" x="191.48" y="-100.43" font-family="monospace" font-size="10.00">owns</text>
</g>
<!-- lightning_indexer::Indexer::get_index -->
<g id="node4" class="node">
<title>lightning_indexer::Indexer::get_index</title>
<polygon fill="#f8c04c" stroke="black" points="267.1,-0.5 267.1,-38.5 392.1,-38.5 392.1,-0.5 267.1,-0.5"/>
<text text-anchor="middle" x="329.6" y="-26.5" font-family="monospace" font-size="10.00">pub(crate) fn</text>
<polyline fill="none" stroke="black" points="267.1,-19.5 392.1,-19.5 "/>
<text text-anchor="middle" x="329.6" y="-7.5" font-family="monospace" font-size="10.00">Indexer::get_index</text>
</g>
<!-- lightning_indexer::Indexer&#45;&gt;lightning_indexer::Indexer::get_index -->
<g id="edge5" class="edge">
<title>lightning_indexer::Indexer&#45;&gt;lightning_indexer::Indexer::get_index</title>
<path fill="none" stroke="#000000" d="M275.18,-129.13C298.53,-109.15 323.59,-74.21 332.05,-48.48"/>
<polygon fill="#000000" stroke="#000000" points="335.44,-49.33 334.5,-38.78 328.66,-47.62 335.44,-49.33"/>
<text text-anchor="middle" x="291.11" y="-91.8" font-family="monospace" font-size="10.00">owns</text>
</g>
<!-- lightning_indexer::Indexer::init -->
<g id="node5" class="node">
<title>lightning_indexer::Indexer::init</title>
<polygon fill="#f8c04c" stroke="black" points="3,-183.78 3,-221.78 98,-221.78 98,-183.78 3,-183.78"/>
<text text-anchor="middle" x="50.5" y="-209.78" font-family="monospace" font-size="10.00">pub(crate) fn</text>
<polyline fill="none" stroke="black" points="3,-202.78 98,-202.78 "/>
<text text-anchor="middle" x="50.5" y="-190.78" font-family="monospace" font-size="10.00">Indexer::init</text>
</g>
<!-- lightning_indexer::Indexer&#45;&gt;lightning_indexer::Indexer::init -->
<g id="edge6" class="edge">
<title>lightning_indexer::Indexer&#45;&gt;lightning_indexer::Indexer::init</title>
<path fill="none" stroke="#000000" d="M197.67,-132.81C157.81,-136.68 98,-156.95 68.22,-177.4"/>
<polygon fill="#000000" stroke="#000000" points="65.78,-174.86 60,-183.73 70.05,-180.4 65.78,-174.86"/>
<text text-anchor="middle" x="120.44" y="-147.11" font-family="monospace" font-size="10.00">owns</text>
</g>
<!-- lightning_indexer::Indexer::register -->
<g id="node6" class="node">
<title>lightning_indexer::Indexer::register</title>
<polygon fill="#f8c04c" stroke="black" points="299.42,-123.26 299.42,-161.26 430.42,-161.26 430.42,-123.26 299.42,-123.26"/>
<text text-anchor="middle" x="364.92" y="-149.26" font-family="monospace" font-size="10.00">pub(crate) async fn</text>
<polyline fill="none" stroke="black" points="299.42,-142.26 430.42,-142.26 "/>
<text text-anchor="middle" x="364.92" y="-130.26" font-family="monospace" font-size="10.00">Indexer::register</text>
</g>
<!-- lightning_indexer::Indexer&#45;&gt;lightning_indexer::Indexer::register -->
<g id="edge7" class="edge">
<title>lightning_indexer::Indexer&#45;&gt;lightning_indexer::Indexer::register</title>
<path fill="none" stroke="#000000" d="M253.64,-161.35C275.22,-170.66 312.63,-171.78 338.06,-164.73"/>
<polygon fill="#000000" stroke="#000000" points="339.51,-167.93 347.81,-161.34 337.22,-161.31 339.51,-167.93"/>
<text text-anchor="middle" x="283.35" y="-166.04" font-family="monospace" font-size="10.00">owns</text>
</g>
<!-- lightning_indexer::Indexer::unregister -->
<g id="node7" class="node">
<title>lightning_indexer::Indexer::unregister</title>
<polygon fill="#f8c04c" stroke="black" points="264.12,-246.09 264.12,-284.09 395.12,-284.09 395.12,-246.09 264.12,-246.09"/>
<text text-anchor="middle" x="329.62" y="-272.09" font-family="monospace" font-size="10.00">pub(crate) async fn</text>
<polyline fill="none" stroke="black" points="264.12,-265.09 395.12,-265.09 "/>
<text text-anchor="middle" x="329.62" y="-253.09" font-family="monospace" font-size="10.00">Indexer::unregister</text>
</g>
<!-- lightning_indexer::Indexer&#45;&gt;lightning_indexer::Indexer::unregister -->
<g id="edge8" class="edge">
<title>lightning_indexer::Indexer&#45;&gt;lightning_indexer::Indexer::unregister</title>
<path fill="none" stroke="#000000" d="M231.69,-161.52C235.16,-182.98 255.46,-215.42 277.39,-238.79"/>
<polygon fill="#000000" stroke="#000000" points="275.03,-241.38 284.55,-246.03 280.01,-236.46 275.03,-241.38"/>
<text text-anchor="middle" x="242.04" y="-203.16" font-family="monospace" font-size="10.00">owns</text>
</g>
<!-- lightning_indexer::Indexer::Config&#45;&gt;lightning_indexer::config::Config -->
<g id="edge9" class="edge">
<title>lightning_indexer::Indexer::Config&#45;&gt;lightning_indexer::config::Config</title>
<path fill="none" stroke="#7f7f7f" stroke-dasharray="5,2" d="M111.71,-61.96C111.38,-62.07 111.05,-62.18 110.72,-62.29"/>
<polygon fill="#7f7f7f" stroke="#7f7f7f" points="109.61,-58.97 101.18,-65.38 111.78,-65.62 109.61,-58.97"/>
<text text-anchor="middle" x="98.72" y="-54.12" font-family="monospace" font-size="10.00">uses</text>
</g>
<!-- lightning_indexer::Indexer::get_index&#45;&gt;lightning_indexer::Indexer -->
<g id="edge10" class="edge">
<title>lightning_indexer::Indexer::get_index&#45;&gt;lightning_indexer::Indexer</title>
<path fill="none" stroke="#7f7f7f" stroke-dasharray="5,2" d="M284.46,-38.64C263.14,-59.09 241.83,-89.98 234.15,-113.31"/>
<polygon fill="#7f7f7f" stroke="#7f7f7f" points="230.73,-112.56 231.68,-123.12 237.52,-114.27 230.73,-112.56"/>
<text text-anchor="middle" x="246.81" y="-78.98" font-family="monospace" font-size="10.00">uses</text>
</g>
<!-- lightning_indexer::Indexer::init&#45;&gt;lightning_indexer::Indexer -->
<g id="edge11" class="edge">
<title>lightning_indexer::Indexer::init&#45;&gt;lightning_indexer::Indexer</title>
<path fill="none" stroke="#7f7f7f" stroke-dasharray="5,2" d="M98.38,-211.2C137.93,-205.46 191.65,-186.53 219.18,-167.49"/>
<polygon fill="#7f7f7f" stroke="#7f7f7f" points="221.38,-170.21 227.15,-161.32 217.1,-164.68 221.38,-170.21"/>
<text text-anchor="middle" x="146.28" y="-192.34" font-family="monospace" font-size="10.00">uses</text>
</g>
<!-- lightning_indexer::Indexer::init&#45;&gt;lightning_indexer::config::Config -->
<g id="edge12" class="edge">
<title>lightning_indexer::Indexer::init&#45;&gt;lightning_indexer::config::Config</title>
<path fill="none" stroke="#7f7f7f" stroke-dasharray="5,2" d="M50.5,-183.62C50.5,-164.07 50.5,-133.49 50.5,-110.95"/>
<polygon fill="#7f7f7f" stroke="#7f7f7f" points="54,-110.92 50.5,-100.92 47,-110.92 54,-110.92"/>
<text text-anchor="middle" x="38" y="-150.29" font-family="monospace" font-size="10.00">uses</text>
</g>
<!-- lightning_indexer::Indexer::register&#45;&gt;lightning_indexer::Indexer -->
<g id="edge13" class="edge">
<title>lightning_indexer::Indexer::register&#45;&gt;lightning_indexer::Indexer</title>
<path fill="none" stroke="#7f7f7f" stroke-dasharray="5,2" d="M347.87,-123.23C326.29,-113.92 288.88,-112.8 263.45,-119.86"/>
<polygon fill="#7f7f7f" stroke="#7f7f7f" points="262,-116.66 253.7,-123.24 264.29,-123.27 262,-116.66"/>
<text text-anchor="middle" x="293.16" y="-113.54" font-family="monospace" font-size="10.00">uses</text>
</g>
<!-- lightning_indexer::Indexer::unregister&#45;&gt;lightning_indexer::Indexer -->
<g id="edge14" class="edge">
<title>lightning_indexer::Indexer::unregister&#45;&gt;lightning_indexer::Indexer</title>
<path fill="none" stroke="#7f7f7f" stroke-dasharray="5,2" d="M334.53,-245.88C330.74,-222.46 306.88,-185.93 282.75,-162.42"/>
<polygon fill="#7f7f7f" stroke="#7f7f7f" points="285.01,-159.75 275.27,-155.57 280.28,-164.91 285.01,-159.75"/>
<text text-anchor="middle" x="296.14" y="-207.15" font-family="monospace" font-size="10.00">uses</text>
</g>
</g>
</svg>
