<?xml version="1.0" encoding="UTF-8" standalone="no"?>
<!DOCTYPE svg PUBLIC "-//W3C//DTD SVG 1.1//EN"
 "http://www.w3.org/Graphics/SVG/1.1/DTD/svg11.dtd">
<!-- Generated by graphviz version 4.0.0 (0)
 -->
<!-- Pages: 1 -->
<svg width="1550pt" height="1195pt"
 viewBox="0.00 0.00 1550.02 1194.71" xmlns="http://www.w3.org/2000/svg" xmlns:xlink="http://www.w3.org/1999/xlink">
<g id="graph0" class="graph" transform="scale(1 1) rotate(0) translate(28.8 1165.91)">
<polygon fill="white" stroke="transparent" points="-28.8,28.8 -28.8,-1165.91 1521.22,-1165.91 1521.22,28.8 -28.8,28.8"/>
<text text-anchor="middle" x="746.21" y="-1104.31" font-family="Helvetica,sans-Serif" font-size="36.00">lightning_rpc</text>
<!-- lightning_rpc -->
<g id="node1" class="node">
<title>lightning_rpc</title>
<polygon fill="#5397c8" stroke="black" points="660.18,-556.72 660.18,-594.72 755.18,-594.72 755.18,-556.72 660.18,-556.72"/>
<text text-anchor="middle" x="707.68" y="-582.72" font-family="monospace" font-size="10.00">crate</text>
<polyline fill="none" stroke="black" points="660.18,-575.72 755.18,-575.72 "/>
<text text-anchor="middle" x="707.68" y="-563.72" font-family="monospace" font-size="10.00">lightning_rpc</text>
</g>
<!-- lightning_rpc::api -->
<g id="node2" class="node">
<title>lightning_rpc::api</title>
<polygon fill="#81c169" stroke="black" points="1049.72,-312.76 1049.72,-350.76 1174.72,-350.76 1174.72,-312.76 1049.72,-312.76"/>
<text text-anchor="middle" x="1112.22" y="-338.76" font-family="monospace" font-size="10.00">pub mod</text>
<polyline fill="none" stroke="black" points="1049.72,-331.76 1174.72,-331.76 "/>
<text text-anchor="middle" x="1112.22" y="-319.76" font-family="monospace" font-size="10.00">lightning_rpc::api</text>
</g>
<!-- lightning_rpc&#45;&gt;lightning_rpc::api -->
<g id="edge1" class="edge">
<title>lightning_rpc&#45;&gt;lightning_rpc::api</title>
<path fill="none" stroke="#000000" d="M739.42,-556.58C812.24,-512.67 991.2,-404.74 1071.76,-356.16"/>
<polygon fill="#000000" stroke="#000000" points="1073.87,-358.98 1080.63,-350.81 1070.26,-352.98 1073.87,-358.98"/>
<text text-anchor="middle" x="893.09" y="-459.37" font-family="monospace" font-size="10.00">owns</text>
</g>
<!-- lightning_rpc::api_types -->
<g id="node7" class="node">
<title>lightning_rpc::api_types</title>
<polygon fill="#81c169" stroke="black" points="918.51,-631.96 918.51,-669.96 1079.51,-669.96 1079.51,-631.96 918.51,-631.96"/>
<text text-anchor="middle" x="999.01" y="-657.96" font-family="monospace" font-size="10.00">pub mod</text>
<polyline fill="none" stroke="black" points="918.51,-650.96 1079.51,-650.96 "/>
<text text-anchor="middle" x="999.01" y="-638.96" font-family="monospace" font-size="10.00">lightning_rpc::api_types</text>
</g>
<!-- lightning_rpc&#45;&gt;lightning_rpc::api_types -->
<g id="edge2" class="edge">
<title>lightning_rpc&#45;&gt;lightning_rpc::api_types</title>
<path fill="none" stroke="#000000" d="M755.46,-588.06C798.76,-599.24 863.53,-615.97 915.39,-629.37"/>
<polygon fill="#000000" stroke="#000000" points="914.69,-632.8 925.25,-631.91 916.44,-626.02 914.69,-632.8"/>
<text text-anchor="middle" x="822.92" y="-611.71" font-family="monospace" font-size="10.00">owns</text>
</g>
<!-- lightning_rpc::config -->
<g id="node8" class="node">
<title>lightning_rpc::config</title>
<polygon fill="#81c169" stroke="black" points="642.12,-282.93 642.12,-320.93 785.12,-320.93 785.12,-282.93 642.12,-282.93"/>
<text text-anchor="middle" x="713.62" y="-308.93" font-family="monospace" font-size="10.00">pub mod</text>
<polyline fill="none" stroke="black" points="642.12,-301.93 785.12,-301.93 "/>
<text text-anchor="middle" x="713.62" y="-289.93" font-family="monospace" font-size="10.00">lightning_rpc::config</text>
</g>
<!-- lightning_rpc&#45;&gt;lightning_rpc::config -->
<g id="edge3" class="edge">
<title>lightning_rpc&#45;&gt;lightning_rpc::config</title>
<path fill="none" stroke="#000000" d="M722.91,-556.35C739.3,-509 742.79,-387.15 730.33,-331.03"/>
<polygon fill="#000000" stroke="#000000" points="733.64,-329.83 727.73,-321.03 726.86,-331.59 733.64,-329.83"/>
<text text-anchor="middle" x="714.12" y="-446.69" font-family="monospace" font-size="10.00">owns</text>
</g>
<!-- lightning_rpc&#45;&gt;lightning_rpc::config -->
<g id="edge4" class="edge">
<title>lightning_rpc&#45;&gt;lightning_rpc::config</title>
<path fill="none" stroke="#7f7f7f" stroke-dasharray="5,2" d="M693.56,-556.59C679.02,-509.39 680.67,-387.19 695.47,-330.99"/>
<polygon fill="#7f7f7f" stroke="#7f7f7f" points="698.86,-331.88 698.39,-321.3 692.16,-329.86 698.86,-331.88"/>
<text text-anchor="middle" x="682.02" y="-446.79" font-family="monospace" font-size="10.00">uses</text>
</g>
<!-- lightning_rpc::error -->
<g id="node9" class="node">
<title>lightning_rpc::error</title>
<polygon fill="#81c169" stroke="black" points="617.49,-846.59 617.49,-884.59 754.49,-884.59 754.49,-846.59 617.49,-846.59"/>
<text text-anchor="middle" x="685.99" y="-872.59" font-family="monospace" font-size="10.00">pub mod</text>
<polyline fill="none" stroke="black" points="617.49,-865.59 754.49,-865.59 "/>
<text text-anchor="middle" x="685.99" y="-853.59" font-family="monospace" font-size="10.00">lightning_rpc::error</text>
</g>
<!-- lightning_rpc&#45;&gt;lightning_rpc::error -->
<g id="edge5" class="edge">
<title>lightning_rpc&#45;&gt;lightning_rpc::error</title>
<path fill="none" stroke="#000000" d="M691.52,-595.01C672.02,-644.77 661.4,-777.63 671.42,-836.65"/>
<polygon fill="#000000" stroke="#000000" points="667.99,-837.37 673.45,-846.45 674.85,-835.95 667.99,-837.37"/>
<text text-anchor="middle" x="668.97" y="-707.83" font-family="monospace" font-size="10.00">owns</text>
</g>
<!-- lightning_rpc&#45;&gt;lightning_rpc::error -->
<g id="edge6" class="edge">
<title>lightning_rpc&#45;&gt;lightning_rpc::error</title>
<path fill="none" stroke="#7f7f7f" stroke-dasharray="5,2" d="M720.23,-594.9C732.77,-644.61 723.91,-777.82 705.45,-836.81"/>
<polygon fill="#7f7f7f" stroke="#7f7f7f" points="702.14,-835.68 702.16,-846.27 708.75,-837.98 702.14,-835.68"/>
<text text-anchor="middle" x="700.34" y="-707.85" font-family="monospace" font-size="10.00">uses</text>
</g>
<!-- lightning_rpc::event -->
<g id="node10" class="node">
<title>lightning_rpc::event</title>
<polygon fill="#81c169" stroke="black" points="265.85,-281.24 265.85,-319.24 402.85,-319.24 402.85,-281.24 265.85,-281.24"/>
<text text-anchor="middle" x="334.35" y="-307.24" font-family="monospace" font-size="10.00">pub mod</text>
<polyline fill="none" stroke="black" points="265.85,-300.24 402.85,-300.24 "/>
<text text-anchor="middle" x="334.35" y="-288.24" font-family="monospace" font-size="10.00">lightning_rpc::event</text>
</g>
<!-- lightning_rpc&#45;&gt;lightning_rpc::event -->
<g id="edge7" class="edge">
<title>lightning_rpc&#45;&gt;lightning_rpc::event</title>
<path fill="none" stroke="#000000" d="M700.13,-556.27C661.03,-505.42 495.22,-379.51 400.49,-324.52"/>
<polygon fill="#000000" stroke="#000000" points="401.97,-321.33 391.55,-319.42 398.5,-327.42 401.97,-321.33"/>
<text text-anchor="middle" x="537.81" y="-443.39" font-family="monospace" font-size="10.00">owns</text>
</g>
<!-- lightning_rpc&#45;&gt;lightning_rpc::event -->
<g id="edge8" class="edge">
<title>lightning_rpc&#45;&gt;lightning_rpc::event</title>
<path fill="none" stroke="#7f7f7f" stroke-dasharray="5,2" d="M660.06,-561.76C574.18,-516.23 399.74,-386.06 348.15,-327.26"/>
<polygon fill="#7f7f7f" stroke="#7f7f7f" points="350.78,-324.93 341.71,-319.45 345.38,-329.39 350.78,-324.93"/>
<text text-anchor="middle" x="491.61" y="-447.51" font-family="monospace" font-size="10.00">uses</text>
</g>
<!-- lightning_rpc::logic -->
<g id="node11" class="node">
<title>lightning_rpc::logic</title>
<polygon fill="#f8c04c" stroke="black" points="560.84,-717.59 560.84,-755.59 697.84,-755.59 697.84,-717.59 560.84,-717.59"/>
<text text-anchor="middle" x="629.34" y="-743.59" font-family="monospace" font-size="10.00">pub(crate) mod</text>
<polyline fill="none" stroke="black" points="560.84,-736.59 697.84,-736.59 "/>
<text text-anchor="middle" x="629.34" y="-724.59" font-family="monospace" font-size="10.00">lightning_rpc::logic</text>
</g>
<!-- lightning_rpc&#45;&gt;lightning_rpc::logic -->
<g id="edge9" class="edge">
<title>lightning_rpc&#45;&gt;lightning_rpc::logic</title>
<path fill="none" stroke="#000000" d="M698.38,-594.81C684.66,-622.99 658.9,-675.9 643.02,-708.51"/>
<polygon fill="#000000" stroke="#000000" points="639.86,-707.01 638.62,-717.53 646.15,-710.07 639.86,-707.01"/>
<text text-anchor="middle" x="658.2" y="-654.66" font-family="monospace" font-size="10.00">owns</text>
</g>
<!-- lightning_rpc::logic::admin_impl -->
<g id="node12" class="node">
<title>lightning_rpc::logic::admin_impl</title>
<polygon fill="#db5367" stroke="black" points="417.1,-590.3 417.1,-628.3 626.1,-628.3 626.1,-590.3 417.1,-590.3"/>
<text text-anchor="middle" x="521.6" y="-616.3" font-family="monospace" font-size="10.00">pub(self) mod</text>
<polyline fill="none" stroke="black" points="417.1,-609.3 626.1,-609.3 "/>
<text text-anchor="middle" x="521.6" y="-597.3" font-family="monospace" font-size="10.00">lightning_rpc::logic::admin_impl</text>
</g>
<!-- lightning_rpc&#45;&gt;lightning_rpc::logic::admin_impl -->
<g id="edge10" class="edge">
<title>lightning_rpc&#45;&gt;lightning_rpc::logic::admin_impl</title>
<path fill="none" stroke="#7f7f7f" stroke-dasharray="5,2" d="M659.92,-560.68C622.76,-561.28 572.91,-571.57 544.27,-585.44"/>
<polygon fill="#7f7f7f" stroke="#7f7f7f" points="542.52,-582.41 535.43,-590.28 545.88,-588.56 542.52,-582.41"/>
<text text-anchor="middle" x="589.6" y="-576.06" font-family="monospace" font-size="10.00">uses</text>
</g>
<!-- lightning_rpc::logic::eth_impl -->
<g id="node13" class="node">
<title>lightning_rpc::logic::eth_impl</title>
<polygon fill="#db5367" stroke="black" points="760.19,-799.59 760.19,-837.59 957.19,-837.59 957.19,-799.59 760.19,-799.59"/>
<text text-anchor="middle" x="858.69" y="-825.59" font-family="monospace" font-size="10.00">pub(self) mod</text>
<polyline fill="none" stroke="black" points="760.19,-818.59 957.19,-818.59 "/>
<text text-anchor="middle" x="858.69" y="-806.59" font-family="monospace" font-size="10.00">lightning_rpc::logic::eth_impl</text>
</g>
<!-- lightning_rpc&#45;&gt;lightning_rpc::logic::eth_impl -->
<g id="edge11" class="edge">
<title>lightning_rpc&#45;&gt;lightning_rpc::logic::eth_impl</title>
<path fill="none" stroke="#7f7f7f" stroke-dasharray="5,2" d="M704.55,-594.83C712.83,-638.67 774.37,-742.28 818.52,-792.04"/>
<polygon fill="#7f7f7f" stroke="#7f7f7f" points="816.09,-794.57 825.45,-799.55 821.24,-789.82 816.09,-794.57"/>
<text text-anchor="middle" x="749.04" y="-696.44" font-family="monospace" font-size="10.00">uses</text>
</g>
<!-- lightning_rpc::logic::flk_impl -->
<g id="node14" class="node">
<title>lightning_rpc::logic::flk_impl</title>
<polygon fill="#db5367" stroke="black" points="352.75,-748.17 352.75,-786.17 549.75,-786.17 549.75,-748.17 352.75,-748.17"/>
<text text-anchor="middle" x="451.25" y="-774.17" font-family="monospace" font-size="10.00">pub(self) mod</text>
<polyline fill="none" stroke="black" points="352.75,-767.17 549.75,-767.17 "/>
<text text-anchor="middle" x="451.25" y="-755.17" font-family="monospace" font-size="10.00">lightning_rpc::logic::flk_impl</text>
</g>
<!-- lightning_rpc&#45;&gt;lightning_rpc::logic::flk_impl -->
<g id="edge12" class="edge">
<title>lightning_rpc&#45;&gt;lightning_rpc::logic::flk_impl</title>
<path fill="none" stroke="#7f7f7f" stroke-dasharray="5,2" d="M660.13,-586.97C598.71,-618.74 497.25,-696.16 462.27,-739.71"/>
<polygon fill="#7f7f7f" stroke="#7f7f7f" points="459.31,-737.82 456.19,-747.95 464.94,-741.98 459.31,-737.82"/>
<text text-anchor="middle" x="548.7" y="-666.34" font-family="monospace" font-size="10.00">uses</text>
</g>
<!-- lightning_rpc::logic::net_impl -->
<g id="node15" class="node">
<title>lightning_rpc::logic::net_impl</title>
<polygon fill="#db5367" stroke="black" points="441.94,-895.71 441.94,-933.71 638.94,-933.71 638.94,-895.71 441.94,-895.71"/>
<text text-anchor="middle" x="540.44" y="-921.71" font-family="monospace" font-size="10.00">pub(self) mod</text>
<polyline fill="none" stroke="black" points="441.94,-914.71 638.94,-914.71 "/>
<text text-anchor="middle" x="540.44" y="-902.71" font-family="monospace" font-size="10.00">lightning_rpc::logic::net_impl</text>
</g>
<!-- lightning_rpc&#45;&gt;lightning_rpc::logic::net_impl -->
<g id="edge13" class="edge">
<title>lightning_rpc&#45;&gt;lightning_rpc::logic::net_impl</title>
<path fill="none" stroke="#7f7f7f" stroke-dasharray="5,2" d="M681.17,-595.02C635.22,-652.13 554.09,-817.16 538.84,-885.3"/>
<polygon fill="#7f7f7f" stroke="#7f7f7f" points="535.35,-884.91 536.97,-895.38 542.23,-886.18 535.35,-884.91"/>
<text text-anchor="middle" x="597.5" y="-743.16" font-family="monospace" font-size="10.00">uses</text>
</g>
<!-- lightning_rpc::api::admin -->
<g id="node3" class="node">
<title>lightning_rpc::api::admin</title>
<polygon fill="#db5367" stroke="black" points="1242.37,-97.84 1242.37,-135.84 1409.37,-135.84 1409.37,-97.84 1242.37,-97.84"/>
<text text-anchor="middle" x="1325.87" y="-123.84" font-family="monospace" font-size="10.00">pub(self) mod</text>
<polyline fill="none" stroke="black" points="1242.37,-116.84 1409.37,-116.84 "/>
<text text-anchor="middle" x="1325.87" y="-104.84" font-family="monospace" font-size="10.00">lightning_rpc::api::admin</text>
</g>
<!-- lightning_rpc::api&#45;&gt;lightning_rpc::api::admin -->
<g id="edge14" class="edge">
<title>lightning_rpc::api&#45;&gt;lightning_rpc::api::admin</title>
<path fill="none" stroke="#000000" d="M1131.18,-312.69C1169.51,-274.13 1256.25,-186.88 1299.84,-143.03"/>
<polygon fill="#000000" stroke="#000000" points="1302.39,-145.43 1306.96,-135.87 1297.42,-140.49 1302.39,-145.43"/>
<text text-anchor="middle" x="1203.01" y="-230.86" font-family="monospace" font-size="10.00">owns</text>
</g>
<!-- lightning_rpc::api::eth -->
<g id="node4" class="node">
<title>lightning_rpc::api::eth</title>
<polygon fill="#db5367" stroke="black" points="1143.35,-539.5 1143.35,-577.5 1298.35,-577.5 1298.35,-539.5 1143.35,-539.5"/>
<text text-anchor="middle" x="1220.85" y="-565.5" font-family="monospace" font-size="10.00">pub(self) mod</text>
<polyline fill="none" stroke="black" points="1143.35,-558.5 1298.35,-558.5 "/>
<text text-anchor="middle" x="1220.85" y="-546.5" font-family="monospace" font-size="10.00">lightning_rpc::api::eth</text>
</g>
<!-- lightning_rpc::api&#45;&gt;lightning_rpc::api::eth -->
<g id="edge15" class="edge">
<title>lightning_rpc::api&#45;&gt;lightning_rpc::api::eth</title>
<path fill="none" stroke="#000000" d="M1121.49,-351.09C1140.64,-391.09 1184.71,-483.08 1207.16,-529.94"/>
<polygon fill="#000000" stroke="#000000" points="1204.13,-531.71 1211.61,-539.22 1210.45,-528.69 1204.13,-531.71"/>
<text text-anchor="middle" x="1151.82" y="-443.52" font-family="monospace" font-size="10.00">owns</text>
</g>
<!-- lightning_rpc::api::flk -->
<g id="node5" class="node">
<title>lightning_rpc::api::flk</title>
<polygon fill="#db5367" stroke="black" points="1012.14,-30.48 1012.14,-68.48 1167.14,-68.48 1167.14,-30.48 1012.14,-30.48"/>
<text text-anchor="middle" x="1089.64" y="-56.48" font-family="monospace" font-size="10.00">pub(self) mod</text>
<polyline fill="none" stroke="black" points="1012.14,-49.48 1167.14,-49.48 "/>
<text text-anchor="middle" x="1089.64" y="-37.48" font-family="monospace" font-size="10.00">lightning_rpc::api::flk</text>
</g>
<!-- lightning_rpc::api&#45;&gt;lightning_rpc::api::flk -->
<g id="edge16" class="edge">
<title>lightning_rpc::api&#45;&gt;lightning_rpc::api::flk</title>
<path fill="none" stroke="#000000" d="M1110.67,-312.36C1106.79,-263.8 1096.62,-136.77 1092,-78.93"/>
<polygon fill="#000000" stroke="#000000" points="1095.46,-78.34 1091.18,-68.65 1088.48,-78.9 1095.46,-78.34"/>
<text text-anchor="middle" x="1088.83" y="-198.64" font-family="monospace" font-size="10.00">owns</text>
</g>
<!-- lightning_rpc::api::net -->
<g id="node6" class="node">
<title>lightning_rpc::api::net</title>
<polygon fill="#db5367" stroke="black" points="1337.42,-325.51 1337.42,-363.51 1492.42,-363.51 1492.42,-325.51 1337.42,-325.51"/>
<text text-anchor="middle" x="1414.92" y="-351.51" font-family="monospace" font-size="10.00">pub(self) mod</text>
<polyline fill="none" stroke="black" points="1337.42,-344.51 1492.42,-344.51 "/>
<text text-anchor="middle" x="1414.92" y="-332.51" font-family="monospace" font-size="10.00">lightning_rpc::api::net</text>
</g>
<!-- lightning_rpc::api&#45;&gt;lightning_rpc::api::net -->
<g id="edge17" class="edge">
<title>lightning_rpc::api&#45;&gt;lightning_rpc::api::net</title>
<path fill="none" stroke="#000000" d="M1174.94,-334.4C1218.92,-336.25 1278.3,-338.75 1327,-340.81"/>
<polygon fill="#000000" stroke="#000000" points="1327.08,-344.31 1337.21,-341.24 1327.37,-337.32 1327.08,-344.31"/>
<text text-anchor="middle" x="1238.47" y="-340.6" font-family="monospace" font-size="10.00">owns</text>
</g>
<!-- lightning_rpc::api::eth&#45;&gt;lightning_rpc::api_types -->
<g id="edge18" class="edge">
<title>lightning_rpc::api::eth&#45;&gt;lightning_rpc::api_types</title>
<path fill="none" stroke="#7f7f7f" stroke-dasharray="5,2" d="M1175.15,-577.55C1140.1,-592.15 1091.58,-612.38 1054.34,-627.9"/>
<polygon fill="#7f7f7f" stroke="#7f7f7f" points="1052.53,-624.86 1044.64,-631.94 1055.22,-631.32 1052.53,-624.86"/>
<text text-anchor="middle" x="1102.25" y="-605.72" font-family="monospace" font-size="10.00">uses</text>
</g>
<!-- rlp -->
<g id="node16" class="node">
<title>rlp</title>
<polygon fill="#5397c8" stroke="black" points="805.8,-1050.61 805.8,-1088.61 906.8,-1088.61 906.8,-1050.61 805.8,-1050.61"/>
<text text-anchor="middle" x="856.3" y="-1076.61" font-family="monospace" font-size="10.00">external crate</text>
<polyline fill="none" stroke="black" points="805.8,-1069.61 906.8,-1069.61 "/>
<text text-anchor="middle" x="856.3" y="-1057.61" font-family="monospace" font-size="10.00">rlp</text>
</g>
<!-- lightning_rpc::error&#45;&gt;rlp -->
<g id="edge19" class="edge">
<title>lightning_rpc::error&#45;&gt;rlp</title>
<path fill="none" stroke="#7f7f7f" stroke-dasharray="5,2" d="M702.01,-884.79C732.44,-921.24 798.68,-1000.59 833.64,-1042.47"/>
<polygon fill="#7f7f7f" stroke="#7f7f7f" points="831.1,-1044.89 840.2,-1050.32 836.47,-1040.4 831.1,-1044.89"/>
<text text-anchor="middle" x="755.33" y="-966.63" font-family="monospace" font-size="10.00">uses</text>
</g>
<!-- tokio::sync::broadcast -->
<g id="node17" class="node">
<title>tokio::sync::broadcast</title>
<polygon fill="#81c169" stroke="black" points="20,-105.73 20,-143.73 169,-143.73 169,-105.73 20,-105.73"/>
<text text-anchor="middle" x="94.5" y="-131.73" font-family="monospace" font-size="10.00">external mod</text>
<polyline fill="none" stroke="black" points="20,-124.73 169,-124.73 "/>
<text text-anchor="middle" x="94.5" y="-112.73" font-family="monospace" font-size="10.00">tokio::sync::broadcast</text>
</g>
<!-- lightning_rpc::event&#45;&gt;tokio::sync::broadcast -->
<g id="edge20" class="edge">
<title>lightning_rpc::event&#45;&gt;tokio::sync::broadcast</title>
<path fill="none" stroke="#7f7f7f" stroke-dasharray="5,2" d="M308.23,-281.12C264.7,-249.27 177.35,-185.36 128.88,-149.89"/>
<polygon fill="#7f7f7f" stroke="#7f7f7f" points="130.73,-146.9 120.59,-143.82 126.59,-152.55 130.73,-146.9"/>
<text text-anchor="middle" x="206.06" y="-218.51" font-family="monospace" font-size="10.00">uses</text>
</g>
<!-- tokio::sync::mpsc -->
<g id="node18" class="node">
<title>tokio::sync::mpsc</title>
<polygon fill="#81c169" stroke="black" points="0,-358.36 0,-396.36 119,-396.36 119,-358.36 0,-358.36"/>
<text text-anchor="middle" x="59.5" y="-384.36" font-family="monospace" font-size="10.00">external mod</text>
<polyline fill="none" stroke="black" points="0,-377.36 119,-377.36 "/>
<text text-anchor="middle" x="59.5" y="-365.36" font-family="monospace" font-size="10.00">tokio::sync::mpsc</text>
</g>
<!-- lightning_rpc::event&#45;&gt;tokio::sync::mpsc -->
<g id="edge21" class="edge">
<title>lightning_rpc::event&#45;&gt;tokio::sync::mpsc</title>
<path fill="none" stroke="#7f7f7f" stroke-dasharray="5,2" d="M266.41,-319.3C224.62,-331.03 171.18,-346.02 129.09,-357.84"/>
<polygon fill="#7f7f7f" stroke="#7f7f7f" points="127.87,-354.54 119.19,-360.61 129.77,-361.28 127.87,-354.54"/>
<text text-anchor="middle" x="185.25" y="-341.57" font-family="monospace" font-size="10.00">uses</text>
</g>
<!-- tokio::sync::oneshot -->
<g id="node19" class="node">
<title>tokio::sync::oneshot</title>
<polygon fill="#81c169" stroke="black" points="258.85,-0.5 258.85,-38.5 395.85,-38.5 395.85,-0.5 258.85,-0.5"/>
<text text-anchor="middle" x="327.35" y="-26.5" font-family="monospace" font-size="10.00">external mod</text>
<polyline fill="none" stroke="black" points="258.85,-19.5 395.85,-19.5 "/>
<text text-anchor="middle" x="327.35" y="-7.5" font-family="monospace" font-size="10.00">tokio::sync::oneshot</text>
</g>
<!-- lightning_rpc::event&#45;&gt;tokio::sync::oneshot -->
<g id="edge22" class="edge">
<title>lightning_rpc::event&#45;&gt;tokio::sync::oneshot</title>
<path fill="none" stroke="#7f7f7f" stroke-dasharray="5,2" d="M333.87,-280.94C332.67,-232.64 329.52,-106.31 328.08,-48.79"/>
<polygon fill="#7f7f7f" stroke="#7f7f7f" points="331.58,-48.47 327.83,-38.56 324.58,-48.64 331.58,-48.47"/>
<text text-anchor="middle" x="318.48" y="-167.86" font-family="monospace" font-size="10.00">uses</text>
</g>
<!-- lightning_rpc::logic&#45;&gt;lightning_rpc::logic::admin_impl -->
<g id="edge23" class="edge">
<title>lightning_rpc::logic&#45;&gt;lightning_rpc::logic::admin_impl</title>
<path fill="none" stroke="#000000" d="M632.83,-717.57C627.71,-694.91 602.79,-659.95 577.21,-635.31"/>
<polygon fill="#000000" stroke="#000000" points="579.36,-632.53 569.63,-628.34 574.62,-637.68 579.36,-632.53"/>
<text text-anchor="middle" x="592.52" y="-679.44" font-family="monospace" font-size="10.00">owns</text>
</g>
<!-- lightning_rpc::logic&#45;&gt;lightning_rpc::logic::admin_impl -->
<g id="edge24" class="edge">
<title>lightning_rpc::logic&#45;&gt;lightning_rpc::logic::admin_impl</title>
<path fill="none" stroke="#7f7f7f" stroke-dasharray="5,2" d="M581.31,-717.55C556.69,-695.96 530.93,-662.7 521.2,-638.06"/>
<polygon fill="#7f7f7f" stroke="#7f7f7f" points="524.5,-636.88 518.13,-628.42 517.83,-639.01 524.5,-636.88"/>
<text text-anchor="middle" x="538.75" y="-680.8" font-family="monospace" font-size="10.00">uses</text>
</g>
<!-- lightning_rpc::logic&#45;&gt;lightning_rpc::logic::eth_impl -->
<g id="edge25" class="edge">
<title>lightning_rpc::logic&#45;&gt;lightning_rpc::logic::eth_impl</title>
<path fill="none" stroke="#000000" d="M639.9,-755.64C660.33,-773.05 706.01,-793.78 750.43,-808.32"/>
<polygon fill="#000000" stroke="#000000" points="749.58,-811.73 760.17,-811.42 751.7,-805.06 749.58,-811.73"/>
<text text-anchor="middle" x="682.67" y="-784.98" font-family="monospace" font-size="10.00">owns</text>
</g>
<!-- lightning_rpc::logic&#45;&gt;lightning_rpc::logic::eth_impl -->
<g id="edge26" class="edge">
<title>lightning_rpc::logic&#45;&gt;lightning_rpc::logic::eth_impl</title>
<path fill="none" stroke="#7f7f7f" stroke-dasharray="5,2" d="M698.02,-735.52C746.95,-747.28 809.12,-771.86 839.98,-793.32"/>
<polygon fill="#7f7f7f" stroke="#7f7f7f" points="838.09,-796.28 848.16,-799.57 842.34,-790.71 838.09,-796.28"/>
<text text-anchor="middle" x="756.5" y="-767.42" font-family="monospace" font-size="10.00">uses</text>
</g>
<!-- lightning_rpc::logic&#45;&gt;lightning_rpc::logic::flk_impl -->
<g id="edge27" class="edge">
<title>lightning_rpc::logic&#45;&gt;lightning_rpc::logic::flk_impl</title>
<path fill="none" stroke="#000000" d="M560.64,-721.96C529.86,-724.82 495.67,-732.83 473.8,-743.3"/>
<polygon fill="#000000" stroke="#000000" points="472.08,-740.25 464.96,-748.1 475.42,-746.4 472.08,-740.25"/>
<text text-anchor="middle" x="504.72" y="-735.63" font-family="monospace" font-size="10.00">owns</text>
</g>
<!-- lightning_rpc::logic&#45;&gt;lightning_rpc::logic::flk_impl -->
<g id="edge28" class="edge">
<title>lightning_rpc::logic&#45;&gt;lightning_rpc::logic::flk_impl</title>
<path fill="none" stroke="#7f7f7f" stroke-dasharray="5,2" d="M615.69,-755.63C602.79,-763.68 582.21,-770.67 559.9,-775.56"/>
<polygon fill="#7f7f7f" stroke="#7f7f7f" points="559.01,-772.16 549.91,-777.59 560.41,-779.02 559.01,-772.16"/>
<text text-anchor="middle" x="575.3" y="-768.59" font-family="monospace" font-size="10.00">uses</text>
</g>
<!-- lightning_rpc::logic&#45;&gt;lightning_rpc::logic::net_impl -->
<g id="edge29" class="edge">
<title>lightning_rpc::logic&#45;&gt;lightning_rpc::logic::net_impl</title>
<path fill="none" stroke="#000000" d="M597.04,-755.73C570.65,-787.27 540.88,-848.52 534.69,-885.45"/>
<polygon fill="#000000" stroke="#000000" points="531.18,-885.3 533.57,-895.62 538.14,-886.07 531.18,-885.3"/>
<text text-anchor="middle" x="553.36" y="-823.59" font-family="monospace" font-size="10.00">owns</text>
</g>
<!-- lightning_rpc::logic&#45;&gt;lightning_rpc::logic::net_impl -->
<g id="edge30" class="edge">
<title>lightning_rpc::logic&#45;&gt;lightning_rpc::logic::net_impl</title>
<path fill="none" stroke="#7f7f7f" stroke-dasharray="5,2" d="M636.22,-755.67C634.92,-787.81 606.48,-850.63 579.26,-887.28"/>
<polygon fill="#7f7f7f" stroke="#7f7f7f" points="576.18,-885.54 572.75,-895.57 581.68,-889.87 576.18,-885.54"/>
<text text-anchor="middle" x="595.24" y="-824.48" font-family="monospace" font-size="10.00">uses</text>
</g>
<!-- lightning_rpc::logic::admin_impl&#45;&gt;lightning_rpc -->
<g id="edge31" class="edge">
<title>lightning_rpc::logic::admin_impl&#45;&gt;lightning_rpc</title>
<path fill="none" stroke="#7f7f7f" stroke-dasharray="5,2" d="M626.23,-617.79C648.22,-613.4 669.34,-607.09 684.58,-599.78"/>
<polygon fill="#7f7f7f" stroke="#7f7f7f" points="686.57,-602.69 693.7,-594.85 683.24,-596.53 686.57,-602.69"/>
<text text-anchor="middle" x="642.91" y="-611.79" font-family="monospace" font-size="10.00">uses</text>
</g>
<!-- lightning_rpc::logic::admin_impl&#45;&gt;lightning_rpc::error -->
<g id="edge32" class="edge">
<title>lightning_rpc::logic::admin_impl&#45;&gt;lightning_rpc::error</title>
<path fill="none" stroke="#7f7f7f" stroke-dasharray="5,2" d="M533.96,-628.57C562.83,-673.57 634.79,-785.77 668.3,-838.02"/>
<polygon fill="#7f7f7f" stroke="#7f7f7f" points="665.37,-839.93 673.71,-846.46 671.26,-836.15 665.37,-839.93"/>
<text text-anchor="middle" x="588.63" y="-725.29" font-family="monospace" font-size="10.00">uses</text>
</g>
<!-- lightning_rpc::logic::eth_impl&#45;&gt;lightning_rpc -->
<g id="edge33" class="edge">
<title>lightning_rpc::logic::eth_impl&#45;&gt;lightning_rpc</title>
<path fill="none" stroke="#7f7f7f" stroke-dasharray="5,2" d="M861.82,-799.48C853.54,-755.64 792,-652.03 747.85,-602.27"/>
<polygon fill="#7f7f7f" stroke="#7f7f7f" points="750.27,-599.74 740.92,-594.77 745.13,-604.49 750.27,-599.74"/>
<text text-anchor="middle" x="792.33" y="-703.88" font-family="monospace" font-size="10.00">uses</text>
</g>
<!-- lightning_rpc::logic::eth_impl&#45;&gt;lightning_rpc::api_types -->
<g id="edge34" class="edge">
<title>lightning_rpc::logic::eth_impl&#45;&gt;lightning_rpc::api_types</title>
<path fill="none" stroke="#7f7f7f" stroke-dasharray="5,2" d="M874.79,-799.36C899.84,-769.42 948.25,-711.6 976.67,-677.64"/>
<polygon fill="#7f7f7f" stroke="#7f7f7f" points="979.36,-679.88 983.1,-669.97 974,-675.39 979.36,-679.88"/>
<text text-anchor="middle" x="913.23" y="-741.5" font-family="monospace" font-size="10.00">uses</text>
</g>
<!-- lightning_rpc::logic::eth_impl&#45;&gt;lightning_rpc::error -->
<g id="edge35" class="edge">
<title>lightning_rpc::logic::eth_impl&#45;&gt;lightning_rpc::error</title>
<path fill="none" stroke="#7f7f7f" stroke-dasharray="5,2" d="M788.45,-837.71C780.48,-839.88 772.32,-842.1 764.26,-844.29"/>
<polygon fill="#7f7f7f" stroke="#7f7f7f" points="763.22,-840.94 754.49,-846.95 765.06,-847.7 763.22,-840.94"/>
<text text-anchor="middle" x="788.85" y="-844" font-family="monospace" font-size="10.00">uses</text>
</g>
<!-- lightning_rpc::logic::eth_impl&#45;&gt;rlp -->
<g id="edge36" class="edge">
<title>lightning_rpc::logic::eth_impl&#45;&gt;rlp</title>
<path fill="none" stroke="#7f7f7f" stroke-dasharray="5,2" d="M858.51,-837.87C858.09,-881.6 857.07,-988.53 856.58,-1040.42"/>
<polygon fill="#7f7f7f" stroke="#7f7f7f" points="853.08,-1040.58 856.48,-1050.61 860.07,-1040.65 853.08,-1040.58"/>
<text text-anchor="middle" x="845.04" y="-942.14" font-family="monospace" font-size="10.00">uses</text>
</g>
<!-- lightning_rpc::logic::flk_impl&#45;&gt;lightning_rpc -->
<g id="edge37" class="edge">
<title>lightning_rpc::logic::flk_impl&#45;&gt;lightning_rpc</title>
<path fill="none" stroke="#7f7f7f" stroke-dasharray="5,2" d="M513.09,-748.13C575.02,-712.79 664.61,-643.24 696.84,-602.96"/>
<polygon fill="#7f7f7f" stroke="#7f7f7f" points="699.71,-604.96 702.82,-594.83 694.07,-600.81 699.71,-604.96"/>
<text text-anchor="middle" x="592.47" y="-667.54" font-family="monospace" font-size="10.00">uses</text>
</g>
<!-- lightning_rpc::logic::flk_impl&#45;&gt;lightning_rpc::error -->
<g id="edge38" class="edge">
<title>lightning_rpc::logic::flk_impl&#45;&gt;lightning_rpc::error</title>
<path fill="none" stroke="#7f7f7f" stroke-dasharray="5,2" d="M496.79,-786.26C535.26,-802.39 590.45,-825.53 631.31,-842.66"/>
<polygon fill="#7f7f7f" stroke="#7f7f7f" points="630,-845.91 640.58,-846.55 632.71,-839.46 630,-845.91"/>
<text text-anchor="middle" x="551.55" y="-806.46" font-family="monospace" font-size="10.00">uses</text>
</g>
<!-- lightning_rpc::logic::net_impl&#45;&gt;lightning_rpc -->
<g id="edge39" class="edge">
<title>lightning_rpc::logic::net_impl&#45;&gt;lightning_rpc</title>
<path fill="none" stroke="#7f7f7f" stroke-dasharray="5,2" d="M566.95,-895.42C612.9,-838.31 694.02,-673.28 709.28,-605.13"/>
<polygon fill="#7f7f7f" stroke="#7f7f7f" points="712.77,-605.53 711.15,-595.06 705.89,-604.25 712.77,-605.53"/>
<text text-anchor="middle" x="625.61" y="-753.27" font-family="monospace" font-size="10.00">uses</text>
</g>
<!-- lightning_rpc::logic::net_impl&#45;&gt;lightning_rpc::error -->
<g id="edge40" class="edge">
<title>lightning_rpc::logic::net_impl&#45;&gt;lightning_rpc::error</title>
<path fill="none" stroke="#7f7f7f" stroke-dasharray="5,2" d="M597.13,-895.58C604.54,-893.08 612.18,-890.5 619.73,-887.95"/>
<polygon fill="#7f7f7f" stroke="#7f7f7f" points="620.86,-891.27 629.21,-884.75 618.62,-884.63 620.86,-891.27"/>
<text text-anchor="middle" x="595.93" y="-883.77" font-family="monospace" font-size="10.00">uses</text>
</g>
</g>
</svg>
