<?xml version="1.0" encoding="UTF-8" standalone="no"?>
<!DOCTYPE svg PUBLIC "-//W3C//DTD SVG 1.1//EN"
 "http://www.w3.org/Graphics/SVG/1.1/DTD/svg11.dtd">
<!-- Generated by graphviz version 4.0.0 (0)
 -->
<!-- Pages: 1 -->
<svg width="528pt" height="239pt"
 viewBox="0.00 0.00 527.60 238.61" xmlns="http://www.w3.org/2000/svg" xmlns:xlink="http://www.w3.org/1999/xlink">
<g id="graph0" class="graph" transform="scale(1 1) rotate(0) translate(28.8 209.81)">
<polygon fill="white" stroke="transparent" points="-28.8,28.8 -28.8,-209.81 498.8,-209.81 498.8,28.8 -28.8,28.8"/>
<text text-anchor="middle" x="235" y="-148.21" font-family="Helvetica,sans-Serif" font-size="36.00">lightning_origin_demuxer</text>
<!-- lightning_origin_demuxer -->
<g id="node1" class="node">
<title>lightning_origin_demuxer</title>
<polygon fill="#5397c8" stroke="black" points="112.29,-0.5 112.29,-38.5 273.29,-38.5 273.29,-0.5 112.29,-0.5"/>
<text text-anchor="middle" x="192.79" y="-26.5" font-family="monospace" font-size="10.00">crate</text>
<polyline fill="none" stroke="black" points="112.29,-19.5 273.29,-19.5 "/>
<text text-anchor="middle" x="192.79" y="-7.5" font-family="monospace" font-size="10.00">lightning_origin_demuxer</text>
</g>
<!-- lightning_origin_demuxer::config -->
<g id="node2" class="node">
<title>lightning_origin_demuxer::config</title>
<polygon fill="#f8c04c" stroke="black" points="88.29,-94.51 88.29,-132.51 297.29,-132.51 297.29,-94.51 88.29,-94.51"/>
<text text-anchor="middle" x="192.79" y="-120.51" font-family="monospace" font-size="10.00">pub(crate) mod</text>
<polyline fill="none" stroke="black" points="88.29,-113.51 297.29,-113.51 "/>
<text text-anchor="middle" x="192.79" y="-101.51" font-family="monospace" font-size="10.00">lightning_origin_demuxer::config</text>
</g>
<!-- lightning_origin_demuxer&#45;&gt;lightning_origin_demuxer::config -->
<g id="edge1" class="edge">
<title>lightning_origin_demuxer&#45;&gt;lightning_origin_demuxer::config</title>
<path fill="none" stroke="#000000" d="M170.6,-38.52C165.42,-51.69 164.43,-69.46 167.61,-84.39"/>
<polygon fill="#000000" stroke="#000000" points="164.31,-85.58 170.48,-94.19 171.03,-83.61 164.31,-85.58"/>
<text text-anchor="middle" x="156.6" y="-64.46" font-family="monospace" font-size="10.00">owns</text>
</g>
<!-- lightning_origin_demuxer&#45;&gt;lightning_origin_demuxer::config -->
<g id="edge2" class="edge">
<title>lightning_origin_demuxer&#45;&gt;lightning_origin_demuxer::config</title>
<path fill="none" stroke="#7f7f7f" stroke-dasharray="5,2" d="M214.99,-38.52C220.16,-51.69 221.16,-69.46 217.97,-84.39"/>
<polygon fill="#7f7f7f" stroke="#7f7f7f" points="214.56,-83.61 215.1,-94.19 221.27,-85.58 214.56,-83.61"/>
<text text-anchor="middle" x="203.98" y="-64.46" font-family="monospace" font-size="10.00">uses</text>
</g>
<!-- lightning_origin_demuxer::demuxer -->
<g id="node3" class="node">
<title>lightning_origin_demuxer::demuxer</title>
<polygon fill="#f8c04c" stroke="black" points="166.71,-47.5 166.71,-85.5 381.71,-85.5 381.71,-47.5 166.71,-47.5"/>
<text text-anchor="middle" x="274.21" y="-73.5" font-family="monospace" font-size="10.00">pub(crate) mod</text>
<polyline fill="none" stroke="black" points="166.71,-66.5 381.71,-66.5 "/>
<text text-anchor="middle" x="274.21" y="-54.5" font-family="monospace" font-size="10.00">lightning_origin_demuxer::demuxer</text>
</g>
<!-- lightning_origin_demuxer&#45;&gt;lightning_origin_demuxer::demuxer -->
<g id="edge3" class="edge">
<title>lightning_origin_demuxer&#45;&gt;lightning_origin_demuxer::demuxer</title>
<path fill="none" stroke="#000000" d="M192.41,-38.88C192.45,-38.97 192.49,-39.06 192.53,-39.15"/>
<polygon fill="#000000" stroke="#000000" points="189.33,-40.62 197.49,-47.37 195.32,-37 189.33,-40.62"/>
<text text-anchor="middle" x="179.97" y="-42.01" font-family="monospace" font-size="10.00">owns</text>
</g>
<!-- lightning_origin_demuxer&#45;&gt;lightning_origin_demuxer::demuxer -->
<g id="edge4" class="edge">
<title>lightning_origin_demuxer&#45;&gt;lightning_origin_demuxer::demuxer</title>
<path fill="none" stroke="#7f7f7f" stroke-dasharray="5,2" d="M269.43,-38.53C269.49,-38.62 269.56,-38.71 269.63,-38.8"/>
<polygon fill="#7f7f7f" stroke="#7f7f7f" points="266.57,-40.5 274.68,-47.32 272.59,-36.94 266.57,-40.5"/>
<text text-anchor="middle" x="282.03" y="-30.67" font-family="monospace" font-size="10.00">uses</text>
</g>
<!-- lightning_origin_demuxer::demuxer&#45;&gt;lightning_origin_demuxer::config -->
<g id="edge5" class="edge">
<title>lightning_origin_demuxer::demuxer&#45;&gt;lightning_origin_demuxer::config</title>
<path fill="none" stroke="#7f7f7f" stroke-dasharray="5,2" d="M241.09,-85.62C239.05,-86.8 236.99,-87.99 234.92,-89.19"/>
<polygon fill="#7f7f7f" stroke="#7f7f7f" points="232.79,-86.38 225.88,-94.41 236.29,-92.44 232.79,-86.38"/>
<text text-anchor="middle" x="225.51" y="-90.41" font-family="monospace" font-size="10.00">uses</text>
</g>
</g>
</svg>
