<?xml version="1.0" encoding="UTF-8" standalone="no"?>
<!DOCTYPE svg PUBLIC "-//W3C//DTD SVG 1.1//EN"
 "http://www.w3.org/Graphics/SVG/1.1/DTD/svg11.dtd">
<!-- Generated by graphviz version 4.0.0 (0)
 -->
<!-- Pages: 1 -->
<svg width="1699pt" height="1515pt"
 viewBox="0.00 0.00 1698.79 1514.91" xmlns="http://www.w3.org/2000/svg" xmlns:xlink="http://www.w3.org/1999/xlink">
<g id="graph0" class="graph" transform="scale(1 1) rotate(0) translate(28.8 1486.11)">
<polygon fill="white" stroke="transparent" points="-28.8,28.8 -28.8,-1486.11 1669.99,-1486.11 1669.99,28.8 -28.8,28.8"/>
<text text-anchor="middle" x="820.59" y="-1424.51" font-family="Helvetica,sans-Serif" font-size="36.00">lightning_schema</text>
<!-- lightning_schema -->
<g id="node1" class="node">
<title>lightning_schema</title>
<polygon fill="#5397c8" stroke="black" points="772.14,-682.08 772.14,-720.08 885.14,-720.08 885.14,-682.08 772.14,-682.08"/>
<text text-anchor="middle" x="828.64" y="-708.08" font-family="monospace" font-size="10.00">crate</text>
<polyline fill="none" stroke="black" points="772.14,-701.08 885.14,-701.08 "/>
<text text-anchor="middle" x="828.64" y="-689.08" font-family="monospace" font-size="10.00">lightning_schema</text>
</g>
<!-- lightning_schema::AutoImplSerde -->
<g id="node2" class="node">
<title>lightning_schema::AutoImplSerde</title>
<polygon fill="#81c169" stroke="black" points="697.38,-482.27 697.38,-520.27 792.38,-520.27 792.38,-482.27 697.38,-482.27"/>
<text text-anchor="middle" x="744.88" y="-508.27" font-family="monospace" font-size="10.00">pub trait</text>
<polyline fill="none" stroke="black" points="697.38,-501.27 792.38,-501.27 "/>
<text text-anchor="middle" x="744.88" y="-489.27" font-family="monospace" font-size="10.00">AutoImplSerde</text>
</g>
<!-- lightning_schema&#45;&gt;lightning_schema::AutoImplSerde -->
<g id="edge1" class="edge">
<title>lightning_schema&#45;&gt;lightning_schema::AutoImplSerde</title>
<path fill="none" stroke="#000000" d="M836.28,-681.73C836.3,-645.62 806.91,-569.75 779.34,-528.58"/>
<polygon fill="#000000" stroke="#000000" points="782.13,-526.48 773.49,-520.35 776.43,-530.53 782.13,-526.48"/>
<text text-anchor="middle" x="795.31" y="-608.15" font-family="monospace" font-size="10.00">owns</text>
</g>
<!-- lightning_schema&#45;&gt;lightning_schema::AutoImplSerde -->
<g id="edge2" class="edge">
<title>lightning_schema&#45;&gt;lightning_schema::AutoImplSerde</title>
<path fill="none" stroke="#7f7f7f" stroke-dasharray="5,2" d="M799.96,-681.91C773.19,-646.51 742.54,-572.35 737.85,-530.65"/>
<polygon fill="#7f7f7f" stroke="#7f7f7f" points="741.34,-530.31 737.24,-520.54 734.35,-530.74 741.34,-530.31"/>
<text text-anchor="middle" x="756.41" y="-609.28" font-family="monospace" font-size="10.00">uses</text>
</g>
<!-- lightning_schema::LightningMessage -->
<g id="node3" class="node">
<title>lightning_schema::LightningMessage</title>
<polygon fill="#81c169" stroke="black" points="939.99,-536.54 939.99,-574.54 1052.99,-574.54 1052.99,-536.54 939.99,-536.54"/>
<text text-anchor="middle" x="996.49" y="-562.54" font-family="monospace" font-size="10.00">pub trait</text>
<polyline fill="none" stroke="black" points="939.99,-555.54 1052.99,-555.54 "/>
<text text-anchor="middle" x="996.49" y="-543.54" font-family="monospace" font-size="10.00">LightningMessage</text>
</g>
<!-- lightning_schema&#45;&gt;lightning_schema::LightningMessage -->
<g id="edge3" class="edge">
<title>lightning_schema&#45;&gt;lightning_schema::LightningMessage</title>
<path fill="none" stroke="#000000" d="M885.16,-683.3C924.16,-657.56 971.4,-613.83 990.32,-583.79"/>
<polygon fill="#000000" stroke="#000000" points="993.44,-585.38 995.24,-574.94 987.32,-581.98 993.44,-585.38"/>
<text text-anchor="middle" x="925.24" y="-636.54" font-family="monospace" font-size="10.00">owns</text>
</g>
<!-- lightning_schema&#45;&gt;lightning_schema::LightningMessage -->
<g id="edge4" class="edge">
<title>lightning_schema&#45;&gt;lightning_schema::LightningMessage</title>
<path fill="none" stroke="#7f7f7f" stroke-dasharray="5,2" d="M829.85,-681.77C842.84,-654.1 889.97,-608.38 931.23,-579.3"/>
<polygon fill="#7f7f7f" stroke="#7f7f7f" points="933.38,-582.07 939.66,-573.53 929.43,-576.29 933.38,-582.07"/>
<text text-anchor="middle" x="868.04" y="-633.53" font-family="monospace" font-size="10.00">uses</text>
</g>
<!-- lightning_schema::broadcast::Advr -->
<g id="node4" class="node">
<title>lightning_schema::broadcast::Advr</title>
<polygon fill="#81c169" stroke="black" points="605.44,-813.96 605.44,-851.96 712.44,-851.96 712.44,-813.96 605.44,-813.96"/>
<text text-anchor="middle" x="658.94" y="-839.96" font-family="monospace" font-size="10.00">pub struct</text>
<polyline fill="none" stroke="black" points="605.44,-832.96 712.44,-832.96 "/>
<text text-anchor="middle" x="658.94" y="-820.96" font-family="monospace" font-size="10.00">broadcast::Advr</text>
</g>
<!-- lightning_schema&#45;&gt;lightning_schema::broadcast::Advr -->
<g id="edge5" class="edge">
<title>lightning_schema&#45;&gt;lightning_schema::broadcast::Advr</title>
<path fill="none" stroke="#000000" d="M803.97,-720.25C774.31,-743.31 724.43,-782.06 691.6,-807.58"/>
<polygon fill="#000000" stroke="#000000" points="689.39,-804.86 683.65,-813.76 693.69,-810.39 689.39,-804.86"/>
<text text-anchor="middle" x="735.28" y="-766.92" font-family="monospace" font-size="10.00">owns</text>
</g>
<!-- lightning_schema::broadcast::Frame -->
<g id="node5" class="node">
<title>lightning_schema::broadcast::Frame</title>
<polygon fill="#81c169" stroke="black" points="723.35,-937.08 723.35,-975.08 836.35,-975.08 836.35,-937.08 723.35,-937.08"/>
<text text-anchor="middle" x="779.85" y="-963.08" font-family="monospace" font-size="10.00">pub enum</text>
<polyline fill="none" stroke="black" points="723.35,-956.08 836.35,-956.08 "/>
<text text-anchor="middle" x="779.85" y="-944.08" font-family="monospace" font-size="10.00">broadcast::Frame</text>
</g>
<!-- lightning_schema&#45;&gt;lightning_schema::broadcast::Frame -->
<g id="edge6" class="edge">
<title>lightning_schema&#45;&gt;lightning_schema::broadcast::Frame</title>
<path fill="none" stroke="#000000" d="M824.98,-720.24C816.5,-764.57 795.49,-874.36 785.41,-927.01"/>
<polygon fill="#000000" stroke="#000000" points="781.94,-926.56 783.5,-937.04 788.81,-927.88 781.94,-926.56"/>
<text text-anchor="middle" x="792.7" y="-826.63" font-family="monospace" font-size="10.00">owns</text>
</g>
<!-- lightning_schema::broadcast::Message -->
<g id="node6" class="node">
<title>lightning_schema::broadcast::Message</title>
<polygon fill="#81c169" stroke="black" points="827.32,-1086.12 827.32,-1124.12 952.32,-1124.12 952.32,-1086.12 827.32,-1086.12"/>
<text text-anchor="middle" x="889.82" y="-1112.12" font-family="monospace" font-size="10.00">pub struct</text>
<polyline fill="none" stroke="black" points="827.32,-1105.12 952.32,-1105.12 "/>
<text text-anchor="middle" x="889.82" y="-1093.12" font-family="monospace" font-size="10.00">broadcast::Message</text>
</g>
<!-- lightning_schema&#45;&gt;lightning_schema::broadcast::Message -->
<g id="edge7" class="edge">
<title>lightning_schema&#45;&gt;lightning_schema::broadcast::Message</title>
<path fill="none" stroke="#000000" d="M831.55,-720.29C841.39,-785.3 873.49,-997.27 885.36,-1075.64"/>
<polygon fill="#000000" stroke="#000000" points="881.93,-1076.42 886.89,-1085.79 888.85,-1075.38 881.93,-1076.42"/>
<text text-anchor="middle" x="845.95" y="-900.97" font-family="monospace" font-size="10.00">owns</text>
</g>
<!-- lightning_schema::broadcast::MessageInternedId -->
<g id="node8" class="node">
<title>lightning_schema::broadcast::MessageInternedId</title>
<polygon fill="#81c169" stroke="black" points="976.26,-770.3 976.26,-808.3 1161.26,-808.3 1161.26,-770.3 976.26,-770.3"/>
<text text-anchor="middle" x="1068.76" y="-796.3" font-family="monospace" font-size="10.00">pub type</text>
<polyline fill="none" stroke="black" points="976.26,-789.3 1161.26,-789.3 "/>
<text text-anchor="middle" x="1068.76" y="-777.3" font-family="monospace" font-size="10.00">broadcast::MessageInternedId</text>
</g>
<!-- lightning_schema&#45;&gt;lightning_schema::broadcast::MessageInternedId -->
<g id="edge8" class="edge">
<title>lightning_schema&#45;&gt;lightning_schema::broadcast::MessageInternedId</title>
<path fill="none" stroke="#000000" d="M880.45,-720.11C917.56,-733.75 967.7,-752.17 1006.91,-766.58"/>
<polygon fill="#000000" stroke="#000000" points="1006.04,-769.98 1016.63,-770.15 1008.45,-763.41 1006.04,-769.98"/>
<text text-anchor="middle" x="931.18" y="-746.34" font-family="monospace" font-size="10.00">owns</text>
</g>
<!-- lightning_schema::broadcast::ResolvedImmutablePointerRecord -->
<g id="node9" class="node">
<title>lightning_schema::broadcast::ResolvedImmutablePointerRecord</title>
<polygon fill="#81c169" stroke="black" points="734.73,-290.7 734.73,-328.7 997.73,-328.7 997.73,-290.7 734.73,-290.7"/>
<text text-anchor="middle" x="866.23" y="-316.7" font-family="monospace" font-size="10.00">pub struct</text>
<polyline fill="none" stroke="black" points="734.73,-309.7 997.73,-309.7 "/>
<text text-anchor="middle" x="866.23" y="-297.7" font-family="monospace" font-size="10.00">broadcast::ResolvedImmutablePointerRecord</text>
</g>
<!-- lightning_schema&#45;&gt;lightning_schema::broadcast::ResolvedImmutablePointerRecord -->
<g id="edge9" class="edge">
<title>lightning_schema&#45;&gt;lightning_schema::broadcast::ResolvedImmutablePointerRecord</title>
<path fill="none" stroke="#000000" d="M830.48,-681.94C836.56,-618.6 856.07,-415.51 863.4,-339.12"/>
<polygon fill="#000000" stroke="#000000" points="866.92,-339.09 864.39,-328.8 859.95,-338.42 866.92,-339.09"/>
<text text-anchor="middle" x="834.44" y="-513.53" font-family="monospace" font-size="10.00">owns</text>
</g>
<!-- lightning_schema::broadcast::Want -->
<g id="node11" class="node">
<title>lightning_schema::broadcast::Want</title>
<polygon fill="#81c169" stroke="black" points="876.69,-885.56 876.69,-923.56 983.69,-923.56 983.69,-885.56 876.69,-885.56"/>
<text text-anchor="middle" x="930.19" y="-911.56" font-family="monospace" font-size="10.00">pub struct</text>
<polyline fill="none" stroke="black" points="876.69,-904.56 983.69,-904.56 "/>
<text text-anchor="middle" x="930.19" y="-892.56" font-family="monospace" font-size="10.00">broadcast::Want</text>
</g>
<!-- lightning_schema&#45;&gt;lightning_schema::broadcast::Want -->
<g id="edge10" class="edge">
<title>lightning_schema&#45;&gt;lightning_schema::broadcast::Want</title>
<path fill="none" stroke="#000000" d="M838.2,-720.22C856.15,-756.2 895.02,-834.07 916.03,-876.17"/>
<polygon fill="#000000" stroke="#000000" points="913,-877.93 920.59,-885.32 919.26,-874.81 913,-877.93"/>
<text text-anchor="middle" x="864.61" y="-801.19" font-family="monospace" font-size="10.00">owns</text>
</g>
<!-- lightning_schema::envelope::Envelope -->
<g id="node12" class="node">
<title>lightning_schema::envelope::Envelope</title>
<polygon fill="#81c169" stroke="black" points="1167.82,-613.45 1167.82,-651.45 1292.82,-651.45 1292.82,-613.45 1167.82,-613.45"/>
<text text-anchor="middle" x="1230.32" y="-639.45" font-family="monospace" font-size="10.00">pub struct</text>
<polyline fill="none" stroke="black" points="1167.82,-632.45 1292.82,-632.45 "/>
<text text-anchor="middle" x="1230.32" y="-620.45" font-family="monospace" font-size="10.00">envelope::Envelope</text>
</g>
<!-- lightning_schema&#45;&gt;lightning_schema::envelope::Envelope -->
<g id="edge11" class="edge">
<title>lightning_schema&#45;&gt;lightning_schema::envelope::Envelope</title>
<path fill="none" stroke="#000000" d="M885.34,-691.39C956.64,-679.21 1079.17,-658.27 1157.38,-644.91"/>
<polygon fill="#000000" stroke="#000000" points="1158.37,-648.29 1167.64,-643.16 1157.19,-641.39 1158.37,-648.29"/>
<text text-anchor="middle" x="1008.86" y="-671.15" font-family="monospace" font-size="10.00">owns</text>
</g>
<!-- lightning_schema::handshake::ChallengeFrame -->
<g id="node14" class="node">
<title>lightning_schema::handshake::ChallengeFrame</title>
<polygon fill="#81c169" stroke="black" points="1061.33,-329.62 1061.33,-367.62 1228.33,-367.62 1228.33,-329.62 1061.33,-329.62"/>
<text text-anchor="middle" x="1144.83" y="-355.62" font-family="monospace" font-size="10.00">pub struct</text>
<polyline fill="none" stroke="black" points="1061.33,-348.62 1228.33,-348.62 "/>
<text text-anchor="middle" x="1144.83" y="-336.62" font-family="monospace" font-size="10.00">handshake::ChallengeFrame</text>
</g>
<!-- lightning_schema&#45;&gt;lightning_schema::handshake::ChallengeFrame -->
<g id="edge12" class="edge">
<title>lightning_schema&#45;&gt;lightning_schema::handshake::ChallengeFrame</title>
<path fill="none" stroke="#000000" d="M845.87,-681.88C898.87,-622.8 1059.63,-443.59 1120.83,-375.37"/>
<polygon fill="#000000" stroke="#000000" points="1123.71,-377.4 1127.79,-367.62 1118.5,-372.72 1123.71,-377.4"/>
<text text-anchor="middle" x="970.85" y="-520.62" font-family="monospace" font-size="10.00">owns</text>
</g>
<!-- lightning_schema::handshake::HandshakeRequestFrame -->
<g id="node17" class="node">
<title>lightning_schema::handshake::HandshakeRequestFrame</title>
<polygon fill="#81c169" stroke="black" points="1121.71,-948.16 1121.71,-986.16 1330.71,-986.16 1330.71,-948.16 1121.71,-948.16"/>
<text text-anchor="middle" x="1226.21" y="-974.16" font-family="monospace" font-size="10.00">pub enum</text>
<polyline fill="none" stroke="black" points="1121.71,-967.16 1330.71,-967.16 "/>
<text text-anchor="middle" x="1226.21" y="-955.16" font-family="monospace" font-size="10.00">handshake::HandshakeRequestFrame</text>
</g>
<!-- lightning_schema&#45;&gt;lightning_schema::handshake::HandshakeRequestFrame -->
<g id="edge13" class="edge">
<title>lightning_schema&#45;&gt;lightning_schema::handshake::HandshakeRequestFrame</title>
<path fill="none" stroke="#000000" d="M857.24,-720.21C927.78,-767.43 1110.12,-889.46 1188.97,-942.23"/>
<polygon fill="#000000" stroke="#000000" points="1187.36,-945.37 1197.61,-948.02 1191.25,-939.55 1187.36,-945.37"/>
<text text-anchor="middle" x="1010.6" y="-834.22" font-family="monospace" font-size="10.00">owns</text>
</g>
<!-- lightning_schema::handshake::HandshakeResponse -->
<g id="node20" class="node">
<title>lightning_schema::handshake::HandshakeResponse</title>
<polygon fill="#81c169" stroke="black" points="485.69,-289.45 485.69,-327.45 670.69,-327.45 670.69,-289.45 485.69,-289.45"/>
<text text-anchor="middle" x="578.19" y="-315.45" font-family="monospace" font-size="10.00">pub struct</text>
<polyline fill="none" stroke="black" points="485.69,-308.45 670.69,-308.45 "/>
<text text-anchor="middle" x="578.19" y="-296.45" font-family="monospace" font-size="10.00">handshake::HandshakeResponse</text>
</g>
<!-- lightning_schema&#45;&gt;lightning_schema::handshake::HandshakeResponse -->
<g id="edge14" class="edge">
<title>lightning_schema&#45;&gt;lightning_schema::handshake::HandshakeResponse</title>
<path fill="none" stroke="#000000" d="M816.39,-681.87C775.53,-617.81 643.77,-411.26 595.84,-336.11"/>
<polygon fill="#000000" stroke="#000000" points="598.75,-334.17 590.42,-327.62 592.85,-337.93 598.75,-334.17"/>
<text text-anchor="middle" x="693.61" y="-511.99" font-family="monospace" font-size="10.00">owns</text>
</g>
<!-- lightning_schema::handshake::RequestFrame -->
<g id="node23" class="node">
<title>lightning_schema::handshake::RequestFrame</title>
<polygon fill="#81c169" stroke="black" points="484.75,-1082.23 484.75,-1120.23 639.75,-1120.23 639.75,-1082.23 484.75,-1082.23"/>
<text text-anchor="middle" x="562.25" y="-1108.23" font-family="monospace" font-size="10.00">pub enum</text>
<polyline fill="none" stroke="black" points="484.75,-1101.23 639.75,-1101.23 "/>
<text text-anchor="middle" x="562.25" y="-1089.23" font-family="monospace" font-size="10.00">handshake::RequestFrame</text>
</g>
<!-- lightning_schema&#45;&gt;lightning_schema::handshake::RequestFrame -->
<g id="edge15" class="edge">
<title>lightning_schema&#45;&gt;lightning_schema::handshake::RequestFrame</title>
<path fill="none" stroke="#000000" d="M815.97,-720.11C772.85,-784.88 631.64,-997.01 580.74,-1073.46"/>
<polygon fill="#000000" stroke="#000000" points="577.63,-1071.82 575,-1082.09 583.45,-1075.7 577.63,-1071.82"/>
<text text-anchor="middle" x="685.86" y="-899.78" font-family="monospace" font-size="10.00">owns</text>
</g>
<!-- lightning_schema::handshake::ResponseFrame -->
<g id="node26" class="node">
<title>lightning_schema::handshake::ResponseFrame</title>
<polygon fill="#81c169" stroke="black" points="366.8,-731.14 366.8,-769.14 527.8,-769.14 527.8,-731.14 366.8,-731.14"/>
<text text-anchor="middle" x="447.3" y="-757.14" font-family="monospace" font-size="10.00">pub enum</text>
<polyline fill="none" stroke="black" points="366.8,-750.14 527.8,-750.14 "/>
<text text-anchor="middle" x="447.3" y="-738.14" font-family="monospace" font-size="10.00">handshake::ResponseFrame</text>
</g>
<!-- lightning_schema&#45;&gt;lightning_schema::handshake::ResponseFrame -->
<g id="edge16" class="edge">
<title>lightning_schema&#45;&gt;lightning_schema::handshake::ResponseFrame</title>
<path fill="none" stroke="#000000" d="M771.96,-708.37C710.24,-716.31 610.62,-729.13 538,-738.47"/>
<polygon fill="#000000" stroke="#000000" points="537.41,-735.02 527.93,-739.76 538.3,-741.96 537.41,-735.02"/>
<text text-anchor="middle" x="642.48" y="-726.42" font-family="monospace" font-size="10.00">owns</text>
</g>
<!-- lightning_schema::handshake::TerminationReason -->
<g id="node29" class="node">
<title>lightning_schema::handshake::TerminationReason</title>
<polygon fill="#81c169" stroke="black" points="295.63,-596.04 295.63,-634.04 480.63,-634.04 480.63,-596.04 295.63,-596.04"/>
<text text-anchor="middle" x="388.13" y="-622.04" font-family="monospace" font-size="10.00">pub enum</text>
<polyline fill="none" stroke="black" points="295.63,-615.04 480.63,-615.04 "/>
<text text-anchor="middle" x="388.13" y="-603.04" font-family="monospace" font-size="10.00">handshake::TerminationReason</text>
</g>
<!-- lightning_schema&#45;&gt;lightning_schema::handshake::TerminationReason -->
<g id="edge17" class="edge">
<title>lightning_schema&#45;&gt;lightning_schema::handshake::TerminationReason</title>
<path fill="none" stroke="#000000" d="M771.96,-690.01C701.03,-676.15 578.25,-652.17 490.66,-635.07"/>
<polygon fill="#000000" stroke="#000000" points="491.18,-631.6 480.69,-633.12 489.84,-638.47 491.18,-631.6"/>
<text text-anchor="middle" x="618.81" y="-665.54" font-family="monospace" font-size="10.00">owns</text>
</g>
<!-- lightning_schema::broadcast::Frame&#45;&gt;lightning_schema::broadcast::Advr -->
<g id="edge18" class="edge">
<title>lightning_schema::broadcast::Frame&#45;&gt;lightning_schema::broadcast::Advr</title>
<path fill="none" stroke="#7f7f7f" stroke-dasharray="5,2" d="M760.96,-936.85C740.46,-915.97 707.61,-882.52 684.74,-859.24"/>
<polygon fill="#7f7f7f" stroke="#7f7f7f" points="687.2,-856.75 677.7,-852.06 682.21,-861.65 687.2,-856.75"/>
<text text-anchor="middle" x="735.35" y="-901.04" font-family="monospace" font-size="10.00">uses</text>
</g>
<!-- lightning_schema::broadcast::Frame&#45;&gt;lightning_schema::broadcast::Message -->
<g id="edge19" class="edge">
<title>lightning_schema::broadcast::Frame&#45;&gt;lightning_schema::broadcast::Message</title>
<path fill="none" stroke="#7f7f7f" stroke-dasharray="5,2" d="M794,-975.26C813.22,-1001.31 847.69,-1048.02 869.62,-1077.75"/>
<polygon fill="#7f7f7f" stroke="#7f7f7f" points="866.97,-1080.05 875.72,-1086.02 872.6,-1075.89 866.97,-1080.05"/>
<text text-anchor="middle" x="819.31" y="-1029.5" font-family="monospace" font-size="10.00">uses</text>
</g>
<!-- lightning_schema::broadcast::Frame&#45;&gt;lightning_schema::broadcast::Want -->
<g id="edge20" class="edge">
<title>lightning_schema::broadcast::Frame&#45;&gt;lightning_schema::broadcast::Want</title>
<path fill="none" stroke="#7f7f7f" stroke-dasharray="5,2" d="M835.41,-937.04C845.65,-933.53 856.42,-929.84 866.88,-926.26"/>
<polygon fill="#7f7f7f" stroke="#7f7f7f" points="868.04,-929.56 876.37,-923.01 865.77,-922.94 868.04,-929.56"/>
<text text-anchor="middle" x="838.64" y="-923.65" font-family="monospace" font-size="10.00">uses</text>
</g>
<!-- lightning_schema::broadcast::Message::transcript -->
<g id="node7" class="node">
<title>lightning_schema::broadcast::Message::transcript</title>
<polygon fill="#db5367" stroke="black" points="853.84,-1369.34 853.84,-1407.34 1050.84,-1407.34 1050.84,-1369.34 853.84,-1369.34"/>
<text text-anchor="middle" x="952.34" y="-1395.34" font-family="monospace" font-size="10.00">pub(self) fn</text>
<polyline fill="none" stroke="black" points="853.84,-1388.34 1050.84,-1388.34 "/>
<text text-anchor="middle" x="952.34" y="-1376.34" font-family="monospace" font-size="10.00">broadcast::Message::transcript</text>
</g>
<!-- lightning_schema::broadcast::Message&#45;&gt;lightning_schema::broadcast::Message::transcript -->
<g id="edge21" class="edge">
<title>lightning_schema::broadcast::Message&#45;&gt;lightning_schema::broadcast::Message::transcript</title>
<path fill="none" stroke="#000000" d="M880.26,-1124.48C874.34,-1173.54 901.21,-1302.17 927.66,-1359.82"/>
<polygon fill="#000000" stroke="#000000" points="924.67,-1361.67 932.24,-1369.09 930.95,-1358.57 924.67,-1361.67"/>
<text text-anchor="middle" x="891.46" y="-1245.15" font-family="monospace" font-size="10.00">owns</text>
</g>
<!-- lightning_schema::broadcast::Message::transcript&#45;&gt;lightning_schema::broadcast::Message -->
<g id="edge22" class="edge">
<title>lightning_schema::broadcast::Message::transcript&#45;&gt;lightning_schema::broadcast::Message</title>
<path fill="none" stroke="#7f7f7f" stroke-dasharray="5,2" d="M961.9,-1368.97C967.82,-1319.91 940.95,-1191.28 914.5,-1133.63"/>
<polygon fill="#7f7f7f" stroke="#7f7f7f" points="917.49,-1131.78 909.92,-1124.37 911.21,-1134.89 917.49,-1131.78"/>
<text text-anchor="middle" x="925.7" y="-1254.3" font-family="monospace" font-size="10.00">uses</text>
</g>
<!-- lightning_schema::broadcast::ResolvedImmutablePointerRecord::transcript -->
<g id="node10" class="node">
<title>lightning_schema::broadcast::ResolvedImmutablePointerRecord::transcript</title>
<polygon fill="#db5367" stroke="black" points="721.88,-4.16 721.88,-42.16 1056.88,-42.16 1056.88,-4.16 721.88,-4.16"/>
<text text-anchor="middle" x="889.38" y="-30.16" font-family="monospace" font-size="10.00">pub(self) fn</text>
<polyline fill="none" stroke="black" points="721.88,-23.16 1056.88,-23.16 "/>
<text text-anchor="middle" x="889.38" y="-11.16" font-family="monospace" font-size="10.00">broadcast::ResolvedImmutablePointerRecord::transcript</text>
</g>
<!-- lightning_schema::broadcast::ResolvedImmutablePointerRecord&#45;&gt;lightning_schema::broadcast::ResolvedImmutablePointerRecord::transcript -->
<g id="edge23" class="edge">
<title>lightning_schema::broadcast::ResolvedImmutablePointerRecord&#45;&gt;lightning_schema::broadcast::ResolvedImmutablePointerRecord::transcript</title>
<path fill="none" stroke="#000000" d="M882.66,-290.28C902.23,-241.04 913.4,-111.13 903.91,-52.54"/>
<polygon fill="#000000" stroke="#000000" points="907.29,-51.59 901.9,-42.47 900.43,-52.96 907.29,-51.59"/>
<text text-anchor="middle" x="880.79" y="-174.41" font-family="monospace" font-size="10.00">owns</text>
</g>
<!-- lightning_schema::broadcast::ResolvedImmutablePointerRecord::transcript&#45;&gt;lightning_schema::broadcast::ResolvedImmutablePointerRecord -->
<g id="edge24" class="edge">
<title>lightning_schema::broadcast::ResolvedImmutablePointerRecord::transcript&#45;&gt;lightning_schema::broadcast::ResolvedImmutablePointerRecord</title>
<path fill="none" stroke="#7f7f7f" stroke-dasharray="5,2" d="M872.95,-42.58C853.38,-91.82 842.2,-221.73 851.7,-280.32"/>
<polygon fill="#7f7f7f" stroke="#7f7f7f" points="848.32,-281.27 853.71,-290.39 855.18,-279.9 848.32,-281.27"/>
<text text-anchor="middle" x="849.82" y="-164.45" font-family="monospace" font-size="10.00">uses</text>
</g>
<!-- lightning_schema::envelope::Envelope::new -->
<g id="node13" class="node">
<title>lightning_schema::envelope::Envelope::new</title>
<polygon fill="#81c169" stroke="black" points="1435.63,-567.08 1435.63,-605.08 1590.63,-605.08 1590.63,-567.08 1435.63,-567.08"/>
<text text-anchor="middle" x="1513.13" y="-593.08" font-family="monospace" font-size="10.00">pub fn</text>
<polyline fill="none" stroke="black" points="1435.63,-586.08 1590.63,-586.08 "/>
<text text-anchor="middle" x="1513.13" y="-574.08" font-family="monospace" font-size="10.00">envelope::Envelope::new</text>
</g>
<!-- lightning_schema::envelope::Envelope&#45;&gt;lightning_schema::envelope::Envelope::new -->
<g id="edge25" class="edge">
<title>lightning_schema::envelope::Envelope&#45;&gt;lightning_schema::envelope::Envelope::new</title>
<path fill="none" stroke="#000000" d="M1292.89,-644.9C1352.17,-642.63 1438.57,-626.97 1483.53,-609.17"/>
<polygon fill="#000000" stroke="#000000" points="1485.19,-612.27 1492.99,-605.1 1482.42,-605.83 1485.19,-612.27"/>
<text text-anchor="middle" x="1375.71" y="-630.04" font-family="monospace" font-size="10.00">owns</text>
</g>
<!-- lightning_schema::envelope::Envelope::new&#45;&gt;lightning_schema::envelope::Envelope -->
<g id="edge26" class="edge">
<title>lightning_schema::envelope::Envelope::new&#45;&gt;lightning_schema::envelope::Envelope</title>
<path fill="none" stroke="#7f7f7f" stroke-dasharray="5,2" d="M1435.3,-574.46C1377.16,-578.52 1300.93,-593.08 1259.74,-609.44"/>
<polygon fill="#7f7f7f" stroke="#7f7f7f" points="1258.33,-606.23 1250.53,-613.4 1261.1,-612.66 1258.33,-606.23"/>
<text text-anchor="middle" x="1335.02" y="-594.95" font-family="monospace" font-size="10.00">uses</text>
</g>
<!-- lightning_schema::handshake::ChallengeFrame::decode -->
<g id="node15" class="node">
<title>lightning_schema::handshake::ChallengeFrame::decode</title>
<polygon fill="#81c169" stroke="black" points="1299.9,-203.69 1299.9,-241.69 1514.9,-241.69 1514.9,-203.69 1299.9,-203.69"/>
<text text-anchor="middle" x="1407.4" y="-229.69" font-family="monospace" font-size="10.00">pub fn</text>
<polyline fill="none" stroke="black" points="1299.9,-222.69 1514.9,-222.69 "/>
<text text-anchor="middle" x="1407.4" y="-210.69" font-family="monospace" font-size="10.00">handshake::ChallengeFrame::decode</text>
</g>
<!-- lightning_schema::handshake::ChallengeFrame&#45;&gt;lightning_schema::handshake::ChallengeFrame::decode -->
<g id="edge27" class="edge">
<title>lightning_schema::handshake::ChallengeFrame&#45;&gt;lightning_schema::handshake::ChallengeFrame::decode</title>
<path fill="none" stroke="#000000" d="M1228.56,-335.62C1286.21,-313.64 1357.82,-276.31 1390.42,-249.03"/>
<polygon fill="#000000" stroke="#000000" points="1393.14,-251.29 1398.19,-241.98 1388.43,-246.11 1393.14,-251.29"/>
<text text-anchor="middle" x="1296.99" y="-295.33" font-family="monospace" font-size="10.00">owns</text>
</g>
<!-- lightning_schema::handshake::ChallengeFrame::encode -->
<g id="node16" class="node">
<title>lightning_schema::handshake::ChallengeFrame::encode</title>
<polygon fill="#81c169" stroke="black" points="1133.47,-53.69 1133.47,-91.69 1348.47,-91.69 1348.47,-53.69 1133.47,-53.69"/>
<text text-anchor="middle" x="1240.97" y="-79.69" font-family="monospace" font-size="10.00">pub fn</text>
<polyline fill="none" stroke="black" points="1133.47,-72.69 1348.47,-72.69 "/>
<text text-anchor="middle" x="1240.97" y="-60.69" font-family="monospace" font-size="10.00">handshake::ChallengeFrame::encode</text>
</g>
<!-- lightning_schema::handshake::ChallengeFrame&#45;&gt;lightning_schema::handshake::ChallengeFrame::encode -->
<g id="edge28" class="edge">
<title>lightning_schema::handshake::ChallengeFrame&#45;&gt;lightning_schema::handshake::ChallengeFrame::encode</title>
<path fill="none" stroke="#000000" d="M1168.65,-329.45C1200.62,-281.68 1243.41,-158.69 1247.77,-101.88"/>
<polygon fill="#000000" stroke="#000000" points="1251.27,-101.87 1248.12,-91.75 1244.28,-101.63 1251.27,-101.87"/>
<text text-anchor="middle" x="1195.71" y="-218.66" font-family="monospace" font-size="10.00">owns</text>
</g>
<!-- lightning_schema::handshake::ChallengeFrame::decode&#45;&gt;lightning_schema::handshake::ChallengeFrame -->
<g id="edge29" class="edge">
<title>lightning_schema::handshake::ChallengeFrame::decode&#45;&gt;lightning_schema::handshake::ChallengeFrame</title>
<path fill="none" stroke="#7f7f7f" stroke-dasharray="5,2" d="M1308.14,-241.84C1253.56,-264.23 1191.2,-297.58 1161.57,-322.48"/>
<polygon fill="#7f7f7f" stroke="#7f7f7f" points="1159.16,-319.94 1154.11,-329.26 1163.87,-325.12 1159.16,-319.94"/>
<text text-anchor="middle" x="1222.36" y="-285.16" font-family="monospace" font-size="10.00">uses</text>
</g>
<!-- lightning_schema::handshake::ChallengeFrame::encode&#45;&gt;lightning_schema::handshake::ChallengeFrame -->
<g id="edge30" class="edge">
<title>lightning_schema::handshake::ChallengeFrame::encode&#45;&gt;lightning_schema::handshake::ChallengeFrame</title>
<path fill="none" stroke="#7f7f7f" stroke-dasharray="5,2" d="M1217.15,-91.85C1185.18,-139.63 1142.39,-262.62 1138.03,-319.43"/>
<polygon fill="#7f7f7f" stroke="#7f7f7f" points="1134.53,-319.44 1137.68,-329.55 1141.52,-319.68 1134.53,-319.44"/>
<text text-anchor="middle" x="1165.09" y="-208.64" font-family="monospace" font-size="10.00">uses</text>
</g>
<!-- lightning_schema::handshake::HandshakeRequestFrame::decode -->
<g id="node18" class="node">
<title>lightning_schema::handshake::HandshakeRequestFrame::decode</title>
<polygon fill="#81c169" stroke="black" points="1255.61,-1191.29 1255.61,-1229.29 1512.61,-1229.29 1512.61,-1191.29 1255.61,-1191.29"/>
<text text-anchor="middle" x="1384.11" y="-1217.29" font-family="monospace" font-size="10.00">pub fn</text>
<polyline fill="none" stroke="black" points="1255.61,-1210.29 1512.61,-1210.29 "/>
<text text-anchor="middle" x="1384.11" y="-1198.29" font-family="monospace" font-size="10.00">handshake::HandshakeRequestFrame::decode</text>
</g>
<!-- lightning_schema::handshake::HandshakeRequestFrame&#45;&gt;lightning_schema::handshake::HandshakeRequestFrame::decode -->
<g id="edge31" class="edge">
<title>lightning_schema::handshake::HandshakeRequestFrame&#45;&gt;lightning_schema::handshake::HandshakeRequestFrame::decode</title>
<path fill="none" stroke="#000000" d="M1223.57,-986.49C1232.99,-1030.52 1297.16,-1133.87 1342.74,-1183.65"/>
<polygon fill="#000000" stroke="#000000" points="1340.46,-1186.33 1349.89,-1191.16 1345.53,-1181.5 1340.46,-1186.33"/>
<text text-anchor="middle" x="1270.66" y="-1088.07" font-family="monospace" font-size="10.00">owns</text>
</g>
<!-- lightning_schema::handshake::HandshakeRequestFrame::encode -->
<g id="node19" class="node">
<title>lightning_schema::handshake::HandshakeRequestFrame::encode</title>
<polygon fill="#81c169" stroke="black" points="1384.19,-989.79 1384.19,-1027.79 1641.19,-1027.79 1641.19,-989.79 1384.19,-989.79"/>
<text text-anchor="middle" x="1512.69" y="-1015.79" font-family="monospace" font-size="10.00">pub fn</text>
<polyline fill="none" stroke="black" points="1384.19,-1008.79 1641.19,-1008.79 "/>
<text text-anchor="middle" x="1512.69" y="-996.79" font-family="monospace" font-size="10.00">handshake::HandshakeRequestFrame::encode</text>
</g>
<!-- lightning_schema::handshake::HandshakeRequestFrame&#45;&gt;lightning_schema::handshake::HandshakeRequestFrame::encode -->
<g id="edge32" class="edge">
<title>lightning_schema::handshake::HandshakeRequestFrame&#45;&gt;lightning_schema::handshake::HandshakeRequestFrame::encode</title>
<path fill="none" stroke="#000000" d="M1247.87,-986.26C1275.36,-998.27 1325.01,-1009.25 1373.97,-1015.87"/>
<polygon fill="#000000" stroke="#000000" points="1373.7,-1019.37 1384.07,-1017.18 1374.6,-1012.43 1373.7,-1019.37"/>
<text text-anchor="middle" x="1298.42" y="-1004.07" font-family="monospace" font-size="10.00">owns</text>
</g>
<!-- lightning_schema::handshake::HandshakeRequestFrame::decode&#45;&gt;lightning_schema::handshake::HandshakeRequestFrame -->
<g id="edge33" class="edge">
<title>lightning_schema::handshake::HandshakeRequestFrame::decode&#45;&gt;lightning_schema::handshake::HandshakeRequestFrame</title>
<path fill="none" stroke="#7f7f7f" stroke-dasharray="5,2" d="M1386.75,-1190.96C1377.33,-1146.93 1313.17,-1043.59 1267.58,-993.8"/>
<polygon fill="#7f7f7f" stroke="#7f7f7f" points="1269.86,-991.12 1260.43,-986.29 1264.79,-995.95 1269.86,-991.12"/>
<text text-anchor="middle" x="1314.66" y="-1095.38" font-family="monospace" font-size="10.00">uses</text>
</g>
<!-- lightning_schema::handshake::HandshakeRequestFrame::encode&#45;&gt;lightning_schema::handshake::HandshakeRequestFrame -->
<g id="edge34" class="edge">
<title>lightning_schema::handshake::HandshakeRequestFrame::encode&#45;&gt;lightning_schema::handshake::HandshakeRequestFrame</title>
<path fill="none" stroke="#7f7f7f" stroke-dasharray="5,2" d="M1491.03,-989.69C1458.99,-975.7 1396.82,-963.09 1340.76,-957.16"/>
<polygon fill="#7f7f7f" stroke="#7f7f7f" points="1341.03,-953.67 1330.73,-956.16 1340.34,-960.63 1341.03,-953.67"/>
<text text-anchor="middle" x="1403.39" y="-976.43" font-family="monospace" font-size="10.00">uses</text>
</g>
<!-- lightning_schema::handshake::HandshakeResponse::decode -->
<g id="node21" class="node">
<title>lightning_schema::handshake::HandshakeResponse::decode</title>
<polygon fill="#81c169" stroke="black" points="417.63,-0.5 417.63,-38.5 650.63,-38.5 650.63,-0.5 417.63,-0.5"/>
<text text-anchor="middle" x="534.13" y="-26.5" font-family="monospace" font-size="10.00">pub fn</text>
<polyline fill="none" stroke="black" points="417.63,-19.5 650.63,-19.5 "/>
<text text-anchor="middle" x="534.13" y="-7.5" font-family="monospace" font-size="10.00">handshake::HandshakeResponse::decode</text>
</g>
<!-- lightning_schema::handshake::HandshakeResponse&#45;&gt;lightning_schema::handshake::HandshakeResponse::decode -->
<g id="edge35" class="edge">
<title>lightning_schema::handshake::HandshakeResponse&#45;&gt;lightning_schema::handshake::HandshakeResponse::decode</title>
<path fill="none" stroke="#000000" d="M589.06,-289.19C598.06,-239.4 579.12,-106.63 556.2,-47.97"/>
<polygon fill="#000000" stroke="#000000" points="559.33,-46.39 552.19,-38.56 552.89,-49.13 559.33,-46.39"/>
<text text-anchor="middle" x="560.13" y="-171.58" font-family="monospace" font-size="10.00">owns</text>
</g>
<!-- lightning_schema::handshake::HandshakeResponse::encode -->
<g id="node22" class="node">
<title>lightning_schema::handshake::HandshakeResponse::encode</title>
<polygon fill="#81c169" stroke="black" points="228.5,-116.9 228.5,-154.9 461.5,-154.9 461.5,-116.9 228.5,-116.9"/>
<text text-anchor="middle" x="345" y="-142.9" font-family="monospace" font-size="10.00">pub fn</text>
<polyline fill="none" stroke="black" points="228.5,-135.9 461.5,-135.9 "/>
<text text-anchor="middle" x="345" y="-123.9" font-family="monospace" font-size="10.00">handshake::HandshakeResponse::encode</text>
</g>
<!-- lightning_schema::handshake::HandshakeResponse&#45;&gt;lightning_schema::handshake::HandshakeResponse::encode -->
<g id="edge36" class="edge">
<title>lightning_schema::handshake::HandshakeResponse&#45;&gt;lightning_schema::handshake::HandshakeResponse::encode</title>
<path fill="none" stroke="#000000" d="M573.89,-289.41C552.74,-256.33 476.83,-195.58 417.84,-160.21"/>
<polygon fill="#000000" stroke="#000000" points="419.29,-157 408.9,-154.96 415.76,-163.04 419.29,-157"/>
<text text-anchor="middle" x="483.36" y="-227.81" font-family="monospace" font-size="10.00">owns</text>
</g>
<!-- lightning_schema::handshake::HandshakeResponse::decode&#45;&gt;lightning_schema::handshake::HandshakeResponse -->
<g id="edge37" class="edge">
<title>lightning_schema::handshake::HandshakeResponse::decode&#45;&gt;lightning_schema::handshake::HandshakeResponse</title>
<path fill="none" stroke="#7f7f7f" stroke-dasharray="5,2" d="M523.26,-38.77C514.27,-88.56 533.21,-221.32 556.12,-279.98"/>
<polygon fill="#7f7f7f" stroke="#7f7f7f" points="552.99,-281.57 560.14,-289.39 559.43,-278.82 552.99,-281.57"/>
<text text-anchor="middle" x="527.19" y="-162.38" font-family="monospace" font-size="10.00">uses</text>
</g>
<!-- lightning_schema::handshake::HandshakeResponse::encode&#45;&gt;lightning_schema::handshake::HandshakeResponse -->
<g id="edge38" class="edge">
<title>lightning_schema::handshake::HandshakeResponse::encode&#45;&gt;lightning_schema::handshake::HandshakeResponse</title>
<path fill="none" stroke="#7f7f7f" stroke-dasharray="5,2" d="M349.3,-154.94C370.45,-188.02 446.36,-248.77 505.35,-284.15"/>
<polygon fill="#7f7f7f" stroke="#7f7f7f" points="503.89,-287.35 514.29,-289.39 507.43,-281.32 503.89,-287.35"/>
<text text-anchor="middle" x="414.83" y="-222.55" font-family="monospace" font-size="10.00">uses</text>
</g>
<!-- lightning_schema::handshake::RequestFrame::decode -->
<g id="node24" class="node">
<title>lightning_schema::handshake::RequestFrame::decode</title>
<polygon fill="#81c169" stroke="black" points="217.35,-1244.07 217.35,-1282.07 420.35,-1282.07 420.35,-1244.07 217.35,-1244.07"/>
<text text-anchor="middle" x="318.85" y="-1270.07" font-family="monospace" font-size="10.00">pub fn</text>
<polyline fill="none" stroke="black" points="217.35,-1263.07 420.35,-1263.07 "/>
<text text-anchor="middle" x="318.85" y="-1251.07" font-family="monospace" font-size="10.00">handshake::RequestFrame::decode</text>
</g>
<!-- lightning_schema::handshake::RequestFrame&#45;&gt;lightning_schema::handshake::RequestFrame::decode -->
<g id="edge39" class="edge">
<title>lightning_schema::handshake::RequestFrame&#45;&gt;lightning_schema::handshake::RequestFrame::decode</title>
<path fill="none" stroke="#000000" d="M491.3,-1120.31C434.76,-1149.98 360.88,-1202.06 331.04,-1235.72"/>
<polygon fill="#000000" stroke="#000000" points="328.03,-1233.89 324.44,-1243.86 333.46,-1238.3 328.03,-1233.89"/>
<text text-anchor="middle" x="398.67" y="-1181.01" font-family="monospace" font-size="10.00">owns</text>
</g>
<!-- lightning_schema::handshake::RequestFrame::encode -->
<g id="node25" class="node">
<title>lightning_schema::handshake::RequestFrame::encode</title>
<polygon fill="#81c169" stroke="black" points="415.05,-1370.81 415.05,-1408.81 618.05,-1408.81 618.05,-1370.81 415.05,-1370.81"/>
<text text-anchor="middle" x="516.55" y="-1396.81" font-family="monospace" font-size="10.00">pub fn</text>
<polyline fill="none" stroke="black" points="415.05,-1389.81 618.05,-1389.81 "/>
<text text-anchor="middle" x="516.55" y="-1377.81" font-family="monospace" font-size="10.00">handshake::RequestFrame::encode</text>
</g>
<!-- lightning_schema::handshake::RequestFrame&#45;&gt;lightning_schema::handshake::RequestFrame::encode -->
<g id="edge40" class="edge">
<title>lightning_schema::handshake::RequestFrame&#45;&gt;lightning_schema::handshake::RequestFrame::encode</title>
<path fill="none" stroke="#000000" d="M543.91,-1120.56C520.47,-1170.11 499.2,-1301.48 504.51,-1360.48"/>
<polygon fill="#000000" stroke="#000000" points="501.07,-1361.15 505.81,-1370.62 508.01,-1360.25 501.07,-1361.15"/>
<text text-anchor="middle" x="511.71" y="-1243.52" font-family="monospace" font-size="10.00">owns</text>
</g>
<!-- lightning_schema::handshake::RequestFrame::decode&#45;&gt;lightning_schema::handshake::RequestFrame -->
<g id="edge41" class="edge">
<title>lightning_schema::handshake::RequestFrame::decode&#45;&gt;lightning_schema::handshake::RequestFrame</title>
<path fill="none" stroke="#7f7f7f" stroke-dasharray="5,2" d="M389.79,-1244C446.33,-1214.32 520.21,-1162.25 550.05,-1128.58"/>
<polygon fill="#7f7f7f" stroke="#7f7f7f" points="553.07,-1130.42 556.65,-1120.45 547.63,-1126.01 553.07,-1130.42"/>
<text text-anchor="middle" x="457.42" y="-1189.29" font-family="monospace" font-size="10.00">uses</text>
</g>
<!-- lightning_schema::handshake::RequestFrame::encode&#45;&gt;lightning_schema::handshake::RequestFrame -->
<g id="edge42" class="edge">
<title>lightning_schema::handshake::RequestFrame::encode&#45;&gt;lightning_schema::handshake::RequestFrame</title>
<path fill="none" stroke="#7f7f7f" stroke-dasharray="5,2" d="M534.9,-1370.48C558.33,-1320.94 579.6,-1189.57 574.3,-1130.57"/>
<polygon fill="#7f7f7f" stroke="#7f7f7f" points="577.74,-1129.9 572.99,-1120.43 570.8,-1130.79 577.74,-1129.9"/>
<text text-anchor="middle" x="542.1" y="-1253.53" font-family="monospace" font-size="10.00">uses</text>
</g>
<!-- lightning_schema::handshake::ResponseFrame::decode -->
<g id="node27" class="node">
<title>lightning_schema::handshake::ResponseFrame::decode</title>
<polygon fill="#81c169" stroke="black" points="87.48,-643.05 87.48,-681.05 296.48,-681.05 296.48,-643.05 87.48,-643.05"/>
<text text-anchor="middle" x="191.98" y="-669.05" font-family="monospace" font-size="10.00">pub fn</text>
<polyline fill="none" stroke="black" points="87.48,-662.05 296.48,-662.05 "/>
<text text-anchor="middle" x="191.98" y="-650.05" font-family="monospace" font-size="10.00">handshake::ResponseFrame::decode</text>
</g>
<!-- lightning_schema::handshake::ResponseFrame&#45;&gt;lightning_schema::handshake::ResponseFrame::decode -->
<g id="edge43" class="edge">
<title>lightning_schema::handshake::ResponseFrame&#45;&gt;lightning_schema::handshake::ResponseFrame::decode</title>
<path fill="none" stroke="#000000" d="M435.19,-730.9C411.43,-712.2 357.57,-689.24 306.51,-673.38"/>
<polygon fill="#000000" stroke="#000000" points="307.27,-669.95 296.68,-670.4 305.24,-676.65 307.27,-669.95"/>
<text text-anchor="middle" x="358.35" y="-705.14" font-family="monospace" font-size="10.00">owns</text>
</g>
<!-- lightning_schema::handshake::ResponseFrame::encode -->
<g id="node28" class="node">
<title>lightning_schema::handshake::ResponseFrame::encode</title>
<polygon fill="#81c169" stroke="black" points="133.46,-811.6 133.46,-849.6 342.46,-849.6 342.46,-811.6 133.46,-811.6"/>
<text text-anchor="middle" x="237.96" y="-837.6" font-family="monospace" font-size="10.00">pub fn</text>
<polyline fill="none" stroke="black" points="133.46,-830.6 342.46,-830.6 "/>
<text text-anchor="middle" x="237.96" y="-818.6" font-family="monospace" font-size="10.00">handshake::ResponseFrame::encode</text>
</g>
<!-- lightning_schema::handshake::ResponseFrame&#45;&gt;lightning_schema::handshake::ResponseFrame::encode -->
<g id="edge44" class="edge">
<title>lightning_schema::handshake::ResponseFrame&#45;&gt;lightning_schema::handshake::ResponseFrame::encode</title>
<path fill="none" stroke="#000000" d="M366.6,-753.57C325.65,-766 279.6,-786.53 255.05,-804.95"/>
<polygon fill="#000000" stroke="#000000" points="252.78,-802.28 247.3,-811.36 257.24,-807.68 252.78,-802.28"/>
<text text-anchor="middle" x="298.32" y="-782.26" font-family="monospace" font-size="10.00">owns</text>
</g>
<!-- lightning_schema::handshake::ResponseFrame&#45;&gt;lightning_schema::handshake::TerminationReason -->
<g id="edge45" class="edge">
<title>lightning_schema::handshake::ResponseFrame&#45;&gt;lightning_schema::handshake::TerminationReason</title>
<path fill="none" stroke="#7f7f7f" stroke-dasharray="5,2" d="M438.95,-731.07C429.01,-708.37 412.3,-670.22 400.77,-643.9"/>
<polygon fill="#7f7f7f" stroke="#7f7f7f" points="403.85,-642.21 396.63,-634.45 397.44,-645.02 403.85,-642.21"/>
<text text-anchor="middle" x="407.36" y="-690.49" font-family="monospace" font-size="10.00">uses</text>
</g>
<!-- lightning_schema::handshake::ResponseFrame::decode&#45;&gt;lightning_schema::handshake::ResponseFrame -->
<g id="edge46" class="edge">
<title>lightning_schema::handshake::ResponseFrame::decode&#45;&gt;lightning_schema::handshake::ResponseFrame</title>
<path fill="none" stroke="#7f7f7f" stroke-dasharray="5,2" d="M204.09,-681.29C231.64,-702.97 299.69,-730.39 356.88,-745.82"/>
<polygon fill="#7f7f7f" stroke="#7f7f7f" points="356.13,-749.25 366.69,-748.38 357.9,-742.47 356.13,-749.25"/>
<text text-anchor="middle" x="267.99" y="-716.56" font-family="monospace" font-size="10.00">uses</text>
</g>
<!-- lightning_schema::handshake::ResponseFrame::decode&#45;&gt;lightning_schema::handshake::TerminationReason -->
<g id="edge47" class="edge">
<title>lightning_schema::handshake::ResponseFrame::decode&#45;&gt;lightning_schema::handshake::TerminationReason</title>
<path fill="none" stroke="#7f7f7f" stroke-dasharray="5,2" d="M271.48,-643C280.53,-640.83 289.79,-638.61 298.96,-636.41"/>
<polygon fill="#7f7f7f" stroke="#7f7f7f" points="299.93,-639.78 308.84,-634.04 298.3,-632.97 299.93,-639.78"/>
<text text-anchor="middle" x="272.72" y="-631.7" font-family="monospace" font-size="10.00">uses</text>
</g>
<!-- lightning_schema::handshake::ResponseFrame::encode&#45;&gt;lightning_schema::handshake::ResponseFrame -->
<g id="edge48" class="edge">
<title>lightning_schema::handshake::ResponseFrame::encode&#45;&gt;lightning_schema::handshake::ResponseFrame</title>
<path fill="none" stroke="#7f7f7f" stroke-dasharray="5,2" d="M342.48,-819.24C376.47,-806.95 410.49,-790.62 430.34,-775.7"/>
<polygon fill="#7f7f7f" stroke="#7f7f7f" points="432.72,-778.27 438.17,-769.18 428.25,-772.88 432.72,-778.27"/>
<text text-anchor="middle" x="373.91" y="-800.47" font-family="monospace" font-size="10.00">uses</text>
</g>
<!-- lightning_schema::handshake::ResponseFrame::encode&#45;&gt;lightning_schema::handshake::TerminationReason -->
<g id="edge49" class="edge">
<title>lightning_schema::handshake::ResponseFrame::encode&#45;&gt;lightning_schema::handshake::TerminationReason</title>
<path fill="none" stroke="#7f7f7f" stroke-dasharray="5,2" d="M251.28,-811.48C278,-773.13 338.19,-686.73 369.07,-642.41"/>
<polygon fill="#7f7f7f" stroke="#7f7f7f" points="371.99,-644.34 374.84,-634.13 366.25,-640.33 371.99,-644.34"/>
<text text-anchor="middle" x="297.68" y="-729.94" font-family="monospace" font-size="10.00">uses</text>
</g>
<!-- lightning_schema::handshake::TerminationReason::from_u8 -->
<g id="node30" class="node">
<title>lightning_schema::handshake::TerminationReason::from_u8</title>
<polygon fill="#81c169" stroke="black" points="0,-436.66 0,-474.66 239,-474.66 239,-436.66 0,-436.66"/>
<text text-anchor="middle" x="119.5" y="-462.66" font-family="monospace" font-size="10.00">pub fn</text>
<polyline fill="none" stroke="black" points="0,-455.66 239,-455.66 "/>
<text text-anchor="middle" x="119.5" y="-443.66" font-family="monospace" font-size="10.00">handshake::TerminationReason::from_u8</text>
</g>
<!-- lightning_schema::handshake::TerminationReason&#45;&gt;lightning_schema::handshake::TerminationReason::from_u8 -->
<g id="edge50" class="edge">
<title>lightning_schema::handshake::TerminationReason&#45;&gt;lightning_schema::handshake::TerminationReason::from_u8</title>
<path fill="none" stroke="#000000" d="M380.95,-595.96C355.19,-565.03 272.9,-511.64 207.25,-479.2"/>
<polygon fill="#000000" stroke="#000000" points="208.64,-475.98 198.11,-474.77 205.58,-482.28 208.64,-475.98"/>
<text text-anchor="middle" x="281.6" y="-540.58" font-family="monospace" font-size="10.00">owns</text>
</g>
<!-- lightning_schema::handshake::TerminationReason::from_u8&#45;&gt;lightning_schema::handshake::TerminationReason -->
<g id="edge51" class="edge">
<title>lightning_schema::handshake::TerminationReason::from_u8&#45;&gt;lightning_schema::handshake::TerminationReason</title>
<path fill="none" stroke="#7f7f7f" stroke-dasharray="5,2" d="M126.69,-474.74C152.45,-505.68 234.74,-559.07 300.38,-591.5"/>
<polygon fill="#7f7f7f" stroke="#7f7f7f" points="299,-594.72 309.52,-595.93 302.05,-588.42 299,-594.72"/>
<text text-anchor="middle" x="201.03" y="-536.12" font-family="monospace" font-size="10.00">uses</text>
</g>
</g>
</svg>
