<?xml version="1.0" encoding="UTF-8" standalone="no"?>
<!DOCTYPE svg PUBLIC "-//W3C//DTD SVG 1.1//EN"
 "http://www.w3.org/Graphics/SVG/1.1/DTD/svg11.dtd">
<!-- Generated by graphviz version 4.0.0 (0)
 -->
<!-- Pages: 1 -->
<svg width="327pt" height="239pt"
 viewBox="0.00 0.00 326.60 238.61" xmlns="http://www.w3.org/2000/svg" xmlns:xlink="http://www.w3.org/1999/xlink">
<g id="graph0" class="graph" transform="scale(1 1) rotate(0) translate(28.8 209.81)">
<polygon fill="white" stroke="transparent" points="-28.8,28.8 -28.8,-209.81 297.8,-209.81 297.8,28.8 -28.8,28.8"/>
<text text-anchor="middle" x="134.5" y="-148.21" font-family="Helvetica,sans-Serif" font-size="36.00">spawn_swarm</text>
<!-- spawn_swarm -->
<g id="node1" class="node">
<title>spawn_swarm</title>
<polygon fill="#5397c8" stroke="black" points="93,-47.5 93,-85.5 176,-85.5 176,-47.5 93,-47.5"/>
<text text-anchor="middle" x="134.5" y="-73.5" font-family="monospace" font-size="10.00">crate</text>
<polyline fill="none" stroke="black" points="93,-66.5 176,-66.5 "/>
<text text-anchor="middle" x="134.5" y="-54.5" font-family="monospace" font-size="10.00">spawn_swarm</text>
</g>
<!-- spawn_swarm::Cli -->
<g id="node2" class="node">
<title>spawn_swarm::Cli</title>
<polygon fill="#f8c04c" stroke="black" points="75,-94.51 75,-132.51 194,-132.51 194,-94.51 75,-94.51"/>
<text text-anchor="middle" x="134.5" y="-120.51" font-family="monospace" font-size="10.00">pub(crate) struct</text>
<polyline fill="none" stroke="black" points="75,-113.51 194,-113.51 "/>
<text text-anchor="middle" x="134.5" y="-101.51" font-family="monospace" font-size="10.00">Cli</text>
</g>
<!-- spawn_swarm&#45;&gt;spawn_swarm::Cli -->
<g id="edge1" class="edge">
<title>spawn_swarm&#45;&gt;spawn_swarm::Cli</title>
<path fill="none" stroke="#000000" d="M134.5,-85.62C134.5,-85.71 134.5,-85.8 134.5,-85.89"/>
<polygon fill="#000000" stroke="#000000" points="131,-84.26 134.5,-94.26 138,-84.26 131,-84.26"/>
<text text-anchor="middle" x="122" y="-88.76" font-family="monospace" font-size="10.00">owns</text>
</g>
<!-- spawn_swarm::main -->
<g id="node3" class="node">
<title>spawn_swarm::main</title>
<polygon fill="#f8c04c" stroke="black" points="69,-0.5 69,-38.5 200,-38.5 200,-0.5 69,-0.5"/>
<text text-anchor="middle" x="134.5" y="-26.5" font-family="monospace" font-size="10.00">pub(crate) async fn</text>
<polyline fill="none" stroke="black" points="69,-19.5 200,-19.5 "/>
<text text-anchor="middle" x="134.5" y="-7.5" font-family="monospace" font-size="10.00">main</text>
</g>
<!-- spawn_swarm&#45;&gt;spawn_swarm::main -->
<g id="edge2" class="edge">
<title>spawn_swarm&#45;&gt;spawn_swarm::main</title>
<path fill="none" stroke="#000000" d="M134.5,-47.39C134.5,-47.3 134.5,-47.21 134.5,-47.12"/>
<polygon fill="#000000" stroke="#000000" points="138,-48.75 134.5,-38.75 131,-48.75 138,-48.75"/>
<text text-anchor="middle" x="122" y="-39.25" font-family="monospace" font-size="10.00">owns</text>
</g>
</g>
</svg>
