<?xml version="1.0" encoding="UTF-8" standalone="no"?>
<!DOCTYPE svg PUBLIC "-//W3C//DTD SVG 1.1//EN"
 "http://www.w3.org/Graphics/SVG/1.1/DTD/svg11.dtd">
<!-- Generated by graphviz version 4.0.0 (0)
 -->
<!-- Pages: 1 -->
<svg width="1507pt" height="1225pt"
 viewBox="0.00 0.00 1506.66 1225.26" xmlns="http://www.w3.org/2000/svg" xmlns:xlink="http://www.w3.org/1999/xlink">
<g id="graph0" class="graph" transform="scale(1 1) rotate(0) translate(28.8 1196.46)">
<polygon fill="white" stroke="transparent" points="-28.8,28.8 -28.8,-1196.46 1477.86,-1196.46 1477.86,28.8 -28.8,28.8"/>
<text text-anchor="middle" x="724.53" y="-1134.86" font-family="Helvetica,sans-Serif" font-size="36.00">lightning_blockstore_server</text>
<!-- lightning_blockstore_server -->
<g id="node1" class="node">
<title>lightning_blockstore_server</title>
<polygon fill="#5397c8" stroke="black" points="1033.52,-429.03 1033.52,-467.03 1212.52,-467.03 1212.52,-429.03 1033.52,-429.03"/>
<text text-anchor="middle" x="1123.02" y="-455.03" font-family="monospace" font-size="10.00">crate</text>
<polyline fill="none" stroke="black" points="1033.52,-448.03 1212.52,-448.03 "/>
<text text-anchor="middle" x="1123.02" y="-436.03" font-family="monospace" font-size="10.00">lightning_blockstore_server</text>
</g>
<!-- lightning_blockstore_server::blockstore_server::BlockStoreServer -->
<g id="node2" class="node">
<title>lightning_blockstore_server::blockstore_server::BlockStoreServer</title>
<polygon fill="#81c169" stroke="black" points="366.72,-800.15 366.72,-838.15 593.72,-838.15 593.72,-800.15 366.72,-800.15"/>
<text text-anchor="middle" x="480.22" y="-826.15" font-family="monospace" font-size="10.00">pub struct</text>
<polyline fill="none" stroke="black" points="366.72,-819.15 593.72,-819.15 "/>
<text text-anchor="middle" x="480.22" y="-807.15" font-family="monospace" font-size="10.00">blockstore_server::BlockStoreServer</text>
</g>
<!-- lightning_blockstore_server&#45;&gt;lightning_blockstore_server::blockstore_server::BlockStoreServer -->
<g id="edge1" class="edge">
<title>lightning_blockstore_server&#45;&gt;lightning_blockstore_server::blockstore_server::BlockStoreServer</title>
<path fill="none" stroke="#000000" d="M1057.58,-467.08C916.17,-530.56 589.1,-721.11 501.67,-793.19"/>
<polygon fill="#000000" stroke="#000000" points="499.29,-790.62 493.97,-799.79 503.84,-795.94 499.29,-790.62"/>
<text text-anchor="middle" x="767.13" y="-633.13" font-family="monospace" font-size="10.00">owns</text>
</g>
<!-- lightning_blockstore_server&#45;&gt;lightning_blockstore_server::blockstore_server::BlockStoreServer -->
<g id="edge2" class="edge">
<title>lightning_blockstore_server&#45;&gt;lightning_blockstore_server::blockstore_server::BlockStoreServer</title>
<path fill="none" stroke="#7f7f7f" stroke-dasharray="5,2" d="M1109.4,-467.27C1037.37,-532.03 705.88,-726.25 555,-795.85"/>
<polygon fill="#7f7f7f" stroke="#7f7f7f" points="553.41,-792.72 545.76,-800.05 556.31,-799.09 553.41,-792.72"/>
<text text-anchor="middle" x="819.7" y="-634.56" font-family="monospace" font-size="10.00">uses</text>
</g>
<!-- lightning_blockstore_server::blockstore_server::BlockstoreServerInner -->
<g id="node9" class="node">
<title>lightning_blockstore_server::blockstore_server::BlockstoreServerInner</title>
<polygon fill="#81c169" stroke="black" points="780.25,-800.15 780.25,-838.15 1037.25,-838.15 1037.25,-800.15 780.25,-800.15"/>
<text text-anchor="middle" x="908.75" y="-826.15" font-family="monospace" font-size="10.00">pub struct</text>
<polyline fill="none" stroke="black" points="780.25,-819.15 1037.25,-819.15 "/>
<text text-anchor="middle" x="908.75" y="-807.15" font-family="monospace" font-size="10.00">blockstore_server::BlockstoreServerInner</text>
</g>
<!-- lightning_blockstore_server&#45;&gt;lightning_blockstore_server::blockstore_server::BlockstoreServerInner -->
<g id="edge3" class="edge">
<title>lightning_blockstore_server&#45;&gt;lightning_blockstore_server::blockstore_server::BlockstoreServerInner</title>
<path fill="none" stroke="#000000" d="M1111.95,-467.2C1076.68,-528.28 966.84,-718.54 925.08,-790.86"/>
<polygon fill="#000000" stroke="#000000" points="921.85,-789.46 919.88,-799.87 927.91,-792.96 921.85,-789.46"/>
<text text-anchor="middle" x="1006.02" y="-632.03" font-family="monospace" font-size="10.00">owns</text>
</g>
<!-- lightning_blockstore_server::blockstore_server::ErrorResponse -->
<g id="node12" class="node">
<title>lightning_blockstore_server::blockstore_server::ErrorResponse</title>
<polygon fill="#81c169" stroke="black" points="218.87,-214.76 218.87,-252.76 427.87,-252.76 427.87,-214.76 218.87,-214.76"/>
<text text-anchor="middle" x="323.37" y="-240.76" font-family="monospace" font-size="10.00">pub struct</text>
<polyline fill="none" stroke="black" points="218.87,-233.76 427.87,-233.76 "/>
<text text-anchor="middle" x="323.37" y="-221.76" font-family="monospace" font-size="10.00">blockstore_server::ErrorResponse</text>
</g>
<!-- lightning_blockstore_server&#45;&gt;lightning_blockstore_server::blockstore_server::ErrorResponse -->
<g id="edge4" class="edge">
<title>lightning_blockstore_server&#45;&gt;lightning_blockstore_server::blockstore_server::ErrorResponse</title>
<path fill="none" stroke="#000000" d="M1052.05,-429.01C903.66,-389.25 561.35,-297.53 404.52,-255.51"/>
<polygon fill="#000000" stroke="#000000" points="405.03,-252.02 394.46,-252.81 403.21,-258.78 405.03,-252.02"/>
<text text-anchor="middle" x="715.79" y="-345.26" font-family="monospace" font-size="10.00">owns</text>
</g>
<!-- lightning_blockstore_server::blockstore_server::Frame -->
<g id="node13" class="node">
<title>lightning_blockstore_server::blockstore_server::Frame</title>
<polygon fill="#81c169" stroke="black" points="828.25,-57.91 828.25,-95.91 989.25,-95.91 989.25,-57.91 828.25,-57.91"/>
<text text-anchor="middle" x="908.75" y="-83.91" font-family="monospace" font-size="10.00">pub enum</text>
<polyline fill="none" stroke="black" points="828.25,-76.91 989.25,-76.91 "/>
<text text-anchor="middle" x="908.75" y="-64.91" font-family="monospace" font-size="10.00">blockstore_server::Frame</text>
</g>
<!-- lightning_blockstore_server&#45;&gt;lightning_blockstore_server::blockstore_server::Frame -->
<g id="edge5" class="edge">
<title>lightning_blockstore_server&#45;&gt;lightning_blockstore_server::blockstore_server::Frame</title>
<path fill="none" stroke="#000000" d="M1111.95,-428.86C1076.68,-367.78 966.84,-177.52 925.08,-105.2"/>
<polygon fill="#000000" stroke="#000000" points="927.91,-103.1 919.88,-96.19 921.85,-106.6 927.91,-103.1"/>
<text text-anchor="middle" x="1006.02" y="-270.03" font-family="monospace" font-size="10.00">owns</text>
</g>
<!-- lightning_blockstore_server::blockstore_server::Message -->
<g id="node14" class="node">
<title>lightning_blockstore_server::blockstore_server::Message</title>
<polygon fill="#db5367" stroke="black" points="1245.91,-318.37 1245.91,-356.37 1418.91,-356.37 1418.91,-318.37 1245.91,-318.37"/>
<text text-anchor="middle" x="1332.41" y="-344.37" font-family="monospace" font-size="10.00">pub(self) enum</text>
<polyline fill="none" stroke="black" points="1245.91,-337.37 1418.91,-337.37 "/>
<text text-anchor="middle" x="1332.41" y="-325.37" font-family="monospace" font-size="10.00">blockstore_server::Message</text>
</g>
<!-- lightning_blockstore_server&#45;&gt;lightning_blockstore_server::blockstore_server::Message -->
<g id="edge6" class="edge">
<title>lightning_blockstore_server&#45;&gt;lightning_blockstore_server::blockstore_server::Message</title>
<path fill="none" stroke="#000000" d="M1159.01,-429.01C1194.52,-410.24 1248.9,-381.51 1287.28,-361.22"/>
<polygon fill="#000000" stroke="#000000" points="1288.98,-364.29 1296.18,-356.52 1285.7,-358.1 1288.98,-364.29"/>
<text text-anchor="middle" x="1210.64" y="-398.12" font-family="monospace" font-size="10.00">owns</text>
</g>
<!-- lightning_blockstore_server::blockstore_server::PeerRequest -->
<g id="node15" class="node">
<title>lightning_blockstore_server::blockstore_server::PeerRequest</title>
<polygon fill="#81c169" stroke="black" points="595.99,-0.5 595.99,-38.5 792.99,-38.5 792.99,-0.5 595.99,-0.5"/>
<text text-anchor="middle" x="694.49" y="-26.5" font-family="monospace" font-size="10.00">pub struct</text>
<polyline fill="none" stroke="black" points="595.99,-19.5 792.99,-19.5 "/>
<text text-anchor="middle" x="694.49" y="-7.5" font-family="monospace" font-size="10.00">blockstore_server::PeerRequest</text>
</g>
<!-- lightning_blockstore_server&#45;&gt;lightning_blockstore_server::blockstore_server::PeerRequest -->
<g id="edge7" class="edge">
<title>lightning_blockstore_server&#45;&gt;lightning_blockstore_server::blockstore_server::PeerRequest</title>
<path fill="none" stroke="#000000" d="M1103.77,-428.78C1034.83,-359.84 800.08,-125.09 720.85,-45.86"/>
<polygon fill="#000000" stroke="#000000" points="723.23,-43.29 713.68,-38.69 718.28,-48.24 723.23,-43.29"/>
<text text-anchor="middle" x="899.81" y="-240.32" font-family="monospace" font-size="10.00">owns</text>
</g>
<!-- lightning_blockstore_server::blockstore_server::ServerRequestTask -->
<g id="node16" class="node">
<title>lightning_blockstore_server::blockstore_server::ServerRequestTask</title>
<polygon fill="#db5367" stroke="black" points="1216.06,-538.8 1216.06,-576.8 1449.06,-576.8 1449.06,-538.8 1216.06,-538.8"/>
<text text-anchor="middle" x="1332.56" y="-564.8" font-family="monospace" font-size="10.00">pub(self) type</text>
<polyline fill="none" stroke="black" points="1216.06,-557.8 1449.06,-557.8 "/>
<text text-anchor="middle" x="1332.56" y="-545.8" font-family="monospace" font-size="10.00">blockstore_server::ServerRequestTask</text>
</g>
<!-- lightning_blockstore_server&#45;&gt;lightning_blockstore_server::blockstore_server::ServerRequestTask -->
<g id="edge8" class="edge">
<title>lightning_blockstore_server&#45;&gt;lightning_blockstore_server::blockstore_server::ServerRequestTask</title>
<path fill="none" stroke="#000000" d="M1159.52,-467.15C1195.01,-485.75 1249.03,-514.04 1287.26,-534.07"/>
<polygon fill="#000000" stroke="#000000" points="1285.65,-537.17 1296.13,-538.72 1288.89,-530.97 1285.65,-537.17"/>
<text text-anchor="middle" x="1210.89" y="-503.61" font-family="monospace" font-size="10.00">owns</text>
</g>
<!-- lightning_blockstore_server::blockstore_server::handle_request -->
<g id="node17" class="node">
<title>lightning_blockstore_server::blockstore_server::handle_request</title>
<polygon fill="#db5367" stroke="black" points="958.1,-214.76 958.1,-252.76 1173.1,-252.76 1173.1,-214.76 958.1,-214.76"/>
<text text-anchor="middle" x="1065.6" y="-240.76" font-family="monospace" font-size="10.00">pub(self) async fn</text>
<polyline fill="none" stroke="black" points="958.1,-233.76 1173.1,-233.76 "/>
<text text-anchor="middle" x="1065.6" y="-221.76" font-family="monospace" font-size="10.00">blockstore_server::handle_request</text>
</g>
<!-- lightning_blockstore_server&#45;&gt;lightning_blockstore_server::blockstore_server::handle_request -->
<g id="edge9" class="edge">
<title>lightning_blockstore_server&#45;&gt;lightning_blockstore_server::blockstore_server::handle_request</title>
<path fill="none" stroke="#000000" d="M1117.92,-429.01C1107.86,-391.47 1085.38,-307.58 1073.43,-262.97"/>
<polygon fill="#000000" stroke="#000000" points="1076.74,-261.8 1070.77,-253.04 1069.98,-263.61 1076.74,-261.8"/>
<text text-anchor="middle" x="1083.18" y="-348.99" font-family="monospace" font-size="10.00">owns</text>
</g>
<!-- lightning_blockstore_server::blockstore_server::send_request -->
<g id="node18" class="node">
<title>lightning_blockstore_server::blockstore_server::send_request</title>
<polygon fill="#db5367" stroke="black" points="378.72,-57.91 378.72,-95.91 581.72,-95.91 581.72,-57.91 378.72,-57.91"/>
<text text-anchor="middle" x="480.22" y="-83.91" font-family="monospace" font-size="10.00">pub(self) async fn</text>
<polyline fill="none" stroke="black" points="378.72,-76.91 581.72,-76.91 "/>
<text text-anchor="middle" x="480.22" y="-64.91" font-family="monospace" font-size="10.00">blockstore_server::send_request</text>
</g>
<!-- lightning_blockstore_server&#45;&gt;lightning_blockstore_server::blockstore_server::send_request -->
<g id="edge10" class="edge">
<title>lightning_blockstore_server&#45;&gt;lightning_blockstore_server::blockstore_server::send_request</title>
<path fill="none" stroke="#000000" d="M1089.81,-428.86C981.95,-366.58 641.51,-170.03 522.1,-101.09"/>
<polygon fill="#000000" stroke="#000000" points="523.64,-97.94 513.23,-95.97 520.14,-104 523.64,-97.94"/>
<text text-anchor="middle" x="793.46" y="-267.98" font-family="monospace" font-size="10.00">owns</text>
</g>
<!-- lightning_blockstore_server::config::Config -->
<g id="node19" class="node">
<title>lightning_blockstore_server::config::Config</title>
<polygon fill="#81c169" stroke="black" points="215.46,-429.03 215.46,-467.03 316.46,-467.03 316.46,-429.03 215.46,-429.03"/>
<text text-anchor="middle" x="265.96" y="-455.03" font-family="monospace" font-size="10.00">pub struct</text>
<polyline fill="none" stroke="black" points="215.46,-448.03 316.46,-448.03 "/>
<text text-anchor="middle" x="265.96" y="-436.03" font-family="monospace" font-size="10.00">config::Config</text>
</g>
<!-- lightning_blockstore_server&#45;&gt;lightning_blockstore_server::config::Config -->
<g id="edge11" class="edge">
<title>lightning_blockstore_server&#45;&gt;lightning_blockstore_server::config::Config</title>
<path fill="none" stroke="#000000" d="M1033.32,-430.71C858.41,-417 475.88,-417.85 326.98,-433.28"/>
<polygon fill="#000000" stroke="#000000" points="326.23,-429.84 316.67,-434.42 326.99,-436.8 326.23,-429.84"/>
<text text-anchor="middle" x="667.65" y="-434.99" font-family="monospace" font-size="10.00">owns</text>
</g>
<!-- lightning_blockstore_server&#45;&gt;lightning_blockstore_server::config::Config -->
<g id="edge12" class="edge">
<title>lightning_blockstore_server&#45;&gt;lightning_blockstore_server::config::Config</title>
<path fill="none" stroke="#7f7f7f" stroke-dasharray="5,2" d="M1033.32,-465.35C858.41,-479.06 475.88,-478.2 326.98,-462.78"/>
<polygon fill="#7f7f7f" stroke="#7f7f7f" points="326.99,-459.26 316.67,-461.64 326.23,-466.22 326.99,-459.26"/>
<text text-anchor="middle" x="667.65" y="-467.07" font-family="monospace" font-size="10.00">uses</text>
</g>
<!-- lightning_blockstore_server::blockstore_server::BlockStoreServer::Config -->
<g id="node3" class="node">
<title>lightning_blockstore_server::blockstore_server::BlockStoreServer::Config</title>
<polygon fill="#db5367" stroke="black" points="185.87,-643.29 185.87,-681.29 460.87,-681.29 460.87,-643.29 185.87,-643.29"/>
<text text-anchor="middle" x="323.37" y="-669.29" font-family="monospace" font-size="10.00">pub(self) type</text>
<polyline fill="none" stroke="black" points="185.87,-662.29 460.87,-662.29 "/>
<text text-anchor="middle" x="323.37" y="-650.29" font-family="monospace" font-size="10.00">blockstore_server::BlockStoreServer::Config</text>
</g>
<!-- lightning_blockstore_server::blockstore_server::BlockStoreServer&#45;&gt;lightning_blockstore_server::blockstore_server::BlockStoreServer::Config -->
<g id="edge13" class="edge">
<title>lightning_blockstore_server::blockstore_server::BlockStoreServer&#45;&gt;lightning_blockstore_server::blockstore_server::BlockStoreServer::Config</title>
<path fill="none" stroke="#000000" d="M460.99,-799.91C433.12,-772.04 381.41,-720.33 349.92,-688.84"/>
<polygon fill="#000000" stroke="#000000" points="352.31,-686.28 342.76,-681.68 347.36,-691.23 352.31,-686.28"/>
<text text-anchor="middle" x="392.95" y="-747.38" font-family="monospace" font-size="10.00">owns</text>
</g>
<!-- lightning_blockstore_server::blockstore_server::BlockStoreServer::get_socket -->
<g id="node4" class="node">
<title>lightning_blockstore_server::blockstore_server::BlockStoreServer::get_socket</title>
<polygon fill="#db5367" stroke="black" points="561.93,-1081.16 561.93,-1119.16 860.93,-1119.16 860.93,-1081.16 561.93,-1081.16"/>
<text text-anchor="middle" x="711.43" y="-1107.16" font-family="monospace" font-size="10.00">pub(self) fn</text>
<polyline fill="none" stroke="black" points="561.93,-1100.16 860.93,-1100.16 "/>
<text text-anchor="middle" x="711.43" y="-1088.16" font-family="monospace" font-size="10.00">blockstore_server::BlockStoreServer::get_socket</text>
</g>
<!-- lightning_blockstore_server::blockstore_server::BlockStoreServer&#45;&gt;lightning_blockstore_server::blockstore_server::BlockStoreServer::get_socket -->
<g id="edge14" class="edge">
<title>lightning_blockstore_server::blockstore_server::BlockStoreServer&#45;&gt;lightning_blockstore_server::blockstore_server::BlockStoreServer::get_socket</title>
<path fill="none" stroke="#000000" d="M480.86,-838.27C499.54,-888.55 602.44,-1017.58 665.18,-1074.18"/>
<polygon fill="#000000" stroke="#000000" points="663.17,-1077.07 672.99,-1081.03 667.78,-1071.81 663.17,-1077.07"/>
<text text-anchor="middle" x="560.52" y="-959.22" font-family="monospace" font-size="10.00">owns</text>
</g>
<!-- lightning_blockstore_server::blockstore_server::BlockStoreServer::init -->
<g id="node5" class="node">
<title>lightning_blockstore_server::blockstore_server::BlockStoreServer::init</title>
<polygon fill="#db5367" stroke="black" points="562.99,-857.56 562.99,-895.56 825.99,-895.56 825.99,-857.56 562.99,-857.56"/>
<text text-anchor="middle" x="694.49" y="-883.56" font-family="monospace" font-size="10.00">pub(self) fn</text>
<polyline fill="none" stroke="black" points="562.99,-876.56 825.99,-876.56 "/>
<text text-anchor="middle" x="694.49" y="-864.56" font-family="monospace" font-size="10.00">blockstore_server::BlockStoreServer::init</text>
</g>
<!-- lightning_blockstore_server::blockstore_server::BlockStoreServer&#45;&gt;lightning_blockstore_server::blockstore_server::BlockStoreServer::init -->
<g id="edge15" class="edge">
<title>lightning_blockstore_server::blockstore_server::BlockStoreServer&#45;&gt;lightning_blockstore_server::blockstore_server::BlockStoreServer::init</title>
<path fill="none" stroke="#000000" d="M492.74,-838.27C505.97,-847.81 528.15,-857.54 553.08,-865.79"/>
<polygon fill="#000000" stroke="#000000" points="552.17,-869.17 562.76,-868.87 554.3,-862.5 552.17,-869.17"/>
<text text-anchor="middle" x="510.41" y="-855.03" font-family="monospace" font-size="10.00">owns</text>
</g>
<!-- lightning_blockstore_server::blockstore_server::BlockStoreServer::is_running -->
<g id="node6" class="node">
<title>lightning_blockstore_server::blockstore_server::BlockStoreServer::is_running</title>
<polygon fill="#db5367" stroke="black" points="301.46,-1034.15 301.46,-1072.15 600.46,-1072.15 600.46,-1034.15 301.46,-1034.15"/>
<text text-anchor="middle" x="450.96" y="-1060.15" font-family="monospace" font-size="10.00">pub(self) fn</text>
<polyline fill="none" stroke="black" points="301.46,-1053.15 600.46,-1053.15 "/>
<text text-anchor="middle" x="450.96" y="-1041.15" font-family="monospace" font-size="10.00">blockstore_server::BlockStoreServer::is_running</text>
</g>
<!-- lightning_blockstore_server::blockstore_server::BlockStoreServer&#45;&gt;lightning_blockstore_server::blockstore_server::BlockStoreServer::is_running -->
<g id="edge16" class="edge">
<title>lightning_blockstore_server::blockstore_server::BlockStoreServer&#45;&gt;lightning_blockstore_server::blockstore_server::BlockStoreServer::is_running</title>
<path fill="none" stroke="#000000" d="M461.38,-838.3C442.49,-879.27 429.91,-975.4 436.47,-1023.99"/>
<polygon fill="#000000" stroke="#000000" points="433.03,-1024.65 438.22,-1033.88 439.92,-1023.43 433.03,-1024.65"/>
<text text-anchor="middle" x="436.42" y="-934.15" font-family="monospace" font-size="10.00">owns</text>
</g>
<!-- lightning_blockstore_server::blockstore_server::BlockStoreServer::shutdown -->
<g id="node7" class="node">
<title>lightning_blockstore_server::blockstore_server::BlockStoreServer::shutdown</title>
<polygon fill="#db5367" stroke="black" points="134.59,-926.1 134.59,-964.1 421.59,-964.1 421.59,-926.1 134.59,-926.1"/>
<text text-anchor="middle" x="278.09" y="-952.1" font-family="monospace" font-size="10.00">pub(self) async fn</text>
<polyline fill="none" stroke="black" points="134.59,-945.1 421.59,-945.1 "/>
<text text-anchor="middle" x="278.09" y="-933.1" font-family="monospace" font-size="10.00">blockstore_server::BlockStoreServer::shutdown</text>
</g>
<!-- lightning_blockstore_server::blockstore_server::BlockStoreServer&#45;&gt;lightning_blockstore_server::blockstore_server::BlockStoreServer::shutdown -->
<g id="edge17" class="edge">
<title>lightning_blockstore_server::blockstore_server::BlockStoreServer&#45;&gt;lightning_blockstore_server::blockstore_server::BlockStoreServer::shutdown</title>
<path fill="none" stroke="#000000" d="M401.42,-838.27C359.28,-860.23 311.88,-893.03 289.64,-917.7"/>
<polygon fill="#000000" stroke="#000000" points="286.71,-915.77 283.11,-925.73 292.14,-920.19 286.71,-915.77"/>
<text text-anchor="middle" x="333.03" y="-880.99" font-family="monospace" font-size="10.00">owns</text>
</g>
<!-- lightning_blockstore_server::blockstore_server::BlockStoreServer::start -->
<g id="node8" class="node">
<title>lightning_blockstore_server::blockstore_server::BlockStoreServer::start</title>
<polygon fill="#db5367" stroke="black" points="0,-755.96 0,-793.96 269,-793.96 269,-755.96 0,-755.96"/>
<text text-anchor="middle" x="134.5" y="-781.96" font-family="monospace" font-size="10.00">pub(self) async fn</text>
<polyline fill="none" stroke="black" points="0,-774.96 269,-774.96 "/>
<text text-anchor="middle" x="134.5" y="-762.96" font-family="monospace" font-size="10.00">blockstore_server::BlockStoreServer::start</text>
</g>
<!-- lightning_blockstore_server::blockstore_server::BlockStoreServer&#45;&gt;lightning_blockstore_server::blockstore_server::BlockStoreServer::start -->
<g id="edge18" class="edge">
<title>lightning_blockstore_server::blockstore_server::BlockStoreServer&#45;&gt;lightning_blockstore_server::blockstore_server::BlockStoreServer::start</title>
<path fill="none" stroke="#000000" d="M454.2,-800.11C416.81,-786.22 345.19,-773.36 279.19,-766.64"/>
<polygon fill="#000000" stroke="#000000" points="279.37,-763.14 269.08,-765.65 278.69,-770.11 279.37,-763.14"/>
<text text-anchor="middle" x="354.2" y="-786.38" font-family="monospace" font-size="10.00">owns</text>
</g>
<!-- lightning_blockstore_server::blockstore_server::BlockStoreServer::Config&#45;&gt;lightning_blockstore_server::config::Config -->
<g id="edge19" class="edge">
<title>lightning_blockstore_server::blockstore_server::BlockStoreServer::Config&#45;&gt;lightning_blockstore_server::config::Config</title>
<path fill="none" stroke="#7f7f7f" stroke-dasharray="5,2" d="M318.28,-643.28C308.21,-605.73 285.74,-521.85 273.78,-477.24"/>
<polygon fill="#7f7f7f" stroke="#7f7f7f" points="277.09,-476.06 271.12,-467.31 270.33,-477.87 277.09,-476.06"/>
<text text-anchor="middle" x="283.53" y="-563.26" font-family="monospace" font-size="10.00">uses</text>
</g>
<!-- lightning_blockstore_server::blockstore_server::BlockStoreServer::get_socket&#45;&gt;lightning_blockstore_server::blockstore_server::BlockStoreServer -->
<g id="edge20" class="edge">
<title>lightning_blockstore_server::blockstore_server::BlockStoreServer::get_socket&#45;&gt;lightning_blockstore_server::blockstore_server::BlockStoreServer</title>
<path fill="none" stroke="#7f7f7f" stroke-dasharray="5,2" d="M710.79,-1081.04C692.11,-1030.76 589.21,-901.73 526.48,-845.13"/>
<polygon fill="#7f7f7f" stroke="#7f7f7f" points="528.48,-842.23 518.66,-838.28 523.87,-847.5 528.48,-842.23"/>
<text text-anchor="middle" x="606.13" y="-966.08" font-family="monospace" font-size="10.00">uses</text>
</g>
<!-- lightning_blockstore_server::blockstore_server::BlockStoreServer::init&#45;&gt;lightning_blockstore_server::blockstore_server::BlockStoreServer -->
<g id="edge21" class="edge">
<title>lightning_blockstore_server::blockstore_server::BlockStoreServer::init&#45;&gt;lightning_blockstore_server::blockstore_server::BlockStoreServer</title>
<path fill="none" stroke="#7f7f7f" stroke-dasharray="5,2" d="M681.97,-857.44C665.66,-845.67 635.74,-833.63 603.83,-824.41"/>
<polygon fill="#7f7f7f" stroke="#7f7f7f" points="604.44,-820.95 593.87,-821.65 602.57,-827.7 604.44,-820.95"/>
<text text-anchor="middle" x="630.4" y="-843.92" font-family="monospace" font-size="10.00">uses</text>
</g>
<!-- lightning_blockstore_server::blockstore_server::BlockStoreServer::init&#45;&gt;lightning_blockstore_server::blockstore_server::BlockstoreServerInner -->
<g id="edge22" class="edge">
<title>lightning_blockstore_server::blockstore_server::BlockStoreServer::init&#45;&gt;lightning_blockstore_server::blockstore_server::BlockstoreServerInner</title>
<path fill="none" stroke="#7f7f7f" stroke-dasharray="5,2" d="M765.54,-857.52C785.43,-852.19 807.2,-846.36 827.62,-840.89"/>
<polygon fill="#7f7f7f" stroke="#7f7f7f" points="828.78,-844.2 837.53,-838.23 826.96,-837.44 828.78,-844.2"/>
<text text-anchor="middle" x="784.08" y="-841.2" font-family="monospace" font-size="10.00">uses</text>
</g>
<!-- lightning_blockstore_server::blockstore_server::BlockStoreServer::init&#45;&gt;lightning_blockstore_server::config::Config -->
<g id="edge23" class="edge">
<title>lightning_blockstore_server::blockstore_server::BlockStoreServer::init&#45;&gt;lightning_blockstore_server::config::Config</title>
<path fill="none" stroke="#7f7f7f" stroke-dasharray="5,2" d="M675.24,-857.31C606.3,-788.37 371.55,-553.62 292.32,-474.39"/>
<polygon fill="#7f7f7f" stroke="#7f7f7f" points="294.7,-471.82 285.15,-467.22 289.75,-476.77 294.7,-471.82"/>
<text text-anchor="middle" x="496.28" y="-668.85" font-family="monospace" font-size="10.00">uses</text>
</g>
<!-- lightning_blockstore_server::blockstore_server::BlockStoreServer::is_running&#45;&gt;lightning_blockstore_server::blockstore_server::BlockStoreServer -->
<g id="edge24" class="edge">
<title>lightning_blockstore_server::blockstore_server::BlockStoreServer::is_running&#45;&gt;lightning_blockstore_server::blockstore_server::BlockStoreServer</title>
<path fill="none" stroke="#7f7f7f" stroke-dasharray="5,2" d="M469.8,-1034C488.69,-993.03 501.27,-896.9 494.71,-848.3"/>
<polygon fill="#7f7f7f" stroke="#7f7f7f" points="498.15,-847.65 492.96,-838.42 491.26,-848.87 498.15,-847.65"/>
<text text-anchor="middle" x="469.76" y="-944.15" font-family="monospace" font-size="10.00">uses</text>
</g>
<!-- lightning_blockstore_server::blockstore_server::BlockStoreServer::shutdown&#45;&gt;lightning_blockstore_server::blockstore_server::BlockStoreServer -->
<g id="edge25" class="edge">
<title>lightning_blockstore_server::blockstore_server::BlockStoreServer::shutdown&#45;&gt;lightning_blockstore_server::blockstore_server::BlockStoreServer</title>
<path fill="none" stroke="#7f7f7f" stroke-dasharray="5,2" d="M356.89,-925.97C399.03,-904.02 446.43,-871.22 468.67,-846.55"/>
<polygon fill="#7f7f7f" stroke="#7f7f7f" points="471.61,-848.48 475.2,-838.52 466.18,-844.06 471.61,-848.48"/>
<text text-anchor="middle" x="400.28" y="-889.26" font-family="monospace" font-size="10.00">uses</text>
</g>
<!-- lightning_blockstore_server::blockstore_server::BlockStoreServer::start&#45;&gt;lightning_blockstore_server::blockstore_server::BlockStoreServer -->
<g id="edge26" class="edge">
<title>lightning_blockstore_server::blockstore_server::BlockStoreServer::start&#45;&gt;lightning_blockstore_server::blockstore_server::BlockStoreServer</title>
<path fill="none" stroke="#7f7f7f" stroke-dasharray="5,2" d="M160.52,-793.99C201.85,-809.35 285.02,-823.44 356.17,-829.38"/>
<polygon fill="#7f7f7f" stroke="#7f7f7f" points="356.33,-832.9 366.58,-830.2 356.88,-825.92 356.33,-832.9"/>
<text text-anchor="middle" x="245.85" y="-814.68" font-family="monospace" font-size="10.00">uses</text>
</g>
<!-- lightning_blockstore_server::blockstore_server::BlockstoreServerInner::new -->
<g id="node10" class="node">
<title>lightning_blockstore_server::blockstore_server::BlockstoreServerInner::new</title>
<polygon fill="#81c169" stroke="black" points="875.11,-990.43 875.11,-1028.43 1162.11,-1028.43 1162.11,-990.43 875.11,-990.43"/>
<text text-anchor="middle" x="1018.61" y="-1016.43" font-family="monospace" font-size="10.00">pub fn</text>
<polyline fill="none" stroke="black" points="875.11,-1009.43 1162.11,-1009.43 "/>
<text text-anchor="middle" x="1018.61" y="-997.43" font-family="monospace" font-size="10.00">blockstore_server::BlockstoreServerInner::new</text>
</g>
<!-- lightning_blockstore_server::blockstore_server::BlockstoreServerInner&#45;&gt;lightning_blockstore_server::blockstore_server::BlockstoreServerInner::new -->
<g id="edge27" class="edge">
<title>lightning_blockstore_server::blockstore_server::BlockstoreServerInner&#45;&gt;lightning_blockstore_server::blockstore_server::BlockstoreServerInner::new</title>
<path fill="none" stroke="#000000" d="M903.59,-838.39C907.56,-873.06 944.92,-943.12 977.44,-982.36"/>
<polygon fill="#000000" stroke="#000000" points="975.09,-984.99 984.29,-990.24 980.37,-980.4 975.09,-984.99"/>
<text text-anchor="middle" x="928.01" y="-913.37" font-family="monospace" font-size="10.00">owns</text>
</g>
<!-- lightning_blockstore_server::blockstore_server::BlockstoreServerInner::start -->
<g id="node11" class="node">
<title>lightning_blockstore_server::blockstore_server::BlockstoreServerInner::start</title>
<polygon fill="#81c169" stroke="black" points="916.1,-643.29 916.1,-681.29 1215.1,-681.29 1215.1,-643.29 916.1,-643.29"/>
<text text-anchor="middle" x="1065.6" y="-669.29" font-family="monospace" font-size="10.00">pub async fn</text>
<polyline fill="none" stroke="black" points="916.1,-662.29 1215.1,-662.29 "/>
<text text-anchor="middle" x="1065.6" y="-650.29" font-family="monospace" font-size="10.00">blockstore_server::BlockstoreServerInner::start</text>
</g>
<!-- lightning_blockstore_server::blockstore_server::BlockstoreServerInner&#45;&gt;lightning_blockstore_server::blockstore_server::BlockstoreServerInner::start -->
<g id="edge28" class="edge">
<title>lightning_blockstore_server::blockstore_server::BlockstoreServerInner&#45;&gt;lightning_blockstore_server::blockstore_server::BlockstoreServerInner::start</title>
<path fill="none" stroke="#000000" d="M960.64,-799.85C998.36,-771.71 1044.46,-722.88 1061.57,-690.72"/>
<polygon fill="#000000" stroke="#000000" points="1064.9,-691.85 1065.91,-681.31 1058.54,-688.92 1064.9,-691.85"/>
<text text-anchor="middle" x="998.6" y="-748.28" font-family="monospace" font-size="10.00">owns</text>
</g>
<!-- lightning_blockstore_server::blockstore_server::BlockstoreServerInner::new&#45;&gt;lightning_blockstore_server::blockstore_server::BlockstoreServerInner -->
<g id="edge29" class="edge">
<title>lightning_blockstore_server::blockstore_server::BlockstoreServerInner::new&#45;&gt;lightning_blockstore_server::blockstore_server::BlockstoreServerInner</title>
<path fill="none" stroke="#7f7f7f" stroke-dasharray="5,2" d="M1023.78,-990.19C1019.81,-955.53 982.45,-885.47 949.93,-846.22"/>
<polygon fill="#7f7f7f" stroke="#7f7f7f" points="952.28,-843.59 943.07,-838.34 946.99,-848.18 952.28,-843.59"/>
<text text-anchor="middle" x="974.35" y="-921.21" font-family="monospace" font-size="10.00">uses</text>
</g>
<!-- lightning_blockstore_server::blockstore_server::BlockstoreServerInner::start&#45;&gt;lightning_blockstore_server::blockstore_server::BlockstoreServerInner -->
<g id="edge30" class="edge">
<title>lightning_blockstore_server::blockstore_server::BlockstoreServerInner::start&#45;&gt;lightning_blockstore_server::blockstore_server::BlockstoreServerInner</title>
<path fill="none" stroke="#7f7f7f" stroke-dasharray="5,2" d="M1013.72,-681.59C976,-709.73 929.9,-758.56 912.79,-790.73"/>
<polygon fill="#7f7f7f" stroke="#7f7f7f" points="909.46,-789.59 908.45,-800.13 915.81,-792.52 909.46,-789.59"/>
<text text-anchor="middle" x="950.75" y="-739.16" font-family="monospace" font-size="10.00">uses</text>
</g>
<!-- lightning_blockstore_server::blockstore_server::BlockstoreServerInner::start&#45;&gt;lightning_blockstore_server::blockstore_server::PeerRequest -->
<g id="edge31" class="edge">
<title>lightning_blockstore_server::blockstore_server::BlockstoreServerInner::start&#45;&gt;lightning_blockstore_server::blockstore_server::PeerRequest</title>
<path fill="none" stroke="#7f7f7f" stroke-dasharray="5,2" d="M1054.5,-643.06C1001.41,-551.11 773.52,-156.39 710.62,-47.45"/>
<polygon fill="#7f7f7f" stroke="#7f7f7f" points="713.58,-45.57 705.55,-38.66 707.52,-49.07 713.58,-45.57"/>
<text text-anchor="middle" x="870.06" y="-348.25" font-family="monospace" font-size="10.00">uses</text>
</g>
<!-- lightning_blockstore_server::blockstore_server::ErrorResponse&#45;&gt;lightning_blockstore_server::blockstore_server::PeerRequest -->
<g id="edge32" class="edge">
<title>lightning_blockstore_server::blockstore_server::ErrorResponse&#45;&gt;lightning_blockstore_server::blockstore_server::PeerRequest</title>
<path fill="none" stroke="#7f7f7f" stroke-dasharray="5,2" d="M356.3,-214.75C423.89,-175.73 578.17,-86.66 652.68,-43.64"/>
<polygon fill="#7f7f7f" stroke="#7f7f7f" points="654.45,-46.66 661.36,-38.63 650.95,-40.59 654.45,-46.66"/>
<text text-anchor="middle" x="491.99" y="-132.19" font-family="monospace" font-size="10.00">uses</text>
</g>
<!-- lightning_blockstore_server::blockstore_server::handle_request&#45;&gt;lightning_blockstore_server::blockstore_server::Frame -->
<g id="edge33" class="edge">
<title>lightning_blockstore_server::blockstore_server::handle_request&#45;&gt;lightning_blockstore_server::blockstore_server::Frame</title>
<path fill="none" stroke="#7f7f7f" stroke-dasharray="5,2" d="M1046.37,-214.53C1018.5,-186.66 966.79,-134.95 935.3,-103.46"/>
<polygon fill="#7f7f7f" stroke="#7f7f7f" points="937.69,-100.9 928.14,-96.3 932.74,-105.85 937.69,-100.9"/>
<text text-anchor="middle" x="978.34" y="-162" font-family="monospace" font-size="10.00">uses</text>
</g>
<!-- lightning_blockstore_server::blockstore_server::handle_request&#45;&gt;lightning_blockstore_server::blockstore_server::PeerRequest -->
<g id="edge34" class="edge">
<title>lightning_blockstore_server::blockstore_server::handle_request&#45;&gt;lightning_blockstore_server::blockstore_server::PeerRequest</title>
<path fill="none" stroke="#7f7f7f" stroke-dasharray="5,2" d="M1032.67,-214.75C965.08,-175.73 810.81,-86.66 736.29,-43.64"/>
<polygon fill="#7f7f7f" stroke="#7f7f7f" points="738.02,-40.59 727.61,-38.63 734.52,-46.66 738.02,-40.59"/>
<text text-anchor="middle" x="871.98" y="-132.19" font-family="monospace" font-size="10.00">uses</text>
</g>
<!-- lightning_blockstore_server::blockstore_server::send_request&#45;&gt;lightning_blockstore_server::blockstore_server::ErrorResponse -->
<g id="edge35" class="edge">
<title>lightning_blockstore_server::blockstore_server::send_request&#45;&gt;lightning_blockstore_server::blockstore_server::ErrorResponse</title>
<path fill="none" stroke="#7f7f7f" stroke-dasharray="5,2" d="M460.99,-96.15C433.12,-124.02 381.41,-175.73 349.92,-207.21"/>
<polygon fill="#7f7f7f" stroke="#7f7f7f" points="347.36,-204.83 342.76,-214.37 352.31,-209.78 347.36,-204.83"/>
<text text-anchor="middle" x="392.95" y="-154.68" font-family="monospace" font-size="10.00">uses</text>
</g>
<!-- lightning_blockstore_server::blockstore_server::send_request&#45;&gt;lightning_blockstore_server::blockstore_server::Frame -->
<g id="edge36" class="edge">
<title>lightning_blockstore_server::blockstore_server::send_request&#45;&gt;lightning_blockstore_server::blockstore_server::Frame</title>
<path fill="none" stroke="#7f7f7f" stroke-dasharray="5,2" d="M581.78,-76.91C653.49,-76.91 748.76,-76.91 817.95,-76.91"/>
<polygon fill="#7f7f7f" stroke="#7f7f7f" points="817.96,-80.41 827.96,-76.91 817.96,-73.41 817.96,-80.41"/>
<text text-anchor="middle" x="687.36" y="-79.91" font-family="monospace" font-size="10.00">uses</text>
</g>
<!-- lightning_blockstore_server::blockstore_server::send_request&#45;&gt;lightning_blockstore_server::blockstore_server::PeerRequest -->
<g id="edge37" class="edge">
<title>lightning_blockstore_server::blockstore_server::send_request&#45;&gt;lightning_blockstore_server::blockstore_server::PeerRequest</title>
<path fill="none" stroke="#7f7f7f" stroke-dasharray="5,2" d="M551.27,-57.87C571.16,-52.54 592.93,-46.71 613.36,-41.24"/>
<polygon fill="#7f7f7f" stroke="#7f7f7f" points="614.51,-44.55 623.26,-38.58 612.7,-37.79 614.51,-44.55"/>
<text text-anchor="middle" x="569.82" y="-41.56" font-family="monospace" font-size="10.00">uses</text>
</g>
</g>
</svg>
