<?xml version="1.0" encoding="UTF-8" standalone="no"?>
<!DOCTYPE svg PUBLIC "-//W3C//DTD SVG 1.1//EN"
 "http://www.w3.org/Graphics/SVG/1.1/DTD/svg11.dtd">
<!-- Generated by graphviz version 4.0.0 (0)
 -->
<!-- Pages: 1 -->
<svg width="1155pt" height="280pt"
 viewBox="0.00 0.00 1154.60 280.10" xmlns="http://www.w3.org/2000/svg" xmlns:xlink="http://www.w3.org/1999/xlink">
<g id="graph0" class="graph" transform="scale(1 1) rotate(0) translate(28.8 251.3)">
<polygon fill="white" stroke="transparent" points="-28.8,28.8 -28.8,-251.3 1125.8,-251.3 1125.8,28.8 -28.8,28.8"/>
<text text-anchor="middle" x="548.5" y="-189.7" font-family="Helvetica,sans-Serif" font-size="36.00">lightning_origin_http</text>
<!-- lightning_origin_http -->
<g id="node1" class="node">
<title>lightning_origin_http</title>
<polygon fill="#5397c8" stroke="black" points="0,-136 0,-174 143,-174 143,-136 0,-136"/>
<text text-anchor="middle" x="71.5" y="-162" font-family="monospace" font-size="10.00">crate</text>
<polyline fill="none" stroke="black" points="0,-155 143,-155 "/>
<text text-anchor="middle" x="71.5" y="-143" font-family="monospace" font-size="10.00">lightning_origin_http</text>
</g>
<!-- lightning_origin_http::config -->
<g id="node2" class="node">
<title>lightning_origin_http::config</title>
<polygon fill="#f8c04c" stroke="black" points="906,-136 906,-174 1097,-174 1097,-136 906,-136"/>
<text text-anchor="middle" x="1001.5" y="-162" font-family="monospace" font-size="10.00">pub(crate) mod</text>
<polyline fill="none" stroke="black" points="906,-155 1097,-155 "/>
<text text-anchor="middle" x="1001.5" y="-143" font-family="monospace" font-size="10.00">lightning_origin_http::config</text>
</g>
<!-- lightning_origin_http&#45;&gt;lightning_origin_http::config -->
<g id="edge1" class="edge">
<title>lightning_origin_http&#45;&gt;lightning_origin_http::config</title>
<path fill="none" stroke="#000000" d="M143.25,-155C268.08,-155 512,-155 512,-155 512,-155 751.85,-155 895.77,-155"/>
<polygon fill="#000000" stroke="#000000" points="895.96,-158.5 905.96,-155 895.96,-151.5 895.96,-158.5"/>
<text text-anchor="middle" x="524.5" y="-158" font-family="monospace" font-size="10.00">owns</text>
</g>
<!-- lightning_origin_http&#45;&gt;lightning_origin_http::config -->
<g id="edge2" class="edge">
<title>lightning_origin_http&#45;&gt;lightning_origin_http::config</title>
<path fill="none" stroke="#7f7f7f" stroke-dasharray="5,2" d="M133.31,-135.88C259.94,-96.71 537,-11 537,-11 537,-11 799.6,-92.41 929.91,-132.81"/>
<polygon fill="#7f7f7f" stroke="#7f7f7f" points="929.23,-136.26 939.82,-135.88 931.3,-129.57 929.23,-136.26"/>
<text text-anchor="middle" x="524.5" y="-3" font-family="monospace" font-size="10.00">uses</text>
</g>
</g>
</svg>
