<?xml version="1.0" encoding="UTF-8" standalone="no"?>
<!DOCTYPE svg PUBLIC "-//W3C//DTD SVG 1.1//EN"
 "http://www.w3.org/Graphics/SVG/1.1/DTD/svg11.dtd">
<!-- Generated by graphviz version 4.0.0 (0)
 -->
<!-- Pages: 1 -->
<svg width="1108pt" height="809pt"
 viewBox="0.00 0.00 1107.60 808.60" xmlns="http://www.w3.org/2000/svg" xmlns:xlink="http://www.w3.org/1999/xlink">
<g id="graph0" class="graph" transform="scale(1 1) rotate(0) translate(28.8 779.8)">
<polygon fill="white" stroke="transparent" points="-28.8,28.8 -28.8,-779.8 1078.8,-779.8 1078.8,28.8 -28.8,28.8"/>
<text text-anchor="middle" x="525" y="-718.2" font-family="Helvetica,sans-Serif" font-size="36.00">lightning_origin_ipfs</text>
<!-- hyper::client -->
<g id="node1" class="node">
<title>hyper::client</title>
<polygon fill="#81c169" stroke="black" points="-0.5,-369.05 -0.5,-407.05 94.5,-407.05 94.5,-369.05 -0.5,-369.05"/>
<text text-anchor="middle" x="47" y="-395.05" font-family="monospace" font-size="10.00">external mod</text>
<polyline fill="none" stroke="black" points="-0.5,-388.05 94.5,-388.05 "/>
<text text-anchor="middle" x="47" y="-376.05" font-family="monospace" font-size="10.00">hyper::client</text>
</g>
<!-- lightning_origin_ipfs -->
<g id="node2" class="node">
<title>lightning_origin_ipfs</title>
<polygon fill="#5397c8" stroke="black" points="532.34,-196.95 532.34,-234.95 675.34,-234.95 675.34,-196.95 532.34,-196.95"/>
<text text-anchor="middle" x="603.84" y="-222.95" font-family="monospace" font-size="10.00">crate</text>
<polyline fill="none" stroke="black" points="532.34,-215.95 675.34,-215.95 "/>
<text text-anchor="middle" x="603.84" y="-203.95" font-family="monospace" font-size="10.00">lightning_origin_ipfs</text>
</g>
<!-- lightning_origin_ipfs::car_reader -->
<g id="node3" class="node">
<title>lightning_origin_ipfs::car_reader</title>
<polygon fill="#f8c04c" stroke="black" points="753.97,-126.23 753.97,-164.23 968.97,-164.23 968.97,-126.23 753.97,-126.23"/>
<text text-anchor="middle" x="861.47" y="-152.23" font-family="monospace" font-size="10.00">pub(crate) mod</text>
<polyline fill="none" stroke="black" points="753.97,-145.23 968.97,-145.23 "/>
<text text-anchor="middle" x="861.47" y="-133.23" font-family="monospace" font-size="10.00">lightning_origin_ipfs::car_reader</text>
</g>
<!-- lightning_origin_ipfs&#45;&gt;lightning_origin_ipfs::car_reader -->
<g id="edge1" class="edge">
<title>lightning_origin_ipfs&#45;&gt;lightning_origin_ipfs::car_reader</title>
<path fill="none" stroke="#000000" d="M673.22,-196.9C706.87,-187.67 747.45,-176.53 782.3,-166.96"/>
<polygon fill="#000000" stroke="#000000" points="783.25,-170.33 791.97,-164.31 781.4,-163.58 783.25,-170.33"/>
<text text-anchor="middle" x="715.26" y="-184.93" font-family="monospace" font-size="10.00">owns</text>
</g>
<!-- lightning_origin_ipfs::config -->
<g id="node6" class="node">
<title>lightning_origin_ipfs::config</title>
<polygon fill="#81c169" stroke="black" points="251.9,-663.91 251.9,-701.91 442.9,-701.91 442.9,-663.91 251.9,-663.91"/>
<text text-anchor="middle" x="347.4" y="-689.91" font-family="monospace" font-size="10.00">pub mod</text>
<polyline fill="none" stroke="black" points="251.9,-682.91 442.9,-682.91 "/>
<text text-anchor="middle" x="347.4" y="-670.91" font-family="monospace" font-size="10.00">lightning_origin_ipfs::config</text>
</g>
<!-- lightning_origin_ipfs&#45;&gt;lightning_origin_ipfs::config -->
<g id="edge2" class="edge">
<title>lightning_origin_ipfs&#45;&gt;lightning_origin_ipfs::config</title>
<path fill="none" stroke="#000000" d="M578.37,-235.07C516.84,-308.28 375.47,-566.11 349.02,-653.88"/>
<polygon fill="#000000" stroke="#000000" points="345.59,-653.16 346.38,-663.72 352.35,-654.97 345.59,-653.16"/>
<text text-anchor="middle" x="451.19" y="-447.48" font-family="monospace" font-size="10.00">owns</text>
</g>
<!-- lightning_origin_ipfs&#45;&gt;lightning_origin_ipfs::config -->
<g id="edge3" class="edge">
<title>lightning_origin_ipfs&#45;&gt;lightning_origin_ipfs::config</title>
<path fill="none" stroke="#7f7f7f" stroke-dasharray="5,2" d="M604.89,-235.04C588.08,-308.8 446.52,-569.92 379.35,-655.78"/>
<polygon fill="#7f7f7f" stroke="#7f7f7f" points="376.46,-653.79 372.9,-663.77 381.91,-658.19 376.46,-653.79"/>
<text text-anchor="middle" x="479.62" y="-448.41" font-family="monospace" font-size="10.00">uses</text>
</g>
<!-- lightning_origin_ipfs::decoder -->
<g id="node7" class="node">
<title>lightning_origin_ipfs::decoder</title>
<polygon fill="#f8c04c" stroke="black" points="221.68,-0.26 221.68,-38.26 418.68,-38.26 418.68,-0.26 221.68,-0.26"/>
<text text-anchor="middle" x="320.18" y="-26.26" font-family="monospace" font-size="10.00">pub(crate) mod</text>
<polyline fill="none" stroke="black" points="221.68,-19.26 418.68,-19.26 "/>
<text text-anchor="middle" x="320.18" y="-7.26" font-family="monospace" font-size="10.00">lightning_origin_ipfs::decoder</text>
</g>
<!-- lightning_origin_ipfs&#45;&gt;lightning_origin_ipfs::decoder -->
<g id="edge4" class="edge">
<title>lightning_origin_ipfs&#45;&gt;lightning_origin_ipfs::decoder</title>
<path fill="none" stroke="#000000" d="M576.39,-196.91C524.81,-161.15 413.47,-83.95 356.05,-44.14"/>
<polygon fill="#000000" stroke="#000000" points="357.86,-41.13 347.65,-38.31 353.87,-46.88 357.86,-41.13"/>
<text text-anchor="middle" x="453.72" y="-123.52" font-family="monospace" font-size="10.00">owns</text>
</g>
<!-- lightning_origin_ipfs::error -->
<g id="node8" class="node">
<title>lightning_origin_ipfs::error</title>
<polygon fill="#f8c04c" stroke="black" points="865.08,-344.97 865.08,-382.97 1050.08,-382.97 1050.08,-344.97 865.08,-344.97"/>
<text text-anchor="middle" x="957.58" y="-370.97" font-family="monospace" font-size="10.00">pub(crate) mod</text>
<polyline fill="none" stroke="black" points="865.08,-363.97 1050.08,-363.97 "/>
<text text-anchor="middle" x="957.58" y="-351.97" font-family="monospace" font-size="10.00">lightning_origin_ipfs::error</text>
</g>
<!-- lightning_origin_ipfs&#45;&gt;lightning_origin_ipfs::error -->
<g id="edge5" class="edge">
<title>lightning_origin_ipfs&#45;&gt;lightning_origin_ipfs::error</title>
<path fill="none" stroke="#000000" d="M649.36,-235C714.15,-262.1 832.79,-311.75 902.46,-340.9"/>
<polygon fill="#000000" stroke="#000000" points="901.38,-344.25 911.96,-344.88 904.08,-337.79 901.38,-344.25"/>
<text text-anchor="middle" x="763.41" y="-290.95" font-family="monospace" font-size="10.00">owns</text>
</g>
<!-- lightning_origin_ipfs::origin_ipfs -->
<g id="node9" class="node">
<title>lightning_origin_ipfs::origin_ipfs</title>
<polygon fill="#f8c04c" stroke="black" points="397,-388.27 397,-426.27 618,-426.27 618,-388.27 397,-388.27"/>
<text text-anchor="middle" x="507.5" y="-414.27" font-family="monospace" font-size="10.00">pub(crate) mod</text>
<polyline fill="none" stroke="black" points="397,-407.27 618,-407.27 "/>
<text text-anchor="middle" x="507.5" y="-395.27" font-family="monospace" font-size="10.00">lightning_origin_ipfs::origin_ipfs</text>
</g>
<!-- lightning_origin_ipfs&#45;&gt;lightning_origin_ipfs::origin_ipfs -->
<g id="edge6" class="edge">
<title>lightning_origin_ipfs&#45;&gt;lightning_origin_ipfs::origin_ipfs</title>
<path fill="none" stroke="#000000" d="M571.92,-235.26C543.33,-269.33 509.43,-338.18 502.35,-378.02"/>
<polygon fill="#000000" stroke="#000000" points="498.85,-377.85 501.11,-388.2 505.8,-378.69 498.85,-377.85"/>
<text text-anchor="middle" x="524.64" y="-309.64" font-family="monospace" font-size="10.00">owns</text>
</g>
<!-- lightning_origin_ipfs&#45;&gt;lightning_origin_ipfs::origin_ipfs -->
<g id="edge7" class="edge">
<title>lightning_origin_ipfs&#45;&gt;lightning_origin_ipfs::origin_ipfs</title>
<path fill="none" stroke="#7f7f7f" stroke-dasharray="5,2" d="M610.22,-235.27C608.15,-270.02 575.33,-340.74 545.62,-380.14"/>
<polygon fill="#7f7f7f" stroke="#7f7f7f" points="542.82,-378.04 539.34,-388.05 548.3,-382.39 542.82,-378.04"/>
<text text-anchor="middle" x="565.42" y="-310.71" font-family="monospace" font-size="10.00">uses</text>
</g>
<!-- lightning_origin_ipfs::car_reader::reader -->
<g id="node4" class="node">
<title>lightning_origin_ipfs::car_reader::reader</title>
<polygon fill="#db5367" stroke="black" points="626.02,-393.66 626.02,-431.66 889.02,-431.66 889.02,-393.66 626.02,-393.66"/>
<text text-anchor="middle" x="757.52" y="-419.66" font-family="monospace" font-size="10.00">pub(self) mod</text>
<polyline fill="none" stroke="black" points="626.02,-412.66 889.02,-412.66 "/>
<text text-anchor="middle" x="757.52" y="-400.66" font-family="monospace" font-size="10.00">lightning_origin_ipfs::car_reader::reader</text>
</g>
<!-- lightning_origin_ipfs::car_reader&#45;&gt;lightning_origin_ipfs::car_reader::reader -->
<g id="edge8" class="edge">
<title>lightning_origin_ipfs::car_reader&#45;&gt;lightning_origin_ipfs::car_reader::reader</title>
<path fill="none" stroke="#000000" d="M836.23,-164.38C803.11,-210.86 757.76,-327.94 751.63,-383.28"/>
<polygon fill="#000000" stroke="#000000" points="748.13,-383.28 750.95,-393.49 755.11,-383.75 748.13,-383.28"/>
<text text-anchor="middle" x="781.43" y="-276.83" font-family="monospace" font-size="10.00">owns</text>
</g>
<!-- lightning_origin_ipfs::car_reader&#45;&gt;lightning_origin_ipfs::car_reader::reader -->
<g id="edge9" class="edge">
<title>lightning_origin_ipfs::car_reader&#45;&gt;lightning_origin_ipfs::car_reader::reader</title>
<path fill="none" stroke="#7f7f7f" stroke-dasharray="5,2" d="M868.04,-164.33C867.41,-211.29 823.2,-330.35 788.49,-384.96"/>
<polygon fill="#7f7f7f" stroke="#7f7f7f" points="785.45,-383.2 782.79,-393.46 791.27,-387.1 785.45,-383.2"/>
<text text-anchor="middle" x="815.77" y="-277.65" font-family="monospace" font-size="10.00">uses</text>
</g>
<!-- lightning_origin_ipfs::car_reader::utils -->
<g id="node5" class="node">
<title>lightning_origin_ipfs::car_reader::utils</title>
<polygon fill="#db5367" stroke="black" points="715.09,-664.95 715.09,-702.95 972.09,-702.95 972.09,-664.95 715.09,-664.95"/>
<text text-anchor="middle" x="843.59" y="-690.95" font-family="monospace" font-size="10.00">pub(self) mod</text>
<polyline fill="none" stroke="black" points="715.09,-683.95 972.09,-683.95 "/>
<text text-anchor="middle" x="843.59" y="-671.95" font-family="monospace" font-size="10.00">lightning_origin_ipfs::car_reader::utils</text>
</g>
<!-- lightning_origin_ipfs::car_reader&#45;&gt;lightning_origin_ipfs::car_reader::utils -->
<g id="edge10" class="edge">
<title>lightning_origin_ipfs::car_reader&#45;&gt;lightning_origin_ipfs::car_reader::utils</title>
<path fill="none" stroke="#000000" d="M849.9,-164.36C826.51,-244.95 815.45,-557.09 831.52,-654.65"/>
<polygon fill="#000000" stroke="#000000" points="828.12,-655.53 833.44,-664.69 835,-654.21 828.12,-655.53"/>
<text text-anchor="middle" x="828.21" y="-412.5" font-family="monospace" font-size="10.00">owns</text>
</g>
<!-- lightning_origin_ipfs::car_reader&#45;&gt;lightning_origin_ipfs::car_reader::utils -->
<g id="edge11" class="edge">
<title>lightning_origin_ipfs::car_reader&#45;&gt;lightning_origin_ipfs::car_reader::utils</title>
<path fill="none" stroke="#7f7f7f" stroke-dasharray="5,2" d="M871.6,-164.44C889.76,-245.27 880.17,-557.96 857.68,-655.04"/>
<polygon fill="#7f7f7f" stroke="#7f7f7f" points="854.28,-654.21 855.17,-664.77 861.06,-655.96 854.28,-654.21"/>
<text text-anchor="middle" x="852.14" y="-401.74" font-family="monospace" font-size="10.00">uses</text>
</g>
<!-- lightning_origin_ipfs::car_reader::reader&#45;&gt;lightning_origin_ipfs::car_reader::utils -->
<g id="edge12" class="edge">
<title>lightning_origin_ipfs::car_reader::reader&#45;&gt;lightning_origin_ipfs::car_reader::utils</title>
<path fill="none" stroke="#7f7f7f" stroke-dasharray="5,2" d="M763.57,-431.73C778.45,-478.63 816.87,-599.74 834.5,-655.32"/>
<polygon fill="#7f7f7f" stroke="#7f7f7f" points="831.18,-656.42 837.54,-664.9 837.85,-654.31 831.18,-656.42"/>
<text text-anchor="middle" x="786.54" y="-546.53" font-family="monospace" font-size="10.00">uses</text>
</g>
<!-- lightning_origin_ipfs::car_reader::reader&#45;&gt;lightning_origin_ipfs::error -->
<g id="edge13" class="edge">
<title>lightning_origin_ipfs::car_reader::reader&#45;&gt;lightning_origin_ipfs::error</title>
<path fill="none" stroke="#7f7f7f" stroke-dasharray="5,2" d="M835.73,-393.62C846.83,-390.92 858.31,-388.13 869.59,-385.38"/>
<polygon fill="#7f7f7f" stroke="#7f7f7f" points="870.54,-388.75 879.43,-382.99 868.88,-381.95 870.54,-388.75"/>
<text text-anchor="middle" x="840.16" y="-381.5" font-family="monospace" font-size="10.00">uses</text>
</g>
<!-- lightning_origin_ipfs::origin_ipfs&#45;&gt;hyper::client -->
<g id="edge14" class="edge">
<title>lightning_origin_ipfs::origin_ipfs&#45;&gt;hyper::client</title>
<path fill="none" stroke="#7f7f7f" stroke-dasharray="5,2" d="M396.9,-402.65C305.09,-398.82 178.12,-393.52 105.07,-390.47"/>
<polygon fill="#7f7f7f" stroke="#7f7f7f" points="104.84,-386.96 94.7,-390.04 104.54,-393.95 104.84,-386.96"/>
<text text-anchor="middle" x="238.49" y="-399.56" font-family="monospace" font-size="10.00">uses</text>
</g>
<!-- lightning_origin_ipfs::origin_ipfs&#45;&gt;lightning_origin_ipfs::car_reader::reader -->
<g id="edge15" class="edge">
<title>lightning_origin_ipfs::origin_ipfs&#45;&gt;lightning_origin_ipfs::car_reader::reader</title>
<path fill="none" stroke="#7f7f7f" stroke-dasharray="5,2" d="M618.25,-409.66C618.41,-409.66 618.56,-409.66 618.72,-409.67"/>
<polygon fill="#7f7f7f" stroke="#7f7f7f" points="615.64,-413.1 625.72,-409.82 615.8,-406.1 615.64,-413.1"/>
<text text-anchor="middle" x="618.49" y="-401.66" font-family="monospace" font-size="10.00">uses</text>
</g>
<!-- lightning_origin_ipfs::origin_ipfs&#45;&gt;lightning_origin_ipfs::car_reader::utils -->
<g id="edge16" class="edge">
<title>lightning_origin_ipfs::origin_ipfs&#45;&gt;lightning_origin_ipfs::car_reader::utils</title>
<path fill="none" stroke="#7f7f7f" stroke-dasharray="5,2" d="M530.6,-426.29C589.48,-474.76 745.24,-602.99 812.23,-658.14"/>
<polygon fill="#7f7f7f" stroke="#7f7f7f" points="810.38,-661.15 820.32,-664.8 814.83,-655.75 810.38,-661.15"/>
<text text-anchor="middle" x="658.91" y="-545.21" font-family="monospace" font-size="10.00">uses</text>
</g>
<!-- lightning_origin_ipfs::origin_ipfs&#45;&gt;lightning_origin_ipfs::config -->
<g id="edge17" class="edge">
<title>lightning_origin_ipfs::origin_ipfs&#45;&gt;lightning_origin_ipfs::config</title>
<path fill="none" stroke="#7f7f7f" stroke-dasharray="5,2" d="M496.24,-426.65C468.39,-474.59 396.2,-598.88 363.69,-654.86"/>
<polygon fill="#7f7f7f" stroke="#7f7f7f" points="360.64,-653.14 358.65,-663.54 366.7,-656.66 360.64,-653.14"/>
<text text-anchor="middle" x="417.47" y="-543.76" font-family="monospace" font-size="10.00">uses</text>
</g>
<!-- lightning_origin_ipfs::origin_ipfs&#45;&gt;lightning_origin_ipfs::decoder -->
<g id="edge18" class="edge">
<title>lightning_origin_ipfs::origin_ipfs&#45;&gt;lightning_origin_ipfs::decoder</title>
<path fill="none" stroke="#7f7f7f" stroke-dasharray="5,2" d="M498.21,-388.03C467.69,-324.81 370.37,-123.23 334.04,-47.97"/>
<polygon fill="#7f7f7f" stroke="#7f7f7f" points="337.02,-46.1 329.52,-38.62 330.72,-49.15 337.02,-46.1"/>
<text text-anchor="middle" x="403.62" y="-221" font-family="monospace" font-size="10.00">uses</text>
</g>
<!-- lightning_origin_ipfs::origin_ipfs&#45;&gt;lightning_origin_ipfs::error -->
<g id="edge19" class="edge">
<title>lightning_origin_ipfs::origin_ipfs&#45;&gt;lightning_origin_ipfs::error</title>
<path fill="none" stroke="#7f7f7f" stroke-dasharray="5,2" d="M618.18,-396.62C690.37,-389.68 783.95,-380.67 854.55,-373.88"/>
<polygon fill="#7f7f7f" stroke="#7f7f7f" points="855.18,-377.34 864.8,-372.89 854.51,-370.37 855.18,-377.34"/>
<text text-anchor="middle" x="723.87" y="-377.25" font-family="monospace" font-size="10.00">uses</text>
</g>
</g>
</svg>
