<?xml version="1.0" encoding="UTF-8" standalone="no"?>
<!DOCTYPE svg PUBLIC "-//W3C//DTD SVG 1.1//EN"
 "http://www.w3.org/Graphics/SVG/1.1/DTD/svg11.dtd">
<!-- Generated by graphviz version 4.0.0 (0)
 -->
<!-- Pages: 1 -->
<svg width="463pt" height="387pt"
 viewBox="0.00 0.00 462.60 386.60" xmlns="http://www.w3.org/2000/svg" xmlns:xlink="http://www.w3.org/1999/xlink">
<g id="graph0" class="graph" transform="scale(1 1) rotate(0) translate(28.8 357.8)">
<polygon fill="white" stroke="transparent" points="-28.8,28.8 -28.8,-357.8 433.8,-357.8 433.8,28.8 -28.8,28.8"/>
<text text-anchor="middle" x="202.5" y="-296.2" font-family="Helvetica,sans-Serif" font-size="36.00">lightning_origin_http</text>
<!-- lightning_origin_http -->
<g id="node1" class="node">
<title>lightning_origin_http</title>
<polygon fill="#5397c8" stroke="black" points="90.1,-62.72 90.1,-100.72 233.1,-100.72 233.1,-62.72 90.1,-62.72"/>
<text text-anchor="middle" x="161.6" y="-88.72" font-family="monospace" font-size="10.00">crate</text>
<polyline fill="none" stroke="black" points="90.1,-81.72 233.1,-81.72 "/>
<text text-anchor="middle" x="161.6" y="-69.72" font-family="monospace" font-size="10.00">lightning_origin_http</text>
</g>
<!-- lightning_origin_http::HttpOrigin -->
<g id="node2" class="node">
<title>lightning_origin_http::HttpOrigin</title>
<polygon fill="#81c169" stroke="black" points="258.78,-107.97 258.78,-145.97 335.78,-145.97 335.78,-107.97 258.78,-107.97"/>
<text text-anchor="middle" x="297.28" y="-133.97" font-family="monospace" font-size="10.00">pub struct</text>
<polyline fill="none" stroke="black" points="258.78,-126.97 335.78,-126.97 "/>
<text text-anchor="middle" x="297.28" y="-114.97" font-family="monospace" font-size="10.00">HttpOrigin</text>
</g>
<!-- lightning_origin_http&#45;&gt;lightning_origin_http::HttpOrigin -->
<g id="edge1" class="edge">
<title>lightning_origin_http&#45;&gt;lightning_origin_http::HttpOrigin</title>
<path fill="none" stroke="#000000" d="M218.75,-100.78C228.85,-104.15 239.28,-107.62 249.11,-110.9"/>
<polygon fill="#000000" stroke="#000000" points="248.1,-114.26 258.7,-114.1 250.32,-107.62 248.1,-114.26"/>
<text text-anchor="middle" x="221.43" y="-108.84" font-family="monospace" font-size="10.00">owns</text>
</g>
<!-- lightning_origin_http::config::Config -->
<g id="node5" class="node">
<title>lightning_origin_http::config::Config</title>
<polygon fill="#81c169" stroke="black" points="58.6,-183.51 58.6,-221.51 159.6,-221.51 159.6,-183.51 58.6,-183.51"/>
<text text-anchor="middle" x="109.1" y="-209.51" font-family="monospace" font-size="10.00">pub struct</text>
<polyline fill="none" stroke="black" points="58.6,-202.51 159.6,-202.51 "/>
<text text-anchor="middle" x="109.1" y="-190.51" font-family="monospace" font-size="10.00">config::Config</text>
</g>
<!-- lightning_origin_http&#45;&gt;lightning_origin_http::config::Config -->
<g id="edge2" class="edge">
<title>lightning_origin_http&#45;&gt;lightning_origin_http::config::Config</title>
<path fill="none" stroke="#000000" d="M127.94,-100.76C113.26,-120.43 100.98,-150.58 98.91,-173.21"/>
<polygon fill="#000000" stroke="#000000" points="95.41,-173.26 98.73,-183.32 102.41,-173.39 95.41,-173.26"/>
<text text-anchor="middle" x="100.92" y="-139.99" font-family="monospace" font-size="10.00">owns</text>
</g>
<!-- lightning_origin_http&#45;&gt;lightning_origin_http::config::Config -->
<g id="edge3" class="edge">
<title>lightning_origin_http&#45;&gt;lightning_origin_http::config::Config</title>
<path fill="none" stroke="#7f7f7f" stroke-dasharray="5,2" d="M171.96,-100.79C173.4,-120.93 162.92,-151.89 148.79,-174.6"/>
<polygon fill="#7f7f7f" stroke="#7f7f7f" points="145.71,-172.91 143,-183.16 151.5,-176.84 145.71,-172.91"/>
<text text-anchor="middle" x="147.88" y="-140.69" font-family="monospace" font-size="10.00">uses</text>
</g>
<!-- lightning_origin_http::get_url_and_sri -->
<g id="node6" class="node">
<title>lightning_origin_http::get_url_and_sri</title>
<polygon fill="#f8c04c" stroke="black" points="-0.04,-15.72 -0.04,-53.72 106.96,-53.72 106.96,-15.72 -0.04,-15.72"/>
<text text-anchor="middle" x="53.46" y="-41.72" font-family="monospace" font-size="10.00">pub(crate) fn</text>
<polyline fill="none" stroke="black" points="-0.04,-34.72 106.96,-34.72 "/>
<text text-anchor="middle" x="53.46" y="-22.72" font-family="monospace" font-size="10.00">get_url_and_sri</text>
</g>
<!-- lightning_origin_http&#45;&gt;lightning_origin_http::get_url_and_sri -->
<g id="edge4" class="edge">
<title>lightning_origin_http&#45;&gt;lightning_origin_http::get_url_and_sri</title>
<path fill="none" stroke="#000000" d="M117.62,-62.6C114.07,-61.07 110.47,-59.5 106.88,-57.94"/>
<polygon fill="#000000" stroke="#000000" points="107.97,-54.6 97.41,-53.82 105.18,-61.02 107.97,-54.6"/>
<text text-anchor="middle" x="124.75" y="-52.27" font-family="monospace" font-size="10.00">owns</text>
</g>
<!-- lightning_origin_http::HttpOrigin::fetch -->
<g id="node3" class="node">
<title>lightning_origin_http::HttpOrigin::fetch</title>
<polygon fill="#81c169" stroke="black" points="286.27,-0.84 286.27,-38.84 405.27,-38.84 405.27,-0.84 286.27,-0.84"/>
<text text-anchor="middle" x="345.77" y="-26.84" font-family="monospace" font-size="10.00">pub async fn</text>
<polyline fill="none" stroke="black" points="286.27,-19.84 405.27,-19.84 "/>
<text text-anchor="middle" x="345.77" y="-7.84" font-family="monospace" font-size="10.00">HttpOrigin::fetch</text>
</g>
<!-- lightning_origin_http::HttpOrigin&#45;&gt;lightning_origin_http::HttpOrigin::fetch -->
<g id="edge5" class="edge">
<title>lightning_origin_http::HttpOrigin&#45;&gt;lightning_origin_http::HttpOrigin::fetch</title>
<path fill="none" stroke="#000000" d="M332.73,-107.74C344.83,-91.28 354.43,-67.96 356.34,-49.23"/>
<polygon fill="#000000" stroke="#000000" points="359.84,-49.18 356.56,-39.1 352.84,-49.03 359.84,-49.18"/>
<text text-anchor="middle" x="332.04" y="-81.49" font-family="monospace" font-size="10.00">owns</text>
</g>
<!-- lightning_origin_http::HttpOrigin::new -->
<g id="node4" class="node">
<title>lightning_origin_http::HttpOrigin::new</title>
<polygon fill="#81c169" stroke="black" points="189.41,-242.14 189.41,-280.14 296.41,-280.14 296.41,-242.14 189.41,-242.14"/>
<text text-anchor="middle" x="242.91" y="-268.14" font-family="monospace" font-size="10.00">pub fn</text>
<polyline fill="none" stroke="black" points="189.41,-261.14 296.41,-261.14 "/>
<text text-anchor="middle" x="242.91" y="-249.14" font-family="monospace" font-size="10.00">HttpOrigin::new</text>
</g>
<!-- lightning_origin_http::HttpOrigin&#45;&gt;lightning_origin_http::HttpOrigin::new -->
<g id="edge6" class="edge">
<title>lightning_origin_http::HttpOrigin&#45;&gt;lightning_origin_http::HttpOrigin::new</title>
<path fill="none" stroke="#000000" d="M265.5,-146.07C248.94,-168.7 234.58,-205.75 232.68,-231.92"/>
<polygon fill="#000000" stroke="#000000" points="229.18,-232.03 232.64,-242.05 236.18,-232.06 229.18,-232.03"/>
<text text-anchor="middle" x="236.59" y="-192" font-family="monospace" font-size="10.00">owns</text>
</g>
<!-- lightning_origin_http::HttpOrigin::fetch&#45;&gt;lightning_origin_http::HttpOrigin -->
<g id="edge7" class="edge">
<title>lightning_origin_http::HttpOrigin::fetch&#45;&gt;lightning_origin_http::HttpOrigin</title>
<path fill="none" stroke="#7f7f7f" stroke-dasharray="5,2" d="M310.33,-39.07C298.22,-55.53 288.63,-78.85 286.72,-97.57"/>
<polygon fill="#7f7f7f" stroke="#7f7f7f" points="283.22,-97.63 286.5,-107.7 290.21,-97.78 283.22,-97.63"/>
<text text-anchor="middle" x="286.02" y="-71.32" font-family="monospace" font-size="10.00">uses</text>
</g>
<!-- lightning_origin_http::HttpOrigin::new&#45;&gt;lightning_origin_http::HttpOrigin -->
<g id="edge8" class="edge">
<title>lightning_origin_http::HttpOrigin::new&#45;&gt;lightning_origin_http::HttpOrigin</title>
<path fill="none" stroke="#7f7f7f" stroke-dasharray="5,2" d="M274.7,-242.03C291.26,-219.4 305.61,-182.35 307.51,-156.19"/>
<polygon fill="#7f7f7f" stroke="#7f7f7f" points="311.01,-156.08 307.56,-146.06 304.01,-156.05 311.01,-156.08"/>
<text text-anchor="middle" x="278.6" y="-202.11" font-family="monospace" font-size="10.00">uses</text>
</g>
<!-- lightning_origin_http::HttpOrigin::new&#45;&gt;lightning_origin_http::config::Config -->
<g id="edge9" class="edge">
<title>lightning_origin_http::HttpOrigin::new&#45;&gt;lightning_origin_http::config::Config</title>
<path fill="none" stroke="#7f7f7f" stroke-dasharray="5,2" d="M199.47,-242.11C187.55,-236.88 174.49,-231.16 162.1,-225.74"/>
<polygon fill="#7f7f7f" stroke="#7f7f7f" points="163.35,-222.46 152.79,-221.65 160.54,-228.87 163.35,-222.46"/>
<text text-anchor="middle" x="168.28" y="-236.92" font-family="monospace" font-size="10.00">uses</text>
</g>
</g>
</svg>
