<?xml version="1.0" encoding="UTF-8" standalone="no"?>
<!DOCTYPE svg PUBLIC "-//W3C//DTD SVG 1.1//EN"
 "http://www.w3.org/Graphics/SVG/1.1/DTD/svg11.dtd">
<!-- Generated by graphviz version 4.0.0 (0)
 -->
<!-- Pages: 1 -->
<svg width="1668pt" height="4050pt"
 viewBox="0.00 0.00 1667.60 4050.00" xmlns="http://www.w3.org/2000/svg" xmlns:xlink="http://www.w3.org/1999/xlink">
<g id="graph0" class="graph" transform="scale(0.804593 0.804593) rotate(0) translate(28.8 5004.8)">
<polygon fill="white" stroke="transparent" points="-28.8,28.8 -28.8,-5004.8 2043.8,-5004.8 2043.8,28.8 -28.8,28.8"/>
<text text-anchor="middle" x="1007.5" y="-4943.2" font-family="Helvetica,sans-Serif" font-size="36.00">lightning_signer</text>
<!-- lightning_signer -->
<g id="node1" class="node">
<title>lightning_signer</title>
<polygon fill="#5397c8" stroke="black" points="0,-2694.5 0,-2732.5 113,-2732.5 113,-2694.5 0,-2694.5"/>
<text text-anchor="middle" x="56.5" y="-2720.5" font-family="monospace" font-size="10.00">crate</text>
<polyline fill="none" stroke="black" points="0,-2713.5 113,-2713.5 "/>
<text text-anchor="middle" x="56.5" y="-2701.5" font-family="monospace" font-size="10.00">lightning_signer</text>
</g>
<!-- lightning_signer::LazyNodeIndex -->
<g id="node2" class="node">
<title>lightning_signer::LazyNodeIndex</title>
<polygon fill="#f8c04c" stroke="black" points="906,-4734.5 906,-4772.5 1025,-4772.5 1025,-4734.5 906,-4734.5"/>
<text text-anchor="middle" x="965.5" y="-4760.5" font-family="monospace" font-size="10.00">pub(crate) struct</text>
<polyline fill="none" stroke="black" points="906,-4753.5 1025,-4753.5 "/>
<text text-anchor="middle" x="965.5" y="-4741.5" font-family="monospace" font-size="10.00">LazyNodeIndex</text>
</g>
<!-- lightning_signer&#45;&gt;lightning_signer::LazyNodeIndex -->
<g id="edge1" class="edge">
<title>lightning_signer&#45;&gt;lightning_signer::LazyNodeIndex</title>
<path fill="none" stroke="#000000" d="M61.96,-2732.7C111.52,-2907.08 482,-4210.5 482,-4210.5 482,-4210.5 844.62,-4617.75 941.79,-4726.87"/>
<polygon fill="#000000" stroke="#000000" points="939.31,-4729.35 948.58,-4734.49 944.54,-4724.7 939.31,-4729.35"/>
<text text-anchor="middle" x="494.5" y="-4213.5" font-family="monospace" font-size="10.00">owns</text>
</g>
<!-- lightning_signer::PendingTransaction -->
<g id="node5" class="node">
<title>lightning_signer::PendingTransaction</title>
<polygon fill="#f8c04c" stroke="black" points="903,-3690.5 903,-3728.5 1028,-3728.5 1028,-3690.5 903,-3690.5"/>
<text text-anchor="middle" x="965.5" y="-3716.5" font-family="monospace" font-size="10.00">pub(crate) struct</text>
<polyline fill="none" stroke="black" points="903,-3709.5 1028,-3709.5 "/>
<text text-anchor="middle" x="965.5" y="-3697.5" font-family="monospace" font-size="10.00">PendingTransaction</text>
</g>
<!-- lightning_signer&#45;&gt;lightning_signer::PendingTransaction -->
<g id="edge2" class="edge">
<title>lightning_signer&#45;&gt;lightning_signer::PendingTransaction</title>
<path fill="none" stroke="#000000" d="M67.45,-2732.69C134.05,-2849.46 482,-3459.5 482,-3459.5 482,-3459.5 798.44,-3623.12 919.32,-3685.62"/>
<polygon fill="#000000" stroke="#000000" points="917.87,-3688.81 928.36,-3690.3 921.09,-3682.6 917.87,-3688.81"/>
<text text-anchor="middle" x="494.5" y="-3462.5" font-family="monospace" font-size="10.00">owns</text>
</g>
<!-- lightning_signer::Signer -->
<g id="node6" class="node">
<title>lightning_signer::Signer</title>
<polygon fill="#81c169" stroke="black" points="927,-3579.5 927,-3617.5 1004,-3617.5 1004,-3579.5 927,-3579.5"/>
<text text-anchor="middle" x="965.5" y="-3605.5" font-family="monospace" font-size="10.00">pub struct</text>
<polyline fill="none" stroke="black" points="927,-3598.5 1004,-3598.5 "/>
<text text-anchor="middle" x="965.5" y="-3586.5" font-family="monospace" font-size="10.00">Signer</text>
</g>
<!-- lightning_signer&#45;&gt;lightning_signer::Signer -->
<g id="edge3" class="edge">
<title>lightning_signer&#45;&gt;lightning_signer::Signer</title>
<path fill="none" stroke="#000000" d="M94.13,-2732.63C202.41,-2787.67 507,-2942.5 507,-2942.5 507,-2942.5 859.18,-3446.39 946.23,-3570.92"/>
<polygon fill="#000000" stroke="#000000" points="943.43,-3573.03 952.03,-3579.22 949.17,-3569.02 943.43,-3573.03"/>
<text text-anchor="middle" x="494.5" y="-2934.5" font-family="monospace" font-size="10.00">owns</text>
</g>
<!-- lightning_signer::SignerState -->
<g id="node11" class="node">
<title>lightning_signer::SignerState</title>
<polygon fill="#f8c04c" stroke="black" points="906,-2599.5 906,-2637.5 1025,-2637.5 1025,-2599.5 906,-2599.5"/>
<text text-anchor="middle" x="965.5" y="-2625.5" font-family="monospace" font-size="10.00">pub(crate) struct</text>
<polyline fill="none" stroke="black" points="906,-2618.5 1025,-2618.5 "/>
<text text-anchor="middle" x="965.5" y="-2606.5" font-family="monospace" font-size="10.00">SignerState</text>
</g>
<!-- lightning_signer&#45;&gt;lightning_signer::SignerState -->
<g id="edge4" class="edge">
<title>lightning_signer&#45;&gt;lightning_signer::SignerState</title>
<path fill="none" stroke="#000000" d="M113.1,-2705.21C234.09,-2687.48 507,-2647.5 507,-2647.5 507,-2647.5 767,-2631.05 895.42,-2622.93"/>
<polygon fill="#000000" stroke="#000000" points="895.8,-2626.42 905.56,-2622.29 895.36,-2619.43 895.8,-2626.42"/>
<text text-anchor="middle" x="494.5" y="-2639.5" font-family="monospace" font-size="10.00">owns</text>
</g>
<!-- lightning_signer::SignerWorker -->
<g id="node15" class="node">
<title>lightning_signer::SignerWorker</title>
<polygon fill="#f8c04c" stroke="black" points="906,-1479.5 906,-1517.5 1025,-1517.5 1025,-1479.5 906,-1479.5"/>
<text text-anchor="middle" x="965.5" y="-1505.5" font-family="monospace" font-size="10.00">pub(crate) struct</text>
<polyline fill="none" stroke="black" points="906,-1498.5 1025,-1498.5 "/>
<text text-anchor="middle" x="965.5" y="-1486.5" font-family="monospace" font-size="10.00">SignerWorker</text>
</g>
<!-- lightning_signer&#45;&gt;lightning_signer::SignerWorker -->
<g id="edge5" class="edge">
<title>lightning_signer&#45;&gt;lightning_signer::SignerWorker</title>
<path fill="none" stroke="#000000" d="M69.02,-2694.44C141.78,-2583.64 507,-2027.5 507,-2027.5 507,-2027.5 848.68,-1633.29 942.12,-1525.47"/>
<polygon fill="#000000" stroke="#000000" points="945.01,-1527.49 948.91,-1517.64 939.72,-1522.9 945.01,-1527.49"/>
<text text-anchor="middle" x="494.5" y="-2019.5" font-family="monospace" font-size="10.00">owns</text>
</g>
<!-- lightning_signer::new_block_task -->
<g id="node19" class="node">
<title>lightning_signer::new_block_task</title>
<polygon fill="#f8c04c" stroke="black" points="900,-0.5 900,-38.5 1031,-38.5 1031,-0.5 900,-0.5"/>
<text text-anchor="middle" x="965.5" y="-26.5" font-family="monospace" font-size="10.00">pub(crate) async fn</text>
<polyline fill="none" stroke="black" points="900,-19.5 1031,-19.5 "/>
<text text-anchor="middle" x="965.5" y="-7.5" font-family="monospace" font-size="10.00">new_block_task</text>
</g>
<!-- lightning_signer&#45;&gt;lightning_signer::new_block_task -->
<g id="edge6" class="edge">
<title>lightning_signer&#45;&gt;lightning_signer::new_block_task</title>
<path fill="none" stroke="#000000" d="M60.89,-2694.34C107.33,-2491.44 507,-745.5 507,-745.5 507,-745.5 863.8,-180.54 947.9,-47.37"/>
<polygon fill="#000000" stroke="#000000" points="951.09,-48.87 953.47,-38.55 945.17,-45.13 951.09,-48.87"/>
<text text-anchor="middle" x="494.5" y="-737.5" font-family="monospace" font-size="10.00">owns</text>
</g>
<!-- lightning_signer::LazyNodeIndex::new -->
<g id="node3" class="node">
<title>lightning_signer::LazyNodeIndex::new</title>
<polygon fill="#f8c04c" stroke="black" points="1842,-4889.5 1842,-4927.5 1967,-4927.5 1967,-4889.5 1842,-4889.5"/>
<text text-anchor="middle" x="1904.5" y="-4915.5" font-family="monospace" font-size="10.00">pub(crate) fn</text>
<polyline fill="none" stroke="black" points="1842,-4908.5 1967,-4908.5 "/>
<text text-anchor="middle" x="1904.5" y="-4896.5" font-family="monospace" font-size="10.00">LazyNodeIndex::new</text>
</g>
<!-- lightning_signer::LazyNodeIndex&#45;&gt;lightning_signer::LazyNodeIndex::new -->
<g id="edge7" class="edge">
<title>lightning_signer::LazyNodeIndex&#45;&gt;lightning_signer::LazyNodeIndex::new</title>
<path fill="none" stroke="#000000" d="M1018.78,-4772.51C1134.8,-4813.9 1400,-4908.5 1400,-4908.5 1400,-4908.5 1691.97,-4908.5 1831.68,-4908.5"/>
<polygon fill="#000000" stroke="#000000" points="1831.88,-4912 1841.88,-4908.5 1831.88,-4905 1831.88,-4912"/>
<text text-anchor="middle" x="1412.5" y="-4911.5" font-family="monospace" font-size="10.00">owns</text>
</g>
<!-- lightning_signer::LazyNodeIndex::query_nonce -->
<g id="node4" class="node">
<title>lightning_signer::LazyNodeIndex::query_nonce</title>
<polygon fill="#f8c04c" stroke="black" points="1818,-4734.5 1818,-4772.5 1991,-4772.5 1991,-4734.5 1818,-4734.5"/>
<text text-anchor="middle" x="1904.5" y="-4760.5" font-family="monospace" font-size="10.00">pub(crate) fn</text>
<polyline fill="none" stroke="black" points="1818,-4753.5 1991,-4753.5 "/>
<text text-anchor="middle" x="1904.5" y="-4741.5" font-family="monospace" font-size="10.00">LazyNodeIndex::query_nonce</text>
</g>
<!-- lightning_signer::LazyNodeIndex&#45;&gt;lightning_signer::LazyNodeIndex::query_nonce -->
<g id="edge8" class="edge">
<title>lightning_signer::LazyNodeIndex&#45;&gt;lightning_signer::LazyNodeIndex::query_nonce</title>
<path fill="none" stroke="#000000" d="M1025,-4753.5C1144,-4753.5 1400,-4753.5 1400,-4753.5 1400,-4753.5 1660.86,-4753.5 1807.42,-4753.5"/>
<polygon fill="#000000" stroke="#000000" points="1807.77,-4757 1817.77,-4753.5 1807.77,-4750 1807.77,-4757"/>
<text text-anchor="middle" x="1412.5" y="-4756.5" font-family="monospace" font-size="10.00">owns</text>
</g>
<!-- lightning_signer::LazyNodeIndex::new&#45;&gt;lightning_signer::LazyNodeIndex -->
<g id="edge9" class="edge">
<title>lightning_signer::LazyNodeIndex::new&#45;&gt;lightning_signer::LazyNodeIndex</title>
<path fill="none" stroke="#7f7f7f" stroke-dasharray="5,2" d="M1873.78,-4889.34C1767.95,-4823.35 1425,-4609.5 1425,-4609.5 1425,-4609.5 1163.25,-4691.53 1034.86,-4731.76"/>
<polygon fill="#7f7f7f" stroke="#7f7f7f" points="1033.6,-4728.49 1025.1,-4734.82 1035.69,-4735.17 1033.6,-4728.49"/>
<text text-anchor="middle" x="1412.5" y="-4601.5" font-family="monospace" font-size="10.00">uses</text>
</g>
<!-- lightning_signer::LazyNodeIndex::query_nonce&#45;&gt;lightning_signer::LazyNodeIndex -->
<g id="edge10" class="edge">
<title>lightning_signer::LazyNodeIndex::query_nonce&#45;&gt;lightning_signer::LazyNodeIndex</title>
<path fill="none" stroke="#7f7f7f" stroke-dasharray="5,2" d="M1873.78,-4734.34C1767.95,-4668.35 1425,-4454.5 1425,-4454.5 1425,-4454.5 1113.46,-4657.22 1003.43,-4728.82"/>
<polygon fill="#7f7f7f" stroke="#7f7f7f" points="1001.42,-4725.95 994.94,-4734.34 1005.23,-4731.82 1001.42,-4725.95"/>
<text text-anchor="middle" x="1412.5" y="-4446.5" font-family="monospace" font-size="10.00">uses</text>
</g>
<!-- lightning_signer::Signer::build_graph -->
<g id="node7" class="node">
<title>lightning_signer::Signer::build_graph</title>
<polygon fill="#f8c04c" stroke="black" points="1839,-3959.5 1839,-3997.5 1970,-3997.5 1970,-3959.5 1839,-3959.5"/>
<text text-anchor="middle" x="1904.5" y="-3985.5" font-family="monospace" font-size="10.00">pub(crate) fn</text>
<polyline fill="none" stroke="black" points="1839,-3978.5 1970,-3978.5 "/>
<text text-anchor="middle" x="1904.5" y="-3966.5" font-family="monospace" font-size="10.00">Signer::build_graph</text>
</g>
<!-- lightning_signer::Signer&#45;&gt;lightning_signer::Signer::build_graph -->
<g id="edge11" class="edge">
<title>lightning_signer::Signer&#45;&gt;lightning_signer::Signer::build_graph</title>
<path fill="none" stroke="#000000" d="M987.34,-3617.6C1075.45,-3694.66 1400,-3978.5 1400,-3978.5 1400,-3978.5 1687.6,-3978.5 1828.51,-3978.5"/>
<polygon fill="#000000" stroke="#000000" points="1828.8,-3982 1838.8,-3978.5 1828.8,-3975 1828.8,-3982"/>
<text text-anchor="middle" x="1412.5" y="-3981.5" font-family="monospace" font-size="10.00">owns</text>
</g>
<!-- lightning_signer::Signer::get_socket -->
<g id="node8" class="node">
<title>lightning_signer::Signer::get_socket</title>
<polygon fill="#f8c04c" stroke="black" points="1842,-3804.5 1842,-3842.5 1967,-3842.5 1967,-3804.5 1842,-3804.5"/>
<text text-anchor="middle" x="1904.5" y="-3830.5" font-family="monospace" font-size="10.00">pub(crate) fn</text>
<polyline fill="none" stroke="black" points="1842,-3823.5 1967,-3823.5 "/>
<text text-anchor="middle" x="1904.5" y="-3811.5" font-family="monospace" font-size="10.00">Signer::get_socket</text>
</g>
<!-- lightning_signer::Signer&#45;&gt;lightning_signer::Signer::get_socket -->
<g id="edge12" class="edge">
<title>lightning_signer::Signer&#45;&gt;lightning_signer::Signer::get_socket</title>
<path fill="none" stroke="#000000" d="M1002.55,-3617.68C1107.62,-3672.09 1400,-3823.5 1400,-3823.5 1400,-3823.5 1691.97,-3823.5 1831.68,-3823.5"/>
<polygon fill="#000000" stroke="#000000" points="1831.88,-3827 1841.88,-3823.5 1831.88,-3820 1831.88,-3827"/>
<text text-anchor="middle" x="1412.5" y="-3826.5" font-family="monospace" font-size="10.00">owns</text>
</g>
<!-- lightning_signer::Signer::init -->
<g id="node9" class="node">
<title>lightning_signer::Signer::init</title>
<polygon fill="#81c169" stroke="black" points="1860,-3649.5 1860,-3687.5 1949,-3687.5 1949,-3649.5 1860,-3649.5"/>
<text text-anchor="middle" x="1904.5" y="-3675.5" font-family="monospace" font-size="10.00">pub fn</text>
<polyline fill="none" stroke="black" points="1860,-3668.5 1949,-3668.5 "/>
<text text-anchor="middle" x="1904.5" y="-3656.5" font-family="monospace" font-size="10.00">Signer::init</text>
</g>
<!-- lightning_signer::Signer&#45;&gt;lightning_signer::Signer::init -->
<g id="edge13" class="edge">
<title>lightning_signer::Signer&#45;&gt;lightning_signer::Signer::init</title>
<path fill="none" stroke="#000000" d="M1004.06,-3604.71C1110.4,-3621.84 1400,-3668.5 1400,-3668.5 1400,-3668.5 1718.76,-3668.5 1849.53,-3668.5"/>
<polygon fill="#000000" stroke="#000000" points="1849.73,-3672 1859.73,-3668.5 1849.73,-3665 1849.73,-3672"/>
<text text-anchor="middle" x="1412.5" y="-3671.5" font-family="monospace" font-size="10.00">owns</text>
</g>
<!-- lightning_signer::Signer::start -->
<g id="node10" class="node">
<title>lightning_signer::Signer::start</title>
<polygon fill="#81c169" stroke="black" points="1857,-3494.5 1857,-3532.5 1952,-3532.5 1952,-3494.5 1857,-3494.5"/>
<text text-anchor="middle" x="1904.5" y="-3520.5" font-family="monospace" font-size="10.00">pub async fn</text>
<polyline fill="none" stroke="black" points="1857,-3513.5 1952,-3513.5 "/>
<text text-anchor="middle" x="1904.5" y="-3501.5" font-family="monospace" font-size="10.00">Signer::start</text>
</g>
<!-- lightning_signer::Signer&#45;&gt;lightning_signer::Signer::start -->
<g id="edge14" class="edge">
<title>lightning_signer::Signer&#45;&gt;lightning_signer::Signer::start</title>
<path fill="none" stroke="#000000" d="M1004.28,-3592.25C1115.06,-3574.41 1425,-3524.5 1425,-3524.5 1425,-3524.5 1718.74,-3517.76 1846.41,-3514.83"/>
<polygon fill="#000000" stroke="#000000" points="1846.85,-3518.32 1856.77,-3514.59 1846.69,-3511.33 1846.85,-3518.32"/>
<text text-anchor="middle" x="1412.5" y="-3516.5" font-family="monospace" font-size="10.00">owns</text>
</g>
<!-- lightning_signer::Signer&#45;&gt;lightning_signer::SignerWorker -->
<g id="edge15" class="edge">
<title>lightning_signer::Signer&#45;&gt;lightning_signer::SignerWorker</title>
<path fill="none" stroke="#7f7f7f" stroke-dasharray="5,2" d="M962.76,-3579.26C945.92,-3460.79 857,-2835.5 857,-2835.5 857,-2835.5 947.24,-1723.56 963.13,-1527.77"/>
<polygon fill="#7f7f7f" stroke="#7f7f7f" points="966.62,-1527.91 963.95,-1517.66 959.65,-1527.34 966.62,-1527.91"/>
<text text-anchor="middle" x="851.5" y="-2833" font-family="monospace" font-size="10.00">uses</text>
</g>
<!-- lightning_signer::Signer::get_socket&#45;&gt;lightning_signer::Signer -->
<g id="edge16" class="edge">
<title>lightning_signer::Signer::get_socket&#45;&gt;lightning_signer::Signer</title>
<path fill="none" stroke="#7f7f7f" stroke-dasharray="5,2" d="M1884.2,-3804.28C1792.94,-3717.87 1425,-3369.5 1425,-3369.5 1425,-3369.5 1130.49,-3516.27 1013.03,-3574.81"/>
<polygon fill="#7f7f7f" stroke="#7f7f7f" points="1011.28,-3571.78 1003.89,-3579.37 1014.4,-3578.04 1011.28,-3571.78"/>
<text text-anchor="middle" x="1412.5" y="-3361.5" font-family="monospace" font-size="10.00">uses</text>
</g>
<!-- lightning_signer::Signer::init&#45;&gt;lightning_signer::Signer -->
<g id="edge17" class="edge">
<title>lightning_signer::Signer::init&#45;&gt;lightning_signer::Signer</title>
<path fill="none" stroke="#7f7f7f" stroke-dasharray="5,2" d="M1884.2,-3649.28C1792.94,-3562.87 1425,-3214.5 1425,-3214.5 1425,-3214.5 1098.91,-3487.01 996.13,-3572.9"/>
<polygon fill="#7f7f7f" stroke="#7f7f7f" points="993.72,-3570.36 988.29,-3579.46 998.2,-3575.73 993.72,-3570.36"/>
<text text-anchor="middle" x="1412.5" y="-3206.5" font-family="monospace" font-size="10.00">uses</text>
</g>
<!-- lightning_signer::Signer::init&#45;&gt;lightning_signer::SignerState -->
<g id="edge18" class="edge">
<title>lightning_signer::Signer::init&#45;&gt;lightning_signer::SignerState</title>
<path fill="none" stroke="#7f7f7f" stroke-dasharray="5,2" d="M1892.41,-3649.23C1817.96,-3530.61 1425,-2904.5 1425,-2904.5 1425,-2904.5 1116.33,-2712.38 1004.97,-2643.06"/>
<polygon fill="#7f7f7f" stroke="#7f7f7f" points="1006.7,-2640.02 996.36,-2637.71 1003,-2645.97 1006.7,-2640.02"/>
<text text-anchor="middle" x="1412.5" y="-2896.5" font-family="monospace" font-size="10.00">uses</text>
</g>
<!-- lightning_signer::Signer::init&#45;&gt;lightning_signer::SignerWorker -->
<g id="edge19" class="edge">
<title>lightning_signer::Signer::init&#45;&gt;lightning_signer::SignerWorker</title>
<path fill="none" stroke="#7f7f7f" stroke-dasharray="5,2" d="M1899.52,-3649.29C1848.63,-3453.07 1425,-1819.5 1425,-1819.5 1425,-1819.5 1109.13,-1598.84 1001.17,-1523.42"/>
<polygon fill="#7f7f7f" stroke="#7f7f7f" points="1003.07,-1520.48 992.87,-1517.62 999.06,-1526.21 1003.07,-1520.48"/>
<text text-anchor="middle" x="1412.5" y="-1811.5" font-family="monospace" font-size="10.00">uses</text>
</g>
<!-- lightning_signer::Signer::start&#45;&gt;lightning_signer::LazyNodeIndex -->
<g id="edge20" class="edge">
<title>lightning_signer::Signer::start&#45;&gt;lightning_signer::LazyNodeIndex</title>
<path fill="none" stroke="#7f7f7f" stroke-dasharray="5,2" d="M1892.03,-3532.66C1814.34,-3652 1400,-4288.5 1400,-4288.5 1400,-4288.5 1082.53,-4628.25 990.33,-4726.93"/>
<polygon fill="#7f7f7f" stroke="#7f7f7f" points="987.61,-4724.71 983.34,-4734.4 992.73,-4729.49 987.61,-4724.71"/>
<text text-anchor="middle" x="1412.5" y="-4291.5" font-family="monospace" font-size="10.00">uses</text>
</g>
<!-- lightning_signer::Signer::start&#45;&gt;lightning_signer::Signer -->
<g id="edge21" class="edge">
<title>lightning_signer::Signer::start&#45;&gt;lightning_signer::Signer</title>
<path fill="none" stroke="#7f7f7f" stroke-dasharray="5,2" d="M1884.2,-3494.28C1792.94,-3407.87 1425,-3059.5 1425,-3059.5 1425,-3059.5 1081.82,-3462.05 988.62,-3571.38"/>
<polygon fill="#7f7f7f" stroke="#7f7f7f" points="985.68,-3569.44 981.85,-3579.32 991,-3573.98 985.68,-3569.44"/>
<text text-anchor="middle" x="1412.5" y="-3051.5" font-family="monospace" font-size="10.00">uses</text>
</g>
<!-- lightning_signer::Signer::start&#45;&gt;lightning_signer::SignerWorker -->
<g id="edge22" class="edge">
<title>lightning_signer::Signer::start&#45;&gt;lightning_signer::SignerWorker</title>
<path fill="none" stroke="#7f7f7f" stroke-dasharray="5,2" d="M1899.52,-3494.29C1848.63,-3298.07 1425,-1664.5 1425,-1664.5 1425,-1664.5 1153.25,-1566.33 1027.72,-1520.98"/>
<polygon fill="#7f7f7f" stroke="#7f7f7f" points="1028.8,-1517.65 1018.21,-1517.54 1026.43,-1524.23 1028.8,-1517.65"/>
<text text-anchor="middle" x="1412.5" y="-1656.5" font-family="monospace" font-size="10.00">uses</text>
</g>
<!-- lightning_signer::SignerState::init_state -->
<g id="node12" class="node">
<title>lightning_signer::SignerState::init_state</title>
<polygon fill="#f8c04c" stroke="black" points="1827,-2719.5 1827,-2757.5 1982,-2757.5 1982,-2719.5 1827,-2719.5"/>
<text text-anchor="middle" x="1904.5" y="-2745.5" font-family="monospace" font-size="10.00">pub(crate) fn</text>
<polyline fill="none" stroke="black" points="1827,-2738.5 1982,-2738.5 "/>
<text text-anchor="middle" x="1904.5" y="-2726.5" font-family="monospace" font-size="10.00">SignerState::init_state</text>
</g>
<!-- lightning_signer::SignerState&#45;&gt;lightning_signer::SignerState::init_state -->
<g id="edge23" class="edge">
<title>lightning_signer::SignerState&#45;&gt;lightning_signer::SignerState::init_state</title>
<path fill="none" stroke="#000000" d="M1025,-2634.93C1144,-2667.8 1400,-2738.5 1400,-2738.5 1400,-2738.5 1672.05,-2738.5 1816.6,-2738.5"/>
<polygon fill="#000000" stroke="#000000" points="1816.78,-2742 1826.78,-2738.5 1816.78,-2735 1816.78,-2742"/>
<text text-anchor="middle" x="1412.5" y="-2741.5" font-family="monospace" font-size="10.00">owns</text>
</g>
<!-- lightning_signer::SignerState::sign_new_tx -->
<g id="node13" class="node">
<title>lightning_signer::SignerState::sign_new_tx</title>
<polygon fill="#f8c04c" stroke="black" points="1824,-2564.5 1824,-2602.5 1985,-2602.5 1985,-2564.5 1824,-2564.5"/>
<text text-anchor="middle" x="1904.5" y="-2590.5" font-family="monospace" font-size="10.00">pub(crate) async fn</text>
<polyline fill="none" stroke="black" points="1824,-2583.5 1985,-2583.5 "/>
<text text-anchor="middle" x="1904.5" y="-2571.5" font-family="monospace" font-size="10.00">SignerState::sign_new_tx</text>
</g>
<!-- lightning_signer::SignerState&#45;&gt;lightning_signer::SignerState::sign_new_tx -->
<g id="edge24" class="edge">
<title>lightning_signer::SignerState&#45;&gt;lightning_signer::SignerState::sign_new_tx</title>
<path fill="none" stroke="#000000" d="M1025.1,-2615.39C1149.43,-2608.89 1425,-2594.5 1425,-2594.5 1425,-2594.5 1674.74,-2588.77 1813.75,-2585.58"/>
<polygon fill="#000000" stroke="#000000" points="1814.06,-2589.08 1823.97,-2585.35 1813.89,-2582.08 1814.06,-2589.08"/>
<text text-anchor="middle" x="1412.5" y="-2586.5" font-family="monospace" font-size="10.00">owns</text>
</g>
<!-- lightning_signer::SignerState::sync_with_application -->
<g id="node14" class="node">
<title>lightning_signer::SignerState::sync_with_application</title>
<polygon fill="#f8c04c" stroke="black" points="1794,-2409.5 1794,-2447.5 2015,-2447.5 2015,-2409.5 1794,-2409.5"/>
<text text-anchor="middle" x="1904.5" y="-2435.5" font-family="monospace" font-size="10.00">pub(crate) async fn</text>
<polyline fill="none" stroke="black" points="1794,-2428.5 2015,-2428.5 "/>
<text text-anchor="middle" x="1904.5" y="-2416.5" font-family="monospace" font-size="10.00">SignerState::sync_with_application</text>
</g>
<!-- lightning_signer::SignerState&#45;&gt;lightning_signer::SignerState::sync_with_application -->
<g id="edge25" class="edge">
<title>lightning_signer::SignerState&#45;&gt;lightning_signer::SignerState::sync_with_application</title>
<path fill="none" stroke="#000000" d="M1014.67,-2599.34C1133.21,-2553.17 1425,-2439.5 1425,-2439.5 1425,-2439.5 1641.75,-2434.53 1783.8,-2431.27"/>
<polygon fill="#000000" stroke="#000000" points="1783.97,-2434.77 1793.89,-2431.04 1783.81,-2427.77 1783.97,-2434.77"/>
<text text-anchor="middle" x="1412.5" y="-2431.5" font-family="monospace" font-size="10.00">owns</text>
</g>
<!-- lightning_signer::SignerState::init_state&#45;&gt;lightning_signer::SignerState -->
<g id="edge26" class="edge">
<title>lightning_signer::SignerState::init_state&#45;&gt;lightning_signer::SignerState</title>
<path fill="none" stroke="#7f7f7f" stroke-dasharray="5,2" d="M1884.2,-2719.28C1792.94,-2632.87 1425,-2284.5 1425,-2284.5 1425,-2284.5 1106.95,-2515.68 1000.06,-2593.38"/>
<polygon fill="#7f7f7f" stroke="#7f7f7f" points="997.89,-2590.63 991.86,-2599.34 1002,-2596.29 997.89,-2590.63"/>
<text text-anchor="middle" x="1412.5" y="-2276.5" font-family="monospace" font-size="10.00">uses</text>
</g>
<!-- lightning_signer::SignerState::sign_new_tx&#45;&gt;lightning_signer::PendingTransaction -->
<g id="edge27" class="edge">
<title>lightning_signer::SignerState::sign_new_tx&#45;&gt;lightning_signer::PendingTransaction</title>
<path fill="none" stroke="#7f7f7f" stroke-dasharray="5,2" d="M1898.3,-2602.54C1840.64,-2779.7 1400,-4133.5 1400,-4133.5 1400,-4133.5 1086.76,-3827.83 992.2,-3735.56"/>
<polygon fill="#7f7f7f" stroke="#7f7f7f" points="994.62,-3733.02 985.01,-3728.54 989.73,-3738.03 994.62,-3733.02"/>
<text text-anchor="middle" x="1412.5" y="-4136.5" font-family="monospace" font-size="10.00">uses</text>
</g>
<!-- lightning_signer::SignerState::sign_new_tx&#45;&gt;lightning_signer::SignerState -->
<g id="edge28" class="edge">
<title>lightning_signer::SignerState::sign_new_tx&#45;&gt;lightning_signer::SignerState</title>
<path fill="none" stroke="#7f7f7f" stroke-dasharray="5,2" d="M1884.2,-2564.28C1792.94,-2477.87 1425,-2129.5 1425,-2129.5 1425,-2129.5 1086.34,-2489.9 990.5,-2591.9"/>
<polygon fill="#7f7f7f" stroke="#7f7f7f" points="987.81,-2589.65 983.51,-2599.33 992.91,-2594.44 987.81,-2589.65"/>
<text text-anchor="middle" x="1412.5" y="-2121.5" font-family="monospace" font-size="10.00">uses</text>
</g>
<!-- lightning_signer::SignerState::sync_with_application&#45;&gt;lightning_signer::SignerState -->
<g id="edge29" class="edge">
<title>lightning_signer::SignerState::sync_with_application&#45;&gt;lightning_signer::SignerState</title>
<path fill="none" stroke="#7f7f7f" stroke-dasharray="5,2" d="M1884.2,-2409.28C1792.94,-2322.87 1425,-1974.5 1425,-1974.5 1425,-1974.5 1072.81,-2468.1 985.1,-2591.03"/>
<polygon fill="#7f7f7f" stroke="#7f7f7f" points="982.21,-2589.05 979.25,-2599.23 987.91,-2593.12 982.21,-2589.05"/>
<text text-anchor="middle" x="1412.5" y="-1966.5" font-family="monospace" font-size="10.00">uses</text>
</g>
<!-- lightning_signer::SignerWorker::Request -->
<g id="node16" class="node">
<title>lightning_signer::SignerWorker::Request</title>
<polygon fill="#f8c04c" stroke="black" points="1833,-1479.5 1833,-1517.5 1976,-1517.5 1976,-1479.5 1833,-1479.5"/>
<text text-anchor="middle" x="1904.5" y="-1505.5" font-family="monospace" font-size="10.00">pub(crate) type</text>
<polyline fill="none" stroke="black" points="1833,-1498.5 1976,-1498.5 "/>
<text text-anchor="middle" x="1904.5" y="-1486.5" font-family="monospace" font-size="10.00">SignerWorker::Request</text>
</g>
<!-- lightning_signer::SignerWorker&#45;&gt;lightning_signer::SignerWorker::Request -->
<g id="edge30" class="edge">
<title>lightning_signer::SignerWorker&#45;&gt;lightning_signer::SignerWorker::Request</title>
<path fill="none" stroke="#000000" d="M1025,-1498.5C1144,-1498.5 1400,-1498.5 1400,-1498.5 1400,-1498.5 1679.87,-1498.5 1822.71,-1498.5"/>
<polygon fill="#000000" stroke="#000000" points="1822.75,-1502 1832.75,-1498.5 1822.75,-1495 1822.75,-1502"/>
<text text-anchor="middle" x="1412.5" y="-1501.5" font-family="monospace" font-size="10.00">owns</text>
</g>
<!-- lightning_signer::SignerWorker::Response -->
<g id="node17" class="node">
<title>lightning_signer::SignerWorker::Response</title>
<polygon fill="#f8c04c" stroke="black" points="1830,-1324.5 1830,-1362.5 1979,-1362.5 1979,-1324.5 1830,-1324.5"/>
<text text-anchor="middle" x="1904.5" y="-1350.5" font-family="monospace" font-size="10.00">pub(crate) type</text>
<polyline fill="none" stroke="black" points="1830,-1343.5 1979,-1343.5 "/>
<text text-anchor="middle" x="1904.5" y="-1331.5" font-family="monospace" font-size="10.00">SignerWorker::Response</text>
</g>
<!-- lightning_signer::SignerWorker&#45;&gt;lightning_signer::SignerWorker::Response -->
<g id="edge31" class="edge">
<title>lightning_signer::SignerWorker&#45;&gt;lightning_signer::SignerWorker::Response</title>
<path fill="none" stroke="#000000" d="M1025.1,-1479.82C1149.43,-1440.86 1425,-1354.5 1425,-1354.5 1425,-1354.5 1682.04,-1348.6 1819.73,-1345.44"/>
<polygon fill="#000000" stroke="#000000" points="1819.92,-1348.94 1829.84,-1345.21 1819.76,-1341.94 1819.92,-1348.94"/>
<text text-anchor="middle" x="1412.5" y="-1346.5" font-family="monospace" font-size="10.00">owns</text>
</g>
<!-- lightning_signer::SignerWorker::handle -->
<g id="node18" class="node">
<title>lightning_signer::SignerWorker::handle</title>
<polygon fill="#f8c04c" stroke="black" points="1836,-1169.5 1836,-1207.5 1973,-1207.5 1973,-1169.5 1836,-1169.5"/>
<text text-anchor="middle" x="1904.5" y="-1195.5" font-family="monospace" font-size="10.00">pub(crate) async fn</text>
<polyline fill="none" stroke="black" points="1836,-1188.5 1973,-1188.5 "/>
<text text-anchor="middle" x="1904.5" y="-1176.5" font-family="monospace" font-size="10.00">SignerWorker::handle</text>
</g>
<!-- lightning_signer::SignerWorker&#45;&gt;lightning_signer::SignerWorker::handle -->
<g id="edge32" class="edge">
<title>lightning_signer::SignerWorker&#45;&gt;lightning_signer::SignerWorker::handle</title>
<path fill="none" stroke="#000000" d="M994.94,-1479.34C1096.36,-1413.35 1425,-1199.5 1425,-1199.5 1425,-1199.5 1689.26,-1193.44 1825.43,-1190.31"/>
<polygon fill="#000000" stroke="#000000" points="1825.88,-1193.8 1835.8,-1190.08 1825.72,-1186.81 1825.88,-1193.8"/>
<text text-anchor="middle" x="1412.5" y="-1191.5" font-family="monospace" font-size="10.00">owns</text>
</g>
<!-- lightning_signer::SignerWorker::handle&#45;&gt;lightning_signer::SignerWorker -->
<g id="edge33" class="edge">
<title>lightning_signer::SignerWorker::handle&#45;&gt;lightning_signer::SignerWorker</title>
<path fill="none" stroke="#7f7f7f" stroke-dasharray="5,2" d="M1840.83,-1169.38C1710.39,-1130.21 1425,-1044.5 1425,-1044.5 1425,-1044.5 1090.09,-1375.4 992.12,-1472.2"/>
<polygon fill="#7f7f7f" stroke="#7f7f7f" points="989.6,-1469.76 984.95,-1479.28 994.52,-1474.74 989.6,-1469.76"/>
<text text-anchor="middle" x="1412.5" y="-1036.5" font-family="monospace" font-size="10.00">uses</text>
</g>
<!-- lightning_signer::new_block_task&#45;&gt;lightning_signer::LazyNodeIndex -->
<g id="edge34" class="edge">
<title>lightning_signer::new_block_task&#45;&gt;lightning_signer::LazyNodeIndex</title>
<path fill="none" stroke="#7f7f7f" stroke-dasharray="5,2" d="M964.76,-38.86C955.26,-288.66 857,-2872.5 857,-2872.5 857,-2872.5 950.08,-4486.09 963.81,-4724.27"/>
<polygon fill="#7f7f7f" stroke="#7f7f7f" points="960.32,-4724.49 964.39,-4734.27 967.31,-4724.09 960.32,-4724.49"/>
<text text-anchor="middle" x="851.5" y="-2870" font-family="monospace" font-size="10.00">uses</text>
</g>
<!-- lightning_signer::new_block_task&#45;&gt;lightning_signer::SignerWorker -->
<g id="edge35" class="edge">
<title>lightning_signer::new_block_task&#45;&gt;lightning_signer::SignerWorker</title>
</g>
</g>
</svg>
