<?xml version="1.0" encoding="UTF-8" standalone="no"?>
<!DOCTYPE svg PUBLIC "-//W3C//DTD SVG 1.1//EN"
 "http://www.w3.org/Graphics/SVG/1.1/DTD/svg11.dtd">
<!-- Generated by graphviz version 4.0.0 (0)
 -->
<!-- Pages: 1 -->
<svg width="1132pt" height="1057pt"
 viewBox="0.00 0.00 1131.59 1057.26" xmlns="http://www.w3.org/2000/svg" xmlns:xlink="http://www.w3.org/1999/xlink">
<g id="graph0" class="graph" transform="scale(1 1) rotate(0) translate(28.8 1028.46)">
<polygon fill="white" stroke="transparent" points="-28.8,28.8 -28.8,-1028.46 1102.79,-1028.46 1102.79,28.8 -28.8,28.8"/>
<text text-anchor="middle" x="537" y="-966.86" font-family="Helvetica,sans-Serif" font-size="36.00">lightning_forwarder</text>
<!-- lightning_forwarder -->
<g id="node1" class="node">
<title>lightning_forwarder</title>
<polygon fill="#5397c8" stroke="black" points="322.33,-503.84 322.33,-541.84 453.33,-541.84 453.33,-503.84 322.33,-503.84"/>
<text text-anchor="middle" x="387.83" y="-529.84" font-family="monospace" font-size="10.00">crate</text>
<polyline fill="none" stroke="black" points="322.33,-522.84 453.33,-522.84 "/>
<text text-anchor="middle" x="387.83" y="-510.84" font-family="monospace" font-size="10.00">lightning_forwarder</text>
</g>
<!-- lightning_forwarder::config::ForwarderConfig -->
<g id="node2" class="node">
<title>lightning_forwarder::config::ForwarderConfig</title>
<polygon fill="#81c169" stroke="black" points="455,-456.83 455,-494.83 610,-494.83 610,-456.83 455,-456.83"/>
<text text-anchor="middle" x="532.5" y="-482.83" font-family="monospace" font-size="10.00">pub struct</text>
<polyline fill="none" stroke="black" points="455,-475.83 610,-475.83 "/>
<text text-anchor="middle" x="532.5" y="-463.83" font-family="monospace" font-size="10.00">config::ForwarderConfig</text>
</g>
<!-- lightning_forwarder&#45;&gt;lightning_forwarder::config::ForwarderConfig -->
<g id="edge1" class="edge">
<title>lightning_forwarder&#45;&gt;lightning_forwarder::config::ForwarderConfig</title>
<path fill="none" stroke="#000000" d="M453.61,-529.32C477.02,-523.39 501.34,-513.21 516.81,-501.96"/>
<polygon fill="#000000" stroke="#000000" points="519.42,-504.34 524.83,-495.23 514.92,-498.98 519.42,-504.34"/>
<text text-anchor="middle" x="472.71" y="-518.64" font-family="monospace" font-size="10.00">owns</text>
</g>
<!-- lightning_forwarder&#45;&gt;lightning_forwarder::config::ForwarderConfig -->
<g id="edge2" class="edge">
<title>lightning_forwarder&#45;&gt;lightning_forwarder::config::ForwarderConfig</title>
<path fill="none" stroke="#7f7f7f" stroke-dasharray="5,2" d="M395.25,-503.69C405.56,-493.3 424.63,-483.25 445.36,-475.85"/>
<polygon fill="#7f7f7f" stroke="#7f7f7f" points="446.6,-479.13 454.98,-472.65 444.39,-472.49 446.6,-479.13"/>
<text text-anchor="middle" x="407.8" y="-492.77" font-family="monospace" font-size="10.00">uses</text>
</g>
<!-- lightning_forwarder::forwarder::Forwarder -->
<g id="node3" class="node">
<title>lightning_forwarder::forwarder::Forwarder</title>
<polygon fill="#81c169" stroke="black" points="710.12,-635.65 710.12,-673.65 847.12,-673.65 847.12,-635.65 710.12,-635.65"/>
<text text-anchor="middle" x="778.62" y="-661.65" font-family="monospace" font-size="10.00">pub struct</text>
<polyline fill="none" stroke="black" points="710.12,-654.65 847.12,-654.65 "/>
<text text-anchor="middle" x="778.62" y="-642.65" font-family="monospace" font-size="10.00">forwarder::Forwarder</text>
</g>
<!-- lightning_forwarder&#45;&gt;lightning_forwarder::forwarder::Forwarder -->
<g id="edge3" class="edge">
<title>lightning_forwarder&#45;&gt;lightning_forwarder::forwarder::Forwarder</title>
<path fill="none" stroke="#000000" d="M404.17,-541.96C454.19,-574.98 605.88,-629.15 700.22,-650.83"/>
<polygon fill="#000000" stroke="#000000" points="699.49,-654.26 710.01,-653.01 701.01,-647.42 699.49,-654.26"/>
<text text-anchor="middle" x="539.69" y="-599.4" font-family="monospace" font-size="10.00">owns</text>
</g>
<!-- lightning_forwarder&#45;&gt;lightning_forwarder::forwarder::Forwarder -->
<g id="edge4" class="edge">
<title>lightning_forwarder&#45;&gt;lightning_forwarder::forwarder::Forwarder</title>
<path fill="none" stroke="#7f7f7f" stroke-dasharray="5,2" d="M453.59,-523.87C541.72,-542.32 693.66,-595.27 753.55,-630.13"/>
<polygon fill="#7f7f7f" stroke="#7f7f7f" points="752,-633.29 762.35,-635.57 755.68,-627.34 752,-633.29"/>
<text text-anchor="middle" x="591.07" y="-580" font-family="monospace" font-size="10.00">uses</text>
</g>
<!-- lightning_forwarder::worker::Worker -->
<g id="node7" class="node">
<title>lightning_forwarder::worker::Worker</title>
<polygon fill="#81c169" stroke="black" points="192.67,-362.82 192.67,-400.82 293.67,-400.82 293.67,-362.82 192.67,-362.82"/>
<text text-anchor="middle" x="243.17" y="-388.82" font-family="monospace" font-size="10.00">pub struct</text>
<polyline fill="none" stroke="black" points="192.67,-381.82 293.67,-381.82 "/>
<text text-anchor="middle" x="243.17" y="-369.82" font-family="monospace" font-size="10.00">worker::Worker</text>
</g>
<!-- lightning_forwarder&#45;&gt;lightning_forwarder::worker::Worker -->
<g id="edge5" class="edge">
<title>lightning_forwarder&#45;&gt;lightning_forwarder::worker::Worker</title>
<path fill="none" stroke="#000000" d="M388.4,-503.71C378.38,-476.87 338.15,-432.7 302.02,-404.69"/>
<polygon fill="#000000" stroke="#000000" points="304.02,-401.81 293.91,-398.63 299.83,-407.42 304.02,-401.81"/>
<text text-anchor="middle" x="332.71" y="-457.2" font-family="monospace" font-size="10.00">owns</text>
</g>
<!-- lightning_forwarder&#45;&gt;lightning_forwarder::worker::Worker -->
<g id="edge6" class="edge">
<title>lightning_forwarder&#45;&gt;lightning_forwarder::worker::Worker</title>
<path fill="none" stroke="#7f7f7f" stroke-dasharray="5,2" d="M333.86,-503.67C300.32,-478.79 261.78,-438.3 246.74,-409.99"/>
<polygon fill="#7f7f7f" stroke="#7f7f7f" points="249.92,-408.53 242.58,-400.89 243.55,-411.44 249.92,-408.53"/>
<text text-anchor="middle" x="277.8" y="-459.83" font-family="monospace" font-size="10.00">uses</text>
</g>
<!-- lightning_forwarder::forwarder::Forwarder::Config -->
<g id="node4" class="node">
<title>lightning_forwarder::forwarder::Forwarder::Config</title>
<polygon fill="#db5367" stroke="black" points="584.66,-409.83 584.66,-447.83 769.66,-447.83 769.66,-409.83 584.66,-409.83"/>
<text text-anchor="middle" x="677.16" y="-435.83" font-family="monospace" font-size="10.00">pub(self) type</text>
<polyline fill="none" stroke="black" points="584.66,-428.83 769.66,-428.83 "/>
<text text-anchor="middle" x="677.16" y="-416.83" font-family="monospace" font-size="10.00">forwarder::Forwarder::Config</text>
</g>
<!-- lightning_forwarder::forwarder::Forwarder&#45;&gt;lightning_forwarder::forwarder::Forwarder::Config -->
<g id="edge7" class="edge">
<title>lightning_forwarder::forwarder::Forwarder&#45;&gt;lightning_forwarder::forwarder::Forwarder::Config</title>
<path fill="none" stroke="#000000" d="M769.97,-635.39C752.07,-595.56 710.91,-503.95 689.94,-457.27"/>
<polygon fill="#000000" stroke="#000000" points="693.08,-455.72 685.79,-448.03 686.7,-458.59 693.08,-455.72"/>
<text text-anchor="middle" x="717.45" y="-549.33" font-family="monospace" font-size="10.00">owns</text>
</g>
<!-- lightning_forwarder::forwarder::Forwarder::build_graph -->
<g id="node5" class="node">
<title>lightning_forwarder::forwarder::Forwarder::build_graph</title>
<polygon fill="#db5367" stroke="black" points="858.99,-597.85 858.99,-635.85 1073.99,-635.85 1073.99,-597.85 858.99,-597.85"/>
<text text-anchor="middle" x="966.49" y="-623.85" font-family="monospace" font-size="10.00">pub(self) fn</text>
<polyline fill="none" stroke="black" points="858.99,-616.85 1073.99,-616.85 "/>
<text text-anchor="middle" x="966.49" y="-604.85" font-family="monospace" font-size="10.00">forwarder::Forwarder::build_graph</text>
</g>
<!-- lightning_forwarder::forwarder::Forwarder&#45;&gt;lightning_forwarder::forwarder::Forwarder::build_graph -->
<g id="edge8" class="edge">
<title>lightning_forwarder::forwarder::Forwarder&#45;&gt;lightning_forwarder::forwarder::Forwarder::build_graph</title>
<path fill="none" stroke="#000000" d="M847.29,-667.05C881.37,-663.2 920.22,-653.25 944.1,-641.15"/>
<polygon fill="#000000" stroke="#000000" points="946.11,-644.03 953.06,-636.04 942.64,-637.95 946.11,-644.03"/>
<text text-anchor="middle" x="883.19" y="-657.1" font-family="monospace" font-size="10.00">owns</text>
</g>
<!-- lightning_forwarder::forwarder::Forwarder::mempool_socket -->
<g id="node6" class="node">
<title>lightning_forwarder::forwarder::Forwarder::mempool_socket</title>
<polygon fill="#db5367" stroke="black" points="684.22,-826.01 684.22,-864.01 917.22,-864.01 917.22,-826.01 684.22,-826.01"/>
<text text-anchor="middle" x="800.72" y="-852.01" font-family="monospace" font-size="10.00">pub(self) fn</text>
<polyline fill="none" stroke="black" points="684.22,-845.01 917.22,-845.01 "/>
<text text-anchor="middle" x="800.72" y="-833.01" font-family="monospace" font-size="10.00">forwarder::Forwarder::mempool_socket</text>
</g>
<!-- lightning_forwarder::forwarder::Forwarder&#45;&gt;lightning_forwarder::forwarder::Forwarder::mempool_socket -->
<g id="edge9" class="edge">
<title>lightning_forwarder::forwarder::Forwarder&#45;&gt;lightning_forwarder::forwarder::Forwarder::mempool_socket</title>
<path fill="none" stroke="#000000" d="M764.41,-673.76C755.55,-707.45 762.28,-777.41 776.82,-816.71"/>
<polygon fill="#000000" stroke="#000000" points="773.61,-818.11 780.68,-826 780.07,-815.42 773.61,-818.11"/>
<text text-anchor="middle" x="758.11" y="-748.23" font-family="monospace" font-size="10.00">owns</text>
</g>
<!-- lightning_forwarder::forwarder::Forwarder::Config&#45;&gt;lightning_forwarder::config::ForwarderConfig -->
<g id="edge10" class="edge">
<title>lightning_forwarder::forwarder::Forwarder::Config&#45;&gt;lightning_forwarder::config::ForwarderConfig</title>
<path fill="none" stroke="#7f7f7f" stroke-dasharray="5,2" d="M618.32,-447.95C612.61,-449.8 606.78,-451.7 600.98,-453.58"/>
<polygon fill="#7f7f7f" stroke="#7f7f7f" points="599.71,-450.31 591.29,-456.73 601.88,-456.97 599.71,-450.31"/>
<text text-anchor="middle" x="622.15" y="-453.76" font-family="monospace" font-size="10.00">uses</text>
</g>
<!-- lightning_forwarder::forwarder::Forwarder::build_graph&#45;&gt;lightning_forwarder::forwarder::Forwarder -->
<g id="edge11" class="edge">
<title>lightning_forwarder::forwarder::Forwarder::build_graph&#45;&gt;lightning_forwarder::forwarder::Forwarder</title>
<path fill="none" stroke="#7f7f7f" stroke-dasharray="5,2" d="M858.73,-611.09C836.71,-616.04 815.73,-622.84 800.73,-630.49"/>
<polygon fill="#7f7f7f" stroke="#7f7f7f" points="798.72,-627.6 791.8,-635.62 802.21,-633.67 798.72,-627.6"/>
<text text-anchor="middle" x="817.23" y="-623.79" font-family="monospace" font-size="10.00">uses</text>
</g>
<!-- lightning_forwarder::forwarder::Forwarder::build_graph&#45;&gt;lightning_forwarder::worker::Worker -->
<g id="edge12" class="edge">
<title>lightning_forwarder::forwarder::Forwarder::build_graph&#45;&gt;lightning_forwarder::worker::Worker</title>
<path fill="none" stroke="#7f7f7f" stroke-dasharray="5,2" d="M907.91,-597.81C772.89,-553.94 440.92,-446.08 303.87,-401.55"/>
<polygon fill="#7f7f7f" stroke="#7f7f7f" points="304.54,-398.08 293.95,-398.32 302.38,-404.74 304.54,-398.08"/>
<text text-anchor="middle" x="593.39" y="-502.68" font-family="monospace" font-size="10.00">uses</text>
</g>
<!-- lightning_forwarder::forwarder::Forwarder::mempool_socket&#45;&gt;lightning_forwarder::forwarder::Forwarder -->
<g id="edge13" class="edge">
<title>lightning_forwarder::forwarder::Forwarder::mempool_socket&#45;&gt;lightning_forwarder::forwarder::Forwarder</title>
<path fill="none" stroke="#7f7f7f" stroke-dasharray="5,2" d="M814.93,-825.9C823.79,-792.21 817.06,-722.25 802.52,-682.95"/>
<polygon fill="#7f7f7f" stroke="#7f7f7f" points="805.73,-681.55 798.66,-673.66 799.26,-684.24 805.73,-681.55"/>
<text text-anchor="middle" x="796.23" y="-757.42" font-family="monospace" font-size="10.00">uses</text>
</g>
<!-- lightning_forwarder::worker::Worker::Request -->
<g id="node8" class="node">
<title>lightning_forwarder::worker::Worker::Request</title>
<polygon fill="#db5367" stroke="black" points="455,-913.16 455,-951.16 610,-951.16 610,-913.16 455,-913.16"/>
<text text-anchor="middle" x="532.5" y="-939.16" font-family="monospace" font-size="10.00">pub(self) type</text>
<polyline fill="none" stroke="black" points="455,-932.16 610,-932.16 "/>
<text text-anchor="middle" x="532.5" y="-920.16" font-family="monospace" font-size="10.00">worker::Worker::Request</text>
</g>
<!-- lightning_forwarder::worker::Worker&#45;&gt;lightning_forwarder::worker::Worker::Request -->
<g id="edge14" class="edge">
<title>lightning_forwarder::worker::Worker&#45;&gt;lightning_forwarder::worker::Worker::Request</title>
<path fill="none" stroke="#000000" d="M253.29,-401.09C296.61,-483.48 466.41,-806.46 517.73,-904.07"/>
<polygon fill="#000000" stroke="#000000" points="514.7,-905.83 522.45,-913.05 520.9,-902.57 514.7,-905.83"/>
<text text-anchor="middle" x="373.01" y="-655.58" font-family="monospace" font-size="10.00">owns</text>
</g>
<!-- lightning_forwarder::worker::Worker::Response -->
<g id="node9" class="node">
<title>lightning_forwarder::worker::Worker::Response</title>
<polygon fill="#db5367" stroke="black" points="183.77,-826.01 183.77,-864.01 344.77,-864.01 344.77,-826.01 183.77,-826.01"/>
<text text-anchor="middle" x="264.27" y="-852.01" font-family="monospace" font-size="10.00">pub(self) type</text>
<polyline fill="none" stroke="black" points="183.77,-845.01 344.77,-845.01 "/>
<text text-anchor="middle" x="264.27" y="-833.01" font-family="monospace" font-size="10.00">worker::Worker::Response</text>
</g>
<!-- lightning_forwarder::worker::Worker&#45;&gt;lightning_forwarder::worker::Worker::Response -->
<g id="edge15" class="edge">
<title>lightning_forwarder::worker::Worker&#45;&gt;lightning_forwarder::worker::Worker::Response</title>
<path fill="none" stroke="#000000" d="M244.03,-400.84C247.31,-472.76 258.96,-728.36 262.93,-815.59"/>
<polygon fill="#000000" stroke="#000000" points="259.45,-816 263.4,-825.83 266.44,-815.68 259.45,-816"/>
<text text-anchor="middle" x="240.98" y="-611.22" font-family="monospace" font-size="10.00">owns</text>
</g>
<!-- lightning_forwarder::worker::Worker::handle -->
<g id="node10" class="node">
<title>lightning_forwarder::worker::Worker::handle</title>
<polygon fill="#db5367" stroke="black" points="24,-597.85 24,-635.85 173,-635.85 173,-597.85 24,-597.85"/>
<text text-anchor="middle" x="98.5" y="-623.85" font-family="monospace" font-size="10.00">pub(self) async fn</text>
<polyline fill="none" stroke="black" points="24,-616.85 173,-616.85 "/>
<text text-anchor="middle" x="98.5" y="-604.85" font-family="monospace" font-size="10.00">worker::Worker::handle</text>
</g>
<!-- lightning_forwarder::worker::Worker&#45;&gt;lightning_forwarder::worker::Worker::handle -->
<g id="edge16" class="edge">
<title>lightning_forwarder::worker::Worker&#45;&gt;lightning_forwarder::worker::Worker::handle</title>
<path fill="none" stroke="#000000" d="M209.71,-400.97C169.8,-442.69 111.72,-538.52 97.49,-587.71"/>
<polygon fill="#000000" stroke="#000000" points="94.02,-587.2 95.1,-597.74 100.82,-588.83 94.02,-587.2"/>
<text text-anchor="middle" x="141.1" y="-497.34" font-family="monospace" font-size="10.00">owns</text>
</g>
<!-- lightning_forwarder::worker::Worker::handle_forward -->
<g id="node11" class="node">
<title>lightning_forwarder::worker::Worker::handle_forward</title>
<polygon fill="#db5367" stroke="black" points="0,-315.82 0,-353.82 197,-353.82 197,-315.82 0,-315.82"/>
<text text-anchor="middle" x="98.5" y="-341.82" font-family="monospace" font-size="10.00">pub(self) async fn</text>
<polyline fill="none" stroke="black" points="0,-334.82 197,-334.82 "/>
<text text-anchor="middle" x="98.5" y="-322.82" font-family="monospace" font-size="10.00">worker::Worker::handle_forward</text>
</g>
<!-- lightning_forwarder::worker::Worker&#45;&gt;lightning_forwarder::worker::Worker::handle_forward -->
<g id="edge17" class="edge">
<title>lightning_forwarder::worker::Worker&#45;&gt;lightning_forwarder::worker::Worker::handle_forward</title>
<path fill="none" stroke="#000000" d="M235.75,-362.67C229.02,-355.89 218.56,-349.26 206.34,-343.41"/>
<polygon fill="#000000" stroke="#000000" points="207.72,-340.19 197.16,-339.3 204.86,-346.58 207.72,-340.19"/>
<text text-anchor="middle" x="233.55" y="-345.04" font-family="monospace" font-size="10.00">owns</text>
</g>
<!-- lightning_forwarder::worker::Worker::make_connections -->
<g id="node12" class="node">
<title>lightning_forwarder::worker::Worker::make_connections</title>
<polygon fill="#db5367" stroke="black" points="159.77,-87.65 159.77,-125.65 368.77,-125.65 368.77,-87.65 159.77,-87.65"/>
<text text-anchor="middle" x="264.27" y="-113.65" font-family="monospace" font-size="10.00">pub(self) async fn</text>
<polyline fill="none" stroke="black" points="159.77,-106.65 368.77,-106.65 "/>
<text text-anchor="middle" x="264.27" y="-94.65" font-family="monospace" font-size="10.00">worker::Worker::make_connections</text>
</g>
<!-- lightning_forwarder::worker::Worker&#45;&gt;lightning_forwarder::worker::Worker::make_connections -->
<g id="edge18" class="edge">
<title>lightning_forwarder::worker::Worker&#45;&gt;lightning_forwarder::worker::Worker::make_connections</title>
<path fill="none" stroke="#000000" d="M259.63,-362.73C278.61,-315.4 288.76,-192.46 279.19,-135.89"/>
<polygon fill="#000000" stroke="#000000" points="282.56,-134.9 277.09,-125.82 275.7,-136.33 282.56,-134.9"/>
<text text-anchor="middle" x="256.91" y="-252.31" font-family="monospace" font-size="10.00">owns</text>
</g>
<!-- lightning_forwarder::worker::Worker::new -->
<g id="node13" class="node">
<title>lightning_forwarder::worker::Worker::new</title>
<polygon fill="#81c169" stroke="black" points="467,-0.5 467,-38.5 598,-38.5 598,-0.5 467,-0.5"/>
<text text-anchor="middle" x="532.5" y="-26.5" font-family="monospace" font-size="10.00">pub fn</text>
<polyline fill="none" stroke="black" points="467,-19.5 598,-19.5 "/>
<text text-anchor="middle" x="532.5" y="-7.5" font-family="monospace" font-size="10.00">worker::Worker::new</text>
</g>
<!-- lightning_forwarder::worker::Worker&#45;&gt;lightning_forwarder::worker::Worker::new -->
<g id="edge19" class="edge">
<title>lightning_forwarder::worker::Worker&#45;&gt;lightning_forwarder::worker::Worker::new</title>
<path fill="none" stroke="#000000" d="M278.18,-362.72C347.31,-301.95 491.74,-119.93 526.69,-48.06"/>
<polygon fill="#000000" stroke="#000000" points="530,-49.24 530.87,-38.68 523.6,-46.39 530,-49.24"/>
<text text-anchor="middle" x="389.93" y="-208.39" font-family="monospace" font-size="10.00">owns</text>
</g>
<!-- lightning_forwarder::worker::Worker::refresh_epoch -->
<g id="node14" class="node">
<title>lightning_forwarder::worker::Worker::refresh_epoch</title>
<polygon fill="#db5367" stroke="black" points="705.22,-87.65 705.22,-125.65 896.22,-125.65 896.22,-87.65 705.22,-87.65"/>
<text text-anchor="middle" x="800.72" y="-113.65" font-family="monospace" font-size="10.00">pub(self) fn</text>
<polyline fill="none" stroke="black" points="705.22,-106.65 896.22,-106.65 "/>
<text text-anchor="middle" x="800.72" y="-94.65" font-family="monospace" font-size="10.00">worker::Worker::refresh_epoch</text>
</g>
<!-- lightning_forwarder::worker::Worker&#45;&gt;lightning_forwarder::worker::Worker::refresh_epoch -->
<g id="edge20" class="edge">
<title>lightning_forwarder::worker::Worker&#45;&gt;lightning_forwarder::worker::Worker::refresh_epoch</title>
<path fill="none" stroke="#000000" d="M293.72,-374.01C410.79,-334.47 695.47,-192.98 778.17,-131.94"/>
<polygon fill="#000000" stroke="#000000" points="780.39,-134.65 786.18,-125.77 776.12,-129.1 780.39,-134.65"/>
<text text-anchor="middle" x="523.45" y="-255.98" font-family="monospace" font-size="10.00">owns</text>
</g>
<!-- lightning_forwarder::worker::Worker::handle&#45;&gt;lightning_forwarder::worker::Worker -->
<g id="edge21" class="edge">
<title>lightning_forwarder::worker::Worker::handle&#45;&gt;lightning_forwarder::worker::Worker</title>
<path fill="none" stroke="#7f7f7f" stroke-dasharray="5,2" d="M131.96,-597.7C171.87,-555.98 229.95,-460.14 244.17,-410.96"/>
<polygon fill="#7f7f7f" stroke="#7f7f7f" points="247.65,-411.47 246.57,-400.93 240.84,-409.84 247.65,-411.47"/>
<text text-anchor="middle" x="175.56" y="-507.33" font-family="monospace" font-size="10.00">uses</text>
</g>
<!-- lightning_forwarder::worker::Worker::handle_forward&#45;&gt;lightning_forwarder::worker::Worker -->
<g id="edge22" class="edge">
<title>lightning_forwarder::worker::Worker::handle_forward&#45;&gt;lightning_forwarder::worker::Worker</title>
<path fill="none" stroke="#7f7f7f" stroke-dasharray="5,2" d="M105.91,-353.96C120.59,-368.75 152.98,-382.83 182.69,-389.58"/>
<polygon fill="#7f7f7f" stroke="#7f7f7f" points="182.13,-393.04 192.63,-391.58 183.51,-386.18 182.13,-393.04"/>
<text text-anchor="middle" x="131.8" y="-374.77" font-family="monospace" font-size="10.00">uses</text>
</g>
<!-- lightning_forwarder::worker::Worker::make_connections&#45;&gt;lightning_forwarder::worker::Worker -->
<g id="edge23" class="edge">
<title>lightning_forwarder::worker::Worker::make_connections&#45;&gt;lightning_forwarder::worker::Worker</title>
<path fill="none" stroke="#7f7f7f" stroke-dasharray="5,2" d="M247.81,-125.74C228.83,-173.08 218.68,-296.01 228.25,-352.58"/>
<polygon fill="#7f7f7f" stroke="#7f7f7f" points="224.88,-353.58 230.35,-362.65 231.73,-352.15 224.88,-353.58"/>
<text text-anchor="middle" x="225.53" y="-242.16" font-family="monospace" font-size="10.00">uses</text>
</g>
<!-- lightning_forwarder::worker::Worker::new&#45;&gt;lightning_forwarder::worker::Worker -->
<g id="edge24" class="edge">
<title>lightning_forwarder::worker::Worker::new&#45;&gt;lightning_forwarder::worker::Worker</title>
<path fill="none" stroke="#7f7f7f" stroke-dasharray="5,2" d="M497.49,-38.6C428.35,-99.37 283.92,-281.39 248.98,-353.26"/>
<polygon fill="#7f7f7f" stroke="#7f7f7f" points="245.67,-352.09 244.79,-362.64 252.06,-354.94 245.67,-352.09"/>
<text text-anchor="middle" x="360.73" y="-198.93" font-family="monospace" font-size="10.00">uses</text>
</g>
<!-- lightning_forwarder::worker::Worker::refresh_epoch&#45;&gt;lightning_forwarder::worker::Worker -->
<g id="edge25" class="edge">
<title>lightning_forwarder::worker::Worker::refresh_epoch&#45;&gt;lightning_forwarder::worker::Worker</title>
<path fill="none" stroke="#7f7f7f" stroke-dasharray="5,2" d="M719.46,-125.65C589.41,-175.85 342.08,-300.22 265.8,-356.47"/>
<polygon fill="#7f7f7f" stroke="#7f7f7f" points="263.55,-353.78 257.76,-362.66 267.82,-359.33 263.55,-353.78"/>
<text text-anchor="middle" x="480.13" y="-244.06" font-family="monospace" font-size="10.00">uses</text>
</g>
</g>
</svg>
