<?xml version="1.0" encoding="UTF-8" standalone="no"?>
<!DOCTYPE svg PUBLIC "-//W3C//DTD SVG 1.1//EN"
 "http://www.w3.org/Graphics/SVG/1.1/DTD/svg11.dtd">
<!-- Generated by graphviz version 4.0.0 (0)
 -->
<!-- Pages: 1 -->
<svg width="456pt" height="472pt"
 viewBox="0.00 0.00 455.88 471.56" xmlns="http://www.w3.org/2000/svg" xmlns:xlink="http://www.w3.org/1999/xlink">
<g id="graph0" class="graph" transform="scale(1 1) rotate(0) translate(28.8 442.76)">
<polygon fill="white" stroke="transparent" points="-28.8,28.8 -28.8,-442.76 427.08,-442.76 427.08,28.8 -28.8,28.8"/>
<text text-anchor="middle" x="199.14" y="-381.16" font-family="Helvetica,sans-Serif" font-size="36.00">lightning_fetcher</text>
<!-- lightning_fetcher -->
<g id="node1" class="node">
<title>lightning_fetcher</title>
<polygon fill="#5397c8" stroke="black" points="188.77,-196.67 188.77,-234.67 307.77,-234.67 307.77,-196.67 188.77,-196.67"/>
<text text-anchor="middle" x="248.27" y="-222.67" font-family="monospace" font-size="10.00">crate</text>
<polyline fill="none" stroke="black" points="188.77,-215.67 307.77,-215.67 "/>
<text text-anchor="middle" x="248.27" y="-203.67" font-family="monospace" font-size="10.00">lightning_fetcher</text>
</g>
<!-- lightning_fetcher::config -->
<g id="node2" class="node">
<title>lightning_fetcher::config</title>
<polygon fill="#81c169" stroke="black" points="127.02,-131.28 127.02,-169.28 294.02,-169.28 294.02,-131.28 127.02,-131.28"/>
<text text-anchor="middle" x="210.52" y="-157.28" font-family="monospace" font-size="10.00">pub mod</text>
<polyline fill="none" stroke="black" points="127.02,-150.28 294.02,-150.28 "/>
<text text-anchor="middle" x="210.52" y="-138.28" font-family="monospace" font-size="10.00">lightning_fetcher::config</text>
</g>
<!-- lightning_fetcher&#45;&gt;lightning_fetcher::config -->
<g id="edge1" class="edge">
<title>lightning_fetcher&#45;&gt;lightning_fetcher::config</title>
<path fill="none" stroke="#000000" d="M237.15,-196.41C233.87,-190.74 230.22,-184.42 226.7,-178.32"/>
<polygon fill="#000000" stroke="#000000" points="229.72,-176.55 221.69,-169.64 223.66,-180.05 229.72,-176.55"/>
<text text-anchor="middle" x="219.42" y="-179.36" font-family="monospace" font-size="10.00">owns</text>
</g>
<!-- lightning_fetcher::fetcher -->
<g id="node3" class="node">
<title>lightning_fetcher::fetcher</title>
<polygon fill="#81c169" stroke="black" points="86.26,-65.89 86.26,-103.89 259.26,-103.89 259.26,-65.89 86.26,-65.89"/>
<text text-anchor="middle" x="172.76" y="-91.89" font-family="monospace" font-size="10.00">pub mod</text>
<polyline fill="none" stroke="black" points="86.26,-84.89 259.26,-84.89 "/>
<text text-anchor="middle" x="172.76" y="-72.89" font-family="monospace" font-size="10.00">lightning_fetcher::fetcher</text>
</g>
<!-- lightning_fetcher&#45;&gt;lightning_fetcher::fetcher -->
<g id="edge2" class="edge">
<title>lightning_fetcher&#45;&gt;lightning_fetcher::fetcher</title>
<path fill="none" stroke="#000000" d="M237.29,-196.66C224.54,-174.57 203.4,-137.95 188.81,-112.68"/>
<polygon fill="#000000" stroke="#000000" points="191.79,-110.84 183.75,-103.93 185.72,-114.34 191.79,-110.84"/>
<text text-anchor="middle" x="200.55" y="-157.67" font-family="monospace" font-size="10.00">owns</text>
</g>
<!-- lightning_fetcher::origin -->
<g id="node4" class="node">
<title>lightning_fetcher::origin</title>
<polygon fill="#f8c04c" stroke="black" points="202.52,-262.07 202.52,-300.07 369.52,-300.07 369.52,-262.07 202.52,-262.07"/>
<text text-anchor="middle" x="286.02" y="-288.07" font-family="monospace" font-size="10.00">pub(crate) mod</text>
<polyline fill="none" stroke="black" points="202.52,-281.07 369.52,-281.07 "/>
<text text-anchor="middle" x="286.02" y="-269.07" font-family="monospace" font-size="10.00">lightning_fetcher::origin</text>
</g>
<!-- lightning_fetcher&#45;&gt;lightning_fetcher::origin -->
<g id="edge3" class="edge">
<title>lightning_fetcher&#45;&gt;lightning_fetcher::origin</title>
<path fill="none" stroke="#000000" d="M259.39,-234.94C262.67,-240.61 266.32,-246.93 269.84,-253.03"/>
<polygon fill="#000000" stroke="#000000" points="266.82,-254.8 274.85,-261.71 272.88,-251.3 266.82,-254.8"/>
<text text-anchor="middle" x="252.11" y="-246.99" font-family="monospace" font-size="10.00">owns</text>
</g>
<!-- lightning_fetcher::fetcher&#45;&gt;lightning_fetcher::config -->
<g id="edge4" class="edge">
<title>lightning_fetcher::fetcher&#45;&gt;lightning_fetcher::config</title>
<path fill="none" stroke="#7f7f7f" stroke-dasharray="5,2" d="M183.88,-104.16C187.16,-109.83 190.81,-116.15 194.33,-122.25"/>
<polygon fill="#7f7f7f" stroke="#7f7f7f" points="191.31,-124.02 199.34,-130.93 197.37,-120.52 191.31,-124.02"/>
<text text-anchor="middle" x="176.61" y="-116.2" font-family="monospace" font-size="10.00">uses</text>
</g>
<!-- lightning_fetcher::fetcher&#45;&gt;lightning_fetcher::origin -->
<g id="edge5" class="edge">
<title>lightning_fetcher::fetcher&#45;&gt;lightning_fetcher::origin</title>
<path fill="none" stroke="#7f7f7f" stroke-dasharray="5,2" d="M167.77,-104.14C172.06,-139.93 211.63,-213.72 245.3,-254.18"/>
<polygon fill="#7f7f7f" stroke="#7f7f7f" points="242.73,-256.57 251.94,-261.81 248.01,-251.97 242.73,-256.57"/>
<text text-anchor="middle" x="194.03" y="-182.16" font-family="monospace" font-size="10.00">uses</text>
</g>
<!-- tokio::sync::mpsc -->
<g id="node6" class="node">
<title>tokio::sync::mpsc</title>
<polygon fill="#81c169" stroke="black" points="0,-131.28 0,-169.28 119,-169.28 119,-131.28 0,-131.28"/>
<text text-anchor="middle" x="59.5" y="-157.28" font-family="monospace" font-size="10.00">external mod</text>
<polyline fill="none" stroke="black" points="0,-150.28 119,-150.28 "/>
<text text-anchor="middle" x="59.5" y="-138.28" font-family="monospace" font-size="10.00">tokio::sync::mpsc</text>
</g>
<!-- lightning_fetcher::fetcher&#45;&gt;tokio::sync::mpsc -->
<g id="edge6" class="edge">
<title>lightning_fetcher::fetcher&#45;&gt;tokio::sync::mpsc</title>
<path fill="none" stroke="#7f7f7f" stroke-dasharray="5,2" d="M139.7,-103.98C127.72,-110.9 114.03,-118.8 101.39,-126.1"/>
<polygon fill="#7f7f7f" stroke="#7f7f7f" points="99.32,-123.25 92.41,-131.28 102.82,-129.31 99.32,-123.25"/>
<text text-anchor="middle" x="108.04" y="-118.04" font-family="monospace" font-size="10.00">uses</text>
</g>
<!-- tokio::sync::oneshot -->
<g id="node7" class="node">
<title>tokio::sync::oneshot</title>
<polygon fill="#81c169" stroke="black" points="217.52,-0.5 217.52,-38.5 354.52,-38.5 354.52,-0.5 217.52,-0.5"/>
<text text-anchor="middle" x="286.02" y="-26.5" font-family="monospace" font-size="10.00">external mod</text>
<polyline fill="none" stroke="black" points="217.52,-19.5 354.52,-19.5 "/>
<text text-anchor="middle" x="286.02" y="-7.5" font-family="monospace" font-size="10.00">tokio::sync::oneshot</text>
</g>
<!-- lightning_fetcher::fetcher&#45;&gt;tokio::sync::oneshot -->
<g id="edge7" class="edge">
<title>lightning_fetcher::fetcher&#45;&gt;tokio::sync::oneshot</title>
<path fill="none" stroke="#7f7f7f" stroke-dasharray="5,2" d="M205.83,-65.8C217.81,-58.89 231.5,-50.98 244.14,-43.68"/>
<polygon fill="#7f7f7f" stroke="#7f7f7f" points="246.2,-46.53 253.11,-38.5 242.7,-40.47 246.2,-46.53"/>
<text text-anchor="middle" x="212.48" y="-57.74" font-family="monospace" font-size="10.00">uses</text>
</g>
<!-- lightning_fetcher::origin&#45;&gt;lightning_fetcher::fetcher -->
<g id="edge8" class="edge">
<title>lightning_fetcher::origin&#45;&gt;lightning_fetcher::fetcher</title>
<path fill="none" stroke="#7f7f7f" stroke-dasharray="5,2" d="M291.02,-261.82C286.72,-226.03 247.15,-152.23 213.49,-111.78"/>
<polygon fill="#7f7f7f" stroke="#7f7f7f" points="216.05,-109.39 206.84,-104.15 210.77,-113.99 216.05,-109.39"/>
<text text-anchor="middle" x="264.75" y="-178.8" font-family="monospace" font-size="10.00">uses</text>
</g>
<!-- tokio::sync::broadcast -->
<g id="node5" class="node">
<title>tokio::sync::broadcast</title>
<polygon fill="#81c169" stroke="black" points="249.28,-327.46 249.28,-365.46 398.28,-365.46 398.28,-327.46 249.28,-327.46"/>
<text text-anchor="middle" x="323.78" y="-353.46" font-family="monospace" font-size="10.00">external mod</text>
<polyline fill="none" stroke="black" points="249.28,-346.46 398.28,-346.46 "/>
<text text-anchor="middle" x="323.78" y="-334.46" font-family="monospace" font-size="10.00">tokio::sync::broadcast</text>
</g>
<!-- lightning_fetcher::origin&#45;&gt;tokio::sync::broadcast -->
<g id="edge9" class="edge">
<title>lightning_fetcher::origin&#45;&gt;tokio::sync::broadcast</title>
<path fill="none" stroke="#7f7f7f" stroke-dasharray="5,2" d="M297.15,-300.33C300.42,-306 304.07,-312.32 307.59,-318.42"/>
<polygon fill="#7f7f7f" stroke="#7f7f7f" points="304.57,-320.19 312.6,-327.1 310.63,-316.69 304.57,-320.19"/>
<text text-anchor="middle" x="289.87" y="-312.38" font-family="monospace" font-size="10.00">uses</text>
</g>
<!-- lightning_fetcher::origin&#45;&gt;tokio::sync::mpsc -->
<g id="edge10" class="edge">
<title>lightning_fetcher::origin&#45;&gt;tokio::sync::mpsc</title>
<path fill="none" stroke="#7f7f7f" stroke-dasharray="5,2" d="M253.08,-262.05C212.91,-238.85 144.94,-199.61 101.16,-174.34"/>
<polygon fill="#7f7f7f" stroke="#7f7f7f" points="102.89,-171.29 92.48,-169.32 99.39,-177.35 102.89,-171.29"/>
<text text-anchor="middle" x="164.62" y="-221.19" font-family="monospace" font-size="10.00">uses</text>
</g>
<!-- lightning_fetcher::origin&#45;&gt;tokio::sync::oneshot -->
<g id="edge11" class="edge">
<title>lightning_fetcher::origin&#45;&gt;tokio::sync::oneshot</title>
<path fill="none" stroke="#7f7f7f" stroke-dasharray="5,2" d="M286.02,-261.83C286.02,-216.58 286.02,-103.12 286.02,-49.05"/>
<polygon fill="#7f7f7f" stroke="#7f7f7f" points="289.52,-48.76 286.02,-38.76 282.52,-48.76 289.52,-48.76"/>
<text text-anchor="middle" x="298.52" y="-158.44" font-family="monospace" font-size="10.00">uses</text>
</g>
</g>
</svg>
