<?xml version="1.0" encoding="UTF-8" standalone="no"?>
<!DOCTYPE svg PUBLIC "-//W3C//DTD SVG 1.1//EN"
 "http://www.w3.org/Graphics/SVG/1.1/DTD/svg11.dtd">
<!-- Generated by graphviz version 4.0.0 (0)
 -->
<!-- Pages: 1 -->
<svg width="435pt" height="303pt"
 viewBox="0.00 0.00 434.60 302.60" xmlns="http://www.w3.org/2000/svg" xmlns:xlink="http://www.w3.org/1999/xlink">
<g id="graph0" class="graph" transform="scale(1 1) rotate(0) translate(36.8 273.8)">
<polygon fill="white" stroke="transparent" points="-36.8,28.8 -36.8,-273.8 397.8,-273.8 397.8,28.8 -36.8,28.8"/>
<text text-anchor="middle" x="180.5" y="-212.2" font-family="Helvetica,sans-Serif" font-size="36.00">lightning_reputation</text>
<!-- lightning_reputation -->
<g id="node1" class="node">
<title>lightning_reputation</title>
<polygon fill="#5397c8" stroke="black" points="3.48,-158.14 3.48,-196.14 140.48,-196.14 140.48,-158.14 3.48,-158.14"/>
<text text-anchor="middle" x="71.98" y="-184.14" font-family="monospace" font-size="10.00">crate</text>
<polyline fill="none" stroke="black" points="3.48,-177.14 140.48,-177.14 "/>
<text text-anchor="middle" x="71.98" y="-165.14" font-family="monospace" font-size="10.00">lightning_reputation</text>
</g>
<!-- lightning_reputation::statistics -->
<g id="node2" class="node">
<title>lightning_reputation::statistics</title>
<polygon fill="#81c169" stroke="black" points="148.5,-155.79 148.5,-193.79 357.5,-193.79 357.5,-155.79 148.5,-155.79"/>
<text text-anchor="middle" x="253" y="-181.79" font-family="monospace" font-size="10.00">pub mod</text>
<polyline fill="none" stroke="black" points="148.5,-174.79 357.5,-174.79 "/>
<text text-anchor="middle" x="253" y="-162.79" font-family="monospace" font-size="10.00">lightning_reputation::statistics</text>
</g>
<!-- lightning_reputation&#45;&gt;lightning_reputation::statistics -->
<g id="edge1" class="edge">
<title>lightning_reputation&#45;&gt;lightning_reputation::statistics</title>
<path fill="none" stroke="#000000" d="M140.68,-176.25C140.83,-176.25 140.99,-176.24 141.15,-176.24"/>
<polygon fill="#000000" stroke="#000000" points="138.29,-179.78 148.24,-176.15 138.2,-172.78 138.29,-179.78"/>
<text text-anchor="middle" x="153.41" y="-179.25" font-family="monospace" font-size="10.00">owns</text>
</g>
<!-- lightning_reputation::types -->
<g id="node3" class="node">
<title>lightning_reputation::types</title>
<polygon fill="#81c169" stroke="black" points="70.95,-0.2 70.95,-38.2 249.95,-38.2 249.95,-0.2 70.95,-0.2"/>
<text text-anchor="middle" x="160.45" y="-26.2" font-family="monospace" font-size="10.00">pub mod</text>
<polyline fill="none" stroke="black" points="70.95,-19.2 249.95,-19.2 "/>
<text text-anchor="middle" x="160.45" y="-7.2" font-family="monospace" font-size="10.00">lightning_reputation::types</text>
</g>
<!-- lightning_reputation&#45;&gt;lightning_reputation::types -->
<g id="edge2" class="edge">
<title>lightning_reputation&#45;&gt;lightning_reputation::types</title>
<path fill="none" stroke="#000000" d="M107.51,-158.01C132.22,-130.29 158.92,-80.63 165.54,-48.41"/>
<polygon fill="#000000" stroke="#000000" points="169.05,-48.6 166.99,-38.21 162.12,-47.62 169.05,-48.6"/>
<text text-anchor="middle" x="124.03" y="-106.21" font-family="monospace" font-size="10.00">owns</text>
</g>
<!-- lightning_reputation&#45;&gt;lightning_reputation::types -->
<g id="edge3" class="edge">
<title>lightning_reputation&#45;&gt;lightning_reputation::types</title>
<path fill="none" stroke="#7f7f7f" stroke-dasharray="5,2" d="M65.47,-157.89C67.44,-129.37 92.95,-78.07 118.4,-46.1"/>
<polygon fill="#7f7f7f" stroke="#7f7f7f" points="121.1,-48.33 124.85,-38.42 115.74,-43.83 121.1,-48.33"/>
<text text-anchor="middle" x="79.43" y="-105" font-family="monospace" font-size="10.00">uses</text>
</g>
<!-- lightning_reputation::statistics&#45;&gt;lightning_reputation::types -->
<g id="edge4" class="edge">
<title>lightning_reputation::statistics&#45;&gt;lightning_reputation::types</title>
<path fill="none" stroke="#7f7f7f" stroke-dasharray="5,2" d="M259.05,-155.7C256.53,-127.6 230.12,-77.46 204.01,-45.97"/>
<polygon fill="#7f7f7f" stroke="#7f7f7f" points="206.61,-43.63 197.4,-38.4 201.34,-48.23 206.61,-43.63"/>
<text text-anchor="middle" x="219.03" y="-103.84" font-family="monospace" font-size="10.00">uses</text>
</g>
<!-- lightning_reputation::types&#45;&gt;lightning_reputation::statistics -->
<g id="edge5" class="edge">
<title>lightning_reputation::types&#45;&gt;lightning_reputation::statistics</title>
<path fill="none" stroke="#7f7f7f" stroke-dasharray="5,2" d="M154.41,-38.28C156.93,-66.39 183.34,-116.53 209.45,-148.01"/>
<polygon fill="#7f7f7f" stroke="#7f7f7f" points="206.85,-150.36 216.06,-155.59 212.12,-145.76 206.85,-150.36"/>
<text text-anchor="middle" x="169.43" y="-96.15" font-family="monospace" font-size="10.00">uses</text>
</g>
</g>
</svg>
