<?xml version="1.0" encoding="UTF-8" standalone="no"?>
<!DOCTYPE svg PUBLIC "-//W3C//DTD SVG 1.1//EN"
 "http://www.w3.org/Graphics/SVG/1.1/DTD/svg11.dtd">
<!-- Generated by graphviz version 4.0.0 (0)
 -->
<!-- Pages: 1 -->
<svg width="544pt" height="145pt"
 viewBox="0.00 0.00 543.60 144.60" xmlns="http://www.w3.org/2000/svg" xmlns:xlink="http://www.w3.org/1999/xlink">
<g id="graph0" class="graph" transform="scale(1 1) rotate(0) translate(28.8 115.8)">
<polygon fill="white" stroke="transparent" points="-28.8,28.8 -28.8,-115.8 514.8,-115.8 514.8,28.8 -28.8,28.8"/>
<text text-anchor="middle" x="243" y="-54.2" font-family="Helvetica,sans-Serif" font-size="36.00">lightning_openrpc_macros</text>
<!-- lightning_openrpc_macros -->
<g id="node1" class="node">
<title>lightning_openrpc_macros</title>
<polygon fill="#5397c8" stroke="black" points="177.93,-0.5 177.93,-38.5 338.93,-38.5 338.93,-0.5 177.93,-0.5"/>
<text text-anchor="middle" x="258.43" y="-26.5" font-family="monospace" font-size="10.00">crate</text>
<polyline fill="none" stroke="black" points="177.93,-19.5 338.93,-19.5 "/>
<text text-anchor="middle" x="258.43" y="-7.5" font-family="monospace" font-size="10.00">lightning_openrpc_macros</text>
</g>
<!-- syn::parse -->
<g id="node2" class="node">
<title>syn::parse</title>
<polygon fill="#81c169" stroke="black" points="376.09,-0.5 376.09,-38.5 465.09,-38.5 465.09,-0.5 376.09,-0.5"/>
<text text-anchor="middle" x="420.59" y="-26.5" font-family="monospace" font-size="10.00">external mod</text>
<polyline fill="none" stroke="black" points="376.09,-19.5 465.09,-19.5 "/>
<text text-anchor="middle" x="420.59" y="-7.5" font-family="monospace" font-size="10.00">syn::parse</text>
</g>
<!-- lightning_openrpc_macros&#45;&gt;syn::parse -->
<g id="edge1" class="edge">
<title>lightning_openrpc_macros&#45;&gt;syn::parse</title>
<path fill="none" stroke="#7f7f7f" stroke-dasharray="5,2" d="M339.03,-19.5C348.07,-19.5 357.12,-19.5 365.73,-19.5"/>
<polygon fill="#7f7f7f" stroke="#7f7f7f" points="365.98,-23 375.98,-19.5 365.98,-16 365.98,-23"/>
<text text-anchor="middle" x="358.63" y="-11.5" font-family="monospace" font-size="10.00">uses</text>
</g>
<!-- syn::parse_macro_input -->
<g id="node3" class="node">
<title>syn::parse_macro_input</title>
<polygon fill="#81c169" stroke="black" points="20.91,-0.5 20.91,-38.5 169.91,-38.5 169.91,-0.5 20.91,-0.5"/>
<text text-anchor="middle" x="95.41" y="-26.5" font-family="monospace" font-size="10.00">external mod</text>
<polyline fill="none" stroke="black" points="20.91,-19.5 169.91,-19.5 "/>
<text text-anchor="middle" x="95.41" y="-7.5" font-family="monospace" font-size="10.00">syn::parse_macro_input</text>
</g>
<!-- lightning_openrpc_macros&#45;&gt;syn::parse_macro_input -->
<g id="edge2" class="edge">
<title>lightning_openrpc_macros&#45;&gt;syn::parse_macro_input</title>
<path fill="none" stroke="#7f7f7f" stroke-dasharray="5,2" d="M177.88,-19.5C177.72,-19.5 177.56,-19.5 177.4,-19.5"/>
<polygon fill="#7f7f7f" stroke="#7f7f7f" points="180.18,-16 170.18,-19.5 180.18,-23 180.18,-16"/>
<text text-anchor="middle" x="171.39" y="-11.5" font-family="monospace" font-size="10.00">uses</text>
</g>
</g>
</svg>
