<?xml version="1.0" encoding="UTF-8" standalone="no"?>
<!DOCTYPE svg PUBLIC "-//W3C//DTD SVG 1.1//EN"
 "http://www.w3.org/Graphics/SVG/1.1/DTD/svg11.dtd">
<!-- Generated by graphviz version 4.0.0 (0)
 -->
<!-- Pages: 1 -->
<svg width="1838pt" height="706pt"
 viewBox="0.00 0.00 1838.09 705.87" xmlns="http://www.w3.org/2000/svg" xmlns:xlink="http://www.w3.org/1999/xlink">
<g id="graph0" class="graph" transform="scale(1 1) rotate(0) translate(28.8 677.07)">
<polygon fill="white" stroke="transparent" points="-28.8,28.8 -28.8,-677.07 1809.29,-677.07 1809.29,28.8 -28.8,28.8"/>
<text text-anchor="middle" x="890.24" y="-615.47" font-family="Helvetica,sans-Serif" font-size="36.00">simulon</text>
<!-- simulon -->
<g id="node1" class="node">
<title>simulon</title>
<polygon fill="#5397c8" stroke="black" points="840.36,-278.13 840.36,-316.13 899.36,-316.13 899.36,-278.13 840.36,-278.13"/>
<text text-anchor="middle" x="869.86" y="-304.13" font-family="monospace" font-size="10.00">crate</text>
<polyline fill="none" stroke="black" points="840.36,-297.13 899.36,-297.13 "/>
<text text-anchor="middle" x="869.86" y="-285.13" font-family="monospace" font-size="10.00">simulon</text>
</g>
<!-- simulon::api -->
<g id="node2" class="node">
<title>simulon::api</title>
<polygon fill="#81c169" stroke="black" points="1255,-289.88 1255,-327.88 1344,-327.88 1344,-289.88 1255,-289.88"/>
<text text-anchor="middle" x="1299.5" y="-315.88" font-family="monospace" font-size="10.00">pub mod</text>
<polyline fill="none" stroke="black" points="1255,-308.88 1344,-308.88 "/>
<text text-anchor="middle" x="1299.5" y="-296.88" font-family="monospace" font-size="10.00">simulon::api</text>
</g>
<!-- simulon&#45;&gt;simulon::api -->
<g id="edge1" class="edge">
<title>simulon&#45;&gt;simulon::api</title>
<path fill="none" stroke="#000000" d="M899.39,-297.94C970.59,-299.88 1152.58,-304.86 1244.55,-307.38"/>
<polygon fill="#000000" stroke="#000000" points="1244.68,-310.89 1254.77,-307.66 1244.87,-303.89 1244.68,-310.89"/>
<text text-anchor="middle" x="1059.47" y="-294.66" font-family="monospace" font-size="10.00">owns</text>
</g>
<!-- simulon::future -->
<g id="node12" class="node">
<title>simulon::future</title>
<polygon fill="#f8c04c" stroke="black" points="995.53,-47.5 995.53,-85.5 1102.53,-85.5 1102.53,-47.5 995.53,-47.5"/>
<text text-anchor="middle" x="1049.03" y="-73.5" font-family="monospace" font-size="10.00">pub(crate) mod</text>
<polyline fill="none" stroke="black" points="995.53,-66.5 1102.53,-66.5 "/>
<text text-anchor="middle" x="1049.03" y="-54.5" font-family="monospace" font-size="10.00">simulon::future</text>
</g>
<!-- simulon&#45;&gt;simulon::future -->
<g id="edge2" class="edge">
<title>simulon&#45;&gt;simulon::future</title>
<path fill="none" stroke="#000000" d="M884.83,-277.86C916.72,-236.81 991.45,-140.62 1028.07,-93.49"/>
<polygon fill="#000000" stroke="#000000" points="1030.86,-95.6 1034.23,-85.55 1025.33,-91.3 1030.86,-95.6"/>
<text text-anchor="middle" x="943.95" y="-188.68" font-family="monospace" font-size="10.00">owns</text>
</g>
<!-- simulon::latency -->
<g id="node13" class="node">
<title>simulon::latency</title>
<polygon fill="#81c169" stroke="black" points="385.3,-238.88 385.3,-276.88 498.3,-276.88 498.3,-238.88 385.3,-238.88"/>
<text text-anchor="middle" x="441.8" y="-264.88" font-family="monospace" font-size="10.00">pub mod</text>
<polyline fill="none" stroke="black" points="385.3,-257.88 498.3,-257.88 "/>
<text text-anchor="middle" x="441.8" y="-245.88" font-family="monospace" font-size="10.00">simulon::latency</text>
</g>
<!-- simulon&#45;&gt;simulon::latency -->
<g id="edge3" class="edge">
<title>simulon&#45;&gt;simulon::latency</title>
<path fill="none" stroke="#000000" d="M840.1,-294.4C771.96,-288.15 603.22,-272.68 508.69,-264.01"/>
<polygon fill="#000000" stroke="#000000" points="508.94,-260.52 498.66,-263.09 508.3,-267.49 508.94,-260.52"/>
<text text-anchor="middle" x="661.89" y="-282.21" font-family="monospace" font-size="10.00">owns</text>
</g>
<!-- simulon::message -->
<g id="node16" class="node">
<title>simulon::message</title>
<polygon fill="#f8c04c" stroke="black" points="793.97,-105.5 793.97,-143.5 906.97,-143.5 906.97,-105.5 793.97,-105.5"/>
<text text-anchor="middle" x="850.47" y="-131.5" font-family="monospace" font-size="10.00">pub(crate) mod</text>
<polyline fill="none" stroke="black" points="793.97,-124.5 906.97,-124.5 "/>
<text text-anchor="middle" x="850.47" y="-112.5" font-family="monospace" font-size="10.00">simulon::message</text>
</g>
<!-- simulon&#45;&gt;simulon::message -->
<g id="edge4" class="edge">
<title>simulon&#45;&gt;simulon::message</title>
<path fill="none" stroke="#000000" d="M867.71,-277.99C864.33,-247.92 857.76,-189.38 853.78,-153.92"/>
<polygon fill="#000000" stroke="#000000" points="857.23,-153.26 852.63,-143.72 850.27,-154.04 857.23,-153.26"/>
<text text-anchor="middle" x="848.24" y="-218.96" font-family="monospace" font-size="10.00">owns</text>
</g>
<!-- simulon::report -->
<g id="node17" class="node">
<title>simulon::report</title>
<polygon fill="#81c169" stroke="black" points="729.58,-469.81 729.58,-507.81 836.58,-507.81 836.58,-469.81 729.58,-469.81"/>
<text text-anchor="middle" x="783.08" y="-495.81" font-family="monospace" font-size="10.00">pub mod</text>
<polyline fill="none" stroke="black" points="729.58,-488.81 836.58,-488.81 "/>
<text text-anchor="middle" x="783.08" y="-476.81" font-family="monospace" font-size="10.00">simulon::report</text>
</g>
<!-- simulon&#45;&gt;simulon::report -->
<g id="edge5" class="edge">
<title>simulon&#45;&gt;simulon::report</title>
<path fill="none" stroke="#000000" d="M861.22,-316.21C845.89,-350.08 813.84,-420.86 795.92,-460.45"/>
<polygon fill="#000000" stroke="#000000" points="792.62,-459.25 791.69,-469.81 799,-462.14 792.62,-459.25"/>
<text text-anchor="middle" x="816.07" y="-391.33" font-family="monospace" font-size="10.00">owns</text>
</g>
<!-- simulon::simulation -->
<g id="node18" class="node">
<title>simulon::simulation</title>
<polygon fill="#81c169" stroke="black" points="658.87,-305.01 658.87,-343.01 789.87,-343.01 789.87,-305.01 658.87,-305.01"/>
<text text-anchor="middle" x="724.37" y="-331.01" font-family="monospace" font-size="10.00">pub mod</text>
<polyline fill="none" stroke="black" points="658.87,-324.01 789.87,-324.01 "/>
<text text-anchor="middle" x="724.37" y="-312.01" font-family="monospace" font-size="10.00">simulon::simulation</text>
</g>
<!-- simulon&#45;&gt;simulon::simulation -->
<g id="edge6" class="edge">
<title>simulon&#45;&gt;simulon::simulation</title>
<path fill="none" stroke="#000000" d="M840.06,-302.63C828.31,-304.81 814.23,-307.41 800,-310.04"/>
<polygon fill="#000000" stroke="#000000" points="799.34,-306.6 790.15,-311.86 800.62,-313.48 799.34,-306.6"/>
<text text-anchor="middle" x="807.53" y="-309.34" font-family="monospace" font-size="10.00">owns</text>
</g>
<!-- simulon::state -->
<g id="node19" class="node">
<title>simulon::state</title>
<polygon fill="#f8c04c" stroke="black" points="1046.26,-297.7 1046.26,-335.7 1147.26,-335.7 1147.26,-297.7 1046.26,-297.7"/>
<text text-anchor="middle" x="1096.76" y="-323.7" font-family="monospace" font-size="10.00">pub(crate) mod</text>
<polyline fill="none" stroke="black" points="1046.26,-316.7 1147.26,-316.7 "/>
<text text-anchor="middle" x="1096.76" y="-304.7" font-family="monospace" font-size="10.00">simulon::state</text>
</g>
<!-- simulon&#45;&gt;simulon::state -->
<g id="edge7" class="edge">
<title>simulon&#45;&gt;simulon::state</title>
<path fill="none" stroke="#000000" d="M899.52,-299.69C933.96,-302.66 991.67,-307.63 1035.79,-311.44"/>
<polygon fill="#000000" stroke="#000000" points="1035.57,-314.93 1045.84,-312.3 1036.18,-307.96 1035.57,-314.93"/>
<text text-anchor="middle" x="955.16" y="-308.56" font-family="monospace" font-size="10.00">owns</text>
</g>
<!-- simulon::storage -->
<g id="node20" class="node">
<title>simulon::storage</title>
<polygon fill="#f8c04c" stroke="black" points="866.85,-508.34 866.85,-546.34 979.85,-546.34 979.85,-508.34 866.85,-508.34"/>
<text text-anchor="middle" x="923.35" y="-534.34" font-family="monospace" font-size="10.00">pub(crate) mod</text>
<polyline fill="none" stroke="black" points="866.85,-527.34 979.85,-527.34 "/>
<text text-anchor="middle" x="923.35" y="-515.34" font-family="monospace" font-size="10.00">simulon::storage</text>
</g>
<!-- simulon&#45;&gt;simulon::storage -->
<g id="edge8" class="edge">
<title>simulon&#45;&gt;simulon::storage</title>
<path fill="none" stroke="#000000" d="M874.33,-316.36C883.71,-356.75 905.51,-450.59 916.6,-498.33"/>
<polygon fill="#000000" stroke="#000000" points="913.25,-499.37 918.93,-508.32 920.07,-497.79 913.25,-499.37"/>
<text text-anchor="middle" x="882.97" y="-410.34" font-family="monospace" font-size="10.00">owns</text>
</g>
<!-- simulon::api::addr -->
<g id="node3" class="node">
<title>simulon::api::addr</title>
<polygon fill="#db5367" stroke="black" points="964.68,-156.07 964.68,-194.07 1089.68,-194.07 1089.68,-156.07 964.68,-156.07"/>
<text text-anchor="middle" x="1027.18" y="-182.07" font-family="monospace" font-size="10.00">pub(self) mod</text>
<polyline fill="none" stroke="black" points="964.68,-175.07 1089.68,-175.07 "/>
<text text-anchor="middle" x="1027.18" y="-163.07" font-family="monospace" font-size="10.00">simulon::api::addr</text>
</g>
<!-- simulon::api&#45;&gt;simulon::api::addr -->
<g id="edge9" class="edge">
<title>simulon::api&#45;&gt;simulon::api::addr</title>
<path fill="none" stroke="#000000" d="M1290.3,-289.65C1260.06,-259.09 1166.71,-209.55 1099.63,-184.94"/>
<polygon fill="#000000" stroke="#000000" points="1100.53,-181.54 1089.93,-181.49 1098.18,-188.14 1100.53,-181.54"/>
<text text-anchor="middle" x="1182.46" y="-240.29" font-family="monospace" font-size="10.00">owns</text>
</g>
<!-- simulon::api&#45;&gt;simulon::api::addr -->
<g id="edge10" class="edge">
<title>simulon::api&#45;&gt;simulon::api::addr</title>
<path fill="none" stroke="#7f7f7f" stroke-dasharray="5,2" d="M1254.94,-308.2C1193.16,-290.7 1085.35,-236.61 1043.65,-201.01"/>
<polygon fill="#7f7f7f" stroke="#7f7f7f" points="1045.95,-198.36 1036.23,-194.15 1041.2,-203.51 1045.95,-198.36"/>
<text text-anchor="middle" x="1136.8" y="-257.61" font-family="monospace" font-size="10.00">uses</text>
</g>
<!-- simulon::api::connect -->
<g id="node4" class="node">
<title>simulon::api::connect</title>
<polygon fill="#db5367" stroke="black" points="1240.31,-47.52 1240.31,-85.52 1383.31,-85.52 1383.31,-47.52 1240.31,-47.52"/>
<text text-anchor="middle" x="1311.81" y="-73.52" font-family="monospace" font-size="10.00">pub(self) mod</text>
<polyline fill="none" stroke="black" points="1240.31,-66.52 1383.31,-66.52 "/>
<text text-anchor="middle" x="1311.81" y="-54.52" font-family="monospace" font-size="10.00">simulon::api::connect</text>
</g>
<!-- simulon::api&#45;&gt;simulon::api::connect -->
<g id="edge11" class="edge">
<title>simulon::api&#45;&gt;simulon::api::connect</title>
<path fill="none" stroke="#000000" d="M1316.14,-289.84C1332.58,-247.61 1338.55,-145.89 1328.43,-95.62"/>
<polygon fill="#000000" stroke="#000000" points="1331.78,-94.61 1326.02,-85.72 1324.98,-96.26 1331.78,-94.61"/>
<text text-anchor="middle" x="1309.78" y="-195.73" font-family="monospace" font-size="10.00">owns</text>
</g>
<!-- simulon::api&#45;&gt;simulon::api::connect -->
<g id="edge12" class="edge">
<title>simulon::api&#45;&gt;simulon::api::connect</title>
<path fill="none" stroke="#7f7f7f" stroke-dasharray="5,2" d="M1285.23,-289.5C1272.85,-246.97 1276.93,-145.34 1291.86,-95.32"/>
<polygon fill="#7f7f7f" stroke="#7f7f7f" points="1295.21,-96.34 1295.1,-85.75 1288.58,-94.1 1295.21,-96.34"/>
<text text-anchor="middle" x="1276.05" y="-195.41" font-family="monospace" font-size="10.00">uses</text>
</g>
<!-- simulon::api::connection -->
<g id="node5" class="node">
<title>simulon::api::connection</title>
<polygon fill="#db5367" stroke="black" points="1101.4,-0.5 1101.4,-38.5 1262.4,-38.5 1262.4,-0.5 1101.4,-0.5"/>
<text text-anchor="middle" x="1181.9" y="-26.5" font-family="monospace" font-size="10.00">pub(self) mod</text>
<polyline fill="none" stroke="black" points="1101.4,-19.5 1262.4,-19.5 "/>
<text text-anchor="middle" x="1181.9" y="-7.5" font-family="monospace" font-size="10.00">simulon::api::connection</text>
</g>
<!-- simulon::api&#45;&gt;simulon::api::connection -->
<g id="edge13" class="edge">
<title>simulon::api&#45;&gt;simulon::api::connection</title>
<path fill="none" stroke="#000000" d="M1305.34,-289.79C1303.35,-239.54 1251.07,-105.86 1212.9,-47.24"/>
<polygon fill="#000000" stroke="#000000" points="1215.68,-45.11 1207.15,-38.83 1209.91,-49.06 1215.68,-45.11"/>
<text text-anchor="middle" x="1246.62" y="-171.52" font-family="monospace" font-size="10.00">owns</text>
</g>
<!-- simulon::api&#45;&gt;simulon::api::connection -->
<g id="edge14" class="edge">
<title>simulon::api&#45;&gt;simulon::api::connection</title>
<path fill="none" stroke="#7f7f7f" stroke-dasharray="5,2" d="M1274.4,-289.75C1238.29,-240.02 1185.04,-108.63 1177.03,-49.09"/>
<polygon fill="#7f7f7f" stroke="#7f7f7f" points="1180.49,-48.48 1176.07,-38.85 1173.52,-49.13 1180.49,-48.48"/>
<text text-anchor="middle" x="1213.21" y="-172.42" font-family="monospace" font-size="10.00">uses</text>
</g>
<!-- simulon::api::ctrl -->
<g id="node6" class="node">
<title>simulon::api::ctrl</title>
<polygon fill="#81c169" stroke="black" points="1655.49,-311.65 1655.49,-349.65 1780.49,-349.65 1780.49,-311.65 1655.49,-311.65"/>
<text text-anchor="middle" x="1717.99" y="-337.65" font-family="monospace" font-size="10.00">pub mod</text>
<polyline fill="none" stroke="black" points="1655.49,-330.65 1780.49,-330.65 "/>
<text text-anchor="middle" x="1717.99" y="-318.65" font-family="monospace" font-size="10.00">simulon::api::ctrl</text>
</g>
<!-- simulon::api&#45;&gt;simulon::api::ctrl -->
<g id="edge15" class="edge">
<title>simulon::api&#45;&gt;simulon::api::ctrl</title>
<path fill="none" stroke="#000000" d="M1344.29,-311.21C1416.29,-314.96 1558.48,-322.35 1645.21,-326.86"/>
<polygon fill="#000000" stroke="#000000" points="1645.07,-330.36 1655.24,-327.38 1645.43,-323.37 1645.07,-330.36"/>
<text text-anchor="middle" x="1482.25" y="-322.04" font-family="monospace" font-size="10.00">owns</text>
</g>
<!-- simulon::api::listen -->
<g id="node7" class="node">
<title>simulon::api::listen</title>
<polygon fill="#db5367" stroke="black" points="1156.45,-146.44 1156.45,-184.44 1293.45,-184.44 1293.45,-146.44 1156.45,-146.44"/>
<text text-anchor="middle" x="1224.95" y="-172.44" font-family="monospace" font-size="10.00">pub(self) mod</text>
<polyline fill="none" stroke="black" points="1156.45,-165.44 1293.45,-165.44 "/>
<text text-anchor="middle" x="1224.95" y="-153.44" font-family="monospace" font-size="10.00">simulon::api::listen</text>
</g>
<!-- simulon::api&#45;&gt;simulon::api::listen -->
<g id="edge16" class="edge">
<title>simulon::api&#45;&gt;simulon::api::listen</title>
<path fill="none" stroke="#000000" d="M1307.28,-289.62C1306.7,-264.16 1287.39,-220.94 1266.25,-192.46"/>
<polygon fill="#000000" stroke="#000000" points="1268.89,-190.16 1259.95,-184.49 1263.4,-194.5 1268.89,-190.16"/>
<text text-anchor="middle" x="1274.26" y="-244.04" font-family="monospace" font-size="10.00">owns</text>
</g>
<!-- simulon::api&#45;&gt;simulon::api::listen -->
<g id="edge17" class="edge">
<title>simulon::api&#45;&gt;simulon::api::listen</title>
<path fill="none" stroke="#7f7f7f" stroke-dasharray="5,2" d="M1264.46,-289.79C1243.66,-265.15 1223.04,-223.49 1218.22,-194.89"/>
<polygon fill="#7f7f7f" stroke="#7f7f7f" points="1221.67,-194.22 1217.18,-184.62 1214.7,-194.93 1221.67,-194.22"/>
<text text-anchor="middle" x="1228.84" y="-245.34" font-family="monospace" font-size="10.00">uses</text>
</g>
<!-- simulon::api::log -->
<g id="node8" class="node">
<title>simulon::api::log</title>
<polygon fill="#db5367" stroke="black" points="1281.65,-551.13 1281.65,-589.13 1400.65,-589.13 1400.65,-551.13 1281.65,-551.13"/>
<text text-anchor="middle" x="1341.15" y="-577.13" font-family="monospace" font-size="10.00">pub(self) mod</text>
<polyline fill="none" stroke="black" points="1281.65,-570.13 1400.65,-570.13 "/>
<text text-anchor="middle" x="1341.15" y="-558.13" font-family="monospace" font-size="10.00">simulon::api::log</text>
</g>
<!-- simulon::api&#45;&gt;simulon::api::log -->
<g id="edge18" class="edge">
<title>simulon::api&#45;&gt;simulon::api::log</title>
<path fill="none" stroke="#000000" d="M1288.17,-328.27C1279.72,-374 1296.6,-488.39 1318.16,-541.85"/>
<polygon fill="#000000" stroke="#000000" points="1314.99,-543.36 1322.23,-551.1 1321.4,-540.53 1314.99,-543.36"/>
<text text-anchor="middle" x="1290.66" y="-438.06" font-family="monospace" font-size="10.00">owns</text>
</g>
<!-- simulon::api&#45;&gt;simulon::api::log -->
<g id="edge19" class="edge">
<title>simulon::api&#45;&gt;simulon::api::log</title>
<path fill="none" stroke="#7f7f7f" stroke-dasharray="5,2" d="M1318.57,-328.22C1340.49,-373.65 1359.01,-487.03 1353.82,-540.91"/>
<polygon fill="#7f7f7f" stroke="#7f7f7f" points="1350.35,-540.47 1352.46,-550.85 1357.28,-541.42 1350.35,-540.47"/>
<text text-anchor="middle" x="1323.69" y="-437.57" font-family="monospace" font-size="10.00">uses</text>
</g>
<!-- simulon::api::spawn -->
<g id="node9" class="node">
<title>simulon::api::spawn</title>
<polygon fill="#db5367" stroke="black" points="1388.05,-425.33 1388.05,-463.33 1519.05,-463.33 1519.05,-425.33 1388.05,-425.33"/>
<text text-anchor="middle" x="1453.55" y="-451.33" font-family="monospace" font-size="10.00">pub(self) mod</text>
<polyline fill="none" stroke="black" points="1388.05,-444.33 1519.05,-444.33 "/>
<text text-anchor="middle" x="1453.55" y="-432.33" font-family="monospace" font-size="10.00">simulon::api::spawn</text>
</g>
<!-- simulon::api&#45;&gt;simulon::api::spawn -->
<g id="edge20" class="edge">
<title>simulon::api&#45;&gt;simulon::api::spawn</title>
<path fill="none" stroke="#000000" d="M1300.07,-328.15C1311.09,-353.21 1350.13,-392.6 1386.46,-419.29"/>
<polygon fill="#000000" stroke="#000000" points="1384.47,-422.17 1394.65,-425.12 1388.53,-416.47 1384.47,-422.17"/>
<text text-anchor="middle" x="1330.77" y="-376.72" font-family="monospace" font-size="10.00">owns</text>
</g>
<!-- simulon::api&#45;&gt;simulon::api::spawn -->
<g id="edge21" class="edge">
<title>simulon::api&#45;&gt;simulon::api::spawn</title>
<path fill="none" stroke="#7f7f7f" stroke-dasharray="5,2" d="M1344.05,-318.86C1381.2,-340.92 1429.55,-385.3 1448.21,-416.05"/>
<polygon fill="#7f7f7f" stroke="#7f7f7f" points="1445.24,-417.91 1453.01,-425.12 1451.42,-414.64 1445.24,-417.91"/>
<text text-anchor="middle" x="1383.63" y="-370.45" font-family="monospace" font-size="10.00">uses</text>
</g>
<!-- simulon::api::storage -->
<g id="node10" class="node">
<title>simulon::api::storage</title>
<polygon fill="#db5367" stroke="black" points="1077.05,-561.77 1077.05,-599.77 1220.05,-599.77 1220.05,-561.77 1077.05,-561.77"/>
<text text-anchor="middle" x="1148.55" y="-587.77" font-family="monospace" font-size="10.00">pub(self) mod</text>
<polyline fill="none" stroke="black" points="1077.05,-580.77 1220.05,-580.77 "/>
<text text-anchor="middle" x="1148.55" y="-568.77" font-family="monospace" font-size="10.00">simulon::api::storage</text>
</g>
<!-- simulon::api&#45;&gt;simulon::api::storage -->
<g id="edge22" class="edge">
<title>simulon::api&#45;&gt;simulon::api::storage</title>
<path fill="none" stroke="#000000" d="M1269.25,-328.15C1227.19,-375.65 1161.44,-495.18 1147.09,-551.46"/>
<polygon fill="#000000" stroke="#000000" points="1143.6,-551.01 1144.97,-561.51 1150.45,-552.45 1143.6,-551.01"/>
<text text-anchor="middle" x="1195.67" y="-442.8" font-family="monospace" font-size="10.00">owns</text>
</g>
<!-- simulon::api&#45;&gt;simulon::api::storage -->
<g id="edge23" class="edge">
<title>simulon::api&#45;&gt;simulon::api::storage</title>
<path fill="none" stroke="#7f7f7f" stroke-dasharray="5,2" d="M1303.1,-328.04C1295.66,-376.18 1230.29,-498.47 1185.39,-553.72"/>
<polygon fill="#7f7f7f" stroke="#7f7f7f" points="1182.44,-551.79 1178.65,-561.68 1187.78,-556.32 1182.44,-551.79"/>
<text text-anchor="middle" x="1231.74" y="-432.88" font-family="monospace" font-size="10.00">uses</text>
</g>
<!-- simulon::api::time -->
<g id="node11" class="node">
<title>simulon::api::time</title>
<polygon fill="#db5367" stroke="black" points="1340.91,-119.6 1340.91,-157.6 1465.91,-157.6 1465.91,-119.6 1340.91,-119.6"/>
<text text-anchor="middle" x="1403.41" y="-145.6" font-family="monospace" font-size="10.00">pub(self) mod</text>
<polyline fill="none" stroke="black" points="1340.91,-138.6 1465.91,-138.6 "/>
<text text-anchor="middle" x="1403.41" y="-126.6" font-family="monospace" font-size="10.00">simulon::api::time</text>
</g>
<!-- simulon::api&#45;&gt;simulon::api::time -->
<g id="edge24" class="edge">
<title>simulon::api&#45;&gt;simulon::api::time</title>
<path fill="none" stroke="#000000" d="M1335.91,-289.86C1364.44,-259.77 1397.69,-203.35 1406.69,-168.1"/>
<polygon fill="#000000" stroke="#000000" points="1410.2,-168.37 1408.67,-157.89 1403.33,-167.04 1410.2,-168.37"/>
<text text-anchor="middle" x="1358.8" y="-231.98" font-family="monospace" font-size="10.00">owns</text>
</g>
<!-- simulon::api&#45;&gt;simulon::api::time -->
<g id="edge25" class="edge">
<title>simulon::api&#45;&gt;simulon::api::time</title>
<path fill="none" stroke="#7f7f7f" stroke-dasharray="5,2" d="M1294.24,-289.61C1297.99,-258.54 1330.29,-200.15 1360.07,-165.35"/>
<polygon fill="#7f7f7f" stroke="#7f7f7f" points="1362.7,-167.66 1366.77,-157.88 1357.49,-162.99 1362.7,-167.66"/>
<text text-anchor="middle" x="1314.66" y="-230.48" font-family="monospace" font-size="10.00">uses</text>
</g>
<!-- simulon::api::addr&#45;&gt;simulon::state -->
<g id="edge26" class="edge">
<title>simulon::api::addr&#45;&gt;simulon::state</title>
<path fill="none" stroke="#7f7f7f" stroke-dasharray="5,2" d="M1018.82,-194.17C1018.73,-219.05 1036.3,-261.11 1056.21,-289.2"/>
<polygon fill="#7f7f7f" stroke="#7f7f7f" points="1053.61,-291.57 1062.44,-297.43 1059.19,-287.35 1053.61,-291.57"/>
<text text-anchor="middle" x="1025.01" y="-244.68" font-family="monospace" font-size="10.00">uses</text>
</g>
<!-- simulon::api::connect&#45;&gt;simulon::api::addr -->
<g id="edge27" class="edge">
<title>simulon::api::connect&#45;&gt;simulon::api::addr</title>
<path fill="none" stroke="#7f7f7f" stroke-dasharray="5,2" d="M1261.9,-85.55C1212.97,-104.21 1138.36,-132.67 1086.44,-152.47"/>
<polygon fill="#7f7f7f" stroke="#7f7f7f" points="1085.12,-149.23 1077.02,-156.06 1087.61,-155.77 1085.12,-149.23"/>
<text text-anchor="middle" x="1161.67" y="-122.01" font-family="monospace" font-size="10.00">uses</text>
</g>
<!-- simulon::api::connect&#45;&gt;simulon::api::connection -->
<g id="edge28" class="edge">
<title>simulon::api::connect&#45;&gt;simulon::api::connection</title>
<path fill="none" stroke="#7f7f7f" stroke-dasharray="5,2" d="M1258.97,-47.39C1254.09,-45.63 1249.11,-43.83 1244.16,-42.03"/>
<polygon fill="#7f7f7f" stroke="#7f7f7f" points="1245.28,-38.72 1234.69,-38.61 1242.9,-45.3 1245.28,-38.72"/>
<text text-anchor="middle" x="1264.06" y="-36.71" font-family="monospace" font-size="10.00">uses</text>
</g>
<!-- simulon::api::connect&#45;&gt;simulon::future -->
<g id="edge29" class="edge">
<title>simulon::api::connect&#45;&gt;simulon::future</title>
<path fill="none" stroke="#7f7f7f" stroke-dasharray="5,2" d="M1240,-66.51C1200.25,-66.51 1151.26,-66.51 1112.85,-66.51"/>
<polygon fill="#7f7f7f" stroke="#7f7f7f" points="1112.82,-63.01 1102.82,-66.51 1112.82,-70.01 1112.82,-63.01"/>
<text text-anchor="middle" x="1163.93" y="-69.51" font-family="monospace" font-size="10.00">uses</text>
</g>
<!-- simulon::api::connect&#45;&gt;simulon::state -->
<g id="edge30" class="edge">
<title>simulon::api::connect&#45;&gt;simulon::state</title>
<path fill="none" stroke="#7f7f7f" stroke-dasharray="5,2" d="M1270.92,-85.59C1216.32,-130.23 1126.95,-236.01 1101.4,-288.23"/>
<polygon fill="#7f7f7f" stroke="#7f7f7f" points="1098.09,-287.06 1097.28,-297.62 1104.5,-289.87 1098.09,-287.06"/>
<text text-anchor="middle" x="1173.66" y="-189.91" font-family="monospace" font-size="10.00">uses</text>
</g>
<!-- simulon::api::connection&#45;&gt;simulon::api::addr -->
<g id="edge31" class="edge">
<title>simulon::api::connection&#45;&gt;simulon::api::addr</title>
<path fill="none" stroke="#7f7f7f" stroke-dasharray="5,2" d="M1162.93,-38.58C1135.43,-66.22 1084.42,-117.51 1053.37,-148.74"/>
<polygon fill="#7f7f7f" stroke="#7f7f7f" points="1050.87,-146.28 1046.3,-155.84 1055.84,-151.22 1050.87,-146.28"/>
<text text-anchor="middle" x="1095.65" y="-96.66" font-family="monospace" font-size="10.00">uses</text>
</g>
<!-- simulon::api::connection&#45;&gt;simulon::future -->
<g id="edge32" class="edge">
<title>simulon::api::connection&#45;&gt;simulon::future</title>
<path fill="none" stroke="#7f7f7f" stroke-dasharray="5,2" d="M1127.86,-38.62C1122.65,-40.46 1117.33,-42.34 1112.05,-44.21"/>
<polygon fill="#7f7f7f" stroke="#7f7f7f" points="1110.86,-40.92 1102.6,-47.56 1113.19,-47.52 1110.86,-40.92"/>
<text text-anchor="middle" x="1132.45" y="-44.41" font-family="monospace" font-size="10.00">uses</text>
</g>
<!-- simulon::api::connection&#45;&gt;simulon::state -->
<g id="edge33" class="edge">
<title>simulon::api::connection&#45;&gt;simulon::state</title>
<path fill="none" stroke="#7f7f7f" stroke-dasharray="5,2" d="M1176.44,-38.54C1161.94,-89.17 1122.37,-227.32 1105.06,-287.75"/>
<polygon fill="#7f7f7f" stroke="#7f7f7f" points="1101.67,-286.85 1102.28,-297.43 1108.4,-288.78 1101.67,-286.85"/>
<text text-anchor="middle" x="1128.25" y="-155.15" font-family="monospace" font-size="10.00">uses</text>
</g>
<!-- simulon::api::listen&#45;&gt;simulon::api::addr -->
<g id="edge34" class="edge">
<title>simulon::api::listen&#45;&gt;simulon::api::addr</title>
<path fill="none" stroke="#7f7f7f" stroke-dasharray="5,2" d="M1156.34,-168.78C1138.07,-169.67 1118.29,-170.64 1099.82,-171.54"/>
<polygon fill="#7f7f7f" stroke="#7f7f7f" points="1099.53,-168.05 1089.71,-172.03 1099.87,-175.04 1099.53,-168.05"/>
<text text-anchor="middle" x="1115.58" y="-173.16" font-family="monospace" font-size="10.00">uses</text>
</g>
<!-- simulon::api::listen&#45;&gt;simulon::api::connection -->
<g id="edge35" class="edge">
<title>simulon::api::listen&#45;&gt;simulon::api::connection</title>
<path fill="none" stroke="#7f7f7f" stroke-dasharray="5,2" d="M1219.33,-146.36C1211.98,-121.45 1199.04,-77.61 1190.47,-48.56"/>
<polygon fill="#7f7f7f" stroke="#7f7f7f" points="1193.72,-47.18 1187.53,-38.58 1187,-49.17 1193.72,-47.18"/>
<text text-anchor="middle" x="1192.4" y="-100.46" font-family="monospace" font-size="10.00">uses</text>
</g>
<!-- simulon::api::listen&#45;&gt;simulon::future -->
<g id="edge36" class="edge">
<title>simulon::api::listen&#45;&gt;simulon::future</title>
<path fill="none" stroke="#7f7f7f" stroke-dasharray="5,2" d="M1191.04,-146.36C1162.68,-130.42 1122.1,-107.6 1091.57,-90.43"/>
<polygon fill="#7f7f7f" stroke="#7f7f7f" points="1093.28,-87.37 1082.85,-85.52 1089.85,-93.47 1093.28,-87.37"/>
<text text-anchor="middle" x="1128.8" y="-121.4" font-family="monospace" font-size="10.00">uses</text>
</g>
<!-- simulon::api::listen&#45;&gt;simulon::state -->
<g id="edge37" class="edge">
<title>simulon::api::listen&#45;&gt;simulon::state</title>
<path fill="none" stroke="#7f7f7f" stroke-dasharray="5,2" d="M1208.72,-184.6C1186.08,-211.3 1144.95,-259.84 1119.34,-290.06"/>
<polygon fill="#7f7f7f" stroke="#7f7f7f" points="1116.66,-287.8 1112.87,-297.7 1122,-292.33 1116.66,-287.8"/>
<text text-anchor="middle" x="1151.53" y="-240.33" font-family="monospace" font-size="10.00">uses</text>
</g>
<!-- simulon::api::log&#45;&gt;simulon::state -->
<g id="edge38" class="edge">
<title>simulon::api::log&#45;&gt;simulon::state</title>
<path fill="none" stroke="#7f7f7f" stroke-dasharray="5,2" d="M1322.78,-551.08C1279.7,-506.41 1172.08,-394.8 1122.5,-343.39"/>
<polygon fill="#7f7f7f" stroke="#7f7f7f" points="1124.81,-340.74 1115.35,-335.97 1119.77,-345.59 1124.81,-340.74"/>
<text text-anchor="middle" x="1235.14" y="-450.24" font-family="monospace" font-size="10.00">uses</text>
</g>
<!-- simulon::api::spawn&#45;&gt;simulon::state -->
<g id="edge39" class="edge">
<title>simulon::api::spawn&#45;&gt;simulon::state</title>
<path fill="none" stroke="#7f7f7f" stroke-dasharray="5,2" d="M1400.13,-425.22C1335.01,-401.92 1225.22,-362.65 1157.1,-338.28"/>
<polygon fill="#7f7f7f" stroke="#7f7f7f" points="1157.96,-334.87 1147.36,-334.8 1155.6,-341.46 1157.96,-334.87"/>
<text text-anchor="middle" x="1266.12" y="-384.75" font-family="monospace" font-size="10.00">uses</text>
</g>
<!-- simulon::api::storage&#45;&gt;simulon::state -->
<g id="edge40" class="edge">
<title>simulon::api::storage&#45;&gt;simulon::state</title>
<path fill="none" stroke="#7f7f7f" stroke-dasharray="5,2" d="M1144.74,-561.35C1135.74,-515.46 1113.12,-400.08 1102.47,-345.79"/>
<polygon fill="#7f7f7f" stroke="#7f7f7f" points="1105.87,-344.93 1100.51,-335.79 1099,-346.27 1105.87,-344.93"/>
<text text-anchor="middle" x="1111.11" y="-456.57" font-family="monospace" font-size="10.00">uses</text>
</g>
<!-- simulon::api::storage&#45;&gt;simulon::storage -->
<g id="edge41" class="edge">
<title>simulon::api::storage&#45;&gt;simulon::storage</title>
<path fill="none" stroke="#7f7f7f" stroke-dasharray="5,2" d="M1076.99,-563.79C1049.11,-557.18 1017.35,-549.64 989.97,-543.14"/>
<polygon fill="#7f7f7f" stroke="#7f7f7f" points="990.63,-539.7 980.09,-540.8 989.02,-546.52 990.63,-539.7"/>
<text text-anchor="middle" x="1020.98" y="-556.47" font-family="monospace" font-size="10.00">uses</text>
</g>
<!-- simulon::api::time&#45;&gt;simulon::future -->
<g id="edge42" class="edge">
<title>simulon::api::time&#45;&gt;simulon::future</title>
<path fill="none" stroke="#7f7f7f" stroke-dasharray="5,2" d="M1340.87,-125.88C1276.65,-112.81 1177.21,-92.58 1112.61,-79.44"/>
<polygon fill="#7f7f7f" stroke="#7f7f7f" points="1113.05,-75.96 1102.56,-77.39 1111.66,-82.82 1113.05,-75.96"/>
<text text-anchor="middle" x="1239.24" y="-105.66" font-family="monospace" font-size="10.00">uses</text>
</g>
<!-- simulon::api::time&#45;&gt;simulon::state -->
<g id="edge43" class="edge">
<title>simulon::api::time&#45;&gt;simulon::state</title>
<path fill="none" stroke="#7f7f7f" stroke-dasharray="5,2" d="M1370.6,-157.66C1314.49,-190.25 1200.22,-256.61 1138.52,-292.45"/>
<polygon fill="#7f7f7f" stroke="#7f7f7f" points="1136.7,-289.46 1129.81,-297.51 1140.21,-295.51 1136.7,-289.46"/>
<text text-anchor="middle" x="1242.06" y="-228.06" font-family="monospace" font-size="10.00">uses</text>
</g>
<!-- simulon::latency::constant -->
<g id="node14" class="node">
<title>simulon::latency::constant</title>
<polygon fill="#db5367" stroke="black" points="0,-170.86 0,-208.86 173,-208.86 173,-170.86 0,-170.86"/>
<text text-anchor="middle" x="86.5" y="-196.86" font-family="monospace" font-size="10.00">pub(self) mod</text>
<polyline fill="none" stroke="black" points="0,-189.86 173,-189.86 "/>
<text text-anchor="middle" x="86.5" y="-177.86" font-family="monospace" font-size="10.00">simulon::latency::constant</text>
</g>
<!-- simulon::latency&#45;&gt;simulon::latency::constant -->
<g id="edge44" class="edge">
<title>simulon::latency&#45;&gt;simulon::latency::constant</title>
<path fill="none" stroke="#000000" d="M436.75,-238.58C400.18,-186.16 188.79,-142.49 113.07,-167.01"/>
<polygon fill="#000000" stroke="#000000" points="111.72,-163.78 103.72,-170.73 114.31,-170.28 111.72,-163.78"/>
<text text-anchor="middle" x="262.41" y="-205.79" font-family="monospace" font-size="10.00">owns</text>
</g>
<!-- simulon::latency&#45;&gt;simulon::latency::constant -->
<g id="edge45" class="edge">
<title>simulon::latency&#45;&gt;simulon::latency::constant</title>
<path fill="none" stroke="#7f7f7f" stroke-dasharray="5,2" d="M424.59,-277.01C361.94,-307.66 150.77,-267.99 98.1,-216.76"/>
<polygon fill="#7f7f7f" stroke="#7f7f7f" points="100.7,-214.41 91.52,-209.12 95.4,-218.98 100.7,-214.41"/>
<text text-anchor="middle" x="248.85" y="-249.88" font-family="monospace" font-size="10.00">uses</text>
</g>
<!-- simulon::latency::ping -->
<g id="node15" class="node">
<title>simulon::latency::ping</title>
<polygon fill="#81c169" stroke="black" points="301.23,-404.03 301.23,-442.03 450.23,-442.03 450.23,-404.03 301.23,-404.03"/>
<text text-anchor="middle" x="375.73" y="-430.03" font-family="monospace" font-size="10.00">pub mod</text>
<polyline fill="none" stroke="black" points="301.23,-423.03 450.23,-423.03 "/>
<text text-anchor="middle" x="375.73" y="-411.03" font-family="monospace" font-size="10.00">simulon::latency::ping</text>
</g>
<!-- simulon::latency&#45;&gt;simulon::latency::ping -->
<g id="edge46" class="edge">
<title>simulon::latency&#45;&gt;simulon::latency::ping</title>
<path fill="none" stroke="#000000" d="M385.29,-276.84C357.82,-306.52 340.68,-359.77 350.83,-394.14"/>
<polygon fill="#000000" stroke="#000000" points="347.7,-395.73 354.66,-403.72 354.2,-393.14 347.7,-395.73"/>
<text text-anchor="middle" x="355.56" y="-338.49" font-family="monospace" font-size="10.00">owns</text>
</g>
<!-- simulon::latency&#45;&gt;simulon::latency::ping -->
<g id="edge47" class="edge">
<title>simulon::latency&#45;&gt;simulon::latency::ping</title>
<path fill="none" stroke="#7f7f7f" stroke-dasharray="5,2" d="M462.85,-277.15C478.82,-307.8 464.95,-362.21 438.98,-396.06"/>
<polygon fill="#7f7f7f" stroke="#7f7f7f" points="436.25,-393.87 432.51,-403.78 441.62,-398.36 436.25,-393.87"/>
<text text-anchor="middle" x="438.42" y="-339.6" font-family="monospace" font-size="10.00">uses</text>
</g>
<!-- simulon::latency::constant&#45;&gt;simulon::latency -->
<g id="edge48" class="edge">
<title>simulon::latency::constant&#45;&gt;simulon::latency</title>
<path fill="none" stroke="#7f7f7f" stroke-dasharray="5,2" d="M173.42,-206.5C235.63,-218.41 318.13,-234.21 375.16,-245.12"/>
<polygon fill="#7f7f7f" stroke="#7f7f7f" points="374.67,-248.59 385.15,-247.03 375.99,-241.72 374.67,-248.59"/>
<text text-anchor="middle" x="261.79" y="-228.81" font-family="monospace" font-size="10.00">uses</text>
</g>
<!-- simulon::latency::ping&#45;&gt;simulon::latency -->
<g id="edge49" class="edge">
<title>simulon::latency::ping&#45;&gt;simulon::latency</title>
<path fill="none" stroke="#7f7f7f" stroke-dasharray="5,2" d="M383.44,-403.77C394.98,-374.93 416.81,-320.34 430.26,-286.73"/>
<polygon fill="#7f7f7f" stroke="#7f7f7f" points="433.68,-287.61 434.14,-277.03 427.18,-285.01 433.68,-287.61"/>
<text text-anchor="middle" x="394.35" y="-348.25" font-family="monospace" font-size="10.00">uses</text>
</g>
<!-- simulon::message&#45;&gt;simulon::api::addr -->
<g id="edge50" class="edge">
<title>simulon::message&#45;&gt;simulon::api::addr</title>
<path fill="none" stroke="#7f7f7f" stroke-dasharray="5,2" d="M907.36,-140.78C922.48,-145.11 939.02,-149.84 954.84,-154.37"/>
<polygon fill="#7f7f7f" stroke="#7f7f7f" points="954.01,-157.77 964.59,-157.16 955.94,-151.04 954.01,-157.77"/>
<text text-anchor="middle" x="918.6" y="-150.57" font-family="monospace" font-size="10.00">uses</text>
</g>
<!-- simulon::message&#45;&gt;simulon::future -->
<g id="edge51" class="edge">
<title>simulon::message&#45;&gt;simulon::future</title>
<path fill="none" stroke="#7f7f7f" stroke-dasharray="5,2" d="M907.11,-107.96C931.6,-100.8 960.36,-92.4 985.57,-85.04"/>
<polygon fill="#7f7f7f" stroke="#7f7f7f" points="986.78,-88.33 995.4,-82.17 984.82,-81.61 986.78,-88.33"/>
<text text-anchor="middle" x="933.84" y="-99.5" font-family="monospace" font-size="10.00">uses</text>
</g>
<!-- simulon::message&#45;&gt;simulon::state -->
<g id="edge52" class="edge">
<title>simulon::message&#45;&gt;simulon::state</title>
<path fill="none" stroke="#7f7f7f" stroke-dasharray="5,2" d="M854.7,-143.57C878.59,-182.02 973.26,-259.78 1037.32,-297.72"/>
<polygon fill="#7f7f7f" stroke="#7f7f7f" points="1035.73,-300.85 1046.14,-302.81 1039.22,-294.78 1035.73,-300.85"/>
<text text-anchor="middle" x="933.51" y="-223.65" font-family="monospace" font-size="10.00">uses</text>
</g>
<!-- simulon::simulation&#45;&gt;simulon::api::addr -->
<g id="edge53" class="edge">
<title>simulon::simulation&#45;&gt;simulon::api::addr</title>
<path fill="none" stroke="#7f7f7f" stroke-dasharray="5,2" d="M763.02,-305C818.11,-277.9 919.15,-228.21 979.03,-198.76"/>
<polygon fill="#7f7f7f" stroke="#7f7f7f" points="980.84,-201.76 988.27,-194.21 977.75,-195.48 980.84,-201.76"/>
<text text-anchor="middle" x="858.53" y="-254.88" font-family="monospace" font-size="10.00">uses</text>
</g>
<!-- simulon::simulation&#45;&gt;simulon::latency -->
<g id="edge54" class="edge">
<title>simulon::simulation&#45;&gt;simulon::latency</title>
<path fill="none" stroke="#7f7f7f" stroke-dasharray="5,2" d="M658.83,-308.68C613.57,-298.08 553.58,-284.04 508.14,-273.41"/>
<polygon fill="#7f7f7f" stroke="#7f7f7f" points="508.92,-269.99 498.39,-271.12 507.33,-276.81 508.92,-269.99"/>
<text text-anchor="middle" x="570.98" y="-294.04" font-family="monospace" font-size="10.00">uses</text>
</g>
<!-- simulon::simulation&#45;&gt;simulon::latency::ping -->
<g id="edge55" class="edge">
<title>simulon::simulation&#45;&gt;simulon::latency::ping</title>
<path fill="none" stroke="#7f7f7f" stroke-dasharray="5,2" d="M658.79,-342.64C600.19,-359.28 514.28,-383.68 452.5,-401.23"/>
<polygon fill="#7f7f7f" stroke="#7f7f7f" points="451.46,-397.89 442.8,-403.99 453.37,-404.62 451.46,-397.89"/>
<text text-anchor="middle" x="543.14" y="-374.94" font-family="monospace" font-size="10.00">uses</text>
</g>
<!-- simulon::simulation&#45;&gt;simulon::message -->
<g id="edge56" class="edge">
<title>simulon::simulation&#45;&gt;simulon::message</title>
<path fill="none" stroke="#7f7f7f" stroke-dasharray="5,2" d="M736.46,-304.88C758.87,-269.43 806.93,-193.39 832.92,-152.27"/>
<polygon fill="#7f7f7f" stroke="#7f7f7f" points="836.03,-153.89 838.42,-143.57 830.12,-150.15 836.03,-153.89"/>
<text text-anchor="middle" x="772.19" y="-231.57" font-family="monospace" font-size="10.00">uses</text>
</g>
<!-- simulon::simulation&#45;&gt;simulon::report -->
<g id="edge57" class="edge">
<title>simulon::simulation&#45;&gt;simulon::report</title>
<path fill="none" stroke="#7f7f7f" stroke-dasharray="5,2" d="M731.22,-343.24C741.47,-372.02 760.88,-426.49 772.83,-460.02"/>
<polygon fill="#7f7f7f" stroke="#7f7f7f" points="769.62,-461.46 776.28,-469.7 776.22,-459.11 769.62,-461.46"/>
<text text-anchor="middle" x="739.52" y="-404.63" font-family="monospace" font-size="10.00">uses</text>
</g>
<!-- simulon::simulation&#45;&gt;simulon::state -->
<g id="edge58" class="edge">
<title>simulon::simulation&#45;&gt;simulon::state</title>
<path fill="none" stroke="#7f7f7f" stroke-dasharray="5,2" d="M790.09,-322.72C859.6,-321.36 968.37,-319.22 1035.96,-317.89"/>
<polygon fill="#7f7f7f" stroke="#7f7f7f" points="1036.11,-321.39 1046.03,-317.69 1035.97,-314.39 1036.11,-321.39"/>
<text text-anchor="middle" x="900.52" y="-323.31" font-family="monospace" font-size="10.00">uses</text>
</g>
<!-- simulon::simulation&#45;&gt;simulon::storage -->
<g id="edge59" class="edge">
<title>simulon::simulation&#45;&gt;simulon::storage</title>
<path fill="none" stroke="#7f7f7f" stroke-dasharray="5,2" d="M743.09,-343.14C778.79,-379.62 856.67,-459.21 897.38,-500.81"/>
<polygon fill="#7f7f7f" stroke="#7f7f7f" points="895.03,-503.41 904.53,-508.11 900.04,-498.52 895.03,-503.41"/>
<text text-anchor="middle" x="807.73" y="-424.97" font-family="monospace" font-size="10.00">uses</text>
</g>
<!-- simulon::state&#45;&gt;simulon::api::addr -->
<g id="edge60" class="edge">
<title>simulon::state&#45;&gt;simulon::api::addr</title>
<path fill="none" stroke="#7f7f7f" stroke-dasharray="5,2" d="M1105.12,-297.6C1105.21,-272.72 1087.64,-230.66 1067.74,-202.57"/>
<polygon fill="#7f7f7f" stroke="#7f7f7f" points="1070.33,-200.2 1061.5,-194.34 1064.75,-204.42 1070.33,-200.2"/>
<text text-anchor="middle" x="1073.93" y="-253.09" font-family="monospace" font-size="10.00">uses</text>
</g>
<!-- simulon::state&#45;&gt;simulon::api::connect -->
<g id="edge61" class="edge">
<title>simulon::state&#45;&gt;simulon::api::connect</title>
<path fill="none" stroke="#7f7f7f" stroke-dasharray="5,2" d="M1137.65,-297.62C1192.25,-252.98 1281.62,-147.2 1307.17,-94.99"/>
<polygon fill="#7f7f7f" stroke="#7f7f7f" points="1310.48,-96.15 1311.29,-85.59 1304.07,-93.34 1310.48,-96.15"/>
<text text-anchor="middle" x="1209.91" y="-199.31" font-family="monospace" font-size="10.00">uses</text>
</g>
<!-- simulon::state&#45;&gt;simulon::future -->
<g id="edge62" class="edge">
<title>simulon::state&#45;&gt;simulon::future</title>
<path fill="none" stroke="#7f7f7f" stroke-dasharray="5,2" d="M1093.1,-297.48C1084.79,-253.91 1064.47,-147.4 1054.6,-95.66"/>
<polygon fill="#7f7f7f" stroke="#7f7f7f" points="1058.02,-94.95 1052.71,-85.79 1051.15,-96.27 1058.02,-94.95"/>
<text text-anchor="middle" x="1061.35" y="-199.57" font-family="monospace" font-size="10.00">uses</text>
</g>
<!-- simulon::state&#45;&gt;simulon::message -->
<g id="edge63" class="edge">
<title>simulon::state&#45;&gt;simulon::message</title>
<path fill="none" stroke="#7f7f7f" stroke-dasharray="5,2" d="M1092.54,-297.62C1069.4,-260.38 979.87,-186.28 916.06,-147.17"/>
<polygon fill="#7f7f7f" stroke="#7f7f7f" points="917.62,-144.02 907.24,-141.89 914.03,-150.03 917.62,-144.02"/>
<text text-anchor="middle" x="991.8" y="-225.4" font-family="monospace" font-size="10.00">uses</text>
</g>
<!-- simulon::state&#45;&gt;simulon::report -->
<g id="edge64" class="edge">
<title>simulon::state&#45;&gt;simulon::report</title>
<path fill="none" stroke="#7f7f7f" stroke-dasharray="5,2" d="M1062,-335.77C1004.53,-367.31 889.83,-430.24 826.9,-464.77"/>
<polygon fill="#7f7f7f" stroke="#7f7f7f" points="825.09,-461.77 818.01,-469.65 828.46,-467.9 825.09,-461.77"/>
<text text-anchor="middle" x="931.95" y="-403.27" font-family="monospace" font-size="10.00">uses</text>
</g>
<!-- simulon::state&#45;&gt;simulon::storage -->
<g id="edge65" class="edge">
<title>simulon::state&#45;&gt;simulon::storage</title>
<path fill="none" stroke="#7f7f7f" stroke-dasharray="5,2" d="M1081.07,-335.76C1050.13,-373.34 981.19,-457.08 945.58,-500.33"/>
<polygon fill="#7f7f7f" stroke="#7f7f7f" points="942.78,-498.22 939.13,-508.16 948.19,-502.67 942.78,-498.22"/>
<text text-anchor="middle" x="1000.82" y="-421.05" font-family="monospace" font-size="10.00">uses</text>
</g>
</g>
</svg>
