<?xml version="1.0" encoding="UTF-8" standalone="no"?>
<!DOCTYPE svg PUBLIC "-//W3C//DTD SVG 1.1//EN"
 "http://www.w3.org/Graphics/SVG/1.1/DTD/svg11.dtd">
<!-- Generated by graphviz version 4.0.0 (0)
 -->
<!-- Pages: 1 -->
<svg width="204pt" height="239pt"
 viewBox="0.00 0.00 203.60 238.61" xmlns="http://www.w3.org/2000/svg" xmlns:xlink="http://www.w3.org/1999/xlink">
<g id="graph0" class="graph" transform="scale(1 1) rotate(0) translate(28.8 209.81)">
<polygon fill="white" stroke="transparent" points="-28.8,28.8 -28.8,-209.81 174.8,-209.81 174.8,28.8 -28.8,28.8"/>
<text text-anchor="middle" x="73" y="-148.21" font-family="Helvetica,sans-Serif" font-size="36.00">fast_sri</text>
<!-- fast_sri -->
<g id="node1" class="node">
<title>fast_sri</title>
<polygon fill="#5397c8" stroke="black" points="40.5,-47.5 40.5,-85.5 105.5,-85.5 105.5,-47.5 40.5,-47.5"/>
<text text-anchor="middle" x="73" y="-73.5" font-family="monospace" font-size="10.00">crate</text>
<polyline fill="none" stroke="black" points="40.5,-66.5 105.5,-66.5 "/>
<text text-anchor="middle" x="73" y="-54.5" font-family="monospace" font-size="10.00">fast_sri</text>
</g>
<!-- fast_sri::integrity -->
<g id="node2" class="node">
<title>fast_sri::integrity</title>
<polygon fill="#f8c04c" stroke="black" points="7.5,-94.51 7.5,-132.51 138.5,-132.51 138.5,-94.51 7.5,-94.51"/>
<text text-anchor="middle" x="73" y="-120.51" font-family="monospace" font-size="10.00">pub(crate) mod</text>
<polyline fill="none" stroke="black" points="7.5,-113.51 138.5,-113.51 "/>
<text text-anchor="middle" x="73" y="-101.51" font-family="monospace" font-size="10.00">fast_sri::integrity</text>
</g>
<!-- fast_sri&#45;&gt;fast_sri::integrity -->
<g id="edge1" class="edge">
<title>fast_sri&#45;&gt;fast_sri::integrity</title>
<path fill="none" stroke="#000000" d="M46.42,-85.62C46.4,-85.71 46.39,-85.8 46.37,-85.89"/>
<polygon fill="#000000" stroke="#000000" points="42.87,-84.27 46.4,-94.26 49.87,-84.24 42.87,-84.27"/>
<text text-anchor="middle" x="33.9" y="-77.76" font-family="monospace" font-size="10.00">owns</text>
</g>
<!-- fast_sri&#45;&gt;fast_sri::integrity -->
<g id="edge2" class="edge">
<title>fast_sri&#45;&gt;fast_sri::integrity</title>
<path fill="none" stroke="#7f7f7f" stroke-dasharray="5,2" d="M99.58,-85.62C99.6,-85.71 99.61,-85.8 99.63,-85.89"/>
<polygon fill="#7f7f7f" stroke="#7f7f7f" points="96.13,-84.24 99.6,-94.26 103.13,-84.27 96.13,-84.24"/>
<text text-anchor="middle" x="112.1" y="-77.76" font-family="monospace" font-size="10.00">uses</text>
</g>
<!-- fast_sri::verify -->
<g id="node3" class="node">
<title>fast_sri::verify</title>
<polygon fill="#f8c04c" stroke="black" points="16.5,-0.5 16.5,-38.5 129.5,-38.5 129.5,-0.5 16.5,-0.5"/>
<text text-anchor="middle" x="73" y="-26.5" font-family="monospace" font-size="10.00">pub(crate) mod</text>
<polyline fill="none" stroke="black" points="16.5,-19.5 129.5,-19.5 "/>
<text text-anchor="middle" x="73" y="-7.5" font-family="monospace" font-size="10.00">fast_sri::verify</text>
</g>
<!-- fast_sri&#45;&gt;fast_sri::verify -->
<g id="edge3" class="edge">
<title>fast_sri&#45;&gt;fast_sri::verify</title>
<path fill="none" stroke="#000000" d="M99.58,-47.39C99.6,-47.3 99.61,-47.21 99.63,-47.12"/>
<polygon fill="#000000" stroke="#000000" points="103.13,-48.74 99.6,-38.75 96.13,-48.76 103.13,-48.74"/>
<text text-anchor="middle" x="87.1" y="-39.25" font-family="monospace" font-size="10.00">owns</text>
</g>
<!-- fast_sri&#45;&gt;fast_sri::verify -->
<g id="edge4" class="edge">
<title>fast_sri&#45;&gt;fast_sri::verify</title>
<path fill="none" stroke="#7f7f7f" stroke-dasharray="5,2" d="M46.42,-47.39C46.4,-47.3 46.39,-47.21 46.37,-47.12"/>
<polygon fill="#7f7f7f" stroke="#7f7f7f" points="49.87,-48.76 46.4,-38.75 42.87,-48.74 49.87,-48.76"/>
<text text-anchor="middle" x="33.9" y="-39.25" font-family="monospace" font-size="10.00">uses</text>
</g>
<!-- fast_sri::integrity&#45;&gt;fast_sri::verify -->
<g id="edge5" class="edge">
<title>fast_sri::integrity&#45;&gt;fast_sri::verify</title>
<path fill="none" stroke="#7f7f7f" stroke-dasharray="5,2" d="M95.19,-94.49C100.37,-81.32 101.36,-63.55 98.18,-48.62"/>
<polygon fill="#7f7f7f" stroke="#7f7f7f" points="101.48,-47.43 95.31,-38.82 94.76,-49.4 101.48,-47.43"/>
<text text-anchor="middle" x="109.19" y="-63.55" font-family="monospace" font-size="10.00">uses</text>
</g>
<!-- fast_sri::verify&#45;&gt;fast_sri::integrity -->
<g id="edge6" class="edge">
<title>fast_sri::verify&#45;&gt;fast_sri::integrity</title>
<path fill="none" stroke="#7f7f7f" stroke-dasharray="5,2" d="M50.81,-38.52C45.63,-51.69 44.64,-69.46 47.82,-84.39"/>
<polygon fill="#7f7f7f" stroke="#7f7f7f" points="44.52,-85.58 50.69,-94.19 51.24,-83.61 44.52,-85.58"/>
<text text-anchor="middle" x="36.81" y="-64.46" font-family="monospace" font-size="10.00">uses</text>
</g>
</g>
</svg>
