<?xml version="1.0" encoding="UTF-8" standalone="no"?>
<!DOCTYPE svg PUBLIC "-//W3C//DTD SVG 1.1//EN"
 "http://www.w3.org/Graphics/SVG/1.1/DTD/svg11.dtd">
<!-- Generated by graphviz version 4.0.0 (0)
 -->
<!-- Pages: 1 -->
<svg width="965pt" height="623pt"
 viewBox="0.00 0.00 964.78 623.17" xmlns="http://www.w3.org/2000/svg" xmlns:xlink="http://www.w3.org/1999/xlink">
<g id="graph0" class="graph" transform="scale(1 1) rotate(0) translate(28.8 594.37)">
<polygon fill="white" stroke="transparent" points="-28.8,28.8 -28.8,-594.37 935.98,-594.37 935.98,28.8 -28.8,28.8"/>
<text text-anchor="middle" x="453.59" y="-532.77" font-family="Helvetica,sans-Serif" font-size="36.00">lightning_dack_aggregator</text>
<!-- lightning_dack_aggregator -->
<g id="node1" class="node">
<title>lightning_dack_aggregator</title>
<polygon fill="#5397c8" stroke="black" points="260.79,-458.44 260.79,-496.44 427.79,-496.44 427.79,-458.44 260.79,-458.44"/>
<text text-anchor="middle" x="344.29" y="-484.44" font-family="monospace" font-size="10.00">crate</text>
<polyline fill="none" stroke="black" points="260.79,-477.44 427.79,-477.44 "/>
<text text-anchor="middle" x="344.29" y="-465.44" font-family="monospace" font-size="10.00">lightning_dack_aggregator</text>
</g>
<!-- lightning_dack_aggregator::config::Config -->
<g id="node2" class="node">
<title>lightning_dack_aggregator::config::Config</title>
<polygon fill="#81c169" stroke="black" points="139.08,-394.36 139.08,-432.36 240.08,-432.36 240.08,-394.36 139.08,-394.36"/>
<text text-anchor="middle" x="189.58" y="-420.36" font-family="monospace" font-size="10.00">pub struct</text>
<polyline fill="none" stroke="black" points="139.08,-413.36 240.08,-413.36 "/>
<text text-anchor="middle" x="189.58" y="-401.36" font-family="monospace" font-size="10.00">config::Config</text>
</g>
<!-- lightning_dack_aggregator&#45;&gt;lightning_dack_aggregator::config::Config -->
<g id="edge1" class="edge">
<title>lightning_dack_aggregator&#45;&gt;lightning_dack_aggregator::config::Config</title>
<path fill="none" stroke="#000000" d="M338.03,-458.21C322.47,-440.4 284.12,-420.85 250.17,-410.82"/>
<polygon fill="#000000" stroke="#000000" points="250.84,-407.37 240.27,-408.14 249.01,-414.13 250.84,-407.37"/>
<text text-anchor="middle" x="281.6" y="-437.52" font-family="monospace" font-size="10.00">owns</text>
</g>
<!-- lightning_dack_aggregator&#45;&gt;lightning_dack_aggregator::config::Config -->
<g id="edge2" class="edge">
<title>lightning_dack_aggregator&#45;&gt;lightning_dack_aggregator::config::Config</title>
<path fill="none" stroke="#7f7f7f" stroke-dasharray="5,2" d="M260.69,-472C238.57,-463.23 217.11,-451.58 203.47,-440"/>
<polygon fill="#7f7f7f" stroke="#7f7f7f" points="205.67,-437.26 196.05,-432.83 200.81,-442.3 205.67,-437.26"/>
<text text-anchor="middle" x="219.58" y="-459" font-family="monospace" font-size="10.00">uses</text>
</g>
<!-- lightning_dack_aggregator::dack_aggregator::AggregatorInner -->
<g id="node3" class="node">
<title>lightning_dack_aggregator::dack_aggregator::AggregatorInner</title>
<polygon fill="#db5367" stroke="black" points="239.79,-20.86 239.79,-58.86 448.79,-58.86 448.79,-20.86 239.79,-20.86"/>
<text text-anchor="middle" x="344.29" y="-46.86" font-family="monospace" font-size="10.00">pub(self) struct</text>
<polyline fill="none" stroke="black" points="239.79,-39.86 448.79,-39.86 "/>
<text text-anchor="middle" x="344.29" y="-27.86" font-family="monospace" font-size="10.00">dack_aggregator::AggregatorInner</text>
</g>
<!-- lightning_dack_aggregator&#45;&gt;lightning_dack_aggregator::dack_aggregator::AggregatorInner -->
<g id="edge3" class="edge">
<title>lightning_dack_aggregator&#45;&gt;lightning_dack_aggregator::dack_aggregator::AggregatorInner</title>
<path fill="none" stroke="#000000" d="M344.29,-458.36C344.29,-389.34 344.29,-152.36 344.29,-69.09"/>
<polygon fill="#000000" stroke="#000000" points="347.79,-69.05 344.29,-59.05 340.79,-69.05 347.79,-69.05"/>
<text text-anchor="middle" x="331.79" y="-266.72" font-family="monospace" font-size="10.00">owns</text>
</g>
<!-- lightning_dack_aggregator::dack_aggregator::DeliveryAcknowledgmentAggregator -->
<g id="node6" class="node">
<title>lightning_dack_aggregator::dack_aggregator::DeliveryAcknowledgmentAggregator</title>
<polygon fill="#81c169" stroke="black" points="407.58,-239.65 407.58,-277.65 718.58,-277.65 718.58,-239.65 407.58,-239.65"/>
<text text-anchor="middle" x="563.08" y="-265.65" font-family="monospace" font-size="10.00">pub struct</text>
<polyline fill="none" stroke="black" points="407.58,-258.65 718.58,-258.65 "/>
<text text-anchor="middle" x="563.08" y="-246.65" font-family="monospace" font-size="10.00">dack_aggregator::DeliveryAcknowledgmentAggregator</text>
</g>
<!-- lightning_dack_aggregator&#45;&gt;lightning_dack_aggregator::dack_aggregator::DeliveryAcknowledgmentAggregator -->
<g id="edge4" class="edge">
<title>lightning_dack_aggregator&#45;&gt;lightning_dack_aggregator::dack_aggregator::DeliveryAcknowledgmentAggregator</title>
<path fill="none" stroke="#000000" d="M391.69,-458.38C446.4,-418.7 530.05,-332.87 556.69,-286.86"/>
<polygon fill="#000000" stroke="#000000" points="559.81,-288.42 561.35,-277.94 553.61,-285.18 559.81,-288.42"/>
<text text-anchor="middle" x="461.69" y="-375.62" font-family="monospace" font-size="10.00">owns</text>
</g>
<!-- lightning_dack_aggregator&#45;&gt;lightning_dack_aggregator::dack_aggregator::DeliveryAcknowledgmentAggregator -->
<g id="edge5" class="edge">
<title>lightning_dack_aggregator&#45;&gt;lightning_dack_aggregator::dack_aggregator::DeliveryAcknowledgmentAggregator</title>
<path fill="none" stroke="#7f7f7f" stroke-dasharray="5,2" d="M346.05,-458.09C364.82,-417.19 448.83,-328.88 507.28,-284"/>
<polygon fill="#7f7f7f" stroke="#7f7f7f" points="509.43,-286.75 515.34,-277.96 505.24,-281.15 509.43,-286.75"/>
<text text-anchor="middle" x="414.16" y="-374.04" font-family="monospace" font-size="10.00">uses</text>
</g>
<!-- lightning_dack_aggregator::dack_aggregator::AggregatorInner&#45;&gt;lightning_dack_aggregator::config::Config -->
<g id="edge6" class="edge">
<title>lightning_dack_aggregator::dack_aggregator::AggregatorInner&#45;&gt;lightning_dack_aggregator::config::Config</title>
<path fill="none" stroke="#7f7f7f" stroke-dasharray="5,2" d="M336.4,-58.9C311.12,-119.95 231.93,-311.12 201.58,-384.39"/>
<polygon fill="#7f7f7f" stroke="#7f7f7f" points="198.23,-383.34 197.64,-393.92 204.7,-386.02 198.23,-383.34"/>
<text text-anchor="middle" x="256.49" y="-224.64" font-family="monospace" font-size="10.00">uses</text>
</g>
<!-- lightning_dack_aggregator::dack_aggregator::AggregatorInner::new -->
<g id="node4" class="node">
<title>lightning_dack_aggregator::dack_aggregator::AggregatorInner::new</title>
<polygon fill="#db5367" stroke="black" points="70.08,-84.95 70.08,-122.95 309.08,-122.95 309.08,-84.95 70.08,-84.95"/>
<text text-anchor="middle" x="189.58" y="-110.95" font-family="monospace" font-size="10.00">pub(self) fn</text>
<polyline fill="none" stroke="black" points="70.08,-103.95 309.08,-103.95 "/>
<text text-anchor="middle" x="189.58" y="-91.95" font-family="monospace" font-size="10.00">dack_aggregator::AggregatorInner::new</text>
</g>
<!-- lightning_dack_aggregator::dack_aggregator::AggregatorInner&#45;&gt;lightning_dack_aggregator::dack_aggregator::AggregatorInner::new -->
<g id="edge7" class="edge">
<title>lightning_dack_aggregator::dack_aggregator::AggregatorInner&#45;&gt;lightning_dack_aggregator::dack_aggregator::AggregatorInner::new</title>
<path fill="none" stroke="#000000" d="M239.73,-54.59C225.49,-61.61 212.62,-69.52 203.37,-77.39"/>
<polygon fill="#000000" stroke="#000000" points="200.7,-75.11 195.95,-84.58 205.57,-80.13 200.7,-75.11"/>
<text text-anchor="middle" x="209.05" y="-68.99" font-family="monospace" font-size="10.00">owns</text>
</g>
<!-- lightning_dack_aggregator::dack_aggregator::AggregatorInner::start -->
<g id="node5" class="node">
<title>lightning_dack_aggregator::dack_aggregator::AggregatorInner::start</title>
<polygon fill="#db5367" stroke="black" points="0,-239.65 0,-277.65 251,-277.65 251,-239.65 0,-239.65"/>
<text text-anchor="middle" x="125.5" y="-265.65" font-family="monospace" font-size="10.00">pub(self) async fn</text>
<polyline fill="none" stroke="black" points="0,-258.65 251,-258.65 "/>
<text text-anchor="middle" x="125.5" y="-246.65" font-family="monospace" font-size="10.00">dack_aggregator::AggregatorInner::start</text>
</g>
<!-- lightning_dack_aggregator::dack_aggregator::AggregatorInner&#45;&gt;lightning_dack_aggregator::dack_aggregator::AggregatorInner::start -->
<g id="edge8" class="edge">
<title>lightning_dack_aggregator::dack_aggregator::AggregatorInner&#45;&gt;lightning_dack_aggregator::dack_aggregator::AggregatorInner::start</title>
<path fill="none" stroke="#000000" d="M296.89,-58.92C242.18,-98.61 158.53,-184.44 131.89,-230.45"/>
<polygon fill="#000000" stroke="#000000" points="128.76,-228.88 127.23,-239.37 134.97,-232.13 128.76,-228.88"/>
<text text-anchor="middle" x="201.89" y="-147.69" font-family="monospace" font-size="10.00">owns</text>
</g>
<!-- lightning_dack_aggregator::dack_aggregator::AggregatorInner::new&#45;&gt;lightning_dack_aggregator::config::Config -->
<g id="edge9" class="edge">
<title>lightning_dack_aggregator::dack_aggregator::AggregatorInner::new&#45;&gt;lightning_dack_aggregator::config::Config</title>
<path fill="none" stroke="#7f7f7f" stroke-dasharray="5,2" d="M189.58,-123.3C189.58,-175.83 189.58,-321.31 189.58,-384"/>
<polygon fill="#7f7f7f" stroke="#7f7f7f" points="186.08,-384.01 189.58,-394.01 193.08,-384.01 186.08,-384.01"/>
<text text-anchor="middle" x="177.08" y="-256.65" font-family="monospace" font-size="10.00">uses</text>
</g>
<!-- lightning_dack_aggregator::dack_aggregator::AggregatorInner::new&#45;&gt;lightning_dack_aggregator::dack_aggregator::AggregatorInner -->
<g id="edge10" class="edge">
<title>lightning_dack_aggregator::dack_aggregator::AggregatorInner::new&#45;&gt;lightning_dack_aggregator::dack_aggregator::AggregatorInner</title>
<path fill="none" stroke="#7f7f7f" stroke-dasharray="5,2" d="M302.58,-84.87C313.41,-79.02 323.08,-72.72 330.46,-66.46"/>
<polygon fill="#7f7f7f" stroke="#7f7f7f" points="333.26,-68.61 338,-59.13 328.38,-63.59 333.26,-68.61"/>
<text text-anchor="middle" x="304.02" y="-67.66" font-family="monospace" font-size="10.00">uses</text>
</g>
<!-- lightning_dack_aggregator::dack_aggregator::AggregatorInner::start&#45;&gt;lightning_dack_aggregator::config::Config -->
<g id="edge11" class="edge">
<title>lightning_dack_aggregator::dack_aggregator::AggregatorInner::start&#45;&gt;lightning_dack_aggregator::config::Config</title>
<path fill="none" stroke="#7f7f7f" stroke-dasharray="5,2" d="M133.49,-277.93C144.63,-304.83 164.91,-353.8 177.79,-384.9"/>
<polygon fill="#7f7f7f" stroke="#7f7f7f" points="174.64,-386.42 181.7,-394.32 181.1,-383.74 174.64,-386.42"/>
<text text-anchor="middle" x="143.14" y="-334.42" font-family="monospace" font-size="10.00">uses</text>
</g>
<!-- lightning_dack_aggregator::dack_aggregator::AggregatorInner::start&#45;&gt;lightning_dack_aggregator::dack_aggregator::AggregatorInner -->
<g id="edge12" class="edge">
<title>lightning_dack_aggregator::dack_aggregator::AggregatorInner::start&#45;&gt;lightning_dack_aggregator::dack_aggregator::AggregatorInner</title>
<path fill="none" stroke="#7f7f7f" stroke-dasharray="5,2" d="M172.9,-239.59C227.61,-199.91 311.26,-114.08 337.9,-68.07"/>
<polygon fill="#7f7f7f" stroke="#7f7f7f" points="341.03,-69.64 342.56,-59.15 334.82,-66.39 341.03,-69.64"/>
<text text-anchor="middle" x="242.9" y="-156.83" font-family="monospace" font-size="10.00">uses</text>
</g>
<!-- lightning_dack_aggregator::dack_aggregator::DeliveryAcknowledgmentAggregator::Config -->
<g id="node7" class="node">
<title>lightning_dack_aggregator::dack_aggregator::DeliveryAcknowledgmentAggregator::Config</title>
<polygon fill="#db5367" stroke="black" points="319.5,-394.36 319.5,-432.36 678.5,-432.36 678.5,-394.36 319.5,-394.36"/>
<text text-anchor="middle" x="499" y="-420.36" font-family="monospace" font-size="10.00">pub(self) type</text>
<polyline fill="none" stroke="black" points="319.5,-413.36 678.5,-413.36 "/>
<text text-anchor="middle" x="499" y="-401.36" font-family="monospace" font-size="10.00">dack_aggregator::DeliveryAcknowledgmentAggregator::Config</text>
</g>
<!-- lightning_dack_aggregator::dack_aggregator::DeliveryAcknowledgmentAggregator&#45;&gt;lightning_dack_aggregator::dack_aggregator::DeliveryAcknowledgmentAggregator::Config -->
<g id="edge13" class="edge">
<title>lightning_dack_aggregator::dack_aggregator::DeliveryAcknowledgmentAggregator&#45;&gt;lightning_dack_aggregator::dack_aggregator::DeliveryAcknowledgmentAggregator::Config</title>
<path fill="none" stroke="#000000" d="M555.09,-277.93C543.95,-304.83 523.67,-353.8 510.78,-384.9"/>
<polygon fill="#000000" stroke="#000000" points="507.48,-383.74 506.88,-394.32 513.94,-386.42 507.48,-383.74"/>
<text text-anchor="middle" x="520.44" y="-334.42" font-family="monospace" font-size="10.00">owns</text>
</g>
<!-- lightning_dack_aggregator::dack_aggregator::DeliveryAcknowledgmentAggregator::init -->
<g id="node8" class="node">
<title>lightning_dack_aggregator::dack_aggregator::DeliveryAcknowledgmentAggregator::init</title>
<polygon fill="#db5367" stroke="black" points="325.5,-84.95 325.5,-122.95 672.5,-122.95 672.5,-84.95 325.5,-84.95"/>
<text text-anchor="middle" x="499" y="-110.95" font-family="monospace" font-size="10.00">pub(self) fn</text>
<polyline fill="none" stroke="black" points="325.5,-103.95 672.5,-103.95 "/>
<text text-anchor="middle" x="499" y="-91.95" font-family="monospace" font-size="10.00">dack_aggregator::DeliveryAcknowledgmentAggregator::init</text>
</g>
<!-- lightning_dack_aggregator::dack_aggregator::DeliveryAcknowledgmentAggregator&#45;&gt;lightning_dack_aggregator::dack_aggregator::DeliveryAcknowledgmentAggregator::init -->
<g id="edge14" class="edge">
<title>lightning_dack_aggregator::dack_aggregator::DeliveryAcknowledgmentAggregator&#45;&gt;lightning_dack_aggregator::dack_aggregator::DeliveryAcknowledgmentAggregator::init</title>
<path fill="none" stroke="#000000" d="M572.32,-239.37C573.54,-211.87 555.79,-162.58 535.6,-131.42"/>
<polygon fill="#000000" stroke="#000000" points="538.44,-129.36 529.86,-123.15 532.69,-133.36 538.44,-129.36"/>
<text text-anchor="middle" x="541.46" y="-188.4" font-family="monospace" font-size="10.00">owns</text>
</g>
<!-- lightning_dack_aggregator::dack_aggregator::DeliveryAcknowledgmentAggregator::is_running -->
<g id="node9" class="node">
<title>lightning_dack_aggregator::dack_aggregator::DeliveryAcknowledgmentAggregator::is_running</title>
<polygon fill="#db5367" stroke="black" points="456.82,-0.5 456.82,-38.5 839.82,-38.5 839.82,-0.5 456.82,-0.5"/>
<text text-anchor="middle" x="648.32" y="-26.5" font-family="monospace" font-size="10.00">pub(self) fn</text>
<polyline fill="none" stroke="black" points="456.82,-19.5 839.82,-19.5 "/>
<text text-anchor="middle" x="648.32" y="-7.5" font-family="monospace" font-size="10.00">dack_aggregator::DeliveryAcknowledgmentAggregator::is_running</text>
</g>
<!-- lightning_dack_aggregator::dack_aggregator::DeliveryAcknowledgmentAggregator&#45;&gt;lightning_dack_aggregator::dack_aggregator::DeliveryAcknowledgmentAggregator::is_running -->
<g id="edge15" class="edge">
<title>lightning_dack_aggregator::dack_aggregator::DeliveryAcknowledgmentAggregator&#45;&gt;lightning_dack_aggregator::dack_aggregator::DeliveryAcknowledgmentAggregator::is_running</title>
<path fill="none" stroke="#000000" d="M588.39,-239.34C617.21,-197.23 652.26,-98.44 655.84,-48.72"/>
<polygon fill="#000000" stroke="#000000" points="659.35,-48.69 656.11,-38.61 652.35,-48.51 659.35,-48.69"/>
<text text-anchor="middle" x="609.62" y="-136.03" font-family="monospace" font-size="10.00">owns</text>
</g>
<!-- lightning_dack_aggregator::dack_aggregator::DeliveryAcknowledgmentAggregator::shutdown -->
<g id="node10" class="node">
<title>lightning_dack_aggregator::dack_aggregator::DeliveryAcknowledgmentAggregator::shutdown</title>
<polygon fill="#db5367" stroke="black" points="536.18,-154.77 536.18,-192.77 907.18,-192.77 907.18,-154.77 536.18,-154.77"/>
<text text-anchor="middle" x="721.68" y="-180.77" font-family="monospace" font-size="10.00">pub(self) async fn</text>
<polyline fill="none" stroke="black" points="536.18,-173.77 907.18,-173.77 "/>
<text text-anchor="middle" x="721.68" y="-161.77" font-family="monospace" font-size="10.00">dack_aggregator::DeliveryAcknowledgmentAggregator::shutdown</text>
</g>
<!-- lightning_dack_aggregator::dack_aggregator::DeliveryAcknowledgmentAggregator&#45;&gt;lightning_dack_aggregator::dack_aggregator::DeliveryAcknowledgmentAggregator::shutdown -->
<g id="edge16" class="edge">
<title>lightning_dack_aggregator::dack_aggregator::DeliveryAcknowledgmentAggregator&#45;&gt;lightning_dack_aggregator::dack_aggregator::DeliveryAcknowledgmentAggregator::shutdown</title>
<path fill="none" stroke="#000000" d="M656.05,-239.52C677.77,-227.81 698.12,-213.75 710.55,-200.86"/>
<polygon fill="#000000" stroke="#000000" points="713.4,-202.91 717.2,-193.02 708.06,-198.38 713.4,-202.91"/>
<text text-anchor="middle" x="670.8" y="-223.19" font-family="monospace" font-size="10.00">owns</text>
</g>
<!-- lightning_dack_aggregator::dack_aggregator::DeliveryAcknowledgmentAggregator::socket -->
<g id="node11" class="node">
<title>lightning_dack_aggregator::dack_aggregator::DeliveryAcknowledgmentAggregator::socket</title>
<polygon fill="#db5367" stroke="black" points="542,-325.33 542,-363.33 901,-363.33 901,-325.33 542,-325.33"/>
<text text-anchor="middle" x="721.5" y="-351.33" font-family="monospace" font-size="10.00">pub(self) fn</text>
<polyline fill="none" stroke="black" points="542,-344.33 901,-344.33 "/>
<text text-anchor="middle" x="721.5" y="-332.33" font-family="monospace" font-size="10.00">dack_aggregator::DeliveryAcknowledgmentAggregator::socket</text>
</g>
<!-- lightning_dack_aggregator::dack_aggregator::DeliveryAcknowledgmentAggregator&#45;&gt;lightning_dack_aggregator::dack_aggregator::DeliveryAcknowledgmentAggregator::socket -->
<g id="edge17" class="edge">
<title>lightning_dack_aggregator::dack_aggregator::DeliveryAcknowledgmentAggregator&#45;&gt;lightning_dack_aggregator::dack_aggregator::DeliveryAcknowledgmentAggregator::socket</title>
<path fill="none" stroke="#000000" d="M567.43,-277.84C576.95,-291.2 597.47,-306.86 620.58,-320.27"/>
<polygon fill="#000000" stroke="#000000" points="619.1,-323.46 629.54,-325.29 622.53,-317.35 619.1,-323.46"/>
<text text-anchor="middle" x="581.5" y="-302.06" font-family="monospace" font-size="10.00">owns</text>
</g>
<!-- lightning_dack_aggregator::dack_aggregator::DeliveryAcknowledgmentAggregator::start -->
<g id="node12" class="node">
<title>lightning_dack_aggregator::dack_aggregator::DeliveryAcknowledgmentAggregator::start</title>
<polygon fill="#db5367" stroke="black" points="471.61,-479.07 471.61,-517.07 824.61,-517.07 824.61,-479.07 471.61,-479.07"/>
<text text-anchor="middle" x="648.11" y="-505.07" font-family="monospace" font-size="10.00">pub(self) async fn</text>
<polyline fill="none" stroke="black" points="471.61,-498.07 824.61,-498.07 "/>
<text text-anchor="middle" x="648.11" y="-486.07" font-family="monospace" font-size="10.00">dack_aggregator::DeliveryAcknowledgmentAggregator::start</text>
</g>
<!-- lightning_dack_aggregator::dack_aggregator::DeliveryAcknowledgmentAggregator&#45;&gt;lightning_dack_aggregator::dack_aggregator::DeliveryAcknowledgmentAggregator::start -->
<g id="edge18" class="edge">
<title>lightning_dack_aggregator::dack_aggregator::DeliveryAcknowledgmentAggregator&#45;&gt;lightning_dack_aggregator::dack_aggregator::DeliveryAcknowledgmentAggregator::start</title>
<path fill="none" stroke="#000000" d="M555.27,-277.89C554.05,-320.4 587.67,-420.88 617.38,-470.21"/>
<polygon fill="#000000" stroke="#000000" points="614.53,-472.25 622.87,-478.79 620.43,-468.48 614.53,-472.25"/>
<text text-anchor="middle" x="573.82" y="-377.05" font-family="monospace" font-size="10.00">owns</text>
</g>
<!-- lightning_dack_aggregator::dack_aggregator::DeliveryAcknowledgmentAggregator::Config&#45;&gt;lightning_dack_aggregator::config::Config -->
<g id="edge19" class="edge">
<title>lightning_dack_aggregator::dack_aggregator::DeliveryAcknowledgmentAggregator::Config&#45;&gt;lightning_dack_aggregator::config::Config</title>
<path fill="none" stroke="#7f7f7f" stroke-dasharray="5,2" d="M319.46,-413.36C294.6,-413.36 270.62,-413.36 250.17,-413.36"/>
<polygon fill="#7f7f7f" stroke="#7f7f7f" points="250.13,-409.86 240.13,-413.36 250.13,-416.86 250.13,-409.86"/>
<text text-anchor="middle" x="272.32" y="-416.36" font-family="monospace" font-size="10.00">uses</text>
</g>
<!-- lightning_dack_aggregator::dack_aggregator::DeliveryAcknowledgmentAggregator::init&#45;&gt;lightning_dack_aggregator::config::Config -->
<g id="edge20" class="edge">
<title>lightning_dack_aggregator::dack_aggregator::DeliveryAcknowledgmentAggregator::init&#45;&gt;lightning_dack_aggregator::config::Config</title>
<path fill="none" stroke="#7f7f7f" stroke-dasharray="5,2" d="M479.64,-123.3C426.35,-176.59 277.4,-325.54 216.28,-386.67"/>
<polygon fill="#7f7f7f" stroke="#7f7f7f" points="213.53,-384.47 208.93,-394.01 218.48,-389.42 213.53,-384.47"/>
<text text-anchor="middle" x="335.46" y="-246.98" font-family="monospace" font-size="10.00">uses</text>
</g>
<!-- lightning_dack_aggregator::dack_aggregator::DeliveryAcknowledgmentAggregator::init&#45;&gt;lightning_dack_aggregator::dack_aggregator::DeliveryAcknowledgmentAggregator -->
<g id="edge21" class="edge">
<title>lightning_dack_aggregator::dack_aggregator::DeliveryAcknowledgmentAggregator::init&#45;&gt;lightning_dack_aggregator::dack_aggregator::DeliveryAcknowledgmentAggregator</title>
<path fill="none" stroke="#7f7f7f" stroke-dasharray="5,2" d="M489.75,-123.23C488.53,-150.73 506.28,-200.02 526.47,-231.18"/>
<polygon fill="#7f7f7f" stroke="#7f7f7f" points="523.64,-233.23 532.22,-239.45 529.39,-229.24 523.64,-233.23"/>
<text text-anchor="middle" x="495.61" y="-180.2" font-family="monospace" font-size="10.00">uses</text>
</g>
<!-- lightning_dack_aggregator::dack_aggregator::DeliveryAcknowledgmentAggregator::is_running&#45;&gt;lightning_dack_aggregator::dack_aggregator::DeliveryAcknowledgmentAggregator -->
<g id="edge22" class="edge">
<title>lightning_dack_aggregator::dack_aggregator::DeliveryAcknowledgmentAggregator::is_running&#45;&gt;lightning_dack_aggregator::dack_aggregator::DeliveryAcknowledgmentAggregator</title>
<path fill="none" stroke="#7f7f7f" stroke-dasharray="5,2" d="M623.01,-38.81C594.19,-80.93 559.14,-179.72 555.55,-229.44"/>
<polygon fill="#7f7f7f" stroke="#7f7f7f" points="552.05,-229.46 555.29,-239.55 559.05,-229.64 552.05,-229.46"/>
<text text-anchor="middle" x="576.78" y="-137.13" font-family="monospace" font-size="10.00">uses</text>
</g>
<!-- lightning_dack_aggregator::dack_aggregator::DeliveryAcknowledgmentAggregator::shutdown&#45;&gt;lightning_dack_aggregator::dack_aggregator::DeliveryAcknowledgmentAggregator -->
<g id="edge23" class="edge">
<title>lightning_dack_aggregator::dack_aggregator::DeliveryAcknowledgmentAggregator::shutdown&#45;&gt;lightning_dack_aggregator::dack_aggregator::DeliveryAcknowledgmentAggregator</title>
<path fill="none" stroke="#7f7f7f" stroke-dasharray="5,2" d="M628.71,-192.91C606.99,-204.62 586.64,-218.67 574.21,-231.56"/>
<polygon fill="#7f7f7f" stroke="#7f7f7f" points="571.36,-229.51 567.56,-239.4 576.7,-234.04 571.36,-229.51"/>
<text text-anchor="middle" x="588.96" y="-215.23" font-family="monospace" font-size="10.00">uses</text>
</g>
<!-- lightning_dack_aggregator::dack_aggregator::DeliveryAcknowledgmentAggregator::socket&#45;&gt;lightning_dack_aggregator::dack_aggregator::DeliveryAcknowledgmentAggregator -->
<g id="edge24" class="edge">
<title>lightning_dack_aggregator::dack_aggregator::DeliveryAcknowledgmentAggregator::socket&#45;&gt;lightning_dack_aggregator::dack_aggregator::DeliveryAcknowledgmentAggregator</title>
<path fill="none" stroke="#7f7f7f" stroke-dasharray="5,2" d="M717.15,-325.14C707.63,-311.79 687.11,-296.13 664,-282.72"/>
<polygon fill="#7f7f7f" stroke="#7f7f7f" points="665.47,-279.53 655.04,-277.69 662.05,-285.63 665.47,-279.53"/>
<text text-anchor="middle" x="678.08" y="-306.93" font-family="monospace" font-size="10.00">uses</text>
</g>
<!-- lightning_dack_aggregator::dack_aggregator::DeliveryAcknowledgmentAggregator::start&#45;&gt;lightning_dack_aggregator::dack_aggregator::DeliveryAcknowledgmentAggregator -->
<g id="edge25" class="edge">
<title>lightning_dack_aggregator::dack_aggregator::DeliveryAcknowledgmentAggregator::start&#45;&gt;lightning_dack_aggregator::dack_aggregator::DeliveryAcknowledgmentAggregator</title>
<path fill="none" stroke="#7f7f7f" stroke-dasharray="5,2" d="M655.92,-478.84C657.14,-436.32 623.52,-335.84 593.81,-286.52"/>
<polygon fill="#7f7f7f" stroke="#7f7f7f" points="596.65,-284.47 588.32,-277.93 590.76,-288.24 596.65,-284.47"/>
<text text-anchor="middle" x="612.37" y="-385.68" font-family="monospace" font-size="10.00">uses</text>
</g>
</g>
</svg>
