<?xml version="1.0" encoding="UTF-8" standalone="no"?>
<!DOCTYPE svg PUBLIC "-//W3C//DTD SVG 1.1//EN"
 "http://www.w3.org/Graphics/SVG/1.1/DTD/svg11.dtd">
<!-- Generated by graphviz version 4.0.0 (0)
 -->
<!-- Pages: 1 -->
<svg width="2277pt" height="1506pt"
 viewBox="0.00 0.00 2276.60 1505.60" xmlns="http://www.w3.org/2000/svg" xmlns:xlink="http://www.w3.org/1999/xlink">
<g id="graph0" class="graph" transform="scale(1 1) rotate(0) translate(28.8 1476.8)">
<polygon fill="white" stroke="transparent" points="-28.8,28.8 -28.8,-1476.8 2247.8,-1476.8 2247.8,28.8 -28.8,28.8"/>
<text text-anchor="middle" x="1109.5" y="-1415.2" font-family="Helvetica,sans-Serif" font-size="36.00">lightning_node</text>
<!-- lightning_node -->
<g id="node1" class="node">
<title>lightning_node</title>
<polygon fill="#5397c8" stroke="black" points="744.99,-815 744.99,-853 845.99,-853 845.99,-815 744.99,-815"/>
<text text-anchor="middle" x="795.49" y="-841" font-family="monospace" font-size="10.00">crate</text>
<polyline fill="none" stroke="black" points="744.99,-834 845.99,-834 "/>
<text text-anchor="middle" x="795.49" y="-822" font-family="monospace" font-size="10.00">lightning_node</text>
</g>
<!-- lightning_node::FinalTypes -->
<g id="node2" class="node">
<title>lightning_node::FinalTypes</title>
<polygon fill="#81c169" stroke="black" points="1475.12,-757.44 1475.12,-795.44 1552.12,-795.44 1552.12,-757.44 1475.12,-757.44"/>
<text text-anchor="middle" x="1513.62" y="-783.44" font-family="monospace" font-size="10.00">pub struct</text>
<polyline fill="none" stroke="black" points="1475.12,-776.44 1552.12,-776.44 "/>
<text text-anchor="middle" x="1513.62" y="-764.44" font-family="monospace" font-size="10.00">FinalTypes</text>
</g>
<!-- lightning_node&#45;&gt;lightning_node::FinalTypes -->
<g id="edge1" class="edge">
<title>lightning_node&#45;&gt;lightning_node::FinalTypes</title>
<path fill="none" stroke="#000000" d="M846.27,-829.93C978.94,-819.29 1334.61,-790.79 1464.91,-780.34"/>
<polygon fill="#000000" stroke="#000000" points="1465.3,-783.82 1474.99,-779.54 1464.74,-776.85 1465.3,-783.82"/>
<text text-anchor="middle" x="1143.09" y="-808.14" font-family="monospace" font-size="10.00">owns</text>
</g>
<!-- lightning_node::UseMockConsensusMarker -->
<g id="node27" class="node">
<title>lightning_node::UseMockConsensusMarker</title>
<polygon fill="#81c169" stroke="black" points="658.38,-1231.17 658.38,-1269.17 807.38,-1269.17 807.38,-1231.17 658.38,-1231.17"/>
<text text-anchor="middle" x="732.88" y="-1257.17" font-family="monospace" font-size="10.00">pub struct</text>
<polyline fill="none" stroke="black" points="658.38,-1250.17 807.38,-1250.17 "/>
<text text-anchor="middle" x="732.88" y="-1238.17" font-family="monospace" font-size="10.00">UseMockConsensusMarker</text>
</g>
<!-- lightning_node&#45;&gt;lightning_node::UseMockConsensusMarker -->
<g id="edge2" class="edge">
<title>lightning_node&#45;&gt;lightning_node::UseMockConsensusMarker</title>
<path fill="none" stroke="#000000" d="M792.6,-853.24C782.58,-919.8 749.36,-1140.65 737.3,-1220.79"/>
<polygon fill="#000000" stroke="#000000" points="733.77,-1220.72 735.75,-1231.13 740.69,-1221.77 733.77,-1220.72"/>
<text text-anchor="middle" x="752.45" y="-1040.01" font-family="monospace" font-size="10.00">owns</text>
</g>
<!-- lightning_node::WithMockConsensus -->
<g id="node28" class="node">
<title>lightning_node::WithMockConsensus</title>
<polygon fill="#81c169" stroke="black" points="362.71,-1062.37 362.71,-1100.37 481.71,-1100.37 481.71,-1062.37 362.71,-1062.37"/>
<text text-anchor="middle" x="422.21" y="-1088.37" font-family="monospace" font-size="10.00">pub type</text>
<polyline fill="none" stroke="black" points="362.71,-1081.37 481.71,-1081.37 "/>
<text text-anchor="middle" x="422.21" y="-1069.37" font-family="monospace" font-size="10.00">WithMockConsensus</text>
</g>
<!-- lightning_node&#45;&gt;lightning_node::WithMockConsensus -->
<g id="edge3" class="edge">
<title>lightning_node&#45;&gt;lightning_node::WithMockConsensus</title>
<path fill="none" stroke="#000000" d="M766.82,-853C700.05,-897.25 534.21,-1007.15 459.61,-1056.59"/>
<polygon fill="#000000" stroke="#000000" points="457.38,-1053.87 450.97,-1062.31 461.24,-1059.7 457.38,-1053.87"/>
<text text-anchor="middle" x="600.71" y="-957.79" font-family="monospace" font-size="10.00">owns</text>
</g>
<!-- lightning_node::config::TomlConfigProvider -->
<g id="node29" class="node">
<title>lightning_node::config::TomlConfigProvider</title>
<polygon fill="#81c169" stroke="black" points="477.79,-431.45 477.79,-469.45 650.79,-469.45 650.79,-431.45 477.79,-431.45"/>
<text text-anchor="middle" x="564.29" y="-457.45" font-family="monospace" font-size="10.00">pub struct</text>
<polyline fill="none" stroke="black" points="477.79,-450.45 650.79,-450.45 "/>
<text text-anchor="middle" x="564.29" y="-438.45" font-family="monospace" font-size="10.00">config::TomlConfigProvider</text>
</g>
<!-- lightning_node&#45;&gt;lightning_node::config::TomlConfigProvider -->
<g id="edge4" class="edge">
<title>lightning_node&#45;&gt;lightning_node::config::TomlConfigProvider</title>
<path fill="none" stroke="#000000" d="M796.55,-814.75C780.73,-750.73 662.13,-550.41 599.47,-477.06"/>
<polygon fill="#000000" stroke="#000000" points="602.09,-474.74 592.85,-469.56 596.84,-479.37 602.09,-474.74"/>
<text text-anchor="middle" x="685.51" y="-648.9" font-family="monospace" font-size="10.00">owns</text>
</g>
<!-- lightning_node&#45;&gt;lightning_node::config::TomlConfigProvider -->
<g id="edge5" class="edge">
<title>lightning_node&#45;&gt;lightning_node::config::TomlConfigProvider</title>
<path fill="none" stroke="#7f7f7f" stroke-dasharray="5,2" d="M766.91,-814.87C709.1,-751.72 590.8,-554.73 566.06,-479.43"/>
<polygon fill="#7f7f7f" stroke="#7f7f7f" points="569.37,-478.26 563.21,-469.64 562.65,-480.22 569.37,-478.26"/>
<text text-anchor="middle" x="653.99" y="-650.15" font-family="monospace" font-size="10.00">uses</text>
</g>
<!-- lightning_node::FinalTypes::ApplicationInterface -->
<g id="node3" class="node">
<title>lightning_node::FinalTypes::ApplicationInterface</title>
<polygon fill="#f8c04c" stroke="black" points="2010.09,-697.77 2010.09,-735.77 2219.09,-735.77 2219.09,-697.77 2010.09,-697.77"/>
<text text-anchor="middle" x="2114.59" y="-723.77" font-family="monospace" font-size="10.00">pub(crate) type</text>
<polyline fill="none" stroke="black" points="2010.09,-716.77 2219.09,-716.77 "/>
<text text-anchor="middle" x="2114.59" y="-704.77" font-family="monospace" font-size="10.00">FinalTypes::ApplicationInterface</text>
</g>
<!-- lightning_node::FinalTypes&#45;&gt;lightning_node::FinalTypes::ApplicationInterface -->
<g id="edge6" class="edge">
<title>lightning_node::FinalTypes&#45;&gt;lightning_node::FinalTypes::ApplicationInterface</title>
<path fill="none" stroke="#000000" d="M1552.12,-772.62C1640.9,-763.8 1862.8,-741.77 1999.85,-728.16"/>
<polygon fill="#000000" stroke="#000000" points="2000.38,-731.63 2009.98,-727.16 1999.68,-724.66 2000.38,-731.63"/>
<text text-anchor="middle" x="1763.49" y="-753.39" font-family="monospace" font-size="10.00">owns</text>
</g>
<!-- lightning_node::FinalTypes::ArchiveInterface -->
<g id="node4" class="node">
<title>lightning_node::FinalTypes::ArchiveInterface</title>
<polygon fill="#f8c04c" stroke="black" points="1379.61,-1361.54 1379.61,-1399.54 1564.61,-1399.54 1564.61,-1361.54 1379.61,-1361.54"/>
<text text-anchor="middle" x="1472.11" y="-1387.54" font-family="monospace" font-size="10.00">pub(crate) type</text>
<polyline fill="none" stroke="black" points="1379.61,-1380.54 1564.61,-1380.54 "/>
<text text-anchor="middle" x="1472.11" y="-1368.54" font-family="monospace" font-size="10.00">FinalTypes::ArchiveInterface</text>
</g>
<!-- lightning_node::FinalTypes&#45;&gt;lightning_node::FinalTypes::ArchiveInterface -->
<g id="edge7" class="edge">
<title>lightning_node::FinalTypes&#45;&gt;lightning_node::FinalTypes::ArchiveInterface</title>
<path fill="none" stroke="#000000" d="M1512.31,-795.52C1506.3,-882.88 1481.42,-1245.02 1474.13,-1351.17"/>
<polygon fill="#000000" stroke="#000000" points="1470.61,-1351.24 1473.42,-1361.46 1477.6,-1351.72 1470.61,-1351.24"/>
<text text-anchor="middle" x="1480.72" y="-1076.34" font-family="monospace" font-size="10.00">owns</text>
</g>
<!-- lightning_node::FinalTypes::BlockStoreInterface -->
<g id="node5" class="node">
<title>lightning_node::FinalTypes::BlockStoreInterface</title>
<polygon fill="#f8c04c" stroke="black" points="1525.31,-645.54 1525.31,-683.54 1728.31,-683.54 1728.31,-645.54 1525.31,-645.54"/>
<text text-anchor="middle" x="1626.81" y="-671.54" font-family="monospace" font-size="10.00">pub(crate) type</text>
<polyline fill="none" stroke="black" points="1525.31,-664.54 1728.31,-664.54 "/>
<text text-anchor="middle" x="1626.81" y="-652.54" font-family="monospace" font-size="10.00">FinalTypes::BlockStoreInterface</text>
</g>
<!-- lightning_node::FinalTypes&#45;&gt;lightning_node::FinalTypes::BlockStoreInterface -->
<g id="edge8" class="edge">
<title>lightning_node::FinalTypes&#45;&gt;lightning_node::FinalTypes::BlockStoreInterface</title>
<path fill="none" stroke="#000000" d="M1533.08,-757.2C1551.54,-738.95 1579.45,-711.36 1600.01,-691.03"/>
<polygon fill="#000000" stroke="#000000" points="1602.58,-693.42 1607.23,-683.9 1597.66,-688.44 1602.58,-693.42"/>
<text text-anchor="middle" x="1554.05" y="-727.12" font-family="monospace" font-size="10.00">owns</text>
</g>
<!-- lightning_node::FinalTypes::BlockStoreServerInterface -->
<g id="node6" class="node">
<title>lightning_node::FinalTypes::BlockStoreServerInterface</title>
<polygon fill="#f8c04c" stroke="black" points="1136.09,-242.66 1136.09,-280.66 1375.09,-280.66 1375.09,-242.66 1136.09,-242.66"/>
<text text-anchor="middle" x="1255.59" y="-268.66" font-family="monospace" font-size="10.00">pub(crate) type</text>
<polyline fill="none" stroke="black" points="1136.09,-261.66 1375.09,-261.66 "/>
<text text-anchor="middle" x="1255.59" y="-249.66" font-family="monospace" font-size="10.00">FinalTypes::BlockStoreServerInterface</text>
</g>
<!-- lightning_node::FinalTypes&#45;&gt;lightning_node::FinalTypes::BlockStoreServerInterface -->
<g id="edge9" class="edge">
<title>lightning_node::FinalTypes&#45;&gt;lightning_node::FinalTypes::BlockStoreServerInterface</title>
<path fill="none" stroke="#000000" d="M1503.97,-757.2C1464.65,-678.75 1316.33,-382.82 1269.71,-289.81"/>
<polygon fill="#000000" stroke="#000000" points="1272.76,-288.09 1265.15,-280.72 1266.5,-291.23 1272.76,-288.09"/>
<text text-anchor="middle" x="1374.34" y="-526.51" font-family="monospace" font-size="10.00">owns</text>
</g>
<!-- lightning_node::FinalTypes::BroadcastInterface -->
<g id="node7" class="node">
<title>lightning_node::FinalTypes::BroadcastInterface</title>
<polygon fill="#f8c04c" stroke="black" points="1167.93,-619.69 1167.93,-657.69 1364.93,-657.69 1364.93,-619.69 1167.93,-619.69"/>
<text text-anchor="middle" x="1266.43" y="-645.69" font-family="monospace" font-size="10.00">pub(crate) type</text>
<polyline fill="none" stroke="black" points="1167.93,-638.69 1364.93,-638.69 "/>
<text text-anchor="middle" x="1266.43" y="-626.69" font-family="monospace" font-size="10.00">FinalTypes::BroadcastInterface</text>
</g>
<!-- lightning_node::FinalTypes&#45;&gt;lightning_node::FinalTypes::BroadcastInterface -->
<g id="edge10" class="edge">
<title>lightning_node::FinalTypes&#45;&gt;lightning_node::FinalTypes::BroadcastInterface</title>
<path fill="none" stroke="#000000" d="M1479.51,-757.43C1435.21,-732.75 1357.87,-689.65 1309.55,-662.72"/>
<polygon fill="#000000" stroke="#000000" points="1311.02,-659.54 1300.58,-657.73 1307.62,-665.65 1311.02,-659.54"/>
<text text-anchor="middle" x="1382.03" y="-713.08" font-family="monospace" font-size="10.00">owns</text>
</g>
<!-- lightning_node::FinalTypes::ConfigProviderInterface -->
<g id="node8" class="node">
<title>lightning_node::FinalTypes::ConfigProviderInterface</title>
<polygon fill="#f8c04c" stroke="black" points="754.18,-506.16 754.18,-544.16 981.18,-544.16 981.18,-506.16 754.18,-506.16"/>
<text text-anchor="middle" x="867.68" y="-532.16" font-family="monospace" font-size="10.00">pub(crate) type</text>
<polyline fill="none" stroke="black" points="754.18,-525.16 981.18,-525.16 "/>
<text text-anchor="middle" x="867.68" y="-513.16" font-family="monospace" font-size="10.00">FinalTypes::ConfigProviderInterface</text>
</g>
<!-- lightning_node::FinalTypes&#45;&gt;lightning_node::FinalTypes::ConfigProviderInterface -->
<g id="edge11" class="edge">
<title>lightning_node::FinalTypes&#45;&gt;lightning_node::FinalTypes::ConfigProviderInterface</title>
<path fill="none" stroke="#000000" d="M1474.67,-761.29C1365.43,-718.79 1055.72,-598.31 925.98,-547.84"/>
<polygon fill="#000000" stroke="#000000" points="927.17,-544.55 916.58,-544.19 924.63,-551.07 927.17,-544.55"/>
<text text-anchor="middle" x="1187.82" y="-657.57" font-family="monospace" font-size="10.00">owns</text>
</g>
<!-- lightning_node::FinalTypes::ConsensusInterface -->
<g id="node9" class="node">
<title>lightning_node::FinalTypes::ConsensusInterface</title>
<polygon fill="#f8c04c" stroke="black" points="1330.51,-980.12 1330.51,-1018.12 1527.51,-1018.12 1527.51,-980.12 1330.51,-980.12"/>
<text text-anchor="middle" x="1429.01" y="-1006.12" font-family="monospace" font-size="10.00">pub(crate) type</text>
<polyline fill="none" stroke="black" points="1330.51,-999.12 1527.51,-999.12 "/>
<text text-anchor="middle" x="1429.01" y="-987.12" font-family="monospace" font-size="10.00">FinalTypes::ConsensusInterface</text>
</g>
<!-- lightning_node::FinalTypes&#45;&gt;lightning_node::FinalTypes::ConsensusInterface -->
<g id="edge12" class="edge">
<title>lightning_node::FinalTypes&#45;&gt;lightning_node::FinalTypes::ConsensusInterface</title>
<path fill="none" stroke="#000000" d="M1506.26,-795.81C1491.31,-835.15 1457.35,-924.53 1439.87,-970.55"/>
<polygon fill="#000000" stroke="#000000" points="1436.58,-969.36 1436.3,-979.95 1443.12,-971.84 1436.58,-969.36"/>
<text text-anchor="middle" x="1460.56" y="-886.18" font-family="monospace" font-size="10.00">owns</text>
</g>
<!-- lightning_node::FinalTypes::DeliveryAcknowledgmentAggregatorInterface -->
<g id="node10" class="node">
<title>lightning_node::FinalTypes::DeliveryAcknowledgmentAggregatorInterface</title>
<polygon fill="#f8c04c" stroke="black" points="1654.81,-550.57 1654.81,-588.57 1989.81,-588.57 1989.81,-550.57 1654.81,-550.57"/>
<text text-anchor="middle" x="1822.31" y="-576.57" font-family="monospace" font-size="10.00">pub(crate) type</text>
<polyline fill="none" stroke="black" points="1654.81,-569.57 1989.81,-569.57 "/>
<text text-anchor="middle" x="1822.31" y="-557.57" font-family="monospace" font-size="10.00">FinalTypes::DeliveryAcknowledgmentAggregatorInterface</text>
</g>
<!-- lightning_node::FinalTypes&#45;&gt;lightning_node::FinalTypes::DeliveryAcknowledgmentAggregatorInterface -->
<g id="edge13" class="edge">
<title>lightning_node::FinalTypes&#45;&gt;lightning_node::FinalTypes::DeliveryAcknowledgmentAggregatorInterface</title>
<path fill="none" stroke="#000000" d="M1542.1,-757.35C1598.27,-719.71 1723.23,-635.96 1785.53,-594.22"/>
<polygon fill="#000000" stroke="#000000" points="1787.53,-597.09 1793.89,-588.61 1783.63,-591.27 1787.53,-597.09"/>
<text text-anchor="middle" x="1651.32" y="-678.78" font-family="monospace" font-size="10.00">owns</text>
</g>
<!-- lightning_node::FinalTypes::FetcherInterface -->
<g id="node11" class="node">
<title>lightning_node::FinalTypes::FetcherInterface</title>
<polygon fill="#f8c04c" stroke="black" points="1794.89,-308.05 1794.89,-346.05 1979.89,-346.05 1979.89,-308.05 1794.89,-308.05"/>
<text text-anchor="middle" x="1887.39" y="-334.05" font-family="monospace" font-size="10.00">pub(crate) type</text>
<polyline fill="none" stroke="black" points="1794.89,-327.05 1979.89,-327.05 "/>
<text text-anchor="middle" x="1887.39" y="-315.05" font-family="monospace" font-size="10.00">FinalTypes::FetcherInterface</text>
</g>
<!-- lightning_node::FinalTypes&#45;&gt;lightning_node::FinalTypes::FetcherInterface -->
<g id="edge14" class="edge">
<title>lightning_node::FinalTypes&#45;&gt;lightning_node::FinalTypes::FetcherInterface</title>
<path fill="none" stroke="#000000" d="M1529.44,-757.42C1588.48,-686.43 1796.06,-436.86 1864.97,-354.01"/>
<polygon fill="#000000" stroke="#000000" points="1867.86,-356 1871.56,-346.08 1862.48,-351.53 1867.86,-356"/>
<text text-anchor="middle" x="1684.7" y="-547.71" font-family="monospace" font-size="10.00">owns</text>
</g>
<!-- lightning_node::FinalTypes::ForwarderInterface -->
<g id="node12" class="node">
<title>lightning_node::FinalTypes::ForwarderInterface</title>
<polygon fill="#f8c04c" stroke="black" points="1002.75,-1297.52 1002.75,-1335.52 1199.75,-1335.52 1199.75,-1297.52 1002.75,-1297.52"/>
<text text-anchor="middle" x="1101.25" y="-1323.52" font-family="monospace" font-size="10.00">pub(crate) type</text>
<polyline fill="none" stroke="black" points="1002.75,-1316.52 1199.75,-1316.52 "/>
<text text-anchor="middle" x="1101.25" y="-1304.52" font-family="monospace" font-size="10.00">FinalTypes::ForwarderInterface</text>
</g>
<!-- lightning_node::FinalTypes&#45;&gt;lightning_node::FinalTypes::ForwarderInterface -->
<g id="edge15" class="edge">
<title>lightning_node::FinalTypes&#45;&gt;lightning_node::FinalTypes::ForwarderInterface</title>
<path fill="none" stroke="#000000" d="M1498.94,-795.66C1436.76,-877.11 1194.87,-1193.91 1122.09,-1289.23"/>
<polygon fill="#000000" stroke="#000000" points="1119.25,-1287.18 1115.97,-1297.25 1124.82,-1291.42 1119.25,-1287.18"/>
<text text-anchor="middle" x="1298.01" y="-1045.45" font-family="monospace" font-size="10.00">owns</text>
</g>
<!-- lightning_node::FinalTypes::HandshakeInterface -->
<g id="node13" class="node">
<title>lightning_node::FinalTypes::HandshakeInterface</title>
<polygon fill="#f8c04c" stroke="black" points="1882.24,-839.98 1882.24,-877.98 2079.24,-877.98 2079.24,-839.98 1882.24,-839.98"/>
<text text-anchor="middle" x="1980.74" y="-865.98" font-family="monospace" font-size="10.00">pub(crate) type</text>
<polyline fill="none" stroke="black" points="1882.24,-858.98 2079.24,-858.98 "/>
<text text-anchor="middle" x="1980.74" y="-846.98" font-family="monospace" font-size="10.00">FinalTypes::HandshakeInterface</text>
</g>
<!-- lightning_node::FinalTypes&#45;&gt;lightning_node::FinalTypes::HandshakeInterface -->
<g id="edge16" class="edge">
<title>lightning_node::FinalTypes&#45;&gt;lightning_node::FinalTypes::HandshakeInterface</title>
<path fill="none" stroke="#000000" d="M1552.24,-783.27C1621.52,-795.51 1769.23,-821.61 1871.72,-839.71"/>
<polygon fill="#000000" stroke="#000000" points="1871.35,-843.2 1881.81,-841.5 1872.57,-836.31 1871.35,-843.2"/>
<text text-anchor="middle" x="1699.48" y="-814.49" font-family="monospace" font-size="10.00">owns</text>
</g>
<!-- lightning_node::FinalTypes::IndexerInterface -->
<g id="node14" class="node">
<title>lightning_node::FinalTypes::IndexerInterface</title>
<polygon fill="#f8c04c" stroke="black" points="1463.15,-1108.9 1463.15,-1146.9 1648.15,-1146.9 1648.15,-1108.9 1463.15,-1108.9"/>
<text text-anchor="middle" x="1555.65" y="-1134.9" font-family="monospace" font-size="10.00">pub(crate) type</text>
<polyline fill="none" stroke="black" points="1463.15,-1127.9 1648.15,-1127.9 "/>
<text text-anchor="middle" x="1555.65" y="-1115.9" font-family="monospace" font-size="10.00">FinalTypes::IndexerInterface</text>
</g>
<!-- lightning_node::FinalTypes&#45;&gt;lightning_node::FinalTypes::IndexerInterface -->
<g id="edge17" class="edge">
<title>lightning_node::FinalTypes&#45;&gt;lightning_node::FinalTypes::IndexerInterface</title>
<path fill="none" stroke="#000000" d="M1515.91,-795.59C1522.85,-853.65 1543.7,-1028.04 1552.09,-1098.19"/>
<polygon fill="#000000" stroke="#000000" points="1548.67,-1099.01 1553.33,-1108.52 1555.62,-1098.18 1548.67,-1099.01"/>
<text text-anchor="middle" x="1521.5" y="-949.89" font-family="monospace" font-size="10.00">owns</text>
</g>
<!-- lightning_node::FinalTypes::KeystoreInterface -->
<g id="node15" class="node">
<title>lightning_node::FinalTypes::KeystoreInterface</title>
<polygon fill="#f8c04c" stroke="black" points="1617.33,-998.94 1617.33,-1036.94 1808.33,-1036.94 1808.33,-998.94 1617.33,-998.94"/>
<text text-anchor="middle" x="1712.83" y="-1024.94" font-family="monospace" font-size="10.00">pub(crate) type</text>
<polyline fill="none" stroke="black" points="1617.33,-1017.94 1808.33,-1017.94 "/>
<text text-anchor="middle" x="1712.83" y="-1005.94" font-family="monospace" font-size="10.00">FinalTypes::KeystoreInterface</text>
</g>
<!-- lightning_node::FinalTypes&#45;&gt;lightning_node::FinalTypes::KeystoreInterface -->
<g id="edge18" class="edge">
<title>lightning_node::FinalTypes&#45;&gt;lightning_node::FinalTypes::KeystoreInterface</title>
<path fill="none" stroke="#000000" d="M1529.58,-795.8C1564.93,-838.65 1649.87,-941.62 1690.48,-990.85"/>
<polygon fill="#000000" stroke="#000000" points="1688,-993.34 1697.06,-998.83 1693.4,-988.89 1688,-993.34"/>
<text text-anchor="middle" x="1597.53" y="-896.32" font-family="monospace" font-size="10.00">owns</text>
</g>
<!-- lightning_node::FinalTypes::NotifierInterface -->
<g id="node16" class="node">
<title>lightning_node::FinalTypes::NotifierInterface</title>
<polygon fill="#f8c04c" stroke="black" points="890.03,-713.72 890.03,-751.72 1081.03,-751.72 1081.03,-713.72 890.03,-713.72"/>
<text text-anchor="middle" x="985.53" y="-739.72" font-family="monospace" font-size="10.00">pub(crate) type</text>
<polyline fill="none" stroke="black" points="890.03,-732.72 1081.03,-732.72 "/>
<text text-anchor="middle" x="985.53" y="-720.72" font-family="monospace" font-size="10.00">FinalTypes::NotifierInterface</text>
</g>
<!-- lightning_node::FinalTypes&#45;&gt;lightning_node::FinalTypes::NotifierInterface -->
<g id="edge19" class="edge">
<title>lightning_node::FinalTypes&#45;&gt;lightning_node::FinalTypes::NotifierInterface</title>
<path fill="none" stroke="#000000" d="M1474.79,-773.23C1394.88,-766.61 1209.64,-751.28 1091.41,-741.49"/>
<polygon fill="#000000" stroke="#000000" points="1091.5,-737.98 1081.24,-740.65 1090.92,-744.96 1091.5,-737.98"/>
<text text-anchor="middle" x="1270.6" y="-760.36" font-family="monospace" font-size="10.00">owns</text>
</g>
<!-- lightning_node::FinalTypes::OriginProviderInterface -->
<g id="node17" class="node">
<title>lightning_node::FinalTypes::OriginProviderInterface</title>
<polygon fill="#f8c04c" stroke="black" points="1584.14,-421.39 1584.14,-459.39 1811.14,-459.39 1811.14,-421.39 1584.14,-421.39"/>
<text text-anchor="middle" x="1697.64" y="-447.39" font-family="monospace" font-size="10.00">pub(crate) type</text>
<polyline fill="none" stroke="black" points="1584.14,-440.39 1811.14,-440.39 "/>
<text text-anchor="middle" x="1697.64" y="-428.39" font-family="monospace" font-size="10.00">FinalTypes::OriginProviderInterface</text>
</g>
<!-- lightning_node::FinalTypes&#45;&gt;lightning_node::FinalTypes::OriginProviderInterface -->
<g id="edge20" class="edge">
<title>lightning_node::FinalTypes&#45;&gt;lightning_node::FinalTypes::OriginProviderInterface</title>
<path fill="none" stroke="#000000" d="M1524.04,-757.41C1554.84,-701.17 1645.57,-535.48 1682.12,-468.74"/>
<polygon fill="#000000" stroke="#000000" points="1685.37,-470.08 1687.11,-459.63 1679.23,-466.72 1685.37,-470.08"/>
<text text-anchor="middle" x="1590.58" y="-616.07" font-family="monospace" font-size="10.00">owns</text>
</g>
<!-- lightning_node::FinalTypes::PingerInterface -->
<g id="node18" class="node">
<title>lightning_node::FinalTypes::PingerInterface</title>
<polygon fill="#f8c04c" stroke="black" points="913.12,-1016.82 913.12,-1054.82 1092.12,-1054.82 1092.12,-1016.82 913.12,-1016.82"/>
<text text-anchor="middle" x="1002.62" y="-1042.82" font-family="monospace" font-size="10.00">pub(crate) type</text>
<polyline fill="none" stroke="black" points="913.12,-1035.82 1092.12,-1035.82 "/>
<text text-anchor="middle" x="1002.62" y="-1023.82" font-family="monospace" font-size="10.00">FinalTypes::PingerInterface</text>
</g>
<!-- lightning_node::FinalTypes&#45;&gt;lightning_node::FinalTypes::PingerInterface -->
<g id="edge21" class="edge">
<title>lightning_node::FinalTypes&#45;&gt;lightning_node::FinalTypes::PingerInterface</title>
<path fill="none" stroke="#000000" d="M1476.04,-795.51C1384.4,-842.03 1149.61,-961.21 1049.25,-1012.16"/>
<polygon fill="#000000" stroke="#000000" points="1047.58,-1009.08 1040.25,-1016.72 1050.75,-1015.32 1047.58,-1009.08"/>
<text text-anchor="middle" x="1275.15" y="-906.83" font-family="monospace" font-size="10.00">owns</text>
</g>
<!-- lightning_node::FinalTypes::PoolInterface -->
<g id="node19" class="node">
<title>lightning_node::FinalTypes::PoolInterface</title>
<polygon fill="#f8c04c" stroke="black" points="1083.08,-867.36 1083.08,-905.36 1250.08,-905.36 1250.08,-867.36 1083.08,-867.36"/>
<text text-anchor="middle" x="1166.58" y="-893.36" font-family="monospace" font-size="10.00">pub(crate) type</text>
<polyline fill="none" stroke="black" points="1083.08,-886.36 1250.08,-886.36 "/>
<text text-anchor="middle" x="1166.58" y="-874.36" font-family="monospace" font-size="10.00">FinalTypes::PoolInterface</text>
</g>
<!-- lightning_node::FinalTypes&#45;&gt;lightning_node::FinalTypes::PoolInterface -->
<g id="edge22" class="edge">
<title>lightning_node::FinalTypes&#45;&gt;lightning_node::FinalTypes::PoolInterface</title>
<path fill="none" stroke="#000000" d="M1474.82,-788.73C1417.21,-806.98 1308.17,-841.51 1236.44,-864.23"/>
<polygon fill="#000000" stroke="#000000" points="1235.05,-861 1226.58,-867.36 1237.17,-867.68 1235.05,-861"/>
<text text-anchor="middle" x="1343.13" y="-829.48" font-family="monospace" font-size="10.00">owns</text>
</g>
<!-- lightning_node::FinalTypes::ReputationAggregatorInterface -->
<g id="node20" class="node">
<title>lightning_node::FinalTypes::ReputationAggregatorInterface</title>
<polygon fill="#f8c04c" stroke="black" points="1574.83,-728.37 1574.83,-766.37 1837.83,-766.37 1837.83,-728.37 1574.83,-728.37"/>
<text text-anchor="middle" x="1706.33" y="-754.37" font-family="monospace" font-size="10.00">pub(crate) type</text>
<polyline fill="none" stroke="black" points="1574.83,-747.37 1837.83,-747.37 "/>
<text text-anchor="middle" x="1706.33" y="-735.37" font-family="monospace" font-size="10.00">FinalTypes::ReputationAggregatorInterface</text>
</g>
<!-- lightning_node::FinalTypes&#45;&gt;lightning_node::FinalTypes::ReputationAggregatorInterface -->
<g id="edge23" class="edge">
<title>lightning_node::FinalTypes&#45;&gt;lightning_node::FinalTypes::ReputationAggregatorInterface</title>
<path fill="none" stroke="#000000" d="M1552.15,-770.63C1557.78,-769.78 1563.82,-768.87 1570.13,-767.91"/>
<polygon fill="#000000" stroke="#000000" points="1570.9,-771.34 1580.27,-766.39 1569.86,-764.42 1570.9,-771.34"/>
<text text-anchor="middle" x="1573.64" y="-772.27" font-family="monospace" font-size="10.00">owns</text>
</g>
<!-- lightning_node::FinalTypes::ResolverInterface -->
<g id="node21" class="node">
<title>lightning_node::FinalTypes::ResolverInterface</title>
<polygon fill="#f8c04c" stroke="black" points="1281.95,-1155.91 1281.95,-1193.91 1472.95,-1193.91 1472.95,-1155.91 1281.95,-1155.91"/>
<text text-anchor="middle" x="1377.45" y="-1181.91" font-family="monospace" font-size="10.00">pub(crate) type</text>
<polyline fill="none" stroke="black" points="1281.95,-1174.91 1472.95,-1174.91 "/>
<text text-anchor="middle" x="1377.45" y="-1162.91" font-family="monospace" font-size="10.00">FinalTypes::ResolverInterface</text>
</g>
<!-- lightning_node::FinalTypes&#45;&gt;lightning_node::FinalTypes::ResolverInterface -->
<g id="edge24" class="edge">
<title>lightning_node::FinalTypes&#45;&gt;lightning_node::FinalTypes::ResolverInterface</title>
<path fill="none" stroke="#000000" d="M1507.05,-795.66C1484.98,-860.23 1413.43,-1069.62 1387.2,-1146.37"/>
<polygon fill="#000000" stroke="#000000" points="1383.87,-1145.29 1383.95,-1155.88 1390.49,-1147.55 1383.87,-1145.29"/>
<text text-anchor="middle" x="1434.62" y="-963.01" font-family="monospace" font-size="10.00">owns</text>
</g>
<!-- lightning_node::FinalTypes::RpcInterface -->
<g id="node22" class="node">
<title>lightning_node::FinalTypes::RpcInterface</title>
<polygon fill="#f8c04c" stroke="black" points="1312.66,-472.87 1312.66,-510.87 1473.66,-510.87 1473.66,-472.87 1312.66,-472.87"/>
<text text-anchor="middle" x="1393.16" y="-498.87" font-family="monospace" font-size="10.00">pub(crate) type</text>
<polyline fill="none" stroke="black" points="1312.66,-491.87 1473.66,-491.87 "/>
<text text-anchor="middle" x="1393.16" y="-479.87" font-family="monospace" font-size="10.00">FinalTypes::RpcInterface</text>
</g>
<!-- lightning_node::FinalTypes&#45;&gt;lightning_node::FinalTypes::RpcInterface -->
<g id="edge25" class="edge">
<title>lightning_node::FinalTypes&#45;&gt;lightning_node::FinalTypes::RpcInterface</title>
<path fill="none" stroke="#000000" d="M1505.53,-757.33C1484.78,-708.32 1429.62,-578 1405.15,-520.18"/>
<polygon fill="#000000" stroke="#000000" points="1408.34,-518.75 1401.22,-510.9 1401.89,-521.47 1408.34,-518.75"/>
<text text-anchor="middle" x="1442.84" y="-641.75" font-family="monospace" font-size="10.00">owns</text>
</g>
<!-- lightning_node::FinalTypes::ServiceExecutorInterface -->
<g id="node23" class="node">
<title>lightning_node::FinalTypes::ServiceExecutorInterface</title>
<polygon fill="#f8c04c" stroke="black" points="1942.27,-1126.37 1942.27,-1164.37 2175.27,-1164.37 2175.27,-1126.37 1942.27,-1126.37"/>
<text text-anchor="middle" x="2058.77" y="-1152.37" font-family="monospace" font-size="10.00">pub(crate) type</text>
<polyline fill="none" stroke="black" points="1942.27,-1145.37 2175.27,-1145.37 "/>
<text text-anchor="middle" x="2058.77" y="-1133.37" font-family="monospace" font-size="10.00">FinalTypes::ServiceExecutorInterface</text>
</g>
<!-- lightning_node::FinalTypes&#45;&gt;lightning_node::FinalTypes::ServiceExecutorInterface -->
<g id="edge26" class="edge">
<title>lightning_node::FinalTypes&#45;&gt;lightning_node::FinalTypes::ServiceExecutorInterface</title>
<path fill="none" stroke="#000000" d="M1541.78,-795.5C1632.88,-857.15 1919.59,-1051.18 2021.98,-1120.47"/>
<polygon fill="#000000" stroke="#000000" points="2020.21,-1123.5 2030.45,-1126.2 2024.13,-1117.7 2020.21,-1123.5"/>
<text text-anchor="middle" x="1769.38" y="-960.98" font-family="monospace" font-size="10.00">owns</text>
</g>
<!-- lightning_node::FinalTypes::SignerInterface -->
<g id="node24" class="node">
<title>lightning_node::FinalTypes::SignerInterface</title>
<polygon fill="#f8c04c" stroke="black" points="1626.54,-1305.3 1626.54,-1343.3 1805.54,-1343.3 1805.54,-1305.3 1626.54,-1305.3"/>
<text text-anchor="middle" x="1716.04" y="-1331.3" font-family="monospace" font-size="10.00">pub(crate) type</text>
<polyline fill="none" stroke="black" points="1626.54,-1324.3 1805.54,-1324.3 "/>
<text text-anchor="middle" x="1716.04" y="-1312.3" font-family="monospace" font-size="10.00">FinalTypes::SignerInterface</text>
</g>
<!-- lightning_node::FinalTypes&#45;&gt;lightning_node::FinalTypes::SignerInterface -->
<g id="edge27" class="edge">
<title>lightning_node::FinalTypes&#45;&gt;lightning_node::FinalTypes::SignerInterface</title>
<path fill="none" stroke="#000000" d="M1520.7,-795.62C1550.95,-877.47 1669.33,-1197.87 1705.49,-1295.75"/>
<polygon fill="#000000" stroke="#000000" points="1702.26,-1297.12 1709.01,-1305.28 1708.83,-1294.69 1702.26,-1297.12"/>
<text text-anchor="middle" x="1600.6" y="-1048.68" font-family="monospace" font-size="10.00">owns</text>
</g>
<!-- lightning_node::FinalTypes::SyncronizerInterface -->
<g id="node25" class="node">
<title>lightning_node::FinalTypes::SyncronizerInterface</title>
<polygon fill="#f8c04c" stroke="black" points="1146.24,-421.32 1146.24,-459.32 1355.24,-459.32 1355.24,-421.32 1146.24,-421.32"/>
<text text-anchor="middle" x="1250.74" y="-447.32" font-family="monospace" font-size="10.00">pub(crate) type</text>
<polyline fill="none" stroke="black" points="1146.24,-440.32 1355.24,-440.32 "/>
<text text-anchor="middle" x="1250.74" y="-428.32" font-family="monospace" font-size="10.00">FinalTypes::SyncronizerInterface</text>
</g>
<!-- lightning_node::FinalTypes&#45;&gt;lightning_node::FinalTypes::SyncronizerInterface -->
<g id="edge28" class="edge">
<title>lightning_node::FinalTypes&#45;&gt;lightning_node::FinalTypes::SyncronizerInterface</title>
<path fill="none" stroke="#000000" d="M1498.73,-757.41C1454.46,-700.8 1323.53,-533.39 1271.96,-467.45"/>
<polygon fill="#000000" stroke="#000000" points="1274.71,-465.28 1265.79,-459.56 1269.2,-469.59 1274.71,-465.28"/>
<text text-anchor="middle" x="1372.85" y="-604.43" font-family="monospace" font-size="10.00">owns</text>
</g>
<!-- lightning_node::FinalTypes::TopologyInterface -->
<g id="node26" class="node">
<title>lightning_node::FinalTypes::TopologyInterface</title>
<polygon fill="#f8c04c" stroke="black" points="1461.37,-160.36 1461.37,-198.36 1652.37,-198.36 1652.37,-160.36 1461.37,-160.36"/>
<text text-anchor="middle" x="1556.87" y="-186.36" font-family="monospace" font-size="10.00">pub(crate) type</text>
<polyline fill="none" stroke="black" points="1461.37,-179.36 1652.37,-179.36 "/>
<text text-anchor="middle" x="1556.87" y="-167.36" font-family="monospace" font-size="10.00">FinalTypes::TopologyInterface</text>
</g>
<!-- lightning_node::FinalTypes&#45;&gt;lightning_node::FinalTypes::TopologyInterface -->
<g id="edge29" class="edge">
<title>lightning_node::FinalTypes&#45;&gt;lightning_node::FinalTypes::TopologyInterface</title>
<path fill="none" stroke="#000000" d="M1515.01,-757.25C1521.3,-670.4 1547.13,-313.83 1554.74,-208.68"/>
<polygon fill="#000000" stroke="#000000" points="1558.25,-208.71 1555.48,-198.48 1551.27,-208.2 1558.25,-208.71"/>
<text text-anchor="middle" x="1522.37" y="-485.96" font-family="monospace" font-size="10.00">owns</text>
</g>
<!-- lightning_node::FinalTypes::ConfigProviderInterface&#45;&gt;lightning_node::config::TomlConfigProvider -->
<g id="edge30" class="edge">
<title>lightning_node::FinalTypes::ConfigProviderInterface&#45;&gt;lightning_node::config::TomlConfigProvider</title>
<path fill="none" stroke="#7f7f7f" stroke-dasharray="5,2" d="M790.33,-506.12C747.9,-495.66 695.15,-482.67 651.28,-471.87"/>
<polygon fill="#7f7f7f" stroke="#7f7f7f" points="652.03,-468.45 641.49,-469.46 650.36,-475.25 652.03,-468.45"/>
<text text-anchor="middle" x="708.31" y="-491.99" font-family="monospace" font-size="10.00">uses</text>
</g>
<!-- lightning_node::config::TomlConfigProvider::get -->
<g id="node30" class="node">
<title>lightning_node::config::TomlConfigProvider::get</title>
<polygon fill="#db5367" stroke="black" points="810.7,-239.82 810.7,-277.82 1013.7,-277.82 1013.7,-239.82 810.7,-239.82"/>
<text text-anchor="middle" x="912.2" y="-265.82" font-family="monospace" font-size="10.00">pub(self) fn</text>
<polyline fill="none" stroke="black" points="810.7,-258.82 1013.7,-258.82 "/>
<text text-anchor="middle" x="912.2" y="-246.82" font-family="monospace" font-size="10.00">config::TomlConfigProvider::get</text>
</g>
<!-- lightning_node::config::TomlConfigProvider&#45;&gt;lightning_node::config::TomlConfigProvider::get -->
<g id="edge31" class="edge">
<title>lightning_node::config::TomlConfigProvider&#45;&gt;lightning_node::config::TomlConfigProvider::get</title>
<path fill="none" stroke="#000000" d="M644.96,-431.3C727.64,-395.36 849.79,-325.2 895.09,-284.9"/>
<polygon fill="#000000" stroke="#000000" points="897.54,-287.4 902.39,-277.98 892.73,-282.32 897.54,-287.4"/>
<text text-anchor="middle" x="757.52" y="-361.1" font-family="monospace" font-size="10.00">owns</text>
</g>
<!-- lightning_node::config::TomlConfigProvider::inject -->
<g id="node31" class="node">
<title>lightning_node::config::TomlConfigProvider::inject</title>
<polygon fill="#81c169" stroke="black" points="409.04,-627.4 409.04,-665.4 630.04,-665.4 630.04,-627.4 409.04,-627.4"/>
<text text-anchor="middle" x="519.54" y="-653.4" font-family="monospace" font-size="10.00">pub fn</text>
<polyline fill="none" stroke="black" points="409.04,-646.4 630.04,-646.4 "/>
<text text-anchor="middle" x="519.54" y="-634.4" font-family="monospace" font-size="10.00">config::TomlConfigProvider::inject</text>
</g>
<!-- lightning_node::config::TomlConfigProvider&#45;&gt;lightning_node::config::TomlConfigProvider::inject -->
<g id="edge32" class="edge">
<title>lightning_node::config::TomlConfigProvider&#45;&gt;lightning_node::config::TomlConfigProvider::inject</title>
<path fill="none" stroke="#000000" d="M541.22,-469.64C521.5,-504.2 504.8,-576.55 506.98,-617.24"/>
<polygon fill="#000000" stroke="#000000" points="503.51,-617.76 508.02,-627.34 510.47,-617.03 503.51,-617.76"/>
<text text-anchor="middle" x="511.6" y="-546.44" font-family="monospace" font-size="10.00">owns</text>
</g>
<!-- lightning_node::config::TomlConfigProvider::into_inner -->
<g id="node32" class="node">
<title>lightning_node::config::TomlConfigProvider::into_inner</title>
<polygon fill="#81c169" stroke="black" points="229.29,-60.05 229.29,-98.05 474.29,-98.05 474.29,-60.05 229.29,-60.05"/>
<text text-anchor="middle" x="351.79" y="-86.05" font-family="monospace" font-size="10.00">pub fn</text>
<polyline fill="none" stroke="black" points="229.29,-79.05 474.29,-79.05 "/>
<text text-anchor="middle" x="351.79" y="-67.05" font-family="monospace" font-size="10.00">config::TomlConfigProvider::into_inner</text>
</g>
<!-- lightning_node::config::TomlConfigProvider&#45;&gt;lightning_node::config::TomlConfigProvider::into_inner -->
<g id="edge33" class="edge">
<title>lightning_node::config::TomlConfigProvider&#45;&gt;lightning_node::config::TomlConfigProvider::into_inner</title>
<path fill="none" stroke="#000000" d="M566.03,-431.32C552.65,-369.23 445.5,-178.14 386.55,-106.2"/>
<polygon fill="#000000" stroke="#000000" points="389.09,-103.79 379.95,-98.43 383.75,-108.32 389.09,-103.79"/>
<text text-anchor="middle" x="463.79" y="-271.76" font-family="monospace" font-size="10.00">owns</text>
</g>
<!-- lightning_node::config::TomlConfigProvider::load_or_write_config -->
<g id="node33" class="node">
<title>lightning_node::config::TomlConfigProvider::load_or_write_config</title>
<polygon fill="#81c169" stroke="black" points="-0.37,-377.33 -0.37,-415.33 304.63,-415.33 304.63,-377.33 -0.37,-377.33"/>
<text text-anchor="middle" x="152.13" y="-403.33" font-family="monospace" font-size="10.00">pub async fn</text>
<polyline fill="none" stroke="black" points="-0.37,-396.33 304.63,-396.33 "/>
<text text-anchor="middle" x="152.13" y="-384.33" font-family="monospace" font-size="10.00">config::TomlConfigProvider::load_or_write_config</text>
</g>
<!-- lightning_node::config::TomlConfigProvider&#45;&gt;lightning_node::config::TomlConfigProvider::load_or_write_config -->
<g id="edge34" class="edge">
<title>lightning_node::config::TomlConfigProvider&#45;&gt;lightning_node::config::TomlConfigProvider::load_or_write_config</title>
<path fill="none" stroke="#000000" d="M477.63,-439.07C428.2,-432.58 364.75,-424.25 307.03,-416.67"/>
<polygon fill="#000000" stroke="#000000" points="307.45,-413.19 297.08,-415.36 306.53,-420.13 307.45,-413.19"/>
<text text-anchor="middle" x="379.83" y="-430.87" font-family="monospace" font-size="10.00">owns</text>
</g>
<!-- lightning_node::config::TomlConfigProvider::open -->
<g id="node34" class="node">
<title>lightning_node::config::TomlConfigProvider::open</title>
<polygon fill="#db5367" stroke="black" points="109.75,-606.1 109.75,-644.1 318.75,-644.1 318.75,-606.1 109.75,-606.1"/>
<text text-anchor="middle" x="214.25" y="-632.1" font-family="monospace" font-size="10.00">pub(self) fn</text>
<polyline fill="none" stroke="black" points="109.75,-625.1 318.75,-625.1 "/>
<text text-anchor="middle" x="214.25" y="-613.1" font-family="monospace" font-size="10.00">config::TomlConfigProvider::open</text>
</g>
<!-- lightning_node::config::TomlConfigProvider&#45;&gt;lightning_node::config::TomlConfigProvider::open -->
<g id="edge35" class="edge">
<title>lightning_node::config::TomlConfigProvider&#45;&gt;lightning_node::config::TomlConfigProvider::open</title>
<path fill="none" stroke="#000000" d="M477.74,-468.2C395.56,-500.69 278.37,-562.11 232.84,-599.27"/>
<polygon fill="#000000" stroke="#000000" points="230.45,-596.71 225.19,-605.91 235.04,-601.99 230.45,-596.71"/>
<text text-anchor="middle" x="342.79" y="-536.73" font-family="monospace" font-size="10.00">owns</text>
</g>
<!-- lightning_node::config::TomlConfigProvider::serialize_config -->
<g id="node35" class="node">
<title>lightning_node::config::TomlConfigProvider::serialize_config</title>
<polygon fill="#db5367" stroke="black" points="491.3,-0.21 491.3,-38.21 772.3,-38.21 772.3,-0.21 491.3,-0.21"/>
<text text-anchor="middle" x="631.8" y="-26.21" font-family="monospace" font-size="10.00">pub(self) fn</text>
<polyline fill="none" stroke="black" points="491.3,-19.21 772.3,-19.21 "/>
<text text-anchor="middle" x="631.8" y="-7.21" font-family="monospace" font-size="10.00">config::TomlConfigProvider::serialize_config</text>
</g>
<!-- lightning_node::config::TomlConfigProvider&#45;&gt;lightning_node::config::TomlConfigProvider::serialize_config -->
<g id="edge36" class="edge">
<title>lightning_node::config::TomlConfigProvider&#45;&gt;lightning_node::config::TomlConfigProvider::serialize_config</title>
<path fill="none" stroke="#000000" d="M579.95,-431.29C609.69,-362.92 646.48,-131.09 641.37,-48.6"/>
<polygon fill="#000000" stroke="#000000" points="644.85,-48.27 640.45,-38.64 637.88,-48.92 644.85,-48.27"/>
<text text-anchor="middle" x="598.16" y="-242.94" font-family="monospace" font-size="10.00">owns</text>
</g>
<!-- lightning_node::config::TomlConfigProvider::get&#45;&gt;lightning_node::config::TomlConfigProvider -->
<g id="edge37" class="edge">
<title>lightning_node::config::TomlConfigProvider::get&#45;&gt;lightning_node::config::TomlConfigProvider</title>
<path fill="none" stroke="#7f7f7f" stroke-dasharray="5,2" d="M831.53,-277.96C748.85,-313.91 626.69,-384.07 581.4,-424.37"/>
<polygon fill="#7f7f7f" stroke="#7f7f7f" points="578.95,-421.87 574.1,-431.29 583.76,-426.95 578.95,-421.87"/>
<text text-anchor="middle" x="693.96" y="-354.17" font-family="monospace" font-size="10.00">uses</text>
</g>
<!-- lightning_node::config::TomlConfigProvider::inject&#45;&gt;lightning_node::config::TomlConfigProvider -->
<g id="edge38" class="edge">
<title>lightning_node::config::TomlConfigProvider::inject&#45;&gt;lightning_node::config::TomlConfigProvider</title>
<path fill="none" stroke="#7f7f7f" stroke-dasharray="5,2" d="M542.61,-627.21C562.33,-592.64 579.03,-520.29 576.85,-479.6"/>
<polygon fill="#7f7f7f" stroke="#7f7f7f" points="580.32,-479.09 575.8,-469.5 573.36,-479.81 580.32,-479.09"/>
<text text-anchor="middle" x="547.23" y="-556.41" font-family="monospace" font-size="10.00">uses</text>
</g>
<!-- lightning_node::config::TomlConfigProvider::into_inner&#45;&gt;lightning_node::config::TomlConfigProvider -->
<g id="edge39" class="edge">
<title>lightning_node::config::TomlConfigProvider::into_inner&#45;&gt;lightning_node::config::TomlConfigProvider</title>
<path fill="none" stroke="#7f7f7f" stroke-dasharray="5,2" d="M350.05,-98.18C363.43,-160.27 470.58,-351.35 529.53,-423.29"/>
<polygon fill="#7f7f7f" stroke="#7f7f7f" points="526.99,-425.7 536.12,-431.07 532.32,-421.18 526.99,-425.7"/>
<text text-anchor="middle" x="427.29" y="-263.74" font-family="monospace" font-size="10.00">uses</text>
</g>
<!-- lightning_node::config::TomlConfigProvider::open&#45;&gt;lightning_node::config::TomlConfigProvider -->
<g id="edge40" class="edge">
<title>lightning_node::config::TomlConfigProvider::open&#45;&gt;lightning_node::config::TomlConfigProvider</title>
<path fill="none" stroke="#7f7f7f" stroke-dasharray="5,2" d="M303.97,-606.09C385.85,-573.34 500.42,-513.13 545.51,-476.44"/>
<polygon fill="#7f7f7f" stroke="#7f7f7f" points="548.07,-478.85 553.33,-469.65 543.48,-473.56 548.07,-478.85"/>
<text text-anchor="middle" x="412.24" y="-544.27" font-family="monospace" font-size="10.00">uses</text>
</g>
<!-- lightning_node::config::TomlConfigProvider::serialize_config&#45;&gt;lightning_node::config::TomlConfigProvider -->
<g id="edge41" class="edge">
<title>lightning_node::config::TomlConfigProvider::serialize_config&#45;&gt;lightning_node::config::TomlConfigProvider</title>
<path fill="none" stroke="#7f7f7f" stroke-dasharray="5,2" d="M616.13,-38.37C586.39,-106.74 549.6,-338.57 554.71,-421.06"/>
<polygon fill="#7f7f7f" stroke="#7f7f7f" points="551.23,-421.39 555.63,-431.02 558.2,-420.74 551.23,-421.39"/>
<text text-anchor="middle" x="572.92" y="-232.72" font-family="monospace" font-size="10.00">uses</text>
</g>
</g>
</svg>
