<?xml version="1.0" encoding="UTF-8" standalone="no"?>
<!DOCTYPE svg PUBLIC "-//W3C//DTD SVG 1.1//EN"
 "http://www.w3.org/Graphics/SVG/1.1/DTD/svg11.dtd">
<!-- Generated by graphviz version 4.0.0 (0)
 -->
<!-- Pages: 1 -->
<svg width="1602pt" height="1369pt"
 viewBox="0.00 0.00 1601.63 1368.90" xmlns="http://www.w3.org/2000/svg" xmlns:xlink="http://www.w3.org/1999/xlink">
<g id="graph0" class="graph" transform="scale(1 1) rotate(0) translate(28.8 1340.1)">
<polygon fill="white" stroke="transparent" points="-28.8,28.8 -28.8,-1340.1 1572.83,-1340.1 1572.83,28.8 -28.8,28.8"/>
<text text-anchor="middle" x="772.01" y="-1278.5" font-family="Helvetica,sans-Serif" font-size="36.00">atomo_rocks</text>
<!-- atomo_rocks -->
<g id="node1" class="node">
<title>atomo_rocks</title>
<polygon fill="#5397c8" stroke="black" points="591.27,-793.08 591.27,-831.08 674.27,-831.08 674.27,-793.08 591.27,-793.08"/>
<text text-anchor="middle" x="632.77" y="-819.08" font-family="monospace" font-size="10.00">crate</text>
<polyline fill="none" stroke="black" points="591.27,-812.08 674.27,-812.08 "/>
<text text-anchor="middle" x="632.77" y="-800.08" font-family="monospace" font-size="10.00">atomo_rocks</text>
</g>
<!-- atomo_rocks::AtomoBuilderWithRocks -->
<g id="node2" class="node">
<title>atomo_rocks::AtomoBuilderWithRocks</title>
<polygon fill="#81c169" stroke="black" points="810.28,-813.19 810.28,-851.19 953.28,-851.19 953.28,-813.19 810.28,-813.19"/>
<text text-anchor="middle" x="881.78" y="-839.19" font-family="monospace" font-size="10.00">pub type</text>
<polyline fill="none" stroke="black" points="810.28,-832.19 953.28,-832.19 "/>
<text text-anchor="middle" x="881.78" y="-820.19" font-family="monospace" font-size="10.00">AtomoBuilderWithRocks</text>
</g>
<!-- atomo_rocks&#45;&gt;atomo_rocks::AtomoBuilderWithRocks -->
<g id="edge1" class="edge">
<title>atomo_rocks&#45;&gt;atomo_rocks::AtomoBuilderWithRocks</title>
<path fill="none" stroke="#000000" d="M674.45,-815.45C708.6,-818.21 757.97,-822.19 799.96,-825.58"/>
<polygon fill="#000000" stroke="#000000" points="799.94,-829.09 810.19,-826.41 800.5,-822.12 799.94,-829.09"/>
<text text-anchor="middle" x="724.7" y="-823.52" font-family="monospace" font-size="10.00">owns</text>
</g>
<!-- atomo_rocks::RocksBackend -->
<g id="node3" class="node">
<title>atomo_rocks::RocksBackend</title>
<polygon fill="#81c169" stroke="black" points="411.01,-390.34 411.01,-428.34 500.01,-428.34 500.01,-390.34 411.01,-390.34"/>
<text text-anchor="middle" x="455.51" y="-416.34" font-family="monospace" font-size="10.00">pub struct</text>
<polyline fill="none" stroke="black" points="411.01,-409.34 500.01,-409.34 "/>
<text text-anchor="middle" x="455.51" y="-397.34" font-family="monospace" font-size="10.00">RocksBackend</text>
</g>
<!-- atomo_rocks&#45;&gt;atomo_rocks::RocksBackend -->
<g id="edge2" class="edge">
<title>atomo_rocks&#45;&gt;atomo_rocks::RocksBackend</title>
<path fill="none" stroke="#000000" d="M624.34,-792.93C595.7,-727.87 502.07,-515.11 468.03,-437.77"/>
<polygon fill="#000000" stroke="#000000" points="471.23,-436.35 464,-428.61 464.82,-439.17 471.23,-436.35"/>
<text text-anchor="middle" x="533.68" y="-618.35" font-family="monospace" font-size="10.00">owns</text>
</g>
<!-- atomo_rocks::RocksBackendBuilder -->
<g id="node9" class="node">
<title>atomo_rocks::RocksBackendBuilder</title>
<polygon fill="#81c169" stroke="black" points="993.73,-650.67 993.73,-688.67 1124.73,-688.67 1124.73,-650.67 993.73,-650.67"/>
<text text-anchor="middle" x="1059.23" y="-676.67" font-family="monospace" font-size="10.00">pub struct</text>
<polyline fill="none" stroke="black" points="993.73,-669.67 1124.73,-669.67 "/>
<text text-anchor="middle" x="1059.23" y="-657.67" font-family="monospace" font-size="10.00">RocksBackendBuilder</text>
</g>
<!-- atomo_rocks&#45;&gt;atomo_rocks::RocksBackendBuilder -->
<g id="edge3" class="edge">
<title>atomo_rocks&#45;&gt;atomo_rocks::RocksBackendBuilder</title>
<path fill="none" stroke="#000000" d="M674.43,-798.17C748.47,-773.45 903.52,-721.67 992.55,-691.94"/>
<polygon fill="#000000" stroke="#000000" points="993.9,-695.18 1002.28,-688.69 991.68,-688.54 993.9,-695.18"/>
<text text-anchor="middle" x="820.99" y="-748.05" font-family="monospace" font-size="10.00">owns</text>
</g>
<!-- atomo_rocks::serialization::Entry -->
<g id="node19" class="node">
<title>atomo_rocks::serialization::Entry</title>
<polygon fill="#db5367" stroke="black" points="201.55,-926.95 201.55,-964.95 338.55,-964.95 338.55,-926.95 201.55,-926.95"/>
<text text-anchor="middle" x="270.05" y="-952.95" font-family="monospace" font-size="10.00">pub(self) type</text>
<polyline fill="none" stroke="black" points="201.55,-945.95 338.55,-945.95 "/>
<text text-anchor="middle" x="270.05" y="-933.95" font-family="monospace" font-size="10.00">serialization::Entry</text>
</g>
<!-- atomo_rocks&#45;&gt;atomo_rocks::serialization::Entry -->
<g id="edge4" class="edge">
<title>atomo_rocks&#45;&gt;atomo_rocks::serialization::Entry</title>
<path fill="none" stroke="#000000" d="M591.16,-827.44C527.4,-850.97 405.18,-896.08 331.3,-923.35"/>
<polygon fill="#000000" stroke="#000000" points="329.81,-920.16 321.64,-926.91 332.24,-926.73 329.81,-920.16"/>
<text text-anchor="middle" x="448.73" y="-878.39" font-family="monospace" font-size="10.00">owns</text>
</g>
<!-- atomo_rocks::serialization::build_db_from_checkpoint -->
<g id="node20" class="node">
<title>atomo_rocks::serialization::build_db_from_checkpoint</title>
<polygon fill="#81c169" stroke="black" points="198.22,-1110.67 198.22,-1148.67 449.22,-1148.67 449.22,-1110.67 198.22,-1110.67"/>
<text text-anchor="middle" x="323.72" y="-1136.67" font-family="monospace" font-size="10.00">pub fn</text>
<polyline fill="none" stroke="black" points="198.22,-1129.67 449.22,-1129.67 "/>
<text text-anchor="middle" x="323.72" y="-1117.67" font-family="monospace" font-size="10.00">serialization::build_db_from_checkpoint</text>
</g>
<!-- atomo_rocks&#45;&gt;atomo_rocks::serialization::build_db_from_checkpoint -->
<g id="edge5" class="edge">
<title>atomo_rocks&#45;&gt;atomo_rocks::serialization::build_db_from_checkpoint</title>
<path fill="none" stroke="#000000" d="M591.15,-830.88C517.42,-885.6 371.66,-1036.88 332.22,-1101.43"/>
<polygon fill="#000000" stroke="#000000" points="329.08,-1099.87 327.2,-1110.3 335.17,-1103.32 329.08,-1099.87"/>
<text text-anchor="middle" x="449.19" y="-969.15" font-family="monospace" font-size="10.00">owns</text>
</g>
<!-- atomo_rocks&#45;&gt;atomo_rocks::serialization::build_db_from_checkpoint -->
<g id="edge6" class="edge">
<title>atomo_rocks&#45;&gt;atomo_rocks::serialization::build_db_from_checkpoint</title>
<path fill="none" stroke="#7f7f7f" stroke-dasharray="5,2" d="M629.29,-831.44C600.41,-887.7 453.5,-1042.14 373.73,-1104.47"/>
<polygon fill="#7f7f7f" stroke="#7f7f7f" points="371.58,-1101.71 365.76,-1110.56 375.83,-1107.27 371.58,-1101.71"/>
<text text-anchor="middle" x="489.01" y="-970.96" font-family="monospace" font-size="10.00">uses</text>
</g>
<!-- atomo_rocks::serialization::deserialize_db -->
<g id="node21" class="node">
<title>atomo_rocks::serialization::deserialize_db</title>
<polygon fill="#81c169" stroke="black" points="457.24,-1078.6 457.24,-1116.6 648.24,-1116.6 648.24,-1078.6 457.24,-1078.6"/>
<text text-anchor="middle" x="552.74" y="-1104.6" font-family="monospace" font-size="10.00">pub fn</text>
<polyline fill="none" stroke="black" points="457.24,-1097.6 648.24,-1097.6 "/>
<text text-anchor="middle" x="552.74" y="-1085.6" font-family="monospace" font-size="10.00">serialization::deserialize_db</text>
</g>
<!-- atomo_rocks&#45;&gt;atomo_rocks::serialization::deserialize_db -->
<g id="edge7" class="edge">
<title>atomo_rocks&#45;&gt;atomo_rocks::serialization::deserialize_db</title>
<path fill="none" stroke="#000000" d="M627.39,-831.26C613.64,-880.33 577.11,-1010.65 560.8,-1068.84"/>
<polygon fill="#000000" stroke="#000000" points="557.42,-1067.93 558.09,-1078.51 564.16,-1069.82 557.42,-1067.93"/>
<text text-anchor="middle" x="581.6" y="-953.05" font-family="monospace" font-size="10.00">owns</text>
</g>
<!-- atomo_rocks::serialization::deserialize_table -->
<g id="node22" class="node">
<title>atomo_rocks::serialization::deserialize_table</title>
<polygon fill="#db5367" stroke="black" points="231.62,-753.86 231.62,-791.86 440.62,-791.86 440.62,-753.86 231.62,-753.86"/>
<text text-anchor="middle" x="336.12" y="-779.86" font-family="monospace" font-size="10.00">pub(self) fn</text>
<polyline fill="none" stroke="black" points="231.62,-772.86 440.62,-772.86 "/>
<text text-anchor="middle" x="336.12" y="-760.86" font-family="monospace" font-size="10.00">serialization::deserialize_table</text>
</g>
<!-- atomo_rocks&#45;&gt;atomo_rocks::serialization::deserialize_table -->
<g id="edge8" class="edge">
<title>atomo_rocks&#45;&gt;atomo_rocks::serialization::deserialize_table</title>
<path fill="none" stroke="#000000" d="M591.21,-806.59C554.81,-801.78 500.16,-794.55 450.77,-788.02"/>
<polygon fill="#000000" stroke="#000000" points="451.01,-784.52 440.64,-786.68 450.1,-791.46 451.01,-784.52"/>
<text text-anchor="middle" x="508.49" y="-800.3" font-family="monospace" font-size="10.00">owns</text>
</g>
<!-- atomo_rocks::serialization::serialize_db -->
<g id="node23" class="node">
<title>atomo_rocks::serialization::serialize_db</title>
<polygon fill="#81c169" stroke="black" points="536.09,-1224.8 536.09,-1262.8 715.09,-1262.8 715.09,-1224.8 536.09,-1224.8"/>
<text text-anchor="middle" x="625.59" y="-1250.8" font-family="monospace" font-size="10.00">pub fn</text>
<polyline fill="none" stroke="black" points="536.09,-1243.8 715.09,-1243.8 "/>
<text text-anchor="middle" x="625.59" y="-1231.8" font-family="monospace" font-size="10.00">serialization::serialize_db</text>
</g>
<!-- atomo_rocks&#45;&gt;atomo_rocks::serialization::serialize_db -->
<g id="edge9" class="edge">
<title>atomo_rocks&#45;&gt;atomo_rocks::serialization::serialize_db</title>
<path fill="none" stroke="#000000" d="M620.4,-831.27C600.11,-899.8 595.48,-1132.73 611.75,-1214.86"/>
<polygon fill="#000000" stroke="#000000" points="608.37,-1215.79 614.01,-1224.76 615.2,-1214.23 608.37,-1215.79"/>
<text text-anchor="middle" x="603.57" y="-1026.06" font-family="monospace" font-size="10.00">owns</text>
</g>
<!-- atomo_rocks&#45;&gt;atomo_rocks::serialization::serialize_db -->
<g id="edge10" class="edge">
<title>atomo_rocks&#45;&gt;atomo_rocks::serialization::serialize_db</title>
<path fill="none" stroke="#7f7f7f" stroke-dasharray="5,2" d="M644.34,-831.11C662.48,-899.44 659.44,-1132.75 640.49,-1214.9"/>
<polygon fill="#7f7f7f" stroke="#7f7f7f" points="637.1,-1214.03 637.97,-1224.59 643.87,-1215.79 637.1,-1214.03"/>
<text text-anchor="middle" x="629.92" y="-1026" font-family="monospace" font-size="10.00">uses</text>
</g>
<!-- atomo_rocks::serialization::serialize_table -->
<g id="node24" class="node">
<title>atomo_rocks::serialization::serialize_table</title>
<polygon fill="#db5367" stroke="black" points="693.43,-1146.86 693.43,-1184.86 890.43,-1184.86 890.43,-1146.86 693.43,-1146.86"/>
<text text-anchor="middle" x="791.93" y="-1172.86" font-family="monospace" font-size="10.00">pub(self) fn</text>
<polyline fill="none" stroke="black" points="693.43,-1165.86 890.43,-1165.86 "/>
<text text-anchor="middle" x="791.93" y="-1153.86" font-family="monospace" font-size="10.00">serialization::serialize_table</text>
</g>
<!-- atomo_rocks&#45;&gt;atomo_rocks::serialization::serialize_table -->
<g id="edge11" class="edge">
<title>atomo_rocks&#45;&gt;atomo_rocks::serialization::serialize_table</title>
<path fill="none" stroke="#000000" d="M641.32,-831.11C667.66,-889.65 747.64,-1067.41 779.06,-1137.25"/>
<polygon fill="#000000" stroke="#000000" points="776.03,-1139.06 783.33,-1146.75 782.42,-1136.19 776.03,-1139.06"/>
<text text-anchor="middle" x="697.69" y="-987.18" font-family="monospace" font-size="10.00">owns</text>
</g>
<!-- atomo_rocks::AtomoBuilderWithRocks&#45;&gt;atomo_rocks::RocksBackendBuilder -->
<g id="edge12" class="edge">
<title>atomo_rocks::AtomoBuilderWithRocks&#45;&gt;atomo_rocks::RocksBackendBuilder</title>
<path fill="none" stroke="#7f7f7f" stroke-dasharray="5,2" d="M902.84,-812.91C934.67,-783.75 995.13,-728.38 1030.83,-695.69"/>
<polygon fill="#7f7f7f" stroke="#7f7f7f" points="1033.47,-698.01 1038.48,-688.68 1028.74,-692.85 1033.47,-698.01"/>
<text text-anchor="middle" x="954.33" y="-757.3" font-family="monospace" font-size="10.00">uses</text>
</g>
<!-- atomo_rocks::RocksBackend::commit -->
<g id="node4" class="node">
<title>atomo_rocks::RocksBackend::commit</title>
<polygon fill="#f8c04c" stroke="black" points="0,-498.4 0,-536.4 137,-536.4 137,-498.4 0,-498.4"/>
<text text-anchor="middle" x="68.5" y="-524.4" font-family="monospace" font-size="10.00">pub(crate) fn</text>
<polyline fill="none" stroke="black" points="0,-517.4 137,-517.4 "/>
<text text-anchor="middle" x="68.5" y="-505.4" font-family="monospace" font-size="10.00">RocksBackend::commit</text>
</g>
<!-- atomo_rocks::RocksBackend&#45;&gt;atomo_rocks::RocksBackend::commit -->
<g id="edge13" class="edge">
<title>atomo_rocks::RocksBackend&#45;&gt;atomo_rocks::RocksBackend::commit</title>
<path fill="none" stroke="#000000" d="M410.92,-403.9C330.16,-412.41 162.34,-459.8 96.09,-493.42"/>
<polygon fill="#000000" stroke="#000000" points="94.22,-490.45 87.07,-498.28 97.54,-496.62 94.22,-490.45"/>
<text text-anchor="middle" x="241" y="-451.66" font-family="monospace" font-size="10.00">owns</text>
</g>
<!-- atomo_rocks::RocksBackend::contains -->
<g id="node5" class="node">
<title>atomo_rocks::RocksBackend::contains</title>
<polygon fill="#f8c04c" stroke="black" points="484.98,-0.5 484.98,-38.5 633.98,-38.5 633.98,-0.5 484.98,-0.5"/>
<text text-anchor="middle" x="559.48" y="-26.5" font-family="monospace" font-size="10.00">pub(crate) fn</text>
<polyline fill="none" stroke="black" points="484.98,-19.5 633.98,-19.5 "/>
<text text-anchor="middle" x="559.48" y="-7.5" font-family="monospace" font-size="10.00">RocksBackend::contains</text>
</g>
<!-- atomo_rocks::RocksBackend&#45;&gt;atomo_rocks::RocksBackend::contains -->
<g id="edge14" class="edge">
<title>atomo_rocks::RocksBackend&#45;&gt;atomo_rocks::RocksBackend::contains</title>
<path fill="none" stroke="#000000" d="M474.6,-390.17C509.81,-326.9 563.77,-125.64 566.4,-49.19"/>
<polygon fill="#000000" stroke="#000000" points="569.9,-48.85 566.41,-38.84 562.9,-48.84 569.9,-48.85"/>
<text text-anchor="middle" x="508" y="-222.68" font-family="monospace" font-size="10.00">owns</text>
</g>
<!-- atomo_rocks::RocksBackend::get -->
<g id="node6" class="node">
<title>atomo_rocks::RocksBackend::get</title>
<polygon fill="#f8c04c" stroke="black" points="27.8,-308.87 27.8,-346.87 146.8,-346.87 146.8,-308.87 27.8,-308.87"/>
<text text-anchor="middle" x="87.3" y="-334.87" font-family="monospace" font-size="10.00">pub(crate) fn</text>
<polyline fill="none" stroke="black" points="27.8,-327.87 146.8,-327.87 "/>
<text text-anchor="middle" x="87.3" y="-315.87" font-family="monospace" font-size="10.00">RocksBackend::get</text>
</g>
<!-- atomo_rocks::RocksBackend&#45;&gt;atomo_rocks::RocksBackend::get -->
<g id="edge15" class="edge">
<title>atomo_rocks::RocksBackend&#45;&gt;atomo_rocks::RocksBackend::get</title>
<path fill="none" stroke="#000000" d="M434.7,-390.22C382.12,-363.94 242.65,-330.68 157.23,-321.62"/>
<polygon fill="#000000" stroke="#000000" points="157.38,-318.12 147.09,-320.64 156.71,-325.09 157.38,-318.12"/>
<text text-anchor="middle" x="283.46" y="-358.92" font-family="monospace" font-size="10.00">owns</text>
</g>
<!-- atomo_rocks::RocksBackend::keys -->
<g id="node7" class="node">
<title>atomo_rocks::RocksBackend::keys</title>
<polygon fill="#f8c04c" stroke="black" points="131.53,-135.98 131.53,-173.98 256.53,-173.98 256.53,-135.98 131.53,-135.98"/>
<text text-anchor="middle" x="194.03" y="-161.98" font-family="monospace" font-size="10.00">pub(crate) fn</text>
<polyline fill="none" stroke="black" points="131.53,-154.98 256.53,-154.98 "/>
<text text-anchor="middle" x="194.03" y="-142.98" font-family="monospace" font-size="10.00">RocksBackend::keys</text>
</g>
<!-- atomo_rocks::RocksBackend&#45;&gt;atomo_rocks::RocksBackend::keys -->
<g id="edge16" class="edge">
<title>atomo_rocks::RocksBackend&#45;&gt;atomo_rocks::RocksBackend::keys</title>
<path fill="none" stroke="#000000" d="M452.52,-389.94C428.51,-343.02 317.89,-231.52 248.78,-180.04"/>
<polygon fill="#000000" stroke="#000000" points="250.71,-177.12 240.56,-174.07 246.59,-182.78 250.71,-177.12"/>
<text text-anchor="middle" x="338.15" y="-287.99" font-family="monospace" font-size="10.00">owns</text>
</g>
<!-- atomo_rocks::RocksBackend::serialize -->
<g id="node8" class="node">
<title>atomo_rocks::RocksBackend::serialize</title>
<polygon fill="#81c169" stroke="black" points="288.27,-24.52 288.27,-62.52 443.27,-62.52 443.27,-24.52 288.27,-24.52"/>
<text text-anchor="middle" x="365.77" y="-50.52" font-family="monospace" font-size="10.00">pub fn</text>
<polyline fill="none" stroke="black" points="288.27,-43.52 443.27,-43.52 "/>
<text text-anchor="middle" x="365.77" y="-31.52" font-family="monospace" font-size="10.00">RocksBackend::serialize</text>
</g>
<!-- atomo_rocks::RocksBackend&#45;&gt;atomo_rocks::RocksBackend::serialize -->
<g id="edge17" class="edge">
<title>atomo_rocks::RocksBackend&#45;&gt;atomo_rocks::RocksBackend::serialize</title>
<path fill="none" stroke="#000000" d="M463.17,-390.29C467.44,-329.9 423.15,-143.54 389.34,-71.86"/>
<polygon fill="#000000" stroke="#000000" points="392.46,-70.29 384.85,-62.92 386.21,-73.43 392.46,-70.29"/>
<text text-anchor="middle" x="413.75" y="-234.08" font-family="monospace" font-size="10.00">owns</text>
</g>
<!-- atomo_rocks::RocksBackend::commit&#45;&gt;atomo_rocks::RocksBackend -->
<g id="edge18" class="edge">
<title>atomo_rocks::RocksBackend::commit&#45;&gt;atomo_rocks::RocksBackend</title>
<path fill="none" stroke="#7f7f7f" stroke-dasharray="5,2" d="M137.07,-519.6C223.52,-505.84 367.9,-463.82 428.06,-433.24"/>
<polygon fill="#7f7f7f" stroke="#7f7f7f" points="429.83,-436.27 436.97,-428.44 426.51,-430.11 429.83,-436.27"/>
<text text-anchor="middle" x="270.07" y="-479.42" font-family="monospace" font-size="10.00">uses</text>
</g>
<!-- atomo_rocks::RocksBackend::contains&#45;&gt;atomo_rocks::RocksBackend -->
<g id="edge19" class="edge">
<title>atomo_rocks::RocksBackend::contains&#45;&gt;atomo_rocks::RocksBackend</title>
<path fill="none" stroke="#7f7f7f" stroke-dasharray="5,2" d="M540.39,-38.66C505.18,-101.94 451.22,-303.2 448.59,-379.65"/>
<polygon fill="#7f7f7f" stroke="#7f7f7f" points="445.09,-379.99 448.59,-389.99 452.09,-380 445.09,-379.99"/>
<text text-anchor="middle" x="481.99" y="-212.16" font-family="monospace" font-size="10.00">uses</text>
</g>
<!-- atomo_rocks::RocksBackend::get&#45;&gt;atomo_rocks::RocksBackend -->
<g id="edge20" class="edge">
<title>atomo_rocks::RocksBackend::get&#45;&gt;atomo_rocks::RocksBackend</title>
<path fill="none" stroke="#7f7f7f" stroke-dasharray="5,2" d="M108.11,-346.98C163.96,-374.9 317.85,-410.69 400.86,-416.99"/>
<polygon fill="#7f7f7f" stroke="#7f7f7f" points="400.66,-420.48 410.86,-417.62 401.1,-413.49 400.66,-420.48"/>
<text text-anchor="middle" x="241.98" y="-384.98" font-family="monospace" font-size="10.00">uses</text>
</g>
<!-- atomo_rocks::RocksBackend::keys&#45;&gt;atomo_rocks::RocksBackend -->
<g id="edge21" class="edge">
<title>atomo_rocks::RocksBackend::keys&#45;&gt;atomo_rocks::RocksBackend</title>
<path fill="none" stroke="#7f7f7f" stroke-dasharray="5,2" d="M197.03,-174.38C221.26,-221.73 333.69,-334.86 402.66,-385.68"/>
<polygon fill="#7f7f7f" stroke="#7f7f7f" points="400.68,-388.57 410.85,-391.56 404.77,-382.89 400.68,-388.57"/>
<text text-anchor="middle" x="287.34" y="-283.03" font-family="monospace" font-size="10.00">uses</text>
</g>
<!-- atomo_rocks::RocksBackend::serialize&#45;&gt;atomo_rocks::RocksBackend -->
<g id="edge22" class="edge">
<title>atomo_rocks::RocksBackend::serialize&#45;&gt;atomo_rocks::RocksBackend</title>
<path fill="none" stroke="#7f7f7f" stroke-dasharray="5,2" d="M358.12,-62.56C353.85,-122.95 398.14,-309.32 431.95,-380.99"/>
<polygon fill="#7f7f7f" stroke="#7f7f7f" points="428.83,-382.56 436.44,-389.93 435.08,-379.42 428.83,-382.56"/>
<text text-anchor="middle" x="382.54" y="-224.78" font-family="monospace" font-size="10.00">uses</text>
</g>
<!-- atomo_rocks::RocksBackendBuilder::Error -->
<g id="node10" class="node">
<title>atomo_rocks::RocksBackendBuilder::Error</title>
<polygon fill="#f8c04c" stroke="black" points="1093.24,-259.04 1093.24,-297.04 1266.24,-297.04 1266.24,-259.04 1093.24,-259.04"/>
<text text-anchor="middle" x="1179.74" y="-285.04" font-family="monospace" font-size="10.00">pub(crate) type</text>
<polyline fill="none" stroke="black" points="1093.24,-278.04 1266.24,-278.04 "/>
<text text-anchor="middle" x="1179.74" y="-266.04" font-family="monospace" font-size="10.00">RocksBackendBuilder::Error</text>
</g>
<!-- atomo_rocks::RocksBackendBuilder&#45;&gt;atomo_rocks::RocksBackendBuilder::Error -->
<g id="edge23" class="edge">
<title>atomo_rocks::RocksBackendBuilder&#45;&gt;atomo_rocks::RocksBackendBuilder::Error</title>
<path fill="none" stroke="#000000" d="M1065.13,-650.52C1084.67,-587.01 1147.41,-383.09 1170.82,-307.02"/>
<polygon fill="#000000" stroke="#000000" points="1174.26,-307.74 1173.85,-297.16 1167.57,-305.69 1174.26,-307.74"/>
<text text-anchor="middle" x="1105.47" y="-481.77" font-family="monospace" font-size="10.00">owns</text>
</g>
<!-- atomo_rocks::RocksBackendBuilder::Storage -->
<g id="node11" class="node">
<title>atomo_rocks::RocksBackendBuilder::Storage</title>
<polygon fill="#f8c04c" stroke="black" points="745.12,-311.01 745.12,-349.01 930.12,-349.01 930.12,-311.01 745.12,-311.01"/>
<text text-anchor="middle" x="837.62" y="-337.01" font-family="monospace" font-size="10.00">pub(crate) type</text>
<polyline fill="none" stroke="black" points="745.12,-330.01 930.12,-330.01 "/>
<text text-anchor="middle" x="837.62" y="-318.01" font-family="monospace" font-size="10.00">RocksBackendBuilder::Storage</text>
</g>
<!-- atomo_rocks::RocksBackendBuilder&#45;&gt;atomo_rocks::RocksBackendBuilder::Storage -->
<g id="edge24" class="edge">
<title>atomo_rocks::RocksBackendBuilder&#45;&gt;atomo_rocks::RocksBackendBuilder::Storage</title>
<path fill="none" stroke="#000000" d="M1046.68,-650.44C1009.43,-593.34 899.37,-424.64 855.74,-357.77"/>
<polygon fill="#000000" stroke="#000000" points="858.43,-355.49 850.04,-349.03 852.57,-359.32 858.43,-355.49"/>
<text text-anchor="middle" x="938.71" y="-507.1" font-family="monospace" font-size="10.00">owns</text>
</g>
<!-- atomo_rocks::RocksBackendBuilder::build -->
<g id="node12" class="node">
<title>atomo_rocks::RocksBackendBuilder::build</title>
<polygon fill="#f8c04c" stroke="black" points="698.75,-432.16 698.75,-470.16 871.75,-470.16 871.75,-432.16 698.75,-432.16"/>
<text text-anchor="middle" x="785.25" y="-458.16" font-family="monospace" font-size="10.00">pub(crate) fn</text>
<polyline fill="none" stroke="black" points="698.75,-451.16 871.75,-451.16 "/>
<text text-anchor="middle" x="785.25" y="-439.16" font-family="monospace" font-size="10.00">RocksBackendBuilder::build</text>
</g>
<!-- atomo_rocks::RocksBackendBuilder&#45;&gt;atomo_rocks::RocksBackendBuilder::build -->
<g id="edge25" class="edge">
<title>atomo_rocks::RocksBackendBuilder&#45;&gt;atomo_rocks::RocksBackendBuilder::build</title>
<path fill="none" stroke="#000000" d="M1054.57,-650.64C1028.41,-609.34 921.98,-520.32 850.61,-475.54"/>
<polygon fill="#000000" stroke="#000000" points="852.44,-472.56 842.09,-470.3 848.77,-478.52 852.44,-472.56"/>
<text text-anchor="middle" x="940.09" y="-566.09" font-family="monospace" font-size="10.00">owns</text>
</g>
<!-- atomo_rocks::RocksBackendBuilder::from_checkpoint -->
<g id="node13" class="node">
<title>atomo_rocks::RocksBackendBuilder::from_checkpoint</title>
<polygon fill="#81c169" stroke="black" points="1311.03,-655.62 1311.03,-693.62 1544.03,-693.62 1544.03,-655.62 1311.03,-655.62"/>
<text text-anchor="middle" x="1427.53" y="-681.62" font-family="monospace" font-size="10.00">pub fn</text>
<polyline fill="none" stroke="black" points="1311.03,-674.62 1544.03,-674.62 "/>
<text text-anchor="middle" x="1427.53" y="-662.62" font-family="monospace" font-size="10.00">RocksBackendBuilder::from_checkpoint</text>
</g>
<!-- atomo_rocks::RocksBackendBuilder&#45;&gt;atomo_rocks::RocksBackendBuilder::from_checkpoint -->
<g id="edge26" class="edge">
<title>atomo_rocks::RocksBackendBuilder&#45;&gt;atomo_rocks::RocksBackendBuilder::from_checkpoint</title>
<path fill="none" stroke="#000000" d="M1104.14,-688.73C1168.95,-700.05 1289.01,-702.53 1363.21,-694.81"/>
<polygon fill="#000000" stroke="#000000" points="1363.82,-698.26 1373.36,-693.65 1363.03,-691.31 1363.82,-698.26"/>
<text text-anchor="middle" x="1221.18" y="-694.77" font-family="monospace" font-size="10.00">owns</text>
</g>
<!-- atomo_rocks::RocksBackendBuilder::new -->
<g id="node14" class="node">
<title>atomo_rocks::RocksBackendBuilder::new</title>
<polygon fill="#81c169" stroke="black" points="1311.92,-823.71 1311.92,-861.71 1472.92,-861.71 1472.92,-823.71 1311.92,-823.71"/>
<text text-anchor="middle" x="1392.42" y="-849.71" font-family="monospace" font-size="10.00">pub fn</text>
<polyline fill="none" stroke="black" points="1311.92,-842.71 1472.92,-842.71 "/>
<text text-anchor="middle" x="1392.42" y="-830.71" font-family="monospace" font-size="10.00">RocksBackendBuilder::new</text>
</g>
<!-- atomo_rocks::RocksBackendBuilder&#45;&gt;atomo_rocks::RocksBackendBuilder::new -->
<g id="edge27" class="edge">
<title>atomo_rocks::RocksBackendBuilder&#45;&gt;atomo_rocks::RocksBackendBuilder::new</title>
<path fill="none" stroke="#000000" d="M1069.19,-688.69C1104.25,-723.41 1219.21,-787.29 1302.21,-822.23"/>
<polygon fill="#000000" stroke="#000000" points="1301.08,-825.55 1311.66,-826.13 1303.75,-819.08 1301.08,-825.55"/>
<text text-anchor="middle" x="1173.2" y="-758.46" font-family="monospace" font-size="10.00">owns</text>
</g>
<!-- atomo_rocks::RocksBackendBuilder::open_table -->
<g id="node15" class="node">
<title>atomo_rocks::RocksBackendBuilder::open_table</title>
<polygon fill="#f8c04c" stroke="black" points="1205.77,-969.15 1205.77,-1007.15 1408.77,-1007.15 1408.77,-969.15 1205.77,-969.15"/>
<text text-anchor="middle" x="1307.27" y="-995.15" font-family="monospace" font-size="10.00">pub(crate) fn</text>
<polyline fill="none" stroke="black" points="1205.77,-988.15 1408.77,-988.15 "/>
<text text-anchor="middle" x="1307.27" y="-976.15" font-family="monospace" font-size="10.00">RocksBackendBuilder::open_table</text>
</g>
<!-- atomo_rocks::RocksBackendBuilder&#45;&gt;atomo_rocks::RocksBackendBuilder::open_table -->
<g id="edge28" class="edge">
<title>atomo_rocks::RocksBackendBuilder&#45;&gt;atomo_rocks::RocksBackendBuilder::open_table</title>
<path fill="none" stroke="#000000" d="M1060.01,-689.12C1080.33,-745 1197.51,-899.13 1263.95,-962.01"/>
<polygon fill="#000000" stroke="#000000" points="1261.66,-964.67 1271.39,-968.86 1266.4,-959.51 1261.66,-964.67"/>
<text text-anchor="middle" x="1149.48" y="-828.56" font-family="monospace" font-size="10.00">owns</text>
</g>
<!-- atomo_rocks::RocksBackendBuilder::read_only -->
<g id="node16" class="node">
<title>atomo_rocks::RocksBackendBuilder::read_only</title>
<polygon fill="#81c169" stroke="black" points="1166.21,-398.34 1166.21,-436.34 1363.21,-436.34 1363.21,-398.34 1166.21,-398.34"/>
<text text-anchor="middle" x="1264.71" y="-424.34" font-family="monospace" font-size="10.00">pub fn</text>
<polyline fill="none" stroke="black" points="1166.21,-417.34 1363.21,-417.34 "/>
<text text-anchor="middle" x="1264.71" y="-405.34" font-family="monospace" font-size="10.00">RocksBackendBuilder::read_only</text>
</g>
<!-- atomo_rocks::RocksBackendBuilder&#45;&gt;atomo_rocks::RocksBackendBuilder::read_only -->
<g id="edge29" class="edge">
<title>atomo_rocks::RocksBackendBuilder&#45;&gt;atomo_rocks::RocksBackendBuilder::read_only</title>
<path fill="none" stroke="#000000" d="M1098.49,-650.6C1151.17,-605.67 1237.09,-498.42 1260.98,-445.83"/>
<polygon fill="#000000" stroke="#000000" points="1264.3,-446.95 1264.8,-436.37 1257.81,-444.33 1264.3,-446.95"/>
<text text-anchor="middle" x="1167.23" y="-551.21" font-family="monospace" font-size="10.00">owns</text>
</g>
<!-- atomo_rocks::RocksBackendBuilder::with_options -->
<g id="node17" class="node">
<title>atomo_rocks::RocksBackendBuilder::with_options</title>
<polygon fill="#81c169" stroke="black" points="1303.22,-460.96 1303.22,-498.96 1518.22,-498.96 1518.22,-460.96 1303.22,-460.96"/>
<text text-anchor="middle" x="1410.72" y="-486.96" font-family="monospace" font-size="10.00">pub fn</text>
<polyline fill="none" stroke="black" points="1303.22,-479.96 1518.22,-479.96 "/>
<text text-anchor="middle" x="1410.72" y="-467.96" font-family="monospace" font-size="10.00">RocksBackendBuilder::with_options</text>
</g>
<!-- atomo_rocks::RocksBackendBuilder&#45;&gt;atomo_rocks::RocksBackendBuilder::with_options -->
<g id="edge30" class="edge">
<title>atomo_rocks::RocksBackendBuilder&#45;&gt;atomo_rocks::RocksBackendBuilder::with_options</title>
<path fill="none" stroke="#000000" d="M1125.01,-657.36C1207.63,-624.59 1343.81,-548.91 1392.94,-506.24"/>
<polygon fill="#000000" stroke="#000000" points="1395.6,-508.54 1400.56,-499.18 1390.85,-503.41 1395.6,-508.54"/>
<text text-anchor="middle" x="1246.47" y="-584.8" font-family="monospace" font-size="10.00">owns</text>
</g>
<!-- atomo_rocks::RocksBackendBuilder::with_table_option -->
<g id="node18" class="node">
<title>atomo_rocks::RocksBackendBuilder::with_table_option</title>
<polygon fill="#81c169" stroke="black" points="1039.4,-1036.06 1039.4,-1074.06 1284.4,-1074.06 1284.4,-1036.06 1039.4,-1036.06"/>
<text text-anchor="middle" x="1161.9" y="-1062.06" font-family="monospace" font-size="10.00">pub fn</text>
<polyline fill="none" stroke="black" points="1039.4,-1055.06 1284.4,-1055.06 "/>
<text text-anchor="middle" x="1161.9" y="-1043.06" font-family="monospace" font-size="10.00">RocksBackendBuilder::with_table_option</text>
</g>
<!-- atomo_rocks::RocksBackendBuilder&#45;&gt;atomo_rocks::RocksBackendBuilder::with_table_option -->
<g id="edge31" class="edge">
<title>atomo_rocks::RocksBackendBuilder&#45;&gt;atomo_rocks::RocksBackendBuilder::with_table_option</title>
<path fill="none" stroke="#000000" d="M1052.25,-688.74C1049.41,-751.7 1101.27,-951.81 1137.93,-1026.63"/>
<polygon fill="#000000" stroke="#000000" points="1135.04,-1028.67 1142.76,-1035.93 1141.25,-1025.44 1135.04,-1028.67"/>
<text text-anchor="middle" x="1082.59" y="-860.69" font-family="monospace" font-size="10.00">owns</text>
</g>
<!-- atomo_rocks::RocksBackendBuilder::Storage&#45;&gt;atomo_rocks::RocksBackend -->
<g id="edge32" class="edge">
<title>atomo_rocks::RocksBackendBuilder::Storage&#45;&gt;atomo_rocks::RocksBackend</title>
<path fill="none" stroke="#7f7f7f" stroke-dasharray="5,2" d="M746.1,-349.01C672.48,-364.29 571.51,-385.26 510.03,-398.02"/>
<polygon fill="#7f7f7f" stroke="#7f7f7f" points="509.22,-394.61 500.14,-400.07 510.64,-401.47 509.22,-394.61"/>
<text text-anchor="middle" x="615.56" y="-376.51" font-family="monospace" font-size="10.00">uses</text>
</g>
<!-- atomo_rocks::RocksBackendBuilder::build&#45;&gt;atomo_rocks::RocksBackend -->
<g id="edge33" class="edge">
<title>atomo_rocks::RocksBackendBuilder::build&#45;&gt;atomo_rocks::RocksBackend</title>
<path fill="none" stroke="#7f7f7f" stroke-dasharray="5,2" d="M698.62,-440.17C638.99,-432.61 561.6,-422.79 510.33,-416.29"/>
<polygon fill="#7f7f7f" stroke="#7f7f7f" points="510.48,-412.78 500.12,-414.99 509.6,-419.72 510.48,-412.78"/>
<text text-anchor="middle" x="591.98" y="-431.23" font-family="monospace" font-size="10.00">uses</text>
</g>
<!-- atomo_rocks::RocksBackendBuilder::build&#45;&gt;atomo_rocks::RocksBackendBuilder -->
<g id="edge34" class="edge">
<title>atomo_rocks::RocksBackendBuilder::build&#45;&gt;atomo_rocks::RocksBackendBuilder</title>
<path fill="none" stroke="#7f7f7f" stroke-dasharray="5,2" d="M789.92,-470.19C816.08,-511.49 922.5,-600.51 993.88,-645.29"/>
<polygon fill="#7f7f7f" stroke="#7f7f7f" points="992.05,-648.27 1002.4,-650.52 995.71,-642.31 992.05,-648.27"/>
<text text-anchor="middle" x="879.4" y="-560.74" font-family="monospace" font-size="10.00">uses</text>
</g>
<!-- atomo_rocks::RocksBackendBuilder::from_checkpoint&#45;&gt;atomo_rocks::RocksBackendBuilder -->
<g id="edge35" class="edge">
<title>atomo_rocks::RocksBackendBuilder::from_checkpoint&#45;&gt;atomo_rocks::RocksBackendBuilder</title>
<path fill="none" stroke="#7f7f7f" stroke-dasharray="5,2" d="M1382.61,-655.56C1317.81,-644.24 1197.75,-641.76 1123.55,-649.48"/>
<polygon fill="#7f7f7f" stroke="#7f7f7f" points="1122.94,-646.03 1113.4,-650.64 1123.73,-652.98 1122.94,-646.03"/>
<text text-anchor="middle" x="1240.58" y="-655.52" font-family="monospace" font-size="10.00">uses</text>
</g>
<!-- atomo_rocks::RocksBackendBuilder::new&#45;&gt;atomo_rocks::RocksBackendBuilder -->
<g id="edge36" class="edge">
<title>atomo_rocks::RocksBackendBuilder::new&#45;&gt;atomo_rocks::RocksBackendBuilder</title>
<path fill="none" stroke="#7f7f7f" stroke-dasharray="5,2" d="M1382.46,-823.69C1345.22,-786.8 1217.83,-717.02 1134.35,-683.98"/>
<polygon fill="#7f7f7f" stroke="#7f7f7f" points="1135.49,-680.67 1124.9,-680.33 1132.97,-687.2 1135.49,-680.67"/>
<text text-anchor="middle" x="1245.9" y="-756.84" font-family="monospace" font-size="10.00">uses</text>
</g>
<!-- atomo_rocks::RocksBackendBuilder::open_table&#45;&gt;atomo_rocks::RocksBackendBuilder -->
<g id="edge37" class="edge">
<title>atomo_rocks::RocksBackendBuilder::open_table&#45;&gt;atomo_rocks::RocksBackendBuilder</title>
<path fill="none" stroke="#7f7f7f" stroke-dasharray="5,2" d="M1306.49,-968.7C1286.18,-912.82 1169,-758.69 1102.56,-695.81"/>
<polygon fill="#7f7f7f" stroke="#7f7f7f" points="1104.84,-693.15 1095.11,-688.96 1100.1,-698.31 1104.84,-693.15"/>
<text text-anchor="middle" x="1192.02" y="-835.26" font-family="monospace" font-size="10.00">uses</text>
</g>
<!-- atomo_rocks::RocksBackendBuilder::read_only&#45;&gt;atomo_rocks::RocksBackendBuilder -->
<g id="edge38" class="edge">
<title>atomo_rocks::RocksBackendBuilder::read_only&#45;&gt;atomo_rocks::RocksBackendBuilder</title>
<path fill="none" stroke="#7f7f7f" stroke-dasharray="5,2" d="M1225.46,-436.41C1172.77,-481.34 1086.85,-588.59 1062.97,-641.19"/>
<polygon fill="#7f7f7f" stroke="#7f7f7f" points="1059.65,-640.06 1059.15,-650.64 1066.14,-642.68 1059.65,-640.06"/>
<text text-anchor="middle" x="1131.71" y="-541.8" font-family="monospace" font-size="10.00">uses</text>
</g>
<!-- atomo_rocks::RocksBackendBuilder::with_options&#45;&gt;atomo_rocks::RocksBackendBuilder -->
<g id="edge39" class="edge">
<title>atomo_rocks::RocksBackendBuilder::with_options&#45;&gt;atomo_rocks::RocksBackendBuilder</title>
<path fill="none" stroke="#7f7f7f" stroke-dasharray="5,2" d="M1328.6,-499.01C1245.13,-534.63 1122.27,-603.85 1076.59,-643.76"/>
<polygon fill="#7f7f7f" stroke="#7f7f7f" points="1074.16,-641.24 1069.22,-650.62 1078.93,-646.37 1074.16,-641.24"/>
<text text-anchor="middle" x="1190.1" y="-574.39" font-family="monospace" font-size="10.00">uses</text>
</g>
<!-- atomo_rocks::RocksBackendBuilder::with_table_option&#45;&gt;atomo_rocks::RocksBackendBuilder -->
<g id="edge40" class="edge">
<title>atomo_rocks::RocksBackendBuilder::with_table_option&#45;&gt;atomo_rocks::RocksBackendBuilder</title>
<path fill="none" stroke="#7f7f7f" stroke-dasharray="5,2" d="M1168.88,-1035.99C1171.72,-973.03 1119.86,-772.92 1083.21,-698.1"/>
<polygon fill="#7f7f7f" stroke="#7f7f7f" points="1086.09,-696.06 1078.37,-688.8 1079.88,-699.29 1086.09,-696.06"/>
<text text-anchor="middle" x="1113.54" y="-870.04" font-family="monospace" font-size="10.00">uses</text>
</g>
</g>
</svg>
