<?xml version="1.0" encoding="UTF-8" standalone="no"?>
<!DOCTYPE svg PUBLIC "-//W3C//DTD SVG 1.1//EN"
 "http://www.w3.org/Graphics/SVG/1.1/DTD/svg11.dtd">
<!-- Generated by graphviz version 4.0.0 (0)
 -->
<!-- Pages: 1 -->
<svg width="1825pt" height="833pt"
 viewBox="0.00 0.00 1824.76 833.12" xmlns="http://www.w3.org/2000/svg" xmlns:xlink="http://www.w3.org/1999/xlink">
<g id="graph0" class="graph" transform="scale(1 1) rotate(0) translate(28.8 804.32)">
<polygon fill="white" stroke="transparent" points="-28.8,28.8 -28.8,-804.32 1795.96,-804.32 1795.96,28.8 -28.8,28.8"/>
<text text-anchor="middle" x="883.58" y="-742.72" font-family="Helvetica,sans-Serif" font-size="36.00">lightning_schema</text>
<!-- lightning_schema -->
<g id="node1" class="node">
<title>lightning_schema</title>
<polygon fill="#5397c8" stroke="black" points="786.68,-577.23 786.68,-615.23 899.68,-615.23 899.68,-577.23 786.68,-577.23"/>
<text text-anchor="middle" x="843.18" y="-603.23" font-family="monospace" font-size="10.00">crate</text>
<polyline fill="none" stroke="black" points="786.68,-596.23 899.68,-596.23 "/>
<text text-anchor="middle" x="843.18" y="-584.23" font-family="monospace" font-size="10.00">lightning_schema</text>
</g>
<!-- lightning_schema::AutoImplSerde -->
<g id="node2" class="node">
<title>lightning_schema::AutoImplSerde</title>
<polygon fill="#81c169" stroke="black" points="225.24,-275.09 225.24,-313.09 320.24,-313.09 320.24,-275.09 225.24,-275.09"/>
<text text-anchor="middle" x="272.74" y="-301.09" font-family="monospace" font-size="10.00">pub trait</text>
<polyline fill="none" stroke="black" points="225.24,-294.09 320.24,-294.09 "/>
<text text-anchor="middle" x="272.74" y="-282.09" font-family="monospace" font-size="10.00">AutoImplSerde</text>
</g>
<!-- lightning_schema&#45;&gt;lightning_schema::AutoImplSerde -->
<g id="edge1" class="edge">
<title>lightning_schema&#45;&gt;lightning_schema::AutoImplSerde</title>
<path fill="none" stroke="#000000" d="M829.41,-577.12C760.55,-518.02 458.35,-355.82 330.17,-306.3"/>
<polygon fill="#000000" stroke="#000000" points="331.11,-302.91 320.51,-302.66 328.64,-309.46 331.11,-302.91"/>
<text text-anchor="middle" x="567.29" y="-444.71" font-family="monospace" font-size="10.00">owns</text>
</g>
<!-- lightning_schema&#45;&gt;lightning_schema::AutoImplSerde -->
<g id="edge2" class="edge">
<title>lightning_schema&#45;&gt;lightning_schema::AutoImplSerde</title>
<path fill="none" stroke="#7f7f7f" stroke-dasharray="5,2" d="M786.57,-584.33C663.42,-536.94 376.97,-383.91 294.79,-319.93"/>
<polygon fill="#7f7f7f" stroke="#7f7f7f" points="296.6,-316.89 286.63,-313.3 292.18,-322.32 296.6,-316.89"/>
<text text-anchor="middle" x="528.18" y="-455.13" font-family="monospace" font-size="10.00">uses</text>
</g>
<!-- lightning_schema::LightningMessage -->
<g id="node3" class="node">
<title>lightning_schema::LightningMessage</title>
<polygon fill="#81c169" stroke="black" points="266.91,-228 266.91,-266 379.91,-266 379.91,-228 266.91,-228"/>
<text text-anchor="middle" x="323.41" y="-254" font-family="monospace" font-size="10.00">pub trait</text>
<polyline fill="none" stroke="black" points="266.91,-247 379.91,-247 "/>
<text text-anchor="middle" x="323.41" y="-235" font-family="monospace" font-size="10.00">LightningMessage</text>
</g>
<!-- lightning_schema&#45;&gt;lightning_schema::LightningMessage -->
<g id="edge3" class="edge">
<title>lightning_schema&#45;&gt;lightning_schema::LightningMessage</title>
<path fill="none" stroke="#000000" d="M832.98,-577.2C776.66,-515.62 513.9,-336.09 389.04,-269.99"/>
<polygon fill="#000000" stroke="#000000" points="390.41,-266.76 379.93,-265.25 387.18,-272.97 390.41,-266.76"/>
<text text-anchor="middle" x="598.51" y="-426.6" font-family="monospace" font-size="10.00">owns</text>
</g>
<!-- lightning_schema&#45;&gt;lightning_schema::LightningMessage -->
<g id="edge4" class="edge">
<title>lightning_schema&#45;&gt;lightning_schema::LightningMessage</title>
<path fill="none" stroke="#7f7f7f" stroke-dasharray="5,2" d="M786.54,-577.91C670.33,-518.38 411.75,-343.01 341.03,-273.66"/>
<polygon fill="#7f7f7f" stroke="#7f7f7f" points="343.19,-270.86 333.71,-266.13 338.17,-275.74 343.19,-270.86"/>
<text text-anchor="middle" x="551.28" y="-428.79" font-family="monospace" font-size="10.00">uses</text>
</g>
<!-- lightning_schema::broadcast::Advr -->
<g id="node4" class="node">
<title>lightning_schema::broadcast::Advr</title>
<polygon fill="#81c169" stroke="black" points="668.98,-605.17 668.98,-643.17 775.98,-643.17 775.98,-605.17 668.98,-605.17"/>
<text text-anchor="middle" x="722.48" y="-631.17" font-family="monospace" font-size="10.00">pub struct</text>
<polyline fill="none" stroke="black" points="668.98,-624.17 775.98,-624.17 "/>
<text text-anchor="middle" x="722.48" y="-612.17" font-family="monospace" font-size="10.00">broadcast::Advr</text>
</g>
<!-- lightning_schema&#45;&gt;lightning_schema::broadcast::Advr -->
<g id="edge5" class="edge">
<title>lightning_schema&#45;&gt;lightning_schema::broadcast::Advr</title>
<path fill="none" stroke="#000000" d="M786.36,-609.38C786.26,-609.41 786.15,-609.43 786.04,-609.46"/>
<polygon fill="#000000" stroke="#000000" points="785.04,-606.1 776.09,-611.76 786.62,-612.92 785.04,-606.1"/>
<text text-anchor="middle" x="773.7" y="-601.42" font-family="monospace" font-size="10.00">owns</text>
</g>
<!-- lightning_schema::broadcast::Frame -->
<g id="node5" class="node">
<title>lightning_schema::broadcast::Frame</title>
<polygon fill="#81c169" stroke="black" points="791.26,-689.02 791.26,-727.02 904.26,-727.02 904.26,-689.02 791.26,-689.02"/>
<text text-anchor="middle" x="847.76" y="-715.02" font-family="monospace" font-size="10.00">pub enum</text>
<polyline fill="none" stroke="black" points="791.26,-708.02 904.26,-708.02 "/>
<text text-anchor="middle" x="847.76" y="-696.02" font-family="monospace" font-size="10.00">broadcast::Frame</text>
</g>
<!-- lightning_schema&#45;&gt;lightning_schema::broadcast::Frame -->
<g id="edge6" class="edge">
<title>lightning_schema&#45;&gt;lightning_schema::broadcast::Frame</title>
<path fill="none" stroke="#000000" d="M843.97,-615.45C844.68,-632.8 845.73,-658.61 846.55,-678.57"/>
<polygon fill="#000000" stroke="#000000" points="843.06,-678.83 846.96,-688.68 850.05,-678.54 843.06,-678.83"/>
<text text-anchor="middle" x="832.76" y="-639.01" font-family="monospace" font-size="10.00">owns</text>
</g>
<!-- lightning_schema::broadcast::Message -->
<g id="node6" class="node">
<title>lightning_schema::broadcast::Message</title>
<polygon fill="#81c169" stroke="black" points="818.45,-638.71 818.45,-676.71 943.45,-676.71 943.45,-638.71 818.45,-638.71"/>
<text text-anchor="middle" x="880.95" y="-664.71" font-family="monospace" font-size="10.00">pub struct</text>
<polyline fill="none" stroke="black" points="818.45,-657.71 943.45,-657.71 "/>
<text text-anchor="middle" x="880.95" y="-645.71" font-family="monospace" font-size="10.00">broadcast::Message</text>
</g>
<!-- lightning_schema&#45;&gt;lightning_schema::broadcast::Message -->
<g id="edge7" class="edge">
<title>lightning_schema&#45;&gt;lightning_schema::broadcast::Message</title>
<path fill="none" stroke="#000000" d="M854.93,-615.34C857.74,-619.93 860.8,-624.91 863.81,-629.8"/>
<polygon fill="#000000" stroke="#000000" points="860.87,-631.7 869.09,-638.39 866.83,-628.04 860.87,-631.7"/>
<text text-anchor="middle" x="846.87" y="-625.57" font-family="monospace" font-size="10.00">owns</text>
</g>
<!-- lightning_schema::broadcast::MessageInternedId -->
<g id="node8" class="node">
<title>lightning_schema::broadcast::MessageInternedId</title>
<polygon fill="#81c169" stroke="black" points="283.26,-180.3 283.26,-218.3 468.26,-218.3 468.26,-180.3 283.26,-180.3"/>
<text text-anchor="middle" x="375.76" y="-206.3" font-family="monospace" font-size="10.00">pub type</text>
<polyline fill="none" stroke="black" points="283.26,-199.3 468.26,-199.3 "/>
<text text-anchor="middle" x="375.76" y="-187.3" font-family="monospace" font-size="10.00">broadcast::MessageInternedId</text>
</g>
<!-- lightning_schema&#45;&gt;lightning_schema::broadcast::MessageInternedId -->
<g id="edge8" class="edge">
<title>lightning_schema&#45;&gt;lightning_schema::broadcast::MessageInternedId</title>
<path fill="none" stroke="#000000" d="M820.64,-577.08C743.98,-511.99 493.3,-299.11 406.04,-225.01"/>
<polygon fill="#000000" stroke="#000000" points="408.24,-222.29 398.36,-218.48 403.71,-227.63 408.24,-222.29"/>
<text text-anchor="middle" x="600.84" y="-404.05" font-family="monospace" font-size="10.00">owns</text>
</g>
<!-- lightning_schema::broadcast::ResolvedImmutablePointerRecord -->
<g id="node9" class="node">
<title>lightning_schema::broadcast::ResolvedImmutablePointerRecord</title>
<polygon fill="#81c169" stroke="black" points="490.25,-134.2 490.25,-172.2 753.25,-172.2 753.25,-134.2 490.25,-134.2"/>
<text text-anchor="middle" x="621.75" y="-160.2" font-family="monospace" font-size="10.00">pub struct</text>
<polyline fill="none" stroke="black" points="490.25,-153.2 753.25,-153.2 "/>
<text text-anchor="middle" x="621.75" y="-141.2" font-family="monospace" font-size="10.00">broadcast::ResolvedImmutablePointerRecord</text>
</g>
<!-- lightning_schema&#45;&gt;lightning_schema::broadcast::ResolvedImmutablePointerRecord -->
<g id="edge9" class="edge">
<title>lightning_schema&#45;&gt;lightning_schema::broadcast::ResolvedImmutablePointerRecord</title>
<path fill="none" stroke="#000000" d="M833.67,-577.19C798.79,-507.41 677.81,-265.37 636.05,-181.83"/>
<polygon fill="#000000" stroke="#000000" points="639.08,-180.05 631.47,-172.67 632.81,-183.18 639.08,-180.05"/>
<text text-anchor="middle" x="722.36" y="-382.51" font-family="monospace" font-size="10.00">owns</text>
</g>
<!-- lightning_schema::broadcast::Want -->
<g id="node11" class="node">
<title>lightning_schema::broadcast::Want</title>
<polygon fill="#81c169" stroke="black" points="676.21,-652.2 676.21,-690.2 783.21,-690.2 783.21,-652.2 676.21,-652.2"/>
<text text-anchor="middle" x="729.71" y="-678.2" font-family="monospace" font-size="10.00">pub struct</text>
<polyline fill="none" stroke="black" points="676.21,-671.2 783.21,-671.2 "/>
<text text-anchor="middle" x="729.71" y="-659.2" font-family="monospace" font-size="10.00">broadcast::Want</text>
</g>
<!-- lightning_schema&#45;&gt;lightning_schema::broadcast::Want -->
<g id="edge10" class="edge">
<title>lightning_schema&#45;&gt;lightning_schema::broadcast::Want</title>
<path fill="none" stroke="#000000" d="M814.26,-615.34C799.98,-624.77 782.6,-636.26 767.31,-646.36"/>
<polygon fill="#000000" stroke="#000000" points="765,-643.69 758.59,-652.12 768.86,-649.53 765,-643.69"/>
<text text-anchor="middle" x="803.28" y="-633.85" font-family="monospace" font-size="10.00">owns</text>
</g>
<!-- lightning_schema::envelope::Envelope -->
<g id="node12" class="node">
<title>lightning_schema::envelope::Envelope</title>
<polygon fill="#81c169" stroke="black" points="538.64,-87.14 538.64,-125.14 663.64,-125.14 663.64,-87.14 538.64,-87.14"/>
<text text-anchor="middle" x="601.14" y="-113.14" font-family="monospace" font-size="10.00">pub struct</text>
<polyline fill="none" stroke="black" points="538.64,-106.14 663.64,-106.14 "/>
<text text-anchor="middle" x="601.14" y="-94.14" font-family="monospace" font-size="10.00">envelope::Envelope</text>
</g>
<!-- lightning_schema&#45;&gt;lightning_schema::envelope::Envelope -->
<g id="edge11" class="edge">
<title>lightning_schema&#45;&gt;lightning_schema::envelope::Envelope</title>
<path fill="none" stroke="#000000" d="M833.69,-577.02C796.33,-501.37 659.28,-223.86 615.02,-134.24"/>
<polygon fill="#000000" stroke="#000000" points="618.13,-132.63 610.56,-125.22 611.85,-135.73 618.13,-132.63"/>
<text text-anchor="middle" x="711.86" y="-358.63" font-family="monospace" font-size="10.00">owns</text>
</g>
<!-- lightning_schema::handshake::ChallengeFrame -->
<g id="node14" class="node">
<title>lightning_schema::handshake::ChallengeFrame</title>
<polygon fill="#81c169" stroke="black" points="550.67,-20.89 550.67,-58.89 717.67,-58.89 717.67,-20.89 550.67,-20.89"/>
<text text-anchor="middle" x="634.17" y="-46.89" font-family="monospace" font-size="10.00">pub struct</text>
<polyline fill="none" stroke="black" points="550.67,-39.89 717.67,-39.89 "/>
<text text-anchor="middle" x="634.17" y="-27.89" font-family="monospace" font-size="10.00">handshake::ChallengeFrame</text>
</g>
<!-- lightning_schema&#45;&gt;lightning_schema::handshake::ChallengeFrame -->
<g id="edge12" class="edge">
<title>lightning_schema&#45;&gt;lightning_schema::handshake::ChallengeFrame</title>
<path fill="none" stroke="#000000" d="M835.99,-577.08C804.93,-494.41 682.23,-167.82 644.96,-68.62"/>
<polygon fill="#000000" stroke="#000000" points="648.13,-67.09 641.33,-58.96 641.57,-69.56 648.13,-67.09"/>
<text text-anchor="middle" x="727.97" y="-325.85" font-family="monospace" font-size="10.00">owns</text>
</g>
<!-- lightning_schema::handshake::HandshakeRequestFrame -->
<g id="node17" class="node">
<title>lightning_schema::handshake::HandshakeRequestFrame</title>
<polygon fill="#81c169" stroke="black" points="1089.6,-72.4 1089.6,-110.4 1298.6,-110.4 1298.6,-72.4 1089.6,-72.4"/>
<text text-anchor="middle" x="1194.1" y="-98.4" font-family="monospace" font-size="10.00">pub enum</text>
<polyline fill="none" stroke="black" points="1089.6,-91.4 1298.6,-91.4 "/>
<text text-anchor="middle" x="1194.1" y="-79.4" font-family="monospace" font-size="10.00">handshake::HandshakeRequestFrame</text>
</g>
<!-- lightning_schema&#45;&gt;lightning_schema::handshake::HandshakeRequestFrame -->
<g id="edge13" class="edge">
<title>lightning_schema&#45;&gt;lightning_schema::handshake::HandshakeRequestFrame</title>
<path fill="none" stroke="#000000" d="M856.51,-577.06C910.3,-499.67 1111.58,-210.11 1174.9,-119.01"/>
<polygon fill="#000000" stroke="#000000" points="1177.92,-120.8 1180.76,-110.59 1172.17,-116.8 1177.92,-120.8"/>
<text text-anchor="middle" x="1003.2" y="-351.04" font-family="monospace" font-size="10.00">owns</text>
</g>
<!-- lightning_schema::handshake::HandshakeResponse -->
<g id="node20" class="node">
<title>lightning_schema::handshake::HandshakeResponse</title>
<polygon fill="#81c169" stroke="black" points="1187.89,-213.82 1187.89,-251.82 1372.89,-251.82 1372.89,-213.82 1187.89,-213.82"/>
<text text-anchor="middle" x="1280.39" y="-239.82" font-family="monospace" font-size="10.00">pub struct</text>
<polyline fill="none" stroke="black" points="1187.89,-232.82 1372.89,-232.82 "/>
<text text-anchor="middle" x="1280.39" y="-220.82" font-family="monospace" font-size="10.00">handshake::HandshakeResponse</text>
</g>
<!-- lightning_schema&#45;&gt;lightning_schema::handshake::HandshakeResponse -->
<g id="edge14" class="edge">
<title>lightning_schema&#45;&gt;lightning_schema::handshake::HandshakeResponse</title>
<path fill="none" stroke="#000000" d="M866.07,-577.2C939.1,-516.5 1166.62,-327.38 1249.66,-258.36"/>
<polygon fill="#000000" stroke="#000000" points="1252.01,-260.96 1257.46,-251.88 1247.53,-255.58 1252.01,-260.96"/>
<text text-anchor="middle" x="1045.37" y="-420.78" font-family="monospace" font-size="10.00">owns</text>
</g>
<!-- lightning_schema::handshake::RequestFrame -->
<g id="node23" class="node">
<title>lightning_schema::handshake::RequestFrame</title>
<polygon fill="#81c169" stroke="black" points="1259.52,-354.89 1259.52,-392.89 1414.52,-392.89 1414.52,-354.89 1259.52,-354.89"/>
<text text-anchor="middle" x="1337.02" y="-380.89" font-family="monospace" font-size="10.00">pub enum</text>
<polyline fill="none" stroke="black" points="1259.52,-373.89 1414.52,-373.89 "/>
<text text-anchor="middle" x="1337.02" y="-361.89" font-family="monospace" font-size="10.00">handshake::RequestFrame</text>
</g>
<!-- lightning_schema&#45;&gt;lightning_schema::handshake::RequestFrame -->
<g id="edge15" class="edge">
<title>lightning_schema&#45;&gt;lightning_schema::handshake::RequestFrame</title>
<path fill="none" stroke="#000000" d="M885.71,-577.08C976.17,-536.35 1187.35,-441.27 1285.36,-397.15"/>
<polygon fill="#000000" stroke="#000000" points="1287.08,-400.21 1294.76,-392.91 1284.21,-393.83 1287.08,-400.21"/>
<text text-anchor="middle" x="1073.04" y="-490.11" font-family="monospace" font-size="10.00">owns</text>
</g>
<!-- lightning_schema::handshake::ResponseFrame -->
<g id="node26" class="node">
<title>lightning_schema::handshake::ResponseFrame</title>
<polygon fill="#81c169" stroke="black" points="1165.91,-495.91 1165.91,-533.91 1326.91,-533.91 1326.91,-495.91 1165.91,-495.91"/>
<text text-anchor="middle" x="1246.41" y="-521.91" font-family="monospace" font-size="10.00">pub enum</text>
<polyline fill="none" stroke="black" points="1165.91,-514.91 1326.91,-514.91 "/>
<text text-anchor="middle" x="1246.41" y="-502.91" font-family="monospace" font-size="10.00">handshake::ResponseFrame</text>
</g>
<!-- lightning_schema&#45;&gt;lightning_schema::handshake::ResponseFrame -->
<g id="edge16" class="edge">
<title>lightning_schema&#45;&gt;lightning_schema::handshake::ResponseFrame</title>
<path fill="none" stroke="#000000" d="M900.1,-584.75C966.61,-571.34 1077.54,-548.97 1155.9,-533.16"/>
<polygon fill="#000000" stroke="#000000" points="1156.66,-536.58 1165.77,-531.17 1155.28,-529.72 1156.66,-536.58"/>
<text text-anchor="middle" x="1015.5" y="-561.96" font-family="monospace" font-size="10.00">owns</text>
</g>
<!-- lightning_schema::handshake::TerminationReason -->
<g id="node29" class="node">
<title>lightning_schema::handshake::TerminationReason</title>
<polygon fill="#81c169" stroke="black" points="1335,-495.92 1335,-533.92 1520,-533.92 1520,-495.92 1335,-495.92"/>
<text text-anchor="middle" x="1427.5" y="-521.92" font-family="monospace" font-size="10.00">pub enum</text>
<polyline fill="none" stroke="black" points="1335,-514.92 1520,-514.92 "/>
<text text-anchor="middle" x="1427.5" y="-502.92" font-family="monospace" font-size="10.00">handshake::TerminationReason</text>
</g>
<!-- lightning_schema&#45;&gt;lightning_schema::handshake::TerminationReason -->
<g id="edge17" class="edge">
<title>lightning_schema&#45;&gt;lightning_schema::handshake::TerminationReason</title>
<path fill="none" stroke="#000000" d="M899.74,-588.36C997.87,-574.7 1201,-546.44 1324.66,-529.23"/>
<polygon fill="#000000" stroke="#000000" points="1325.47,-532.65 1334.89,-527.8 1324.51,-525.72 1325.47,-532.65"/>
<text text-anchor="middle" x="1099.7" y="-561.79" font-family="monospace" font-size="10.00">owns</text>
</g>
<!-- lightning_schema::broadcast::Frame&#45;&gt;lightning_schema::broadcast::Advr -->
<g id="edge18" class="edge">
<title>lightning_schema::broadcast::Frame&#45;&gt;lightning_schema::broadcast::Advr</title>
<path fill="none" stroke="#7f7f7f" stroke-dasharray="5,2" d="M819.33,-688.99C801.67,-677.18 778.79,-661.86 759.7,-649.08"/>
<polygon fill="#7f7f7f" stroke="#7f7f7f" points="761.48,-646.07 751.22,-643.41 757.59,-651.88 761.48,-646.07"/>
<text text-anchor="middle" x="802.01" y="-672.04" font-family="monospace" font-size="10.00">uses</text>
</g>
<!-- lightning_schema::broadcast::Frame&#45;&gt;lightning_schema::broadcast::Message -->
<g id="edge19" class="edge">
<title>lightning_schema::broadcast::Frame&#45;&gt;lightning_schema::broadcast::Message</title>
<path fill="none" stroke="#7f7f7f" stroke-dasharray="5,2" d="M860.31,-689C861.13,-687.75 861.97,-686.47 862.82,-685.19"/>
<polygon fill="#7f7f7f" stroke="#7f7f7f" points="865.8,-687.03 868.39,-676.76 859.96,-683.17 865.8,-687.03"/>
<text text-anchor="middle" x="849.06" y="-679.09" font-family="monospace" font-size="10.00">uses</text>
</g>
<!-- lightning_schema::broadcast::Frame&#45;&gt;lightning_schema::broadcast::Want -->
<g id="edge20" class="edge">
<title>lightning_schema::broadcast::Frame&#45;&gt;lightning_schema::broadcast::Want</title>
<path fill="none" stroke="#7f7f7f" stroke-dasharray="5,2" d="M791.16,-690.36C790.99,-690.31 790.83,-690.26 790.67,-690.21"/>
<polygon fill="#7f7f7f" stroke="#7f7f7f" points="793.93,-687.56 783.35,-687.93 791.85,-694.25 793.93,-687.56"/>
<text text-anchor="middle" x="778.41" y="-693.29" font-family="monospace" font-size="10.00">uses</text>
</g>
<!-- lightning_schema::broadcast::Message::transcript -->
<g id="node7" class="node">
<title>lightning_schema::broadcast::Message::transcript</title>
<polygon fill="#db5367" stroke="black" points="1098.58,-640.69 1098.58,-678.69 1295.58,-678.69 1295.58,-640.69 1098.58,-640.69"/>
<text text-anchor="middle" x="1197.08" y="-666.69" font-family="monospace" font-size="10.00">pub(self) fn</text>
<polyline fill="none" stroke="black" points="1098.58,-659.69 1295.58,-659.69 "/>
<text text-anchor="middle" x="1197.08" y="-647.69" font-family="monospace" font-size="10.00">broadcast::Message::transcript</text>
</g>
<!-- lightning_schema::broadcast::Message&#45;&gt;lightning_schema::broadcast::Message::transcript -->
<g id="edge21" class="edge">
<title>lightning_schema::broadcast::Message&#45;&gt;lightning_schema::broadcast::Message::transcript</title>
<path fill="none" stroke="#000000" d="M921.2,-676.71C977.66,-687.31 1080.51,-688.66 1143.43,-680.2"/>
<polygon fill="#000000" stroke="#000000" points="1144.18,-683.63 1153.55,-678.7 1143.15,-676.71 1144.18,-683.63"/>
<text text-anchor="middle" x="1019.81" y="-681.46" font-family="monospace" font-size="10.00">owns</text>
</g>
<!-- lightning_schema::broadcast::Message::transcript&#45;&gt;lightning_schema::broadcast::Message -->
<g id="edge22" class="edge">
<title>lightning_schema::broadcast::Message::transcript&#45;&gt;lightning_schema::broadcast::Message</title>
<path fill="none" stroke="#7f7f7f" stroke-dasharray="5,2" d="M1156.84,-640.68C1100.38,-630.08 997.52,-628.74 934.6,-637.19"/>
<polygon fill="#7f7f7f" stroke="#7f7f7f" points="933.86,-633.76 924.48,-638.69 934.89,-640.69 933.86,-633.76"/>
<text text-anchor="middle" x="1033.22" y="-641.94" font-family="monospace" font-size="10.00">uses</text>
</g>
<!-- lightning_schema::broadcast::ResolvedImmutablePointerRecord::transcript -->
<g id="node10" class="node">
<title>lightning_schema::broadcast::ResolvedImmutablePointerRecord::transcript</title>
<polygon fill="#db5367" stroke="black" points="0,-84.49 0,-122.49 335,-122.49 335,-84.49 0,-84.49"/>
<text text-anchor="middle" x="167.5" y="-110.49" font-family="monospace" font-size="10.00">pub(self) fn</text>
<polyline fill="none" stroke="black" points="0,-103.49 335,-103.49 "/>
<text text-anchor="middle" x="167.5" y="-91.49" font-family="monospace" font-size="10.00">broadcast::ResolvedImmutablePointerRecord::transcript</text>
</g>
<!-- lightning_schema::broadcast::ResolvedImmutablePointerRecord&#45;&gt;lightning_schema::broadcast::ResolvedImmutablePointerRecord::transcript -->
<g id="edge23" class="edge">
<title>lightning_schema::broadcast::ResolvedImmutablePointerRecord&#45;&gt;lightning_schema::broadcast::ResolvedImmutablePointerRecord::transcript</title>
<path fill="none" stroke="#000000" d="M588.14,-134.13C536.9,-118.84 435.68,-104.06 345.37,-96.44"/>
<polygon fill="#000000" stroke="#000000" points="345.52,-92.94 335.26,-95.62 344.95,-99.92 345.52,-92.94"/>
<text text-anchor="middle" x="454.26" y="-118.29" font-family="monospace" font-size="10.00">owns</text>
</g>
<!-- lightning_schema::broadcast::ResolvedImmutablePointerRecord::transcript&#45;&gt;lightning_schema::broadcast::ResolvedImmutablePointerRecord -->
<g id="edge24" class="edge">
<title>lightning_schema::broadcast::ResolvedImmutablePointerRecord::transcript&#45;&gt;lightning_schema::broadcast::ResolvedImmutablePointerRecord</title>
<path fill="none" stroke="#7f7f7f" stroke-dasharray="5,2" d="M201.1,-122.56C259.36,-139.95 382.23,-156.68 480.21,-162.96"/>
<polygon fill="#7f7f7f" stroke="#7f7f7f" points="480.02,-166.46 490.22,-163.57 480.45,-159.47 480.02,-166.46"/>
<text text-anchor="middle" x="328.16" y="-145.76" font-family="monospace" font-size="10.00">uses</text>
</g>
<!-- lightning_schema::envelope::Envelope::new -->
<g id="node13" class="node">
<title>lightning_schema::envelope::Envelope::new</title>
<polygon fill="#81c169" stroke="black" points="121.08,-26.82 121.08,-64.82 276.08,-64.82 276.08,-26.82 121.08,-26.82"/>
<text text-anchor="middle" x="198.58" y="-52.82" font-family="monospace" font-size="10.00">pub fn</text>
<polyline fill="none" stroke="black" points="121.08,-45.82 276.08,-45.82 "/>
<text text-anchor="middle" x="198.58" y="-33.82" font-family="monospace" font-size="10.00">envelope::Envelope::new</text>
</g>
<!-- lightning_schema::envelope::Envelope&#45;&gt;lightning_schema::envelope::Envelope::new -->
<g id="edge25" class="edge">
<title>lightning_schema::envelope::Envelope&#45;&gt;lightning_schema::envelope::Envelope::new</title>
<path fill="none" stroke="#000000" d="M574.07,-87.03C516.1,-65.18 377.95,-41.92 286.35,-36.26"/>
<polygon fill="#000000" stroke="#000000" points="286.43,-32.76 276.25,-35.7 286.04,-39.75 286.43,-32.76"/>
<text text-anchor="middle" x="417.71" y="-64.65" font-family="monospace" font-size="10.00">owns</text>
</g>
<!-- lightning_schema::envelope::Envelope::new&#45;&gt;lightning_schema::envelope::Envelope -->
<g id="edge26" class="edge">
<title>lightning_schema::envelope::Envelope::new&#45;&gt;lightning_schema::envelope::Envelope</title>
<path fill="none" stroke="#7f7f7f" stroke-dasharray="5,2" d="M225.65,-64.93C286.85,-88 437.41,-112.63 528.22,-116.48"/>
<polygon fill="#7f7f7f" stroke="#7f7f7f" points="528.33,-119.98 538.44,-116.83 528.57,-112.99 528.33,-119.98"/>
<text text-anchor="middle" x="364.43" y="-93.7" font-family="monospace" font-size="10.00">uses</text>
</g>
<!-- lightning_schema::handshake::ChallengeFrame::decode -->
<g id="node15" class="node">
<title>lightning_schema::handshake::ChallengeFrame::decode</title>
<polygon fill="#81c169" stroke="black" points="327.55,-37.46 327.55,-75.46 542.55,-75.46 542.55,-37.46 327.55,-37.46"/>
<text text-anchor="middle" x="435.05" y="-63.46" font-family="monospace" font-size="10.00">pub fn</text>
<polyline fill="none" stroke="black" points="327.55,-56.46 542.55,-56.46 "/>
<text text-anchor="middle" x="435.05" y="-44.46" font-family="monospace" font-size="10.00">handshake::ChallengeFrame::decode</text>
</g>
<!-- lightning_schema::handshake::ChallengeFrame&#45;&gt;lightning_schema::handshake::ChallengeFrame::decode -->
<g id="edge27" class="edge">
<title>lightning_schema::handshake::ChallengeFrame&#45;&gt;lightning_schema::handshake::ChallengeFrame::decode</title>
<path fill="none" stroke="#000000" d="M589.08,-20.85C550.71,-17.54 496.75,-22.9 463.93,-33.88"/>
<polygon fill="#000000" stroke="#000000" points="462.58,-30.65 454.46,-37.46 465.05,-37.19 462.58,-30.65"/>
<text text-anchor="middle" x="514" y="-19.36" font-family="monospace" font-size="10.00">owns</text>
</g>
<!-- lightning_schema::handshake::ChallengeFrame::encode -->
<g id="node16" class="node">
<title>lightning_schema::handshake::ChallengeFrame::encode</title>
<polygon fill="#81c169" stroke="black" points="725.72,-3.61 725.72,-41.61 940.72,-41.61 940.72,-3.61 725.72,-3.61"/>
<text text-anchor="middle" x="833.22" y="-29.61" font-family="monospace" font-size="10.00">pub fn</text>
<polyline fill="none" stroke="black" points="725.72,-22.61 940.72,-22.61 "/>
<text text-anchor="middle" x="833.22" y="-10.61" font-family="monospace" font-size="10.00">handshake::ChallengeFrame::encode</text>
</g>
<!-- lightning_schema::handshake::ChallengeFrame&#45;&gt;lightning_schema::handshake::ChallengeFrame::encode -->
<g id="edge28" class="edge">
<title>lightning_schema::handshake::ChallengeFrame&#45;&gt;lightning_schema::handshake::ChallengeFrame::encode</title>
<path fill="none" stroke="#000000" d="M681.08,-58.91C719.27,-61.77 771.96,-56.24 804.26,-45.35"/>
<polygon fill="#000000" stroke="#000000" points="805.9,-48.47 813.99,-41.63 803.4,-41.93 805.9,-48.47"/>
<text text-anchor="middle" x="730.17" y="-55.13" font-family="monospace" font-size="10.00">owns</text>
</g>
<!-- lightning_schema::handshake::ChallengeFrame::decode&#45;&gt;lightning_schema::handshake::ChallengeFrame -->
<g id="edge29" class="edge">
<title>lightning_schema::handshake::ChallengeFrame::decode&#45;&gt;lightning_schema::handshake::ChallengeFrame</title>
<path fill="none" stroke="#7f7f7f" stroke-dasharray="5,2" d="M542.67,-74.56C565.67,-72.32 588.09,-68.19 604.98,-62.58"/>
<polygon fill="#7f7f7f" stroke="#7f7f7f" points="606.62,-65.71 614.74,-58.9 604.15,-59.16 606.62,-65.71"/>
<text text-anchor="middle" x="561.33" y="-71.57" font-family="monospace" font-size="10.00">uses</text>
</g>
<!-- lightning_schema::handshake::ChallengeFrame::encode&#45;&gt;lightning_schema::handshake::ChallengeFrame -->
<g id="edge30" class="edge">
<title>lightning_schema::handshake::ChallengeFrame::encode&#45;&gt;lightning_schema::handshake::ChallengeFrame</title>
<path fill="none" stroke="#7f7f7f" stroke-dasharray="5,2" d="M725.53,-4.9C702.55,-7.22 680.15,-11.43 663.27,-17.1"/>
<polygon fill="#7f7f7f" stroke="#7f7f7f" points="661.63,-13.98 653.53,-20.81 664.12,-20.52 661.63,-13.98"/>
<text text-anchor="middle" x="681.9" y="-3" font-family="monospace" font-size="10.00">uses</text>
</g>
<!-- lightning_schema::handshake::HandshakeRequestFrame::decode -->
<g id="node18" class="node">
<title>lightning_schema::handshake::HandshakeRequestFrame::decode</title>
<polygon fill="#81c169" stroke="black" points="948.82,-24.96 948.82,-62.96 1205.82,-62.96 1205.82,-24.96 948.82,-24.96"/>
<text text-anchor="middle" x="1077.32" y="-50.96" font-family="monospace" font-size="10.00">pub fn</text>
<polyline fill="none" stroke="black" points="948.82,-43.96 1205.82,-43.96 "/>
<text text-anchor="middle" x="1077.32" y="-31.96" font-family="monospace" font-size="10.00">handshake::HandshakeRequestFrame::decode</text>
</g>
<!-- lightning_schema::handshake::HandshakeRequestFrame&#45;&gt;lightning_schema::handshake::HandshakeRequestFrame::decode -->
<g id="edge31" class="edge">
<title>lightning_schema::handshake::HandshakeRequestFrame&#45;&gt;lightning_schema::handshake::HandshakeRequestFrame::decode</title>
<path fill="none" stroke="#000000" d="M1189.83,-72.19C1189.4,-71.62 1188.95,-71.05 1188.48,-70.48"/>
<polygon fill="#000000" stroke="#000000" points="1190.75,-67.8 1181.2,-63.2 1185.8,-72.75 1190.75,-67.8"/>
<text text-anchor="middle" x="1201.65" y="-63.34" font-family="monospace" font-size="10.00">owns</text>
</g>
<!-- lightning_schema::handshake::HandshakeRequestFrame::encode -->
<g id="node19" class="node">
<title>lightning_schema::handshake::HandshakeRequestFrame::encode</title>
<polygon fill="#81c169" stroke="black" points="1165.63,-119.74 1165.63,-157.74 1422.63,-157.74 1422.63,-119.74 1165.63,-119.74"/>
<text text-anchor="middle" x="1294.13" y="-145.74" font-family="monospace" font-size="10.00">pub fn</text>
<polyline fill="none" stroke="black" points="1165.63,-138.74 1422.63,-138.74 "/>
<text text-anchor="middle" x="1294.13" y="-126.74" font-family="monospace" font-size="10.00">handshake::HandshakeRequestFrame::encode</text>
</g>
<!-- lightning_schema::handshake::HandshakeRequestFrame&#45;&gt;lightning_schema::handshake::HandshakeRequestFrame::encode -->
<g id="edge32" class="edge">
<title>lightning_schema::handshake::HandshakeRequestFrame&#45;&gt;lightning_schema::handshake::HandshakeRequestFrame::encode</title>
<path fill="none" stroke="#000000" d="M1196.29,-110.64C1196.46,-110.92 1196.63,-111.2 1196.81,-111.47"/>
<polygon fill="#000000" stroke="#000000" points="1194.24,-113.86 1203.24,-119.45 1199.69,-109.47 1194.24,-113.86"/>
<text text-anchor="middle" x="1184.05" y="-114.06" font-family="monospace" font-size="10.00">owns</text>
</g>
<!-- lightning_schema::handshake::HandshakeRequestFrame::decode&#45;&gt;lightning_schema::handshake::HandshakeRequestFrame -->
<g id="edge33" class="edge">
<title>lightning_schema::handshake::HandshakeRequestFrame::decode&#45;&gt;lightning_schema::handshake::HandshakeRequestFrame</title>
<path fill="none" stroke="#7f7f7f" stroke-dasharray="5,2" d="M1081.59,-63.17C1082.02,-63.74 1082.47,-64.31 1082.94,-64.88"/>
<polygon fill="#7f7f7f" stroke="#7f7f7f" points="1080.67,-67.56 1090.22,-72.16 1085.62,-62.61 1080.67,-67.56"/>
<text text-anchor="middle" x="1069.77" y="-67.02" font-family="monospace" font-size="10.00">uses</text>
</g>
<!-- lightning_schema::handshake::HandshakeRequestFrame::encode&#45;&gt;lightning_schema::handshake::HandshakeRequestFrame -->
<g id="edge34" class="edge">
<title>lightning_schema::handshake::HandshakeRequestFrame::encode&#45;&gt;lightning_schema::handshake::HandshakeRequestFrame</title>
<path fill="none" stroke="#7f7f7f" stroke-dasharray="5,2" d="M1291.94,-119.5C1291.77,-119.22 1291.6,-118.94 1291.42,-118.66"/>
<polygon fill="#7f7f7f" stroke="#7f7f7f" points="1293.99,-116.27 1284.99,-110.68 1288.54,-120.67 1293.99,-116.27"/>
<text text-anchor="middle" x="1304.18" y="-111.08" font-family="monospace" font-size="10.00">uses</text>
</g>
<!-- lightning_schema::handshake::HandshakeResponse::decode -->
<g id="node21" class="node">
<title>lightning_schema::handshake::HandshakeResponse::decode</title>
<polygon fill="#81c169" stroke="black" points="1147.64,-166.76 1147.64,-204.76 1380.64,-204.76 1380.64,-166.76 1147.64,-166.76"/>
<text text-anchor="middle" x="1264.14" y="-192.76" font-family="monospace" font-size="10.00">pub fn</text>
<polyline fill="none" stroke="black" points="1147.64,-185.76 1380.64,-185.76 "/>
<text text-anchor="middle" x="1264.14" y="-173.76" font-family="monospace" font-size="10.00">handshake::HandshakeResponse::decode</text>
</g>
<!-- lightning_schema::handshake::HandshakeResponse&#45;&gt;lightning_schema::handshake::HandshakeResponse::decode -->
<g id="edge35" class="edge">
<title>lightning_schema::handshake::HandshakeResponse&#45;&gt;lightning_schema::handshake::HandshakeResponse::decode</title>
<path fill="none" stroke="#000000" d="M1298.68,-213.75C1298.7,-213.66 1298.72,-213.57 1298.73,-213.48"/>
<polygon fill="#000000" stroke="#000000" points="1302.2,-215.1 1298.91,-205.03 1295.2,-214.96 1302.2,-215.1"/>
<text text-anchor="middle" x="1286.21" y="-205.62" font-family="monospace" font-size="10.00">owns</text>
</g>
<!-- lightning_schema::handshake::HandshakeResponse::encode -->
<g id="node22" class="node">
<title>lightning_schema::handshake::HandshakeResponse::encode</title>
<polygon fill="#81c169" stroke="black" points="1196.17,-260.86 1196.17,-298.86 1429.17,-298.86 1429.17,-260.86 1196.17,-260.86"/>
<text text-anchor="middle" x="1312.67" y="-286.86" font-family="monospace" font-size="10.00">pub fn</text>
<polyline fill="none" stroke="black" points="1196.17,-279.86 1429.17,-279.86 "/>
<text text-anchor="middle" x="1312.67" y="-267.86" font-family="monospace" font-size="10.00">handshake::HandshakeResponse::encode</text>
</g>
<!-- lightning_schema::handshake::HandshakeResponse&#45;&gt;lightning_schema::handshake::HandshakeResponse::encode -->
<g id="edge36" class="edge">
<title>lightning_schema::handshake::HandshakeResponse&#45;&gt;lightning_schema::handshake::HandshakeResponse::encode</title>
<path fill="none" stroke="#000000" d="M1268.71,-251.95C1268.7,-252.04 1268.69,-252.13 1268.68,-252.23"/>
<polygon fill="#000000" stroke="#000000" points="1265.07,-251.02 1269.39,-260.7 1272.05,-250.44 1265.07,-251.02"/>
<text text-anchor="middle" x="1256.19" y="-255.09" font-family="monospace" font-size="10.00">owns</text>
</g>
<!-- lightning_schema::handshake::HandshakeResponse::decode&#45;&gt;lightning_schema::handshake::HandshakeResponse -->
<g id="edge37" class="edge">
<title>lightning_schema::handshake::HandshakeResponse::decode&#45;&gt;lightning_schema::handshake::HandshakeResponse</title>
<path fill="none" stroke="#7f7f7f" stroke-dasharray="5,2" d="M1245.85,-204.83C1245.83,-204.92 1245.81,-205.01 1245.79,-205.1"/>
<polygon fill="#7f7f7f" stroke="#7f7f7f" points="1242.32,-203.48 1245.62,-213.55 1249.32,-203.62 1242.32,-203.48"/>
<text text-anchor="middle" x="1233.32" y="-207.97" font-family="monospace" font-size="10.00">uses</text>
</g>
<!-- lightning_schema::handshake::HandshakeResponse::encode&#45;&gt;lightning_schema::handshake::HandshakeResponse -->
<g id="edge38" class="edge">
<title>lightning_schema::handshake::HandshakeResponse::encode&#45;&gt;lightning_schema::handshake::HandshakeResponse</title>
<path fill="none" stroke="#7f7f7f" stroke-dasharray="5,2" d="M1324.35,-260.72C1324.36,-260.63 1324.36,-260.54 1324.37,-260.45"/>
<polygon fill="#7f7f7f" stroke="#7f7f7f" points="1327.98,-261.65 1323.67,-251.97 1321.01,-262.23 1327.98,-261.65"/>
<text text-anchor="middle" x="1311.86" y="-252.59" font-family="monospace" font-size="10.00">uses</text>
</g>
<!-- lightning_schema::handshake::RequestFrame::decode -->
<g id="node24" class="node">
<title>lightning_schema::handshake::RequestFrame::decode</title>
<polygon fill="#81c169" stroke="black" points="1253.85,-307.87 1253.85,-345.87 1456.85,-345.87 1456.85,-307.87 1253.85,-307.87"/>
<text text-anchor="middle" x="1355.35" y="-333.87" font-family="monospace" font-size="10.00">pub fn</text>
<polyline fill="none" stroke="black" points="1253.85,-326.87 1456.85,-326.87 "/>
<text text-anchor="middle" x="1355.35" y="-314.87" font-family="monospace" font-size="10.00">handshake::RequestFrame::decode</text>
</g>
<!-- lightning_schema::handshake::RequestFrame&#45;&gt;lightning_schema::handshake::RequestFrame::decode -->
<g id="edge39" class="edge">
<title>lightning_schema::handshake::RequestFrame&#45;&gt;lightning_schema::handshake::RequestFrame::decode</title>
<path fill="none" stroke="#000000" d="M1372.81,-354.78C1372.82,-354.69 1372.84,-354.6 1372.85,-354.51"/>
<polygon fill="#000000" stroke="#000000" points="1376.38,-355.89 1372.67,-345.97 1369.38,-356.04 1376.38,-355.89"/>
<text text-anchor="middle" x="1360.33" y="-346.64" font-family="monospace" font-size="10.00">owns</text>
</g>
<!-- lightning_schema::handshake::RequestFrame::encode -->
<g id="node25" class="node">
<title>lightning_schema::handshake::RequestFrame::encode</title>
<polygon fill="#81c169" stroke="black" points="1241.26,-401.9 1241.26,-439.9 1444.26,-439.9 1444.26,-401.9 1241.26,-401.9"/>
<text text-anchor="middle" x="1342.76" y="-427.9" font-family="monospace" font-size="10.00">pub fn</text>
<polyline fill="none" stroke="black" points="1241.26,-420.9 1444.26,-420.9 "/>
<text text-anchor="middle" x="1342.76" y="-408.9" font-family="monospace" font-size="10.00">handshake::RequestFrame::encode</text>
</g>
<!-- lightning_schema::handshake::RequestFrame&#45;&gt;lightning_schema::handshake::RequestFrame::encode -->
<g id="edge40" class="edge">
<title>lightning_schema::handshake::RequestFrame&#45;&gt;lightning_schema::handshake::RequestFrame::encode</title>
<path fill="none" stroke="#000000" d="M1313.44,-392.92C1313.42,-393.01 1313.4,-393.1 1313.39,-393.19"/>
<polygon fill="#000000" stroke="#000000" points="1309.91,-391.62 1313.23,-401.68 1316.91,-391.74 1309.91,-391.62"/>
<text text-anchor="middle" x="1300.91" y="-396.06" font-family="monospace" font-size="10.00">owns</text>
</g>
<!-- lightning_schema::handshake::RequestFrame::decode&#45;&gt;lightning_schema::handshake::RequestFrame -->
<g id="edge41" class="edge">
<title>lightning_schema::handshake::RequestFrame::decode&#45;&gt;lightning_schema::handshake::RequestFrame</title>
<path fill="none" stroke="#7f7f7f" stroke-dasharray="5,2" d="M1319.56,-345.98C1319.54,-346.07 1319.53,-346.16 1319.51,-346.26"/>
<polygon fill="#7f7f7f" stroke="#7f7f7f" points="1315.98,-344.87 1319.7,-354.79 1322.98,-344.72 1315.98,-344.87"/>
<text text-anchor="middle" x="1307.04" y="-349.12" font-family="monospace" font-size="10.00">uses</text>
</g>
<!-- lightning_schema::handshake::RequestFrame::encode&#45;&gt;lightning_schema::handshake::RequestFrame -->
<g id="edge42" class="edge">
<title>lightning_schema::handshake::RequestFrame::encode&#45;&gt;lightning_schema::handshake::RequestFrame</title>
<path fill="none" stroke="#7f7f7f" stroke-dasharray="5,2" d="M1366.33,-401.87C1366.35,-401.78 1366.37,-401.69 1366.39,-401.59"/>
<polygon fill="#7f7f7f" stroke="#7f7f7f" points="1369.86,-403.17 1366.54,-393.11 1362.86,-403.04 1369.86,-403.17"/>
<text text-anchor="middle" x="1353.86" y="-393.73" font-family="monospace" font-size="10.00">uses</text>
</g>
<!-- lightning_schema::handshake::ResponseFrame::decode -->
<g id="node27" class="node">
<title>lightning_schema::handshake::ResponseFrame::decode</title>
<polygon fill="#81c169" stroke="black" points="1229.8,-543.15 1229.8,-581.15 1438.8,-581.15 1438.8,-543.15 1229.8,-543.15"/>
<text text-anchor="middle" x="1334.3" y="-569.15" font-family="monospace" font-size="10.00">pub fn</text>
<polyline fill="none" stroke="black" points="1229.8,-562.15 1438.8,-562.15 "/>
<text text-anchor="middle" x="1334.3" y="-550.15" font-family="monospace" font-size="10.00">handshake::ResponseFrame::decode</text>
</g>
<!-- lightning_schema::handshake::ResponseFrame&#45;&gt;lightning_schema::handshake::ResponseFrame::decode -->
<g id="edge43" class="edge">
<title>lightning_schema::handshake::ResponseFrame&#45;&gt;lightning_schema::handshake::ResponseFrame::decode</title>
<path fill="none" stroke="#000000" d="M1246.92,-534.16C1247.01,-534.35 1247.11,-534.54 1247.21,-534.73"/>
<polygon fill="#000000" stroke="#000000" points="1244.39,-536.81 1252.9,-543.11 1250.17,-532.87 1244.39,-536.81"/>
<text text-anchor="middle" x="1234.56" y="-537.45" font-family="monospace" font-size="10.00">owns</text>
</g>
<!-- lightning_schema::handshake::ResponseFrame::encode -->
<g id="node28" class="node">
<title>lightning_schema::handshake::ResponseFrame::encode</title>
<polygon fill="#81c169" stroke="black" points="1231.74,-448.91 1231.74,-486.91 1440.74,-486.91 1440.74,-448.91 1231.74,-448.91"/>
<text text-anchor="middle" x="1336.24" y="-474.91" font-family="monospace" font-size="10.00">pub fn</text>
<polyline fill="none" stroke="black" points="1231.74,-467.91 1440.74,-467.91 "/>
<text text-anchor="middle" x="1336.24" y="-455.91" font-family="monospace" font-size="10.00">handshake::ResponseFrame::encode</text>
</g>
<!-- lightning_schema::handshake::ResponseFrame&#45;&gt;lightning_schema::handshake::ResponseFrame::encode -->
<g id="edge44" class="edge">
<title>lightning_schema::handshake::ResponseFrame&#45;&gt;lightning_schema::handshake::ResponseFrame::encode</title>
<path fill="none" stroke="#000000" d="M1326.91,-498.61C1327.93,-497.57 1328.89,-496.52 1329.79,-495.45"/>
<polygon fill="#000000" stroke="#000000" points="1332.72,-497.37 1335.43,-487.12 1326.92,-493.44 1332.72,-497.37"/>
<text text-anchor="middle" x="1315.85" y="-489.03" font-family="monospace" font-size="10.00">owns</text>
</g>
<!-- lightning_schema::handshake::ResponseFrame&#45;&gt;lightning_schema::handshake::TerminationReason -->
<g id="edge45" class="edge">
<title>lightning_schema::handshake::ResponseFrame&#45;&gt;lightning_schema::handshake::TerminationReason</title>
<path fill="none" stroke="#7f7f7f" stroke-dasharray="5,2" d="M1327.16,-514.91C1327.32,-514.91 1327.48,-514.91 1327.64,-514.91"/>
<polygon fill="#7f7f7f" stroke="#7f7f7f" points="1324.82,-518.41 1334.82,-514.91 1324.82,-511.41 1324.82,-518.41"/>
<text text-anchor="middle" x="1327.4" y="-506.91" font-family="monospace" font-size="10.00">uses</text>
</g>
<!-- lightning_schema::handshake::ResponseFrame::decode&#45;&gt;lightning_schema::handshake::ResponseFrame -->
<g id="edge46" class="edge">
<title>lightning_schema::handshake::ResponseFrame::decode&#45;&gt;lightning_schema::handshake::ResponseFrame</title>
<path fill="none" stroke="#7f7f7f" stroke-dasharray="5,2" d="M1333.78,-542.9C1333.53,-542.37 1333.26,-541.85 1332.97,-541.33"/>
<polygon fill="#7f7f7f" stroke="#7f7f7f" points="1335.67,-539.1 1327,-533.02 1329.99,-543.18 1335.67,-539.1"/>
<text text-anchor="middle" x="1327.13" y="-534.11" font-family="monospace" font-size="10.00">uses</text>
</g>
<!-- lightning_schema::handshake::ResponseFrame::decode&#45;&gt;lightning_schema::handshake::TerminationReason -->
<g id="edge47" class="edge">
<title>lightning_schema::handshake::ResponseFrame::decode&#45;&gt;lightning_schema::handshake::TerminationReason</title>
<path fill="none" stroke="#7f7f7f" stroke-dasharray="5,2" d="M1371.94,-543.07C1374.78,-541.64 1377.66,-540.17 1380.55,-538.71"/>
<polygon fill="#7f7f7f" stroke="#7f7f7f" points="1382.38,-541.71 1389.72,-534.06 1379.22,-535.46 1382.38,-541.71"/>
<text text-anchor="middle" x="1363.74" y="-532.89" font-family="monospace" font-size="10.00">uses</text>
</g>
<!-- lightning_schema::handshake::ResponseFrame::encode&#45;&gt;lightning_schema::handshake::ResponseFrame -->
<g id="edge48" class="edge">
<title>lightning_schema::handshake::ResponseFrame::encode&#45;&gt;lightning_schema::handshake::ResponseFrame</title>
<path fill="none" stroke="#7f7f7f" stroke-dasharray="5,2" d="M1252.94,-487.28C1252.87,-487.36 1252.8,-487.45 1252.73,-487.53"/>
<polygon fill="#7f7f7f" stroke="#7f7f7f" points="1250.03,-485.27 1247.32,-495.51 1255.83,-489.19 1250.03,-485.27"/>
<text text-anchor="middle" x="1240.33" y="-490.41" font-family="monospace" font-size="10.00">uses</text>
</g>
<!-- lightning_schema::handshake::ResponseFrame::encode&#45;&gt;lightning_schema::handshake::TerminationReason -->
<g id="edge49" class="edge">
<title>lightning_schema::handshake::ResponseFrame::encode&#45;&gt;lightning_schema::handshake::TerminationReason</title>
<path fill="none" stroke="#7f7f7f" stroke-dasharray="5,2" d="M1373.36,-487.03C1376,-488.39 1378.68,-489.76 1381.35,-491.14"/>
<polygon fill="#7f7f7f" stroke="#7f7f7f" points="1379.92,-494.35 1390.42,-495.81 1383.13,-488.12 1379.92,-494.35"/>
<text text-anchor="middle" x="1364.86" y="-492.09" font-family="monospace" font-size="10.00">uses</text>
</g>
<!-- lightning_schema::handshake::TerminationReason::from_u8 -->
<g id="node30" class="node">
<title>lightning_schema::handshake::TerminationReason::from_u8</title>
<polygon fill="#81c169" stroke="black" points="1528.16,-495.87 1528.16,-533.87 1767.16,-533.87 1767.16,-495.87 1528.16,-495.87"/>
<text text-anchor="middle" x="1647.66" y="-521.87" font-family="monospace" font-size="10.00">pub fn</text>
<polyline fill="none" stroke="black" points="1528.16,-514.87 1767.16,-514.87 "/>
<text text-anchor="middle" x="1647.66" y="-502.87" font-family="monospace" font-size="10.00">handshake::TerminationReason::from_u8</text>
</g>
<!-- lightning_schema::handshake::TerminationReason&#45;&gt;lightning_schema::handshake::TerminationReason::from_u8 -->
<g id="edge50" class="edge">
<title>lightning_schema::handshake::TerminationReason&#45;&gt;lightning_schema::handshake::TerminationReason::from_u8</title>
<path fill="none" stroke="#000000" d="M1456.74,-533.95C1495.73,-543.76 1564.86,-544.48 1608.37,-536.13"/>
<polygon fill="#000000" stroke="#000000" points="1609.29,-539.51 1618.31,-533.94 1607.79,-532.67 1609.29,-539.51"/>
<text text-anchor="middle" x="1520.06" y="-538.04" font-family="monospace" font-size="10.00">owns</text>
</g>
<!-- lightning_schema::handshake::TerminationReason::from_u8&#45;&gt;lightning_schema::handshake::TerminationReason -->
<g id="edge51" class="edge">
<title>lightning_schema::handshake::TerminationReason::from_u8&#45;&gt;lightning_schema::handshake::TerminationReason</title>
<path fill="none" stroke="#7f7f7f" stroke-dasharray="5,2" d="M1618.42,-495.83C1579.44,-486.03 1510.31,-485.3 1466.8,-493.66"/>
<polygon fill="#7f7f7f" stroke="#7f7f7f" points="1465.87,-490.28 1456.86,-495.84 1467.37,-497.11 1465.87,-490.28"/>
<text text-anchor="middle" x="1530.11" y="-486.74" font-family="monospace" font-size="10.00">uses</text>
</g>
</g>
</svg>
