<?xml version="1.0" encoding="UTF-8" standalone="no"?>
<!DOCTYPE svg PUBLIC "-//W3C//DTD SVG 1.1//EN"
 "http://www.w3.org/Graphics/SVG/1.1/DTD/svg11.dtd">
<!-- Generated by graphviz version 4.0.0 (0)
 -->
<!-- Pages: 1 -->
<svg width="1109pt" height="960pt"
 viewBox="0.00 0.00 1109.39 960.39" xmlns="http://www.w3.org/2000/svg" xmlns:xlink="http://www.w3.org/1999/xlink">
<g id="graph0" class="graph" transform="scale(1 1) rotate(0) translate(28.8 931.59)">
<polygon fill="white" stroke="transparent" points="-28.8,28.8 -28.8,-931.59 1080.59,-931.59 1080.59,28.8 -28.8,28.8"/>
<text text-anchor="middle" x="525.9" y="-869.99" font-family="Helvetica,sans-Serif" font-size="36.00">lightning_utils</text>
<!-- lightning_utils -->
<g id="node1" class="node">
<title>lightning_utils</title>
<polygon fill="#5397c8" stroke="black" points="419.32,-557.56 419.32,-595.56 526.32,-595.56 526.32,-557.56 419.32,-557.56"/>
<text text-anchor="middle" x="472.82" y="-583.56" font-family="monospace" font-size="10.00">crate</text>
<polyline fill="none" stroke="black" points="419.32,-576.56 526.32,-576.56 "/>
<text text-anchor="middle" x="472.82" y="-564.56" font-family="monospace" font-size="10.00">lightning_utils</text>
</g>
<!-- lightning_utils::application::QueryRunnerExt -->
<g id="node2" class="node">
<title>lightning_utils::application::QueryRunnerExt</title>
<polygon fill="#81c169" stroke="black" points="872.79,-625.14 872.79,-663.14 1051.79,-663.14 1051.79,-625.14 872.79,-625.14"/>
<text text-anchor="middle" x="962.29" y="-651.14" font-family="monospace" font-size="10.00">pub trait</text>
<polyline fill="none" stroke="black" points="872.79,-644.14 1051.79,-644.14 "/>
<text text-anchor="middle" x="962.29" y="-632.14" font-family="monospace" font-size="10.00">application::QueryRunnerExt</text>
</g>
<!-- lightning_utils&#45;&gt;lightning_utils::application::QueryRunnerExt -->
<g id="edge1" class="edge">
<title>lightning_utils&#45;&gt;lightning_utils::application::QueryRunnerExt</title>
<path fill="none" stroke="#000000" d="M526.6,-583.98C607.23,-595.12 760.81,-616.32 862.39,-630.35"/>
<polygon fill="#000000" stroke="#000000" points="861.98,-633.82 872.36,-631.72 862.94,-626.89 861.98,-633.82"/>
<text text-anchor="middle" x="682" y="-610.16" font-family="monospace" font-size="10.00">owns</text>
</g>
<!-- lightning_utils::eth::normalize_recovery_id -->
<g id="node3" class="node">
<title>lightning_utils::eth::normalize_recovery_id</title>
<polygon fill="#db5367" stroke="black" points="684.64,-816.29 684.64,-854.29 857.64,-854.29 857.64,-816.29 684.64,-816.29"/>
<text text-anchor="middle" x="771.14" y="-842.29" font-family="monospace" font-size="10.00">pub(self) fn</text>
<polyline fill="none" stroke="black" points="684.64,-835.29 857.64,-835.29 "/>
<text text-anchor="middle" x="771.14" y="-823.29" font-family="monospace" font-size="10.00">eth::normalize_recovery_id</text>
</g>
<!-- lightning_utils&#45;&gt;lightning_utils::eth::normalize_recovery_id -->
<g id="edge2" class="edge">
<title>lightning_utils&#45;&gt;lightning_utils::eth::normalize_recovery_id</title>
<path fill="none" stroke="#000000" d="M494.75,-595.58C547.55,-641.37 681.75,-757.77 741.58,-809.65"/>
<polygon fill="#000000" stroke="#000000" points="739.32,-812.33 749.17,-816.24 743.91,-807.04 739.32,-812.33"/>
<text text-anchor="middle" x="605.66" y="-705.62" font-family="monospace" font-size="10.00">owns</text>
</g>
<!-- lightning_utils::eth::verify_signature -->
<g id="node4" class="node">
<title>lightning_utils::eth::verify_signature</title>
<polygon fill="#81c169" stroke="black" points="429.31,-816.29 429.31,-854.29 572.31,-854.29 572.31,-816.29 429.31,-816.29"/>
<text text-anchor="middle" x="500.81" y="-842.29" font-family="monospace" font-size="10.00">pub fn</text>
<polyline fill="none" stroke="black" points="429.31,-835.29 572.31,-835.29 "/>
<text text-anchor="middle" x="500.81" y="-823.29" font-family="monospace" font-size="10.00">eth::verify_signature</text>
</g>
<!-- lightning_utils&#45;&gt;lightning_utils::eth::verify_signature -->
<g id="edge3" class="edge">
<title>lightning_utils&#45;&gt;lightning_utils::eth::verify_signature</title>
<path fill="none" stroke="#000000" d="M474.87,-595.58C479.72,-640.35 491.86,-752.58 497.65,-806.06"/>
<polygon fill="#000000" stroke="#000000" points="494.19,-806.67 498.75,-816.24 501.15,-805.92 494.19,-806.67"/>
<text text-anchor="middle" x="473.76" y="-703.82" font-family="monospace" font-size="10.00">owns</text>
</g>
<!-- lightning_utils::rpc::RpcSuccessResponse -->
<g id="node5" class="node">
<title>lightning_utils::rpc::RpcSuccessResponse</title>
<polygon fill="#81c169" stroke="black" points="558.47,-489.97 558.47,-527.97 713.47,-527.97 713.47,-489.97 558.47,-489.97"/>
<text text-anchor="middle" x="635.97" y="-515.97" font-family="monospace" font-size="10.00">pub struct</text>
<polyline fill="none" stroke="black" points="558.47,-508.97 713.47,-508.97 "/>
<text text-anchor="middle" x="635.97" y="-496.97" font-family="monospace" font-size="10.00">rpc::RpcSuccessResponse</text>
</g>
<!-- lightning_utils&#45;&gt;lightning_utils::rpc::RpcSuccessResponse -->
<g id="edge4" class="edge">
<title>lightning_utils&#45;&gt;lightning_utils::rpc::RpcSuccessResponse</title>
<path fill="none" stroke="#000000" d="M518.7,-557.55C537.9,-549.6 560.39,-540.28 580.51,-531.95"/>
<polygon fill="#000000" stroke="#000000" points="581.97,-535.13 589.87,-528.07 579.29,-528.66 581.97,-535.13"/>
<text text-anchor="middle" x="537.11" y="-547.75" font-family="monospace" font-size="10.00">owns</text>
</g>
<!-- lightning_utils::rpc::make_request -->
<g id="node6" class="node">
<title>lightning_utils::rpc::make_request</title>
<polygon fill="#81c169" stroke="black" points="250.16,-625.14 250.16,-663.14 369.16,-663.14 369.16,-625.14 250.16,-625.14"/>
<text text-anchor="middle" x="309.66" y="-651.14" font-family="monospace" font-size="10.00">pub async fn</text>
<polyline fill="none" stroke="black" points="250.16,-644.14 369.16,-644.14 "/>
<text text-anchor="middle" x="309.66" y="-632.14" font-family="monospace" font-size="10.00">rpc::make_request</text>
</g>
<!-- lightning_utils&#45;&gt;lightning_utils::rpc::make_request -->
<g id="edge5" class="edge">
<title>lightning_utils&#45;&gt;lightning_utils::rpc::make_request</title>
<path fill="none" stroke="#000000" d="M426.93,-595.56C407.73,-603.52 385.24,-612.83 365.12,-621.17"/>
<polygon fill="#000000" stroke="#000000" points="363.66,-617.98 355.76,-625.04 366.34,-624.45 363.66,-617.98"/>
<text text-anchor="middle" x="383.53" y="-611.36" font-family="monospace" font-size="10.00">owns</text>
</g>
<!-- lightning_utils::rpc::rpc_request -->
<g id="node7" class="node">
<title>lightning_utils::rpc::rpc_request</title>
<polygon fill="#81c169" stroke="black" points="742.63,-422.39 742.63,-460.39 855.63,-460.39 855.63,-422.39 742.63,-422.39"/>
<text text-anchor="middle" x="799.13" y="-448.39" font-family="monospace" font-size="10.00">pub async fn</text>
<polyline fill="none" stroke="black" points="742.63,-441.39 855.63,-441.39 "/>
<text text-anchor="middle" x="799.13" y="-429.39" font-family="monospace" font-size="10.00">rpc::rpc_request</text>
</g>
<!-- lightning_utils&#45;&gt;lightning_utils::rpc::rpc_request -->
<g id="edge6" class="edge">
<title>lightning_utils&#45;&gt;lightning_utils::rpc::rpc_request</title>
<path fill="none" stroke="#000000" d="M518.88,-557.48C577.95,-533.01 680.3,-490.61 743.61,-464.39"/>
<polygon fill="#000000" stroke="#000000" points="745.14,-467.54 753.04,-460.48 742.46,-461.08 745.14,-467.54"/>
<text text-anchor="middle" x="618.74" y="-513.93" font-family="monospace" font-size="10.00">owns</text>
</g>
<!-- lightning_utils::shutdown::ShutdownController -->
<g id="node8" class="node">
<title>lightning_utils::shutdown::ShutdownController</title>
<polygon fill="#81c169" stroke="black" points="293.72,-240.22 293.72,-278.22 478.72,-278.22 478.72,-240.22 293.72,-240.22"/>
<text text-anchor="middle" x="386.22" y="-266.22" font-family="monospace" font-size="10.00">pub struct</text>
<polyline fill="none" stroke="black" points="293.72,-259.22 478.72,-259.22 "/>
<text text-anchor="middle" x="386.22" y="-247.22" font-family="monospace" font-size="10.00">shutdown::ShutdownController</text>
</g>
<!-- lightning_utils&#45;&gt;lightning_utils::shutdown::ShutdownController -->
<g id="edge7" class="edge">
<title>lightning_utils&#45;&gt;lightning_utils::shutdown::ShutdownController</title>
<path fill="none" stroke="#000000" d="M467.53,-557.18C452.85,-503.39 411.53,-351.97 394.12,-288.15"/>
<polygon fill="#000000" stroke="#000000" points="397.45,-287.07 391.44,-278.34 390.7,-288.91 397.45,-287.07"/>
<text text-anchor="middle" x="418.32" y="-425.67" font-family="monospace" font-size="10.00">owns</text>
</g>
<!-- lightning_utils::shutdown::shutdown_stream -->
<g id="node11" class="node">
<title>lightning_utils::shutdown::shutdown_stream</title>
<polygon fill="#db5367" stroke="black" points="687.64,-163.66 687.64,-201.66 854.64,-201.66 854.64,-163.66 687.64,-163.66"/>
<text text-anchor="middle" x="771.14" y="-189.66" font-family="monospace" font-size="10.00">pub(self) async fn</text>
<polyline fill="none" stroke="black" points="687.64,-182.66 854.64,-182.66 "/>
<text text-anchor="middle" x="771.14" y="-170.66" font-family="monospace" font-size="10.00">shutdown::shutdown_stream</text>
</g>
<!-- lightning_utils&#45;&gt;lightning_utils::shutdown::shutdown_stream -->
<g id="edge8" class="edge">
<title>lightning_utils&#45;&gt;lightning_utils::shutdown::shutdown_stream</title>
<path fill="none" stroke="#000000" d="M487.41,-557.29C536.18,-492.89 693.67,-284.95 750.47,-209.95"/>
<polygon fill="#000000" stroke="#000000" points="753.33,-211.97 756.58,-201.89 747.75,-207.74 753.33,-211.97"/>
<text text-anchor="middle" x="606.44" y="-386.62" font-family="monospace" font-size="10.00">owns</text>
</g>
<!-- lightning_utils::rpc::rpc_request&#45;&gt;lightning_utils::rpc::RpcSuccessResponse -->
<g id="edge9" class="edge">
<title>lightning_utils::rpc::rpc_request&#45;&gt;lightning_utils::rpc::RpcSuccessResponse</title>
<path fill="none" stroke="#7f7f7f" stroke-dasharray="5,2" d="M753.25,-460.4C734.05,-468.35 711.56,-477.67 691.44,-486"/>
<polygon fill="#7f7f7f" stroke="#7f7f7f" points="689.98,-482.82 682.08,-489.88 692.66,-489.28 689.98,-482.82"/>
<text text-anchor="middle" x="709.84" y="-476.2" font-family="monospace" font-size="10.00">uses</text>
</g>
<!-- lightning_utils::shutdown::ShutdownController::install_handlers -->
<g id="node9" class="node">
<title>lightning_utils::shutdown::ShutdownController::install_handlers</title>
<polygon fill="#81c169" stroke="black" points="0,-287.23 0,-325.23 293,-325.23 293,-287.23 0,-287.23"/>
<text text-anchor="middle" x="146.5" y="-313.23" font-family="monospace" font-size="10.00">pub fn</text>
<polyline fill="none" stroke="black" points="0,-306.23 293,-306.23 "/>
<text text-anchor="middle" x="146.5" y="-294.23" font-family="monospace" font-size="10.00">shutdown::ShutdownController::install_handlers</text>
</g>
<!-- lightning_utils::shutdown::ShutdownController&#45;&gt;lightning_utils::shutdown::ShutdownController::install_handlers -->
<g id="edge10" class="edge">
<title>lightning_utils::shutdown::ShutdownController&#45;&gt;lightning_utils::shutdown::ShutdownController::install_handlers</title>
<path fill="none" stroke="#000000" d="M293.64,-250.77C249.91,-256.86 201.08,-269.06 172.07,-282.48"/>
<polygon fill="#000000" stroke="#000000" points="170.36,-279.42 163.03,-287.07 173.53,-285.66 170.36,-279.42"/>
<text text-anchor="middle" x="220.35" y="-269.62" font-family="monospace" font-size="10.00">owns</text>
</g>
<!-- lightning_utils::shutdown::ShutdownController::wait_for_shutdown -->
<g id="node10" class="node">
<title>lightning_utils::shutdown::ShutdownController::wait_for_shutdown</title>
<polygon fill="#81c169" stroke="black" points="283.73,-0.5 283.73,-38.5 582.73,-38.5 582.73,-0.5 283.73,-0.5"/>
<text text-anchor="middle" x="433.23" y="-26.5" font-family="monospace" font-size="10.00">pub async fn</text>
<polyline fill="none" stroke="black" points="283.73,-19.5 582.73,-19.5 "/>
<text text-anchor="middle" x="433.23" y="-7.5" font-family="monospace" font-size="10.00">shutdown::ShutdownController::wait_for_shutdown</text>
</g>
<!-- lightning_utils::shutdown::ShutdownController&#45;&gt;lightning_utils::shutdown::ShutdownController::wait_for_shutdown -->
<g id="edge11" class="edge">
<title>lightning_utils::shutdown::ShutdownController&#45;&gt;lightning_utils::shutdown::ShutdownController::wait_for_shutdown</title>
<path fill="none" stroke="#000000" d="M406.92,-239.86C428.97,-197.84 448.77,-98.56 445.37,-48.82"/>
<polygon fill="#000000" stroke="#000000" points="448.83,-48.27 444.24,-38.72 441.88,-49.04 448.83,-48.27"/>
<text text-anchor="middle" x="413.65" y="-147.34" font-family="monospace" font-size="10.00">owns</text>
</g>
<!-- lightning_utils::shutdown::ShutdownController::install_handlers&#45;&gt;lightning_utils::shutdown::ShutdownController -->
<g id="edge12" class="edge">
<title>lightning_utils::shutdown::ShutdownController::install_handlers&#45;&gt;lightning_utils::shutdown::ShutdownController</title>
<path fill="none" stroke="#7f7f7f" stroke-dasharray="5,2" d="M293.15,-304.58C319.06,-298.52 343.22,-291.01 360.45,-283.07"/>
<polygon fill="#7f7f7f" stroke="#7f7f7f" points="362.41,-285.99 369.75,-278.35 359.25,-279.75 362.41,-285.99"/>
<text text-anchor="middle" x="314.3" y="-296.83" font-family="monospace" font-size="10.00">uses</text>
</g>
<!-- lightning_utils::shutdown::ShutdownController::wait_for_shutdown&#45;&gt;lightning_utils::shutdown::ShutdownController -->
<g id="edge13" class="edge">
<title>lightning_utils::shutdown::ShutdownController::wait_for_shutdown&#45;&gt;lightning_utils::shutdown::ShutdownController</title>
<path fill="none" stroke="#7f7f7f" stroke-dasharray="5,2" d="M412.53,-38.86C390.48,-80.88 370.68,-180.16 374.08,-229.9"/>
<polygon fill="#7f7f7f" stroke="#7f7f7f" points="370.62,-230.46 375.21,-240 377.57,-229.68 370.62,-230.46"/>
<text text-anchor="middle" x="380.8" y="-137.38" font-family="monospace" font-size="10.00">uses</text>
</g>
</g>
</svg>
