<?xml version="1.0" encoding="UTF-8" standalone="no"?>
<!DOCTYPE svg PUBLIC "-//W3C//DTD SVG 1.1//EN"
 "http://www.w3.org/Graphics/SVG/1.1/DTD/svg11.dtd">
<!-- Generated by graphviz version 4.0.0 (0)
 -->
<!-- Pages: 1 -->
<svg width="2103pt" height="3256pt"
 viewBox="0.00 0.00 2102.60 3256.10" xmlns="http://www.w3.org/2000/svg" xmlns:xlink="http://www.w3.org/1999/xlink">
<g id="graph0" class="graph" transform="scale(1 1) rotate(0) translate(28.8 3227.3)">
<polygon fill="white" stroke="transparent" points="-28.8,28.8 -28.8,-3227.3 2073.8,-3227.3 2073.8,28.8 -28.8,28.8"/>
<text text-anchor="middle" x="1022.5" y="-3165.7" font-family="Helvetica,sans-Serif" font-size="36.00">lightning_keystore</text>
<!-- lightning_keystore -->
<g id="node1" class="node">
<title>lightning_keystore</title>
<polygon fill="#5397c8" stroke="black" points="0,-1429 0,-1467 125,-1467 125,-1429 0,-1429"/>
<text text-anchor="middle" x="62.5" y="-1455" font-family="monospace" font-size="10.00">crate</text>
<polyline fill="none" stroke="black" points="0,-1448 125,-1448 "/>
<text text-anchor="middle" x="62.5" y="-1436" font-family="monospace" font-size="10.00">lightning_keystore</text>
</g>
<!-- lightning_keystore::config::KeystoreConfig -->
<g id="node2" class="node">
<title>lightning_keystore::config::KeystoreConfig</title>
<polygon fill="#81c169" stroke="black" points="888,-2879 888,-2917 1037,-2917 1037,-2879 888,-2879"/>
<text text-anchor="middle" x="962.5" y="-2905" font-family="monospace" font-size="10.00">pub struct</text>
<polyline fill="none" stroke="black" points="888,-2898 1037,-2898 "/>
<text text-anchor="middle" x="962.5" y="-2886" font-family="monospace" font-size="10.00">config::KeystoreConfig</text>
</g>
<!-- lightning_keystore&#45;&gt;lightning_keystore::config::KeystoreConfig -->
<g id="edge1" class="edge">
<title>lightning_keystore&#45;&gt;lightning_keystore::config::KeystoreConfig</title>
<path fill="none" stroke="#000000" d="M69.63,-1467.48C125.73,-1620.77 494,-2627 494,-2627 494,-2627 805.8,-2807.36 920.67,-2873.8"/>
<polygon fill="#000000" stroke="#000000" points="919.15,-2876.97 929.56,-2878.94 922.65,-2870.91 919.15,-2876.97"/>
<text text-anchor="middle" x="506.5" y="-2630" font-family="monospace" font-size="10.00">owns</text>
</g>
<!-- lightning_keystore&#45;&gt;lightning_keystore::config::KeystoreConfig -->
<g id="edge2" class="edge">
<title>lightning_keystore&#45;&gt;lightning_keystore::config::KeystoreConfig</title>
<path fill="none" stroke="#7f7f7f" stroke-dasharray="5,2" d="M79.56,-1467.25C162.44,-1560.74 519,-1963 519,-1963 519,-1963 874.56,-2712.59 948.95,-2869.44"/>
<polygon fill="#7f7f7f" stroke="#7f7f7f" points="945.99,-2871.36 953.44,-2878.9 952.32,-2868.36 945.99,-2871.36"/>
<text text-anchor="middle" x="506.5" y="-1955" font-family="monospace" font-size="10.00">uses</text>
</g>
<!-- lightning_keystore::keystore::Keystore -->
<g id="node6" class="node">
<title>lightning_keystore::keystore::Keystore</title>
<polygon fill="#81c169" stroke="black" points="900,-1329 900,-1367 1025,-1367 1025,-1329 900,-1329"/>
<text text-anchor="middle" x="962.5" y="-1355" font-family="monospace" font-size="10.00">pub struct</text>
<polyline fill="none" stroke="black" points="900,-1348 1025,-1348 "/>
<text text-anchor="middle" x="962.5" y="-1336" font-family="monospace" font-size="10.00">keystore::Keystore</text>
</g>
<!-- lightning_keystore&#45;&gt;lightning_keystore::keystore::Keystore -->
<g id="edge3" class="edge">
<title>lightning_keystore&#45;&gt;lightning_keystore::keystore::Keystore</title>
<path fill="none" stroke="#000000" d="M125.24,-1448C244.92,-1448 494,-1448 494,-1448 494,-1448 758.2,-1391.61 889.79,-1363.52"/>
<polygon fill="#000000" stroke="#000000" points="890.75,-1366.89 899.8,-1361.38 889.29,-1360.05 890.75,-1366.89"/>
<text text-anchor="middle" x="506.5" y="-1451" font-family="monospace" font-size="10.00">owns</text>
</g>
<!-- lightning_keystore&#45;&gt;lightning_keystore::keystore::Keystore -->
<g id="edge4" class="edge">
<title>lightning_keystore&#45;&gt;lightning_keystore::keystore::Keystore</title>
<path fill="none" stroke="#7f7f7f" stroke-dasharray="5,2" d="M123.12,-1428.88C247.3,-1389.71 519,-1304 519,-1304 519,-1304 763.7,-1328.28 889.57,-1340.76"/>
<polygon fill="#7f7f7f" stroke="#7f7f7f" points="889.6,-1344.28 899.9,-1341.79 890.29,-1337.32 889.6,-1344.28"/>
<text text-anchor="middle" x="506.5" y="-1296" font-family="monospace" font-size="10.00">uses</text>
</g>
<!-- lightning_keystore::keystore::save -->
<g id="node14" class="node">
<title>lightning_keystore::keystore::save</title>
<polygon fill="#db5367" stroke="black" points="912,-1119 912,-1157 1013,-1157 1013,-1119 912,-1119"/>
<text text-anchor="middle" x="962.5" y="-1145" font-family="monospace" font-size="10.00">pub(self) fn</text>
<polyline fill="none" stroke="black" points="912,-1138 1013,-1138 "/>
<text text-anchor="middle" x="962.5" y="-1126" font-family="monospace" font-size="10.00">keystore::save</text>
</g>
<!-- lightning_keystore&#45;&gt;lightning_keystore::keystore::save -->
<g id="edge5" class="edge">
<title>lightning_keystore&#45;&gt;lightning_keystore::keystore::save</title>
<path fill="none" stroke="#000000" d="M91.75,-1428.84C192.5,-1362.85 519,-1149 519,-1149 519,-1149 779.71,-1142.53 901.35,-1139.52"/>
<polygon fill="#000000" stroke="#000000" points="901.71,-1143.01 911.62,-1139.26 901.54,-1136.01 901.71,-1143.01"/>
<text text-anchor="middle" x="506.5" y="-1141" font-family="monospace" font-size="10.00">owns</text>
</g>
<!-- lightning_keystore::config::KeystoreConfig::load_test_keys -->
<g id="node3" class="node">
<title>lightning_keystore::config::KeystoreConfig::load_test_keys</title>
<polygon fill="#81c169" stroke="black" points="1800,-3112 1800,-3150 2045,-3150 2045,-3112 1800,-3112"/>
<text text-anchor="middle" x="1922.5" y="-3138" font-family="monospace" font-size="10.00">pub fn</text>
<polyline fill="none" stroke="black" points="1800,-3131 2045,-3131 "/>
<text text-anchor="middle" x="1922.5" y="-3119" font-family="monospace" font-size="10.00">config::KeystoreConfig::load_test_keys</text>
</g>
<!-- lightning_keystore::config::KeystoreConfig&#45;&gt;lightning_keystore::config::KeystoreConfig::load_test_keys -->
<g id="edge6" class="edge">
<title>lightning_keystore::config::KeystoreConfig&#45;&gt;lightning_keystore::config::KeystoreConfig::load_test_keys</title>
<path fill="none" stroke="#000000" d="M998.79,-2917.07C1104.71,-2972.71 1406,-3131 1406,-3131 1406,-3131 1636.31,-3131 1789.35,-3131"/>
<polygon fill="#000000" stroke="#000000" points="1789.77,-3134.5 1799.77,-3131 1789.77,-3127.5 1789.77,-3134.5"/>
<text text-anchor="middle" x="1418.5" y="-3134" font-family="monospace" font-size="10.00">owns</text>
</g>
<!-- lightning_keystore::config::KeystoreConfig::test -->
<g id="node4" class="node">
<title>lightning_keystore::config::KeystoreConfig::test</title>
<polygon fill="#81c169" stroke="black" points="1830,-2957 1830,-2995 2015,-2995 2015,-2957 1830,-2957"/>
<text text-anchor="middle" x="1922.5" y="-2983" font-family="monospace" font-size="10.00">pub fn</text>
<polyline fill="none" stroke="black" points="1830,-2976 2015,-2976 "/>
<text text-anchor="middle" x="1922.5" y="-2964" font-family="monospace" font-size="10.00">config::KeystoreConfig::test</text>
</g>
<!-- lightning_keystore::config::KeystoreConfig&#45;&gt;lightning_keystore::config::KeystoreConfig::test -->
<g id="edge7" class="edge">
<title>lightning_keystore::config::KeystoreConfig&#45;&gt;lightning_keystore::config::KeystoreConfig::test</title>
<path fill="none" stroke="#000000" d="M1037.23,-2911.14C1163.63,-2933.37 1406,-2976 1406,-2976 1406,-2976 1669,-2976 1819.66,-2976"/>
<polygon fill="#000000" stroke="#000000" points="1819.86,-2979.5 1829.86,-2976 1819.86,-2972.5 1819.86,-2979.5"/>
<text text-anchor="middle" x="1418.5" y="-2979" font-family="monospace" font-size="10.00">owns</text>
</g>
<!-- lightning_keystore::config::KeystoreConfig::test2 -->
<g id="node5" class="node">
<title>lightning_keystore::config::KeystoreConfig::test2</title>
<polygon fill="#81c169" stroke="black" points="1827,-2802 1827,-2840 2018,-2840 2018,-2802 1827,-2802"/>
<text text-anchor="middle" x="1922.5" y="-2828" font-family="monospace" font-size="10.00">pub fn</text>
<polyline fill="none" stroke="black" points="1827,-2821 2018,-2821 "/>
<text text-anchor="middle" x="1922.5" y="-2809" font-family="monospace" font-size="10.00">config::KeystoreConfig::test2</text>
</g>
<!-- lightning_keystore::config::KeystoreConfig&#45;&gt;lightning_keystore::config::KeystoreConfig::test2 -->
<g id="edge8" class="edge">
<title>lightning_keystore::config::KeystoreConfig&#45;&gt;lightning_keystore::config::KeystoreConfig::test2</title>
<path fill="none" stroke="#000000" d="M1037.25,-2887.47C1169.52,-2868.84 1431,-2832 1431,-2832 1431,-2832 1672.16,-2826.6 1816.63,-2823.37"/>
<polygon fill="#000000" stroke="#000000" points="1816.94,-2826.86 1826.86,-2823.14 1816.78,-2819.87 1816.94,-2826.86"/>
<text text-anchor="middle" x="1418.5" y="-2824" font-family="monospace" font-size="10.00">owns</text>
</g>
<!-- lightning_keystore::config::KeystoreConfig::load_test_keys&#45;&gt;lightning_keystore::config::KeystoreConfig -->
<g id="edge9" class="edge">
<title>lightning_keystore::config::KeystoreConfig::load_test_keys&#45;&gt;lightning_keystore::config::KeystoreConfig</title>
<path fill="none" stroke="#7f7f7f" stroke-dasharray="5,2" d="M1901.69,-3111.78C1808.15,-3025.37 1431,-2677 1431,-2677 1431,-2677 1132.86,-2817.64 1012.25,-2874.53"/>
<polygon fill="#7f7f7f" stroke="#7f7f7f" points="1010.4,-2871.53 1002.85,-2878.97 1013.39,-2877.87 1010.4,-2871.53"/>
<text text-anchor="middle" x="1418.5" y="-2669" font-family="monospace" font-size="10.00">uses</text>
</g>
<!-- lightning_keystore::config::KeystoreConfig::test&#45;&gt;lightning_keystore::config::KeystoreConfig -->
<g id="edge10" class="edge">
<title>lightning_keystore::config::KeystoreConfig::test&#45;&gt;lightning_keystore::config::KeystoreConfig</title>
<path fill="none" stroke="#7f7f7f" stroke-dasharray="5,2" d="M1901.69,-2956.78C1808.15,-2870.37 1431,-2522 1431,-2522 1431,-2522 1100.02,-2787.63 994.45,-2872.36"/>
<polygon fill="#7f7f7f" stroke="#7f7f7f" points="991.99,-2869.85 986.38,-2878.84 996.37,-2875.31 991.99,-2869.85"/>
<text text-anchor="middle" x="1418.5" y="-2514" font-family="monospace" font-size="10.00">uses</text>
</g>
<!-- lightning_keystore::config::KeystoreConfig::test2&#45;&gt;lightning_keystore::config::KeystoreConfig -->
<g id="edge11" class="edge">
<title>lightning_keystore::config::KeystoreConfig::test2&#45;&gt;lightning_keystore::config::KeystoreConfig</title>
<path fill="none" stroke="#7f7f7f" stroke-dasharray="5,2" d="M1901.69,-2801.78C1808.15,-2715.37 1431,-2367 1431,-2367 1431,-2367 1081.17,-2763.5 986.1,-2871.25"/>
<polygon fill="#7f7f7f" stroke="#7f7f7f" points="983.44,-2868.97 979.45,-2878.79 988.69,-2873.6 983.44,-2868.97"/>
<text text-anchor="middle" x="1418.5" y="-2359" font-family="monospace" font-size="10.00">uses</text>
</g>
<!-- lightning_keystore::keystore::Keystore::Config -->
<g id="node7" class="node">
<title>lightning_keystore::keystore::Keystore::Config</title>
<polygon fill="#db5367" stroke="black" points="1836,-1717 1836,-1755 2009,-1755 2009,-1717 1836,-1717"/>
<text text-anchor="middle" x="1922.5" y="-1743" font-family="monospace" font-size="10.00">pub(self) type</text>
<polyline fill="none" stroke="black" points="1836,-1736 2009,-1736 "/>
<text text-anchor="middle" x="1922.5" y="-1724" font-family="monospace" font-size="10.00">keystore::Keystore::Config</text>
</g>
<!-- lightning_keystore::keystore::Keystore&#45;&gt;lightning_keystore::keystore::Keystore::Config -->
<g id="edge12" class="edge">
<title>lightning_keystore::keystore::Keystore&#45;&gt;lightning_keystore::keystore::Keystore::Config</title>
<path fill="none" stroke="#000000" d="M984.49,-1367.24C1073.98,-1445.53 1406,-1736 1406,-1736 1406,-1736 1676.09,-1736 1825.64,-1736"/>
<polygon fill="#000000" stroke="#000000" points="1825.76,-1739.5 1835.76,-1736 1825.76,-1732.5 1825.76,-1739.5"/>
<text text-anchor="middle" x="1418.5" y="-1739" font-family="monospace" font-size="10.00">owns</text>
</g>
<!-- lightning_keystore::keystore::Keystore::generate_keys -->
<g id="node8" class="node">
<title>lightning_keystore::keystore::Keystore::generate_keys</title>
<polygon fill="#db5367" stroke="black" points="1815,-1562 1815,-1600 2030,-1600 2030,-1562 1815,-1562"/>
<text text-anchor="middle" x="1922.5" y="-1588" font-family="monospace" font-size="10.00">pub(self) fn</text>
<polyline fill="none" stroke="black" points="1815,-1581 2030,-1581 "/>
<text text-anchor="middle" x="1922.5" y="-1569" font-family="monospace" font-size="10.00">keystore::Keystore::generate_keys</text>
</g>
<!-- lightning_keystore::keystore::Keystore&#45;&gt;lightning_keystore::keystore::Keystore::generate_keys -->
<g id="edge13" class="edge">
<title>lightning_keystore::keystore::Keystore&#45;&gt;lightning_keystore::keystore::Keystore::generate_keys</title>
<path fill="none" stroke="#000000" d="M998.79,-1367.07C1104.71,-1422.71 1406,-1581 1406,-1581 1406,-1581 1652.05,-1581 1804.5,-1581"/>
<polygon fill="#000000" stroke="#000000" points="1804.85,-1584.5 1814.85,-1581 1804.85,-1577.5 1804.85,-1584.5"/>
<text text-anchor="middle" x="1418.5" y="-1584" font-family="monospace" font-size="10.00">owns</text>
</g>
<!-- lightning_keystore::keystore::Keystore::get_bls_pk -->
<g id="node9" class="node">
<title>lightning_keystore::keystore::Keystore::get_bls_pk</title>
<polygon fill="#db5367" stroke="black" points="1824,-1407 1824,-1445 2021,-1445 2021,-1407 1824,-1407"/>
<text text-anchor="middle" x="1922.5" y="-1433" font-family="monospace" font-size="10.00">pub(self) fn</text>
<polyline fill="none" stroke="black" points="1824,-1426 2021,-1426 "/>
<text text-anchor="middle" x="1922.5" y="-1414" font-family="monospace" font-size="10.00">keystore::Keystore::get_bls_pk</text>
</g>
<!-- lightning_keystore::keystore::Keystore&#45;&gt;lightning_keystore::keystore::Keystore::get_bls_pk -->
<g id="edge14" class="edge">
<title>lightning_keystore::keystore::Keystore&#45;&gt;lightning_keystore::keystore::Keystore::get_bls_pk</title>
<path fill="none" stroke="#000000" d="M1025.1,-1359.01C1147.35,-1380.51 1406,-1426 1406,-1426 1406,-1426 1662.01,-1426 1813.55,-1426"/>
<polygon fill="#000000" stroke="#000000" points="1813.83,-1429.5 1823.83,-1426 1813.83,-1422.5 1813.83,-1429.5"/>
<text text-anchor="middle" x="1418.5" y="-1429" font-family="monospace" font-size="10.00">owns</text>
</g>
<!-- lightning_keystore::keystore::Keystore::get_bls_sk -->
<g id="node10" class="node">
<title>lightning_keystore::keystore::Keystore::get_bls_sk</title>
<polygon fill="#db5367" stroke="black" points="1824,-1252 1824,-1290 2021,-1290 2021,-1252 1824,-1252"/>
<text text-anchor="middle" x="1922.5" y="-1278" font-family="monospace" font-size="10.00">pub(self) fn</text>
<polyline fill="none" stroke="black" points="1824,-1271 2021,-1271 "/>
<text text-anchor="middle" x="1922.5" y="-1259" font-family="monospace" font-size="10.00">keystore::Keystore::get_bls_sk</text>
</g>
<!-- lightning_keystore::keystore::Keystore&#45;&gt;lightning_keystore::keystore::Keystore::get_bls_sk -->
<g id="edge15" class="edge">
<title>lightning_keystore::keystore::Keystore&#45;&gt;lightning_keystore::keystore::Keystore::get_bls_sk</title>
<path fill="none" stroke="#000000" d="M1025.2,-1339.17C1152.86,-1321.18 1431,-1282 1431,-1282 1431,-1282 1668.89,-1276.68 1813.67,-1273.44"/>
<polygon fill="#000000" stroke="#000000" points="1814,-1276.93 1823.92,-1273.21 1813.85,-1269.93 1814,-1276.93"/>
<text text-anchor="middle" x="1418.5" y="-1274" font-family="monospace" font-size="10.00">owns</text>
</g>
<!-- lightning_keystore::keystore::Keystore::get_ed25519_pk -->
<g id="node11" class="node">
<title>lightning_keystore::keystore::Keystore::get_ed25519_pk</title>
<polygon fill="#db5367" stroke="black" points="1812,-1097 1812,-1135 2033,-1135 2033,-1097 1812,-1097"/>
<text text-anchor="middle" x="1922.5" y="-1123" font-family="monospace" font-size="10.00">pub(self) fn</text>
<polyline fill="none" stroke="black" points="1812,-1116 2033,-1116 "/>
<text text-anchor="middle" x="1922.5" y="-1104" font-family="monospace" font-size="10.00">keystore::Keystore::get_ed25519_pk</text>
</g>
<!-- lightning_keystore::keystore::Keystore&#45;&gt;lightning_keystore::keystore::Keystore::get_ed25519_pk -->
<g id="edge16" class="edge">
<title>lightning_keystore::keystore::Keystore&#45;&gt;lightning_keystore::keystore::Keystore::get_ed25519_pk</title>
<path fill="none" stroke="#000000" d="M1002.85,-1328.97C1116.49,-1275.36 1431,-1127 1431,-1127 1431,-1127 1656.02,-1121.96 1801.55,-1118.71"/>
<polygon fill="#000000" stroke="#000000" points="1801.97,-1122.2 1811.89,-1118.48 1801.82,-1115.2 1801.97,-1122.2"/>
<text text-anchor="middle" x="1418.5" y="-1119" font-family="monospace" font-size="10.00">owns</text>
</g>
<!-- lightning_keystore::keystore::Keystore::get_ed25519_sk -->
<g id="node12" class="node">
<title>lightning_keystore::keystore::Keystore::get_ed25519_sk</title>
<polygon fill="#db5367" stroke="black" points="1812,-942 1812,-980 2033,-980 2033,-942 1812,-942"/>
<text text-anchor="middle" x="1922.5" y="-968" font-family="monospace" font-size="10.00">pub(self) fn</text>
<polyline fill="none" stroke="black" points="1812,-961 2033,-961 "/>
<text text-anchor="middle" x="1922.5" y="-949" font-family="monospace" font-size="10.00">keystore::Keystore::get_ed25519_sk</text>
</g>
<!-- lightning_keystore::keystore::Keystore&#45;&gt;lightning_keystore::keystore::Keystore::get_ed25519_sk -->
<g id="edge17" class="edge">
<title>lightning_keystore::keystore::Keystore&#45;&gt;lightning_keystore::keystore::Keystore::get_ed25519_sk</title>
<path fill="none" stroke="#000000" d="M986.38,-1328.84C1081.85,-1252.22 1431,-972 1431,-972 1431,-972 1656.02,-966.96 1801.55,-963.71"/>
<polygon fill="#000000" stroke="#000000" points="1801.97,-967.2 1811.89,-963.48 1801.82,-960.2 1801.97,-967.2"/>
<text text-anchor="middle" x="1418.5" y="-964" font-family="monospace" font-size="10.00">owns</text>
</g>
<!-- lightning_keystore::keystore::Keystore::init -->
<g id="node13" class="node">
<title>lightning_keystore::keystore::Keystore::init</title>
<polygon fill="#db5367" stroke="black" points="1842,-787 1842,-825 2003,-825 2003,-787 1842,-787"/>
<text text-anchor="middle" x="1922.5" y="-813" font-family="monospace" font-size="10.00">pub(self) fn</text>
<polyline fill="none" stroke="black" points="1842,-806 2003,-806 "/>
<text text-anchor="middle" x="1922.5" y="-794" font-family="monospace" font-size="10.00">keystore::Keystore::init</text>
</g>
<!-- lightning_keystore::keystore::Keystore&#45;&gt;lightning_keystore::keystore::Keystore::init -->
<g id="edge18" class="edge">
<title>lightning_keystore::keystore::Keystore&#45;&gt;lightning_keystore::keystore::Keystore::init</title>
<path fill="none" stroke="#000000" d="M979.45,-1328.79C1063.44,-1233.59 1431,-817 1431,-817 1431,-817 1689.88,-811.21 1831.87,-808.03"/>
<polygon fill="#000000" stroke="#000000" points="1831.97,-811.53 1841.89,-807.8 1831.81,-804.53 1831.97,-811.53"/>
<text text-anchor="middle" x="1418.5" y="-809" font-family="monospace" font-size="10.00">owns</text>
</g>
<!-- lightning_keystore::keystore::Keystore::Config&#45;&gt;lightning_keystore::config::KeystoreConfig -->
<g id="edge19" class="edge">
<title>lightning_keystore::keystore::Keystore::Config&#45;&gt;lightning_keystore::config::KeystoreConfig</title>
<path fill="none" stroke="#7f7f7f" stroke-dasharray="5,2" d="M1902.62,-1755.25C1810.67,-1844.3 1431,-2212 1431,-2212 1431,-2212 1068.78,-2742.38 981.33,-2870.43"/>
<polygon fill="#7f7f7f" stroke="#7f7f7f" points="978.27,-2868.7 975.52,-2878.94 984.05,-2872.65 978.27,-2868.7"/>
<text text-anchor="middle" x="1418.5" y="-2204" font-family="monospace" font-size="10.00">uses</text>
</g>
<!-- lightning_keystore::keystore::Keystore::generate_keys&#45;&gt;lightning_keystore::config::KeystoreConfig -->
<g id="edge20" class="edge">
<title>lightning_keystore::keystore::Keystore::generate_keys&#45;&gt;lightning_keystore::config::KeystoreConfig</title>
<path fill="none" stroke="#7f7f7f" stroke-dasharray="5,2" d="M1902.62,-1600.25C1810.67,-1689.3 1431,-2057 1431,-2057 1431,-2057 1059.4,-2724.06 978.09,-2870.01"/>
<polygon fill="#7f7f7f" stroke="#7f7f7f" points="974.97,-2868.42 973.17,-2878.85 981.09,-2871.82 974.97,-2868.42"/>
<text text-anchor="middle" x="1418.5" y="-2049" font-family="monospace" font-size="10.00">uses</text>
</g>
<!-- lightning_keystore::keystore::Keystore::get_bls_pk&#45;&gt;lightning_keystore::keystore::Keystore -->
<g id="edge21" class="edge">
<title>lightning_keystore::keystore::Keystore::get_bls_pk&#45;&gt;lightning_keystore::keystore::Keystore</title>
<path fill="none" stroke="#7f7f7f" stroke-dasharray="5,2" d="M1910.1,-1406.68C1833.79,-1287.75 1431,-660 1431,-660 1431,-660 1068.78,-1191.93 981.33,-1320.34"/>
<polygon fill="#7f7f7f" stroke="#7f7f7f" points="978.25,-1318.65 975.52,-1328.88 984.04,-1322.59 978.25,-1318.65"/>
<text text-anchor="middle" x="1418.5" y="-652" font-family="monospace" font-size="10.00">uses</text>
</g>
<!-- lightning_keystore::keystore::Keystore::get_bls_sk&#45;&gt;lightning_keystore::keystore::Keystore -->
<g id="edge22" class="edge">
<title>lightning_keystore::keystore::Keystore::get_bls_sk&#45;&gt;lightning_keystore::keystore::Keystore</title>
<path fill="none" stroke="#7f7f7f" stroke-dasharray="5,2" d="M1910.35,-1251.97C1834.66,-1133.39 1431,-501 1431,-501 1431,-501 1059.4,-1172.82 978.09,-1319.81"/>
<polygon fill="#7f7f7f" stroke="#7f7f7f" points="974.94,-1318.27 973.17,-1328.72 981.07,-1321.66 974.94,-1318.27"/>
<text text-anchor="middle" x="1418.5" y="-493" font-family="monospace" font-size="10.00">uses</text>
</g>
<!-- lightning_keystore::keystore::Keystore::get_ed25519_pk&#45;&gt;lightning_keystore::keystore::Keystore -->
<g id="edge23" class="edge">
<title>lightning_keystore::keystore::Keystore::get_ed25519_pk&#45;&gt;lightning_keystore::keystore::Keystore</title>
<path fill="none" stroke="#7f7f7f" stroke-dasharray="5,2" d="M1910.35,-1096.77C1834.66,-976.96 1431,-338 1431,-338 1431,-338 1052.24,-1154.54 975.84,-1319.25"/>
<polygon fill="#7f7f7f" stroke="#7f7f7f" points="972.47,-1318.18 971.44,-1328.73 978.82,-1321.13 972.47,-1318.18"/>
<text text-anchor="middle" x="1418.5" y="-330" font-family="monospace" font-size="10.00">uses</text>
</g>
<!-- lightning_keystore::keystore::Keystore::get_ed25519_sk&#45;&gt;lightning_keystore::keystore::Keystore -->
<g id="edge24" class="edge">
<title>lightning_keystore::keystore::Keystore::get_ed25519_sk&#45;&gt;lightning_keystore::keystore::Keystore</title>
<path fill="none" stroke="#7f7f7f" stroke-dasharray="5,2" d="M1910.59,-941.74C1835.53,-820.33 1431,-166 1431,-166 1431,-166 1045.04,-1139.76 973.75,-1319.62"/>
<polygon fill="#7f7f7f" stroke="#7f7f7f" points="970.48,-1318.37 970.05,-1328.95 976.99,-1320.95 970.48,-1318.37"/>
<text text-anchor="middle" x="1418.5" y="-158" font-family="monospace" font-size="10.00">uses</text>
</g>
<!-- lightning_keystore::keystore::Keystore::init&#45;&gt;lightning_keystore::config::KeystoreConfig -->
<g id="edge25" class="edge">
<title>lightning_keystore::keystore::Keystore::init&#45;&gt;lightning_keystore::config::KeystoreConfig</title>
<path fill="none" stroke="#7f7f7f" stroke-dasharray="5,2" d="M1913.97,-825.02C1848.7,-970.56 1431,-1902 1431,-1902 1431,-1902 1052.24,-2707.22 975.84,-2869.65"/>
<polygon fill="#7f7f7f" stroke="#7f7f7f" points="972.53,-2868.45 971.44,-2878.99 978.86,-2871.43 972.53,-2868.45"/>
<text text-anchor="middle" x="1418.5" y="-1894" font-family="monospace" font-size="10.00">uses</text>
</g>
<!-- lightning_keystore::keystore::Keystore::init&#45;&gt;lightning_keystore::keystore::Keystore -->
<g id="edge26" class="edge">
<title>lightning_keystore::keystore::Keystore::init&#45;&gt;lightning_keystore::keystore::Keystore</title>
<path fill="none" stroke="#7f7f7f" stroke-dasharray="5,2" d="M1910.59,-786.74C1835.53,-665.33 1431,-11 1431,-11 1431,-11 1040.59,-1125.15 972.55,-1319.32"/>
<polygon fill="#7f7f7f" stroke="#7f7f7f" points="969.22,-1318.25 969.21,-1328.84 975.82,-1320.56 969.22,-1318.25"/>
<text text-anchor="middle" x="1418.5" y="-3" font-family="monospace" font-size="10.00">uses</text>
</g>
</g>
</svg>
