<?xml version="1.0" encoding="UTF-8" standalone="no"?>
<!DOCTYPE svg PUBLIC "-//W3C//DTD SVG 1.1//EN"
 "http://www.w3.org/Graphics/SVG/1.1/DTD/svg11.dtd">
<!-- Generated by graphviz version 4.0.0 (0)
 -->
<!-- Pages: 1 -->
<svg width="1131pt" height="1624pt"
 viewBox="0.00 0.00 1130.60 1623.60" xmlns="http://www.w3.org/2000/svg" xmlns:xlink="http://www.w3.org/1999/xlink">
<g id="graph0" class="graph" transform="scale(1 1) rotate(0) translate(28.8 1594.8)">
<polygon fill="white" stroke="transparent" points="-28.8,28.8 -28.8,-1594.8 1101.8,-1594.8 1101.8,28.8 -28.8,28.8"/>
<text text-anchor="middle" x="536.5" y="-1533.2" font-family="Helvetica,sans-Serif" font-size="36.00">lightning_keystore</text>
<!-- lightning_keystore -->
<g id="node1" class="node">
<title>lightning_keystore</title>
<polygon fill="#5397c8" stroke="black" points="0,-905.5 0,-943.5 125,-943.5 125,-905.5 0,-905.5"/>
<text text-anchor="middle" x="62.5" y="-931.5" font-family="monospace" font-size="10.00">crate</text>
<polyline fill="none" stroke="black" points="0,-924.5 125,-924.5 "/>
<text text-anchor="middle" x="62.5" y="-912.5" font-family="monospace" font-size="10.00">lightning_keystore</text>
</g>
<!-- lightning_keystore::config -->
<g id="node2" class="node">
<title>lightning_keystore::config</title>
<polygon fill="#f8c04c" stroke="black" points="894,-1479.5 894,-1517.5 1067,-1517.5 1067,-1479.5 894,-1479.5"/>
<text text-anchor="middle" x="980.5" y="-1505.5" font-family="monospace" font-size="10.00">pub(crate) mod</text>
<polyline fill="none" stroke="black" points="894,-1498.5 1067,-1498.5 "/>
<text text-anchor="middle" x="980.5" y="-1486.5" font-family="monospace" font-size="10.00">lightning_keystore::config</text>
</g>
<!-- lightning_keystore&#45;&gt;lightning_keystore::config -->
<g id="edge1" class="edge">
<title>lightning_keystore&#45;&gt;lightning_keystore::config</title>
<path fill="none" stroke="#000000" d="M82.45,-943.68C167.31,-1025.3 494,-1339.5 494,-1339.5 494,-1339.5 778.74,-1432.56 912.54,-1476.29"/>
<polygon fill="#000000" stroke="#000000" points="911.71,-1479.7 922.3,-1479.48 913.88,-1473.05 911.71,-1479.7"/>
<text text-anchor="middle" x="506.5" y="-1342.5" font-family="monospace" font-size="10.00">owns</text>
</g>
<!-- lightning_keystore&#45;&gt;lightning_keystore::config -->
<g id="edge2" class="edge">
<title>lightning_keystore&#45;&gt;lightning_keystore::config</title>
<path fill="none" stroke="#7f7f7f" stroke-dasharray="5,2" d="M104.22,-943.51C216.91,-994.86 519,-1132.5 519,-1132.5 519,-1132.5 843.56,-1389.9 948.32,-1472.98"/>
<polygon fill="#7f7f7f" stroke="#7f7f7f" points="946.33,-1475.87 956.34,-1479.34 950.68,-1470.38 946.33,-1475.87"/>
<text text-anchor="middle" x="506.5" y="-1124.5" font-family="monospace" font-size="10.00">uses</text>
</g>
<!-- lightning_keystore::keystore -->
<g id="node3" class="node">
<title>lightning_keystore::keystore</title>
<polygon fill="#f8c04c" stroke="black" points="888,-0.5 888,-38.5 1073,-38.5 1073,-0.5 888,-0.5"/>
<text text-anchor="middle" x="980.5" y="-26.5" font-family="monospace" font-size="10.00">pub(crate) mod</text>
<polyline fill="none" stroke="black" points="888,-19.5 1073,-19.5 "/>
<text text-anchor="middle" x="980.5" y="-7.5" font-family="monospace" font-size="10.00">lightning_keystore::keystore</text>
</g>
<!-- lightning_keystore&#45;&gt;lightning_keystore::keystore -->
<g id="edge3" class="edge">
<title>lightning_keystore&#45;&gt;lightning_keystore::keystore</title>
<path fill="none" stroke="#000000" d="M125.24,-912.14C244.92,-888.57 494,-839.5 494,-839.5 494,-839.5 879.05,-190.49 964.03,-47.25"/>
<polygon fill="#000000" stroke="#000000" points="967.1,-48.95 969.19,-38.56 961.08,-45.38 967.1,-48.95"/>
<text text-anchor="middle" x="506.5" y="-842.5" font-family="monospace" font-size="10.00">owns</text>
</g>
<!-- lightning_keystore&#45;&gt;lightning_keystore::keystore -->
<g id="edge4" class="edge">
<title>lightning_keystore&#45;&gt;lightning_keystore::keystore</title>
<path fill="none" stroke="#7f7f7f" stroke-dasharray="5,2" d="M80.68,-905.31C165.58,-815.66 519,-442.5 519,-442.5 519,-442.5 850.96,-138.23 951.8,-45.81"/>
<polygon fill="#7f7f7f" stroke="#7f7f7f" points="954.46,-48.11 959.47,-38.77 949.73,-42.95 954.46,-48.11"/>
<text text-anchor="middle" x="506.5" y="-434.5" font-family="monospace" font-size="10.00">uses</text>
</g>
<!-- lightning_keystore::keystore&#45;&gt;lightning_keystore::config -->
<g id="edge5" class="edge">
<title>lightning_keystore::keystore&#45;&gt;lightning_keystore::config</title>
</g>
<!-- std::fs -->
<g id="node4" class="node">
<title>std::fs</title>
<polygon fill="#81c169" stroke="black" points="18,-771.5 18,-809.5 107,-809.5 107,-771.5 18,-771.5"/>
<text text-anchor="middle" x="62.5" y="-797.5" font-family="monospace" font-size="10.00">external mod</text>
<polyline fill="none" stroke="black" points="18,-790.5 107,-790.5 "/>
<text text-anchor="middle" x="62.5" y="-778.5" font-family="monospace" font-size="10.00">std::fs</text>
</g>
<!-- lightning_keystore::keystore&#45;&gt;std::fs -->
<g id="edge6" class="edge">
<title>lightning_keystore::keystore&#45;&gt;std::fs</title>
<path fill="none" stroke="#7f7f7f" stroke-dasharray="5,2" d="M947.68,-38.56C842.25,-99.79 519,-287.5 519,-287.5 519,-287.5 181.06,-659.86 86.71,-763.83"/>
<polygon fill="#7f7f7f" stroke="#7f7f7f" points="83.97,-761.64 79.84,-771.4 89.15,-766.34 83.97,-761.64"/>
<text text-anchor="middle" x="506.5" y="-279.5" font-family="monospace" font-size="10.00">uses</text>
</g>
</g>
</svg>
