<?xml version="1.0" encoding="UTF-8" standalone="no"?>
<!DOCTYPE svg PUBLIC "-//W3C//DTD SVG 1.1//EN"
 "http://www.w3.org/Graphics/SVG/1.1/DTD/svg11.dtd">
<!-- Generated by graphviz version 4.0.0 (0)
 -->
<!-- Pages: 1 -->
<svg width="442pt" height="240pt"
 viewBox="0.00 0.00 441.75 239.68" xmlns="http://www.w3.org/2000/svg" xmlns:xlink="http://www.w3.org/1999/xlink">
<g id="graph0" class="graph" transform="scale(1 1) rotate(0) translate(28.8 210.88)">
<polygon fill="white" stroke="transparent" points="-28.8,28.8 -28.8,-210.88 412.95,-210.88 412.95,28.8 -28.8,28.8"/>
<text text-anchor="middle" x="192.07" y="-149.28" font-family="Helvetica,sans-Serif" font-size="36.00">lightning_metrics</text>
<!-- lightning_metrics -->
<g id="node1" class="node">
<title>lightning_metrics</title>
<polygon fill="#5397c8" stroke="black" points="134.45,-0.5 134.45,-38.5 253.45,-38.5 253.45,-0.5 134.45,-0.5"/>
<text text-anchor="middle" x="193.95" y="-26.5" font-family="monospace" font-size="10.00">crate</text>
<polyline fill="none" stroke="black" points="134.45,-19.5 253.45,-19.5 "/>
<text text-anchor="middle" x="193.95" y="-7.5" font-family="monospace" font-size="10.00">lightning_metrics</text>
</g>
<!-- lightning_metrics::counter -->
<g id="node2" class="node">
<title>lightning_metrics::counter</title>
<polygon fill="#81c169" stroke="black" points="211.15,-47.5 211.15,-85.5 384.15,-85.5 384.15,-47.5 211.15,-47.5"/>
<text text-anchor="middle" x="297.65" y="-73.5" font-family="monospace" font-size="10.00">pub mod</text>
<polyline fill="none" stroke="black" points="211.15,-66.5 384.15,-66.5 "/>
<text text-anchor="middle" x="297.65" y="-54.5" font-family="monospace" font-size="10.00">lightning_metrics::counter</text>
</g>
<!-- lightning_metrics&#45;&gt;lightning_metrics::counter -->
<g id="edge1" class="edge">
<title>lightning_metrics&#45;&gt;lightning_metrics::counter</title>
<path fill="none" stroke="#000000" d="M236.13,-38.62C239.42,-40.11 242.77,-41.63 246.12,-43.15"/>
<polygon fill="#000000" stroke="#000000" points="244.95,-46.46 255.51,-47.4 247.84,-40.09 244.95,-46.46"/>
<text text-anchor="middle" x="228.63" y="-43.88" font-family="monospace" font-size="10.00">owns</text>
</g>
<!-- lightning_metrics::histogram -->
<g id="node3" class="node">
<title>lightning_metrics::histogram</title>
<polygon fill="#81c169" stroke="black" points="0,-48.51 0,-86.51 185,-86.51 185,-48.51 0,-48.51"/>
<text text-anchor="middle" x="92.5" y="-74.51" font-family="monospace" font-size="10.00">pub mod</text>
<polyline fill="none" stroke="black" points="0,-67.51 185,-67.51 "/>
<text text-anchor="middle" x="92.5" y="-55.51" font-family="monospace" font-size="10.00">lightning_metrics::histogram</text>
</g>
<!-- lightning_metrics&#45;&gt;lightning_metrics::histogram -->
<g id="edge2" class="edge">
<title>lightning_metrics&#45;&gt;lightning_metrics::histogram</title>
<path fill="none" stroke="#000000" d="M153.56,-38.61C149.71,-40.44 145.77,-42.3 141.85,-44.16"/>
<polygon fill="#000000" stroke="#000000" points="140.29,-41.02 132.75,-48.46 143.29,-47.35 140.29,-41.02"/>
<text text-anchor="middle" x="135.21" y="-44.38" font-family="monospace" font-size="10.00">owns</text>
</g>
<!-- lightning_metrics::labels -->
<g id="node4" class="node">
<title>lightning_metrics::labels</title>
<polygon fill="#81c169" stroke="black" points="112.62,-95.58 112.62,-133.58 279.62,-133.58 279.62,-95.58 112.62,-95.58"/>
<text text-anchor="middle" x="196.12" y="-121.58" font-family="monospace" font-size="10.00">pub mod</text>
<polyline fill="none" stroke="black" points="112.62,-114.58 279.62,-114.58 "/>
<text text-anchor="middle" x="196.12" y="-102.58" font-family="monospace" font-size="10.00">lightning_metrics::labels</text>
</g>
<!-- lightning_metrics&#45;&gt;lightning_metrics::labels -->
<g id="edge3" class="edge">
<title>lightning_metrics&#45;&gt;lightning_metrics::labels</title>
<path fill="none" stroke="#000000" d="M194.39,-38.74C194.69,-52.01 195.1,-69.92 195.44,-84.99"/>
<polygon fill="#000000" stroke="#000000" points="191.95,-85.45 195.68,-95.37 198.95,-85.29 191.95,-85.45"/>
<text text-anchor="middle" x="201.17" y="-53.87" font-family="monospace" font-size="10.00">owns</text>
</g>
<!-- lightning_metrics::counter&#45;&gt;lightning_metrics::labels -->
<g id="edge4" class="edge">
<title>lightning_metrics::counter&#45;&gt;lightning_metrics::labels</title>
<path fill="none" stroke="#7f7f7f" stroke-dasharray="5,2" d="M257.23,-85.64C253.37,-87.47 249.43,-89.33 245.5,-91.19"/>
<polygon fill="#7f7f7f" stroke="#7f7f7f" points="243.94,-88.06 236.4,-95.51 246.93,-94.39 243.94,-88.06"/>
<text text-anchor="middle" x="238.86" y="-91.42" font-family="monospace" font-size="10.00">uses</text>
</g>
<!-- lightning_metrics::histogram&#45;&gt;lightning_metrics::labels -->
<g id="edge5" class="edge">
<title>lightning_metrics::histogram&#45;&gt;lightning_metrics::labels</title>
<path fill="none" stroke="#7f7f7f" stroke-dasharray="5,2" d="M134.35,-86.52C137.81,-88.09 141.33,-89.69 144.85,-91.29"/>
<polygon fill="#7f7f7f" stroke="#7f7f7f" points="143.56,-94.55 154.12,-95.5 146.46,-88.17 143.56,-94.55"/>
<text text-anchor="middle" x="127.1" y="-91.9" font-family="monospace" font-size="10.00">uses</text>
</g>
</g>
</svg>
