<?xml version="1.0" encoding="UTF-8" standalone="no"?>
<!DOCTYPE svg PUBLIC "-//W3C//DTD SVG 1.1//EN"
 "http://www.w3.org/Graphics/SVG/1.1/DTD/svg11.dtd">
<!-- Generated by graphviz version 4.0.0 (0)
 -->
<!-- Pages: 1 -->
<svg width="861pt" height="615pt"
 viewBox="0.00 0.00 861.36 615.42" xmlns="http://www.w3.org/2000/svg" xmlns:xlink="http://www.w3.org/1999/xlink">
<g id="graph0" class="graph" transform="scale(1 1) rotate(0) translate(28.8 586.62)">
<polygon fill="white" stroke="transparent" points="-28.8,28.8 -28.8,-586.62 832.56,-586.62 832.56,28.8 -28.8,28.8"/>
<text text-anchor="middle" x="401.88" y="-525.02" font-family="Helvetica,sans-Serif" font-size="36.00">lightning_metrics</text>
<!-- lightning_metrics -->
<g id="node1" class="node">
<title>lightning_metrics</title>
<polygon fill="#5397c8" stroke="black" points="355.88,-314.38 355.88,-352.38 474.88,-352.38 474.88,-314.38 355.88,-314.38"/>
<text text-anchor="middle" x="415.38" y="-340.38" font-family="monospace" font-size="10.00">crate</text>
<polyline fill="none" stroke="black" points="355.88,-333.38 474.88,-333.38 "/>
<text text-anchor="middle" x="415.38" y="-321.38" font-family="monospace" font-size="10.00">lightning_metrics</text>
</g>
<!-- lightning_metrics::counter::Counter -->
<g id="node2" class="node">
<title>lightning_metrics::counter::Counter</title>
<polygon fill="#81c169" stroke="black" points="515.82,-379.39 515.82,-417.39 628.82,-417.39 628.82,-379.39 515.82,-379.39"/>
<text text-anchor="middle" x="572.32" y="-405.39" font-family="monospace" font-size="10.00">pub trait</text>
<polyline fill="none" stroke="black" points="515.82,-398.39 628.82,-398.39 "/>
<text text-anchor="middle" x="572.32" y="-386.39" font-family="monospace" font-size="10.00">counter::Counter</text>
</g>
<!-- lightning_metrics&#45;&gt;lightning_metrics::counter::Counter -->
<g id="edge1" class="edge">
<title>lightning_metrics&#45;&gt;lightning_metrics::counter::Counter</title>
<path fill="none" stroke="#000000" d="M461.62,-352.53C479.02,-359.74 498.98,-368.01 517.12,-375.52"/>
<polygon fill="#000000" stroke="#000000" points="515.83,-378.78 526.41,-379.37 518.51,-372.31 515.83,-378.78"/>
<text text-anchor="middle" x="476.87" y="-367.03" font-family="monospace" font-size="10.00">owns</text>
</g>
<!-- lightning_metrics::histogram::Histogram -->
<g id="node3" class="node">
<title>lightning_metrics::histogram::Histogram</title>
<polygon fill="#81c169" stroke="black" points="411.89,-471.32 411.89,-509.32 548.89,-509.32 548.89,-471.32 411.89,-471.32"/>
<text text-anchor="middle" x="480.39" y="-497.32" font-family="monospace" font-size="10.00">pub trait</text>
<polyline fill="none" stroke="black" points="411.89,-490.32 548.89,-490.32 "/>
<text text-anchor="middle" x="480.39" y="-478.32" font-family="monospace" font-size="10.00">histogram::Histogram</text>
</g>
<!-- lightning_metrics&#45;&gt;lightning_metrics::histogram::Histogram -->
<g id="edge2" class="edge">
<title>lightning_metrics&#45;&gt;lightning_metrics::histogram::Histogram</title>
<path fill="none" stroke="#000000" d="M423.35,-352.62C434.61,-379.8 455.25,-429.65 468.38,-461.32"/>
<polygon fill="#000000" stroke="#000000" points="465.29,-463.02 472.35,-470.92 471.76,-460.34 465.29,-463.02"/>
<text text-anchor="middle" x="433.36" y="-409.97" font-family="monospace" font-size="10.00">owns</text>
</g>
<!-- lightning_metrics::labels::Label -->
<g id="node4" class="node">
<title>lightning_metrics::labels::Label</title>
<polygon fill="#f8c04c" stroke="black" points="296.87,-471.32 296.87,-509.32 403.87,-509.32 403.87,-471.32 296.87,-471.32"/>
<text text-anchor="middle" x="350.37" y="-497.32" font-family="monospace" font-size="10.00">pub(crate) type</text>
<polyline fill="none" stroke="black" points="296.87,-490.32 403.87,-490.32 "/>
<text text-anchor="middle" x="350.37" y="-478.32" font-family="monospace" font-size="10.00">labels::Label</text>
</g>
<!-- lightning_metrics&#45;&gt;lightning_metrics::labels::Label -->
<g id="edge3" class="edge">
<title>lightning_metrics&#45;&gt;lightning_metrics::labels::Label</title>
<path fill="none" stroke="#000000" d="M407.41,-352.62C396.15,-379.8 375.5,-429.65 362.38,-461.32"/>
<polygon fill="#000000" stroke="#000000" points="359,-460.34 358.41,-470.92 365.47,-463.02 359,-460.34"/>
<text text-anchor="middle" x="372.4" y="-409.97" font-family="monospace" font-size="10.00">owns</text>
</g>
<!-- lightning_metrics::labels::Labels -->
<g id="node5" class="node">
<title>lightning_metrics::labels::Labels</title>
<polygon fill="#81c169" stroke="black" points="299.87,-157.44 299.87,-195.44 400.87,-195.44 400.87,-157.44 299.87,-157.44"/>
<text text-anchor="middle" x="350.37" y="-183.44" font-family="monospace" font-size="10.00">pub struct</text>
<polyline fill="none" stroke="black" points="299.87,-176.44 400.87,-176.44 "/>
<text text-anchor="middle" x="350.37" y="-164.44" font-family="monospace" font-size="10.00">labels::Labels</text>
</g>
<!-- lightning_metrics&#45;&gt;lightning_metrics::labels::Labels -->
<g id="edge4" class="edge">
<title>lightning_metrics&#45;&gt;lightning_metrics::labels::Labels</title>
<path fill="none" stroke="#000000" d="M424.53,-314.23C425.77,-286.34 407.51,-235.78 386.93,-204.03"/>
<polygon fill="#000000" stroke="#000000" points="389.66,-201.82 381.08,-195.61 383.91,-205.82 389.66,-201.82"/>
<text text-anchor="middle" x="393.23" y="-262.13" font-family="monospace" font-size="10.00">owns</text>
</g>
<!-- lightning_metrics&#45;&gt;lightning_metrics::labels::Labels -->
<g id="edge5" class="edge">
<title>lightning_metrics&#45;&gt;lightning_metrics::labels::Labels</title>
<path fill="none" stroke="#7f7f7f" stroke-dasharray="5,2" d="M384.59,-314.1C364.12,-286.72 344.34,-237.5 341.51,-205.68"/>
<polygon fill="#7f7f7f" stroke="#7f7f7f" points="345,-205.51 341.22,-195.61 338.01,-205.71 345,-205.51"/>
<text text-anchor="middle" x="350.55" y="-262.89" font-family="monospace" font-size="10.00">uses</text>
</g>
<!-- lightning_metrics::labels::Labels::extract_fn_name -->
<g id="node6" class="node">
<title>lightning_metrics::labels::Labels::extract_fn_name</title>
<polygon fill="#81c169" stroke="black" points="0,-444.39 0,-482.39 203,-482.39 203,-444.39 0,-444.39"/>
<text text-anchor="middle" x="101.5" y="-470.39" font-family="monospace" font-size="10.00">pub fn</text>
<polyline fill="none" stroke="black" points="0,-463.39 203,-463.39 "/>
<text text-anchor="middle" x="101.5" y="-451.39" font-family="monospace" font-size="10.00">labels::Labels::extract_fn_name</text>
</g>
<!-- lightning_metrics::labels::Labels&#45;&gt;lightning_metrics::labels::Labels::extract_fn_name -->
<g id="edge6" class="edge">
<title>lightning_metrics::labels::Labels&#45;&gt;lightning_metrics::labels::Labels::extract_fn_name</title>
<path fill="none" stroke="#000000" d="M333.66,-195.71C290.36,-245.64 174.46,-379.27 124.71,-436.63"/>
<polygon fill="#000000" stroke="#000000" points="122.05,-434.35 118.14,-444.2 127.34,-438.94 122.05,-434.35"/>
<text text-anchor="middle" x="216.68" y="-319.17" font-family="monospace" font-size="10.00">owns</text>
</g>
<!-- lightning_metrics::labels::Labels::increment_by -->
<g id="node7" class="node">
<title>lightning_metrics::labels::Labels::increment_by</title>
<polygon fill="#db5367" stroke="black" points="9,-184.37 9,-222.37 194,-222.37 194,-184.37 9,-184.37"/>
<text text-anchor="middle" x="101.5" y="-210.37" font-family="monospace" font-size="10.00">pub(self) fn</text>
<polyline fill="none" stroke="black" points="9,-203.37 194,-203.37 "/>
<text text-anchor="middle" x="101.5" y="-191.37" font-family="monospace" font-size="10.00">labels::Labels::increment_by</text>
</g>
<!-- lightning_metrics::labels::Labels&#45;&gt;lightning_metrics::labels::Labels::increment_by -->
<g id="edge7" class="edge">
<title>lightning_metrics::labels::Labels&#45;&gt;lightning_metrics::labels::Labels::increment_by</title>
<path fill="none" stroke="#000000" d="M299.71,-181.92C272.21,-184.9 237.19,-188.69 204.26,-192.25"/>
<polygon fill="#000000" stroke="#000000" points="203.68,-188.79 194.12,-193.35 204.44,-195.75 203.68,-188.79"/>
<text text-anchor="middle" x="239.48" y="-190.08" font-family="monospace" font-size="10.00">owns</text>
</g>
<!-- lightning_metrics::labels::Labels::new -->
<g id="node8" class="node">
<title>lightning_metrics::labels::Labels::new</title>
<polygon fill="#81c169" stroke="black" points="219.87,-0.5 219.87,-38.5 350.87,-38.5 350.87,-0.5 219.87,-0.5"/>
<text text-anchor="middle" x="285.37" y="-26.5" font-family="monospace" font-size="10.00">pub fn</text>
<polyline fill="none" stroke="black" points="219.87,-19.5 350.87,-19.5 "/>
<text text-anchor="middle" x="285.37" y="-7.5" font-family="monospace" font-size="10.00">labels::Labels::new</text>
</g>
<!-- lightning_metrics::labels::Labels&#45;&gt;lightning_metrics::labels::Labels::new -->
<g id="edge8" class="edge">
<title>lightning_metrics::labels::Labels&#45;&gt;lightning_metrics::labels::Labels::new</title>
<path fill="none" stroke="#000000" d="M359.52,-157.29C360.77,-129.4 342.5,-78.84 321.93,-47.09"/>
<polygon fill="#000000" stroke="#000000" points="324.66,-44.89 316.07,-38.67 318.91,-48.88 324.66,-44.89"/>
<text text-anchor="middle" x="328.23" y="-105.19" font-family="monospace" font-size="10.00">owns</text>
</g>
<!-- lightning_metrics::labels::Labels::observe -->
<g id="node9" class="node">
<title>lightning_metrics::labels::Labels::observe</title>
<polygon fill="#db5367" stroke="black" points="467.89,-0.5 467.89,-38.5 622.89,-38.5 622.89,-0.5 467.89,-0.5"/>
<text text-anchor="middle" x="545.39" y="-26.5" font-family="monospace" font-size="10.00">pub(self) fn</text>
<polyline fill="none" stroke="black" points="467.89,-19.5 622.89,-19.5 "/>
<text text-anchor="middle" x="545.39" y="-7.5" font-family="monospace" font-size="10.00">labels::Labels::observe</text>
</g>
<!-- lightning_metrics::labels::Labels&#45;&gt;lightning_metrics::labels::Labels::observe -->
<g id="edge9" class="edge">
<title>lightning_metrics::labels::Labels&#45;&gt;lightning_metrics::labels::Labels::observe</title>
<path fill="none" stroke="#000000" d="M374.29,-157.2C409.32,-129 474.68,-76.41 513.68,-45.02"/>
<polygon fill="#000000" stroke="#000000" points="515.99,-47.65 521.59,-38.66 511.6,-42.2 515.99,-47.65"/>
<text text-anchor="middle" x="431.49" y="-104.11" font-family="monospace" font-size="10.00">owns</text>
</g>
<!-- lightning_metrics::labels::Labels::to_vec -->
<g id="node10" class="node">
<title>lightning_metrics::labels::Labels::to_vec</title>
<polygon fill="#81c169" stroke="black" points="654.76,-184.37 654.76,-222.37 803.76,-222.37 803.76,-184.37 654.76,-184.37"/>
<text text-anchor="middle" x="729.26" y="-210.37" font-family="monospace" font-size="10.00">pub fn</text>
<polyline fill="none" stroke="black" points="654.76,-203.37 803.76,-203.37 "/>
<text text-anchor="middle" x="729.26" y="-191.37" font-family="monospace" font-size="10.00">labels::Labels::to_vec</text>
</g>
<!-- lightning_metrics::labels::Labels&#45;&gt;lightning_metrics::labels::Labels::to_vec -->
<g id="edge10" class="edge">
<title>lightning_metrics::labels::Labels&#45;&gt;lightning_metrics::labels::Labels::to_vec</title>
<path fill="none" stroke="#000000" d="M384.84,-195.52C443.04,-211.02 562.4,-221.59 644.13,-220.2"/>
<polygon fill="#000000" stroke="#000000" points="644.49,-223.7 654.41,-219.96 644.33,-216.7 644.49,-223.7"/>
<text text-anchor="middle" x="501.99" y="-210.86" font-family="monospace" font-size="10.00">owns</text>
</g>
<!-- lightning_metrics::labels::Labels::new&#45;&gt;lightning_metrics::labels::Labels -->
<g id="edge11" class="edge">
<title>lightning_metrics::labels::Labels::new&#45;&gt;lightning_metrics::labels::Labels</title>
<path fill="none" stroke="#7f7f7f" stroke-dasharray="5,2" d="M276.21,-38.65C274.97,-66.54 293.23,-117.1 313.81,-148.85"/>
<polygon fill="#7f7f7f" stroke="#7f7f7f" points="311.08,-151.05 319.66,-157.27 316.83,-147.06 311.08,-151.05"/>
<text text-anchor="middle" x="282.51" y="-96.75" font-family="monospace" font-size="10.00">uses</text>
</g>
<!-- lightning_metrics::labels::Labels::to_vec&#45;&gt;lightning_metrics::labels::Labels -->
<g id="edge12" class="edge">
<title>lightning_metrics::labels::Labels::to_vec&#45;&gt;lightning_metrics::labels::Labels</title>
<path fill="none" stroke="#7f7f7f" stroke-dasharray="5,2" d="M694.79,-184.29C630.49,-167.16 491.54,-156.06 411.16,-160.44"/>
<polygon fill="#7f7f7f" stroke="#7f7f7f" points="410.93,-156.95 401.17,-161.09 411.38,-163.93 410.93,-156.95"/>
<text text-anchor="middle" x="540.47" y="-175.36" font-family="monospace" font-size="10.00">uses</text>
</g>
</g>
</svg>
