<?xml version="1.0" encoding="UTF-8" standalone="no"?>
<!DOCTYPE svg PUBLIC "-//W3C//DTD SVG 1.1//EN"
 "http://www.w3.org/Graphics/SVG/1.1/DTD/svg11.dtd">
<!-- Generated by graphviz version 4.0.0 (0)
 -->
<!-- Pages: 1 -->
<svg width="384pt" height="168pt"
 viewBox="0.00 0.00 383.60 168.22" xmlns="http://www.w3.org/2000/svg" xmlns:xlink="http://www.w3.org/1999/xlink">
<g id="graph0" class="graph" transform="scale(1 1) rotate(0) translate(28.8 139.42)">
<polygon fill="white" stroke="transparent" points="-28.8,28.8 -28.8,-139.42 354.8,-139.42 354.8,28.8 -28.8,28.8"/>
<text text-anchor="middle" x="163" y="-77.82" font-family="Helvetica,sans-Serif" font-size="36.00">resolved_pathbuf</text>
<!-- resolved_pathbuf -->
<g id="node1" class="node">
<title>resolved_pathbuf</title>
<polygon fill="#5397c8" stroke="black" points="15.99,-23.06 15.99,-61.06 128.99,-61.06 128.99,-23.06 15.99,-23.06"/>
<text text-anchor="middle" x="72.49" y="-49.06" font-family="monospace" font-size="10.00">crate</text>
<polyline fill="none" stroke="black" points="15.99,-42.06 128.99,-42.06 "/>
<text text-anchor="middle" x="72.49" y="-30.06" font-family="monospace" font-size="10.00">resolved_pathbuf</text>
</g>
<!-- resolved_pathbuf::std_impl -->
<g id="node2" class="node">
<title>resolved_pathbuf::std_impl</title>
<polygon fill="#f8c04c" stroke="black" points="137.01,-0.5 137.01,-38.5 310.01,-38.5 310.01,-0.5 137.01,-0.5"/>
<text text-anchor="middle" x="223.51" y="-26.5" font-family="monospace" font-size="10.00">pub(crate) mod</text>
<polyline fill="none" stroke="black" points="137.01,-19.5 310.01,-19.5 "/>
<text text-anchor="middle" x="223.51" y="-7.5" font-family="monospace" font-size="10.00">resolved_pathbuf::std_impl</text>
</g>
<!-- resolved_pathbuf&#45;&gt;resolved_pathbuf::std_impl -->
<g id="edge1" class="edge">
<title>resolved_pathbuf&#45;&gt;resolved_pathbuf::std_impl</title>
<path fill="none" stroke="#000000" d="M129.14,-59.77C154.57,-58.53 183.04,-52.48 202.03,-43.47"/>
<polygon fill="#000000" stroke="#000000" points="203.96,-46.41 211.02,-38.51 200.57,-40.28 203.96,-46.41"/>
<text text-anchor="middle" x="153.08" y="-54.62" font-family="monospace" font-size="10.00">owns</text>
</g>
<!-- resolved_pathbuf::std_impl&#45;&gt;resolved_pathbuf -->
<g id="edge2" class="edge">
<title>resolved_pathbuf::std_impl&#45;&gt;resolved_pathbuf</title>
<path fill="none" stroke="#7f7f7f" stroke-dasharray="5,2" d="M136.96,-5.24C121.1,-8.09 105.91,-12.47 94.25,-17.96"/>
<polygon fill="#7f7f7f" stroke="#7f7f7f" points="92.44,-14.96 85.34,-22.82 95.8,-21.1 92.44,-14.96"/>
<text text-anchor="middle" x="103.1" y="-14.6" font-family="monospace" font-size="10.00">uses</text>
</g>
</g>
</svg>
