<?xml version="1.0" encoding="UTF-8" standalone="no"?>
<!DOCTYPE svg PUBLIC "-//W3C//DTD SVG 1.1//EN"
 "http://www.w3.org/Graphics/SVG/1.1/DTD/svg11.dtd">
<!-- Generated by graphviz version 4.0.0 (0)
 -->
<!-- Pages: 1 -->
<svg width="813pt" height="710pt"
 viewBox="0.00 0.00 813.41 710.16" xmlns="http://www.w3.org/2000/svg" xmlns:xlink="http://www.w3.org/1999/xlink">
<g id="graph0" class="graph" transform="scale(1 1) rotate(0) translate(28.8 681.36)">
<polygon fill="white" stroke="transparent" points="-28.8,28.8 -28.8,-681.36 784.61,-681.36 784.61,28.8 -28.8,28.8"/>
<text text-anchor="middle" x="377.9" y="-619.76" font-family="Helvetica,sans-Serif" font-size="36.00">cdk_rust</text>
<!-- cdk_rust -->
<g id="node1" class="node">
<title>cdk_rust</title>
<polygon fill="#5397c8" stroke="black" points="441.08,-386.53 441.08,-424.53 506.08,-424.53 506.08,-386.53 441.08,-386.53"/>
<text text-anchor="middle" x="473.58" y="-412.53" font-family="monospace" font-size="10.00">crate</text>
<polyline fill="none" stroke="black" points="441.08,-405.53 506.08,-405.53 "/>
<text text-anchor="middle" x="473.58" y="-393.53" font-family="monospace" font-size="10.00">cdk_rust</text>
</g>
<!-- cdk_rust::builder -->
<g id="node2" class="node">
<title>cdk_rust::builder</title>
<polygon fill="#f8c04c" stroke="black" points="323.78,-317.8 323.78,-355.8 442.78,-355.8 442.78,-317.8 323.78,-317.8"/>
<text text-anchor="middle" x="383.28" y="-343.8" font-family="monospace" font-size="10.00">pub(crate) mod</text>
<polyline fill="none" stroke="black" points="323.78,-336.8 442.78,-336.8 "/>
<text text-anchor="middle" x="383.28" y="-324.8" font-family="monospace" font-size="10.00">cdk_rust::builder</text>
</g>
<!-- cdk_rust&#45;&gt;cdk_rust::builder -->
<g id="edge1" class="edge">
<title>cdk_rust&#45;&gt;cdk_rust::builder</title>
<path fill="none" stroke="#000000" d="M475.21,-386.1C471.53,-375.78 462.32,-364.45 450.97,-354.69"/>
<polygon fill="#000000" stroke="#000000" points="452.83,-351.69 442.82,-348.22 448.47,-357.18 452.83,-351.69"/>
<text text-anchor="middle" x="450.59" y="-373.4" font-family="monospace" font-size="10.00">owns</text>
</g>
<!-- cdk_rust&#45;&gt;cdk_rust::builder -->
<g id="edge2" class="edge">
<title>cdk_rust&#45;&gt;cdk_rust::builder</title>
<path fill="none" stroke="#7f7f7f" stroke-dasharray="5,2" d="M441.05,-409C420.44,-401.53 396.83,-382.9 385.96,-365.08"/>
<polygon fill="#7f7f7f" stroke="#7f7f7f" points="389.03,-363.37 381.52,-355.89 382.72,-366.42 389.03,-363.37"/>
<text text-anchor="middle" x="401.01" y="-390.04" font-family="monospace" font-size="10.00">uses</text>
</g>
<!-- cdk_rust::connection -->
<g id="node3" class="node">
<title>cdk_rust::connection</title>
<polygon fill="#f8c04c" stroke="black" points="236.01,-270.8 236.01,-308.8 373.01,-308.8 373.01,-270.8 236.01,-270.8"/>
<text text-anchor="middle" x="304.51" y="-296.8" font-family="monospace" font-size="10.00">pub(crate) mod</text>
<polyline fill="none" stroke="black" points="236.01,-289.8 373.01,-289.8 "/>
<text text-anchor="middle" x="304.51" y="-277.8" font-family="monospace" font-size="10.00">cdk_rust::connection</text>
</g>
<!-- cdk_rust&#45;&gt;cdk_rust::connection -->
<g id="edge3" class="edge">
<title>cdk_rust&#45;&gt;cdk_rust::connection</title>
<path fill="none" stroke="#000000" d="M445.67,-386.42C417.03,-366.82 372.36,-336.24 340.95,-314.74"/>
<polygon fill="#000000" stroke="#000000" points="342.7,-311.7 332.47,-308.94 338.75,-317.47 342.7,-311.7"/>
<text text-anchor="middle" x="380.81" y="-353.58" font-family="monospace" font-size="10.00">owns</text>
</g>
<!-- cdk_rust::context -->
<g id="node4" class="node">
<title>cdk_rust::context</title>
<polygon fill="#f8c04c" stroke="black" points="291.8,-483.73 291.8,-521.73 410.8,-521.73 410.8,-483.73 291.8,-483.73"/>
<text text-anchor="middle" x="351.3" y="-509.73" font-family="monospace" font-size="10.00">pub(crate) mod</text>
<polyline fill="none" stroke="black" points="291.8,-502.73 410.8,-502.73 "/>
<text text-anchor="middle" x="351.3" y="-490.73" font-family="monospace" font-size="10.00">cdk_rust::context</text>
</g>
<!-- cdk_rust&#45;&gt;cdk_rust::context -->
<g id="edge4" class="edge">
<title>cdk_rust&#45;&gt;cdk_rust::context</title>
<path fill="none" stroke="#000000" d="M449.43,-424.74C430.5,-439.78 404,-460.84 383.31,-477.29"/>
<polygon fill="#000000" stroke="#000000" points="381.06,-474.6 375.41,-483.57 385.42,-480.08 381.06,-474.6"/>
<text text-anchor="middle" x="403.87" y="-454.01" font-family="monospace" font-size="10.00">owns</text>
</g>
<!-- cdk_rust::frame -->
<g id="node5" class="node">
<title>cdk_rust::frame</title>
<polygon fill="#f8c04c" stroke="black" points="509.57,-566.06 509.57,-604.06 616.57,-604.06 616.57,-566.06 509.57,-566.06"/>
<text text-anchor="middle" x="563.07" y="-592.06" font-family="monospace" font-size="10.00">pub(crate) mod</text>
<polyline fill="none" stroke="black" points="509.57,-585.06 616.57,-585.06 "/>
<text text-anchor="middle" x="563.07" y="-573.06" font-family="monospace" font-size="10.00">cdk_rust::frame</text>
</g>
<!-- cdk_rust&#45;&gt;cdk_rust::frame -->
<g id="edge5" class="edge">
<title>cdk_rust&#45;&gt;cdk_rust::frame</title>
<path fill="none" stroke="#000000" d="M483.16,-424.75C498.97,-456.47 530.61,-519.94 548.97,-556.79"/>
<polygon fill="#000000" stroke="#000000" points="545.97,-558.6 553.56,-565.99 552.23,-555.48 545.97,-558.6"/>
<text text-anchor="middle" x="503.57" y="-493.77" font-family="monospace" font-size="10.00">owns</text>
</g>
<!-- cdk_rust::mode -->
<g id="node6" class="node">
<title>cdk_rust::mode</title>
<polygon fill="#f8c04c" stroke="black" points="196.93,-414.44 196.93,-452.44 297.93,-452.44 297.93,-414.44 196.93,-414.44"/>
<text text-anchor="middle" x="247.43" y="-440.44" font-family="monospace" font-size="10.00">pub(crate) mod</text>
<polyline fill="none" stroke="black" points="196.93,-433.44 297.93,-433.44 "/>
<text text-anchor="middle" x="247.43" y="-421.44" font-family="monospace" font-size="10.00">cdk_rust::mode</text>
</g>
<!-- cdk_rust&#45;&gt;cdk_rust::mode -->
<g id="edge6" class="edge">
<title>cdk_rust&#45;&gt;cdk_rust::mode</title>
<path fill="none" stroke="#000000" d="M440.7,-409.59C406.11,-413.86 350.89,-420.67 308.31,-425.93"/>
<polygon fill="#000000" stroke="#000000" points="307.83,-422.46 298.33,-427.16 308.69,-429.41 307.83,-422.46"/>
<text text-anchor="middle" x="362.01" y="-420.76" font-family="monospace" font-size="10.00">owns</text>
</g>
<!-- cdk_rust::transport -->
<g id="node8" class="node">
<title>cdk_rust::transport</title>
<polygon fill="#81c169" stroke="black" points="401.71,-181.55 401.71,-219.55 532.71,-219.55 532.71,-181.55 401.71,-181.55"/>
<text text-anchor="middle" x="467.21" y="-207.55" font-family="monospace" font-size="10.00">pub mod</text>
<polyline fill="none" stroke="black" points="401.71,-200.55 532.71,-200.55 "/>
<text text-anchor="middle" x="467.21" y="-188.55" font-family="monospace" font-size="10.00">cdk_rust::transport</text>
</g>
<!-- cdk_rust&#45;&gt;cdk_rust::transport -->
<g id="edge7" class="edge">
<title>cdk_rust&#45;&gt;cdk_rust::transport</title>
<path fill="none" stroke="#000000" d="M472.98,-386.25C471.86,-350.14 469.44,-272.15 468.12,-229.63"/>
<polygon fill="#000000" stroke="#000000" points="471.61,-229.52 467.81,-219.63 464.62,-229.74 471.61,-229.52"/>
<text text-anchor="middle" x="458.05" y="-310.94" font-family="monospace" font-size="10.00">owns</text>
</g>
<!-- lightning_schema::handshake -->
<g id="node10" class="node">
<title>lightning_schema::handshake</title>
<polygon fill="#81c169" stroke="black" points="576.81,-372.49 576.81,-410.49 755.81,-410.49 755.81,-372.49 576.81,-372.49"/>
<text text-anchor="middle" x="666.31" y="-398.49" font-family="monospace" font-size="10.00">external mod</text>
<polyline fill="none" stroke="black" points="576.81,-391.49 755.81,-391.49 "/>
<text text-anchor="middle" x="666.31" y="-379.49" font-family="monospace" font-size="10.00">lightning_schema::handshake</text>
</g>
<!-- cdk_rust&#45;&gt;lightning_schema::handshake -->
<g id="edge8" class="edge">
<title>cdk_rust&#45;&gt;lightning_schema::handshake</title>
<path fill="none" stroke="#7f7f7f" stroke-dasharray="5,2" d="M506.28,-403.15C523.13,-401.92 544.7,-400.35 566.49,-398.77"/>
<polygon fill="#7f7f7f" stroke="#7f7f7f" points="566.79,-402.25 576.51,-398.04 566.28,-395.27 566.79,-402.25"/>
<text text-anchor="middle" x="523.88" y="-403.96" font-family="monospace" font-size="10.00">uses</text>
</g>
<!-- cdk_rust::builder&#45;&gt;cdk_rust::connection -->
<g id="edge9" class="edge">
<title>cdk_rust::builder&#45;&gt;cdk_rust::connection</title>
<path fill="none" stroke="#7f7f7f" stroke-dasharray="5,2" d="M351.24,-317.68C349.27,-316.51 347.27,-315.31 345.27,-314.12"/>
<polygon fill="#7f7f7f" stroke="#7f7f7f" points="346.9,-311.02 336.52,-308.9 343.31,-317.03 346.9,-311.02"/>
<text text-anchor="middle" x="335.75" y="-307.9" font-family="monospace" font-size="10.00">uses</text>
</g>
<!-- cdk_rust::builder&#45;&gt;cdk_rust::context -->
<g id="edge10" class="edge">
<title>cdk_rust::builder&#45;&gt;cdk_rust::context</title>
<path fill="none" stroke="#7f7f7f" stroke-dasharray="5,2" d="M379.61,-355.84C374.06,-384.64 363.48,-439.53 356.95,-473.45"/>
<polygon fill="#7f7f7f" stroke="#7f7f7f" points="353.43,-473.18 354.98,-483.66 360.31,-474.51 353.43,-473.18"/>
<text text-anchor="middle" x="355.78" y="-406.64" font-family="monospace" font-size="10.00">uses</text>
</g>
<!-- cdk_rust::builder&#45;&gt;cdk_rust::mode -->
<g id="edge11" class="edge">
<title>cdk_rust::builder&#45;&gt;cdk_rust::mode</title>
<path fill="none" stroke="#7f7f7f" stroke-dasharray="5,2" d="M356.44,-355.89C335.23,-370.98 305.45,-392.16 282.38,-408.58"/>
<polygon fill="#7f7f7f" stroke="#7f7f7f" points="280.33,-405.74 274.21,-414.39 284.39,-411.44 280.33,-405.74"/>
<text text-anchor="middle" x="306.91" y="-385.24" font-family="monospace" font-size="10.00">uses</text>
</g>
<!-- cdk_rust::builder&#45;&gt;cdk_rust::transport -->
<g id="edge12" class="edge">
<title>cdk_rust::builder&#45;&gt;cdk_rust::transport</title>
<path fill="none" stroke="#7f7f7f" stroke-dasharray="5,2" d="M395.12,-317.57C409.43,-294.34 433.62,-255.08 449.99,-228.51"/>
<polygon fill="#7f7f7f" stroke="#7f7f7f" points="453.16,-230.04 455.42,-219.69 447.2,-226.36 453.16,-230.04"/>
<text text-anchor="middle" x="410.06" y="-276.04" font-family="monospace" font-size="10.00">uses</text>
</g>
<!-- cdk_rust::connection&#45;&gt;cdk_rust::context -->
<g id="edge13" class="edge">
<title>cdk_rust::connection&#45;&gt;cdk_rust::context</title>
<path fill="none" stroke="#7f7f7f" stroke-dasharray="5,2" d="M308.75,-309.07C316.99,-346.6 335.25,-429.67 344.95,-473.83"/>
<polygon fill="#7f7f7f" stroke="#7f7f7f" points="341.55,-474.64 347.11,-483.65 348.38,-473.14 341.55,-474.64"/>
<text text-anchor="middle" x="339.35" y="-394.45" font-family="monospace" font-size="10.00">uses</text>
</g>
<!-- cdk_rust::connection&#45;&gt;cdk_rust::mode -->
<g id="edge14" class="edge">
<title>cdk_rust::connection&#45;&gt;cdk_rust::mode</title>
<path fill="none" stroke="#7f7f7f" stroke-dasharray="5,2" d="M296.93,-308.87C287.16,-333.45 270.1,-376.39 258.78,-404.87"/>
<polygon fill="#7f7f7f" stroke="#7f7f7f" points="255.48,-403.7 255.04,-414.29 261.98,-406.29 255.48,-403.7"/>
<text text-anchor="middle" x="265.36" y="-359.87" font-family="monospace" font-size="10.00">uses</text>
</g>
<!-- cdk_rust::connection&#45;&gt;cdk_rust::transport -->
<g id="edge15" class="edge">
<title>cdk_rust::connection&#45;&gt;cdk_rust::transport</title>
<path fill="none" stroke="#7f7f7f" stroke-dasharray="5,2" d="M339.41,-270.65C363.97,-257.18 397.02,-239.05 423.36,-224.61"/>
<polygon fill="#7f7f7f" stroke="#7f7f7f" points="425.28,-227.54 432.37,-219.66 421.92,-221.41 425.28,-227.54"/>
<text text-anchor="middle" x="368.88" y="-250.63" font-family="monospace" font-size="10.00">uses</text>
</g>
<!-- cdk_rust::context&#45;&gt;cdk_rust::mode -->
<g id="edge16" class="edge">
<title>cdk_rust::context&#45;&gt;cdk_rust::mode</title>
<path fill="none" stroke="#7f7f7f" stroke-dasharray="5,2" d="M322.64,-483.61C310.84,-475.74 297,-466.51 284.44,-458.13"/>
<polygon fill="#7f7f7f" stroke="#7f7f7f" points="286.25,-455.13 275.99,-452.5 282.37,-460.96 286.25,-455.13"/>
<text text-anchor="middle" x="291.04" y="-473.87" font-family="monospace" font-size="10.00">uses</text>
</g>
<!-- cdk_rust::mode::sealed -->
<g id="node7" class="node">
<title>cdk_rust::mode::sealed</title>
<polygon fill="#db5367" stroke="black" points="0,-479.85 0,-517.85 149,-517.85 149,-479.85 0,-479.85"/>
<text text-anchor="middle" x="74.5" y="-505.85" font-family="monospace" font-size="10.00">pub(self) mod</text>
<polyline fill="none" stroke="black" points="0,-498.85 149,-498.85 "/>
<text text-anchor="middle" x="74.5" y="-486.85" font-family="monospace" font-size="10.00">cdk_rust::mode::sealed</text>
</g>
<!-- cdk_rust::mode&#45;&gt;cdk_rust::mode::sealed -->
<g id="edge17" class="edge">
<title>cdk_rust::mode&#45;&gt;cdk_rust::mode::sealed</title>
<path fill="none" stroke="#000000" d="M196.78,-427.38C160.37,-434.93 113.89,-454.24 89.85,-473.03"/>
<polygon fill="#000000" stroke="#000000" points="87.54,-470.4 82.33,-479.63 92.16,-475.66 87.54,-470.4"/>
<text text-anchor="middle" x="130.81" y="-453.2" font-family="monospace" font-size="10.00">owns</text>
</g>
<!-- cdk_rust::mode::sealed&#45;&gt;cdk_rust::mode -->
<g id="edge18" class="edge">
<title>cdk_rust::mode::sealed&#45;&gt;cdk_rust::mode</title>
<path fill="none" stroke="#7f7f7f" stroke-dasharray="5,2" d="M149.17,-498.69C180.11,-489.26 213.06,-474.1 232.05,-459.28"/>
<polygon fill="#7f7f7f" stroke="#7f7f7f" points="234.54,-461.74 239.74,-452.51 229.92,-456.49 234.54,-461.74"/>
<text text-anchor="middle" x="178.11" y="-481.98" font-family="monospace" font-size="10.00">uses</text>
</g>
<!-- cdk_rust::transport::tcp -->
<g id="node9" class="node">
<title>cdk_rust::transport::tcp</title>
<polygon fill="#81c169" stroke="black" points="422.27,-0.5 422.27,-38.5 583.27,-38.5 583.27,-0.5 422.27,-0.5"/>
<text text-anchor="middle" x="502.77" y="-26.5" font-family="monospace" font-size="10.00">pub mod</text>
<polyline fill="none" stroke="black" points="422.27,-19.5 583.27,-19.5 "/>
<text text-anchor="middle" x="502.77" y="-7.5" font-family="monospace" font-size="10.00">cdk_rust::transport::tcp</text>
</g>
<!-- cdk_rust::transport&#45;&gt;cdk_rust::transport::tcp -->
<g id="edge19" class="edge">
<title>cdk_rust::transport&#45;&gt;cdk_rust::transport::tcp</title>
<path fill="none" stroke="#000000" d="M490.06,-181.22C507.3,-149.44 519.98,-86.32 516.89,-48.96"/>
<polygon fill="#000000" stroke="#000000" points="520.31,-48.15 515.5,-38.71 513.38,-49.09 520.31,-48.15"/>
<text text-anchor="middle" x="490.97" y="-118.09" font-family="monospace" font-size="10.00">owns</text>
</g>
<!-- cdk_rust::transport::tcp&#45;&gt;cdk_rust::transport -->
<g id="edge20" class="edge">
<title>cdk_rust::transport::tcp&#45;&gt;cdk_rust::transport</title>
<path fill="none" stroke="#7f7f7f" stroke-dasharray="5,2" d="M479.93,-38.83C462.69,-70.61 450,-133.74 453.09,-171.09"/>
<polygon fill="#7f7f7f" stroke="#7f7f7f" points="449.67,-171.9 454.48,-181.34 456.61,-170.97 449.67,-171.9"/>
<text text-anchor="middle" x="454.01" y="-107.96" font-family="monospace" font-size="10.00">uses</text>
</g>
</g>
</svg>
