<?xml version="1.0" encoding="UTF-8" standalone="no"?>
<!DOCTYPE svg PUBLIC "-//W3C//DTD SVG 1.1//EN"
 "http://www.w3.org/Graphics/SVG/1.1/DTD/svg11.dtd">
<!-- Generated by graphviz version 4.0.0 (0)
 -->
<!-- Pages: 1 -->
<svg width="1131pt" height="1624pt"
 viewBox="0.00 0.00 1130.60 1623.60" xmlns="http://www.w3.org/2000/svg" xmlns:xlink="http://www.w3.org/1999/xlink">
<g id="graph0" class="graph" transform="scale(1 1) rotate(0) translate(28.8 1594.8)">
<polygon fill="white" stroke="transparent" points="-28.8,28.8 -28.8,-1594.8 1101.8,-1594.8 1101.8,28.8 -28.8,28.8"/>
<text text-anchor="middle" x="536.5" y="-1533.2" font-family="Helvetica,sans-Serif" font-size="36.00">lightning_keystore</text>
<!-- fdi -->
<g id="node1" class="node">
<title>fdi</title>
<polygon fill="#5397c8" stroke="black" points="12,-885.5 12,-923.5 113,-923.5 113,-885.5 12,-885.5"/>
<text text-anchor="middle" x="62.5" y="-911.5" font-family="monospace" font-size="10.00">external crate</text>
<polyline fill="none" stroke="black" points="12,-904.5 113,-904.5 "/>
<text text-anchor="middle" x="62.5" y="-892.5" font-family="monospace" font-size="10.00">fdi</text>
</g>
<!-- lightning_keystore -->
<g id="node2" class="node">
<title>lightning_keystore</title>
<polygon fill="#5397c8" stroke="black" points="0,-635.5 0,-673.5 125,-673.5 125,-635.5 0,-635.5"/>
<text text-anchor="middle" x="62.5" y="-661.5" font-family="monospace" font-size="10.00">crate</text>
<polyline fill="none" stroke="black" points="0,-654.5 125,-654.5 "/>
<text text-anchor="middle" x="62.5" y="-642.5" font-family="monospace" font-size="10.00">lightning_keystore</text>
</g>
<!-- lightning_keystore::config -->
<g id="node3" class="node">
<title>lightning_keystore::config</title>
<polygon fill="#f8c04c" stroke="black" points="894,-1479.5 894,-1517.5 1067,-1517.5 1067,-1479.5 894,-1479.5"/>
<text text-anchor="middle" x="980.5" y="-1505.5" font-family="monospace" font-size="10.00">pub(crate) mod</text>
<polyline fill="none" stroke="black" points="894,-1498.5 1067,-1498.5 "/>
<text text-anchor="middle" x="980.5" y="-1486.5" font-family="monospace" font-size="10.00">lightning_keystore::config</text>
</g>
<!-- lightning_keystore&#45;&gt;lightning_keystore::config -->
<g id="edge1" class="edge">
<title>lightning_keystore&#45;&gt;lightning_keystore::config</title>
<path fill="none" stroke="#000000" d="M74.95,-673.71C145.7,-782.91 494,-1320.5 494,-1320.5 494,-1320.5 788.03,-1428.08 918.92,-1475.97"/>
<polygon fill="#000000" stroke="#000000" points="917.84,-1479.3 928.44,-1479.45 920.25,-1472.73 917.84,-1479.3"/>
<text text-anchor="middle" x="506.5" y="-1323.5" font-family="monospace" font-size="10.00">owns</text>
</g>
<!-- lightning_keystore&#45;&gt;lightning_keystore::config -->
<g id="edge2" class="edge">
<title>lightning_keystore&#45;&gt;lightning_keystore::config</title>
<path fill="none" stroke="#7f7f7f" stroke-dasharray="5,2" d="M84.21,-673.62C174.93,-753.51 519,-1056.5 519,-1056.5 519,-1056.5 853.87,-1377.22 953.11,-1472.26"/>
<polygon fill="#7f7f7f" stroke="#7f7f7f" points="950.73,-1474.83 960.37,-1479.22 955.57,-1469.78 950.73,-1474.83"/>
<text text-anchor="middle" x="506.5" y="-1048.5" font-family="monospace" font-size="10.00">uses</text>
</g>
<!-- lightning_keystore::keystore -->
<g id="node4" class="node">
<title>lightning_keystore::keystore</title>
<polygon fill="#f8c04c" stroke="black" points="888,-0.5 888,-38.5 1073,-38.5 1073,-0.5 888,-0.5"/>
<text text-anchor="middle" x="980.5" y="-26.5" font-family="monospace" font-size="10.00">pub(crate) mod</text>
<polyline fill="none" stroke="black" points="888,-19.5 1073,-19.5 "/>
<text text-anchor="middle" x="980.5" y="-7.5" font-family="monospace" font-size="10.00">lightning_keystore::keystore</text>
</g>
<!-- lightning_keystore&#45;&gt;lightning_keystore::keystore -->
<g id="edge3" class="edge">
<title>lightning_keystore&#45;&gt;lightning_keystore::keystore</title>
<path fill="none" stroke="#000000" d="M125.24,-653.92C244.92,-652.81 494,-650.5 494,-650.5 494,-650.5 866.07,-167.92 959.44,-46.81"/>
<polygon fill="#000000" stroke="#000000" points="962.34,-48.79 965.67,-38.73 956.8,-44.51 962.34,-48.79"/>
<text text-anchor="middle" x="506.5" y="-653.5" font-family="monospace" font-size="10.00">owns</text>
</g>
<!-- lightning_keystore&#45;&gt;lightning_keystore::keystore -->
<g id="edge4" class="edge">
<title>lightning_keystore&#45;&gt;lightning_keystore::keystore</title>
<path fill="none" stroke="#7f7f7f" stroke-dasharray="5,2" d="M114.12,-635.48C228.65,-593.28 494,-495.5 494,-495.5 494,-495.5 851.68,-145.54 953.66,-45.76"/>
<polygon fill="#7f7f7f" stroke="#7f7f7f" points="956.13,-48.24 960.83,-38.75 951.23,-43.24 956.13,-48.24"/>
<text text-anchor="middle" x="506.5" y="-498.5" font-family="monospace" font-size="10.00">uses</text>
</g>
<!-- lightning_keystore::keystore&#45;&gt;fdi -->
<g id="edge5" class="edge">
<title>lightning_keystore::keystore&#45;&gt;fdi</title>
<path fill="none" stroke="#7f7f7f" stroke-dasharray="5,2" d="M974.08,-38.71C916.7,-210.43 494,-1475.5 494,-1475.5 494,-1475.5 169.6,-1046.23 83.35,-932.09"/>
<polygon fill="#7f7f7f" stroke="#7f7f7f" points="85.93,-929.69 77.1,-923.83 80.34,-933.91 85.93,-929.69"/>
<text text-anchor="middle" x="506.5" y="-1478.5" font-family="monospace" font-size="10.00">uses</text>
</g>
<!-- lightning_keystore::keystore&#45;&gt;lightning_keystore::config -->
<g id="edge6" class="edge">
<title>lightning_keystore::keystore&#45;&gt;lightning_keystore::config</title>
</g>
<!-- lightning_schema -->
<g id="node5" class="node">
<title>lightning_schema</title>
<polygon fill="#5397c8" stroke="black" points="6,-521.5 6,-559.5 119,-559.5 119,-521.5 6,-521.5"/>
<text text-anchor="middle" x="62.5" y="-547.5" font-family="monospace" font-size="10.00">external crate</text>
<polyline fill="none" stroke="black" points="6,-540.5 119,-540.5 "/>
<text text-anchor="middle" x="62.5" y="-528.5" font-family="monospace" font-size="10.00">lightning_schema</text>
</g>
<!-- lightning_keystore::keystore&#45;&gt;lightning_schema -->
<g id="edge7" class="edge">
<title>lightning_keystore::keystore&#45;&gt;lightning_schema</title>
<path fill="none" stroke="#7f7f7f" stroke-dasharray="5,2" d="M951.52,-38.62C846.79,-107.72 494,-340.5 494,-340.5 494,-340.5 227.09,-464.21 113.11,-517.04"/>
<polygon fill="#7f7f7f" stroke="#7f7f7f" points="111.48,-513.94 103.87,-521.32 114.42,-520.29 111.48,-513.94"/>
<text text-anchor="middle" x="506.5" y="-343.5" font-family="monospace" font-size="10.00">uses</text>
</g>
<!-- lightning_types -->
<g id="node6" class="node">
<title>lightning_types</title>
<polygon fill="#5397c8" stroke="black" points="9,-404.5 9,-442.5 116,-442.5 116,-404.5 9,-404.5"/>
<text text-anchor="middle" x="62.5" y="-430.5" font-family="monospace" font-size="10.00">external crate</text>
<polyline fill="none" stroke="black" points="9,-423.5 116,-423.5 "/>
<text text-anchor="middle" x="62.5" y="-411.5" font-family="monospace" font-size="10.00">lightning_types</text>
</g>
<!-- lightning_keystore::keystore&#45;&gt;lightning_types -->
<g id="edge8" class="edge">
<title>lightning_keystore::keystore&#45;&gt;lightning_types</title>
<path fill="none" stroke="#7f7f7f" stroke-dasharray="5,2" d="M930.67,-38.61C811.34,-84.38 519,-196.5 519,-196.5 519,-196.5 227.11,-341.65 110.14,-399.81"/>
<polygon fill="#7f7f7f" stroke="#7f7f7f" points="108.42,-396.76 101.03,-404.34 111.54,-403.02 108.42,-396.76"/>
<text text-anchor="middle" x="506.5" y="-188.5" font-family="monospace" font-size="10.00">uses</text>
</g>
<!-- std::fs -->
<g id="node7" class="node">
<title>std::fs</title>
<polygon fill="#81c169" stroke="black" points="18,-281.5 18,-319.5 107,-319.5 107,-281.5 18,-281.5"/>
<text text-anchor="middle" x="62.5" y="-307.5" font-family="monospace" font-size="10.00">external mod</text>
<polyline fill="none" stroke="black" points="18,-300.5 107,-300.5 "/>
<text text-anchor="middle" x="62.5" y="-288.5" font-family="monospace" font-size="10.00">std::fs</text>
</g>
<!-- lightning_keystore::keystore&#45;&gt;std::fs -->
<g id="edge9" class="edge">
<title>lightning_keystore::keystore&#45;&gt;std::fs</title>
<path fill="none" stroke="#7f7f7f" stroke-dasharray="5,2" d="M887.94,-23.91C753.22,-30.33 519,-41.5 519,-41.5 519,-41.5 218.01,-212.27 104.84,-276.48"/>
<polygon fill="#7f7f7f" stroke="#7f7f7f" points="103.04,-273.48 96.07,-281.46 106.49,-279.56 103.04,-273.48"/>
<text text-anchor="middle" x="506.5" y="-33.5" font-family="monospace" font-size="10.00">uses</text>
</g>
</g>
</svg>
