<?xml version="1.0" encoding="UTF-8" standalone="no"?>
<!DOCTYPE svg PUBLIC "-//W3C//DTD SVG 1.1//EN"
 "http://www.w3.org/Graphics/SVG/1.1/DTD/svg11.dtd">
<!-- Generated by graphviz version 4.0.0 (0)
 -->
<!-- Pages: 1 -->
<svg width="493pt" height="435pt"
 viewBox="0.00 0.00 492.60 434.60" xmlns="http://www.w3.org/2000/svg" xmlns:xlink="http://www.w3.org/1999/xlink">
<g id="graph0" class="graph" transform="scale(1 1) rotate(0) translate(28.8 405.8)">
<polygon fill="white" stroke="transparent" points="-28.8,28.8 -28.8,-405.8 463.8,-405.8 463.8,28.8 -28.8,28.8"/>
<text text-anchor="middle" x="217.5" y="-344.2" font-family="Helvetica,sans-Serif" font-size="36.00">lightning_resolver</text>
<!-- fdi -->
<g id="node1" class="node">
<title>fdi</title>
<polygon fill="#5397c8" stroke="black" points="0.13,-147.87 0.13,-185.87 101.13,-185.87 101.13,-147.87 0.13,-147.87"/>
<text text-anchor="middle" x="50.63" y="-173.87" font-family="monospace" font-size="10.00">external crate</text>
<polyline fill="none" stroke="black" points="0.13,-166.87 101.13,-166.87 "/>
<text text-anchor="middle" x="50.63" y="-154.87" font-family="monospace" font-size="10.00">fdi</text>
</g>
<!-- lightning_resolver -->
<g id="node2" class="node">
<title>lightning_resolver</title>
<polygon fill="#5397c8" stroke="black" points="310.42,-176.62 310.42,-214.62 435.42,-214.62 435.42,-176.62 310.42,-176.62"/>
<text text-anchor="middle" x="372.92" y="-202.62" font-family="monospace" font-size="10.00">crate</text>
<polyline fill="none" stroke="black" points="310.42,-195.62 435.42,-195.62 "/>
<text text-anchor="middle" x="372.92" y="-183.62" font-family="monospace" font-size="10.00">lightning_resolver</text>
</g>
<!-- lightning_resolver::config -->
<g id="node3" class="node">
<title>lightning_resolver::config</title>
<polygon fill="#81c169" stroke="black" points="225.99,-36.04 225.99,-74.04 398.99,-74.04 398.99,-36.04 225.99,-36.04"/>
<text text-anchor="middle" x="312.49" y="-62.04" font-family="monospace" font-size="10.00">pub mod</text>
<polyline fill="none" stroke="black" points="225.99,-55.04 398.99,-55.04 "/>
<text text-anchor="middle" x="312.49" y="-43.04" font-family="monospace" font-size="10.00">lightning_resolver::config</text>
</g>
<!-- lightning_resolver&#45;&gt;lightning_resolver::config -->
<g id="edge1" class="edge">
<title>lightning_resolver&#45;&gt;lightning_resolver::config</title>
<path fill="none" stroke="#000000" d="M364.65,-176.37C354.34,-152.39 336.64,-111.23 324.76,-83.58"/>
<polygon fill="#000000" stroke="#000000" points="327.83,-81.87 320.66,-74.06 321.4,-84.63 327.83,-81.87"/>
<text text-anchor="middle" x="332.2" y="-132.97" font-family="monospace" font-size="10.00">owns</text>
</g>
<!-- lightning_resolver::origin_finder -->
<g id="node4" class="node">
<title>lightning_resolver::origin_finder</title>
<polygon fill="#81c169" stroke="black" points="210.58,-282.02 210.58,-320.02 425.58,-320.02 425.58,-282.02 210.58,-282.02"/>
<text text-anchor="middle" x="318.08" y="-308.02" font-family="monospace" font-size="10.00">pub mod</text>
<polyline fill="none" stroke="black" points="210.58,-301.02 425.58,-301.02 "/>
<text text-anchor="middle" x="318.08" y="-289.02" font-family="monospace" font-size="10.00">lightning_resolver::origin_finder</text>
</g>
<!-- lightning_resolver&#45;&gt;lightning_resolver::origin_finder -->
<g id="edge2" class="edge">
<title>lightning_resolver&#45;&gt;lightning_resolver::origin_finder</title>
<path fill="none" stroke="#000000" d="M362.86,-214.95C354.44,-231.14 342.29,-254.48 332.78,-272.77"/>
<polygon fill="#000000" stroke="#000000" points="329.58,-271.32 328.07,-281.81 335.79,-274.55 329.58,-271.32"/>
<text text-anchor="middle" x="335.32" y="-246.86" font-family="monospace" font-size="10.00">owns</text>
</g>
<!-- lightning_resolver::resolver -->
<g id="node5" class="node">
<title>lightning_resolver::resolver</title>
<polygon fill="#81c169" stroke="black" points="117.41,-152.54 117.41,-190.54 302.41,-190.54 302.41,-152.54 117.41,-152.54"/>
<text text-anchor="middle" x="209.91" y="-178.54" font-family="monospace" font-size="10.00">pub mod</text>
<polyline fill="none" stroke="black" points="117.41,-171.54 302.41,-171.54 "/>
<text text-anchor="middle" x="209.91" y="-159.54" font-family="monospace" font-size="10.00">lightning_resolver::resolver</text>
</g>
<!-- lightning_resolver&#45;&gt;lightning_resolver::resolver -->
<g id="edge3" class="edge">
<title>lightning_resolver&#45;&gt;lightning_resolver::resolver</title>
<path fill="none" stroke="#000000" d="M310.36,-186.38C310.2,-186.35 310.04,-186.33 309.88,-186.3"/>
<polygon fill="#000000" stroke="#000000" points="312.89,-183.21 302.48,-185.21 311.86,-190.14 312.89,-183.21"/>
<text text-anchor="middle" x="297.62" y="-189.34" font-family="monospace" font-size="10.00">owns</text>
</g>
<!-- lightning_resolver::resolver&#45;&gt;fdi -->
<g id="edge4" class="edge">
<title>lightning_resolver::resolver&#45;&gt;fdi</title>
<path fill="none" stroke="#7f7f7f" stroke-dasharray="5,2" d="M117.26,-168.82C115.29,-168.77 113.33,-168.71 111.39,-168.65"/>
<polygon fill="#7f7f7f" stroke="#7f7f7f" points="111.29,-165.15 101.19,-168.35 111.09,-172.14 111.29,-165.15"/>
<text text-anchor="middle" x="114.33" y="-160.74" font-family="monospace" font-size="10.00">uses</text>
</g>
<!-- lightning_resolver::resolver&#45;&gt;lightning_resolver::config -->
<g id="edge5" class="edge">
<title>lightning_resolver::resolver&#45;&gt;lightning_resolver::config</title>
<path fill="none" stroke="#7f7f7f" stroke-dasharray="5,2" d="M226.85,-152.3C243.77,-133.08 269.94,-103.36 288.9,-81.83"/>
<polygon fill="#7f7f7f" stroke="#7f7f7f" points="291.54,-84.13 295.52,-74.31 286.29,-79.5 291.54,-84.13"/>
<text text-anchor="middle" x="245.37" y="-120.07" font-family="monospace" font-size="10.00">uses</text>
</g>
<!-- lightning_resolver::resolver&#45;&gt;lightning_resolver::origin_finder -->
<g id="edge6" class="edge">
<title>lightning_resolver::resolver&#45;&gt;lightning_resolver::origin_finder</title>
<path fill="none" stroke="#7f7f7f" stroke-dasharray="5,2" d="M225.87,-190.65C244.24,-212.64 274.56,-248.93 295.38,-273.86"/>
<polygon fill="#7f7f7f" stroke="#7f7f7f" points="292.95,-276.41 302.05,-281.84 298.33,-271.92 292.95,-276.41"/>
<text text-anchor="middle" x="248.13" y="-235.25" font-family="monospace" font-size="10.00">uses</text>
</g>
<!-- lightning_schema -->
<g id="node6" class="node">
<title>lightning_schema</title>
<polygon fill="#5397c8" stroke="black" points="72.5,-290.35 72.5,-328.35 185.5,-328.35 185.5,-290.35 72.5,-290.35"/>
<text text-anchor="middle" x="129" y="-316.35" font-family="monospace" font-size="10.00">external crate</text>
<polyline fill="none" stroke="black" points="72.5,-309.35 185.5,-309.35 "/>
<text text-anchor="middle" x="129" y="-297.35" font-family="monospace" font-size="10.00">lightning_schema</text>
</g>
<!-- lightning_resolver::resolver&#45;&gt;lightning_schema -->
<g id="edge7" class="edge">
<title>lightning_resolver::resolver&#45;&gt;lightning_schema</title>
<path fill="none" stroke="#7f7f7f" stroke-dasharray="5,2" d="M198.66,-190.7C184.91,-214.12 161.52,-253.96 145.68,-280.95"/>
<polygon fill="#7f7f7f" stroke="#7f7f7f" points="142.46,-279.51 140.42,-289.91 148.5,-283.06 142.46,-279.51"/>
<text text-anchor="middle" x="159.67" y="-238.83" font-family="monospace" font-size="10.00">uses</text>
</g>
<!-- lightning_types -->
<g id="node7" class="node">
<title>lightning_types</title>
<polygon fill="#5397c8" stroke="black" points="101.23,-0.33 101.23,-38.33 208.23,-38.33 208.23,-0.33 101.23,-0.33"/>
<text text-anchor="middle" x="154.73" y="-26.33" font-family="monospace" font-size="10.00">external crate</text>
<polyline fill="none" stroke="black" points="101.23,-19.33 208.23,-19.33 "/>
<text text-anchor="middle" x="154.73" y="-7.33" font-family="monospace" font-size="10.00">lightning_types</text>
</g>
<!-- lightning_resolver::resolver&#45;&gt;lightning_types -->
<g id="edge8" class="edge">
<title>lightning_resolver::resolver&#45;&gt;lightning_types</title>
<path fill="none" stroke="#7f7f7f" stroke-dasharray="5,2" d="M202.92,-152.26C193.38,-125.96 176.22,-78.61 165.16,-48.1"/>
<polygon fill="#7f7f7f" stroke="#7f7f7f" points="168.36,-46.66 161.66,-38.45 161.78,-49.05 168.36,-46.66"/>
<text text-anchor="middle" x="171.54" y="-103.18" font-family="monospace" font-size="10.00">uses</text>
</g>
</g>
</svg>
