<?xml version="1.0" encoding="UTF-8" standalone="no"?>
<!DOCTYPE svg PUBLIC "-//W3C//DTD SVG 1.1//EN"
 "http://www.w3.org/Graphics/SVG/1.1/DTD/svg11.dtd">
<!-- Generated by graphviz version 4.0.0 (0)
 -->
<!-- Pages: 1 -->
<svg width="1181pt" height="1200pt"
 viewBox="0.00 0.00 1180.60 1199.60" xmlns="http://www.w3.org/2000/svg" xmlns:xlink="http://www.w3.org/1999/xlink">
<g id="graph0" class="graph" transform="scale(1 1) rotate(0) translate(28.8 1170.8)">
<polygon fill="white" stroke="transparent" points="-28.8,28.8 -28.8,-1170.8 1151.8,-1170.8 1151.8,28.8 -28.8,28.8"/>
<text text-anchor="middle" x="561.5" y="-1109.2" font-family="Helvetica,sans-Serif" font-size="36.00">lightning_resolver</text>
<!-- lightning_resolver -->
<g id="node1" class="node">
<title>lightning_resolver</title>
<polygon fill="#5397c8" stroke="black" points="516.76,-516.54 516.76,-554.54 641.76,-554.54 641.76,-516.54 516.76,-516.54"/>
<text text-anchor="middle" x="579.26" y="-542.54" font-family="monospace" font-size="10.00">crate</text>
<polyline fill="none" stroke="black" points="516.76,-535.54 641.76,-535.54 "/>
<text text-anchor="middle" x="579.26" y="-523.54" font-family="monospace" font-size="10.00">lightning_resolver</text>
</g>
<!-- lightning_resolver::config::Config -->
<g id="node2" class="node">
<title>lightning_resolver::config::Config</title>
<polygon fill="#81c169" stroke="black" points="708.38,-475.1 708.38,-513.1 809.38,-513.1 809.38,-475.1 708.38,-475.1"/>
<text text-anchor="middle" x="758.88" y="-501.1" font-family="monospace" font-size="10.00">pub struct</text>
<polyline fill="none" stroke="black" points="708.38,-494.1 809.38,-494.1 "/>
<text text-anchor="middle" x="758.88" y="-482.1" font-family="monospace" font-size="10.00">config::Config</text>
</g>
<!-- lightning_resolver&#45;&gt;lightning_resolver::config::Config -->
<g id="edge1" class="edge">
<title>lightning_resolver&#45;&gt;lightning_resolver::config::Config</title>
<path fill="none" stroke="#000000" d="M641.78,-547.09C675.45,-542.93 714.74,-531.84 738.24,-518.75"/>
<polygon fill="#000000" stroke="#000000" points="740.4,-521.53 747,-513.24 736.67,-515.61 740.4,-521.53"/>
<text text-anchor="middle" x="677.51" y="-535.92" font-family="monospace" font-size="10.00">owns</text>
</g>
<!-- lightning_resolver&#45;&gt;lightning_resolver::config::Config -->
<g id="edge2" class="edge">
<title>lightning_resolver&#45;&gt;lightning_resolver::config::Config</title>
<path fill="none" stroke="#7f7f7f" stroke-dasharray="5,2" d="M590.99,-516.5C612.56,-500.83 659.24,-486.91 697.95,-482.35"/>
<polygon fill="#7f7f7f" stroke="#7f7f7f" points="698.51,-485.82 708.12,-481.36 697.83,-478.85 698.51,-485.82"/>
<text text-anchor="middle" x="631.97" y="-502.42" font-family="monospace" font-size="10.00">uses</text>
</g>
<!-- lightning_resolver::origin_finder::OriginFinder -->
<g id="node3" class="node">
<title>lightning_resolver::origin_finder::OriginFinder</title>
<polygon fill="#81c169" stroke="black" points="222.82,-356.9 222.82,-394.9 401.82,-394.9 401.82,-356.9 222.82,-356.9"/>
<text text-anchor="middle" x="312.32" y="-382.9" font-family="monospace" font-size="10.00">pub struct</text>
<polyline fill="none" stroke="black" points="222.82,-375.9 401.82,-375.9 "/>
<text text-anchor="middle" x="312.32" y="-363.9" font-family="monospace" font-size="10.00">origin_finder::OriginFinder</text>
</g>
<!-- lightning_resolver&#45;&gt;lightning_resolver::origin_finder::OriginFinder -->
<g id="edge3" class="edge">
<title>lightning_resolver&#45;&gt;lightning_resolver::origin_finder::OriginFinder</title>
<path fill="none" stroke="#000000" d="M572.19,-516.46C546.64,-485.48 464.68,-431.9 399.37,-399.41"/>
<polygon fill="#000000" stroke="#000000" points="400.79,-396.21 390.27,-394.97 397.72,-402.5 400.79,-396.21"/>
<text text-anchor="middle" x="473.28" y="-460.94" font-family="monospace" font-size="10.00">owns</text>
</g>
<!-- lightning_resolver&#45;&gt;lightning_resolver::origin_finder::OriginFinder -->
<g id="edge4" class="edge">
<title>lightning_resolver&#45;&gt;lightning_resolver::origin_finder::OriginFinder</title>
<path fill="none" stroke="#7f7f7f" stroke-dasharray="5,2" d="M516.58,-523.5C453.9,-495.93 362.52,-438.95 326.66,-402.92"/>
<polygon fill="#7f7f7f" stroke="#7f7f7f" points="328.85,-400.13 319.51,-395.13 323.69,-404.86 328.85,-400.13"/>
<text text-anchor="middle" x="409.12" y="-466.21" font-family="monospace" font-size="10.00">uses</text>
</g>
<!-- lightning_resolver::resolver::Resolver -->
<g id="node7" class="node">
<title>lightning_resolver::resolver::Resolver</title>
<polygon fill="#81c169" stroke="black" points="678.35,-265.5 678.35,-303.5 803.35,-303.5 803.35,-265.5 678.35,-265.5"/>
<text text-anchor="middle" x="740.85" y="-291.5" font-family="monospace" font-size="10.00">pub struct</text>
<polyline fill="none" stroke="black" points="678.35,-284.5 803.35,-284.5 "/>
<text text-anchor="middle" x="740.85" y="-272.5" font-family="monospace" font-size="10.00">resolver::Resolver</text>
</g>
<!-- lightning_resolver&#45;&gt;lightning_resolver::resolver::Resolver -->
<g id="edge5" class="edge">
<title>lightning_resolver&#45;&gt;lightning_resolver::resolver::Resolver</title>
<path fill="none" stroke="#000000" d="M591.67,-516.26C620.11,-472.07 690.1,-363.34 723.09,-312.09"/>
<polygon fill="#000000" stroke="#000000" points="726.15,-313.8 728.62,-303.5 720.26,-310.01 726.15,-313.8"/>
<text text-anchor="middle" x="644.88" y="-417.17" font-family="monospace" font-size="10.00">owns</text>
</g>
<!-- lightning_resolver::resolver::ResolverInner -->
<g id="node17" class="node">
<title>lightning_resolver::resolver::ResolverInner</title>
<polygon fill="#db5367" stroke="black" points="519.8,-797.77 519.8,-835.77 674.8,-835.77 674.8,-797.77 519.8,-797.77"/>
<text text-anchor="middle" x="597.3" y="-823.77" font-family="monospace" font-size="10.00">pub(self) struct</text>
<polyline fill="none" stroke="black" points="519.8,-816.77 674.8,-816.77 "/>
<text text-anchor="middle" x="597.3" y="-804.77" font-family="monospace" font-size="10.00">resolver::ResolverInner</text>
</g>
<!-- lightning_resolver&#45;&gt;lightning_resolver::resolver::ResolverInner -->
<g id="edge6" class="edge">
<title>lightning_resolver&#45;&gt;lightning_resolver::resolver::ResolverInner</title>
<path fill="none" stroke="#000000" d="M580.5,-554.87C583.6,-603.25 591.72,-729.81 595.42,-787.44"/>
<polygon fill="#000000" stroke="#000000" points="591.94,-787.92 596.08,-797.68 598.93,-787.48 591.94,-787.92"/>
<text text-anchor="middle" x="575.46" y="-674.15" font-family="monospace" font-size="10.00">owns</text>
</g>
<!-- lightning_resolver::origin_finder::OriginFinder::hash -->
<g id="node4" class="node">
<title>lightning_resolver::origin_finder::OriginFinder::hash</title>
<polygon fill="#db5367" stroke="black" points="-0.2,-363.69 -0.2,-401.69 214.8,-401.69 214.8,-363.69 -0.2,-363.69"/>
<text text-anchor="middle" x="107.3" y="-389.69" font-family="monospace" font-size="10.00">pub(self) fn</text>
<polyline fill="none" stroke="black" points="-0.2,-382.69 214.8,-382.69 "/>
<text text-anchor="middle" x="107.3" y="-370.69" font-family="monospace" font-size="10.00">origin_finder::OriginFinder::hash</text>
</g>
<!-- lightning_resolver::origin_finder::OriginFinder&#45;&gt;lightning_resolver::origin_finder::OriginFinder::hash -->
<g id="edge7" class="edge">
<title>lightning_resolver::origin_finder::OriginFinder&#45;&gt;lightning_resolver::origin_finder::OriginFinder::hash</title>
<path fill="none" stroke="#000000" d="M280.07,-356.81C242.14,-349.14 179.48,-351 140.95,-360.79"/>
<polygon fill="#000000" stroke="#000000" points="139.87,-357.46 131.24,-363.6 141.81,-364.18 139.87,-357.46"/>
<text text-anchor="middle" x="198.01" y="-350.8" font-family="monospace" font-size="10.00">owns</text>
</g>
<!-- lightning_resolver::origin_finder::OriginFinder::next -->
<g id="node5" class="node">
<title>lightning_resolver::origin_finder::OriginFinder::next</title>
<polygon fill="#db5367" stroke="black" points="145.38,-552.64 145.38,-590.64 360.38,-590.64 360.38,-552.64 145.38,-552.64"/>
<text text-anchor="middle" x="252.88" y="-578.64" font-family="monospace" font-size="10.00">pub(self) async fn</text>
<polyline fill="none" stroke="black" points="145.38,-571.64 360.38,-571.64 "/>
<text text-anchor="middle" x="252.88" y="-559.64" font-family="monospace" font-size="10.00">origin_finder::OriginFinder::next</text>
</g>
<!-- lightning_resolver::origin_finder::OriginFinder&#45;&gt;lightning_resolver::origin_finder::OriginFinder::next -->
<g id="edge8" class="edge">
<title>lightning_resolver::origin_finder::OriginFinder&#45;&gt;lightning_resolver::origin_finder::OriginFinder::next</title>
<path fill="none" stroke="#000000" d="M286.91,-395.26C264.73,-429.88 243.01,-501.69 242.51,-542.33"/>
<polygon fill="#000000" stroke="#000000" points="239.02,-542.58 242.9,-552.44 246.01,-542.31 239.02,-542.58"/>
<text text-anchor="middle" x="252.21" y="-471.8" font-family="monospace" font-size="10.00">owns</text>
</g>
<!-- lightning_resolver::origin_finder::OriginFinder::next_sync -->
<g id="node6" class="node">
<title>lightning_resolver::origin_finder::OriginFinder::next_sync</title>
<polygon fill="#db5367" stroke="black" points="92.58,-142.43 92.58,-180.43 337.58,-180.43 337.58,-142.43 92.58,-142.43"/>
<text text-anchor="middle" x="215.08" y="-168.43" font-family="monospace" font-size="10.00">pub(self) fn</text>
<polyline fill="none" stroke="black" points="92.58,-161.43 337.58,-161.43 "/>
<text text-anchor="middle" x="215.08" y="-149.43" font-family="monospace" font-size="10.00">origin_finder::OriginFinder::next_sync</text>
</g>
<!-- lightning_resolver::origin_finder::OriginFinder&#45;&gt;lightning_resolver::origin_finder::OriginFinder::next_sync -->
<g id="edge9" class="edge">
<title>lightning_resolver::origin_finder::OriginFinder&#45;&gt;lightning_resolver::origin_finder::OriginFinder::next_sync</title>
<path fill="none" stroke="#000000" d="M318.94,-356.72C317.58,-318.08 281.51,-233.03 250.27,-188.74"/>
<polygon fill="#000000" stroke="#000000" points="253.07,-186.65 244.29,-180.71 247.45,-190.83 253.07,-186.65"/>
<text text-anchor="middle" x="272.1" y="-275.73" font-family="monospace" font-size="10.00">owns</text>
</g>
<!-- lightning_resolver::origin_finder::OriginFinder::hash&#45;&gt;lightning_resolver::origin_finder::OriginFinder -->
<g id="edge10" class="edge">
<title>lightning_resolver::origin_finder::OriginFinder::hash&#45;&gt;lightning_resolver::origin_finder::OriginFinder</title>
<path fill="none" stroke="#7f7f7f" stroke-dasharray="5,2" d="M139.55,-401.77C177.48,-409.45 240.14,-407.59 278.67,-397.8"/>
<polygon fill="#7f7f7f" stroke="#7f7f7f" points="279.75,-401.13 288.38,-394.98 277.8,-394.4 279.75,-401.13"/>
<text text-anchor="middle" x="221.61" y="-402.79" font-family="monospace" font-size="10.00">uses</text>
</g>
<!-- lightning_resolver::origin_finder::OriginFinder::next&#45;&gt;lightning_resolver::origin_finder::OriginFinder -->
<g id="edge11" class="edge">
<title>lightning_resolver::origin_finder::OriginFinder::next&#45;&gt;lightning_resolver::origin_finder::OriginFinder</title>
<path fill="none" stroke="#7f7f7f" stroke-dasharray="5,2" d="M278.3,-552.28C300.47,-517.65 322.19,-445.85 322.69,-405.2"/>
<polygon fill="#7f7f7f" stroke="#7f7f7f" points="326.19,-404.96 322.3,-395.1 319.19,-405.23 326.19,-404.96"/>
<text text-anchor="middle" x="287.99" y="-481.74" font-family="monospace" font-size="10.00">uses</text>
</g>
<!-- lightning_resolver::origin_finder::OriginFinder::next_sync&#45;&gt;lightning_resolver::origin_finder::OriginFinder -->
<g id="edge12" class="edge">
<title>lightning_resolver::origin_finder::OriginFinder::next_sync&#45;&gt;lightning_resolver::origin_finder::OriginFinder</title>
<path fill="none" stroke="#7f7f7f" stroke-dasharray="5,2" d="M208.46,-180.6C209.82,-219.25 245.89,-304.29 277.13,-348.58"/>
<polygon fill="#7f7f7f" stroke="#7f7f7f" points="274.33,-350.68 283.1,-356.62 279.95,-346.5 274.33,-350.68"/>
<text text-anchor="middle" x="230.3" y="-267.59" font-family="monospace" font-size="10.00">uses</text>
</g>
<!-- lightning_resolver::resolver::Resolver::Config -->
<g id="node8" class="node">
<title>lightning_resolver::resolver::Resolver::Config</title>
<polygon fill="#db5367" stroke="black" points="854.87,-340.03 854.87,-378.03 1027.87,-378.03 1027.87,-340.03 854.87,-340.03"/>
<text text-anchor="middle" x="941.37" y="-366.03" font-family="monospace" font-size="10.00">pub(self) type</text>
<polyline fill="none" stroke="black" points="854.87,-359.03 1027.87,-359.03 "/>
<text text-anchor="middle" x="941.37" y="-347.03" font-family="monospace" font-size="10.00">resolver::Resolver::Config</text>
</g>
<!-- lightning_resolver::resolver::Resolver&#45;&gt;lightning_resolver::resolver::Resolver::Config -->
<g id="edge13" class="edge">
<title>lightning_resolver::resolver::Resolver&#45;&gt;lightning_resolver::resolver::Resolver::Config</title>
<path fill="none" stroke="#000000" d="M791.97,-303.5C818.97,-313.53 852.29,-325.92 880.6,-336.44"/>
<polygon fill="#000000" stroke="#000000" points="879.4,-339.73 890,-339.94 881.84,-333.17 879.4,-339.73"/>
<text text-anchor="middle" x="823.79" y="-322.97" font-family="monospace" font-size="10.00">owns</text>
</g>
<!-- lightning_resolver::resolver::Resolver::OriginFinder -->
<g id="node9" class="node">
<title>lightning_resolver::resolver::Resolver::OriginFinder</title>
<polygon fill="#db5367" stroke="black" points="453.51,-303.06 453.51,-341.06 662.51,-341.06 662.51,-303.06 453.51,-303.06"/>
<text text-anchor="middle" x="558.01" y="-329.06" font-family="monospace" font-size="10.00">pub(self) type</text>
<polyline fill="none" stroke="black" points="453.51,-322.06 662.51,-322.06 "/>
<text text-anchor="middle" x="558.01" y="-310.06" font-family="monospace" font-size="10.00">resolver::Resolver::OriginFinder</text>
</g>
<!-- lightning_resolver::resolver::Resolver&#45;&gt;lightning_resolver::resolver::Resolver::OriginFinder -->
<g id="edge14" class="edge">
<title>lightning_resolver::resolver::Resolver&#45;&gt;lightning_resolver::resolver::Resolver::OriginFinder</title>
<path fill="none" stroke="#000000" d="M678.18,-297.37C672.49,-298.54 666.63,-299.75 660.7,-300.96"/>
<polygon fill="#000000" stroke="#000000" points="659.78,-297.58 650.69,-303.02 661.19,-304.44 659.78,-297.58"/>
<text text-anchor="middle" x="656.94" y="-291.17" font-family="monospace" font-size="10.00">owns</text>
</g>
<!-- lightning_resolver::resolver::Resolver::build_graph -->
<g id="node10" class="node">
<title>lightning_resolver::resolver::Resolver::build_graph</title>
<polygon fill="#db5367" stroke="black" points="540.42,-0.35 540.42,-38.35 743.42,-38.35 743.42,-0.35 540.42,-0.35"/>
<text text-anchor="middle" x="641.92" y="-26.35" font-family="monospace" font-size="10.00">pub(self) fn</text>
<polyline fill="none" stroke="black" points="540.42,-19.35 743.42,-19.35 "/>
<text text-anchor="middle" x="641.92" y="-7.35" font-family="monospace" font-size="10.00">resolver::Resolver::build_graph</text>
</g>
<!-- lightning_resolver::resolver::Resolver&#45;&gt;lightning_resolver::resolver::Resolver::build_graph -->
<g id="edge15" class="edge">
<title>lightning_resolver::resolver::Resolver&#45;&gt;lightning_resolver::resolver::Resolver::build_graph</title>
<path fill="none" stroke="#000000" d="M733.74,-265.43C716.6,-219.49 672.93,-102.45 652.61,-48.01"/>
<polygon fill="#000000" stroke="#000000" points="655.88,-46.75 649.11,-38.61 649.32,-49.2 655.88,-46.75"/>
<text text-anchor="middle" x="680.68" y="-148.72" font-family="monospace" font-size="10.00">owns</text>
</g>
<!-- lightning_resolver::resolver::Resolver::get_blake3_hash -->
<g id="node11" class="node">
<title>lightning_resolver::resolver::Resolver::get_blake3_hash</title>
<polygon fill="#db5367" stroke="black" points="644.56,-149.44 644.56,-187.44 871.56,-187.44 871.56,-149.44 644.56,-149.44"/>
<text text-anchor="middle" x="758.06" y="-175.44" font-family="monospace" font-size="10.00">pub(self) async fn</text>
<polyline fill="none" stroke="black" points="644.56,-168.44 871.56,-168.44 "/>
<text text-anchor="middle" x="758.06" y="-156.44" font-family="monospace" font-size="10.00">resolver::Resolver::get_blake3_hash</text>
</g>
<!-- lightning_resolver::resolver::Resolver&#45;&gt;lightning_resolver::resolver::Resolver::get_blake3_hash -->
<g id="edge16" class="edge">
<title>lightning_resolver::resolver::Resolver&#45;&gt;lightning_resolver::resolver::Resolver::get_blake3_hash</title>
<path fill="none" stroke="#000000" d="M765.77,-265.32C775.08,-246.89 779.6,-218.9 776.9,-197.7"/>
<polygon fill="#000000" stroke="#000000" points="780.27,-196.75 774.9,-187.62 773.41,-198.11 780.27,-196.75"/>
<text text-anchor="middle" x="758.83" y="-234.51" font-family="monospace" font-size="10.00">owns</text>
</g>
<!-- lightning_resolver::resolver::Resolver::get_origin_finder -->
<g id="node12" class="node">
<title>lightning_resolver::resolver::Resolver::get_origin_finder</title>
<polygon fill="#db5367" stroke="black" points="385.85,-174.58 385.85,-212.58 624.85,-212.58 624.85,-174.58 385.85,-174.58"/>
<text text-anchor="middle" x="505.35" y="-200.58" font-family="monospace" font-size="10.00">pub(self) fn</text>
<polyline fill="none" stroke="black" points="385.85,-193.58 624.85,-193.58 "/>
<text text-anchor="middle" x="505.35" y="-181.58" font-family="monospace" font-size="10.00">resolver::Resolver::get_origin_finder</text>
</g>
<!-- lightning_resolver::resolver::Resolver&#45;&gt;lightning_resolver::resolver::Resolver::get_origin_finder -->
<g id="edge17" class="edge">
<title>lightning_resolver::resolver::Resolver&#45;&gt;lightning_resolver::resolver::Resolver::get_origin_finder</title>
<path fill="none" stroke="#000000" d="M730.53,-265.25C712.48,-249.27 674.28,-229.97 634.36,-214.44"/>
<polygon fill="#000000" stroke="#000000" points="635.6,-211.17 625.01,-210.89 633.11,-217.71 635.6,-211.17"/>
<text text-anchor="middle" x="669.94" y="-242.85" font-family="monospace" font-size="10.00">owns</text>
</g>
<!-- lightning_resolver::resolver::Resolver::get_origins -->
<g id="node13" class="node">
<title>lightning_resolver::resolver::Resolver::get_origins</title>
<polygon fill="#db5367" stroke="black" points="913.94,-232.08 913.94,-270.08 1116.94,-270.08 1116.94,-232.08 913.94,-232.08"/>
<text text-anchor="middle" x="1015.44" y="-258.08" font-family="monospace" font-size="10.00">pub(self) fn</text>
<polyline fill="none" stroke="black" points="913.94,-251.08 1116.94,-251.08 "/>
<text text-anchor="middle" x="1015.44" y="-239.08" font-family="monospace" font-size="10.00">resolver::Resolver::get_origins</text>
</g>
<!-- lightning_resolver::resolver::Resolver&#45;&gt;lightning_resolver::resolver::Resolver::get_origins -->
<g id="edge18" class="edge">
<title>lightning_resolver::resolver::Resolver&#45;&gt;lightning_resolver::resolver::Resolver::get_origins</title>
<path fill="none" stroke="#000000" d="M803.52,-299.79C859.53,-299.84 939.33,-288.73 983.31,-273.74"/>
<polygon fill="#000000" stroke="#000000" points="984.75,-276.94 992.9,-270.17 982.31,-270.38 984.75,-276.94"/>
<text text-anchor="middle" x="880.91" y="-289.77" font-family="monospace" font-size="10.00">owns</text>
</g>
<!-- lightning_resolver::resolver::Resolver::init -->
<g id="node14" class="node">
<title>lightning_resolver::resolver::Resolver::init</title>
<polygon fill="#db5367" stroke="black" points="648.12,-585.62 648.12,-623.62 809.12,-623.62 809.12,-585.62 648.12,-585.62"/>
<text text-anchor="middle" x="728.62" y="-611.62" font-family="monospace" font-size="10.00">pub(self) fn</text>
<polyline fill="none" stroke="black" points="648.12,-604.62 809.12,-604.62 "/>
<text text-anchor="middle" x="728.62" y="-592.62" font-family="monospace" font-size="10.00">resolver::Resolver::init</text>
</g>
<!-- lightning_resolver::resolver::Resolver&#45;&gt;lightning_resolver::resolver::Resolver::init -->
<g id="edge19" class="edge">
<title>lightning_resolver::resolver::Resolver&#45;&gt;lightning_resolver::resolver::Resolver::init</title>
<path fill="none" stroke="#000000" d="M726.32,-303.51C707.51,-357.27 700.83,-510.59 713.46,-575.27"/>
<polygon fill="#000000" stroke="#000000" points="710.1,-576.26 715.75,-585.22 716.92,-574.69 710.1,-576.26"/>
<text text-anchor="middle" x="707.39" y="-442.39" font-family="monospace" font-size="10.00">owns</text>
</g>
<!-- lightning_resolver::resolver::Resolver::publish -->
<g id="node15" class="node">
<title>lightning_resolver::resolver::Resolver::publish</title>
<polygon fill="#db5367" stroke="black" points="944.19,-518.01 944.19,-556.01 1123.19,-556.01 1123.19,-518.01 944.19,-518.01"/>
<text text-anchor="middle" x="1033.69" y="-544.01" font-family="monospace" font-size="10.00">pub(self) async fn</text>
<polyline fill="none" stroke="black" points="944.19,-537.01 1123.19,-537.01 "/>
<text text-anchor="middle" x="1033.69" y="-525.01" font-family="monospace" font-size="10.00">resolver::Resolver::publish</text>
</g>
<!-- lightning_resolver::resolver::Resolver&#45;&gt;lightning_resolver::resolver::Resolver::publish -->
<g id="edge20" class="edge">
<title>lightning_resolver::resolver::Resolver&#45;&gt;lightning_resolver::resolver::Resolver::publish</title>
<path fill="none" stroke="#000000" d="M745.45,-303.85C773.84,-350.7 897.41,-461.11 973.71,-512.23"/>
<polygon fill="#000000" stroke="#000000" points="972.03,-515.31 982.32,-517.87 975.87,-509.46 972.03,-515.31"/>
<text text-anchor="middle" x="847.08" y="-411.04" font-family="monospace" font-size="10.00">owns</text>
</g>
<!-- lightning_resolver::resolver::Resolver::start -->
<g id="node16" class="node">
<title>lightning_resolver::resolver::Resolver::start</title>
<polygon fill="#db5367" stroke="black" points="818.93,-29.01 818.93,-67.01 985.93,-67.01 985.93,-29.01 818.93,-29.01"/>
<text text-anchor="middle" x="902.43" y="-55.01" font-family="monospace" font-size="10.00">pub(self) async fn</text>
<polyline fill="none" stroke="black" points="818.93,-48.01 985.93,-48.01 "/>
<text text-anchor="middle" x="902.43" y="-36.01" font-family="monospace" font-size="10.00">resolver::Resolver::start</text>
</g>
<!-- lightning_resolver::resolver::Resolver&#45;&gt;lightning_resolver::resolver::Resolver::start -->
<g id="edge21" class="edge">
<title>lightning_resolver::resolver::Resolver&#45;&gt;lightning_resolver::resolver::Resolver::start</title>
<path fill="none" stroke="#000000" d="M776.75,-265.09C820.07,-222.86 884.82,-126.44 901.84,-77.03"/>
<polygon fill="#000000" stroke="#000000" points="905.26,-77.82 904.72,-67.24 898.54,-75.84 905.26,-77.82"/>
<text text-anchor="middle" x="826.8" y="-174.06" font-family="monospace" font-size="10.00">owns</text>
</g>
<!-- lightning_resolver::resolver::Resolver::Config&#45;&gt;lightning_resolver::config::Config -->
<g id="edge22" class="edge">
<title>lightning_resolver::resolver::Resolver::Config&#45;&gt;lightning_resolver::config::Config</title>
<path fill="none" stroke="#7f7f7f" stroke-dasharray="5,2" d="M915.61,-378.1C883.5,-401.86 828.53,-442.55 792.96,-468.87"/>
<polygon fill="#7f7f7f" stroke="#7f7f7f" points="790.76,-466.15 784.8,-474.91 794.92,-471.78 790.76,-466.15"/>
<text text-anchor="middle" x="841.78" y="-426.49" font-family="monospace" font-size="10.00">uses</text>
</g>
<!-- lightning_resolver::resolver::Resolver::OriginFinder&#45;&gt;lightning_resolver::origin_finder::OriginFinder -->
<g id="edge23" class="edge">
<title>lightning_resolver::resolver::Resolver::OriginFinder&#45;&gt;lightning_resolver::origin_finder::OriginFinder</title>
<path fill="none" stroke="#7f7f7f" stroke-dasharray="5,2" d="M471.04,-341.12C450.99,-345.51 429.55,-350.21 409.11,-354.69"/>
<polygon fill="#7f7f7f" stroke="#7f7f7f" points="408.19,-351.31 399.17,-356.87 409.69,-358.15 408.19,-351.31"/>
<text text-anchor="middle" x="427.57" y="-350.9" font-family="monospace" font-size="10.00">uses</text>
</g>
<!-- lightning_resolver::resolver::Resolver::get_blake3_hash&#45;&gt;lightning_resolver::resolver::Resolver -->
<g id="edge24" class="edge">
<title>lightning_resolver::resolver::Resolver::get_blake3_hash&#45;&gt;lightning_resolver::resolver::Resolver</title>
<path fill="none" stroke="#7f7f7f" stroke-dasharray="5,2" d="M733.15,-187.62C723.84,-206.04 719.32,-234.04 722.02,-255.24"/>
<polygon fill="#7f7f7f" stroke="#7f7f7f" points="718.64,-256.19 724.02,-265.32 725.51,-254.83 718.64,-256.19"/>
<text text-anchor="middle" x="715.09" y="-224.43" font-family="monospace" font-size="10.00">uses</text>
</g>
<!-- lightning_resolver::resolver::Resolver::get_origin_finder&#45;&gt;lightning_resolver::origin_finder::OriginFinder -->
<g id="edge25" class="edge">
<title>lightning_resolver::resolver::Resolver::get_origin_finder&#45;&gt;lightning_resolver::origin_finder::OriginFinder</title>
<path fill="none" stroke="#7f7f7f" stroke-dasharray="5,2" d="M485.06,-212.75C450.3,-245.57 379.34,-312.6 340.05,-349.71"/>
<polygon fill="#7f7f7f" stroke="#7f7f7f" points="337.5,-347.31 332.63,-356.72 342.3,-352.39 337.5,-347.31"/>
<text text-anchor="middle" x="400.05" y="-284.23" font-family="monospace" font-size="10.00">uses</text>
</g>
<!-- lightning_resolver::resolver::Resolver::get_origin_finder&#45;&gt;lightning_resolver::resolver::Resolver -->
<g id="edge26" class="edge">
<title>lightning_resolver::resolver::Resolver::get_origin_finder&#45;&gt;lightning_resolver::resolver::Resolver</title>
<path fill="none" stroke="#7f7f7f" stroke-dasharray="5,2" d="M515.68,-212.83C542.38,-236.46 613.18,-267.38 668.43,-282.58"/>
<polygon fill="#7f7f7f" stroke="#7f7f7f" points="667.65,-285.99 678.21,-285.14 669.42,-279.22 667.65,-285.99"/>
<text text-anchor="middle" x="579.56" y="-250.7" font-family="monospace" font-size="10.00">uses</text>
</g>
<!-- lightning_resolver::resolver::Resolver::get_origins&#45;&gt;lightning_resolver::resolver::Resolver -->
<g id="edge27" class="edge">
<title>lightning_resolver::resolver::Resolver::get_origins&#45;&gt;lightning_resolver::resolver::Resolver</title>
<path fill="none" stroke="#7f7f7f" stroke-dasharray="5,2" d="M913.55,-237.26C863.7,-240.75 807.18,-250.14 772.77,-261.91"/>
<polygon fill="#7f7f7f" stroke="#7f7f7f" points="771.39,-258.69 763.25,-265.47 773.84,-265.25 771.39,-258.69"/>
<text text-anchor="middle" x="830.66" y="-252.59" font-family="monospace" font-size="10.00">uses</text>
</g>
<!-- lightning_resolver::resolver::Resolver::init&#45;&gt;lightning_resolver::config::Config -->
<g id="edge28" class="edge">
<title>lightning_resolver::resolver::Resolver::init&#45;&gt;lightning_resolver::config::Config</title>
<path fill="none" stroke="#7f7f7f" stroke-dasharray="5,2" d="M733.89,-585.37C738.62,-568.09 745.62,-542.5 751.02,-522.81"/>
<polygon fill="#7f7f7f" stroke="#7f7f7f" points="754.4,-523.7 753.67,-513.13 747.65,-521.85 754.4,-523.7"/>
<text text-anchor="middle" x="729.95" y="-557.09" font-family="monospace" font-size="10.00">uses</text>
</g>
<!-- lightning_resolver::resolver::Resolver::init&#45;&gt;lightning_resolver::resolver::Resolver -->
<g id="edge29" class="edge">
<title>lightning_resolver::resolver::Resolver::init&#45;&gt;lightning_resolver::resolver::Resolver</title>
<path fill="none" stroke="#7f7f7f" stroke-dasharray="5,2" d="M743.15,-585.6C761.96,-531.85 768.64,-378.53 756.01,-313.85"/>
<polygon fill="#7f7f7f" stroke="#7f7f7f" points="759.37,-312.86 753.72,-303.9 752.55,-314.43 759.37,-312.86"/>
<text text-anchor="middle" x="737.08" y="-452.73" font-family="monospace" font-size="10.00">uses</text>
</g>
<!-- lightning_resolver::resolver::Resolver::init&#45;&gt;lightning_resolver::resolver::ResolverInner -->
<g id="edge30" class="edge">
<title>lightning_resolver::resolver::Resolver::init&#45;&gt;lightning_resolver::resolver::ResolverInner</title>
<path fill="none" stroke="#7f7f7f" stroke-dasharray="5,2" d="M716.73,-623.82C693.39,-661.53 641.49,-745.39 614.44,-789.08"/>
<polygon fill="#7f7f7f" stroke="#7f7f7f" points="611.35,-787.42 609.06,-797.77 617.3,-791.11 611.35,-787.42"/>
<text text-anchor="middle" x="653.09" y="-709.45" font-family="monospace" font-size="10.00">uses</text>
</g>
<!-- lightning_resolver::resolver::Resolver::publish&#45;&gt;lightning_resolver::resolver::Resolver -->
<g id="edge31" class="edge">
<title>lightning_resolver::resolver::Resolver::publish&#45;&gt;lightning_resolver::resolver::Resolver</title>
<path fill="none" stroke="#7f7f7f" stroke-dasharray="5,2" d="M1029.09,-517.66C1000.7,-470.81 877.13,-360.4 800.83,-309.28"/>
<polygon fill="#7f7f7f" stroke="#7f7f7f" points="802.51,-306.2 792.22,-303.64 798.67,-312.05 802.51,-306.2"/>
<text text-anchor="middle" x="902.46" y="-416.47" font-family="monospace" font-size="10.00">uses</text>
</g>
<!-- lightning_resolver::resolver::Resolver::start&#45;&gt;lightning_resolver::resolver::Resolver -->
<g id="edge32" class="edge">
<title>lightning_resolver::resolver::Resolver::start&#45;&gt;lightning_resolver::resolver::Resolver</title>
<path fill="none" stroke="#7f7f7f" stroke-dasharray="5,2" d="M866.53,-67.42C823.21,-109.65 758.46,-206.07 741.44,-255.48"/>
<polygon fill="#7f7f7f" stroke="#7f7f7f" points="738.03,-254.69 738.56,-265.27 744.74,-256.66 738.03,-254.69"/>
<text text-anchor="middle" x="791.49" y="-164.45" font-family="monospace" font-size="10.00">uses</text>
</g>
<!-- lightning_resolver::resolver::ResolverInner::get_blake3_hash -->
<g id="node18" class="node">
<title>lightning_resolver::resolver::ResolverInner::get_blake3_hash</title>
<polygon fill="#db5367" stroke="black" points="353.26,-1055.03 353.26,-1093.03 610.26,-1093.03 610.26,-1055.03 353.26,-1055.03"/>
<text text-anchor="middle" x="481.76" y="-1081.03" font-family="monospace" font-size="10.00">pub(self) async fn</text>
<polyline fill="none" stroke="black" points="353.26,-1074.03 610.26,-1074.03 "/>
<text text-anchor="middle" x="481.76" y="-1062.03" font-family="monospace" font-size="10.00">resolver::ResolverInner::get_blake3_hash</text>
</g>
<!-- lightning_resolver::resolver::ResolverInner&#45;&gt;lightning_resolver::resolver::ResolverInner::get_blake3_hash -->
<g id="edge33" class="edge">
<title>lightning_resolver::resolver::ResolverInner&#45;&gt;lightning_resolver::resolver::ResolverInner::get_blake3_hash</title>
<path fill="none" stroke="#000000" d="M569.99,-835.85C535.03,-880.75 485.85,-990.98 477.26,-1044.52"/>
<polygon fill="#000000" stroke="#000000" points="473.75,-1044.41 476.08,-1054.74 480.7,-1045.21 473.75,-1044.41"/>
<text text-anchor="middle" x="511.12" y="-943.19" font-family="monospace" font-size="10.00">owns</text>
</g>
<!-- lightning_resolver::resolver::ResolverInner::get_origins -->
<g id="node19" class="node">
<title>lightning_resolver::resolver::ResolverInner::get_origins</title>
<polygon fill="#db5367" stroke="black" points="229.35,-889.48 229.35,-927.48 462.35,-927.48 462.35,-889.48 229.35,-889.48"/>
<text text-anchor="middle" x="345.85" y="-915.48" font-family="monospace" font-size="10.00">pub(self) fn</text>
<polyline fill="none" stroke="black" points="229.35,-908.48 462.35,-908.48 "/>
<text text-anchor="middle" x="345.85" y="-896.48" font-family="monospace" font-size="10.00">resolver::ResolverInner::get_origins</text>
</g>
<!-- lightning_resolver::resolver::ResolverInner&#45;&gt;lightning_resolver::resolver::ResolverInner::get_origins -->
<g id="edge34" class="edge">
<title>lightning_resolver::resolver::ResolverInner&#45;&gt;lightning_resolver::resolver::ResolverInner::get_origins</title>
<path fill="none" stroke="#000000" d="M519.56,-819.12C466,-833.27 398.9,-860.3 365.81,-882.89"/>
<polygon fill="#000000" stroke="#000000" points="363.35,-880.36 357.41,-889.13 367.53,-885.98 363.35,-880.36"/>
<text text-anchor="middle" x="430.18" y="-854.01" font-family="monospace" font-size="10.00">owns</text>
</g>
<!-- lightning_resolver::resolver::ResolverInner::publish -->
<g id="node20" class="node">
<title>lightning_resolver::resolver::ResolverInner::publish</title>
<polygon fill="#db5367" stroke="black" points="646.43,-1035.05 646.43,-1073.05 855.43,-1073.05 855.43,-1035.05 646.43,-1035.05"/>
<text text-anchor="middle" x="750.93" y="-1061.05" font-family="monospace" font-size="10.00">pub(self) async fn</text>
<polyline fill="none" stroke="black" points="646.43,-1054.05 855.43,-1054.05 "/>
<text text-anchor="middle" x="750.93" y="-1042.05" font-family="monospace" font-size="10.00">resolver::ResolverInner::publish</text>
</g>
<!-- lightning_resolver::resolver::ResolverInner&#45;&gt;lightning_resolver::resolver::ResolverInner::publish -->
<g id="edge35" class="edge">
<title>lightning_resolver::resolver::ResolverInner&#45;&gt;lightning_resolver::resolver::ResolverInner::publish</title>
<path fill="none" stroke="#000000" d="M594.43,-835.79C603.18,-878.73 664.94,-978.79 709.51,-1027.52"/>
<polygon fill="#000000" stroke="#000000" points="707.08,-1030.05 716.5,-1034.89 712.16,-1025.23 707.08,-1030.05"/>
<text text-anchor="middle" x="639.47" y="-934.66" font-family="monospace" font-size="10.00">owns</text>
</g>
<!-- lightning_resolver::resolver::ResolverInner::start -->
<g id="node21" class="node">
<title>lightning_resolver::resolver::ResolverInner::start</title>
<polygon fill="#db5367" stroke="black" points="795.94,-819.28 795.94,-857.28 992.94,-857.28 992.94,-819.28 795.94,-819.28"/>
<text text-anchor="middle" x="894.44" y="-845.28" font-family="monospace" font-size="10.00">pub(self) async fn</text>
<polyline fill="none" stroke="black" points="795.94,-838.28 992.94,-838.28 "/>
<text text-anchor="middle" x="894.44" y="-826.28" font-family="monospace" font-size="10.00">resolver::ResolverInner::start</text>
</g>
<!-- lightning_resolver::resolver::ResolverInner&#45;&gt;lightning_resolver::resolver::ResolverInner::start -->
<g id="edge36" class="edge">
<title>lightning_resolver::resolver::ResolverInner&#45;&gt;lightning_resolver::resolver::ResolverInner::start</title>
<path fill="none" stroke="#000000" d="M625.65,-835.84C662.27,-847.27 728.1,-855.06 785.45,-856.5"/>
<polygon fill="#000000" stroke="#000000" points="785.62,-860 795.68,-856.69 785.75,-853 785.62,-860"/>
<text text-anchor="middle" x="693.05" y="-849.17" font-family="monospace" font-size="10.00">owns</text>
</g>
<!-- lightning_resolver::resolver::ResolverInner::store_mapping -->
<g id="node22" class="node">
<title>lightning_resolver::resolver::ResolverInner::store_mapping</title>
<polygon fill="#db5367" stroke="black" points="367.1,-714.29 367.1,-752.29 612.1,-752.29 612.1,-714.29 367.1,-714.29"/>
<text text-anchor="middle" x="489.6" y="-740.29" font-family="monospace" font-size="10.00">pub(self) fn</text>
<polyline fill="none" stroke="black" points="367.1,-733.29 612.1,-733.29 "/>
<text text-anchor="middle" x="489.6" y="-721.29" font-family="monospace" font-size="10.00">resolver::ResolverInner::store_mapping</text>
</g>
<!-- lightning_resolver::resolver::ResolverInner&#45;&gt;lightning_resolver::resolver::ResolverInner::store_mapping -->
<g id="edge37" class="edge">
<title>lightning_resolver::resolver::ResolverInner&#45;&gt;lightning_resolver::resolver::ResolverInner::store_mapping</title>
<path fill="none" stroke="#000000" d="M572.59,-797.62C557.68,-786.06 538.5,-771.19 522.33,-758.66"/>
<polygon fill="#000000" stroke="#000000" points="524.24,-755.71 514.19,-752.35 519.95,-761.25 524.24,-755.71"/>
<text text-anchor="middle" x="534.96" y="-781.14" font-family="monospace" font-size="10.00">owns</text>
</g>
<!-- lightning_resolver::resolver::ResolverInner::get_blake3_hash&#45;&gt;lightning_resolver::resolver::ResolverInner -->
<g id="edge38" class="edge">
<title>lightning_resolver::resolver::ResolverInner::get_blake3_hash&#45;&gt;lightning_resolver::resolver::ResolverInner</title>
<path fill="none" stroke="#7f7f7f" stroke-dasharray="5,2" d="M509.08,-1054.95C544.04,-1010.05 593.21,-899.82 601.81,-846.28"/>
<polygon fill="#7f7f7f" stroke="#7f7f7f" points="605.32,-846.39 602.99,-836.06 598.36,-845.59 605.32,-846.39"/>
<text text-anchor="middle" x="542.94" y="-953.61" font-family="monospace" font-size="10.00">uses</text>
</g>
<!-- lightning_resolver::resolver::ResolverInner::get_origins&#45;&gt;lightning_resolver::resolver::ResolverInner -->
<g id="edge39" class="edge">
<title>lightning_resolver::resolver::ResolverInner::get_origins&#45;&gt;lightning_resolver::resolver::ResolverInner</title>
<path fill="none" stroke="#7f7f7f" stroke-dasharray="5,2" d="M462.38,-894.44C506.75,-879.58 552.63,-859.4 577.95,-841.94"/>
<polygon fill="#7f7f7f" stroke="#7f7f7f" points="580.11,-844.7 586.01,-835.9 575.91,-839.1 580.11,-844.7"/>
<text text-anchor="middle" x="507.67" y="-871.19" font-family="monospace" font-size="10.00">uses</text>
</g>
<!-- lightning_resolver::resolver::ResolverInner::publish&#45;&gt;lightning_resolver::resolver::ResolverInner -->
<g id="edge40" class="edge">
<title>lightning_resolver::resolver::ResolverInner::publish&#45;&gt;lightning_resolver::resolver::ResolverInner</title>
<path fill="none" stroke="#7f7f7f" stroke-dasharray="5,2" d="M753.8,-1035.02C745.05,-992.09 683.29,-892.03 638.72,-843.29"/>
<polygon fill="#7f7f7f" stroke="#7f7f7f" points="641.15,-840.77 631.72,-835.93 636.07,-845.59 641.15,-840.77"/>
<text text-anchor="middle" x="683.76" y="-942.16" font-family="monospace" font-size="10.00">uses</text>
</g>
<!-- lightning_resolver::resolver::ResolverInner::start&#45;&gt;lightning_resolver::resolver::ResolverInner -->
<g id="edge41" class="edge">
<title>lightning_resolver::resolver::ResolverInner::start&#45;&gt;lightning_resolver::resolver::ResolverInner</title>
<path fill="none" stroke="#7f7f7f" stroke-dasharray="5,2" d="M866.08,-819.21C824.87,-806.35 746.65,-798.09 685.18,-798.31"/>
<polygon fill="#7f7f7f" stroke="#7f7f7f" points="685.03,-794.81 675.07,-798.43 685.11,-801.81 685.03,-794.81"/>
<text text-anchor="middle" x="763.13" y="-811.76" font-family="monospace" font-size="10.00">uses</text>
</g>
</g>
</svg>
