<?xml version="1.0" encoding="UTF-8" standalone="no"?>
<!DOCTYPE svg PUBLIC "-//W3C//DTD SVG 1.1//EN"
 "http://www.w3.org/Graphics/SVG/1.1/DTD/svg11.dtd">
<!-- Generated by graphviz version 4.0.0 (0)
 -->
<!-- Pages: 1 -->
<svg width="1138pt" height="1490pt"
 viewBox="0.00 0.00 1137.60 1489.60" xmlns="http://www.w3.org/2000/svg" xmlns:xlink="http://www.w3.org/1999/xlink">
<g id="graph0" class="graph" transform="scale(1 1) rotate(0) translate(28.8 1460.8)">
<polygon fill="white" stroke="transparent" points="-28.8,28.8 -28.8,-1460.8 1108.8,-1460.8 1108.8,28.8 -28.8,28.8"/>
<text text-anchor="middle" x="540" y="-1399.2" font-family="Helvetica,sans-Serif" font-size="36.00">lightning_blockstore</text>
<!-- lightning_blockstore -->
<g id="node1" class="node">
<title>lightning_blockstore</title>
<polygon fill="#5397c8" stroke="black" points="387.41,-789.35 387.41,-827.35 524.41,-827.35 524.41,-789.35 387.41,-789.35"/>
<text text-anchor="middle" x="455.91" y="-815.35" font-family="monospace" font-size="10.00">crate</text>
<polyline fill="none" stroke="black" points="387.41,-808.35 524.41,-808.35 "/>
<text text-anchor="middle" x="455.91" y="-796.35" font-family="monospace" font-size="10.00">lightning_blockstore</text>
</g>
<!-- lightning_blockstore::blockstore::Blockstore -->
<g id="node2" class="node">
<title>lightning_blockstore::blockstore::Blockstore</title>
<polygon fill="#81c169" stroke="black" points="457.73,-348.31 457.73,-386.31 606.73,-386.31 606.73,-348.31 457.73,-348.31"/>
<text text-anchor="middle" x="532.23" y="-374.31" font-family="monospace" font-size="10.00">pub struct</text>
<polyline fill="none" stroke="black" points="457.73,-367.31 606.73,-367.31 "/>
<text text-anchor="middle" x="532.23" y="-355.31" font-family="monospace" font-size="10.00">blockstore::Blockstore</text>
</g>
<!-- lightning_blockstore&#45;&gt;lightning_blockstore::blockstore::Blockstore -->
<g id="edge1" class="edge">
<title>lightning_blockstore&#45;&gt;lightning_blockstore::blockstore::Blockstore</title>
<path fill="none" stroke="#000000" d="M459.24,-789.12C471.29,-719.48 512.69,-480.21 527.17,-396.51"/>
<polygon fill="#000000" stroke="#000000" points="530.62,-397.1 528.88,-386.65 523.73,-395.9 530.62,-397.1"/>
<text text-anchor="middle" x="480.71" y="-595.81" font-family="monospace" font-size="10.00">owns</text>
</g>
<!-- lightning_blockstore::config::Config -->
<g id="node14" class="node">
<title>lightning_blockstore::config::Config</title>
<polygon fill="#81c169" stroke="black" points="614.23,-538.92 614.23,-576.92 715.23,-576.92 715.23,-538.92 614.23,-538.92"/>
<text text-anchor="middle" x="664.73" y="-564.92" font-family="monospace" font-size="10.00">pub struct</text>
<polyline fill="none" stroke="black" points="614.23,-557.92 715.23,-557.92 "/>
<text text-anchor="middle" x="664.73" y="-545.92" font-family="monospace" font-size="10.00">config::Config</text>
</g>
<!-- lightning_blockstore&#45;&gt;lightning_blockstore::config::Config -->
<g id="edge2" class="edge">
<title>lightning_blockstore&#45;&gt;lightning_blockstore::config::Config</title>
<path fill="none" stroke="#000000" d="M495.94,-789.25C549.19,-744.66 635.86,-638.98 660.51,-586.66"/>
<polygon fill="#000000" stroke="#000000" points="663.82,-587.81 664.48,-577.24 657.37,-585.1 663.82,-587.81"/>
<text text-anchor="middle" x="565.73" y="-690.96" font-family="monospace" font-size="10.00">owns</text>
</g>
<!-- lightning_blockstore&#45;&gt;lightning_blockstore::config::Config -->
<g id="edge3" class="edge">
<title>lightning_blockstore&#45;&gt;lightning_blockstore::config::Config</title>
<path fill="none" stroke="#7f7f7f" stroke-dasharray="5,2" d="M456.11,-789.17C472.53,-743.52 559.68,-634.81 616.9,-583.77"/>
<polygon fill="#7f7f7f" stroke="#7f7f7f" points="619.49,-586.16 624.76,-576.97 614.91,-580.87 619.49,-586.16"/>
<text text-anchor="middle" x="524" y="-689.47" font-family="monospace" font-size="10.00">uses</text>
</g>
<!-- lightning_blockstore::put::Putter -->
<g id="node15" class="node">
<title>lightning_blockstore::put::Putter</title>
<polygon fill="#81c169" stroke="black" points="431.51,-953.34 431.51,-991.34 514.51,-991.34 514.51,-953.34 431.51,-953.34"/>
<text text-anchor="middle" x="473.01" y="-979.34" font-family="monospace" font-size="10.00">pub struct</text>
<polyline fill="none" stroke="black" points="431.51,-972.34 514.51,-972.34 "/>
<text text-anchor="middle" x="473.01" y="-960.34" font-family="monospace" font-size="10.00">put::Putter</text>
</g>
<!-- lightning_blockstore&#45;&gt;lightning_blockstore::put::Putter -->
<g id="edge4" class="edge">
<title>lightning_blockstore&#45;&gt;lightning_blockstore::put::Putter</title>
<path fill="none" stroke="#000000" d="M440.44,-827.39C432.17,-855.98 436.36,-910.09 448.19,-943.52"/>
<polygon fill="#000000" stroke="#000000" points="445.1,-945.22 452.1,-953.17 451.59,-942.59 445.1,-945.22"/>
<text text-anchor="middle" x="431.82" y="-888.45" font-family="monospace" font-size="10.00">owns</text>
</g>
<!-- lightning_blockstore&#45;&gt;lightning_blockstore::put::Putter -->
<g id="edge5" class="edge">
<title>lightning_blockstore&#45;&gt;lightning_blockstore::put::Putter</title>
<path fill="none" stroke="#7f7f7f" stroke-dasharray="5,2" d="M476.82,-827.5C490.08,-855.95 496.31,-909.48 490.77,-942.91"/>
<polygon fill="#7f7f7f" stroke="#7f7f7f" points="487.29,-942.49 488.56,-953 494.12,-943.99 487.29,-942.49"/>
<text text-anchor="middle" x="471.3" y="-888.21" font-family="monospace" font-size="10.00">uses</text>
</g>
<!-- lightning_blockstore::put::PutterMode -->
<g id="node24" class="node">
<title>lightning_blockstore::put::PutterMode</title>
<polygon fill="#db5367" stroke="black" points="466.8,-1133.12 466.8,-1171.12 573.8,-1171.12 573.8,-1133.12 466.8,-1133.12"/>
<text text-anchor="middle" x="520.3" y="-1159.12" font-family="monospace" font-size="10.00">pub(self) enum</text>
<polyline fill="none" stroke="black" points="466.8,-1152.12 573.8,-1152.12 "/>
<text text-anchor="middle" x="520.3" y="-1140.12" font-family="monospace" font-size="10.00">put::PutterMode</text>
</g>
<!-- lightning_blockstore&#45;&gt;lightning_blockstore::put::PutterMode -->
<g id="edge6" class="edge">
<title>lightning_blockstore&#45;&gt;lightning_blockstore::put::PutterMode</title>
<path fill="none" stroke="#000000" d="M459.56,-827.82C470.31,-885.25 501.97,-1054.25 514.8,-1122.77"/>
<polygon fill="#000000" stroke="#000000" points="511.41,-1123.69 516.7,-1132.87 518.3,-1122.4 511.41,-1123.69"/>
<text text-anchor="middle" x="474.68" y="-978.29" font-family="monospace" font-size="10.00">owns</text>
</g>
<!-- lightning_blockstore::store::Block -->
<g id="node25" class="node">
<title>lightning_blockstore::store::Block</title>
<polygon fill="#81c169" stroke="black" points="0.4,-801.31 0.4,-839.31 89.4,-839.31 89.4,-801.31 0.4,-801.31"/>
<text text-anchor="middle" x="44.9" y="-827.31" font-family="monospace" font-size="10.00">pub type</text>
<polyline fill="none" stroke="black" points="0.4,-820.31 89.4,-820.31 "/>
<text text-anchor="middle" x="44.9" y="-808.31" font-family="monospace" font-size="10.00">store::Block</text>
</g>
<!-- lightning_blockstore&#45;&gt;lightning_blockstore::store::Block -->
<g id="edge7" class="edge">
<title>lightning_blockstore&#45;&gt;lightning_blockstore::store::Block</title>
<path fill="none" stroke="#000000" d="M386.97,-789.63C306.16,-783.11 173.87,-787.48 99.71,-799.56"/>
<polygon fill="#000000" stroke="#000000" points="98.89,-796.15 89.64,-801.32 100.09,-803.05 98.89,-796.15"/>
<text text-anchor="middle" x="230.84" y="-797.6" font-family="monospace" font-size="10.00">owns</text>
</g>
<!-- lightning_blockstore&#45;&gt;lightning_blockstore::store::Block -->
<g id="edge8" class="edge">
<title>lightning_blockstore&#45;&gt;lightning_blockstore::store::Block</title>
<path fill="none" stroke="#7f7f7f" stroke-dasharray="5,2" d="M410.87,-827.4C334.95,-841.53 181.78,-846.41 99.73,-837.72"/>
<polygon fill="#7f7f7f" stroke="#7f7f7f" points="99.95,-834.22 89.61,-836.53 99.13,-841.18 99.95,-834.22"/>
<text text-anchor="middle" x="242.8" y="-835.56" font-family="monospace" font-size="10.00">uses</text>
</g>
<!-- lightning_blockstore::store::_Store -->
<g id="node26" class="node">
<title>lightning_blockstore::store::_Store</title>
<polygon fill="#81c169" stroke="black" points="91.9,-569.5 91.9,-607.5 186.9,-607.5 186.9,-569.5 91.9,-569.5"/>
<text text-anchor="middle" x="139.4" y="-595.5" font-family="monospace" font-size="10.00">pub trait</text>
<polyline fill="none" stroke="black" points="91.9,-588.5 186.9,-588.5 "/>
<text text-anchor="middle" x="139.4" y="-576.5" font-family="monospace" font-size="10.00">store::_Store</text>
</g>
<!-- lightning_blockstore&#45;&gt;lightning_blockstore::store::_Store -->
<g id="edge9" class="edge">
<title>lightning_blockstore&#45;&gt;lightning_blockstore::store::_Store</title>
<path fill="none" stroke="#000000" d="M428.37,-789.23C371.21,-749.52 239.64,-658.13 175.66,-613.69"/>
<polygon fill="#000000" stroke="#000000" points="177.31,-610.57 167.1,-607.74 173.32,-616.32 177.31,-610.57"/>
<text text-anchor="middle" x="289.52" y="-704.46" font-family="monospace" font-size="10.00">owns</text>
</g>
<!-- lightning_blockstore::blockstore::Blockstore::Config -->
<g id="node3" class="node">
<title>lightning_blockstore::blockstore::Blockstore::Config</title>
<polygon fill="#db5367" stroke="black" points="649.93,-438.98 649.93,-476.98 846.93,-476.98 846.93,-438.98 649.93,-438.98"/>
<text text-anchor="middle" x="748.43" y="-464.98" font-family="monospace" font-size="10.00">pub(self) type</text>
<polyline fill="none" stroke="black" points="649.93,-457.98 846.93,-457.98 "/>
<text text-anchor="middle" x="748.43" y="-445.98" font-family="monospace" font-size="10.00">blockstore::Blockstore::Config</text>
</g>
<!-- lightning_blockstore::blockstore::Blockstore&#45;&gt;lightning_blockstore::blockstore::Blockstore::Config -->
<g id="edge10" class="edge">
<title>lightning_blockstore::blockstore::Blockstore&#45;&gt;lightning_blockstore::blockstore::Blockstore::Config</title>
<path fill="none" stroke="#000000" d="M577.55,-386.32C611.31,-400.48 657.57,-419.88 693.45,-434.92"/>
<polygon fill="#000000" stroke="#000000" points="692.22,-438.2 702.8,-438.84 694.93,-431.75 692.22,-438.2"/>
<text text-anchor="middle" x="623" y="-413.62" font-family="monospace" font-size="10.00">owns</text>
</g>
<!-- lightning_blockstore::blockstore::Blockstore::DirPut -->
<g id="node4" class="node">
<title>lightning_blockstore::blockstore::Blockstore::DirPut</title>
<polygon fill="#db5367" stroke="black" points="6.4,-327.53 6.4,-365.53 203.4,-365.53 203.4,-327.53 6.4,-327.53"/>
<text text-anchor="middle" x="104.9" y="-353.53" font-family="monospace" font-size="10.00">pub(self) type</text>
<polyline fill="none" stroke="black" points="6.4,-346.53 203.4,-346.53 "/>
<text text-anchor="middle" x="104.9" y="-334.53" font-family="monospace" font-size="10.00">blockstore::Blockstore::DirPut</text>
</g>
<!-- lightning_blockstore::blockstore::Blockstore&#45;&gt;lightning_blockstore::blockstore::Blockstore::DirPut -->
<g id="edge11" class="edge">
<title>lightning_blockstore::blockstore::Blockstore&#45;&gt;lightning_blockstore::blockstore::Blockstore::DirPut</title>
<path fill="none" stroke="#000000" d="M457.3,-363.67C389.84,-360.39 289.86,-355.52 213.61,-351.82"/>
<polygon fill="#000000" stroke="#000000" points="213.65,-348.31 203.49,-351.32 213.31,-355.3 213.65,-348.31"/>
<text text-anchor="middle" x="322.96" y="-360.74" font-family="monospace" font-size="10.00">owns</text>
</g>
<!-- lightning_blockstore::blockstore::Blockstore::Put -->
<g id="node5" class="node">
<title>lightning_blockstore::blockstore::Blockstore::Put</title>
<polygon fill="#db5367" stroke="black" points="374.34,-554.05 374.34,-592.05 553.34,-592.05 553.34,-554.05 374.34,-554.05"/>
<text text-anchor="middle" x="463.84" y="-580.05" font-family="monospace" font-size="10.00">pub(self) type</text>
<polyline fill="none" stroke="black" points="374.34,-573.05 553.34,-573.05 "/>
<text text-anchor="middle" x="463.84" y="-561.05" font-family="monospace" font-size="10.00">blockstore::Blockstore::Put</text>
</g>
<!-- lightning_blockstore::blockstore::Blockstore&#45;&gt;lightning_blockstore::blockstore::Blockstore::Put -->
<g id="edge12" class="edge">
<title>lightning_blockstore::blockstore::Blockstore&#45;&gt;lightning_blockstore::blockstore::Blockstore::Put</title>
<path fill="none" stroke="#000000" d="M506.57,-386.34C482.2,-422.66 456.33,-500.9 454.63,-543.84"/>
<polygon fill="#000000" stroke="#000000" points="451.13,-543.98 454.73,-553.95 458.13,-543.91 451.13,-543.98"/>
<text text-anchor="middle" x="468.1" y="-468.09" font-family="monospace" font-size="10.00">owns</text>
</g>
<!-- lightning_blockstore::blockstore::Blockstore::SharedPointer -->
<g id="node6" class="node">
<title>lightning_blockstore::blockstore::Blockstore::SharedPointer</title>
<polygon fill="#db5367" stroke="black" points="841.5,-253.67 841.5,-291.67 1080.5,-291.67 1080.5,-253.67 841.5,-253.67"/>
<text text-anchor="middle" x="961" y="-279.67" font-family="monospace" font-size="10.00">pub(self) type</text>
<polyline fill="none" stroke="black" points="841.5,-272.67 1080.5,-272.67 "/>
<text text-anchor="middle" x="961" y="-260.67" font-family="monospace" font-size="10.00">blockstore::Blockstore::SharedPointer</text>
</g>
<!-- lightning_blockstore::blockstore::Blockstore&#45;&gt;lightning_blockstore::blockstore::Blockstore::SharedPointer -->
<g id="edge13" class="edge">
<title>lightning_blockstore::blockstore::Blockstore&#45;&gt;lightning_blockstore::blockstore::Blockstore::SharedPointer</title>
<path fill="none" stroke="#000000" d="M606.91,-350.83C678.47,-335.03 786.81,-311.12 864.8,-293.9"/>
<polygon fill="#000000" stroke="#000000" points="865.62,-297.3 874.63,-291.73 864.11,-290.47 865.62,-297.3"/>
<text text-anchor="middle" x="723.35" y="-325.36" font-family="monospace" font-size="10.00">owns</text>
</g>
<!-- lightning_blockstore::blockstore::Blockstore::get -->
<g id="node7" class="node">
<title>lightning_blockstore::blockstore::Blockstore::get</title>
<polygon fill="#db5367" stroke="black" points="165.33,-65.2 165.33,-103.2 344.33,-103.2 344.33,-65.2 165.33,-65.2"/>
<text text-anchor="middle" x="254.83" y="-91.2" font-family="monospace" font-size="10.00">pub(self) async fn</text>
<polyline fill="none" stroke="black" points="165.33,-84.2 344.33,-84.2 "/>
<text text-anchor="middle" x="254.83" y="-72.2" font-family="monospace" font-size="10.00">blockstore::Blockstore::get</text>
</g>
<!-- lightning_blockstore::blockstore::Blockstore&#45;&gt;lightning_blockstore::blockstore::Blockstore::get -->
<g id="edge14" class="edge">
<title>lightning_blockstore::blockstore::Blockstore&#45;&gt;lightning_blockstore::blockstore::Blockstore::get</title>
<path fill="none" stroke="#000000" d="M529.45,-348.28C504.39,-297.3 379.64,-166.2 306.54,-109.45"/>
<polygon fill="#000000" stroke="#000000" points="308.42,-106.48 298.33,-103.23 304.19,-112.06 308.42,-106.48"/>
<text text-anchor="middle" x="405.5" y="-231.87" font-family="monospace" font-size="10.00">owns</text>
</g>
<!-- lightning_blockstore::blockstore::Blockstore::get_root_dir -->
<g id="node8" class="node">
<title>lightning_blockstore::blockstore::Blockstore::get_root_dir</title>
<polygon fill="#db5367" stroke="black" points="611.57,-0.04 611.57,-38.04 844.57,-38.04 844.57,-0.04 611.57,-0.04"/>
<text text-anchor="middle" x="728.07" y="-26.04" font-family="monospace" font-size="10.00">pub(self) fn</text>
<polyline fill="none" stroke="black" points="611.57,-19.04 844.57,-19.04 "/>
<text text-anchor="middle" x="728.07" y="-7.04" font-family="monospace" font-size="10.00">blockstore::Blockstore::get_root_dir</text>
</g>
<!-- lightning_blockstore::blockstore::Blockstore&#45;&gt;lightning_blockstore::blockstore::Blockstore::get_root_dir -->
<g id="edge15" class="edge">
<title>lightning_blockstore::blockstore::Blockstore&#45;&gt;lightning_blockstore::blockstore::Blockstore::get_root_dir</title>
<path fill="none" stroke="#000000" d="M560.32,-348.28C611.68,-289.92 708.19,-117.51 727.89,-47.95"/>
<polygon fill="#000000" stroke="#000000" points="731.33,-48.62 730.31,-38.08 724.53,-46.96 731.33,-48.62"/>
<text text-anchor="middle" x="631.61" y="-201.11" font-family="monospace" font-size="10.00">owns</text>
</g>
<!-- lightning_blockstore::blockstore::Blockstore::get_tree -->
<g id="node9" class="node">
<title>lightning_blockstore::blockstore::Blockstore::get_tree</title>
<polygon fill="#db5367" stroke="black" points="241.83,-249.52 241.83,-287.52 450.83,-287.52 450.83,-249.52 241.83,-249.52"/>
<text text-anchor="middle" x="346.33" y="-275.52" font-family="monospace" font-size="10.00">pub(self) async fn</text>
<polyline fill="none" stroke="black" points="241.83,-268.52 450.83,-268.52 "/>
<text text-anchor="middle" x="346.33" y="-256.52" font-family="monospace" font-size="10.00">blockstore::Blockstore::get_tree</text>
</g>
<!-- lightning_blockstore::blockstore::Blockstore&#45;&gt;lightning_blockstore::blockstore::Blockstore::get_tree -->
<g id="edge16" class="edge">
<title>lightning_blockstore::blockstore::Blockstore&#45;&gt;lightning_blockstore::blockstore::Blockstore::get_tree</title>
<path fill="none" stroke="#000000" d="M526.71,-348.26C513.36,-331.15 481.56,-309.45 448.24,-292.13"/>
<polygon fill="#000000" stroke="#000000" points="449.79,-288.99 439.29,-287.59 446.63,-295.23 449.79,-288.99"/>
<text text-anchor="middle" x="474.98" y="-323.19" font-family="monospace" font-size="10.00">owns</text>
</g>
<!-- lightning_blockstore::blockstore::Blockstore::init -->
<g id="node10" class="node">
<title>lightning_blockstore::blockstore::Blockstore::init</title>
<polygon fill="#db5367" stroke="black" points="558.03,-269.49 558.03,-307.49 743.03,-307.49 743.03,-269.49 558.03,-269.49"/>
<text text-anchor="middle" x="650.53" y="-295.49" font-family="monospace" font-size="10.00">pub(self) fn</text>
<polyline fill="none" stroke="black" points="558.03,-288.49 743.03,-288.49 "/>
<text text-anchor="middle" x="650.53" y="-276.49" font-family="monospace" font-size="10.00">blockstore::Blockstore::init</text>
</g>
<!-- lightning_blockstore::blockstore::Blockstore&#45;&gt;lightning_blockstore::blockstore::Blockstore::init -->
<g id="edge17" class="edge">
<title>lightning_blockstore::blockstore::Blockstore&#45;&gt;lightning_blockstore::blockstore::Blockstore::init</title>
<path fill="none" stroke="#000000" d="M607.04,-349.91C622.17,-339.74 635.92,-327.65 644.31,-316.29"/>
<polygon fill="#000000" stroke="#000000" points="647.29,-318.12 649.62,-307.79 641.35,-314.42 647.29,-318.12"/>
<text text-anchor="middle" x="613.18" y="-336.1" font-family="monospace" font-size="10.00">owns</text>
</g>
<!-- lightning_blockstore::blockstore::Blockstore::provide_indexer -->
<g id="node11" class="node">
<title>lightning_blockstore::blockstore::Blockstore::provide_indexer</title>
<polygon fill="#db5367" stroke="black" points="352.55,-38.82 352.55,-76.82 603.55,-76.82 603.55,-38.82 352.55,-38.82"/>
<text text-anchor="middle" x="478.05" y="-64.82" font-family="monospace" font-size="10.00">pub(self) fn</text>
<polyline fill="none" stroke="black" points="352.55,-57.82 603.55,-57.82 "/>
<text text-anchor="middle" x="478.05" y="-45.82" font-family="monospace" font-size="10.00">blockstore::Blockstore::provide_indexer</text>
</g>
<!-- lightning_blockstore::blockstore::Blockstore&#45;&gt;lightning_blockstore::blockstore::Blockstore::provide_indexer -->
<g id="edge18" class="edge">
<title>lightning_blockstore::blockstore::Blockstore&#45;&gt;lightning_blockstore::blockstore::Blockstore::provide_indexer</title>
<path fill="none" stroke="#000000" d="M542.24,-347.95C550.22,-295.11 525.92,-148.68 500.44,-86.38"/>
<polygon fill="#000000" stroke="#000000" points="503.59,-84.86 496.34,-77.13 497.19,-87.69 503.59,-84.86"/>
<text text-anchor="middle" x="508.84" y="-220.17" font-family="monospace" font-size="10.00">owns</text>
</g>
<!-- lightning_blockstore::blockstore::Blockstore::put -->
<g id="node12" class="node">
<title>lightning_blockstore::blockstore::Blockstore::put</title>
<polygon fill="#db5367" stroke="black" points="186,-730.38 186,-768.38 365,-768.38 365,-730.38 186,-730.38"/>
<text text-anchor="middle" x="275.5" y="-756.38" font-family="monospace" font-size="10.00">pub(self) fn</text>
<polyline fill="none" stroke="black" points="186,-749.38 365,-749.38 "/>
<text text-anchor="middle" x="275.5" y="-737.38" font-family="monospace" font-size="10.00">blockstore::Blockstore::put</text>
</g>
<!-- lightning_blockstore::blockstore::Blockstore&#45;&gt;lightning_blockstore::blockstore::Blockstore::put -->
<g id="edge19" class="edge">
<title>lightning_blockstore::blockstore::Blockstore&#45;&gt;lightning_blockstore::blockstore::Blockstore::put</title>
<path fill="none" stroke="#000000" d="M501.47,-386.53C438.82,-449.75 307.81,-645.64 278.84,-720.6"/>
<polygon fill="#000000" stroke="#000000" points="275.43,-719.76 275.45,-730.35 282.04,-722.06 275.43,-719.76"/>
<text text-anchor="middle" x="377.65" y="-545.57" font-family="monospace" font-size="10.00">owns</text>
</g>
<!-- lightning_blockstore::blockstore::Blockstore::put_dir -->
<g id="node13" class="node">
<title>lightning_blockstore::blockstore::Blockstore::put_dir</title>
<polygon fill="#db5367" stroke="black" points="747.99,-581.49 747.99,-619.49 950.99,-619.49 950.99,-581.49 747.99,-581.49"/>
<text text-anchor="middle" x="849.49" y="-607.49" font-family="monospace" font-size="10.00">pub(self) fn</text>
<polyline fill="none" stroke="black" points="747.99,-600.49 950.99,-600.49 "/>
<text text-anchor="middle" x="849.49" y="-588.49" font-family="monospace" font-size="10.00">blockstore::Blockstore::put_dir</text>
</g>
<!-- lightning_blockstore::blockstore::Blockstore&#45;&gt;lightning_blockstore::blockstore::Blockstore::put_dir -->
<g id="edge20" class="edge">
<title>lightning_blockstore::blockstore::Blockstore&#45;&gt;lightning_blockstore::blockstore::Blockstore::put_dir</title>
<path fill="none" stroke="#000000" d="M538.55,-386.42C570.5,-430.45 699.33,-529.06 781.14,-576.5"/>
<polygon fill="#000000" stroke="#000000" points="779.47,-579.57 789.89,-581.47 782.93,-573.49 779.47,-579.57"/>
<text text-anchor="middle" x="647.35" y="-484.46" font-family="monospace" font-size="10.00">owns</text>
</g>
<!-- lightning_blockstore::blockstore::Blockstore::Config&#45;&gt;lightning_blockstore::config::Config -->
<g id="edge21" class="edge">
<title>lightning_blockstore::blockstore::Blockstore::Config&#45;&gt;lightning_blockstore::config::Config</title>
<path fill="none" stroke="#7f7f7f" stroke-dasharray="5,2" d="M732.3,-477.25C719.56,-492.46 701.63,-513.86 687.44,-530.8"/>
<polygon fill="#7f7f7f" stroke="#7f7f7f" points="684.56,-528.8 680.82,-538.71 689.92,-533.29 684.56,-528.8"/>
<text text-anchor="middle" x="697.37" y="-507.03" font-family="monospace" font-size="10.00">uses</text>
</g>
<!-- lightning_blockstore::blockstore::Blockstore::Put&#45;&gt;lightning_blockstore::blockstore::Blockstore -->
<g id="edge22" class="edge">
<title>lightning_blockstore::blockstore::Blockstore::Put&#45;&gt;lightning_blockstore::blockstore::Blockstore</title>
<path fill="none" stroke="#7f7f7f" stroke-dasharray="5,2" d="M489.49,-554.02C513.87,-517.7 539.74,-439.46 541.44,-396.52"/>
<polygon fill="#7f7f7f" stroke="#7f7f7f" points="544.94,-396.38 541.34,-386.41 537.94,-396.45 544.94,-396.38"/>
<text text-anchor="middle" x="502.97" y="-478.27" font-family="monospace" font-size="10.00">uses</text>
</g>
<!-- lightning_blockstore::blockstore::Blockstore::Put&#45;&gt;lightning_blockstore::put::Putter -->
<g id="edge23" class="edge">
<title>lightning_blockstore::blockstore::Blockstore::Put&#45;&gt;lightning_blockstore::put::Putter</title>
<path fill="none" stroke="#7f7f7f" stroke-dasharray="5,2" d="M464.28,-592.31C465.77,-656.88 470.57,-865.98 472.34,-943.27"/>
<polygon fill="#7f7f7f" stroke="#7f7f7f" points="468.85,-943.35 472.57,-953.27 475.84,-943.19 468.85,-943.35"/>
<text text-anchor="middle" x="455.81" y="-770.79" font-family="monospace" font-size="10.00">uses</text>
</g>
<!-- lightning_blockstore::blockstore::Blockstore::get&#45;&gt;lightning_blockstore::blockstore::Blockstore -->
<g id="edge24" class="edge">
<title>lightning_blockstore::blockstore::Blockstore::get&#45;&gt;lightning_blockstore::blockstore::Blockstore</title>
<path fill="none" stroke="#7f7f7f" stroke-dasharray="5,2" d="M257.61,-103.23C282.67,-154.21 407.42,-285.31 480.51,-342.05"/>
<polygon fill="#7f7f7f" stroke="#7f7f7f" points="478.64,-345.03 488.73,-348.27 482.87,-339.45 478.64,-345.03"/>
<text text-anchor="middle" x="356.56" y="-225.64" font-family="monospace" font-size="10.00">uses</text>
</g>
<!-- lightning_blockstore::blockstore::Blockstore::get_root_dir&#45;&gt;lightning_blockstore::blockstore::Blockstore -->
<g id="edge25" class="edge">
<title>lightning_blockstore::blockstore::Blockstore::get_root_dir&#45;&gt;lightning_blockstore::blockstore::Blockstore</title>
<path fill="none" stroke="#7f7f7f" stroke-dasharray="5,2" d="M699.97,-38.07C648.62,-96.43 552.11,-268.83 532.4,-338.4"/>
<polygon fill="#7f7f7f" stroke="#7f7f7f" points="528.96,-337.73 529.99,-348.27 535.76,-339.39 528.96,-337.73"/>
<text text-anchor="middle" x="603.69" y="-191.23" font-family="monospace" font-size="10.00">uses</text>
</g>
<!-- lightning_blockstore::blockstore::Blockstore::get_tree&#45;&gt;lightning_blockstore::blockstore::Blockstore -->
<g id="edge26" class="edge">
<title>lightning_blockstore::blockstore::Blockstore::get_tree&#45;&gt;lightning_blockstore::blockstore::Blockstore</title>
<path fill="none" stroke="#7f7f7f" stroke-dasharray="5,2" d="M351.85,-287.58C367.6,-307.75 409,-334.33 448.3,-352.56"/>
<polygon fill="#7f7f7f" stroke="#7f7f7f" points="447.14,-355.87 457.7,-356.77 450.01,-349.49 447.14,-355.87"/>
<text text-anchor="middle" x="387.58" y="-323.07" font-family="monospace" font-size="10.00">uses</text>
</g>
<!-- lightning_blockstore::blockstore::Blockstore::init&#45;&gt;lightning_blockstore::blockstore::Blockstore -->
<g id="edge27" class="edge">
<title>lightning_blockstore::blockstore::Blockstore::init&#45;&gt;lightning_blockstore::blockstore::Blockstore</title>
<path fill="none" stroke="#7f7f7f" stroke-dasharray="5,2" d="M573.31,-307.54C559.21,-317.29 546.52,-328.64 538.57,-339.35"/>
<polygon fill="#7f7f7f" stroke="#7f7f7f" points="535.41,-337.81 533.08,-348.14 541.34,-341.52 535.41,-337.81"/>
<text text-anchor="middle" x="543.44" y="-326.44" font-family="monospace" font-size="10.00">uses</text>
</g>
<!-- lightning_blockstore::blockstore::Blockstore::init&#45;&gt;lightning_blockstore::config::Config -->
<g id="edge28" class="edge">
<title>lightning_blockstore::blockstore::Blockstore::init&#45;&gt;lightning_blockstore::config::Config</title>
<path fill="none" stroke="#7f7f7f" stroke-dasharray="5,2" d="M651.55,-307.86C654.01,-354.47 660.26,-473.07 663.18,-528.51"/>
<polygon fill="#7f7f7f" stroke="#7f7f7f" points="659.7,-528.92 663.72,-538.72 666.69,-528.55 659.7,-528.92"/>
<text text-anchor="middle" x="669.87" y="-421.19" font-family="monospace" font-size="10.00">uses</text>
</g>
<!-- lightning_blockstore::blockstore::Blockstore::provide_indexer&#45;&gt;lightning_blockstore::blockstore::Blockstore -->
<g id="edge29" class="edge">
<title>lightning_blockstore::blockstore::Blockstore::provide_indexer&#45;&gt;lightning_blockstore::blockstore::Blockstore</title>
<path fill="none" stroke="#7f7f7f" stroke-dasharray="5,2" d="M468.03,-77.18C460.05,-130.02 484.35,-276.45 509.83,-338.75"/>
<polygon fill="#7f7f7f" stroke="#7f7f7f" points="506.68,-340.27 513.93,-348 513.08,-337.44 506.68,-340.27"/>
<text text-anchor="middle" x="476.43" y="-210.96" font-family="monospace" font-size="10.00">uses</text>
</g>
<!-- lightning_blockstore::blockstore::Blockstore::put&#45;&gt;lightning_blockstore::blockstore::Blockstore -->
<g id="edge30" class="edge">
<title>lightning_blockstore::blockstore::Blockstore::put&#45;&gt;lightning_blockstore::blockstore::Blockstore</title>
<path fill="none" stroke="#7f7f7f" stroke-dasharray="5,2" d="M306.26,-730.16C368.91,-666.94 499.92,-471.05 528.89,-396.09"/>
<polygon fill="#7f7f7f" stroke="#7f7f7f" points="532.3,-396.93 532.28,-386.34 525.69,-394.63 532.3,-396.93"/>
<text text-anchor="middle" x="405.08" y="-555.13" font-family="monospace" font-size="10.00">uses</text>
</g>
<!-- lightning_blockstore::blockstore::Blockstore::put&#45;&gt;lightning_blockstore::put::Putter -->
<g id="edge31" class="edge">
<title>lightning_blockstore::blockstore::Blockstore::put&#45;&gt;lightning_blockstore::put::Putter</title>
<path fill="none" stroke="#7f7f7f" stroke-dasharray="5,2" d="M292.34,-768.39C327.46,-808.03 408.59,-899.61 449.1,-945.34"/>
<polygon fill="#7f7f7f" stroke="#7f7f7f" points="446.68,-947.89 455.93,-953.06 451.92,-943.25 446.68,-947.89"/>
<text text-anchor="middle" x="358.22" y="-859.86" font-family="monospace" font-size="10.00">uses</text>
</g>
<!-- lightning_blockstore::blockstore::Blockstore::put_dir&#45;&gt;lightning_blockstore::blockstore::Blockstore -->
<g id="edge32" class="edge">
<title>lightning_blockstore::blockstore::Blockstore::put_dir&#45;&gt;lightning_blockstore::blockstore::Blockstore</title>
<path fill="none" stroke="#7f7f7f" stroke-dasharray="5,2" d="M843.17,-581.38C811.22,-537.36 682.39,-438.75 600.58,-391.31"/>
<polygon fill="#7f7f7f" stroke="#7f7f7f" points="602.25,-388.23 591.83,-386.33 598.79,-394.32 602.25,-388.23"/>
<text text-anchor="middle" x="709.37" y="-489.34" font-family="monospace" font-size="10.00">uses</text>
</g>
<!-- lightning_blockstore::put::Putter::feed_proof -->
<g id="node16" class="node">
<title>lightning_blockstore::put::Putter::feed_proof</title>
<polygon fill="#db5367" stroke="black" points="838.22,-998.82 838.22,-1036.82 993.22,-1036.82 993.22,-998.82 838.22,-998.82"/>
<text text-anchor="middle" x="915.72" y="-1024.82" font-family="monospace" font-size="10.00">pub(self) fn</text>
<polyline fill="none" stroke="black" points="838.22,-1017.82 993.22,-1017.82 "/>
<text text-anchor="middle" x="915.72" y="-1005.82" font-family="monospace" font-size="10.00">put::Putter::feed_proof</text>
</g>
<!-- lightning_blockstore::put::Putter&#45;&gt;lightning_blockstore::put::Putter::feed_proof -->
<g id="edge33" class="edge">
<title>lightning_blockstore::put::Putter&#45;&gt;lightning_blockstore::put::Putter::feed_proof</title>
<path fill="none" stroke="#000000" d="M506.91,-991.41C574.76,-1011.22 729.14,-1029.22 827.58,-1030.76"/>
<polygon fill="#000000" stroke="#000000" points="827.78,-1034.27 837.81,-1030.86 827.85,-1027.27 827.78,-1034.27"/>
<text text-anchor="middle" x="654.74" y="-1014.09" font-family="monospace" font-size="10.00">owns</text>
</g>
<!-- lightning_blockstore::put::Putter::finalize -->
<g id="node17" class="node">
<title>lightning_blockstore::put::Putter::finalize</title>
<polygon fill="#db5367" stroke="black" points="680.27,-1074.06 680.27,-1112.06 823.27,-1112.06 823.27,-1074.06 680.27,-1074.06"/>
<text text-anchor="middle" x="751.77" y="-1100.06" font-family="monospace" font-size="10.00">pub(self) async fn</text>
<polyline fill="none" stroke="black" points="680.27,-1093.06 823.27,-1093.06 "/>
<text text-anchor="middle" x="751.77" y="-1081.06" font-family="monospace" font-size="10.00">put::Putter::finalize</text>
</g>
<!-- lightning_blockstore::put::Putter&#45;&gt;lightning_blockstore::put::Putter::finalize -->
<g id="edge34" class="edge">
<title>lightning_blockstore::put::Putter&#45;&gt;lightning_blockstore::put::Putter::finalize</title>
<path fill="none" stroke="#000000" d="M483.49,-991.43C514.23,-1019.33 603.12,-1061.68 670.35,-1083.91"/>
<polygon fill="#000000" stroke="#000000" points="669.51,-1087.32 680.1,-1087.04 671.65,-1080.65 669.51,-1087.32"/>
<text text-anchor="middle" x="564.42" y="-1040.67" font-family="monospace" font-size="10.00">owns</text>
</g>
<!-- lightning_blockstore::put::Putter::flush -->
<g id="node18" class="node">
<title>lightning_blockstore::put::Putter::flush</title>
<polygon fill="#db5367" stroke="black" points="165.05,-1144.06 165.05,-1182.06 290.05,-1182.06 290.05,-1144.06 165.05,-1144.06"/>
<text text-anchor="middle" x="227.55" y="-1170.06" font-family="monospace" font-size="10.00">pub(self) fn</text>
<polyline fill="none" stroke="black" points="165.05,-1163.06 290.05,-1163.06 "/>
<text text-anchor="middle" x="227.55" y="-1151.06" font-family="monospace" font-size="10.00">put::Putter::flush</text>
</g>
<!-- lightning_blockstore::put::Putter&#45;&gt;lightning_blockstore::put::Putter::flush -->
<g id="edge35" class="edge">
<title>lightning_blockstore::put::Putter&#45;&gt;lightning_blockstore::put::Putter::flush</title>
<path fill="none" stroke="#000000" d="M431.31,-981.29C372.82,-1011.26 271.95,-1090.89 237.82,-1135.38"/>
<polygon fill="#000000" stroke="#000000" points="234.8,-1133.6 231.92,-1143.79 240.53,-1137.62 234.8,-1133.6"/>
<text text-anchor="middle" x="322.06" y="-1061.34" font-family="monospace" font-size="10.00">owns</text>
</g>
<!-- lightning_blockstore::put::Putter::is_finished -->
<g id="node19" class="node">
<title>lightning_blockstore::put::Putter::is_finished</title>
<polygon fill="#db5367" stroke="black" points="240.51,-972.81 240.51,-1010.81 401.51,-1010.81 401.51,-972.81 240.51,-972.81"/>
<text text-anchor="middle" x="321.01" y="-998.81" font-family="monospace" font-size="10.00">pub(self) fn</text>
<polyline fill="none" stroke="black" points="240.51,-991.81 401.51,-991.81 "/>
<text text-anchor="middle" x="321.01" y="-979.81" font-family="monospace" font-size="10.00">put::Putter::is_finished</text>
</g>
<!-- lightning_blockstore::put::Putter&#45;&gt;lightning_blockstore::put::Putter::is_finished -->
<g id="edge36" class="edge">
<title>lightning_blockstore::put::Putter&#45;&gt;lightning_blockstore::put::Putter::is_finished</title>
<path fill="none" stroke="#000000" d="M431.23,-953.61C402.88,-952.16 366.53,-957.9 343.48,-968.1"/>
<polygon fill="#000000" stroke="#000000" points="341.76,-965.05 334.47,-972.74 344.96,-971.27 341.76,-965.05"/>
<text text-anchor="middle" x="374.85" y="-963.86" font-family="monospace" font-size="10.00">owns</text>
</g>
<!-- lightning_blockstore::put::Putter::new -->
<g id="node20" class="node">
<title>lightning_blockstore::put::Putter::new</title>
<polygon fill="#db5367" stroke="black" points="692.71,-1256.11 692.71,-1294.11 805.71,-1294.11 805.71,-1256.11 692.71,-1256.11"/>
<text text-anchor="middle" x="749.21" y="-1282.11" font-family="monospace" font-size="10.00">pub(self) fn</text>
<polyline fill="none" stroke="black" points="692.71,-1275.11 805.71,-1275.11 "/>
<text text-anchor="middle" x="749.21" y="-1263.11" font-family="monospace" font-size="10.00">put::Putter::new</text>
</g>
<!-- lightning_blockstore::put::Putter&#45;&gt;lightning_blockstore::put::Putter::new -->
<g id="edge37" class="edge">
<title>lightning_blockstore::put::Putter&#45;&gt;lightning_blockstore::put::Putter::new</title>
<path fill="none" stroke="#000000" d="M475.25,-991.37C499.55,-1045.04 627.81,-1189.33 700.63,-1249.53"/>
<polygon fill="#000000" stroke="#000000" points="698.81,-1252.56 708.79,-1256.11 703.2,-1247.11 698.81,-1252.56"/>
<text text-anchor="middle" x="575.44" y="-1123.45" font-family="monospace" font-size="10.00">owns</text>
</g>
<!-- lightning_blockstore::put::Putter::trust -->
<g id="node21" class="node">
<title>lightning_blockstore::put::Putter::trust</title>
<polygon fill="#81c169" stroke="black" points="441.86,-1345.37 441.86,-1383.37 566.86,-1383.37 566.86,-1345.37 441.86,-1345.37"/>
<text text-anchor="middle" x="504.36" y="-1371.37" font-family="monospace" font-size="10.00">pub fn</text>
<polyline fill="none" stroke="black" points="441.86,-1364.37 566.86,-1364.37 "/>
<text text-anchor="middle" x="504.36" y="-1352.37" font-family="monospace" font-size="10.00">put::Putter::trust</text>
</g>
<!-- lightning_blockstore::put::Putter&#45;&gt;lightning_blockstore::put::Putter::trust -->
<g id="edge38" class="edge">
<title>lightning_blockstore::put::Putter&#45;&gt;lightning_blockstore::put::Putter::trust</title>
<path fill="none" stroke="#000000" d="M462.29,-991.43C448.67,-1054.91 463.96,-1259 486.71,-1335.27"/>
<polygon fill="#000000" stroke="#000000" points="483.51,-1336.75 489.96,-1345.16 490.16,-1334.56 483.51,-1336.75"/>
<text text-anchor="middle" x="462" y="-1166.35" font-family="monospace" font-size="10.00">owns</text>
</g>
<!-- lightning_blockstore::put::Putter::verifier -->
<g id="node22" class="node">
<title>lightning_blockstore::put::Putter::verifier</title>
<polygon fill="#81c169" stroke="black" points="613.01,-811.17 613.01,-849.17 756.01,-849.17 756.01,-811.17 613.01,-811.17"/>
<text text-anchor="middle" x="684.51" y="-837.17" font-family="monospace" font-size="10.00">pub fn</text>
<polyline fill="none" stroke="black" points="613.01,-830.17 756.01,-830.17 "/>
<text text-anchor="middle" x="684.51" y="-818.17" font-family="monospace" font-size="10.00">put::Putter::verifier</text>
</g>
<!-- lightning_blockstore::put::Putter&#45;&gt;lightning_blockstore::put::Putter::verifier -->
<g id="edge39" class="edge">
<title>lightning_blockstore::put::Putter&#45;&gt;lightning_blockstore::put::Putter::verifier</title>
<path fill="none" stroke="#000000" d="M514.76,-968.02C564.73,-947.29 643.88,-892.83 673.84,-857.35"/>
<polygon fill="#000000" stroke="#000000" points="676.77,-859.28 680.05,-849.2 671.2,-855.03 676.77,-859.28"/>
<text text-anchor="middle" x="581.8" y="-915.68" font-family="monospace" font-size="10.00">owns</text>
</g>
<!-- lightning_blockstore::put::Putter::write -->
<g id="node23" class="node">
<title>lightning_blockstore::put::Putter::write</title>
<polygon fill="#db5367" stroke="black" points="304.41,-1268.87 304.41,-1306.87 429.41,-1306.87 429.41,-1268.87 304.41,-1268.87"/>
<text text-anchor="middle" x="366.91" y="-1294.87" font-family="monospace" font-size="10.00">pub(self) fn</text>
<polyline fill="none" stroke="black" points="304.41,-1287.87 429.41,-1287.87 "/>
<text text-anchor="middle" x="366.91" y="-1275.87" font-family="monospace" font-size="10.00">put::Putter::write</text>
</g>
<!-- lightning_blockstore::put::Putter&#45;&gt;lightning_blockstore::put::Putter::write -->
<g id="edge40" class="edge">
<title>lightning_blockstore::put::Putter&#45;&gt;lightning_blockstore::put::Putter::write</title>
<path fill="none" stroke="#000000" d="M450.42,-991.72C415.85,-1045.38 365.68,-1194.5 360.64,-1258.45"/>
<polygon fill="#000000" stroke="#000000" points="357.14,-1258.52 360.23,-1268.65 364.13,-1258.8 357.14,-1258.52"/>
<text text-anchor="middle" x="393.03" y="-1128.08" font-family="monospace" font-size="10.00">owns</text>
</g>
<!-- lightning_blockstore::put::Putter&#45;&gt;lightning_blockstore::put::PutterMode -->
<g id="edge41" class="edge">
<title>lightning_blockstore::put::Putter&#45;&gt;lightning_blockstore::put::PutterMode</title>
<path fill="none" stroke="#7f7f7f" stroke-dasharray="5,2" d="M478.07,-991.58C486.39,-1023.21 503.01,-1086.36 512.73,-1123.34"/>
<polygon fill="#7f7f7f" stroke="#7f7f7f" points="509.35,-1124.24 515.28,-1133.02 516.12,-1122.46 509.35,-1124.24"/>
<text text-anchor="middle" x="482.9" y="-1060.46" font-family="monospace" font-size="10.00">uses</text>
</g>
<!-- lightning_blockstore::put::Putter::feed_proof&#45;&gt;lightning_blockstore::put::Putter -->
<g id="edge42" class="edge">
<title>lightning_blockstore::put::Putter::feed_proof&#45;&gt;lightning_blockstore::put::Putter</title>
<path fill="none" stroke="#7f7f7f" stroke-dasharray="5,2" d="M881.82,-998.75C804.87,-976.28 616.63,-956.15 524.92,-959.7"/>
<polygon fill="#7f7f7f" stroke="#7f7f7f" points="524.57,-956.21 514.76,-960.22 524.92,-963.2 524.57,-956.21"/>
<text text-anchor="middle" x="690.87" y="-982.22" font-family="monospace" font-size="10.00">uses</text>
</g>
<!-- lightning_blockstore::put::Putter::feed_proof&#45;&gt;lightning_blockstore::put::PutterMode -->
<g id="edge43" class="edge">
<title>lightning_blockstore::put::Putter::feed_proof&#45;&gt;lightning_blockstore::put::PutterMode</title>
<path fill="none" stroke="#7f7f7f" stroke-dasharray="5,2" d="M859.49,-1036.92C786.49,-1061.72 659.46,-1104.86 583.29,-1130.73"/>
<polygon fill="#7f7f7f" stroke="#7f7f7f" points="582.15,-1127.42 573.81,-1133.95 584.4,-1134.05 582.15,-1127.42"/>
<text text-anchor="middle" x="708.89" y="-1075.83" font-family="monospace" font-size="10.00">uses</text>
</g>
<!-- lightning_blockstore::put::Putter::finalize&#45;&gt;lightning_blockstore::put::Putter -->
<g id="edge44" class="edge">
<title>lightning_blockstore::put::Putter::finalize&#45;&gt;lightning_blockstore::put::Putter</title>
<path fill="none" stroke="#7f7f7f" stroke-dasharray="5,2" d="M741.29,-1073.97C705.71,-1041.67 592.22,-990.02 524.6,-972.61"/>
<polygon fill="#7f7f7f" stroke="#7f7f7f" points="525.11,-969.14 514.57,-970.21 523.48,-975.94 525.11,-969.14"/>
<text text-anchor="middle" x="620.45" y="-1026.29" font-family="monospace" font-size="10.00">uses</text>
</g>
<!-- lightning_blockstore::put::Putter::finalize&#45;&gt;lightning_blockstore::put::PutterMode -->
<g id="edge45" class="edge">
<title>lightning_blockstore::put::Putter::finalize&#45;&gt;lightning_blockstore::put::PutterMode</title>
<path fill="none" stroke="#7f7f7f" stroke-dasharray="5,2" d="M680.12,-1111.34C649.34,-1119.2 613.67,-1128.3 583.85,-1135.91"/>
<polygon fill="#7f7f7f" stroke="#7f7f7f" points="582.81,-1132.56 573.98,-1138.43 584.54,-1139.35 582.81,-1132.56"/>
<text text-anchor="middle" x="619.49" y="-1126.63" font-family="monospace" font-size="10.00">uses</text>
</g>
<!-- lightning_blockstore::put::Putter::flush&#45;&gt;lightning_blockstore::put::Putter -->
<g id="edge46" class="edge">
<title>lightning_blockstore::put::Putter::flush&#45;&gt;lightning_blockstore::put::Putter</title>
<path fill="none" stroke="#7f7f7f" stroke-dasharray="5,2" d="M287.64,-1143.91C347.01,-1108.78 432.17,-1039.97 462.85,-999.87"/>
<polygon fill="#7f7f7f" stroke="#7f7f7f" points="465.82,-1001.73 468.69,-991.53 460.09,-997.72 465.82,-1001.73"/>
<text text-anchor="middle" x="362.75" y="-1074.89" font-family="monospace" font-size="10.00">uses</text>
</g>
<!-- lightning_blockstore::put::Putter::flush&#45;&gt;lightning_blockstore::put::PutterMode -->
<g id="edge47" class="edge">
<title>lightning_blockstore::put::Putter::flush&#45;&gt;lightning_blockstore::put::PutterMode</title>
<path fill="none" stroke="#7f7f7f" stroke-dasharray="5,2" d="M290.36,-1160.72C339.29,-1158.89 406.97,-1156.36 456.23,-1154.52"/>
<polygon fill="#7f7f7f" stroke="#7f7f7f" points="456.59,-1158.01 466.45,-1154.14 456.32,-1151.01 456.59,-1158.01"/>
<text text-anchor="middle" x="360.79" y="-1160.62" font-family="monospace" font-size="10.00">uses</text>
</g>
<!-- lightning_blockstore::put::Putter::is_finished&#45;&gt;lightning_blockstore::put::Putter -->
<g id="edge48" class="edge">
<title>lightning_blockstore::put::Putter::is_finished&#45;&gt;lightning_blockstore::put::Putter</title>
<path fill="none" stroke="#7f7f7f" stroke-dasharray="5,2" d="M401.78,-1008.68C419.65,-1006.29 437.17,-1001.93 450.37,-996.12"/>
<polygon fill="#7f7f7f" stroke="#7f7f7f" points="452.27,-999.08 459.56,-991.4 449.07,-992.86 452.27,-999.08"/>
<text text-anchor="middle" x="413.57" y="-1005.4" font-family="monospace" font-size="10.00">uses</text>
</g>
<!-- lightning_blockstore::put::Putter::is_finished&#45;&gt;lightning_blockstore::put::PutterMode -->
<g id="edge49" class="edge">
<title>lightning_blockstore::put::Putter::is_finished&#45;&gt;lightning_blockstore::put::PutterMode</title>
<path fill="none" stroke="#7f7f7f" stroke-dasharray="5,2" d="M344.65,-1010.83C380.44,-1039.62 448.43,-1094.31 488.51,-1126.55"/>
<polygon fill="#7f7f7f" stroke="#7f7f7f" points="486.39,-1129.34 496.38,-1132.88 490.78,-1123.88 486.39,-1129.34"/>
<text text-anchor="middle" x="404.08" y="-1071.69" font-family="monospace" font-size="10.00">uses</text>
</g>
<!-- lightning_blockstore::put::Putter::new&#45;&gt;lightning_blockstore::put::Putter -->
<g id="edge50" class="edge">
<title>lightning_blockstore::put::Putter::new&#45;&gt;lightning_blockstore::put::Putter</title>
<path fill="none" stroke="#7f7f7f" stroke-dasharray="5,2" d="M746.97,-1256.08C722.67,-1202.41 594.42,-1058.12 521.6,-997.91"/>
<polygon fill="#7f7f7f" stroke="#7f7f7f" points="523.42,-994.88 513.43,-991.34 519.02,-1000.34 523.42,-994.88"/>
<text text-anchor="middle" x="646.78" y="-1130" font-family="monospace" font-size="10.00">uses</text>
</g>
<!-- lightning_blockstore::put::Putter::new&#45;&gt;lightning_blockstore::put::PutterMode -->
<g id="edge51" class="edge">
<title>lightning_blockstore::put::Putter::new&#45;&gt;lightning_blockstore::put::PutterMode</title>
<path fill="none" stroke="#7f7f7f" stroke-dasharray="5,2" d="M713.44,-1255.89C673.29,-1234.32 608.11,-1199.3 564.73,-1175.99"/>
<polygon fill="#7f7f7f" stroke="#7f7f7f" points="566.28,-1172.86 555.82,-1171.21 562.97,-1179.02 566.28,-1172.86"/>
<text text-anchor="middle" x="626.59" y="-1218.94" font-family="monospace" font-size="10.00">uses</text>
</g>
<!-- lightning_blockstore::put::Putter::trust&#45;&gt;lightning_blockstore::put::Putter -->
<g id="edge52" class="edge">
<title>lightning_blockstore::put::Putter::trust&#45;&gt;lightning_blockstore::put::Putter</title>
<path fill="none" stroke="#7f7f7f" stroke-dasharray="5,2" d="M515.08,-1345.28C528.7,-1281.8 513.41,-1077.72 490.67,-1001.44"/>
<polygon fill="#7f7f7f" stroke="#7f7f7f" points="493.86,-999.96 487.41,-991.56 487.21,-1002.15 493.86,-999.96"/>
<text text-anchor="middle" x="490.37" y="-1176.36" font-family="monospace" font-size="10.00">uses</text>
</g>
<!-- lightning_blockstore::put::Putter::trust&#45;&gt;lightning_blockstore::put::PutterMode -->
<g id="edge53" class="edge">
<title>lightning_blockstore::put::Putter::trust&#45;&gt;lightning_blockstore::put::PutterMode</title>
<path fill="none" stroke="#7f7f7f" stroke-dasharray="5,2" d="M505.8,-1345.16C508.61,-1307.83 514.81,-1225.29 518.12,-1181.21"/>
<polygon fill="#7f7f7f" stroke="#7f7f7f" points="521.62,-1181.37 518.87,-1171.14 514.64,-1180.85 521.62,-1181.37"/>
<text text-anchor="middle" x="499.46" y="-1266.19" font-family="monospace" font-size="10.00">uses</text>
</g>
<!-- lightning_blockstore::put::Putter::verifier&#45;&gt;lightning_blockstore::put::Putter -->
<g id="edge54" class="edge">
<title>lightning_blockstore::put::Putter::verifier&#45;&gt;lightning_blockstore::put::Putter</title>
<path fill="none" stroke="#7f7f7f" stroke-dasharray="5,2" d="M612.83,-848.96C565.64,-874.43 508.65,-915.82 484.01,-944.78"/>
<polygon fill="#7f7f7f" stroke="#7f7f7f" points="481.03,-942.91 477.7,-952.97 486.57,-947.19 481.03,-942.91"/>
<text text-anchor="middle" x="535.92" y="-899.87" font-family="monospace" font-size="10.00">uses</text>
</g>
<!-- lightning_blockstore::put::Putter::verifier&#45;&gt;lightning_blockstore::put::PutterMode -->
<g id="edge55" class="edge">
<title>lightning_blockstore::put::Putter::verifier&#45;&gt;lightning_blockstore::put::PutterMode</title>
<path fill="none" stroke="#7f7f7f" stroke-dasharray="5,2" d="M674.73,-849.35C646.95,-903.81 567.47,-1059.65 534.7,-1123.9"/>
<polygon fill="#7f7f7f" stroke="#7f7f7f" points="531.46,-1122.55 530.03,-1133.05 537.69,-1125.73 531.46,-1122.55"/>
<text text-anchor="middle" x="592.21" y="-989.63" font-family="monospace" font-size="10.00">uses</text>
</g>
<!-- lightning_blockstore::put::Putter::write&#45;&gt;lightning_blockstore::put::Putter -->
<g id="edge56" class="edge">
<title>lightning_blockstore::put::Putter::write&#45;&gt;lightning_blockstore::put::Putter</title>
<path fill="none" stroke="#7f7f7f" stroke-dasharray="5,2" d="M389.49,-1268.49C424.06,-1214.82 474.24,-1065.71 479.28,-1001.76"/>
<polygon fill="#7f7f7f" stroke="#7f7f7f" points="482.78,-1001.68 479.68,-991.55 475.79,-1001.4 482.78,-1001.68"/>
<text text-anchor="middle" x="421.88" y="-1138.12" font-family="monospace" font-size="10.00">uses</text>
</g>
<!-- lightning_blockstore::put::Putter::write&#45;&gt;lightning_blockstore::put::PutterMode -->
<g id="edge57" class="edge">
<title>lightning_blockstore::put::Putter::write&#45;&gt;lightning_blockstore::put::PutterMode</title>
<path fill="none" stroke="#7f7f7f" stroke-dasharray="5,2" d="M388.56,-1268.71C415.4,-1244.96 461.24,-1204.39 491.15,-1177.92"/>
<polygon fill="#7f7f7f" stroke="#7f7f7f" points="493.59,-1180.44 498.76,-1171.19 488.95,-1175.19 493.59,-1180.44"/>
<text text-anchor="middle" x="427.35" y="-1226.32" font-family="monospace" font-size="10.00">uses</text>
</g>
</g>
</svg>
