<?xml version="1.0" encoding="UTF-8" standalone="no"?>
<!DOCTYPE svg PUBLIC "-//W3C//DTD SVG 1.1//EN"
 "http://www.w3.org/Graphics/SVG/1.1/DTD/svg11.dtd">
<!-- Generated by graphviz version 4.0.0 (0)
 -->
<!-- Pages: 1 -->
<svg width="1035pt" height="1134pt"
 viewBox="0.00 0.00 1035.45 1134.44" xmlns="http://www.w3.org/2000/svg" xmlns:xlink="http://www.w3.org/1999/xlink">
<g id="graph0" class="graph" transform="scale(1 1) rotate(0) translate(28.8 1105.64)">
<polygon fill="white" stroke="transparent" points="-28.8,28.8 -28.8,-1105.64 1006.65,-1105.64 1006.65,28.8 -28.8,28.8"/>
<text text-anchor="middle" x="488.93" y="-1044.04" font-family="Helvetica,sans-Serif" font-size="36.00">lightning_notifier</text>
<!-- lightning_notifier -->
<g id="node1" class="node">
<title>lightning_notifier</title>
<polygon fill="#5397c8" stroke="black" points="293.08,-606.06 293.08,-644.06 418.08,-644.06 418.08,-606.06 293.08,-606.06"/>
<text text-anchor="middle" x="355.58" y="-632.06" font-family="monospace" font-size="10.00">crate</text>
<polyline fill="none" stroke="black" points="293.08,-625.06 418.08,-625.06 "/>
<text text-anchor="middle" x="355.58" y="-613.06" font-family="monospace" font-size="10.00">lightning_notifier</text>
</g>
<!-- lightning_notifier::BroadcastSub -->
<g id="node2" class="node">
<title>lightning_notifier::BroadcastSub</title>
<polygon fill="#f8c04c" stroke="black" points="543.65,-826.25 543.65,-864.25 662.65,-864.25 662.65,-826.25 543.65,-826.25"/>
<text text-anchor="middle" x="603.15" y="-852.25" font-family="monospace" font-size="10.00">pub(crate) struct</text>
<polyline fill="none" stroke="black" points="543.65,-845.25 662.65,-845.25 "/>
<text text-anchor="middle" x="603.15" y="-833.25" font-family="monospace" font-size="10.00">BroadcastSub</text>
</g>
<!-- lightning_notifier&#45;&gt;lightning_notifier::BroadcastSub -->
<g id="edge1" class="edge">
<title>lightning_notifier&#45;&gt;lightning_notifier::BroadcastSub</title>
<path fill="none" stroke="#000000" d="M377.12,-644.21C421.56,-683.74 523.48,-774.39 573.86,-819.2"/>
<polygon fill="#000000" stroke="#000000" points="571.69,-821.95 581.48,-825.98 576.34,-816.72 571.69,-821.95"/>
<text text-anchor="middle" x="462.99" y="-734.71" font-family="monospace" font-size="10.00">owns</text>
</g>
<!-- lightning_notifier::NotificationsEmitter -->
<g id="node5" class="node">
<title>lightning_notifier::NotificationsEmitter</title>
<polygon fill="#81c169" stroke="black" points="314.39,-373.55 314.39,-411.55 451.39,-411.55 451.39,-373.55 314.39,-373.55"/>
<text text-anchor="middle" x="382.89" y="-399.55" font-family="monospace" font-size="10.00">pub struct</text>
<polyline fill="none" stroke="black" points="314.39,-392.55 451.39,-392.55 "/>
<text text-anchor="middle" x="382.89" y="-380.55" font-family="monospace" font-size="10.00">NotificationsEmitter</text>
</g>
<!-- lightning_notifier&#45;&gt;lightning_notifier::NotificationsEmitter -->
<g id="edge2" class="edge">
<title>lightning_notifier&#45;&gt;lightning_notifier::NotificationsEmitter</title>
<path fill="none" stroke="#000000" d="M357.82,-606.03C362.58,-565.5 373.75,-470.39 379.43,-421.98"/>
<polygon fill="#000000" stroke="#000000" points="382.93,-422.18 380.62,-411.84 375.98,-421.36 382.93,-422.18"/>
<text text-anchor="middle" x="356.12" y="-517" font-family="monospace" font-size="10.00">owns</text>
</g>
<!-- lightning_notifier::Notifier -->
<g id="node8" class="node">
<title>lightning_notifier::Notifier</title>
<polygon fill="#81c169" stroke="black" points="669.47,-294.93 669.47,-332.93 746.47,-332.93 746.47,-294.93 669.47,-294.93"/>
<text text-anchor="middle" x="707.97" y="-320.93" font-family="monospace" font-size="10.00">pub struct</text>
<polyline fill="none" stroke="black" points="669.47,-313.93 746.47,-313.93 "/>
<text text-anchor="middle" x="707.97" y="-301.93" font-family="monospace" font-size="10.00">Notifier</text>
</g>
<!-- lightning_notifier&#45;&gt;lightning_notifier::Notifier -->
<g id="edge3" class="edge">
<title>lightning_notifier&#45;&gt;lightning_notifier::Notifier</title>
<path fill="none" stroke="#000000" d="M377.36,-605.83C438.07,-552.23 609.25,-401.09 678.43,-340.02"/>
<polygon fill="#000000" stroke="#000000" points="681.16,-342.27 686.34,-333.03 676.53,-337.03 681.16,-342.27"/>
<text text-anchor="middle" x="515.39" y="-475.93" font-family="monospace" font-size="10.00">owns</text>
</g>
<!-- lightning_notifier::before_epoch_change -->
<g id="node16" class="node">
<title>lightning_notifier::before_epoch_change</title>
<polygon fill="#f8c04c" stroke="black" points="196.19,-742.09 196.19,-780.09 327.19,-780.09 327.19,-742.09 196.19,-742.09"/>
<text text-anchor="middle" x="261.69" y="-768.09" font-family="monospace" font-size="10.00">pub(crate) async fn</text>
<polyline fill="none" stroke="black" points="196.19,-761.09 327.19,-761.09 "/>
<text text-anchor="middle" x="261.69" y="-749.09" font-family="monospace" font-size="10.00">before_epoch_change</text>
</g>
<!-- lightning_notifier&#45;&gt;lightning_notifier::before_epoch_change -->
<g id="edge4" class="edge">
<title>lightning_notifier&#45;&gt;lightning_notifier::before_epoch_change</title>
<path fill="none" stroke="#000000" d="M342.33,-644.26C326.25,-667.55 299.03,-706.99 280.71,-733.52"/>
<polygon fill="#000000" stroke="#000000" points="277.67,-731.77 274.87,-741.99 283.43,-735.74 277.67,-731.77"/>
<text text-anchor="middle" x="299.02" y="-691.89" font-family="monospace" font-size="10.00">owns</text>
</g>
<!-- lightning_notifier::get_sleep_amount -->
<g id="node17" class="node">
<title>lightning_notifier::get_sleep_amount</title>
<polygon fill="#f8c04c" stroke="black" points="47.8,-564.44 47.8,-602.44 160.8,-602.44 160.8,-564.44 47.8,-564.44"/>
<text text-anchor="middle" x="104.3" y="-590.44" font-family="monospace" font-size="10.00">pub(crate) fn</text>
<polyline fill="none" stroke="black" points="47.8,-583.44 160.8,-583.44 "/>
<text text-anchor="middle" x="104.3" y="-571.44" font-family="monospace" font-size="10.00">get_sleep_amount</text>
</g>
<!-- lightning_notifier&#45;&gt;lightning_notifier::get_sleep_amount -->
<g id="edge5" class="edge">
<title>lightning_notifier&#45;&gt;lightning_notifier::get_sleep_amount</title>
<path fill="none" stroke="#000000" d="M292.82,-614.66C255.72,-608.52 208.77,-600.74 171.01,-594.49"/>
<polygon fill="#000000" stroke="#000000" points="171.55,-591.03 161.12,-592.85 170.41,-597.93 171.55,-591.03"/>
<text text-anchor="middle" x="219.41" y="-607.57" font-family="monospace" font-size="10.00">owns</text>
</g>
<!-- lightning_notifier::now -->
<g id="node18" class="node">
<title>lightning_notifier::now</title>
<polygon fill="#f8c04c" stroke="black" points="0,-333.99 0,-371.99 95,-371.99 95,-333.99 0,-333.99"/>
<text text-anchor="middle" x="47.5" y="-359.99" font-family="monospace" font-size="10.00">pub(crate) fn</text>
<polyline fill="none" stroke="black" points="0,-352.99 95,-352.99 "/>
<text text-anchor="middle" x="47.5" y="-340.99" font-family="monospace" font-size="10.00">now</text>
</g>
<!-- lightning_notifier&#45;&gt;lightning_notifier::now -->
<g id="edge6" class="edge">
<title>lightning_notifier&#45;&gt;lightning_notifier::now</title>
<path fill="none" stroke="#000000" d="M333.92,-605.93C279.78,-558.12 138.54,-433.39 76.94,-378.99"/>
<polygon fill="#000000" stroke="#000000" points="78.95,-376.1 69.14,-372.1 74.32,-381.34 78.95,-376.1"/>
<text text-anchor="middle" x="192.93" y="-495.46" font-family="monospace" font-size="10.00">owns</text>
</g>
<!-- lightning_notifier::BroadcastSub::last -->
<g id="node3" class="node">
<title>lightning_notifier::BroadcastSub::last</title>
<polygon fill="#f8c04c" stroke="black" points="712.33,-952.19 712.33,-990.19 843.33,-990.19 843.33,-952.19 712.33,-952.19"/>
<text text-anchor="middle" x="777.83" y="-978.19" font-family="monospace" font-size="10.00">pub(crate) async fn</text>
<polyline fill="none" stroke="black" points="712.33,-971.19 843.33,-971.19 "/>
<text text-anchor="middle" x="777.83" y="-959.19" font-family="monospace" font-size="10.00">BroadcastSub::last</text>
</g>
<!-- lightning_notifier::BroadcastSub&#45;&gt;lightning_notifier::BroadcastSub::last -->
<g id="edge7" class="edge">
<title>lightning_notifier::BroadcastSub&#45;&gt;lightning_notifier::BroadcastSub::last</title>
<path fill="none" stroke="#000000" d="M605.92,-864.44C619.83,-888.56 663.45,-924.85 703.53,-949.33"/>
<polygon fill="#000000" stroke="#000000" points="701.89,-952.43 712.28,-954.52 705.46,-946.41 701.89,-952.43"/>
<text text-anchor="middle" x="642.22" y="-909.89" font-family="monospace" font-size="10.00">owns</text>
</g>
<!-- lightning_notifier::BroadcastSub::recv -->
<g id="node4" class="node">
<title>lightning_notifier::BroadcastSub::recv</title>
<polygon fill="#f8c04c" stroke="black" points="398.18,-990.34 398.18,-1028.34 529.18,-1028.34 529.18,-990.34 398.18,-990.34"/>
<text text-anchor="middle" x="463.68" y="-1016.34" font-family="monospace" font-size="10.00">pub(crate) async fn</text>
<polyline fill="none" stroke="black" points="398.18,-1009.34 529.18,-1009.34 "/>
<text text-anchor="middle" x="463.68" y="-997.34" font-family="monospace" font-size="10.00">BroadcastSub::recv</text>
</g>
<!-- lightning_notifier::BroadcastSub&#45;&gt;lightning_notifier::BroadcastSub::recv -->
<g id="edge8" class="edge">
<title>lightning_notifier::BroadcastSub&#45;&gt;lightning_notifier::BroadcastSub::recv</title>
<path fill="none" stroke="#000000" d="M557.61,-864.42C522.64,-893.79 479.75,-946.75 465.22,-980.62"/>
<polygon fill="#000000" stroke="#000000" points="461.92,-979.45 461.78,-990.05 468.49,-981.85 461.92,-979.45"/>
<text text-anchor="middle" x="498.91" y="-925.52" font-family="monospace" font-size="10.00">owns</text>
</g>
<!-- lightning_notifier::BroadcastSub::last&#45;&gt;lightning_notifier::BroadcastSub -->
<g id="edge9" class="edge">
<title>lightning_notifier::BroadcastSub::last&#45;&gt;lightning_notifier::BroadcastSub</title>
<path fill="none" stroke="#7f7f7f" stroke-dasharray="5,2" d="M775.06,-952C760.46,-926.69 713.13,-887.97 671.53,-863.57"/>
<polygon fill="#7f7f7f" stroke="#7f7f7f" points="673.17,-860.48 662.75,-858.59 669.72,-866.57 673.17,-860.48"/>
<text text-anchor="middle" x="710.79" y="-910.79" font-family="monospace" font-size="10.00">uses</text>
</g>
<!-- lightning_notifier::BroadcastSub::recv&#45;&gt;lightning_notifier::BroadcastSub -->
<g id="edge10" class="edge">
<title>lightning_notifier::BroadcastSub::recv&#45;&gt;lightning_notifier::BroadcastSub</title>
<path fill="none" stroke="#7f7f7f" stroke-dasharray="5,2" d="M509.22,-990.17C544.19,-960.8 587.07,-907.84 601.61,-873.97"/>
<polygon fill="#7f7f7f" stroke="#7f7f7f" points="604.91,-875.14 605.05,-864.54 598.33,-872.74 604.91,-875.14"/>
<text text-anchor="middle" x="542.91" y="-935.07" font-family="monospace" font-size="10.00">uses</text>
</g>
<!-- lightning_notifier::NotificationsEmitter::epoch_changed -->
<g id="node6" class="node">
<title>lightning_notifier::NotificationsEmitter::epoch_changed</title>
<polygon fill="#f8c04c" stroke="black" points="750.85,-413.11 750.85,-451.11 977.85,-451.11 977.85,-413.11 750.85,-413.11"/>
<text text-anchor="middle" x="864.35" y="-439.11" font-family="monospace" font-size="10.00">pub(crate) fn</text>
<polyline fill="none" stroke="black" points="750.85,-432.11 977.85,-432.11 "/>
<text text-anchor="middle" x="864.35" y="-420.11" font-family="monospace" font-size="10.00">NotificationsEmitter::epoch_changed</text>
</g>
<!-- lightning_notifier::NotificationsEmitter&#45;&gt;lightning_notifier::NotificationsEmitter::epoch_changed -->
<g id="edge11" class="edge">
<title>lightning_notifier::NotificationsEmitter&#45;&gt;lightning_notifier::NotificationsEmitter::epoch_changed</title>
<path fill="none" stroke="#000000" d="M421.82,-411.58C490.34,-428.7 635.18,-443.3 740.55,-445.84"/>
<polygon fill="#000000" stroke="#000000" points="740.55,-449.35 750.62,-446.05 740.69,-442.35 740.55,-449.35"/>
<text text-anchor="middle" x="568.68" y="-431.71" font-family="monospace" font-size="10.00">owns</text>
</g>
<!-- lightning_notifier::NotificationsEmitter::new_block -->
<g id="node7" class="node">
<title>lightning_notifier::NotificationsEmitter::new_block</title>
<polygon fill="#f8c04c" stroke="black" points="689.32,-553.21 689.32,-591.21 892.32,-591.21 892.32,-553.21 689.32,-553.21"/>
<text text-anchor="middle" x="790.82" y="-579.21" font-family="monospace" font-size="10.00">pub(crate) fn</text>
<polyline fill="none" stroke="black" points="689.32,-572.21 892.32,-572.21 "/>
<text text-anchor="middle" x="790.82" y="-560.21" font-family="monospace" font-size="10.00">NotificationsEmitter::new_block</text>
</g>
<!-- lightning_notifier::NotificationsEmitter&#45;&gt;lightning_notifier::NotificationsEmitter::new_block -->
<g id="edge12" class="edge">
<title>lightning_notifier::NotificationsEmitter&#45;&gt;lightning_notifier::NotificationsEmitter::new_block</title>
<path fill="none" stroke="#000000" d="M396.59,-411.83C440.89,-447.35 580.48,-513.01 681.08,-549.68"/>
<polygon fill="#000000" stroke="#000000" points="680.09,-553.05 690.69,-553.14 682.46,-546.46 680.09,-553.05"/>
<text text-anchor="middle" x="551.33" y="-483.76" font-family="monospace" font-size="10.00">owns</text>
</g>
<!-- lightning_notifier::NotificationsEmitter::epoch_changed&#45;&gt;lightning_notifier::NotificationsEmitter -->
<g id="edge13" class="edge">
<title>lightning_notifier::NotificationsEmitter::epoch_changed&#45;&gt;lightning_notifier::NotificationsEmitter</title>
<path fill="none" stroke="#7f7f7f" stroke-dasharray="5,2" d="M825.42,-413.07C746.45,-393.34 566.11,-376.97 461.65,-378.52"/>
<polygon fill="#7f7f7f" stroke="#7f7f7f" points="461.39,-375.02 451.47,-378.73 461.54,-382.02 461.39,-375.02"/>
<text text-anchor="middle" x="631.04" y="-398.79" font-family="monospace" font-size="10.00">uses</text>
</g>
<!-- lightning_notifier::NotificationsEmitter::new_block&#45;&gt;lightning_notifier::NotificationsEmitter -->
<g id="edge14" class="edge">
<title>lightning_notifier::NotificationsEmitter::new_block&#45;&gt;lightning_notifier::NotificationsEmitter</title>
<path fill="none" stroke="#7f7f7f" stroke-dasharray="5,2" d="M777.12,-552.92C728,-513.55 561.77,-437.12 461.39,-404.22"/>
<polygon fill="#7f7f7f" stroke="#7f7f7f" points="462.18,-400.8 451.59,-401.08 460.05,-407.46 462.18,-400.8"/>
<text text-anchor="middle" x="606.76" y="-481.57" font-family="monospace" font-size="10.00">uses</text>
</g>
<!-- lightning_notifier::Notifier&#45;&gt;lightning_notifier::NotificationsEmitter -->
<g id="edge15" class="edge">
<title>lightning_notifier::Notifier&#45;&gt;lightning_notifier::NotificationsEmitter</title>
<path fill="none" stroke="#7f7f7f" stroke-dasharray="5,2" d="M669.41,-323.26C618.37,-335.6 527.2,-357.65 461.39,-373.57"/>
<polygon fill="#7f7f7f" stroke="#7f7f7f" points="460.36,-370.21 451.46,-375.97 462,-377.02 460.36,-370.21"/>
<text text-anchor="middle" x="552.9" y="-351.41" font-family="monospace" font-size="10.00">uses</text>
</g>
<!-- lightning_notifier::Notifier::Emitter -->
<g id="node9" class="node">
<title>lightning_notifier::Notifier::Emitter</title>
<polygon fill="#f8c04c" stroke="black" points="483.85,-333.99 483.85,-371.99 602.85,-371.99 602.85,-333.99 483.85,-333.99"/>
<text text-anchor="middle" x="543.35" y="-359.99" font-family="monospace" font-size="10.00">pub(crate) type</text>
<polyline fill="none" stroke="black" points="483.85,-352.99 602.85,-352.99 "/>
<text text-anchor="middle" x="543.35" y="-340.99" font-family="monospace" font-size="10.00">Notifier::Emitter</text>
</g>
<!-- lightning_notifier::Notifier&#45;&gt;lightning_notifier::Notifier::Emitter -->
<g id="edge16" class="edge">
<title>lightning_notifier::Notifier&#45;&gt;lightning_notifier::Notifier::Emitter</title>
<path fill="none" stroke="#000000" d="M669.38,-323.09C652.54,-327.08 632.27,-331.89 612.96,-336.47"/>
<polygon fill="#000000" stroke="#000000" points="611.89,-333.13 602.97,-338.84 613.51,-339.94 611.89,-333.13"/>
<text text-anchor="middle" x="628.67" y="-332.78" font-family="monospace" font-size="10.00">owns</text>
</g>
<!-- lightning_notifier::Notifier::build_graph -->
<g id="node10" class="node">
<title>lightning_notifier::Notifier::build_graph</title>
<polygon fill="#f8c04c" stroke="black" points="792.85,-254.88 792.85,-292.88 935.85,-292.88 935.85,-254.88 792.85,-254.88"/>
<text text-anchor="middle" x="864.35" y="-280.88" font-family="monospace" font-size="10.00">pub(crate) fn</text>
<polyline fill="none" stroke="black" points="792.85,-273.88 935.85,-273.88 "/>
<text text-anchor="middle" x="864.35" y="-261.88" font-family="monospace" font-size="10.00">Notifier::build_graph</text>
</g>
<!-- lightning_notifier::Notifier&#45;&gt;lightning_notifier::Notifier::build_graph -->
<g id="edge17" class="edge">
<title>lightning_notifier::Notifier&#45;&gt;lightning_notifier::Notifier::build_graph</title>
<path fill="none" stroke="#000000" d="M746.63,-304.03C757.62,-301.22 770.02,-298.04 782.55,-294.83"/>
<polygon fill="#000000" stroke="#000000" points="783.78,-298.13 792.6,-292.26 782.05,-291.35 783.78,-298.13"/>
<text text-anchor="middle" x="777.09" y="-302.43" font-family="monospace" font-size="10.00">owns</text>
</g>
<!-- lightning_notifier::Notifier::get_emitter -->
<g id="node11" class="node">
<title>lightning_notifier::Notifier::get_emitter</title>
<polygon fill="#f8c04c" stroke="black" points="179.16,-180.36 179.16,-218.36 322.16,-218.36 322.16,-180.36 179.16,-180.36"/>
<text text-anchor="middle" x="250.66" y="-206.36" font-family="monospace" font-size="10.00">pub(crate) fn</text>
<polyline fill="none" stroke="black" points="179.16,-199.36 322.16,-199.36 "/>
<text text-anchor="middle" x="250.66" y="-187.36" font-family="monospace" font-size="10.00">Notifier::get_emitter</text>
</g>
<!-- lightning_notifier::Notifier&#45;&gt;lightning_notifier::Notifier::get_emitter -->
<g id="edge18" class="edge">
<title>lightning_notifier::Notifier&#45;&gt;lightning_notifier::Notifier::get_emitter</title>
<path fill="none" stroke="#000000" d="M685.94,-294.8C622.92,-263.18 440.27,-214.8 332.6,-198.45"/>
<polygon fill="#000000" stroke="#000000" points="332.82,-194.94 322.42,-196.97 331.81,-201.87 332.82,-194.94"/>
<text text-anchor="middle" x="496.77" y="-249.63" font-family="monospace" font-size="10.00">owns</text>
</g>
<!-- lightning_notifier::Notifier::new -->
<g id="node12" class="node">
<title>lightning_notifier::Notifier::new</title>
<polygon fill="#f8c04c" stroke="black" points="290.32,-59.77 290.32,-97.77 385.32,-97.77 385.32,-59.77 290.32,-59.77"/>
<text text-anchor="middle" x="337.82" y="-85.77" font-family="monospace" font-size="10.00">pub(crate) fn</text>
<polyline fill="none" stroke="black" points="290.32,-78.77 385.32,-78.77 "/>
<text text-anchor="middle" x="337.82" y="-66.77" font-family="monospace" font-size="10.00">Notifier::new</text>
</g>
<!-- lightning_notifier::Notifier&#45;&gt;lightning_notifier::Notifier::new -->
<g id="edge19" class="edge">
<title>lightning_notifier::Notifier&#45;&gt;lightning_notifier::Notifier::new</title>
<path fill="none" stroke="#000000" d="M699.17,-294.72C657.1,-246.8 486.12,-135.32 394.95,-92.88"/>
<polygon fill="#000000" stroke="#000000" points="396.13,-89.57 385.58,-88.64 393.24,-95.95 396.13,-89.57"/>
<text text-anchor="middle" x="534.56" y="-196.8" font-family="monospace" font-size="10.00">owns</text>
</g>
<!-- lightning_notifier::Notifier::subscribe_before_epoch_change -->
<g id="node13" class="node">
<title>lightning_notifier::Notifier::subscribe_before_epoch_change</title>
<polygon fill="#f8c04c" stroke="black" points="334.23,-0.5 334.23,-38.5 585.23,-38.5 585.23,-0.5 334.23,-0.5"/>
<text text-anchor="middle" x="459.73" y="-26.5" font-family="monospace" font-size="10.00">pub(crate) fn</text>
<polyline fill="none" stroke="black" points="334.23,-19.5 585.23,-19.5 "/>
<text text-anchor="middle" x="459.73" y="-7.5" font-family="monospace" font-size="10.00">Notifier::subscribe_before_epoch_change</text>
</g>
<!-- lightning_notifier::Notifier&#45;&gt;lightning_notifier::Notifier::subscribe_before_epoch_change -->
<g id="edge20" class="edge">
<title>lightning_notifier::Notifier&#45;&gt;lightning_notifier::Notifier::subscribe_before_epoch_change</title>
<path fill="none" stroke="#000000" d="M706.72,-294.62C685.83,-242.19 572.92,-104.46 506.38,-45.55"/>
<polygon fill="#000000" stroke="#000000" points="508.37,-42.65 498.5,-38.77 503.8,-47.95 508.37,-42.65"/>
<text text-anchor="middle" x="594.05" y="-173.09" font-family="monospace" font-size="10.00">owns</text>
</g>
<!-- lightning_notifier::Notifier::subscribe_block_executed -->
<g id="node14" class="node">
<title>lightning_notifier::Notifier::subscribe_block_executed</title>
<polygon fill="#f8c04c" stroke="black" points="593.25,-30.13 593.25,-68.13 814.25,-68.13 814.25,-30.13 593.25,-30.13"/>
<text text-anchor="middle" x="703.75" y="-56.13" font-family="monospace" font-size="10.00">pub(crate) fn</text>
<polyline fill="none" stroke="black" points="593.25,-49.13 814.25,-49.13 "/>
<text text-anchor="middle" x="703.75" y="-37.13" font-family="monospace" font-size="10.00">Notifier::subscribe_block_executed</text>
</g>
<!-- lightning_notifier::Notifier&#45;&gt;lightning_notifier::Notifier::subscribe_block_executed -->
<g id="edge21" class="edge">
<title>lightning_notifier::Notifier&#45;&gt;lightning_notifier::Notifier::subscribe_block_executed</title>
<path fill="none" stroke="#000000" d="M722.48,-294.65C736.96,-248.73 736.08,-132.68 721.95,-78.21"/>
<polygon fill="#000000" stroke="#000000" points="725.26,-77.06 719.05,-68.48 718.55,-79.06 725.26,-77.06"/>
<text text-anchor="middle" x="709.71" y="-189.43" font-family="monospace" font-size="10.00">owns</text>
</g>
<!-- lightning_notifier::Notifier::subscribe_epoch_changed -->
<g id="node15" class="node">
<title>lightning_notifier::Notifier::subscribe_epoch_changed</title>
<polygon fill="#f8c04c" stroke="black" points="700.98,-116.92 700.98,-154.92 915.98,-154.92 915.98,-116.92 700.98,-116.92"/>
<text text-anchor="middle" x="808.48" y="-142.92" font-family="monospace" font-size="10.00">pub(crate) fn</text>
<polyline fill="none" stroke="black" points="700.98,-135.92 915.98,-135.92 "/>
<text text-anchor="middle" x="808.48" y="-123.92" font-family="monospace" font-size="10.00">Notifier::subscribe_epoch_changed</text>
</g>
<!-- lightning_notifier::Notifier&#45;&gt;lightning_notifier::Notifier::subscribe_epoch_changed -->
<g id="edge22" class="edge">
<title>lightning_notifier::Notifier&#45;&gt;lightning_notifier::Notifier::subscribe_epoch_changed</title>
<path fill="none" stroke="#000000" d="M742.57,-294.7C771.02,-263.11 804.35,-202.29 812.57,-165.36"/>
<polygon fill="#000000" stroke="#000000" points="816.07,-165.61 814.24,-155.17 809.17,-164.47 816.07,-165.61"/>
<text text-anchor="middle" x="765.07" y="-233.03" font-family="monospace" font-size="10.00">owns</text>
</g>
<!-- lightning_notifier::Notifier::Emitter&#45;&gt;lightning_notifier::NotificationsEmitter -->
<g id="edge23" class="edge">
<title>lightning_notifier::Notifier::Emitter&#45;&gt;lightning_notifier::NotificationsEmitter</title>
<path fill="none" stroke="#7f7f7f" stroke-dasharray="5,2" d="M483.6,-367.72C476.35,-369.51 468.86,-371.35 461.39,-373.19"/>
<polygon fill="#7f7f7f" stroke="#7f7f7f" points="460.48,-369.81 451.61,-375.61 462.16,-376.61 460.48,-369.81"/>
<text text-anchor="middle" x="460" y="-362.46" font-family="monospace" font-size="10.00">uses</text>
</g>
<!-- lightning_notifier::Notifier::get_emitter&#45;&gt;lightning_notifier::NotificationsEmitter -->
<g id="edge24" class="edge">
<title>lightning_notifier::Notifier::get_emitter&#45;&gt;lightning_notifier::NotificationsEmitter</title>
<path fill="none" stroke="#7f7f7f" stroke-dasharray="5,2" d="M263.82,-218.59C287.38,-253.02 336.84,-325.28 364.02,-364.98"/>
<polygon fill="#7f7f7f" stroke="#7f7f7f" points="361.24,-367.12 369.78,-373.4 367.02,-363.17 361.24,-367.12"/>
<text text-anchor="middle" x="301.42" y="-294.79" font-family="monospace" font-size="10.00">uses</text>
</g>
<!-- lightning_notifier::Notifier::get_emitter&#45;&gt;lightning_notifier::Notifier -->
<g id="edge25" class="edge">
<title>lightning_notifier::Notifier::get_emitter&#45;&gt;lightning_notifier::Notifier</title>
<path fill="none" stroke="#7f7f7f" stroke-dasharray="5,2" d="M272.69,-218.49C342.79,-253.67 560.92,-309.57 659.21,-319.08"/>
<polygon fill="#7f7f7f" stroke="#7f7f7f" points="659.21,-322.59 669.46,-319.93 659.79,-315.62 659.21,-322.59"/>
<text text-anchor="middle" x="453.45" y="-271.79" font-family="monospace" font-size="10.00">uses</text>
</g>
<!-- lightning_notifier::Notifier::new&#45;&gt;lightning_notifier::NotificationsEmitter -->
<g id="edge26" class="edge">
<title>lightning_notifier::Notifier::new&#45;&gt;lightning_notifier::NotificationsEmitter</title>
<path fill="none" stroke="#7f7f7f" stroke-dasharray="5,2" d="M340.57,-97.93C348.18,-150.88 369.53,-299.52 378.66,-363.1"/>
<polygon fill="#7f7f7f" stroke="#7f7f7f" points="375.23,-363.84 380.11,-373.24 382.16,-362.85 375.23,-363.84"/>
<text text-anchor="middle" x="347.11" y="-233.51" font-family="monospace" font-size="10.00">uses</text>
</g>
<!-- lightning_notifier::Notifier::new&#45;&gt;lightning_notifier::Notifier -->
<g id="edge27" class="edge">
<title>lightning_notifier::Notifier::new&#45;&gt;lightning_notifier::Notifier</title>
<path fill="none" stroke="#7f7f7f" stroke-dasharray="5,2" d="M346.63,-97.98C390.14,-147.55 571.58,-265.12 659.95,-303.95"/>
<polygon fill="#7f7f7f" stroke="#7f7f7f" points="658.66,-307.2 669.23,-307.87 661.38,-300.75 658.66,-307.2"/>
<text text-anchor="middle" x="490.79" y="-203.96" font-family="monospace" font-size="10.00">uses</text>
</g>
<!-- lightning_notifier::Notifier::subscribe_before_epoch_change&#45;&gt;lightning_notifier::BroadcastSub -->
<g id="edge28" class="edge">
<title>lightning_notifier::Notifier::subscribe_before_epoch_change&#45;&gt;lightning_notifier::BroadcastSub</title>
<path fill="none" stroke="#7f7f7f" stroke-dasharray="5,2" d="M463.06,-38.7C481.92,-147.28 575.19,-684.28 598.07,-816.03"/>
<polygon fill="#7f7f7f" stroke="#7f7f7f" points="594.67,-816.91 599.83,-826.16 601.57,-815.71 594.67,-816.91"/>
<text text-anchor="middle" x="518.07" y="-430.36" font-family="monospace" font-size="10.00">uses</text>
</g>
<!-- lightning_notifier::Notifier::subscribe_before_epoch_change&#45;&gt;lightning_notifier::NotificationsEmitter -->
<g id="edge29" class="edge">
<title>lightning_notifier::Notifier::subscribe_before_epoch_change&#45;&gt;lightning_notifier::NotificationsEmitter</title>
<path fill="none" stroke="#7f7f7f" stroke-dasharray="5,2" d="M455.81,-38.51C443.28,-99.36 404.08,-289.65 388.94,-363.16"/>
<polygon fill="#7f7f7f" stroke="#7f7f7f" points="385.48,-362.63 386.89,-373.13 392.33,-364.04 385.48,-362.63"/>
<text text-anchor="middle" x="409.88" y="-203.84" font-family="monospace" font-size="10.00">uses</text>
</g>
<!-- lightning_notifier::Notifier::subscribe_before_epoch_change&#45;&gt;lightning_notifier::Notifier -->
<g id="edge30" class="edge">
<title>lightning_notifier::Notifier::subscribe_before_epoch_change&#45;&gt;lightning_notifier::Notifier</title>
<path fill="none" stroke="#7f7f7f" stroke-dasharray="5,2" d="M460.98,-38.82C481.87,-91.24 594.78,-228.98 661.32,-287.88"/>
<polygon fill="#7f7f7f" stroke="#7f7f7f" points="659.33,-290.79 669.2,-294.66 663.9,-285.48 659.33,-290.79"/>
<text text-anchor="middle" x="548.65" y="-166.35" font-family="monospace" font-size="10.00">uses</text>
</g>
<!-- lightning_notifier::Notifier::subscribe_block_executed&#45;&gt;lightning_notifier::BroadcastSub -->
<g id="edge31" class="edge">
<title>lightning_notifier::Notifier::subscribe_block_executed&#45;&gt;lightning_notifier::BroadcastSub</title>
<path fill="none" stroke="#7f7f7f" stroke-dasharray="5,2" d="M701.31,-68.41C687.9,-174.55 623.09,-687.42 606.85,-815.98"/>
<polygon fill="#7f7f7f" stroke="#7f7f7f" points="603.33,-815.86 605.55,-826.22 610.28,-816.74 603.33,-815.86"/>
<text text-anchor="middle" x="641.58" y="-445.2" font-family="monospace" font-size="10.00">uses</text>
</g>
<!-- lightning_notifier::Notifier::subscribe_block_executed&#45;&gt;lightning_notifier::NotificationsEmitter -->
<g id="edge32" class="edge">
<title>lightning_notifier::Notifier::subscribe_block_executed&#45;&gt;lightning_notifier::NotificationsEmitter</title>
<path fill="none" stroke="#7f7f7f" stroke-dasharray="5,2" d="M685.58,-68.58C631.31,-126.66 470.33,-298.96 407.96,-365.71"/>
<polygon fill="#7f7f7f" stroke="#7f7f7f" points="405.13,-363.62 400.86,-373.31 410.24,-368.4 405.13,-363.62"/>
<text text-anchor="middle" x="534.27" y="-220.14" font-family="monospace" font-size="10.00">uses</text>
</g>
<!-- lightning_notifier::Notifier::subscribe_block_executed&#45;&gt;lightning_notifier::Notifier -->
<g id="edge33" class="edge">
<title>lightning_notifier::Notifier::subscribe_block_executed&#45;&gt;lightning_notifier::Notifier</title>
<path fill="none" stroke="#7f7f7f" stroke-dasharray="5,2" d="M689.25,-68.41C674.76,-114.33 675.64,-230.38 689.78,-284.86"/>
<polygon fill="#7f7f7f" stroke="#7f7f7f" points="686.46,-286 692.67,-294.59 693.17,-284 686.46,-286"/>
<text text-anchor="middle" x="677.01" y="-179.63" font-family="monospace" font-size="10.00">uses</text>
</g>
<!-- lightning_notifier::Notifier::subscribe_epoch_changed&#45;&gt;lightning_notifier::BroadcastSub -->
<g id="edge34" class="edge">
<title>lightning_notifier::Notifier::subscribe_epoch_changed&#45;&gt;lightning_notifier::BroadcastSub</title>
<path fill="none" stroke="#7f7f7f" stroke-dasharray="5,2" d="M802.89,-155.26C774.43,-253.54 645.89,-697.6 611.58,-816.11"/>
<polygon fill="#7f7f7f" stroke="#7f7f7f" points="608.16,-815.35 608.74,-825.93 614.88,-817.3 608.16,-815.35"/>
<text text-anchor="middle" x="694.73" y="-488.68" font-family="monospace" font-size="10.00">uses</text>
</g>
<!-- lightning_notifier::Notifier::subscribe_epoch_changed&#45;&gt;lightning_notifier::NotificationsEmitter -->
<g id="edge35" class="edge">
<title>lightning_notifier::Notifier::subscribe_epoch_changed&#45;&gt;lightning_notifier::NotificationsEmitter</title>
<path fill="none" stroke="#7f7f7f" stroke-dasharray="5,2" d="M776.84,-155C700.73,-200.89 507.49,-317.42 423.21,-368.23"/>
<polygon fill="#7f7f7f" stroke="#7f7f7f" points="421.2,-365.36 414.45,-373.52 424.82,-371.35 421.2,-365.36"/>
<text text-anchor="middle" x="587.53" y="-264.61" font-family="monospace" font-size="10.00">uses</text>
</g>
<!-- lightning_notifier::Notifier::subscribe_epoch_changed&#45;&gt;lightning_notifier::Notifier -->
<g id="edge36" class="edge">
<title>lightning_notifier::Notifier::subscribe_epoch_changed&#45;&gt;lightning_notifier::Notifier</title>
<path fill="none" stroke="#7f7f7f" stroke-dasharray="5,2" d="M773.89,-155.15C745.44,-186.74 712.11,-247.56 703.89,-284.49"/>
<polygon fill="#7f7f7f" stroke="#7f7f7f" points="700.38,-284.25 702.22,-294.68 707.29,-285.38 700.38,-284.25"/>
<text text-anchor="middle" x="726.39" y="-222.82" font-family="monospace" font-size="10.00">uses</text>
</g>
<!-- lightning_notifier::before_epoch_change&#45;&gt;lightning_notifier::BroadcastSub -->
<g id="edge37" class="edge">
<title>lightning_notifier::before_epoch_change&#45;&gt;lightning_notifier::BroadcastSub</title>
<path fill="none" stroke="#7f7f7f" stroke-dasharray="5,2" d="M327.52,-777.32C386.73,-791.91 473.41,-813.27 533.7,-828.13"/>
<polygon fill="#7f7f7f" stroke="#7f7f7f" points="532.96,-831.56 543.51,-830.55 534.64,-824.76 532.96,-831.56"/>
<text text-anchor="middle" x="418.11" y="-805.72" font-family="monospace" font-size="10.00">uses</text>
</g>
</g>
</svg>
