<?xml version="1.0" encoding="UTF-8" standalone="no"?>
<!DOCTYPE svg PUBLIC "-//W3C//DTD SVG 1.1//EN"
 "http://www.w3.org/Graphics/SVG/1.1/DTD/svg11.dtd">
<!-- Generated by graphviz version 4.0.0 (0)
 -->
<!-- Pages: 1 -->
<svg width="1057pt" height="950pt"
 viewBox="0.00 0.00 1056.64 950.24" xmlns="http://www.w3.org/2000/svg" xmlns:xlink="http://www.w3.org/1999/xlink">
<g id="graph0" class="graph" transform="scale(1 1) rotate(0) translate(28.8 921.44)">
<polygon fill="white" stroke="transparent" points="-28.8,28.8 -28.8,-921.44 1027.84,-921.44 1027.84,28.8 -28.8,28.8"/>
<text text-anchor="middle" x="499.52" y="-859.84" font-family="Helvetica,sans-Serif" font-size="36.00">lightning_blockstore_server</text>
<!-- core::mem -->
<g id="node1" class="node">
<title>core::mem</title>
<polygon fill="#81c169" stroke="black" points="0,-371.74 0,-409.74 89,-409.74 89,-371.74 0,-371.74"/>
<text text-anchor="middle" x="44.5" y="-397.74" font-family="monospace" font-size="10.00">external mod</text>
<polyline fill="none" stroke="black" points="0,-390.74 89,-390.74 "/>
<text text-anchor="middle" x="44.5" y="-378.74" font-family="monospace" font-size="10.00">core::mem</text>
</g>
<!-- fdi -->
<g id="node2" class="node">
<title>fdi</title>
<polygon fill="#5397c8" stroke="black" points="775.23,-806.14 775.23,-844.14 876.23,-844.14 876.23,-806.14 775.23,-806.14"/>
<text text-anchor="middle" x="825.73" y="-832.14" font-family="monospace" font-size="10.00">external crate</text>
<polyline fill="none" stroke="black" points="775.23,-825.14 876.23,-825.14 "/>
<text text-anchor="middle" x="825.73" y="-813.14" font-family="monospace" font-size="10.00">fdi</text>
</g>
<!-- lightning_blockstore_server -->
<g id="node3" class="node">
<title>lightning_blockstore_server</title>
<polygon fill="#5397c8" stroke="black" points="714.17,-230.19 714.17,-268.19 893.17,-268.19 893.17,-230.19 714.17,-230.19"/>
<text text-anchor="middle" x="803.67" y="-256.19" font-family="monospace" font-size="10.00">crate</text>
<polyline fill="none" stroke="black" points="714.17,-249.19 893.17,-249.19 "/>
<text text-anchor="middle" x="803.67" y="-237.19" font-family="monospace" font-size="10.00">lightning_blockstore_server</text>
</g>
<!-- lightning_blockstore_server::blockstore_server -->
<g id="node4" class="node">
<title>lightning_blockstore_server::blockstore_server</title>
<polygon fill="#f8c04c" stroke="black" points="493.88,-419.01 493.88,-457.01 786.88,-457.01 786.88,-419.01 493.88,-419.01"/>
<text text-anchor="middle" x="640.38" y="-445.01" font-family="monospace" font-size="10.00">pub(crate) mod</text>
<polyline fill="none" stroke="black" points="493.88,-438.01 786.88,-438.01 "/>
<text text-anchor="middle" x="640.38" y="-426.01" font-family="monospace" font-size="10.00">lightning_blockstore_server::blockstore_server</text>
</g>
<!-- lightning_blockstore_server&#45;&gt;lightning_blockstore_server::blockstore_server -->
<g id="edge1" class="edge">
<title>lightning_blockstore_server&#45;&gt;lightning_blockstore_server::blockstore_server</title>
<path fill="none" stroke="#000000" d="M759.29,-268.3C717.63,-302.42 661.34,-369.79 643.21,-409.37"/>
<polygon fill="#000000" stroke="#000000" points="639.9,-408.21 639.45,-418.79 646.41,-410.8 639.9,-408.21"/>
<text text-anchor="middle" x="688.75" y="-341.83" font-family="monospace" font-size="10.00">owns</text>
</g>
<!-- lightning_blockstore_server&#45;&gt;lightning_blockstore_server::blockstore_server -->
<g id="edge2" class="edge">
<title>lightning_blockstore_server&#45;&gt;lightning_blockstore_server::blockstore_server</title>
<path fill="none" stroke="#7f7f7f" stroke-dasharray="5,2" d="M804.64,-268.25C793.23,-303.38 737.05,-373.17 692.74,-412.11"/>
<polygon fill="#7f7f7f" stroke="#7f7f7f" points="690.25,-409.64 684.9,-418.78 694.79,-414.97 690.25,-409.64"/>
<text text-anchor="middle" x="736.19" y="-343.18" font-family="monospace" font-size="10.00">uses</text>
</g>
<!-- lightning_blockstore_server::config -->
<g id="node5" class="node">
<title>lightning_blockstore_server::config</title>
<polygon fill="#f8c04c" stroke="black" points="772.04,-466.02 772.04,-504.02 999.04,-504.02 999.04,-466.02 772.04,-466.02"/>
<text text-anchor="middle" x="885.54" y="-492.02" font-family="monospace" font-size="10.00">pub(crate) mod</text>
<polyline fill="none" stroke="black" points="772.04,-485.02 999.04,-485.02 "/>
<text text-anchor="middle" x="885.54" y="-473.02" font-family="monospace" font-size="10.00">lightning_blockstore_server::config</text>
</g>
<!-- lightning_blockstore_server&#45;&gt;lightning_blockstore_server::config -->
<g id="edge3" class="edge">
<title>lightning_blockstore_server&#45;&gt;lightning_blockstore_server::config</title>
<path fill="none" stroke="#000000" d="M795.61,-268.52C794.09,-310.53 826.17,-408.76 855.08,-457.29"/>
<polygon fill="#000000" stroke="#000000" points="852.12,-459.17 860.43,-465.75 858.04,-455.43 852.12,-459.17"/>
<text text-anchor="middle" x="812.85" y="-365.91" font-family="monospace" font-size="10.00">owns</text>
</g>
<!-- lightning_blockstore_server&#45;&gt;lightning_blockstore_server::config -->
<g id="edge4" class="edge">
<title>lightning_blockstore_server&#45;&gt;lightning_blockstore_server::config</title>
<path fill="none" stroke="#7f7f7f" stroke-dasharray="5,2" d="M828.67,-268.29C856.75,-309.67 890.23,-406.4 893.41,-455.6"/>
<polygon fill="#7f7f7f" stroke="#7f7f7f" points="889.91,-455.96 893.59,-465.9 896.91,-455.84 889.91,-455.96"/>
<text text-anchor="middle" x="848.54" y="-364.94" font-family="monospace" font-size="10.00">uses</text>
</g>
<!-- lightning_blockstore_server::blockstore_server&#45;&gt;core::mem -->
<g id="edge5" class="edge">
<title>lightning_blockstore_server::blockstore_server&#45;&gt;core::mem</title>
<path fill="none" stroke="#7f7f7f" stroke-dasharray="5,2" d="M493.84,-426.39C366.23,-416.26 188.14,-402.14 99.35,-395.09"/>
<polygon fill="#7f7f7f" stroke="#7f7f7f" points="99.48,-391.59 89.24,-394.29 98.93,-398.57 99.48,-391.59"/>
<text text-anchor="middle" x="284.1" y="-413.74" font-family="monospace" font-size="10.00">uses</text>
</g>
<!-- lightning_blockstore_server::blockstore_server&#45;&gt;fdi -->
<g id="edge6" class="edge">
<title>lightning_blockstore_server::blockstore_server&#45;&gt;fdi</title>
<path fill="none" stroke="#7f7f7f" stroke-dasharray="5,2" d="M649.57,-457.21C679.77,-520.29 776.06,-721.41 812.02,-796.5"/>
<polygon fill="#7f7f7f" stroke="#7f7f7f" points="809.01,-798.32 816.49,-805.83 815.32,-795.3 809.01,-798.32"/>
<text text-anchor="middle" x="718.29" y="-629.86" font-family="monospace" font-size="10.00">uses</text>
</g>
<!-- lightning_blockstore_server::blockstore_server&#45;&gt;lightning_blockstore_server::config -->
<g id="edge7" class="edge">
<title>lightning_blockstore_server::blockstore_server&#45;&gt;lightning_blockstore_server::config</title>
<path fill="none" stroke="#7f7f7f" stroke-dasharray="5,2" d="M739.74,-457.06C751.77,-459.37 764.11,-461.73 776.27,-464.07"/>
<polygon fill="#7f7f7f" stroke="#7f7f7f" points="775.95,-467.57 786.44,-466.02 777.27,-460.69 775.95,-467.57"/>
<text text-anchor="middle" x="745.51" y="-463.56" font-family="monospace" font-size="10.00">uses</text>
</g>
<!-- lightning_schema -->
<g id="node6" class="node">
<title>lightning_schema</title>
<polygon fill="#5397c8" stroke="black" points="487.61,-742.02 487.61,-780.02 600.61,-780.02 600.61,-742.02 487.61,-742.02"/>
<text text-anchor="middle" x="544.11" y="-768.02" font-family="monospace" font-size="10.00">external crate</text>
<polyline fill="none" stroke="black" points="487.61,-761.02 600.61,-761.02 "/>
<text text-anchor="middle" x="544.11" y="-749.02" font-family="monospace" font-size="10.00">lightning_schema</text>
</g>
<!-- lightning_blockstore_server::blockstore_server&#45;&gt;lightning_schema -->
<g id="edge8" class="edge">
<title>lightning_blockstore_server::blockstore_server&#45;&gt;lightning_schema</title>
<path fill="none" stroke="#7f7f7f" stroke-dasharray="5,2" d="M634.64,-457.25C618.42,-511.67 572.14,-666.96 552.78,-731.91"/>
<polygon fill="#7f7f7f" stroke="#7f7f7f" points="549.31,-731.3 549.81,-741.88 556.02,-733.3 549.31,-731.3"/>
<text text-anchor="middle" x="581.21" y="-597.58" font-family="monospace" font-size="10.00">uses</text>
</g>
<!-- lightning_types -->
<g id="node7" class="node">
<title>lightning_types</title>
<polygon fill="#5397c8" stroke="black" points="310.39,-516.16 310.39,-554.16 417.39,-554.16 417.39,-516.16 310.39,-516.16"/>
<text text-anchor="middle" x="363.89" y="-542.16" font-family="monospace" font-size="10.00">external crate</text>
<polyline fill="none" stroke="black" points="310.39,-535.16 417.39,-535.16 "/>
<text text-anchor="middle" x="363.89" y="-523.16" font-family="monospace" font-size="10.00">lightning_types</text>
</g>
<!-- lightning_blockstore_server::blockstore_server&#45;&gt;lightning_types -->
<g id="edge9" class="edge">
<title>lightning_blockstore_server::blockstore_server&#45;&gt;lightning_types</title>
<path fill="none" stroke="#7f7f7f" stroke-dasharray="5,2" d="M586.08,-457.09C540.47,-473.11 475.24,-496.03 427.25,-512.9"/>
<polygon fill="#7f7f7f" stroke="#7f7f7f" points="425.86,-509.67 417.59,-516.29 428.18,-516.28 425.86,-509.67"/>
<text text-anchor="middle" x="494.17" y="-487.99" font-family="monospace" font-size="10.00">uses</text>
</g>
<!-- tokio::sync::broadcast -->
<g id="node8" class="node">
<title>tokio::sync::broadcast</title>
<polygon fill="#81c169" stroke="black" points="289.67,-226.52 289.67,-264.52 438.67,-264.52 438.67,-226.52 289.67,-226.52"/>
<text text-anchor="middle" x="364.17" y="-252.52" font-family="monospace" font-size="10.00">external mod</text>
<polyline fill="none" stroke="black" points="289.67,-245.52 438.67,-245.52 "/>
<text text-anchor="middle" x="364.17" y="-233.52" font-family="monospace" font-size="10.00">tokio::sync::broadcast</text>
</g>
<!-- lightning_blockstore_server::blockstore_server&#45;&gt;tokio::sync::broadcast -->
<g id="edge10" class="edge">
<title>lightning_blockstore_server::blockstore_server&#45;&gt;tokio::sync::broadcast</title>
<path fill="none" stroke="#7f7f7f" stroke-dasharray="5,2" d="M612.88,-418.85C562.63,-383.83 455.98,-309.51 400.07,-270.55"/>
<polygon fill="#7f7f7f" stroke="#7f7f7f" points="401.76,-267.45 391.55,-264.61 397.76,-273.2 401.76,-267.45"/>
<text text-anchor="middle" x="493.98" y="-347.7" font-family="monospace" font-size="10.00">uses</text>
</g>
<!-- tokio::sync::mpsc -->
<g id="node9" class="node">
<title>tokio::sync::mpsc</title>
<polygon fill="#81c169" stroke="black" points="486.14,-0.5 486.14,-38.5 605.14,-38.5 605.14,-0.5 486.14,-0.5"/>
<text text-anchor="middle" x="545.64" y="-26.5" font-family="monospace" font-size="10.00">external mod</text>
<polyline fill="none" stroke="black" points="486.14,-19.5 605.14,-19.5 "/>
<text text-anchor="middle" x="545.64" y="-7.5" font-family="monospace" font-size="10.00">tokio::sync::mpsc</text>
</g>
<!-- lightning_blockstore_server::blockstore_server&#45;&gt;tokio::sync::mpsc -->
<g id="edge11" class="edge">
<title>lightning_blockstore_server::blockstore_server&#45;&gt;tokio::sync::mpsc</title>
<path fill="none" stroke="#7f7f7f" stroke-dasharray="5,2" d="M636.06,-418.94C620.96,-352.22 570.42,-128.95 552.23,-48.61"/>
<polygon fill="#7f7f7f" stroke="#7f7f7f" points="555.61,-47.66 549.99,-38.68 548.78,-49.21 555.61,-47.66"/>
<text text-anchor="middle" x="581.65" y="-236.78" font-family="monospace" font-size="10.00">uses</text>
</g>
</g>
</svg>
