<?xml version="1.0" encoding="UTF-8" standalone="no"?>
<!DOCTYPE svg PUBLIC "-//W3C//DTD SVG 1.1//EN"
 "http://www.w3.org/Graphics/SVG/1.1/DTD/svg11.dtd">
<!-- Generated by graphviz version 4.0.0 (0)
 -->
<!-- Pages: 1 -->
<svg width="1006pt" height="713pt"
 viewBox="0.00 0.00 1005.78 712.73" xmlns="http://www.w3.org/2000/svg" xmlns:xlink="http://www.w3.org/1999/xlink">
<g id="graph0" class="graph" transform="scale(1 1) rotate(0) translate(28.8 683.93)">
<polygon fill="white" stroke="transparent" points="-28.8,28.8 -28.8,-683.93 976.98,-683.93 976.98,28.8 -28.8,28.8"/>
<text text-anchor="middle" x="474.09" y="-622.33" font-family="Helvetica,sans-Serif" font-size="36.00">lightning_origin_ipfs</text>
<!-- hyper::client -->
<g id="node1" class="node">
<title>hyper::client</title>
<polygon fill="#81c169" stroke="black" points="0,-379.82 0,-417.82 95,-417.82 95,-379.82 0,-379.82"/>
<text text-anchor="middle" x="47.5" y="-405.82" font-family="monospace" font-size="10.00">external mod</text>
<polyline fill="none" stroke="black" points="0,-398.82 95,-398.82 "/>
<text text-anchor="middle" x="47.5" y="-386.82" font-family="monospace" font-size="10.00">hyper::client</text>
</g>
<!-- lightning_origin_ipfs -->
<g id="node2" class="node">
<title>lightning_origin_ipfs</title>
<polygon fill="#5397c8" stroke="black" points="433.43,-257.14 433.43,-295.14 576.43,-295.14 576.43,-257.14 433.43,-257.14"/>
<text text-anchor="middle" x="504.93" y="-283.14" font-family="monospace" font-size="10.00">crate</text>
<polyline fill="none" stroke="black" points="433.43,-276.14 576.43,-276.14 "/>
<text text-anchor="middle" x="504.93" y="-264.14" font-family="monospace" font-size="10.00">lightning_origin_ipfs</text>
</g>
<!-- lightning_origin_ipfs::car_reader -->
<g id="node3" class="node">
<title>lightning_origin_ipfs::car_reader</title>
<polygon fill="#f8c04c" stroke="black" points="733.18,-335.73 733.18,-373.73 948.18,-373.73 948.18,-335.73 733.18,-335.73"/>
<text text-anchor="middle" x="840.68" y="-361.73" font-family="monospace" font-size="10.00">pub(crate) mod</text>
<polyline fill="none" stroke="black" points="733.18,-354.73 948.18,-354.73 "/>
<text text-anchor="middle" x="840.68" y="-342.73" font-family="monospace" font-size="10.00">lightning_origin_ipfs::car_reader</text>
</g>
<!-- lightning_origin_ipfs&#45;&gt;lightning_origin_ipfs::car_reader -->
<g id="edge1" class="edge">
<title>lightning_origin_ipfs&#45;&gt;lightning_origin_ipfs::car_reader</title>
<path fill="none" stroke="#000000" d="M576.54,-292.9C627.04,-304.72 695.08,-320.65 749.46,-333.38"/>
<polygon fill="#000000" stroke="#000000" points="748.91,-336.84 759.44,-335.72 750.5,-330.03 748.91,-336.84"/>
<text text-anchor="middle" x="650.5" y="-316.14" font-family="monospace" font-size="10.00">owns</text>
</g>
<!-- lightning_origin_ipfs::config -->
<g id="node6" class="node">
<title>lightning_origin_ipfs::config</title>
<polygon fill="#81c169" stroke="black" points="265.14,-568.63 265.14,-606.63 456.14,-606.63 456.14,-568.63 265.14,-568.63"/>
<text text-anchor="middle" x="360.64" y="-594.63" font-family="monospace" font-size="10.00">pub mod</text>
<polyline fill="none" stroke="black" points="265.14,-587.63 456.14,-587.63 "/>
<text text-anchor="middle" x="360.64" y="-575.63" font-family="monospace" font-size="10.00">lightning_origin_ipfs::config</text>
</g>
<!-- lightning_origin_ipfs&#45;&gt;lightning_origin_ipfs::config -->
<g id="edge2" class="edge">
<title>lightning_origin_ipfs&#45;&gt;lightning_origin_ipfs::config</title>
<path fill="none" stroke="#000000" d="M478.55,-295.53C437.08,-348.84 369.67,-495.02 357.7,-558.32"/>
<polygon fill="#000000" stroke="#000000" points="354.21,-558.03 356.2,-568.44 361.13,-559.06 354.21,-558.03"/>
<text text-anchor="middle" x="405.63" y="-429.92" font-family="monospace" font-size="10.00">owns</text>
</g>
<!-- lightning_origin_ipfs&#45;&gt;lightning_origin_ipfs::config -->
<g id="edge3" class="edge">
<title>lightning_origin_ipfs&#45;&gt;lightning_origin_ipfs::config</title>
<path fill="none" stroke="#7f7f7f" stroke-dasharray="5,2" d="M509.36,-295.43C503.95,-349.25 437.11,-498.04 392.94,-560.25"/>
<polygon fill="#7f7f7f" stroke="#7f7f7f" points="390.01,-558.32 386.86,-568.43 395.63,-562.49 390.01,-558.32"/>
<text text-anchor="middle" x="438.65" y="-430.84" font-family="monospace" font-size="10.00">uses</text>
</g>
<!-- lightning_origin_ipfs::decoder -->
<g id="node7" class="node">
<title>lightning_origin_ipfs::decoder</title>
<polygon fill="#f8c04c" stroke="black" points="139.19,-67.92 139.19,-105.92 336.19,-105.92 336.19,-67.92 139.19,-67.92"/>
<text text-anchor="middle" x="237.69" y="-93.92" font-family="monospace" font-size="10.00">pub(crate) mod</text>
<polyline fill="none" stroke="black" points="139.19,-86.92 336.19,-86.92 "/>
<text text-anchor="middle" x="237.69" y="-74.92" font-family="monospace" font-size="10.00">lightning_origin_ipfs::decoder</text>
</g>
<!-- lightning_origin_ipfs&#45;&gt;lightning_origin_ipfs::decoder -->
<g id="edge4" class="edge">
<title>lightning_origin_ipfs&#45;&gt;lightning_origin_ipfs::decoder</title>
<path fill="none" stroke="#000000" d="M477.83,-256.96C429.21,-222.53 327.2,-150.3 273.11,-112"/>
<polygon fill="#000000" stroke="#000000" points="275.04,-109.08 264.86,-106.16 271,-114.79 275.04,-109.08"/>
<text text-anchor="middle" x="362.97" y="-187.48" font-family="monospace" font-size="10.00">owns</text>
</g>
<!-- lightning_origin_ipfs::error -->
<g id="node8" class="node">
<title>lightning_origin_ipfs::error</title>
<polygon fill="#f8c04c" stroke="black" points="408.21,-0.5 408.21,-38.5 593.21,-38.5 593.21,-0.5 408.21,-0.5"/>
<text text-anchor="middle" x="500.71" y="-26.5" font-family="monospace" font-size="10.00">pub(crate) mod</text>
<polyline fill="none" stroke="black" points="408.21,-19.5 593.21,-19.5 "/>
<text text-anchor="middle" x="500.71" y="-7.5" font-family="monospace" font-size="10.00">lightning_origin_ipfs::error</text>
</g>
<!-- lightning_origin_ipfs&#45;&gt;lightning_origin_ipfs::error -->
<g id="edge5" class="edge">
<title>lightning_origin_ipfs&#45;&gt;lightning_origin_ipfs::error</title>
<path fill="none" stroke="#000000" d="M504.61,-256.85C503.88,-212.25 502.06,-101.75 501.19,-48.76"/>
<polygon fill="#000000" stroke="#000000" points="504.69,-48.6 501.02,-38.66 497.69,-48.72 504.69,-48.6"/>
<text text-anchor="middle" x="490.4" y="-155.8" font-family="monospace" font-size="10.00">owns</text>
</g>
<!-- lightning_origin_ipfs::origin_ipfs -->
<g id="node9" class="node">
<title>lightning_origin_ipfs::origin_ipfs</title>
<polygon fill="#f8c04c" stroke="black" points="239.94,-304.14 239.94,-342.14 460.94,-342.14 460.94,-304.14 239.94,-304.14"/>
<text text-anchor="middle" x="350.44" y="-330.14" font-family="monospace" font-size="10.00">pub(crate) mod</text>
<polyline fill="none" stroke="black" points="239.94,-323.14 460.94,-323.14 "/>
<text text-anchor="middle" x="350.44" y="-311.14" font-family="monospace" font-size="10.00">lightning_origin_ipfs::origin_ipfs</text>
</g>
<!-- lightning_origin_ipfs&#45;&gt;lightning_origin_ipfs::origin_ipfs -->
<g id="edge6" class="edge">
<title>lightning_origin_ipfs&#45;&gt;lightning_origin_ipfs::origin_ipfs</title>
<path fill="none" stroke="#000000" d="M432.99,-270.17C408.27,-276.33 382.84,-286.54 366.73,-297.75"/>
<polygon fill="#000000" stroke="#000000" points="364.46,-295.09 358.81,-304.06 368.82,-300.56 364.46,-295.09"/>
<text text-anchor="middle" x="387.36" y="-286.96" font-family="monospace" font-size="10.00">owns</text>
</g>
<!-- lightning_origin_ipfs&#45;&gt;lightning_origin_ipfs::origin_ipfs -->
<g id="edge7" class="edge">
<title>lightning_origin_ipfs&#45;&gt;lightning_origin_ipfs::origin_ipfs</title>
<path fill="none" stroke="#7f7f7f" stroke-dasharray="5,2" d="M496.39,-295.38C490.12,-301.18 481,-306.87 470.32,-312.04"/>
<polygon fill="#7f7f7f" stroke="#7f7f7f" points="468.67,-308.95 461.01,-316.27 471.57,-315.32 468.67,-308.95"/>
<text text-anchor="middle" x="495.85" y="-306.71" font-family="monospace" font-size="10.00">uses</text>
</g>
<!-- lightning_origin_ipfs::car_reader::reader -->
<g id="node4" class="node">
<title>lightning_origin_ipfs::car_reader::reader</title>
<polygon fill="#db5367" stroke="black" points="541.5,-187.28 541.5,-225.28 804.5,-225.28 804.5,-187.28 541.5,-187.28"/>
<text text-anchor="middle" x="673" y="-213.28" font-family="monospace" font-size="10.00">pub(self) mod</text>
<polyline fill="none" stroke="black" points="541.5,-206.28 804.5,-206.28 "/>
<text text-anchor="middle" x="673" y="-194.28" font-family="monospace" font-size="10.00">lightning_origin_ipfs::car_reader::reader</text>
</g>
<!-- lightning_origin_ipfs::car_reader&#45;&gt;lightning_origin_ipfs::car_reader::reader -->
<g id="edge8" class="edge">
<title>lightning_origin_ipfs::car_reader&#45;&gt;lightning_origin_ipfs::car_reader::reader</title>
<path fill="none" stroke="#000000" d="M839.74,-335.67C827.15,-307.89 780.28,-261.4 739,-231.49"/>
<polygon fill="#000000" stroke="#000000" points="740.76,-228.45 730.57,-225.55 736.73,-234.17 740.76,-228.45"/>
<text text-anchor="middle" x="776.87" y="-286.58" font-family="monospace" font-size="10.00">owns</text>
</g>
<!-- lightning_origin_ipfs::car_reader&#45;&gt;lightning_origin_ipfs::car_reader::reader -->
<g id="edge9" class="edge">
<title>lightning_origin_ipfs::car_reader&#45;&gt;lightning_origin_ipfs::car_reader::reader</title>
<path fill="none" stroke="#7f7f7f" stroke-dasharray="5,2" d="M783.06,-335.43C744.14,-308.9 697.45,-264.67 678.88,-234.49"/>
<polygon fill="#7f7f7f" stroke="#7f7f7f" points="681.91,-232.73 674.06,-225.61 675.75,-236.07 681.91,-232.73"/>
<text text-anchor="middle" x="718.47" y="-287.96" font-family="monospace" font-size="10.00">uses</text>
</g>
<!-- lightning_origin_ipfs::car_reader::utils -->
<g id="node5" class="node">
<title>lightning_origin_ipfs::car_reader::utils</title>
<polygon fill="#db5367" stroke="black" points="516.21,-484.98 516.21,-522.98 773.21,-522.98 773.21,-484.98 516.21,-484.98"/>
<text text-anchor="middle" x="644.71" y="-510.98" font-family="monospace" font-size="10.00">pub(self) mod</text>
<polyline fill="none" stroke="black" points="516.21,-503.98 773.21,-503.98 "/>
<text text-anchor="middle" x="644.71" y="-491.98" font-family="monospace" font-size="10.00">lightning_origin_ipfs::car_reader::utils</text>
</g>
<!-- lightning_origin_ipfs::car_reader&#45;&gt;lightning_origin_ipfs::car_reader::utils -->
<g id="edge10" class="edge">
<title>lightning_origin_ipfs::car_reader&#45;&gt;lightning_origin_ipfs::car_reader::utils</title>
<path fill="none" stroke="#000000" d="M776.25,-373.78C731.43,-400.59 676.46,-445.4 653.68,-475.96"/>
<polygon fill="#000000" stroke="#000000" points="650.58,-474.3 647.92,-484.56 656.39,-478.2 650.58,-474.3"/>
<text text-anchor="middle" x="702.47" y="-427.87" font-family="monospace" font-size="10.00">owns</text>
</g>
<!-- lightning_origin_ipfs::car_reader&#45;&gt;lightning_origin_ipfs::car_reader::utils -->
<g id="edge11" class="edge">
<title>lightning_origin_ipfs::car_reader&#45;&gt;lightning_origin_ipfs::car_reader::utils</title>
<path fill="none" stroke="#7f7f7f" stroke-dasharray="5,2" d="M837.67,-373.81C821.4,-402.09 765.81,-449.27 718.15,-479.39"/>
<polygon fill="#7f7f7f" stroke="#7f7f7f" points="716.03,-476.58 709.35,-484.8 719.7,-482.54 716.03,-476.58"/>
<text text-anchor="middle" x="765.41" y="-429.6" font-family="monospace" font-size="10.00">uses</text>
</g>
<!-- lightning_origin_ipfs::car_reader::reader&#45;&gt;lightning_origin_ipfs::car_reader::utils -->
<g id="edge12" class="edge">
<title>lightning_origin_ipfs::car_reader::reader&#45;&gt;lightning_origin_ipfs::car_reader::utils</title>
<path fill="none" stroke="#7f7f7f" stroke-dasharray="5,2" d="M671.18,-225.36C666.38,-275.96 653.27,-413.88 647.5,-474.61"/>
<polygon fill="#7f7f7f" stroke="#7f7f7f" points="644.01,-474.39 646.54,-484.68 650.97,-475.05 644.01,-474.39"/>
<text text-anchor="middle" x="646.84" y="-352.98" font-family="monospace" font-size="10.00">uses</text>
</g>
<!-- lightning_origin_ipfs::car_reader::reader&#45;&gt;lightning_origin_ipfs::error -->
<g id="edge13" class="edge">
<title>lightning_origin_ipfs::car_reader::reader&#45;&gt;lightning_origin_ipfs::error</title>
<path fill="none" stroke="#7f7f7f" stroke-dasharray="5,2" d="M655.21,-187C624.31,-153.49 560.65,-84.48 525.46,-46.33"/>
<polygon fill="#7f7f7f" stroke="#7f7f7f" points="527.75,-43.66 518.4,-38.68 522.61,-48.4 527.75,-43.66"/>
<text text-anchor="middle" x="577.83" y="-119.66" font-family="monospace" font-size="10.00">uses</text>
</g>
<!-- lightning_origin_ipfs::origin_ipfs&#45;&gt;hyper::client -->
<g id="edge14" class="edge">
<title>lightning_origin_ipfs::origin_ipfs&#45;&gt;hyper::client</title>
<path fill="none" stroke="#7f7f7f" stroke-dasharray="5,2" d="M273.99,-342.24C221.47,-355.36 152.83,-372.51 104.94,-384.47"/>
<polygon fill="#7f7f7f" stroke="#7f7f7f" points="103.91,-381.12 95.05,-386.94 105.6,-387.92 103.91,-381.12"/>
<text text-anchor="middle" x="176.97" y="-366.36" font-family="monospace" font-size="10.00">uses</text>
</g>
<!-- lightning_origin_ipfs::origin_ipfs&#45;&gt;lightning_origin_ipfs::car_reader::reader -->
<g id="edge15" class="edge">
<title>lightning_origin_ipfs::origin_ipfs&#45;&gt;lightning_origin_ipfs::car_reader::reader</title>
<path fill="none" stroke="#7f7f7f" stroke-dasharray="5,2" d="M402.98,-304.11C459.92,-283.48 550.69,-250.59 611.06,-228.72"/>
<polygon fill="#7f7f7f" stroke="#7f7f7f" points="612.27,-232.01 620.48,-225.31 609.88,-225.42 612.27,-232.01"/>
<text text-anchor="middle" x="494.52" y="-258.41" font-family="monospace" font-size="10.00">uses</text>
</g>
<!-- lightning_origin_ipfs::origin_ipfs&#45;&gt;lightning_origin_ipfs::car_reader::utils -->
<g id="edge16" class="edge">
<title>lightning_origin_ipfs::origin_ipfs&#45;&gt;lightning_origin_ipfs::car_reader::utils</title>
<path fill="none" stroke="#7f7f7f" stroke-dasharray="5,2" d="M381.37,-342.16C435.13,-375.19 545.71,-443.14 605.03,-479.6"/>
<polygon fill="#7f7f7f" stroke="#7f7f7f" points="603.39,-482.7 613.75,-484.95 607.06,-476.74 603.39,-482.7"/>
<text text-anchor="middle" x="480.7" y="-413.88" font-family="monospace" font-size="10.00">uses</text>
</g>
<!-- lightning_origin_ipfs::origin_ipfs&#45;&gt;lightning_origin_ipfs::config -->
<g id="edge17" class="edge">
<title>lightning_origin_ipfs::origin_ipfs&#45;&gt;lightning_origin_ipfs::config</title>
<path fill="none" stroke="#7f7f7f" stroke-dasharray="5,2" d="M351.17,-342.17C352.93,-387.8 357.4,-503.77 359.51,-558.36"/>
<polygon fill="#7f7f7f" stroke="#7f7f7f" points="356.02,-558.57 359.9,-568.42 363.01,-558.3 356.02,-558.57"/>
<text text-anchor="middle" x="342.84" y="-453.26" font-family="monospace" font-size="10.00">uses</text>
</g>
<!-- lightning_origin_ipfs::origin_ipfs&#45;&gt;lightning_origin_ipfs::decoder -->
<g id="edge18" class="edge">
<title>lightning_origin_ipfs::origin_ipfs&#45;&gt;lightning_origin_ipfs::decoder</title>
<path fill="none" stroke="#7f7f7f" stroke-dasharray="5,2" d="M341.21,-303.81C321.34,-262.18 274.43,-163.89 251.2,-115.23"/>
<polygon fill="#7f7f7f" stroke="#7f7f7f" points="254.36,-113.71 246.89,-106.19 248.04,-116.72 254.36,-113.71"/>
<text text-anchor="middle" x="283.71" y="-212.52" font-family="monospace" font-size="10.00">uses</text>
</g>
<!-- lightning_origin_ipfs::origin_ipfs&#45;&gt;lightning_origin_ipfs::error -->
<g id="edge19" class="edge">
<title>lightning_origin_ipfs::origin_ipfs&#45;&gt;lightning_origin_ipfs::error</title>
<path fill="none" stroke="#7f7f7f" stroke-dasharray="5,2" d="M360.07,-303.69C385.83,-251.63 456.43,-108.96 486.67,-47.87"/>
<polygon fill="#7f7f7f" stroke="#7f7f7f" points="489.86,-49.31 491.16,-38.79 483.59,-46.2 489.86,-49.31"/>
<text text-anchor="middle" x="410.87" y="-178.78" font-family="monospace" font-size="10.00">uses</text>
</g>
</g>
</svg>
