<?xml version="1.0" encoding="UTF-8" standalone="no"?>
<!DOCTYPE svg PUBLIC "-//W3C//DTD SVG 1.1//EN"
 "http://www.w3.org/Graphics/SVG/1.1/DTD/svg11.dtd">
<!-- Generated by graphviz version 4.0.0 (0)
 -->
<!-- Pages: 1 -->
<svg width="2015pt" height="1537pt"
 viewBox="0.00 0.00 2014.56 1536.52" xmlns="http://www.w3.org/2000/svg" xmlns:xlink="http://www.w3.org/1999/xlink">
<g id="graph0" class="graph" transform="scale(1 1) rotate(0) translate(28.8 1507.72)">
<polygon fill="white" stroke="transparent" points="-28.8,28.8 -28.8,-1507.72 1985.76,-1507.72 1985.76,28.8 -28.8,28.8"/>
<text text-anchor="middle" x="978.48" y="-1446.12" font-family="Helvetica,sans-Serif" font-size="36.00">lightning_origin_ipfs</text>
<!-- lightning_origin_ipfs -->
<g id="node1" class="node">
<title>lightning_origin_ipfs</title>
<polygon fill="#5397c8" stroke="black" points="820.4,-514.66 820.4,-552.66 963.4,-552.66 963.4,-514.66 820.4,-514.66"/>
<text text-anchor="middle" x="891.9" y="-540.66" font-family="monospace" font-size="10.00">crate</text>
<polyline fill="none" stroke="black" points="820.4,-533.66 963.4,-533.66 "/>
<text text-anchor="middle" x="891.9" y="-521.66" font-family="monospace" font-size="10.00">lightning_origin_ipfs</text>
</g>
<!-- lightning_origin_ipfs::car_reader::reader::CarReader -->
<g id="node2" class="node">
<title>lightning_origin_ipfs::car_reader::reader::CarReader</title>
<polygon fill="#81c169" stroke="black" points="953.87,-867.48 953.87,-905.48 1144.87,-905.48 1144.87,-867.48 953.87,-867.48"/>
<text text-anchor="middle" x="1049.37" y="-893.48" font-family="monospace" font-size="10.00">pub struct</text>
<polyline fill="none" stroke="black" points="953.87,-886.48 1144.87,-886.48 "/>
<text text-anchor="middle" x="1049.37" y="-874.48" font-family="monospace" font-size="10.00">car_reader::reader::CarReader</text>
</g>
<!-- lightning_origin_ipfs&#45;&gt;lightning_origin_ipfs::car_reader::reader::CarReader -->
<g id="edge1" class="edge">
<title>lightning_origin_ipfs&#45;&gt;lightning_origin_ipfs::car_reader::reader::CarReader</title>
<path fill="none" stroke="#000000" d="M887.8,-552.87C893.9,-612.33 971.43,-790.28 1018.84,-859.21"/>
<polygon fill="#000000" stroke="#000000" points="1016.07,-861.36 1024.75,-867.44 1021.76,-857.28 1016.07,-861.36"/>
<text text-anchor="middle" x="940.82" y="-709.04" font-family="monospace" font-size="10.00">owns</text>
</g>
<!-- lightning_origin_ipfs&#45;&gt;lightning_origin_ipfs::car_reader::reader::CarReader -->
<g id="edge2" class="edge">
<title>lightning_origin_ipfs&#45;&gt;lightning_origin_ipfs::car_reader::reader::CarReader</title>
<path fill="none" stroke="#7f7f7f" stroke-dasharray="5,2" d="M916.56,-552.74C960.82,-611.46 1038.88,-786.71 1051.97,-857.14"/>
<polygon fill="#7f7f7f" stroke="#7f7f7f" points="1048.52,-857.76 1053.46,-867.13 1055.45,-856.73 1048.52,-857.76"/>
<text text-anchor="middle" x="971.77" y="-707.94" font-family="monospace" font-size="10.00">uses</text>
</g>
<!-- lightning_origin_ipfs::car_reader::reader::CarV1Header -->
<g id="node5" class="node">
<title>lightning_origin_ipfs::car_reader::reader::CarV1Header</title>
<polygon fill="#81c169" stroke="black" points="781.53,-188.16 781.53,-226.16 984.53,-226.16 984.53,-188.16 781.53,-188.16"/>
<text text-anchor="middle" x="883.03" y="-214.16" font-family="monospace" font-size="10.00">pub struct</text>
<polyline fill="none" stroke="black" points="781.53,-207.16 984.53,-207.16 "/>
<text text-anchor="middle" x="883.03" y="-195.16" font-family="monospace" font-size="10.00">car_reader::reader::CarV1Header</text>
</g>
<!-- lightning_origin_ipfs&#45;&gt;lightning_origin_ipfs::car_reader::reader::CarV1Header -->
<g id="edge3" class="edge">
<title>lightning_origin_ipfs&#45;&gt;lightning_origin_ipfs::car_reader::reader::CarV1Header</title>
<path fill="none" stroke="#000000" d="M891.37,-514.22C889.88,-459.21 885.61,-302.23 883.83,-236.58"/>
<polygon fill="#000000" stroke="#000000" points="887.32,-236.4 883.55,-226.5 880.33,-236.59 887.32,-236.4"/>
<text text-anchor="middle" x="875.1" y="-378.4" font-family="monospace" font-size="10.00">owns</text>
</g>
<!-- lightning_origin_ipfs::car_reader::reader::CarV2Header -->
<g id="node6" class="node">
<title>lightning_origin_ipfs::car_reader::reader::CarV2Header</title>
<polygon fill="#81c169" stroke="black" points="475.42,-439.91 475.42,-477.91 678.42,-477.91 678.42,-439.91 475.42,-439.91"/>
<text text-anchor="middle" x="576.92" y="-465.91" font-family="monospace" font-size="10.00">pub struct</text>
<polyline fill="none" stroke="black" points="475.42,-458.91 678.42,-458.91 "/>
<text text-anchor="middle" x="576.92" y="-446.91" font-family="monospace" font-size="10.00">car_reader::reader::CarV2Header</text>
</g>
<!-- lightning_origin_ipfs&#45;&gt;lightning_origin_ipfs::car_reader::reader::CarV2Header -->
<g id="edge4" class="edge">
<title>lightning_origin_ipfs&#45;&gt;lightning_origin_ipfs::car_reader::reader::CarV2Header</title>
<path fill="none" stroke="#000000" d="M820.03,-516.61C774.59,-505.82 715.49,-491.8 666.94,-480.27"/>
<polygon fill="#000000" stroke="#000000" points="667.6,-476.83 657.06,-477.93 665.98,-483.64 667.6,-476.83"/>
<text text-anchor="middle" x="730.99" y="-501.44" font-family="monospace" font-size="10.00">owns</text>
</g>
<!-- lightning_origin_ipfs::car_reader::reader::CarV2Pragma -->
<g id="node7" class="node">
<title>lightning_origin_ipfs::car_reader::reader::CarV2Pragma</title>
<polygon fill="#81c169" stroke="black" points="562.33,-113.34 562.33,-151.34 765.33,-151.34 765.33,-113.34 562.33,-113.34"/>
<text text-anchor="middle" x="663.83" y="-139.34" font-family="monospace" font-size="10.00">pub struct</text>
<polyline fill="none" stroke="black" points="562.33,-132.34 765.33,-132.34 "/>
<text text-anchor="middle" x="663.83" y="-120.34" font-family="monospace" font-size="10.00">car_reader::reader::CarV2Pragma</text>
</g>
<!-- lightning_origin_ipfs&#45;&gt;lightning_origin_ipfs::car_reader::reader::CarV2Pragma -->
<g id="edge5" class="edge">
<title>lightning_origin_ipfs&#45;&gt;lightning_origin_ipfs::car_reader::reader::CarV2Pragma</title>
<path fill="none" stroke="#000000" d="M881.06,-514.58C844.21,-449.74 723.73,-237.74 679.93,-160.67"/>
<polygon fill="#000000" stroke="#000000" points="682.73,-158.51 674.74,-151.55 676.64,-161.97 682.73,-158.51"/>
<text text-anchor="middle" x="767.99" y="-340.62" font-family="monospace" font-size="10.00">owns</text>
</g>
<!-- lightning_origin_ipfs::car_reader::reader::header_v1 -->
<g id="node8" class="node">
<title>lightning_origin_ipfs::car_reader::reader::header_v1</title>
<polygon fill="#81c169" stroke="black" points="1119.93,-133.8 1119.93,-171.8 1310.93,-171.8 1310.93,-133.8 1119.93,-133.8"/>
<text text-anchor="middle" x="1215.43" y="-159.8" font-family="monospace" font-size="10.00">pub async fn</text>
<polyline fill="none" stroke="black" points="1119.93,-152.8 1310.93,-152.8 "/>
<text text-anchor="middle" x="1215.43" y="-140.8" font-family="monospace" font-size="10.00">car_reader::reader::header_v1</text>
</g>
<!-- lightning_origin_ipfs&#45;&gt;lightning_origin_ipfs::car_reader::reader::header_v1 -->
<g id="edge6" class="edge">
<title>lightning_origin_ipfs&#45;&gt;lightning_origin_ipfs::car_reader::reader::header_v1</title>
<path fill="none" stroke="#000000" d="M908.17,-514.51C961.35,-451.91 1130.19,-253.15 1192.25,-180.09"/>
<polygon fill="#000000" stroke="#000000" points="1195.14,-182.1 1198.94,-172.21 1189.8,-177.57 1195.14,-182.1"/>
<text text-anchor="middle" x="1037.71" y="-350.3" font-family="monospace" font-size="10.00">owns</text>
</g>
<!-- lightning_origin_ipfs::car_reader::reader::header_v2 -->
<g id="node9" class="node">
<title>lightning_origin_ipfs::car_reader::reader::header_v2</title>
<polygon fill="#81c169" stroke="black" points="403.78,-202.29 403.78,-240.29 594.78,-240.29 594.78,-202.29 403.78,-202.29"/>
<text text-anchor="middle" x="499.28" y="-228.29" font-family="monospace" font-size="10.00">pub async fn</text>
<polyline fill="none" stroke="black" points="403.78,-221.29 594.78,-221.29 "/>
<text text-anchor="middle" x="499.28" y="-209.29" font-family="monospace" font-size="10.00">car_reader::reader::header_v2</text>
</g>
<!-- lightning_origin_ipfs&#45;&gt;lightning_origin_ipfs::car_reader::reader::header_v2 -->
<g id="edge7" class="edge">
<title>lightning_origin_ipfs&#45;&gt;lightning_origin_ipfs::car_reader::reader::header_v2</title>
<path fill="none" stroke="#000000" d="M867.93,-514.59C800.31,-460.78 607.95,-307.74 531.34,-246.79"/>
<polygon fill="#000000" stroke="#000000" points="533.44,-243.99 523.44,-240.5 529.09,-249.47 533.44,-243.99"/>
<text text-anchor="middle" x="687.14" y="-383.69" font-family="monospace" font-size="10.00">owns</text>
</g>
<!-- lightning_origin_ipfs::car_reader::reader::pragma_v2 -->
<g id="node10" class="node">
<title>lightning_origin_ipfs::car_reader::reader::pragma_v2</title>
<polygon fill="#81c169" stroke="black" points="881.43,-3.55 881.43,-41.55 1072.43,-41.55 1072.43,-3.55 881.43,-3.55"/>
<text text-anchor="middle" x="976.93" y="-29.55" font-family="monospace" font-size="10.00">pub async fn</text>
<polyline fill="none" stroke="black" points="881.43,-22.55 1072.43,-22.55 "/>
<text text-anchor="middle" x="976.93" y="-10.55" font-family="monospace" font-size="10.00">car_reader::reader::pragma_v2</text>
</g>
<!-- lightning_origin_ipfs&#45;&gt;lightning_origin_ipfs::car_reader::reader::pragma_v2 -->
<g id="edge8" class="edge">
<title>lightning_origin_ipfs&#45;&gt;lightning_origin_ipfs::car_reader::reader::pragma_v2</title>
<path fill="none" stroke="#000000" d="M895.08,-514.56C907.98,-436.99 956.51,-145.29 972.09,-51.67"/>
<polygon fill="#000000" stroke="#000000" points="975.55,-52.19 973.74,-41.75 968.64,-51.04 975.55,-52.19"/>
<text text-anchor="middle" x="921.08" y="-286.11" font-family="monospace" font-size="10.00">owns</text>
</g>
<!-- lightning_origin_ipfs::car_reader::reader::read_block -->
<g id="node11" class="node">
<title>lightning_origin_ipfs::car_reader::reader::read_block</title>
<polygon fill="#db5367" stroke="black" points="676.35,-0.5 676.35,-38.5 873.35,-38.5 873.35,-0.5 676.35,-0.5"/>
<text text-anchor="middle" x="774.85" y="-26.5" font-family="monospace" font-size="10.00">pub(self) async fn</text>
<polyline fill="none" stroke="black" points="676.35,-19.5 873.35,-19.5 "/>
<text text-anchor="middle" x="774.85" y="-7.5" font-family="monospace" font-size="10.00">car_reader::reader::read_block</text>
</g>
<!-- lightning_origin_ipfs&#45;&gt;lightning_origin_ipfs::car_reader::reader::read_block -->
<g id="edge9" class="edge">
<title>lightning_origin_ipfs&#45;&gt;lightning_origin_ipfs::car_reader::reader::read_block</title>
<path fill="none" stroke="#000000" d="M887.53,-514.44C869.74,-436.33 802.81,-142.31 781.44,-48.47"/>
<polygon fill="#000000" stroke="#000000" points="784.81,-47.51 779.18,-38.54 777.99,-49.07 784.81,-47.51"/>
<text text-anchor="middle" x="821.99" y="-284.46" font-family="monospace" font-size="10.00">owns</text>
</g>
<!-- lightning_origin_ipfs::car_reader::reader::read_block_bytes -->
<g id="node12" class="node">
<title>lightning_origin_ipfs::car_reader::reader::read_block_bytes</title>
<polygon fill="#db5367" stroke="black" points="281.5,-374.52 281.5,-412.52 514.5,-412.52 514.5,-374.52 281.5,-374.52"/>
<text text-anchor="middle" x="398" y="-400.52" font-family="monospace" font-size="10.00">pub(self) async fn</text>
<polyline fill="none" stroke="black" points="281.5,-393.52 514.5,-393.52 "/>
<text text-anchor="middle" x="398" y="-381.52" font-family="monospace" font-size="10.00">car_reader::reader::read_block_bytes</text>
</g>
<!-- lightning_origin_ipfs&#45;&gt;lightning_origin_ipfs::car_reader::reader::read_block_bytes -->
<g id="edge10" class="edge">
<title>lightning_origin_ipfs&#45;&gt;lightning_origin_ipfs::car_reader::reader::read_block_bytes</title>
<path fill="none" stroke="#000000" d="M824.78,-514.62C733.49,-488.71 570.6,-442.49 474.62,-415.26"/>
<polygon fill="#000000" stroke="#000000" points="475.55,-411.89 464.98,-412.52 473.64,-418.62 475.55,-411.89"/>
<text text-anchor="middle" x="637.2" y="-467.94" font-family="monospace" font-size="10.00">owns</text>
</g>
<!-- lightning_origin_ipfs::car_reader::reader::read_varint_usize -->
<g id="node13" class="node">
<title>lightning_origin_ipfs::car_reader::reader::read_varint_usize</title>
<polygon fill="#db5367" stroke="black" points="990.82,-248.8 990.82,-286.8 1229.82,-286.8 1229.82,-248.8 990.82,-248.8"/>
<text text-anchor="middle" x="1110.32" y="-274.8" font-family="monospace" font-size="10.00">pub(self) async fn</text>
<polyline fill="none" stroke="black" points="990.82,-267.8 1229.82,-267.8 "/>
<text text-anchor="middle" x="1110.32" y="-255.8" font-family="monospace" font-size="10.00">car_reader::reader::read_varint_usize</text>
</g>
<!-- lightning_origin_ipfs&#45;&gt;lightning_origin_ipfs::car_reader::reader::read_varint_usize -->
<g id="edge11" class="edge">
<title>lightning_origin_ipfs&#45;&gt;lightning_origin_ipfs::car_reader::reader::read_varint_usize</title>
<path fill="none" stroke="#000000" d="M907.61,-514.54C945.85,-468 1043.87,-348.68 1088.09,-294.86"/>
<polygon fill="#000000" stroke="#000000" points="1090.82,-297.05 1094.46,-287.1 1085.41,-292.61 1090.82,-297.05"/>
<text text-anchor="middle" x="985.35" y="-407.7" font-family="monospace" font-size="10.00">owns</text>
</g>
<!-- lightning_origin_ipfs::car_reader::utils::Buffer -->
<g id="node14" class="node">
<title>lightning_origin_ipfs::car_reader::utils::Buffer</title>
<polygon fill="#81c169" stroke="black" points="1185.38,-469.95 1185.38,-507.95 1352.38,-507.95 1352.38,-469.95 1185.38,-469.95"/>
<text text-anchor="middle" x="1268.88" y="-495.95" font-family="monospace" font-size="10.00">pub struct</text>
<polyline fill="none" stroke="black" points="1185.38,-488.95 1352.38,-488.95 "/>
<text text-anchor="middle" x="1268.88" y="-476.95" font-family="monospace" font-size="10.00">car_reader::utils::Buffer</text>
</g>
<!-- lightning_origin_ipfs&#45;&gt;lightning_origin_ipfs::car_reader::utils::Buffer -->
<g id="edge12" class="edge">
<title>lightning_origin_ipfs&#45;&gt;lightning_origin_ipfs::car_reader::utils::Buffer</title>
<path fill="none" stroke="#000000" d="M963.57,-546.77C1042.9,-545.95 1167.78,-529.82 1230.41,-511.16"/>
<polygon fill="#000000" stroke="#000000" points="1231.8,-514.39 1240.27,-508.02 1229.68,-507.72 1231.8,-514.39"/>
<text text-anchor="middle" x="1084.49" y="-531.96" font-family="monospace" font-size="10.00">owns</text>
</g>
<!-- lightning_origin_ipfs&#45;&gt;lightning_origin_ipfs::car_reader::utils::Buffer -->
<g id="edge13" class="edge">
<title>lightning_origin_ipfs&#45;&gt;lightning_origin_ipfs::car_reader::utils::Buffer</title>
<path fill="none" stroke="#7f7f7f" stroke-dasharray="5,2" d="M920.6,-514.57C974.2,-496.29 1091.58,-479.72 1175.25,-476.41"/>
<polygon fill="#7f7f7f" stroke="#7f7f7f" points="1175.4,-479.91 1185.28,-476.08 1175.17,-472.91 1175.4,-479.91"/>
<text text-anchor="middle" x="1035.42" y="-498.49" font-family="monospace" font-size="10.00">uses</text>
</g>
<!-- lightning_origin_ipfs::car_reader::utils::hyper_error -->
<g id="node15" class="node">
<title>lightning_origin_ipfs::car_reader::utils::hyper_error</title>
<polygon fill="#81c169" stroke="black" points="477.42,-711.14 477.42,-749.14 674.42,-749.14 674.42,-711.14 477.42,-711.14"/>
<text text-anchor="middle" x="575.92" y="-737.14" font-family="monospace" font-size="10.00">pub fn</text>
<polyline fill="none" stroke="black" points="477.42,-730.14 674.42,-730.14 "/>
<text text-anchor="middle" x="575.92" y="-718.14" font-family="monospace" font-size="10.00">car_reader::utils::hyper_error</text>
</g>
<!-- lightning_origin_ipfs&#45;&gt;lightning_origin_ipfs::car_reader::utils::hyper_error -->
<g id="edge14" class="edge">
<title>lightning_origin_ipfs&#45;&gt;lightning_origin_ipfs::car_reader::utils::hyper_error</title>
<path fill="none" stroke="#000000" d="M820.25,-552.62C744.75,-589.14 631.93,-662.03 590.81,-703.45"/>
<polygon fill="#000000" stroke="#000000" points="588,-701.34 583.78,-711.05 593.14,-706.09 588,-701.34"/>
<text text-anchor="middle" x="693.03" y="-631.04" font-family="monospace" font-size="10.00">owns</text>
</g>
<!-- lightning_origin_ipfs&#45;&gt;lightning_origin_ipfs::car_reader::utils::hyper_error -->
<g id="edge15" class="edge">
<title>lightning_origin_ipfs&#45;&gt;lightning_origin_ipfs::car_reader::utils::hyper_error</title>
<path fill="none" stroke="#7f7f7f" stroke-dasharray="5,2" d="M883.91,-552.91C851.54,-590.95 737.01,-666.34 656.92,-706.58"/>
<polygon fill="#7f7f7f" stroke="#7f7f7f" points="655.23,-703.51 647.81,-711.07 658.33,-709.78 655.23,-703.51"/>
<text text-anchor="middle" x="757.91" y="-632.75" font-family="monospace" font-size="10.00">uses</text>
</g>
<!-- lightning_origin_ipfs::config::Config -->
<g id="node16" class="node">
<title>lightning_origin_ipfs::config::Config</title>
<polygon fill="#81c169" stroke="black" points="1314.44,-284.25 1314.44,-322.25 1415.44,-322.25 1415.44,-284.25 1314.44,-284.25"/>
<text text-anchor="middle" x="1364.94" y="-310.25" font-family="monospace" font-size="10.00">pub struct</text>
<polyline fill="none" stroke="black" points="1314.44,-303.25 1415.44,-303.25 "/>
<text text-anchor="middle" x="1364.94" y="-291.25" font-family="monospace" font-size="10.00">config::Config</text>
</g>
<!-- lightning_origin_ipfs&#45;&gt;lightning_origin_ipfs::config::Config -->
<g id="edge16" class="edge">
<title>lightning_origin_ipfs&#45;&gt;lightning_origin_ipfs::config::Config</title>
<path fill="none" stroke="#000000" d="M963.57,-520C1073.22,-480.1 1276.26,-379.14 1343.25,-328.87"/>
<polygon fill="#000000" stroke="#000000" points="1345.74,-331.36 1351.43,-322.42 1341.41,-325.87 1345.74,-331.36"/>
<text text-anchor="middle" x="1140.91" y="-427.43" font-family="monospace" font-size="10.00">owns</text>
</g>
<!-- lightning_origin_ipfs&#45;&gt;lightning_origin_ipfs::config::Config -->
<g id="edge17" class="edge">
<title>lightning_origin_ipfs&#45;&gt;lightning_origin_ipfs::config::Config</title>
<path fill="none" stroke="#7f7f7f" stroke-dasharray="5,2" d="M905.23,-514.65C963.61,-465.59 1193.57,-351.17 1304.65,-312.89"/>
<polygon fill="#7f7f7f" stroke="#7f7f7f" points="1306,-316.12 1314.37,-309.63 1303.78,-309.49 1306,-316.12"/>
<text text-anchor="middle" x="1092.44" y="-416.77" font-family="monospace" font-size="10.00">uses</text>
</g>
<!-- lightning_origin_ipfs::config::Gateway -->
<g id="node17" class="node">
<title>lightning_origin_ipfs::config::Gateway</title>
<polygon fill="#81c169" stroke="black" points="679.75,-989.58 679.75,-1027.58 786.75,-1027.58 786.75,-989.58 679.75,-989.58"/>
<text text-anchor="middle" x="733.25" y="-1015.58" font-family="monospace" font-size="10.00">pub struct</text>
<polyline fill="none" stroke="black" points="679.75,-1008.58 786.75,-1008.58 "/>
<text text-anchor="middle" x="733.25" y="-996.58" font-family="monospace" font-size="10.00">config::Gateway</text>
</g>
<!-- lightning_origin_ipfs&#45;&gt;lightning_origin_ipfs::config::Gateway -->
<g id="edge18" class="edge">
<title>lightning_origin_ipfs&#45;&gt;lightning_origin_ipfs::config::Gateway</title>
<path fill="none" stroke="#000000" d="M872.27,-552.92C827.37,-626.85 739.13,-890.53 729.35,-979.34"/>
<polygon fill="#000000" stroke="#000000" points="725.85,-979.27 728.55,-989.52 732.83,-979.82 725.85,-979.27"/>
<text text-anchor="middle" x="788.31" y="-769.13" font-family="monospace" font-size="10.00">owns</text>
</g>
<!-- lightning_origin_ipfs&#45;&gt;lightning_origin_ipfs::config::Gateway -->
<g id="edge19" class="edge">
<title>lightning_origin_ipfs&#45;&gt;lightning_origin_ipfs::config::Gateway</title>
<path fill="none" stroke="#7f7f7f" stroke-dasharray="5,2" d="M896.6,-552.8C893.51,-626.94 805.95,-893.2 757.84,-980.7"/>
<polygon fill="#7f7f7f" stroke="#7f7f7f" points="754.71,-979.12 752.75,-989.53 760.78,-982.62 754.71,-979.12"/>
<text text-anchor="middle" x="814.72" y="-769.75" font-family="monospace" font-size="10.00">uses</text>
</g>
<!-- lightning_origin_ipfs::config::Protocol -->
<g id="node18" class="node">
<title>lightning_origin_ipfs::config::Protocol</title>
<polygon fill="#81c169" stroke="black" points="421.99,-871.11 421.99,-909.11 534.99,-909.11 534.99,-871.11 421.99,-871.11"/>
<text text-anchor="middle" x="478.49" y="-897.11" font-family="monospace" font-size="10.00">pub enum</text>
<polyline fill="none" stroke="black" points="421.99,-890.11 534.99,-890.11 "/>
<text text-anchor="middle" x="478.49" y="-878.11" font-family="monospace" font-size="10.00">config::Protocol</text>
</g>
<!-- lightning_origin_ipfs&#45;&gt;lightning_origin_ipfs::config::Protocol -->
<g id="edge20" class="edge">
<title>lightning_origin_ipfs&#45;&gt;lightning_origin_ipfs::config::Protocol</title>
<path fill="none" stroke="#000000" d="M869.68,-552.83C800.28,-612.66 587.54,-796.08 508.49,-864.25"/>
<polygon fill="#000000" stroke="#000000" points="506.11,-861.67 500.82,-870.85 510.68,-866.98 506.11,-861.67"/>
<text text-anchor="middle" x="676.58" y="-700.54" font-family="monospace" font-size="10.00">owns</text>
</g>
<!-- lightning_origin_ipfs::decoder::decode_block -->
<g id="node20" class="node">
<title>lightning_origin_ipfs::decoder::decode_block</title>
<polygon fill="#81c169" stroke="black" points="328.83,-590.12 328.83,-628.12 471.83,-628.12 471.83,-590.12 328.83,-590.12"/>
<text text-anchor="middle" x="400.33" y="-616.12" font-family="monospace" font-size="10.00">pub fn</text>
<polyline fill="none" stroke="black" points="328.83,-609.12 471.83,-609.12 "/>
<text text-anchor="middle" x="400.33" y="-597.12" font-family="monospace" font-size="10.00">decoder::decode_block</text>
</g>
<!-- lightning_origin_ipfs&#45;&gt;lightning_origin_ipfs::decoder::decode_block -->
<g id="edge21" class="edge">
<title>lightning_origin_ipfs&#45;&gt;lightning_origin_ipfs::decoder::decode_block</title>
<path fill="none" stroke="#000000" d="M820.16,-544.67C730.3,-558.47 576.69,-582.05 482.29,-596.54"/>
<polygon fill="#000000" stroke="#000000" points="481.56,-593.11 472.21,-598.09 482.62,-600.03 481.56,-593.11"/>
<text text-anchor="middle" x="638.72" y="-573.61" font-family="monospace" font-size="10.00">owns</text>
</g>
<!-- lightning_origin_ipfs::error::Error -->
<g id="node21" class="node">
<title>lightning_origin_ipfs::error::Error</title>
<polygon fill="#81c169" stroke="black" points="1115.88,-960.63 1115.88,-998.63 1204.88,-998.63 1204.88,-960.63 1115.88,-960.63"/>
<text text-anchor="middle" x="1160.38" y="-986.63" font-family="monospace" font-size="10.00">pub enum</text>
<polyline fill="none" stroke="black" points="1115.88,-979.63 1204.88,-979.63 "/>
<text text-anchor="middle" x="1160.38" y="-967.63" font-family="monospace" font-size="10.00">error::Error</text>
</g>
<!-- lightning_origin_ipfs&#45;&gt;lightning_origin_ipfs::error::Error -->
<g id="edge22" class="edge">
<title>lightning_origin_ipfs&#45;&gt;lightning_origin_ipfs::error::Error</title>
<path fill="none" stroke="#000000" d="M891.5,-552.75C910.55,-624.25 1056.7,-870.32 1126.44,-952.91"/>
<polygon fill="#000000" stroke="#000000" points="1123.94,-955.37 1133.15,-960.61 1129.22,-950.77 1123.94,-955.37"/>
<text text-anchor="middle" x="996.47" y="-755.83" font-family="monospace" font-size="10.00">owns</text>
</g>
<!-- lightning_origin_ipfs&#45;&gt;lightning_origin_ipfs::error::Error -->
<g id="edge23" class="edge">
<title>lightning_origin_ipfs&#45;&gt;lightning_origin_ipfs::error::Error</title>
<path fill="none" stroke="#7f7f7f" stroke-dasharray="5,2" d="M919.33,-552.89C983.24,-623.81 1128.41,-865.5 1157.66,-950.43"/>
<polygon fill="#7f7f7f" stroke="#7f7f7f" points="1154.39,-951.7 1160.7,-960.21 1161.07,-949.62 1154.39,-951.7"/>
<text text-anchor="middle" x="1025.99" y="-754.66" font-family="monospace" font-size="10.00">uses</text>
</g>
<!-- lightning_origin_ipfs::origin_ipfs::IPFSOrigin -->
<g id="node22" class="node">
<title>lightning_origin_ipfs::origin_ipfs::IPFSOrigin</title>
<polygon fill="#81c169" stroke="black" points="1276.97,-770.7 1276.97,-808.7 1431.97,-808.7 1431.97,-770.7 1276.97,-770.7"/>
<text text-anchor="middle" x="1354.47" y="-796.7" font-family="monospace" font-size="10.00">pub struct</text>
<polyline fill="none" stroke="black" points="1276.97,-789.7 1431.97,-789.7 "/>
<text text-anchor="middle" x="1354.47" y="-777.7" font-family="monospace" font-size="10.00">origin_ipfs::IPFSOrigin</text>
</g>
<!-- lightning_origin_ipfs&#45;&gt;lightning_origin_ipfs::origin_ipfs::IPFSOrigin -->
<g id="edge24" class="edge">
<title>lightning_origin_ipfs&#45;&gt;lightning_origin_ipfs::origin_ipfs::IPFSOrigin</title>
<path fill="none" stroke="#000000" d="M903.58,-552.71C954.63,-600.95 1154.32,-715.07 1270.28,-766.48"/>
<polygon fill="#000000" stroke="#000000" points="1268.95,-769.72 1279.52,-770.52 1271.76,-763.31 1268.95,-769.72"/>
<text text-anchor="middle" x="1074.43" y="-662.6" font-family="monospace" font-size="10.00">owns</text>
</g>
<!-- lightning_origin_ipfs&#45;&gt;lightning_origin_ipfs::origin_ipfs::IPFSOrigin -->
<g id="edge25" class="edge">
<title>lightning_origin_ipfs&#45;&gt;lightning_origin_ipfs::origin_ipfs::IPFSOrigin</title>
<path fill="none" stroke="#7f7f7f" stroke-dasharray="5,2" d="M963.56,-551.43C1072.11,-597.64 1271.45,-710.21 1334.96,-763.7"/>
<polygon fill="#7f7f7f" stroke="#7f7f7f" points="1332.86,-766.52 1342.67,-770.54 1337.51,-761.28 1332.86,-766.52"/>
<text text-anchor="middle" x="1136.76" y="-660.57" font-family="monospace" font-size="10.00">uses</text>
</g>
<!-- lightning_origin_ipfs::origin_ipfs::verify_data -->
<g id="node28" class="node">
<title>lightning_origin_ipfs::origin_ipfs::verify_data</title>
<polygon fill="#db5367" stroke="black" points="784.85,-844.54 784.85,-882.54 945.85,-882.54 945.85,-844.54 784.85,-844.54"/>
<text text-anchor="middle" x="865.35" y="-870.54" font-family="monospace" font-size="10.00">pub(self) fn</text>
<polyline fill="none" stroke="black" points="784.85,-863.54 945.85,-863.54 "/>
<text text-anchor="middle" x="865.35" y="-851.54" font-family="monospace" font-size="10.00">origin_ipfs::verify_data</text>
</g>
<!-- lightning_origin_ipfs&#45;&gt;lightning_origin_ipfs::origin_ipfs::verify_data -->
<g id="edge26" class="edge">
<title>lightning_origin_ipfs&#45;&gt;lightning_origin_ipfs::origin_ipfs::verify_data</title>
<path fill="none" stroke="#000000" d="M890.36,-552.82C885.92,-608.05 873.06,-767.84 867.72,-834.15"/>
<polygon fill="#000000" stroke="#000000" points="864.21,-834.07 866.9,-844.32 871.19,-834.64 864.21,-834.07"/>
<text text-anchor="middle" x="866.54" y="-696.49" font-family="monospace" font-size="10.00">owns</text>
</g>
<!-- lightning_origin_ipfs::car_reader::reader::CarReader::new -->
<g id="node3" class="node">
<title>lightning_origin_ipfs::car_reader::reader::CarReader::new</title>
<polygon fill="#81c169" stroke="black" points="1440.03,-809.2 1440.03,-847.2 1661.03,-847.2 1661.03,-809.2 1440.03,-809.2"/>
<text text-anchor="middle" x="1550.53" y="-835.2" font-family="monospace" font-size="10.00">pub async fn</text>
<polyline fill="none" stroke="black" points="1440.03,-828.2 1661.03,-828.2 "/>
<text text-anchor="middle" x="1550.53" y="-816.2" font-family="monospace" font-size="10.00">car_reader::reader::CarReader::new</text>
</g>
<!-- lightning_origin_ipfs::car_reader::reader::CarReader&#45;&gt;lightning_origin_ipfs::car_reader::reader::CarReader::new -->
<g id="edge27" class="edge">
<title>lightning_origin_ipfs::car_reader::reader::CarReader&#45;&gt;lightning_origin_ipfs::car_reader::reader::CarReader::new</title>
<path fill="none" stroke="#000000" d="M1144.95,-897.06C1253.31,-893.2 1425.35,-871.49 1506.03,-849.96"/>
<polygon fill="#000000" stroke="#000000" points="1507.18,-853.27 1515.87,-847.2 1505.29,-846.53 1507.18,-853.27"/>
<text text-anchor="middle" x="1312.99" y="-876.51" font-family="monospace" font-size="10.00">owns</text>
</g>
<!-- lightning_origin_ipfs::car_reader::reader::CarReader::next_block -->
<g id="node4" class="node">
<title>lightning_origin_ipfs::car_reader::reader::CarReader::next_block</title>
<polygon fill="#81c169" stroke="black" points="803.69,-1392.42 803.69,-1430.42 1066.69,-1430.42 1066.69,-1392.42 803.69,-1392.42"/>
<text text-anchor="middle" x="935.19" y="-1418.42" font-family="monospace" font-size="10.00">pub async fn</text>
<polyline fill="none" stroke="black" points="803.69,-1411.42 1066.69,-1411.42 "/>
<text text-anchor="middle" x="935.19" y="-1399.42" font-family="monospace" font-size="10.00">car_reader::reader::CarReader::next_block</text>
</g>
<!-- lightning_origin_ipfs::car_reader::reader::CarReader&#45;&gt;lightning_origin_ipfs::car_reader::reader::CarReader::next_block -->
<g id="edge28" class="edge">
<title>lightning_origin_ipfs::car_reader::reader::CarReader&#45;&gt;lightning_origin_ipfs::car_reader::reader::CarReader::next_block</title>
<path fill="none" stroke="#000000" d="M1033.37,-905.57C995.52,-984.7 929.57,-1286.09 928.56,-1382"/>
<polygon fill="#000000" stroke="#000000" points="925.06,-1382.22 928.74,-1392.15 932.06,-1382.09 925.06,-1382.22"/>
<text text-anchor="middle" x="968.47" y="-1146.79" font-family="monospace" font-size="10.00">owns</text>
</g>
<!-- lightning_origin_ipfs::car_reader::reader::CarReader::new&#45;&gt;lightning_origin_ipfs::car_reader::reader::CarReader -->
<g id="edge29" class="edge">
<title>lightning_origin_ipfs::car_reader::reader::CarReader::new&#45;&gt;lightning_origin_ipfs::car_reader::reader::CarReader</title>
<path fill="none" stroke="#7f7f7f" stroke-dasharray="5,2" d="M1439.78,-818.26C1331.26,-823.45 1171.27,-844.12 1094.15,-864.64"/>
<polygon fill="#7f7f7f" stroke="#7f7f7f" points="1092.96,-861.34 1084.28,-867.4 1094.85,-868.08 1092.96,-861.34"/>
<text text-anchor="middle" x="1254.47" y="-844.45" font-family="monospace" font-size="10.00">uses</text>
</g>
<!-- lightning_origin_ipfs::car_reader::reader::CarReader::new&#45;&gt;lightning_origin_ipfs::car_reader::utils::Buffer -->
<g id="edge30" class="edge">
<title>lightning_origin_ipfs::car_reader::reader::CarReader::new&#45;&gt;lightning_origin_ipfs::car_reader::utils::Buffer</title>
<path fill="none" stroke="#7f7f7f" stroke-dasharray="5,2" d="M1534.58,-808.99C1487.04,-751.73 1346.21,-582.09 1291.23,-515.87"/>
<polygon fill="#7f7f7f" stroke="#7f7f7f" points="1293.74,-513.41 1284.66,-507.96 1288.35,-517.89 1293.74,-513.41"/>
<text text-anchor="middle" x="1400.4" y="-665.43" font-family="monospace" font-size="10.00">uses</text>
</g>
<!-- lightning_origin_ipfs::car_reader::reader::CarReader::new&#45;&gt;lightning_origin_ipfs::error::Error -->
<g id="edge31" class="edge">
<title>lightning_origin_ipfs::car_reader::reader::CarReader::new&#45;&gt;lightning_origin_ipfs::error::Error</title>
<path fill="none" stroke="#7f7f7f" stroke-dasharray="5,2" d="M1501.51,-847.23C1428.21,-875.68 1290.52,-929.12 1214.4,-958.66"/>
<polygon fill="#7f7f7f" stroke="#7f7f7f" points="1213.04,-955.44 1204.98,-962.32 1215.57,-961.96 1213.04,-955.44"/>
<text text-anchor="middle" x="1345.46" y="-905.95" font-family="monospace" font-size="10.00">uses</text>
</g>
<!-- lightning_origin_ipfs::car_reader::reader::CarReader::next_block&#45;&gt;lightning_origin_ipfs::car_reader::reader::CarReader -->
<g id="edge32" class="edge">
<title>lightning_origin_ipfs::car_reader::reader::CarReader::next_block&#45;&gt;lightning_origin_ipfs::car_reader::reader::CarReader</title>
<path fill="none" stroke="#7f7f7f" stroke-dasharray="5,2" d="M951.19,-1392.32C989.05,-1313.2 1055,-1011.81 1056.01,-915.89"/>
<polygon fill="#7f7f7f" stroke="#7f7f7f" points="1059.51,-915.68 1055.83,-905.74 1052.51,-915.8 1059.51,-915.68"/>
<text text-anchor="middle" x="991.1" y="-1157.11" font-family="monospace" font-size="10.00">uses</text>
</g>
<!-- lightning_origin_ipfs::car_reader::reader::CarReader::next_block&#45;&gt;lightning_origin_ipfs::error::Error -->
<g id="edge33" class="edge">
<title>lightning_origin_ipfs::car_reader::reader::CarReader::next_block&#45;&gt;lightning_origin_ipfs::error::Error</title>
<path fill="none" stroke="#7f7f7f" stroke-dasharray="5,2" d="M945.16,-1392.31C980.91,-1323.77 1102.79,-1090.05 1145.48,-1008.21"/>
<polygon fill="#7f7f7f" stroke="#7f7f7f" points="1148.76,-1009.49 1150.28,-999.01 1142.55,-1006.26 1148.76,-1009.49"/>
<text text-anchor="middle" x="1032.82" y="-1203.26" font-family="monospace" font-size="10.00">uses</text>
</g>
<!-- lightning_origin_ipfs::car_reader::reader::header_v1&#45;&gt;lightning_origin_ipfs::car_reader::utils::Buffer -->
<g id="edge34" class="edge">
<title>lightning_origin_ipfs::car_reader::reader::header_v1&#45;&gt;lightning_origin_ipfs::car_reader::utils::Buffer</title>
<path fill="none" stroke="#7f7f7f" stroke-dasharray="5,2" d="M1218.46,-171.84C1227.37,-227.87 1253.54,-392.48 1264.25,-459.78"/>
<polygon fill="#7f7f7f" stroke="#7f7f7f" points="1260.8,-460.38 1265.82,-469.71 1267.71,-459.29 1260.8,-460.38"/>
<text text-anchor="middle" x="1228.85" y="-318.81" font-family="monospace" font-size="10.00">uses</text>
</g>
<!-- lightning_origin_ipfs::car_reader::reader::header_v2&#45;&gt;lightning_origin_ipfs::car_reader::reader::CarV2Header -->
<g id="edge35" class="edge">
<title>lightning_origin_ipfs::car_reader::reader::header_v2&#45;&gt;lightning_origin_ipfs::car_reader::reader::CarV2Header</title>
<path fill="none" stroke="#7f7f7f" stroke-dasharray="5,2" d="M505.51,-240.33C519.08,-281.87 551.41,-380.82 567.49,-430.06"/>
<polygon fill="#7f7f7f" stroke="#7f7f7f" points="564.23,-431.36 570.66,-439.77 570.89,-429.18 564.23,-431.36"/>
<text text-anchor="middle" x="524" y="-338.2" font-family="monospace" font-size="10.00">uses</text>
</g>
<!-- lightning_origin_ipfs::car_reader::reader::pragma_v2&#45;&gt;lightning_origin_ipfs::car_reader::reader::CarV2Pragma -->
<g id="edge36" class="edge">
<title>lightning_origin_ipfs::car_reader::reader::pragma_v2&#45;&gt;lightning_origin_ipfs::car_reader::reader::CarV2Pragma</title>
<path fill="none" stroke="#7f7f7f" stroke-dasharray="5,2" d="M922.39,-41.68C868.23,-60.67 785.22,-89.78 727.94,-109.86"/>
<polygon fill="#7f7f7f" stroke="#7f7f7f" points="726.54,-106.64 718.27,-113.25 728.86,-113.25 726.54,-106.64"/>
<text text-anchor="middle" x="812.67" y="-78.77" font-family="monospace" font-size="10.00">uses</text>
</g>
<!-- lightning_origin_ipfs::config::Gateway&#45;&gt;lightning_origin_ipfs::config::Protocol -->
<g id="edge37" class="edge">
<title>lightning_origin_ipfs::config::Gateway&#45;&gt;lightning_origin_ipfs::config::Protocol</title>
<path fill="none" stroke="#7f7f7f" stroke-dasharray="5,2" d="M692.32,-989.54C647.88,-968.88 576.86,-935.86 528.99,-913.6"/>
<polygon fill="#7f7f7f" stroke="#7f7f7f" points="530.28,-910.34 519.74,-909.3 527.33,-916.69 530.28,-910.34"/>
<text text-anchor="middle" x="598.15" y="-954.57" font-family="monospace" font-size="10.00">uses</text>
</g>
<!-- lightning_origin_ipfs::config::Protocol::as_str -->
<g id="node19" class="node">
<title>lightning_origin_ipfs::config::Protocol::as_str</title>
<polygon fill="#81c169" stroke="black" points="0,-1067.44 0,-1105.44 161,-1105.44 161,-1067.44 0,-1067.44"/>
<text text-anchor="middle" x="80.5" y="-1093.44" font-family="monospace" font-size="10.00">pub fn</text>
<polyline fill="none" stroke="black" points="0,-1086.44 161,-1086.44 "/>
<text text-anchor="middle" x="80.5" y="-1074.44" font-family="monospace" font-size="10.00">config::Protocol::as_str</text>
</g>
<!-- lightning_origin_ipfs::config::Protocol&#45;&gt;lightning_origin_ipfs::config::Protocol::as_str -->
<g id="edge38" class="edge">
<title>lightning_origin_ipfs::config::Protocol&#45;&gt;lightning_origin_ipfs::config::Protocol::as_str</title>
<path fill="none" stroke="#000000" d="M421.95,-897.49C331.41,-927.96 159.05,-1014.54 100.26,-1060.83"/>
<polygon fill="#000000" stroke="#000000" points="97.88,-1058.27 92.44,-1067.36 102.36,-1063.64 97.88,-1058.27"/>
<text text-anchor="middle" x="248.6" y="-982.16" font-family="monospace" font-size="10.00">owns</text>
</g>
<!-- lightning_origin_ipfs::config::Protocol::as_str&#45;&gt;lightning_origin_ipfs::config::Protocol -->
<g id="edge39" class="edge">
<title>lightning_origin_ipfs::config::Protocol::as_str&#45;&gt;lightning_origin_ipfs::config::Protocol</title>
<path fill="none" stroke="#7f7f7f" stroke-dasharray="5,2" d="M161.06,-1070.41C255.26,-1034.57 404.69,-958.24 458.67,-915.77"/>
<polygon fill="#7f7f7f" stroke="#7f7f7f" points="461.05,-918.34 466.49,-909.25 456.57,-912.97 461.05,-918.34"/>
<text text-anchor="middle" x="297.36" y="-996.09" font-family="monospace" font-size="10.00">uses</text>
</g>
<!-- lightning_origin_ipfs::origin_ipfs::IPFSOrigin::fetch -->
<g id="node23" class="node">
<title>lightning_origin_ipfs::origin_ipfs::IPFSOrigin::fetch</title>
<polygon fill="#81c169" stroke="black" points="1759.96,-774.02 1759.96,-812.02 1956.96,-812.02 1956.96,-774.02 1759.96,-774.02"/>
<text text-anchor="middle" x="1858.46" y="-800.02" font-family="monospace" font-size="10.00">pub async fn</text>
<polyline fill="none" stroke="black" points="1759.96,-793.02 1956.96,-793.02 "/>
<text text-anchor="middle" x="1858.46" y="-781.02" font-family="monospace" font-size="10.00">origin_ipfs::IPFSOrigin::fetch</text>
</g>
<!-- lightning_origin_ipfs::origin_ipfs::IPFSOrigin&#45;&gt;lightning_origin_ipfs::origin_ipfs::IPFSOrigin::fetch -->
<g id="edge40" class="edge">
<title>lightning_origin_ipfs::origin_ipfs::IPFSOrigin&#45;&gt;lightning_origin_ipfs::origin_ipfs::IPFSOrigin::fetch</title>
<path fill="none" stroke="#000000" d="M1417.41,-808.72C1508.38,-819.85 1676.66,-821.58 1776.99,-812.98"/>
<polygon fill="#000000" stroke="#000000" points="1777.44,-816.45 1787.08,-812.06 1776.8,-809.48 1777.44,-816.45"/>
<text text-anchor="middle" x="1584.7" y="-802.85" font-family="monospace" font-size="10.00">owns</text>
</g>
<!-- lightning_origin_ipfs::origin_ipfs::IPFSOrigin::fetch_from_gateway -->
<g id="node24" class="node">
<title>lightning_origin_ipfs::origin_ipfs::IPFSOrigin::fetch_from_gateway</title>
<polygon fill="#db5367" stroke="black" points="1012.75,-1260.3 1012.75,-1298.3 1287.75,-1298.3 1287.75,-1260.3 1012.75,-1260.3"/>
<text text-anchor="middle" x="1150.25" y="-1286.3" font-family="monospace" font-size="10.00">pub(self) async fn</text>
<polyline fill="none" stroke="black" points="1012.75,-1279.3 1287.75,-1279.3 "/>
<text text-anchor="middle" x="1150.25" y="-1267.3" font-family="monospace" font-size="10.00">origin_ipfs::IPFSOrigin::fetch_from_gateway</text>
</g>
<!-- lightning_origin_ipfs::origin_ipfs::IPFSOrigin&#45;&gt;lightning_origin_ipfs::origin_ipfs::IPFSOrigin::fetch_from_gateway -->
<g id="edge41" class="edge">
<title>lightning_origin_ipfs::origin_ipfs::IPFSOrigin&#45;&gt;lightning_origin_ipfs::origin_ipfs::IPFSOrigin::fetch_from_gateway</title>
<path fill="none" stroke="#000000" d="M1332.93,-808.83C1280.5,-884.42 1165.82,-1159.3 1148.75,-1250.2"/>
<polygon fill="#000000" stroke="#000000" points="1145.29,-1249.68 1147.19,-1260.11 1152.2,-1250.77 1145.29,-1249.68"/>
<text text-anchor="middle" x="1228.34" y="-1032.51" font-family="monospace" font-size="10.00">owns</text>
</g>
<!-- lightning_origin_ipfs::origin_ipfs::IPFSOrigin::handle_redirect -->
<g id="node25" class="node">
<title>lightning_origin_ipfs::origin_ipfs::IPFSOrigin::handle_redirect</title>
<polygon fill="#db5367" stroke="black" points="1331.78,-1254.12 1331.78,-1292.12 1588.78,-1292.12 1588.78,-1254.12 1331.78,-1254.12"/>
<text text-anchor="middle" x="1460.28" y="-1280.12" font-family="monospace" font-size="10.00">pub(self) async fn</text>
<polyline fill="none" stroke="black" points="1331.78,-1273.12 1588.78,-1273.12 "/>
<text text-anchor="middle" x="1460.28" y="-1261.12" font-family="monospace" font-size="10.00">origin_ipfs::IPFSOrigin::handle_redirect</text>
</g>
<!-- lightning_origin_ipfs::origin_ipfs::IPFSOrigin&#45;&gt;lightning_origin_ipfs::origin_ipfs::IPFSOrigin::handle_redirect -->
<g id="edge42" class="edge">
<title>lightning_origin_ipfs::origin_ipfs::IPFSOrigin&#45;&gt;lightning_origin_ipfs::origin_ipfs::IPFSOrigin::handle_redirect</title>
<path fill="none" stroke="#000000" d="M1347.66,-808.93C1343.14,-883.84 1401.42,-1155.46 1439.51,-1244.63"/>
<polygon fill="#000000" stroke="#000000" points="1436.39,-1246.21 1443.71,-1253.87 1442.76,-1243.32 1436.39,-1246.21"/>
<text text-anchor="middle" x="1381.08" y="-1029.78" font-family="monospace" font-size="10.00">owns</text>
</g>
<!-- lightning_origin_ipfs::origin_ipfs::IPFSOrigin::new -->
<g id="node26" class="node">
<title>lightning_origin_ipfs::origin_ipfs::IPFSOrigin::new</title>
<polygon fill="#81c169" stroke="black" points="1663.76,-432.46 1663.76,-470.46 1848.76,-470.46 1848.76,-432.46 1663.76,-432.46"/>
<text text-anchor="middle" x="1756.26" y="-458.46" font-family="monospace" font-size="10.00">pub fn</text>
<polyline fill="none" stroke="black" points="1663.76,-451.46 1848.76,-451.46 "/>
<text text-anchor="middle" x="1756.26" y="-439.46" font-family="monospace" font-size="10.00">origin_ipfs::IPFSOrigin::new</text>
</g>
<!-- lightning_origin_ipfs::origin_ipfs::IPFSOrigin&#45;&gt;lightning_origin_ipfs::origin_ipfs::IPFSOrigin::new -->
<g id="edge43" class="edge">
<title>lightning_origin_ipfs::origin_ipfs::IPFSOrigin&#45;&gt;lightning_origin_ipfs::origin_ipfs::IPFSOrigin::new</title>
<path fill="none" stroke="#000000" d="M1402.95,-770.57C1495.62,-712.21 1690.69,-546.36 1743.69,-478.83"/>
<polygon fill="#000000" stroke="#000000" points="1746.55,-480.84 1749.69,-470.72 1740.93,-476.68 1746.55,-480.84"/>
<text text-anchor="middle" x="1560.82" y="-627.7" font-family="monospace" font-size="10.00">owns</text>
</g>
<!-- lightning_origin_ipfs::origin_ipfs::IPFSOrigin::stream_car_into_blockstore -->
<g id="node27" class="node">
<title>lightning_origin_ipfs::origin_ipfs::IPFSOrigin::stream_car_into_blockstore</title>
<polygon fill="#81c169" stroke="black" points="1448.35,-1114.03 1448.35,-1152.03 1771.35,-1152.03 1771.35,-1114.03 1448.35,-1114.03"/>
<text text-anchor="middle" x="1609.85" y="-1140.03" font-family="monospace" font-size="10.00">pub async fn</text>
<polyline fill="none" stroke="black" points="1448.35,-1133.03 1771.35,-1133.03 "/>
<text text-anchor="middle" x="1609.85" y="-1121.03" font-family="monospace" font-size="10.00">origin_ipfs::IPFSOrigin::stream_car_into_blockstore</text>
</g>
<!-- lightning_origin_ipfs::origin_ipfs::IPFSOrigin&#45;&gt;lightning_origin_ipfs::origin_ipfs::IPFSOrigin::stream_car_into_blockstore -->
<g id="edge44" class="edge">
<title>lightning_origin_ipfs::origin_ipfs::IPFSOrigin&#45;&gt;lightning_origin_ipfs::origin_ipfs::IPFSOrigin::stream_car_into_blockstore</title>
<path fill="none" stroke="#000000" d="M1355.03,-808.9C1375.34,-867.8 1500.04,-1039.11 1568.16,-1106.4"/>
<polygon fill="#000000" stroke="#000000" points="1566.14,-1109.31 1575.78,-1113.7 1570.98,-1104.25 1566.14,-1109.31"/>
<text text-anchor="middle" x="1449.09" y="-960.65" font-family="monospace" font-size="10.00">owns</text>
</g>
<!-- lightning_origin_ipfs::origin_ipfs::IPFSOrigin::fetch&#45;&gt;lightning_origin_ipfs::origin_ipfs::IPFSOrigin -->
<g id="edge45" class="edge">
<title>lightning_origin_ipfs::origin_ipfs::IPFSOrigin::fetch&#45;&gt;lightning_origin_ipfs::origin_ipfs::IPFSOrigin</title>
<path fill="none" stroke="#7f7f7f" stroke-dasharray="5,2" d="M1795.52,-774C1704.55,-762.88 1536.28,-761.14 1435.94,-769.74"/>
<polygon fill="#7f7f7f" stroke="#7f7f7f" points="1435.49,-766.27 1425.85,-770.67 1436.13,-773.24 1435.49,-766.27"/>
<text text-anchor="middle" x="1603.23" y="-774.87" font-family="monospace" font-size="10.00">uses</text>
</g>
<!-- lightning_origin_ipfs::origin_ipfs::IPFSOrigin::fetch_from_gateway&#45;&gt;lightning_origin_ipfs::config::Gateway -->
<g id="edge46" class="edge">
<title>lightning_origin_ipfs::origin_ipfs::IPFSOrigin::fetch_from_gateway&#45;&gt;lightning_origin_ipfs::config::Gateway</title>
<path fill="none" stroke="#7f7f7f" stroke-dasharray="5,2" d="M1120.93,-1260.27C1047.05,-1212.31 853.34,-1086.54 771.08,-1033.13"/>
<polygon fill="#7f7f7f" stroke="#7f7f7f" points="772.83,-1030.1 762.54,-1027.59 769.02,-1035.97 772.83,-1030.1"/>
<text text-anchor="middle" x="933.5" y="-1149.7" font-family="monospace" font-size="10.00">uses</text>
</g>
<!-- lightning_origin_ipfs::origin_ipfs::IPFSOrigin::fetch_from_gateway&#45;&gt;lightning_origin_ipfs::error::Error -->
<g id="edge47" class="edge">
<title>lightning_origin_ipfs::origin_ipfs::IPFSOrigin::fetch_from_gateway&#45;&gt;lightning_origin_ipfs::error::Error</title>
<path fill="none" stroke="#7f7f7f" stroke-dasharray="5,2" d="M1150.9,-1260.1C1152.63,-1209.04 1157.34,-1069.66 1159.4,-1008.76"/>
<polygon fill="#7f7f7f" stroke="#7f7f7f" points="1162.9,-1008.78 1159.74,-998.67 1155.9,-1008.55 1162.9,-1008.78"/>
<text text-anchor="middle" x="1142.65" y="-1137.43" font-family="monospace" font-size="10.00">uses</text>
</g>
<!-- lightning_origin_ipfs::origin_ipfs::IPFSOrigin::fetch_from_gateway&#45;&gt;lightning_origin_ipfs::origin_ipfs::IPFSOrigin -->
<g id="edge48" class="edge">
<title>lightning_origin_ipfs::origin_ipfs::IPFSOrigin::fetch_from_gateway&#45;&gt;lightning_origin_ipfs::origin_ipfs::IPFSOrigin</title>
<path fill="none" stroke="#7f7f7f" stroke-dasharray="5,2" d="M1171.79,-1260.18C1224.22,-1184.59 1338.9,-909.7 1355.97,-818.8"/>
<polygon fill="#7f7f7f" stroke="#7f7f7f" points="1359.43,-819.32 1357.53,-808.9 1352.52,-818.23 1359.43,-819.32"/>
<text text-anchor="middle" x="1276.38" y="-1042.49" font-family="monospace" font-size="10.00">uses</text>
</g>
<!-- lightning_origin_ipfs::origin_ipfs::IPFSOrigin::handle_redirect&#45;&gt;lightning_origin_ipfs::error::Error -->
<g id="edge49" class="edge">
<title>lightning_origin_ipfs::origin_ipfs::IPFSOrigin::handle_redirect&#45;&gt;lightning_origin_ipfs::error::Error</title>
<path fill="none" stroke="#7f7f7f" stroke-dasharray="5,2" d="M1440.61,-1253.86C1388.5,-1202.86 1246.84,-1064.24 1187.31,-1005.98"/>
<polygon fill="#7f7f7f" stroke="#7f7f7f" points="1189.73,-1003.45 1180.13,-998.96 1184.83,-1008.45 1189.73,-1003.45"/>
<text text-anchor="middle" x="1301.46" y="-1132.92" font-family="monospace" font-size="10.00">uses</text>
</g>
<!-- lightning_origin_ipfs::origin_ipfs::IPFSOrigin::handle_redirect&#45;&gt;lightning_origin_ipfs::origin_ipfs::IPFSOrigin -->
<g id="edge50" class="edge">
<title>lightning_origin_ipfs::origin_ipfs::IPFSOrigin::handle_redirect&#45;&gt;lightning_origin_ipfs::origin_ipfs::IPFSOrigin</title>
<path fill="none" stroke="#7f7f7f" stroke-dasharray="5,2" d="M1467.1,-1253.89C1471.61,-1178.97 1413.33,-907.36 1375.24,-818.19"/>
<polygon fill="#7f7f7f" stroke="#7f7f7f" points="1378.37,-816.61 1371.05,-808.95 1371.99,-819.5 1378.37,-816.61"/>
<text text-anchor="middle" x="1408.67" y="-1039.04" font-family="monospace" font-size="10.00">uses</text>
</g>
<!-- lightning_origin_ipfs::origin_ipfs::IPFSOrigin::new&#45;&gt;lightning_origin_ipfs::config::Config -->
<g id="edge51" class="edge">
<title>lightning_origin_ipfs::origin_ipfs::IPFSOrigin::new&#45;&gt;lightning_origin_ipfs::config::Config</title>
<path fill="none" stroke="#7f7f7f" stroke-dasharray="5,2" d="M1705.9,-432.39C1633.94,-405.13 1501.92,-355.13 1424.97,-325.99"/>
<polygon fill="#7f7f7f" stroke="#7f7f7f" points="1426,-322.64 1415.41,-322.37 1423.53,-329.18 1426,-322.64"/>
<text text-anchor="middle" x="1552.94" y="-382.19" font-family="monospace" font-size="10.00">uses</text>
</g>
<!-- lightning_origin_ipfs::origin_ipfs::IPFSOrigin::new&#45;&gt;lightning_origin_ipfs::origin_ipfs::IPFSOrigin -->
<g id="edge52" class="edge">
<title>lightning_origin_ipfs::origin_ipfs::IPFSOrigin::new&#45;&gt;lightning_origin_ipfs::origin_ipfs::IPFSOrigin</title>
<path fill="none" stroke="#7f7f7f" stroke-dasharray="5,2" d="M1707.78,-470.59C1615.1,-528.95 1420.04,-694.8 1367.04,-762.33"/>
<polygon fill="#7f7f7f" stroke="#7f7f7f" points="1364.17,-760.32 1361.04,-770.44 1369.8,-764.48 1364.17,-760.32"/>
<text text-anchor="middle" x="1524.91" y="-619.46" font-family="monospace" font-size="10.00">uses</text>
</g>
<!-- lightning_origin_ipfs::origin_ipfs::IPFSOrigin::stream_car_into_blockstore&#45;&gt;lightning_origin_ipfs::error::Error -->
<g id="edge53" class="edge">
<title>lightning_origin_ipfs::origin_ipfs::IPFSOrigin::stream_car_into_blockstore&#45;&gt;lightning_origin_ipfs::error::Error</title>
<path fill="none" stroke="#7f7f7f" stroke-dasharray="5,2" d="M1553.83,-1113.91C1466.82,-1084.22 1300.29,-1027.38 1214.47,-998.09"/>
<polygon fill="#7f7f7f" stroke="#7f7f7f" points="1215.51,-994.75 1204.92,-994.83 1213.25,-1001.37 1215.51,-994.75"/>
<text text-anchor="middle" x="1371.65" y="-1059" font-family="monospace" font-size="10.00">uses</text>
</g>
<!-- lightning_origin_ipfs::origin_ipfs::IPFSOrigin::stream_car_into_blockstore&#45;&gt;lightning_origin_ipfs::origin_ipfs::IPFSOrigin -->
<g id="edge54" class="edge">
<title>lightning_origin_ipfs::origin_ipfs::IPFSOrigin::stream_car_into_blockstore&#45;&gt;lightning_origin_ipfs::origin_ipfs::IPFSOrigin</title>
<path fill="none" stroke="#7f7f7f" stroke-dasharray="5,2" d="M1609.29,-1113.83C1588.98,-1054.94 1464.27,-883.63 1396.15,-816.33"/>
<polygon fill="#7f7f7f" stroke="#7f7f7f" points="1398.18,-813.43 1388.54,-809.03 1393.33,-818.48 1398.18,-813.43"/>
<text text-anchor="middle" x="1490.22" y="-968.08" font-family="monospace" font-size="10.00">uses</text>
</g>
<!-- lightning_origin_ipfs::origin_ipfs::verify_data&#45;&gt;lightning_origin_ipfs::error::Error -->
<g id="edge55" class="edge">
<title>lightning_origin_ipfs::origin_ipfs::verify_data&#45;&gt;lightning_origin_ipfs::error::Error</title>
<path fill="none" stroke="#7f7f7f" stroke-dasharray="5,2" d="M913.74,-882.58C966.64,-903.39 1051.18,-936.66 1106.25,-958.33"/>
<polygon fill="#7f7f7f" stroke="#7f7f7f" points="1105.25,-961.69 1115.84,-962.1 1107.81,-955.18 1105.25,-961.69"/>
<text text-anchor="middle" x="997.49" y="-923.45" font-family="monospace" font-size="10.00">uses</text>
</g>
</g>
</svg>
