<?xml version="1.0" encoding="UTF-8" standalone="no"?>
<!DOCTYPE svg PUBLIC "-//W3C//DTD SVG 1.1//EN"
 "http://www.w3.org/Graphics/SVG/1.1/DTD/svg11.dtd">
<!-- Generated by graphviz version 4.0.0 (0)
 -->
<!-- Pages: 1 -->
<svg width="528pt" height="336pt"
 viewBox="0.00 0.00 527.60 336.43" xmlns="http://www.w3.org/2000/svg" xmlns:xlink="http://www.w3.org/1999/xlink">
<g id="graph0" class="graph" transform="scale(1 1) rotate(0) translate(28.8 307.63)">
<polygon fill="white" stroke="transparent" points="-28.8,28.8 -28.8,-307.63 498.8,-307.63 498.8,28.8 -28.8,28.8"/>
<text text-anchor="middle" x="235" y="-246.03" font-family="Helvetica,sans-Serif" font-size="36.00">lightning_origin_demuxer</text>
<!-- fdi -->
<g id="node1" class="node">
<title>fdi</title>
<polygon fill="#5397c8" stroke="black" points="73.47,-0.5 73.47,-38.5 174.47,-38.5 174.47,-0.5 73.47,-0.5"/>
<text text-anchor="middle" x="123.97" y="-26.5" font-family="monospace" font-size="10.00">external crate</text>
<polyline fill="none" stroke="black" points="73.47,-19.5 174.47,-19.5 "/>
<text text-anchor="middle" x="123.97" y="-7.5" font-family="monospace" font-size="10.00">fdi</text>
</g>
<!-- lightning_origin_demuxer -->
<g id="node2" class="node">
<title>lightning_origin_demuxer</title>
<polygon fill="#5397c8" stroke="black" points="125.99,-103.1 125.99,-141.1 286.99,-141.1 286.99,-103.1 125.99,-103.1"/>
<text text-anchor="middle" x="206.49" y="-129.1" font-family="monospace" font-size="10.00">crate</text>
<polyline fill="none" stroke="black" points="125.99,-122.1 286.99,-122.1 "/>
<text text-anchor="middle" x="206.49" y="-110.1" font-family="monospace" font-size="10.00">lightning_origin_demuxer</text>
</g>
<!-- lightning_origin_demuxer&#45;&gt;fdi -->
<g id="edge1" class="edge">
<title>lightning_origin_demuxer&#45;&gt;fdi</title>
<path fill="none" stroke="#7f7f7f" stroke-dasharray="5,2" d="M190.97,-102.8C178.29,-87.04 160.21,-64.56 146.03,-46.93"/>
<polygon fill="#7f7f7f" stroke="#7f7f7f" points="148.42,-44.31 139.42,-38.71 142.96,-48.7 148.42,-44.31"/>
<text text-anchor="middle" x="156" y="-77.87" font-family="monospace" font-size="10.00">uses</text>
</g>
<!-- lightning_origin_demuxer::config -->
<g id="node3" class="node">
<title>lightning_origin_demuxer::config</title>
<polygon fill="#f8c04c" stroke="black" points="188.03,-37.04 188.03,-75.04 397.03,-75.04 397.03,-37.04 188.03,-37.04"/>
<text text-anchor="middle" x="292.53" y="-63.04" font-family="monospace" font-size="10.00">pub(crate) mod</text>
<polyline fill="none" stroke="black" points="188.03,-56.04 397.03,-56.04 "/>
<text text-anchor="middle" x="292.53" y="-44.04" font-family="monospace" font-size="10.00">lightning_origin_demuxer::config</text>
</g>
<!-- lightning_origin_demuxer&#45;&gt;lightning_origin_demuxer::config -->
<g id="edge2" class="edge">
<title>lightning_origin_demuxer&#45;&gt;lightning_origin_demuxer::config</title>
<path fill="none" stroke="#000000" d="M275.1,-102.72C281.34,-96.84 286.69,-90.47 290.42,-84.17"/>
<polygon fill="#000000" stroke="#000000" points="293.62,-85.6 294.65,-75.05 287.27,-82.65 293.62,-85.6"/>
<text text-anchor="middle" x="270.26" y="-85.44" font-family="monospace" font-size="10.00">owns</text>
</g>
<!-- lightning_origin_demuxer&#45;&gt;lightning_origin_demuxer::config -->
<g id="edge3" class="edge">
<title>lightning_origin_demuxer&#45;&gt;lightning_origin_demuxer::config</title>
<path fill="none" stroke="#7f7f7f" stroke-dasharray="5,2" d="M204.41,-102.96C206.62,-96.23 211.22,-89.1 217.23,-82.31"/>
<polygon fill="#7f7f7f" stroke="#7f7f7f" points="219.78,-84.71 224.26,-75.11 214.77,-79.82 219.78,-84.71"/>
<text text-anchor="middle" x="198.32" y="-84.63" font-family="monospace" font-size="10.00">uses</text>
</g>
<!-- lightning_origin_demuxer::demuxer -->
<g id="node4" class="node">
<title>lightning_origin_demuxer::demuxer</title>
<polygon fill="#f8c04c" stroke="black" points="169.89,-181.89 169.89,-219.89 384.89,-219.89 384.89,-181.89 169.89,-181.89"/>
<text text-anchor="middle" x="277.39" y="-207.89" font-family="monospace" font-size="10.00">pub(crate) mod</text>
<polyline fill="none" stroke="black" points="169.89,-200.89 384.89,-200.89 "/>
<text text-anchor="middle" x="277.39" y="-188.89" font-family="monospace" font-size="10.00">lightning_origin_demuxer::demuxer</text>
</g>
<!-- lightning_origin_demuxer&#45;&gt;lightning_origin_demuxer::demuxer -->
<g id="edge4" class="edge">
<title>lightning_origin_demuxer&#45;&gt;lightning_origin_demuxer::demuxer</title>
<path fill="none" stroke="#000000" d="M200.93,-141.3C202.48,-151.57 208.79,-163.47 217.34,-174.21"/>
<polygon fill="#000000" stroke="#000000" points="214.72,-176.54 223.92,-181.79 220,-171.94 214.72,-176.54"/>
<text text-anchor="middle" x="196.63" y="-160.76" font-family="monospace" font-size="10.00">owns</text>
</g>
<!-- lightning_origin_demuxer&#45;&gt;lightning_origin_demuxer::demuxer -->
<g id="edge5" class="edge">
<title>lightning_origin_demuxer&#45;&gt;lightning_origin_demuxer::demuxer</title>
<path fill="none" stroke="#7f7f7f" stroke-dasharray="5,2" d="M259.9,-141.16C268.87,-150.61 276.38,-161.7 280.33,-172.09"/>
<polygon fill="#7f7f7f" stroke="#7f7f7f" points="276.96,-173.02 282.96,-181.76 283.71,-171.19 276.96,-173.02"/>
<text text-anchor="middle" x="257.62" y="-159.62" font-family="monospace" font-size="10.00">uses</text>
</g>
<!-- lightning_schema -->
<g id="node5" class="node">
<title>lightning_schema</title>
<polygon fill="#5397c8" stroke="black" points="302.13,-122.3 302.13,-160.3 415.13,-160.3 415.13,-122.3 302.13,-122.3"/>
<text text-anchor="middle" x="358.63" y="-148.3" font-family="monospace" font-size="10.00">external crate</text>
<polyline fill="none" stroke="black" points="302.13,-141.3 415.13,-141.3 "/>
<text text-anchor="middle" x="358.63" y="-129.3" font-family="monospace" font-size="10.00">lightning_schema</text>
</g>
<!-- lightning_origin_demuxer&#45;&gt;lightning_schema -->
<g id="edge6" class="edge">
<title>lightning_origin_demuxer&#45;&gt;lightning_schema</title>
<path fill="none" stroke="#7f7f7f" stroke-dasharray="5,2" d="M287.01,-132.26C288.57,-132.46 290.13,-132.66 291.68,-132.85"/>
<polygon fill="#7f7f7f" stroke="#7f7f7f" points="291.46,-136.35 301.82,-134.13 292.34,-129.41 291.46,-136.35"/>
<text text-anchor="middle" x="289.35" y="-124.56" font-family="monospace" font-size="10.00">uses</text>
</g>
<!-- lightning_types -->
<g id="node6" class="node">
<title>lightning_types</title>
<polygon fill="#5397c8" stroke="black" points="54.87,-192.33 54.87,-230.33 161.87,-230.33 161.87,-192.33 54.87,-192.33"/>
<text text-anchor="middle" x="108.37" y="-218.33" font-family="monospace" font-size="10.00">external crate</text>
<polyline fill="none" stroke="black" points="54.87,-211.33 161.87,-211.33 "/>
<text text-anchor="middle" x="108.37" y="-199.33" font-family="monospace" font-size="10.00">lightning_types</text>
</g>
<!-- lightning_origin_demuxer&#45;&gt;lightning_types -->
<g id="edge7" class="edge">
<title>lightning_origin_demuxer&#45;&gt;lightning_types</title>
<path fill="none" stroke="#7f7f7f" stroke-dasharray="5,2" d="M185.2,-141.46C171.09,-154.3 152.41,-171.29 137,-185.3"/>
<polygon fill="#7f7f7f" stroke="#7f7f7f" points="134.33,-183 129.28,-192.32 139.03,-188.18 134.33,-183"/>
<text text-anchor="middle" x="148.6" y="-166.38" font-family="monospace" font-size="10.00">uses</text>
</g>
<!-- lightning_origin_demuxer::demuxer&#45;&gt;lightning_origin_demuxer::config -->
<g id="edge8" class="edge">
<title>lightning_origin_demuxer::demuxer&#45;&gt;lightning_origin_demuxer::config</title>
<path fill="none" stroke="#7f7f7f" stroke-dasharray="5,2" d="M279.4,-181.66C281.97,-157.09 286.44,-114.33 289.44,-85.61"/>
<polygon fill="#7f7f7f" stroke="#7f7f7f" points="292.95,-85.67 290.51,-75.36 285.99,-84.94 292.95,-85.67"/>
<text text-anchor="middle" x="296.92" y="-136.64" font-family="monospace" font-size="10.00">uses</text>
</g>
</g>
</svg>
