<?xml version="1.0" encoding="UTF-8" standalone="no"?>
<!DOCTYPE svg PUBLIC "-//W3C//DTD SVG 1.1//EN"
 "http://www.w3.org/Graphics/SVG/1.1/DTD/svg11.dtd">
<!-- Generated by graphviz version 4.0.0 (0)
 -->
<!-- Pages: 1 -->
<svg width="377pt" height="164pt"
 viewBox="0.00 0.00 376.60 164.02" xmlns="http://www.w3.org/2000/svg" xmlns:xlink="http://www.w3.org/1999/xlink">
<g id="graph0" class="graph" transform="scale(1 1) rotate(0) translate(28.8 135.22)">
<polygon fill="white" stroke="transparent" points="-28.8,28.8 -28.8,-135.22 347.8,-135.22 347.8,28.8 -28.8,28.8"/>
<text text-anchor="middle" x="159.5" y="-73.62" font-family="Helvetica,sans-Serif" font-size="36.00">lightning_notifier</text>
<!-- lightning_notifier -->
<g id="node1" class="node">
<title>lightning_notifier</title>
<polygon fill="#5397c8" stroke="black" points="33.49,-19.92 33.49,-57.92 158.49,-57.92 158.49,-19.92 33.49,-19.92"/>
<text text-anchor="middle" x="95.99" y="-45.92" font-family="monospace" font-size="10.00">crate</text>
<polyline fill="none" stroke="black" points="33.49,-38.92 158.49,-38.92 "/>
<text text-anchor="middle" x="95.99" y="-26.92" font-family="monospace" font-size="10.00">lightning_notifier</text>
</g>
<!-- tokio::sync::mpsc -->
<g id="node2" class="node">
<title>tokio::sync::mpsc</title>
<polygon fill="#81c169" stroke="black" points="166.51,-0.5 166.51,-38.5 285.51,-38.5 285.51,-0.5 166.51,-0.5"/>
<text text-anchor="middle" x="226.01" y="-26.5" font-family="monospace" font-size="10.00">external mod</text>
<polyline fill="none" stroke="black" points="166.51,-19.5 285.51,-19.5 "/>
<text text-anchor="middle" x="226.01" y="-7.5" font-family="monospace" font-size="10.00">tokio::sync::mpsc</text>
</g>
<!-- lightning_notifier&#45;&gt;tokio::sync::mpsc -->
<g id="edge1" class="edge">
<title>lightning_notifier&#45;&gt;tokio::sync::mpsc</title>
<path fill="none" stroke="#7f7f7f" stroke-dasharray="5,2" d="M158.72,-29.55C158.88,-29.53 159.04,-29.51 159.2,-29.48"/>
<polygon fill="#7f7f7f" stroke="#7f7f7f" points="157.13,-33.33 166.51,-28.39 156.1,-26.41 157.13,-33.33"/>
<text text-anchor="middle" x="158.96" y="-21.52" font-family="monospace" font-size="10.00">uses</text>
</g>
</g>
</svg>
