<?xml version="1.0" encoding="UTF-8" standalone="no"?>
<!DOCTYPE svg PUBLIC "-//W3C//DTD SVG 1.1//EN"
 "http://www.w3.org/Graphics/SVG/1.1/DTD/svg11.dtd">
<!-- Generated by graphviz version 4.0.0 (0)
 -->
<!-- Pages: 1 -->
<svg width="393pt" height="145pt"
 viewBox="0.00 0.00 392.62 144.60" xmlns="http://www.w3.org/2000/svg" xmlns:xlink="http://www.w3.org/1999/xlink">
<g id="graph0" class="graph" transform="scale(1 1) rotate(0) translate(28.8 115.8)">
<polygon fill="white" stroke="transparent" points="-28.8,28.8 -28.8,-115.8 363.82,-115.8 363.82,28.8 -28.8,28.8"/>
<text text-anchor="middle" x="167.51" y="-54.2" font-family="Helvetica,sans-Serif" font-size="36.00">affair</text>
<!-- affair -->
<g id="node1" class="node">
<title>affair</title>
<polygon fill="#5397c8" stroke="black" points="145.01,-0.5 145.01,-38.5 199.01,-38.5 199.01,-0.5 145.01,-0.5"/>
<text text-anchor="middle" x="172.01" y="-26.5" font-family="monospace" font-size="10.00">crate</text>
<polyline fill="none" stroke="black" points="145.01,-19.5 199.01,-19.5 "/>
<text text-anchor="middle" x="172.01" y="-7.5" font-family="monospace" font-size="10.00">affair</text>
</g>
<!-- tokio::sync::mpsc -->
<g id="node2" class="node">
<title>tokio::sync::mpsc</title>
<polygon fill="#81c169" stroke="black" points="216.02,-0.5 216.02,-38.5 335.02,-38.5 335.02,-0.5 216.02,-0.5"/>
<text text-anchor="middle" x="275.52" y="-26.5" font-family="monospace" font-size="10.00">external mod</text>
<polyline fill="none" stroke="black" points="216.02,-19.5 335.02,-19.5 "/>
<text text-anchor="middle" x="275.52" y="-7.5" font-family="monospace" font-size="10.00">tokio::sync::mpsc</text>
</g>
<!-- affair&#45;&gt;tokio::sync::mpsc -->
<g id="edge1" class="edge">
<title>affair&#45;&gt;tokio::sync::mpsc</title>
<path fill="none" stroke="#7f7f7f" stroke-dasharray="5,2" d="M199.21,-19.5C201.22,-19.5 203.3,-19.5 205.42,-19.5"/>
<polygon fill="#7f7f7f" stroke="#7f7f7f" points="205.64,-23 215.64,-19.5 205.64,-16 205.64,-23"/>
<text text-anchor="middle" x="208.56" y="-11.5" font-family="monospace" font-size="10.00">uses</text>
</g>
<!-- tokio::sync::oneshot -->
<g id="node3" class="node">
<title>tokio::sync::oneshot</title>
<polygon fill="#81c169" stroke="black" points="0,-0.5 0,-38.5 137,-38.5 137,-0.5 0,-0.5"/>
<text text-anchor="middle" x="68.5" y="-26.5" font-family="monospace" font-size="10.00">external mod</text>
<polyline fill="none" stroke="black" points="0,-19.5 137,-19.5 "/>
<text text-anchor="middle" x="68.5" y="-7.5" font-family="monospace" font-size="10.00">tokio::sync::oneshot</text>
</g>
<!-- affair&#45;&gt;tokio::sync::oneshot -->
<g id="edge2" class="edge">
<title>affair&#45;&gt;tokio::sync::oneshot</title>
<path fill="none" stroke="#7f7f7f" stroke-dasharray="5,2" d="M144.81,-19.5C144.66,-19.5 144.51,-19.5 144.36,-19.5"/>
<polygon fill="#7f7f7f" stroke="#7f7f7f" points="147.38,-16 137.38,-19.5 147.38,-23 147.38,-16"/>
<text text-anchor="middle" x="138.34" y="-11.5" font-family="monospace" font-size="10.00">uses</text>
</g>
</g>
</svg>
