<?xml version="1.0" encoding="UTF-8" standalone="no"?>
<!DOCTYPE svg PUBLIC "-//W3C//DTD SVG 1.1//EN"
 "http://www.w3.org/Graphics/SVG/1.1/DTD/svg11.dtd">
<!-- Generated by graphviz version 4.0.0 (0)
 -->
<!-- Pages: 1 -->
<svg width="241pt" height="247pt"
 viewBox="0.00 0.00 241.15 247.44" xmlns="http://www.w3.org/2000/svg" xmlns:xlink="http://www.w3.org/1999/xlink">
<g id="graph0" class="graph" transform="scale(1 1) rotate(0) translate(28.8 218.64)">
<polygon fill="white" stroke="transparent" points="-28.8,28.8 -28.8,-218.64 212.35,-218.64 212.35,28.8 -28.8,28.8"/>
<text text-anchor="middle" x="91.77" y="-157.04" font-family="Helvetica,sans-Serif" font-size="36.00">affair</text>
<!-- affair -->
<g id="node1" class="node">
<title>affair</title>
<polygon fill="#5397c8" stroke="black" points="61.11,-56.34 61.11,-94.34 115.11,-94.34 115.11,-56.34 61.11,-56.34"/>
<text text-anchor="middle" x="88.11" y="-82.34" font-family="monospace" font-size="10.00">crate</text>
<polyline fill="none" stroke="black" points="61.11,-75.34 115.11,-75.34 "/>
<text text-anchor="middle" x="88.11" y="-63.34" font-family="monospace" font-size="10.00">affair</text>
</g>
<!-- tokio::sync::mpsc -->
<g id="node2" class="node">
<title>tokio::sync::mpsc</title>
<polygon fill="#81c169" stroke="black" points="64.55,-103.34 64.55,-141.34 183.55,-141.34 183.55,-103.34 64.55,-103.34"/>
<text text-anchor="middle" x="124.05" y="-129.34" font-family="monospace" font-size="10.00">external mod</text>
<polyline fill="none" stroke="black" points="64.55,-122.34 183.55,-122.34 "/>
<text text-anchor="middle" x="124.05" y="-110.34" font-family="monospace" font-size="10.00">tokio::sync::mpsc</text>
</g>
<!-- affair&#45;&gt;tokio::sync::mpsc -->
<g id="edge1" class="edge">
<title>affair&#45;&gt;tokio::sync::mpsc</title>
<path fill="none" stroke="#7f7f7f" stroke-dasharray="5,2" d="M102.73,-94.45C102.86,-94.63 103,-94.81 103.14,-94.99"/>
<polygon fill="#7f7f7f" stroke="#7f7f7f" points="100.47,-97.27 109.33,-103.09 106.03,-93.02 100.47,-97.27"/>
<text text-anchor="middle" x="90.43" y="-97.72" font-family="monospace" font-size="10.00">uses</text>
</g>
<!-- tokio::sync::oneshot -->
<g id="node3" class="node">
<title>tokio::sync::oneshot</title>
<polygon fill="#81c169" stroke="black" points="0,-0.5 0,-38.5 137,-38.5 137,-0.5 0,-0.5"/>
<text text-anchor="middle" x="68.5" y="-26.5" font-family="monospace" font-size="10.00">external mod</text>
<polyline fill="none" stroke="black" points="0,-19.5 137,-19.5 "/>
<text text-anchor="middle" x="68.5" y="-7.5" font-family="monospace" font-size="10.00">tokio::sync::oneshot</text>
</g>
<!-- affair&#45;&gt;tokio::sync::oneshot -->
<g id="edge2" class="edge">
<title>affair&#45;&gt;tokio::sync::oneshot</title>
<path fill="none" stroke="#7f7f7f" stroke-dasharray="5,2" d="M81.36,-56.12C80.46,-53.55 79.52,-50.86 78.57,-48.17"/>
<polygon fill="#7f7f7f" stroke="#7f7f7f" points="81.81,-46.84 75.2,-38.56 75.21,-49.16 81.81,-46.84"/>
<text text-anchor="middle" x="67.47" y="-44.15" font-family="monospace" font-size="10.00">uses</text>
</g>
</g>
</svg>
