<?xml version="1.0" encoding="UTF-8" standalone="no"?>
<!DOCTYPE svg PUBLIC "-//W3C//DTD SVG 1.1//EN"
 "http://www.w3.org/Graphics/SVG/1.1/DTD/svg11.dtd">
<!-- Generated by graphviz version 4.0.0 (0)
 -->
<!-- Pages: 1 -->
<svg width="338pt" height="247pt"
 viewBox="0.00 0.00 337.60 247.49" xmlns="http://www.w3.org/2000/svg" xmlns:xlink="http://www.w3.org/1999/xlink">
<g id="graph0" class="graph" transform="scale(1 1) rotate(0) translate(28.8 218.69)">
<polygon fill="white" stroke="transparent" points="-28.8,28.8 -28.8,-218.69 308.8,-218.69 308.8,28.8 -28.8,28.8"/>
<text text-anchor="middle" x="140" y="-157.09" font-family="Helvetica,sans-Serif" font-size="36.00">lightning_node</text>
<!-- lightning_node -->
<g id="node1" class="node">
<title>lightning_node</title>
<polygon fill="#5397c8" stroke="black" points="59.45,-103.39 59.45,-141.39 160.45,-141.39 160.45,-103.39 59.45,-103.39"/>
<text text-anchor="middle" x="109.95" y="-129.39" font-family="monospace" font-size="10.00">crate</text>
<polyline fill="none" stroke="black" points="59.45,-122.39 160.45,-122.39 "/>
<text text-anchor="middle" x="109.95" y="-110.39" font-family="monospace" font-size="10.00">lightning_node</text>
</g>
<!-- lightning_node::config -->
<g id="node2" class="node">
<title>lightning_node::config</title>
<polygon fill="#81c169" stroke="black" points="71.55,-56.39 71.55,-94.39 220.55,-94.39 220.55,-56.39 71.55,-56.39"/>
<text text-anchor="middle" x="146.05" y="-82.39" font-family="monospace" font-size="10.00">pub mod</text>
<polyline fill="none" stroke="black" points="71.55,-75.39 220.55,-75.39 "/>
<text text-anchor="middle" x="146.05" y="-63.39" font-family="monospace" font-size="10.00">lightning_node::config</text>
</g>
<!-- lightning_node&#45;&gt;lightning_node::config -->
<g id="edge1" class="edge">
<title>lightning_node&#45;&gt;lightning_node::config</title>
<path fill="none" stroke="#000000" d="M155.51,-103.07C155.53,-102.98 155.55,-102.9 155.57,-102.82"/>
<polygon fill="#000000" stroke="#000000" points="158.84,-105.14 156.46,-94.81 151.88,-104.37 158.84,-105.14"/>
<text text-anchor="middle" x="168.04" y="-105.94" font-family="monospace" font-size="10.00">owns</text>
</g>
<!-- lightning_node&#45;&gt;lightning_node::config -->
<g id="edge2" class="edge">
<title>lightning_node&#45;&gt;lightning_node::config</title>
<path fill="none" stroke="#7f7f7f" stroke-dasharray="5,2" d="M99.56,-103.38C99.55,-103.29 99.55,-103.2 99.54,-103.11"/>
<polygon fill="#7f7f7f" stroke="#7f7f7f" points="102.84,-105.11 100.47,-94.79 95.89,-104.34 102.84,-105.11"/>
<text text-anchor="middle" x="87.05" y="-95.25" font-family="monospace" font-size="10.00">uses</text>
</g>
<!-- std::fs -->
<g id="node3" class="node">
<title>std::fs</title>
<polygon fill="#81c169" stroke="black" points="121.31,-0.5 121.31,-38.5 210.31,-38.5 210.31,-0.5 121.31,-0.5"/>
<text text-anchor="middle" x="165.81" y="-26.5" font-family="monospace" font-size="10.00">external mod</text>
<polyline fill="none" stroke="black" points="121.31,-19.5 210.31,-19.5 "/>
<text text-anchor="middle" x="165.81" y="-7.5" font-family="monospace" font-size="10.00">std::fs</text>
</g>
<!-- lightning_node::config&#45;&gt;std::fs -->
<g id="edge3" class="edge">
<title>lightning_node::config&#45;&gt;std::fs</title>
<path fill="none" stroke="#7f7f7f" stroke-dasharray="5,2" d="M152.85,-56.15C153.76,-53.58 154.71,-50.89 155.66,-48.2"/>
<polygon fill="#7f7f7f" stroke="#7f7f7f" points="159.03,-49.17 159.07,-38.58 152.43,-46.84 159.03,-49.17"/>
<text text-anchor="middle" x="141.76" y="-44.18" font-family="monospace" font-size="10.00">uses</text>
</g>
</g>
</svg>
