<?xml version="1.0" encoding="UTF-8" standalone="no"?>
<!DOCTYPE svg PUBLIC "-//W3C//DTD SVG 1.1//EN"
 "http://www.w3.org/Graphics/SVG/1.1/DTD/svg11.dtd">
<!-- Generated by graphviz version 4.0.0 (0)
 -->
<!-- Pages: 1 -->
<svg width="1793pt" height="4050pt"
 viewBox="0.00 0.00 1792.73 4050.00" xmlns="http://www.w3.org/2000/svg" xmlns:xlink="http://www.w3.org/1999/xlink">
<g id="graph0" class="graph" transform="scale(0.850197 0.850197) rotate(0) translate(28.8 4734.8)">
<polygon fill="white" stroke="transparent" points="-28.8,28.8 -28.8,-4734.8 2079.8,-4734.8 2079.8,28.8 -28.8,28.8"/>
<text text-anchor="middle" x="1025.5" y="-4673.2" font-family="Helvetica,sans-Serif" font-size="36.00">interfaces_proc</text>
<!-- interfaces_proc -->
<g id="node1" class="node">
<title>interfaces_proc</title>
<polygon fill="#5397c8" stroke="black" points="0,-3611.5 0,-3649.5 107,-3649.5 107,-3611.5 0,-3611.5"/>
<text text-anchor="middle" x="53.5" y="-3637.5" font-family="monospace" font-size="10.00">crate</text>
<polyline fill="none" stroke="black" points="0,-3630.5 107,-3630.5 "/>
<text text-anchor="middle" x="53.5" y="-3618.5" font-family="monospace" font-size="10.00">interfaces_proc</text>
</g>
<!-- interfaces_proc::__gen_missing_assignments -->
<g id="node2" class="node">
<title>interfaces_proc::__gen_missing_assignments</title>
<polygon fill="#81c169" stroke="black" points="915,-4619.5 915,-4657.5 1082,-4657.5 1082,-4619.5 915,-4619.5"/>
<text text-anchor="middle" x="998.5" y="-4645.5" font-family="monospace" font-size="10.00">pub fn</text>
<polyline fill="none" stroke="black" points="915,-4638.5 1082,-4638.5 "/>
<text text-anchor="middle" x="998.5" y="-4626.5" font-family="monospace" font-size="10.00">__gen_missing_assignments</text>
</g>
<!-- interfaces_proc&#45;&gt;interfaces_proc::__gen_missing_assignments -->
<g id="edge1" class="edge">
<title>interfaces_proc&#45;&gt;interfaces_proc::__gen_missing_assignments</title>
<path fill="none" stroke="#000000" d="M61.56,-3649.74C119.97,-3789.09 476,-4638.5 476,-4638.5 476,-4638.5 754.3,-4638.5 904.68,-4638.5"/>
<polygon fill="#000000" stroke="#000000" points="904.84,-4642 914.84,-4638.5 904.84,-4635 904.84,-4642"/>
<text text-anchor="middle" x="488.5" y="-4641.5" font-family="monospace" font-size="10.00">owns</text>
</g>
<!-- interfaces_proc::blank -->
<g id="node3" class="node">
<title>interfaces_proc::blank</title>
<polygon fill="#81c169" stroke="black" points="971.5,-4464.5 971.5,-4502.5 1025.5,-4502.5 1025.5,-4464.5 971.5,-4464.5"/>
<text text-anchor="middle" x="998.5" y="-4490.5" font-family="monospace" font-size="10.00">pub fn</text>
<polyline fill="none" stroke="black" points="971.5,-4483.5 1025.5,-4483.5 "/>
<text text-anchor="middle" x="998.5" y="-4471.5" font-family="monospace" font-size="10.00">blank</text>
</g>
<!-- interfaces_proc&#45;&gt;interfaces_proc::blank -->
<g id="edge2" class="edge">
<title>interfaces_proc&#45;&gt;interfaces_proc::blank</title>
<path fill="none" stroke="#000000" d="M62.92,-3649.51C125.26,-3775.37 476,-4483.5 476,-4483.5 476,-4483.5 841.26,-4483.5 960.99,-4483.5"/>
<polygon fill="#000000" stroke="#000000" points="961.14,-4487 971.14,-4483.5 961.14,-4480 961.14,-4487"/>
<text text-anchor="middle" x="488.5" y="-4486.5" font-family="monospace" font-size="10.00">owns</text>
</g>
<!-- interfaces_proc::blank::apply -->
<g id="node4" class="node">
<title>interfaces_proc::blank::apply</title>
<polygon fill="#db5367" stroke="black" points="954,-4309.5 954,-4347.5 1043,-4347.5 1043,-4309.5 954,-4309.5"/>
<text text-anchor="middle" x="998.5" y="-4335.5" font-family="monospace" font-size="10.00">pub(self) fn</text>
<polyline fill="none" stroke="black" points="954,-4328.5 1043,-4328.5 "/>
<text text-anchor="middle" x="998.5" y="-4316.5" font-family="monospace" font-size="10.00">blank::apply</text>
</g>
<!-- interfaces_proc&#45;&gt;interfaces_proc::blank::apply -->
<g id="edge3" class="edge">
<title>interfaces_proc&#45;&gt;interfaces_proc::blank::apply</title>
<path fill="none" stroke="#000000" d="M65.02,-3649.53C132.73,-3761.4 476,-4328.5 476,-4328.5 476,-4328.5 809.97,-4328.5 943.9,-4328.5"/>
<polygon fill="#000000" stroke="#000000" points="943.95,-4332 953.95,-4328.5 943.95,-4325 943.95,-4332"/>
<text text-anchor="middle" x="488.5" y="-4331.5" font-family="monospace" font-size="10.00">owns</text>
</g>
<!-- interfaces_proc::blank::extract_attribute_expr -->
<g id="node5" class="node">
<title>interfaces_proc::blank::extract_attribute_expr</title>
<polygon fill="#db5367" stroke="black" points="903,-4154.5 903,-4192.5 1094,-4192.5 1094,-4154.5 903,-4154.5"/>
<text text-anchor="middle" x="998.5" y="-4180.5" font-family="monospace" font-size="10.00">pub(self) fn</text>
<polyline fill="none" stroke="black" points="903,-4173.5 1094,-4173.5 "/>
<text text-anchor="middle" x="998.5" y="-4161.5" font-family="monospace" font-size="10.00">blank::extract_attribute_expr</text>
</g>
<!-- interfaces_proc&#45;&gt;interfaces_proc::blank::extract_attribute_expr -->
<g id="edge4" class="edge">
<title>interfaces_proc&#45;&gt;interfaces_proc::blank::extract_attribute_expr</title>
<path fill="none" stroke="#000000" d="M68.29,-3649.51C143.07,-3745.61 476,-4173.5 476,-4173.5 476,-4173.5 739.93,-4173.5 892.62,-4173.5"/>
<polygon fill="#000000" stroke="#000000" points="892.97,-4177 902.97,-4173.5 892.97,-4170 892.97,-4177"/>
<text text-anchor="middle" x="488.5" y="-4176.5" font-family="monospace" font-size="10.00">owns</text>
</g>
<!-- interfaces_proc::blank::extract_attribute_marker -->
<g id="node6" class="node">
<title>interfaces_proc::blank::extract_attribute_marker</title>
<polygon fill="#db5367" stroke="black" points="897,-3999.5 897,-4037.5 1100,-4037.5 1100,-3999.5 897,-3999.5"/>
<text text-anchor="middle" x="998.5" y="-4025.5" font-family="monospace" font-size="10.00">pub(self) fn</text>
<polyline fill="none" stroke="black" points="897,-4018.5 1100,-4018.5 "/>
<text text-anchor="middle" x="998.5" y="-4006.5" font-family="monospace" font-size="10.00">blank::extract_attribute_marker</text>
</g>
<!-- interfaces_proc&#45;&gt;interfaces_proc::blank::extract_attribute_marker -->
<g id="edge5" class="edge">
<title>interfaces_proc&#45;&gt;interfaces_proc::blank::extract_attribute_marker</title>
<path fill="none" stroke="#000000" d="M74.45,-3649.74C159.7,-3728.03 476,-4018.5 476,-4018.5 476,-4018.5 732.88,-4018.5 886.41,-4018.5"/>
<polygon fill="#000000" stroke="#000000" points="886.83,-4022 896.83,-4018.5 886.83,-4015 886.83,-4022"/>
<text text-anchor="middle" x="488.5" y="-4021.5" font-family="monospace" font-size="10.00">owns</text>
</g>
<!-- interfaces_proc::blank::extract_attribute_type -->
<g id="node7" class="node">
<title>interfaces_proc::blank::extract_attribute_type</title>
<polygon fill="#db5367" stroke="black" points="903,-3844.5 903,-3882.5 1094,-3882.5 1094,-3844.5 903,-3844.5"/>
<text text-anchor="middle" x="998.5" y="-3870.5" font-family="monospace" font-size="10.00">pub(self) fn</text>
<polyline fill="none" stroke="black" points="903,-3863.5 1094,-3863.5 "/>
<text text-anchor="middle" x="998.5" y="-3851.5" font-family="monospace" font-size="10.00">blank::extract_attribute_type</text>
</g>
<!-- interfaces_proc&#45;&gt;interfaces_proc::blank::extract_attribute_type -->
<g id="edge6" class="edge">
<title>interfaces_proc&#45;&gt;interfaces_proc::blank::extract_attribute_type</title>
<path fill="none" stroke="#000000" d="M88.07,-3649.57C188.98,-3705.21 476,-3863.5 476,-3863.5 476,-3863.5 739.93,-3863.5 892.62,-3863.5"/>
<polygon fill="#000000" stroke="#000000" points="892.97,-3867 902.97,-3863.5 892.97,-3860 892.97,-3867"/>
<text text-anchor="middle" x="488.5" y="-3866.5" font-family="monospace" font-size="10.00">owns</text>
</g>
<!-- interfaces_proc::blank::impl_blank -->
<g id="node8" class="node">
<title>interfaces_proc::blank::impl_blank</title>
<polygon fill="#81c169" stroke="black" points="939,-3689.5 939,-3727.5 1058,-3727.5 1058,-3689.5 939,-3689.5"/>
<text text-anchor="middle" x="998.5" y="-3715.5" font-family="monospace" font-size="10.00">pub fn</text>
<polyline fill="none" stroke="black" points="939,-3708.5 1058,-3708.5 "/>
<text text-anchor="middle" x="998.5" y="-3696.5" font-family="monospace" font-size="10.00">blank::impl_blank</text>
</g>
<!-- interfaces_proc&#45;&gt;interfaces_proc::blank::impl_blank -->
<g id="edge7" class="edge">
<title>interfaces_proc&#45;&gt;interfaces_proc::blank::impl_blank</title>
<path fill="none" stroke="#000000" d="M107.01,-3640.38C220.7,-3661.37 476,-3708.5 476,-3708.5 476,-3708.5 786.01,-3708.5 928.45,-3708.5"/>
<polygon fill="#000000" stroke="#000000" points="928.82,-3712 938.82,-3708.5 928.82,-3705 928.82,-3712"/>
<text text-anchor="middle" x="488.5" y="-3711.5" font-family="monospace" font-size="10.00">owns</text>
</g>
<!-- interfaces_proc::blank::impl_const -->
<g id="node9" class="node">
<title>interfaces_proc::blank::impl_const</title>
<polygon fill="#db5367" stroke="black" points="939,-3534.5 939,-3572.5 1058,-3572.5 1058,-3534.5 939,-3534.5"/>
<text text-anchor="middle" x="998.5" y="-3560.5" font-family="monospace" font-size="10.00">pub(self) fn</text>
<polyline fill="none" stroke="black" points="939,-3553.5 1058,-3553.5 "/>
<text text-anchor="middle" x="998.5" y="-3541.5" font-family="monospace" font-size="10.00">blank::impl_const</text>
</g>
<!-- interfaces_proc&#45;&gt;interfaces_proc::blank::impl_const -->
<g id="edge8" class="edge">
<title>interfaces_proc&#45;&gt;interfaces_proc::blank::impl_const</title>
<path fill="none" stroke="#000000" d="M107.03,-3622.6C225.82,-3605.09 501,-3564.5 501,-3564.5 501,-3564.5 791.59,-3558.07 928.6,-3555.05"/>
<polygon fill="#000000" stroke="#000000" points="929.06,-3558.54 938.98,-3554.82 928.91,-3551.54 929.06,-3558.54"/>
<text text-anchor="middle" x="488.5" y="-3556.5" font-family="monospace" font-size="10.00">owns</text>
</g>
<!-- interfaces_proc::blank::impl_fn -->
<g id="node10" class="node">
<title>interfaces_proc::blank::impl_fn</title>
<polygon fill="#db5367" stroke="black" points="948,-3379.5 948,-3417.5 1049,-3417.5 1049,-3379.5 948,-3379.5"/>
<text text-anchor="middle" x="998.5" y="-3405.5" font-family="monospace" font-size="10.00">pub(self) fn</text>
<polyline fill="none" stroke="black" points="948,-3398.5 1049,-3398.5 "/>
<text text-anchor="middle" x="998.5" y="-3386.5" font-family="monospace" font-size="10.00">blank::impl_fn</text>
</g>
<!-- interfaces_proc&#45;&gt;interfaces_proc::blank::impl_fn -->
<g id="edge9" class="edge">
<title>interfaces_proc&#45;&gt;interfaces_proc::blank::impl_fn</title>
<path fill="none" stroke="#000000" d="M92.04,-3611.47C200.59,-3557.86 501,-3409.5 501,-3409.5 501,-3409.5 804.77,-3402.78 937.57,-3399.85"/>
<polygon fill="#000000" stroke="#000000" points="937.68,-3403.35 947.6,-3399.63 937.52,-3396.35 937.68,-3403.35"/>
<text text-anchor="middle" x="488.5" y="-3401.5" font-family="monospace" font-size="10.00">owns</text>
</g>
<!-- interfaces_proc::blank::impl_type -->
<g id="node11" class="node">
<title>interfaces_proc::blank::impl_type</title>
<polygon fill="#db5367" stroke="black" points="942,-3224.5 942,-3262.5 1055,-3262.5 1055,-3224.5 942,-3224.5"/>
<text text-anchor="middle" x="998.5" y="-3250.5" font-family="monospace" font-size="10.00">pub(self) fn</text>
<polyline fill="none" stroke="black" points="942,-3243.5 1055,-3243.5 "/>
<text text-anchor="middle" x="998.5" y="-3231.5" font-family="monospace" font-size="10.00">blank::impl_type</text>
</g>
<!-- interfaces_proc&#45;&gt;interfaces_proc::blank::impl_type -->
<g id="edge10" class="edge">
<title>interfaces_proc&#45;&gt;interfaces_proc::blank::impl_type</title>
<path fill="none" stroke="#000000" d="M76.31,-3611.34C167.5,-3534.72 501,-3254.5 501,-3254.5 501,-3254.5 795.95,-3247.98 931.64,-3244.98"/>
<polygon fill="#000000" stroke="#000000" points="931.99,-3248.47 941.91,-3244.75 931.84,-3241.47 931.99,-3248.47"/>
<text text-anchor="middle" x="488.5" y="-3246.5" font-family="monospace" font-size="10.00">owns</text>
</g>
<!-- interfaces_proc::hack_mod -->
<g id="node12" class="node">
<title>interfaces_proc::hack_mod</title>
<polygon fill="#f8c04c" stroke="black" points="951,-3069.5 951,-3107.5 1046,-3107.5 1046,-3069.5 951,-3069.5"/>
<text text-anchor="middle" x="998.5" y="-3095.5" font-family="monospace" font-size="10.00">pub(crate) fn</text>
<polyline fill="none" stroke="black" points="951,-3088.5 1046,-3088.5 "/>
<text text-anchor="middle" x="998.5" y="-3076.5" font-family="monospace" font-size="10.00">hack_mod</text>
</g>
<!-- interfaces_proc&#45;&gt;interfaces_proc::hack_mod -->
<g id="edge11" class="edge">
<title>interfaces_proc&#45;&gt;interfaces_proc::hack_mod</title>
<path fill="none" stroke="#000000" d="M69.69,-3611.29C149.92,-3516.09 501,-3099.5 501,-3099.5 501,-3099.5 809.35,-3092.68 940.54,-3089.78"/>
<polygon fill="#000000" stroke="#000000" points="940.88,-3093.28 950.8,-3089.55 940.72,-3086.28 940.88,-3093.28"/>
<text text-anchor="middle" x="488.5" y="-3091.5" font-family="monospace" font-size="10.00">owns</text>
</g>
<!-- interfaces_proc::partial::IdentSet -->
<g id="node13" class="node">
<title>interfaces_proc::partial::IdentSet</title>
<polygon fill="#81c169" stroke="black" points="939,-2958.5 939,-2996.5 1058,-2996.5 1058,-2958.5 939,-2958.5"/>
<text text-anchor="middle" x="998.5" y="-2984.5" font-family="monospace" font-size="10.00">pub struct</text>
<polyline fill="none" stroke="black" points="939,-2977.5 1058,-2977.5 "/>
<text text-anchor="middle" x="998.5" y="-2965.5" font-family="monospace" font-size="10.00">partial::IdentSet</text>
</g>
<!-- interfaces_proc&#45;&gt;interfaces_proc::partial::IdentSet -->
<g id="edge12" class="edge">
<title>interfaces_proc&#45;&gt;interfaces_proc::partial::IdentSet</title>
<path fill="none" stroke="#000000" d="M65.94,-3611.44C138.21,-3500.64 501,-2944.5 501,-2944.5 501,-2944.5 791.59,-2963.78 928.6,-2972.86"/>
<polygon fill="#000000" stroke="#000000" points="928.77,-2976.38 938.98,-2973.55 929.24,-2969.4 928.77,-2976.38"/>
<text text-anchor="middle" x="488.5" y="-2936.5" font-family="monospace" font-size="10.00">owns</text>
</g>
<!-- interfaces_proc::partial::IdentSetPair -->
<g id="node15" class="node">
<title>interfaces_proc::partial::IdentSetPair</title>
<polygon fill="#81c169" stroke="black" points="927,-1479.5 927,-1517.5 1070,-1517.5 1070,-1479.5 927,-1479.5"/>
<text text-anchor="middle" x="998.5" y="-1505.5" font-family="monospace" font-size="10.00">pub struct</text>
<polyline fill="none" stroke="black" points="927,-1498.5 1070,-1498.5 "/>
<text text-anchor="middle" x="998.5" y="-1486.5" font-family="monospace" font-size="10.00">partial::IdentSetPair</text>
</g>
<!-- interfaces_proc&#45;&gt;interfaces_proc::partial::IdentSetPair -->
<g id="edge13" class="edge">
<title>interfaces_proc&#45;&gt;interfaces_proc::partial::IdentSetPair</title>
<path fill="none" stroke="#000000" d="M59.32,-3611.23C111.78,-3437.64 501,-2149.5 501,-2149.5 501,-2149.5 883.14,-1649.45 977.59,-1525.87"/>
<polygon fill="#000000" stroke="#000000" points="980.59,-1527.7 983.88,-1517.63 975.03,-1523.45 980.59,-1527.7"/>
<text text-anchor="middle" x="488.5" y="-2141.5" font-family="monospace" font-size="10.00">owns</text>
</g>
<!-- interfaces_proc::partial::gen_missing_assignments -->
<g id="node17" class="node">
<title>interfaces_proc::partial::gen_missing_assignments</title>
<polygon fill="#81c169" stroke="black" points="894,-0.5 894,-38.5 1103,-38.5 1103,-0.5 894,-0.5"/>
<text text-anchor="middle" x="998.5" y="-26.5" font-family="monospace" font-size="10.00">pub fn</text>
<polyline fill="none" stroke="black" points="894,-19.5 1103,-19.5 "/>
<text text-anchor="middle" x="998.5" y="-7.5" font-family="monospace" font-size="10.00">partial::gen_missing_assignments</text>
</g>
<!-- interfaces_proc&#45;&gt;interfaces_proc::partial::gen_missing_assignments -->
<g id="edge14" class="edge">
<title>interfaces_proc&#45;&gt;interfaces_proc::partial::gen_missing_assignments</title>
<path fill="none" stroke="#000000" d="M56.42,-3611.35C94.89,-3358.78 501,-692.5 501,-692.5 501,-692.5 884.81,-173.3 978.2,-46.96"/>
<polygon fill="#000000" stroke="#000000" points="981.28,-48.68 984.41,-38.56 975.65,-44.52 981.28,-48.68"/>
<text text-anchor="middle" x="488.5" y="-684.5" font-family="monospace" font-size="10.00">owns</text>
</g>
<!-- interfaces_proc::__gen_missing_assignments&#45;&gt;interfaces_proc::partial::IdentSetPair -->
<g id="edge15" class="edge">
<title>interfaces_proc::__gen_missing_assignments&#45;&gt;interfaces_proc::partial::IdentSetPair</title>
<path fill="none" stroke="#7f7f7f" stroke-dasharray="5,2" d="M995.69,-4619.28C975.29,-4480.07 851,-3631.5 851,-3631.5 851,-3631.5 978.84,-1782.84 996.49,-1527.59"/>
<polygon fill="#7f7f7f" stroke="#7f7f7f" points="999.98,-1527.81 997.18,-1517.59 993,-1527.33 999.98,-1527.81"/>
<text text-anchor="middle" x="845.5" y="-3629" font-family="monospace" font-size="10.00">uses</text>
</g>
<!-- interfaces_proc::partial::IdentSet::parse -->
<g id="node14" class="node">
<title>interfaces_proc::partial::IdentSet::parse</title>
<polygon fill="#db5367" stroke="black" points="1878,-2958.5 1878,-2996.5 2039,-2996.5 2039,-2958.5 1878,-2958.5"/>
<text text-anchor="middle" x="1958.5" y="-2984.5" font-family="monospace" font-size="10.00">pub(self) fn</text>
<polyline fill="none" stroke="black" points="1878,-2977.5 2039,-2977.5 "/>
<text text-anchor="middle" x="1958.5" y="-2965.5" font-family="monospace" font-size="10.00">partial::IdentSet::parse</text>
</g>
<!-- interfaces_proc::partial::IdentSet&#45;&gt;interfaces_proc::partial::IdentSet::parse -->
<g id="edge16" class="edge">
<title>interfaces_proc::partial::IdentSet&#45;&gt;interfaces_proc::partial::IdentSet::parse</title>
<path fill="none" stroke="#000000" d="M1058.47,-2977.5C1185.88,-2977.5 1472,-2977.5 1472,-2977.5 1472,-2977.5 1726.72,-2977.5 1867.54,-2977.5"/>
<polygon fill="#000000" stroke="#000000" points="1867.89,-2981 1877.89,-2977.5 1867.89,-2974 1867.89,-2981"/>
<text text-anchor="middle" x="1484.5" y="-2980.5" font-family="monospace" font-size="10.00">owns</text>
</g>
<!-- interfaces_proc::partial::IdentSet::parse&#45;&gt;interfaces_proc::partial::IdentSet -->
<g id="edge17" class="edge">
<title>interfaces_proc::partial::IdentSet::parse&#45;&gt;interfaces_proc::partial::IdentSet</title>
<path fill="none" stroke="#7f7f7f" stroke-dasharray="5,2" d="M1934.66,-2958.44C1840.16,-2882.88 1497,-2608.5 1497,-2608.5 1497,-2608.5 1144.91,-2869.12 1032.54,-2952.31"/>
<polygon fill="#7f7f7f" stroke="#7f7f7f" points="1030.21,-2949.68 1024.25,-2958.44 1034.37,-2955.3 1030.21,-2949.68"/>
<text text-anchor="middle" x="1484.5" y="-2600.5" font-family="monospace" font-size="10.00">uses</text>
</g>
<!-- interfaces_proc::partial::IdentSetPair&#45;&gt;interfaces_proc::partial::IdentSet -->
<g id="edge18" class="edge">
<title>interfaces_proc::partial::IdentSetPair&#45;&gt;interfaces_proc::partial::IdentSet</title>
</g>
<!-- interfaces_proc::partial::IdentSetPair::parse -->
<g id="node16" class="node">
<title>interfaces_proc::partial::IdentSetPair::parse</title>
<polygon fill="#db5367" stroke="black" points="1866,-1479.5 1866,-1517.5 2051,-1517.5 2051,-1479.5 1866,-1479.5"/>
<text text-anchor="middle" x="1958.5" y="-1505.5" font-family="monospace" font-size="10.00">pub(self) fn</text>
<polyline fill="none" stroke="black" points="1866,-1498.5 2051,-1498.5 "/>
<text text-anchor="middle" x="1958.5" y="-1486.5" font-family="monospace" font-size="10.00">partial::IdentSetPair::parse</text>
</g>
<!-- interfaces_proc::partial::IdentSetPair&#45;&gt;interfaces_proc::partial::IdentSetPair::parse -->
<g id="edge19" class="edge">
<title>interfaces_proc::partial::IdentSetPair&#45;&gt;interfaces_proc::partial::IdentSetPair::parse</title>
<path fill="none" stroke="#000000" d="M1070.16,-1498.5C1202.53,-1498.5 1472,-1498.5 1472,-1498.5 1472,-1498.5 1712.99,-1498.5 1855.74,-1498.5"/>
<polygon fill="#000000" stroke="#000000" points="1855.85,-1502 1865.85,-1498.5 1855.85,-1495 1855.85,-1502"/>
<text text-anchor="middle" x="1484.5" y="-1501.5" font-family="monospace" font-size="10.00">owns</text>
</g>
<!-- interfaces_proc::partial::IdentSetPair::parse&#45;&gt;interfaces_proc::partial::IdentSet -->
<g id="edge20" class="edge">
<title>interfaces_proc::partial::IdentSetPair::parse&#45;&gt;interfaces_proc::partial::IdentSet</title>
<path fill="none" stroke="#7f7f7f" stroke-dasharray="5,2" d="M1938.67,-1517.75C1850.34,-1603.5 1497,-1946.5 1497,-1946.5 1497,-1946.5 1092.32,-2783.46 1012.19,-2949.18"/>
<polygon fill="#7f7f7f" stroke="#7f7f7f" points="1009,-2947.75 1007.79,-2958.28 1015.3,-2950.8 1009,-2947.75"/>
<text text-anchor="middle" x="1484.5" y="-1938.5" font-family="monospace" font-size="10.00">uses</text>
</g>
<!-- interfaces_proc::partial::IdentSetPair::parse&#45;&gt;interfaces_proc::partial::IdentSetPair -->
<g id="edge21" class="edge">
<title>interfaces_proc::partial::IdentSetPair::parse&#45;&gt;interfaces_proc::partial::IdentSetPair</title>
<path fill="none" stroke="#7f7f7f" stroke-dasharray="5,2" d="M1897.22,-1479.38C1771.68,-1440.21 1497,-1354.5 1497,-1354.5 1497,-1354.5 1213.69,-1436.34 1074.23,-1476.63"/>
<polygon fill="#7f7f7f" stroke="#7f7f7f" points="1073.08,-1473.31 1064.44,-1479.45 1075.02,-1480.04 1073.08,-1473.31"/>
<text text-anchor="middle" x="1484.5" y="-1346.5" font-family="monospace" font-size="10.00">uses</text>
</g>
<!-- interfaces_proc::partial::gen_missing_assignments&#45;&gt;interfaces_proc::partial::IdentSetPair -->
<g id="edge22" class="edge">
<title>interfaces_proc::partial::gen_missing_assignments&#45;&gt;interfaces_proc::partial::IdentSetPair</title>
</g>
</g>
</svg>
