<?xml version="1.0" encoding="UTF-8" standalone="no"?>
<!DOCTYPE svg PUBLIC "-//W3C//DTD SVG 1.1//EN"
 "http://www.w3.org/Graphics/SVG/1.1/DTD/svg11.dtd">
<!-- Generated by graphviz version 4.0.0 (0)
 -->
<!-- Pages: 1 -->
<svg width="1404pt" height="1200pt"
 viewBox="0.00 0.00 1404.16 1200.30" xmlns="http://www.w3.org/2000/svg" xmlns:xlink="http://www.w3.org/1999/xlink">
<g id="graph0" class="graph" transform="scale(1 1) rotate(0) translate(28.8 1171.5)">
<polygon fill="white" stroke="transparent" points="-28.8,28.8 -28.8,-1171.5 1375.36,-1171.5 1375.36,28.8 -28.8,28.8"/>
<text text-anchor="middle" x="673.28" y="-1109.9" font-family="Helvetica,sans-Serif" font-size="36.00">lightning_keystore</text>
<!-- lightning_keystore -->
<g id="node1" class="node">
<title>lightning_keystore</title>
<polygon fill="#5397c8" stroke="black" points="779.15,-731.71 779.15,-769.71 904.15,-769.71 904.15,-731.71 779.15,-731.71"/>
<text text-anchor="middle" x="841.65" y="-757.71" font-family="monospace" font-size="10.00">crate</text>
<polyline fill="none" stroke="black" points="779.15,-750.71 904.15,-750.71 "/>
<text text-anchor="middle" x="841.65" y="-738.71" font-family="monospace" font-size="10.00">lightning_keystore</text>
</g>
<!-- lightning_keystore::config::KeystoreConfig -->
<g id="node2" class="node">
<title>lightning_keystore::config::KeystoreConfig</title>
<polygon fill="#81c169" stroke="black" points="387.44,-709.83 387.44,-747.83 536.44,-747.83 536.44,-709.83 387.44,-709.83"/>
<text text-anchor="middle" x="461.94" y="-735.83" font-family="monospace" font-size="10.00">pub struct</text>
<polyline fill="none" stroke="black" points="387.44,-728.83 536.44,-728.83 "/>
<text text-anchor="middle" x="461.94" y="-716.83" font-family="monospace" font-size="10.00">config::KeystoreConfig</text>
</g>
<!-- lightning_keystore&#45;&gt;lightning_keystore::config::KeystoreConfig -->
<g id="edge1" class="edge">
<title>lightning_keystore&#45;&gt;lightning_keystore::config::KeystoreConfig</title>
<path fill="none" stroke="#000000" d="M805.18,-731.67C746.07,-717.19 627.81,-708.4 546.79,-710.87"/>
<polygon fill="#000000" stroke="#000000" points="546.47,-707.38 536.6,-711.25 546.73,-714.37 546.47,-707.38"/>
<text text-anchor="middle" x="663.48" y="-724.27" font-family="monospace" font-size="10.00">owns</text>
</g>
<!-- lightning_keystore&#45;&gt;lightning_keystore::config::KeystoreConfig -->
<g id="edge2" class="edge">
<title>lightning_keystore&#45;&gt;lightning_keystore::config::KeystoreConfig</title>
<path fill="none" stroke="#7f7f7f" stroke-dasharray="5,2" d="M779.04,-767.65C702.95,-772.52 576.32,-764.59 508.38,-750.14"/>
<polygon fill="#7f7f7f" stroke="#7f7f7f" points="508.93,-746.68 498.4,-747.87 507.37,-753.5 508.93,-746.68"/>
<text text-anchor="middle" x="631.21" y="-761.9" font-family="monospace" font-size="10.00">uses</text>
</g>
<!-- lightning_keystore::keystore::Keystore -->
<g id="node6" class="node">
<title>lightning_keystore::keystore::Keystore</title>
<polygon fill="#81c169" stroke="black" points="840.03,-344.48 840.03,-382.48 965.03,-382.48 965.03,-344.48 840.03,-344.48"/>
<text text-anchor="middle" x="902.53" y="-370.48" font-family="monospace" font-size="10.00">pub struct</text>
<polyline fill="none" stroke="black" points="840.03,-363.48 965.03,-363.48 "/>
<text text-anchor="middle" x="902.53" y="-351.48" font-family="monospace" font-size="10.00">keystore::Keystore</text>
</g>
<!-- lightning_keystore&#45;&gt;lightning_keystore::keystore::Keystore -->
<g id="edge3" class="edge">
<title>lightning_keystore&#45;&gt;lightning_keystore::keystore::Keystore</title>
<path fill="none" stroke="#000000" d="M857.94,-731.65C886.01,-668.86 918,-468.62 912.73,-392.85"/>
<polygon fill="#000000" stroke="#000000" points="916.18,-392.2 911.68,-382.61 909.22,-392.91 916.18,-392.2"/>
<text text-anchor="middle" x="872.83" y="-565.25" font-family="monospace" font-size="10.00">owns</text>
</g>
<!-- lightning_keystore&#45;&gt;lightning_keystore::keystore::Keystore -->
<g id="edge4" class="edge">
<title>lightning_keystore&#45;&gt;lightning_keystore::keystore::Keystore</title>
<path fill="none" stroke="#7f7f7f" stroke-dasharray="5,2" d="M832.49,-731.45C823.5,-668.26 853.87,-467.55 882.26,-392.29"/>
<polygon fill="#7f7f7f" stroke="#7f7f7f" points="885.54,-393.52 886.06,-382.94 879.05,-390.88 885.54,-393.52"/>
<text text-anchor="middle" x="844.87" y="-564.87" font-family="monospace" font-size="10.00">uses</text>
</g>
<!-- lightning_keystore::keystore::save -->
<g id="node15" class="node">
<title>lightning_keystore::keystore::save</title>
<polygon fill="#db5367" stroke="black" points="972.59,-1019.9 972.59,-1057.9 1073.59,-1057.9 1073.59,-1019.9 972.59,-1019.9"/>
<text text-anchor="middle" x="1023.09" y="-1045.9" font-family="monospace" font-size="10.00">pub(self) fn</text>
<polyline fill="none" stroke="black" points="972.59,-1038.9 1073.59,-1038.9 "/>
<text text-anchor="middle" x="1023.09" y="-1026.9" font-family="monospace" font-size="10.00">keystore::save</text>
</g>
<!-- lightning_keystore&#45;&gt;lightning_keystore::keystore::save -->
<g id="edge5" class="edge">
<title>lightning_keystore&#45;&gt;lightning_keystore::keystore::save</title>
<path fill="none" stroke="#000000" d="M853.84,-770.06C885.21,-819.9 968.87,-952.77 1005.5,-1010.96"/>
<polygon fill="#000000" stroke="#000000" points="1002.67,-1013.03 1010.96,-1019.63 1008.59,-1009.3 1002.67,-1013.03"/>
<text text-anchor="middle" x="917.17" y="-893.51" font-family="monospace" font-size="10.00">owns</text>
</g>
<!-- lightning_keystore::config::KeystoreConfig::load_test_keys -->
<g id="node3" class="node">
<title>lightning_keystore::config::KeystoreConfig::load_test_keys</title>
<polygon fill="#81c169" stroke="black" points="0,-594.78 0,-632.78 245,-632.78 245,-594.78 0,-594.78"/>
<text text-anchor="middle" x="122.5" y="-620.78" font-family="monospace" font-size="10.00">pub fn</text>
<polyline fill="none" stroke="black" points="0,-613.78 245,-613.78 "/>
<text text-anchor="middle" x="122.5" y="-601.78" font-family="monospace" font-size="10.00">config::KeystoreConfig::load_test_keys</text>
</g>
<!-- lightning_keystore::config::KeystoreConfig&#45;&gt;lightning_keystore::config::KeystoreConfig::load_test_keys -->
<g id="edge6" class="edge">
<title>lightning_keystore::config::KeystoreConfig&#45;&gt;lightning_keystore::config::KeystoreConfig::load_test_keys</title>
<path fill="none" stroke="#000000" d="M447.01,-709.67C413.22,-686.17 329.11,-653.16 254.95,-631.1"/>
<polygon fill="#000000" stroke="#000000" points="255.6,-627.65 245.02,-628.2 253.64,-634.36 255.6,-627.65"/>
<text text-anchor="middle" x="338.48" y="-673.39" font-family="monospace" font-size="10.00">owns</text>
</g>
<!-- lightning_keystore::config::KeystoreConfig::test -->
<g id="node4" class="node">
<title>lightning_keystore::config::KeystoreConfig::test</title>
<polygon fill="#81c169" stroke="black" points="96.32,-886.47 96.32,-924.47 281.32,-924.47 281.32,-886.47 96.32,-886.47"/>
<text text-anchor="middle" x="188.82" y="-912.47" font-family="monospace" font-size="10.00">pub fn</text>
<polyline fill="none" stroke="black" points="96.32,-905.47 281.32,-905.47 "/>
<text text-anchor="middle" x="188.82" y="-893.47" font-family="monospace" font-size="10.00">config::KeystoreConfig::test</text>
</g>
<!-- lightning_keystore::config::KeystoreConfig&#45;&gt;lightning_keystore::config::KeystoreConfig::test -->
<g id="edge7" class="edge">
<title>lightning_keystore::config::KeystoreConfig&#45;&gt;lightning_keystore::config::KeystoreConfig::test</title>
<path fill="none" stroke="#000000" d="M390.7,-747.91C326.22,-780.57 236.86,-841.2 202.28,-878.28"/>
<polygon fill="#000000" stroke="#000000" points="199.28,-876.41 195.41,-886.27 204.59,-880.97 199.28,-876.41"/>
<text text-anchor="middle" x="283.99" y="-816.1" font-family="monospace" font-size="10.00">owns</text>
</g>
<!-- lightning_keystore::config::KeystoreConfig::test2 -->
<g id="node5" class="node">
<title>lightning_keystore::config::KeystoreConfig::test2</title>
<polygon fill="#81c169" stroke="black" points="339.86,-1056.2 339.86,-1094.2 530.86,-1094.2 530.86,-1056.2 339.86,-1056.2"/>
<text text-anchor="middle" x="435.36" y="-1082.2" font-family="monospace" font-size="10.00">pub fn</text>
<polyline fill="none" stroke="black" points="339.86,-1075.2 530.86,-1075.2 "/>
<text text-anchor="middle" x="435.36" y="-1063.2" font-family="monospace" font-size="10.00">config::KeystoreConfig::test2</text>
</g>
<!-- lightning_keystore::config::KeystoreConfig&#45;&gt;lightning_keystore::config::KeystoreConfig::test2 -->
<g id="edge8" class="edge">
<title>lightning_keystore::config::KeystoreConfig&#45;&gt;lightning_keystore::config::KeystoreConfig::test2</title>
<path fill="none" stroke="#000000" d="M446.93,-747.92C425.19,-805.39 411.33,-976.99 421.98,-1046"/>
<polygon fill="#000000" stroke="#000000" points="418.61,-1046.98 423.9,-1056.16 425.48,-1045.68 418.61,-1046.98"/>
<text text-anchor="middle" x="421.96" y="-899.96" font-family="monospace" font-size="10.00">owns</text>
</g>
<!-- lightning_keystore::config::KeystoreConfig::load_test_keys&#45;&gt;lightning_keystore::config::KeystoreConfig -->
<g id="edge9" class="edge">
<title>lightning_keystore::config::KeystoreConfig::load_test_keys&#45;&gt;lightning_keystore::config::KeystoreConfig</title>
<path fill="none" stroke="#7f7f7f" stroke-dasharray="5,2" d="M137.44,-632.94C178.83,-661.75 295.81,-704.81 377.44,-724.53"/>
<polygon fill="#7f7f7f" stroke="#7f7f7f" points="376.68,-727.95 387.21,-726.82 378.27,-721.13 376.68,-727.95"/>
<text text-anchor="middle" x="244.94" y="-681.74" font-family="monospace" font-size="10.00">uses</text>
</g>
<!-- lightning_keystore::config::KeystoreConfig::test&#45;&gt;lightning_keystore::config::KeystoreConfig -->
<g id="edge10" class="edge">
<title>lightning_keystore::config::KeystoreConfig::test&#45;&gt;lightning_keystore::config::KeystoreConfig</title>
<path fill="none" stroke="#7f7f7f" stroke-dasharray="5,2" d="M260.06,-886.39C324.53,-853.73 413.89,-793.1 448.47,-756.02"/>
<polygon fill="#7f7f7f" stroke="#7f7f7f" points="451.48,-757.89 455.35,-748.03 446.17,-753.33 451.48,-757.89"/>
<text text-anchor="middle" x="341.77" y="-824.2" font-family="monospace" font-size="10.00">uses</text>
</g>
<!-- lightning_keystore::config::KeystoreConfig::test2&#45;&gt;lightning_keystore::config::KeystoreConfig -->
<g id="edge11" class="edge">
<title>lightning_keystore::config::KeystoreConfig::test2&#45;&gt;lightning_keystore::config::KeystoreConfig</title>
<path fill="none" stroke="#7f7f7f" stroke-dasharray="5,2" d="M450.36,-1056.12C472.1,-998.64 485.97,-827.05 475.32,-758.04"/>
<polygon fill="#7f7f7f" stroke="#7f7f7f" points="478.69,-757.05 473.39,-747.88 471.81,-758.35 478.69,-757.05"/>
<text text-anchor="middle" x="450.34" y="-910.08" font-family="monospace" font-size="10.00">uses</text>
</g>
<!-- lightning_keystore::keystore::Keystore::Config -->
<g id="node7" class="node">
<title>lightning_keystore::keystore::Keystore::Config</title>
<polygon fill="#db5367" stroke="black" points="432.54,-341.65 432.54,-379.65 605.54,-379.65 605.54,-341.65 432.54,-341.65"/>
<text text-anchor="middle" x="519.04" y="-367.65" font-family="monospace" font-size="10.00">pub(self) type</text>
<polyline fill="none" stroke="black" points="432.54,-360.65 605.54,-360.65 "/>
<text text-anchor="middle" x="519.04" y="-348.65" font-family="monospace" font-size="10.00">keystore::Keystore::Config</text>
</g>
<!-- lightning_keystore::keystore::Keystore&#45;&gt;lightning_keystore::keystore::Keystore::Config -->
<g id="edge12" class="edge">
<title>lightning_keystore::keystore::Keystore&#45;&gt;lightning_keystore::keystore::Keystore::Config</title>
<path fill="none" stroke="#000000" d="M839.63,-363.02C778.87,-362.57 685.99,-361.88 615.81,-361.36"/>
<polygon fill="#000000" stroke="#000000" points="615.66,-357.86 605.63,-361.29 615.61,-364.86 615.66,-357.86"/>
<text text-anchor="middle" x="715.22" y="-365.19" font-family="monospace" font-size="10.00">owns</text>
</g>
<!-- lightning_keystore::keystore::Keystore::build_graph -->
<g id="node8" class="node">
<title>lightning_keystore::keystore::Keystore::build_graph</title>
<polygon fill="#db5367" stroke="black" points="1143.56,-310.07 1143.56,-348.07 1346.56,-348.07 1346.56,-310.07 1143.56,-310.07"/>
<text text-anchor="middle" x="1245.06" y="-336.07" font-family="monospace" font-size="10.00">pub(self) fn</text>
<polyline fill="none" stroke="black" points="1143.56,-329.07 1346.56,-329.07 "/>
<text text-anchor="middle" x="1245.06" y="-317.07" font-family="monospace" font-size="10.00">keystore::Keystore::build_graph</text>
</g>
<!-- lightning_keystore::keystore::Keystore&#45;&gt;lightning_keystore::keystore::Keystore::build_graph -->
<g id="edge13" class="edge">
<title>lightning_keystore::keystore::Keystore&#45;&gt;lightning_keystore::keystore::Keystore::build_graph</title>
<path fill="none" stroke="#000000" d="M965.35,-357.17C1012.17,-352.47 1077.36,-345.92 1133.02,-340.32"/>
<polygon fill="#000000" stroke="#000000" points="1133.7,-343.77 1143.3,-339.29 1133,-336.81 1133.7,-343.77"/>
<text text-anchor="middle" x="1036.69" y="-351.75" font-family="monospace" font-size="10.00">owns</text>
</g>
<!-- lightning_keystore::keystore::Keystore::generate_keys -->
<g id="node9" class="node">
<title>lightning_keystore::keystore::Keystore::generate_keys</title>
<polygon fill="#db5367" stroke="black" points="501.29,-444.31 501.29,-482.31 716.29,-482.31 716.29,-444.31 501.29,-444.31"/>
<text text-anchor="middle" x="608.79" y="-470.31" font-family="monospace" font-size="10.00">pub(self) fn</text>
<polyline fill="none" stroke="black" points="501.29,-463.31 716.29,-463.31 "/>
<text text-anchor="middle" x="608.79" y="-451.31" font-family="monospace" font-size="10.00">keystore::Keystore::generate_keys</text>
</g>
<!-- lightning_keystore::keystore::Keystore&#45;&gt;lightning_keystore::keystore::Keystore::generate_keys -->
<g id="edge14" class="edge">
<title>lightning_keystore::keystore::Keystore&#45;&gt;lightning_keystore::keystore::Keystore::generate_keys</title>
<path fill="none" stroke="#000000" d="M846.59,-382.49C797.64,-399.13 726.48,-423.31 674.76,-440.89"/>
<polygon fill="#000000" stroke="#000000" points="673.36,-437.67 665.02,-444.2 675.61,-444.3 673.36,-437.67"/>
<text text-anchor="middle" x="748.17" y="-414.69" font-family="monospace" font-size="10.00">owns</text>
</g>
<!-- lightning_keystore::keystore::Keystore::get_bls_pk -->
<g id="node10" class="node">
<title>lightning_keystore::keystore::Keystore::get_bls_pk</title>
<polygon fill="#db5367" stroke="black" points="1041.33,-107.64 1041.33,-145.64 1238.33,-145.64 1238.33,-107.64 1041.33,-107.64"/>
<text text-anchor="middle" x="1139.83" y="-133.64" font-family="monospace" font-size="10.00">pub(self) fn</text>
<polyline fill="none" stroke="black" points="1041.33,-126.64 1238.33,-126.64 "/>
<text text-anchor="middle" x="1139.83" y="-114.64" font-family="monospace" font-size="10.00">keystore::Keystore::get_bls_pk</text>
</g>
<!-- lightning_keystore::keystore::Keystore&#45;&gt;lightning_keystore::keystore::Keystore::get_bls_pk -->
<g id="edge15" class="edge">
<title>lightning_keystore::keystore::Keystore&#45;&gt;lightning_keystore::keystore::Keystore::get_bls_pk</title>
<path fill="none" stroke="#000000" d="M948.93,-344.48C1008.07,-301.73 1103.69,-204.23 1132.95,-154.63"/>
<polygon fill="#000000" stroke="#000000" points="1136.12,-156.13 1137.75,-145.66 1129.95,-152.82 1136.12,-156.13"/>
<text text-anchor="middle" x="1028.44" y="-252.55" font-family="monospace" font-size="10.00">owns</text>
</g>
<!-- lightning_keystore::keystore::Keystore::get_bls_sk -->
<g id="node11" class="node">
<title>lightning_keystore::keystore::Keystore::get_bls_sk</title>
<polygon fill="#db5367" stroke="black" points="839.53,-0.5 839.53,-38.5 1036.53,-38.5 1036.53,-0.5 839.53,-0.5"/>
<text text-anchor="middle" x="938.03" y="-26.5" font-family="monospace" font-size="10.00">pub(self) fn</text>
<polyline fill="none" stroke="black" points="839.53,-19.5 1036.53,-19.5 "/>
<text text-anchor="middle" x="938.03" y="-7.5" font-family="monospace" font-size="10.00">keystore::Keystore::get_bls_sk</text>
</g>
<!-- lightning_keystore::keystore::Keystore&#45;&gt;lightning_keystore::keystore::Keystore::get_bls_sk -->
<g id="edge16" class="edge">
<title>lightning_keystore::keystore::Keystore&#45;&gt;lightning_keystore::keystore::Keystore::get_bls_sk</title>
<path fill="none" stroke="#000000" d="M918.22,-344.4C941.35,-287.26 959.51,-117.48 950.63,-48.8"/>
<polygon fill="#000000" stroke="#000000" points="954.04,-47.98 948.97,-38.68 947.13,-49.11 954.04,-47.98"/>
<text text-anchor="middle" x="921.93" y="-199.6" font-family="monospace" font-size="10.00">owns</text>
</g>
<!-- lightning_keystore::keystore::Keystore::get_ed25519_pk -->
<g id="node12" class="node">
<title>lightning_keystore::keystore::Keystore::get_ed25519_pk</title>
<polygon fill="#db5367" stroke="black" points="610.51,-21.39 610.51,-59.39 831.51,-59.39 831.51,-21.39 610.51,-21.39"/>
<text text-anchor="middle" x="721.01" y="-47.39" font-family="monospace" font-size="10.00">pub(self) fn</text>
<polyline fill="none" stroke="black" points="610.51,-40.39 831.51,-40.39 "/>
<text text-anchor="middle" x="721.01" y="-28.39" font-family="monospace" font-size="10.00">keystore::Keystore::get_ed25519_pk</text>
</g>
<!-- lightning_keystore::keystore::Keystore&#45;&gt;lightning_keystore::keystore::Keystore::get_ed25519_pk -->
<g id="edge17" class="edge">
<title>lightning_keystore::keystore::Keystore&#45;&gt;lightning_keystore::keystore::Keystore::get_ed25519_pk</title>
<path fill="none" stroke="#000000" d="M905.12,-344.3C894.72,-288.67 808.77,-131.55 756.53,-67.45"/>
<polygon fill="#000000" stroke="#000000" points="759.15,-65.12 750.02,-59.75 753.8,-69.64 759.15,-65.12"/>
<text text-anchor="middle" x="818.32" y="-208.87" font-family="monospace" font-size="10.00">owns</text>
</g>
<!-- lightning_keystore::keystore::Keystore::get_ed25519_sk -->
<g id="node13" class="node">
<title>lightning_keystore::keystore::Keystore::get_ed25519_sk</title>
<polygon fill="#db5367" stroke="black" points="1103.15,-523.07 1103.15,-561.07 1324.15,-561.07 1324.15,-523.07 1103.15,-523.07"/>
<text text-anchor="middle" x="1213.65" y="-549.07" font-family="monospace" font-size="10.00">pub(self) fn</text>
<polyline fill="none" stroke="black" points="1103.15,-542.07 1324.15,-542.07 "/>
<text text-anchor="middle" x="1213.65" y="-530.07" font-family="monospace" font-size="10.00">keystore::Keystore::get_ed25519_sk</text>
</g>
<!-- lightning_keystore::keystore::Keystore&#45;&gt;lightning_keystore::keystore::Keystore::get_ed25519_sk -->
<g id="edge18" class="edge">
<title>lightning_keystore::keystore::Keystore&#45;&gt;lightning_keystore::keystore::Keystore::get_ed25519_sk</title>
<path fill="none" stroke="#000000" d="M911,-382.51C942.4,-417.25 1047.52,-481.96 1125.28,-518.6"/>
<polygon fill="#000000" stroke="#000000" points="1124.07,-521.9 1134.62,-522.92 1127.01,-515.54 1124.07,-521.9"/>
<text text-anchor="middle" x="1005.64" y="-453.55" font-family="monospace" font-size="10.00">owns</text>
</g>
<!-- lightning_keystore::keystore::Keystore::init -->
<g id="node14" class="node">
<title>lightning_keystore::keystore::Keystore::init</title>
<polygon fill="#81c169" stroke="black" points="653.62,-590.83 653.62,-628.83 814.62,-628.83 814.62,-590.83 653.62,-590.83"/>
<text text-anchor="middle" x="734.12" y="-616.83" font-family="monospace" font-size="10.00">pub fn</text>
<polyline fill="none" stroke="black" points="653.62,-609.83 814.62,-609.83 "/>
<text text-anchor="middle" x="734.12" y="-597.83" font-family="monospace" font-size="10.00">keystore::Keystore::init</text>
</g>
<!-- lightning_keystore::keystore::Keystore&#45;&gt;lightning_keystore::keystore::Keystore::init -->
<g id="edge19" class="edge">
<title>lightning_keystore::keystore::Keystore&#45;&gt;lightning_keystore::keystore::Keystore::init</title>
<path fill="none" stroke="#000000" d="M867.07,-382.85C822.16,-426.63 753.06,-529.26 735.04,-580.68"/>
<polygon fill="#000000" stroke="#000000" points="731.6,-579.96 732.07,-590.54 738.3,-581.98 731.6,-579.96"/>
<text text-anchor="middle" x="788.56" y="-484.76" font-family="monospace" font-size="10.00">owns</text>
</g>
<!-- lightning_keystore::keystore::Keystore::Config&#45;&gt;lightning_keystore::config::KeystoreConfig -->
<g id="edge20" class="edge">
<title>lightning_keystore::keystore::Keystore::Config&#45;&gt;lightning_keystore::config::KeystoreConfig</title>
<path fill="none" stroke="#7f7f7f" stroke-dasharray="5,2" d="M516.09,-379.67C506.75,-439.9 477.78,-626.72 466.5,-699.44"/>
<polygon fill="#7f7f7f" stroke="#7f7f7f" points="462.98,-699.29 464.91,-709.71 469.9,-700.36 462.98,-699.29"/>
<text text-anchor="middle" x="478.8" y="-542.56" font-family="monospace" font-size="10.00">uses</text>
</g>
<!-- lightning_keystore::keystore::Keystore::generate_keys&#45;&gt;lightning_keystore::config::KeystoreConfig -->
<g id="edge21" class="edge">
<title>lightning_keystore::keystore::Keystore::generate_keys&#45;&gt;lightning_keystore::config::KeystoreConfig</title>
<path fill="none" stroke="#7f7f7f" stroke-dasharray="5,2" d="M598.23,-482.41C572.73,-528.51 507.7,-646.1 477.63,-700.47"/>
<polygon fill="#7f7f7f" stroke="#7f7f7f" points="474.38,-699.11 472.6,-709.56 480.51,-702.5 474.38,-699.11"/>
<text text-anchor="middle" x="525.43" y="-594.44" font-family="monospace" font-size="10.00">uses</text>
</g>
<!-- lightning_keystore::keystore::Keystore::get_bls_pk&#45;&gt;lightning_keystore::keystore::Keystore -->
<g id="edge22" class="edge">
<title>lightning_keystore::keystore::Keystore::get_bls_pk&#45;&gt;lightning_keystore::keystore::Keystore</title>
<path fill="none" stroke="#7f7f7f" stroke-dasharray="5,2" d="M1093.43,-145.64C1034.29,-188.39 938.66,-285.88 909.41,-335.49"/>
<polygon fill="#7f7f7f" stroke="#7f7f7f" points="906.24,-333.99 904.61,-344.46 912.41,-337.3 906.24,-333.99"/>
<text text-anchor="middle" x="988.92" y="-243.57" font-family="monospace" font-size="10.00">uses</text>
</g>
<!-- lightning_keystore::keystore::Keystore::get_bls_sk&#45;&gt;lightning_keystore::keystore::Keystore -->
<g id="edge23" class="edge">
<title>lightning_keystore::keystore::Keystore::get_bls_sk&#45;&gt;lightning_keystore::keystore::Keystore</title>
<path fill="none" stroke="#7f7f7f" stroke-dasharray="5,2" d="M922.34,-38.59C899.2,-95.72 881.05,-265.5 889.93,-334.19"/>
<polygon fill="#7f7f7f" stroke="#7f7f7f" points="886.51,-335.01 891.59,-344.31 893.42,-333.87 886.51,-335.01"/>
<text text-anchor="middle" x="893.63" y="-189.39" font-family="monospace" font-size="10.00">uses</text>
</g>
<!-- lightning_keystore::keystore::Keystore::get_ed25519_pk&#45;&gt;lightning_keystore::keystore::Keystore -->
<g id="edge24" class="edge">
<title>lightning_keystore::keystore::Keystore::get_ed25519_pk&#45;&gt;lightning_keystore::keystore::Keystore</title>
<path fill="none" stroke="#7f7f7f" stroke-dasharray="5,2" d="M718.42,-59.57C728.81,-115.2 814.76,-272.32 867.01,-336.42"/>
<polygon fill="#7f7f7f" stroke="#7f7f7f" points="864.39,-338.75 873.52,-344.12 869.73,-334.23 864.39,-338.75"/>
<text text-anchor="middle" x="780.21" y="-201" font-family="monospace" font-size="10.00">uses</text>
</g>
<!-- lightning_keystore::keystore::Keystore::get_ed25519_sk&#45;&gt;lightning_keystore::keystore::Keystore -->
<g id="edge25" class="edge">
<title>lightning_keystore::keystore::Keystore::get_ed25519_sk&#45;&gt;lightning_keystore::keystore::Keystore</title>
<path fill="none" stroke="#7f7f7f" stroke-dasharray="5,2" d="M1205.18,-523.05C1171.53,-485.81 1053.2,-414.16 974.63,-379.53"/>
<polygon fill="#7f7f7f" stroke="#7f7f7f" points="975.82,-376.23 965.25,-375.49 973.05,-382.66 975.82,-376.23"/>
<text text-anchor="middle" x="1077.4" y="-454.29" font-family="monospace" font-size="10.00">uses</text>
</g>
<!-- lightning_keystore::keystore::Keystore::init&#45;&gt;lightning_keystore::config::KeystoreConfig -->
<g id="edge26" class="edge">
<title>lightning_keystore::keystore::Keystore::init&#45;&gt;lightning_keystore::config::KeystoreConfig</title>
<path fill="none" stroke="#7f7f7f" stroke-dasharray="5,2" d="M690.39,-628.95C642.57,-649.86 565.96,-683.36 514.81,-705.72"/>
<polygon fill="#7f7f7f" stroke="#7f7f7f" points="513.32,-702.55 505.56,-709.76 516.13,-708.96 513.32,-702.55"/>
<text text-anchor="middle" x="590.1" y="-670.34" font-family="monospace" font-size="10.00">uses</text>
</g>
<!-- lightning_keystore::keystore::Keystore::init&#45;&gt;lightning_keystore::keystore::Keystore -->
<g id="edge27" class="edge">
<title>lightning_keystore::keystore::Keystore::init&#45;&gt;lightning_keystore::keystore::Keystore</title>
<path fill="none" stroke="#7f7f7f" stroke-dasharray="5,2" d="M769.57,-590.46C814.49,-546.68 883.58,-444.05 901.61,-392.63"/>
<polygon fill="#7f7f7f" stroke="#7f7f7f" points="905.04,-393.36 904.58,-382.77 898.34,-391.34 905.04,-393.36"/>
<text text-anchor="middle" x="823.09" y="-494.55" font-family="monospace" font-size="10.00">uses</text>
</g>
</g>
</svg>
