<?xml version="1.0" encoding="UTF-8" standalone="no"?>
<!DOCTYPE svg PUBLIC "-//W3C//DTD SVG 1.1//EN"
 "http://www.w3.org/Graphics/SVG/1.1/DTD/svg11.dtd">
<!-- Generated by graphviz version 4.0.0 (0)
 -->
<!-- Pages: 1 -->
<svg width="995pt" height="1000pt"
 viewBox="0.00 0.00 995.44 1000.16" xmlns="http://www.w3.org/2000/svg" xmlns:xlink="http://www.w3.org/1999/xlink">
<g id="graph0" class="graph" transform="scale(1 1) rotate(0) translate(28.8 971.36)">
<polygon fill="white" stroke="transparent" points="-28.8,28.8 -28.8,-971.36 966.64,-971.36 966.64,28.8 -28.8,28.8"/>
<text text-anchor="middle" x="468.92" y="-909.76" font-family="Helvetica,sans-Serif" font-size="36.00">lightning_signer</text>
<!-- lightning_signer -->
<g id="node1" class="node">
<title>lightning_signer</title>
<polygon fill="#5397c8" stroke="black" points="470.71,-467.42 470.71,-505.42 583.71,-505.42 583.71,-467.42 470.71,-467.42"/>
<text text-anchor="middle" x="527.21" y="-493.42" font-family="monospace" font-size="10.00">crate</text>
<polyline fill="none" stroke="black" points="470.71,-486.42 583.71,-486.42 "/>
<text text-anchor="middle" x="527.21" y="-474.42" font-family="monospace" font-size="10.00">lightning_signer</text>
</g>
<!-- lightning_signer::LazyNodeIndex -->
<g id="node2" class="node">
<title>lightning_signer::LazyNodeIndex</title>
<polygon fill="#f8c04c" stroke="black" points="222.85,-501.23 222.85,-539.23 341.85,-539.23 341.85,-501.23 222.85,-501.23"/>
<text text-anchor="middle" x="282.35" y="-527.23" font-family="monospace" font-size="10.00">pub(crate) struct</text>
<polyline fill="none" stroke="black" points="222.85,-520.23 341.85,-520.23 "/>
<text text-anchor="middle" x="282.35" y="-508.23" font-family="monospace" font-size="10.00">LazyNodeIndex</text>
</g>
<!-- lightning_signer&#45;&gt;lightning_signer::LazyNodeIndex -->
<g id="edge1" class="edge">
<title>lightning_signer&#45;&gt;lightning_signer::LazyNodeIndex</title>
<path fill="none" stroke="#000000" d="M470.41,-494.26C435.29,-499.11 389.93,-505.37 352.56,-510.53"/>
<polygon fill="#000000" stroke="#000000" points="351.67,-507.12 342.25,-511.96 352.63,-514.06 351.67,-507.12"/>
<text text-anchor="middle" x="398.99" y="-505.4" font-family="monospace" font-size="10.00">owns</text>
</g>
<!-- lightning_signer::PendingTransaction -->
<g id="node5" class="node">
<title>lightning_signer::PendingTransaction</title>
<polygon fill="#f8c04c" stroke="black" points="688.89,-535.6 688.89,-573.6 813.89,-573.6 813.89,-535.6 688.89,-535.6"/>
<text text-anchor="middle" x="751.39" y="-561.6" font-family="monospace" font-size="10.00">pub(crate) struct</text>
<polyline fill="none" stroke="black" points="688.89,-554.6 813.89,-554.6 "/>
<text text-anchor="middle" x="751.39" y="-542.6" font-family="monospace" font-size="10.00">PendingTransaction</text>
</g>
<!-- lightning_signer&#45;&gt;lightning_signer::PendingTransaction -->
<g id="edge2" class="edge">
<title>lightning_signer&#45;&gt;lightning_signer::PendingTransaction</title>
<path fill="none" stroke="#000000" d="M583.78,-503.63C612.57,-512.38 647.9,-523.13 678.69,-532.49"/>
<polygon fill="#000000" stroke="#000000" points="677.93,-535.92 688.52,-535.48 679.97,-529.22 677.93,-535.92"/>
<text text-anchor="middle" x="618.74" y="-521.06" font-family="monospace" font-size="10.00">owns</text>
</g>
<!-- lightning_signer::Signer -->
<g id="node6" class="node">
<title>lightning_signer::Signer</title>
<polygon fill="#81c169" stroke="black" points="438.85,-233.21 438.85,-271.21 515.85,-271.21 515.85,-233.21 438.85,-233.21"/>
<text text-anchor="middle" x="477.35" y="-259.21" font-family="monospace" font-size="10.00">pub struct</text>
<polyline fill="none" stroke="black" points="438.85,-252.21 515.85,-252.21 "/>
<text text-anchor="middle" x="477.35" y="-240.21" font-family="monospace" font-size="10.00">Signer</text>
</g>
<!-- lightning_signer&#45;&gt;lightning_signer::Signer -->
<g id="edge3" class="edge">
<title>lightning_signer&#45;&gt;lightning_signer::Signer</title>
<path fill="none" stroke="#000000" d="M523.13,-467.26C514.39,-426.24 493.85,-329.74 483.52,-281.19"/>
<polygon fill="#000000" stroke="#000000" points="486.92,-280.36 481.42,-271.31 480.07,-281.82 486.92,-280.36"/>
<text text-anchor="middle" x="490.82" y="-377.22" font-family="monospace" font-size="10.00">owns</text>
</g>
<!-- lightning_signer::SignerState -->
<g id="node11" class="node">
<title>lightning_signer::SignerState</title>
<polygon fill="#f8c04c" stroke="black" points="569.22,-657.27 569.22,-695.27 688.22,-695.27 688.22,-657.27 569.22,-657.27"/>
<text text-anchor="middle" x="628.72" y="-683.27" font-family="monospace" font-size="10.00">pub(crate) struct</text>
<polyline fill="none" stroke="black" points="569.22,-676.27 688.22,-676.27 "/>
<text text-anchor="middle" x="628.72" y="-664.27" font-family="monospace" font-size="10.00">SignerState</text>
</g>
<!-- lightning_signer&#45;&gt;lightning_signer::SignerState -->
<g id="edge4" class="edge">
<title>lightning_signer&#45;&gt;lightning_signer::SignerState</title>
<path fill="none" stroke="#000000" d="M537.5,-505.67C555.48,-539.3 592.7,-608.9 613.61,-648.01"/>
<polygon fill="#000000" stroke="#000000" points="610.75,-650.09 618.55,-657.25 616.92,-646.78 610.75,-650.09"/>
<text text-anchor="middle" x="563.05" y="-579.84" font-family="monospace" font-size="10.00">owns</text>
</g>
<!-- lightning_signer::SignerWorker -->
<g id="node15" class="node">
<title>lightning_signer::SignerWorker</title>
<polygon fill="#f8c04c" stroke="black" points="543.31,-260.25 543.31,-298.25 662.31,-298.25 662.31,-260.25 543.31,-260.25"/>
<text text-anchor="middle" x="602.81" y="-286.25" font-family="monospace" font-size="10.00">pub(crate) struct</text>
<polyline fill="none" stroke="black" points="543.31,-279.25 662.31,-279.25 "/>
<text text-anchor="middle" x="602.81" y="-267.25" font-family="monospace" font-size="10.00">SignerWorker</text>
</g>
<!-- lightning_signer&#45;&gt;lightning_signer::SignerWorker -->
<g id="edge5" class="edge">
<title>lightning_signer&#45;&gt;lightning_signer::SignerWorker</title>
<path fill="none" stroke="#000000" d="M534.18,-467.31C547.52,-430.77 576.68,-350.84 592.35,-307.9"/>
<polygon fill="#000000" stroke="#000000" points="595.71,-308.92 595.85,-298.32 589.13,-306.52 595.71,-308.92"/>
<text text-anchor="middle" x="550.77" y="-390.6" font-family="monospace" font-size="10.00">owns</text>
</g>
<!-- lightning_signer::new_block_task -->
<g id="node19" class="node">
<title>lightning_signer::new_block_task</title>
<polygon fill="#f8c04c" stroke="black" points="354.6,-407.2 354.6,-445.2 485.6,-445.2 485.6,-407.2 354.6,-407.2"/>
<text text-anchor="middle" x="420.1" y="-433.2" font-family="monospace" font-size="10.00">pub(crate) async fn</text>
<polyline fill="none" stroke="black" points="354.6,-426.2 485.6,-426.2 "/>
<text text-anchor="middle" x="420.1" y="-414.2" font-family="monospace" font-size="10.00">new_block_task</text>
</g>
<!-- lightning_signer&#45;&gt;lightning_signer::new_block_task -->
<g id="edge6" class="edge">
<title>lightning_signer&#45;&gt;lightning_signer::new_block_task</title>
<path fill="none" stroke="#000000" d="M493.32,-467.37C483.65,-461.93 472.98,-455.94 462.86,-450.24"/>
<polygon fill="#000000" stroke="#000000" points="464.57,-447.19 454.14,-445.34 461.14,-453.29 464.57,-447.19"/>
<text text-anchor="middle" x="465.59" y="-450.81" font-family="monospace" font-size="10.00">owns</text>
</g>
<!-- lightning_signer::LazyNodeIndex::new -->
<g id="node3" class="node">
<title>lightning_signer::LazyNodeIndex::new</title>
<polygon fill="#f8c04c" stroke="black" points="0,-473.83 0,-511.83 125,-511.83 125,-473.83 0,-473.83"/>
<text text-anchor="middle" x="62.5" y="-499.83" font-family="monospace" font-size="10.00">pub(crate) fn</text>
<polyline fill="none" stroke="black" points="0,-492.83 125,-492.83 "/>
<text text-anchor="middle" x="62.5" y="-480.83" font-family="monospace" font-size="10.00">LazyNodeIndex::new</text>
</g>
<!-- lightning_signer::LazyNodeIndex&#45;&gt;lightning_signer::LazyNodeIndex::new -->
<g id="edge7" class="edge">
<title>lightning_signer::LazyNodeIndex&#45;&gt;lightning_signer::LazyNodeIndex::new</title>
<path fill="none" stroke="#000000" d="M263.72,-501.19C235.5,-487.86 180.53,-478.08 135.16,-476.38"/>
<polygon fill="#000000" stroke="#000000" points="135.13,-472.88 125.04,-476.13 134.96,-479.88 135.13,-472.88"/>
<text text-anchor="middle" x="186.94" y="-491.79" font-family="monospace" font-size="10.00">owns</text>
</g>
<!-- lightning_signer::LazyNodeIndex::query_nonce -->
<g id="node4" class="node">
<title>lightning_signer::LazyNodeIndex::query_nonce</title>
<polygon fill="#f8c04c" stroke="black" points="66.86,-671.74 66.86,-709.74 239.86,-709.74 239.86,-671.74 66.86,-671.74"/>
<text text-anchor="middle" x="153.36" y="-697.74" font-family="monospace" font-size="10.00">pub(crate) fn</text>
<polyline fill="none" stroke="black" points="66.86,-690.74 239.86,-690.74 "/>
<text text-anchor="middle" x="153.36" y="-678.74" font-family="monospace" font-size="10.00">LazyNodeIndex::query_nonce</text>
</g>
<!-- lightning_signer::LazyNodeIndex&#45;&gt;lightning_signer::LazyNodeIndex::query_nonce -->
<g id="edge8" class="edge">
<title>lightning_signer::LazyNodeIndex&#45;&gt;lightning_signer::LazyNodeIndex::query_nonce</title>
<path fill="none" stroke="#000000" d="M240.82,-539.24C207.35,-569.69 166.14,-626.45 153.26,-661.83"/>
<polygon fill="#000000" stroke="#000000" points="149.84,-661.06 150.31,-671.64 156.54,-663.08 149.84,-661.06"/>
<text text-anchor="middle" x="184.54" y="-603.54" font-family="monospace" font-size="10.00">owns</text>
</g>
<!-- lightning_signer::LazyNodeIndex::new&#45;&gt;lightning_signer::LazyNodeIndex -->
<g id="edge9" class="edge">
<title>lightning_signer::LazyNodeIndex::new&#45;&gt;lightning_signer::LazyNodeIndex</title>
<path fill="none" stroke="#7f7f7f" stroke-dasharray="5,2" d="M81.13,-511.87C109.91,-525.47 166.55,-535.37 212.44,-536.77"/>
<polygon fill="#7f7f7f" stroke="#7f7f7f" points="212.59,-540.27 222.64,-536.94 212.7,-533.27 212.59,-540.27"/>
<text text-anchor="middle" x="134.28" y="-527.32" font-family="monospace" font-size="10.00">uses</text>
</g>
<!-- lightning_signer::LazyNodeIndex::query_nonce&#45;&gt;lightning_signer::LazyNodeIndex -->
<g id="edge10" class="edge">
<title>lightning_signer::LazyNodeIndex::query_nonce&#45;&gt;lightning_signer::LazyNodeIndex</title>
<path fill="none" stroke="#7f7f7f" stroke-dasharray="5,2" d="M194.88,-671.73C228.35,-641.27 269.56,-584.52 282.44,-549.13"/>
<polygon fill="#7f7f7f" stroke="#7f7f7f" points="285.87,-549.91 285.4,-539.32 279.16,-547.89 285.87,-549.91"/>
<text text-anchor="middle" x="226.16" y="-613.43" font-family="monospace" font-size="10.00">uses</text>
</g>
<!-- lightning_signer::Signer::build_graph -->
<g id="node7" class="node">
<title>lightning_signer::Signer::build_graph</title>
<polygon fill="#f8c04c" stroke="black" points="220.82,-86.22 220.82,-124.22 351.82,-124.22 351.82,-86.22 220.82,-86.22"/>
<text text-anchor="middle" x="286.32" y="-112.22" font-family="monospace" font-size="10.00">pub(crate) fn</text>
<polyline fill="none" stroke="black" points="220.82,-105.22 351.82,-105.22 "/>
<text text-anchor="middle" x="286.32" y="-93.22" font-family="monospace" font-size="10.00">Signer::build_graph</text>
</g>
<!-- lightning_signer::Signer&#45;&gt;lightning_signer::Signer::build_graph -->
<g id="edge11" class="edge">
<title>lightning_signer::Signer&#45;&gt;lightning_signer::Signer::build_graph</title>
<path fill="none" stroke="#000000" d="M452.38,-232.99C418.34,-206.81 357.3,-159.84 319.46,-130.73"/>
<polygon fill="#000000" stroke="#000000" points="321.36,-127.77 311.3,-124.45 317.09,-133.32 321.36,-127.77"/>
<text text-anchor="middle" x="373.42" y="-184.86" font-family="monospace" font-size="10.00">owns</text>
</g>
<!-- lightning_signer::Signer::get_socket -->
<g id="node8" class="node">
<title>lightning_signer::Signer::get_socket</title>
<polygon fill="#f8c04c" stroke="black" points="390.89,-0.5 390.89,-38.5 515.89,-38.5 515.89,-0.5 390.89,-0.5"/>
<text text-anchor="middle" x="453.39" y="-26.5" font-family="monospace" font-size="10.00">pub(crate) fn</text>
<polyline fill="none" stroke="black" points="390.89,-19.5 515.89,-19.5 "/>
<text text-anchor="middle" x="453.39" y="-7.5" font-family="monospace" font-size="10.00">Signer::get_socket</text>
</g>
<!-- lightning_signer::Signer&#45;&gt;lightning_signer::Signer::get_socket -->
<g id="edge12" class="edge">
<title>lightning_signer::Signer&#45;&gt;lightning_signer::Signer::get_socket</title>
<path fill="none" stroke="#000000" d="M490.56,-233.17C500.91,-192.32 492.3,-96.18 475.36,-48.02"/>
<polygon fill="#000000" stroke="#000000" points="478.54,-46.53 471.63,-38.5 472.02,-49.09 478.54,-46.53"/>
<text text-anchor="middle" x="470.46" y="-143.59" font-family="monospace" font-size="10.00">owns</text>
</g>
<!-- lightning_signer::Signer::init -->
<g id="node9" class="node">
<title>lightning_signer::Signer::init</title>
<polygon fill="#81c169" stroke="black" points="616.17,-411.49 616.17,-449.49 705.17,-449.49 705.17,-411.49 616.17,-411.49"/>
<text text-anchor="middle" x="660.67" y="-437.49" font-family="monospace" font-size="10.00">pub fn</text>
<polyline fill="none" stroke="black" points="616.17,-430.49 705.17,-430.49 "/>
<text text-anchor="middle" x="660.67" y="-418.49" font-family="monospace" font-size="10.00">Signer::init</text>
</g>
<!-- lightning_signer::Signer&#45;&gt;lightning_signer::Signer::init -->
<g id="edge13" class="edge">
<title>lightning_signer::Signer&#45;&gt;lightning_signer::Signer::init</title>
<path fill="none" stroke="#000000" d="M478.26,-271.51C493.49,-306.67 558.88,-374.48 607.68,-410.02"/>
<polygon fill="#000000" stroke="#000000" points="605.78,-412.96 615.97,-415.86 609.8,-407.24 605.78,-412.96"/>
<text text-anchor="middle" x="530.47" y="-343.77" font-family="monospace" font-size="10.00">owns</text>
</g>
<!-- lightning_signer::Signer::start -->
<g id="node10" class="node">
<title>lightning_signer::Signer::start</title>
<polygon fill="#81c169" stroke="black" points="288.75,-279.19 288.75,-317.19 383.75,-317.19 383.75,-279.19 288.75,-279.19"/>
<text text-anchor="middle" x="336.25" y="-305.19" font-family="monospace" font-size="10.00">pub async fn</text>
<polyline fill="none" stroke="black" points="288.75,-298.19 383.75,-298.19 "/>
<text text-anchor="middle" x="336.25" y="-286.19" font-family="monospace" font-size="10.00">Signer::start</text>
</g>
<!-- lightning_signer::Signer&#45;&gt;lightning_signer::Signer::start -->
<g id="edge14" class="edge">
<title>lightning_signer::Signer&#45;&gt;lightning_signer::Signer::start</title>
<path fill="none" stroke="#000000" d="M438.57,-240.7C409.76,-243.52 372.25,-256.79 351.38,-272.22"/>
<polygon fill="#000000" stroke="#000000" points="348.85,-269.78 343.53,-278.94 353.4,-275.09 348.85,-269.78"/>
<text text-anchor="middle" x="382.48" y="-259.46" font-family="monospace" font-size="10.00">owns</text>
</g>
<!-- lightning_signer::Signer&#45;&gt;lightning_signer::SignerWorker -->
<g id="edge15" class="edge">
<title>lightning_signer::Signer&#45;&gt;lightning_signer::SignerWorker</title>
<path fill="none" stroke="#7f7f7f" stroke-dasharray="5,2" d="M516.01,-260.54C521.55,-261.74 527.38,-262.99 533.29,-264.27"/>
<polygon fill="#7f7f7f" stroke="#7f7f7f" points="532.76,-267.73 543.28,-266.42 534.24,-260.89 532.76,-267.73"/>
<text text-anchor="middle" x="530.9" y="-254.4" font-family="monospace" font-size="10.00">uses</text>
</g>
<!-- lightning_signer::Signer::get_socket&#45;&gt;lightning_signer::Signer -->
<g id="edge16" class="edge">
<title>lightning_signer::Signer::get_socket&#45;&gt;lightning_signer::Signer</title>
<path fill="none" stroke="#7f7f7f" stroke-dasharray="5,2" d="M440.18,-38.54C429.84,-79.39 438.45,-175.53 455.38,-223.69"/>
<polygon fill="#7f7f7f" stroke="#7f7f7f" points="452.2,-225.18 459.12,-233.21 458.72,-222.62 452.2,-225.18"/>
<text text-anchor="middle" x="435.28" y="-134.12" font-family="monospace" font-size="10.00">uses</text>
</g>
<!-- lightning_signer::Signer::init&#45;&gt;lightning_signer::Signer -->
<g id="edge17" class="edge">
<title>lightning_signer::Signer::init&#45;&gt;lightning_signer::Signer</title>
<path fill="none" stroke="#7f7f7f" stroke-dasharray="5,2" d="M659.76,-411.19C643.92,-374.63 573.86,-302.78 524.6,-268.6"/>
<polygon fill="#7f7f7f" stroke="#7f7f7f" points="526.24,-265.48 515.97,-262.87 522.36,-271.32 526.24,-265.48"/>
<text text-anchor="middle" x="579.68" y="-342.9" font-family="monospace" font-size="10.00">uses</text>
</g>
<!-- lightning_signer::Signer::init&#45;&gt;lightning_signer::SignerState -->
<g id="edge18" class="edge">
<title>lightning_signer::Signer::init&#45;&gt;lightning_signer::SignerState</title>
<path fill="none" stroke="#7f7f7f" stroke-dasharray="5,2" d="M658.16,-449.78C652.59,-492.67 639.13,-596.19 632.52,-647.06"/>
<polygon fill="#7f7f7f" stroke="#7f7f7f" points="629.03,-646.71 631.22,-657.07 635.98,-647.61 629.03,-646.71"/>
<text text-anchor="middle" x="632.84" y="-551.42" font-family="monospace" font-size="10.00">uses</text>
</g>
<!-- lightning_signer::Signer::init&#45;&gt;lightning_signer::SignerWorker -->
<g id="edge19" class="edge">
<title>lightning_signer::Signer::init&#45;&gt;lightning_signer::SignerWorker</title>
<path fill="none" stroke="#7f7f7f" stroke-dasharray="5,2" d="M653.34,-411.34C643.4,-385.34 625.54,-338.67 613.93,-308.33"/>
<polygon fill="#7f7f7f" stroke="#7f7f7f" points="617.1,-306.82 610.26,-298.73 610.56,-309.32 617.1,-306.82"/>
<text text-anchor="middle" x="621.14" y="-362.84" font-family="monospace" font-size="10.00">uses</text>
</g>
<!-- lightning_signer::Signer::start&#45;&gt;lightning_signer::LazyNodeIndex -->
<g id="edge20" class="edge">
<title>lightning_signer::Signer::start&#45;&gt;lightning_signer::LazyNodeIndex</title>
<path fill="none" stroke="#7f7f7f" stroke-dasharray="5,2" d="M331.56,-317.5C322.08,-356.56 300.58,-445.1 289.4,-491.17"/>
<polygon fill="#7f7f7f" stroke="#7f7f7f" points="285.95,-490.57 286.99,-501.11 292.75,-492.22 285.95,-490.57"/>
<text text-anchor="middle" x="297.98" y="-407.33" font-family="monospace" font-size="10.00">uses</text>
</g>
<!-- lightning_signer::Signer::start&#45;&gt;lightning_signer::Signer -->
<g id="edge21" class="edge">
<title>lightning_signer::Signer::start&#45;&gt;lightning_signer::Signer</title>
<path fill="none" stroke="#7f7f7f" stroke-dasharray="5,2" d="M383.93,-308.54C411.3,-304.17 443.69,-291.97 462.43,-278.02"/>
<polygon fill="#7f7f7f" stroke="#7f7f7f" points="464.95,-280.47 470.24,-271.28 460.38,-275.17 464.95,-280.47"/>
<text text-anchor="middle" x="410.68" y="-296.28" font-family="monospace" font-size="10.00">uses</text>
</g>
<!-- lightning_signer::Signer::start&#45;&gt;lightning_signer::SignerWorker -->
<g id="edge22" class="edge">
<title>lightning_signer::Signer::start&#45;&gt;lightning_signer::SignerWorker</title>
<path fill="none" stroke="#7f7f7f" stroke-dasharray="5,2" d="M383.91,-294.8C425.34,-291.86 485.92,-287.55 532.86,-284.22"/>
<polygon fill="#7f7f7f" stroke="#7f7f7f" points="533.23,-287.7 542.95,-283.5 532.73,-280.72 533.23,-287.7"/>
<text text-anchor="middle" x="445.88" y="-292.51" font-family="monospace" font-size="10.00">uses</text>
</g>
<!-- lightning_signer::SignerState::init_state -->
<g id="node12" class="node">
<title>lightning_signer::SignerState::init_state</title>
<polygon fill="#f8c04c" stroke="black" points="449.22,-856.06 449.22,-894.06 604.22,-894.06 604.22,-856.06 449.22,-856.06"/>
<text text-anchor="middle" x="526.72" y="-882.06" font-family="monospace" font-size="10.00">pub(crate) fn</text>
<polyline fill="none" stroke="black" points="449.22,-875.06 604.22,-875.06 "/>
<text text-anchor="middle" x="526.72" y="-863.06" font-family="monospace" font-size="10.00">SignerState::init_state</text>
</g>
<!-- lightning_signer::SignerState&#45;&gt;lightning_signer::SignerState::init_state -->
<g id="edge23" class="edge">
<title>lightning_signer::SignerState&#45;&gt;lightning_signer::SignerState::init_state</title>
<path fill="none" stroke="#000000" d="M596.98,-695.43C566.84,-730.83 529.84,-804.43 522.05,-845.95"/>
<polygon fill="#000000" stroke="#000000" points="518.56,-845.64 520.71,-856.01 525.5,-846.56 518.56,-845.64"/>
<text text-anchor="middle" x="547.02" y="-773.69" font-family="monospace" font-size="10.00">owns</text>
</g>
<!-- lightning_signer::SignerState::sign_new_tx -->
<g id="node13" class="node">
<title>lightning_signer::SignerState::sign_new_tx</title>
<polygon fill="#f8c04c" stroke="black" points="776.84,-694.68 776.84,-732.68 937.84,-732.68 937.84,-694.68 776.84,-694.68"/>
<text text-anchor="middle" x="857.34" y="-720.68" font-family="monospace" font-size="10.00">pub(crate) async fn</text>
<polyline fill="none" stroke="black" points="776.84,-713.68 937.84,-713.68 "/>
<text text-anchor="middle" x="857.34" y="-701.68" font-family="monospace" font-size="10.00">SignerState::sign_new_tx</text>
</g>
<!-- lightning_signer::SignerState&#45;&gt;lightning_signer::SignerState::sign_new_tx -->
<g id="edge24" class="edge">
<title>lightning_signer::SignerState&#45;&gt;lightning_signer::SignerState::sign_new_tx</title>
<path fill="none" stroke="#000000" d="M646.02,-695.37C671.75,-708.88 721.77,-720.52 766.69,-725.47"/>
<polygon fill="#000000" stroke="#000000" points="766.49,-728.97 776.78,-726.48 767.18,-722 766.49,-728.97"/>
<text text-anchor="middle" x="693.85" y="-713.42" font-family="monospace" font-size="10.00">owns</text>
</g>
<!-- lightning_signer::SignerState::sync_with_application -->
<g id="node14" class="node">
<title>lightning_signer::SignerState::sync_with_application</title>
<polygon fill="#f8c04c" stroke="black" points="612.24,-852.07 612.24,-890.07 833.24,-890.07 833.24,-852.07 612.24,-852.07"/>
<text text-anchor="middle" x="722.74" y="-878.07" font-family="monospace" font-size="10.00">pub(crate) async fn</text>
<polyline fill="none" stroke="black" points="612.24,-871.07 833.24,-871.07 "/>
<text text-anchor="middle" x="722.74" y="-859.07" font-family="monospace" font-size="10.00">SignerState::sync_with_application</text>
</g>
<!-- lightning_signer::SignerState&#45;&gt;lightning_signer::SignerState::sync_with_application -->
<g id="edge25" class="edge">
<title>lightning_signer::SignerState&#45;&gt;lightning_signer::SignerState::sync_with_application</title>
<path fill="none" stroke="#000000" d="M622.08,-695.61C623.71,-730.96 656.18,-803.8 685.62,-843.93"/>
<polygon fill="#000000" stroke="#000000" points="682.96,-846.2 691.85,-851.97 688.49,-841.92 682.96,-846.2"/>
<text text-anchor="middle" x="641.35" y="-772.77" font-family="monospace" font-size="10.00">owns</text>
</g>
<!-- lightning_signer::SignerState::init_state&#45;&gt;lightning_signer::SignerState -->
<g id="edge26" class="edge">
<title>lightning_signer::SignerState::init_state&#45;&gt;lightning_signer::SignerState</title>
<path fill="none" stroke="#7f7f7f" stroke-dasharray="5,2" d="M558.46,-855.9C588.6,-820.49 625.59,-746.9 633.39,-705.38"/>
<polygon fill="#7f7f7f" stroke="#7f7f7f" points="636.87,-705.69 634.73,-695.32 629.94,-704.76 636.87,-705.69"/>
<text text-anchor="middle" x="583.42" y="-783.64" font-family="monospace" font-size="10.00">uses</text>
</g>
<!-- lightning_signer::SignerState::sign_new_tx&#45;&gt;lightning_signer::PendingTransaction -->
<g id="edge27" class="edge">
<title>lightning_signer::SignerState::sign_new_tx&#45;&gt;lightning_signer::PendingTransaction</title>
<path fill="none" stroke="#7f7f7f" stroke-dasharray="5,2" d="M844.56,-694.49C825.95,-666.54 791.27,-614.48 769.88,-582.35"/>
<polygon fill="#7f7f7f" stroke="#7f7f7f" points="772.68,-580.24 764.22,-573.86 766.85,-584.12 772.68,-580.24"/>
<text text-anchor="middle" x="794.72" y="-641.42" font-family="monospace" font-size="10.00">uses</text>
</g>
<!-- lightning_signer::SignerState::sign_new_tx&#45;&gt;lightning_signer::SignerState -->
<g id="edge28" class="edge">
<title>lightning_signer::SignerState::sign_new_tx&#45;&gt;lightning_signer::SignerState</title>
<path fill="none" stroke="#7f7f7f" stroke-dasharray="5,2" d="M840.04,-694.58C810.25,-678.94 747.93,-665.82 698.63,-662.66"/>
<polygon fill="#7f7f7f" stroke="#7f7f7f" points="698.81,-659.16 688.64,-662.15 698.45,-666.15 698.81,-659.16"/>
<text text-anchor="middle" x="756.84" y="-681.62" font-family="monospace" font-size="10.00">uses</text>
</g>
<!-- lightning_signer::SignerState::sync_with_application&#45;&gt;lightning_signer::SignerState -->
<g id="edge29" class="edge">
<title>lightning_signer::SignerState::sync_with_application&#45;&gt;lightning_signer::SignerState</title>
<path fill="none" stroke="#7f7f7f" stroke-dasharray="5,2" d="M729.37,-851.73C727.75,-816.38 695.27,-743.54 665.83,-703.42"/>
<polygon fill="#7f7f7f" stroke="#7f7f7f" points="668.5,-701.14 659.61,-695.38 662.96,-705.43 668.5,-701.14"/>
<text text-anchor="middle" x="685.1" y="-780.57" font-family="monospace" font-size="10.00">uses</text>
</g>
<!-- lightning_signer::SignerWorker::Request -->
<g id="node16" class="node">
<title>lightning_signer::SignerWorker::Request</title>
<polygon fill="#f8c04c" stroke="black" points="765.55,-236.73 765.55,-274.73 908.55,-274.73 908.55,-236.73 765.55,-236.73"/>
<text text-anchor="middle" x="837.05" y="-262.73" font-family="monospace" font-size="10.00">pub(crate) type</text>
<polyline fill="none" stroke="black" points="765.55,-255.73 908.55,-255.73 "/>
<text text-anchor="middle" x="837.05" y="-243.73" font-family="monospace" font-size="10.00">SignerWorker::Request</text>
</g>
<!-- lightning_signer::SignerWorker&#45;&gt;lightning_signer::SignerWorker::Request -->
<g id="edge30" class="edge">
<title>lightning_signer::SignerWorker&#45;&gt;lightning_signer::SignerWorker::Request</title>
<path fill="none" stroke="#000000" d="M662.52,-273.25C690.66,-270.43 724.66,-267.01 755.15,-263.95"/>
<polygon fill="#000000" stroke="#000000" points="755.74,-267.41 765.34,-262.93 755.04,-260.44 755.74,-267.41"/>
<text text-anchor="middle" x="696.34" y="-271.6" font-family="monospace" font-size="10.00">owns</text>
</g>
<!-- lightning_signer::SignerWorker::Response -->
<g id="node17" class="node">
<title>lightning_signer::SignerWorker::Response</title>
<polygon fill="#f8c04c" stroke="black" points="693.09,-105.84 693.09,-143.84 842.09,-143.84 842.09,-105.84 693.09,-105.84"/>
<text text-anchor="middle" x="767.59" y="-131.84" font-family="monospace" font-size="10.00">pub(crate) type</text>
<polyline fill="none" stroke="black" points="693.09,-124.84 842.09,-124.84 "/>
<text text-anchor="middle" x="767.59" y="-112.84" font-family="monospace" font-size="10.00">SignerWorker::Response</text>
</g>
<!-- lightning_signer::SignerWorker&#45;&gt;lightning_signer::SignerWorker::Response -->
<g id="edge31" class="edge">
<title>lightning_signer::SignerWorker&#45;&gt;lightning_signer::SignerWorker::Response</title>
<path fill="none" stroke="#000000" d="M623.35,-260.01C652.74,-232.46 706.88,-181.73 739.82,-150.86"/>
<polygon fill="#000000" stroke="#000000" points="742.41,-153.23 747.31,-143.84 737.62,-148.13 742.41,-153.23"/>
<text text-anchor="middle" x="669.08" y="-208.43" font-family="monospace" font-size="10.00">owns</text>
</g>
<!-- lightning_signer::SignerWorker::handle -->
<g id="node18" class="node">
<title>lightning_signer::SignerWorker::handle</title>
<polygon fill="#f8c04c" stroke="black" points="564.53,-35.73 564.53,-73.73 701.53,-73.73 701.53,-35.73 564.53,-35.73"/>
<text text-anchor="middle" x="633.03" y="-61.73" font-family="monospace" font-size="10.00">pub(crate) async fn</text>
<polyline fill="none" stroke="black" points="564.53,-54.73 701.53,-54.73 "/>
<text text-anchor="middle" x="633.03" y="-42.73" font-family="monospace" font-size="10.00">SignerWorker::handle</text>
</g>
<!-- lightning_signer::SignerWorker&#45;&gt;lightning_signer::SignerWorker::handle -->
<g id="edge32" class="edge">
<title>lightning_signer::SignerWorker&#45;&gt;lightning_signer::SignerWorker::handle</title>
<path fill="none" stroke="#000000" d="M622.27,-259.95C640.89,-220.47 653.51,-130.51 647.51,-83.88"/>
<polygon fill="#000000" stroke="#000000" points="650.92,-83.07 645.76,-73.82 644.02,-84.27 650.92,-83.07"/>
<text text-anchor="middle" x="622.39" y="-174.92" font-family="monospace" font-size="10.00">owns</text>
</g>
<!-- lightning_signer::SignerWorker::handle&#45;&gt;lightning_signer::SignerWorker -->
<g id="edge33" class="edge">
<title>lightning_signer::SignerWorker::handle&#45;&gt;lightning_signer::SignerWorker</title>
<path fill="none" stroke="#7f7f7f" stroke-dasharray="5,2" d="M613.56,-74.03C594.95,-113.51 582.33,-203.47 588.33,-250.1"/>
<polygon fill="#7f7f7f" stroke="#7f7f7f" points="584.92,-250.91 590.08,-260.16 591.81,-249.71 584.92,-250.91"/>
<text text-anchor="middle" x="588.45" y="-165.06" font-family="monospace" font-size="10.00">uses</text>
</g>
<!-- lightning_signer::new_block_task&#45;&gt;lightning_signer::LazyNodeIndex -->
<g id="edge34" class="edge">
<title>lightning_signer::new_block_task&#45;&gt;lightning_signer::LazyNodeIndex</title>
<path fill="none" stroke="#7f7f7f" stroke-dasharray="5,2" d="M392.22,-445.23C371.17,-459.6 342.08,-479.45 319.12,-495.12"/>
<polygon fill="#7f7f7f" stroke="#7f7f7f" points="316.94,-492.38 310.66,-500.9 320.89,-498.16 316.94,-492.38"/>
<text text-anchor="middle" x="343.17" y="-473.18" font-family="monospace" font-size="10.00">uses</text>
</g>
<!-- lightning_signer::new_block_task&#45;&gt;lightning_signer::SignerWorker -->
<g id="edge35" class="edge">
<title>lightning_signer::new_block_task&#45;&gt;lightning_signer::SignerWorker</title>
<path fill="none" stroke="#7f7f7f" stroke-dasharray="5,2" d="M443.99,-406.99C476.54,-380.81 534.92,-333.85 571.11,-304.75"/>
<polygon fill="#7f7f7f" stroke="#7f7f7f" points="573.32,-307.46 578.92,-298.47 568.93,-302.01 573.32,-307.46"/>
<text text-anchor="middle" x="495.05" y="-358.87" font-family="monospace" font-size="10.00">uses</text>
</g>
</g>
</svg>
