<?xml version="1.0" encoding="UTF-8" standalone="no"?>
<!DOCTYPE svg PUBLIC "-//W3C//DTD SVG 1.1//EN"
 "http://www.w3.org/Graphics/SVG/1.1/DTD/svg11.dtd">
<!-- Generated by graphviz version 4.0.0 (0)
 -->
<!-- Pages: 1 -->
<svg width="1167pt" height="1624pt"
 viewBox="0.00 0.00 1166.60 1623.60" xmlns="http://www.w3.org/2000/svg" xmlns:xlink="http://www.w3.org/1999/xlink">
<g id="graph0" class="graph" transform="scale(1 1) rotate(0) translate(28.8 1594.8)">
<polygon fill="white" stroke="transparent" points="-28.8,28.8 -28.8,-1594.8 1137.8,-1594.8 1137.8,28.8 -28.8,28.8"/>
<text text-anchor="middle" x="554.5" y="-1533.2" font-family="Helvetica,sans-Serif" font-size="36.00">lightning_reputation</text>
<!-- lightning_reputation -->
<g id="node1" class="node">
<title>lightning_reputation</title>
<polygon fill="#5397c8" stroke="black" points="0,-461.5 0,-499.5 137,-499.5 137,-461.5 0,-461.5"/>
<text text-anchor="middle" x="68.5" y="-487.5" font-family="monospace" font-size="10.00">crate</text>
<polyline fill="none" stroke="black" points="0,-480.5 137,-480.5 "/>
<text text-anchor="middle" x="68.5" y="-468.5" font-family="monospace" font-size="10.00">lightning_reputation</text>
</g>
<!-- lightning_reputation::statistics -->
<g id="node2" class="node">
<title>lightning_reputation::statistics</title>
<polygon fill="#81c169" stroke="black" points="900,-1479.5 900,-1517.5 1109,-1517.5 1109,-1479.5 900,-1479.5"/>
<text text-anchor="middle" x="1004.5" y="-1505.5" font-family="monospace" font-size="10.00">pub mod</text>
<polyline fill="none" stroke="black" points="900,-1498.5 1109,-1498.5 "/>
<text text-anchor="middle" x="1004.5" y="-1486.5" font-family="monospace" font-size="10.00">lightning_reputation::statistics</text>
</g>
<!-- lightning_reputation&#45;&gt;lightning_reputation::statistics -->
<g id="edge1" class="edge">
<title>lightning_reputation&#45;&gt;lightning_reputation::statistics</title>
<path fill="none" stroke="#000000" d="M83.81,-499.68C161.25,-596.67 506,-1028.5 506,-1028.5 506,-1028.5 872.51,-1374.05 977,-1472.57"/>
<polygon fill="#000000" stroke="#000000" points="974.66,-1475.18 984.34,-1479.49 979.47,-1470.09 974.66,-1475.18"/>
<text text-anchor="middle" x="518.5" y="-1031.5" font-family="monospace" font-size="10.00">owns</text>
</g>
<!-- lightning_reputation::types -->
<g id="node3" class="node">
<title>lightning_reputation::types</title>
<polygon fill="#81c169" stroke="black" points="915,-0.5 915,-38.5 1094,-38.5 1094,-0.5 915,-0.5"/>
<text text-anchor="middle" x="1004.5" y="-26.5" font-family="monospace" font-size="10.00">pub mod</text>
<polyline fill="none" stroke="black" points="915,-19.5 1094,-19.5 "/>
<text text-anchor="middle" x="1004.5" y="-7.5" font-family="monospace" font-size="10.00">lightning_reputation::types</text>
</g>
<!-- lightning_reputation&#45;&gt;lightning_reputation::types -->
<g id="edge2" class="edge">
<title>lightning_reputation&#45;&gt;lightning_reputation::types</title>
<path fill="none" stroke="#000000" d="M137.34,-468.38C260.55,-446.7 506,-403.5 506,-403.5 506,-403.5 860.48,-130.44 971.6,-44.84"/>
<polygon fill="#000000" stroke="#000000" points="973.99,-47.42 979.78,-38.54 969.72,-41.87 973.99,-47.42"/>
<text text-anchor="middle" x="518.5" y="-406.5" font-family="monospace" font-size="10.00">owns</text>
</g>
<!-- lightning_reputation&#45;&gt;lightning_reputation::types -->
<g id="edge3" class="edge">
<title>lightning_reputation&#45;&gt;lightning_reputation::types</title>
<path fill="none" stroke="#7f7f7f" stroke-dasharray="5,2" d="M108.33,-461.47C220.52,-407.86 531,-259.5 531,-259.5 531,-259.5 838.71,-103.53 958.02,-43.06"/>
<polygon fill="#7f7f7f" stroke="#7f7f7f" points="959.61,-46.18 966.95,-38.53 956.45,-39.93 959.61,-46.18"/>
<text text-anchor="middle" x="518.5" y="-251.5" font-family="monospace" font-size="10.00">uses</text>
</g>
<!-- lightning_reputation::statistics&#45;&gt;lightning_reputation::types -->
<g id="edge4" class="edge">
<title>lightning_reputation::statistics&#45;&gt;lightning_reputation::types</title>
</g>
<!-- lightning_reputation::types&#45;&gt;lightning_reputation::statistics -->
<g id="edge5" class="edge">
<title>lightning_reputation::types&#45;&gt;lightning_reputation::statistics</title>
</g>
</g>
</svg>
