<?xml version="1.0" encoding="UTF-8" standalone="no"?>
<!DOCTYPE svg PUBLIC "-//W3C//DTD SVG 1.1//EN"
 "http://www.w3.org/Graphics/SVG/1.1/DTD/svg11.dtd">
<!-- Generated by graphviz version 4.0.0 (0)
 -->
<!-- Pages: 1 -->
<svg width="1167pt" height="1624pt"
 viewBox="0.00 0.00 1166.60 1623.60" xmlns="http://www.w3.org/2000/svg" xmlns:xlink="http://www.w3.org/1999/xlink">
<g id="graph0" class="graph" transform="scale(1 1) rotate(0) translate(28.8 1594.8)">
<polygon fill="white" stroke="transparent" points="-28.8,28.8 -28.8,-1594.8 1137.8,-1594.8 1137.8,28.8 -28.8,28.8"/>
<text text-anchor="middle" x="554.5" y="-1533.2" font-family="Helvetica,sans-Serif" font-size="36.00">lightning_pinger</text>
<!-- lightning_metrics::histogram -->
<g id="node1" class="node">
<title>lightning_metrics::histogram</title>
<polygon fill="#81c169" stroke="black" points="0,-885.5 0,-923.5 185,-923.5 185,-885.5 0,-885.5"/>
<text text-anchor="middle" x="92.5" y="-911.5" font-family="monospace" font-size="10.00">external mod</text>
<polyline fill="none" stroke="black" points="0,-904.5 185,-904.5 "/>
<text text-anchor="middle" x="92.5" y="-892.5" font-family="monospace" font-size="10.00">lightning_metrics::histogram</text>
</g>
<!-- lightning_pinger -->
<g id="node2" class="node">
<title>lightning_pinger</title>
<polygon fill="#5397c8" stroke="black" points="36,-635.5 36,-673.5 149,-673.5 149,-635.5 36,-635.5"/>
<text text-anchor="middle" x="92.5" y="-661.5" font-family="monospace" font-size="10.00">crate</text>
<polyline fill="none" stroke="black" points="36,-654.5 149,-654.5 "/>
<text text-anchor="middle" x="92.5" y="-642.5" font-family="monospace" font-size="10.00">lightning_pinger</text>
</g>
<!-- lightning_pinger::config -->
<g id="node3" class="node">
<title>lightning_pinger::config</title>
<polygon fill="#81c169" stroke="black" points="948,-1479.5 948,-1517.5 1109,-1517.5 1109,-1479.5 948,-1479.5"/>
<text text-anchor="middle" x="1028.5" y="-1505.5" font-family="monospace" font-size="10.00">pub mod</text>
<polyline fill="none" stroke="black" points="948,-1498.5 1109,-1498.5 "/>
<text text-anchor="middle" x="1028.5" y="-1486.5" font-family="monospace" font-size="10.00">lightning_pinger::config</text>
</g>
<!-- lightning_pinger&#45;&gt;lightning_pinger::config -->
<g id="edge1" class="edge">
<title>lightning_pinger&#45;&gt;lightning_pinger::config</title>
<path fill="none" stroke="#000000" d="M105.81,-673.8C181.48,-783.49 554,-1323.5 554,-1323.5 554,-1323.5 838.8,-1428.54 967.12,-1475.86"/>
<polygon fill="#000000" stroke="#000000" points="966.22,-1479.26 976.82,-1479.44 968.65,-1472.69 966.22,-1479.26"/>
<text text-anchor="middle" x="566.5" y="-1326.5" font-family="monospace" font-size="10.00">owns</text>
</g>
<!-- lightning_pinger&#45;&gt;lightning_pinger::config -->
<g id="edge2" class="edge">
<title>lightning_pinger&#45;&gt;lightning_pinger::config</title>
<path fill="none" stroke="#7f7f7f" stroke-dasharray="5,2" d="M119,-673.62C220.52,-746.87 579,-1005.5 579,-1005.5 579,-1005.5 911.02,-1369.65 1004.36,-1472.02"/>
<polygon fill="#7f7f7f" stroke="#7f7f7f" points="1001.83,-1474.44 1011.15,-1479.48 1007,-1469.73 1001.83,-1474.44"/>
<text text-anchor="middle" x="566.5" y="-997.5" font-family="monospace" font-size="10.00">uses</text>
</g>
<!-- lightning_pinger::pinger -->
<g id="node4" class="node">
<title>lightning_pinger::pinger</title>
<polygon fill="#81c169" stroke="black" points="948,-0.5 948,-38.5 1109,-38.5 1109,-0.5 948,-0.5"/>
<text text-anchor="middle" x="1028.5" y="-26.5" font-family="monospace" font-size="10.00">pub mod</text>
<polyline fill="none" stroke="black" points="948,-19.5 1109,-19.5 "/>
<text text-anchor="middle" x="1028.5" y="-7.5" font-family="monospace" font-size="10.00">lightning_pinger::pinger</text>
</g>
<!-- lightning_pinger&#45;&gt;lightning_pinger::pinger -->
<g id="edge3" class="edge">
<title>lightning_pinger&#45;&gt;lightning_pinger::pinger</title>
<path fill="none" stroke="#000000" d="M146.34,-635.37C268.08,-592.1 554,-490.5 554,-490.5 554,-490.5 902.16,-144.91 1002.02,-45.78"/>
<polygon fill="#000000" stroke="#000000" points="1004.68,-48.08 1009.31,-38.55 999.75,-43.11 1004.68,-48.08"/>
<text text-anchor="middle" x="566.5" y="-493.5" font-family="monospace" font-size="10.00">owns</text>
</g>
<!-- lightning_pinger&#45;&gt;lightning_pinger::pinger -->
<g id="edge4" class="edge">
<title>lightning_pinger&#45;&gt;lightning_pinger::pinger</title>
<path fill="none" stroke="#7f7f7f" stroke-dasharray="5,2" d="M120.33,-635.26C220.11,-566.3 554,-335.5 554,-335.5 554,-335.5 879.43,-118.77 991.28,-44.29"/>
<polygon fill="#7f7f7f" stroke="#7f7f7f" points="993.5,-47.01 999.89,-38.56 989.62,-41.19 993.5,-47.01"/>
<text text-anchor="middle" x="566.5" y="-338.5" font-family="monospace" font-size="10.00">uses</text>
</g>
<!-- lightning_pinger::pinger&#45;&gt;lightning_metrics::histogram -->
<g id="edge5" class="edge">
<title>lightning_pinger::pinger&#45;&gt;lightning_metrics::histogram</title>
<path fill="none" stroke="#7f7f7f" stroke-dasharray="5,2" d="M1022.24,-38.75C966.28,-210.83 554,-1478.5 554,-1478.5 554,-1478.5 205.59,-1045.16 114.22,-931.52"/>
<polygon fill="#7f7f7f" stroke="#7f7f7f" points="116.85,-929.2 107.85,-923.6 111.39,-933.58 116.85,-929.2"/>
<text text-anchor="middle" x="566.5" y="-1481.5" font-family="monospace" font-size="10.00">uses</text>
</g>
<!-- lightning_pinger::pinger&#45;&gt;lightning_pinger::config -->
<g id="edge6" class="edge">
<title>lightning_pinger::pinger&#45;&gt;lightning_pinger::config</title>
</g>
<!-- tokio::sync::mpsc -->
<g id="node5" class="node">
<title>tokio::sync::mpsc</title>
<polygon fill="#81c169" stroke="black" points="33,-501.5 33,-539.5 152,-539.5 152,-501.5 33,-501.5"/>
<text text-anchor="middle" x="92.5" y="-527.5" font-family="monospace" font-size="10.00">external mod</text>
<polyline fill="none" stroke="black" points="33,-520.5 152,-520.5 "/>
<text text-anchor="middle" x="92.5" y="-508.5" font-family="monospace" font-size="10.00">tokio::sync::mpsc</text>
</g>
<!-- lightning_pinger::pinger&#45;&gt;tokio::sync::mpsc -->
<g id="edge7" class="edge">
<title>lightning_pinger::pinger&#45;&gt;tokio::sync::mpsc</title>
<path fill="none" stroke="#7f7f7f" stroke-dasharray="5,2" d="M978.68,-38.56C861.65,-83.35 579,-191.5 579,-191.5 579,-191.5 242.36,-419.16 129.14,-495.72"/>
<polygon fill="#7f7f7f" stroke="#7f7f7f" points="127.08,-492.89 120.76,-501.39 131,-498.69 127.08,-492.89"/>
<text text-anchor="middle" x="566.5" y="-183.5" font-family="monospace" font-size="10.00">uses</text>
</g>
</g>
</svg>
