<?xml version="1.0" encoding="UTF-8" standalone="no"?>
<!DOCTYPE svg PUBLIC "-//W3C//DTD SVG 1.1//EN"
 "http://www.w3.org/Graphics/SVG/1.1/DTD/svg11.dtd">
<!-- Generated by graphviz version 4.0.0 (0)
 -->
<!-- Pages: 1 -->
<svg width="572pt" height="380pt"
 viewBox="0.00 0.00 572.25 380.29" xmlns="http://www.w3.org/2000/svg" xmlns:xlink="http://www.w3.org/1999/xlink">
<g id="graph0" class="graph" transform="scale(1 1) rotate(0) translate(28.8 351.49)">
<polygon fill="white" stroke="transparent" points="-28.8,28.8 -28.8,-351.49 543.45,-351.49 543.45,28.8 -28.8,28.8"/>
<text text-anchor="middle" x="257.33" y="-289.89" font-family="Helvetica,sans-Serif" font-size="36.00">lightning_origin_http</text>
<!-- fdi -->
<g id="node1" class="node">
<title>fdi</title>
<polygon fill="#5397c8" stroke="black" points="0,-118.35 0,-156.35 101,-156.35 101,-118.35 0,-118.35"/>
<text text-anchor="middle" x="50.5" y="-144.35" font-family="monospace" font-size="10.00">external crate</text>
<polyline fill="none" stroke="black" points="0,-137.35 101,-137.35 "/>
<text text-anchor="middle" x="50.5" y="-125.35" font-family="monospace" font-size="10.00">fdi</text>
</g>
<!-- lightning_origin_http -->
<g id="node2" class="node">
<title>lightning_origin_http</title>
<polygon fill="#5397c8" stroke="black" points="250.64,-118.35 250.64,-156.35 393.64,-156.35 393.64,-118.35 250.64,-118.35"/>
<text text-anchor="middle" x="322.14" y="-144.35" font-family="monospace" font-size="10.00">crate</text>
<polyline fill="none" stroke="black" points="250.64,-137.35 393.64,-137.35 "/>
<text text-anchor="middle" x="322.14" y="-125.35" font-family="monospace" font-size="10.00">lightning_origin_http</text>
</g>
<!-- lightning_origin_http&#45;&gt;fdi -->
<g id="edge1" class="edge">
<title>lightning_origin_http&#45;&gt;fdi</title>
<path fill="none" stroke="#7f7f7f" stroke-dasharray="5,2" d="M250.41,-137.35C207.09,-137.35 152.47,-137.35 111.28,-137.35"/>
<polygon fill="#7f7f7f" stroke="#7f7f7f" points="111.11,-133.85 101.11,-137.35 111.11,-140.85 111.11,-133.85"/>
<text text-anchor="middle" x="168.35" y="-140.35" font-family="monospace" font-size="10.00">uses</text>
</g>
<!-- lightning_origin_http::config -->
<g id="node3" class="node">
<title>lightning_origin_http::config</title>
<polygon fill="#f8c04c" stroke="black" points="158.73,-0.5 158.73,-38.5 349.73,-38.5 349.73,-0.5 158.73,-0.5"/>
<text text-anchor="middle" x="254.23" y="-26.5" font-family="monospace" font-size="10.00">pub(crate) mod</text>
<polyline fill="none" stroke="black" points="158.73,-19.5 349.73,-19.5 "/>
<text text-anchor="middle" x="254.23" y="-7.5" font-family="monospace" font-size="10.00">lightning_origin_http::config</text>
</g>
<!-- lightning_origin_http&#45;&gt;lightning_origin_http::config -->
<g id="edge2" class="edge">
<title>lightning_origin_http&#45;&gt;lightning_origin_http::config</title>
<path fill="none" stroke="#000000" d="M330.13,-118.26C329.62,-98.36 316,-68.53 299.46,-46.52"/>
<polygon fill="#000000" stroke="#000000" points="302,-44.09 293.01,-38.5 296.55,-48.49 302,-44.09"/>
<text text-anchor="middle" x="302.3" y="-85.39" font-family="monospace" font-size="10.00">owns</text>
</g>
<!-- lightning_origin_http&#45;&gt;lightning_origin_http::config -->
<g id="edge3" class="edge">
<title>lightning_origin_http&#45;&gt;lightning_origin_http::config</title>
<path fill="none" stroke="#7f7f7f" stroke-dasharray="5,2" d="M283.19,-118.14C266.71,-99.06 251.76,-70.69 247.46,-48.88"/>
<polygon fill="#7f7f7f" stroke="#7f7f7f" points="250.91,-48.29 246.25,-38.78 243.96,-49.12 250.91,-48.29"/>
<text text-anchor="middle" x="252.82" y="-86.51" font-family="monospace" font-size="10.00">uses</text>
</g>
<!-- lightning_schema -->
<g id="node4" class="node">
<title>lightning_schema</title>
<polygon fill="#5397c8" stroke="black" points="401.65,-118.73 401.65,-156.73 514.65,-156.73 514.65,-118.73 401.65,-118.73"/>
<text text-anchor="middle" x="458.15" y="-144.73" font-family="monospace" font-size="10.00">external crate</text>
<polyline fill="none" stroke="black" points="401.65,-137.73 514.65,-137.73 "/>
<text text-anchor="middle" x="458.15" y="-125.73" font-family="monospace" font-size="10.00">lightning_schema</text>
</g>
<!-- lightning_origin_http&#45;&gt;lightning_schema -->
<g id="edge4" class="edge">
<title>lightning_origin_http&#45;&gt;lightning_schema</title>
<path fill="none" stroke="#7f7f7f" stroke-dasharray="5,2" d="M393.73,-137.55C393.89,-137.55 394.05,-137.55 394.21,-137.55"/>
<polygon fill="#7f7f7f" stroke="#7f7f7f" points="391.37,-141.04 401.38,-137.57 391.39,-134.04 391.37,-141.04"/>
<text text-anchor="middle" x="406.47" y="-140.55" font-family="monospace" font-size="10.00">uses</text>
</g>
<!-- lightning_types -->
<g id="node5" class="node">
<title>lightning_types</title>
<polygon fill="#5397c8" stroke="black" points="200.73,-236.19 200.73,-274.19 307.73,-274.19 307.73,-236.19 200.73,-236.19"/>
<text text-anchor="middle" x="254.23" y="-262.19" font-family="monospace" font-size="10.00">external crate</text>
<polyline fill="none" stroke="black" points="200.73,-255.19 307.73,-255.19 "/>
<text text-anchor="middle" x="254.23" y="-243.19" font-family="monospace" font-size="10.00">lightning_types</text>
</g>
<!-- lightning_origin_http&#45;&gt;lightning_types -->
<g id="edge5" class="edge">
<title>lightning_origin_http&#45;&gt;lightning_types</title>
<path fill="none" stroke="#7f7f7f" stroke-dasharray="5,2" d="M311.08,-156.54C300.03,-175.72 282.92,-205.4 270.36,-227.2"/>
<polygon fill="#7f7f7f" stroke="#7f7f7f" points="267.25,-225.59 265.29,-236.01 273.31,-229.09 267.25,-225.59"/>
<text text-anchor="middle" x="278.22" y="-194.87" font-family="monospace" font-size="10.00">uses</text>
</g>
</g>
</svg>
