<?xml version="1.0" encoding="UTF-8" standalone="no"?>
<!DOCTYPE svg PUBLIC "-//W3C//DTD SVG 1.1//EN"
 "http://www.w3.org/Graphics/SVG/1.1/DTD/svg11.dtd">
<!-- Generated by graphviz version 4.0.0 (0)
 -->
<!-- Pages: 1 -->
<svg width="1009pt" height="683pt"
 viewBox="0.00 0.00 1008.60 682.60" xmlns="http://www.w3.org/2000/svg" xmlns:xlink="http://www.w3.org/1999/xlink">
<g id="graph0" class="graph" transform="scale(1 1) rotate(0) translate(28.8 653.8)">
<polygon fill="white" stroke="transparent" points="-28.8,28.8 -28.8,-653.8 979.8,-653.8 979.8,28.8 -28.8,28.8"/>
<text text-anchor="middle" x="475.5" y="-592.2" font-family="Helvetica,sans-Serif" font-size="36.00">lightning_pinger</text>
<!-- lightning_pinger -->
<g id="node1" class="node">
<title>lightning_pinger</title>
<polygon fill="#5397c8" stroke="black" points="391.08,-250.5 391.08,-288.5 504.08,-288.5 504.08,-250.5 391.08,-250.5"/>
<text text-anchor="middle" x="447.58" y="-276.5" font-family="monospace" font-size="10.00">crate</text>
<polyline fill="none" stroke="black" points="391.08,-269.5 504.08,-269.5 "/>
<text text-anchor="middle" x="447.58" y="-257.5" font-family="monospace" font-size="10.00">lightning_pinger</text>
</g>
<!-- lightning_pinger::config::Config -->
<g id="node2" class="node">
<title>lightning_pinger::config::Config</title>
<polygon fill="#81c169" stroke="black" points="463.71,-373.61 463.71,-411.61 564.71,-411.61 564.71,-373.61 463.71,-373.61"/>
<text text-anchor="middle" x="514.21" y="-399.61" font-family="monospace" font-size="10.00">pub struct</text>
<polyline fill="none" stroke="black" points="463.71,-392.61 564.71,-392.61 "/>
<text text-anchor="middle" x="514.21" y="-380.61" font-family="monospace" font-size="10.00">config::Config</text>
</g>
<!-- lightning_pinger&#45;&gt;lightning_pinger::config::Config -->
<g id="edge1" class="edge">
<title>lightning_pinger&#45;&gt;lightning_pinger::config::Config</title>
<path fill="none" stroke="#000000" d="M439.26,-288.69C439.48,-309.68 453.59,-342.01 470.61,-365.35"/>
<polygon fill="#000000" stroke="#000000" points="468.07,-367.79 476.98,-373.51 473.58,-363.48 468.07,-367.79"/>
<text text-anchor="middle" x="442.43" y="-330.02" font-family="monospace" font-size="10.00">owns</text>
</g>
<!-- lightning_pinger&#45;&gt;lightning_pinger::config::Config -->
<g id="edge2" class="edge">
<title>lightning_pinger&#45;&gt;lightning_pinger::config::Config</title>
<path fill="none" stroke="#7f7f7f" stroke-dasharray="5,2" d="M484.86,-288.67C501.94,-308.96 517.54,-340.1 521.54,-363.36"/>
<polygon fill="#7f7f7f" stroke="#7f7f7f" points="518.07,-363.82 522.53,-373.43 525.04,-363.14 518.07,-363.82"/>
<text text-anchor="middle" x="490.7" y="-329.01" font-family="monospace" font-size="10.00">uses</text>
</g>
<!-- lightning_pinger::pinger::Message -->
<g id="node3" class="node">
<title>lightning_pinger::pinger::Message</title>
<polygon fill="#db5367" stroke="black" points="555.11,-114.27 555.11,-152.27 662.11,-152.27 662.11,-114.27 555.11,-114.27"/>
<text text-anchor="middle" x="608.61" y="-140.27" font-family="monospace" font-size="10.00">pub(self) enum</text>
<polyline fill="none" stroke="black" points="555.11,-133.27 662.11,-133.27 "/>
<text text-anchor="middle" x="608.61" y="-121.27" font-family="monospace" font-size="10.00">pinger::Message</text>
</g>
<!-- lightning_pinger&#45;&gt;lightning_pinger::pinger::Message -->
<g id="edge3" class="edge">
<title>lightning_pinger&#45;&gt;lightning_pinger::pinger::Message</title>
<path fill="none" stroke="#000000" d="M470.31,-250.27C498.48,-226.44 546.6,-185.72 578,-159.16"/>
<polygon fill="#000000" stroke="#000000" points="580.62,-161.53 585.99,-152.4 576.1,-156.19 580.62,-161.53"/>
<text text-anchor="middle" x="511.66" y="-207.72" font-family="monospace" font-size="10.00">owns</text>
</g>
<!-- lightning_pinger::pinger::Pinger -->
<g id="node4" class="node">
<title>lightning_pinger::pinger::Pinger</title>
<polygon fill="#81c169" stroke="black" points="192.33,-208.51 192.33,-246.51 293.33,-246.51 293.33,-208.51 192.33,-208.51"/>
<text text-anchor="middle" x="242.83" y="-234.51" font-family="monospace" font-size="10.00">pub struct</text>
<polyline fill="none" stroke="black" points="192.33,-227.51 293.33,-227.51 "/>
<text text-anchor="middle" x="242.83" y="-215.51" font-family="monospace" font-size="10.00">pinger::Pinger</text>
</g>
<!-- lightning_pinger&#45;&gt;lightning_pinger::pinger::Pinger -->
<g id="edge4" class="edge">
<title>lightning_pinger&#45;&gt;lightning_pinger::pinger::Pinger</title>
<path fill="none" stroke="#000000" d="M433.32,-250.32C406.76,-233.66 348.75,-218.89 303.65,-215.12"/>
<polygon fill="#000000" stroke="#000000" points="303.86,-211.63 293.65,-214.46 303.4,-218.61 303.86,-211.63"/>
<text text-anchor="middle" x="355.98" y="-235.72" font-family="monospace" font-size="10.00">owns</text>
</g>
<!-- lightning_pinger&#45;&gt;lightning_pinger::pinger::Pinger -->
<g id="edge5" class="edge">
<title>lightning_pinger&#45;&gt;lightning_pinger::pinger::Pinger</title>
<path fill="none" stroke="#7f7f7f" stroke-dasharray="5,2" d="M390.86,-282.21C349.56,-279.33 295.86,-266.64 265.74,-251.52"/>
<polygon fill="#7f7f7f" stroke="#7f7f7f" points="267.28,-248.36 256.84,-246.53 263.86,-254.47 267.28,-248.36"/>
<text text-anchor="middle" x="315.8" y="-269.86" font-family="monospace" font-size="10.00">uses</text>
</g>
<!-- lightning_pinger::pinger::PingerInner -->
<g id="node10" class="node">
<title>lightning_pinger::pinger::PingerInner</title>
<polygon fill="#db5367" stroke="black" points="512.89,-289.65 512.89,-327.65 643.89,-327.65 643.89,-289.65 512.89,-289.65"/>
<text text-anchor="middle" x="578.39" y="-315.65" font-family="monospace" font-size="10.00">pub(self) struct</text>
<polyline fill="none" stroke="black" points="512.89,-308.65 643.89,-308.65 "/>
<text text-anchor="middle" x="578.39" y="-296.65" font-family="monospace" font-size="10.00">pinger::PingerInner</text>
</g>
<!-- lightning_pinger&#45;&gt;lightning_pinger::pinger::PingerInner -->
<g id="edge6" class="edge">
<title>lightning_pinger&#45;&gt;lightning_pinger::pinger::PingerInner</title>
<path fill="none" stroke="#000000" d="M504.19,-286.44C504.41,-286.51 504.63,-286.57 504.84,-286.64"/>
<polygon fill="#000000" stroke="#000000" points="504.03,-290.05 514.61,-289.56 506.03,-283.34 504.03,-290.05"/>
<text text-anchor="middle" x="517.02" y="-278.54" font-family="monospace" font-size="10.00">owns</text>
</g>
<!-- lightning_pinger::pinger::Pinger::Config -->
<g id="node5" class="node">
<title>lightning_pinger::pinger::Pinger::Config</title>
<polygon fill="#db5367" stroke="black" points="386.75,-121.42 386.75,-159.42 535.75,-159.42 535.75,-121.42 386.75,-121.42"/>
<text text-anchor="middle" x="461.25" y="-147.42" font-family="monospace" font-size="10.00">pub(self) type</text>
<polyline fill="none" stroke="black" points="386.75,-140.42 535.75,-140.42 "/>
<text text-anchor="middle" x="461.25" y="-128.42" font-family="monospace" font-size="10.00">pinger::Pinger::Config</text>
</g>
<!-- lightning_pinger::pinger::Pinger&#45;&gt;lightning_pinger::pinger::Pinger::Config -->
<g id="edge7" class="edge">
<title>lightning_pinger::pinger::Pinger&#45;&gt;lightning_pinger::pinger::Pinger::Config</title>
<path fill="none" stroke="#000000" d="M290.49,-208.51C323.76,-195.24 368.35,-177.46 403.63,-163.4"/>
<polygon fill="#000000" stroke="#000000" points="405.32,-166.49 413.31,-159.54 402.72,-159.99 405.32,-166.49"/>
<text text-anchor="middle" x="334.56" y="-188.95" font-family="monospace" font-size="10.00">owns</text>
</g>
<!-- lightning_pinger::pinger::Pinger::init -->
<g id="node6" class="node">
<title>lightning_pinger::pinger::Pinger::init</title>
<polygon fill="#db5367" stroke="black" points="318.69,-402.96 318.69,-440.96 455.69,-440.96 455.69,-402.96 318.69,-402.96"/>
<text text-anchor="middle" x="387.19" y="-428.96" font-family="monospace" font-size="10.00">pub(self) fn</text>
<polyline fill="none" stroke="black" points="318.69,-421.96 455.69,-421.96 "/>
<text text-anchor="middle" x="387.19" y="-409.96" font-family="monospace" font-size="10.00">pinger::Pinger::init</text>
</g>
<!-- lightning_pinger::pinger::Pinger&#45;&gt;lightning_pinger::pinger::Pinger::init -->
<g id="edge8" class="edge">
<title>lightning_pinger::pinger::Pinger&#45;&gt;lightning_pinger::pinger::Pinger::init</title>
<path fill="none" stroke="#000000" d="M240.37,-246.86C249.2,-282.8 299.59,-355.57 339.93,-395.62"/>
<polygon fill="#000000" stroke="#000000" points="337.69,-398.31 347.33,-402.7 342.53,-393.26 337.69,-398.31"/>
<text text-anchor="middle" x="277.65" y="-324.24" font-family="monospace" font-size="10.00">owns</text>
</g>
<!-- lightning_pinger::pinger::Pinger::is_running -->
<g id="node7" class="node">
<title>lightning_pinger::pinger::Pinger::is_running</title>
<polygon fill="#db5367" stroke="black" points="33.8,-350.75 33.8,-388.75 206.8,-388.75 206.8,-350.75 33.8,-350.75"/>
<text text-anchor="middle" x="120.3" y="-376.75" font-family="monospace" font-size="10.00">pub(self) fn</text>
<polyline fill="none" stroke="black" points="33.8,-369.75 206.8,-369.75 "/>
<text text-anchor="middle" x="120.3" y="-357.75" font-family="monospace" font-size="10.00">pinger::Pinger::is_running</text>
</g>
<!-- lightning_pinger::pinger::Pinger&#45;&gt;lightning_pinger::pinger::Pinger::is_running -->
<g id="edge9" class="edge">
<title>lightning_pinger::pinger::Pinger&#45;&gt;lightning_pinger::pinger::Pinger::is_running</title>
<path fill="none" stroke="#000000" d="M195.35,-246.6C165.95,-271.5 132.92,-312.57 120.98,-341.11"/>
<polygon fill="#000000" stroke="#000000" points="117.65,-340.04 117.68,-350.63 124.26,-342.33 117.65,-340.04"/>
<text text-anchor="middle" x="145.67" y="-296.85" font-family="monospace" font-size="10.00">owns</text>
</g>
<!-- lightning_pinger::pinger::Pinger::shutdown -->
<g id="node8" class="node">
<title>lightning_pinger::pinger::Pinger::shutdown</title>
<polygon fill="#db5367" stroke="black" points="165.17,-0.12 165.17,-38.12 326.17,-38.12 326.17,-0.12 165.17,-0.12"/>
<text text-anchor="middle" x="245.67" y="-26.12" font-family="monospace" font-size="10.00">pub(self) async fn</text>
<polyline fill="none" stroke="black" points="165.17,-19.12 326.17,-19.12 "/>
<text text-anchor="middle" x="245.67" y="-7.12" font-family="monospace" font-size="10.00">pinger::Pinger::shutdown</text>
</g>
<!-- lightning_pinger::pinger::Pinger&#45;&gt;lightning_pinger::pinger::Pinger::shutdown -->
<g id="edge10" class="edge">
<title>lightning_pinger::pinger::Pinger&#45;&gt;lightning_pinger::pinger::Pinger::shutdown</title>
<path fill="none" stroke="#000000" d="M259.54,-208.51C273.1,-171.84 275.14,-91.15 264.54,-47.87"/>
<polygon fill="#000000" stroke="#000000" points="267.89,-46.86 261.74,-38.23 261.16,-48.81 267.89,-46.86"/>
<text text-anchor="middle" x="249.54" y="-131.19" font-family="monospace" font-size="10.00">owns</text>
</g>
<!-- lightning_pinger::pinger::Pinger::start -->
<g id="node9" class="node">
<title>lightning_pinger::pinger::Pinger::start</title>
<polygon fill="#db5367" stroke="black" points="0.1,-135.93 0.1,-173.93 143.1,-173.93 143.1,-135.93 0.1,-135.93"/>
<text text-anchor="middle" x="71.6" y="-161.93" font-family="monospace" font-size="10.00">pub(self) async fn</text>
<polyline fill="none" stroke="black" points="0.1,-154.93 143.1,-154.93 "/>
<text text-anchor="middle" x="71.6" y="-142.93" font-family="monospace" font-size="10.00">pinger::Pinger::start</text>
</g>
<!-- lightning_pinger::pinger::Pinger&#45;&gt;lightning_pinger::pinger::Pinger::start -->
<g id="edge11" class="edge">
<title>lightning_pinger::pinger::Pinger&#45;&gt;lightning_pinger::pinger::Pinger::start</title>
<path fill="none" stroke="#000000" d="M235.85,-208.16C220.8,-191.64 186.25,-172.81 152.61,-160.35"/>
<polygon fill="#000000" stroke="#000000" points="153.77,-157.04 143.17,-157.01 151.43,-163.64 153.77,-157.04"/>
<text text-anchor="middle" x="181.73" y="-187.26" font-family="monospace" font-size="10.00">owns</text>
</g>
<!-- lightning_pinger::pinger::Pinger::Config&#45;&gt;lightning_pinger::config::Config -->
<g id="edge12" class="edge">
<title>lightning_pinger::pinger::Pinger::Config&#45;&gt;lightning_pinger::config::Config</title>
<path fill="none" stroke="#7f7f7f" stroke-dasharray="5,2" d="M465.31,-159.79C474.56,-203.82 497.19,-311.6 508.11,-363.6"/>
<polygon fill="#7f7f7f" stroke="#7f7f7f" points="504.72,-364.45 510.2,-373.52 511.57,-363.01 504.72,-364.45"/>
<text text-anchor="middle" x="499.21" y="-264.7" font-family="monospace" font-size="10.00">uses</text>
</g>
<!-- lightning_pinger::pinger::Pinger::init&#45;&gt;lightning_pinger::config::Config -->
<g id="edge13" class="edge">
<title>lightning_pinger::pinger::Pinger::init&#45;&gt;lightning_pinger::config::Config</title>
<path fill="none" stroke="#7f7f7f" stroke-dasharray="5,2" d="M455.9,-406.08C456.06,-406.05 456.23,-406.01 456.39,-405.97"/>
<polygon fill="#7f7f7f" stroke="#7f7f7f" points="454.61,-409.97 463.57,-404.31 453.04,-403.15 454.61,-409.97"/>
<text text-anchor="middle" x="449.89" y="-398.03" font-family="monospace" font-size="10.00">uses</text>
</g>
<!-- lightning_pinger::pinger::Pinger::init&#45;&gt;lightning_pinger::pinger::Pinger -->
<g id="edge14" class="edge">
<title>lightning_pinger::pinger::Pinger::init&#45;&gt;lightning_pinger::pinger::Pinger</title>
<path fill="none" stroke="#7f7f7f" stroke-dasharray="5,2" d="M389.65,-402.62C380.82,-366.67 330.43,-293.91 290.09,-253.86"/>
<polygon fill="#7f7f7f" stroke="#7f7f7f" points="292.33,-251.16 282.69,-246.78 287.49,-256.22 292.33,-251.16"/>
<text text-anchor="middle" x="327.37" y="-331.24" font-family="monospace" font-size="10.00">uses</text>
</g>
<!-- lightning_pinger::pinger::Pinger::init&#45;&gt;lightning_pinger::pinger::PingerInner -->
<g id="edge15" class="edge">
<title>lightning_pinger::pinger::Pinger::init&#45;&gt;lightning_pinger::pinger::PingerInner</title>
<path fill="none" stroke="#7f7f7f" stroke-dasharray="5,2" d="M419.63,-402.74C452.14,-383.47 502.29,-353.75 537.5,-332.88"/>
<polygon fill="#7f7f7f" stroke="#7f7f7f" points="539.3,-335.88 546.12,-327.78 535.73,-329.86 539.3,-335.88"/>
<text text-anchor="middle" x="466.07" y="-359.81" font-family="monospace" font-size="10.00">uses</text>
</g>
<!-- lightning_pinger::pinger::Pinger::is_running&#45;&gt;lightning_pinger::pinger::Pinger -->
<g id="edge16" class="edge">
<title>lightning_pinger::pinger::Pinger::is_running&#45;&gt;lightning_pinger::pinger::Pinger</title>
<path fill="none" stroke="#7f7f7f" stroke-dasharray="5,2" d="M167.77,-350.67C197.17,-325.77 230.2,-284.7 242.14,-256.16"/>
<polygon fill="#7f7f7f" stroke="#7f7f7f" points="245.48,-257.23 245.45,-246.63 238.86,-254.93 245.48,-257.23"/>
<text text-anchor="middle" x="192.46" y="-306.41" font-family="monospace" font-size="10.00">uses</text>
</g>
<!-- lightning_pinger::pinger::Pinger::shutdown&#45;&gt;lightning_pinger::pinger::Pinger -->
<g id="edge17" class="edge">
<title>lightning_pinger::pinger::Pinger::shutdown&#45;&gt;lightning_pinger::pinger::Pinger</title>
<path fill="none" stroke="#7f7f7f" stroke-dasharray="5,2" d="M228.96,-38.13C215.4,-74.8 213.36,-155.49 223.96,-198.76"/>
<polygon fill="#7f7f7f" stroke="#7f7f7f" points="220.61,-199.78 226.76,-208.41 227.34,-197.83 220.61,-199.78"/>
<text text-anchor="middle" x="213.96" y="-121.45" font-family="monospace" font-size="10.00">uses</text>
</g>
<!-- lightning_pinger::pinger::Pinger::start&#45;&gt;lightning_pinger::pinger::Pinger -->
<g id="edge18" class="edge">
<title>lightning_pinger::pinger::Pinger::start&#45;&gt;lightning_pinger::pinger::Pinger</title>
<path fill="none" stroke="#7f7f7f" stroke-dasharray="5,2" d="M78.58,-174.28C96.76,-194.24 143.39,-217.55 182.49,-228.97"/>
<polygon fill="#7f7f7f" stroke="#7f7f7f" points="181.67,-232.37 192.24,-231.6 183.5,-225.61 181.67,-232.37"/>
<text text-anchor="middle" x="118.03" y="-204.62" font-family="monospace" font-size="10.00">uses</text>
</g>
<!-- lightning_pinger::pinger::PingerInner&#45;&gt;lightning_pinger::config::Config -->
<g id="edge19" class="edge">
<title>lightning_pinger::pinger::PingerInner&#45;&gt;lightning_pinger::config::Config</title>
<path fill="none" stroke="#7f7f7f" stroke-dasharray="5,2" d="M563.82,-327.7C555.35,-338.79 544.52,-352.95 535.15,-365.22"/>
<polygon fill="#7f7f7f" stroke="#7f7f7f" points="532.23,-363.27 528.93,-373.34 537.79,-367.52 532.23,-363.27"/>
<text text-anchor="middle" x="536.99" y="-349.46" font-family="monospace" font-size="10.00">uses</text>
</g>
<!-- lightning_pinger::pinger::PingerInner::get_node_registry -->
<g id="node11" class="node">
<title>lightning_pinger::pinger::PingerInner::get_node_registry</title>
<polygon fill="#db5367" stroke="black" points="705.96,-164.64 705.96,-202.64 950.96,-202.64 950.96,-164.64 705.96,-164.64"/>
<text text-anchor="middle" x="828.46" y="-190.64" font-family="monospace" font-size="10.00">pub(self) fn</text>
<polyline fill="none" stroke="black" points="705.96,-183.64 950.96,-183.64 "/>
<text text-anchor="middle" x="828.46" y="-171.64" font-family="monospace" font-size="10.00">pinger::PingerInner::get_node_registry</text>
</g>
<!-- lightning_pinger::pinger::PingerInner&#45;&gt;lightning_pinger::pinger::PingerInner::get_node_registry -->
<g id="edge20" class="edge">
<title>lightning_pinger::pinger::PingerInner&#45;&gt;lightning_pinger::pinger::PingerInner::get_node_registry</title>
<path fill="none" stroke="#000000" d="M644.12,-301.37C700.89,-280.94 778.53,-239.78 812.34,-210.24"/>
<polygon fill="#000000" stroke="#000000" points="815.11,-212.43 819.94,-203 810.29,-207.36 815.11,-212.43"/>
<text text-anchor="middle" x="715.73" y="-258.81" font-family="monospace" font-size="10.00">owns</text>
</g>
<!-- lightning_pinger::pinger::PingerInner::new -->
<g id="node12" class="node">
<title>lightning_pinger::pinger::PingerInner::new</title>
<polygon fill="#db5367" stroke="black" points="523.31,-538.14 523.31,-576.14 684.31,-576.14 684.31,-538.14 523.31,-538.14"/>
<text text-anchor="middle" x="603.81" y="-564.14" font-family="monospace" font-size="10.00">pub(self) fn</text>
<polyline fill="none" stroke="black" points="523.31,-557.14 684.31,-557.14 "/>
<text text-anchor="middle" x="603.81" y="-545.14" font-family="monospace" font-size="10.00">pinger::PingerInner::new</text>
</g>
<!-- lightning_pinger::pinger::PingerInner&#45;&gt;lightning_pinger::pinger::PingerInner::new -->
<g id="edge21" class="edge">
<title>lightning_pinger::pinger::PingerInner&#45;&gt;lightning_pinger::pinger::PingerInner::new</title>
<path fill="none" stroke="#000000" d="M565.48,-328.03C554.94,-371.59 564.52,-477.29 582.3,-528.47"/>
<polygon fill="#000000" stroke="#000000" points="579.09,-529.87 585.96,-537.94 585.62,-527.35 579.09,-529.87"/>
<text text-anchor="middle" x="561.39" y="-431.25" font-family="monospace" font-size="10.00">owns</text>
</g>
<!-- lightning_pinger::pinger::PingerInner::start -->
<g id="node13" class="node">
<title>lightning_pinger::pinger::PingerInner::start</title>
<polygon fill="#db5367" stroke="black" points="665.64,-337.27 665.64,-375.27 838.64,-375.27 838.64,-337.27 665.64,-337.27"/>
<text text-anchor="middle" x="752.14" y="-363.27" font-family="monospace" font-size="10.00">pub(self) async fn</text>
<polyline fill="none" stroke="black" points="665.64,-356.27 838.64,-356.27 "/>
<text text-anchor="middle" x="752.14" y="-344.27" font-family="monospace" font-size="10.00">pinger::PingerInner::start</text>
</g>
<!-- lightning_pinger::pinger::PingerInner&#45;&gt;lightning_pinger::pinger::PingerInner::start -->
<g id="edge22" class="edge">
<title>lightning_pinger::pinger::PingerInner&#45;&gt;lightning_pinger::pinger::PingerInner::start</title>
<path fill="none" stroke="#000000" d="M588.73,-327.85C602.66,-339.17 628.39,-350.09 655.41,-357.74"/>
<polygon fill="#000000" stroke="#000000" points="654.83,-361.21 665.4,-360.41 656.64,-354.45 654.83,-361.21"/>
<text text-anchor="middle" x="609.57" y="-345.8" font-family="monospace" font-size="10.00">owns</text>
</g>
<!-- lightning_pinger::pinger::PingerInner::get_node_registry&#45;&gt;lightning_pinger::pinger::PingerInner -->
<g id="edge23" class="edge">
<title>lightning_pinger::pinger::PingerInner::get_node_registry&#45;&gt;lightning_pinger::pinger::PingerInner</title>
<path fill="none" stroke="#7f7f7f" stroke-dasharray="5,2" d="M733.02,-202.66C681.14,-224.8 622.14,-257.72 594.11,-282.39"/>
<polygon fill="#7f7f7f" stroke="#7f7f7f" points="591.55,-280 586.75,-289.44 596.4,-285.05 591.55,-280"/>
<text text-anchor="middle" x="651.07" y="-245.53" font-family="monospace" font-size="10.00">uses</text>
</g>
<!-- lightning_pinger::pinger::PingerInner::new&#45;&gt;lightning_pinger::config::Config -->
<g id="edge24" class="edge">
<title>lightning_pinger::pinger::PingerInner::new&#45;&gt;lightning_pinger::config::Config</title>
<path fill="none" stroke="#7f7f7f" stroke-dasharray="5,2" d="M593.35,-537.95C577.57,-508.97 547.58,-453.89 529.39,-420.49"/>
<polygon fill="#7f7f7f" stroke="#7f7f7f" points="532.45,-418.79 524.59,-411.68 526.3,-422.14 532.45,-418.79"/>
<text text-anchor="middle" x="548.87" y="-482.22" font-family="monospace" font-size="10.00">uses</text>
</g>
<!-- lightning_pinger::pinger::PingerInner::new&#45;&gt;lightning_pinger::pinger::PingerInner -->
<g id="edge25" class="edge">
<title>lightning_pinger::pinger::PingerInner::new&#45;&gt;lightning_pinger::pinger::PingerInner</title>
<path fill="none" stroke="#7f7f7f" stroke-dasharray="5,2" d="M616.71,-537.76C627.26,-494.2 617.67,-388.5 599.9,-337.32"/>
<polygon fill="#7f7f7f" stroke="#7f7f7f" points="603.1,-335.92 596.24,-327.85 596.57,-338.44 603.1,-335.92"/>
<text text-anchor="middle" x="595.81" y="-440.54" font-family="monospace" font-size="10.00">uses</text>
</g>
<!-- lightning_pinger::pinger::PingerInner::start&#45;&gt;lightning_pinger::config::Config -->
<g id="edge26" class="edge">
<title>lightning_pinger::pinger::PingerInner::start&#45;&gt;lightning_pinger::config::Config</title>
<path fill="none" stroke="#7f7f7f" stroke-dasharray="5,2" d="M665.57,-369.5C635.39,-374.1 602.2,-379.17 574.61,-383.39"/>
<polygon fill="#7f7f7f" stroke="#7f7f7f" points="574.08,-379.93 564.72,-384.9 575.13,-386.85 574.08,-379.93"/>
<text text-anchor="middle" x="607.59" y="-379.44" font-family="monospace" font-size="10.00">uses</text>
</g>
<!-- lightning_pinger::pinger::PingerInner::start&#45;&gt;lightning_pinger::pinger::Message -->
<g id="edge27" class="edge">
<title>lightning_pinger::pinger::PingerInner::start&#45;&gt;lightning_pinger::pinger::Message</title>
<path fill="none" stroke="#7f7f7f" stroke-dasharray="5,2" d="M739.91,-337.26C714.55,-297.86 656.16,-207.15 626.54,-161.13"/>
<polygon fill="#7f7f7f" stroke="#7f7f7f" points="629.37,-159.07 621.02,-152.55 623.49,-162.85 629.37,-159.07"/>
<text text-anchor="middle" x="695.72" y="-241.2" font-family="monospace" font-size="10.00">uses</text>
</g>
<!-- lightning_pinger::pinger::PingerInner::start&#45;&gt;lightning_pinger::pinger::PingerInner -->
<g id="edge28" class="edge">
<title>lightning_pinger::pinger::PingerInner::start&#45;&gt;lightning_pinger::pinger::PingerInner</title>
<path fill="none" stroke="#7f7f7f" stroke-dasharray="5,2" d="M741.8,-337.07C724.24,-322.8 687.9,-309.15 653.9,-301.91"/>
<polygon fill="#7f7f7f" stroke="#7f7f7f" points="654.4,-298.44 643.92,-299.96 653.06,-305.32 654.4,-298.44"/>
<text text-anchor="middle" x="685.35" y="-322.49" font-family="monospace" font-size="10.00">uses</text>
</g>
</g>
</svg>
