<?xml version="1.0" encoding="UTF-8" standalone="no"?>
<!DOCTYPE svg PUBLIC "-//W3C//DTD SVG 1.1//EN"
 "http://www.w3.org/Graphics/SVG/1.1/DTD/svg11.dtd">
<!-- Generated by graphviz version 4.0.0 (0)
 -->
<!-- Pages: 1 -->
<svg width="482pt" height="264pt"
 viewBox="0.00 0.00 481.85 263.89" xmlns="http://www.w3.org/2000/svg" xmlns:xlink="http://www.w3.org/1999/xlink">
<g id="graph0" class="graph" transform="scale(1 1) rotate(0) translate(28.8 235.09)">
<polygon fill="white" stroke="transparent" points="-28.8,28.8 -28.8,-235.09 453.05,-235.09 453.05,28.8 -28.8,28.8"/>
<text text-anchor="middle" x="212.13" y="-173.49" font-family="Helvetica,sans-Serif" font-size="36.00">lightning_archive</text>
<!-- lightning_archive -->
<g id="node1" class="node">
<title>lightning_archive</title>
<polygon fill="#5397c8" stroke="black" points="279.39,-0.5 279.39,-38.5 398.39,-38.5 398.39,-0.5 279.39,-0.5"/>
<text text-anchor="middle" x="338.89" y="-26.5" font-family="monospace" font-size="10.00">crate</text>
<polyline fill="none" stroke="black" points="279.39,-19.5 398.39,-19.5 "/>
<text text-anchor="middle" x="338.89" y="-7.5" font-family="monospace" font-size="10.00">lightning_archive</text>
</g>
<!-- lightning_archive::archive -->
<g id="node2" class="node">
<title>lightning_archive::archive</title>
<polygon fill="#81c169" stroke="black" points="127.02,-60.22 127.02,-98.22 300.02,-98.22 300.02,-60.22 127.02,-60.22"/>
<text text-anchor="middle" x="213.52" y="-86.22" font-family="monospace" font-size="10.00">pub mod</text>
<polyline fill="none" stroke="black" points="127.02,-79.22 300.02,-79.22 "/>
<text text-anchor="middle" x="213.52" y="-67.22" font-family="monospace" font-size="10.00">lightning_archive::archive</text>
</g>
<!-- lightning_archive&#45;&gt;lightning_archive::archive -->
<g id="edge1" class="edge">
<title>lightning_archive&#45;&gt;lightning_archive::archive</title>
<path fill="none" stroke="#000000" d="M298.87,-38.56C287.45,-44 274.87,-50 262.96,-55.67"/>
<polygon fill="#000000" stroke="#000000" points="261.1,-52.68 253.58,-60.14 264.11,-59 261.1,-52.68"/>
<text text-anchor="middle" x="268.41" y="-50.12" font-family="monospace" font-size="10.00">owns</text>
</g>
<!-- lightning_archive::config -->
<g id="node3" class="node">
<title>lightning_archive::config</title>
<polygon fill="#81c169" stroke="black" points="257.25,-119.79 257.25,-157.79 424.25,-157.79 424.25,-119.79 257.25,-119.79"/>
<text text-anchor="middle" x="340.75" y="-145.79" font-family="monospace" font-size="10.00">pub mod</text>
<polyline fill="none" stroke="black" points="257.25,-138.79 424.25,-138.79 "/>
<text text-anchor="middle" x="340.75" y="-126.79" font-family="monospace" font-size="10.00">lightning_archive::config</text>
</g>
<!-- lightning_archive&#45;&gt;lightning_archive::config -->
<g id="edge2" class="edge">
<title>lightning_archive&#45;&gt;lightning_archive::config</title>
<path fill="none" stroke="#000000" d="M339.19,-38.67C339.49,-57.8 339.95,-87.45 340.29,-109.52"/>
<polygon fill="#000000" stroke="#000000" points="336.8,-109.73 340.45,-119.67 343.8,-109.62 336.8,-109.73"/>
<text text-anchor="middle" x="327.24" y="-77.09" font-family="monospace" font-size="10.00">owns</text>
</g>
<!-- lightning_archive::archive&#45;&gt;lightning_archive::config -->
<g id="edge3" class="edge">
<title>lightning_archive::archive&#45;&gt;lightning_archive::config</title>
<path fill="none" stroke="#7f7f7f" stroke-dasharray="5,2" d="M254.12,-98.23C265.83,-103.71 278.74,-109.76 290.94,-115.47"/>
<polygon fill="#7f7f7f" stroke="#7f7f7f" points="289.55,-118.68 300.09,-119.76 292.52,-112.35 289.55,-118.68"/>
<text text-anchor="middle" x="260.03" y="-109.85" font-family="monospace" font-size="10.00">uses</text>
</g>
<!-- tokio::sync::mpsc -->
<g id="node4" class="node">
<title>tokio::sync::mpsc</title>
<polygon fill="#81c169" stroke="black" points="0,-60.76 0,-98.76 119,-98.76 119,-60.76 0,-60.76"/>
<text text-anchor="middle" x="59.5" y="-86.76" font-family="monospace" font-size="10.00">external mod</text>
<polyline fill="none" stroke="black" points="0,-79.76 119,-79.76 "/>
<text text-anchor="middle" x="59.5" y="-67.76" font-family="monospace" font-size="10.00">tokio::sync::mpsc</text>
</g>
<!-- lightning_archive::archive&#45;&gt;tokio::sync::mpsc -->
<g id="edge4" class="edge">
<title>lightning_archive::archive&#45;&gt;tokio::sync::mpsc</title>
<path fill="none" stroke="#7f7f7f" stroke-dasharray="5,2" d="M126.61,-79.52C126.45,-79.52 126.3,-79.52 126.14,-79.52"/>
<polygon fill="#7f7f7f" stroke="#7f7f7f" points="129.28,-76.01 119.29,-79.55 129.3,-83.01 129.28,-76.01"/>
<text text-anchor="middle" x="120.13" y="-71.52" font-family="monospace" font-size="10.00">uses</text>
</g>
</g>
</svg>
