<?xml version="1.0" encoding="UTF-8" standalone="no"?>
<!DOCTYPE svg PUBLIC "-//W3C//DTD SVG 1.1//EN"
 "http://www.w3.org/Graphics/SVG/1.1/DTD/svg11.dtd">
<!-- Generated by graphviz version 4.0.0 (0)
 -->
<!-- Pages: 1 -->
<svg width="1160pt" height="861pt"
 viewBox="0.00 0.00 1159.56 860.77" xmlns="http://www.w3.org/2000/svg" xmlns:xlink="http://www.w3.org/1999/xlink">
<g id="graph0" class="graph" transform="scale(1 1) rotate(0) translate(28.8 831.97)">
<polygon fill="white" stroke="transparent" points="-28.8,28.8 -28.8,-831.97 1130.76,-831.97 1130.76,28.8 -28.8,28.8"/>
<text text-anchor="middle" x="550.98" y="-770.37" font-family="Helvetica,sans-Serif" font-size="36.00">lightning_application</text>
<!-- fdi -->
<g id="node1" class="node">
<title>fdi</title>
<polygon fill="#5397c8" stroke="black" points="573.12,-48.47 573.12,-86.47 674.12,-86.47 674.12,-48.47 573.12,-48.47"/>
<text text-anchor="middle" x="623.62" y="-74.47" font-family="monospace" font-size="10.00">external crate</text>
<polyline fill="none" stroke="black" points="573.12,-67.47 674.12,-67.47 "/>
<text text-anchor="middle" x="623.62" y="-55.47" font-family="monospace" font-size="10.00">fdi</text>
</g>
<!-- lightning_application -->
<g id="node2" class="node">
<title>lightning_application</title>
<polygon fill="#5397c8" stroke="black" points="373.08,-716.67 373.08,-754.67 516.08,-754.67 516.08,-716.67 373.08,-716.67"/>
<text text-anchor="middle" x="444.58" y="-742.67" font-family="monospace" font-size="10.00">crate</text>
<polyline fill="none" stroke="black" points="373.08,-735.67 516.08,-735.67 "/>
<text text-anchor="middle" x="444.58" y="-723.67" font-family="monospace" font-size="10.00">lightning_application</text>
</g>
<!-- lightning_application::app -->
<g id="node3" class="node">
<title>lightning_application::app</title>
<polygon fill="#81c169" stroke="black" points="358.08,-0.5 358.08,-38.5 531.08,-38.5 531.08,-0.5 358.08,-0.5"/>
<text text-anchor="middle" x="444.58" y="-26.5" font-family="monospace" font-size="10.00">pub mod</text>
<polyline fill="none" stroke="black" points="358.08,-19.5 531.08,-19.5 "/>
<text text-anchor="middle" x="444.58" y="-7.5" font-family="monospace" font-size="10.00">lightning_application::app</text>
</g>
<!-- lightning_application&#45;&gt;lightning_application::app -->
<g id="edge1" class="edge">
<title>lightning_application&#45;&gt;lightning_application::app</title>
<path fill="none" stroke="#000000" d="M444.58,-716.51C444.58,-618.04 444.58,-168.8 444.58,-48.95"/>
<polygon fill="#000000" stroke="#000000" points="448.08,-48.71 444.58,-38.71 441.08,-48.71 448.08,-48.71"/>
<text text-anchor="middle" x="432.08" y="-385.73" font-family="monospace" font-size="10.00">owns</text>
</g>
<!-- lightning_application::config -->
<g id="node4" class="node">
<title>lightning_application::config</title>
<polygon fill="#81c169" stroke="black" points="38.97,-537.62 38.97,-575.62 229.97,-575.62 229.97,-537.62 38.97,-537.62"/>
<text text-anchor="middle" x="134.47" y="-563.62" font-family="monospace" font-size="10.00">pub mod</text>
<polyline fill="none" stroke="black" points="38.97,-556.62 229.97,-556.62 "/>
<text text-anchor="middle" x="134.47" y="-544.62" font-family="monospace" font-size="10.00">lightning_application::config</text>
</g>
<!-- lightning_application&#45;&gt;lightning_application::config -->
<g id="edge2" class="edge">
<title>lightning_application&#45;&gt;lightning_application::config</title>
<path fill="none" stroke="#000000" d="M411.4,-716.5C354.51,-683.66 238.49,-616.68 176.21,-580.72"/>
<polygon fill="#000000" stroke="#000000" points="177.83,-577.62 167.42,-575.65 174.33,-583.68 177.83,-577.62"/>
<text text-anchor="middle" x="281.3" y="-651.61" font-family="monospace" font-size="10.00">owns</text>
</g>
<!-- lightning_application::env -->
<g id="node5" class="node">
<title>lightning_application::env</title>
<polygon fill="#81c169" stroke="black" points="0,-358.58 0,-396.58 173,-396.58 173,-358.58 0,-358.58"/>
<text text-anchor="middle" x="86.5" y="-384.58" font-family="monospace" font-size="10.00">pub mod</text>
<polyline fill="none" stroke="black" points="0,-377.58 173,-377.58 "/>
<text text-anchor="middle" x="86.5" y="-365.58" font-family="monospace" font-size="10.00">lightning_application::env</text>
</g>
<!-- lightning_application&#45;&gt;lightning_application::env -->
<g id="edge3" class="edge">
<title>lightning_application&#45;&gt;lightning_application::env</title>
<path fill="none" stroke="#000000" d="M425.33,-716.41C365.46,-656.55 182.45,-473.53 113.32,-404.4"/>
<polygon fill="#000000" stroke="#000000" points="115.39,-401.53 105.85,-396.93 110.44,-406.48 115.39,-401.53"/>
<text text-anchor="middle" x="256.82" y="-563.41" font-family="monospace" font-size="10.00">owns</text>
</g>
<!-- lightning_application::genesis -->
<g id="node6" class="node">
<title>lightning_application::genesis</title>
<polygon fill="#81c169" stroke="black" points="167.04,-668.69 167.04,-706.69 364.04,-706.69 364.04,-668.69 167.04,-668.69"/>
<text text-anchor="middle" x="265.54" y="-694.69" font-family="monospace" font-size="10.00">pub mod</text>
<polyline fill="none" stroke="black" points="167.04,-687.69 364.04,-687.69 "/>
<text text-anchor="middle" x="265.54" y="-675.69" font-family="monospace" font-size="10.00">lightning_application::genesis</text>
</g>
<!-- lightning_application&#45;&gt;lightning_application::genesis -->
<g id="edge4" class="edge">
<title>lightning_application&#45;&gt;lightning_application::genesis</title>
<path fill="none" stroke="#000000" d="M373.56,-716.64C364.6,-714.23 355.38,-711.76 346.28,-709.33"/>
<polygon fill="#000000" stroke="#000000" points="347.04,-705.91 336.47,-706.7 345.23,-712.67 347.04,-705.91"/>
<text text-anchor="middle" x="347.42" y="-715.98" font-family="monospace" font-size="10.00">owns</text>
</g>
<!-- lightning_application::query_runner -->
<g id="node7" class="node">
<title>lightning_application::query_runner</title>
<polygon fill="#81c169" stroke="black" points="641.19,-537.62 641.19,-575.62 868.19,-575.62 868.19,-537.62 641.19,-537.62"/>
<text text-anchor="middle" x="754.69" y="-563.62" font-family="monospace" font-size="10.00">pub mod</text>
<polyline fill="none" stroke="black" points="641.19,-556.62 868.19,-556.62 "/>
<text text-anchor="middle" x="754.69" y="-544.62" font-family="monospace" font-size="10.00">lightning_application::query_runner</text>
</g>
<!-- lightning_application&#45;&gt;lightning_application::query_runner -->
<g id="edge5" class="edge">
<title>lightning_application&#45;&gt;lightning_application::query_runner</title>
<path fill="none" stroke="#000000" d="M477.77,-716.5C534.66,-683.66 650.68,-616.68 712.96,-580.72"/>
<polygon fill="#000000" stroke="#000000" points="714.83,-583.68 721.74,-575.65 711.33,-577.62 714.83,-583.68"/>
<text text-anchor="middle" x="582.86" y="-651.61" font-family="monospace" font-size="10.00">owns</text>
</g>
<!-- lightning_application::state -->
<g id="node8" class="node">
<title>lightning_application::state</title>
<polygon fill="#81c169" stroke="black" points="699.94,-358.58 699.94,-396.58 884.94,-396.58 884.94,-358.58 699.94,-358.58"/>
<text text-anchor="middle" x="792.44" y="-384.58" font-family="monospace" font-size="10.00">pub mod</text>
<polyline fill="none" stroke="black" points="699.94,-377.58 884.94,-377.58 "/>
<text text-anchor="middle" x="792.44" y="-365.58" font-family="monospace" font-size="10.00">lightning_application::state</text>
</g>
<!-- lightning_application&#45;&gt;lightning_application::state -->
<g id="edge6" class="edge">
<title>lightning_application&#45;&gt;lightning_application::state</title>
<path fill="none" stroke="#000000" d="M463.29,-716.41C521.44,-656.55 699.23,-473.53 766.39,-404.4"/>
<polygon fill="#000000" stroke="#000000" points="769.19,-406.54 773.65,-396.93 764.17,-401.66 769.19,-406.54"/>
<text text-anchor="middle" x="602.34" y="-563.41" font-family="monospace" font-size="10.00">owns</text>
</g>
<!-- lightning_application::storage -->
<g id="node9" class="node">
<title>lightning_application::storage</title>
<polygon fill="#f8c04c" stroke="black" points="525.12,-668.69 525.12,-706.69 722.12,-706.69 722.12,-668.69 525.12,-668.69"/>
<text text-anchor="middle" x="623.62" y="-694.69" font-family="monospace" font-size="10.00">pub(crate) mod</text>
<polyline fill="none" stroke="black" points="525.12,-687.69 722.12,-687.69 "/>
<text text-anchor="middle" x="623.62" y="-675.69" font-family="monospace" font-size="10.00">lightning_application::storage</text>
</g>
<!-- lightning_application&#45;&gt;lightning_application::storage -->
<g id="edge7" class="edge">
<title>lightning_application&#45;&gt;lightning_application::storage</title>
<path fill="none" stroke="#000000" d="M515.6,-716.64C524.56,-714.23 533.78,-711.76 542.88,-709.33"/>
<polygon fill="#000000" stroke="#000000" points="543.94,-712.67 552.69,-706.7 542.13,-705.91 543.94,-712.67"/>
<text text-anchor="middle" x="541.74" y="-715.98" font-family="monospace" font-size="10.00">owns</text>
</g>
<!-- lightning_application::table -->
<g id="node10" class="node">
<title>lightning_application::table</title>
<polygon fill="#81c169" stroke="black" points="662.19,-179.54 662.19,-217.54 847.19,-217.54 847.19,-179.54 662.19,-179.54"/>
<text text-anchor="middle" x="754.69" y="-205.54" font-family="monospace" font-size="10.00">pub mod</text>
<polyline fill="none" stroke="black" points="662.19,-198.54 847.19,-198.54 "/>
<text text-anchor="middle" x="754.69" y="-186.54" font-family="monospace" font-size="10.00">lightning_application::table</text>
</g>
<!-- lightning_application&#45;&gt;lightning_application::table -->
<g id="edge8" class="edge">
<title>lightning_application&#45;&gt;lightning_application::table</title>
<path fill="none" stroke="#000000" d="M455.62,-716.55C502.24,-635.8 683.19,-322.38 738.52,-226.54"/>
<polygon fill="#000000" stroke="#000000" points="741.66,-228.12 743.63,-217.71 735.59,-224.62 741.66,-228.12"/>
<text text-anchor="middle" x="584.57" y="-474.55" font-family="monospace" font-size="10.00">owns</text>
</g>
<!-- lightning_application::app&#45;&gt;fdi -->
<g id="edge9" class="edge">
<title>lightning_application::app&#45;&gt;fdi</title>
<path fill="none" stroke="#7f7f7f" stroke-dasharray="5,2" d="M515.6,-38.53C531.38,-42.76 547.96,-47.2 563.26,-51.3"/>
<polygon fill="#7f7f7f" stroke="#7f7f7f" points="562.55,-54.73 573.11,-53.94 564.36,-47.97 562.55,-54.73"/>
<text text-anchor="middle" x="526.93" y="-47.91" font-family="monospace" font-size="10.00">uses</text>
</g>
<!-- lightning_application::app&#45;&gt;lightning_application::config -->
<g id="edge10" class="edge">
<title>lightning_application::app&#45;&gt;lightning_application::config</title>
<path fill="none" stroke="#7f7f7f" stroke-dasharray="5,2" d="M433.55,-38.62C386.92,-119.37 205.97,-432.78 150.64,-528.62"/>
<polygon fill="#7f7f7f" stroke="#7f7f7f" points="147.51,-527.05 145.54,-537.46 153.57,-530.55 147.51,-527.05"/>
<text text-anchor="middle" x="279.59" y="-286.62" font-family="monospace" font-size="10.00">uses</text>
</g>
<!-- lightning_application::app&#45;&gt;lightning_application::env -->
<g id="edge11" class="edge">
<title>lightning_application::app&#45;&gt;lightning_application::env</title>
<path fill="none" stroke="#7f7f7f" stroke-dasharray="5,2" d="M425.33,-38.75C365.46,-98.62 182.45,-281.64 113.32,-350.76"/>
<polygon fill="#7f7f7f" stroke="#7f7f7f" points="110.44,-348.69 105.85,-358.24 115.39,-353.64 110.44,-348.69"/>
<text text-anchor="middle" x="256.82" y="-197.76" font-family="monospace" font-size="10.00">uses</text>
</g>
<!-- lightning_application::app&#45;&gt;lightning_application::query_runner -->
<g id="edge12" class="edge">
<title>lightning_application::app&#45;&gt;lightning_application::query_runner</title>
<path fill="none" stroke="#7f7f7f" stroke-dasharray="5,2" d="M455.62,-38.62C502.24,-119.37 683.19,-432.78 738.52,-528.62"/>
<polygon fill="#7f7f7f" stroke="#7f7f7f" points="735.59,-530.55 743.63,-537.46 741.66,-527.05 735.59,-530.55"/>
<text text-anchor="middle" x="584.57" y="-286.62" font-family="monospace" font-size="10.00">uses</text>
</g>
<!-- lightning_schema -->
<g id="node12" class="node">
<title>lightning_schema</title>
<polygon fill="#5397c8" stroke="black" points="77.97,-179.54 77.97,-217.54 190.97,-217.54 190.97,-179.54 77.97,-179.54"/>
<text text-anchor="middle" x="134.47" y="-205.54" font-family="monospace" font-size="10.00">external crate</text>
<polyline fill="none" stroke="black" points="77.97,-198.54 190.97,-198.54 "/>
<text text-anchor="middle" x="134.47" y="-186.54" font-family="monospace" font-size="10.00">lightning_schema</text>
</g>
<!-- lightning_application::app&#45;&gt;lightning_schema -->
<g id="edge13" class="edge">
<title>lightning_application::app&#45;&gt;lightning_schema</title>
<path fill="none" stroke="#7f7f7f" stroke-dasharray="5,2" d="M411.4,-38.66C354.51,-71.51 238.49,-138.49 176.21,-174.45"/>
<polygon fill="#7f7f7f" stroke="#7f7f7f" points="174.33,-171.49 167.42,-179.52 177.83,-177.55 174.33,-171.49"/>
<text text-anchor="middle" x="281.3" y="-109.55" font-family="monospace" font-size="10.00">uses</text>
</g>
<!-- lightning_types -->
<g id="node13" class="node">
<title>lightning_types</title>
<polygon fill="#5397c8" stroke="black" points="212.04,-48.47 212.04,-86.47 319.04,-86.47 319.04,-48.47 212.04,-48.47"/>
<text text-anchor="middle" x="265.54" y="-74.47" font-family="monospace" font-size="10.00">external crate</text>
<polyline fill="none" stroke="black" points="212.04,-67.47 319.04,-67.47 "/>
<text text-anchor="middle" x="265.54" y="-55.47" font-family="monospace" font-size="10.00">lightning_types</text>
</g>
<!-- lightning_application::app&#45;&gt;lightning_types -->
<g id="edge14" class="edge">
<title>lightning_application::app&#45;&gt;lightning_types</title>
<path fill="none" stroke="#7f7f7f" stroke-dasharray="5,2" d="M373.56,-38.53C358.81,-42.48 343.35,-46.62 328.9,-50.5"/>
<polygon fill="#7f7f7f" stroke="#7f7f7f" points="327.82,-47.16 319.07,-53.13 329.63,-53.92 327.82,-47.16"/>
<text text-anchor="middle" x="338.73" y="-47.51" font-family="monospace" font-size="10.00">uses</text>
</g>
<!-- lightning_application::config&#45;&gt;lightning_application::genesis -->
<g id="edge15" class="edge">
<title>lightning_application::config&#45;&gt;lightning_application::genesis</title>
<path fill="none" stroke="#7f7f7f" stroke-dasharray="5,2" d="M153.53,-575.68C176.15,-598.3 213.98,-636.13 239.34,-661.49"/>
<polygon fill="#7f7f7f" stroke="#7f7f7f" points="236.91,-664.01 246.46,-668.61 241.86,-659.06 236.91,-664.01"/>
<text text-anchor="middle" x="183.94" y="-621.59" font-family="monospace" font-size="10.00">uses</text>
</g>
<!-- lightning_application::env&#45;&gt;fdi -->
<g id="edge16" class="edge">
<title>lightning_application::env&#45;&gt;fdi</title>
<path fill="none" stroke="#7f7f7f" stroke-dasharray="5,2" d="M119.69,-358.42C213.16,-304.45 478.47,-151.28 581.75,-91.65"/>
<polygon fill="#7f7f7f" stroke="#7f7f7f" points="583.74,-94.54 590.65,-86.51 580.24,-88.48 583.74,-94.54"/>
<text text-anchor="middle" x="338.22" y="-228.03" font-family="monospace" font-size="10.00">uses</text>
</g>
<!-- lightning_application::env&#45;&gt;lightning_application::config -->
<g id="edge17" class="edge">
<title>lightning_application::env&#45;&gt;lightning_application::config</title>
<path fill="none" stroke="#7f7f7f" stroke-dasharray="5,2" d="M91.63,-396.74C100.04,-428.11 116.78,-490.6 126.67,-527.48"/>
<polygon fill="#7f7f7f" stroke="#7f7f7f" points="123.41,-528.85 129.38,-537.6 130.17,-527.04 123.41,-528.85"/>
<text text-anchor="middle" x="96.65" y="-465.11" font-family="monospace" font-size="10.00">uses</text>
</g>
<!-- lightning_application::env&#45;&gt;lightning_application::genesis -->
<g id="edge18" class="edge">
<title>lightning_application::env&#45;&gt;lightning_application::genesis</title>
<path fill="none" stroke="#7f7f7f" stroke-dasharray="5,2" d="M97.7,-396.98C128.28,-449.95 213.32,-597.25 249.22,-659.42"/>
<polygon fill="#7f7f7f" stroke="#7f7f7f" points="246.31,-661.39 254.35,-668.3 252.38,-657.89 246.31,-661.39"/>
<text text-anchor="middle" x="160.96" y="-520.2" font-family="monospace" font-size="10.00">uses</text>
</g>
<!-- lightning_application::env&#45;&gt;lightning_application::query_runner -->
<g id="edge19" class="edge">
<title>lightning_application::env&#45;&gt;lightning_application::query_runner</title>
<path fill="none" stroke="#7f7f7f" stroke-dasharray="5,2" d="M157.69,-396.66C282.89,-430.2 541.67,-499.55 673.57,-534.89"/>
<polygon fill="#7f7f7f" stroke="#7f7f7f" points="673.05,-538.37 683.62,-537.58 674.86,-531.61 673.05,-538.37"/>
<text text-anchor="middle" x="403.13" y="-468.77" font-family="monospace" font-size="10.00">uses</text>
</g>
<!-- lightning_application::env&#45;&gt;lightning_application::state -->
<g id="edge20" class="edge">
<title>lightning_application::env&#45;&gt;lightning_application::state</title>
<path fill="none" stroke="#7f7f7f" stroke-dasharray="5,2" d="M173.06,-377.58C303.54,-377.58 550.12,-377.58 689.58,-377.58"/>
<polygon fill="#7f7f7f" stroke="#7f7f7f" points="689.85,-381.08 699.85,-377.58 689.85,-374.08 689.85,-381.08"/>
<text text-anchor="middle" x="418.82" y="-369.58" font-family="monospace" font-size="10.00">uses</text>
</g>
<!-- lightning_application::env&#45;&gt;lightning_application::storage -->
<g id="edge21" class="edge">
<title>lightning_application::env&#45;&gt;lightning_application::storage</title>
<path fill="none" stroke="#7f7f7f" stroke-dasharray="5,2" d="M119.69,-396.75C213.16,-450.71 478.47,-603.89 581.75,-663.52"/>
<polygon fill="#7f7f7f" stroke="#7f7f7f" points="580.24,-666.69 590.65,-668.65 583.74,-660.62 580.24,-666.69"/>
<text text-anchor="middle" x="338.22" y="-533.13" font-family="monospace" font-size="10.00">uses</text>
</g>
<!-- lightning_application::env&#45;&gt;lightning_application::table -->
<g id="edge22" class="edge">
<title>lightning_application::env&#45;&gt;lightning_application::table</title>
<path fill="none" stroke="#7f7f7f" stroke-dasharray="5,2" d="M157.69,-358.51C282.89,-324.96 541.67,-255.62 673.57,-220.28"/>
<polygon fill="#7f7f7f" stroke="#7f7f7f" points="674.86,-223.55 683.62,-217.59 673.05,-216.79 674.86,-223.55"/>
<text text-anchor="middle" x="403.13" y="-292.39" font-family="monospace" font-size="10.00">uses</text>
</g>
<!-- lightning_application::env&#45;&gt;lightning_schema -->
<g id="edge23" class="edge">
<title>lightning_application::env&#45;&gt;lightning_schema</title>
<path fill="none" stroke="#7f7f7f" stroke-dasharray="5,2" d="M91.63,-358.42C100.04,-327.06 116.78,-264.57 126.67,-227.68"/>
<polygon fill="#7f7f7f" stroke="#7f7f7f" points="130.17,-228.13 129.38,-217.56 123.41,-226.32 130.17,-228.13"/>
<text text-anchor="middle" x="96.65" y="-296.05" font-family="monospace" font-size="10.00">uses</text>
</g>
<!-- lightning_application::env&#45;&gt;lightning_types -->
<g id="edge24" class="edge">
<title>lightning_application::env&#45;&gt;lightning_types</title>
<path fill="none" stroke="#7f7f7f" stroke-dasharray="5,2" d="M97.7,-358.18C128.28,-305.21 213.32,-157.92 249.22,-95.74"/>
<polygon fill="#7f7f7f" stroke="#7f7f7f" points="252.38,-97.28 254.35,-86.87 246.31,-93.78 252.38,-97.28"/>
<text text-anchor="middle" x="160.96" y="-229.96" font-family="monospace" font-size="10.00">uses</text>
</g>
<!-- lightning_application::query_runner&#45;&gt;lightning_application::state -->
<g id="edge25" class="edge">
<title>lightning_application::query_runner&#45;&gt;lightning_application::state</title>
<path fill="none" stroke="#7f7f7f" stroke-dasharray="5,2" d="M758.73,-537.46C765.34,-506.1 778.52,-443.61 786.3,-406.72"/>
<polygon fill="#7f7f7f" stroke="#7f7f7f" points="789.79,-407.11 788.43,-396.61 782.94,-405.67 789.79,-407.11"/>
<text text-anchor="middle" x="760.01" y="-475.09" font-family="monospace" font-size="10.00">uses</text>
</g>
<!-- lightning_application::query_runner&#45;&gt;lightning_application::storage -->
<g id="edge26" class="edge">
<title>lightning_application::query_runner&#45;&gt;lightning_application::storage</title>
<path fill="none" stroke="#7f7f7f" stroke-dasharray="5,2" d="M735.63,-575.68C713.02,-598.3 675.18,-636.13 649.82,-661.49"/>
<polygon fill="#7f7f7f" stroke="#7f7f7f" points="647.3,-659.06 642.71,-668.61 652.25,-664.01 647.3,-659.06"/>
<text text-anchor="middle" x="680.23" y="-621.59" font-family="monospace" font-size="10.00">uses</text>
</g>
<!-- lightning_application::query_runner&#45;&gt;lightning_application::table -->
<g id="edge27" class="edge">
<title>lightning_application::query_runner&#45;&gt;lightning_application::table</title>
<path fill="none" stroke="#7f7f7f" stroke-dasharray="5,2" d="M754.69,-537.37C754.69,-478.23 754.69,-298.92 754.69,-227.93"/>
<polygon fill="#7f7f7f" stroke="#7f7f7f" points="758.19,-227.89 754.69,-217.89 751.19,-227.89 758.19,-227.89"/>
<text text-anchor="middle" x="742.19" y="-385.65" font-family="monospace" font-size="10.00">uses</text>
</g>
<!-- lightning_application::state&#45;&gt;lightning_application::table -->
<g id="edge28" class="edge">
<title>lightning_application::state&#45;&gt;lightning_application::table</title>
<path fill="none" stroke="#7f7f7f" stroke-dasharray="5,2" d="M788.4,-358.42C781.79,-327.06 768.61,-264.57 760.84,-227.68"/>
<polygon fill="#7f7f7f" stroke="#7f7f7f" points="764.19,-226.63 758.7,-217.56 757.34,-228.07 764.19,-226.63"/>
<text text-anchor="middle" x="762.12" y="-296.05" font-family="monospace" font-size="10.00">uses</text>
</g>
<!-- lightning_reputation::statistics -->
<g id="node11" class="node">
<title>lightning_reputation::statistics</title>
<polygon fill="#81c169" stroke="black" points="892.96,-358.58 892.96,-396.58 1101.96,-396.58 1101.96,-358.58 892.96,-358.58"/>
<text text-anchor="middle" x="997.46" y="-384.58" font-family="monospace" font-size="10.00">external mod</text>
<polyline fill="none" stroke="black" points="892.96,-377.58 1101.96,-377.58 "/>
<text text-anchor="middle" x="997.46" y="-365.58" font-family="monospace" font-size="10.00">lightning_reputation::statistics</text>
</g>
<!-- lightning_application::state&#45;&gt;lightning_reputation::statistics -->
<g id="edge29" class="edge">
<title>lightning_application::state&#45;&gt;lightning_reputation::statistics</title>
<path fill="none" stroke="#7f7f7f" stroke-dasharray="5,2" d="M885.05,-377.58C885.21,-377.58 885.37,-377.58 885.53,-377.58"/>
<polygon fill="#7f7f7f" stroke="#7f7f7f" points="882.71,-381.08 892.71,-377.58 882.71,-374.08 882.71,-381.08"/>
<text text-anchor="middle" x="885.29" y="-369.58" font-family="monospace" font-size="10.00">uses</text>
</g>
</g>
</svg>
