<?xml version="1.0" encoding="UTF-8" standalone="no"?>
<!DOCTYPE svg PUBLIC "-//W3C//DTD SVG 1.1//EN"
 "http://www.w3.org/Graphics/SVG/1.1/DTD/svg11.dtd">
<!-- Generated by graphviz version 4.0.0 (0)
 -->
<!-- Pages: 1 -->
<svg width="1170pt" height="540pt"
 viewBox="0.00 0.00 1170.35 539.54" xmlns="http://www.w3.org/2000/svg" xmlns:xlink="http://www.w3.org/1999/xlink">
<g id="graph0" class="graph" transform="scale(1 1) rotate(0) translate(28.8 510.74)">
<polygon fill="white" stroke="transparent" points="-28.8,28.8 -28.8,-510.74 1141.55,-510.74 1141.55,28.8 -28.8,28.8"/>
<text text-anchor="middle" x="556.38" y="-449.14" font-family="Helvetica,sans-Serif" font-size="36.00">lightning_signer</text>
<!-- lightning_signer -->
<g id="node1" class="node">
<title>lightning_signer</title>
<polygon fill="#5397c8" stroke="black" points="486.4,-200.16 486.4,-238.16 599.4,-238.16 599.4,-200.16 486.4,-200.16"/>
<text text-anchor="middle" x="542.9" y="-226.16" font-family="monospace" font-size="10.00">crate</text>
<polyline fill="none" stroke="black" points="486.4,-219.16 599.4,-219.16 "/>
<text text-anchor="middle" x="542.9" y="-207.16" font-family="monospace" font-size="10.00">lightning_signer</text>
</g>
<!-- lightning_signer::PendingTransaction -->
<g id="node2" class="node">
<title>lightning_signer::PendingTransaction</title>
<polygon fill="#f8c04c" stroke="black" points="362.88,-61.45 362.88,-99.45 487.88,-99.45 487.88,-61.45 362.88,-61.45"/>
<text text-anchor="middle" x="425.38" y="-87.45" font-family="monospace" font-size="10.00">pub(crate) struct</text>
<polyline fill="none" stroke="black" points="362.88,-80.45 487.88,-80.45 "/>
<text text-anchor="middle" x="425.38" y="-68.45" font-family="monospace" font-size="10.00">PendingTransaction</text>
</g>
<!-- lightning_signer&#45;&gt;lightning_signer::PendingTransaction -->
<g id="edge1" class="edge">
<title>lightning_signer&#45;&gt;lightning_signer::PendingTransaction</title>
<path fill="none" stroke="#000000" d="M526.56,-199.87C506.21,-175.86 471.34,-134.69 448.32,-107.52"/>
<polygon fill="#000000" stroke="#000000" points="450.72,-104.94 441.58,-99.57 445.38,-109.47 450.72,-104.94"/>
<text text-anchor="middle" x="474.94" y="-156.7" font-family="monospace" font-size="10.00">owns</text>
</g>
<!-- lightning_signer::Signer -->
<g id="node3" class="node">
<title>lightning_signer::Signer</title>
<polygon fill="#81c169" stroke="black" points="804.77,-204.12 804.77,-242.12 881.77,-242.12 881.77,-204.12 804.77,-204.12"/>
<text text-anchor="middle" x="843.27" y="-230.12" font-family="monospace" font-size="10.00">pub struct</text>
<polyline fill="none" stroke="black" points="804.77,-223.12 881.77,-223.12 "/>
<text text-anchor="middle" x="843.27" y="-211.12" font-family="monospace" font-size="10.00">Signer</text>
</g>
<!-- lightning_signer&#45;&gt;lightning_signer::Signer -->
<g id="edge2" class="edge">
<title>lightning_signer&#45;&gt;lightning_signer::Signer</title>
<path fill="none" stroke="#000000" d="M599.75,-219.91C655.88,-220.65 740.82,-221.77 794.11,-222.47"/>
<polygon fill="#000000" stroke="#000000" points="794.29,-225.97 804.33,-222.61 794.38,-218.97 794.29,-225.97"/>
<text text-anchor="middle" x="684.43" y="-224.19" font-family="monospace" font-size="10.00">owns</text>
</g>
<!-- lightning_signer::SignerInner -->
<g id="node12" class="node">
<title>lightning_signer::SignerInner</title>
<polygon fill="#f8c04c" stroke="black" points="233.44,-220.24 233.44,-258.24 352.44,-258.24 352.44,-220.24 233.44,-220.24"/>
<text text-anchor="middle" x="292.94" y="-246.24" font-family="monospace" font-size="10.00">pub(crate) struct</text>
<polyline fill="none" stroke="black" points="233.44,-239.24 352.44,-239.24 "/>
<text text-anchor="middle" x="292.94" y="-227.24" font-family="monospace" font-size="10.00">SignerInner</text>
</g>
<!-- lightning_signer&#45;&gt;lightning_signer::SignerInner -->
<g id="edge3" class="edge">
<title>lightning_signer&#45;&gt;lightning_signer::SignerInner</title>
<path fill="none" stroke="#000000" d="M486.18,-223.72C449.56,-226.66 401.65,-230.51 362.7,-233.64"/>
<polygon fill="#000000" stroke="#000000" points="362.17,-230.17 352.49,-234.46 362.73,-237.15 362.17,-230.17"/>
<text text-anchor="middle" x="411.94" y="-231.68" font-family="monospace" font-size="10.00">owns</text>
</g>
<!-- lightning_signer::config::SignerConfig -->
<g id="node16" class="node">
<title>lightning_signer::config::SignerConfig</title>
<polygon fill="#81c169" stroke="black" points="534.41,-353.13 534.41,-391.13 671.41,-391.13 671.41,-353.13 534.41,-353.13"/>
<text text-anchor="middle" x="602.91" y="-379.13" font-family="monospace" font-size="10.00">pub struct</text>
<polyline fill="none" stroke="black" points="534.41,-372.13 671.41,-372.13 "/>
<text text-anchor="middle" x="602.91" y="-360.13" font-family="monospace" font-size="10.00">config::SignerConfig</text>
</g>
<!-- lightning_signer&#45;&gt;lightning_signer::config::SignerConfig -->
<g id="edge4" class="edge">
<title>lightning_signer&#45;&gt;lightning_signer::config::SignerConfig</title>
<path fill="none" stroke="#000000" d="M533.18,-238.33C531.42,-265.36 547.73,-313.6 566.93,-344.39"/>
<polygon fill="#000000" stroke="#000000" points="564.21,-346.61 572.69,-352.96 570.02,-342.71 564.21,-346.61"/>
<text text-anchor="middle" x="537.56" y="-294.36" font-family="monospace" font-size="10.00">owns</text>
</g>
<!-- lightning_signer&#45;&gt;lightning_signer::config::SignerConfig -->
<g id="edge5" class="edge">
<title>lightning_signer&#45;&gt;lightning_signer::config::SignerConfig</title>
<path fill="none" stroke="#7f7f7f" stroke-dasharray="5,2" d="M573.2,-238.43C592.41,-264.88 610.26,-311.69 612.52,-342.53"/>
<polygon fill="#7f7f7f" stroke="#7f7f7f" points="609.02,-342.76 612.65,-352.72 616.02,-342.68 609.02,-342.76"/>
<text text-anchor="middle" x="580.36" y="-293.48" font-family="monospace" font-size="10.00">uses</text>
</g>
<!-- lightning_signer::Signer::Config -->
<g id="node4" class="node">
<title>lightning_signer::Signer::Config</title>
<polygon fill="#f8c04c" stroke="black" points="652.01,-255.95 652.01,-293.95 759.01,-293.95 759.01,-255.95 652.01,-255.95"/>
<text text-anchor="middle" x="705.51" y="-281.95" font-family="monospace" font-size="10.00">pub(crate) type</text>
<polyline fill="none" stroke="black" points="652.01,-274.95 759.01,-274.95 "/>
<text text-anchor="middle" x="705.51" y="-262.95" font-family="monospace" font-size="10.00">Signer::Config</text>
</g>
<!-- lightning_signer::Signer&#45;&gt;lightning_signer::Signer::Config -->
<g id="edge6" class="edge">
<title>lightning_signer::Signer&#45;&gt;lightning_signer::Signer::Config</title>
<path fill="none" stroke="#000000" d="M804.53,-237.69C792.43,-242.25 778.78,-247.38 765.57,-252.35"/>
<polygon fill="#000000" stroke="#000000" points="764.18,-249.14 756.06,-255.93 766.65,-255.69 764.18,-249.14"/>
<text text-anchor="middle" x="772.55" y="-248.02" font-family="monospace" font-size="10.00">owns</text>
</g>
<!-- lightning_signer::Signer::get_socket -->
<g id="node5" class="node">
<title>lightning_signer::Signer::get_socket</title>
<polygon fill="#f8c04c" stroke="black" points="987.75,-187.65 987.75,-225.65 1112.75,-225.65 1112.75,-187.65 987.75,-187.65"/>
<text text-anchor="middle" x="1050.25" y="-213.65" font-family="monospace" font-size="10.00">pub(crate) fn</text>
<polyline fill="none" stroke="black" points="987.75,-206.65 1112.75,-206.65 "/>
<text text-anchor="middle" x="1050.25" y="-194.65" font-family="monospace" font-size="10.00">Signer::get_socket</text>
</g>
<!-- lightning_signer::Signer&#45;&gt;lightning_signer::Signer::get_socket -->
<g id="edge7" class="edge">
<title>lightning_signer::Signer&#45;&gt;lightning_signer::Signer::get_socket</title>
<path fill="none" stroke="#000000" d="M881.97,-241.37C922.03,-246.23 983.77,-240.92 1020.28,-229.16"/>
<polygon fill="#000000" stroke="#000000" points="1021.67,-232.38 1029.87,-225.68 1019.28,-225.8 1021.67,-232.38"/>
<text text-anchor="middle" x="938.62" y="-238.27" font-family="monospace" font-size="10.00">owns</text>
</g>
<!-- lightning_signer::Signer::init -->
<g id="node6" class="node">
<title>lightning_signer::Signer::init</title>
<polygon fill="#f8c04c" stroke="black" points="703.07,-386.83 703.07,-424.83 798.07,-424.83 798.07,-386.83 703.07,-386.83"/>
<text text-anchor="middle" x="750.57" y="-412.83" font-family="monospace" font-size="10.00">pub(crate) fn</text>
<polyline fill="none" stroke="black" points="703.07,-405.83 798.07,-405.83 "/>
<text text-anchor="middle" x="750.57" y="-393.83" font-family="monospace" font-size="10.00">Signer::init</text>
</g>
<!-- lightning_signer::Signer&#45;&gt;lightning_signer::Signer::init -->
<g id="edge8" class="edge">
<title>lightning_signer::Signer&#45;&gt;lightning_signer::Signer::init</title>
<path fill="none" stroke="#000000" d="M811.03,-242.15C783.57,-274.58 751.83,-338.73 745.18,-376.73"/>
<polygon fill="#000000" stroke="#000000" points="741.69,-376.36 743.99,-386.71 748.65,-377.19 741.69,-376.36"/>
<text text-anchor="middle" x="765.6" y="-312.44" font-family="monospace" font-size="10.00">owns</text>
</g>
<!-- lightning_signer::Signer::is_running -->
<g id="node7" class="node">
<title>lightning_signer::Signer::is_running</title>
<polygon fill="#f8c04c" stroke="black" points="956.46,-314.68 956.46,-352.68 1081.46,-352.68 1081.46,-314.68 956.46,-314.68"/>
<text text-anchor="middle" x="1018.96" y="-340.68" font-family="monospace" font-size="10.00">pub(crate) fn</text>
<polyline fill="none" stroke="black" points="956.46,-333.68 1081.46,-333.68 "/>
<text text-anchor="middle" x="1018.96" y="-321.68" font-family="monospace" font-size="10.00">Signer::is_running</text>
</g>
<!-- lightning_signer::Signer&#45;&gt;lightning_signer::Signer::is_running -->
<g id="edge9" class="edge">
<title>lightning_signer::Signer&#45;&gt;lightning_signer::Signer::is_running</title>
<path fill="none" stroke="#000000" d="M847.03,-242.13C862.04,-265.13 906.9,-297.88 947.26,-318.77"/>
<polygon fill="#000000" stroke="#000000" points="945.82,-321.96 956.33,-323.3 948.95,-315.7 945.82,-321.96"/>
<text text-anchor="middle" x="884.64" y="-283.45" font-family="monospace" font-size="10.00">owns</text>
</g>
<!-- lightning_signer::Signer::provide_new_block_notify -->
<g id="node8" class="node">
<title>lightning_signer::Signer::provide_new_block_notify</title>
<polygon fill="#f8c04c" stroke="black" points="893.82,-68.66 893.82,-106.66 1102.82,-106.66 1102.82,-68.66 893.82,-68.66"/>
<text text-anchor="middle" x="998.32" y="-94.66" font-family="monospace" font-size="10.00">pub(crate) fn</text>
<polyline fill="none" stroke="black" points="893.82,-87.66 1102.82,-87.66 "/>
<text text-anchor="middle" x="998.32" y="-75.66" font-family="monospace" font-size="10.00">Signer::provide_new_block_notify</text>
</g>
<!-- lightning_signer::Signer&#45;&gt;lightning_signer::Signer::provide_new_block_notify -->
<g id="edge10" class="edge">
<title>lightning_signer::Signer&#45;&gt;lightning_signer::Signer::provide_new_block_notify</title>
<path fill="none" stroke="#000000" d="M882.06,-216.54C919.98,-195.94 972.9,-148.45 992.79,-116.03"/>
<polygon fill="#000000" stroke="#000000" points="996.04,-117.38 997.67,-106.91 989.87,-114.08 996.04,-117.38"/>
<text text-anchor="middle" x="924.93" y="-169.28" font-family="monospace" font-size="10.00">owns</text>
</g>
<!-- lightning_signer::Signer::shutdown -->
<g id="node9" class="node">
<title>lightning_signer::Signer::shutdown</title>
<polygon fill="#f8c04c" stroke="black" points="845.81,-395.44 845.81,-433.44 976.81,-433.44 976.81,-395.44 845.81,-395.44"/>
<text text-anchor="middle" x="911.31" y="-421.44" font-family="monospace" font-size="10.00">pub(crate) async fn</text>
<polyline fill="none" stroke="black" points="845.81,-414.44 976.81,-414.44 "/>
<text text-anchor="middle" x="911.31" y="-402.44" font-family="monospace" font-size="10.00">Signer::shutdown</text>
</g>
<!-- lightning_signer::Signer&#45;&gt;lightning_signer::Signer::shutdown -->
<g id="edge11" class="edge">
<title>lightning_signer::Signer&#45;&gt;lightning_signer::Signer::shutdown</title>
<path fill="none" stroke="#000000" d="M834.19,-242.2C832.05,-276.34 854.76,-346.71 878.48,-386.31"/>
<polygon fill="#000000" stroke="#000000" points="875.84,-388.68 884.19,-395.2 881.73,-384.89 875.84,-388.68"/>
<text text-anchor="middle" x="843.83" y="-317.25" font-family="monospace" font-size="10.00">owns</text>
</g>
<!-- lightning_signer::Signer::sign_raw_digest -->
<g id="node10" class="node">
<title>lightning_signer::Signer::sign_raw_digest</title>
<polygon fill="#f8c04c" stroke="black" points="674.5,-47.5 674.5,-85.5 829.5,-85.5 829.5,-47.5 674.5,-47.5"/>
<text text-anchor="middle" x="752" y="-73.5" font-family="monospace" font-size="10.00">pub(crate) fn</text>
<polyline fill="none" stroke="black" points="674.5,-66.5 829.5,-66.5 "/>
<text text-anchor="middle" x="752" y="-54.5" font-family="monospace" font-size="10.00">Signer::sign_raw_digest</text>
</g>
<!-- lightning_signer::Signer&#45;&gt;lightning_signer::Signer::sign_raw_digest -->
<g id="edge12" class="edge">
<title>lightning_signer::Signer&#45;&gt;lightning_signer::Signer::sign_raw_digest</title>
<path fill="none" stroke="#000000" d="M849.48,-204.07C847.18,-175.75 820.89,-124.88 794.88,-93.16"/>
<polygon fill="#000000" stroke="#000000" points="797.48,-90.81 788.29,-85.53 792.18,-95.38 797.48,-90.81"/>
<text text-anchor="middle" x="809.68" y="-151.61" font-family="monospace" font-size="10.00">owns</text>
</g>
<!-- lightning_signer::Signer::start -->
<g id="node11" class="node">
<title>lightning_signer::Signer::start</title>
<polygon fill="#f8c04c" stroke="black" points="817.95,-0.5 817.95,-38.5 948.95,-38.5 948.95,-0.5 817.95,-0.5"/>
<text text-anchor="middle" x="883.45" y="-26.5" font-family="monospace" font-size="10.00">pub(crate) async fn</text>
<polyline fill="none" stroke="black" points="817.95,-19.5 948.95,-19.5 "/>
<text text-anchor="middle" x="883.45" y="-7.5" font-family="monospace" font-size="10.00">Signer::start</text>
</g>
<!-- lightning_signer::Signer&#45;&gt;lightning_signer::Signer::start -->
<g id="edge13" class="edge">
<title>lightning_signer::Signer&#45;&gt;lightning_signer::Signer::start</title>
<path fill="none" stroke="#000000" d="M865.12,-203.98C884.47,-168.13 899.98,-91.09 896.68,-48.73"/>
<polygon fill="#000000" stroke="#000000" points="900.15,-48.24 895.43,-38.75 893.21,-49.11 900.15,-48.24"/>
<text text-anchor="middle" x="868.4" y="-129.36" font-family="monospace" font-size="10.00">owns</text>
</g>
<!-- lightning_signer::Signer::Config&#45;&gt;lightning_signer::config::SignerConfig -->
<g id="edge14" class="edge">
<title>lightning_signer::Signer::Config&#45;&gt;lightning_signer::config::SignerConfig</title>
<path fill="none" stroke="#7f7f7f" stroke-dasharray="5,2" d="M685.24,-294.15C669.64,-308.92 647.91,-329.5 630.69,-345.81"/>
<polygon fill="#7f7f7f" stroke="#7f7f7f" points="627.99,-343.55 623.14,-352.97 632.8,-348.63 627.99,-343.55"/>
<text text-anchor="middle" x="645.47" y="-322.98" font-family="monospace" font-size="10.00">uses</text>
</g>
<!-- lightning_signer::Signer::get_socket&#45;&gt;lightning_signer::Signer -->
<g id="edge15" class="edge">
<title>lightning_signer::Signer::get_socket&#45;&gt;lightning_signer::Signer</title>
<path fill="none" stroke="#7f7f7f" stroke-dasharray="5,2" d="M1004.31,-187.64C964.35,-184.17 907.6,-189.53 873.23,-200.61"/>
<polygon fill="#7f7f7f" stroke="#7f7f7f" points="871.94,-197.35 863.74,-204.05 874.33,-203.93 871.94,-197.35"/>
<text text-anchor="middle" x="926.27" y="-197.13" font-family="monospace" font-size="10.00">uses</text>
</g>
<!-- lightning_signer::Signer::init&#45;&gt;lightning_signer::Signer -->
<g id="edge16" class="edge">
<title>lightning_signer::Signer::init&#45;&gt;lightning_signer::Signer</title>
<path fill="none" stroke="#7f7f7f" stroke-dasharray="5,2" d="M782.82,-386.79C810.28,-354.36 842.02,-290.21 848.67,-252.21"/>
<polygon fill="#7f7f7f" stroke="#7f7f7f" points="852.15,-252.58 849.86,-242.24 845.2,-251.75 852.15,-252.58"/>
<text text-anchor="middle" x="803.24" y="-322.5" font-family="monospace" font-size="10.00">uses</text>
</g>
<!-- lightning_signer::Signer::init&#45;&gt;lightning_signer::config::SignerConfig -->
<g id="edge17" class="edge">
<title>lightning_signer::Signer::init&#45;&gt;lightning_signer::config::SignerConfig</title>
<path fill="none" stroke="#7f7f7f" stroke-dasharray="5,2" d="M703.04,-394.98C696.14,-393.4 688.89,-391.75 681.58,-390.08"/>
<polygon fill="#7f7f7f" stroke="#7f7f7f" points="682.12,-386.61 671.59,-387.8 680.56,-393.44 682.12,-386.61"/>
<text text-anchor="middle" x="679.81" y="-395.53" font-family="monospace" font-size="10.00">uses</text>
</g>
<!-- lightning_signer::Signer::is_running&#45;&gt;lightning_signer::Signer -->
<g id="edge18" class="edge">
<title>lightning_signer::Signer::is_running&#45;&gt;lightning_signer::Signer</title>
<path fill="none" stroke="#7f7f7f" stroke-dasharray="5,2" d="M1015.21,-314.66C997.2,-287.09 936.27,-245.48 891.66,-227.12"/>
<polygon fill="#7f7f7f" stroke="#7f7f7f" points="892.72,-223.78 882.13,-223.47 890.21,-230.32 892.72,-223.78"/>
<text text-anchor="middle" x="940.93" y="-273.89" font-family="monospace" font-size="10.00">uses</text>
</g>
<!-- lightning_signer::Signer::provide_new_block_notify&#45;&gt;lightning_signer::Signer -->
<g id="edge19" class="edge">
<title>lightning_signer::Signer::provide_new_block_notify&#45;&gt;lightning_signer::Signer</title>
<path fill="none" stroke="#7f7f7f" stroke-dasharray="5,2" d="M939.01,-106.95C904.37,-130.71 865.02,-168.12 848.63,-195.02"/>
<polygon fill="#7f7f7f" stroke="#7f7f7f" points="845.43,-193.58 843.84,-204.05 851.62,-196.86 845.43,-193.58"/>
<text text-anchor="middle" x="881.32" y="-153.98" font-family="monospace" font-size="10.00">uses</text>
</g>
<!-- lightning_signer::Signer::shutdown&#45;&gt;lightning_signer::Signer -->
<g id="edge20" class="edge">
<title>lightning_signer::Signer::shutdown&#45;&gt;lightning_signer::Signer</title>
<path fill="none" stroke="#7f7f7f" stroke-dasharray="5,2" d="M920.4,-395.36C922.53,-361.21 899.83,-290.84 876.11,-251.25"/>
<polygon fill="#7f7f7f" stroke="#7f7f7f" points="878.74,-248.88 870.4,-242.36 872.85,-252.66 878.74,-248.88"/>
<text text-anchor="middle" x="885.75" y="-326.3" font-family="monospace" font-size="10.00">uses</text>
</g>
<!-- lightning_signer::Signer::sign_raw_digest&#45;&gt;lightning_signer::Signer -->
<g id="edge21" class="edge">
<title>lightning_signer::Signer::sign_raw_digest&#45;&gt;lightning_signer::Signer</title>
<path fill="none" stroke="#7f7f7f" stroke-dasharray="5,2" d="M745.79,-85.55C748.09,-113.87 774.38,-164.74 800.39,-196.47"/>
<polygon fill="#7f7f7f" stroke="#7f7f7f" points="797.79,-198.82 806.98,-204.1 803.09,-194.24 797.79,-198.82"/>
<text text-anchor="middle" x="760.59" y="-144.01" font-family="monospace" font-size="10.00">uses</text>
</g>
<!-- lightning_signer::Signer::start&#45;&gt;lightning_signer::Signer -->
<g id="edge22" class="edge">
<title>lightning_signer::Signer::start&#45;&gt;lightning_signer::Signer</title>
<path fill="none" stroke="#7f7f7f" stroke-dasharray="5,2" d="M861.6,-38.64C842.25,-74.49 826.74,-151.52 830.04,-193.89"/>
<polygon fill="#7f7f7f" stroke="#7f7f7f" points="826.57,-194.38 831.29,-203.87 833.52,-193.51 826.57,-194.38"/>
<text text-anchor="middle" x="833.32" y="-119.26" font-family="monospace" font-size="10.00">uses</text>
</g>
<!-- lightning_signer::SignerInner::handle -->
<g id="node13" class="node">
<title>lightning_signer::SignerInner::handle</title>
<polygon fill="#f8c04c" stroke="black" points="211.69,-57.69 211.69,-95.69 342.69,-95.69 342.69,-57.69 211.69,-57.69"/>
<text text-anchor="middle" x="277.19" y="-83.69" font-family="monospace" font-size="10.00">pub(crate) async fn</text>
<polyline fill="none" stroke="black" points="211.69,-76.69 342.69,-76.69 "/>
<text text-anchor="middle" x="277.19" y="-64.69" font-family="monospace" font-size="10.00">SignerInner::handle</text>
</g>
<!-- lightning_signer::SignerInner&#45;&gt;lightning_signer::SignerInner::handle -->
<g id="edge23" class="edge">
<title>lightning_signer::SignerInner&#45;&gt;lightning_signer::SignerInner::handle</title>
<path fill="none" stroke="#000000" d="M291.07,-219.96C288.33,-191.65 283.19,-138.65 280,-105.65"/>
<polygon fill="#000000" stroke="#000000" points="283.48,-105.31 279.03,-95.69 276.51,-105.99 283.48,-105.31"/>
<text text-anchor="middle" x="273.04" y="-165.8" font-family="monospace" font-size="10.00">owns</text>
</g>
<!-- lightning_signer::SignerInner::init -->
<g id="node14" class="node">
<title>lightning_signer::SignerInner::init</title>
<polygon fill="#f8c04c" stroke="black" points="132.02,-366.02 132.02,-404.02 251.02,-404.02 251.02,-366.02 132.02,-366.02"/>
<text text-anchor="middle" x="191.52" y="-392.02" font-family="monospace" font-size="10.00">pub(crate) fn</text>
<polyline fill="none" stroke="black" points="132.02,-385.02 251.02,-385.02 "/>
<text text-anchor="middle" x="191.52" y="-373.02" font-family="monospace" font-size="10.00">SignerInner::init</text>
</g>
<!-- lightning_signer::SignerInner&#45;&gt;lightning_signer::SignerInner::init -->
<g id="edge24" class="edge">
<title>lightning_signer::SignerInner&#45;&gt;lightning_signer::SignerInner::init</title>
<path fill="none" stroke="#000000" d="M251.65,-258.53C225.94,-283.88 197.98,-326.47 189.08,-355.7"/>
<polygon fill="#000000" stroke="#000000" points="185.58,-355.28 186.7,-365.81 192.39,-356.88 185.58,-355.28"/>
<text text-anchor="middle" x="207.86" y="-310.12" font-family="monospace" font-size="10.00">owns</text>
</g>
<!-- lightning_signer::SignerInner::sync_with_application -->
<g id="node15" class="node">
<title>lightning_signer::SignerInner::sync_with_application</title>
<polygon fill="#f8c04c" stroke="black" points="0,-194.74 0,-232.74 221,-232.74 221,-194.74 0,-194.74"/>
<text text-anchor="middle" x="110.5" y="-220.74" font-family="monospace" font-size="10.00">pub(crate) async fn</text>
<polyline fill="none" stroke="black" points="0,-213.74 221,-213.74 "/>
<text text-anchor="middle" x="110.5" y="-201.74" font-family="monospace" font-size="10.00">SignerInner::sync_with_application</text>
</g>
<!-- lightning_signer::SignerInner&#45;&gt;lightning_signer::SignerInner::sync_with_application -->
<g id="edge25" class="edge">
<title>lightning_signer::SignerInner&#45;&gt;lightning_signer::SignerInner::sync_with_application</title>
<path fill="none" stroke="#000000" d="M233.2,-230.89C232.59,-230.81 231.97,-230.72 231.35,-230.63"/>
<polygon fill="#000000" stroke="#000000" points="231.51,-227.12 221.12,-229.21 230.54,-234.06 231.51,-227.12"/>
<text text-anchor="middle" x="219.78" y="-233.76" font-family="monospace" font-size="10.00">owns</text>
</g>
<!-- lightning_signer::SignerInner::handle&#45;&gt;lightning_signer::PendingTransaction -->
<g id="edge26" class="edge">
<title>lightning_signer::SignerInner::handle&#45;&gt;lightning_signer::PendingTransaction</title>
<path fill="none" stroke="#7f7f7f" stroke-dasharray="5,2" d="M343.05,-78.36C346.2,-78.44 349.36,-78.52 352.52,-78.6"/>
<polygon fill="#7f7f7f" stroke="#7f7f7f" points="352.5,-82.1 362.58,-78.86 352.68,-75.1 352.5,-82.1"/>
<text text-anchor="middle" x="347.79" y="-70.48" font-family="monospace" font-size="10.00">uses</text>
</g>
<!-- lightning_signer::SignerInner::init&#45;&gt;lightning_signer::SignerInner -->
<g id="edge27" class="edge">
<title>lightning_signer::SignerInner::init&#45;&gt;lightning_signer::SignerInner</title>
<path fill="none" stroke="#7f7f7f" stroke-dasharray="5,2" d="M232.81,-365.73C258.53,-340.39 286.48,-297.8 295.39,-268.56"/>
<polygon fill="#7f7f7f" stroke="#7f7f7f" points="298.88,-268.99 297.77,-258.45 292.07,-267.38 298.88,-268.99"/>
<text text-anchor="middle" x="251.6" y="-320.15" font-family="monospace" font-size="10.00">uses</text>
</g>
</g>
</svg>
