<?xml version="1.0" encoding="UTF-8" standalone="no"?>
<!DOCTYPE svg PUBLIC "-//W3C//DTD SVG 1.1//EN"
 "http://www.w3.org/Graphics/SVG/1.1/DTD/svg11.dtd">
<!-- Generated by graphviz version 4.0.0 (0)
 -->
<!-- Pages: 1 -->
<svg width="461pt" height="453pt"
 viewBox="0.00 0.00 461.07 453.03" xmlns="http://www.w3.org/2000/svg" xmlns:xlink="http://www.w3.org/1999/xlink">
<g id="graph0" class="graph" transform="scale(1 1) rotate(0) translate(28.8 424.23)">
<polygon fill="white" stroke="transparent" points="-28.8,28.8 -28.8,-424.23 432.27,-424.23 432.27,28.8 -28.8,28.8"/>
<text text-anchor="middle" x="201.74" y="-362.63" font-family="Helvetica,sans-Serif" font-size="36.00">lightning_keystore</text>
<!-- fdi -->
<g id="node1" class="node">
<title>fdi</title>
<polygon fill="#5397c8" stroke="black" points="155.41,-308.93 155.41,-346.93 256.41,-346.93 256.41,-308.93 155.41,-308.93"/>
<text text-anchor="middle" x="205.91" y="-334.93" font-family="monospace" font-size="10.00">external crate</text>
<polyline fill="none" stroke="black" points="155.41,-327.93 256.41,-327.93 "/>
<text text-anchor="middle" x="205.91" y="-315.93" font-family="monospace" font-size="10.00">fdi</text>
</g>
<!-- lightning_keystore -->
<g id="node2" class="node">
<title>lightning_keystore</title>
<polygon fill="#5397c8" stroke="black" points="18.89,-201.67 18.89,-239.67 143.89,-239.67 143.89,-201.67 18.89,-201.67"/>
<text text-anchor="middle" x="81.39" y="-227.67" font-family="monospace" font-size="10.00">crate</text>
<polyline fill="none" stroke="black" points="18.89,-220.67 143.89,-220.67 "/>
<text text-anchor="middle" x="81.39" y="-208.67" font-family="monospace" font-size="10.00">lightning_keystore</text>
</g>
<!-- lightning_keystore::config -->
<g id="node3" class="node">
<title>lightning_keystore::config</title>
<polygon fill="#f8c04c" stroke="black" points="0,-96.59 0,-134.59 173,-134.59 173,-96.59 0,-96.59"/>
<text text-anchor="middle" x="86.5" y="-122.59" font-family="monospace" font-size="10.00">pub(crate) mod</text>
<polyline fill="none" stroke="black" points="0,-115.59 173,-115.59 "/>
<text text-anchor="middle" x="86.5" y="-103.59" font-family="monospace" font-size="10.00">lightning_keystore::config</text>
</g>
<!-- lightning_keystore&#45;&gt;lightning_keystore::config -->
<g id="edge1" class="edge">
<title>lightning_keystore&#45;&gt;lightning_keystore::config</title>
<path fill="none" stroke="#000000" d="M104.18,-201.47C110.98,-185.53 112.86,-162.63 109.24,-144.49"/>
<polygon fill="#000000" stroke="#000000" points="112.58,-143.43 106.58,-134.7 105.83,-145.27 112.58,-143.43"/>
<text text-anchor="middle" x="94.21" y="-175.98" font-family="monospace" font-size="10.00">owns</text>
</g>
<!-- lightning_keystore&#45;&gt;lightning_keystore::config -->
<g id="edge2" class="edge">
<title>lightning_keystore&#45;&gt;lightning_keystore::config</title>
<path fill="none" stroke="#7f7f7f" stroke-dasharray="5,2" d="M61.24,-201.34C55.55,-185.35 55.48,-162.41 60.44,-144.28"/>
<polygon fill="#7f7f7f" stroke="#7f7f7f" points="63.77,-145.37 63.71,-134.77 57.15,-143.09 63.77,-145.37"/>
<text text-anchor="middle" x="48.34" y="-175.81" font-family="monospace" font-size="10.00">uses</text>
</g>
<!-- lightning_keystore::keystore -->
<g id="node4" class="node">
<title>lightning_keystore::keystore</title>
<polygon fill="#f8c04c" stroke="black" points="129.08,-154.66 129.08,-192.66 314.08,-192.66 314.08,-154.66 129.08,-154.66"/>
<text text-anchor="middle" x="221.58" y="-180.66" font-family="monospace" font-size="10.00">pub(crate) mod</text>
<polyline fill="none" stroke="black" points="129.08,-173.66 314.08,-173.66 "/>
<text text-anchor="middle" x="221.58" y="-161.66" font-family="monospace" font-size="10.00">lightning_keystore::keystore</text>
</g>
<!-- lightning_keystore&#45;&gt;lightning_keystore::keystore -->
<g id="edge3" class="edge">
<title>lightning_keystore&#45;&gt;lightning_keystore::keystore</title>
<path fill="none" stroke="#000000" d="M143.97,-227.5C167.22,-221.62 191.56,-211.21 206.8,-199.69"/>
<polygon fill="#000000" stroke="#000000" points="209.44,-202.03 214.65,-192.8 204.83,-196.77 209.44,-202.03"/>
<text text-anchor="middle" x="162.89" y="-216.59" font-family="monospace" font-size="10.00">owns</text>
</g>
<!-- lightning_keystore&#45;&gt;lightning_keystore::keystore -->
<g id="edge4" class="edge">
<title>lightning_keystore&#45;&gt;lightning_keystore::keystore</title>
<path fill="none" stroke="#7f7f7f" stroke-dasharray="5,2" d="M88.28,-201.57C95.27,-194.22 106.55,-187.04 119.67,-180.85"/>
<polygon fill="#7f7f7f" stroke="#7f7f7f" points="121.28,-183.97 129.02,-176.73 118.45,-177.56 121.28,-183.97"/>
<text text-anchor="middle" x="116.47" y="-183.21" font-family="monospace" font-size="10.00">uses</text>
</g>
<!-- lightning_keystore::keystore&#45;&gt;fdi -->
<g id="edge5" class="edge">
<title>lightning_keystore::keystore&#45;&gt;fdi</title>
<path fill="none" stroke="#7f7f7f" stroke-dasharray="5,2" d="M219.63,-192.89C216.94,-219.33 212.08,-267.18 208.93,-298.24"/>
<polygon fill="#7f7f7f" stroke="#7f7f7f" points="205.42,-298.16 207.89,-308.46 212.38,-298.87 205.42,-298.16"/>
<text text-anchor="middle" x="201.78" y="-248.56" font-family="monospace" font-size="10.00">uses</text>
</g>
<!-- lightning_keystore::keystore&#45;&gt;lightning_keystore::config -->
<g id="edge6" class="edge">
<title>lightning_keystore::keystore&#45;&gt;lightning_keystore::config</title>
<path fill="none" stroke="#7f7f7f" stroke-dasharray="5,2" d="M177.35,-154.65C165.46,-149.53 152.46,-143.95 140.12,-138.64"/>
<polygon fill="#7f7f7f" stroke="#7f7f7f" points="141.4,-135.38 130.83,-134.65 138.63,-141.81 141.4,-135.38"/>
<text text-anchor="middle" x="146.23" y="-138.64" font-family="monospace" font-size="10.00">uses</text>
</g>
<!-- lightning_schema -->
<g id="node5" class="node">
<title>lightning_schema</title>
<polygon fill="#5397c8" stroke="black" points="290.47,-241.09 290.47,-279.09 403.47,-279.09 403.47,-241.09 290.47,-241.09"/>
<text text-anchor="middle" x="346.97" y="-267.09" font-family="monospace" font-size="10.00">external crate</text>
<polyline fill="none" stroke="black" points="290.47,-260.09 403.47,-260.09 "/>
<text text-anchor="middle" x="346.97" y="-248.09" font-family="monospace" font-size="10.00">lightning_schema</text>
</g>
<!-- lightning_keystore::keystore&#45;&gt;lightning_schema -->
<g id="edge7" class="edge">
<title>lightning_keystore::keystore&#45;&gt;lightning_schema</title>
<path fill="none" stroke="#7f7f7f" stroke-dasharray="5,2" d="M249.41,-192.84C267.51,-205.32 291.3,-221.72 310.85,-235.2"/>
<polygon fill="#7f7f7f" stroke="#7f7f7f" points="309,-238.17 319.22,-240.97 312.98,-232.41 309,-238.17"/>
<text text-anchor="middle" x="267.63" y="-217.02" font-family="monospace" font-size="10.00">uses</text>
</g>
<!-- lightning_types -->
<g id="node6" class="node">
<title>lightning_types</title>
<polygon fill="#5397c8" stroke="black" points="169.4,-0.5 169.4,-38.5 276.4,-38.5 276.4,-0.5 169.4,-0.5"/>
<text text-anchor="middle" x="222.9" y="-26.5" font-family="monospace" font-size="10.00">external crate</text>
<polyline fill="none" stroke="black" points="169.4,-19.5 276.4,-19.5 "/>
<text text-anchor="middle" x="222.9" y="-7.5" font-family="monospace" font-size="10.00">lightning_types</text>
</g>
<!-- lightning_keystore::keystore&#45;&gt;lightning_types -->
<g id="edge8" class="edge">
<title>lightning_keystore::keystore&#45;&gt;lightning_types</title>
<path fill="none" stroke="#7f7f7f" stroke-dasharray="5,2" d="M221.75,-154.45C221.97,-128.02 222.38,-80.21 222.64,-49.17"/>
<polygon fill="#7f7f7f" stroke="#7f7f7f" points="226.15,-48.98 222.73,-38.96 219.15,-48.92 226.15,-48.98"/>
<text text-anchor="middle" x="209.7" y="-104.81" font-family="monospace" font-size="10.00">uses</text>
</g>
<!-- std::fs -->
<g id="node7" class="node">
<title>std::fs</title>
<polygon fill="#81c169" stroke="black" points="312.99,-84.8 312.99,-122.8 401.99,-122.8 401.99,-84.8 312.99,-84.8"/>
<text text-anchor="middle" x="357.49" y="-110.8" font-family="monospace" font-size="10.00">external mod</text>
<polyline fill="none" stroke="black" points="312.99,-103.8 401.99,-103.8 "/>
<text text-anchor="middle" x="357.49" y="-91.8" font-family="monospace" font-size="10.00">std::fs</text>
</g>
<!-- lightning_keystore::keystore&#45;&gt;std::fs -->
<g id="edge9" class="edge">
<title>lightning_keystore::keystore&#45;&gt;std::fs</title>
<path fill="none" stroke="#7f7f7f" stroke-dasharray="5,2" d="M258.72,-154.57C274.9,-146.25 294.04,-136.42 311.14,-127.63"/>
<polygon fill="#7f7f7f" stroke="#7f7f7f" points="313.11,-130.55 320.4,-122.87 309.91,-124.33 313.11,-130.55"/>
<text text-anchor="middle" x="272.43" y="-144.1" font-family="monospace" font-size="10.00">uses</text>
</g>
</g>
</svg>
