<?xml version="1.0" encoding="UTF-8" standalone="no"?>
<!DOCTYPE svg PUBLIC "-//W3C//DTD SVG 1.1//EN"
 "http://www.w3.org/Graphics/SVG/1.1/DTD/svg11.dtd">
<!-- Generated by graphviz version 4.0.0 (0)
 -->
<!-- Pages: 1 -->
<svg width="684pt" height="603pt"
 viewBox="0.00 0.00 683.79 603.29" xmlns="http://www.w3.org/2000/svg" xmlns:xlink="http://www.w3.org/1999/xlink">
<g id="graph0" class="graph" transform="scale(1 1) rotate(0) translate(28.8 574.49)">
<polygon fill="white" stroke="transparent" points="-28.8,28.8 -28.8,-574.49 654.99,-574.49 654.99,28.8 -28.8,28.8"/>
<text text-anchor="middle" x="313.1" y="-512.89" font-family="Helvetica,sans-Serif" font-size="36.00">better_shutdown</text>
<!-- better_shutdown -->
<g id="node1" class="node">
<title>better_shutdown</title>
<polygon fill="#5397c8" stroke="black" points="259.25,-229.85 259.25,-267.85 366.25,-267.85 366.25,-229.85 259.25,-229.85"/>
<text text-anchor="middle" x="312.75" y="-255.85" font-family="monospace" font-size="10.00">crate</text>
<polyline fill="none" stroke="black" points="259.25,-248.85 366.25,-248.85 "/>
<text text-anchor="middle" x="312.75" y="-236.85" font-family="monospace" font-size="10.00">better_shutdown</text>
</g>
<!-- better_shutdown::backtrace_list -->
<g id="node2" class="node">
<title>better_shutdown::backtrace_list</title>
<polygon fill="#f8c04c" stroke="black" points="423.19,-331.92 423.19,-369.92 626.19,-369.92 626.19,-331.92 423.19,-331.92"/>
<text text-anchor="middle" x="524.69" y="-357.92" font-family="monospace" font-size="10.00">pub(crate) mod</text>
<polyline fill="none" stroke="black" points="423.19,-350.92 626.19,-350.92 "/>
<text text-anchor="middle" x="524.69" y="-338.92" font-family="monospace" font-size="10.00">better_shutdown::backtrace_list</text>
</g>
<!-- better_shutdown&#45;&gt;better_shutdown::backtrace_list -->
<g id="edge1" class="edge">
<title>better_shutdown&#45;&gt;better_shutdown::backtrace_list</title>
<path fill="none" stroke="#000000" d="M320.21,-268.08C336.58,-286.13 374.89,-309.33 414.04,-327.54"/>
<polygon fill="#000000" stroke="#000000" points="412.91,-330.87 423.46,-331.81 415.8,-324.49 412.91,-330.87"/>
<text text-anchor="middle" x="354.62" y="-300.81" font-family="monospace" font-size="10.00">owns</text>
</g>
<!-- better_shutdown&#45;&gt;better_shutdown::backtrace_list -->
<g id="edge2" class="edge">
<title>better_shutdown&#45;&gt;better_shutdown::backtrace_list</title>
<path fill="none" stroke="#7f7f7f" stroke-dasharray="5,2" d="M366.37,-249.84C413.97,-264.41 479.95,-298.02 509.77,-324.4"/>
<polygon fill="#7f7f7f" stroke="#7f7f7f" points="507.58,-327.15 517.18,-331.62 512.47,-322.14 507.58,-327.15"/>
<text text-anchor="middle" x="425.57" y="-290.12" font-family="monospace" font-size="10.00">uses</text>
</g>
<!-- better_shutdown::completion_fut -->
<g id="node3" class="node">
<title>better_shutdown::completion_fut</title>
<polygon fill="#f8c04c" stroke="black" points="263.59,-459.19 263.59,-497.19 466.59,-497.19 466.59,-459.19 263.59,-459.19"/>
<text text-anchor="middle" x="365.09" y="-485.19" font-family="monospace" font-size="10.00">pub(crate) mod</text>
<polyline fill="none" stroke="black" points="263.59,-478.19 466.59,-478.19 "/>
<text text-anchor="middle" x="365.09" y="-466.19" font-family="monospace" font-size="10.00">better_shutdown::completion_fut</text>
</g>
<!-- better_shutdown&#45;&gt;better_shutdown::completion_fut -->
<g id="edge3" class="edge">
<title>better_shutdown&#45;&gt;better_shutdown::completion_fut</title>
<path fill="none" stroke="#000000" d="M302.12,-268.24C296.42,-308.88 316.11,-402.46 338.54,-449.83"/>
<polygon fill="#000000" stroke="#000000" points="335.53,-451.63 343.21,-458.93 341.76,-448.43 335.53,-451.63"/>
<text text-anchor="middle" x="307.83" y="-362.03" font-family="monospace" font-size="10.00">owns</text>
</g>
<!-- better_shutdown&#45;&gt;better_shutdown::completion_fut -->
<g id="edge4" class="edge">
<title>better_shutdown&#45;&gt;better_shutdown::completion_fut</title>
<path fill="none" stroke="#7f7f7f" stroke-dasharray="5,2" d="M334.5,-267.9C357.17,-308.16 378.7,-401.46 376.56,-449.17"/>
<polygon fill="#7f7f7f" stroke="#7f7f7f" points="373.07,-448.89 375.66,-459.17 380.04,-449.52 373.07,-448.89"/>
<text text-anchor="middle" x="343.03" y="-361.53" font-family="monospace" font-size="10.00">uses</text>
</g>
<!-- better_shutdown::controller -->
<g id="node4" class="node">
<title>better_shutdown::controller</title>
<polygon fill="#f8c04c" stroke="black" points="76.57,-413.77 76.57,-451.77 255.57,-451.77 255.57,-413.77 76.57,-413.77"/>
<text text-anchor="middle" x="166.07" y="-439.77" font-family="monospace" font-size="10.00">pub(crate) mod</text>
<polyline fill="none" stroke="black" points="76.57,-432.77 255.57,-432.77 "/>
<text text-anchor="middle" x="166.07" y="-420.77" font-family="monospace" font-size="10.00">better_shutdown::controller</text>
</g>
<!-- better_shutdown&#45;&gt;better_shutdown::controller -->
<g id="edge5" class="edge">
<title>better_shutdown&#45;&gt;better_shutdown::controller</title>
<path fill="none" stroke="#000000" d="M270.31,-268.11C232.41,-301.22 182.96,-365.47 167.4,-403.87"/>
<polygon fill="#000000" stroke="#000000" points="164.03,-402.91 164.08,-413.51 170.65,-405.2 164.03,-402.91"/>
<text text-anchor="middle" x="206.36" y="-338.99" font-family="monospace" font-size="10.00">owns</text>
</g>
<!-- better_shutdown&#45;&gt;better_shutdown::controller -->
<g id="edge6" class="edge">
<title>better_shutdown&#45;&gt;better_shutdown::controller</title>
<path fill="none" stroke="#7f7f7f" stroke-dasharray="5,2" d="M314.78,-267.95C305.53,-302.05 256.22,-368.85 215.98,-406.72"/>
<polygon fill="#7f7f7f" stroke="#7f7f7f" points="213.38,-404.35 208.32,-413.67 218.08,-409.54 213.38,-404.35"/>
<text text-anchor="middle" x="252.88" y="-340.33" font-family="monospace" font-size="10.00">uses</text>
</g>
<!-- better_shutdown::shared -->
<g id="node5" class="node">
<title>better_shutdown::shared</title>
<polygon fill="#f8c04c" stroke="black" points="0,-229.85 0,-267.85 155,-267.85 155,-229.85 0,-229.85"/>
<text text-anchor="middle" x="77.5" y="-255.85" font-family="monospace" font-size="10.00">pub(crate) mod</text>
<polyline fill="none" stroke="black" points="0,-248.85 155,-248.85 "/>
<text text-anchor="middle" x="77.5" y="-236.85" font-family="monospace" font-size="10.00">better_shutdown::shared</text>
</g>
<!-- better_shutdown&#45;&gt;better_shutdown::shared -->
<g id="edge7" class="edge">
<title>better_shutdown&#45;&gt;better_shutdown::shared</title>
<path fill="none" stroke="#000000" d="M259.07,-248.85C231.29,-248.85 196.68,-248.85 165.15,-248.85"/>
<polygon fill="#000000" stroke="#000000" points="165.03,-245.35 155.03,-248.85 165.03,-252.35 165.03,-245.35"/>
<text text-anchor="middle" x="199.61" y="-251.85" font-family="monospace" font-size="10.00">owns</text>
</g>
<!-- better_shutdown::signal_fut -->
<g id="node6" class="node">
<title>better_shutdown::signal_fut</title>
<polygon fill="#f8c04c" stroke="black" points="76.57,-45.92 76.57,-83.92 255.57,-83.92 255.57,-45.92 76.57,-45.92"/>
<text text-anchor="middle" x="166.07" y="-71.92" font-family="monospace" font-size="10.00">pub(crate) mod</text>
<polyline fill="none" stroke="black" points="76.57,-64.92 255.57,-64.92 "/>
<text text-anchor="middle" x="166.07" y="-52.92" font-family="monospace" font-size="10.00">better_shutdown::signal_fut</text>
</g>
<!-- better_shutdown&#45;&gt;better_shutdown::signal_fut -->
<g id="edge8" class="edge">
<title>better_shutdown&#45;&gt;better_shutdown::signal_fut</title>
<path fill="none" stroke="#000000" d="M314.78,-229.74C305.53,-195.64 256.22,-128.85 215.98,-90.97"/>
<polygon fill="#000000" stroke="#000000" points="218.08,-88.16 208.32,-84.03 213.38,-93.34 218.08,-88.16"/>
<text text-anchor="middle" x="252.88" y="-163.36" font-family="monospace" font-size="10.00">owns</text>
</g>
<!-- better_shutdown&#45;&gt;better_shutdown::signal_fut -->
<g id="edge9" class="edge">
<title>better_shutdown&#45;&gt;better_shutdown::signal_fut</title>
<path fill="none" stroke="#7f7f7f" stroke-dasharray="5,2" d="M270.31,-229.59C232.41,-196.47 182.96,-132.22 167.4,-93.82"/>
<polygon fill="#7f7f7f" stroke="#7f7f7f" points="170.65,-92.5 164.08,-84.19 164.03,-94.78 170.65,-92.5"/>
<text text-anchor="middle" x="206.36" y="-164.7" font-family="monospace" font-size="10.00">uses</text>
</g>
<!-- better_shutdown::wait_list -->
<g id="node7" class="node">
<title>better_shutdown::wait_list</title>
<polygon fill="#f8c04c" stroke="black" points="278.59,-0.5 278.59,-38.5 451.59,-38.5 451.59,-0.5 278.59,-0.5"/>
<text text-anchor="middle" x="365.09" y="-26.5" font-family="monospace" font-size="10.00">pub(crate) mod</text>
<polyline fill="none" stroke="black" points="278.59,-19.5 451.59,-19.5 "/>
<text text-anchor="middle" x="365.09" y="-7.5" font-family="monospace" font-size="10.00">better_shutdown::wait_list</text>
</g>
<!-- better_shutdown&#45;&gt;better_shutdown::wait_list -->
<g id="edge10" class="edge">
<title>better_shutdown&#45;&gt;better_shutdown::wait_list</title>
<path fill="none" stroke="#000000" d="M317.12,-229.69C326.28,-189.55 347.53,-96.43 358.41,-48.76"/>
<polygon fill="#000000" stroke="#000000" points="361.88,-49.29 360.69,-38.77 355.06,-47.74 361.88,-49.29"/>
<text text-anchor="middle" x="325.27" y="-142.22" font-family="monospace" font-size="10.00">owns</text>
</g>
<!-- better_shutdown::waiter -->
<g id="node8" class="node">
<title>better_shutdown::waiter</title>
<polygon fill="#f8c04c" stroke="black" points="447.19,-127.78 447.19,-165.78 602.19,-165.78 602.19,-127.78 447.19,-127.78"/>
<text text-anchor="middle" x="524.69" y="-153.78" font-family="monospace" font-size="10.00">pub(crate) mod</text>
<polyline fill="none" stroke="black" points="447.19,-146.78 602.19,-146.78 "/>
<text text-anchor="middle" x="524.69" y="-134.78" font-family="monospace" font-size="10.00">better_shutdown::waiter</text>
</g>
<!-- better_shutdown&#45;&gt;better_shutdown::waiter -->
<g id="edge11" class="edge">
<title>better_shutdown&#45;&gt;better_shutdown::waiter</title>
<path fill="none" stroke="#000000" d="M366.37,-247.85C413.97,-233.29 479.95,-199.67 509.77,-173.3"/>
<polygon fill="#000000" stroke="#000000" points="512.47,-175.56 517.18,-166.07 507.58,-170.55 512.47,-175.56"/>
<text text-anchor="middle" x="425.57" y="-213.57" font-family="monospace" font-size="10.00">owns</text>
</g>
<!-- better_shutdown&#45;&gt;better_shutdown::waiter -->
<g id="edge12" class="edge">
<title>better_shutdown&#45;&gt;better_shutdown::waiter</title>
<path fill="none" stroke="#7f7f7f" stroke-dasharray="5,2" d="M320.21,-229.61C339.88,-207.93 391.23,-178.79 437.66,-159.83"/>
<polygon fill="#7f7f7f" stroke="#7f7f7f" points="439.17,-163 447.18,-156.07 436.59,-156.49 439.17,-163"/>
<text text-anchor="middle" x="366.44" y="-197.72" font-family="monospace" font-size="10.00">uses</text>
</g>
<!-- better_shutdown::completion_fut&#45;&gt;better_shutdown::shared -->
<g id="edge13" class="edge">
<title>better_shutdown::completion_fut&#45;&gt;better_shutdown::shared</title>
<path fill="none" stroke="#7f7f7f" stroke-dasharray="5,2" d="M341.07,-459.03C289.47,-417.89 168.03,-321.05 109.78,-274.59"/>
<polygon fill="#7f7f7f" stroke="#7f7f7f" points="111.66,-271.61 101.66,-268.11 107.3,-277.08 111.66,-271.61"/>
<text text-anchor="middle" x="212.92" y="-369.81" font-family="monospace" font-size="10.00">uses</text>
</g>
<!-- better_shutdown::completion_fut&#45;&gt;better_shutdown::wait_list -->
<g id="edge14" class="edge">
<title>better_shutdown::completion_fut&#45;&gt;better_shutdown::wait_list</title>
<path fill="none" stroke="#7f7f7f" stroke-dasharray="5,2" d="M365.09,-459.07C365.09,-387.52 365.09,-135.35 365.09,-48.87"/>
<polygon fill="#7f7f7f" stroke="#7f7f7f" points="368.59,-48.71 365.09,-38.71 361.59,-48.71 368.59,-48.71"/>
<text text-anchor="middle" x="377.59" y="-256.97" font-family="monospace" font-size="10.00">uses</text>
</g>
<!-- better_shutdown::controller&#45;&gt;better_shutdown::backtrace_list -->
<g id="edge15" class="edge">
<title>better_shutdown::controller&#45;&gt;better_shutdown::backtrace_list</title>
<path fill="none" stroke="#7f7f7f" stroke-dasharray="5,2" d="M249.7,-413.68C304.08,-401.27 375.06,-385.07 431.28,-372.24"/>
<polygon fill="#7f7f7f" stroke="#7f7f7f" points="432.27,-375.6 441.24,-369.96 430.72,-368.78 432.27,-375.6"/>
<text text-anchor="middle" x="327.99" y="-395.96" font-family="monospace" font-size="10.00">uses</text>
</g>
<!-- better_shutdown::controller&#45;&gt;better_shutdown::completion_fut -->
<g id="edge16" class="edge">
<title>better_shutdown::controller&#45;&gt;better_shutdown::completion_fut</title>
<path fill="none" stroke="#7f7f7f" stroke-dasharray="5,2" d="M249.32,-451.77C256.73,-453.46 264.26,-455.18 271.74,-456.89"/>
<polygon fill="#7f7f7f" stroke="#7f7f7f" points="271.01,-460.31 281.54,-459.12 272.57,-453.49 271.01,-460.31"/>
<text text-anchor="middle" x="248.03" y="-457.33" font-family="monospace" font-size="10.00">uses</text>
</g>
<!-- better_shutdown::controller&#45;&gt;better_shutdown::shared -->
<g id="edge17" class="edge">
<title>better_shutdown::controller&#45;&gt;better_shutdown::shared</title>
<path fill="none" stroke="#7f7f7f" stroke-dasharray="5,2" d="M156.76,-413.43C141.1,-380.92 109.44,-315.16 91.23,-277.35"/>
<polygon fill="#7f7f7f" stroke="#7f7f7f" points="94.18,-275.41 86.69,-267.92 87.87,-278.45 94.18,-275.41"/>
<text text-anchor="middle" x="111.49" y="-348.39" font-family="monospace" font-size="10.00">uses</text>
</g>
<!-- better_shutdown::controller&#45;&gt;better_shutdown::waiter -->
<g id="edge18" class="edge">
<title>better_shutdown::controller&#45;&gt;better_shutdown::waiter</title>
<path fill="none" stroke="#7f7f7f" stroke-dasharray="5,2" d="M190.16,-413.56C252.94,-363.5 421.61,-228.98 492.56,-172.41"/>
<polygon fill="#7f7f7f" stroke="#7f7f7f" points="495.08,-174.87 500.71,-165.9 490.71,-169.4 495.08,-174.87"/>
<text text-anchor="middle" x="328.86" y="-295.98" font-family="monospace" font-size="10.00">uses</text>
</g>
<!-- better_shutdown::shared&#45;&gt;better_shutdown::backtrace_list -->
<g id="edge19" class="edge">
<title>better_shutdown::shared&#45;&gt;better_shutdown::backtrace_list</title>
<path fill="none" stroke="#7f7f7f" stroke-dasharray="5,2" d="M155.14,-266.57C231.93,-284.09 349.51,-310.93 431.35,-329.61"/>
<polygon fill="#7f7f7f" stroke="#7f7f7f" points="430.62,-333.03 441.15,-331.85 432.17,-326.21 430.62,-333.03"/>
<text text-anchor="middle" x="280.74" y="-301.09" font-family="monospace" font-size="10.00">uses</text>
</g>
<!-- better_shutdown::shared&#45;&gt;better_shutdown::wait_list -->
<g id="edge20" class="edge">
<title>better_shutdown::shared&#45;&gt;better_shutdown::wait_list</title>
<path fill="none" stroke="#7f7f7f" stroke-dasharray="5,2" d="M101.53,-229.69C153.12,-188.54 274.56,-91.7 332.81,-45.24"/>
<polygon fill="#7f7f7f" stroke="#7f7f7f" points="335.3,-47.74 340.93,-38.77 330.93,-42.26 335.3,-47.74"/>
<text text-anchor="middle" x="204.67" y="-140.46" font-family="monospace" font-size="10.00">uses</text>
</g>
<!-- better_shutdown::signal_fut&#45;&gt;better_shutdown::shared -->
<g id="edge21" class="edge">
<title>better_shutdown::signal_fut&#45;&gt;better_shutdown::shared</title>
<path fill="none" stroke="#7f7f7f" stroke-dasharray="5,2" d="M156.76,-84.26C141.1,-116.77 109.44,-182.53 91.23,-220.35"/>
<polygon fill="#7f7f7f" stroke="#7f7f7f" points="87.87,-219.24 86.69,-229.77 94.18,-222.28 87.87,-219.24"/>
<text text-anchor="middle" x="111.49" y="-155.3" font-family="monospace" font-size="10.00">uses</text>
</g>
<!-- better_shutdown::signal_fut&#45;&gt;better_shutdown::wait_list -->
<g id="edge22" class="edge">
<title>better_shutdown::signal_fut&#45;&gt;better_shutdown::wait_list</title>
<path fill="none" stroke="#7f7f7f" stroke-dasharray="5,2" d="M249.32,-45.92C256.73,-44.23 264.26,-42.51 271.74,-40.81"/>
<polygon fill="#7f7f7f" stroke="#7f7f7f" points="272.57,-44.21 281.54,-38.57 271.01,-37.38 272.57,-44.21"/>
<text text-anchor="middle" x="248.03" y="-35.37" font-family="monospace" font-size="10.00">uses</text>
</g>
<!-- better_shutdown::wait_list&#45;&gt;better_shutdown::backtrace_list -->
<g id="edge23" class="edge">
<title>better_shutdown::wait_list&#45;&gt;better_shutdown::backtrace_list</title>
<path fill="none" stroke="#7f7f7f" stroke-dasharray="5,2" d="M374.36,-38.75C401.19,-94.47 479.03,-256.09 510.87,-322.21"/>
<polygon fill="#7f7f7f" stroke="#7f7f7f" points="507.91,-324.12 515.4,-331.61 514.21,-321.08 507.91,-324.12"/>
<text text-anchor="middle" x="430.12" y="-183.48" font-family="monospace" font-size="10.00">uses</text>
</g>
<!-- better_shutdown::waiter&#45;&gt;better_shutdown::shared -->
<g id="edge24" class="edge">
<title>better_shutdown::waiter&#45;&gt;better_shutdown::shared</title>
<path fill="none" stroke="#7f7f7f" stroke-dasharray="5,2" d="M447.05,-164.5C368.46,-182.44 247.14,-210.13 165.14,-228.84"/>
<polygon fill="#7f7f7f" stroke="#7f7f7f" points="164.31,-225.44 155.34,-231.08 165.87,-232.27 164.31,-225.44"/>
<text text-anchor="middle" x="293.6" y="-199.67" font-family="monospace" font-size="10.00">uses</text>
</g>
<!-- better_shutdown::waiter&#45;&gt;better_shutdown::signal_fut -->
<g id="edge25" class="edge">
<title>better_shutdown::waiter&#45;&gt;better_shutdown::signal_fut</title>
<path fill="none" stroke="#7f7f7f" stroke-dasharray="5,2" d="M446.88,-129.02C391.77,-116.44 317.58,-99.51 259.31,-86.2"/>
<polygon fill="#7f7f7f" stroke="#7f7f7f" points="259.89,-82.75 249.36,-83.93 258.33,-89.57 259.89,-82.75"/>
<text text-anchor="middle" x="340.59" y="-110.61" font-family="monospace" font-size="10.00">uses</text>
</g>
<!-- better_shutdown::waiter&#45;&gt;better_shutdown::wait_list -->
<g id="edge26" class="edge">
<title>better_shutdown::waiter&#45;&gt;better_shutdown::wait_list</title>
<path fill="none" stroke="#7f7f7f" stroke-dasharray="5,2" d="M500.8,-127.72C473.18,-105.7 427.6,-69.35 396.98,-44.93"/>
<polygon fill="#7f7f7f" stroke="#7f7f7f" points="399.15,-42.18 389.15,-38.69 394.79,-47.66 399.15,-42.18"/>
<text text-anchor="middle" x="436.39" y="-89.33" font-family="monospace" font-size="10.00">uses</text>
</g>
</g>
</svg>
