<?xml version="1.0" encoding="UTF-8" standalone="no"?>
<!DOCTYPE svg PUBLIC "-//W3C//DTD SVG 1.1//EN"
 "http://www.w3.org/Graphics/SVG/1.1/DTD/svg11.dtd">
<!-- Generated by graphviz version 4.0.0 (0)
 -->
<!-- Pages: 1 -->
<svg width="556pt" height="577pt"
 viewBox="0.00 0.00 556.30 576.54" xmlns="http://www.w3.org/2000/svg" xmlns:xlink="http://www.w3.org/1999/xlink">
<g id="graph0" class="graph" transform="scale(1 1) rotate(0) translate(28.8 547.74)">
<polygon fill="white" stroke="transparent" points="-28.8,28.8 -28.8,-547.74 527.5,-547.74 527.5,28.8 -28.8,28.8"/>
<text text-anchor="middle" x="249.35" y="-486.14" font-family="Helvetica,sans-Serif" font-size="36.00">lightning_utils</text>
<!-- fdi -->
<g id="node1" class="node">
<title>fdi</title>
<polygon fill="#5397c8" stroke="black" points="117.13,-37.75 117.13,-75.75 218.13,-75.75 218.13,-37.75 117.13,-37.75"/>
<text text-anchor="middle" x="167.63" y="-63.75" font-family="monospace" font-size="10.00">external crate</text>
<polyline fill="none" stroke="black" points="117.13,-56.75 218.13,-56.75 "/>
<text text-anchor="middle" x="167.63" y="-44.75" font-family="monospace" font-size="10.00">fdi</text>
</g>
<!-- lightning_schema -->
<g id="node2" class="node">
<title>lightning_schema</title>
<polygon fill="#5397c8" stroke="black" points="385.7,-144.01 385.7,-182.01 498.7,-182.01 498.7,-144.01 385.7,-144.01"/>
<text text-anchor="middle" x="442.2" y="-170.01" font-family="monospace" font-size="10.00">external crate</text>
<polyline fill="none" stroke="black" points="385.7,-163.01 498.7,-163.01 "/>
<text text-anchor="middle" x="442.2" y="-151.01" font-family="monospace" font-size="10.00">lightning_schema</text>
</g>
<!-- lightning_types -->
<g id="node3" class="node">
<title>lightning_types</title>
<polygon fill="#5397c8" stroke="black" points="285.19,-0.5 285.19,-38.5 392.19,-38.5 392.19,-0.5 285.19,-0.5"/>
<text text-anchor="middle" x="338.69" y="-26.5" font-family="monospace" font-size="10.00">external crate</text>
<polyline fill="none" stroke="black" points="285.19,-19.5 392.19,-19.5 "/>
<text text-anchor="middle" x="338.69" y="-7.5" font-family="monospace" font-size="10.00">lightning_types</text>
</g>
<!-- lightning_utils -->
<g id="node4" class="node">
<title>lightning_utils</title>
<polygon fill="#5397c8" stroke="black" points="172.29,-292.3 172.29,-330.3 279.29,-330.3 279.29,-292.3 172.29,-292.3"/>
<text text-anchor="middle" x="225.79" y="-318.3" font-family="monospace" font-size="10.00">crate</text>
<polyline fill="none" stroke="black" points="172.29,-311.3 279.29,-311.3 "/>
<text text-anchor="middle" x="225.79" y="-299.3" font-family="monospace" font-size="10.00">lightning_utils</text>
</g>
<!-- lightning_utils::application -->
<g id="node5" class="node">
<title>lightning_utils::application</title>
<polygon fill="#81c169" stroke="black" points="192.68,-142.37 192.68,-180.37 377.68,-180.37 377.68,-142.37 192.68,-142.37"/>
<text text-anchor="middle" x="285.18" y="-168.37" font-family="monospace" font-size="10.00">pub mod</text>
<polyline fill="none" stroke="black" points="192.68,-161.37 377.68,-161.37 "/>
<text text-anchor="middle" x="285.18" y="-149.37" font-family="monospace" font-size="10.00">lightning_utils::application</text>
</g>
<!-- lightning_utils&#45;&gt;lightning_utils::application -->
<g id="edge1" class="edge">
<title>lightning_utils&#45;&gt;lightning_utils::application</title>
<path fill="none" stroke="#000000" d="M233.43,-292.01C243.68,-266.15 261.95,-220.02 273.81,-190.08"/>
<polygon fill="#000000" stroke="#000000" points="277.14,-191.18 277.57,-180.59 270.63,-188.6 277.14,-191.18"/>
<text text-anchor="middle" x="241.12" y="-244.04" font-family="monospace" font-size="10.00">owns</text>
</g>
<!-- lightning_utils::eth -->
<g id="node6" class="node">
<title>lightning_utils::eth</title>
<polygon fill="#81c169" stroke="black" points="99.4,-432.44 99.4,-470.44 236.4,-470.44 236.4,-432.44 99.4,-432.44"/>
<text text-anchor="middle" x="167.9" y="-458.44" font-family="monospace" font-size="10.00">pub mod</text>
<polyline fill="none" stroke="black" points="99.4,-451.44 236.4,-451.44 "/>
<text text-anchor="middle" x="167.9" y="-439.44" font-family="monospace" font-size="10.00">lightning_utils::eth</text>
</g>
<!-- lightning_utils&#45;&gt;lightning_utils::eth -->
<g id="edge2" class="edge">
<title>lightning_utils&#45;&gt;lightning_utils::eth</title>
<path fill="none" stroke="#000000" d="M217.86,-330.5C208.04,-354.26 191.22,-394.98 179.84,-422.53"/>
<polygon fill="#000000" stroke="#000000" points="176.5,-421.45 175.92,-432.03 182.97,-424.13 176.5,-421.45"/>
<text text-anchor="middle" x="186.35" y="-379.51" font-family="monospace" font-size="10.00">owns</text>
</g>
<!-- lightning_utils::rpc -->
<g id="node7" class="node">
<title>lightning_utils::rpc</title>
<polygon fill="#81c169" stroke="black" points="0,-288.2 0,-326.2 137,-326.2 137,-288.2 0,-288.2"/>
<text text-anchor="middle" x="68.5" y="-314.2" font-family="monospace" font-size="10.00">pub mod</text>
<polyline fill="none" stroke="black" points="0,-307.2 137,-307.2 "/>
<text text-anchor="middle" x="68.5" y="-295.2" font-family="monospace" font-size="10.00">lightning_utils::rpc</text>
</g>
<!-- lightning_utils&#45;&gt;lightning_utils::rpc -->
<g id="edge3" class="edge">
<title>lightning_utils&#45;&gt;lightning_utils::rpc</title>
<path fill="none" stroke="#000000" d="M172.1,-309.9C164.13,-309.69 155.77,-309.48 147.42,-309.26"/>
<polygon fill="#000000" stroke="#000000" points="147.33,-305.76 137.24,-308.99 147.15,-312.75 147.33,-305.76"/>
<text text-anchor="middle" x="159.76" y="-301.58" font-family="monospace" font-size="10.00">owns</text>
</g>
<!-- lightning_utils::shutdown -->
<g id="node8" class="node">
<title>lightning_utils::shutdown</title>
<polygon fill="#81c169" stroke="black" points="258.01,-398.47 258.01,-436.47 425.01,-436.47 425.01,-398.47 258.01,-398.47"/>
<text text-anchor="middle" x="341.51" y="-424.47" font-family="monospace" font-size="10.00">pub mod</text>
<polyline fill="none" stroke="black" points="258.01,-417.47 425.01,-417.47 "/>
<text text-anchor="middle" x="341.51" y="-405.47" font-family="monospace" font-size="10.00">lightning_utils::shutdown</text>
</g>
<!-- lightning_utils&#45;&gt;lightning_utils::shutdown -->
<g id="edge4" class="edge">
<title>lightning_utils&#45;&gt;lightning_utils::shutdown</title>
<path fill="none" stroke="#000000" d="M246.75,-330.53C265.34,-347.59 292.67,-372.66 313.2,-391.5"/>
<polygon fill="#000000" stroke="#000000" points="310.97,-394.21 320.71,-398.39 315.7,-389.05 310.97,-394.21"/>
<text text-anchor="middle" x="267.47" y="-364.02" font-family="monospace" font-size="10.00">owns</text>
</g>
<!-- lightning_utils::application&#45;&gt;fdi -->
<g id="edge5" class="edge">
<title>lightning_utils::application&#45;&gt;fdi</title>
<path fill="none" stroke="#7f7f7f" stroke-dasharray="5,2" d="M263.62,-142.18C244.82,-125.44 217.37,-101.02 196.64,-82.57"/>
<polygon fill="#7f7f7f" stroke="#7f7f7f" points="198.85,-79.85 189.06,-75.81 194.2,-85.08 198.85,-79.85"/>
<text text-anchor="middle" x="217.63" y="-115.37" font-family="monospace" font-size="10.00">uses</text>
</g>
<!-- lightning_utils::application&#45;&gt;lightning_schema -->
<g id="edge6" class="edge">
<title>lightning_utils::application&#45;&gt;lightning_schema</title>
<path fill="none" stroke="#7f7f7f" stroke-dasharray="5,2" d="M377.88,-162.34C378.04,-162.34 378.2,-162.35 378.35,-162.35"/>
<polygon fill="#7f7f7f" stroke="#7f7f7f" points="375.34,-165.82 385.38,-162.42 375.42,-158.82 375.34,-165.82"/>
<text text-anchor="middle" x="390.62" y="-165.34" font-family="monospace" font-size="10.00">uses</text>
</g>
<!-- lightning_utils::application&#45;&gt;lightning_types -->
<g id="edge7" class="edge">
<title>lightning_utils::application&#45;&gt;lightning_types</title>
<path fill="none" stroke="#7f7f7f" stroke-dasharray="5,2" d="M292.4,-142.24C301.49,-118.12 317.21,-76.44 327.78,-48.43"/>
<polygon fill="#7f7f7f" stroke="#7f7f7f" points="331.16,-49.38 331.42,-38.78 324.61,-46.91 331.16,-49.38"/>
<text text-anchor="middle" x="297.59" y="-98.33" font-family="monospace" font-size="10.00">uses</text>
</g>
</g>
</svg>
