<?xml version="1.0" encoding="UTF-8" standalone="no"?>
<!DOCTYPE svg PUBLIC "-//W3C//DTD SVG 1.1//EN"
 "http://www.w3.org/Graphics/SVG/1.1/DTD/svg11.dtd">
<!-- Generated by graphviz version 4.0.0 (0)
 -->
<!-- Pages: 1 -->
<svg width="581pt" height="549pt"
 viewBox="0.00 0.00 580.52 549.16" xmlns="http://www.w3.org/2000/svg" xmlns:xlink="http://www.w3.org/1999/xlink">
<g id="graph0" class="graph" transform="scale(1 1) rotate(0) translate(28.8 520.36)">
<polygon fill="white" stroke="transparent" points="-28.8,28.8 -28.8,-520.36 551.72,-520.36 551.72,28.8 -28.8,28.8"/>
<text text-anchor="middle" x="261.46" y="-458.76" font-family="Helvetica,sans-Serif" font-size="36.00">once_ptr</text>
<!-- once_ptr -->
<g id="node1" class="node">
<title>once_ptr</title>
<polygon fill="#5397c8" stroke="black" points="26.87,-294.69 26.87,-332.69 91.87,-332.69 91.87,-294.69 26.87,-294.69"/>
<text text-anchor="middle" x="59.37" y="-320.69" font-family="monospace" font-size="10.00">crate</text>
<polyline fill="none" stroke="black" points="26.87,-313.69 91.87,-313.69 "/>
<text text-anchor="middle" x="59.37" y="-301.69" font-family="monospace" font-size="10.00">once_ptr</text>
</g>
<!-- once_ptr::OncePtr -->
<g id="node2" class="node">
<title>once_ptr::OncePtr</title>
<polygon fill="#81c169" stroke="black" points="205.4,-202.81 205.4,-240.81 282.4,-240.81 282.4,-202.81 205.4,-202.81"/>
<text text-anchor="middle" x="243.9" y="-228.81" font-family="monospace" font-size="10.00">pub struct</text>
<polyline fill="none" stroke="black" points="205.4,-221.81 282.4,-221.81 "/>
<text text-anchor="middle" x="243.9" y="-209.81" font-family="monospace" font-size="10.00">OncePtr</text>
</g>
<!-- once_ptr&#45;&gt;once_ptr::OncePtr -->
<g id="edge1" class="edge">
<title>once_ptr&#45;&gt;once_ptr::OncePtr</title>
<path fill="none" stroke="#000000" d="M91.94,-297.47C120.97,-283.02 163.83,-261.68 196.63,-245.35"/>
<polygon fill="#000000" stroke="#000000" points="198.21,-248.47 205.6,-240.88 195.09,-242.21 198.21,-248.47"/>
<text text-anchor="middle" x="131.78" y="-274.41" font-family="monospace" font-size="10.00">owns</text>
</g>
<!-- once_ptr::OncePtr::into_inner -->
<g id="node3" class="node">
<title>once_ptr::OncePtr::into_inner</title>
<polygon fill="#81c169" stroke="black" points="146.5,-0.5 146.5,-38.5 277.5,-38.5 277.5,-0.5 146.5,-0.5"/>
<text text-anchor="middle" x="212" y="-26.5" font-family="monospace" font-size="10.00">pub fn</text>
<polyline fill="none" stroke="black" points="146.5,-19.5 277.5,-19.5 "/>
<text text-anchor="middle" x="212" y="-7.5" font-family="monospace" font-size="10.00">OncePtr::into_inner</text>
</g>
<!-- once_ptr::OncePtr&#45;&gt;once_ptr::OncePtr::into_inner -->
<g id="edge2" class="edge">
<title>once_ptr::OncePtr&#45;&gt;once_ptr::OncePtr::into_inner</title>
<path fill="none" stroke="#000000" d="M256.83,-202.45C264.61,-166.54 254,-89.73 236.98,-47.92"/>
<polygon fill="#000000" stroke="#000000" points="240.06,-46.26 232.76,-38.58 233.68,-49.14 240.06,-46.26"/>
<text text-anchor="middle" x="234.4" y="-128.19" font-family="monospace" font-size="10.00">owns</text>
</g>
<!-- once_ptr::OncePtr::is_null -->
<g id="node4" class="node">
<title>once_ptr::OncePtr::is_null</title>
<polygon fill="#81c169" stroke="black" points="218.02,-405.06 218.02,-443.06 331.02,-443.06 331.02,-405.06 218.02,-405.06"/>
<text text-anchor="middle" x="274.52" y="-431.06" font-family="monospace" font-size="10.00">pub fn</text>
<polyline fill="none" stroke="black" points="218.02,-424.06 331.02,-424.06 "/>
<text text-anchor="middle" x="274.52" y="-412.06" font-family="monospace" font-size="10.00">OncePtr::is_null</text>
</g>
<!-- once_ptr::OncePtr&#45;&gt;once_ptr::OncePtr::is_null -->
<g id="edge3" class="edge">
<title>once_ptr::OncePtr&#45;&gt;once_ptr::OncePtr::is_null</title>
<path fill="none" stroke="#000000" d="M230.85,-241.07C222.84,-276.9 232.97,-353.67 249.73,-395.52"/>
<polygon fill="#000000" stroke="#000000" points="246.63,-397.16 253.89,-404.88 253.02,-394.32 246.63,-397.16"/>
<text text-anchor="middle" x="227.79" y="-321.3" font-family="monospace" font-size="10.00">owns</text>
</g>
<!-- once_ptr::OncePtr::load -->
<g id="node5" class="node">
<title>once_ptr::OncePtr::load</title>
<polygon fill="#81c169" stroke="black" points="340.26,-347.85 340.26,-385.85 435.26,-385.85 435.26,-347.85 340.26,-347.85"/>
<text text-anchor="middle" x="387.76" y="-373.85" font-family="monospace" font-size="10.00">pub fn</text>
<polyline fill="none" stroke="black" points="340.26,-366.85 435.26,-366.85 "/>
<text text-anchor="middle" x="387.76" y="-354.85" font-family="monospace" font-size="10.00">OncePtr::load</text>
</g>
<!-- once_ptr::OncePtr&#45;&gt;once_ptr::OncePtr::load -->
<g id="edge4" class="edge">
<title>once_ptr::OncePtr&#45;&gt;once_ptr::OncePtr::load</title>
<path fill="none" stroke="#000000" d="M243.11,-241.03C253.15,-269.01 295.11,-316.11 331.87,-344.94"/>
<polygon fill="#000000" stroke="#000000" points="330.01,-347.92 340.1,-351.15 334.23,-342.33 330.01,-347.92"/>
<text text-anchor="middle" x="274.99" y="-295.98" font-family="monospace" font-size="10.00">owns</text>
</g>
<!-- once_ptr::OncePtr::load_mut -->
<g id="node6" class="node">
<title>once_ptr::OncePtr::load_mut</title>
<polygon fill="#81c169" stroke="black" points="90.5,-383.74 90.5,-421.74 209.5,-421.74 209.5,-383.74 90.5,-383.74"/>
<text text-anchor="middle" x="150" y="-409.74" font-family="monospace" font-size="10.00">pub fn</text>
<polyline fill="none" stroke="black" points="90.5,-402.74 209.5,-402.74 "/>
<text text-anchor="middle" x="150" y="-390.74" font-family="monospace" font-size="10.00">OncePtr::load_mut</text>
</g>
<!-- once_ptr::OncePtr&#45;&gt;once_ptr::OncePtr::load_mut -->
<g id="edge5" class="edge">
<title>once_ptr::OncePtr&#45;&gt;once_ptr::OncePtr::load_mut</title>
<path fill="none" stroke="#000000" d="M210.95,-241.1C183.56,-273.16 151.99,-335.61 144.92,-373.17"/>
<polygon fill="#000000" stroke="#000000" points="141.39,-373.14 143.57,-383.51 148.33,-374.05 141.39,-373.14"/>
<text text-anchor="middle" x="165.44" y="-310.14" font-family="monospace" font-size="10.00">owns</text>
</g>
<!-- once_ptr::OncePtr::load_mut_unchecked -->
<g id="node7" class="node">
<title>once_ptr::OncePtr::load_mut_unchecked</title>
<polygon fill="#81c169" stroke="black" points="8.63,-57.34 8.63,-95.34 187.63,-95.34 187.63,-57.34 8.63,-57.34"/>
<text text-anchor="middle" x="98.13" y="-83.34" font-family="monospace" font-size="10.00">pub unsafe fn</text>
<polyline fill="none" stroke="black" points="8.63,-76.34 187.63,-76.34 "/>
<text text-anchor="middle" x="98.13" y="-64.34" font-family="monospace" font-size="10.00">OncePtr::load_mut_unchecked</text>
</g>
<!-- once_ptr::OncePtr&#45;&gt;once_ptr::OncePtr::load_mut_unchecked -->
<g id="edge6" class="edge">
<title>once_ptr::OncePtr&#45;&gt;once_ptr::OncePtr::load_mut_unchecked</title>
<path fill="none" stroke="#000000" d="M244.51,-202.52C234.59,-175.54 194.94,-130.89 158.88,-101.79"/>
<polygon fill="#000000" stroke="#000000" points="160.81,-98.86 150.77,-95.47 156.51,-104.38 160.81,-98.86"/>
<text text-anchor="middle" x="189.2" y="-155.15" font-family="monospace" font-size="10.00">owns</text>
</g>
<!-- once_ptr::OncePtr::load_unchecked -->
<g id="node8" class="node">
<title>once_ptr::OncePtr::load_unchecked</title>
<polygon fill="#81c169" stroke="black" points="367.92,-235.03 367.92,-273.03 522.92,-273.03 522.92,-235.03 367.92,-235.03"/>
<text text-anchor="middle" x="445.42" y="-261.03" font-family="monospace" font-size="10.00">pub unsafe fn</text>
<polyline fill="none" stroke="black" points="367.92,-254.03 522.92,-254.03 "/>
<text text-anchor="middle" x="445.42" y="-242.03" font-family="monospace" font-size="10.00">OncePtr::load_unchecked</text>
</g>
<!-- once_ptr::OncePtr&#45;&gt;once_ptr::OncePtr::load_unchecked -->
<g id="edge7" class="edge">
<title>once_ptr::OncePtr&#45;&gt;once_ptr::OncePtr::load_unchecked</title>
<path fill="none" stroke="#000000" d="M259.56,-240.84C280.82,-252.74 320.28,-262.54 357.41,-266.95"/>
<polygon fill="#000000" stroke="#000000" points="357.49,-270.48 367.8,-268.05 358.22,-263.52 357.49,-270.48"/>
<text text-anchor="middle" x="295.98" y="-256.9" font-family="monospace" font-size="10.00">owns</text>
</g>
<!-- once_ptr::OncePtr::new -->
<g id="node9" class="node">
<title>once_ptr::OncePtr::new</title>
<polygon fill="#81c169" stroke="black" points="0,-170.29 0,-208.29 89,-208.29 89,-170.29 0,-170.29"/>
<text text-anchor="middle" x="44.5" y="-196.29" font-family="monospace" font-size="10.00">pub fn</text>
<polyline fill="none" stroke="black" points="0,-189.29 89,-189.29 "/>
<text text-anchor="middle" x="44.5" y="-177.29" font-family="monospace" font-size="10.00">OncePtr::new</text>
</g>
<!-- once_ptr::OncePtr&#45;&gt;once_ptr::OncePtr::new -->
<g id="edge8" class="edge">
<title>once_ptr::OncePtr&#45;&gt;once_ptr::OncePtr::new</title>
<path fill="none" stroke="#000000" d="M228.48,-202.76C201.13,-187.22 143.17,-175.2 99.54,-174.02"/>
<polygon fill="#000000" stroke="#000000" points="99.37,-170.52 89.35,-173.95 99.32,-177.52 99.37,-170.52"/>
<text text-anchor="middle" x="151.51" y="-191.39" font-family="monospace" font-size="10.00">owns</text>
</g>
<!-- once_ptr::OncePtr::null -->
<g id="node10" class="node">
<title>once_ptr::OncePtr::null</title>
<polygon fill="#81c169" stroke="black" points="378.89,-109.41 378.89,-147.41 473.89,-147.41 473.89,-109.41 378.89,-109.41"/>
<text text-anchor="middle" x="426.39" y="-135.41" font-family="monospace" font-size="10.00">pub fn</text>
<polyline fill="none" stroke="black" points="378.89,-128.41 473.89,-128.41 "/>
<text text-anchor="middle" x="426.39" y="-116.41" font-family="monospace" font-size="10.00">OncePtr::null</text>
</g>
<!-- once_ptr::OncePtr&#45;&gt;once_ptr::OncePtr::null -->
<g id="edge9" class="edge">
<title>once_ptr::OncePtr&#45;&gt;once_ptr::OncePtr::null</title>
<path fill="none" stroke="#000000" d="M282.54,-225.02C323.71,-214.56 385.75,-181.92 413.34,-155.42"/>
<polygon fill="#000000" stroke="#000000" points="416.2,-157.49 420.45,-147.78 411.08,-152.72 416.2,-157.49"/>
<text text-anchor="middle" x="335.44" y="-193.22" font-family="monospace" font-size="10.00">owns</text>
</g>
<!-- once_ptr::OncePtr::store -->
<g id="node11" class="node">
<title>once_ptr::OncePtr::store</title>
<polygon fill="#81c169" stroke="black" points="285.51,-21.41 285.51,-59.41 386.51,-59.41 386.51,-21.41 285.51,-21.41"/>
<text text-anchor="middle" x="336.01" y="-47.41" font-family="monospace" font-size="10.00">pub fn</text>
<polyline fill="none" stroke="black" points="285.51,-40.41 386.51,-40.41 "/>
<text text-anchor="middle" x="336.01" y="-28.41" font-family="monospace" font-size="10.00">OncePtr::store</text>
</g>
<!-- once_ptr::OncePtr&#45;&gt;once_ptr::OncePtr::store -->
<g id="edge10" class="edge">
<title>once_ptr::OncePtr&#45;&gt;once_ptr::OncePtr::store</title>
<path fill="none" stroke="#000000" d="M276.35,-202.64C303.46,-170.55 334.59,-107.72 341.36,-70.01"/>
<polygon fill="#000000" stroke="#000000" points="344.89,-69.99 342.63,-59.64 337.94,-69.14 344.89,-69.99"/>
<text text-anchor="middle" x="296.35" y="-139.33" font-family="monospace" font-size="10.00">owns</text>
</g>
<!-- once_ptr::OncePtr::into_inner&#45;&gt;once_ptr::OncePtr -->
<g id="edge11" class="edge">
<title>once_ptr::OncePtr::into_inner&#45;&gt;once_ptr::OncePtr</title>
<path fill="none" stroke="#7f7f7f" stroke-dasharray="5,2" d="M199.08,-38.86C191.29,-74.78 201.9,-151.58 218.93,-193.39"/>
<polygon fill="#7f7f7f" stroke="#7f7f7f" points="215.84,-195.05 223.14,-202.73 222.22,-192.17 215.84,-195.05"/>
<text text-anchor="middle" x="196.5" y="-119.12" font-family="monospace" font-size="10.00">uses</text>
</g>
<!-- once_ptr::OncePtr::is_null&#45;&gt;once_ptr::OncePtr -->
<g id="edge12" class="edge">
<title>once_ptr::OncePtr::is_null&#45;&gt;once_ptr::OncePtr</title>
<path fill="none" stroke="#7f7f7f" stroke-dasharray="5,2" d="M287.57,-404.8C295.58,-368.97 285.46,-292.2 268.69,-250.35"/>
<polygon fill="#7f7f7f" stroke="#7f7f7f" points="271.8,-248.71 264.54,-241 265.4,-251.56 271.8,-248.71"/>
<text text-anchor="middle" x="265.63" y="-330.58" font-family="monospace" font-size="10.00">uses</text>
</g>
<!-- once_ptr::OncePtr::load&#45;&gt;once_ptr::OncePtr -->
<g id="edge13" class="edge">
<title>once_ptr::OncePtr::load&#45;&gt;once_ptr::OncePtr</title>
<path fill="none" stroke="#7f7f7f" stroke-dasharray="5,2" d="M388.55,-347.63C377.72,-317.44 329.73,-264.98 291.19,-237.25"/>
<polygon fill="#7f7f7f" stroke="#7f7f7f" points="292.87,-234.16 282.63,-231.41 288.92,-239.94 292.87,-234.16"/>
<text text-anchor="middle" x="327.37" y="-295.44" font-family="monospace" font-size="10.00">uses</text>
</g>
<!-- once_ptr::OncePtr::load_mut&#45;&gt;once_ptr::OncePtr -->
<g id="edge14" class="edge">
<title>once_ptr::OncePtr::load_mut&#45;&gt;once_ptr::OncePtr</title>
<path fill="none" stroke="#7f7f7f" stroke-dasharray="5,2" d="M182.95,-383.45C210.34,-351.39 241.92,-288.94 248.98,-251.38"/>
<polygon fill="#7f7f7f" stroke="#7f7f7f" points="252.51,-251.41 250.33,-241.04 245.57,-250.5 252.51,-251.41"/>
<text text-anchor="middle" x="203.47" y="-320.42" font-family="monospace" font-size="10.00">uses</text>
</g>
<!-- once_ptr::OncePtr::load_mut_unchecked&#45;&gt;once_ptr::OncePtr -->
<g id="edge15" class="edge">
<title>once_ptr::OncePtr::load_mut_unchecked&#45;&gt;once_ptr::OncePtr</title>
<path fill="none" stroke="#7f7f7f" stroke-dasharray="5,2" d="M97.51,-95.64C108.7,-126.02 157.61,-178.85 196.6,-206.59"/>
<polygon fill="#7f7f7f" stroke="#7f7f7f" points="195.01,-209.74 205.26,-212.44 198.93,-203.94 195.01,-209.74"/>
<text text-anchor="middle" x="134.56" y="-154.12" font-family="monospace" font-size="10.00">uses</text>
</g>
<!-- once_ptr::OncePtr::load_unchecked&#45;&gt;once_ptr::OncePtr -->
<g id="edge16" class="edge">
<title>once_ptr::OncePtr::load_unchecked&#45;&gt;once_ptr::OncePtr</title>
<path fill="none" stroke="#7f7f7f" stroke-dasharray="5,2" d="M429.76,-234.99C400.65,-218.7 337.42,-206.35 292.79,-206.37"/>
<polygon fill="#7f7f7f" stroke="#7f7f7f" points="292.64,-202.87 282.72,-206.6 292.8,-209.87 292.64,-202.87"/>
<text text-anchor="middle" x="348.77" y="-223.68" font-family="monospace" font-size="10.00">uses</text>
</g>
<!-- once_ptr::OncePtr::new&#45;&gt;once_ptr::OncePtr -->
<g id="edge17" class="edge">
<title>once_ptr::OncePtr::new&#45;&gt;once_ptr::OncePtr</title>
<path fill="none" stroke="#7f7f7f" stroke-dasharray="5,2" d="M59.92,-208.34C88.6,-224.64 150.96,-237.07 195.14,-237.18"/>
<polygon fill="#7f7f7f" stroke="#7f7f7f" points="195.46,-240.67 205.38,-236.96 195.31,-233.67 195.46,-240.67"/>
<text text-anchor="middle" x="115.03" y="-225.76" font-family="monospace" font-size="10.00">uses</text>
</g>
<!-- once_ptr::OncePtr::null&#45;&gt;once_ptr::OncePtr -->
<g id="edge18" class="edge">
<title>once_ptr::OncePtr::null&#45;&gt;once_ptr::OncePtr</title>
<path fill="none" stroke="#7f7f7f" stroke-dasharray="5,2" d="M378.87,-127.7C337.83,-140.26 281.86,-170.55 256.43,-195.31"/>
<polygon fill="#7f7f7f" stroke="#7f7f7f" points="253.75,-193.05 249.57,-202.78 258.91,-197.78 253.75,-193.05"/>
<text text-anchor="middle" x="305.15" y="-164.5" font-family="monospace" font-size="10.00">uses</text>
</g>
<!-- once_ptr::OncePtr::store&#45;&gt;once_ptr::OncePtr -->
<g id="edge19" class="edge">
<title>once_ptr::OncePtr::store&#45;&gt;once_ptr::OncePtr</title>
<path fill="none" stroke="#7f7f7f" stroke-dasharray="5,2" d="M303.57,-59.59C276.45,-91.68 245.33,-154.51 238.55,-192.21"/>
<polygon fill="#7f7f7f" stroke="#7f7f7f" points="235.02,-192.24 237.29,-202.59 241.97,-193.09 235.02,-192.24"/>
<text text-anchor="middle" x="258.56" y="-128.9" font-family="monospace" font-size="10.00">uses</text>
</g>
</g>
</svg>
