<?xml version="1.0" encoding="UTF-8" standalone="no"?>
<!DOCTYPE svg PUBLIC "-//W3C//DTD SVG 1.1//EN"
 "http://www.w3.org/Graphics/SVG/1.1/DTD/svg11.dtd">
<!-- Generated by graphviz version 4.0.0 (0)
 -->
<!-- Pages: 1 -->
<svg width="350pt" height="247pt"
 viewBox="0.00 0.00 349.60 247.44" xmlns="http://www.w3.org/2000/svg" xmlns:xlink="http://www.w3.org/1999/xlink">
<g id="graph0" class="graph" transform="scale(1 1) rotate(0) translate(28.8 218.64)">
<polygon fill="white" stroke="transparent" points="-28.8,28.8 -28.8,-218.64 320.8,-218.64 320.8,28.8 -28.8,28.8"/>
<text text-anchor="middle" x="146" y="-157.04" font-family="Helvetica,sans-Serif" font-size="36.00">interfaces_proc</text>
<!-- interfaces_proc -->
<g id="node1" class="node">
<title>interfaces_proc</title>
<polygon fill="#5397c8" stroke="black" points="87.34,-56.34 87.34,-94.34 194.34,-94.34 194.34,-56.34 87.34,-56.34"/>
<text text-anchor="middle" x="140.84" y="-82.34" font-family="monospace" font-size="10.00">crate</text>
<polyline fill="none" stroke="black" points="87.34,-75.34 194.34,-75.34 "/>
<text text-anchor="middle" x="140.84" y="-63.34" font-family="monospace" font-size="10.00">interfaces_proc</text>
</g>
<!-- interfaces_proc::blank -->
<g id="node2" class="node">
<title>interfaces_proc::blank</title>
<polygon fill="#f8c04c" stroke="black" points="102.27,-103.34 102.27,-141.34 251.27,-141.34 251.27,-103.34 102.27,-103.34"/>
<text text-anchor="middle" x="176.77" y="-129.34" font-family="monospace" font-size="10.00">pub(crate) mod</text>
<polyline fill="none" stroke="black" points="102.27,-122.34 251.27,-122.34 "/>
<text text-anchor="middle" x="176.77" y="-110.34" font-family="monospace" font-size="10.00">interfaces_proc::blank</text>
</g>
<!-- interfaces_proc&#45;&gt;interfaces_proc::blank -->
<g id="edge1" class="edge">
<title>interfaces_proc&#45;&gt;interfaces_proc::blank</title>
<path fill="none" stroke="#000000" d="M155.45,-94.45C155.59,-94.63 155.73,-94.81 155.86,-94.99"/>
<polygon fill="#000000" stroke="#000000" points="153.2,-97.27 162.05,-103.09 158.76,-93.02 153.2,-97.27"/>
<text text-anchor="middle" x="143.16" y="-97.72" font-family="monospace" font-size="10.00">owns</text>
</g>
<!-- interfaces_proc::partial -->
<g id="node3" class="node">
<title>interfaces_proc::partial</title>
<polygon fill="#f8c04c" stroke="black" points="40.73,-0.5 40.73,-38.5 201.73,-38.5 201.73,-0.5 40.73,-0.5"/>
<text text-anchor="middle" x="121.23" y="-26.5" font-family="monospace" font-size="10.00">pub(crate) mod</text>
<polyline fill="none" stroke="black" points="40.73,-19.5 201.73,-19.5 "/>
<text text-anchor="middle" x="121.23" y="-7.5" font-family="monospace" font-size="10.00">interfaces_proc::partial</text>
</g>
<!-- interfaces_proc&#45;&gt;interfaces_proc::partial -->
<g id="edge2" class="edge">
<title>interfaces_proc&#45;&gt;interfaces_proc::partial</title>
<path fill="none" stroke="#000000" d="M157.95,-56.02C158.42,-53.67 158.59,-51.25 158.5,-48.82"/>
<polygon fill="#000000" stroke="#000000" points="161.93,-48.11 156.66,-38.92 155.05,-49.39 161.93,-48.11"/>
<text text-anchor="middle" x="145.73" y="-44.42" font-family="monospace" font-size="10.00">owns</text>
</g>
<!-- interfaces_proc&#45;&gt;interfaces_proc::partial -->
<g id="edge3" class="edge">
<title>interfaces_proc&#45;&gt;interfaces_proc::partial</title>
<path fill="none" stroke="#7f7f7f" stroke-dasharray="5,2" d="M105.45,-56.04C104.63,-53.66 104.07,-51.19 103.78,-48.71"/>
<polygon fill="#7f7f7f" stroke="#7f7f7f" points="107.28,-48.74 104.16,-38.62 100.28,-48.48 107.28,-48.74"/>
<text text-anchor="middle" x="92.11" y="-44.38" font-family="monospace" font-size="10.00">uses</text>
</g>
</g>
</svg>
