<?xml version="1.0" encoding="UTF-8" standalone="no"?>
<!DOCTYPE svg PUBLIC "-//W3C//DTD SVG 1.1//EN"
 "http://www.w3.org/Graphics/SVG/1.1/DTD/svg11.dtd">
<!-- Generated by graphviz version 4.0.0 (0)
 -->
<!-- Pages: 1 -->
<svg width="1389pt" height="1375pt"
 viewBox="0.00 0.00 1389.03 1374.83" xmlns="http://www.w3.org/2000/svg" xmlns:xlink="http://www.w3.org/1999/xlink">
<g id="graph0" class="graph" transform="scale(1 1) rotate(0) translate(28.8 1346.03)">
<polygon fill="white" stroke="transparent" points="-28.8,28.8 -28.8,-1346.03 1360.23,-1346.03 1360.23,28.8 -28.8,28.8"/>
<text text-anchor="middle" x="665.72" y="-1284.43" font-family="Helvetica,sans-Serif" font-size="36.00">interfaces_proc</text>
<!-- interfaces_proc -->
<g id="node1" class="node">
<title>interfaces_proc</title>
<polygon fill="#5397c8" stroke="black" points="472.89,-451.96 472.89,-489.96 579.89,-489.96 579.89,-451.96 472.89,-451.96"/>
<text text-anchor="middle" x="526.39" y="-477.96" font-family="monospace" font-size="10.00">crate</text>
<polyline fill="none" stroke="black" points="472.89,-470.96 579.89,-470.96 "/>
<text text-anchor="middle" x="526.39" y="-458.96" font-family="monospace" font-size="10.00">interfaces_proc</text>
</g>
<!-- interfaces_proc::__gen_missing_assignments -->
<g id="node2" class="node">
<title>interfaces_proc::__gen_missing_assignments</title>
<polygon fill="#81c169" stroke="black" points="914.87,-348.53 914.87,-386.53 1081.87,-386.53 1081.87,-348.53 914.87,-348.53"/>
<text text-anchor="middle" x="998.37" y="-374.53" font-family="monospace" font-size="10.00">pub fn</text>
<polyline fill="none" stroke="black" points="914.87,-367.53 1081.87,-367.53 "/>
<text text-anchor="middle" x="998.37" y="-355.53" font-family="monospace" font-size="10.00">__gen_missing_assignments</text>
</g>
<!-- interfaces_proc&#45;&gt;interfaces_proc::__gen_missing_assignments -->
<g id="edge1" class="edge">
<title>interfaces_proc&#45;&gt;interfaces_proc::__gen_missing_assignments</title>
<path fill="none" stroke="#000000" d="M580.07,-459.19C659.03,-441.89 807.59,-409.34 904.75,-388.05"/>
<polygon fill="#000000" stroke="#000000" points="905.55,-391.45 914.57,-385.9 904.05,-384.62 905.55,-391.45"/>
<text text-anchor="middle" x="729.91" y="-426.62" font-family="monospace" font-size="10.00">owns</text>
</g>
<!-- interfaces_proc::blank -->
<g id="node3" class="node">
<title>interfaces_proc::blank</title>
<polygon fill="#81c169" stroke="black" points="260.54,-60.37 260.54,-98.37 314.54,-98.37 314.54,-60.37 260.54,-60.37"/>
<text text-anchor="middle" x="287.54" y="-86.37" font-family="monospace" font-size="10.00">pub fn</text>
<polyline fill="none" stroke="black" points="260.54,-79.37 314.54,-79.37 "/>
<text text-anchor="middle" x="287.54" y="-67.37" font-family="monospace" font-size="10.00">blank</text>
</g>
<!-- interfaces_proc&#45;&gt;interfaces_proc::blank -->
<g id="edge2" class="edge">
<title>interfaces_proc&#45;&gt;interfaces_proc::blank</title>
<path fill="none" stroke="#000000" d="M514.71,-451.81C475.82,-388.04 350.59,-182.74 304.65,-107.41"/>
<polygon fill="#000000" stroke="#000000" points="307.39,-105.2 299.2,-98.48 301.42,-108.84 307.39,-105.2"/>
<text text-anchor="middle" x="397.18" y="-282.61" font-family="monospace" font-size="10.00">owns</text>
</g>
<!-- interfaces_proc::blank::apply -->
<g id="node4" class="node">
<title>interfaces_proc::blank::apply</title>
<polygon fill="#db5367" stroke="black" points="315.78,-861.91 315.78,-899.91 404.78,-899.91 404.78,-861.91 315.78,-861.91"/>
<text text-anchor="middle" x="360.28" y="-887.91" font-family="monospace" font-size="10.00">pub(self) fn</text>
<polyline fill="none" stroke="black" points="315.78,-880.91 404.78,-880.91 "/>
<text text-anchor="middle" x="360.28" y="-868.91" font-family="monospace" font-size="10.00">blank::apply</text>
</g>
<!-- interfaces_proc&#45;&gt;interfaces_proc::blank::apply -->
<g id="edge3" class="edge">
<title>interfaces_proc&#45;&gt;interfaces_proc::blank::apply</title>
<path fill="none" stroke="#000000" d="M518.6,-490.18C491.84,-556.22 403.59,-774.03 371.81,-852.45"/>
<polygon fill="#000000" stroke="#000000" points="368.56,-851.15 368.05,-861.73 375.05,-853.78 368.56,-851.15"/>
<text text-anchor="middle" x="432.71" y="-674.32" font-family="monospace" font-size="10.00">owns</text>
</g>
<!-- interfaces_proc::blank::extract_attribute_expr -->
<g id="node5" class="node">
<title>interfaces_proc::blank::extract_attribute_expr</title>
<polygon fill="#db5367" stroke="black" points="450.22,-816.69 450.22,-854.69 641.22,-854.69 641.22,-816.69 450.22,-816.69"/>
<text text-anchor="middle" x="545.72" y="-842.69" font-family="monospace" font-size="10.00">pub(self) fn</text>
<polyline fill="none" stroke="black" points="450.22,-835.69 641.22,-835.69 "/>
<text text-anchor="middle" x="545.72" y="-823.69" font-family="monospace" font-size="10.00">blank::extract_attribute_expr</text>
</g>
<!-- interfaces_proc&#45;&gt;interfaces_proc::blank::extract_attribute_expr -->
<g id="edge4" class="edge">
<title>interfaces_proc&#45;&gt;interfaces_proc::blank::extract_attribute_expr</title>
<path fill="none" stroke="#000000" d="M527.4,-490.05C530.57,-549.86 540.33,-733.88 544.16,-806.13"/>
<polygon fill="#000000" stroke="#000000" points="540.67,-806.54 544.7,-816.34 547.66,-806.17 540.67,-806.54"/>
<text text-anchor="middle" x="523.28" y="-651.09" font-family="monospace" font-size="10.00">owns</text>
</g>
<!-- interfaces_proc::blank::extract_attribute_marker -->
<g id="node6" class="node">
<title>interfaces_proc::blank::extract_attribute_marker</title>
<polygon fill="#db5367" stroke="black" points="108.28,-744.87 108.28,-782.87 311.28,-782.87 311.28,-744.87 108.28,-744.87"/>
<text text-anchor="middle" x="209.78" y="-770.87" font-family="monospace" font-size="10.00">pub(self) fn</text>
<polyline fill="none" stroke="black" points="108.28,-763.87 311.28,-763.87 "/>
<text text-anchor="middle" x="209.78" y="-751.87" font-family="monospace" font-size="10.00">blank::extract_attribute_marker</text>
</g>
<!-- interfaces_proc&#45;&gt;interfaces_proc::blank::extract_attribute_marker -->
<g id="edge5" class="edge">
<title>interfaces_proc&#45;&gt;interfaces_proc::blank::extract_attribute_marker</title>
<path fill="none" stroke="#000000" d="M505.62,-490.18C450.6,-541.07 301.05,-679.43 238.2,-737.57"/>
<polygon fill="#000000" stroke="#000000" points="235.59,-735.22 230.63,-744.58 240.34,-740.36 235.59,-735.22"/>
<text text-anchor="middle" x="359.41" y="-616.88" font-family="monospace" font-size="10.00">owns</text>
</g>
<!-- interfaces_proc::blank::extract_attribute_type -->
<g id="node7" class="node">
<title>interfaces_proc::blank::extract_attribute_type</title>
<polygon fill="#db5367" stroke="black" points="0,-399.32 0,-437.32 191,-437.32 191,-399.32 0,-399.32"/>
<text text-anchor="middle" x="95.5" y="-425.32" font-family="monospace" font-size="10.00">pub(self) fn</text>
<polyline fill="none" stroke="black" points="0,-418.32 191,-418.32 "/>
<text text-anchor="middle" x="95.5" y="-406.32" font-family="monospace" font-size="10.00">blank::extract_attribute_type</text>
</g>
<!-- interfaces_proc&#45;&gt;interfaces_proc::blank::extract_attribute_type -->
<g id="edge6" class="edge">
<title>interfaces_proc&#45;&gt;interfaces_proc::blank::extract_attribute_type</title>
<path fill="none" stroke="#000000" d="M472.69,-464.4C405.09,-456.14 287.43,-441.77 201.45,-431.26"/>
<polygon fill="#000000" stroke="#000000" points="201.75,-427.77 191.4,-430.03 200.9,-434.72 201.75,-427.77"/>
<text text-anchor="middle" x="324.57" y="-450.83" font-family="monospace" font-size="10.00">owns</text>
</g>
<!-- interfaces_proc::blank::impl_blank -->
<g id="node8" class="node">
<title>interfaces_proc::blank::impl_blank</title>
<polygon fill="#81c169" stroke="black" points="769.21,-101.09 769.21,-139.09 888.21,-139.09 888.21,-101.09 769.21,-101.09"/>
<text text-anchor="middle" x="828.71" y="-127.09" font-family="monospace" font-size="10.00">pub fn</text>
<polyline fill="none" stroke="black" points="769.21,-120.09 888.21,-120.09 "/>
<text text-anchor="middle" x="828.71" y="-108.09" font-family="monospace" font-size="10.00">blank::impl_blank</text>
</g>
<!-- interfaces_proc&#45;&gt;interfaces_proc::blank::impl_blank -->
<g id="edge7" class="edge">
<title>interfaces_proc&#45;&gt;interfaces_proc::blank::impl_blank</title>
<path fill="none" stroke="#000000" d="M542.86,-451.84C593.42,-393.17 746.53,-215.47 805.35,-147.2"/>
<polygon fill="#000000" stroke="#000000" points="808.16,-149.29 812.04,-139.43 802.86,-144.72 808.16,-149.29"/>
<text text-anchor="middle" x="661.6" y="-302.52" font-family="monospace" font-size="10.00">owns</text>
</g>
<!-- interfaces_proc::blank::impl_const -->
<g id="node9" class="node">
<title>interfaces_proc::blank::impl_const</title>
<polygon fill="#db5367" stroke="black" points="117.08,-231.14 117.08,-269.14 236.08,-269.14 236.08,-231.14 117.08,-231.14"/>
<text text-anchor="middle" x="176.58" y="-257.14" font-family="monospace" font-size="10.00">pub(self) fn</text>
<polyline fill="none" stroke="black" points="117.08,-250.14 236.08,-250.14 "/>
<text text-anchor="middle" x="176.58" y="-238.14" font-family="monospace" font-size="10.00">blank::impl_const</text>
</g>
<!-- interfaces_proc&#45;&gt;interfaces_proc::blank::impl_const -->
<g id="edge8" class="edge">
<title>interfaces_proc&#45;&gt;interfaces_proc::blank::impl_const</title>
<path fill="none" stroke="#000000" d="M496.26,-451.94C432.85,-411.91 285.67,-319 215.34,-274.61"/>
<polygon fill="#000000" stroke="#000000" points="217.08,-271.57 206.75,-269.19 213.34,-277.48 217.08,-271.57"/>
<text text-anchor="middle" x="343.3" y="-366.27" font-family="monospace" font-size="10.00">owns</text>
</g>
<!-- interfaces_proc::blank::impl_fn -->
<g id="node10" class="node">
<title>interfaces_proc::blank::impl_fn</title>
<polygon fill="#db5367" stroke="black" points="588.98,-0.5 588.98,-38.5 689.98,-38.5 689.98,-0.5 588.98,-0.5"/>
<text text-anchor="middle" x="639.48" y="-26.5" font-family="monospace" font-size="10.00">pub(self) fn</text>
<polyline fill="none" stroke="black" points="588.98,-19.5 689.98,-19.5 "/>
<text text-anchor="middle" x="639.48" y="-7.5" font-family="monospace" font-size="10.00">blank::impl_fn</text>
</g>
<!-- interfaces_proc&#45;&gt;interfaces_proc::blank::impl_fn -->
<g id="edge9" class="edge">
<title>interfaces_proc&#45;&gt;interfaces_proc::blank::impl_fn</title>
<path fill="none" stroke="#000000" d="M531.18,-451.85C548.91,-381.04 610.96,-133.35 632.25,-48.37"/>
<polygon fill="#000000" stroke="#000000" points="635.66,-49.17 634.69,-38.62 628.87,-47.46 635.66,-49.17"/>
<text text-anchor="middle" x="569.21" y="-253.11" font-family="monospace" font-size="10.00">owns</text>
</g>
<!-- interfaces_proc::blank::impl_type -->
<g id="node11" class="node">
<title>interfaces_proc::blank::impl_type</title>
<polygon fill="#db5367" stroke="black" points="416.82,-87.55 416.82,-125.55 529.82,-125.55 529.82,-87.55 416.82,-87.55"/>
<text text-anchor="middle" x="473.32" y="-113.55" font-family="monospace" font-size="10.00">pub(self) fn</text>
<polyline fill="none" stroke="black" points="416.82,-106.55 529.82,-106.55 "/>
<text text-anchor="middle" x="473.32" y="-94.55" font-family="monospace" font-size="10.00">blank::impl_type</text>
</g>
<!-- interfaces_proc&#45;&gt;interfaces_proc::blank::impl_type -->
<g id="edge10" class="edge">
<title>interfaces_proc&#45;&gt;interfaces_proc::blank::impl_type</title>
<path fill="none" stroke="#000000" d="M523.61,-451.88C514.91,-392.12 488.14,-208.27 477.62,-136.08"/>
<polygon fill="#000000" stroke="#000000" points="481.04,-135.27 476.14,-125.88 474.11,-136.28 481.04,-135.27"/>
<text text-anchor="middle" x="488.12" y="-296.98" font-family="monospace" font-size="10.00">owns</text>
</g>
<!-- interfaces_proc::hack_mod -->
<g id="node12" class="node">
<title>interfaces_proc::hack_mod</title>
<polygon fill="#f8c04c" stroke="black" points="74.9,-584.33 74.9,-622.33 169.9,-622.33 169.9,-584.33 74.9,-584.33"/>
<text text-anchor="middle" x="122.4" y="-610.33" font-family="monospace" font-size="10.00">pub(crate) fn</text>
<polyline fill="none" stroke="black" points="74.9,-603.33 169.9,-603.33 "/>
<text text-anchor="middle" x="122.4" y="-591.33" font-family="monospace" font-size="10.00">hack_mod</text>
</g>
<!-- interfaces_proc&#45;&gt;interfaces_proc::hack_mod -->
<g id="edge11" class="edge">
<title>interfaces_proc&#45;&gt;interfaces_proc::hack_mod</title>
<path fill="none" stroke="#000000" d="M472.74,-488.54C396.59,-513.49 257.73,-558.99 179.65,-584.57"/>
<polygon fill="#000000" stroke="#000000" points="178.39,-581.3 169.97,-587.74 180.57,-587.96 178.39,-581.3"/>
<text text-anchor="middle" x="313.7" y="-539.56" font-family="monospace" font-size="10.00">owns</text>
</g>
<!-- interfaces_proc::partial::IdentSet -->
<g id="node13" class="node">
<title>interfaces_proc::partial::IdentSet</title>
<polygon fill="#81c169" stroke="black" points="765.32,-834.52 765.32,-872.52 884.32,-872.52 884.32,-834.52 765.32,-834.52"/>
<text text-anchor="middle" x="824.82" y="-860.52" font-family="monospace" font-size="10.00">pub struct</text>
<polyline fill="none" stroke="black" points="765.32,-853.52 884.32,-853.52 "/>
<text text-anchor="middle" x="824.82" y="-841.52" font-family="monospace" font-size="10.00">partial::IdentSet</text>
</g>
<!-- interfaces_proc&#45;&gt;interfaces_proc::partial::IdentSet -->
<g id="edge12" class="edge">
<title>interfaces_proc&#45;&gt;interfaces_proc::partial::IdentSet</title>
<path fill="none" stroke="#000000" d="M541.39,-490.19C590.46,-553.09 746.28,-752.84 803.49,-826.17"/>
<polygon fill="#000000" stroke="#000000" points="801.06,-828.74 809.97,-834.47 806.58,-824.44 801.06,-828.74"/>
<text text-anchor="middle" x="659.94" y="-661.18" font-family="monospace" font-size="10.00">owns</text>
</g>
<!-- interfaces_proc::partial::IdentSetPair -->
<g id="node15" class="node">
<title>interfaces_proc::partial::IdentSetPair</title>
<polygon fill="#81c169" stroke="black" points="845.36,-611.49 845.36,-649.49 988.36,-649.49 988.36,-611.49 845.36,-611.49"/>
<text text-anchor="middle" x="916.86" y="-637.49" font-family="monospace" font-size="10.00">pub struct</text>
<polyline fill="none" stroke="black" points="845.36,-630.49 988.36,-630.49 "/>
<text text-anchor="middle" x="916.86" y="-618.49" font-family="monospace" font-size="10.00">partial::IdentSetPair</text>
</g>
<!-- interfaces_proc&#45;&gt;interfaces_proc::partial::IdentSetPair -->
<g id="edge13" class="edge">
<title>interfaces_proc&#45;&gt;interfaces_proc::partial::IdentSetPair</title>
<path fill="none" stroke="#000000" d="M573.1,-490.04C645.12,-519.47 783.04,-575.82 860.5,-607.47"/>
<polygon fill="#000000" stroke="#000000" points="859.52,-610.84 870.1,-611.39 862.16,-604.36 859.52,-610.84"/>
<text text-anchor="middle" x="704.3" y="-551.75" font-family="monospace" font-size="10.00">owns</text>
</g>
<!-- interfaces_proc::partial::gen_missing_assignments -->
<g id="node17" class="node">
<title>interfaces_proc::partial::gen_missing_assignments</title>
<polygon fill="#81c169" stroke="black" points="697.85,-366.88 697.85,-404.88 906.85,-404.88 906.85,-366.88 697.85,-366.88"/>
<text text-anchor="middle" x="802.35" y="-392.88" font-family="monospace" font-size="10.00">pub fn</text>
<polyline fill="none" stroke="black" points="697.85,-385.88 906.85,-385.88 "/>
<text text-anchor="middle" x="802.35" y="-373.88" font-family="monospace" font-size="10.00">partial::gen_missing_assignments</text>
</g>
<!-- interfaces_proc&#45;&gt;interfaces_proc::partial::gen_missing_assignments -->
<g id="edge14" class="edge">
<title>interfaces_proc&#45;&gt;interfaces_proc::partial::gen_missing_assignments</title>
<path fill="none" stroke="#000000" d="M579.93,-454.45C622.8,-441.24 683.35,-422.57 730.45,-408.05"/>
<polygon fill="#000000" stroke="#000000" points="731.76,-411.31 740.29,-405.02 729.7,-404.62 731.76,-411.31"/>
<text text-anchor="middle" x="642.69" y="-434.25" font-family="monospace" font-size="10.00">owns</text>
</g>
<!-- interfaces_proc::__gen_missing_assignments&#45;&gt;interfaces_proc::partial::IdentSetPair -->
<g id="edge15" class="edge">
<title>interfaces_proc::__gen_missing_assignments&#45;&gt;interfaces_proc::partial::IdentSetPair</title>
<path fill="none" stroke="#7f7f7f" stroke-dasharray="5,2" d="M992.38,-386.87C978.18,-432.66 942.45,-547.94 925.74,-601.86"/>
<polygon fill="#7f7f7f" stroke="#7f7f7f" points="922.37,-600.9 922.76,-611.48 929.06,-602.97 922.37,-600.9"/>
<text text-anchor="middle" x="946.56" y="-497.36" font-family="monospace" font-size="10.00">uses</text>
</g>
<!-- interfaces_proc::partial::IdentSet::parse -->
<g id="node14" class="node">
<title>interfaces_proc::partial::IdentSet::parse</title>
<polygon fill="#db5367" stroke="black" points="835.9,-1230.73 835.9,-1268.73 996.9,-1268.73 996.9,-1230.73 835.9,-1230.73"/>
<text text-anchor="middle" x="916.4" y="-1256.73" font-family="monospace" font-size="10.00">pub(self) fn</text>
<polyline fill="none" stroke="black" points="835.9,-1249.73 996.9,-1249.73 "/>
<text text-anchor="middle" x="916.4" y="-1237.73" font-family="monospace" font-size="10.00">partial::IdentSet::parse</text>
</g>
<!-- interfaces_proc::partial::IdentSet&#45;&gt;interfaces_proc::partial::IdentSet::parse -->
<g id="edge16" class="edge">
<title>interfaces_proc::partial::IdentSet&#45;&gt;interfaces_proc::partial::IdentSet::parse</title>
<path fill="none" stroke="#000000" d="M817.29,-872.66C812.59,-937.07 859.35,-1145.1 893.93,-1221.43"/>
<polygon fill="#000000" stroke="#000000" points="890.8,-1223 898.3,-1230.48 897.1,-1219.96 890.8,-1223"/>
<text text-anchor="middle" x="843.11" y="-1050.05" font-family="monospace" font-size="10.00">owns</text>
</g>
<!-- interfaces_proc::partial::IdentSet::parse&#45;&gt;interfaces_proc::partial::IdentSet -->
<g id="edge17" class="edge">
<title>interfaces_proc::partial::IdentSet::parse&#45;&gt;interfaces_proc::partial::IdentSet</title>
<path fill="none" stroke="#7f7f7f" stroke-dasharray="5,2" d="M923.94,-1230.59C928.63,-1166.18 881.87,-958.15 847.29,-881.82"/>
<polygon fill="#7f7f7f" stroke="#7f7f7f" points="850.42,-880.25 842.93,-872.77 844.12,-883.29 850.42,-880.25"/>
<text text-anchor="middle" x="873.11" y="-1059.2" font-family="monospace" font-size="10.00">uses</text>
</g>
<!-- interfaces_proc::partial::IdentSetPair&#45;&gt;interfaces_proc::partial::IdentSet -->
<g id="edge18" class="edge">
<title>interfaces_proc::partial::IdentSetPair&#45;&gt;interfaces_proc::partial::IdentSet</title>
<path fill="none" stroke="#7f7f7f" stroke-dasharray="5,2" d="M909.02,-649.51C892.86,-688.67 855.78,-778.5 836.68,-824.79"/>
<polygon fill="#7f7f7f" stroke="#7f7f7f" points="833.36,-823.66 832.78,-834.23 839.83,-826.33 833.36,-823.66"/>
<text text-anchor="middle" x="860.35" y="-740.15" font-family="monospace" font-size="10.00">uses</text>
</g>
<!-- interfaces_proc::partial::IdentSetPair::parse -->
<g id="node16" class="node">
<title>interfaces_proc::partial::IdentSetPair::parse</title>
<polygon fill="#db5367" stroke="black" points="1146.43,-812.73 1146.43,-850.73 1331.43,-850.73 1331.43,-812.73 1146.43,-812.73"/>
<text text-anchor="middle" x="1238.93" y="-838.73" font-family="monospace" font-size="10.00">pub(self) fn</text>
<polyline fill="none" stroke="black" points="1146.43,-831.73 1331.43,-831.73 "/>
<text text-anchor="middle" x="1238.93" y="-819.73" font-family="monospace" font-size="10.00">partial::IdentSetPair::parse</text>
</g>
<!-- interfaces_proc::partial::IdentSetPair&#45;&gt;interfaces_proc::partial::IdentSetPair::parse -->
<g id="edge19" class="edge">
<title>interfaces_proc::partial::IdentSetPair&#45;&gt;interfaces_proc::partial::IdentSetPair::parse</title>
<path fill="none" stroke="#000000" d="M924.78,-649.55C957.67,-688.33 1076.47,-766.72 1158.39,-808.02"/>
<polygon fill="#000000" stroke="#000000" points="1157.18,-811.33 1167.69,-812.63 1160.28,-805.05 1157.18,-811.33"/>
<text text-anchor="middle" x="1029.08" y="-731.79" font-family="monospace" font-size="10.00">owns</text>
</g>
<!-- interfaces_proc::partial::IdentSetPair::parse&#45;&gt;interfaces_proc::partial::IdentSet -->
<g id="edge20" class="edge">
<title>interfaces_proc::partial::IdentSetPair::parse&#45;&gt;interfaces_proc::partial::IdentSet</title>
<path fill="none" stroke="#7f7f7f" stroke-dasharray="5,2" d="M1146.26,-836.6C1070.17,-840.61 964.06,-846.19 894.91,-849.83"/>
<polygon fill="#7f7f7f" stroke="#7f7f7f" points="894.37,-846.35 884.56,-850.37 894.73,-853.34 894.37,-846.35"/>
<text text-anchor="middle" x="1008.08" y="-846.22" font-family="monospace" font-size="10.00">uses</text>
</g>
<!-- interfaces_proc::partial::IdentSetPair::parse&#45;&gt;interfaces_proc::partial::IdentSetPair -->
<g id="edge21" class="edge">
<title>interfaces_proc::partial::IdentSetPair::parse&#45;&gt;interfaces_proc::partial::IdentSetPair</title>
<path fill="none" stroke="#7f7f7f" stroke-dasharray="5,2" d="M1231.02,-812.67C1198.13,-773.89 1079.33,-695.5 997.41,-654.2"/>
<polygon fill="#7f7f7f" stroke="#7f7f7f" points="998.62,-650.9 988.11,-649.59 995.51,-657.17 998.62,-650.9"/>
<text text-anchor="middle" x="1101.71" y="-736.43" font-family="monospace" font-size="10.00">uses</text>
</g>
<!-- interfaces_proc::partial::gen_missing_assignments&#45;&gt;interfaces_proc::partial::IdentSetPair -->
<g id="edge22" class="edge">
<title>interfaces_proc::partial::gen_missing_assignments&#45;&gt;interfaces_proc::partial::IdentSetPair</title>
<path fill="none" stroke="#7f7f7f" stroke-dasharray="5,2" d="M811.34,-405.08C831.4,-447.94 879.96,-551.65 903.55,-602.05"/>
<polygon fill="#7f7f7f" stroke="#7f7f7f" points="900.51,-603.82 907.92,-611.39 906.85,-600.85 900.51,-603.82"/>
<text text-anchor="middle" x="844.94" y="-506.56" font-family="monospace" font-size="10.00">uses</text>
</g>
</g>
</svg>
