<?xml version="1.0" encoding="UTF-8" standalone="no"?>
<!DOCTYPE svg PUBLIC "-//W3C//DTD SVG 1.1//EN"
 "http://www.w3.org/Graphics/SVG/1.1/DTD/svg11.dtd">
<!-- Generated by graphviz version 4.0.0 (0)
 -->
<!-- Pages: 1 -->
<svg width="380pt" height="286pt"
 viewBox="0.00 0.00 379.60 285.61" xmlns="http://www.w3.org/2000/svg" xmlns:xlink="http://www.w3.org/1999/xlink">
<g id="graph0" class="graph" transform="scale(1 1) rotate(0) translate(28.8 256.81)">
<polygon fill="white" stroke="transparent" points="-28.8,28.8 -28.8,-256.81 350.8,-256.81 350.8,28.8 -28.8,28.8"/>
<text text-anchor="middle" x="161" y="-195.21" font-family="Helvetica,sans-Serif" font-size="36.00">lightning_archive</text>
<!-- lightning_archive -->
<g id="node1" class="node">
<title>lightning_archive</title>
<polygon fill="#5397c8" stroke="black" points="101.5,-47.5 101.5,-85.5 220.5,-85.5 220.5,-47.5 101.5,-47.5"/>
<text text-anchor="middle" x="161" y="-73.5" font-family="monospace" font-size="10.00">crate</text>
<polyline fill="none" stroke="black" points="101.5,-66.5 220.5,-66.5 "/>
<text text-anchor="middle" x="161" y="-54.5" font-family="monospace" font-size="10.00">lightning_archive</text>
</g>
<!-- lightning_archive::archive -->
<g id="node2" class="node">
<title>lightning_archive::archive</title>
<polygon fill="#81c169" stroke="black" points="74.5,-94.51 74.5,-132.51 247.5,-132.51 247.5,-94.51 74.5,-94.51"/>
<text text-anchor="middle" x="161" y="-120.51" font-family="monospace" font-size="10.00">pub mod</text>
<polyline fill="none" stroke="black" points="74.5,-113.51 247.5,-113.51 "/>
<text text-anchor="middle" x="161" y="-101.51" font-family="monospace" font-size="10.00">lightning_archive::archive</text>
</g>
<!-- lightning_archive&#45;&gt;lightning_archive::archive -->
<g id="edge1" class="edge">
<title>lightning_archive&#45;&gt;lightning_archive::archive</title>
<path fill="none" stroke="#000000" d="M161,-85.62C161,-85.71 161,-85.8 161,-85.89"/>
<polygon fill="#000000" stroke="#000000" points="157.5,-84.26 161,-94.26 164.5,-84.26 157.5,-84.26"/>
<text text-anchor="middle" x="148.5" y="-88.76" font-family="monospace" font-size="10.00">owns</text>
</g>
<!-- lightning_archive::config -->
<g id="node3" class="node">
<title>lightning_archive::config</title>
<polygon fill="#81c169" stroke="black" points="77.5,-0.5 77.5,-38.5 244.5,-38.5 244.5,-0.5 77.5,-0.5"/>
<text text-anchor="middle" x="161" y="-26.5" font-family="monospace" font-size="10.00">pub mod</text>
<polyline fill="none" stroke="black" points="77.5,-19.5 244.5,-19.5 "/>
<text text-anchor="middle" x="161" y="-7.5" font-family="monospace" font-size="10.00">lightning_archive::config</text>
</g>
<!-- lightning_archive&#45;&gt;lightning_archive::config -->
<g id="edge2" class="edge">
<title>lightning_archive&#45;&gt;lightning_archive::config</title>
<path fill="none" stroke="#000000" d="M161,-47.39C161,-47.3 161,-47.21 161,-47.12"/>
<polygon fill="#000000" stroke="#000000" points="164.5,-48.75 161,-38.75 157.5,-48.75 164.5,-48.75"/>
<text text-anchor="middle" x="148.5" y="-39.25" font-family="monospace" font-size="10.00">owns</text>
</g>
<!-- lightning_archive::archive&#45;&gt;lightning_archive::config -->
<g id="edge3" class="edge">
<title>lightning_archive::archive&#45;&gt;lightning_archive::config</title>
<path fill="none" stroke="#7f7f7f" stroke-dasharray="5,2" d="M161,-94.49C161,-81.45 161,-63.89 161,-49.05"/>
<polygon fill="#7f7f7f" stroke="#7f7f7f" points="164.5,-48.82 161,-38.82 157.5,-48.82 164.5,-48.82"/>
<text text-anchor="middle" x="148.5" y="-74.77" font-family="monospace" font-size="10.00">uses</text>
</g>
<!-- tokio::sync::mpsc -->
<g id="node4" class="node">
<title>tokio::sync::mpsc</title>
<polygon fill="#81c169" stroke="black" points="101.5,-141.51 101.5,-179.51 220.5,-179.51 220.5,-141.51 101.5,-141.51"/>
<text text-anchor="middle" x="161" y="-167.51" font-family="monospace" font-size="10.00">external mod</text>
<polyline fill="none" stroke="black" points="101.5,-160.51 220.5,-160.51 "/>
<text text-anchor="middle" x="161" y="-148.51" font-family="monospace" font-size="10.00">tokio::sync::mpsc</text>
</g>
<!-- lightning_archive::archive&#45;&gt;tokio::sync::mpsc -->
<g id="edge4" class="edge">
<title>lightning_archive::archive&#45;&gt;tokio::sync::mpsc</title>
<path fill="none" stroke="#7f7f7f" stroke-dasharray="5,2" d="M161,-132.63C161,-132.72 161,-132.81 161,-132.9"/>
<polygon fill="#7f7f7f" stroke="#7f7f7f" points="157.5,-131.26 161,-141.26 164.5,-131.26 157.5,-131.26"/>
<text text-anchor="middle" x="148.5" y="-135.76" font-family="monospace" font-size="10.00">uses</text>
</g>
</g>
</svg>
