<?xml version="1.0" encoding="UTF-8" standalone="no"?>
<!DOCTYPE svg PUBLIC "-//W3C//DTD SVG 1.1//EN"
 "http://www.w3.org/Graphics/SVG/1.1/DTD/svg11.dtd">
<!-- Generated by graphviz version 4.0.0 (0)
 -->
<!-- Pages: 1 -->
<svg width="377pt" height="3325pt"
 viewBox="0.00 0.00 376.60 3324.60" xmlns="http://www.w3.org/2000/svg" xmlns:xlink="http://www.w3.org/1999/xlink">
<g id="graph0" class="graph" transform="scale(1 1) rotate(0) translate(28.8 3295.8)">
<polygon fill="white" stroke="transparent" points="-28.8,28.8 -28.8,-3295.8 347.8,-3295.8 347.8,28.8 -28.8,28.8"/>
<text text-anchor="middle" x="159.5" y="-3234.2" font-family="Helvetica,sans-Serif" font-size="36.00">lightning_notifier</text>
<!-- fdi -->
<g id="node1" class="node">
<title>fdi</title>
<polygon fill="#5397c8" stroke="black" points="170.5,-3180.5 170.5,-3218.5 271.5,-3218.5 271.5,-3180.5 170.5,-3180.5"/>
<text text-anchor="middle" x="221" y="-3206.5" font-family="monospace" font-size="10.00">external crate</text>
<polyline fill="none" stroke="black" points="170.5,-3199.5 271.5,-3199.5 "/>
<text text-anchor="middle" x="221" y="-3187.5" font-family="monospace" font-size="10.00">fdi</text>
</g>
<!-- lightning_notifier -->
<g id="node2" class="node">
<title>lightning_notifier</title>
<polygon fill="#5397c8" stroke="black" points="158.5,-1701.5 158.5,-1739.5 283.5,-1739.5 283.5,-1701.5 158.5,-1701.5"/>
<text text-anchor="middle" x="221" y="-1727.5" font-family="monospace" font-size="10.00">crate</text>
<polyline fill="none" stroke="black" points="158.5,-1720.5 283.5,-1720.5 "/>
<text text-anchor="middle" x="221" y="-1708.5" font-family="monospace" font-size="10.00">lightning_notifier</text>
</g>
<!-- lightning_notifier&#45;&gt;fdi -->
<g id="edge1" class="edge">
<title>lightning_notifier&#45;&gt;fdi</title>
</g>
<!-- lightning_schema -->
<g id="node3" class="node">
<title>lightning_schema</title>
<polygon fill="#5397c8" stroke="black" points="164.5,-222.5 164.5,-260.5 277.5,-260.5 277.5,-222.5 164.5,-222.5"/>
<text text-anchor="middle" x="221" y="-248.5" font-family="monospace" font-size="10.00">external crate</text>
<polyline fill="none" stroke="black" points="164.5,-241.5 277.5,-241.5 "/>
<text text-anchor="middle" x="221" y="-229.5" font-family="monospace" font-size="10.00">lightning_schema</text>
</g>
<!-- lightning_notifier&#45;&gt;lightning_schema -->
<g id="edge2" class="edge">
<title>lightning_notifier&#45;&gt;lightning_schema</title>
</g>
<!-- lightning_types -->
<g id="node4" class="node">
<title>lightning_types</title>
<polygon fill="#5397c8" stroke="black" points="167.5,-111.5 167.5,-149.5 274.5,-149.5 274.5,-111.5 167.5,-111.5"/>
<text text-anchor="middle" x="221" y="-137.5" font-family="monospace" font-size="10.00">external crate</text>
<polyline fill="none" stroke="black" points="167.5,-130.5 274.5,-130.5 "/>
<text text-anchor="middle" x="221" y="-118.5" font-family="monospace" font-size="10.00">lightning_types</text>
</g>
<!-- lightning_notifier&#45;&gt;lightning_types -->
<g id="edge3" class="edge">
<title>lightning_notifier&#45;&gt;lightning_types</title>
<path fill="none" stroke="#7f7f7f" stroke-dasharray="5,2" d="M218.21,-1701.44C200.42,-1579.84 103.5,-917.5 103.5,-917.5 103.5,-917.5 195.36,-302.23 216.64,-159.72"/>
<polygon fill="#7f7f7f" stroke="#7f7f7f" points="220.14,-159.97 218.15,-149.56 213.22,-158.94 220.14,-159.97"/>
<text text-anchor="middle" x="98" y="-915" font-family="monospace" font-size="10.00">uses</text>
</g>
<!-- tokio::sync::broadcast -->
<g id="node5" class="node">
<title>tokio::sync::broadcast</title>
<polygon fill="#81c169" stroke="black" points="146.5,-0.5 146.5,-38.5 295.5,-38.5 295.5,-0.5 146.5,-0.5"/>
<text text-anchor="middle" x="221" y="-26.5" font-family="monospace" font-size="10.00">external mod</text>
<polyline fill="none" stroke="black" points="146.5,-19.5 295.5,-19.5 "/>
<text text-anchor="middle" x="221" y="-7.5" font-family="monospace" font-size="10.00">tokio::sync::broadcast</text>
</g>
<!-- lightning_notifier&#45;&gt;tokio::sync::broadcast -->
<g id="edge4" class="edge">
<title>lightning_notifier&#45;&gt;tokio::sync::broadcast</title>
<path fill="none" stroke="#7f7f7f" stroke-dasharray="5,2" d="M218.04,-1701.18C199.79,-1582.25 103.5,-954.5 103.5,-954.5 103.5,-954.5 197.51,-206.4 217.35,-48.53"/>
<polygon fill="#7f7f7f" stroke="#7f7f7f" points="220.83,-48.96 218.6,-38.6 213.88,-48.09 220.83,-48.96"/>
<text text-anchor="middle" x="98" y="-952" font-family="monospace" font-size="10.00">uses</text>
</g>
</g>
</svg>
