<?xml version="1.0" encoding="UTF-8" standalone="no"?>
<!DOCTYPE svg PUBLIC "-//W3C//DTD SVG 1.1//EN"
 "http://www.w3.org/Graphics/SVG/1.1/DTD/svg11.dtd">
<!-- Generated by graphviz version 4.0.0 (0)
 -->
<!-- Pages: 1 -->
<svg width="1049pt" height="1115pt"
 viewBox="0.00 0.00 1048.60 1114.60" xmlns="http://www.w3.org/2000/svg" xmlns:xlink="http://www.w3.org/1999/xlink">
<g id="graph0" class="graph" transform="scale(1 1) rotate(0) translate(28.8 1085.8)">
<polygon fill="white" stroke="transparent" points="-28.8,28.8 -28.8,-1085.8 1019.8,-1085.8 1019.8,28.8 -28.8,28.8"/>
<text text-anchor="middle" x="495.5" y="-1024.2" font-family="Helvetica,sans-Serif" font-size="36.00">fleek_crypto</text>
<!-- fleek_crypto -->
<g id="node1" class="node">
<title>fleek_crypto</title>
<polygon fill="#5397c8" stroke="black" points="305.01,-544.47 305.01,-582.47 394.01,-582.47 394.01,-544.47 305.01,-544.47"/>
<text text-anchor="middle" x="349.51" y="-570.47" font-family="monospace" font-size="10.00">crate</text>
<polyline fill="none" stroke="black" points="305.01,-563.47 394.01,-563.47 "/>
<text text-anchor="middle" x="349.51" y="-551.47" font-family="monospace" font-size="10.00">fleek_crypto</text>
</g>
<!-- fleek_crypto::address -->
<g id="node2" class="node">
<title>fleek_crypto::address</title>
<polygon fill="#f8c04c" stroke="black" points="428.94,-815.63 428.94,-853.63 571.94,-853.63 571.94,-815.63 428.94,-815.63"/>
<text text-anchor="middle" x="500.44" y="-841.63" font-family="monospace" font-size="10.00">pub(crate) mod</text>
<polyline fill="none" stroke="black" points="428.94,-834.63 571.94,-834.63 "/>
<text text-anchor="middle" x="500.44" y="-822.63" font-family="monospace" font-size="10.00">fleek_crypto::address</text>
</g>
<!-- fleek_crypto&#45;&gt;fleek_crypto::address -->
<g id="edge1" class="edge">
<title>fleek_crypto&#45;&gt;fleek_crypto::address</title>
<path fill="none" stroke="#000000" d="M345.92,-582.59C353.36,-630.62 418.66,-752.5 463.55,-807.62"/>
<polygon fill="#000000" stroke="#000000" points="460.88,-809.88 470.01,-815.25 466.22,-805.35 460.88,-809.88"/>
<text text-anchor="middle" x="392.23" y="-698.1" font-family="monospace" font-size="10.00">owns</text>
</g>
<!-- fleek_crypto&#45;&gt;fleek_crypto::address -->
<g id="edge2" class="edge">
<title>fleek_crypto&#45;&gt;fleek_crypto::address</title>
<path fill="none" stroke="#7f7f7f" stroke-dasharray="5,2" d="M379.75,-582.64C421.79,-629.98 487.54,-749.2 501.9,-805.36"/>
<polygon fill="#7f7f7f" stroke="#7f7f7f" points="498.52,-806.33 504.01,-815.39 505.37,-804.89 498.52,-806.33"/>
<text text-anchor="middle" x="428.32" y="-697" font-family="monospace" font-size="10.00">uses</text>
</g>
<!-- fleek_crypto::base58_array -->
<g id="node3" class="node">
<title>fleek_crypto::base58_array</title>
<polygon fill="#f8c04c" stroke="black" points="0.47,-409.6 0.47,-447.6 173.47,-447.6 173.47,-409.6 0.47,-409.6"/>
<text text-anchor="middle" x="86.97" y="-435.6" font-family="monospace" font-size="10.00">pub(crate) mod</text>
<polyline fill="none" stroke="black" points="0.47,-428.6 173.47,-428.6 "/>
<text text-anchor="middle" x="86.97" y="-416.6" font-family="monospace" font-size="10.00">fleek_crypto::base58_array</text>
</g>
<!-- fleek_crypto&#45;&gt;fleek_crypto::base58_array -->
<g id="edge3" class="edge">
<title>fleek_crypto&#45;&gt;fleek_crypto::base58_array</title>
<path fill="none" stroke="#000000" d="M312.45,-544.43C265.48,-520.3 184.49,-478.69 133.44,-452.47"/>
<polygon fill="#000000" stroke="#000000" points="134.76,-449.21 124.27,-447.75 131.56,-455.44 134.76,-449.21"/>
<text text-anchor="middle" x="210.44" y="-501.45" font-family="monospace" font-size="10.00">owns</text>
</g>
<!-- fleek_crypto::hex_array -->
<g id="node4" class="node">
<title>fleek_crypto::hex_array</title>
<polygon fill="#f8c04c" stroke="black" points="217.63,-970.98 217.63,-1008.98 372.63,-1008.98 372.63,-970.98 217.63,-970.98"/>
<text text-anchor="middle" x="295.13" y="-996.98" font-family="monospace" font-size="10.00">pub(crate) mod</text>
<polyline fill="none" stroke="black" points="217.63,-989.98 372.63,-989.98 "/>
<text text-anchor="middle" x="295.13" y="-977.98" font-family="monospace" font-size="10.00">fleek_crypto::hex_array</text>
</g>
<!-- fleek_crypto&#45;&gt;fleek_crypto::hex_array -->
<g id="edge4" class="edge">
<title>fleek_crypto&#45;&gt;fleek_crypto::hex_array</title>
<path fill="none" stroke="#000000" d="M347.06,-582.62C338.42,-650.41 309.25,-879.26 298.85,-960.81"/>
<polygon fill="#000000" stroke="#000000" points="295.36,-960.52 297.57,-970.88 302.31,-961.4 295.36,-960.52"/>
<text text-anchor="middle" x="310.46" y="-774.72" font-family="monospace" font-size="10.00">owns</text>
</g>
<!-- fleek_crypto::keys -->
<g id="node5" class="node">
<title>fleek_crypto::keys</title>
<polygon fill="#f8c04c" stroke="black" points="595.94,-381.38 595.94,-419.38 720.94,-419.38 720.94,-381.38 595.94,-381.38"/>
<text text-anchor="middle" x="658.44" y="-407.38" font-family="monospace" font-size="10.00">pub(crate) mod</text>
<polyline fill="none" stroke="black" points="595.94,-400.38 720.94,-400.38 "/>
<text text-anchor="middle" x="658.44" y="-388.38" font-family="monospace" font-size="10.00">fleek_crypto::keys</text>
</g>
<!-- fleek_crypto&#45;&gt;fleek_crypto::keys -->
<g id="edge5" class="edge">
<title>fleek_crypto&#45;&gt;fleek_crypto::keys</title>
<path fill="none" stroke="#000000" d="M385.55,-544.44C442.02,-514.63 551.26,-456.96 613.02,-424.35"/>
<polygon fill="#000000" stroke="#000000" points="614.94,-427.3 622.14,-419.54 611.67,-421.11 614.94,-427.3"/>
<text text-anchor="middle" x="486.79" y="-487.4" font-family="monospace" font-size="10.00">owns</text>
</g>
<!-- fleek_crypto::keys::pk -->
<g id="node6" class="node">
<title>fleek_crypto::keys::pk</title>
<polygon fill="#db5367" stroke="black" points="466.09,-610.71 466.09,-648.71 615.09,-648.71 615.09,-610.71 466.09,-610.71"/>
<text text-anchor="middle" x="540.59" y="-636.71" font-family="monospace" font-size="10.00">pub(self) mod</text>
<polyline fill="none" stroke="black" points="466.09,-629.71 615.09,-629.71 "/>
<text text-anchor="middle" x="540.59" y="-617.71" font-family="monospace" font-size="10.00">fleek_crypto::keys::pk</text>
</g>
<!-- fleek_crypto&#45;&gt;fleek_crypto::keys::pk -->
<g id="edge6" class="edge">
<title>fleek_crypto&#45;&gt;fleek_crypto::keys::pk</title>
<path fill="none" stroke="#7f7f7f" stroke-dasharray="5,2" d="M394.31,-579C418.58,-587.41 448.99,-597.95 475.8,-607.25"/>
<polygon fill="#7f7f7f" stroke="#7f7f7f" points="474.9,-610.64 485.49,-610.61 477.19,-604.02 474.9,-610.64"/>
<text text-anchor="middle" x="422.55" y="-596.12" font-family="monospace" font-size="10.00">uses</text>
</g>
<!-- fleek_crypto::keys::sk::account -->
<g id="node8" class="node">
<title>fleek_crypto::keys::sk::account</title>
<polygon fill="#db5367" stroke="black" points="702.9,-428.39 702.9,-466.39 905.9,-466.39 905.9,-428.39 702.9,-428.39"/>
<text text-anchor="middle" x="804.4" y="-454.39" font-family="monospace" font-size="10.00">pub(self) mod</text>
<polyline fill="none" stroke="black" points="702.9,-447.39 905.9,-447.39 "/>
<text text-anchor="middle" x="804.4" y="-435.39" font-family="monospace" font-size="10.00">fleek_crypto::keys::sk::account</text>
</g>
<!-- fleek_crypto&#45;&gt;fleek_crypto::keys::sk::account -->
<g id="edge7" class="edge">
<title>fleek_crypto&#45;&gt;fleek_crypto::keys::sk::account</title>
<path fill="none" stroke="#7f7f7f" stroke-dasharray="5,2" d="M394.37,-552.02C469.89,-532.75 623.58,-493.53 719.85,-468.96"/>
<polygon fill="#7f7f7f" stroke="#7f7f7f" points="720.74,-472.35 729.56,-466.48 719.01,-465.56 720.74,-472.35"/>
<text text-anchor="middle" x="544.61" y="-513.49" font-family="monospace" font-size="10.00">uses</text>
</g>
<!-- fleek_crypto::keys::sk::consensus -->
<g id="node9" class="node">
<title>fleek_crypto::keys::sk::consensus</title>
<polygon fill="#db5367" stroke="black" points="366.6,-97.07 366.6,-135.07 581.6,-135.07 581.6,-97.07 366.6,-97.07"/>
<text text-anchor="middle" x="474.1" y="-123.07" font-family="monospace" font-size="10.00">pub(self) mod</text>
<polyline fill="none" stroke="black" points="366.6,-116.07 581.6,-116.07 "/>
<text text-anchor="middle" x="474.1" y="-104.07" font-family="monospace" font-size="10.00">fleek_crypto::keys::sk::consensus</text>
</g>
<!-- fleek_crypto&#45;&gt;fleek_crypto::keys::sk::consensus -->
<g id="edge8" class="edge">
<title>fleek_crypto&#45;&gt;fleek_crypto::keys::sk::consensus</title>
<path fill="none" stroke="#7f7f7f" stroke-dasharray="5,2" d="M354.86,-544.24C374.49,-473.76 442.59,-229.23 466.07,-144.92"/>
<polygon fill="#7f7f7f" stroke="#7f7f7f" points="469.46,-145.8 468.77,-135.23 462.71,-143.92 469.46,-145.8"/>
<text text-anchor="middle" x="422.96" y="-336.58" font-family="monospace" font-size="10.00">uses</text>
</g>
<!-- fleek_crypto::keys::sk::node -->
<g id="node10" class="node">
<title>fleek_crypto::keys::sk::node</title>
<polygon fill="#db5367" stroke="black" points="601.6,-195.21 601.6,-233.21 786.6,-233.21 786.6,-195.21 601.6,-195.21"/>
<text text-anchor="middle" x="694.1" y="-221.21" font-family="monospace" font-size="10.00">pub(self) mod</text>
<polyline fill="none" stroke="black" points="601.6,-214.21 786.6,-214.21 "/>
<text text-anchor="middle" x="694.1" y="-202.21" font-family="monospace" font-size="10.00">fleek_crypto::keys::sk::node</text>
</g>
<!-- fleek_crypto&#45;&gt;fleek_crypto::keys::sk::node -->
<g id="edge9" class="edge">
<title>fleek_crypto&#45;&gt;fleek_crypto::keys::sk::node</title>
<path fill="none" stroke="#7f7f7f" stroke-dasharray="5,2" d="M368.28,-544.44C426.02,-485.91 601.14,-308.43 667.88,-240.79"/>
<polygon fill="#7f7f7f" stroke="#7f7f7f" points="670.57,-243.04 675.1,-233.47 665.58,-238.13 670.57,-243.04"/>
<text text-anchor="middle" x="505.58" y="-395.61" font-family="monospace" font-size="10.00">uses</text>
</g>
<!-- fleek_crypto::traits -->
<g id="node11" class="node">
<title>fleek_crypto::traits</title>
<polygon fill="#f8c04c" stroke="black" points="296.81,-334.84 296.81,-372.84 433.81,-372.84 433.81,-334.84 296.81,-334.84"/>
<text text-anchor="middle" x="365.31" y="-360.84" font-family="monospace" font-size="10.00">pub(crate) mod</text>
<polyline fill="none" stroke="black" points="296.81,-353.84 433.81,-353.84 "/>
<text text-anchor="middle" x="365.31" y="-341.84" font-family="monospace" font-size="10.00">fleek_crypto::traits</text>
</g>
<!-- fleek_crypto&#45;&gt;fleek_crypto::traits -->
<g id="edge10" class="edge">
<title>fleek_crypto&#45;&gt;fleek_crypto::traits</title>
<path fill="none" stroke="#000000" d="M367.85,-544.25C383.46,-507.33 390.27,-426.37 382.15,-382.85"/>
<polygon fill="#000000" stroke="#000000" points="385.5,-381.84 379.83,-372.89 378.69,-383.43 385.5,-381.84"/>
<text text-anchor="middle" x="362.5" y="-466.55" font-family="monospace" font-size="10.00">owns</text>
</g>
<!-- fleek_crypto&#45;&gt;fleek_crypto::traits -->
<g id="edge11" class="edge">
<title>fleek_crypto&#45;&gt;fleek_crypto::traits</title>
<path fill="none" stroke="#7f7f7f" stroke-dasharray="5,2" d="M334.98,-544.4C324.29,-507.38 329.23,-425.69 343.54,-382.26"/>
<polygon fill="#7f7f7f" stroke="#7f7f7f" points="346.84,-383.44 347.05,-372.85 340.28,-380.99 346.84,-383.44"/>
<text text-anchor="middle" x="326.76" y="-466.33" font-family="monospace" font-size="10.00">uses</text>
</g>
<!-- fleek_crypto::transaction -->
<g id="node12" class="node">
<title>fleek_crypto::transaction</title>
<polygon fill="#f8c04c" stroke="black" points="123.84,-682.98 123.84,-720.98 290.84,-720.98 290.84,-682.98 123.84,-682.98"/>
<text text-anchor="middle" x="207.34" y="-708.98" font-family="monospace" font-size="10.00">pub(crate) mod</text>
<polyline fill="none" stroke="black" points="123.84,-701.98 290.84,-701.98 "/>
<text text-anchor="middle" x="207.34" y="-689.98" font-family="monospace" font-size="10.00">fleek_crypto::transaction</text>
</g>
<!-- fleek_crypto&#45;&gt;fleek_crypto::transaction -->
<g id="edge12" class="edge">
<title>fleek_crypto&#45;&gt;fleek_crypto::transaction</title>
<path fill="none" stroke="#000000" d="M304.84,-575.87C270.28,-599.05 227.14,-643.14 210.94,-673.54"/>
<polygon fill="#000000" stroke="#000000" points="207.64,-672.33 206.67,-682.88 214.01,-675.24 207.64,-672.33"/>
<text text-anchor="middle" x="245.39" y="-627.7" font-family="monospace" font-size="10.00">owns</text>
</g>
<!-- fleek_crypto&#45;&gt;fleek_crypto::transaction -->
<g id="edge13" class="edge">
<title>fleek_crypto&#45;&gt;fleek_crypto::transaction</title>
<path fill="none" stroke="#7f7f7f" stroke-dasharray="5,2" d="M350.12,-582.75C340.62,-608.24 303.99,-649.07 269.74,-676.49"/>
<polygon fill="#7f7f7f" stroke="#7f7f7f" points="267.33,-673.92 261.56,-682.81 271.61,-679.46 267.33,-673.92"/>
<text text-anchor="middle" x="297.43" y="-632.62" font-family="monospace" font-size="10.00">uses</text>
</g>
<!-- fleek_crypto::address&#45;&gt;fleek_crypto::hex_array -->
<g id="edge14" class="edge">
<title>fleek_crypto::address&#45;&gt;fleek_crypto::hex_array</title>
<path fill="none" stroke="#7f7f7f" stroke-dasharray="5,2" d="M475.26,-853.68C438.4,-881.57 369.67,-933.58 328.59,-964.66"/>
<polygon fill="#7f7f7f" stroke="#7f7f7f" points="326.38,-961.95 320.51,-970.78 330.6,-967.53 326.38,-961.95"/>
<text text-anchor="middle" x="389.43" y="-912.17" font-family="monospace" font-size="10.00">uses</text>
</g>
<!-- fleek_crypto::address&#45;&gt;fleek_crypto::keys::pk -->
<g id="edge15" class="edge">
<title>fleek_crypto::address&#45;&gt;fleek_crypto::keys::pk</title>
<path fill="none" stroke="#7f7f7f" stroke-dasharray="5,2" d="M504.22,-815.35C511.29,-779.25 526.57,-701.29 534.9,-658.78"/>
<polygon fill="#7f7f7f" stroke="#7f7f7f" points="538.37,-659.27 536.86,-648.79 531.5,-657.93 538.37,-659.27"/>
<text text-anchor="middle" x="507.06" y="-740.06" font-family="monospace" font-size="10.00">uses</text>
</g>
<!-- fleek_crypto::keys&#45;&gt;fleek_crypto::keys::pk -->
<g id="edge16" class="edge">
<title>fleek_crypto::keys&#45;&gt;fleek_crypto::keys::pk</title>
<path fill="none" stroke="#000000" d="M627.91,-419.66C593.42,-460.32 546.72,-552.44 536.96,-600.38"/>
<polygon fill="#000000" stroke="#000000" points="533.48,-600.04 535.41,-610.46 540.39,-601.11 533.48,-600.04"/>
<text text-anchor="middle" x="569.94" y="-513.02" font-family="monospace" font-size="10.00">owns</text>
</g>
<!-- fleek_crypto::keys&#45;&gt;fleek_crypto::keys::pk -->
<g id="edge17" class="edge">
<title>fleek_crypto::keys&#45;&gt;fleek_crypto::keys::pk</title>
<path fill="none" stroke="#7f7f7f" stroke-dasharray="5,2" d="M663.64,-419.47C659.79,-460.77 613.74,-555.48 577.34,-602.71"/>
<polygon fill="#7f7f7f" stroke="#7f7f7f" points="574.46,-600.71 570.9,-610.69 579.91,-605.11 574.46,-600.71"/>
<text text-anchor="middle" x="607.99" y="-514.09" font-family="monospace" font-size="10.00">uses</text>
</g>
<!-- fleek_crypto::keys::sk -->
<g id="node7" class="node">
<title>fleek_crypto::keys::sk</title>
<polygon fill="#db5367" stroke="black" points="631.4,-0.26 631.4,-38.26 780.4,-38.26 780.4,-0.26 631.4,-0.26"/>
<text text-anchor="middle" x="705.9" y="-26.26" font-family="monospace" font-size="10.00">pub(self) mod</text>
<polyline fill="none" stroke="black" points="631.4,-19.26 780.4,-19.26 "/>
<text text-anchor="middle" x="705.9" y="-7.26" font-family="monospace" font-size="10.00">fleek_crypto::keys::sk</text>
</g>
<!-- fleek_crypto::keys&#45;&gt;fleek_crypto::keys::sk -->
<g id="edge18" class="edge">
<title>fleek_crypto::keys&#45;&gt;fleek_crypto::keys::sk</title>
<path fill="none" stroke="#000000" d="M660.82,-381.22C668.54,-319.21 692.9,-123.7 702.22,-48.83"/>
<polygon fill="#000000" stroke="#000000" points="705.72,-49.04 703.48,-38.69 698.77,-48.18 705.72,-49.04"/>
<text text-anchor="middle" x="669.02" y="-218.02" font-family="monospace" font-size="10.00">owns</text>
</g>
<!-- fleek_crypto::keys&#45;&gt;fleek_crypto::keys::sk::account -->
<g id="edge19" class="edge">
<title>fleek_crypto::keys&#45;&gt;fleek_crypto::keys::sk::account</title>
<path fill="none" stroke="#7f7f7f" stroke-dasharray="5,2" d="M717.8,-419.5C723.57,-421.36 729.45,-423.25 735.3,-425.13"/>
<polygon fill="#7f7f7f" stroke="#7f7f7f" points="734.49,-428.55 745.08,-428.28 736.64,-421.89 734.49,-428.55"/>
<text text-anchor="middle" x="739.05" y="-414.32" font-family="monospace" font-size="10.00">uses</text>
</g>
<!-- fleek_crypto::keys&#45;&gt;fleek_crypto::keys::sk::consensus -->
<g id="edge20" class="edge">
<title>fleek_crypto::keys&#45;&gt;fleek_crypto::keys::sk::consensus</title>
<path fill="none" stroke="#7f7f7f" stroke-dasharray="5,2" d="M646.05,-381.28C614.18,-332.12 529.19,-201.04 491.98,-143.64"/>
<polygon fill="#7f7f7f" stroke="#7f7f7f" points="494.8,-141.57 486.43,-135.09 488.93,-145.38 494.8,-141.57"/>
<text text-anchor="middle" x="556.51" y="-265.46" font-family="monospace" font-size="10.00">uses</text>
</g>
<!-- fleek_crypto::keys&#45;&gt;fleek_crypto::keys::sk::node -->
<g id="edge21" class="edge">
<title>fleek_crypto::keys&#45;&gt;fleek_crypto::keys::sk::node</title>
<path fill="none" stroke="#7f7f7f" stroke-dasharray="5,2" d="M662.12,-381.16C668.38,-348.46 681.14,-281.84 688.51,-243.38"/>
<polygon fill="#7f7f7f" stroke="#7f7f7f" points="691.99,-243.81 690.44,-233.33 685.12,-242.49 691.99,-243.81"/>
<text text-anchor="middle" x="662.81" y="-315.27" font-family="monospace" font-size="10.00">uses</text>
</g>
<!-- fleek_crypto::keys::pk&#45;&gt;fleek_crypto::base58_array -->
<g id="edge22" class="edge">
<title>fleek_crypto::keys::pk&#45;&gt;fleek_crypto::base58_array</title>
<path fill="none" stroke="#7f7f7f" stroke-dasharray="5,2" d="M497.51,-610.61C413.89,-573.53 229.87,-491.95 139.35,-451.82"/>
<polygon fill="#7f7f7f" stroke="#7f7f7f" points="140.66,-448.57 130.1,-447.72 137.82,-454.97 140.66,-448.57"/>
<text text-anchor="middle" x="305.93" y="-534.21" font-family="monospace" font-size="10.00">uses</text>
</g>
<!-- fleek_crypto::keys::pk&#45;&gt;fleek_crypto::traits -->
<g id="edge23" class="edge">
<title>fleek_crypto::keys::pk&#45;&gt;fleek_crypto::traits</title>
<path fill="none" stroke="#7f7f7f" stroke-dasharray="5,2" d="M528.27,-610.31C497.71,-562.21 418.36,-437.33 382.89,-381.51"/>
<polygon fill="#7f7f7f" stroke="#7f7f7f" points="385.7,-379.41 377.39,-372.85 379.79,-383.17 385.7,-379.41"/>
<text text-anchor="middle" x="443.08" y="-498.91" font-family="monospace" font-size="10.00">uses</text>
</g>
<!-- fleek_crypto::keys::sk&#45;&gt;fleek_crypto::keys::sk::account -->
<g id="edge24" class="edge">
<title>fleek_crypto::keys::sk&#45;&gt;fleek_crypto::keys::sk::account</title>
<path fill="none" stroke="#000000" d="M698.74,-38.31C694.26,-106.51 746.16,-337.71 782.45,-418.97"/>
<polygon fill="#000000" stroke="#000000" points="779.35,-420.59 786.8,-428.12 785.67,-417.58 779.35,-420.59"/>
<text text-anchor="middle" x="728.1" y="-231.64" font-family="monospace" font-size="10.00">owns</text>
</g>
<!-- fleek_crypto::keys::sk&#45;&gt;fleek_crypto::keys::sk::account -->
<g id="edge25" class="edge">
<title>fleek_crypto::keys::sk&#45;&gt;fleek_crypto::keys::sk::account</title>
<path fill="none" stroke="#7f7f7f" stroke-dasharray="5,2" d="M723.49,-38.5C758.18,-106.61 811.21,-335.54 811.83,-417.77"/>
<polygon fill="#7f7f7f" stroke="#7f7f7f" points="808.33,-417.86 811.59,-427.94 815.32,-418.02 808.33,-417.86"/>
<text text-anchor="middle" x="780.16" y="-231.14" font-family="monospace" font-size="10.00">uses</text>
</g>
<!-- fleek_crypto::keys::sk&#45;&gt;fleek_crypto::keys::sk::consensus -->
<g id="edge26" class="edge">
<title>fleek_crypto::keys::sk&#45;&gt;fleek_crypto::keys::sk::consensus</title>
<path fill="none" stroke="#000000" d="M631.25,-23.83C581.84,-39.17 521.07,-67.2 491.45,-90.14"/>
<polygon fill="#000000" stroke="#000000" points="488.99,-87.63 483.63,-96.77 493.52,-92.97 488.99,-87.63"/>
<text text-anchor="middle" x="548.85" y="-59.98" font-family="monospace" font-size="10.00">owns</text>
</g>
<!-- fleek_crypto::keys::sk&#45;&gt;fleek_crypto::keys::sk::consensus -->
<g id="edge27" class="edge">
<title>fleek_crypto::keys::sk&#45;&gt;fleek_crypto::keys::sk::consensus</title>
<path fill="none" stroke="#7f7f7f" stroke-dasharray="5,2" d="M696.48,-38.47C677.56,-56.4 634.6,-78.98 591.37,-96.28"/>
<polygon fill="#7f7f7f" stroke="#7f7f7f" points="589.9,-93.1 581.86,-100 592.45,-99.61 589.9,-93.1"/>
<text text-anchor="middle" x="631.43" y="-70.37" font-family="monospace" font-size="10.00">uses</text>
</g>
<!-- fleek_crypto::keys::sk&#45;&gt;fleek_crypto::keys::sk::node -->
<g id="edge28" class="edge">
<title>fleek_crypto::keys::sk&#45;&gt;fleek_crypto::keys::sk::node</title>
<path fill="none" stroke="#000000" d="M687.49,-38.35C673.17,-72.69 668.03,-145.03 676.29,-185.42"/>
<polygon fill="#000000" stroke="#000000" points="672.91,-186.35 678.75,-195.19 679.7,-184.64 672.91,-186.35"/>
<text text-anchor="middle" x="669.39" y="-114.88" font-family="monospace" font-size="10.00">owns</text>
</g>
<!-- fleek_crypto::keys::sk&#45;&gt;fleek_crypto::keys::sk::node -->
<g id="edge29" class="edge">
<title>fleek_crypto::keys::sk&#45;&gt;fleek_crypto::keys::sk::node</title>
<path fill="none" stroke="#7f7f7f" stroke-dasharray="5,2" d="M721.35,-38.61C731.88,-73.09 728.68,-145.32 715.97,-185.57"/>
<polygon fill="#7f7f7f" stroke="#7f7f7f" points="712.64,-184.48 712.53,-195.08 719.22,-186.86 712.64,-184.48"/>
<text text-anchor="middle" x="706.16" y="-115.09" font-family="monospace" font-size="10.00">uses</text>
</g>
<!-- fleek_crypto::keys::sk::account&#45;&gt;fleek_crypto::keys::pk -->
<g id="edge30" class="edge">
<title>fleek_crypto::keys::sk::account&#45;&gt;fleek_crypto::keys::pk</title>
<path fill="none" stroke="#7f7f7f" stroke-dasharray="5,2" d="M776.66,-466.55C728.67,-499.72 630.16,-567.81 576.82,-604.67"/>
<polygon fill="#7f7f7f" stroke="#7f7f7f" points="574.59,-601.96 568.35,-610.52 578.57,-607.72 574.59,-601.96"/>
<text text-anchor="middle" x="664.24" y="-538.61" font-family="monospace" font-size="10.00">uses</text>
</g>
<!-- fleek_crypto::keys::sk::account&#45;&gt;fleek_crypto::traits -->
<g id="edge31" class="edge">
<title>fleek_crypto::keys::sk::account&#45;&gt;fleek_crypto::traits</title>
<path fill="none" stroke="#7f7f7f" stroke-dasharray="5,2" d="M715.01,-428.34C635.46,-411.39 520.22,-386.84 444.07,-370.62"/>
<polygon fill="#7f7f7f" stroke="#7f7f7f" points="444.57,-367.15 434.06,-368.49 443.11,-373.99 444.57,-367.15"/>
<text text-anchor="middle" x="567.04" y="-402.48" font-family="monospace" font-size="10.00">uses</text>
</g>
<!-- pem_rfc7468 -->
<g id="node13" class="node">
<title>pem_rfc7468</title>
<polygon fill="#5397c8" stroke="black" points="890.1,-181.07 890.1,-219.07 991.1,-219.07 991.1,-181.07 890.1,-181.07"/>
<text text-anchor="middle" x="940.6" y="-207.07" font-family="monospace" font-size="10.00">external crate</text>
<polyline fill="none" stroke="black" points="890.1,-200.07 991.1,-200.07 "/>
<text text-anchor="middle" x="940.6" y="-188.07" font-family="monospace" font-size="10.00">pem_rfc7468</text>
</g>
<!-- fleek_crypto::keys::sk::account&#45;&gt;pem_rfc7468 -->
<g id="edge32" class="edge">
<title>fleek_crypto::keys::sk::account&#45;&gt;pem_rfc7468</title>
<path fill="none" stroke="#7f7f7f" stroke-dasharray="5,2" d="M815.08,-427.98C839.05,-384.46 897.18,-278.91 925.11,-228.19"/>
<polygon fill="#7f7f7f" stroke="#7f7f7f" points="928.2,-229.83 929.96,-219.39 922.07,-226.46 928.2,-229.83"/>
<text text-anchor="middle" x="857.6" y="-331.09" font-family="monospace" font-size="10.00">uses</text>
</g>
<!-- fleek_crypto::keys::sk::consensus&#45;&gt;fleek_crypto::keys::pk -->
<g id="edge33" class="edge">
<title>fleek_crypto::keys::sk::consensus&#45;&gt;fleek_crypto::keys::pk</title>
<path fill="none" stroke="#7f7f7f" stroke-dasharray="5,2" d="M476.59,-135.27C486.69,-213.31 524.71,-507.02 536.85,-600.76"/>
<polygon fill="#7f7f7f" stroke="#7f7f7f" points="533.38,-601.22 538.13,-610.69 540.32,-600.32 533.38,-601.22"/>
<text text-anchor="middle" x="494.22" y="-371.02" font-family="monospace" font-size="10.00">uses</text>
</g>
<!-- fleek_crypto::keys::sk::consensus&#45;&gt;fleek_crypto::traits -->
<g id="edge34" class="edge">
<title>fleek_crypto::keys::sk::consensus&#45;&gt;fleek_crypto::traits</title>
<path fill="none" stroke="#7f7f7f" stroke-dasharray="5,2" d="M465.38,-135.13C446.28,-176.87 400.68,-276.54 378.23,-325.59"/>
<polygon fill="#7f7f7f" stroke="#7f7f7f" points="375.05,-324.14 374.07,-334.69 381.41,-327.06 375.05,-324.14"/>
<text text-anchor="middle" x="409.31" y="-233.36" font-family="monospace" font-size="10.00">uses</text>
</g>
<!-- fleek_crypto::keys::sk::consensus&#45;&gt;pem_rfc7468 -->
<g id="edge35" class="edge">
<title>fleek_crypto::keys::sk::consensus&#45;&gt;pem_rfc7468</title>
<path fill="none" stroke="#7f7f7f" stroke-dasharray="5,2" d="M579.67,-135.08C672.4,-151.78 804.04,-175.48 880.05,-189.17"/>
<polygon fill="#7f7f7f" stroke="#7f7f7f" points="879.49,-192.62 889.95,-190.95 880.73,-185.73 879.49,-192.62"/>
<text text-anchor="middle" x="717.36" y="-165.13" font-family="monospace" font-size="10.00">uses</text>
</g>
<!-- fleek_crypto::keys::sk::node&#45;&gt;fleek_crypto::keys::pk -->
<g id="edge36" class="edge">
<title>fleek_crypto::keys::sk::node&#45;&gt;fleek_crypto::keys::pk</title>
<path fill="none" stroke="#7f7f7f" stroke-dasharray="5,2" d="M687,-233.42C662.4,-300.01 580.66,-521.27 551.25,-600.87"/>
<polygon fill="#7f7f7f" stroke="#7f7f7f" points="547.8,-600.11 547.61,-610.71 554.36,-602.54 547.8,-600.11"/>
<text text-anchor="middle" x="606.63" y="-420.14" font-family="monospace" font-size="10.00">uses</text>
</g>
<!-- fleek_crypto::keys::sk::node&#45;&gt;fleek_crypto::traits -->
<g id="edge37" class="edge">
<title>fleek_crypto::keys::sk::node&#45;&gt;fleek_crypto::traits</title>
<path fill="none" stroke="#7f7f7f" stroke-dasharray="5,2" d="M649.07,-233.33C589.27,-258.73 483.73,-303.55 419.59,-330.79"/>
<polygon fill="#7f7f7f" stroke="#7f7f7f" points="417.89,-327.71 410.05,-334.84 420.63,-334.15 417.89,-327.71"/>
<text text-anchor="middle" x="521.83" y="-285.06" font-family="monospace" font-size="10.00">uses</text>
</g>
<!-- fleek_crypto::keys::sk::node&#45;&gt;pem_rfc7468 -->
<g id="edge38" class="edge">
<title>fleek_crypto::keys::sk::node&#45;&gt;pem_rfc7468</title>
<path fill="none" stroke="#7f7f7f" stroke-dasharray="5,2" d="M786.94,-208.88C818.06,-207.1 851.93,-205.16 879.94,-203.55"/>
<polygon fill="#7f7f7f" stroke="#7f7f7f" points="880.19,-207.04 889.97,-202.97 879.79,-200.05 880.19,-207.04"/>
<text text-anchor="middle" x="820.94" y="-209.22" font-family="monospace" font-size="10.00">uses</text>
</g>
<!-- fleek_crypto::transaction&#45;&gt;fleek_crypto::address -->
<g id="edge39" class="edge">
<title>fleek_crypto::transaction&#45;&gt;fleek_crypto::address</title>
<path fill="none" stroke="#7f7f7f" stroke-dasharray="5,2" d="M249.34,-720.99C301.97,-744.8 392.13,-785.61 448.89,-811.3"/>
<polygon fill="#7f7f7f" stroke="#7f7f7f" points="447.49,-814.51 458.05,-815.44 450.38,-808.13 447.49,-814.51"/>
<text text-anchor="middle" x="336.61" y="-769.14" font-family="monospace" font-size="10.00">uses</text>
</g>
<!-- fleek_crypto::transaction&#45;&gt;fleek_crypto::keys::pk -->
<g id="edge40" class="edge">
<title>fleek_crypto::transaction&#45;&gt;fleek_crypto::keys::pk</title>
<path fill="none" stroke="#7f7f7f" stroke-dasharray="5,2" d="M291.01,-683.84C341.44,-672.9 405.48,-659.01 456.06,-648.04"/>
<polygon fill="#7f7f7f" stroke="#7f7f7f" points="456.96,-651.43 465.99,-645.89 455.48,-644.59 456.96,-651.43"/>
<text text-anchor="middle" x="361.04" y="-668.94" font-family="monospace" font-size="10.00">uses</text>
</g>
<!-- fleek_crypto::transaction&#45;&gt;fleek_crypto::traits -->
<g id="edge41" class="edge">
<title>fleek_crypto::transaction&#45;&gt;fleek_crypto::traits</title>
<path fill="none" stroke="#7f7f7f" stroke-dasharray="5,2" d="M216.06,-682.77C242.39,-624.75 321.16,-451.14 352.37,-382.36"/>
<polygon fill="#7f7f7f" stroke="#7f7f7f" points="355.67,-383.55 356.62,-372.99 349.3,-380.66 355.67,-383.55"/>
<text text-anchor="middle" x="271.72" y="-535.56" font-family="monospace" font-size="10.00">uses</text>
</g>
</g>
</svg>
