<?xml version="1.0" encoding="UTF-8" standalone="no"?>
<!DOCTYPE svg PUBLIC "-//W3C//DTD SVG 1.1//EN"
 "http://www.w3.org/Graphics/SVG/1.1/DTD/svg11.dtd">
<!-- Generated by graphviz version 4.0.0 (0)
 -->
<!-- Pages: 1 -->
<svg width="528pt" height="405pt"
 viewBox="0.00 0.00 527.60 404.60" xmlns="http://www.w3.org/2000/svg" xmlns:xlink="http://www.w3.org/1999/xlink">
<g id="graph0" class="graph" transform="scale(1 1) rotate(0) translate(36.8 375.8)">
<polygon fill="white" stroke="transparent" points="-36.8,28.8 -36.8,-375.8 490.8,-375.8 490.8,28.8 -36.8,28.8"/>
<text text-anchor="middle" x="227" y="-314.2" font-family="Helvetica,sans-Serif" font-size="36.00">lightning_origin_demuxer</text>
<!-- fdi -->
<g id="node1" class="node">
<title>fdi</title>
<polygon fill="#5397c8" stroke="black" points="7.26,-47.74 7.26,-85.74 108.26,-85.74 108.26,-47.74 7.26,-47.74"/>
<text text-anchor="middle" x="57.76" y="-73.74" font-family="monospace" font-size="10.00">external crate</text>
<polyline fill="none" stroke="black" points="7.26,-66.74 108.26,-66.74 "/>
<text text-anchor="middle" x="57.76" y="-54.74" font-family="monospace" font-size="10.00">fdi</text>
</g>
<!-- lightning_origin_demuxer -->
<g id="node2" class="node">
<title>lightning_origin_demuxer</title>
<polygon fill="#5397c8" stroke="black" points="155.69,-114.1 155.69,-152.1 316.69,-152.1 316.69,-114.1 155.69,-114.1"/>
<text text-anchor="middle" x="236.19" y="-140.1" font-family="monospace" font-size="10.00">crate</text>
<polyline fill="none" stroke="black" points="155.69,-133.1 316.69,-133.1 "/>
<text text-anchor="middle" x="236.19" y="-121.1" font-family="monospace" font-size="10.00">lightning_origin_demuxer</text>
</g>
<!-- lightning_origin_demuxer&#45;&gt;fdi -->
<g id="edge1" class="edge">
<title>lightning_origin_demuxer&#45;&gt;fdi</title>
<path fill="none" stroke="#7f7f7f" stroke-dasharray="5,2" d="M185.06,-114.08C164.07,-106.28 139.62,-97.18 117.79,-89.06"/>
<polygon fill="#7f7f7f" stroke="#7f7f7f" points="118.88,-85.74 108.28,-85.53 116.44,-92.3 118.88,-85.74"/>
<text text-anchor="middle" x="138.92" y="-104.57" font-family="monospace" font-size="10.00">uses</text>
</g>
<!-- lightning_origin_demuxer::config -->
<g id="node3" class="node">
<title>lightning_origin_demuxer::config</title>
<polygon fill="#f8c04c" stroke="black" points="90.85,-0.74 90.85,-38.74 299.85,-38.74 299.85,-0.74 90.85,-0.74"/>
<text text-anchor="middle" x="195.35" y="-26.74" font-family="monospace" font-size="10.00">pub(crate) mod</text>
<polyline fill="none" stroke="black" points="90.85,-19.74 299.85,-19.74 "/>
<text text-anchor="middle" x="195.35" y="-7.74" font-family="monospace" font-size="10.00">lightning_origin_demuxer::config</text>
</g>
<!-- lightning_origin_demuxer&#45;&gt;lightning_origin_demuxer::config -->
<g id="edge2" class="edge">
<title>lightning_origin_demuxer&#45;&gt;lightning_origin_demuxer::config</title>
<path fill="none" stroke="#000000" d="M248.42,-114C250.88,-95.6 243.63,-68.2 232.35,-47.52"/>
<polygon fill="#000000" stroke="#000000" points="235.27,-45.57 227.1,-38.83 229.28,-49.19 235.27,-45.57"/>
<text text-anchor="middle" x="227.89" y="-83.76" font-family="monospace" font-size="10.00">owns</text>
</g>
<!-- lightning_origin_demuxer&#45;&gt;lightning_origin_demuxer::config -->
<g id="edge3" class="edge">
<title>lightning_origin_demuxer&#45;&gt;lightning_origin_demuxer::config</title>
<path fill="none" stroke="#7f7f7f" stroke-dasharray="5,2" d="M204.36,-113.89C192.31,-95.92 183.32,-69.36 182.68,-48.85"/>
<polygon fill="#7f7f7f" stroke="#7f7f7f" points="186.18,-48.9 183.13,-38.76 179.19,-48.59 186.18,-48.9"/>
<text text-anchor="middle" x="181.02" y="-84.37" font-family="monospace" font-size="10.00">uses</text>
</g>
<!-- lightning_origin_demuxer::demuxer -->
<g id="node4" class="node">
<title>lightning_origin_demuxer::demuxer</title>
<polygon fill="#f8c04c" stroke="black" points="23.8,-173.14 23.8,-211.14 238.8,-211.14 238.8,-173.14 23.8,-173.14"/>
<text text-anchor="middle" x="131.3" y="-199.14" font-family="monospace" font-size="10.00">pub(crate) mod</text>
<polyline fill="none" stroke="black" points="23.8,-192.14 238.8,-192.14 "/>
<text text-anchor="middle" x="131.3" y="-180.14" font-family="monospace" font-size="10.00">lightning_origin_demuxer::demuxer</text>
</g>
<!-- lightning_origin_demuxer&#45;&gt;lightning_origin_demuxer::demuxer -->
<g id="edge4" class="edge">
<title>lightning_origin_demuxer&#45;&gt;lightning_origin_demuxer::demuxer</title>
<path fill="none" stroke="#000000" d="M155.56,-148.73C148.83,-153.7 142.9,-159.07 138.38,-164.5"/>
<polygon fill="#000000" stroke="#000000" points="135.3,-162.8 132.54,-173.03 141.08,-166.76 135.3,-162.8"/>
<text text-anchor="middle" x="134.47" y="-159.61" font-family="monospace" font-size="10.00">owns</text>
</g>
<!-- lightning_origin_demuxer&#45;&gt;lightning_origin_demuxer::demuxer -->
<g id="edge5" class="edge">
<title>lightning_origin_demuxer&#45;&gt;lightning_origin_demuxer::demuxer</title>
<path fill="none" stroke="#7f7f7f" stroke-dasharray="5,2" d="M234.83,-152.44C232.41,-156.92 228.79,-161.49 224.34,-165.94"/>
<polygon fill="#7f7f7f" stroke="#7f7f7f" points="221.8,-163.52 216.7,-172.81 226.48,-168.72 221.8,-163.52"/>
<text text-anchor="middle" x="217.08" y="-162.19" font-family="monospace" font-size="10.00">uses</text>
</g>
<!-- lightning_schema -->
<g id="node5" class="node">
<title>lightning_schema</title>
<polygon fill="#5397c8" stroke="black" points="333.95,-53.61 333.95,-91.61 446.95,-91.61 446.95,-53.61 333.95,-53.61"/>
<text text-anchor="middle" x="390.45" y="-79.61" font-family="monospace" font-size="10.00">external crate</text>
<polyline fill="none" stroke="black" points="333.95,-72.61 446.95,-72.61 "/>
<text text-anchor="middle" x="390.45" y="-60.61" font-family="monospace" font-size="10.00">lightning_schema</text>
</g>
<!-- lightning_origin_demuxer&#45;&gt;lightning_schema -->
<g id="edge6" class="edge">
<title>lightning_origin_demuxer&#45;&gt;lightning_schema</title>
<path fill="none" stroke="#7f7f7f" stroke-dasharray="5,2" d="M285,-113.96C300.06,-108.05 316.79,-101.49 332.4,-95.37"/>
<polygon fill="#7f7f7f" stroke="#7f7f7f" points="333.93,-98.53 341.96,-91.62 331.37,-92.02 333.93,-98.53"/>
<text text-anchor="middle" x="296.2" y="-96.66" font-family="monospace" font-size="10.00">uses</text>
</g>
<!-- lightning_types -->
<g id="node6" class="node">
<title>lightning_types</title>
<polygon fill="#5397c8" stroke="black" points="260.51,-260.56 260.51,-298.56 367.51,-298.56 367.51,-260.56 260.51,-260.56"/>
<text text-anchor="middle" x="314.01" y="-286.56" font-family="monospace" font-size="10.00">external crate</text>
<polyline fill="none" stroke="black" points="260.51,-279.56 367.51,-279.56 "/>
<text text-anchor="middle" x="314.01" y="-267.56" font-family="monospace" font-size="10.00">lightning_types</text>
</g>
<!-- lightning_origin_demuxer&#45;&gt;lightning_types -->
<g id="edge7" class="edge">
<title>lightning_origin_demuxer&#45;&gt;lightning_types</title>
<path fill="none" stroke="#7f7f7f" stroke-dasharray="5,2" d="M246.37,-152.24C259.82,-177.57 283.64,-222.4 299.13,-251.54"/>
<polygon fill="#7f7f7f" stroke="#7f7f7f" points="296.05,-253.22 303.84,-260.41 302.23,-249.93 296.05,-253.22"/>
<text text-anchor="middle" x="260.25" y="-204.89" font-family="monospace" font-size="10.00">uses</text>
</g>
<!-- lightning_origin_demuxer::demuxer&#45;&gt;lightning_origin_demuxer::config -->
<g id="edge8" class="edge">
<title>lightning_origin_demuxer::demuxer&#45;&gt;lightning_origin_demuxer::config</title>
<path fill="none" stroke="#7f7f7f" stroke-dasharray="5,2" d="M138.4,-173.03C149.6,-142.87 171.46,-84.03 184.6,-48.67"/>
<polygon fill="#7f7f7f" stroke="#7f7f7f" points="188.01,-49.52 188.22,-38.93 181.45,-47.09 188.01,-49.52"/>
<text text-anchor="middle" x="174" y="-102.85" font-family="monospace" font-size="10.00">uses</text>
</g>
</g>
</svg>
