<?xml version="1.0" encoding="UTF-8" standalone="no"?>
<!DOCTYPE svg PUBLIC "-//W3C//DTD SVG 1.1//EN"
 "http://www.w3.org/Graphics/SVG/1.1/DTD/svg11.dtd">
<!-- Generated by graphviz version 4.0.0 (0)
 -->
<!-- Pages: 1 -->
<svg width="723pt" height="436pt"
 viewBox="0.00 0.00 722.79 436.35" xmlns="http://www.w3.org/2000/svg" xmlns:xlink="http://www.w3.org/1999/xlink">
<g id="graph0" class="graph" transform="scale(1 1) rotate(0) translate(28.8 407.55)">
<polygon fill="white" stroke="transparent" points="-28.8,28.8 -28.8,-407.55 693.99,-407.55 693.99,28.8 -28.8,28.8"/>
<text text-anchor="middle" x="332.6" y="-345.95" font-family="Helvetica,sans-Serif" font-size="36.00">lightning_fetcher</text>
<!-- lightning_fetcher -->
<g id="node1" class="node">
<title>lightning_fetcher</title>
<polygon fill="#5397c8" stroke="black" points="375.29,-282.08 375.29,-320.08 494.29,-320.08 494.29,-282.08 375.29,-282.08"/>
<text text-anchor="middle" x="434.79" y="-308.08" font-family="monospace" font-size="10.00">crate</text>
<polyline fill="none" stroke="black" points="375.29,-301.08 494.29,-301.08 "/>
<text text-anchor="middle" x="434.79" y="-289.08" font-family="monospace" font-size="10.00">lightning_fetcher</text>
</g>
<!-- lightning_fetcher::config -->
<g id="node2" class="node">
<title>lightning_fetcher::config</title>
<polygon fill="#81c169" stroke="black" points="498.19,-234.72 498.19,-272.72 665.19,-272.72 665.19,-234.72 498.19,-234.72"/>
<text text-anchor="middle" x="581.69" y="-260.72" font-family="monospace" font-size="10.00">pub mod</text>
<polyline fill="none" stroke="black" points="498.19,-253.72 665.19,-253.72 "/>
<text text-anchor="middle" x="581.69" y="-241.72" font-family="monospace" font-size="10.00">lightning_fetcher::config</text>
</g>
<!-- lightning_fetcher&#45;&gt;lightning_fetcher::config -->
<g id="edge1" class="edge">
<title>lightning_fetcher&#45;&gt;lightning_fetcher::config</title>
<path fill="none" stroke="#000000" d="M494.12,-281.95C500.29,-279.97 506.59,-277.93 512.85,-275.92"/>
<polygon fill="#000000" stroke="#000000" points="514.18,-279.17 522.62,-272.77 512.03,-272.5 514.18,-279.17"/>
<text text-anchor="middle" x="515.99" y="-281.93" font-family="monospace" font-size="10.00">owns</text>
</g>
<!-- lightning_fetcher::fetcher -->
<g id="node3" class="node">
<title>lightning_fetcher::fetcher</title>
<polygon fill="#81c169" stroke="black" points="322.84,-136.76 322.84,-174.76 495.84,-174.76 495.84,-136.76 322.84,-136.76"/>
<text text-anchor="middle" x="409.34" y="-162.76" font-family="monospace" font-size="10.00">pub mod</text>
<polyline fill="none" stroke="black" points="322.84,-155.76 495.84,-155.76 "/>
<text text-anchor="middle" x="409.34" y="-143.76" font-family="monospace" font-size="10.00">lightning_fetcher::fetcher</text>
</g>
<!-- lightning_fetcher&#45;&gt;lightning_fetcher::fetcher -->
<g id="edge2" class="edge">
<title>lightning_fetcher&#45;&gt;lightning_fetcher::fetcher</title>
<path fill="none" stroke="#000000" d="M431.41,-281.78C427.08,-257.03 419.52,-213.86 414.47,-185.04"/>
<polygon fill="#000000" stroke="#000000" points="417.91,-184.39 412.74,-175.14 411.01,-185.59 417.91,-184.39"/>
<text text-anchor="middle" x="410.44" y="-236.41" font-family="monospace" font-size="10.00">owns</text>
</g>
<!-- lightning_fetcher::origin -->
<g id="node4" class="node">
<title>lightning_fetcher::origin</title>
<polygon fill="#f8c04c" stroke="black" points="181.28,-183.77 181.28,-221.77 348.28,-221.77 348.28,-183.77 181.28,-183.77"/>
<text text-anchor="middle" x="264.78" y="-209.77" font-family="monospace" font-size="10.00">pub(crate) mod</text>
<polyline fill="none" stroke="black" points="181.28,-202.77 348.28,-202.77 "/>
<text text-anchor="middle" x="264.78" y="-190.77" font-family="monospace" font-size="10.00">lightning_fetcher::origin</text>
</g>
<!-- lightning_fetcher&#45;&gt;lightning_fetcher::origin -->
<g id="edge3" class="edge">
<title>lightning_fetcher&#45;&gt;lightning_fetcher::origin</title>
<path fill="none" stroke="#000000" d="M401.61,-281.89C374.46,-266.19 335.91,-243.9 306.64,-226.97"/>
<polygon fill="#000000" stroke="#000000" points="308.29,-223.88 297.88,-221.91 304.79,-229.94 308.29,-223.88"/>
<text text-anchor="middle" x="341.63" y="-257.43" font-family="monospace" font-size="10.00">owns</text>
</g>
<!-- lightning_fetcher::fetcher&#45;&gt;lightning_fetcher::config -->
<g id="edge4" class="edge">
<title>lightning_fetcher::fetcher&#45;&gt;lightning_fetcher::config</title>
<path fill="none" stroke="#7f7f7f" stroke-dasharray="5,2" d="M442.98,-174.88C470.5,-190.53 509.59,-212.74 539.26,-229.6"/>
<polygon fill="#7f7f7f" stroke="#7f7f7f" points="537.72,-232.75 548.14,-234.65 541.18,-226.67 537.72,-232.75"/>
<text text-anchor="middle" x="478.62" y="-205.24" font-family="monospace" font-size="10.00">uses</text>
</g>
<!-- lightning_fetcher::fetcher&#45;&gt;lightning_fetcher::origin -->
<g id="edge5" class="edge">
<title>lightning_fetcher::fetcher&#45;&gt;lightning_fetcher::origin</title>
<path fill="none" stroke="#7f7f7f" stroke-dasharray="5,2" d="M322.82,-155.59C306.37,-161.42 290.93,-168.92 280.03,-176.95"/>
<polygon fill="#7f7f7f" stroke="#7f7f7f" points="277.68,-174.35 272.32,-183.49 282.21,-179.69 277.68,-174.35"/>
<text text-anchor="middle" x="288.92" y="-169.27" font-family="monospace" font-size="10.00">uses</text>
</g>
<!-- tokio::sync::mpsc -->
<g id="node6" class="node">
<title>tokio::sync::mpsc</title>
<polygon fill="#81c169" stroke="black" points="165.68,-46.76 165.68,-84.76 284.68,-84.76 284.68,-46.76 165.68,-46.76"/>
<text text-anchor="middle" x="225.18" y="-72.76" font-family="monospace" font-size="10.00">external mod</text>
<polyline fill="none" stroke="black" points="165.68,-65.76 284.68,-65.76 "/>
<text text-anchor="middle" x="225.18" y="-53.76" font-family="monospace" font-size="10.00">tokio::sync::mpsc</text>
</g>
<!-- lightning_fetcher::fetcher&#45;&gt;tokio::sync::mpsc -->
<g id="edge6" class="edge">
<title>lightning_fetcher::fetcher&#45;&gt;tokio::sync::mpsc</title>
<path fill="none" stroke="#7f7f7f" stroke-dasharray="5,2" d="M370.29,-136.67C341.96,-122.83 303.49,-104.03 273.27,-89.26"/>
<polygon fill="#7f7f7f" stroke="#7f7f7f" points="274.7,-86.06 264.18,-84.82 271.63,-92.35 274.7,-86.06"/>
<text text-anchor="middle" x="309.28" y="-104.97" font-family="monospace" font-size="10.00">uses</text>
</g>
<!-- tokio::sync::oneshot -->
<g id="node7" class="node">
<title>tokio::sync::oneshot</title>
<polygon fill="#81c169" stroke="black" points="298.52,-0.5 298.52,-38.5 435.52,-38.5 435.52,-0.5 298.52,-0.5"/>
<text text-anchor="middle" x="367.02" y="-26.5" font-family="monospace" font-size="10.00">external mod</text>
<polyline fill="none" stroke="black" points="298.52,-19.5 435.52,-19.5 "/>
<text text-anchor="middle" x="367.02" y="-7.5" font-family="monospace" font-size="10.00">tokio::sync::oneshot</text>
</g>
<!-- lightning_fetcher::fetcher&#45;&gt;tokio::sync::oneshot -->
<g id="edge7" class="edge">
<title>lightning_fetcher::fetcher&#45;&gt;tokio::sync::oneshot</title>
<path fill="none" stroke="#7f7f7f" stroke-dasharray="5,2" d="M403.37,-136.53C396.25,-113.6 384.28,-75.06 376.03,-48.51"/>
<polygon fill="#7f7f7f" stroke="#7f7f7f" points="379.27,-47.15 372.96,-38.64 372.58,-49.22 379.27,-47.15"/>
<text text-anchor="middle" x="377.2" y="-95.52" font-family="monospace" font-size="10.00">uses</text>
</g>
<!-- lightning_fetcher::origin&#45;&gt;lightning_fetcher::fetcher -->
<g id="edge8" class="edge">
<title>lightning_fetcher::origin&#45;&gt;lightning_fetcher::fetcher</title>
<path fill="none" stroke="#7f7f7f" stroke-dasharray="5,2" d="M348.37,-203.96C366.01,-197.97 382.74,-190 394.3,-181.43"/>
<polygon fill="#7f7f7f" stroke="#7f7f7f" points="396.74,-183.95 402.06,-174.79 392.19,-178.63 396.74,-183.95"/>
<text text-anchor="middle" x="383.83" y="-195.7" font-family="monospace" font-size="10.00">uses</text>
</g>
<!-- tokio::sync::broadcast -->
<g id="node5" class="node">
<title>tokio::sync::broadcast</title>
<polygon fill="#81c169" stroke="black" points="0,-292.25 0,-330.25 149,-330.25 149,-292.25 0,-292.25"/>
<text text-anchor="middle" x="74.5" y="-318.25" font-family="monospace" font-size="10.00">external mod</text>
<polyline fill="none" stroke="black" points="0,-311.25 149,-311.25 "/>
<text text-anchor="middle" x="74.5" y="-299.25" font-family="monospace" font-size="10.00">tokio::sync::broadcast</text>
</g>
<!-- lightning_fetcher::origin&#45;&gt;tokio::sync::broadcast -->
<g id="edge9" class="edge">
<title>lightning_fetcher::origin&#45;&gt;tokio::sync::broadcast</title>
<path fill="none" stroke="#7f7f7f" stroke-dasharray="5,2" d="M231.2,-221.91C199.37,-240.06 151.43,-267.39 116.96,-287.04"/>
<polygon fill="#7f7f7f" stroke="#7f7f7f" points="115.02,-284.12 108.06,-292.11 118.49,-290.2 115.02,-284.12"/>
<text text-anchor="middle" x="161.58" y="-257.48" font-family="monospace" font-size="10.00">uses</text>
</g>
<!-- lightning_fetcher::origin&#45;&gt;tokio::sync::mpsc -->
<g id="edge10" class="edge">
<title>lightning_fetcher::origin&#45;&gt;tokio::sync::mpsc</title>
<path fill="none" stroke="#7f7f7f" stroke-dasharray="5,2" d="M259.28,-183.72C252.61,-160.64 241.3,-121.52 233.55,-94.7"/>
<polygon fill="#7f7f7f" stroke="#7f7f7f" points="236.91,-93.72 230.77,-85.09 230.18,-95.67 236.91,-93.72"/>
<text text-anchor="middle" x="233.91" y="-142.21" font-family="monospace" font-size="10.00">uses</text>
</g>
<!-- lightning_fetcher::origin&#45;&gt;tokio::sync::oneshot -->
<g id="edge11" class="edge">
<title>lightning_fetcher::origin&#45;&gt;tokio::sync::oneshot</title>
<path fill="none" stroke="#7f7f7f" stroke-dasharray="5,2" d="M275.53,-183.5C293.68,-150.97 330.47,-85.02 351.44,-47.42"/>
<polygon fill="#7f7f7f" stroke="#7f7f7f" points="354.6,-48.95 356.41,-38.51 348.48,-45.54 354.6,-48.95"/>
<text text-anchor="middle" x="300.99" y="-118.46" font-family="monospace" font-size="10.00">uses</text>
</g>
</g>
</svg>
