<?xml version="1.0" encoding="UTF-8" standalone="no"?>
<!DOCTYPE svg PUBLIC "-//W3C//DTD SVG 1.1//EN"
 "http://www.w3.org/Graphics/SVG/1.1/DTD/svg11.dtd">
<!-- Generated by graphviz version 4.0.0 (0)
 -->
<!-- Pages: 1 -->
<svg width="1645pt" height="938pt"
 viewBox="0.00 0.00 1644.98 938.42" xmlns="http://www.w3.org/2000/svg" xmlns:xlink="http://www.w3.org/1999/xlink">
<g id="graph0" class="graph" transform="scale(1 1) rotate(0) translate(28.8 909.62)">
<polygon fill="white" stroke="transparent" points="-28.8,28.8 -28.8,-909.62 1616.18,-909.62 1616.18,28.8 -28.8,28.8"/>
<text text-anchor="middle" x="793.69" y="-848.02" font-family="Helvetica,sans-Serif" font-size="36.00">lightning_fetcher</text>
<!-- lightning_fetcher -->
<g id="node1" class="node">
<title>lightning_fetcher</title>
<polygon fill="#5397c8" stroke="black" points="589.57,-520.86 589.57,-558.86 708.57,-558.86 708.57,-520.86 589.57,-520.86"/>
<text text-anchor="middle" x="649.07" y="-546.86" font-family="monospace" font-size="10.00">crate</text>
<polyline fill="none" stroke="black" points="589.57,-539.86 708.57,-539.86 "/>
<text text-anchor="middle" x="649.07" y="-527.86" font-family="monospace" font-size="10.00">lightning_fetcher</text>
</g>
<!-- lightning_fetcher::config::Config -->
<g id="node2" class="node">
<title>lightning_fetcher::config::Config</title>
<polygon fill="#81c169" stroke="black" points="779.99,-327 779.99,-365 880.99,-365 880.99,-327 779.99,-327"/>
<text text-anchor="middle" x="830.49" y="-353" font-family="monospace" font-size="10.00">pub struct</text>
<polyline fill="none" stroke="black" points="779.99,-346 880.99,-346 "/>
<text text-anchor="middle" x="830.49" y="-334" font-family="monospace" font-size="10.00">config::Config</text>
</g>
<!-- lightning_fetcher&#45;&gt;lightning_fetcher::config::Config -->
<g id="edge1" class="edge">
<title>lightning_fetcher&#45;&gt;lightning_fetcher::config::Config</title>
<path fill="none" stroke="#000000" d="M696.05,-520.48C741.85,-485.16 805.48,-414.77 826.24,-374.2"/>
<polygon fill="#000000" stroke="#000000" points="829.45,-375.6 830.38,-365.05 823.07,-372.72 829.45,-375.6"/>
<text text-anchor="middle" x="748.65" y="-450.34" font-family="monospace" font-size="10.00">owns</text>
</g>
<!-- lightning_fetcher&#45;&gt;lightning_fetcher::config::Config -->
<g id="edge2" class="edge">
<title>lightning_fetcher&#45;&gt;lightning_fetcher::config::Config</title>
<path fill="none" stroke="#7f7f7f" stroke-dasharray="5,2" d="M649.29,-520.52C663.34,-484.19 727.02,-411.52 775.65,-371.63"/>
<polygon fill="#7f7f7f" stroke="#7f7f7f" points="777.97,-374.25 783.62,-365.29 773.61,-368.78 777.97,-374.25"/>
<text text-anchor="middle" x="699.97" y="-449.07" font-family="monospace" font-size="10.00">uses</text>
</g>
<!-- lightning_fetcher::fetcher::Fetcher -->
<g id="node3" class="node">
<title>lightning_fetcher::fetcher::Fetcher</title>
<polygon fill="#81c169" stroke="black" points="1129.48,-432.72 1129.48,-470.72 1242.48,-470.72 1242.48,-432.72 1129.48,-432.72"/>
<text text-anchor="middle" x="1185.98" y="-458.72" font-family="monospace" font-size="10.00">pub struct</text>
<polyline fill="none" stroke="black" points="1129.48,-451.72 1242.48,-451.72 "/>
<text text-anchor="middle" x="1185.98" y="-439.72" font-family="monospace" font-size="10.00">fetcher::Fetcher</text>
</g>
<!-- lightning_fetcher&#45;&gt;lightning_fetcher::fetcher::Fetcher -->
<g id="edge3" class="edge">
<title>lightning_fetcher&#45;&gt;lightning_fetcher::fetcher::Fetcher</title>
<path fill="none" stroke="#000000" d="M708.58,-530.09C809.61,-513.5 1013.99,-479.95 1119.55,-462.62"/>
<polygon fill="#000000" stroke="#000000" points="1120.14,-466.07 1129.44,-461 1119.01,-459.16 1120.14,-466.07"/>
<text text-anchor="middle" x="901.56" y="-499.36" font-family="monospace" font-size="10.00">owns</text>
</g>
<!-- lightning_fetcher::fetcher::FetcherInner -->
<g id="node10" class="node">
<title>lightning_fetcher::fetcher::FetcherInner</title>
<polygon fill="#db5367" stroke="black" points="561.4,-194.42 561.4,-232.42 704.4,-232.42 704.4,-194.42 561.4,-194.42"/>
<text text-anchor="middle" x="632.9" y="-220.42" font-family="monospace" font-size="10.00">pub(self) struct</text>
<polyline fill="none" stroke="black" points="561.4,-213.42 704.4,-213.42 "/>
<text text-anchor="middle" x="632.9" y="-201.42" font-family="monospace" font-size="10.00">fetcher::FetcherInner</text>
</g>
<!-- lightning_fetcher&#45;&gt;lightning_fetcher::fetcher::FetcherInner -->
<g id="edge4" class="edge">
<title>lightning_fetcher&#45;&gt;lightning_fetcher::fetcher::FetcherInner</title>
<path fill="none" stroke="#000000" d="M648.1,-520.41C645.38,-465.42 637.61,-308.47 634.35,-242.84"/>
<polygon fill="#000000" stroke="#000000" points="637.85,-242.57 633.85,-232.76 630.85,-242.92 637.85,-242.57"/>
<text text-anchor="middle" x="628.73" y="-384.63" font-family="monospace" font-size="10.00">owns</text>
</g>
<!-- lightning_fetcher::fetcher::Uri -->
<g id="node15" class="node">
<title>lightning_fetcher::fetcher::Uri</title>
<polygon fill="#f8c04c" stroke="black" points="742.02,-794.32 742.02,-832.32 849.02,-832.32 849.02,-794.32 742.02,-794.32"/>
<text text-anchor="middle" x="795.52" y="-820.32" font-family="monospace" font-size="10.00">pub(crate) type</text>
<polyline fill="none" stroke="black" points="742.02,-813.32 849.02,-813.32 "/>
<text text-anchor="middle" x="795.52" y="-801.32" font-family="monospace" font-size="10.00">fetcher::Uri</text>
</g>
<!-- lightning_fetcher&#45;&gt;lightning_fetcher::fetcher::Uri -->
<g id="edge5" class="edge">
<title>lightning_fetcher&#45;&gt;lightning_fetcher::fetcher::Uri</title>
<path fill="none" stroke="#000000" d="M645.17,-558.92C651.84,-607.19 715.48,-730.66 759.47,-786.23"/>
<polygon fill="#000000" stroke="#000000" points="757.02,-788.75 766.08,-794.23 762.41,-784.29 757.02,-788.75"/>
<text text-anchor="middle" x="689.82" y="-675.57" font-family="monospace" font-size="10.00">owns</text>
</g>
<!-- lightning_fetcher&#45;&gt;lightning_fetcher::fetcher::Uri -->
<g id="edge6" class="edge">
<title>lightning_fetcher&#45;&gt;lightning_fetcher::fetcher::Uri</title>
<path fill="none" stroke="#7f7f7f" stroke-dasharray="5,2" d="M678.61,-559.06C719.82,-606.73 783.9,-727.38 797.43,-783.97"/>
<polygon fill="#7f7f7f" stroke="#7f7f7f" points="794.05,-784.93 799.4,-794.08 800.92,-783.6 794.05,-784.93"/>
<text text-anchor="middle" x="725.52" y="-674.52" font-family="monospace" font-size="10.00">uses</text>
</g>
<!-- lightning_fetcher::origin::ErrorResponse -->
<g id="node16" class="node">
<title>lightning_fetcher::origin::ErrorResponse</title>
<polygon fill="#db5367" stroke="black" points="294.9,-709.21 294.9,-747.21 437.9,-747.21 437.9,-709.21 294.9,-709.21"/>
<text text-anchor="middle" x="366.4" y="-735.21" font-family="monospace" font-size="10.00">pub(self) enum</text>
<polyline fill="none" stroke="black" points="294.9,-728.21 437.9,-728.21 "/>
<text text-anchor="middle" x="366.4" y="-716.21" font-family="monospace" font-size="10.00">origin::ErrorResponse</text>
</g>
<!-- lightning_fetcher&#45;&gt;lightning_fetcher::origin::ErrorResponse -->
<g id="edge7" class="edge">
<title>lightning_fetcher&#45;&gt;lightning_fetcher::origin::ErrorResponse</title>
<path fill="none" stroke="#000000" d="M620.41,-558.95C568.88,-593.29 460.64,-665.42 403.52,-703.48"/>
<polygon fill="#000000" stroke="#000000" points="401.52,-700.61 395.14,-709.07 405.4,-706.43 401.52,-700.61"/>
<text text-anchor="middle" x="499.46" y="-634.22" font-family="monospace" font-size="10.00">owns</text>
</g>
<!-- lightning_fetcher::origin::OriginError -->
<g id="node17" class="node">
<title>lightning_fetcher::origin::OriginError</title>
<polygon fill="#81c169" stroke="black" points="504.79,-734.2 504.79,-772.2 635.79,-772.2 635.79,-734.2 504.79,-734.2"/>
<text text-anchor="middle" x="570.29" y="-760.2" font-family="monospace" font-size="10.00">pub struct</text>
<polyline fill="none" stroke="black" points="504.79,-753.2 635.79,-753.2 "/>
<text text-anchor="middle" x="570.29" y="-741.2" font-family="monospace" font-size="10.00">origin::OriginError</text>
</g>
<!-- lightning_fetcher&#45;&gt;lightning_fetcher::origin::OriginError -->
<g id="edge8" class="edge">
<title>lightning_fetcher&#45;&gt;lightning_fetcher::origin::OriginError</title>
<path fill="none" stroke="#000000" d="M641.94,-559.17C628.02,-596.85 597.19,-680.35 580.88,-724.52"/>
<polygon fill="#000000" stroke="#000000" points="577.52,-723.49 577.34,-734.09 584.09,-725.92 577.52,-723.49"/>
<text text-anchor="middle" x="598.91" y="-644.84" font-family="monospace" font-size="10.00">owns</text>
</g>
<!-- lightning_fetcher::origin::OriginFetcher -->
<g id="node18" class="node">
<title>lightning_fetcher::origin::OriginFetcher</title>
<polygon fill="#81c169" stroke="black" points="230.75,-474.64 230.75,-512.64 373.75,-512.64 373.75,-474.64 230.75,-474.64"/>
<text text-anchor="middle" x="302.25" y="-500.64" font-family="monospace" font-size="10.00">pub struct</text>
<polyline fill="none" stroke="black" points="230.75,-493.64 373.75,-493.64 "/>
<text text-anchor="middle" x="302.25" y="-481.64" font-family="monospace" font-size="10.00">origin::OriginFetcher</text>
</g>
<!-- lightning_fetcher&#45;&gt;lightning_fetcher::origin::OriginFetcher -->
<g id="edge9" class="edge">
<title>lightning_fetcher&#45;&gt;lightning_fetcher::origin::OriginFetcher</title>
<path fill="none" stroke="#000000" d="M623.32,-520.78C573.39,-501.87 461.64,-484.44 384.1,-481.29"/>
<polygon fill="#000000" stroke="#000000" points="383.98,-477.78 373.87,-480.95 383.75,-484.78 383.98,-477.78"/>
<text text-anchor="middle" x="491.21" y="-504.03" font-family="monospace" font-size="10.00">owns</text>
</g>
<!-- lightning_fetcher&#45;&gt;lightning_fetcher::origin::OriginFetcher -->
<g id="edge10" class="edge">
<title>lightning_fetcher&#45;&gt;lightning_fetcher::origin::OriginFetcher</title>
<path fill="none" stroke="#7f7f7f" stroke-dasharray="5,2" d="M589.46,-552.71C517.01,-552.55 397.13,-535.57 337.77,-516.15"/>
<polygon fill="#7f7f7f" stroke="#7f7f7f" points="338.69,-512.76 328.1,-512.76 336.38,-519.37 338.69,-512.76"/>
<text text-anchor="middle" x="451.12" y="-537.43" font-family="monospace" font-size="10.00">uses</text>
</g>
<!-- lightning_fetcher::origin::OriginRequest -->
<g id="node22" class="node">
<title>lightning_fetcher::origin::OriginRequest</title>
<polygon fill="#81c169" stroke="black" points="242.14,-295.58 242.14,-333.58 385.14,-333.58 385.14,-295.58 242.14,-295.58"/>
<text text-anchor="middle" x="313.64" y="-321.58" font-family="monospace" font-size="10.00">pub struct</text>
<polyline fill="none" stroke="black" points="242.14,-314.58 385.14,-314.58 "/>
<text text-anchor="middle" x="313.64" y="-302.58" font-family="monospace" font-size="10.00">origin::OriginRequest</text>
</g>
<!-- lightning_fetcher&#45;&gt;lightning_fetcher::origin::OriginRequest -->
<g id="edge11" class="edge">
<title>lightning_fetcher&#45;&gt;lightning_fetcher::origin::OriginRequest</title>
<path fill="none" stroke="#000000" d="M641.58,-520.79C607.1,-477.95 473.65,-384.36 387.71,-338.4"/>
<polygon fill="#000000" stroke="#000000" points="389.25,-335.26 378.77,-333.71 385.99,-341.45 389.25,-335.26"/>
<text text-anchor="middle" x="502.14" y="-432.6" font-family="monospace" font-size="10.00">owns</text>
</g>
<!-- lightning_fetcher&#45;&gt;lightning_fetcher::origin::OriginRequest -->
<g id="edge12" class="edge">
<title>lightning_fetcher&#45;&gt;lightning_fetcher::origin::OriginRequest</title>
<path fill="none" stroke="#7f7f7f" stroke-dasharray="5,2" d="M589.3,-523.46C509.18,-483.24 372.98,-389.58 327.82,-341.3"/>
<polygon fill="#7f7f7f" stroke="#7f7f7f" points="330.37,-338.9 321.15,-333.68 325.1,-343.51 330.37,-338.9"/>
<text text-anchor="middle" x="446.06" y="-435.38" font-family="monospace" font-size="10.00">uses</text>
</g>
<!-- lightning_fetcher::origin::SuccessResponse -->
<g id="node23" class="node">
<title>lightning_fetcher::origin::SuccessResponse</title>
<polygon fill="#db5367" stroke="black" points="344.39,-781.22 344.39,-819.22 499.39,-819.22 499.39,-781.22 344.39,-781.22"/>
<text text-anchor="middle" x="421.89" y="-807.22" font-family="monospace" font-size="10.00">pub(self) struct</text>
<polyline fill="none" stroke="black" points="344.39,-800.22 499.39,-800.22 "/>
<text text-anchor="middle" x="421.89" y="-788.22" font-family="monospace" font-size="10.00">origin::SuccessResponse</text>
</g>
<!-- lightning_fetcher&#45;&gt;lightning_fetcher::origin::SuccessResponse -->
<g id="edge13" class="edge">
<title>lightning_fetcher&#45;&gt;lightning_fetcher::origin::SuccessResponse</title>
<path fill="none" stroke="#000000" d="M632.36,-559C592.4,-604.8 491.21,-720.78 445.25,-773.46"/>
<polygon fill="#000000" stroke="#000000" points="442.56,-771.21 438.62,-781.05 447.83,-775.82 442.56,-771.21"/>
<text text-anchor="middle" x="526.31" y="-669.23" font-family="monospace" font-size="10.00">owns</text>
</g>
<!-- lightning_fetcher::fetcher::Fetcher::Config -->
<g id="node4" class="node">
<title>lightning_fetcher::fetcher::Fetcher::Config</title>
<polygon fill="#db5367" stroke="black" points="987.25,-367.06 987.25,-405.06 1148.25,-405.06 1148.25,-367.06 987.25,-367.06"/>
<text text-anchor="middle" x="1067.75" y="-393.06" font-family="monospace" font-size="10.00">pub(self) type</text>
<polyline fill="none" stroke="black" points="987.25,-386.06 1148.25,-386.06 "/>
<text text-anchor="middle" x="1067.75" y="-374.06" font-family="monospace" font-size="10.00">fetcher::Fetcher::Config</text>
</g>
<!-- lightning_fetcher::fetcher::Fetcher&#45;&gt;lightning_fetcher::fetcher::Fetcher::Config -->
<g id="edge14" class="edge">
<title>lightning_fetcher::fetcher::Fetcher&#45;&gt;lightning_fetcher::fetcher::Fetcher::Config</title>
<path fill="none" stroke="#000000" d="M1151.46,-432.55C1138.84,-425.54 1124.39,-417.52 1111.09,-410.13"/>
<polygon fill="#000000" stroke="#000000" points="1112.54,-406.94 1102.1,-405.14 1109.14,-413.06 1112.54,-406.94"/>
<text text-anchor="middle" x="1118.77" y="-424.34" font-family="monospace" font-size="10.00">owns</text>
</g>
<!-- lightning_fetcher::fetcher::Fetcher::get_socket -->
<g id="node5" class="node">
<title>lightning_fetcher::fetcher::Fetcher::get_socket</title>
<polygon fill="#db5367" stroke="black" points="1316.84,-224.16 1316.84,-262.16 1501.84,-262.16 1501.84,-224.16 1316.84,-224.16"/>
<text text-anchor="middle" x="1409.34" y="-250.16" font-family="monospace" font-size="10.00">pub(self) fn</text>
<polyline fill="none" stroke="black" points="1316.84,-243.16 1501.84,-243.16 "/>
<text text-anchor="middle" x="1409.34" y="-231.16" font-family="monospace" font-size="10.00">fetcher::Fetcher::get_socket</text>
</g>
<!-- lightning_fetcher::fetcher::Fetcher&#45;&gt;lightning_fetcher::fetcher::Fetcher::get_socket -->
<g id="edge15" class="edge">
<title>lightning_fetcher::fetcher::Fetcher&#45;&gt;lightning_fetcher::fetcher::Fetcher::get_socket</title>
<path fill="none" stroke="#000000" d="M1236.68,-432.58C1292.14,-394.46 1374.96,-314.76 1402.19,-270.94"/>
<polygon fill="#000000" stroke="#000000" points="1405.28,-272.59 1407.13,-262.16 1399.18,-269.16 1405.28,-272.59"/>
<text text-anchor="middle" x="1306.94" y="-354.76" font-family="monospace" font-size="10.00">owns</text>
</g>
<!-- lightning_fetcher::fetcher::Fetcher::init -->
<g id="node6" class="node">
<title>lightning_fetcher::fetcher::Fetcher::init</title>
<polygon fill="#db5367" stroke="black" points="873.27,-224.76 873.27,-262.76 1022.27,-262.76 1022.27,-224.76 873.27,-224.76"/>
<text text-anchor="middle" x="947.77" y="-250.76" font-family="monospace" font-size="10.00">pub(self) fn</text>
<polyline fill="none" stroke="black" points="873.27,-243.76 1022.27,-243.76 "/>
<text text-anchor="middle" x="947.77" y="-231.76" font-family="monospace" font-size="10.00">fetcher::Fetcher::init</text>
</g>
<!-- lightning_fetcher::fetcher::Fetcher&#45;&gt;lightning_fetcher::fetcher::Fetcher::init -->
<g id="edge16" class="edge">
<title>lightning_fetcher::fetcher::Fetcher&#45;&gt;lightning_fetcher::fetcher::Fetcher::init</title>
<path fill="none" stroke="#000000" d="M1182.88,-432.71C1161.52,-393.53 1072.56,-311.52 1009.93,-268.69"/>
<polygon fill="#000000" stroke="#000000" points="1011.54,-265.56 1001.28,-262.92 1007.66,-271.38 1011.54,-265.56"/>
<text text-anchor="middle" x="1083.91" y="-353.7" font-family="monospace" font-size="10.00">owns</text>
</g>
<!-- lightning_fetcher::fetcher::Fetcher::is_running -->
<g id="node7" class="node">
<title>lightning_fetcher::fetcher::Fetcher::is_running</title>
<polygon fill="#db5367" stroke="black" points="1402.38,-364.6 1402.38,-402.6 1587.38,-402.6 1587.38,-364.6 1402.38,-364.6"/>
<text text-anchor="middle" x="1494.88" y="-390.6" font-family="monospace" font-size="10.00">pub(self) fn</text>
<polyline fill="none" stroke="black" points="1402.38,-383.6 1587.38,-383.6 "/>
<text text-anchor="middle" x="1494.88" y="-371.6" font-family="monospace" font-size="10.00">fetcher::Fetcher::is_running</text>
</g>
<!-- lightning_fetcher::fetcher::Fetcher&#45;&gt;lightning_fetcher::fetcher::Fetcher::is_running -->
<g id="edge17" class="edge">
<title>lightning_fetcher::fetcher::Fetcher&#45;&gt;lightning_fetcher::fetcher::Fetcher::is_running</title>
<path fill="none" stroke="#000000" d="M1242.51,-460.57C1309.14,-455.45 1417,-430.38 1467.41,-407.13"/>
<polygon fill="#000000" stroke="#000000" points="1469.01,-410.24 1476.41,-402.66 1465.9,-403.97 1469.01,-410.24"/>
<text text-anchor="middle" x="1342.46" y="-436.85" font-family="monospace" font-size="10.00">owns</text>
</g>
<!-- lightning_fetcher::fetcher::Fetcher::shutdown -->
<g id="node8" class="node">
<title>lightning_fetcher::fetcher::Fetcher::shutdown</title>
<polygon fill="#db5367" stroke="black" points="1298.47,-655.81 1298.47,-693.81 1471.47,-693.81 1471.47,-655.81 1298.47,-655.81"/>
<text text-anchor="middle" x="1384.97" y="-681.81" font-family="monospace" font-size="10.00">pub(self) async fn</text>
<polyline fill="none" stroke="black" points="1298.47,-674.81 1471.47,-674.81 "/>
<text text-anchor="middle" x="1384.97" y="-662.81" font-family="monospace" font-size="10.00">fetcher::Fetcher::shutdown</text>
</g>
<!-- lightning_fetcher::fetcher::Fetcher&#45;&gt;lightning_fetcher::fetcher::Fetcher::shutdown -->
<g id="edge18" class="edge">
<title>lightning_fetcher::fetcher::Fetcher&#45;&gt;lightning_fetcher::fetcher::Fetcher::shutdown</title>
<path fill="none" stroke="#000000" d="M1186.29,-470.76C1201.93,-512.08 1279.62,-603.56 1333.87,-649.37"/>
<polygon fill="#000000" stroke="#000000" points="1331.74,-652.15 1341.69,-655.78 1336.18,-646.74 1331.74,-652.15"/>
<text text-anchor="middle" x="1247.58" y="-563.06" font-family="monospace" font-size="10.00">owns</text>
</g>
<!-- lightning_fetcher::fetcher::Fetcher::start -->
<g id="node9" class="node">
<title>lightning_fetcher::fetcher::Fetcher::start</title>
<polygon fill="#db5367" stroke="black" points="1408.76,-524 1408.76,-562 1563.76,-562 1563.76,-524 1408.76,-524"/>
<text text-anchor="middle" x="1486.26" y="-550" font-family="monospace" font-size="10.00">pub(self) async fn</text>
<polyline fill="none" stroke="black" points="1408.76,-543 1563.76,-543 "/>
<text text-anchor="middle" x="1486.26" y="-531" font-family="monospace" font-size="10.00">fetcher::Fetcher::start</text>
</g>
<!-- lightning_fetcher::fetcher::Fetcher&#45;&gt;lightning_fetcher::fetcher::Fetcher::start -->
<g id="edge19" class="edge">
<title>lightning_fetcher::fetcher::Fetcher&#45;&gt;lightning_fetcher::fetcher::Fetcher::start</title>
<path fill="none" stroke="#000000" d="M1200.7,-470.77C1236.35,-494.88 1328.44,-526.46 1398.53,-541.67"/>
<polygon fill="#000000" stroke="#000000" points="1398.2,-545.18 1408.71,-543.8 1399.63,-538.33 1398.2,-545.18"/>
<text text-anchor="middle" x="1287.12" y="-509.22" font-family="monospace" font-size="10.00">owns</text>
</g>
<!-- lightning_fetcher::fetcher::Fetcher::Config&#45;&gt;lightning_fetcher::config::Config -->
<g id="edge20" class="edge">
<title>lightning_fetcher::fetcher::Fetcher::Config&#45;&gt;lightning_fetcher::config::Config</title>
<path fill="none" stroke="#7f7f7f" stroke-dasharray="5,2" d="M987.09,-372.44C955.73,-367.15 920.41,-361.18 891.26,-356.26"/>
<polygon fill="#7f7f7f" stroke="#7f7f7f" points="891.66,-352.78 881.22,-354.56 890.5,-359.68 891.66,-352.78"/>
<text text-anchor="middle" x="926.68" y="-367.35" font-family="monospace" font-size="10.00">uses</text>
</g>
<!-- lightning_fetcher::fetcher::Fetcher::get_socket&#45;&gt;lightning_fetcher::fetcher::Fetcher -->
<g id="edge21" class="edge">
<title>lightning_fetcher::fetcher::Fetcher::get_socket&#45;&gt;lightning_fetcher::fetcher::Fetcher</title>
<path fill="none" stroke="#7f7f7f" stroke-dasharray="5,2" d="M1358.64,-262.3C1303.18,-300.42 1220.36,-380.11 1193.12,-423.94"/>
<polygon fill="#7f7f7f" stroke="#7f7f7f" points="1190.04,-422.28 1188.19,-432.71 1196.14,-425.71 1190.04,-422.28"/>
<text text-anchor="middle" x="1263.38" y="-346.12" font-family="monospace" font-size="10.00">uses</text>
</g>
<!-- lightning_fetcher::fetcher::Fetcher::init&#45;&gt;lightning_fetcher::config::Config -->
<g id="edge22" class="edge">
<title>lightning_fetcher::fetcher::Fetcher::init&#45;&gt;lightning_fetcher::config::Config</title>
<path fill="none" stroke="#7f7f7f" stroke-dasharray="5,2" d="M925.71,-262.99C907.2,-279.13 880.59,-302.32 860.21,-320.09"/>
<polygon fill="#7f7f7f" stroke="#7f7f7f" points="857.69,-317.64 852.45,-326.85 862.29,-322.92 857.69,-317.64"/>
<text text-anchor="middle" x="880.46" y="-294.54" font-family="monospace" font-size="10.00">uses</text>
</g>
<!-- lightning_fetcher::fetcher::Fetcher::init&#45;&gt;lightning_fetcher::fetcher::Fetcher -->
<g id="edge23" class="edge">
<title>lightning_fetcher::fetcher::Fetcher::init&#45;&gt;lightning_fetcher::fetcher::Fetcher</title>
<path fill="none" stroke="#7f7f7f" stroke-dasharray="5,2" d="M950.86,-262.77C972.22,-301.95 1061.19,-383.96 1123.81,-426.79"/>
<polygon fill="#7f7f7f" stroke="#7f7f7f" points="1122.2,-429.92 1132.46,-432.56 1126.09,-424.1 1122.2,-429.92"/>
<text text-anchor="middle" x="1024.83" y="-347.78" font-family="monospace" font-size="10.00">uses</text>
</g>
<!-- lightning_fetcher::fetcher::Fetcher::init&#45;&gt;lightning_fetcher::fetcher::FetcherInner -->
<g id="edge24" class="edge">
<title>lightning_fetcher::fetcher::Fetcher::init&#45;&gt;lightning_fetcher::fetcher::FetcherInner</title>
<path fill="none" stroke="#7f7f7f" stroke-dasharray="5,2" d="M873.15,-236.57C825.52,-231.98 763.77,-226.03 714.79,-221.31"/>
<polygon fill="#7f7f7f" stroke="#7f7f7f" points="714.83,-217.8 704.54,-220.32 714.16,-224.77 714.83,-217.8"/>
<text text-anchor="middle" x="781.47" y="-231.94" font-family="monospace" font-size="10.00">uses</text>
</g>
<!-- lightning_fetcher::fetcher::Fetcher::is_running&#45;&gt;lightning_fetcher::fetcher::Fetcher -->
<g id="edge25" class="edge">
<title>lightning_fetcher::fetcher::Fetcher::is_running&#45;&gt;lightning_fetcher::fetcher::Fetcher</title>
<path fill="none" stroke="#7f7f7f" stroke-dasharray="5,2" d="M1402.31,-378.83C1337.7,-388.1 1255.83,-408.71 1213.69,-428.07"/>
<polygon fill="#7f7f7f" stroke="#7f7f7f" points="1212.01,-425 1204.6,-432.57 1215.11,-431.28 1212.01,-425"/>
<text text-anchor="middle" x="1295.5" y="-406.45" font-family="monospace" font-size="10.00">uses</text>
</g>
<!-- lightning_fetcher::fetcher::Fetcher::shutdown&#45;&gt;lightning_fetcher::fetcher::Fetcher -->
<g id="edge26" class="edge">
<title>lightning_fetcher::fetcher::Fetcher::shutdown&#45;&gt;lightning_fetcher::fetcher::Fetcher</title>
<path fill="none" stroke="#7f7f7f" stroke-dasharray="5,2" d="M1384.66,-655.77C1369.02,-614.45 1291.33,-522.96 1237.08,-477.16"/>
<polygon fill="#7f7f7f" stroke="#7f7f7f" points="1239.21,-474.38 1229.25,-470.74 1234.77,-479.79 1239.21,-474.38"/>
<text text-anchor="middle" x="1298.37" y="-569.46" font-family="monospace" font-size="10.00">uses</text>
</g>
<!-- lightning_fetcher::fetcher::Fetcher::start&#45;&gt;lightning_fetcher::fetcher::Fetcher -->
<g id="edge27" class="edge">
<title>lightning_fetcher::fetcher::Fetcher::start&#45;&gt;lightning_fetcher::fetcher::Fetcher</title>
<path fill="none" stroke="#7f7f7f" stroke-dasharray="5,2" d="M1471.53,-523.94C1432.22,-497.36 1324.3,-461.69 1252.89,-448.9"/>
<polygon fill="#7f7f7f" stroke="#7f7f7f" points="1253.07,-445.38 1242.63,-447.18 1251.92,-452.29 1253.07,-445.38"/>
<text text-anchor="middle" x="1349.71" y="-489.42" font-family="monospace" font-size="10.00">uses</text>
</g>
<!-- lightning_fetcher::fetcher::FetcherInner&#45;&gt;lightning_fetcher::config::Config -->
<g id="edge28" class="edge">
<title>lightning_fetcher::fetcher::FetcherInner&#45;&gt;lightning_fetcher::config::Config</title>
<path fill="none" stroke="#7f7f7f" stroke-dasharray="5,2" d="M661.63,-232.69C696.41,-256.03 755.06,-295.38 793.27,-321.02"/>
<polygon fill="#7f7f7f" stroke="#7f7f7f" points="791.79,-324.24 802.05,-326.91 795.69,-318.43 791.79,-324.24"/>
<text text-anchor="middle" x="714.95" y="-279.86" font-family="monospace" font-size="10.00">uses</text>
</g>
<!-- lightning_fetcher::fetcher::FetcherInner::fetch -->
<g id="node11" class="node">
<title>lightning_fetcher::fetcher::FetcherInner::fetch</title>
<polygon fill="#db5367" stroke="black" points="221.19,-88.2 221.19,-126.2 406.19,-126.2 406.19,-88.2 221.19,-88.2"/>
<text text-anchor="middle" x="313.69" y="-114.2" font-family="monospace" font-size="10.00">pub(self) async fn</text>
<polyline fill="none" stroke="black" points="221.19,-107.2 406.19,-107.2 "/>
<text text-anchor="middle" x="313.69" y="-95.2" font-family="monospace" font-size="10.00">fetcher::FetcherInner::fetch</text>
</g>
<!-- lightning_fetcher::fetcher::FetcherInner&#45;&gt;lightning_fetcher::fetcher::FetcherInner::fetch -->
<g id="edge29" class="edge">
<title>lightning_fetcher::fetcher::FetcherInner&#45;&gt;lightning_fetcher::fetcher::FetcherInner::fetch</title>
<path fill="none" stroke="#000000" d="M618.2,-194.14C582.49,-169.16 489.93,-134.4 416.1,-115.03"/>
<polygon fill="#000000" stroke="#000000" points="416.83,-111.61 406.28,-112.52 415.1,-118.39 416.83,-111.61"/>
<text text-anchor="middle" x="504.65" y="-157.59" font-family="monospace" font-size="10.00">owns</text>
</g>
<!-- lightning_fetcher::fetcher::FetcherInner::fetch_origin -->
<g id="node12" class="node">
<title>lightning_fetcher::fetcher::FetcherInner::fetch_origin</title>
<polygon fill="#db5367" stroke="black" points="445.79,-47.54 445.79,-85.54 672.79,-85.54 672.79,-47.54 445.79,-47.54"/>
<text text-anchor="middle" x="559.29" y="-73.54" font-family="monospace" font-size="10.00">pub(self) async fn</text>
<polyline fill="none" stroke="black" points="445.79,-66.54 672.79,-66.54 "/>
<text text-anchor="middle" x="559.29" y="-54.54" font-family="monospace" font-size="10.00">fetcher::FetcherInner::fetch_origin</text>
</g>
<!-- lightning_fetcher::fetcher::FetcherInner&#45;&gt;lightning_fetcher::fetcher::FetcherInner::fetch_origin -->
<g id="edge30" class="edge">
<title>lightning_fetcher::fetcher::FetcherInner&#45;&gt;lightning_fetcher::fetcher::FetcherInner::fetch_origin</title>
<path fill="none" stroke="#000000" d="M640.86,-194.39C640.64,-168.36 621.16,-123.28 599.84,-93.87"/>
<polygon fill="#000000" stroke="#000000" points="602.37,-91.43 593.48,-85.66 596.83,-95.71 602.37,-91.43"/>
<text text-anchor="middle" x="607.85" y="-147.13" font-family="monospace" font-size="10.00">owns</text>
</g>
<!-- lightning_fetcher::fetcher::FetcherInner::put -->
<g id="node13" class="node">
<title>lightning_fetcher::fetcher::FetcherInner::put</title>
<polygon fill="#db5367" stroke="black" points="267.78,-0.5 267.78,-38.5 440.78,-38.5 440.78,-0.5 267.78,-0.5"/>
<text text-anchor="middle" x="354.28" y="-26.5" font-family="monospace" font-size="10.00">pub(self) async fn</text>
<polyline fill="none" stroke="black" points="267.78,-19.5 440.78,-19.5 "/>
<text text-anchor="middle" x="354.28" y="-7.5" font-family="monospace" font-size="10.00">fetcher::FetcherInner::put</text>
</g>
<!-- lightning_fetcher::fetcher::FetcherInner&#45;&gt;lightning_fetcher::fetcher::FetcherInner::put -->
<g id="edge31" class="edge">
<title>lightning_fetcher::fetcher::FetcherInner&#45;&gt;lightning_fetcher::fetcher::FetcherInner::put</title>
<path fill="none" stroke="#000000" d="M626.85,-194.24C599.59,-156.95 499.91,-83.3 428.71,-43.49"/>
<polygon fill="#000000" stroke="#000000" points="430.19,-40.31 419.74,-38.58 426.83,-46.45 430.19,-40.31"/>
<text text-anchor="middle" x="515.28" y="-121.87" font-family="monospace" font-size="10.00">owns</text>
</g>
<!-- lightning_fetcher::fetcher::FetcherInner::start -->
<g id="node14" class="node">
<title>lightning_fetcher::fetcher::FetcherInner::start</title>
<polygon fill="#db5367" stroke="black" points="393.28,-280.02 393.28,-318.02 578.28,-318.02 578.28,-280.02 393.28,-280.02"/>
<text text-anchor="middle" x="485.78" y="-306.02" font-family="monospace" font-size="10.00">pub(self) async fn</text>
<polyline fill="none" stroke="black" points="393.28,-299.02 578.28,-299.02 "/>
<text text-anchor="middle" x="485.78" y="-287.02" font-family="monospace" font-size="10.00">fetcher::FetcherInner::start</text>
</g>
<!-- lightning_fetcher::fetcher::FetcherInner&#45;&gt;lightning_fetcher::fetcher::FetcherInner::start -->
<g id="edge32" class="edge">
<title>lightning_fetcher::fetcher::FetcherInner&#45;&gt;lightning_fetcher::fetcher::FetcherInner::start</title>
<path fill="none" stroke="#000000" d="M599.88,-232.63C578.49,-245.07 550.45,-261.39 527.52,-274.73"/>
<polygon fill="#000000" stroke="#000000" points="525.57,-271.82 518.69,-279.87 529.09,-277.87 525.57,-271.82"/>
<text text-anchor="middle" x="551.2" y="-256.68" font-family="monospace" font-size="10.00">owns</text>
</g>
<!-- lightning_fetcher::fetcher::FetcherInner::fetch&#45;&gt;lightning_fetcher::fetcher::FetcherInner -->
<g id="edge33" class="edge">
<title>lightning_fetcher::fetcher::FetcherInner::fetch&#45;&gt;lightning_fetcher::fetcher::FetcherInner</title>
<path fill="none" stroke="#7f7f7f" stroke-dasharray="5,2" d="M328.39,-126.48C367.51,-153.84 474.88,-192.94 551.09,-210.69"/>
<polygon fill="#7f7f7f" stroke="#7f7f7f" points="550.63,-214.18 561.16,-212.95 552.16,-207.35 550.63,-214.18"/>
<text text-anchor="middle" x="427.24" y="-171.58" font-family="monospace" font-size="10.00">uses</text>
</g>
<!-- lightning_fetcher::fetcher::FetcherInner::fetch&#45;&gt;lightning_fetcher::origin::OriginRequest -->
<g id="edge34" class="edge">
<title>lightning_fetcher::fetcher::FetcherInner::fetch&#45;&gt;lightning_fetcher::origin::OriginRequest</title>
<path fill="none" stroke="#7f7f7f" stroke-dasharray="5,2" d="M313.69,-126.33C313.68,-162.76 313.66,-242.24 313.65,-285.36"/>
<polygon fill="#7f7f7f" stroke="#7f7f7f" points="310.15,-285.49 313.64,-295.49 317.15,-285.49 310.15,-285.49"/>
<text text-anchor="middle" x="301.17" y="-208.85" font-family="monospace" font-size="10.00">uses</text>
</g>
<!-- lightning_fetcher::fetcher::FetcherInner::fetch_origin&#45;&gt;lightning_fetcher::fetcher::FetcherInner -->
<g id="edge35" class="edge">
<title>lightning_fetcher::fetcher::FetcherInner::fetch_origin&#45;&gt;lightning_fetcher::fetcher::FetcherInner</title>
<path fill="none" stroke="#7f7f7f" stroke-dasharray="5,2" d="M551.32,-85.57C551.55,-111.59 571.03,-156.68 592.35,-186.08"/>
<polygon fill="#7f7f7f" stroke="#7f7f7f" points="589.82,-188.53 598.7,-194.3 595.35,-184.24 589.82,-188.53"/>
<text text-anchor="middle" x="559.34" y="-138.82" font-family="monospace" font-size="10.00">uses</text>
</g>
<!-- lightning_fetcher::fetcher::FetcherInner::fetch_origin&#45;&gt;lightning_fetcher::origin::OriginRequest -->
<g id="edge36" class="edge">
<title>lightning_fetcher::fetcher::FetcherInner::fetch_origin&#45;&gt;lightning_fetcher::origin::OriginRequest</title>
<path fill="none" stroke="#7f7f7f" stroke-dasharray="5,2" d="M540.42,-85.59C496.93,-129.51 389.55,-237.93 339.77,-288.2"/>
<polygon fill="#7f7f7f" stroke="#7f7f7f" points="337.12,-285.9 332.57,-295.47 342.09,-290.82 337.12,-285.9"/>
<text text-anchor="middle" x="427.59" y="-189.89" font-family="monospace" font-size="10.00">uses</text>
</g>
<!-- lightning_fetcher::fetcher::FetcherInner::put&#45;&gt;lightning_fetcher::fetcher::FetcherInner -->
<g id="edge37" class="edge">
<title>lightning_fetcher::fetcher::FetcherInner::put&#45;&gt;lightning_fetcher::fetcher::FetcherInner</title>
<path fill="none" stroke="#7f7f7f" stroke-dasharray="5,2" d="M360.33,-38.67C387.59,-75.97 487.26,-149.62 558.46,-189.42"/>
<polygon fill="#7f7f7f" stroke="#7f7f7f" points="556.98,-192.6 567.43,-194.34 560.35,-186.46 556.98,-192.6"/>
<text text-anchor="middle" x="446.89" y="-117.05" font-family="monospace" font-size="10.00">uses</text>
</g>
<!-- lightning_fetcher::fetcher::FetcherInner::put&#45;&gt;lightning_fetcher::origin::OriginRequest -->
<g id="edge38" class="edge">
<title>lightning_fetcher::fetcher::FetcherInner::put&#45;&gt;lightning_fetcher::origin::OriginRequest</title>
<path fill="none" stroke="#7f7f7f" stroke-dasharray="5,2" d="M351.61,-38.86C344.65,-89.42 325.89,-225.65 317.63,-285.6"/>
<polygon fill="#7f7f7f" stroke="#7f7f7f" points="314.16,-285.15 316.26,-295.53 321.09,-286.1 314.16,-285.15"/>
<text text-anchor="middle" x="322.12" y="-165.23" font-family="monospace" font-size="10.00">uses</text>
</g>
<!-- lightning_fetcher::fetcher::FetcherInner::start&#45;&gt;lightning_fetcher::origin::OriginFetcher -->
<g id="edge39" class="edge">
<title>lightning_fetcher::fetcher::FetcherInner::start&#45;&gt;lightning_fetcher::origin::OriginFetcher</title>
<path fill="none" stroke="#7f7f7f" stroke-dasharray="5,2" d="M467.85,-318.04C434.96,-352.92 364.91,-427.2 327.32,-467.06"/>
<polygon fill="#7f7f7f" stroke="#7f7f7f" points="324.57,-464.87 320.26,-474.55 329.66,-469.67 324.57,-464.87"/>
<text text-anchor="middle" x="385.09" y="-395.55" font-family="monospace" font-size="10.00">uses</text>
</g>
<!-- lightning_fetcher::fetcher::FetcherInner::start&#45;&gt;lightning_fetcher::origin::OriginRequest -->
<g id="edge40" class="edge">
<title>lightning_fetcher::fetcher::FetcherInner::start&#45;&gt;lightning_fetcher::origin::OriginRequest</title>
<path fill="none" stroke="#7f7f7f" stroke-dasharray="5,2" d="M393.16,-307.39C393,-307.41 392.84,-307.42 392.68,-307.44"/>
<polygon fill="#7f7f7f" stroke="#7f7f7f" points="395.2,-303.7 385.55,-308.08 395.83,-310.67 395.2,-303.7"/>
<text text-anchor="middle" x="380.42" y="-310.42" font-family="monospace" font-size="10.00">uses</text>
</g>
<!-- lightning_fetcher::origin::OriginFetcher::new -->
<g id="node19" class="node">
<title>lightning_fetcher::origin::OriginFetcher::new</title>
<polygon fill="#81c169" stroke="black" points="0,-341.01 0,-379.01 173,-379.01 173,-341.01 0,-341.01"/>
<text text-anchor="middle" x="86.5" y="-367.01" font-family="monospace" font-size="10.00">pub fn</text>
<polyline fill="none" stroke="black" points="0,-360.01 173,-360.01 "/>
<text text-anchor="middle" x="86.5" y="-348.01" font-family="monospace" font-size="10.00">origin::OriginFetcher::new</text>
</g>
<!-- lightning_fetcher::origin::OriginFetcher&#45;&gt;lightning_fetcher::origin::OriginFetcher::new -->
<g id="edge41" class="edge">
<title>lightning_fetcher::origin::OriginFetcher&#45;&gt;lightning_fetcher::origin::OriginFetcher::new</title>
<path fill="none" stroke="#000000" d="M296.83,-474.4C278.15,-449.04 223.09,-410.13 173.81,-383.79"/>
<polygon fill="#000000" stroke="#000000" points="175.17,-380.55 164.69,-379.02 171.93,-386.75 175.17,-380.55"/>
<text text-anchor="middle" x="222.82" y="-432.09" font-family="monospace" font-size="10.00">owns</text>
</g>
<!-- lightning_fetcher::origin::OriginFetcher::spawn -->
<g id="node20" class="node">
<title>lightning_fetcher::origin::OriginFetcher::spawn</title>
<polygon fill="#db5367" stroke="black" points="101.89,-745.72 101.89,-783.72 286.89,-783.72 286.89,-745.72 101.89,-745.72"/>
<text text-anchor="middle" x="194.39" y="-771.72" font-family="monospace" font-size="10.00">pub(self) async fn</text>
<polyline fill="none" stroke="black" points="101.89,-764.72 286.89,-764.72 "/>
<text text-anchor="middle" x="194.39" y="-752.72" font-family="monospace" font-size="10.00">origin::OriginFetcher::spawn</text>
</g>
<!-- lightning_fetcher::origin::OriginFetcher&#45;&gt;lightning_fetcher::origin::OriginFetcher::spawn -->
<g id="edge42" class="edge">
<title>lightning_fetcher::origin::OriginFetcher&#45;&gt;lightning_fetcher::origin::OriginFetcher::spawn</title>
<path fill="none" stroke="#000000" d="M276.69,-513.01C242.77,-560.2 195.57,-679.33 188.84,-735.3"/>
<polygon fill="#000000" stroke="#000000" points="185.33,-735.38 188.05,-745.62 192.31,-735.91 185.33,-735.38"/>
<text text-anchor="middle" x="220.27" y="-627.16" font-family="monospace" font-size="10.00">owns</text>
</g>
<!-- lightning_fetcher::origin::OriginFetcher::start -->
<g id="node21" class="node">
<title>lightning_fetcher::origin::OriginFetcher::start</title>
<polygon fill="#81c169" stroke="black" points="282.26,-592.25 282.26,-630.25 467.26,-630.25 467.26,-592.25 282.26,-592.25"/>
<text text-anchor="middle" x="374.76" y="-618.25" font-family="monospace" font-size="10.00">pub async fn</text>
<polyline fill="none" stroke="black" points="282.26,-611.25 467.26,-611.25 "/>
<text text-anchor="middle" x="374.76" y="-599.25" font-family="monospace" font-size="10.00">origin::OriginFetcher::start</text>
</g>
<!-- lightning_fetcher::origin::OriginFetcher&#45;&gt;lightning_fetcher::origin::OriginFetcher::start -->
<g id="edge43" class="edge">
<title>lightning_fetcher::origin::OriginFetcher&#45;&gt;lightning_fetcher::origin::OriginFetcher::start</title>
<path fill="none" stroke="#000000" d="M294.92,-512.85C296.03,-532.74 310.54,-562.31 327.77,-584.23"/>
<polygon fill="#000000" stroke="#000000" points="325.12,-586.51 334.23,-591.92 330.48,-582.01 325.12,-586.51"/>
<text text-anchor="middle" x="298.85" y="-551.54" font-family="monospace" font-size="10.00">owns</text>
</g>
<!-- lightning_fetcher::origin::OriginFetcher&#45;&gt;lightning_fetcher::origin::OriginRequest -->
<g id="edge44" class="edge">
<title>lightning_fetcher::origin::OriginFetcher&#45;&gt;lightning_fetcher::origin::OriginRequest</title>
<path fill="none" stroke="#7f7f7f" stroke-dasharray="5,2" d="M303.47,-474.48C305.46,-443.11 309.44,-380.61 311.78,-343.73"/>
<polygon fill="#7f7f7f" stroke="#7f7f7f" points="315.29,-343.81 312.43,-333.61 308.3,-343.36 315.29,-343.81"/>
<text text-anchor="middle" x="295.13" y="-412.1" font-family="monospace" font-size="10.00">uses</text>
</g>
<!-- lightning_fetcher::origin::OriginFetcher::new&#45;&gt;lightning_fetcher::origin::OriginFetcher -->
<g id="edge45" class="edge">
<title>lightning_fetcher::origin::OriginFetcher::new&#45;&gt;lightning_fetcher::origin::OriginFetcher</title>
<path fill="none" stroke="#7f7f7f" stroke-dasharray="5,2" d="M91.92,-379.25C111.43,-405.75 170.66,-447.03 221.51,-473.32"/>
<polygon fill="#7f7f7f" stroke="#7f7f7f" points="220.07,-476.51 230.57,-477.89 223.22,-470.26 220.07,-476.51"/>
<text text-anchor="middle" x="144.22" y="-429.29" font-family="monospace" font-size="10.00">uses</text>
</g>
<!-- lightning_fetcher::origin::OriginFetcher::new&#45;&gt;lightning_fetcher::origin::OriginRequest -->
<g id="edge46" class="edge">
<title>lightning_fetcher::origin::OriginFetcher::new&#45;&gt;lightning_fetcher::origin::OriginRequest</title>
<path fill="none" stroke="#7f7f7f" stroke-dasharray="5,2" d="M173.02,-342.71C192.45,-338.82 213,-334.71 232.22,-330.87"/>
<polygon fill="#7f7f7f" stroke="#7f7f7f" points="233.01,-334.28 242.13,-328.88 231.64,-327.41 233.01,-334.28"/>
<text text-anchor="middle" x="190.12" y="-339.79" font-family="monospace" font-size="10.00">uses</text>
</g>
<!-- lightning_fetcher::origin::OriginFetcher::spawn&#45;&gt;lightning_fetcher::origin::ErrorResponse -->
<g id="edge47" class="edge">
<title>lightning_fetcher::origin::OriginFetcher::spawn&#45;&gt;lightning_fetcher::origin::ErrorResponse</title>
<path fill="none" stroke="#7f7f7f" stroke-dasharray="5,2" d="M283.92,-745.72C284.15,-745.67 284.37,-745.62 284.6,-745.58"/>
<polygon fill="#7f7f7f" stroke="#7f7f7f" points="285.59,-748.94 294.65,-743.44 284.14,-742.09 285.59,-748.94"/>
<text text-anchor="middle" x="271.76" y="-737.65" font-family="monospace" font-size="10.00">uses</text>
</g>
<!-- lightning_fetcher::origin::OriginFetcher::spawn&#45;&gt;lightning_fetcher::origin::OriginFetcher -->
<g id="edge48" class="edge">
<title>lightning_fetcher::origin::OriginFetcher::spawn&#45;&gt;lightning_fetcher::origin::OriginFetcher</title>
<path fill="none" stroke="#7f7f7f" stroke-dasharray="5,2" d="M219.94,-745.35C253.86,-698.16 301.07,-579.03 307.8,-523.06"/>
<polygon fill="#7f7f7f" stroke="#7f7f7f" points="311.31,-522.98 308.59,-512.74 304.33,-522.45 311.31,-522.98"/>
<text text-anchor="middle" x="251.37" y="-637.2" font-family="monospace" font-size="10.00">uses</text>
</g>
<!-- lightning_fetcher::origin::OriginFetcher::spawn&#45;&gt;lightning_fetcher::origin::SuccessResponse -->
<g id="edge49" class="edge">
<title>lightning_fetcher::origin::OriginFetcher::spawn&#45;&gt;lightning_fetcher::origin::SuccessResponse</title>
<path fill="none" stroke="#7f7f7f" stroke-dasharray="5,2" d="M286.92,-779.16C302.56,-781.6 318.76,-784.13 334.27,-786.55"/>
<polygon fill="#7f7f7f" stroke="#7f7f7f" points="333.93,-790.04 344.35,-788.12 335.01,-783.12 333.93,-790.04"/>
<text text-anchor="middle" x="323.1" y="-785.86" font-family="monospace" font-size="10.00">uses</text>
</g>
<!-- lightning_fetcher::origin::OriginFetcher::start&#45;&gt;lightning_fetcher::origin::ErrorResponse -->
<g id="edge50" class="edge">
<title>lightning_fetcher::origin::OriginFetcher::start&#45;&gt;lightning_fetcher::origin::ErrorResponse</title>
<path fill="none" stroke="#7f7f7f" stroke-dasharray="5,2" d="M373.4,-630.3C372.07,-648.91 370.03,-677.48 368.49,-698.97"/>
<polygon fill="#7f7f7f" stroke="#7f7f7f" points="364.99,-698.95 367.76,-709.17 371.97,-699.44 364.99,-698.95"/>
<text text-anchor="middle" x="358.45" y="-667.64" font-family="monospace" font-size="10.00">uses</text>
</g>
<!-- lightning_fetcher::origin::OriginFetcher::start&#45;&gt;lightning_fetcher::origin::OriginError -->
<g id="edge51" class="edge">
<title>lightning_fetcher::origin::OriginFetcher::start&#45;&gt;lightning_fetcher::origin::OriginError</title>
<path fill="none" stroke="#7f7f7f" stroke-dasharray="5,2" d="M401.13,-630.4C435.92,-655.65 497.23,-700.16 535.71,-728.09"/>
<polygon fill="#7f7f7f" stroke="#7f7f7f" points="533.87,-731.09 544.02,-734.13 537.99,-725.42 533.87,-731.09"/>
<text text-anchor="middle" x="455.92" y="-682.24" font-family="monospace" font-size="10.00">uses</text>
</g>
<!-- lightning_fetcher::origin::OriginFetcher::start&#45;&gt;lightning_fetcher::origin::OriginFetcher -->
<g id="edge52" class="edge">
<title>lightning_fetcher::origin::OriginFetcher::start&#45;&gt;lightning_fetcher::origin::OriginFetcher</title>
<path fill="none" stroke="#7f7f7f" stroke-dasharray="5,2" d="M382.09,-592.04C380.98,-572.15 366.46,-542.58 349.23,-520.66"/>
<polygon fill="#7f7f7f" stroke="#7f7f7f" points="351.89,-518.38 342.78,-512.97 346.53,-522.88 351.89,-518.38"/>
<text text-anchor="middle" x="353.16" y="-559.35" font-family="monospace" font-size="10.00">uses</text>
</g>
<!-- lightning_fetcher::origin::OriginFetcher::start&#45;&gt;lightning_fetcher::origin::OriginRequest -->
<g id="edge53" class="edge">
<title>lightning_fetcher::origin::OriginFetcher::start&#45;&gt;lightning_fetcher::origin::OriginRequest</title>
<path fill="none" stroke="#7f7f7f" stroke-dasharray="5,2" d="M370.84,-592.24C360.45,-541.81 332.14,-404.37 319.67,-343.85"/>
<polygon fill="#7f7f7f" stroke="#7f7f7f" points="323.05,-342.91 317.6,-333.82 316.19,-344.32 323.05,-342.91"/>
<text text-anchor="middle" x="332.75" y="-460.05" font-family="monospace" font-size="10.00">uses</text>
</g>
<!-- lightning_fetcher::origin::OriginFetcher::start&#45;&gt;lightning_fetcher::origin::SuccessResponse -->
<g id="edge54" class="edge">
<title>lightning_fetcher::origin::OriginFetcher::start&#45;&gt;lightning_fetcher::origin::SuccessResponse</title>
<path fill="none" stroke="#7f7f7f" stroke-dasharray="5,2" d="M379.54,-630.41C387.83,-663.66 404.93,-732.22 414.68,-771.29"/>
<polygon fill="#7f7f7f" stroke="#7f7f7f" points="411.29,-772.16 417.1,-781.01 418.08,-770.46 411.29,-772.16"/>
<text text-anchor="middle" x="384.61" y="-692.85" font-family="monospace" font-size="10.00">uses</text>
</g>
</g>
</svg>
