<?xml version="1.0" encoding="UTF-8" standalone="no"?>
<!DOCTYPE svg PUBLIC "-//W3C//DTD SVG 1.1//EN"
 "http://www.w3.org/Graphics/SVG/1.1/DTD/svg11.dtd">
<!-- Generated by graphviz version 4.0.0 (0)
 -->
<!-- Pages: 1 -->
<svg width="441pt" height="168pt"
 viewBox="0.00 0.00 440.60 168.31" xmlns="http://www.w3.org/2000/svg" xmlns:xlink="http://www.w3.org/1999/xlink">
<g id="graph0" class="graph" transform="scale(1 1) rotate(0) translate(28.8 139.51)">
<polygon fill="white" stroke="transparent" points="-28.8,28.8 -28.8,-139.51 411.8,-139.51 411.8,28.8 -28.8,28.8"/>
<text text-anchor="middle" x="191.5" y="-77.91" font-family="Helvetica,sans-Serif" font-size="36.00">lightning_origin_http</text>
<!-- lightning_origin_http -->
<g id="node1" class="node">
<title>lightning_origin_http</title>
<polygon fill="#5397c8" stroke="black" points="20.49,-12.35 20.49,-50.35 163.49,-50.35 163.49,-12.35 20.49,-12.35"/>
<text text-anchor="middle" x="91.99" y="-38.35" font-family="monospace" font-size="10.00">crate</text>
<polyline fill="none" stroke="black" points="20.49,-31.35 163.49,-31.35 "/>
<text text-anchor="middle" x="91.99" y="-19.35" font-family="monospace" font-size="10.00">lightning_origin_http</text>
</g>
<!-- lightning_origin_http::config -->
<g id="node2" class="node">
<title>lightning_origin_http::config</title>
<polygon fill="#f8c04c" stroke="black" points="171.51,-12.35 171.51,-50.35 362.51,-50.35 362.51,-12.35 171.51,-12.35"/>
<text text-anchor="middle" x="267.01" y="-38.35" font-family="monospace" font-size="10.00">pub(crate) mod</text>
<polyline fill="none" stroke="black" points="171.51,-31.35 362.51,-31.35 "/>
<text text-anchor="middle" x="267.01" y="-19.35" font-family="monospace" font-size="10.00">lightning_origin_http::config</text>
</g>
<!-- lightning_origin_http&#45;&gt;lightning_origin_http::config -->
<g id="edge1" class="edge">
<title>lightning_origin_http&#45;&gt;lightning_origin_http::config</title>
<path fill="none" stroke="#000000" d="M115.23,-50.39C145.7,-60.04 199.33,-60.92 234,-53.02"/>
<polygon fill="#000000" stroke="#000000" points="234.92,-56.4 243.67,-50.42 233.11,-49.64 234.92,-56.4"/>
<text text-anchor="middle" x="162.12" y="-54.71" font-family="monospace" font-size="10.00">owns</text>
</g>
<!-- lightning_origin_http&#45;&gt;lightning_origin_http::config -->
<g id="edge2" class="edge">
<title>lightning_origin_http&#45;&gt;lightning_origin_http::config</title>
<path fill="none" stroke="#7f7f7f" stroke-dasharray="5,2" d="M115.23,-12.31C145.7,-2.66 199.33,-1.79 234,-9.69"/>
<polygon fill="#7f7f7f" stroke="#7f7f7f" points="233.11,-13.07 243.67,-12.28 234.92,-6.31 233.11,-13.07"/>
<text text-anchor="middle" x="162.12" y="-3" font-family="monospace" font-size="10.00">uses</text>
</g>
</g>
</svg>
