<?xml version="1.0" encoding="UTF-8" standalone="no"?>
<!DOCTYPE svg PUBLIC "-//W3C//DTD SVG 1.1//EN"
 "http://www.w3.org/Graphics/SVG/1.1/DTD/svg11.dtd">
<!-- Generated by graphviz version 4.0.0 (0)
 -->
<!-- Pages: 1 -->
<svg width="1323pt" height="1213pt"
 viewBox="0.00 0.00 1323.43 1212.67" xmlns="http://www.w3.org/2000/svg" xmlns:xlink="http://www.w3.org/1999/xlink">
<g id="graph0" class="graph" transform="scale(1 1) rotate(0) translate(28.8 1183.87)">
<polygon fill="white" stroke="transparent" points="-28.8,28.8 -28.8,-1183.87 1294.63,-1183.87 1294.63,28.8 -28.8,28.8"/>
<text text-anchor="middle" x="632.91" y="-1122.27" font-family="Helvetica,sans-Serif" font-size="36.00">lightning_origin_demuxer</text>
<!-- lightning_origin_demuxer -->
<g id="node1" class="node">
<title>lightning_origin_demuxer</title>
<polygon fill="#5397c8" stroke="black" points="439.56,-653.64 439.56,-691.64 600.56,-691.64 600.56,-653.64 439.56,-653.64"/>
<text text-anchor="middle" x="520.06" y="-679.64" font-family="monospace" font-size="10.00">crate</text>
<polyline fill="none" stroke="black" points="439.56,-672.64 600.56,-672.64 "/>
<text text-anchor="middle" x="520.06" y="-660.64" font-family="monospace" font-size="10.00">lightning_origin_demuxer</text>
</g>
<!-- lightning_origin_demuxer::OriginDemuxer -->
<g id="node2" class="node">
<title>lightning_origin_demuxer::OriginDemuxer</title>
<polygon fill="#81c169" stroke="black" points="751.03,-852.98 751.03,-890.98 846.03,-890.98 846.03,-852.98 751.03,-852.98"/>
<text text-anchor="middle" x="798.53" y="-878.98" font-family="monospace" font-size="10.00">pub struct</text>
<polyline fill="none" stroke="black" points="751.03,-871.98 846.03,-871.98 "/>
<text text-anchor="middle" x="798.53" y="-859.98" font-family="monospace" font-size="10.00">OriginDemuxer</text>
</g>
<!-- lightning_origin_demuxer&#45;&gt;lightning_origin_demuxer::OriginDemuxer -->
<g id="edge1" class="edge">
<title>lightning_origin_demuxer&#45;&gt;lightning_origin_demuxer::OriginDemuxer</title>
<path fill="none" stroke="#000000" d="M546.76,-691.75C597.39,-728 707.31,-806.68 763.67,-847.02"/>
<polygon fill="#000000" stroke="#000000" points="761.74,-849.95 771.91,-852.92 765.81,-844.26 761.74,-849.95"/>
<text text-anchor="middle" x="642.71" y="-772.39" font-family="monospace" font-size="10.00">owns</text>
</g>
<!-- lightning_origin_demuxer::Status -->
<g id="node9" class="node">
<title>lightning_origin_demuxer::Status</title>
<polygon fill="#f8c04c" stroke="black" points="273.94,-714.66 273.94,-752.66 380.94,-752.66 380.94,-714.66 273.94,-714.66"/>
<text text-anchor="middle" x="327.44" y="-740.66" font-family="monospace" font-size="10.00">pub(crate) enum</text>
<polyline fill="none" stroke="black" points="273.94,-733.66 380.94,-733.66 "/>
<text text-anchor="middle" x="327.44" y="-721.66" font-family="monospace" font-size="10.00">Status</text>
</g>
<!-- lightning_origin_demuxer&#45;&gt;lightning_origin_demuxer::Status -->
<g id="edge2" class="edge">
<title>lightning_origin_demuxer&#45;&gt;lightning_origin_demuxer::Status</title>
<path fill="none" stroke="#000000" d="M459.91,-691.7C437.89,-698.67 412.92,-706.58 390.64,-713.64"/>
<polygon fill="#000000" stroke="#000000" points="389.42,-710.35 380.95,-716.71 391.54,-717.03 389.42,-710.35"/>
<text text-anchor="middle" x="412.77" y="-705.67" font-family="monospace" font-size="10.00">owns</text>
</g>
<!-- lightning_origin_demuxer::config::Config -->
<g id="node10" class="node">
<title>lightning_origin_demuxer::config::Config</title>
<polygon fill="#81c169" stroke="black" points="592.3,-511.99 592.3,-549.99 693.3,-549.99 693.3,-511.99 592.3,-511.99"/>
<text text-anchor="middle" x="642.8" y="-537.99" font-family="monospace" font-size="10.00">pub struct</text>
<polyline fill="none" stroke="black" points="592.3,-530.99 693.3,-530.99 "/>
<text text-anchor="middle" x="642.8" y="-518.99" font-family="monospace" font-size="10.00">config::Config</text>
</g>
<!-- lightning_origin_demuxer&#45;&gt;lightning_origin_demuxer::config::Config -->
<g id="edge3" class="edge">
<title>lightning_origin_demuxer&#45;&gt;lightning_origin_demuxer::config::Config</title>
<path fill="none" stroke="#000000" d="M567.91,-653.44C597.29,-628.6 630.2,-587.85 642.11,-559.49"/>
<polygon fill="#000000" stroke="#000000" points="645.42,-560.62 645.4,-550.02 638.81,-558.32 645.42,-560.62"/>
<text text-anchor="middle" x="592.51" y="-609.46" font-family="monospace" font-size="10.00">owns</text>
</g>
<!-- lightning_origin_demuxer&#45;&gt;lightning_origin_demuxer::config::Config -->
<g id="edge4" class="edge">
<title>lightning_origin_demuxer&#45;&gt;lightning_origin_demuxer::config::Config</title>
<path fill="none" stroke="#7f7f7f" stroke-dasharray="5,2" d="M517.52,-653.39C524.46,-627.53 556.66,-585.06 587.34,-556.9"/>
<polygon fill="#7f7f7f" stroke="#7f7f7f" points="589.91,-559.31 595.09,-550.07 585.28,-554.06 589.91,-559.31"/>
<text text-anchor="middle" x="539.93" y="-608.15" font-family="monospace" font-size="10.00">uses</text>
</g>
<!-- lightning_origin_demuxer::demuxer::Demuxer -->
<g id="node11" class="node">
<title>lightning_origin_demuxer::demuxer::Demuxer</title>
<polygon fill="#81c169" stroke="black" points="270.94,-309.32 270.94,-347.32 383.94,-347.32 383.94,-309.32 270.94,-309.32"/>
<text text-anchor="middle" x="327.44" y="-335.32" font-family="monospace" font-size="10.00">pub struct</text>
<polyline fill="none" stroke="black" points="270.94,-328.32 383.94,-328.32 "/>
<text text-anchor="middle" x="327.44" y="-316.32" font-family="monospace" font-size="10.00">demuxer::Demuxer</text>
</g>
<!-- lightning_origin_demuxer&#45;&gt;lightning_origin_demuxer::demuxer::Demuxer -->
<g id="edge5" class="edge">
<title>lightning_origin_demuxer&#45;&gt;lightning_origin_demuxer::demuxer::Demuxer</title>
<path fill="none" stroke="#000000" d="M522.4,-653.61C511.14,-595.12 416.83,-422.56 362.09,-355.12"/>
<polygon fill="#000000" stroke="#000000" points="364.74,-352.83 355.62,-347.43 359.38,-357.34 364.74,-352.83"/>
<text text-anchor="middle" x="429.75" y="-507.36" font-family="monospace" font-size="10.00">owns</text>
</g>
<!-- lightning_origin_demuxer&#45;&gt;lightning_origin_demuxer::demuxer::Demuxer -->
<g id="edge6" class="edge">
<title>lightning_origin_demuxer&#45;&gt;lightning_origin_demuxer::demuxer::Demuxer</title>
<path fill="none" stroke="#7f7f7f" stroke-dasharray="5,2" d="M491.97,-653.63C441.26,-595.86 346.87,-426.37 327.52,-357.37"/>
<polygon fill="#7f7f7f" stroke="#7f7f7f" points="330.9,-356.46 325.14,-347.56 324.09,-358.11 330.9,-356.46"/>
<text text-anchor="middle" x="397.24" y="-508.5" font-family="monospace" font-size="10.00">uses</text>
</g>
<!-- lightning_origin_demuxer::OriginDemuxer::Config -->
<g id="node3" class="node">
<title>lightning_origin_demuxer::OriginDemuxer::Config</title>
<polygon fill="#f8c04c" stroke="black" points="594.53,-324.89 594.53,-362.89 737.53,-362.89 737.53,-324.89 594.53,-324.89"/>
<text text-anchor="middle" x="666.03" y="-350.89" font-family="monospace" font-size="10.00">pub(crate) type</text>
<polyline fill="none" stroke="black" points="594.53,-343.89 737.53,-343.89 "/>
<text text-anchor="middle" x="666.03" y="-331.89" font-family="monospace" font-size="10.00">OriginDemuxer::Config</text>
</g>
<!-- lightning_origin_demuxer::OriginDemuxer&#45;&gt;lightning_origin_demuxer::OriginDemuxer::Config -->
<g id="edge7" class="edge">
<title>lightning_origin_demuxer::OriginDemuxer&#45;&gt;lightning_origin_demuxer::OriginDemuxer::Config</title>
<path fill="none" stroke="#000000" d="M793.73,-852.87C773.79,-773.38 697.31,-468.56 673.29,-372.83"/>
<polygon fill="#000000" stroke="#000000" points="676.65,-371.82 670.82,-362.97 669.86,-373.52 676.65,-371.82"/>
<text text-anchor="middle" x="721.01" y="-615.85" font-family="monospace" font-size="10.00">owns</text>
</g>
<!-- lightning_origin_demuxer::OriginDemuxer::get_socket -->
<g id="node4" class="node">
<title>lightning_origin_demuxer::OriginDemuxer::get_socket</title>
<polygon fill="#f8c04c" stroke="black" points="1098.83,-670.41 1098.83,-708.41 1265.83,-708.41 1265.83,-670.41 1098.83,-670.41"/>
<text text-anchor="middle" x="1182.33" y="-696.41" font-family="monospace" font-size="10.00">pub(crate) fn</text>
<polyline fill="none" stroke="black" points="1098.83,-689.41 1265.83,-689.41 "/>
<text text-anchor="middle" x="1182.33" y="-677.41" font-family="monospace" font-size="10.00">OriginDemuxer::get_socket</text>
</g>
<!-- lightning_origin_demuxer::OriginDemuxer&#45;&gt;lightning_origin_demuxer::OriginDemuxer::get_socket -->
<g id="edge8" class="edge">
<title>lightning_origin_demuxer::OriginDemuxer&#45;&gt;lightning_origin_demuxer::OriginDemuxer::get_socket</title>
<path fill="none" stroke="#000000" d="M846.33,-868.46C931.12,-843.36 1103.37,-760.35 1162.4,-714.91"/>
<polygon fill="#000000" stroke="#000000" points="1164.73,-717.52 1170.26,-708.49 1160.3,-712.1 1164.73,-717.52"/>
<text text-anchor="middle" x="991.87" y="-794.68" font-family="monospace" font-size="10.00">owns</text>
</g>
<!-- lightning_origin_demuxer::OriginDemuxer::init -->
<g id="node5" class="node">
<title>lightning_origin_demuxer::OriginDemuxer::init</title>
<polygon fill="#f8c04c" stroke="black" points="703.46,-371.89 703.46,-409.89 834.46,-409.89 834.46,-371.89 703.46,-371.89"/>
<text text-anchor="middle" x="768.96" y="-397.89" font-family="monospace" font-size="10.00">pub(crate) fn</text>
<polyline fill="none" stroke="black" points="703.46,-390.89 834.46,-390.89 "/>
<text text-anchor="middle" x="768.96" y="-378.89" font-family="monospace" font-size="10.00">OriginDemuxer::init</text>
</g>
<!-- lightning_origin_demuxer::OriginDemuxer&#45;&gt;lightning_origin_demuxer::OriginDemuxer::init -->
<g id="edge9" class="edge">
<title>lightning_origin_demuxer::OriginDemuxer&#45;&gt;lightning_origin_demuxer::OriginDemuxer::init</title>
<path fill="none" stroke="#000000" d="M808.62,-852.72C824.17,-778.24 808.47,-508.82 784.62,-419.72"/>
<polygon fill="#000000" stroke="#000000" points="787.94,-418.6 781.74,-410 781.22,-420.59 787.94,-418.6"/>
<text text-anchor="middle" x="784.12" y="-639.22" font-family="monospace" font-size="10.00">owns</text>
</g>
<!-- lightning_origin_demuxer::OriginDemuxer::is_running -->
<g id="node6" class="node">
<title>lightning_origin_demuxer::OriginDemuxer::is_running</title>
<polygon fill="#f8c04c" stroke="black" points="927.53,-936.95 927.53,-974.95 1094.53,-974.95 1094.53,-936.95 927.53,-936.95"/>
<text text-anchor="middle" x="1011.03" y="-962.95" font-family="monospace" font-size="10.00">pub(crate) fn</text>
<polyline fill="none" stroke="black" points="927.53,-955.95 1094.53,-955.95 "/>
<text text-anchor="middle" x="1011.03" y="-943.95" font-family="monospace" font-size="10.00">OriginDemuxer::is_running</text>
</g>
<!-- lightning_origin_demuxer::OriginDemuxer&#45;&gt;lightning_origin_demuxer::OriginDemuxer::is_running -->
<g id="edge10" class="edge">
<title>lightning_origin_demuxer::OriginDemuxer&#45;&gt;lightning_origin_demuxer::OriginDemuxer::is_running</title>
<path fill="none" stroke="#000000" d="M807.52,-891C827.18,-909.71 873.96,-932.52 917.78,-947.53"/>
<polygon fill="#000000" stroke="#000000" points="916.78,-950.89 927.37,-950.71 918.98,-944.24 916.78,-950.89"/>
<text text-anchor="middle" x="850.15" y="-922.27" font-family="monospace" font-size="10.00">owns</text>
</g>
<!-- lightning_origin_demuxer::OriginDemuxer::shutdown -->
<g id="node7" class="node">
<title>lightning_origin_demuxer::OriginDemuxer::shutdown</title>
<polygon fill="#f8c04c" stroke="black" points="645.33,-1068.57 645.33,-1106.57 800.33,-1106.57 800.33,-1068.57 645.33,-1068.57"/>
<text text-anchor="middle" x="722.83" y="-1094.57" font-family="monospace" font-size="10.00">pub(crate) async fn</text>
<polyline fill="none" stroke="black" points="645.33,-1087.57 800.33,-1087.57 "/>
<text text-anchor="middle" x="722.83" y="-1075.57" font-family="monospace" font-size="10.00">OriginDemuxer::shutdown</text>
</g>
<!-- lightning_origin_demuxer::OriginDemuxer&#45;&gt;lightning_origin_demuxer::OriginDemuxer::shutdown -->
<g id="edge11" class="edge">
<title>lightning_origin_demuxer::OriginDemuxer&#45;&gt;lightning_origin_demuxer::OriginDemuxer::shutdown</title>
<path fill="none" stroke="#000000" d="M772.62,-891.14C746.5,-929.21 717.16,-1013.27 714.46,-1058.27"/>
<polygon fill="#000000" stroke="#000000" points="710.96,-1058.25 714.34,-1068.29 717.96,-1058.34 710.96,-1058.25"/>
<text text-anchor="middle" x="731.04" y="-977.7" font-family="monospace" font-size="10.00">owns</text>
</g>
<!-- lightning_origin_demuxer::OriginDemuxer::start -->
<g id="node8" class="node">
<title>lightning_origin_demuxer::OriginDemuxer::start</title>
<polygon fill="#f8c04c" stroke="black" points="340.71,-1023.48 340.71,-1061.48 477.71,-1061.48 477.71,-1023.48 340.71,-1023.48"/>
<text text-anchor="middle" x="409.21" y="-1049.48" font-family="monospace" font-size="10.00">pub(crate) async fn</text>
<polyline fill="none" stroke="black" points="340.71,-1042.48 477.71,-1042.48 "/>
<text text-anchor="middle" x="409.21" y="-1030.48" font-family="monospace" font-size="10.00">OriginDemuxer::start</text>
</g>
<!-- lightning_origin_demuxer::OriginDemuxer&#45;&gt;lightning_origin_demuxer::OriginDemuxer::start -->
<g id="edge12" class="edge">
<title>lightning_origin_demuxer::OriginDemuxer&#45;&gt;lightning_origin_demuxer::OriginDemuxer::start</title>
<path fill="none" stroke="#000000" d="M750.64,-874.01C665.5,-896.34 491.97,-973.31 430.78,-1017"/>
<polygon fill="#000000" stroke="#000000" points="428.45,-1014.37 422.59,-1023.19 432.67,-1019.95 428.45,-1014.37"/>
<text text-anchor="middle" x="578.21" y="-948.5" font-family="monospace" font-size="10.00">owns</text>
</g>
<!-- lightning_origin_demuxer::OriginDemuxer::Config&#45;&gt;lightning_origin_demuxer::config::Config -->
<g id="edge13" class="edge">
<title>lightning_origin_demuxer::OriginDemuxer::Config&#45;&gt;lightning_origin_demuxer::config::Config</title>
<path fill="none" stroke="#7f7f7f" stroke-dasharray="5,2" d="M663.63,-363.21C659.55,-396.06 651.24,-463.02 646.44,-501.67"/>
<polygon fill="#7f7f7f" stroke="#7f7f7f" points="642.95,-501.42 645.19,-511.77 649.89,-502.28 642.95,-501.42"/>
<text text-anchor="middle" x="642.54" y="-435.44" font-family="monospace" font-size="10.00">uses</text>
</g>
<!-- lightning_origin_demuxer::OriginDemuxer::get_socket&#45;&gt;lightning_origin_demuxer::OriginDemuxer -->
<g id="edge14" class="edge">
<title>lightning_origin_demuxer::OriginDemuxer::get_socket&#45;&gt;lightning_origin_demuxer::OriginDemuxer</title>
<path fill="none" stroke="#7f7f7f" stroke-dasharray="5,2" d="M1098.47,-705.07C1007.77,-738.51 869.66,-806.96 818.26,-846.62"/>
<polygon fill="#7f7f7f" stroke="#7f7f7f" points="816.03,-843.93 810.51,-852.97 820.47,-849.34 816.03,-843.93"/>
<text text-anchor="middle" x="945.87" y="-778.85" font-family="monospace" font-size="10.00">uses</text>
</g>
<!-- lightning_origin_demuxer::OriginDemuxer::init&#45;&gt;lightning_origin_demuxer::OriginDemuxer -->
<g id="edge15" class="edge">
<title>lightning_origin_demuxer::OriginDemuxer::init&#45;&gt;lightning_origin_demuxer::OriginDemuxer</title>
<path fill="none" stroke="#7f7f7f" stroke-dasharray="5,2" d="M758.86,-410.15C743.32,-484.63 759.01,-754.05 782.87,-843.16"/>
<polygon fill="#7f7f7f" stroke="#7f7f7f" points="779.55,-844.27 785.74,-852.87 786.26,-842.29 779.55,-844.27"/>
<text text-anchor="middle" x="758.37" y="-629.65" font-family="monospace" font-size="10.00">uses</text>
</g>
<!-- lightning_origin_demuxer::OriginDemuxer::init&#45;&gt;lightning_origin_demuxer::Status -->
<g id="edge16" class="edge">
<title>lightning_origin_demuxer::OriginDemuxer::init&#45;&gt;lightning_origin_demuxer::Status</title>
<path fill="none" stroke="#7f7f7f" stroke-dasharray="5,2" d="M744.27,-410.06C669.32,-468.25 444.32,-642.92 359.91,-708.45"/>
<polygon fill="#7f7f7f" stroke="#7f7f7f" points="357.71,-705.73 351.95,-714.63 362,-711.26 357.71,-705.73"/>
<text text-anchor="middle" x="539.59" y="-562.25" font-family="monospace" font-size="10.00">uses</text>
</g>
<!-- lightning_origin_demuxer::OriginDemuxer::init&#45;&gt;lightning_origin_demuxer::config::Config -->
<g id="edge17" class="edge">
<title>lightning_origin_demuxer::OriginDemuxer::init&#45;&gt;lightning_origin_demuxer::config::Config</title>
<path fill="none" stroke="#7f7f7f" stroke-dasharray="5,2" d="M751.68,-410.08C729.81,-434.36 692.02,-476.33 667.21,-503.88"/>
<polygon fill="#7f7f7f" stroke="#7f7f7f" points="664.37,-501.81 660.27,-511.58 669.57,-506.5 664.37,-501.81"/>
<text text-anchor="middle" x="696.95" y="-459.98" font-family="monospace" font-size="10.00">uses</text>
</g>
<!-- lightning_origin_demuxer::OriginDemuxer::init&#45;&gt;lightning_origin_demuxer::demuxer::Demuxer -->
<g id="edge18" class="edge">
<title>lightning_origin_demuxer::OriginDemuxer::init&#45;&gt;lightning_origin_demuxer::demuxer::Demuxer</title>
<path fill="none" stroke="#7f7f7f" stroke-dasharray="5,2" d="M703.33,-381.59C620.2,-369.81 477.72,-349.62 394.1,-337.77"/>
<polygon fill="#7f7f7f" stroke="#7f7f7f" points="394.35,-334.27 383.95,-336.33 393.36,-341.2 394.35,-334.27"/>
<text text-anchor="middle" x="536.22" y="-362.68" font-family="monospace" font-size="10.00">uses</text>
</g>
<!-- lightning_origin_demuxer::OriginDemuxer::is_running&#45;&gt;lightning_origin_demuxer::OriginDemuxer -->
<g id="edge19" class="edge">
<title>lightning_origin_demuxer::OriginDemuxer::is_running&#45;&gt;lightning_origin_demuxer::OriginDemuxer</title>
<path fill="none" stroke="#7f7f7f" stroke-dasharray="5,2" d="M1002.04,-936.93C976.83,-912.94 907.05,-882.22 856.07,-869.81"/>
<polygon fill="#7f7f7f" stroke="#7f7f7f" points="856.67,-866.36 846.14,-867.58 855.13,-873.19 856.67,-866.36"/>
<text text-anchor="middle" x="916.56" y="-906.37" font-family="monospace" font-size="10.00">uses</text>
</g>
<!-- lightning_origin_demuxer::OriginDemuxer::shutdown&#45;&gt;lightning_origin_demuxer::OriginDemuxer -->
<g id="edge20" class="edge">
<title>lightning_origin_demuxer::OriginDemuxer::shutdown&#45;&gt;lightning_origin_demuxer::OriginDemuxer</title>
<path fill="none" stroke="#7f7f7f" stroke-dasharray="5,2" d="M748.73,-1068.41C774.85,-1030.34 804.2,-946.28 806.9,-901.28"/>
<polygon fill="#7f7f7f" stroke="#7f7f7f" points="810.4,-901.29 807.02,-891.25 803.4,-901.21 810.4,-901.29"/>
<text text-anchor="middle" x="765.31" y="-987.84" font-family="monospace" font-size="10.00">uses</text>
</g>
<!-- lightning_origin_demuxer::OriginDemuxer::shutdown&#45;&gt;lightning_origin_demuxer::Status -->
<g id="edge21" class="edge">
<title>lightning_origin_demuxer::OriginDemuxer::shutdown&#45;&gt;lightning_origin_demuxer::Status</title>
<path fill="none" stroke="#7f7f7f" stroke-dasharray="5,2" d="M701.57,-1068.54C635.33,-1009.25 432.56,-827.75 356.59,-759.75"/>
<polygon fill="#7f7f7f" stroke="#7f7f7f" points="358.59,-756.84 348.81,-752.78 353.92,-762.06 358.59,-756.84"/>
<text text-anchor="middle" x="516.58" y="-917.14" font-family="monospace" font-size="10.00">uses</text>
</g>
<!-- lightning_origin_demuxer::OriginDemuxer::shutdown&#45;&gt;lightning_origin_demuxer::demuxer::Demuxer -->
<g id="edge22" class="edge">
<title>lightning_origin_demuxer::OriginDemuxer::shutdown&#45;&gt;lightning_origin_demuxer::demuxer::Demuxer</title>
<path fill="none" stroke="#7f7f7f" stroke-dasharray="5,2" d="M712.85,-1068.42C659.33,-965.64 406.15,-479.46 342.16,-356.58"/>
<polygon fill="#7f7f7f" stroke="#7f7f7f" points="345.11,-354.67 337.39,-347.41 338.9,-357.9 345.11,-354.67"/>
<text text-anchor="middle" x="515.01" y="-715.5" font-family="monospace" font-size="10.00">uses</text>
</g>
<!-- lightning_origin_demuxer::OriginDemuxer::start&#45;&gt;lightning_origin_demuxer::OriginDemuxer -->
<g id="edge23" class="edge">
<title>lightning_origin_demuxer::OriginDemuxer::start&#45;&gt;lightning_origin_demuxer::OriginDemuxer</title>
<path fill="none" stroke="#7f7f7f" stroke-dasharray="5,2" d="M477.72,-1034.52C567.74,-1006.72 720.54,-937.79 777.05,-897.39"/>
<polygon fill="#7f7f7f" stroke="#7f7f7f" points="779.42,-899.99 785.27,-891.17 775.19,-894.42 779.42,-899.99"/>
<text text-anchor="middle" x="614.89" y="-968.96" font-family="monospace" font-size="10.00">uses</text>
</g>
<!-- lightning_origin_demuxer::OriginDemuxer::start&#45;&gt;lightning_origin_demuxer::Status -->
<g id="edge24" class="edge">
<title>lightning_origin_demuxer::OriginDemuxer::start&#45;&gt;lightning_origin_demuxer::Status</title>
<path fill="none" stroke="#7f7f7f" stroke-dasharray="5,2" d="M404.1,-1023.16C390.22,-970.73 351.77,-825.53 335.2,-762.96"/>
<polygon fill="#7f7f7f" stroke="#7f7f7f" points="338.5,-761.74 332.56,-752.97 331.73,-763.53 338.5,-761.74"/>
<text text-anchor="middle" x="357.15" y="-896.06" font-family="monospace" font-size="10.00">uses</text>
</g>
<!-- lightning_origin_demuxer::OriginDemuxer::start&#45;&gt;lightning_origin_demuxer::demuxer::Demuxer -->
<g id="edge25" class="edge">
<title>lightning_origin_demuxer::OriginDemuxer::start&#45;&gt;lightning_origin_demuxer::demuxer::Demuxer</title>
<path fill="none" stroke="#7f7f7f" stroke-dasharray="5,2" d="M407.03,-1023.37C395.78,-925.18 344.49,-477.2 330.81,-357.69"/>
<polygon fill="#7f7f7f" stroke="#7f7f7f" points="334.25,-357.02 329.64,-347.48 327.3,-357.81 334.25,-357.02"/>
<text text-anchor="middle" x="356.42" y="-693.53" font-family="monospace" font-size="10.00">uses</text>
</g>
<!-- lightning_origin_demuxer::Status&#45;&gt;lightning_origin_demuxer::demuxer::Demuxer -->
<g id="edge26" class="edge">
<title>lightning_origin_demuxer::Status&#45;&gt;lightning_origin_demuxer::demuxer::Demuxer</title>
<path fill="none" stroke="#7f7f7f" stroke-dasharray="5,2" d="M327.44,-714.65C327.44,-649.77 327.44,-436.73 327.44,-357.95"/>
<polygon fill="#7f7f7f" stroke="#7f7f7f" points="330.94,-357.76 327.44,-347.76 323.94,-357.76 330.94,-357.76"/>
<text text-anchor="middle" x="314.94" y="-539.3" font-family="monospace" font-size="10.00">uses</text>
</g>
<!-- lightning_origin_demuxer::demuxer::Demuxer::handle -->
<g id="node12" class="node">
<title>lightning_origin_demuxer::demuxer::Demuxer::handle</title>
<polygon fill="#db5367" stroke="black" points="0,-511.99 0,-549.99 161,-549.99 161,-511.99 0,-511.99"/>
<text text-anchor="middle" x="80.5" y="-537.99" font-family="monospace" font-size="10.00">pub(self) fn</text>
<polyline fill="none" stroke="black" points="0,-530.99 161,-530.99 "/>
<text text-anchor="middle" x="80.5" y="-518.99" font-family="monospace" font-size="10.00">demuxer::Demuxer::handle</text>
</g>
<!-- lightning_origin_demuxer::demuxer::Demuxer&#45;&gt;lightning_origin_demuxer::demuxer::Demuxer::handle -->
<g id="edge27" class="edge">
<title>lightning_origin_demuxer::demuxer::Demuxer&#45;&gt;lightning_origin_demuxer::demuxer::Demuxer::handle</title>
<path fill="none" stroke="#000000" d="M271.06,-347.34C210.86,-384.47 121.26,-460.45 90.14,-503.18"/>
<polygon fill="#000000" stroke="#000000" points="87.05,-501.51 84.42,-511.77 92.88,-505.39 87.05,-501.51"/>
<text text-anchor="middle" x="168.1" y="-428.26" font-family="monospace" font-size="10.00">owns</text>
</g>
<!-- lightning_origin_demuxer::demuxer::Demuxer::new -->
<g id="node13" class="node">
<title>lightning_origin_demuxer::demuxer::Demuxer::new</title>
<polygon fill="#81c169" stroke="black" points="751.14,-459.18 751.14,-497.18 894.14,-497.18 894.14,-459.18 751.14,-459.18"/>
<text text-anchor="middle" x="822.64" y="-485.18" font-family="monospace" font-size="10.00">pub fn</text>
<polyline fill="none" stroke="black" points="751.14,-478.18 894.14,-478.18 "/>
<text text-anchor="middle" x="822.64" y="-466.18" font-family="monospace" font-size="10.00">demuxer::Demuxer::new</text>
</g>
<!-- lightning_origin_demuxer::demuxer::Demuxer&#45;&gt;lightning_origin_demuxer::demuxer::Demuxer::new -->
<g id="edge28" class="edge">
<title>lightning_origin_demuxer::demuxer::Demuxer&#45;&gt;lightning_origin_demuxer::demuxer::Demuxer::new</title>
<path fill="none" stroke="#000000" d="M347.72,-347.45C413.66,-384.52 623.22,-450.62 740.8,-474.43"/>
<polygon fill="#000000" stroke="#000000" points="740.35,-477.91 750.84,-476.4 741.7,-471.04 740.35,-477.91"/>
<text text-anchor="middle" x="531.76" y="-413.94" font-family="monospace" font-size="10.00">owns</text>
</g>
<!-- lightning_origin_demuxer::demuxer::Demuxer::spawn -->
<g id="node14" class="node">
<title>lightning_origin_demuxer::demuxer::Demuxer::spawn</title>
<polygon fill="#81c169" stroke="black" points="92.26,-207.98 92.26,-245.98 247.26,-245.98 247.26,-207.98 92.26,-207.98"/>
<text text-anchor="middle" x="169.76" y="-233.98" font-family="monospace" font-size="10.00">pub fn</text>
<polyline fill="none" stroke="black" points="92.26,-226.98 247.26,-226.98 "/>
<text text-anchor="middle" x="169.76" y="-214.98" font-family="monospace" font-size="10.00">demuxer::Demuxer::spawn</text>
</g>
<!-- lightning_origin_demuxer::demuxer::Demuxer&#45;&gt;lightning_origin_demuxer::demuxer::Demuxer::spawn -->
<g id="edge29" class="edge">
<title>lightning_origin_demuxer::demuxer::Demuxer&#45;&gt;lightning_origin_demuxer::demuxer::Demuxer::spawn</title>
<path fill="none" stroke="#000000" d="M324.46,-309.13C313.7,-291.49 285.71,-268.6 256.32,-250.62"/>
<polygon fill="#000000" stroke="#000000" points="257.98,-247.54 247.59,-245.45 254.41,-253.56 257.98,-247.54"/>
<text text-anchor="middle" x="277.89" y="-282.88" font-family="monospace" font-size="10.00">owns</text>
</g>
<!-- lightning_origin_demuxer::demuxer::Demuxer::start -->
<g id="node15" class="node">
<title>lightning_origin_demuxer::demuxer::Demuxer::start</title>
<polygon fill="#db5367" stroke="black" points="331.71,-0.5 331.71,-38.5 486.71,-38.5 486.71,-0.5 331.71,-0.5"/>
<text text-anchor="middle" x="409.21" y="-26.5" font-family="monospace" font-size="10.00">pub(self) async fn</text>
<polyline fill="none" stroke="black" points="331.71,-19.5 486.71,-19.5 "/>
<text text-anchor="middle" x="409.21" y="-7.5" font-family="monospace" font-size="10.00">demuxer::Demuxer::start</text>
</g>
<!-- lightning_origin_demuxer::demuxer::Demuxer&#45;&gt;lightning_origin_demuxer::demuxer::Demuxer::start -->
<g id="edge30" class="edge">
<title>lightning_origin_demuxer::demuxer::Demuxer&#45;&gt;lightning_origin_demuxer::demuxer::Demuxer::start</title>
<path fill="none" stroke="#000000" d="M348.18,-308.97C378.33,-256.36 416.87,-111.55 417.65,-48.86"/>
<polygon fill="#000000" stroke="#000000" points="421.15,-48.75 417.39,-38.84 414.15,-48.93 421.15,-48.75"/>
<text text-anchor="middle" x="370.41" y="-181.92" font-family="monospace" font-size="10.00">owns</text>
</g>
<!-- lightning_origin_demuxer::demuxer::Demuxer::handle&#45;&gt;lightning_origin_demuxer::demuxer::Demuxer -->
<g id="edge31" class="edge">
<title>lightning_origin_demuxer::demuxer::Demuxer::handle&#45;&gt;lightning_origin_demuxer::demuxer::Demuxer</title>
<path fill="none" stroke="#7f7f7f" stroke-dasharray="5,2" d="M136.88,-511.97C197.08,-474.84 286.68,-398.85 317.8,-356.12"/>
<polygon fill="#7f7f7f" stroke="#7f7f7f" points="320.89,-357.8 323.53,-347.54 315.07,-353.92 320.89,-357.8"/>
<text text-anchor="middle" x="214.84" y="-437.05" font-family="monospace" font-size="10.00">uses</text>
</g>
<!-- lightning_origin_demuxer::demuxer::Demuxer::new&#45;&gt;lightning_origin_demuxer::config::Config -->
<g id="edge32" class="edge">
<title>lightning_origin_demuxer::demuxer::Demuxer::new&#45;&gt;lightning_origin_demuxer::config::Config</title>
<path fill="none" stroke="#7f7f7f" stroke-dasharray="5,2" d="M757.72,-497.25C740.05,-502.43 720.99,-508.03 703.57,-513.14"/>
<polygon fill="#7f7f7f" stroke="#7f7f7f" points="702.14,-509.92 693.53,-516.09 704.11,-516.63 702.14,-509.92"/>
<text text-anchor="middle" x="718.14" y="-508.2" font-family="monospace" font-size="10.00">uses</text>
</g>
<!-- lightning_origin_demuxer::demuxer::Demuxer::new&#45;&gt;lightning_origin_demuxer::demuxer::Demuxer -->
<g id="edge33" class="edge">
<title>lightning_origin_demuxer::demuxer::Demuxer::new&#45;&gt;lightning_origin_demuxer::demuxer::Demuxer</title>
<path fill="none" stroke="#7f7f7f" stroke-dasharray="5,2" d="M802.36,-459.05C733.52,-420.34 508.1,-350 394.29,-329.17"/>
<polygon fill="#7f7f7f" stroke="#7f7f7f" points="394.75,-325.7 384.3,-327.42 393.55,-332.59 394.75,-325.7"/>
<text text-anchor="middle" x="585.83" y="-397.11" font-family="monospace" font-size="10.00">uses</text>
</g>
<!-- lightning_origin_demuxer::demuxer::Demuxer::spawn&#45;&gt;lightning_origin_demuxer::demuxer::Demuxer -->
<g id="edge34" class="edge">
<title>lightning_origin_demuxer::demuxer::Demuxer::spawn&#45;&gt;lightning_origin_demuxer::demuxer::Demuxer</title>
<path fill="none" stroke="#7f7f7f" stroke-dasharray="5,2" d="M172.75,-246.17C186.03,-267.95 225.55,-297.72 261.57,-316.38"/>
<polygon fill="#7f7f7f" stroke="#7f7f7f" points="260.12,-319.56 270.64,-320.87 263.23,-313.29 260.12,-319.56"/>
<text text-anchor="middle" x="204.66" y="-284.27" font-family="monospace" font-size="10.00">uses</text>
</g>
<!-- lightning_origin_demuxer::demuxer::Demuxer::start&#45;&gt;lightning_origin_demuxer::demuxer::Demuxer -->
<g id="edge35" class="edge">
<title>lightning_origin_demuxer::demuxer::Demuxer::start&#45;&gt;lightning_origin_demuxer::demuxer::Demuxer</title>
<path fill="none" stroke="#7f7f7f" stroke-dasharray="5,2" d="M388.48,-38.85C358.33,-91.46 319.78,-236.27 319.01,-298.96"/>
<polygon fill="#7f7f7f" stroke="#7f7f7f" points="315.51,-299.07 319.26,-308.98 322.51,-298.89 315.51,-299.07"/>
<text text-anchor="middle" x="341.24" y="-171.9" font-family="monospace" font-size="10.00">uses</text>
</g>
</g>
</svg>
