<?xml version="1.0" encoding="UTF-8" standalone="no"?>
<!DOCTYPE svg PUBLIC "-//W3C//DTD SVG 1.1//EN"
 "http://www.w3.org/Graphics/SVG/1.1/DTD/svg11.dtd">
<!-- Generated by graphviz version 4.0.0 (0)
 -->
<!-- Pages: 1 -->
<svg width="396pt" height="398pt"
 viewBox="0.00 0.00 395.60 397.60" xmlns="http://www.w3.org/2000/svg" xmlns:xlink="http://www.w3.org/1999/xlink">
<g id="graph0" class="graph" transform="scale(1 1) rotate(0) translate(28.8 368.8)">
<polygon fill="white" stroke="transparent" points="-28.8,28.8 -28.8,-368.8 366.8,-368.8 366.8,28.8 -28.8,28.8"/>
<text text-anchor="middle" x="169" y="-307.2" font-family="Helvetica,sans-Serif" font-size="36.00">infusion</text>
<!-- infusion -->
<g id="node1" class="node">
<title>infusion</title>
<polygon fill="#5397c8" stroke="black" points="144.02,-151.08 144.02,-189.08 209.02,-189.08 209.02,-151.08 144.02,-151.08"/>
<text text-anchor="middle" x="176.52" y="-177.08" font-family="monospace" font-size="10.00">crate</text>
<polyline fill="none" stroke="black" points="144.02,-170.08 209.02,-170.08 "/>
<text text-anchor="middle" x="176.52" y="-158.08" font-family="monospace" font-size="10.00">infusion</text>
</g>
<!-- infusion::container -->
<g id="node2" class="node">
<title>infusion::container</title>
<polygon fill="#81c169" stroke="black" points="139.15,-62 139.15,-100 270.15,-100 270.15,-62 139.15,-62"/>
<text text-anchor="middle" x="204.65" y="-88" font-family="monospace" font-size="10.00">pub mod</text>
<polyline fill="none" stroke="black" points="139.15,-81 270.15,-81 "/>
<text text-anchor="middle" x="204.65" y="-69" font-family="monospace" font-size="10.00">infusion::container</text>
</g>
<!-- infusion&#45;&gt;infusion::container -->
<g id="edge1" class="edge">
<title>infusion&#45;&gt;infusion::container</title>
<path fill="none" stroke="#000000" d="M208.78,-150.88C215.77,-138.94 220.17,-123.58 220.26,-110.2"/>
<polygon fill="#000000" stroke="#000000" points="223.73,-109.66 219.38,-100 216.75,-110.27 223.73,-109.66"/>
<text text-anchor="middle" x="202.02" y="-133.54" font-family="monospace" font-size="10.00">owns</text>
</g>
<!-- infusion&#45;&gt;infusion::container -->
<g id="edge2" class="edge">
<title>infusion&#45;&gt;infusion::container</title>
<path fill="none" stroke="#7f7f7f" stroke-dasharray="5,2" d="M161.77,-150.97C159.41,-138.72 162.05,-122.88 167.84,-109.28"/>
<polygon fill="#7f7f7f" stroke="#7f7f7f" points="170.99,-110.81 172.33,-100.3 164.73,-107.68 170.99,-110.81"/>
<text text-anchor="middle" x="152.3" y="-133.12" font-family="monospace" font-size="10.00">uses</text>
</g>
<!-- infusion::error -->
<g id="node3" class="node">
<title>infusion::error</title>
<polygon fill="#81c169" stroke="black" points="77.76,-0.71 77.76,-38.71 184.76,-38.71 184.76,-0.71 77.76,-0.71"/>
<text text-anchor="middle" x="131.26" y="-26.71" font-family="monospace" font-size="10.00">pub mod</text>
<polyline fill="none" stroke="black" points="77.76,-19.71 184.76,-19.71 "/>
<text text-anchor="middle" x="131.26" y="-7.71" font-family="monospace" font-size="10.00">infusion::error</text>
</g>
<!-- infusion&#45;&gt;infusion::error -->
<g id="edge3" class="edge">
<title>infusion&#45;&gt;infusion::error</title>
<path fill="none" stroke="#000000" d="M188.18,-150.84C191.8,-124.47 179.94,-77.65 163.78,-47.54"/>
<polygon fill="#000000" stroke="#000000" points="166.72,-45.63 158.64,-38.77 160.68,-49.17 166.72,-45.63"/>
<text text-anchor="middle" x="163.48" y="-102.19" font-family="monospace" font-size="10.00">owns</text>
</g>
<!-- infusion&#45;&gt;infusion::error -->
<g id="edge4" class="edge">
<title>infusion&#45;&gt;infusion::error</title>
<path fill="none" stroke="#7f7f7f" stroke-dasharray="5,2" d="M149.06,-150.9C132.44,-125.04 118.86,-79.4 118.94,-49.21"/>
<polygon fill="#7f7f7f" stroke="#7f7f7f" points="122.46,-49.06 119.61,-38.85 115.47,-48.61 122.46,-49.06"/>
<text text-anchor="middle" x="121.5" y="-103.05" font-family="monospace" font-size="10.00">uses</text>
</g>
<!-- infusion::graph -->
<g id="node4" class="node">
<title>infusion::graph</title>
<polygon fill="#81c169" stroke="black" points="29.01,-145.09 29.01,-183.09 136.01,-183.09 136.01,-145.09 29.01,-145.09"/>
<text text-anchor="middle" x="82.51" y="-171.09" font-family="monospace" font-size="10.00">pub mod</text>
<polyline fill="none" stroke="black" points="29.01,-164.09 136.01,-164.09 "/>
<text text-anchor="middle" x="82.51" y="-152.09" font-family="monospace" font-size="10.00">infusion::graph</text>
</g>
<!-- infusion&#45;&gt;infusion::graph -->
<g id="edge5" class="edge">
<title>infusion&#45;&gt;infusion::graph</title>
<path fill="none" stroke="#000000" d="M166.17,-150.93C152.2,-140.85 126.93,-137.45 107.8,-141.82"/>
<polygon fill="#000000" stroke="#000000" points="106.61,-138.53 98.18,-144.95 108.77,-145.19 106.61,-138.53"/>
<text text-anchor="middle" x="124.48" y="-138.38" font-family="monospace" font-size="10.00">owns</text>
</g>
<!-- infusion&#45;&gt;infusion::graph -->
<g id="edge6" class="edge">
<title>infusion&#45;&gt;infusion::graph</title>
<path fill="none" stroke="#7f7f7f" stroke-dasharray="5,2" d="M160.97,-189.17C144.66,-196.41 119.07,-195.69 101.57,-188.1"/>
<polygon fill="#7f7f7f" stroke="#7f7f7f" points="103.22,-185.02 92.79,-183.19 99.8,-191.12 103.22,-185.02"/>
<text text-anchor="middle" x="118.77" y="-191.63" font-family="monospace" font-size="10.00">uses</text>
</g>
<!-- infusion::macros2 -->
<g id="node5" class="node">
<title>infusion::macros2</title>
<polygon fill="#f8c04c" stroke="black" points="218.72,-170.51 218.72,-208.51 337.72,-208.51 337.72,-170.51 218.72,-170.51"/>
<text text-anchor="middle" x="278.22" y="-196.51" font-family="monospace" font-size="10.00">pub(crate) mod</text>
<polyline fill="none" stroke="black" points="218.72,-189.51 337.72,-189.51 "/>
<text text-anchor="middle" x="278.22" y="-177.51" font-family="monospace" font-size="10.00">infusion::macros2</text>
</g>
<!-- infusion&#45;&gt;infusion::macros2 -->
<g id="edge7" class="edge">
<title>infusion&#45;&gt;infusion::macros2</title>
<path fill="none" stroke="#000000" d="M209.26,-176.33C209.35,-176.35 209.45,-176.37 209.54,-176.39"/>
<polygon fill="#000000" stroke="#000000" points="208.08,-179.67 218.56,-178.11 209.39,-172.8 208.08,-179.67"/>
<text text-anchor="middle" x="221.9" y="-168.36" font-family="monospace" font-size="10.00">owns</text>
</g>
<!-- infusion::note -->
<g id="node6" class="node">
<title>infusion::note</title>
<polygon fill="#81c169" stroke="black" points="107,-253.5 107,-291.5 208,-291.5 208,-253.5 107,-253.5"/>
<text text-anchor="middle" x="157.5" y="-279.5" font-family="monospace" font-size="10.00">pub mod</text>
<polyline fill="none" stroke="black" points="107,-272.5 208,-272.5 "/>
<text text-anchor="middle" x="157.5" y="-260.5" font-family="monospace" font-size="10.00">infusion::note</text>
</g>
<!-- infusion&#45;&gt;infusion::note -->
<g id="edge8" class="edge">
<title>infusion&#45;&gt;infusion::note</title>
<path fill="none" stroke="#000000" d="M172.94,-189.35C170.13,-204.51 166.16,-225.9 162.95,-243.18"/>
<polygon fill="#000000" stroke="#000000" points="159.45,-242.85 161.06,-253.32 166.33,-244.13 159.45,-242.85"/>
<text text-anchor="middle" x="155.44" y="-219.26" font-family="monospace" font-size="10.00">owns</text>
</g>
<!-- infusion::vtable -->
<g id="node7" class="node">
<title>infusion::vtable</title>
<polygon fill="#81c169" stroke="black" points="0.17,-53.77 0.17,-91.77 113.17,-91.77 113.17,-53.77 0.17,-53.77"/>
<text text-anchor="middle" x="56.67" y="-79.77" font-family="monospace" font-size="10.00">pub mod</text>
<polyline fill="none" stroke="black" points="0.17,-72.77 113.17,-72.77 "/>
<text text-anchor="middle" x="56.67" y="-60.77" font-family="monospace" font-size="10.00">infusion::vtable</text>
</g>
<!-- infusion&#45;&gt;infusion::vtable -->
<g id="edge9" class="edge">
<title>infusion&#45;&gt;infusion::vtable</title>
<path fill="none" stroke="#000000" d="M152.84,-150.86C134.37,-135.86 108.55,-114.9 88.31,-98.46"/>
<polygon fill="#000000" stroke="#000000" points="90.27,-95.54 80.3,-91.96 85.86,-100.98 90.27,-95.54"/>
<text text-anchor="middle" x="108.08" y="-127.66" font-family="monospace" font-size="10.00">owns</text>
</g>
<!-- infusion::container&#45;&gt;infusion::error -->
<g id="edge10" class="edge">
<title>infusion::container&#45;&gt;infusion::error</title>
<path fill="none" stroke="#7f7f7f" stroke-dasharray="5,2" d="M181.83,-61.94C175.48,-56.64 168.48,-50.79 161.76,-45.18"/>
<polygon fill="#7f7f7f" stroke="#7f7f7f" points="163.98,-42.47 154.06,-38.75 159.5,-47.85 163.98,-42.47"/>
<text text-anchor="middle" x="159.3" y="-45.56" font-family="monospace" font-size="10.00">uses</text>
</g>
<!-- infusion::container&#45;&gt;infusion::graph -->
<g id="edge11" class="edge">
<title>infusion::container&#45;&gt;infusion::graph</title>
<path fill="none" stroke="#7f7f7f" stroke-dasharray="5,2" d="M176.63,-100.06C159.68,-111.59 137.88,-126.42 119.52,-138.91"/>
<polygon fill="#7f7f7f" stroke="#7f7f7f" points="117.12,-136.31 110.82,-144.82 121.06,-142.09 117.12,-136.31"/>
<text text-anchor="middle" x="135.57" y="-122.48" font-family="monospace" font-size="10.00">uses</text>
</g>
<!-- infusion::container&#45;&gt;infusion::vtable -->
<g id="edge12" class="edge">
<title>infusion::container&#45;&gt;infusion::vtable</title>
<path fill="none" stroke="#7f7f7f" stroke-dasharray="5,2" d="M188.39,-61.97C165.1,-50.72 121.72,-46.69 91.12,-51.7"/>
<polygon fill="#7f7f7f" stroke="#7f7f7f" points="90.35,-48.28 81.27,-53.74 91.78,-55.13 90.35,-48.28"/>
<text text-anchor="middle" x="127.25" y="-59.83" font-family="monospace" font-size="10.00">uses</text>
</g>
<!-- infusion::error&#45;&gt;infusion::vtable -->
<g id="edge13" class="edge">
<title>infusion::error&#45;&gt;infusion::vtable</title>
<path fill="none" stroke="#7f7f7f" stroke-dasharray="5,2" d="M104.33,-38.86C100.37,-41.69 96.23,-44.63 92.13,-47.55"/>
<polygon fill="#7f7f7f" stroke="#7f7f7f" points="89.93,-44.82 83.81,-53.46 93.99,-50.52 89.93,-44.82"/>
<text text-anchor="middle" x="110.73" y="-46.21" font-family="monospace" font-size="10.00">uses</text>
</g>
<!-- infusion::graph&#45;&gt;infusion::error -->
<g id="edge14" class="edge">
<title>infusion::graph&#45;&gt;infusion::error</title>
<path fill="none" stroke="#7f7f7f" stroke-dasharray="5,2" d="M88.98,-144.91C97.29,-120.32 111.77,-77.43 121.44,-48.8"/>
<polygon fill="#7f7f7f" stroke="#7f7f7f" points="124.88,-49.55 124.76,-38.96 118.24,-47.31 124.88,-49.55"/>
<text text-anchor="middle" x="92.71" y="-99.86" font-family="monospace" font-size="10.00">uses</text>
</g>
<!-- infusion::graph&#45;&gt;infusion::vtable -->
<g id="edge15" class="edge">
<title>infusion::graph&#45;&gt;infusion::vtable</title>
<path fill="none" stroke="#7f7f7f" stroke-dasharray="5,2" d="M97.86,-144.76C100.49,-132.02 97.98,-115.35 92.16,-101.19"/>
<polygon fill="#7f7f7f" stroke="#7f7f7f" points="95.14,-99.32 87.62,-91.86 88.85,-102.39 95.14,-99.32"/>
<text text-anchor="middle" x="82.51" y="-125.98" font-family="monospace" font-size="10.00">uses</text>
</g>
<!-- infusion::vtable&#45;&gt;infusion::container -->
<g id="edge16" class="edge">
<title>infusion::vtable&#45;&gt;infusion::container</title>
<path fill="none" stroke="#7f7f7f" stroke-dasharray="5,2" d="M72.93,-91.8C96.22,-103.05 139.6,-107.08 170.2,-102.07"/>
<polygon fill="#7f7f7f" stroke="#7f7f7f" points="170.97,-105.49 180.04,-100.02 169.54,-98.63 170.97,-105.49"/>
<text text-anchor="middle" x="127.82" y="-88.94" font-family="monospace" font-size="10.00">uses</text>
</g>
<!-- infusion::vtable&#45;&gt;infusion::graph -->
<g id="edge17" class="edge">
<title>infusion::vtable&#45;&gt;infusion::graph</title>
<path fill="none" stroke="#7f7f7f" stroke-dasharray="5,2" d="M41.31,-92.1C38.69,-104.84 41.2,-121.5 47.02,-135.67"/>
<polygon fill="#7f7f7f" stroke="#7f7f7f" points="44.04,-137.53 51.56,-145 50.33,-134.47 44.04,-137.53"/>
<text text-anchor="middle" x="31.67" y="-116.88" font-family="monospace" font-size="10.00">uses</text>
</g>
</g>
</svg>
