<?xml version="1.0" encoding="UTF-8" standalone="no"?>
<!DOCTYPE svg PUBLIC "-//W3C//DTD SVG 1.1//EN"
 "http://www.w3.org/Graphics/SVG/1.1/DTD/svg11.dtd">
<!-- Generated by graphviz version 4.0.0 (0)
 -->
<!-- Pages: 1 -->
<svg width="1126pt" height="1219pt"
 viewBox="0.00 0.00 1125.60 1218.60" xmlns="http://www.w3.org/2000/svg" xmlns:xlink="http://www.w3.org/1999/xlink">
<g id="graph0" class="graph" transform="scale(1 1) rotate(0) translate(28.8 1189.8)">
<polygon fill="white" stroke="transparent" points="-28.8,28.8 -28.8,-1189.8 1096.8,-1189.8 1096.8,28.8 -28.8,28.8"/>
<text text-anchor="middle" x="534" y="-1128.2" font-family="Helvetica,sans-Serif" font-size="36.00">hp_fixed</text>
<!-- hp_fixed -->
<g id="node1" class="node">
<title>hp_fixed</title>
<polygon fill="#5397c8" stroke="black" points="325.04,-445.65 325.04,-483.65 390.04,-483.65 390.04,-445.65 325.04,-445.65"/>
<text text-anchor="middle" x="357.54" y="-471.65" font-family="monospace" font-size="10.00">crate</text>
<polyline fill="none" stroke="black" points="325.04,-464.65 390.04,-464.65 "/>
<text text-anchor="middle" x="357.54" y="-452.65" font-family="monospace" font-size="10.00">hp_fixed</text>
</g>
<!-- hp_fixed::HpFixedConversionError -->
<g id="node2" class="node">
<title>hp_fixed::HpFixedConversionError</title>
<polygon fill="#81c169" stroke="black" points="368.12,-514.12 368.12,-552.12 517.12,-552.12 517.12,-514.12 368.12,-514.12"/>
<text text-anchor="middle" x="442.62" y="-540.12" font-family="monospace" font-size="10.00">pub enum</text>
<polyline fill="none" stroke="black" points="368.12,-533.12 517.12,-533.12 "/>
<text text-anchor="middle" x="442.62" y="-521.12" font-family="monospace" font-size="10.00">HpFixedConversionError</text>
</g>
<!-- hp_fixed&#45;&gt;hp_fixed::HpFixedConversionError -->
<g id="edge1" class="edge">
<title>hp_fixed&#45;&gt;hp_fixed::HpFixedConversionError</title>
<path fill="none" stroke="#000000" d="M355.08,-483.78C357.35,-491.18 362.45,-499.14 369.14,-506.65"/>
<polygon fill="#000000" stroke="#000000" points="366.82,-509.29 376.32,-513.99 371.83,-504.39 366.82,-509.29"/>
<text text-anchor="middle" x="349.61" y="-498.22" font-family="monospace" font-size="10.00">owns</text>
</g>
<!-- hp_fixed&#45;&gt;hp_fixed::HpFixedConversionError -->
<g id="edge2" class="edge">
<title>hp_fixed&#45;&gt;hp_fixed::HpFixedConversionError</title>
<path fill="none" stroke="#7f7f7f" stroke-dasharray="5,2" d="M390.24,-461.81C409.54,-469.41 430.94,-487.28 440.83,-504.47"/>
<polygon fill="#7f7f7f" stroke="#7f7f7f" points="437.77,-506.18 445.05,-513.88 444.15,-503.32 437.77,-506.18"/>
<text text-anchor="middle" x="403.04" y="-486.14" font-family="monospace" font-size="10.00">uses</text>
</g>
<!-- hp_fixed::format_hp_fixed -->
<g id="node3" class="node">
<title>hp_fixed::format_hp_fixed</title>
<polygon fill="#f8c04c" stroke="black" points="81.27,-299.97 81.27,-337.97 188.27,-337.97 188.27,-299.97 81.27,-299.97"/>
<text text-anchor="middle" x="134.77" y="-325.97" font-family="monospace" font-size="10.00">pub(crate) fn</text>
<polyline fill="none" stroke="black" points="81.27,-318.97 188.27,-318.97 "/>
<text text-anchor="middle" x="134.77" y="-306.97" font-family="monospace" font-size="10.00">format_hp_fixed</text>
</g>
<!-- hp_fixed&#45;&gt;hp_fixed::format_hp_fixed -->
<g id="edge3" class="edge">
<title>hp_fixed&#45;&gt;hp_fixed::format_hp_fixed</title>
<path fill="none" stroke="#000000" d="M352.47,-445.56C330.31,-414.18 254.23,-360.52 197.92,-332.73"/>
<polygon fill="#000000" stroke="#000000" points="199.24,-329.49 188.71,-328.34 196.23,-335.81 199.24,-329.49"/>
<text text-anchor="middle" x="262.69" y="-392.15" font-family="monospace" font-size="10.00">owns</text>
</g>
<!-- hp_fixed&#45;&gt;hp_fixed::format_hp_fixed -->
<g id="edge4" class="edge">
<title>hp_fixed&#45;&gt;hp_fixed::format_hp_fixed</title>
<path fill="none" stroke="#7f7f7f" stroke-dasharray="5,2" d="M324.62,-463.86C273.62,-446.23 180.15,-384.74 146.25,-346.1"/>
<polygon fill="#7f7f7f" stroke="#7f7f7f" points="148.93,-343.85 139.95,-338.23 143.46,-348.22 148.93,-343.85"/>
<text text-anchor="middle" x="222.94" y="-407.98" font-family="monospace" font-size="10.00">uses</text>
</g>
<!-- hp_fixed::get_float_parts -->
<g id="node4" class="node">
<title>hp_fixed::get_float_parts</title>
<polygon fill="#f8c04c" stroke="black" points="129.73,-452.42 129.73,-490.42 236.73,-490.42 236.73,-452.42 129.73,-452.42"/>
<text text-anchor="middle" x="183.23" y="-478.42" font-family="monospace" font-size="10.00">pub(crate) fn</text>
<polyline fill="none" stroke="black" points="129.73,-471.42 236.73,-471.42 "/>
<text text-anchor="middle" x="183.23" y="-459.42" font-family="monospace" font-size="10.00">get_float_parts</text>
</g>
<!-- hp_fixed&#45;&gt;hp_fixed::get_float_parts -->
<g id="edge5" class="edge">
<title>hp_fixed&#45;&gt;hp_fixed::get_float_parts</title>
<path fill="none" stroke="#000000" d="M329.9,-445.56C297.97,-437.98 245.64,-439.7 212.88,-449.16"/>
<polygon fill="#000000" stroke="#000000" points="211.75,-445.85 203.38,-452.34 213.98,-452.48 211.75,-445.85"/>
<text text-anchor="middle" x="258.89" y="-450.36" font-family="monospace" font-size="10.00">owns</text>
</g>
<!-- hp_fixed&#45;&gt;hp_fixed::get_float_parts -->
<g id="edge6" class="edge">
<title>hp_fixed&#45;&gt;hp_fixed::get_float_parts</title>
<path fill="none" stroke="#7f7f7f" stroke-dasharray="5,2" d="M337.57,-483.65C309.15,-494.82 256.53,-498.29 220.71,-492.45"/>
<polygon fill="#7f7f7f" stroke="#7f7f7f" points="221.13,-488.97 210.64,-490.45 219.76,-495.83 221.13,-488.97"/>
<text text-anchor="middle" x="266.64" y="-491.05" font-family="monospace" font-size="10.00">uses</text>
</g>
<!-- hp_fixed::get_float_parts_b -->
<g id="node5" class="node">
<title>hp_fixed::get_float_parts_b</title>
<polygon fill="#f8c04c" stroke="black" points="235.5,-249.28 235.5,-287.28 354.5,-287.28 354.5,-249.28 235.5,-249.28"/>
<text text-anchor="middle" x="295" y="-275.28" font-family="monospace" font-size="10.00">pub(crate) fn</text>
<polyline fill="none" stroke="black" points="235.5,-268.28 354.5,-268.28 "/>
<text text-anchor="middle" x="295" y="-256.28" font-family="monospace" font-size="10.00">get_float_parts_b</text>
</g>
<!-- hp_fixed&#45;&gt;hp_fixed::get_float_parts_b -->
<g id="edge7" class="edge">
<title>hp_fixed&#45;&gt;hp_fixed::get_float_parts_b</title>
<path fill="none" stroke="#000000" d="M367.22,-445.31C370.22,-410.1 348.89,-336.55 325.95,-296.06"/>
<polygon fill="#000000" stroke="#000000" points="328.92,-294.2 320.73,-287.48 322.94,-297.84 328.92,-294.2"/>
<text text-anchor="middle" x="334.09" y="-373.68" font-family="monospace" font-size="10.00">owns</text>
</g>
<!-- hp_fixed&#45;&gt;hp_fixed::get_float_parts_b -->
<g id="edge8" class="edge">
<title>hp_fixed&#45;&gt;hp_fixed::get_float_parts_b</title>
<path fill="none" stroke="#7f7f7f" stroke-dasharray="5,2" d="M331.81,-445.45C309.02,-410.76 286.11,-338.45 285.08,-297.6"/>
<polygon fill="#7f7f7f" stroke="#7f7f7f" points="288.58,-297.53 285.34,-287.44 281.58,-297.35 288.58,-297.53"/>
<text text-anchor="middle" x="295.94" y="-374.52" font-family="monospace" font-size="10.00">uses</text>
</g>
<!-- hp_fixed::signed::HpFixed -->
<g id="node6" class="node">
<title>hp_fixed::signed::HpFixed</title>
<polygon fill="#81c169" stroke="black" points="592.76,-286.91 592.76,-324.91 699.76,-324.91 699.76,-286.91 592.76,-286.91"/>
<text text-anchor="middle" x="646.26" y="-312.91" font-family="monospace" font-size="10.00">pub struct</text>
<polyline fill="none" stroke="black" points="592.76,-305.91 699.76,-305.91 "/>
<text text-anchor="middle" x="646.26" y="-293.91" font-family="monospace" font-size="10.00">signed::HpFixed</text>
</g>
<!-- hp_fixed&#45;&gt;hp_fixed::signed::HpFixed -->
<g id="edge9" class="edge">
<title>hp_fixed&#45;&gt;hp_fixed::signed::HpFixed</title>
<path fill="none" stroke="#000000" d="M390.1,-446.74C442.17,-418.11 544.26,-361.99 602.61,-329.91"/>
<polygon fill="#000000" stroke="#000000" points="604.51,-332.86 611.58,-324.97 601.13,-326.72 604.51,-332.86"/>
<text text-anchor="middle" x="483.85" y="-391.33" font-family="monospace" font-size="10.00">owns</text>
</g>
<!-- hp_fixed::unsigned::HpUfixed -->
<g id="node19" class="node">
<title>hp_fixed::unsigned::HpUfixed</title>
<polygon fill="#81c169" stroke="black" points="264.72,-777.62 264.72,-815.62 389.72,-815.62 389.72,-777.62 264.72,-777.62"/>
<text text-anchor="middle" x="327.22" y="-803.62" font-family="monospace" font-size="10.00">pub struct</text>
<polyline fill="none" stroke="black" points="264.72,-796.62 389.72,-796.62 "/>
<text text-anchor="middle" x="327.22" y="-784.62" font-family="monospace" font-size="10.00">unsigned::HpUfixed</text>
</g>
<!-- hp_fixed&#45;&gt;hp_fixed::unsigned::HpUfixed -->
<g id="edge10" class="edge">
<title>hp_fixed&#45;&gt;hp_fixed::unsigned::HpUfixed</title>
<path fill="none" stroke="#000000" d="M355.78,-483.93C350.7,-539.51 336.02,-700.31 329.92,-767.04"/>
<polygon fill="#000000" stroke="#000000" points="326.41,-767 328.98,-777.28 333.38,-767.64 326.41,-767"/>
<text text-anchor="middle" x="330.35" y="-628.49" font-family="monospace" font-size="10.00">owns</text>
</g>
<!-- hp_fixed::signed::HpFixed::convert_precision -->
<g id="node7" class="node">
<title>hp_fixed::signed::HpFixed::convert_precision</title>
<polygon fill="#81c169" stroke="black" points="472.78,-159.56 472.78,-197.56 693.78,-197.56 693.78,-159.56 472.78,-159.56"/>
<text text-anchor="middle" x="583.28" y="-185.56" font-family="monospace" font-size="10.00">pub fn</text>
<polyline fill="none" stroke="black" points="472.78,-178.56 693.78,-178.56 "/>
<text text-anchor="middle" x="583.28" y="-166.56" font-family="monospace" font-size="10.00">signed::HpFixed::convert_precision</text>
</g>
<!-- hp_fixed::signed::HpFixed&#45;&gt;hp_fixed::signed::HpFixed::convert_precision -->
<g id="edge11" class="edge">
<title>hp_fixed::signed::HpFixed&#45;&gt;hp_fixed::signed::HpFixed::convert_precision</title>
<path fill="none" stroke="#000000" d="M655.2,-286.86C655.64,-264.98 641.66,-230.3 624.64,-205.8"/>
<polygon fill="#000000" stroke="#000000" points="627.3,-203.51 618.51,-197.6 621.7,-207.7 627.3,-203.51"/>
<text text-anchor="middle" x="627.42" y="-249.33" font-family="monospace" font-size="10.00">owns</text>
</g>
<!-- hp_fixed::signed::HpFixed::deserialize -->
<g id="node8" class="node">
<title>hp_fixed::signed::HpFixed::deserialize</title>
<polygon fill="#db5367" stroke="black" points="883.05,-200.81 883.05,-238.81 1068.05,-238.81 1068.05,-200.81 883.05,-200.81"/>
<text text-anchor="middle" x="975.55" y="-226.81" font-family="monospace" font-size="10.00">pub(self) fn</text>
<polyline fill="none" stroke="black" points="883.05,-219.81 1068.05,-219.81 "/>
<text text-anchor="middle" x="975.55" y="-207.81" font-family="monospace" font-size="10.00">signed::HpFixed::deserialize</text>
</g>
<!-- hp_fixed::signed::HpFixed&#45;&gt;hp_fixed::signed::HpFixed::deserialize -->
<g id="edge12" class="edge">
<title>hp_fixed::signed::HpFixed&#45;&gt;hp_fixed::signed::HpFixed::deserialize</title>
<path fill="none" stroke="#000000" d="M699.9,-291.88C752.21,-278.21 832.49,-257.22 892.95,-241.41"/>
<polygon fill="#000000" stroke="#000000" points="894.07,-244.74 902.86,-238.82 892.3,-237.96 894.07,-244.74"/>
<text text-anchor="middle" x="783.93" y="-269.65" font-family="monospace" font-size="10.00">owns</text>
</g>
<!-- hp_fixed::signed::HpFixed::floor -->
<g id="node9" class="node">
<title>hp_fixed::signed::HpFixed::floor</title>
<polygon fill="#81c169" stroke="black" points="391.25,-97.25 391.25,-135.25 540.25,-135.25 540.25,-97.25 391.25,-97.25"/>
<text text-anchor="middle" x="465.75" y="-123.25" font-family="monospace" font-size="10.00">pub fn</text>
<polyline fill="none" stroke="black" points="391.25,-116.25 540.25,-116.25 "/>
<text text-anchor="middle" x="465.75" y="-104.25" font-family="monospace" font-size="10.00">signed::HpFixed::floor</text>
</g>
<!-- hp_fixed::signed::HpFixed&#45;&gt;hp_fixed::signed::HpFixed::floor -->
<g id="edge13" class="edge">
<title>hp_fixed::signed::HpFixed&#45;&gt;hp_fixed::signed::HpFixed::floor</title>
<path fill="none" stroke="#000000" d="M646.01,-286.71C632.08,-251.07 569.35,-180.51 521.09,-141.52"/>
<polygon fill="#000000" stroke="#000000" points="523.21,-138.73 513.18,-135.31 518.89,-144.24 523.21,-138.73"/>
<text text-anchor="middle" x="571.05" y="-217.12" font-family="monospace" font-size="10.00">owns</text>
</g>
<!-- hp_fixed::signed::HpFixed::json_schema -->
<g id="node10" class="node">
<title>hp_fixed::signed::HpFixed::json_schema</title>
<polygon fill="#db5367" stroke="black" points="847.68,-409.49 847.68,-447.49 1032.68,-447.49 1032.68,-409.49 847.68,-409.49"/>
<text text-anchor="middle" x="940.18" y="-435.49" font-family="monospace" font-size="10.00">pub(self) fn</text>
<polyline fill="none" stroke="black" points="847.68,-428.49 1032.68,-428.49 "/>
<text text-anchor="middle" x="940.18" y="-416.49" font-family="monospace" font-size="10.00">signed::HpFixed::json_schema</text>
</g>
<!-- hp_fixed::signed::HpFixed&#45;&gt;hp_fixed::signed::HpFixed::json_schema -->
<g id="edge14" class="edge">
<title>hp_fixed::signed::HpFixed&#45;&gt;hp_fixed::signed::HpFixed::json_schema</title>
<path fill="none" stroke="#000000" d="M642.25,-325.1C641.14,-409.03 843.52,-497.98 917.97,-453.7"/>
<polygon fill="#000000" stroke="#000000" points="920.33,-456.32 926.39,-447.64 916.23,-450.64 920.33,-456.32"/>
<text text-anchor="middle" x="767.61" y="-381.4" font-family="monospace" font-size="10.00">owns</text>
</g>
<!-- hp_fixed::signed::HpFixed&#45;&gt;hp_fixed::signed::HpFixed::json_schema -->
<g id="edge15" class="edge">
<title>hp_fixed::signed::HpFixed&#45;&gt;hp_fixed::signed::HpFixed::json_schema</title>
<path fill="none" stroke="#000000" d="M659.89,-286.89C723.31,-231.22 929,-315.09 943.4,-399.38"/>
<polygon fill="#000000" stroke="#000000" points="939.91,-399.7 944.19,-409.39 946.89,-399.14 939.91,-399.7"/>
<text text-anchor="middle" x="789.15" y="-346.14" font-family="monospace" font-size="10.00">owns</text>
</g>
<!-- hp_fixed::signed::HpFixed::max -->
<g id="node11" class="node">
<title>hp_fixed::signed::HpFixed::max</title>
<polygon fill="#81c169" stroke="black" points="791.57,-55.51 791.57,-93.51 928.57,-93.51 928.57,-55.51 791.57,-55.51"/>
<text text-anchor="middle" x="860.07" y="-81.51" font-family="monospace" font-size="10.00">pub fn</text>
<polyline fill="none" stroke="black" points="791.57,-74.51 928.57,-74.51 "/>
<text text-anchor="middle" x="860.07" y="-62.51" font-family="monospace" font-size="10.00">signed::HpFixed::max</text>
</g>
<!-- hp_fixed::signed::HpFixed&#45;&gt;hp_fixed::signed::HpFixed::max -->
<g id="edge16" class="edge">
<title>hp_fixed::signed::HpFixed&#45;&gt;hp_fixed::signed::HpFixed::max</title>
<path fill="none" stroke="#000000" d="M690.23,-286.88C744.31,-245.14 829.33,-151.08 854.85,-102.59"/>
<polygon fill="#000000" stroke="#000000" points="858.02,-104.07 859.13,-93.53 851.69,-101.08 858.02,-104.07"/>
<text text-anchor="middle" x="760.04" y="-197.74" font-family="monospace" font-size="10.00">owns</text>
</g>
<!-- hp_fixed::signed::HpFixed::min -->
<g id="node12" class="node">
<title>hp_fixed::signed::HpFixed::min</title>
<polygon fill="#81c169" stroke="black" points="440.39,-275.89 440.39,-313.89 577.39,-313.89 577.39,-275.89 440.39,-275.89"/>
<text text-anchor="middle" x="508.89" y="-301.89" font-family="monospace" font-size="10.00">pub fn</text>
<polyline fill="none" stroke="black" points="440.39,-294.89 577.39,-294.89 "/>
<text text-anchor="middle" x="508.89" y="-282.89" font-family="monospace" font-size="10.00">signed::HpFixed::min</text>
</g>
<!-- hp_fixed::signed::HpFixed&#45;&gt;hp_fixed::signed::HpFixed::min -->
<g id="edge17" class="edge">
<title>hp_fixed::signed::HpFixed&#45;&gt;hp_fixed::signed::HpFixed::min</title>
<path fill="none" stroke="#000000" d="M632.2,-286.87C611.67,-275.36 572.91,-270.34 544.3,-274.09"/>
<polygon fill="#000000" stroke="#000000" points="543.5,-270.67 534.27,-275.87 544.72,-277.56 543.5,-270.67"/>
<text text-anchor="middle" x="600.75" y="-272.48" font-family="monospace" font-size="10.00">owns</text>
</g>
<!-- hp_fixed::signed::HpFixed::new -->
<g id="node13" class="node">
<title>hp_fixed::signed::HpFixed::new</title>
<polygon fill="#81c169" stroke="black" points="746.97,-526.25 746.97,-564.25 883.97,-564.25 883.97,-526.25 746.97,-526.25"/>
<text text-anchor="middle" x="815.47" y="-552.25" font-family="monospace" font-size="10.00">pub fn</text>
<polyline fill="none" stroke="black" points="746.97,-545.25 883.97,-545.25 "/>
<text text-anchor="middle" x="815.47" y="-533.25" font-family="monospace" font-size="10.00">signed::HpFixed::new</text>
</g>
<!-- hp_fixed::signed::HpFixed&#45;&gt;hp_fixed::signed::HpFixed::new -->
<g id="edge18" class="edge">
<title>hp_fixed::signed::HpFixed&#45;&gt;hp_fixed::signed::HpFixed::new</title>
<path fill="none" stroke="#000000" d="M644.37,-325.05C655.39,-368.53 723.78,-469.78 771.83,-518.87"/>
<polygon fill="#000000" stroke="#000000" points="769.49,-521.47 779.06,-526 774.4,-516.49 769.49,-521.47"/>
<text text-anchor="middle" x="695.6" y="-424.96" font-family="monospace" font-size="10.00">owns</text>
</g>
<!-- hp_fixed::signed::HpFixed::schema_id -->
<g id="node14" class="node">
<title>hp_fixed::signed::HpFixed::schema_id</title>
<polygon fill="#db5367" stroke="black" points="701.84,-183.53 701.84,-221.53 874.84,-221.53 874.84,-183.53 701.84,-183.53"/>
<text text-anchor="middle" x="788.34" y="-209.53" font-family="monospace" font-size="10.00">pub(self) fn</text>
<polyline fill="none" stroke="black" points="701.84,-202.53 874.84,-202.53 "/>
<text text-anchor="middle" x="788.34" y="-190.53" font-family="monospace" font-size="10.00">signed::HpFixed::schema_id</text>
</g>
<!-- hp_fixed::signed::HpFixed&#45;&gt;hp_fixed::signed::HpFixed::schema_id -->
<g id="edge19" class="edge">
<title>hp_fixed::signed::HpFixed&#45;&gt;hp_fixed::signed::HpFixed::schema_id</title>
<path fill="none" stroke="#000000" d="M699.83,-297.14C730.51,-280.77 765.44,-252.95 781.52,-230.49"/>
<polygon fill="#000000" stroke="#000000" points="784.57,-232.21 786.87,-221.87 778.62,-228.52 784.57,-232.21"/>
<text text-anchor="middle" x="728.18" y="-266.82" font-family="monospace" font-size="10.00">owns</text>
</g>
<!-- hp_fixed::signed::HpFixed&#45;&gt;hp_fixed::signed::HpFixed::schema_id -->
<g id="edge20" class="edge">
<title>hp_fixed::signed::HpFixed&#45;&gt;hp_fixed::signed::HpFixed::schema_id</title>
<path fill="none" stroke="#000000" d="M647.62,-286.78C656.66,-269 681.94,-245.58 708.8,-227.17"/>
<polygon fill="#000000" stroke="#000000" points="710.76,-230.07 717.17,-221.63 706.9,-224.23 710.76,-230.07"/>
<text text-anchor="middle" x="665.71" y="-259.97" font-family="monospace" font-size="10.00">owns</text>
</g>
<!-- hp_fixed::signed::HpFixed::schema_name -->
<g id="node15" class="node">
<title>hp_fixed::signed::HpFixed::schema_name</title>
<polygon fill="#db5367" stroke="black" points="654.5,-393.62 654.5,-431.62 839.5,-431.62 839.5,-393.62 654.5,-393.62"/>
<text text-anchor="middle" x="747" y="-419.62" font-family="monospace" font-size="10.00">pub(self) fn</text>
<polyline fill="none" stroke="black" points="654.5,-412.62 839.5,-412.62 "/>
<text text-anchor="middle" x="747" y="-400.62" font-family="monospace" font-size="10.00">signed::HpFixed::schema_name</text>
</g>
<!-- hp_fixed::signed::HpFixed&#45;&gt;hp_fixed::signed::HpFixed::schema_name -->
<g id="edge21" class="edge">
<title>hp_fixed::signed::HpFixed&#45;&gt;hp_fixed::signed::HpFixed::schema_name</title>
<path fill="none" stroke="#000000" d="M643.06,-325.11C647.61,-343.05 665.69,-367.61 685.91,-386.72"/>
<polygon fill="#000000" stroke="#000000" points="683.67,-389.41 693.44,-393.49 688.35,-384.2 683.67,-389.41"/>
<text text-anchor="middle" x="651.99" y="-358.91" font-family="monospace" font-size="10.00">owns</text>
</g>
<!-- hp_fixed::signed::HpFixed&#45;&gt;hp_fixed::signed::HpFixed::schema_name -->
<g id="edge22" class="edge">
<title>hp_fixed::signed::HpFixed&#45;&gt;hp_fixed::signed::HpFixed::schema_name</title>
<path fill="none" stroke="#000000" d="M699.69,-324.92C719.46,-341.79 738.57,-365.07 746.92,-384.09"/>
<polygon fill="#000000" stroke="#000000" points="743.63,-385.3 750.25,-393.58 750.24,-382.99 743.63,-385.3"/>
<text text-anchor="middle" x="710.8" y="-357.5" font-family="monospace" font-size="10.00">owns</text>
</g>
<!-- hp_fixed::signed::HpFixed::serialize -->
<g id="node16" class="node">
<title>hp_fixed::signed::HpFixed::serialize</title>
<polygon fill="#db5367" stroke="black" points="565.9,-491.94 565.9,-529.94 738.9,-529.94 738.9,-491.94 565.9,-491.94"/>
<text text-anchor="middle" x="652.4" y="-517.94" font-family="monospace" font-size="10.00">pub(self) fn</text>
<polyline fill="none" stroke="black" points="565.9,-510.94 738.9,-510.94 "/>
<text text-anchor="middle" x="652.4" y="-498.94" font-family="monospace" font-size="10.00">signed::HpFixed::serialize</text>
</g>
<!-- hp_fixed::signed::HpFixed&#45;&gt;hp_fixed::signed::HpFixed::serialize -->
<g id="edge23" class="edge">
<title>hp_fixed::signed::HpFixed&#45;&gt;hp_fixed::signed::HpFixed::serialize</title>
<path fill="none" stroke="#000000" d="M630.5,-324.95C618.54,-361.04 619.79,-439.56 631.92,-482.13"/>
<polygon fill="#000000" stroke="#000000" points="628.68,-483.48 635.14,-491.88 635.33,-481.28 628.68,-483.48"/>
<text text-anchor="middle" x="643.71" y="-406.54" font-family="monospace" font-size="10.00">owns</text>
</g>
<!-- hp_fixed::signed::HpFixed::try_abs -->
<g id="node17" class="node">
<title>hp_fixed::signed::HpFixed::try_abs</title>
<polygon fill="#81c169" stroke="black" points="569.29,-0.81 569.29,-38.81 730.29,-38.81 730.29,-0.81 569.29,-0.81"/>
<text text-anchor="middle" x="649.79" y="-26.81" font-family="monospace" font-size="10.00">pub fn</text>
<polyline fill="none" stroke="black" points="569.29,-19.81 730.29,-19.81 "/>
<text text-anchor="middle" x="649.79" y="-7.81" font-family="monospace" font-size="10.00">signed::HpFixed::try_abs</text>
</g>
<!-- hp_fixed::signed::HpFixed&#45;&gt;hp_fixed::signed::HpFixed::try_abs -->
<g id="edge24" class="edge">
<title>hp_fixed::signed::HpFixed&#45;&gt;hp_fixed::signed::HpFixed::try_abs</title>
<path fill="none" stroke="#000000" d="M660.88,-286.87C677.36,-237.9 679.86,-107.32 666.49,-48.84"/>
<polygon fill="#000000" stroke="#000000" points="669.86,-47.88 663.91,-39.12 663.09,-49.68 669.86,-47.88"/>
<text text-anchor="middle" x="651.18" y="-159.85" font-family="monospace" font-size="10.00">owns</text>
</g>
<!-- hp_fixed::signed::HpFixed::zero -->
<g id="node18" class="node">
<title>hp_fixed::signed::HpFixed::zero</title>
<polygon fill="#81c169" stroke="black" points="494.16,-373.21 494.16,-411.21 637.16,-411.21 637.16,-373.21 494.16,-373.21"/>
<text text-anchor="middle" x="565.66" y="-399.21" font-family="monospace" font-size="10.00">pub fn</text>
<polyline fill="none" stroke="black" points="494.16,-392.21 637.16,-392.21 "/>
<text text-anchor="middle" x="565.66" y="-380.21" font-family="monospace" font-size="10.00">signed::HpFixed::zero</text>
</g>
<!-- hp_fixed::signed::HpFixed&#45;&gt;hp_fixed::signed::HpFixed::zero -->
<g id="edge25" class="edge">
<title>hp_fixed::signed::HpFixed&#45;&gt;hp_fixed::signed::HpFixed::zero</title>
<path fill="none" stroke="#000000" d="M592.55,-324.27C580.22,-335.92 569.41,-350.37 564.04,-363.42"/>
<polygon fill="#000000" stroke="#000000" points="560.68,-362.47 561.07,-373.06 567.36,-364.54 560.68,-362.47"/>
<text text-anchor="middle" x="565.8" y="-346.84" font-family="monospace" font-size="10.00">owns</text>
</g>
<!-- hp_fixed::signed::HpFixed::convert_precision&#45;&gt;hp_fixed::signed::HpFixed -->
<g id="edge26" class="edge">
<title>hp_fixed::signed::HpFixed::convert_precision&#45;&gt;hp_fixed::signed::HpFixed</title>
<path fill="none" stroke="#7f7f7f" stroke-dasharray="5,2" d="M574.34,-197.61C573.91,-219.49 587.88,-254.17 604.9,-278.67"/>
<polygon fill="#7f7f7f" stroke="#7f7f7f" points="602.24,-280.95 611.03,-286.87 607.85,-276.76 602.24,-280.95"/>
<text text-anchor="middle" x="577.12" y="-241.14" font-family="monospace" font-size="10.00">uses</text>
</g>
<!-- hp_fixed::signed::HpFixed::floor&#45;&gt;hp_fixed::signed::HpFixed -->
<g id="edge27" class="edge">
<title>hp_fixed::signed::HpFixed::floor&#45;&gt;hp_fixed::signed::HpFixed</title>
<path fill="none" stroke="#7f7f7f" stroke-dasharray="5,2" d="M466,-135.45C479.93,-171.09 542.66,-241.65 590.92,-280.64"/>
<polygon fill="#7f7f7f" stroke="#7f7f7f" points="588.8,-283.43 598.83,-286.84 593.12,-277.92 588.8,-283.43"/>
<text text-anchor="middle" x="515.96" y="-211.04" font-family="monospace" font-size="10.00">uses</text>
</g>
<!-- hp_fixed::signed::HpFixed::json_schema&#45;&gt;hp_fixed::signed::HpFixed -->
<g id="edge28" class="edge">
<title>hp_fixed::signed::HpFixed::json_schema&#45;&gt;hp_fixed::signed::HpFixed</title>
<path fill="none" stroke="#7f7f7f" stroke-dasharray="5,2" d="M928.67,-409.22C892.33,-378.02 781.42,-328.78 709.75,-308.95"/>
<polygon fill="#7f7f7f" stroke="#7f7f7f" points="710.47,-305.52 699.91,-306.35 708.68,-312.29 710.47,-305.52"/>
<text text-anchor="middle" x="806.71" y="-362.08" font-family="monospace" font-size="10.00">uses</text>
</g>
<!-- hp_fixed::signed::HpFixed::json_schema&#45;&gt;hp_fixed::signed::HpFixed -->
<g id="edge29" class="edge">
<title>hp_fixed::signed::HpFixed::json_schema&#45;&gt;hp_fixed::signed::HpFixed</title>
<path fill="none" stroke="#7f7f7f" stroke-dasharray="5,2" d="M847.67,-416.55C783.18,-395.1 702.54,-358.4 665.75,-331.46"/>
<polygon fill="#7f7f7f" stroke="#7f7f7f" points="667.8,-328.62 657.78,-325.18 663.47,-334.12 667.8,-328.62"/>
<text text-anchor="middle" x="744.21" y="-366" font-family="monospace" font-size="10.00">uses</text>
</g>
<!-- hp_fixed::signed::HpFixed::max&#45;&gt;hp_fixed::signed::HpFixed -->
<g id="edge30" class="edge">
<title>hp_fixed::signed::HpFixed::max&#45;&gt;hp_fixed::signed::HpFixed</title>
<path fill="none" stroke="#7f7f7f" stroke-dasharray="5,2" d="M816.11,-93.53C762.02,-135.28 677,-229.34 651.48,-277.82"/>
<polygon fill="#7f7f7f" stroke="#7f7f7f" points="648.31,-276.35 647.2,-286.88 654.64,-279.34 648.31,-276.35"/>
<text text-anchor="middle" x="721.29" y="-177.68" font-family="monospace" font-size="10.00">uses</text>
</g>
<!-- hp_fixed::signed::HpFixed::min&#45;&gt;hp_fixed::signed::HpFixed -->
<g id="edge31" class="edge">
<title>hp_fixed::signed::HpFixed::min&#45;&gt;hp_fixed::signed::HpFixed</title>
<path fill="none" stroke="#7f7f7f" stroke-dasharray="5,2" d="M522.96,-313.93C543.48,-325.44 582.24,-330.46 610.86,-326.71"/>
<polygon fill="#7f7f7f" stroke="#7f7f7f" points="611.65,-330.13 620.89,-324.93 610.43,-323.24 611.65,-330.13"/>
<text text-anchor="middle" x="554.41" y="-323.32" font-family="monospace" font-size="10.00">uses</text>
</g>
<!-- hp_fixed::signed::HpFixed::new&#45;&gt;hp_fixed::signed::HpFixed -->
<g id="edge32" class="edge">
<title>hp_fixed::signed::HpFixed::new&#45;&gt;hp_fixed::signed::HpFixed</title>
<path fill="none" stroke="#7f7f7f" stroke-dasharray="5,2" d="M817.36,-526.11C806.34,-482.63 737.95,-381.37 689.9,-332.29"/>
<polygon fill="#7f7f7f" stroke="#7f7f7f" points="692.25,-329.69 682.67,-325.16 687.33,-334.67 692.25,-329.69"/>
<text text-anchor="middle" x="741.13" y="-432.2" font-family="monospace" font-size="10.00">uses</text>
</g>
<!-- hp_fixed::signed::HpFixed::serialize&#45;&gt;hp_fixed::signed::HpFixed -->
<g id="edge33" class="edge">
<title>hp_fixed::signed::HpFixed::serialize&#45;&gt;hp_fixed::signed::HpFixed</title>
<path fill="none" stroke="#7f7f7f" stroke-dasharray="5,2" d="M668.16,-491.89C680.12,-455.8 678.87,-377.28 666.74,-334.72"/>
<polygon fill="#7f7f7f" stroke="#7f7f7f" points="669.98,-333.37 663.52,-324.97 663.33,-335.56 669.98,-333.37"/>
<text text-anchor="middle" x="654.95" y="-416.31" font-family="monospace" font-size="10.00">uses</text>
</g>
<!-- hp_fixed::signed::HpFixed::try_abs&#45;&gt;hp_fixed::signed::HpFixed -->
<g id="edge34" class="edge">
<title>hp_fixed::signed::HpFixed::try_abs&#45;&gt;hp_fixed::signed::HpFixed</title>
<path fill="none" stroke="#7f7f7f" stroke-dasharray="5,2" d="M635.17,-38.85C618.69,-87.82 616.19,-218.39 629.56,-276.88"/>
<polygon fill="#7f7f7f" stroke="#7f7f7f" points="626.19,-277.83 632.14,-286.6 632.96,-276.03 626.19,-277.83"/>
<text text-anchor="middle" x="619.87" y="-149.86" font-family="monospace" font-size="10.00">uses</text>
</g>
<!-- hp_fixed::signed::HpFixed::zero&#45;&gt;hp_fixed::signed::HpFixed -->
<g id="edge35" class="edge">
<title>hp_fixed::signed::HpFixed::zero&#45;&gt;hp_fixed::signed::HpFixed</title>
<path fill="none" stroke="#7f7f7f" stroke-dasharray="5,2" d="M620.37,-372.9C632.25,-361.45 642.6,-347.47 647.84,-334.8"/>
<polygon fill="#7f7f7f" stroke="#7f7f7f" points="651.26,-335.58 650.87,-324.99 644.57,-333.51 651.26,-335.58"/>
<text text-anchor="middle" x="621.6" y="-356.85" font-family="monospace" font-size="10.00">uses</text>
</g>
<!-- hp_fixed::unsigned::HpUfixed::convert_precision -->
<g id="node20" class="node">
<title>hp_fixed::unsigned::HpUfixed::convert_precision</title>
<polygon fill="#81c169" stroke="black" points="0.03,-920.57 0.03,-958.57 239.03,-958.57 239.03,-920.57 0.03,-920.57"/>
<text text-anchor="middle" x="119.53" y="-946.57" font-family="monospace" font-size="10.00">pub fn</text>
<polyline fill="none" stroke="black" points="0.03,-939.57 239.03,-939.57 "/>
<text text-anchor="middle" x="119.53" y="-927.57" font-family="monospace" font-size="10.00">unsigned::HpUfixed::convert_precision</text>
</g>
<!-- hp_fixed::unsigned::HpUfixed&#45;&gt;hp_fixed::unsigned::HpUfixed::convert_precision -->
<g id="edge36" class="edge">
<title>hp_fixed::unsigned::HpUfixed&#45;&gt;hp_fixed::unsigned::HpUfixed::convert_precision</title>
<path fill="none" stroke="#000000" d="M264.47,-811.4C216.49,-836.56 155.08,-881.57 129.79,-912.3"/>
<polygon fill="#000000" stroke="#000000" points="126.81,-910.45 123.66,-920.56 132.43,-914.62 126.81,-910.45"/>
<text text-anchor="middle" x="184.63" y="-864.85" font-family="monospace" font-size="10.00">owns</text>
</g>
<!-- hp_fixed::unsigned::HpUfixed::deserialize -->
<g id="node21" class="node">
<title>hp_fixed::unsigned::HpUfixed::deserialize</title>
<polygon fill="#db5367" stroke="black" points="54.73,-692.33 54.73,-730.33 257.73,-730.33 257.73,-692.33 54.73,-692.33"/>
<text text-anchor="middle" x="156.23" y="-718.33" font-family="monospace" font-size="10.00">pub(self) fn</text>
<polyline fill="none" stroke="black" points="54.73,-711.33 257.73,-711.33 "/>
<text text-anchor="middle" x="156.23" y="-699.33" font-family="monospace" font-size="10.00">unsigned::HpUfixed::deserialize</text>
</g>
<!-- hp_fixed::unsigned::HpUfixed&#45;&gt;hp_fixed::unsigned::HpUfixed::deserialize -->
<g id="edge37" class="edge">
<title>hp_fixed::unsigned::HpUfixed&#45;&gt;hp_fixed::unsigned::HpUfixed::deserialize</title>
<path fill="none" stroke="#000000" d="M288.85,-777.48C263.65,-764.91 230.53,-748.39 203.68,-735"/>
<polygon fill="#000000" stroke="#000000" points="204.99,-731.74 194.47,-730.41 201.86,-738 204.99,-731.74"/>
<text text-anchor="middle" x="233.76" y="-759.24" font-family="monospace" font-size="10.00">owns</text>
</g>
<!-- hp_fixed::unsigned::HpUfixed::floor -->
<g id="node22" class="node">
<title>hp_fixed::unsigned::HpUfixed::floor</title>
<polygon fill="#81c169" stroke="black" points="109.62,-835.46 109.62,-873.46 276.62,-873.46 276.62,-835.46 109.62,-835.46"/>
<text text-anchor="middle" x="193.12" y="-861.46" font-family="monospace" font-size="10.00">pub fn</text>
<polyline fill="none" stroke="black" points="109.62,-854.46 276.62,-854.46 "/>
<text text-anchor="middle" x="193.12" y="-842.46" font-family="monospace" font-size="10.00">unsigned::HpUfixed::floor</text>
</g>
<!-- hp_fixed::unsigned::HpUfixed&#45;&gt;hp_fixed::unsigned::HpUfixed::floor -->
<g id="edge38" class="edge">
<title>hp_fixed::unsigned::HpUfixed&#45;&gt;hp_fixed::unsigned::HpUfixed::floor</title>
<path fill="none" stroke="#000000" d="M264.53,-794.9C241.94,-802.7 218.72,-815.14 204.84,-827.92"/>
<polygon fill="#000000" stroke="#000000" points="202.08,-825.75 197.83,-835.45 207.2,-830.52 202.08,-825.75"/>
<text text-anchor="middle" x="222.19" y="-814.41" font-family="monospace" font-size="10.00">owns</text>
</g>
<!-- hp_fixed::unsigned::HpUfixed::get_value -->
<g id="node23" class="node">
<title>hp_fixed::unsigned::HpUfixed::get_value</title>
<polygon fill="#81c169" stroke="black" points="397.87,-816.22 397.87,-854.22 588.87,-854.22 588.87,-816.22 397.87,-816.22"/>
<text text-anchor="middle" x="493.37" y="-842.22" font-family="monospace" font-size="10.00">pub fn</text>
<polyline fill="none" stroke="black" points="397.87,-835.22 588.87,-835.22 "/>
<text text-anchor="middle" x="493.37" y="-823.22" font-family="monospace" font-size="10.00">unsigned::HpUfixed::get_value</text>
</g>
<!-- hp_fixed::unsigned::HpUfixed&#45;&gt;hp_fixed::unsigned::HpUfixed::get_value -->
<g id="edge39" class="edge">
<title>hp_fixed::unsigned::HpUfixed&#45;&gt;hp_fixed::unsigned::HpUfixed::get_value</title>
<path fill="none" stroke="#000000" d="M338.3,-815.81C349.49,-824.27 367.78,-832.06 387.96,-837.97"/>
<polygon fill="#000000" stroke="#000000" points="387.1,-841.36 397.67,-840.63 388.96,-834.61 387.1,-841.36"/>
<text text-anchor="middle" x="350.63" y="-829.89" font-family="monospace" font-size="10.00">owns</text>
</g>
<!-- hp_fixed::unsigned::HpUfixed::json_schema -->
<g id="node24" class="node">
<title>hp_fixed::unsigned::HpUfixed::json_schema</title>
<polygon fill="#db5367" stroke="black" points="477.67,-931.57 477.67,-969.57 680.67,-969.57 680.67,-931.57 477.67,-931.57"/>
<text text-anchor="middle" x="579.17" y="-957.57" font-family="monospace" font-size="10.00">pub(self) fn</text>
<polyline fill="none" stroke="black" points="477.67,-950.57 680.67,-950.57 "/>
<text text-anchor="middle" x="579.17" y="-938.57" font-family="monospace" font-size="10.00">unsigned::HpUfixed::json_schema</text>
</g>
<!-- hp_fixed::unsigned::HpUfixed&#45;&gt;hp_fixed::unsigned::HpUfixed::json_schema -->
<g id="edge40" class="edge">
<title>hp_fixed::unsigned::HpUfixed&#45;&gt;hp_fixed::unsigned::HpUfixed::json_schema</title>
<path fill="none" stroke="#000000" d="M333.68,-815.68C357.18,-845.41 431.71,-895.6 492.73,-926.82"/>
<polygon fill="#000000" stroke="#000000" points="491.51,-930.12 502.02,-931.47 494.64,-923.86 491.51,-930.12"/>
<text text-anchor="middle" x="400.71" y="-874.25" font-family="monospace" font-size="10.00">owns</text>
</g>
<!-- hp_fixed::unsigned::HpUfixed::max -->
<g id="node25" class="node">
<title>hp_fixed::unsigned::HpUfixed::max</title>
<polygon fill="#81c169" stroke="black" points="262.35,-967.06 262.35,-1005.06 417.35,-1005.06 417.35,-967.06 262.35,-967.06"/>
<text text-anchor="middle" x="339.85" y="-993.06" font-family="monospace" font-size="10.00">pub fn</text>
<polyline fill="none" stroke="black" points="262.35,-986.06 417.35,-986.06 "/>
<text text-anchor="middle" x="339.85" y="-974.06" font-family="monospace" font-size="10.00">unsigned::HpUfixed::max</text>
</g>
<!-- hp_fixed::unsigned::HpUfixed&#45;&gt;hp_fixed::unsigned::HpUfixed::max -->
<g id="edge41" class="edge">
<title>hp_fixed::unsigned::HpUfixed&#45;&gt;hp_fixed::unsigned::HpUfixed::max</title>
<path fill="none" stroke="#000000" d="M311.75,-815.89C301.59,-849.35 304.97,-918.26 317.52,-957.35"/>
<polygon fill="#000000" stroke="#000000" points="314.28,-958.66 321.01,-966.84 320.85,-956.25 314.28,-958.66"/>
<text text-anchor="middle" x="302.14" y="-889.62" font-family="monospace" font-size="10.00">owns</text>
</g>
<!-- hp_fixed::unsigned::HpUfixed::min -->
<g id="node26" class="node">
<title>hp_fixed::unsigned::HpUfixed::min</title>
<polygon fill="#81c169" stroke="black" points="2.28,-773.59 2.28,-811.59 157.28,-811.59 157.28,-773.59 2.28,-773.59"/>
<text text-anchor="middle" x="79.78" y="-799.59" font-family="monospace" font-size="10.00">pub fn</text>
<polyline fill="none" stroke="black" points="2.28,-792.59 157.28,-792.59 "/>
<text text-anchor="middle" x="79.78" y="-780.59" font-family="monospace" font-size="10.00">unsigned::HpUfixed::min</text>
</g>
<!-- hp_fixed::unsigned::HpUfixed&#45;&gt;hp_fixed::unsigned::HpUfixed::min -->
<g id="edge42" class="edge">
<title>hp_fixed::unsigned::HpUfixed&#45;&gt;hp_fixed::unsigned::HpUfixed::min</title>
<path fill="none" stroke="#000000" d="M296.68,-777.54C253.82,-766.68 175.49,-764.43 125.62,-771.86"/>
<polygon fill="#000000" stroke="#000000" points="125.01,-768.41 115.74,-773.53 126.18,-775.31 125.01,-768.41"/>
<text text-anchor="middle" x="198.65" y="-777.7" font-family="monospace" font-size="10.00">owns</text>
</g>
<!-- hp_fixed::unsigned::HpUfixed::new -->
<g id="node27" class="node">
<title>hp_fixed::unsigned::HpUfixed::new</title>
<polygon fill="#81c169" stroke="black" points="344.41,-1074.26 344.41,-1112.26 499.41,-1112.26 499.41,-1074.26 344.41,-1074.26"/>
<text text-anchor="middle" x="421.91" y="-1100.26" font-family="monospace" font-size="10.00">pub fn</text>
<polyline fill="none" stroke="black" points="344.41,-1093.26 499.41,-1093.26 "/>
<text text-anchor="middle" x="421.91" y="-1081.26" font-family="monospace" font-size="10.00">unsigned::HpUfixed::new</text>
</g>
<!-- hp_fixed::unsigned::HpUfixed&#45;&gt;hp_fixed::unsigned::HpUfixed::new -->
<g id="edge43" class="edge">
<title>hp_fixed::unsigned::HpUfixed&#45;&gt;hp_fixed::unsigned::HpUfixed::new</title>
<path fill="none" stroke="#000000" d="M319.89,-816.07C318.48,-867.39 360.67,-1005.06 394.09,-1065.01"/>
<polygon fill="#000000" stroke="#000000" points="391.27,-1067.11 399.37,-1073.93 397.3,-1063.55 391.27,-1067.11"/>
<text text-anchor="middle" x="344.49" y="-943.54" font-family="monospace" font-size="10.00">owns</text>
</g>
<!-- hp_fixed::unsigned::HpUfixed::schema_id -->
<g id="node28" class="node">
<title>hp_fixed::unsigned::HpUfixed::schema_id</title>
<polygon fill="#db5367" stroke="black" points="520.84,-769.14 520.84,-807.14 711.84,-807.14 711.84,-769.14 520.84,-769.14"/>
<text text-anchor="middle" x="616.34" y="-795.14" font-family="monospace" font-size="10.00">pub(self) fn</text>
<polyline fill="none" stroke="black" points="520.84,-788.14 711.84,-788.14 "/>
<text text-anchor="middle" x="616.34" y="-776.14" font-family="monospace" font-size="10.00">unsigned::HpUfixed::schema_id</text>
</g>
<!-- hp_fixed::unsigned::HpUfixed&#45;&gt;hp_fixed::unsigned::HpUfixed::schema_id -->
<g id="edge44" class="edge">
<title>hp_fixed::unsigned::HpUfixed&#45;&gt;hp_fixed::unsigned::HpUfixed::schema_id</title>
<path fill="none" stroke="#000000" d="M389.95,-794.78C425.17,-793.74 470.04,-792.43 510.53,-791.24"/>
<polygon fill="#000000" stroke="#000000" points="510.83,-794.73 520.72,-790.94 510.62,-787.74 510.83,-794.73"/>
<text text-anchor="middle" x="437.74" y="-785.01" font-family="monospace" font-size="10.00">owns</text>
</g>
<!-- hp_fixed::unsigned::HpUfixed::schema_name -->
<g id="node29" class="node">
<title>hp_fixed::unsigned::HpUfixed::schema_name</title>
<polygon fill="#db5367" stroke="black" points="236.59,-645.33 236.59,-683.33 439.59,-683.33 439.59,-645.33 236.59,-645.33"/>
<text text-anchor="middle" x="338.09" y="-671.33" font-family="monospace" font-size="10.00">pub(self) fn</text>
<polyline fill="none" stroke="black" points="236.59,-664.33 439.59,-664.33 "/>
<text text-anchor="middle" x="338.09" y="-652.33" font-family="monospace" font-size="10.00">unsigned::HpUfixed::schema_name</text>
</g>
<!-- hp_fixed::unsigned::HpUfixed&#45;&gt;hp_fixed::unsigned::HpUfixed::schema_name -->
<g id="edge45" class="edge">
<title>hp_fixed::unsigned::HpUfixed&#45;&gt;hp_fixed::unsigned::HpUfixed::schema_name</title>
<path fill="none" stroke="#000000" d="M328.8,-777.38C330.6,-755.43 333.58,-719.29 335.67,-693.79"/>
<polygon fill="#000000" stroke="#000000" points="339.18,-693.84 336.51,-683.59 332.2,-693.27 339.18,-693.84"/>
<text text-anchor="middle" x="319.74" y="-738.59" font-family="monospace" font-size="10.00">owns</text>
</g>
<!-- hp_fixed::unsigned::HpUfixed::serialize -->
<g id="node30" class="node">
<title>hp_fixed::unsigned::HpUfixed::serialize</title>
<polygon fill="#db5367" stroke="black" points="353.16,-698.61 353.16,-736.61 544.16,-736.61 544.16,-698.61 353.16,-698.61"/>
<text text-anchor="middle" x="448.66" y="-724.61" font-family="monospace" font-size="10.00">pub(self) fn</text>
<polyline fill="none" stroke="black" points="353.16,-717.61 544.16,-717.61 "/>
<text text-anchor="middle" x="448.66" y="-705.61" font-family="monospace" font-size="10.00">unsigned::HpUfixed::serialize</text>
</g>
<!-- hp_fixed::unsigned::HpUfixed&#45;&gt;hp_fixed::unsigned::HpUfixed::serialize -->
<g id="edge46" class="edge">
<title>hp_fixed::unsigned::HpUfixed&#45;&gt;hp_fixed::unsigned::HpUfixed::serialize</title>
<path fill="none" stroke="#000000" d="M390.01,-787.37C410.59,-775.93 430.83,-760.01 441.98,-745.32"/>
<polygon fill="#000000" stroke="#000000" points="444.96,-747.16 447.43,-736.86 439.07,-743.37 444.96,-747.16"/>
<text text-anchor="middle" x="403.5" y="-769.35" font-family="monospace" font-size="10.00">owns</text>
</g>
<!-- hp_fixed::unsigned::HpUfixed::zero -->
<g id="node31" class="node">
<title>hp_fixed::unsigned::HpUfixed::zero</title>
<polygon fill="#81c169" stroke="black" points="175.32,-1062.81 175.32,-1100.81 336.32,-1100.81 336.32,-1062.81 175.32,-1062.81"/>
<text text-anchor="middle" x="255.82" y="-1088.81" font-family="monospace" font-size="10.00">pub fn</text>
<polyline fill="none" stroke="black" points="175.32,-1081.81 336.32,-1081.81 "/>
<text text-anchor="middle" x="255.82" y="-1069.81" font-family="monospace" font-size="10.00">unsigned::HpUfixed::zero</text>
</g>
<!-- hp_fixed::unsigned::HpUfixed&#45;&gt;hp_fixed::unsigned::HpUfixed::zero -->
<g id="edge47" class="edge">
<title>hp_fixed::unsigned::HpUfixed&#45;&gt;hp_fixed::unsigned::HpUfixed::zero</title>
<path fill="none" stroke="#000000" d="M306.45,-815.71C278.63,-864.68 246.01,-994.07 246.45,-1052.56"/>
<polygon fill="#000000" stroke="#000000" points="242.96,-1052.8 246.93,-1062.63 249.95,-1052.47 242.96,-1052.8"/>
<text text-anchor="middle" x="263.95" y="-937.14" font-family="monospace" font-size="10.00">owns</text>
</g>
<!-- hp_fixed::unsigned::HpUfixed::convert_precision&#45;&gt;hp_fixed::unsigned::HpUfixed -->
<g id="edge48" class="edge">
<title>hp_fixed::unsigned::HpUfixed::convert_precision&#45;&gt;hp_fixed::unsigned::HpUfixed</title>
<path fill="none" stroke="#7f7f7f" stroke-dasharray="5,2" d="M190.39,-920.41C236.83,-894.74 292.74,-853.15 316.74,-824.14"/>
<polygon fill="#7f7f7f" stroke="#7f7f7f" points="319.69,-826.05 322.88,-815.94 314.08,-821.85 319.69,-826.05"/>
<text text-anchor="middle" x="266.07" y="-875.28" font-family="monospace" font-size="10.00">uses</text>
</g>
<!-- hp_fixed::unsigned::HpUfixed::floor&#45;&gt;hp_fixed::unsigned::HpUfixed -->
<g id="edge49" class="edge">
<title>hp_fixed::unsigned::HpUfixed::floor&#45;&gt;hp_fixed::unsigned::HpUfixed</title>
<path fill="none" stroke="#7f7f7f" stroke-dasharray="5,2" d="M276.71,-847.7C291.88,-840.64 305.88,-832 315.45,-823.2"/>
<polygon fill="#7f7f7f" stroke="#7f7f7f" points="318.1,-825.49 322.38,-815.8 312.99,-820.71 318.1,-825.49"/>
<text text-anchor="middle" x="308.58" y="-838.45" font-family="monospace" font-size="10.00">uses</text>
</g>
<!-- hp_fixed::unsigned::HpUfixed::get_value&#45;&gt;hp_fixed::unsigned::HpUfixed -->
<g id="edge50" class="edge">
<title>hp_fixed::unsigned::HpUfixed::get_value&#45;&gt;hp_fixed::unsigned::HpUfixed</title>
<path fill="none" stroke="#7f7f7f" stroke-dasharray="5,2" d="M482.28,-816.03C465.26,-803.16 431.77,-791.83 400.22,-786.33"/>
<polygon fill="#7f7f7f" stroke="#7f7f7f" points="400.49,-782.83 390.07,-784.75 399.42,-789.74 400.49,-782.83"/>
<text text-anchor="middle" x="428.75" y="-804.18" font-family="monospace" font-size="10.00">uses</text>
</g>
<!-- hp_fixed::unsigned::HpUfixed::json_schema&#45;&gt;hp_fixed::unsigned::HpUfixed -->
<g id="edge51" class="edge">
<title>hp_fixed::unsigned::HpUfixed::json_schema&#45;&gt;hp_fixed::unsigned::HpUfixed</title>
<path fill="none" stroke="#7f7f7f" stroke-dasharray="5,2" d="M572.7,-931.5C547.29,-899.35 462.18,-843.26 399.02,-813.13"/>
<polygon fill="#7f7f7f" stroke="#7f7f7f" points="400.42,-809.92 389.87,-808.88 397.47,-816.26 400.42,-809.92"/>
<text text-anchor="middle" x="473.36" y="-875.31" font-family="monospace" font-size="10.00">uses</text>
</g>
<!-- hp_fixed::unsigned::HpUfixed::max&#45;&gt;hp_fixed::unsigned::HpUfixed -->
<g id="edge52" class="edge">
<title>hp_fixed::unsigned::HpUfixed::max&#45;&gt;hp_fixed::unsigned::HpUfixed</title>
<path fill="none" stroke="#7f7f7f" stroke-dasharray="5,2" d="M355.32,-966.79C365.48,-933.33 362.1,-864.42 349.54,-825.33"/>
<polygon fill="#7f7f7f" stroke="#7f7f7f" points="352.79,-824.02 346.06,-815.84 346.22,-826.43 352.79,-824.02"/>
<text text-anchor="middle" x="339.93" y="-899.06" font-family="monospace" font-size="10.00">uses</text>
</g>
<!-- hp_fixed::unsigned::HpUfixed::min&#45;&gt;hp_fixed::unsigned::HpUfixed -->
<g id="edge53" class="edge">
<title>hp_fixed::unsigned::HpUfixed::min&#45;&gt;hp_fixed::unsigned::HpUfixed</title>
<path fill="none" stroke="#7f7f7f" stroke-dasharray="5,2" d="M110.31,-811.66C153.18,-822.53 231.51,-824.77 281.38,-817.35"/>
<polygon fill="#7f7f7f" stroke="#7f7f7f" points="281.99,-820.79 291.26,-815.67 280.82,-813.89 281.99,-820.79"/>
<text text-anchor="middle" x="183.35" y="-817.5" font-family="monospace" font-size="10.00">uses</text>
</g>
<!-- hp_fixed::unsigned::HpUfixed::new&#45;&gt;hp_fixed::unsigned::HpUfixed -->
<g id="edge54" class="edge">
<title>hp_fixed::unsigned::HpUfixed::new&#45;&gt;hp_fixed::unsigned::HpUfixed</title>
<path fill="none" stroke="#7f7f7f" stroke-dasharray="5,2" d="M429.24,-1073.8C430.65,-1022.48 388.46,-884.81 355.03,-824.87"/>
<polygon fill="#7f7f7f" stroke="#7f7f7f" points="357.85,-822.76 349.75,-815.94 351.83,-826.33 357.85,-822.76"/>
<text text-anchor="middle" x="379.63" y="-952.34" font-family="monospace" font-size="10.00">uses</text>
</g>
<!-- hp_fixed::unsigned::HpUfixed::serialize&#45;&gt;hp_fixed::unsigned::HpUfixed -->
<g id="edge55" class="edge">
<title>hp_fixed::unsigned::HpUfixed::serialize&#45;&gt;hp_fixed::unsigned::HpUfixed</title>
<path fill="none" stroke="#7f7f7f" stroke-dasharray="5,2" d="M369.68,-736.83C355.14,-746.69 342.04,-758.16 333.86,-768.96"/>
<polygon fill="#7f7f7f" stroke="#7f7f7f" points="330.88,-767.13 328.42,-777.43 336.77,-770.91 330.88,-767.13"/>
<text text-anchor="middle" x="339.27" y="-755.89" font-family="monospace" font-size="10.00">uses</text>
</g>
<!-- hp_fixed::unsigned::HpUfixed::zero&#45;&gt;hp_fixed::unsigned::HpUfixed -->
<g id="edge56" class="edge">
<title>hp_fixed::unsigned::HpUfixed::zero&#45;&gt;hp_fixed::unsigned::HpUfixed</title>
<path fill="none" stroke="#7f7f7f" stroke-dasharray="5,2" d="M276.59,-1062.72C304.4,-1013.75 337.03,-884.35 336.59,-825.86"/>
<polygon fill="#7f7f7f" stroke="#7f7f7f" points="340.08,-825.62 336.11,-815.8 333.09,-825.95 340.08,-825.62"/>
<text text-anchor="middle" x="294.09" y="-947.29" font-family="monospace" font-size="10.00">uses</text>
</g>
</g>
</svg>
