<?xml version="1.0" encoding="UTF-8" standalone="no"?>
<!DOCTYPE svg PUBLIC "-//W3C//DTD SVG 1.1//EN"
 "http://www.w3.org/Graphics/SVG/1.1/DTD/svg11.dtd">
<!-- Generated by graphviz version 4.0.0 (0)
 -->
<!-- Pages: 1 -->
<svg width="798pt" height="872pt"
 viewBox="0.00 0.00 797.65 871.97" xmlns="http://www.w3.org/2000/svg" xmlns:xlink="http://www.w3.org/1999/xlink">
<g id="graph0" class="graph" transform="scale(1 1) rotate(0) translate(28.8 843.17)">
<polygon fill="white" stroke="transparent" points="-28.8,28.8 -28.8,-843.17 768.85,-843.17 768.85,28.8 -28.8,28.8"/>
<text text-anchor="middle" x="370.03" y="-781.57" font-family="Helvetica,sans-Serif" font-size="36.00">lightning_application</text>
<!-- fdi -->
<g id="node1" class="node">
<title>fdi</title>
<polygon fill="#5397c8" stroke="black" points="316.44,-436.92 316.44,-474.92 417.44,-474.92 417.44,-436.92 316.44,-436.92"/>
<text text-anchor="middle" x="366.94" y="-462.92" font-family="monospace" font-size="10.00">external crate</text>
<polyline fill="none" stroke="black" points="316.44,-455.92 417.44,-455.92 "/>
<text text-anchor="middle" x="366.94" y="-443.92" font-family="monospace" font-size="10.00">fdi</text>
</g>
<!-- lightning_application -->
<g id="node2" class="node">
<title>lightning_application</title>
<polygon fill="#5397c8" stroke="black" points="0,-436.92 0,-474.92 143,-474.92 143,-436.92 0,-436.92"/>
<text text-anchor="middle" x="71.5" y="-462.92" font-family="monospace" font-size="10.00">crate</text>
<polyline fill="none" stroke="black" points="0,-455.92 143,-455.92 "/>
<text text-anchor="middle" x="71.5" y="-443.92" font-family="monospace" font-size="10.00">lightning_application</text>
</g>
<!-- lightning_application::app -->
<g id="node3" class="node">
<title>lightning_application::app</title>
<polygon fill="#81c169" stroke="black" points="254.79,-582.4 254.79,-620.4 427.79,-620.4 427.79,-582.4 254.79,-582.4"/>
<text text-anchor="middle" x="341.29" y="-608.4" font-family="monospace" font-size="10.00">pub mod</text>
<polyline fill="none" stroke="black" points="254.79,-601.4 427.79,-601.4 "/>
<text text-anchor="middle" x="341.29" y="-589.4" font-family="monospace" font-size="10.00">lightning_application::app</text>
</g>
<!-- lightning_application&#45;&gt;lightning_application::app -->
<g id="edge1" class="edge">
<title>lightning_application&#45;&gt;lightning_application::app</title>
<path fill="none" stroke="#000000" d="M106.77,-474.94C155.65,-501.29 243.95,-548.91 297.14,-577.59"/>
<polygon fill="#000000" stroke="#000000" points="295.54,-580.71 306.01,-582.37 298.87,-574.55 295.54,-580.71"/>
<text text-anchor="middle" x="189.46" y="-529.27" font-family="monospace" font-size="10.00">owns</text>
</g>
<!-- lightning_application::config -->
<g id="node4" class="node">
<title>lightning_application::config</title>
<polygon fill="#81c169" stroke="black" points="549.05,-537.97 549.05,-575.97 740.05,-575.97 740.05,-537.97 549.05,-537.97"/>
<text text-anchor="middle" x="644.55" y="-563.97" font-family="monospace" font-size="10.00">pub mod</text>
<polyline fill="none" stroke="black" points="549.05,-556.97 740.05,-556.97 "/>
<text text-anchor="middle" x="644.55" y="-544.97" font-family="monospace" font-size="10.00">lightning_application::config</text>
</g>
<!-- lightning_application&#45;&gt;lightning_application::config -->
<g id="edge2" class="edge">
<title>lightning_application&#45;&gt;lightning_application::config</title>
<path fill="none" stroke="#000000" d="M143.21,-468.57C242.86,-486.14 423.93,-518.06 539.02,-538.36"/>
<polygon fill="#000000" stroke="#000000" points="538.46,-541.81 548.91,-540.1 539.67,-534.92 538.46,-541.81"/>
<text text-anchor="middle" x="328.62" y="-506.46" font-family="monospace" font-size="10.00">owns</text>
</g>
<!-- lightning_application::env -->
<g id="node5" class="node">
<title>lightning_application::env</title>
<polygon fill="#81c169" stroke="black" points="306.09,-291.45 306.09,-329.45 479.09,-329.45 479.09,-291.45 306.09,-291.45"/>
<text text-anchor="middle" x="392.59" y="-317.45" font-family="monospace" font-size="10.00">pub mod</text>
<polyline fill="none" stroke="black" points="306.09,-310.45 479.09,-310.45 "/>
<text text-anchor="middle" x="392.59" y="-298.45" font-family="monospace" font-size="10.00">lightning_application::env</text>
</g>
<!-- lightning_application&#45;&gt;lightning_application::env -->
<g id="edge3" class="edge">
<title>lightning_application&#45;&gt;lightning_application::env</title>
<path fill="none" stroke="#000000" d="M113.48,-436.9C172.01,-410.38 278.05,-362.34 341.22,-333.72"/>
<polygon fill="#000000" stroke="#000000" points="342.94,-336.79 350.6,-329.47 340.05,-330.41 342.94,-336.79"/>
<text text-anchor="middle" x="214.85" y="-388.31" font-family="monospace" font-size="10.00">owns</text>
</g>
<!-- lightning_application::genesis -->
<g id="node6" class="node">
<title>lightning_application::genesis</title>
<polygon fill="#81c169" stroke="black" points="42.12,-247.02 42.12,-285.02 239.12,-285.02 239.12,-247.02 42.12,-247.02"/>
<text text-anchor="middle" x="140.62" y="-273.02" font-family="monospace" font-size="10.00">pub mod</text>
<polyline fill="none" stroke="black" points="42.12,-266.02 239.12,-266.02 "/>
<text text-anchor="middle" x="140.62" y="-254.02" font-family="monospace" font-size="10.00">lightning_application::genesis</text>
</g>
<!-- lightning_application&#45;&gt;lightning_application::genesis -->
<g id="edge4" class="edge">
<title>lightning_application&#45;&gt;lightning_application::genesis</title>
<path fill="none" stroke="#000000" d="M78.51,-436.67C90.73,-403.1 115.98,-333.71 130.24,-294.54"/>
<polygon fill="#000000" stroke="#000000" points="133.56,-295.64 133.7,-285.04 126.99,-293.24 133.56,-295.64"/>
<text text-anchor="middle" x="91.87" y="-368.6" font-family="monospace" font-size="10.00">owns</text>
</g>
<!-- lightning_application::query_runner -->
<g id="node7" class="node">
<title>lightning_application::query_runner</title>
<polygon fill="#81c169" stroke="black" points="401.15,-692.78 401.15,-730.78 628.15,-730.78 628.15,-692.78 401.15,-692.78"/>
<text text-anchor="middle" x="514.65" y="-718.78" font-family="monospace" font-size="10.00">pub mod</text>
<polyline fill="none" stroke="black" points="401.15,-711.78 628.15,-711.78 "/>
<text text-anchor="middle" x="514.65" y="-699.78" font-family="monospace" font-size="10.00">lightning_application::query_runner</text>
</g>
<!-- lightning_application&#45;&gt;lightning_application::query_runner -->
<g id="edge5" class="edge">
<title>lightning_application&#45;&gt;lightning_application::query_runner</title>
<path fill="none" stroke="#000000" d="M104.45,-474.94C183.68,-520.69 384.83,-636.82 472.61,-687.5"/>
<polygon fill="#000000" stroke="#000000" points="471.08,-690.66 481.49,-692.63 474.58,-684.6 471.08,-690.66"/>
<text text-anchor="middle" x="276.03" y="-573.22" font-family="monospace" font-size="10.00">owns</text>
</g>
<!-- lightning_application::state -->
<g id="node8" class="node">
<title>lightning_application::state</title>
<polygon fill="#81c169" stroke="black" points="223.13,-145.97 223.13,-183.97 408.13,-183.97 408.13,-145.97 223.13,-145.97"/>
<text text-anchor="middle" x="315.63" y="-171.97" font-family="monospace" font-size="10.00">pub mod</text>
<polyline fill="none" stroke="black" points="223.13,-164.97 408.13,-164.97 "/>
<text text-anchor="middle" x="315.63" y="-152.97" font-family="monospace" font-size="10.00">lightning_application::state</text>
</g>
<!-- lightning_application&#45;&gt;lightning_application::state -->
<g id="edge6" class="edge">
<title>lightning_application&#45;&gt;lightning_application::state</title>
<path fill="none" stroke="#000000" d="M87.52,-436.83C129.77,-386.48 244.32,-249.97 293.12,-191.8"/>
<polygon fill="#000000" stroke="#000000" points="295.81,-194.04 299.56,-184.13 290.45,-189.54 295.81,-194.04"/>
<text text-anchor="middle" x="177.82" y="-317.32" font-family="monospace" font-size="10.00">owns</text>
</g>
<!-- lightning_application::storage -->
<g id="node9" class="node">
<title>lightning_application::storage</title>
<polygon fill="#f8c04c" stroke="black" points="416.15,-181.07 416.15,-219.07 613.15,-219.07 613.15,-181.07 416.15,-181.07"/>
<text text-anchor="middle" x="514.65" y="-207.07" font-family="monospace" font-size="10.00">pub(crate) mod</text>
<polyline fill="none" stroke="black" points="416.15,-200.07 613.15,-200.07 "/>
<text text-anchor="middle" x="514.65" y="-188.07" font-family="monospace" font-size="10.00">lightning_application::storage</text>
</g>
<!-- lightning_application&#45;&gt;lightning_application::storage -->
<g id="edge7" class="edge">
<title>lightning_application&#45;&gt;lightning_application::storage</title>
<path fill="none" stroke="#000000" d="M104.45,-436.9C183.68,-391.15 384.83,-275.02 472.61,-224.34"/>
<polygon fill="#000000" stroke="#000000" points="474.58,-227.24 481.49,-219.21 471.08,-221.18 474.58,-227.24"/>
<text text-anchor="middle" x="276.03" y="-333.62" font-family="monospace" font-size="10.00">owns</text>
</g>
<!-- lightning_application::table -->
<g id="node10" class="node">
<title>lightning_application::table</title>
<polygon fill="#81c169" stroke="black" points="552.05,-335.88 552.05,-373.88 737.05,-373.88 737.05,-335.88 552.05,-335.88"/>
<text text-anchor="middle" x="644.55" y="-361.88" font-family="monospace" font-size="10.00">pub mod</text>
<polyline fill="none" stroke="black" points="552.05,-354.88 737.05,-354.88 "/>
<text text-anchor="middle" x="644.55" y="-342.88" font-family="monospace" font-size="10.00">lightning_application::table</text>
</g>
<!-- lightning_application&#45;&gt;lightning_application::table -->
<g id="edge8" class="edge">
<title>lightning_application&#45;&gt;lightning_application::table</title>
<path fill="none" stroke="#000000" d="M143.21,-443.28C243.74,-425.55 427.12,-393.22 542.04,-372.95"/>
<polygon fill="#000000" stroke="#000000" points="542.67,-376.4 551.91,-371.21 541.45,-369.5 542.67,-376.4"/>
<text text-anchor="middle" x="330.12" y="-411.11" font-family="monospace" font-size="10.00">owns</text>
</g>
<!-- lightning_application::app&#45;&gt;fdi -->
<g id="edge9" class="edge">
<title>lightning_application::app&#45;&gt;fdi</title>
<path fill="none" stroke="#7f7f7f" stroke-dasharray="5,2" d="M344.64,-582.38C349.02,-557.55 356.72,-513.85 361.83,-484.88"/>
<polygon fill="#7f7f7f" stroke="#7f7f7f" points="365.29,-485.4 363.58,-474.94 358.4,-484.18 365.29,-485.4"/>
<text text-anchor="middle" x="340.73" y="-536.63" font-family="monospace" font-size="10.00">uses</text>
</g>
<!-- lightning_application::app&#45;&gt;lightning_application::config -->
<g id="edge10" class="edge">
<title>lightning_application::app&#45;&gt;lightning_application::config</title>
<path fill="none" stroke="#7f7f7f" stroke-dasharray="5,2" d="M428.19,-588.66C462.67,-583.61 502.64,-577.76 538.78,-572.46"/>
<polygon fill="#7f7f7f" stroke="#7f7f7f" points="539.48,-575.9 548.86,-570.99 538.46,-568.97 539.48,-575.9"/>
<text text-anchor="middle" x="470.98" y="-583.56" font-family="monospace" font-size="10.00">uses</text>
</g>
<!-- lightning_application::app&#45;&gt;lightning_application::env -->
<g id="edge11" class="edge">
<title>lightning_application::app&#45;&gt;lightning_application::env</title>
<path fill="none" stroke="#7f7f7f" stroke-dasharray="5,2" d="M344.65,-582.31C353.4,-532.68 376.91,-399.33 387.41,-339.82"/>
<polygon fill="#7f7f7f" stroke="#7f7f7f" points="390.92,-340.06 389.21,-329.61 384.03,-338.85 390.92,-340.06"/>
<text text-anchor="middle" x="353.53" y="-464.06" font-family="monospace" font-size="10.00">uses</text>
</g>
<!-- lightning_application::app&#45;&gt;lightning_application::query_runner -->
<g id="edge12" class="edge">
<title>lightning_application::app&#45;&gt;lightning_application::query_runner</title>
<path fill="none" stroke="#7f7f7f" stroke-dasharray="5,2" d="M371.48,-620.62C400.57,-639.14 444.68,-667.23 476.25,-687.33"/>
<polygon fill="#7f7f7f" stroke="#7f7f7f" points="474.49,-690.35 484.8,-692.77 478.25,-684.45 474.49,-690.35"/>
<text text-anchor="middle" x="411.37" y="-656.97" font-family="monospace" font-size="10.00">uses</text>
</g>
<!-- lightning_schema -->
<g id="node12" class="node">
<title>lightning_schema</title>
<polygon fill="#5397c8" stroke="black" points="259.13,-727.87 259.13,-765.87 372.13,-765.87 372.13,-727.87 259.13,-727.87"/>
<text text-anchor="middle" x="315.63" y="-753.87" font-family="monospace" font-size="10.00">external crate</text>
<polyline fill="none" stroke="black" points="259.13,-746.87 372.13,-746.87 "/>
<text text-anchor="middle" x="315.63" y="-734.87" font-family="monospace" font-size="10.00">lightning_schema</text>
</g>
<!-- lightning_application::app&#45;&gt;lightning_schema -->
<g id="edge13" class="edge">
<title>lightning_application::app&#45;&gt;lightning_schema</title>
<path fill="none" stroke="#7f7f7f" stroke-dasharray="5,2" d="M337.93,-620.41C333.55,-645.24 325.85,-688.95 320.74,-717.91"/>
<polygon fill="#7f7f7f" stroke="#7f7f7f" points="317.28,-717.39 318.99,-727.85 324.17,-718.61 317.28,-717.39"/>
<text text-anchor="middle" x="316.84" y="-672.16" font-family="monospace" font-size="10.00">uses</text>
</g>
<!-- lightning_types -->
<g id="node13" class="node">
<title>lightning_types</title>
<polygon fill="#5397c8" stroke="black" points="87.12,-626.82 87.12,-664.82 194.12,-664.82 194.12,-626.82 87.12,-626.82"/>
<text text-anchor="middle" x="140.62" y="-652.82" font-family="monospace" font-size="10.00">external crate</text>
<polyline fill="none" stroke="black" points="87.12,-645.82 194.12,-645.82 "/>
<text text-anchor="middle" x="140.62" y="-633.82" font-family="monospace" font-size="10.00">lightning_types</text>
</g>
<!-- lightning_application::app&#45;&gt;lightning_types -->
<g id="edge14" class="edge">
<title>lightning_application::app&#45;&gt;lightning_types</title>
<path fill="none" stroke="#7f7f7f" stroke-dasharray="5,2" d="M255.31,-620.43C238.13,-624.23 220.38,-628.16 204.13,-631.76"/>
<polygon fill="#7f7f7f" stroke="#7f7f7f" points="203.23,-628.38 194.22,-633.96 204.74,-635.21 203.23,-628.38"/>
<text text-anchor="middle" x="217.22" y="-629.1" font-family="monospace" font-size="10.00">uses</text>
</g>
<!-- lightning_application::config&#45;&gt;lightning_application::genesis -->
<g id="edge15" class="edge">
<title>lightning_application::config&#45;&gt;lightning_application::genesis</title>
<path fill="none" stroke="#7f7f7f" stroke-dasharray="5,2" d="M611.49,-537.88C522.94,-486.75 280.55,-346.81 182.55,-290.23"/>
<polygon fill="#7f7f7f" stroke="#7f7f7f" points="184.22,-287.15 173.81,-285.18 180.72,-293.21 184.22,-287.15"/>
<text text-anchor="middle" x="384.52" y="-417.05" font-family="monospace" font-size="10.00">uses</text>
</g>
<!-- lightning_application::env&#45;&gt;fdi -->
<g id="edge16" class="edge">
<title>lightning_application::env&#45;&gt;fdi</title>
<path fill="none" stroke="#7f7f7f" stroke-dasharray="5,2" d="M389.23,-329.47C384.86,-354.3 377.15,-398 372.04,-426.96"/>
<polygon fill="#7f7f7f" stroke="#7f7f7f" points="368.58,-426.44 370.29,-436.9 375.47,-427.66 368.58,-426.44"/>
<text text-anchor="middle" x="368.14" y="-381.21" font-family="monospace" font-size="10.00">uses</text>
</g>
<!-- lightning_application::env&#45;&gt;lightning_application::config -->
<g id="edge17" class="edge">
<title>lightning_application::env&#45;&gt;lightning_application::config</title>
<path fill="none" stroke="#7f7f7f" stroke-dasharray="5,2" d="M412.36,-329.79C457.16,-373.62 566.47,-480.57 617.5,-530.49"/>
<polygon fill="#7f7f7f" stroke="#7f7f7f" points="615.28,-533.22 624.88,-537.71 620.18,-528.22 615.28,-533.22"/>
<text text-anchor="middle" x="502.43" y="-433.14" font-family="monospace" font-size="10.00">uses</text>
</g>
<!-- lightning_application::env&#45;&gt;lightning_application::genesis -->
<g id="edge18" class="edge">
<title>lightning_application::env&#45;&gt;lightning_application::genesis</title>
<path fill="none" stroke="#7f7f7f" stroke-dasharray="5,2" d="M305.87,-295.16C287.57,-291.93 268.04,-288.49 249.04,-285.14"/>
<polygon fill="#7f7f7f" stroke="#7f7f7f" points="249.63,-281.69 239.17,-283.4 248.41,-288.58 249.63,-281.69"/>
<text text-anchor="middle" x="264.96" y="-293.15" font-family="monospace" font-size="10.00">uses</text>
</g>
<!-- lightning_application::env&#45;&gt;lightning_application::query_runner -->
<g id="edge19" class="edge">
<title>lightning_application::env&#45;&gt;lightning_application::query_runner</title>
<path fill="none" stroke="#7f7f7f" stroke-dasharray="5,2" d="M398.39,-329.53C418.07,-394.24 482.33,-605.51 505.89,-682.97"/>
<polygon fill="#7f7f7f" stroke="#7f7f7f" points="502.55,-684.02 508.81,-692.57 509.25,-681.99 502.55,-684.02"/>
<text text-anchor="middle" x="439.64" y="-509.25" font-family="monospace" font-size="10.00">uses</text>
</g>
<!-- lightning_application::env&#45;&gt;lightning_application::state -->
<g id="edge20" class="edge">
<title>lightning_application::env&#45;&gt;lightning_application::state</title>
<path fill="none" stroke="#7f7f7f" stroke-dasharray="5,2" d="M382.53,-291.43C369.28,-266.38 345.87,-222.13 330.55,-193.18"/>
<polygon fill="#7f7f7f" stroke="#7f7f7f" points="333.47,-191.2 325.7,-184 327.28,-194.47 333.47,-191.2"/>
<text text-anchor="middle" x="344.04" y="-245.3" font-family="monospace" font-size="10.00">uses</text>
</g>
<!-- lightning_application::env&#45;&gt;lightning_application::storage -->
<g id="edge21" class="edge">
<title>lightning_application::env&#45;&gt;lightning_application::storage</title>
<path fill="none" stroke="#7f7f7f" stroke-dasharray="5,2" d="M413.85,-291.22C433.89,-273.1 464.07,-245.81 486.18,-225.81"/>
<polygon fill="#7f7f7f" stroke="#7f7f7f" points="488.57,-228.38 493.64,-219.07 483.87,-223.18 488.57,-228.38"/>
<text text-anchor="middle" x="437.51" y="-261.52" font-family="monospace" font-size="10.00">uses</text>
</g>
<!-- lightning_application::env&#45;&gt;lightning_application::table -->
<g id="edge22" class="edge">
<title>lightning_application::env&#45;&gt;lightning_application::table</title>
<path fill="none" stroke="#7f7f7f" stroke-dasharray="5,2" d="M479.3,-325.74C499.36,-329.28 520.9,-333.07 541.59,-336.72"/>
<polygon fill="#7f7f7f" stroke="#7f7f7f" points="541.2,-340.21 551.66,-338.5 542.42,-333.31 541.2,-340.21"/>
<text text-anchor="middle" x="497.94" y="-334.23" font-family="monospace" font-size="10.00">uses</text>
</g>
<!-- lightning_application::env&#45;&gt;lightning_schema -->
<g id="edge23" class="edge">
<title>lightning_application::env&#45;&gt;lightning_schema</title>
<path fill="none" stroke="#7f7f7f" stroke-dasharray="5,2" d="M389.23,-329.48C377.09,-398.32 335.42,-634.67 320.77,-717.72"/>
<polygon fill="#7f7f7f" stroke="#7f7f7f" points="317.3,-717.28 319.01,-727.74 324.19,-718.5 317.3,-717.28"/>
<text text-anchor="middle" x="367.5" y="-526.6" font-family="monospace" font-size="10.00">uses</text>
</g>
<!-- lightning_application::env&#45;&gt;lightning_types -->
<g id="edge24" class="edge">
<title>lightning_application::env&#45;&gt;lightning_types</title>
<path fill="none" stroke="#7f7f7f" stroke-dasharray="5,2" d="M377.95,-329.93C335.23,-386.79 210.61,-552.67 161.17,-618.47"/>
<polygon fill="#7f7f7f" stroke="#7f7f7f" points="158.19,-616.61 154.98,-626.71 163.79,-620.81 158.19,-616.61"/>
<text text-anchor="middle" x="257.06" y="-477.2" font-family="monospace" font-size="10.00">uses</text>
</g>
<!-- lightning_application::query_runner&#45;&gt;lightning_application::state -->
<g id="edge25" class="edge">
<title>lightning_application::query_runner&#45;&gt;lightning_application::state</title>
<path fill="none" stroke="#7f7f7f" stroke-dasharray="5,2" d="M507.69,-692.64C477.99,-611.03 361.82,-291.88 326.13,-193.8"/>
<polygon fill="#7f7f7f" stroke="#7f7f7f" points="329.36,-192.44 322.65,-184.24 322.78,-194.84 329.36,-192.44"/>
<text text-anchor="middle" x="429.41" y="-435.22" font-family="monospace" font-size="10.00">uses</text>
</g>
<!-- lightning_application::query_runner&#45;&gt;lightning_application::storage -->
<g id="edge26" class="edge">
<title>lightning_application::query_runner&#45;&gt;lightning_application::storage</title>
<path fill="none" stroke="#7f7f7f" stroke-dasharray="5,2" d="M514.65,-692.65C514.65,-615.07 514.65,-323.54 514.65,-229.5"/>
<polygon fill="#7f7f7f" stroke="#7f7f7f" points="518.15,-229.29 514.65,-219.29 511.15,-229.29 518.15,-229.29"/>
<text text-anchor="middle" x="502.15" y="-464.08" font-family="monospace" font-size="10.00">uses</text>
</g>
<!-- lightning_application::query_runner&#45;&gt;lightning_application::table -->
<g id="edge27" class="edge">
<title>lightning_application::query_runner&#45;&gt;lightning_application::table</title>
<path fill="none" stroke="#7f7f7f" stroke-dasharray="5,2" d="M521.64,-692.59C543.14,-633.52 608.41,-454.19 634.05,-383.74"/>
<polygon fill="#7f7f7f" stroke="#7f7f7f" points="637.41,-384.75 637.54,-374.16 630.83,-382.36 637.41,-384.75"/>
<text text-anchor="middle" x="565.34" y="-530.16" font-family="monospace" font-size="10.00">uses</text>
</g>
<!-- lightning_application::state&#45;&gt;lightning_application::table -->
<g id="edge28" class="edge">
<title>lightning_application::state&#45;&gt;lightning_application::table</title>
<path fill="none" stroke="#7f7f7f" stroke-dasharray="5,2" d="M348.68,-184.05C408.89,-218.82 536.36,-292.41 602.61,-330.66"/>
<polygon fill="#7f7f7f" stroke="#7f7f7f" points="601.12,-333.84 611.53,-335.81 604.62,-327.78 601.12,-333.84"/>
<text text-anchor="middle" x="463.14" y="-260.35" font-family="monospace" font-size="10.00">uses</text>
</g>
<!-- lightning_reputation::statistics -->
<g id="node11" class="node">
<title>lightning_reputation::statistics</title>
<polygon fill="#81c169" stroke="black" points="185.48,-0.5 185.48,-38.5 394.48,-38.5 394.48,-0.5 185.48,-0.5"/>
<text text-anchor="middle" x="289.98" y="-26.5" font-family="monospace" font-size="10.00">external mod</text>
<polyline fill="none" stroke="black" points="185.48,-19.5 394.48,-19.5 "/>
<text text-anchor="middle" x="289.98" y="-7.5" font-family="monospace" font-size="10.00">lightning_reputation::statistics</text>
</g>
<!-- lightning_application::state&#45;&gt;lightning_reputation::statistics -->
<g id="edge29" class="edge">
<title>lightning_application::state&#45;&gt;lightning_reputation::statistics</title>
<path fill="none" stroke="#7f7f7f" stroke-dasharray="5,2" d="M312.28,-145.96C307.9,-121.13 300.2,-77.42 295.09,-48.46"/>
<polygon fill="#7f7f7f" stroke="#7f7f7f" points="298.52,-47.76 293.34,-38.52 291.63,-48.98 298.52,-47.76"/>
<text text-anchor="middle" x="291.19" y="-100.21" font-family="monospace" font-size="10.00">uses</text>
</g>
</g>
</svg>
