<?xml version="1.0" encoding="UTF-8" standalone="no"?>
<!DOCTYPE svg PUBLIC "-//W3C//DTD SVG 1.1//EN"
 "http://www.w3.org/Graphics/SVG/1.1/DTD/svg11.dtd">
<!-- Generated by graphviz version 4.0.0 (0)
 -->
<!-- Pages: 1 -->
<svg width="383pt" height="333pt"
 viewBox="0.00 0.00 382.60 332.62" xmlns="http://www.w3.org/2000/svg" xmlns:xlink="http://www.w3.org/1999/xlink">
<g id="graph0" class="graph" transform="scale(1 1) rotate(0) translate(28.8 303.82)">
<polygon fill="white" stroke="transparent" points="-28.8,28.8 -28.8,-303.82 353.8,-303.82 353.8,28.8 -28.8,28.8"/>
<text text-anchor="middle" x="162.5" y="-242.22" font-family="Helvetica,sans-Serif" font-size="36.00">lightning_indexer</text>
<!-- lightning_indexer -->
<g id="node1" class="node">
<title>lightning_indexer</title>
<polygon fill="#5397c8" stroke="black" points="182.91,-47.5 182.91,-85.5 301.91,-85.5 301.91,-47.5 182.91,-47.5"/>
<text text-anchor="middle" x="242.41" y="-73.5" font-family="monospace" font-size="10.00">crate</text>
<polyline fill="none" stroke="black" points="182.91,-66.5 301.91,-66.5 "/>
<text text-anchor="middle" x="242.41" y="-54.5" font-family="monospace" font-size="10.00">lightning_indexer</text>
</g>
<!-- lightning_indexer::Indexer -->
<g id="node2" class="node">
<title>lightning_indexer::Indexer</title>
<polygon fill="#81c169" stroke="black" points="122.5,-94.51 122.5,-132.51 199.5,-132.51 199.5,-94.51 122.5,-94.51"/>
<text text-anchor="middle" x="161" y="-120.51" font-family="monospace" font-size="10.00">pub struct</text>
<polyline fill="none" stroke="black" points="122.5,-113.51 199.5,-113.51 "/>
<text text-anchor="middle" x="161" y="-101.51" font-family="monospace" font-size="10.00">Indexer</text>
</g>
<!-- lightning_indexer&#45;&gt;lightning_indexer::Indexer -->
<g id="edge1" class="edge">
<title>lightning_indexer&#45;&gt;lightning_indexer::Indexer</title>
<path fill="none" stroke="#000000" d="M209.3,-85.62C207.26,-86.8 205.2,-87.99 203.13,-89.19"/>
<polygon fill="#000000" stroke="#000000" points="201,-86.38 194.09,-94.41 204.5,-92.44 201,-86.38"/>
<text text-anchor="middle" x="218.71" y="-90.41" font-family="monospace" font-size="10.00">owns</text>
</g>
<!-- lightning_indexer::Indexer::build_graph -->
<g id="node3" class="node">
<title>lightning_indexer::Indexer::build_graph</title>
<polygon fill="#f8c04c" stroke="black" points="173.91,-141.51 173.91,-179.51 310.91,-179.51 310.91,-141.51 173.91,-141.51"/>
<text text-anchor="middle" x="242.41" y="-167.51" font-family="monospace" font-size="10.00">pub(crate) fn</text>
<polyline fill="none" stroke="black" points="173.91,-160.51 310.91,-160.51 "/>
<text text-anchor="middle" x="242.41" y="-148.51" font-family="monospace" font-size="10.00">Indexer::build_graph</text>
</g>
<!-- lightning_indexer::Indexer&#45;&gt;lightning_indexer::Indexer::build_graph -->
<g id="edge2" class="edge">
<title>lightning_indexer::Indexer&#45;&gt;lightning_indexer::Indexer::build_graph</title>
<path fill="none" stroke="#000000" d="M194.11,-132.63C196.15,-133.81 198.22,-135 200.29,-136.19"/>
<polygon fill="#000000" stroke="#000000" points="198.92,-139.44 209.33,-141.41 202.42,-133.38 198.92,-139.44"/>
<text text-anchor="middle" x="209.7" y="-126.41" font-family="monospace" font-size="10.00">owns</text>
</g>
<!-- lightning_indexer::Indexer::get_index -->
<g id="node4" class="node">
<title>lightning_indexer::Indexer::get_index</title>
<polygon fill="#f8c04c" stroke="black" points="98.5,-188.52 98.5,-226.52 223.5,-226.52 223.5,-188.52 98.5,-188.52"/>
<text text-anchor="middle" x="161" y="-214.52" font-family="monospace" font-size="10.00">pub(crate) fn</text>
<polyline fill="none" stroke="black" points="98.5,-207.52 223.5,-207.52 "/>
<text text-anchor="middle" x="161" y="-195.52" font-family="monospace" font-size="10.00">Indexer::get_index</text>
</g>
<!-- lightning_indexer::Indexer&#45;&gt;lightning_indexer::Indexer::get_index -->
<g id="edge3" class="edge">
<title>lightning_indexer::Indexer&#45;&gt;lightning_indexer::Indexer::get_index</title>
<path fill="none" stroke="#000000" d="M138.81,-132.53C133.63,-145.7 132.64,-163.47 135.82,-178.4"/>
<polygon fill="#000000" stroke="#000000" points="132.52,-179.59 138.69,-188.2 139.24,-177.62 132.52,-179.59"/>
<text text-anchor="middle" x="149.81" y="-158.47" font-family="monospace" font-size="10.00">owns</text>
</g>
<!-- lightning_indexer::Indexer::init -->
<g id="node5" class="node">
<title>lightning_indexer::Indexer::init</title>
<polygon fill="#f8c04c" stroke="black" points="32.09,-141.51 32.09,-179.51 127.09,-179.51 127.09,-141.51 32.09,-141.51"/>
<text text-anchor="middle" x="79.59" y="-167.51" font-family="monospace" font-size="10.00">pub(crate) fn</text>
<polyline fill="none" stroke="black" points="32.09,-160.51 127.09,-160.51 "/>
<text text-anchor="middle" x="79.59" y="-148.51" font-family="monospace" font-size="10.00">Indexer::init</text>
</g>
<!-- lightning_indexer::Indexer&#45;&gt;lightning_indexer::Indexer::init -->
<g id="edge4" class="edge">
<title>lightning_indexer::Indexer&#45;&gt;lightning_indexer::Indexer::init</title>
<path fill="none" stroke="#000000" d="M122.33,-106.54C107.77,-111.46 92.97,-121.36 84.4,-132.5"/>
<polygon fill="#000000" stroke="#000000" points="81.33,-130.82 79.18,-141.2 87.33,-134.43 81.33,-130.82"/>
<text text-anchor="middle" x="90.87" y="-122.52" font-family="monospace" font-size="10.00">owns</text>
</g>
<!-- lightning_indexer::Indexer::register -->
<g id="node6" class="node">
<title>lightning_indexer::Indexer::register</title>
<polygon fill="#f8c04c" stroke="black" points="14.09,-47.5 14.09,-85.5 145.09,-85.5 145.09,-47.5 14.09,-47.5"/>
<text text-anchor="middle" x="79.59" y="-73.5" font-family="monospace" font-size="10.00">pub(crate) async fn</text>
<polyline fill="none" stroke="black" points="14.09,-66.5 145.09,-66.5 "/>
<text text-anchor="middle" x="79.59" y="-54.5" font-family="monospace" font-size="10.00">Indexer::register</text>
</g>
<!-- lightning_indexer::Indexer&#45;&gt;lightning_indexer::Indexer::register -->
<g id="edge5" class="edge">
<title>lightning_indexer::Indexer&#45;&gt;lightning_indexer::Indexer::register</title>
<path fill="none" stroke="#000000" d="M161.38,-94.13C159.52,-89.82 156.55,-85.55 152.81,-81.51"/>
<polygon fill="#000000" stroke="#000000" points="155.04,-78.81 145.34,-74.55 150.27,-83.93 155.04,-78.81"/>
<text text-anchor="middle" x="169.6" y="-79.82" font-family="monospace" font-size="10.00">owns</text>
</g>
<!-- lightning_indexer::Indexer::unregister -->
<g id="node7" class="node">
<title>lightning_indexer::Indexer::unregister</title>
<polygon fill="#f8c04c" stroke="black" points="95.5,-0.5 95.5,-38.5 226.5,-38.5 226.5,-0.5 95.5,-0.5"/>
<text text-anchor="middle" x="161" y="-26.5" font-family="monospace" font-size="10.00">pub(crate) async fn</text>
<polyline fill="none" stroke="black" points="95.5,-19.5 226.5,-19.5 "/>
<text text-anchor="middle" x="161" y="-7.5" font-family="monospace" font-size="10.00">Indexer::unregister</text>
</g>
<!-- lightning_indexer::Indexer&#45;&gt;lightning_indexer::Indexer::unregister -->
<g id="edge6" class="edge">
<title>lightning_indexer::Indexer&#45;&gt;lightning_indexer::Indexer::unregister</title>
<path fill="none" stroke="#000000" d="M183.19,-94.49C188.37,-81.32 189.36,-63.55 186.18,-48.62"/>
<polygon fill="#000000" stroke="#000000" points="189.48,-47.43 183.31,-38.82 182.76,-49.4 189.48,-47.43"/>
<text text-anchor="middle" x="172.19" y="-63.55" font-family="monospace" font-size="10.00">owns</text>
</g>
<!-- lightning_indexer::Indexer::get_index&#45;&gt;lightning_indexer::Indexer -->
<g id="edge7" class="edge">
<title>lightning_indexer::Indexer::get_index&#45;&gt;lightning_indexer::Indexer</title>
<path fill="none" stroke="#7f7f7f" stroke-dasharray="5,2" d="M183.19,-188.49C188.37,-175.33 189.36,-157.56 186.18,-142.62"/>
<polygon fill="#7f7f7f" stroke="#7f7f7f" points="189.48,-141.44 183.31,-132.83 182.76,-143.41 189.48,-141.44"/>
<text text-anchor="middle" x="172.19" y="-168.56" font-family="monospace" font-size="10.00">uses</text>
</g>
<!-- lightning_indexer::Indexer::init&#45;&gt;lightning_indexer::Indexer -->
<g id="edge8" class="edge">
<title>lightning_indexer::Indexer::init&#45;&gt;lightning_indexer::Indexer</title>
<path fill="none" stroke="#7f7f7f" stroke-dasharray="5,2" d="M127.47,-163.72C138.87,-158.28 149.56,-150.21 156.3,-141.37"/>
<polygon fill="#7f7f7f" stroke="#7f7f7f" points="159.35,-143.1 161.46,-132.72 153.33,-139.52 159.35,-143.1"/>
<text text-anchor="middle" x="154.39" y="-144.55" font-family="monospace" font-size="10.00">uses</text>
</g>
<!-- lightning_indexer::Indexer::register&#45;&gt;lightning_indexer::Indexer -->
<g id="edge9" class="edge">
<title>lightning_indexer::Indexer::register&#45;&gt;lightning_indexer::Indexer</title>
<path fill="none" stroke="#7f7f7f" stroke-dasharray="5,2" d="M79.2,-85.88C84.38,-97.84 98.03,-109.48 112.93,-116.63"/>
<polygon fill="#7f7f7f" stroke="#7f7f7f" points="111.72,-119.92 122.3,-120.46 114.37,-113.44 111.72,-119.92"/>
<text text-anchor="middle" x="83.57" y="-104.26" font-family="monospace" font-size="10.00">uses</text>
</g>
<!-- lightning_indexer::Indexer::unregister&#45;&gt;lightning_indexer::Indexer -->
<g id="edge10" class="edge">
<title>lightning_indexer::Indexer::unregister&#45;&gt;lightning_indexer::Indexer</title>
<path fill="none" stroke="#7f7f7f" stroke-dasharray="5,2" d="M138.81,-38.52C133.63,-51.69 132.64,-69.46 135.82,-84.39"/>
<polygon fill="#7f7f7f" stroke="#7f7f7f" points="132.52,-85.58 138.69,-94.19 139.24,-83.61 132.52,-85.58"/>
<text text-anchor="middle" x="149.81" y="-64.46" font-family="monospace" font-size="10.00">uses</text>
</g>
</g>
</svg>
