<?xml version="1.0" encoding="UTF-8" standalone="no"?>
<!DOCTYPE svg PUBLIC "-//W3C//DTD SVG 1.1//EN"
 "http://www.w3.org/Graphics/SVG/1.1/DTD/svg11.dtd">
<!-- Generated by graphviz version 4.0.0 (0)
 -->
<!-- Pages: 1 -->
<svg width="1525pt" height="1331pt"
 viewBox="0.00 0.00 1525.26 1331.26" xmlns="http://www.w3.org/2000/svg" xmlns:xlink="http://www.w3.org/1999/xlink">
<g id="graph0" class="graph" transform="scale(1 1) rotate(0) translate(28.8 1302.46)">
<polygon fill="white" stroke="transparent" points="-28.8,28.8 -28.8,-1302.46 1496.46,-1302.46 1496.46,28.8 -28.8,28.8"/>
<text text-anchor="middle" x="733.83" y="-1240.86" font-family="Helvetica,sans-Serif" font-size="36.00">lightning_reputation</text>
<!-- lightning_reputation -->
<g id="node1" class="node">
<title>lightning_reputation</title>
<polygon fill="#5397c8" stroke="black" points="421.85,-444.71 421.85,-482.71 558.85,-482.71 558.85,-444.71 421.85,-444.71"/>
<text text-anchor="middle" x="490.35" y="-470.71" font-family="monospace" font-size="10.00">crate</text>
<polyline fill="none" stroke="black" points="421.85,-463.71 558.85,-463.71 "/>
<text text-anchor="middle" x="490.35" y="-451.71" font-family="monospace" font-size="10.00">lightning_reputation</text>
</g>
<!-- lightning_reputation::calculate_normalized_measurements -->
<g id="node2" class="node">
<title>lightning_reputation::calculate_normalized_measurements</title>
<polygon fill="#f8c04c" stroke="black" points="617.19,-614.97 617.19,-652.97 832.19,-652.97 832.19,-614.97 617.19,-614.97"/>
<text text-anchor="middle" x="724.69" y="-640.97" font-family="monospace" font-size="10.00">pub(crate) fn</text>
<polyline fill="none" stroke="black" points="617.19,-633.97 832.19,-633.97 "/>
<text text-anchor="middle" x="724.69" y="-621.97" font-family="monospace" font-size="10.00">calculate_normalized_measurements</text>
</g>
<!-- lightning_reputation&#45;&gt;lightning_reputation::calculate_normalized_measurements -->
<g id="edge1" class="edge">
<title>lightning_reputation&#45;&gt;lightning_reputation::calculate_normalized_measurements</title>
<path fill="none" stroke="#000000" d="M516.78,-482.91C559.26,-513.77 642.75,-574.43 689.98,-608.75"/>
<polygon fill="#000000" stroke="#000000" points="688.21,-611.79 698.36,-614.84 692.33,-606.13 688.21,-611.79"/>
<text text-anchor="middle" x="590.88" y="-548.83" font-family="monospace" font-size="10.00">owns</text>
</g>
<!-- lightning_reputation::calculate_reputation_scores -->
<g id="node3" class="node">
<title>lightning_reputation::calculate_reputation_scores</title>
<polygon fill="#81c169" stroke="black" points="727.22,-1187.16 727.22,-1225.16 906.22,-1225.16 906.22,-1187.16 727.22,-1187.16"/>
<text text-anchor="middle" x="816.72" y="-1213.16" font-family="monospace" font-size="10.00">pub fn</text>
<polyline fill="none" stroke="black" points="727.22,-1206.16 906.22,-1206.16 "/>
<text text-anchor="middle" x="816.72" y="-1194.16" font-family="monospace" font-size="10.00">calculate_reputation_scores</text>
</g>
<!-- lightning_reputation&#45;&gt;lightning_reputation::calculate_reputation_scores -->
<g id="edge2" class="edge">
<title>lightning_reputation&#45;&gt;lightning_reputation::calculate_reputation_scores</title>
<path fill="none" stroke="#000000" d="M498.75,-482.81C543.14,-583.81 750.56,-1055.64 804.09,-1177.42"/>
<polygon fill="#000000" stroke="#000000" points="801,-1179.1 808.23,-1186.84 807.41,-1176.28 801,-1179.1"/>
<text text-anchor="middle" x="638.92" y="-833.11" font-family="monospace" font-size="10.00">owns</text>
</g>
<!-- lightning_reputation::statistics::abs_difference -->
<g id="node4" class="node">
<title>lightning_reputation::statistics::abs_difference</title>
<polygon fill="#db5367" stroke="black" points="546.16,-1187.16 546.16,-1225.16 719.16,-1225.16 719.16,-1187.16 546.16,-1187.16"/>
<text text-anchor="middle" x="632.66" y="-1213.16" font-family="monospace" font-size="10.00">pub(self) fn</text>
<polyline fill="none" stroke="black" points="546.16,-1206.16 719.16,-1206.16 "/>
<text text-anchor="middle" x="632.66" y="-1194.16" font-family="monospace" font-size="10.00">statistics::abs_difference</text>
</g>
<!-- lightning_reputation&#45;&gt;lightning_reputation::statistics::abs_difference -->
<g id="edge3" class="edge">
<title>lightning_reputation&#45;&gt;lightning_reputation::statistics::abs_difference</title>
<path fill="none" stroke="#000000" d="M494.01,-482.81C513.33,-583.6 603.45,-1053.75 627.01,-1176.68"/>
<polygon fill="#000000" stroke="#000000" points="623.64,-1177.68 628.96,-1186.84 630.51,-1176.36 623.64,-1177.68"/>
<text text-anchor="middle" x="548.01" y="-832.74" font-family="monospace" font-size="10.00">owns</text>
</g>
<!-- lightning_reputation::statistics::approx_quantile -->
<g id="node5" class="node">
<title>lightning_reputation::statistics::approx_quantile</title>
<polygon fill="#81c169" stroke="black" points="372.18,-1131.15 372.18,-1169.15 551.18,-1169.15 551.18,-1131.15 372.18,-1131.15"/>
<text text-anchor="middle" x="461.68" y="-1157.15" font-family="monospace" font-size="10.00">pub fn</text>
<polyline fill="none" stroke="black" points="372.18,-1150.15 551.18,-1150.15 "/>
<text text-anchor="middle" x="461.68" y="-1138.15" font-family="monospace" font-size="10.00">statistics::approx_quantile</text>
</g>
<!-- lightning_reputation&#45;&gt;lightning_reputation::statistics::approx_quantile -->
<g id="edge4" class="edge">
<title>lightning_reputation&#45;&gt;lightning_reputation::statistics::approx_quantile</title>
<path fill="none" stroke="#000000" d="M489.55,-482.78C485.57,-578.23 467.79,-1003.95 462.92,-1120.54"/>
<polygon fill="#000000" stroke="#000000" points="459.41,-1120.7 462.49,-1130.84 466.4,-1120.99 459.41,-1120.7"/>
<text text-anchor="middle" x="463.74" y="-804.66" font-family="monospace" font-size="10.00">owns</text>
</g>
<!-- lightning_reputation::statistics::calculate_mean -->
<g id="node6" class="node">
<title>lightning_reputation::statistics::calculate_mean</title>
<polygon fill="#db5367" stroke="black" points="228.55,-1024.61 228.55,-1062.61 401.55,-1062.61 401.55,-1024.61 228.55,-1024.61"/>
<text text-anchor="middle" x="315.05" y="-1050.61" font-family="monospace" font-size="10.00">pub(self) fn</text>
<polyline fill="none" stroke="black" points="228.55,-1043.61 401.55,-1043.61 "/>
<text text-anchor="middle" x="315.05" y="-1031.61" font-family="monospace" font-size="10.00">statistics::calculate_mean</text>
</g>
<!-- lightning_reputation&#45;&gt;lightning_reputation::statistics::calculate_mean -->
<g id="edge5" class="edge">
<title>lightning_reputation&#45;&gt;lightning_reputation::statistics::calculate_mean</title>
<path fill="none" stroke="#000000" d="M484.52,-483C458.7,-568.41 354.62,-912.71 323.73,-1014.89"/>
<polygon fill="#000000" stroke="#000000" points="320.36,-1013.95 320.81,-1024.54 327.06,-1015.98 320.36,-1013.95"/>
<text text-anchor="middle" x="391.62" y="-751.94" font-family="monospace" font-size="10.00">owns</text>
</g>
<!-- lightning_reputation::statistics::calculate_variance -->
<g id="node7" class="node">
<title>lightning_reputation::statistics::calculate_variance</title>
<polygon fill="#db5367" stroke="black" points="110.01,-877.97 110.01,-915.97 307.01,-915.97 307.01,-877.97 110.01,-877.97"/>
<text text-anchor="middle" x="208.51" y="-903.97" font-family="monospace" font-size="10.00">pub(self) fn</text>
<polyline fill="none" stroke="black" points="110.01,-896.97 307.01,-896.97 "/>
<text text-anchor="middle" x="208.51" y="-884.97" font-family="monospace" font-size="10.00">statistics::calculate_variance</text>
</g>
<!-- lightning_reputation&#45;&gt;lightning_reputation::statistics::calculate_variance -->
<g id="edge6" class="edge">
<title>lightning_reputation&#45;&gt;lightning_reputation::statistics::calculate_variance</title>
<path fill="none" stroke="#000000" d="M477.88,-482.88C433.05,-551.79 279.97,-787.12 226.84,-868.79"/>
<polygon fill="#000000" stroke="#000000" points="223.68,-867.24 221.16,-877.53 229.55,-871.05 223.68,-867.24"/>
<text text-anchor="middle" x="339.86" y="-678.84" font-family="monospace" font-size="10.00">owns</text>
</g>
<!-- lightning_reputation::statistics::calculate_weighted_mean -->
<g id="node8" class="node">
<title>lightning_reputation::statistics::calculate_weighted_mean</title>
<polygon fill="#db5367" stroke="black" points="39,-705.59 39,-743.59 266,-743.59 266,-705.59 39,-705.59"/>
<text text-anchor="middle" x="152.5" y="-731.59" font-family="monospace" font-size="10.00">pub(self) fn</text>
<polyline fill="none" stroke="black" points="39,-724.59 266,-724.59 "/>
<text text-anchor="middle" x="152.5" y="-712.59" font-family="monospace" font-size="10.00">statistics::calculate_weighted_mean</text>
</g>
<!-- lightning_reputation&#45;&gt;lightning_reputation::statistics::calculate_weighted_mean -->
<g id="edge7" class="edge">
<title>lightning_reputation&#45;&gt;lightning_reputation::statistics::calculate_weighted_mean</title>
<path fill="none" stroke="#000000" d="M465.51,-482.89C405.59,-529.16 253.11,-646.9 185.57,-699.06"/>
<polygon fill="#000000" stroke="#000000" points="183.16,-696.5 177.38,-705.38 187.43,-702.04 183.16,-696.5"/>
<text text-anchor="middle" x="313.04" y="-593.97" font-family="monospace" font-size="10.00">owns</text>
</g>
<!-- lightning_reputation::statistics::calculate_z_normalized_weighted_mean -->
<g id="node9" class="node">
<title>lightning_reputation::statistics::calculate_z_normalized_weighted_mean</title>
<polygon fill="#81c169" stroke="black" points="0,-524.34 0,-562.34 305,-562.34 305,-524.34 0,-524.34"/>
<text text-anchor="middle" x="152.5" y="-550.34" font-family="monospace" font-size="10.00">pub fn</text>
<polyline fill="none" stroke="black" points="0,-543.34 305,-543.34 "/>
<text text-anchor="middle" x="152.5" y="-531.34" font-family="monospace" font-size="10.00">statistics::calculate_z_normalized_weighted_mean</text>
</g>
<!-- lightning_reputation&#45;&gt;lightning_reputation::statistics::calculate_z_normalized_weighted_mean -->
<g id="edge8" class="edge">
<title>lightning_reputation&#45;&gt;lightning_reputation::statistics::calculate_z_normalized_weighted_mean</title>
<path fill="none" stroke="#000000" d="M421.57,-479.92C370.16,-492.04 299.37,-508.72 243.3,-521.94"/>
<polygon fill="#000000" stroke="#000000" points="242.3,-518.58 233.37,-524.28 243.9,-525.39 242.3,-518.58"/>
<text text-anchor="middle" x="319.94" y="-503.93" font-family="monospace" font-size="10.00">owns</text>
</g>
<!-- lightning_reputation::statistics::calculate_z_score -->
<g id="node10" class="node">
<title>lightning_reputation::statistics::calculate_z_score</title>
<polygon fill="#db5367" stroke="black" points="113.01,-351.96 113.01,-389.96 304.01,-389.96 304.01,-351.96 113.01,-351.96"/>
<text text-anchor="middle" x="208.51" y="-377.96" font-family="monospace" font-size="10.00">pub(self) fn</text>
<polyline fill="none" stroke="black" points="113.01,-370.96 304.01,-370.96 "/>
<text text-anchor="middle" x="208.51" y="-358.96" font-family="monospace" font-size="10.00">statistics::calculate_z_score</text>
</g>
<!-- lightning_reputation&#45;&gt;lightning_reputation::statistics::calculate_z_score -->
<g id="edge9" class="edge">
<title>lightning_reputation&#45;&gt;lightning_reputation::statistics::calculate_z_score</title>
<path fill="none" stroke="#000000" d="M432.29,-444.6C386.92,-429.67 323.76,-408.88 276.11,-393.2"/>
<polygon fill="#000000" stroke="#000000" points="277.08,-389.84 266.49,-390.04 274.9,-396.49 277.08,-389.84"/>
<text text-anchor="middle" x="341.7" y="-421.9" font-family="monospace" font-size="10.00">owns</text>
</g>
<!-- lightning_reputation::statistics::min_max_normalize -->
<g id="node11" class="node">
<title>lightning_reputation::statistics::min_max_normalize</title>
<polygon fill="#81c169" stroke="black" points="219.55,-205.32 219.55,-243.32 410.55,-243.32 410.55,-205.32 219.55,-205.32"/>
<text text-anchor="middle" x="315.05" y="-231.32" font-family="monospace" font-size="10.00">pub fn</text>
<polyline fill="none" stroke="black" points="219.55,-224.32 410.55,-224.32 "/>
<text text-anchor="middle" x="315.05" y="-212.32" font-family="monospace" font-size="10.00">statistics::min_max_normalize</text>
</g>
<!-- lightning_reputation&#45;&gt;lightning_reputation::statistics::min_max_normalize -->
<g id="edge10" class="edge">
<title>lightning_reputation&#45;&gt;lightning_reputation::statistics::min_max_normalize</title>
<path fill="none" stroke="#000000" d="M476.3,-444.52C445.34,-402.24 371.12,-300.89 335.2,-251.84"/>
<polygon fill="#000000" stroke="#000000" points="337.9,-249.6 329.16,-243.6 332.25,-253.73 337.9,-249.6"/>
<text text-anchor="middle" x="393.25" y="-351.18" font-family="monospace" font-size="10.00">owns</text>
</g>
<!-- lightning_reputation::statistics::try_min_max_normalize -->
<g id="node12" class="node">
<title>lightning_reputation::statistics::try_min_max_normalize</title>
<polygon fill="#81c169" stroke="black" points="354.18,-98.78 354.18,-136.78 569.18,-136.78 569.18,-98.78 354.18,-98.78"/>
<text text-anchor="middle" x="461.68" y="-124.78" font-family="monospace" font-size="10.00">pub fn</text>
<polyline fill="none" stroke="black" points="354.18,-117.78 569.18,-117.78 "/>
<text text-anchor="middle" x="461.68" y="-105.78" font-family="monospace" font-size="10.00">statistics::try_min_max_normalize</text>
</g>
<!-- lightning_reputation&#45;&gt;lightning_reputation::statistics::try_min_max_normalize -->
<g id="edge11" class="edge">
<title>lightning_reputation&#45;&gt;lightning_reputation::statistics::try_min_max_normalize</title>
<path fill="none" stroke="#000000" d="M488.77,-444.62C484.01,-387.21 469.81,-215.87 464.1,-146.96"/>
<polygon fill="#000000" stroke="#000000" points="467.57,-146.49 463.26,-136.82 460.6,-147.07 467.57,-146.49"/>
<text text-anchor="middle" x="463.93" y="-298.79" font-family="monospace" font-size="10.00">owns</text>
</g>
<!-- lightning_reputation::statistics::z_score_normalize_filter -->
<g id="node13" class="node">
<title>lightning_reputation::statistics::z_score_normalize_filter</title>
<polygon fill="#db5367" stroke="black" points="513.18,-42.77 513.18,-80.77 746.18,-80.77 746.18,-42.77 513.18,-42.77"/>
<text text-anchor="middle" x="629.68" y="-68.77" font-family="monospace" font-size="10.00">pub(self) fn</text>
<polyline fill="none" stroke="black" points="513.18,-61.77 746.18,-61.77 "/>
<text text-anchor="middle" x="629.68" y="-49.77" font-family="monospace" font-size="10.00">statistics::z_score_normalize_filter</text>
</g>
<!-- lightning_reputation&#45;&gt;lightning_reputation::statistics::z_score_normalize_filter -->
<g id="edge12" class="edge">
<title>lightning_reputation&#45;&gt;lightning_reputation::statistics::z_score_normalize_filter</title>
<path fill="none" stroke="#000000" d="M496.98,-444.59C519.44,-379.79 592.79,-168.2 619.68,-90.62"/>
<polygon fill="#000000" stroke="#000000" points="623.04,-91.6 623.01,-81.01 616.43,-89.31 623.04,-91.6"/>
<text text-anchor="middle" x="545.83" y="-270.61" font-family="monospace" font-size="10.00">owns</text>
</g>
<!-- lightning_reputation::types::CollectedMeasurements -->
<g id="node14" class="node">
<title>lightning_reputation::types::CollectedMeasurements</title>
<polygon fill="#f8c04c" stroke="black" points="918.29,-660.28 918.29,-698.28 1103.29,-698.28 1103.29,-660.28 918.29,-660.28"/>
<text text-anchor="middle" x="1010.79" y="-686.28" font-family="monospace" font-size="10.00">pub(crate) struct</text>
<polyline fill="none" stroke="black" points="918.29,-679.28 1103.29,-679.28 "/>
<text text-anchor="middle" x="1010.79" y="-667.28" font-family="monospace" font-size="10.00">types::CollectedMeasurements</text>
</g>
<!-- lightning_reputation&#45;&gt;lightning_reputation::types::CollectedMeasurements -->
<g id="edge13" class="edge">
<title>lightning_reputation&#45;&gt;lightning_reputation::types::CollectedMeasurements</title>
<path fill="none" stroke="#000000" d="M506.7,-482.84C567.33,-525.98 779.71,-617.53 908.76,-660.1"/>
<polygon fill="#000000" stroke="#000000" points="907.69,-663.44 918.28,-663.21 909.86,-656.78 907.69,-663.44"/>
<text text-anchor="middle" x="695.23" y="-574.47" font-family="monospace" font-size="10.00">owns</text>
</g>
<!-- lightning_reputation&#45;&gt;lightning_reputation::types::CollectedMeasurements -->
<g id="edge14" class="edge">
<title>lightning_reputation&#45;&gt;lightning_reputation::types::CollectedMeasurements</title>
<path fill="none" stroke="#7f7f7f" stroke-dasharray="5,2" d="M559.07,-472.45C676.38,-506.83 909.47,-605.1 986.04,-654.48"/>
<polygon fill="#7f7f7f" stroke="#7f7f7f" points="984.34,-657.56 994.58,-660.26 988.26,-651.76 984.34,-657.56"/>
<text text-anchor="middle" x="760.05" y="-566.47" font-family="monospace" font-size="10.00">uses</text>
</g>
<!-- lightning_reputation::types::MinMaxValues -->
<g id="node15" class="node">
<title>lightning_reputation::types::MinMaxValues</title>
<polygon fill="#f8c04c" stroke="black" points="754.2,-42.77 754.2,-80.77 885.2,-80.77 885.2,-42.77 754.2,-42.77"/>
<text text-anchor="middle" x="819.7" y="-68.77" font-family="monospace" font-size="10.00">pub(crate) struct</text>
<polyline fill="none" stroke="black" points="754.2,-61.77 885.2,-61.77 "/>
<text text-anchor="middle" x="819.7" y="-49.77" font-family="monospace" font-size="10.00">types::MinMaxValues</text>
</g>
<!-- lightning_reputation&#45;&gt;lightning_reputation::types::MinMaxValues -->
<g id="edge15" class="edge">
<title>lightning_reputation&#45;&gt;lightning_reputation::types::MinMaxValues</title>
<path fill="none" stroke="#000000" d="M525.17,-444.47C601.32,-378.36 772.75,-168.08 812.86,-90.17"/>
<polygon fill="#000000" stroke="#000000" points="816.12,-91.46 817.27,-80.92 809.81,-88.44 816.12,-91.46"/>
<text text-anchor="middle" x="656.52" y="-270.32" font-family="monospace" font-size="10.00">owns</text>
</g>
<!-- lightning_reputation&#45;&gt;lightning_reputation::types::MinMaxValues -->
<g id="edge16" class="edge">
<title>lightning_reputation&#45;&gt;lightning_reputation::types::MinMaxValues</title>
<path fill="none" stroke="#7f7f7f" stroke-dasharray="5,2" d="M492.8,-444.5C521.66,-377.62 694.58,-163.42 777.4,-87.68"/>
<polygon fill="#7f7f7f" stroke="#7f7f7f" points="779.99,-90.06 785.13,-80.79 775.34,-84.84 779.99,-90.06"/>
<text text-anchor="middle" x="622.6" y="-269.09" font-family="monospace" font-size="10.00">uses</text>
</g>
<!-- lightning_reputation::types::NormalizedMeasurements -->
<g id="node16" class="node">
<title>lightning_reputation::types::NormalizedMeasurements</title>
<polygon fill="#f8c04c" stroke="black" points="834.01,-819.79 834.01,-857.79 1025.01,-857.79 1025.01,-819.79 834.01,-819.79"/>
<text text-anchor="middle" x="929.51" y="-845.79" font-family="monospace" font-size="10.00">pub(crate) struct</text>
<polyline fill="none" stroke="black" points="834.01,-838.79 1025.01,-838.79 "/>
<text text-anchor="middle" x="929.51" y="-826.79" font-family="monospace" font-size="10.00">types::NormalizedMeasurements</text>
</g>
<!-- lightning_reputation&#45;&gt;lightning_reputation::types::NormalizedMeasurements -->
<g id="edge17" class="edge">
<title>lightning_reputation&#45;&gt;lightning_reputation::types::NormalizedMeasurements</title>
<path fill="none" stroke="#000000" d="M497.17,-482.82C541.75,-547.11 767.95,-743.32 874.64,-814.27"/>
<polygon fill="#000000" stroke="#000000" points="872.75,-817.22 883.04,-819.75 876.58,-811.36 872.75,-817.22"/>
<text text-anchor="middle" x="673.41" y="-651.55" font-family="monospace" font-size="10.00">owns</text>
</g>
<!-- lightning_reputation&#45;&gt;lightning_reputation::types::NormalizedMeasurements -->
<g id="edge18" class="edge">
<title>lightning_reputation&#45;&gt;lightning_reputation::types::NormalizedMeasurements</title>
<path fill="none" stroke="#7f7f7f" stroke-dasharray="5,2" d="M536.87,-482.77C635.58,-545.94 858.57,-737.83 916.47,-811.31"/>
<polygon fill="#7f7f7f" stroke="#7f7f7f" points="913.91,-813.74 922.69,-819.67 919.52,-809.56 913.91,-813.74"/>
<text text-anchor="middle" x="714.17" y="-650.04" font-family="monospace" font-size="10.00">uses</text>
</g>
<!-- lightning_reputation::types::Values -->
<g id="node20" class="node">
<title>lightning_reputation::types::Values</title>
<polygon fill="#f8c04c" stroke="black" points="928.2,-98.78 928.2,-136.78 1047.2,-136.78 1047.2,-98.78 928.2,-98.78"/>
<text text-anchor="middle" x="987.7" y="-124.78" font-family="monospace" font-size="10.00">pub(crate) struct</text>
<polyline fill="none" stroke="black" points="928.2,-117.78 1047.2,-117.78 "/>
<text text-anchor="middle" x="987.7" y="-105.78" font-family="monospace" font-size="10.00">types::Values</text>
</g>
<!-- lightning_reputation&#45;&gt;lightning_reputation::types::Values -->
<g id="edge19" class="edge">
<title>lightning_reputation&#45;&gt;lightning_reputation::types::Values</title>
<path fill="none" stroke="#000000" d="M517.8,-444.62C602.12,-385.97 857.39,-208.42 951.96,-142.64"/>
<polygon fill="#000000" stroke="#000000" points="954.12,-145.4 960.34,-136.82 950.13,-139.65 954.12,-145.4"/>
<text text-anchor="middle" x="722.38" y="-296.63" font-family="monospace" font-size="10.00">owns</text>
</g>
<!-- lightning_reputation::types::WeightedFloat -->
<g id="node21" class="node">
<title>lightning_reputation::types::WeightedFloat</title>
<polygon fill="#f8c04c" stroke="black" points="1065.83,-205.32 1065.83,-243.32 1202.83,-243.32 1202.83,-205.32 1065.83,-205.32"/>
<text text-anchor="middle" x="1134.33" y="-231.32" font-family="monospace" font-size="10.00">pub(crate) struct</text>
<polyline fill="none" stroke="black" points="1065.83,-224.32 1202.83,-224.32 "/>
<text text-anchor="middle" x="1134.33" y="-212.32" font-family="monospace" font-size="10.00">types::WeightedFloat</text>
</g>
<!-- lightning_reputation&#45;&gt;lightning_reputation::types::WeightedFloat -->
<g id="edge20" class="edge">
<title>lightning_reputation&#45;&gt;lightning_reputation::types::WeightedFloat</title>
<path fill="none" stroke="#000000" d="M541.69,-444.62C659.16,-400.95 947.09,-293.92 1073.34,-247"/>
<polygon fill="#000000" stroke="#000000" points="1074.71,-250.22 1082.87,-243.45 1072.28,-243.66 1074.71,-250.22"/>
<text text-anchor="middle" x="795.01" y="-348.81" font-family="monospace" font-size="10.00">owns</text>
</g>
<!-- lightning_reputation::types::WeightedReputationMeasurements -->
<g id="node23" class="node">
<title>lightning_reputation::types::WeightedReputationMeasurements</title>
<polygon fill="#81c169" stroke="black" points="1121.37,-351.96 1121.37,-389.96 1360.37,-389.96 1360.37,-351.96 1121.37,-351.96"/>
<text text-anchor="middle" x="1240.87" y="-377.96" font-family="monospace" font-size="10.00">pub struct</text>
<polyline fill="none" stroke="black" points="1121.37,-370.96 1360.37,-370.96 "/>
<text text-anchor="middle" x="1240.87" y="-358.96" font-family="monospace" font-size="10.00">types::WeightedReputationMeasurements</text>
</g>
<!-- lightning_reputation&#45;&gt;lightning_reputation::types::WeightedReputationMeasurements -->
<g id="edge21" class="edge">
<title>lightning_reputation&#45;&gt;lightning_reputation::types::WeightedReputationMeasurements</title>
<path fill="none" stroke="#000000" d="M558.94,-471.54C707.26,-468.16 1055.08,-424.74 1187.98,-392.51"/>
<polygon fill="#000000" stroke="#000000" points="1189.08,-395.84 1197.93,-390.01 1187.38,-389.05 1189.08,-395.84"/>
<text text-anchor="middle" x="860.96" y="-435.02" font-family="monospace" font-size="10.00">owns</text>
</g>
<!-- lightning_reputation&#45;&gt;lightning_reputation::types::WeightedReputationMeasurements -->
<g id="edge22" class="edge">
<title>lightning_reputation&#45;&gt;lightning_reputation::types::WeightedReputationMeasurements</title>
<path fill="none" stroke="#7f7f7f" stroke-dasharray="5,2" d="M533.1,-444.71C642.96,-416.05 938.46,-377.1 1110.93,-365.99"/>
<polygon fill="#7f7f7f" stroke="#7f7f7f" points="1111.32,-369.47 1121.09,-365.35 1110.89,-362.48 1111.32,-369.47"/>
<text text-anchor="middle" x="809.52" y="-408.35" font-family="monospace" font-size="10.00">uses</text>
</g>
<!-- lightning_reputation::types::WeightedValue -->
<g id="node24" class="node">
<title>lightning_reputation::types::WeightedValue</title>
<polygon fill="#81c169" stroke="black" points="1228.38,-524.34 1228.38,-562.34 1365.38,-562.34 1365.38,-524.34 1228.38,-524.34"/>
<text text-anchor="middle" x="1296.88" y="-550.34" font-family="monospace" font-size="10.00">pub trait</text>
<polyline fill="none" stroke="black" points="1228.38,-543.34 1365.38,-543.34 "/>
<text text-anchor="middle" x="1296.88" y="-531.34" font-family="monospace" font-size="10.00">types::WeightedValue</text>
</g>
<!-- lightning_reputation&#45;&gt;lightning_reputation::types::WeightedValue -->
<g id="edge23" class="edge">
<title>lightning_reputation&#45;&gt;lightning_reputation::types::WeightedValue</title>
<path fill="none" stroke="#000000" d="M540.34,-482.77C676.29,-512.6 1053.51,-550.73 1218.23,-552.34"/>
<polygon fill="#000000" stroke="#000000" points="1218.28,-555.84 1228.3,-552.39 1218.32,-548.84 1218.28,-555.84"/>
<text text-anchor="middle" x="866.79" y="-520.55" font-family="monospace" font-size="10.00">owns</text>
</g>
<!-- lightning_reputation&#45;&gt;lightning_reputation::types::WeightedValue -->
<g id="edge24" class="edge">
<title>lightning_reputation&#45;&gt;lightning_reputation::types::WeightedValue</title>
<path fill="none" stroke="#7f7f7f" stroke-dasharray="5,2" d="M558.93,-454.65C714.17,-454.72 1090.31,-492.05 1236.95,-522.17"/>
<polygon fill="#7f7f7f" stroke="#7f7f7f" points="1236.6,-525.67 1247.11,-524.33 1238.05,-518.83 1236.6,-525.67"/>
<text text-anchor="middle" x="885.44" y="-491.41" font-family="monospace" font-size="10.00">uses</text>
</g>
<!-- lightning_reputation::calculate_normalized_measurements&#45;&gt;lightning_reputation::types::CollectedMeasurements -->
<g id="edge25" class="edge">
<title>lightning_reputation::calculate_normalized_measurements&#45;&gt;lightning_reputation::types::CollectedMeasurements</title>
<path fill="none" stroke="#7f7f7f" stroke-dasharray="5,2" d="M832.44,-651.03C857.22,-654.96 883.51,-659.12 908.07,-663.01"/>
<polygon fill="#7f7f7f" stroke="#7f7f7f" points="907.69,-666.49 918.12,-664.6 908.79,-659.58 907.69,-666.49"/>
<text text-anchor="middle" x="857.76" y="-660.02" font-family="monospace" font-size="10.00">uses</text>
</g>
<!-- lightning_reputation::calculate_normalized_measurements&#45;&gt;lightning_reputation::types::NormalizedMeasurements -->
<g id="edge26" class="edge">
<title>lightning_reputation::calculate_normalized_measurements&#45;&gt;lightning_reputation::types::NormalizedMeasurements</title>
<path fill="none" stroke="#7f7f7f" stroke-dasharray="5,2" d="M743.96,-653.23C780.88,-690.15 861.62,-770.9 903.37,-812.64"/>
<polygon fill="#7f7f7f" stroke="#7f7f7f" points="900.9,-815.12 910.44,-819.72 905.85,-810.17 900.9,-815.12"/>
<text text-anchor="middle" x="811.16" y="-735.94" font-family="monospace" font-size="10.00">uses</text>
</g>
<!-- lightning_reputation::calculate_reputation_scores&#45;&gt;lightning_reputation::types::MinMaxValues -->
<g id="edge27" class="edge">
<title>lightning_reputation::calculate_reputation_scores&#45;&gt;lightning_reputation::types::MinMaxValues</title>
<path fill="none" stroke="#7f7f7f" stroke-dasharray="5,2" d="M816.77,-1186.77C817.12,-1051.97 819.2,-254.88 819.62,-91.16"/>
<polygon fill="#7f7f7f" stroke="#7f7f7f" points="823.12,-90.9 819.65,-80.89 816.12,-90.88 823.12,-90.9"/>
<text text-anchor="middle" x="830.7" y="-641.97" font-family="monospace" font-size="10.00">uses</text>
</g>
<!-- lightning_reputation::types::MinMaxValues&#45;&gt;lightning_reputation::types::Values -->
<g id="edge28" class="edge">
<title>lightning_reputation::types::MinMaxValues&#45;&gt;lightning_reputation::types::Values</title>
<path fill="none" stroke="#7f7f7f" stroke-dasharray="5,2" d="M877.04,-80.89C891.1,-85.58 906.27,-90.64 920.73,-95.46"/>
<polygon fill="#7f7f7f" stroke="#7f7f7f" points="920.02,-98.91 930.61,-98.75 922.23,-92.27 920.02,-98.91"/>
<text text-anchor="middle" x="886.39" y="-91.18" font-family="monospace" font-size="10.00">uses</text>
</g>
<!-- lightning_reputation::types::NormalizedMeasurements::calculate_score -->
<g id="node17" class="node">
<title>lightning_reputation::types::NormalizedMeasurements::calculate_score</title>
<polygon fill="#81c169" stroke="black" points="1094.37,-877.97 1094.37,-915.97 1387.37,-915.97 1387.37,-877.97 1094.37,-877.97"/>
<text text-anchor="middle" x="1240.87" y="-903.97" font-family="monospace" font-size="10.00">pub fn</text>
<polyline fill="none" stroke="black" points="1094.37,-896.97 1387.37,-896.97 "/>
<text text-anchor="middle" x="1240.87" y="-884.97" font-family="monospace" font-size="10.00">types::NormalizedMeasurements::calculate_score</text>
</g>
<!-- lightning_reputation::types::NormalizedMeasurements&#45;&gt;lightning_reputation::types::NormalizedMeasurements::calculate_score -->
<g id="edge29" class="edge">
<title>lightning_reputation::types::NormalizedMeasurements&#45;&gt;lightning_reputation::types::NormalizedMeasurements::calculate_score</title>
<path fill="none" stroke="#000000" d="M950.14,-858C978.27,-871.53 1031.12,-885.44 1084.14,-895.14"/>
<polygon fill="#000000" stroke="#000000" points="1083.57,-898.6 1094.03,-896.9 1084.8,-891.71 1083.57,-898.6"/>
<text text-anchor="middle" x="1004.64" y="-879.57" font-family="monospace" font-size="10.00">owns</text>
</g>
<!-- lightning_reputation::types::NormalizedMeasurements::get_uptime -->
<g id="node18" class="node">
<title>lightning_reputation::types::NormalizedMeasurements::get_uptime</title>
<polygon fill="#81c169" stroke="black" points="1002.83,-1024.61 1002.83,-1062.61 1265.83,-1062.61 1265.83,-1024.61 1002.83,-1024.61"/>
<text text-anchor="middle" x="1134.33" y="-1050.61" font-family="monospace" font-size="10.00">pub fn</text>
<polyline fill="none" stroke="black" points="1002.83,-1043.61 1265.83,-1043.61 "/>
<text text-anchor="middle" x="1134.33" y="-1031.61" font-family="monospace" font-size="10.00">types::NormalizedMeasurements::get_uptime</text>
</g>
<!-- lightning_reputation::types::NormalizedMeasurements&#45;&gt;lightning_reputation::types::NormalizedMeasurements::get_uptime -->
<g id="edge30" class="edge">
<title>lightning_reputation::types::NormalizedMeasurements&#45;&gt;lightning_reputation::types::NormalizedMeasurements::get_uptime</title>
<path fill="none" stroke="#000000" d="M930.77,-857.85C947.65,-896.25 1023.15,-976.23 1077.9,-1018.4"/>
<polygon fill="#000000" stroke="#000000" points="1076.06,-1021.39 1086.16,-1024.59 1080.25,-1015.79 1076.06,-1021.39"/>
<text text-anchor="middle" x="991.83" y="-941.13" font-family="monospace" font-size="10.00">owns</text>
</g>
<!-- lightning_reputation::types::NormalizedMeasurements::normalize -->
<g id="node19" class="node">
<title>lightning_reputation::types::NormalizedMeasurements::normalize</title>
<polygon fill="#81c169" stroke="black" points="859.2,-1131.15 859.2,-1169.15 1116.2,-1169.15 1116.2,-1131.15 859.2,-1131.15"/>
<text text-anchor="middle" x="987.7" y="-1157.15" font-family="monospace" font-size="10.00">pub fn</text>
<polyline fill="none" stroke="black" points="859.2,-1150.15 1116.2,-1150.15 "/>
<text text-anchor="middle" x="987.7" y="-1138.15" font-family="monospace" font-size="10.00">types::NormalizedMeasurements::normalize</text>
</g>
<!-- lightning_reputation::types::NormalizedMeasurements&#45;&gt;lightning_reputation::types::NormalizedMeasurements::normalize -->
<g id="edge31" class="edge">
<title>lightning_reputation::types::NormalizedMeasurements&#45;&gt;lightning_reputation::types::NormalizedMeasurements::normalize</title>
<path fill="none" stroke="#000000" d="M919.81,-857.92C912.29,-910.83 938.53,-1058.67 964.88,-1121.46"/>
<polygon fill="#000000" stroke="#000000" points="961.79,-1123.12 969.1,-1130.78 968.16,-1120.23 961.79,-1123.12"/>
<text text-anchor="middle" x="929.85" y="-992.69" font-family="monospace" font-size="10.00">owns</text>
</g>
<!-- lightning_reputation::types::NormalizedMeasurements::calculate_score&#45;&gt;lightning_reputation::types::NormalizedMeasurements -->
<g id="edge32" class="edge">
<title>lightning_reputation::types::NormalizedMeasurements::calculate_score&#45;&gt;lightning_reputation::types::NormalizedMeasurements</title>
<path fill="none" stroke="#7f7f7f" stroke-dasharray="5,2" d="M1220.24,-877.76C1183.01,-859.85 1102.46,-841.27 1035.55,-832.68"/>
<polygon fill="#7f7f7f" stroke="#7f7f7f" points="1035.71,-829.17 1025.36,-831.44 1034.86,-836.12 1035.71,-829.17"/>
<text text-anchor="middle" x="1115.39" y="-858.22" font-family="monospace" font-size="10.00">uses</text>
</g>
<!-- lightning_reputation::types::NormalizedMeasurements::get_uptime&#45;&gt;lightning_reputation::types::NormalizedMeasurements -->
<g id="edge33" class="edge">
<title>lightning_reputation::types::NormalizedMeasurements::get_uptime&#45;&gt;lightning_reputation::types::NormalizedMeasurements</title>
<path fill="none" stroke="#7f7f7f" stroke-dasharray="5,2" d="M1133.08,-1024.55C1116.2,-986.15 1040.7,-906.17 985.95,-864"/>
<polygon fill="#7f7f7f" stroke="#7f7f7f" points="987.79,-861 977.69,-857.81 983.6,-866.61 987.79,-861"/>
<text text-anchor="middle" x="1047.02" y="-947.27" font-family="monospace" font-size="10.00">uses</text>
</g>
<!-- lightning_reputation::types::NormalizedMeasurements::normalize&#45;&gt;lightning_reputation::types::MinMaxValues -->
<g id="edge34" class="edge">
<title>lightning_reputation::types::NormalizedMeasurements::normalize&#45;&gt;lightning_reputation::types::MinMaxValues</title>
<path fill="none" stroke="#7f7f7f" stroke-dasharray="5,2" d="M984.71,-1130.79C964.57,-1000.32 848.68,-249.51 824.23,-91.11"/>
<polygon fill="#7f7f7f" stroke="#7f7f7f" points="827.67,-90.49 822.69,-81.15 820.76,-91.56 827.67,-90.49"/>
<text text-anchor="middle" x="891.97" y="-613.95" font-family="monospace" font-size="10.00">uses</text>
</g>
<!-- lightning_reputation::types::NormalizedMeasurements::normalize&#45;&gt;lightning_reputation::types::NormalizedMeasurements -->
<g id="edge35" class="edge">
<title>lightning_reputation::types::NormalizedMeasurements::normalize&#45;&gt;lightning_reputation::types::NormalizedMeasurements</title>
<path fill="none" stroke="#7f7f7f" stroke-dasharray="5,2" d="M997.4,-1131.01C1004.92,-1078.11 978.68,-930.26 952.33,-867.48"/>
<polygon fill="#7f7f7f" stroke="#7f7f7f" points="955.43,-865.82 948.11,-858.16 949.05,-868.71 955.43,-865.82"/>
<text text-anchor="middle" x="962.37" y="-1002.24" font-family="monospace" font-size="10.00">uses</text>
</g>
<!-- lightning_reputation::types::NormalizedMeasurements::normalize&#45;&gt;lightning_reputation::types::Values -->
<g id="edge36" class="edge">
<title>lightning_reputation::types::NormalizedMeasurements::normalize&#45;&gt;lightning_reputation::types::Values</title>
<path fill="none" stroke="#7f7f7f" stroke-dasharray="5,2" d="M987.7,-1130.9C987.7,-1005.02 987.7,-299.58 987.7,-146.92"/>
<polygon fill="#7f7f7f" stroke="#7f7f7f" points="991.2,-146.9 987.7,-136.9 984.2,-146.9 991.2,-146.9"/>
<text text-anchor="middle" x="975.2" y="-641.91" font-family="monospace" font-size="10.00">uses</text>
</g>
<!-- lightning_reputation::types::WeightedFloat::get_weighted_value -->
<g id="node22" class="node">
<title>lightning_reputation::types::WeightedFloat::get_weighted_value</title>
<polygon fill="#db5367" stroke="black" points="1210.66,-0.5 1210.66,-38.5 1467.66,-38.5 1467.66,-0.5 1210.66,-0.5"/>
<text text-anchor="middle" x="1339.16" y="-26.5" font-family="monospace" font-size="10.00">pub(self) fn</text>
<polyline fill="none" stroke="black" points="1210.66,-19.5 1467.66,-19.5 "/>
<text text-anchor="middle" x="1339.16" y="-7.5" font-family="monospace" font-size="10.00">types::WeightedFloat::get_weighted_value</text>
</g>
<!-- lightning_reputation::types::WeightedFloat&#45;&gt;lightning_reputation::types::WeightedFloat::get_weighted_value -->
<g id="edge37" class="edge">
<title>lightning_reputation::types::WeightedFloat&#45;&gt;lightning_reputation::types::WeightedFloat::get_weighted_value</title>
<path fill="none" stroke="#000000" d="M1182.5,-205.31C1233.71,-168.1 1308.63,-90.9 1333.2,-47.78"/>
<polygon fill="#000000" stroke="#000000" points="1336.46,-49.1 1337.88,-38.61 1330.22,-45.92 1336.46,-49.1"/>
<text text-anchor="middle" x="1245.35" y="-129.54" font-family="monospace" font-size="10.00">owns</text>
</g>
<!-- lightning_reputation::types::WeightedFloat::get_weighted_value&#45;&gt;lightning_reputation::types::WeightedFloat -->
<g id="edge38" class="edge">
<title>lightning_reputation::types::WeightedFloat::get_weighted_value&#45;&gt;lightning_reputation::types::WeightedFloat</title>
<path fill="none" stroke="#7f7f7f" stroke-dasharray="5,2" d="M1290.99,-38.52C1239.78,-75.73 1164.86,-152.92 1140.29,-196.05"/>
<polygon fill="#7f7f7f" stroke="#7f7f7f" points="1137.04,-194.72 1135.61,-205.22 1143.27,-197.9 1137.04,-194.72"/>
<text text-anchor="middle" x="1203.14" y="-120.28" font-family="monospace" font-size="10.00">uses</text>
</g>
</g>
</svg>
