<?xml version="1.0" encoding="UTF-8" standalone="no"?>
<!DOCTYPE svg PUBLIC "-//W3C//DTD SVG 1.1//EN"
 "http://www.w3.org/Graphics/SVG/1.1/DTD/svg11.dtd">
<!-- Generated by graphviz version 4.0.0 (0)
 -->
<!-- Pages: 1 -->
<svg width="850pt" height="507pt"
 viewBox="0.00 0.00 850.14 507.01" xmlns="http://www.w3.org/2000/svg" xmlns:xlink="http://www.w3.org/1999/xlink">
<g id="graph0" class="graph" transform="scale(1 1) rotate(0) translate(28.8 478.21)">
<polygon fill="white" stroke="transparent" points="-28.8,28.8 -28.8,-478.21 821.34,-478.21 821.34,28.8 -28.8,28.8"/>
<text text-anchor="middle" x="396.27" y="-416.61" font-family="Helvetica,sans-Serif" font-size="36.00">lightning_utils</text>
<!-- lightning_utils -->
<g id="node1" class="node">
<title>lightning_utils</title>
<polygon fill="#5397c8" stroke="black" points="216.74,-184.71 216.74,-222.71 323.74,-222.71 323.74,-184.71 216.74,-184.71"/>
<text text-anchor="middle" x="270.24" y="-210.71" font-family="monospace" font-size="10.00">crate</text>
<polyline fill="none" stroke="black" points="216.74,-203.71 323.74,-203.71 "/>
<text text-anchor="middle" x="270.24" y="-191.71" font-family="monospace" font-size="10.00">lightning_utils</text>
</g>
<!-- lightning_utils::application::QueryRunnerExt -->
<g id="node2" class="node">
<title>lightning_utils::application::QueryRunnerExt</title>
<polygon fill="#81c169" stroke="black" points="161.78,-0.5 161.78,-38.5 340.78,-38.5 340.78,-0.5 161.78,-0.5"/>
<text text-anchor="middle" x="251.28" y="-26.5" font-family="monospace" font-size="10.00">pub trait</text>
<polyline fill="none" stroke="black" points="161.78,-19.5 340.78,-19.5 "/>
<text text-anchor="middle" x="251.28" y="-7.5" font-family="monospace" font-size="10.00">application::QueryRunnerExt</text>
</g>
<!-- lightning_utils&#45;&gt;lightning_utils::application::QueryRunnerExt -->
<g id="edge1" class="edge">
<title>lightning_utils&#45;&gt;lightning_utils::application::QueryRunnerExt</title>
<path fill="none" stroke="#000000" d="M268.29,-184.69C264.96,-152.43 258.2,-86.76 254.28,-48.66"/>
<polygon fill="#000000" stroke="#000000" points="257.76,-48.28 253.25,-38.69 250.8,-49 257.76,-48.28"/>
<text text-anchor="middle" x="248.78" y="-119.68" font-family="monospace" font-size="10.00">owns</text>
</g>
<!-- lightning_utils::eth::normalize_recovery_id -->
<g id="node3" class="node">
<title>lightning_utils::eth::normalize_recovery_id</title>
<polygon fill="#db5367" stroke="black" points="0,-191.16 0,-229.16 173,-229.16 173,-191.16 0,-191.16"/>
<text text-anchor="middle" x="86.5" y="-217.16" font-family="monospace" font-size="10.00">pub(self) fn</text>
<polyline fill="none" stroke="black" points="0,-210.16 173,-210.16 "/>
<text text-anchor="middle" x="86.5" y="-198.16" font-family="monospace" font-size="10.00">eth::normalize_recovery_id</text>
</g>
<!-- lightning_utils&#45;&gt;lightning_utils::eth::normalize_recovery_id -->
<g id="edge2" class="edge">
<title>lightning_utils&#45;&gt;lightning_utils::eth::normalize_recovery_id</title>
<path fill="none" stroke="#000000" d="M216.6,-205.6C206.04,-205.97 194.64,-206.37 183.15,-206.77"/>
<polygon fill="#000000" stroke="#000000" points="182.92,-203.28 173.05,-207.12 183.17,-210.27 182.92,-203.28"/>
<text text-anchor="middle" x="187.38" y="-209.18" font-family="monospace" font-size="10.00">owns</text>
</g>
<!-- lightning_utils::eth::verify_signature -->
<g id="node4" class="node">
<title>lightning_utils::eth::verify_signature</title>
<polygon fill="#81c169" stroke="black" points="67.49,-315.91 67.49,-353.91 210.49,-353.91 210.49,-315.91 67.49,-315.91"/>
<text text-anchor="middle" x="138.99" y="-341.91" font-family="monospace" font-size="10.00">pub fn</text>
<polyline fill="none" stroke="black" points="67.49,-334.91 210.49,-334.91 "/>
<text text-anchor="middle" x="138.99" y="-322.91" font-family="monospace" font-size="10.00">eth::verify_signature</text>
</g>
<!-- lightning_utils&#45;&gt;lightning_utils::eth::verify_signature -->
<g id="edge3" class="edge">
<title>lightning_utils&#45;&gt;lightning_utils::eth::verify_signature</title>
<path fill="none" stroke="#000000" d="M251.16,-222.79C228.51,-245.43 190.62,-283.3 165.23,-308.68"/>
<polygon fill="#000000" stroke="#000000" points="162.7,-306.26 158.1,-315.81 167.64,-311.22 162.7,-306.26"/>
<text text-anchor="middle" x="195.69" y="-268.74" font-family="monospace" font-size="10.00">owns</text>
</g>
<!-- lightning_utils::rpc::RpcSuccessResponse -->
<g id="node5" class="node">
<title>lightning_utils::rpc::RpcSuccessResponse</title>
<polygon fill="#81c169" stroke="black" points="288.23,-312.71 288.23,-350.71 443.23,-350.71 443.23,-312.71 288.23,-312.71"/>
<text text-anchor="middle" x="365.73" y="-338.71" font-family="monospace" font-size="10.00">pub struct</text>
<polyline fill="none" stroke="black" points="288.23,-331.71 443.23,-331.71 "/>
<text text-anchor="middle" x="365.73" y="-319.71" font-family="monospace" font-size="10.00">rpc::RpcSuccessResponse</text>
</g>
<!-- lightning_utils&#45;&gt;lightning_utils::rpc::RpcSuccessResponse -->
<g id="edge4" class="edge">
<title>lightning_utils&#45;&gt;lightning_utils::rpc::RpcSuccessResponse</title>
<path fill="none" stroke="#000000" d="M284.54,-222.87C300.64,-244.46 326.94,-279.72 345.23,-304.23"/>
<polygon fill="#000000" stroke="#000000" points="342.55,-306.49 351.33,-312.41 348.16,-302.31 342.55,-306.49"/>
<text text-anchor="middle" x="302.38" y="-266.55" font-family="monospace" font-size="10.00">owns</text>
</g>
<!-- lightning_utils::rpc::make_request -->
<g id="node6" class="node">
<title>lightning_utils::rpc::make_request</title>
<polygon fill="#81c169" stroke="black" points="71.74,-64.75 71.74,-102.75 190.74,-102.75 190.74,-64.75 71.74,-64.75"/>
<text text-anchor="middle" x="131.24" y="-90.75" font-family="monospace" font-size="10.00">pub async fn</text>
<polyline fill="none" stroke="black" points="71.74,-83.75 190.74,-83.75 "/>
<text text-anchor="middle" x="131.24" y="-71.75" font-family="monospace" font-size="10.00">rpc::make_request</text>
</g>
<!-- lightning_utils&#45;&gt;lightning_utils::rpc::make_request -->
<g id="edge5" class="edge">
<title>lightning_utils&#45;&gt;lightning_utils::rpc::make_request</title>
<path fill="none" stroke="#000000" d="M248.22,-184.7C224.77,-164.47 187.51,-132.31 161.35,-109.74"/>
<polygon fill="#000000" stroke="#000000" points="163.48,-106.95 153.62,-103.07 158.91,-112.25 163.48,-106.95"/>
<text text-anchor="middle" x="192.29" y="-150.22" font-family="monospace" font-size="10.00">owns</text>
</g>
<!-- lightning_utils::rpc::rpc_request -->
<g id="node7" class="node">
<title>lightning_utils::rpc::rpc_request</title>
<polygon fill="#81c169" stroke="black" points="216.59,-362.91 216.59,-400.91 329.59,-400.91 329.59,-362.91 216.59,-362.91"/>
<text text-anchor="middle" x="273.09" y="-388.91" font-family="monospace" font-size="10.00">pub async fn</text>
<polyline fill="none" stroke="black" points="216.59,-381.91 329.59,-381.91 "/>
<text text-anchor="middle" x="273.09" y="-369.91" font-family="monospace" font-size="10.00">rpc::rpc_request</text>
</g>
<!-- lightning_utils&#45;&gt;lightning_utils::rpc::rpc_request -->
<g id="edge6" class="edge">
<title>lightning_utils&#45;&gt;lightning_utils::rpc::rpc_request</title>
<path fill="none" stroke="#000000" d="M270.55,-222.78C271.04,-253.92 272.03,-315.88 272.62,-352.62"/>
<polygon fill="#000000" stroke="#000000" points="269.12,-352.77 272.78,-362.71 276.12,-352.66 269.12,-352.77"/>
<text text-anchor="middle" x="259.08" y="-290.7" font-family="monospace" font-size="10.00">owns</text>
</g>
<!-- lightning_utils::shutdown::ShutdownController -->
<g id="node8" class="node">
<title>lightning_utils::shutdown::ShutdownController</title>
<polygon fill="#81c169" stroke="black" points="414.98,-184.57 414.98,-222.57 599.98,-222.57 599.98,-184.57 414.98,-184.57"/>
<text text-anchor="middle" x="507.48" y="-210.57" font-family="monospace" font-size="10.00">pub struct</text>
<polyline fill="none" stroke="black" points="414.98,-203.57 599.98,-203.57 "/>
<text text-anchor="middle" x="507.48" y="-191.57" font-family="monospace" font-size="10.00">shutdown::ShutdownController</text>
</g>
<!-- lightning_utils&#45;&gt;lightning_utils::shutdown::ShutdownController -->
<g id="edge7" class="edge">
<title>lightning_utils&#45;&gt;lightning_utils::shutdown::ShutdownController</title>
<path fill="none" stroke="#000000" d="M323.78,-203.68C347.64,-203.67 376.58,-203.65 404.37,-203.63"/>
<polygon fill="#000000" stroke="#000000" points="404.54,-207.13 414.54,-203.63 404.54,-200.13 404.54,-207.13"/>
<text text-anchor="middle" x="351.57" y="-206.66" font-family="monospace" font-size="10.00">owns</text>
</g>
<!-- lightning_utils::shutdown::shutdown_stream -->
<g id="node11" class="node">
<title>lightning_utils::shutdown::shutdown_stream</title>
<polygon fill="#db5367" stroke="black" points="291.37,-61.77 291.37,-99.77 458.37,-99.77 458.37,-61.77 291.37,-61.77"/>
<text text-anchor="middle" x="374.87" y="-87.77" font-family="monospace" font-size="10.00">pub(self) async fn</text>
<polyline fill="none" stroke="black" points="291.37,-80.77 458.37,-80.77 "/>
<text text-anchor="middle" x="374.87" y="-68.77" font-family="monospace" font-size="10.00">shutdown::shutdown_stream</text>
</g>
<!-- lightning_utils&#45;&gt;lightning_utils::shutdown::shutdown_stream -->
<g id="edge8" class="edge">
<title>lightning_utils&#45;&gt;lightning_utils::shutdown::shutdown_stream</title>
<path fill="none" stroke="#000000" d="M286.59,-184.5C304.17,-163.84 332.26,-130.84 352.02,-107.61"/>
<polygon fill="#000000" stroke="#000000" points="354.82,-109.73 358.64,-99.84 349.49,-105.19 354.82,-109.73"/>
<text text-anchor="middle" x="306.81" y="-149.06" font-family="monospace" font-size="10.00">owns</text>
</g>
<!-- lightning_utils::rpc::rpc_request&#45;&gt;lightning_utils::rpc::RpcSuccessResponse -->
<g id="edge9" class="edge">
<title>lightning_utils::rpc::rpc_request&#45;&gt;lightning_utils::rpc::RpcSuccessResponse</title>
<path fill="none" stroke="#7f7f7f" stroke-dasharray="5,2" d="M308.37,-362.79C312.69,-360.45 317.13,-358.04 321.55,-355.65"/>
<polygon fill="#7f7f7f" stroke="#7f7f7f" points="323.41,-358.62 330.54,-350.78 320.08,-352.47 323.41,-358.62"/>
<text text-anchor="middle" x="302.46" y="-351.22" font-family="monospace" font-size="10.00">uses</text>
</g>
<!-- lightning_utils::shutdown::ShutdownController::install_handlers -->
<g id="node9" class="node">
<title>lightning_utils::shutdown::ShutdownController::install_handlers</title>
<polygon fill="#81c169" stroke="black" points="495.71,-88.63 495.71,-126.63 788.71,-126.63 788.71,-88.63 495.71,-88.63"/>
<text text-anchor="middle" x="642.21" y="-114.63" font-family="monospace" font-size="10.00">pub fn</text>
<polyline fill="none" stroke="black" points="495.71,-107.63 788.71,-107.63 "/>
<text text-anchor="middle" x="642.21" y="-95.63" font-family="monospace" font-size="10.00">shutdown::ShutdownController::install_handlers</text>
</g>
<!-- lightning_utils::shutdown::ShutdownController&#45;&gt;lightning_utils::shutdown::ShutdownController::install_handlers -->
<g id="edge10" class="edge">
<title>lightning_utils::shutdown::ShutdownController&#45;&gt;lightning_utils::shutdown::ShutdownController::install_handlers</title>
<path fill="none" stroke="#000000" d="M580.52,-184.39C602.79,-169.93 624.24,-151.42 635.74,-135.36"/>
<polygon fill="#000000" stroke="#000000" points="638.79,-137.09 641.04,-126.74 632.82,-133.42 638.79,-137.09"/>
<text text-anchor="middle" x="595.63" y="-162.88" font-family="monospace" font-size="10.00">owns</text>
</g>
<!-- lightning_utils::shutdown::ShutdownController::wait_for_shutdown -->
<g id="node10" class="node">
<title>lightning_utils::shutdown::ShutdownController::wait_for_shutdown</title>
<polygon fill="#81c169" stroke="black" points="493.54,-278.84 493.54,-316.84 792.54,-316.84 792.54,-278.84 493.54,-278.84"/>
<text text-anchor="middle" x="643.04" y="-304.84" font-family="monospace" font-size="10.00">pub async fn</text>
<polyline fill="none" stroke="black" points="493.54,-297.84 792.54,-297.84 "/>
<text text-anchor="middle" x="643.04" y="-285.84" font-family="monospace" font-size="10.00">shutdown::ShutdownController::wait_for_shutdown</text>
</g>
<!-- lightning_utils::shutdown::ShutdownController&#45;&gt;lightning_utils::shutdown::ShutdownController::wait_for_shutdown -->
<g id="edge11" class="edge">
<title>lightning_utils::shutdown::ShutdownController&#45;&gt;lightning_utils::shutdown::ShutdownController::wait_for_shutdown</title>
<path fill="none" stroke="#000000" d="M508.91,-222.78C516.89,-238.14 537.35,-257.26 560.08,-273.03"/>
<polygon fill="#000000" stroke="#000000" points="558.27,-276.04 568.53,-278.68 562.16,-270.22 558.27,-276.04"/>
<text text-anchor="middle" x="521.99" y="-250.91" font-family="monospace" font-size="10.00">owns</text>
</g>
<!-- lightning_utils::shutdown::ShutdownController::install_handlers&#45;&gt;lightning_utils::shutdown::ShutdownController -->
<g id="edge12" class="edge">
<title>lightning_utils::shutdown::ShutdownController::install_handlers&#45;&gt;lightning_utils::shutdown::ShutdownController</title>
<path fill="none" stroke="#7f7f7f" stroke-dasharray="5,2" d="M569.17,-126.81C546.91,-141.27 525.45,-159.78 513.96,-175.84"/>
<polygon fill="#7f7f7f" stroke="#7f7f7f" points="510.91,-174.11 508.65,-184.47 516.87,-177.78 510.91,-174.11"/>
<text text-anchor="middle" x="529.06" y="-154.33" font-family="monospace" font-size="10.00">uses</text>
</g>
<!-- lightning_utils::shutdown::ShutdownController::wait_for_shutdown&#45;&gt;lightning_utils::shutdown::ShutdownController -->
<g id="edge13" class="edge">
<title>lightning_utils::shutdown::ShutdownController::wait_for_shutdown&#45;&gt;lightning_utils::shutdown::ShutdownController</title>
<path fill="none" stroke="#7f7f7f" stroke-dasharray="5,2" d="M641.61,-278.63C633.63,-263.27 613.18,-244.15 590.45,-228.38"/>
<polygon fill="#7f7f7f" stroke="#7f7f7f" points="592.25,-225.38 581.99,-222.73 588.36,-231.2 592.25,-225.38"/>
<text text-anchor="middle" x="603.53" y="-256.51" font-family="monospace" font-size="10.00">uses</text>
</g>
</g>
</svg>
