<?xml version="1.0" encoding="UTF-8" standalone="no"?>
<!DOCTYPE svg PUBLIC "-//W3C//DTD SVG 1.1//EN"
 "http://www.w3.org/Graphics/SVG/1.1/DTD/svg11.dtd">
<!-- Generated by graphviz version 4.0.0 (0)
 -->
<!-- Pages: 1 -->
<svg width="1266pt" height="908pt"
 viewBox="0.00 0.00 1266.28 908.03" xmlns="http://www.w3.org/2000/svg" xmlns:xlink="http://www.w3.org/1999/xlink">
<g id="graph0" class="graph" transform="scale(1 1) rotate(0) translate(28.8 879.23)">
<polygon fill="white" stroke="transparent" points="-28.8,28.8 -28.8,-879.23 1237.48,-879.23 1237.48,28.8 -28.8,28.8"/>
<text text-anchor="middle" x="604.34" y="-817.63" font-family="Helvetica,sans-Serif" font-size="36.00">lightning_notifier</text>
<!-- lightning_notifier -->
<g id="node1" class="node">
<title>lightning_notifier</title>
<polygon fill="#5397c8" stroke="black" points="389.89,-277.74 389.89,-315.74 514.89,-315.74 514.89,-277.74 389.89,-277.74"/>
<text text-anchor="middle" x="452.39" y="-303.74" font-family="monospace" font-size="10.00">crate</text>
<polyline fill="none" stroke="black" points="389.89,-296.74 514.89,-296.74 "/>
<text text-anchor="middle" x="452.39" y="-284.74" font-family="monospace" font-size="10.00">lightning_notifier</text>
</g>
<!-- lightning_notifier::BroadcastSub -->
<g id="node2" class="node">
<title>lightning_notifier::BroadcastSub</title>
<polygon fill="#f8c04c" stroke="black" points="304.12,-532.75 304.12,-570.75 423.12,-570.75 423.12,-532.75 304.12,-532.75"/>
<text text-anchor="middle" x="363.62" y="-558.75" font-family="monospace" font-size="10.00">pub(crate) struct</text>
<polyline fill="none" stroke="black" points="304.12,-551.75 423.12,-551.75 "/>
<text text-anchor="middle" x="363.62" y="-539.75" font-family="monospace" font-size="10.00">BroadcastSub</text>
</g>
<!-- lightning_notifier&#45;&gt;lightning_notifier::BroadcastSub -->
<g id="edge1" class="edge">
<title>lightning_notifier&#45;&gt;lightning_notifier::BroadcastSub</title>
<path fill="none" stroke="#000000" d="M445.72,-315.91C430.26,-360.32 391.91,-470.48 373.62,-523.01"/>
<polygon fill="#000000" stroke="#000000" points="370.23,-522.11 370.24,-532.71 376.84,-524.41 370.23,-522.11"/>
<text text-anchor="middle" x="397.17" y="-422.46" font-family="monospace" font-size="10.00">owns</text>
</g>
<!-- lightning_notifier::NotificationsEmitter -->
<g id="node5" class="node">
<title>lightning_notifier::NotificationsEmitter</title>
<polygon fill="#81c169" stroke="black" points="732.45,-382.7 732.45,-420.7 869.45,-420.7 869.45,-382.7 732.45,-382.7"/>
<text text-anchor="middle" x="800.95" y="-408.7" font-family="monospace" font-size="10.00">pub struct</text>
<polyline fill="none" stroke="black" points="732.45,-401.7 869.45,-401.7 "/>
<text text-anchor="middle" x="800.95" y="-389.7" font-family="monospace" font-size="10.00">NotificationsEmitter</text>
</g>
<!-- lightning_notifier&#45;&gt;lightning_notifier::NotificationsEmitter -->
<g id="edge2" class="edge">
<title>lightning_notifier&#45;&gt;lightning_notifier::NotificationsEmitter</title>
<path fill="none" stroke="#000000" d="M515.11,-315.63C574.92,-333.64 664.98,-360.76 727.98,-379.73"/>
<polygon fill="#000000" stroke="#000000" points="727.27,-383.17 737.85,-382.7 729.28,-376.47 727.27,-383.17"/>
<text text-anchor="middle" x="609.04" y="-350.68" font-family="monospace" font-size="10.00">owns</text>
</g>
<!-- lightning_notifier::Notifier -->
<g id="node8" class="node">
<title>lightning_notifier::Notifier</title>
<polygon fill="#81c169" stroke="black" points="678,-445.14 678,-483.14 755,-483.14 755,-445.14 678,-445.14"/>
<text text-anchor="middle" x="716.5" y="-471.14" font-family="monospace" font-size="10.00">pub struct</text>
<polyline fill="none" stroke="black" points="678,-464.14 755,-464.14 "/>
<text text-anchor="middle" x="716.5" y="-452.14" font-family="monospace" font-size="10.00">Notifier</text>
</g>
<!-- lightning_notifier&#45;&gt;lightning_notifier::Notifier -->
<g id="edge3" class="edge">
<title>lightning_notifier&#45;&gt;lightning_notifier::Notifier</title>
<path fill="none" stroke="#000000" d="M482.43,-315.78C530.58,-346.3 625.01,-406.15 678.03,-439.76"/>
<polygon fill="#000000" stroke="#000000" points="676.17,-442.72 686.49,-445.12 679.92,-436.81 676.17,-442.72"/>
<text text-anchor="middle" x="567.73" y="-380.77" font-family="monospace" font-size="10.00">owns</text>
</g>
<!-- lightning_notifier::before_epoch_change -->
<g id="node16" class="node">
<title>lightning_notifier::before_epoch_change</title>
<polygon fill="#f8c04c" stroke="black" points="173.69,-414.84 173.69,-452.84 304.69,-452.84 304.69,-414.84 173.69,-414.84"/>
<text text-anchor="middle" x="239.19" y="-440.84" font-family="monospace" font-size="10.00">pub(crate) async fn</text>
<polyline fill="none" stroke="black" points="173.69,-433.84 304.69,-433.84 "/>
<text text-anchor="middle" x="239.19" y="-421.84" font-family="monospace" font-size="10.00">before_epoch_change</text>
</g>
<!-- lightning_notifier&#45;&gt;lightning_notifier::before_epoch_change -->
<g id="edge4" class="edge">
<title>lightning_notifier&#45;&gt;lightning_notifier::before_epoch_change</title>
<path fill="none" stroke="#000000" d="M422.74,-315.8C384.82,-340.19 319.08,-382.46 277.43,-409.25"/>
<polygon fill="#000000" stroke="#000000" points="275.44,-406.37 268.93,-414.72 279.23,-412.25 275.44,-406.37"/>
<text text-anchor="middle" x="337.59" y="-365.53" font-family="monospace" font-size="10.00">owns</text>
</g>
<!-- lightning_notifier::get_sleep_amount -->
<g id="node17" class="node">
<title>lightning_notifier::get_sleep_amount</title>
<polygon fill="#f8c04c" stroke="black" points="169.4,-112.42 169.4,-150.42 282.4,-150.42 282.4,-112.42 169.4,-112.42"/>
<text text-anchor="middle" x="225.9" y="-138.42" font-family="monospace" font-size="10.00">pub(crate) fn</text>
<polyline fill="none" stroke="black" points="169.4,-131.42 282.4,-131.42 "/>
<text text-anchor="middle" x="225.9" y="-119.42" font-family="monospace" font-size="10.00">get_sleep_amount</text>
</g>
<!-- lightning_notifier&#45;&gt;lightning_notifier::get_sleep_amount -->
<g id="edge5" class="edge">
<title>lightning_notifier&#45;&gt;lightning_notifier::get_sleep_amount</title>
<path fill="none" stroke="#000000" d="M425.96,-277.45C384.88,-247.46 305.69,-189.66 260.23,-156.48"/>
<polygon fill="#000000" stroke="#000000" points="262.29,-153.65 252.15,-150.58 258.17,-159.31 262.29,-153.65"/>
<text text-anchor="middle" x="330.6" y="-219.97" font-family="monospace" font-size="10.00">owns</text>
</g>
<!-- lightning_notifier::now -->
<g id="node18" class="node">
<title>lightning_notifier::now</title>
<polygon fill="#f8c04c" stroke="black" points="378.81,-0.5 378.81,-38.5 473.81,-38.5 473.81,-0.5 378.81,-0.5"/>
<text text-anchor="middle" x="426.31" y="-26.5" font-family="monospace" font-size="10.00">pub(crate) fn</text>
<polyline fill="none" stroke="black" points="378.81,-19.5 473.81,-19.5 "/>
<text text-anchor="middle" x="426.31" y="-7.5" font-family="monospace" font-size="10.00">now</text>
</g>
<!-- lightning_notifier&#45;&gt;lightning_notifier::now -->
<g id="edge6" class="edge">
<title>lightning_notifier&#45;&gt;lightning_notifier::now</title>
<path fill="none" stroke="#000000" d="M450.6,-277.68C446.12,-230.1 434.43,-105.83 429.07,-48.83"/>
<polygon fill="#000000" stroke="#000000" points="432.54,-48.32 428.11,-38.69 425.57,-48.97 432.54,-48.32"/>
<text text-anchor="middle" x="427.33" y="-166.26" font-family="monospace" font-size="10.00">owns</text>
</g>
<!-- lightning_notifier::BroadcastSub::last -->
<g id="node3" class="node">
<title>lightning_notifier::BroadcastSub::last</title>
<polygon fill="#f8c04c" stroke="black" points="154.71,-763.93 154.71,-801.93 285.71,-801.93 285.71,-763.93 154.71,-763.93"/>
<text text-anchor="middle" x="220.21" y="-789.93" font-family="monospace" font-size="10.00">pub(crate) async fn</text>
<polyline fill="none" stroke="black" points="154.71,-782.93 285.71,-782.93 "/>
<text text-anchor="middle" x="220.21" y="-770.93" font-family="monospace" font-size="10.00">BroadcastSub::last</text>
</g>
<!-- lightning_notifier::BroadcastSub&#45;&gt;lightning_notifier::BroadcastSub::last -->
<g id="edge7" class="edge">
<title>lightning_notifier::BroadcastSub&#45;&gt;lightning_notifier::BroadcastSub::last</title>
<path fill="none" stroke="#000000" d="M329.96,-570.77C290.4,-611.82 233.28,-705.4 219.19,-753.85"/>
<polygon fill="#000000" stroke="#000000" points="215.74,-753.2 216.8,-763.75 222.55,-754.84 215.74,-753.2"/>
<text text-anchor="middle" x="262.07" y="-665.31" font-family="monospace" font-size="10.00">owns</text>
</g>
<!-- lightning_notifier::BroadcastSub::recv -->
<g id="node4" class="node">
<title>lightning_notifier::BroadcastSub::recv</title>
<polygon fill="#f8c04c" stroke="black" points="0,-520.08 0,-558.08 131,-558.08 131,-520.08 0,-520.08"/>
<text text-anchor="middle" x="65.5" y="-546.08" font-family="monospace" font-size="10.00">pub(crate) async fn</text>
<polyline fill="none" stroke="black" points="0,-539.08 131,-539.08 "/>
<text text-anchor="middle" x="65.5" y="-527.08" font-family="monospace" font-size="10.00">BroadcastSub::recv</text>
</g>
<!-- lightning_notifier::BroadcastSub&#45;&gt;lightning_notifier::BroadcastSub::recv -->
<g id="edge8" class="edge">
<title>lightning_notifier::BroadcastSub&#45;&gt;lightning_notifier::BroadcastSub::recv</title>
<path fill="none" stroke="#000000" d="M331.61,-532.7C283.7,-520.17 192.34,-514.64 130.17,-519.2"/>
<polygon fill="#000000" stroke="#000000" points="129.74,-515.73 120.08,-520.06 130.34,-522.7 129.74,-515.73"/>
<text text-anchor="middle" x="218.39" y="-528.95" font-family="monospace" font-size="10.00">owns</text>
</g>
<!-- lightning_notifier::BroadcastSub::last&#45;&gt;lightning_notifier::BroadcastSub -->
<g id="edge9" class="edge">
<title>lightning_notifier::BroadcastSub::last&#45;&gt;lightning_notifier::BroadcastSub</title>
<path fill="none" stroke="#7f7f7f" stroke-dasharray="5,2" d="M253.86,-763.91C293.42,-722.86 350.54,-629.28 364.64,-580.83"/>
<polygon fill="#7f7f7f" stroke="#7f7f7f" points="368.08,-581.48 367.02,-570.93 361.27,-579.84 368.08,-581.48"/>
<text text-anchor="middle" x="296.75" y="-675.37" font-family="monospace" font-size="10.00">uses</text>
</g>
<!-- lightning_notifier::BroadcastSub::recv&#45;&gt;lightning_notifier::BroadcastSub -->
<g id="edge10" class="edge">
<title>lightning_notifier::BroadcastSub::recv&#45;&gt;lightning_notifier::BroadcastSub</title>
<path fill="none" stroke="#7f7f7f" stroke-dasharray="5,2" d="M97.51,-558.12C145.42,-570.66 236.78,-576.19 298.94,-571.62"/>
<polygon fill="#7f7f7f" stroke="#7f7f7f" points="299.37,-575.1 309.04,-570.76 298.78,-568.12 299.37,-575.1"/>
<text text-anchor="middle" x="185.72" y="-567.87" font-family="monospace" font-size="10.00">uses</text>
</g>
<!-- lightning_notifier::NotificationsEmitter::epoch_changed -->
<g id="node6" class="node">
<title>lightning_notifier::NotificationsEmitter::epoch_changed</title>
<polygon fill="#f8c04c" stroke="black" points="969.97,-559.69 969.97,-597.69 1196.97,-597.69 1196.97,-559.69 969.97,-559.69"/>
<text text-anchor="middle" x="1083.47" y="-585.69" font-family="monospace" font-size="10.00">pub(crate) fn</text>
<polyline fill="none" stroke="black" points="969.97,-578.69 1196.97,-578.69 "/>
<text text-anchor="middle" x="1083.47" y="-566.69" font-family="monospace" font-size="10.00">NotificationsEmitter::epoch_changed</text>
</g>
<!-- lightning_notifier::NotificationsEmitter&#45;&gt;lightning_notifier::NotificationsEmitter::epoch_changed -->
<g id="edge11" class="edge">
<title>lightning_notifier::NotificationsEmitter&#45;&gt;lightning_notifier::NotificationsEmitter::epoch_changed</title>
<path fill="none" stroke="#000000" d="M807.97,-420.78C835.7,-455.1 930.32,-518.79 1001.2,-555.06"/>
<polygon fill="#000000" stroke="#000000" points="999.65,-558.2 1010.16,-559.56 1002.8,-551.95 999.65,-558.2"/>
<text text-anchor="middle" x="892.09" y="-490.92" font-family="monospace" font-size="10.00">owns</text>
</g>
<!-- lightning_notifier::NotificationsEmitter::new_block -->
<g id="node7" class="node">
<title>lightning_notifier::NotificationsEmitter::new_block</title>
<polygon fill="#f8c04c" stroke="black" points="1005.68,-282.29 1005.68,-320.29 1208.68,-320.29 1208.68,-282.29 1005.68,-282.29"/>
<text text-anchor="middle" x="1107.18" y="-308.29" font-family="monospace" font-size="10.00">pub(crate) fn</text>
<polyline fill="none" stroke="black" points="1005.68,-301.29 1208.68,-301.29 "/>
<text text-anchor="middle" x="1107.18" y="-289.29" font-family="monospace" font-size="10.00">NotificationsEmitter::new_block</text>
</g>
<!-- lightning_notifier::NotificationsEmitter&#45;&gt;lightning_notifier::NotificationsEmitter::new_block -->
<g id="edge12" class="edge">
<title>lightning_notifier::NotificationsEmitter&#45;&gt;lightning_notifier::NotificationsEmitter::new_block</title>
<path fill="none" stroke="#000000" d="M869.45,-402.55C938.13,-388.49 1039.72,-353.12 1084.67,-325.82"/>
<polygon fill="#000000" stroke="#000000" points="1086.66,-328.69 1093.12,-320.3 1082.83,-322.83 1086.66,-328.69"/>
<text text-anchor="middle" x="964.56" y="-367.18" font-family="monospace" font-size="10.00">owns</text>
</g>
<!-- lightning_notifier::NotificationsEmitter::epoch_changed&#45;&gt;lightning_notifier::NotificationsEmitter -->
<g id="edge13" class="edge">
<title>lightning_notifier::NotificationsEmitter::epoch_changed&#45;&gt;lightning_notifier::NotificationsEmitter</title>
<path fill="none" stroke="#7f7f7f" stroke-dasharray="5,2" d="M1076.45,-559.61C1048.09,-524.52 949.82,-458.73 878.48,-422.93"/>
<polygon fill="#7f7f7f" stroke="#7f7f7f" points="880,-419.78 869.48,-418.51 876.91,-426.06 880,-419.78"/>
<text text-anchor="middle" x="989.96" y="-494.27" font-family="monospace" font-size="10.00">uses</text>
</g>
<!-- lightning_notifier::NotificationsEmitter::new_block&#45;&gt;lightning_notifier::NotificationsEmitter -->
<g id="edge14" class="edge">
<title>lightning_notifier::NotificationsEmitter::new_block&#45;&gt;lightning_notifier::NotificationsEmitter</title>
<path fill="none" stroke="#7f7f7f" stroke-dasharray="5,2" d="M1005.39,-308.23C940.7,-325 862.25,-353.77 823.95,-376.88"/>
<polygon fill="#7f7f7f" stroke="#7f7f7f" points="821.6,-374.24 815.12,-382.62 825.41,-380.11 821.6,-374.24"/>
<text text-anchor="middle" x="902.17" y="-345.55" font-family="monospace" font-size="10.00">uses</text>
</g>
<!-- lightning_notifier::Notifier&#45;&gt;lightning_notifier::NotificationsEmitter -->
<g id="edge15" class="edge">
<title>lightning_notifier::Notifier&#45;&gt;lightning_notifier::NotificationsEmitter</title>
<path fill="none" stroke="#7f7f7f" stroke-dasharray="5,2" d="M742.3,-445.07C750,-439.37 758.57,-433.03 766.72,-427.01"/>
<polygon fill="#7f7f7f" stroke="#7f7f7f" points="769.06,-429.63 775.02,-420.87 764.9,-424 769.06,-429.63"/>
<text text-anchor="middle" x="742.01" y="-428.04" font-family="monospace" font-size="10.00">uses</text>
</g>
<!-- lightning_notifier::Notifier::Emitter -->
<g id="node9" class="node">
<title>lightning_notifier::Notifier::Emitter</title>
<polygon fill="#f8c04c" stroke="black" points="880.46,-476.77 880.46,-514.77 999.46,-514.77 999.46,-476.77 880.46,-476.77"/>
<text text-anchor="middle" x="939.96" y="-502.77" font-family="monospace" font-size="10.00">pub(crate) type</text>
<polyline fill="none" stroke="black" points="880.46,-495.77 999.46,-495.77 "/>
<text text-anchor="middle" x="939.96" y="-483.77" font-family="monospace" font-size="10.00">Notifier::Emitter</text>
</g>
<!-- lightning_notifier::Notifier&#45;&gt;lightning_notifier::Notifier::Emitter -->
<g id="edge16" class="edge">
<title>lightning_notifier::Notifier&#45;&gt;lightning_notifier::Notifier::Emitter</title>
<path fill="none" stroke="#000000" d="M755.17,-469.61C786.82,-474.09 832.4,-480.54 870.37,-485.92"/>
<polygon fill="#000000" stroke="#000000" points="869.96,-489.4 880.35,-487.33 870.94,-482.46 869.96,-489.4"/>
<text text-anchor="middle" x="800.27" y="-480.76" font-family="monospace" font-size="10.00">owns</text>
</g>
<!-- lightning_notifier::Notifier::build_graph -->
<g id="node10" class="node">
<title>lightning_notifier::Notifier::build_graph</title>
<polygon fill="#f8c04c" stroke="black" points="758.28,-734.87 758.28,-772.87 901.28,-772.87 901.28,-734.87 758.28,-734.87"/>
<text text-anchor="middle" x="829.78" y="-760.87" font-family="monospace" font-size="10.00">pub(crate) fn</text>
<polyline fill="none" stroke="black" points="758.28,-753.87 901.28,-753.87 "/>
<text text-anchor="middle" x="829.78" y="-741.87" font-family="monospace" font-size="10.00">Notifier::build_graph</text>
</g>
<!-- lightning_notifier::Notifier&#45;&gt;lightning_notifier::Notifier::build_graph -->
<g id="edge17" class="edge">
<title>lightning_notifier::Notifier&#45;&gt;lightning_notifier::Notifier::build_graph</title>
<path fill="none" stroke="#000000" d="M723.93,-483.15C743.34,-532.77 795.61,-666.46 818.63,-725.35"/>
<polygon fill="#000000" stroke="#000000" points="815.42,-726.75 822.32,-734.79 821.94,-724.2 815.42,-726.75"/>
<text text-anchor="middle" x="758.78" y="-607.25" font-family="monospace" font-size="10.00">owns</text>
</g>
<!-- lightning_notifier::Notifier::get_emitter -->
<g id="node11" class="node">
<title>lightning_notifier::Notifier::get_emitter</title>
<polygon fill="#f8c04c" stroke="black" points="679.12,-184.85 679.12,-222.85 822.12,-222.85 822.12,-184.85 679.12,-184.85"/>
<text text-anchor="middle" x="750.62" y="-210.85" font-family="monospace" font-size="10.00">pub(crate) fn</text>
<polyline fill="none" stroke="black" points="679.12,-203.85 822.12,-203.85 "/>
<text text-anchor="middle" x="750.62" y="-191.85" font-family="monospace" font-size="10.00">Notifier::get_emitter</text>
</g>
<!-- lightning_notifier::Notifier&#45;&gt;lightning_notifier::Notifier::get_emitter -->
<g id="edge18" class="edge">
<title>lightning_notifier::Notifier&#45;&gt;lightning_notifier::Notifier::get_emitter</title>
<path fill="none" stroke="#000000" d="M734.81,-444.87C755.45,-399.64 770.79,-286.7 764.19,-233.01"/>
<polygon fill="#000000" stroke="#000000" points="767.64,-232.41 762.57,-223.1 760.73,-233.54 767.64,-232.41"/>
<text text-anchor="middle" x="737" y="-341.94" font-family="monospace" font-size="10.00">owns</text>
</g>
<!-- lightning_notifier::Notifier::new -->
<g id="node12" class="node">
<title>lightning_notifier::Notifier::new</title>
<polygon fill="#f8c04c" stroke="black" points="864.21,-246.52 864.21,-284.52 959.21,-284.52 959.21,-246.52 864.21,-246.52"/>
<text text-anchor="middle" x="911.71" y="-272.52" font-family="monospace" font-size="10.00">pub(crate) fn</text>
<polyline fill="none" stroke="black" points="864.21,-265.52 959.21,-265.52 "/>
<text text-anchor="middle" x="911.71" y="-253.52" font-family="monospace" font-size="10.00">Notifier::new</text>
</g>
<!-- lightning_notifier::Notifier&#45;&gt;lightning_notifier::Notifier::new -->
<g id="edge19" class="edge">
<title>lightning_notifier::Notifier&#45;&gt;lightning_notifier::Notifier::new</title>
<path fill="none" stroke="#000000" d="M755.04,-451.76C803.82,-418.92 881.49,-338.58 906.2,-294"/>
<polygon fill="#000000" stroke="#000000" points="909.46,-295.31 910.76,-284.79 903.19,-292.2 909.46,-295.31"/>
<text text-anchor="middle" x="818.12" y="-364.88" font-family="monospace" font-size="10.00">owns</text>
</g>
<!-- lightning_notifier::Notifier::subscribe_before_epoch_change -->
<g id="node13" class="node">
<title>lightning_notifier::Notifier::subscribe_before_epoch_change</title>
<polygon fill="#f8c04c" stroke="black" points="431.13,-513.53 431.13,-551.53 682.13,-551.53 682.13,-513.53 431.13,-513.53"/>
<text text-anchor="middle" x="556.63" y="-539.53" font-family="monospace" font-size="10.00">pub(crate) fn</text>
<polyline fill="none" stroke="black" points="431.13,-532.53 682.13,-532.53 "/>
<text text-anchor="middle" x="556.63" y="-520.53" font-family="monospace" font-size="10.00">Notifier::subscribe_before_epoch_change</text>
</g>
<!-- lightning_notifier::Notifier&#45;&gt;lightning_notifier::Notifier::subscribe_before_epoch_change -->
<g id="edge20" class="edge">
<title>lightning_notifier::Notifier&#45;&gt;lightning_notifier::Notifier::subscribe_before_epoch_change</title>
<path fill="none" stroke="#000000" d="M677.92,-457.1C643.08,-463.37 594.27,-485.21 570.26,-506.04"/>
<polygon fill="#000000" stroke="#000000" points="567.52,-503.82 562.86,-513.33 572.44,-508.8 567.52,-503.82"/>
<text text-anchor="middle" x="611.59" y="-484.57" font-family="monospace" font-size="10.00">owns</text>
</g>
<!-- lightning_notifier::Notifier::subscribe_block_executed -->
<g id="node14" class="node">
<title>lightning_notifier::Notifier::subscribe_block_executed</title>
<polygon fill="#f8c04c" stroke="black" points="465.41,-360.61 465.41,-398.61 686.41,-398.61 686.41,-360.61 465.41,-360.61"/>
<text text-anchor="middle" x="575.91" y="-386.61" font-family="monospace" font-size="10.00">pub(crate) fn</text>
<polyline fill="none" stroke="black" points="465.41,-379.61 686.41,-379.61 "/>
<text text-anchor="middle" x="575.91" y="-367.61" font-family="monospace" font-size="10.00">Notifier::subscribe_block_executed</text>
</g>
<!-- lightning_notifier::Notifier&#45;&gt;lightning_notifier::Notifier::subscribe_block_executed -->
<g id="edge21" class="edge">
<title>lightning_notifier::Notifier&#45;&gt;lightning_notifier::Notifier::subscribe_block_executed</title>
<path fill="none" stroke="#000000" d="M713.87,-445.11C706.11,-432.25 688.76,-417.2 668.82,-404.19"/>
<polygon fill="#000000" stroke="#000000" points="670.46,-401.09 660.13,-398.74 666.75,-407.02 670.46,-401.09"/>
<text text-anchor="middle" x="678.84" y="-427.65" font-family="monospace" font-size="10.00">owns</text>
</g>
<!-- lightning_notifier::Notifier::subscribe_epoch_changed -->
<g id="node15" class="node">
<title>lightning_notifier::Notifier::subscribe_epoch_changed</title>
<polygon fill="#f8c04c" stroke="black" points="525.28,-621.62 525.28,-659.62 740.28,-659.62 740.28,-621.62 525.28,-621.62"/>
<text text-anchor="middle" x="632.78" y="-647.62" font-family="monospace" font-size="10.00">pub(crate) fn</text>
<polyline fill="none" stroke="black" points="525.28,-640.62 740.28,-640.62 "/>
<text text-anchor="middle" x="632.78" y="-628.62" font-family="monospace" font-size="10.00">Notifier::subscribe_epoch_changed</text>
</g>
<!-- lightning_notifier::Notifier&#45;&gt;lightning_notifier::Notifier::subscribe_epoch_changed -->
<g id="edge22" class="edge">
<title>lightning_notifier::Notifier&#45;&gt;lightning_notifier::Notifier::subscribe_epoch_changed</title>
<path fill="none" stroke="#000000" d="M684.84,-483.38C659.54,-514.61 631.7,-574.83 626.33,-611.33"/>
<polygon fill="#000000" stroke="#000000" points="622.83,-611.12 625.42,-621.39 629.81,-611.75 622.83,-611.12"/>
<text text-anchor="middle" x="643.09" y="-550.35" font-family="monospace" font-size="10.00">owns</text>
</g>
<!-- lightning_notifier::Notifier::Emitter&#45;&gt;lightning_notifier::NotificationsEmitter -->
<g id="edge23" class="edge">
<title>lightning_notifier::Notifier::Emitter&#45;&gt;lightning_notifier::NotificationsEmitter</title>
<path fill="none" stroke="#7f7f7f" stroke-dasharray="5,2" d="M911.83,-476.73C890.44,-462.26 860.84,-442.23 837.6,-426.51"/>
<polygon fill="#7f7f7f" stroke="#7f7f7f" points="839.28,-423.42 829.04,-420.71 835.36,-429.21 839.28,-423.42"/>
<text text-anchor="middle" x="862.22" y="-454.62" font-family="monospace" font-size="10.00">uses</text>
</g>
<!-- lightning_notifier::Notifier::get_emitter&#45;&gt;lightning_notifier::NotificationsEmitter -->
<g id="edge24" class="edge">
<title>lightning_notifier::Notifier::get_emitter&#45;&gt;lightning_notifier::NotificationsEmitter</title>
<path fill="none" stroke="#7f7f7f" stroke-dasharray="5,2" d="M755.54,-223.18C764.41,-258.06 783.14,-331.72 793.56,-372.68"/>
<polygon fill="#7f7f7f" stroke="#7f7f7f" points="790.23,-373.76 796.08,-382.58 797.01,-372.03 790.23,-373.76"/>
<text text-anchor="middle" x="762.05" y="-300.93" font-family="monospace" font-size="10.00">uses</text>
</g>
<!-- lightning_notifier::Notifier::get_emitter&#45;&gt;lightning_notifier::Notifier -->
<g id="edge25" class="edge">
<title>lightning_notifier::Notifier::get_emitter&#45;&gt;lightning_notifier::Notifier</title>
<path fill="none" stroke="#7f7f7f" stroke-dasharray="5,2" d="M732.32,-223.11C711.68,-268.34 696.33,-381.29 702.93,-434.97"/>
<polygon fill="#7f7f7f" stroke="#7f7f7f" points="699.49,-435.58 704.55,-444.88 706.4,-434.45 699.49,-435.58"/>
<text text-anchor="middle" x="705.13" y="-332.04" font-family="monospace" font-size="10.00">uses</text>
</g>
<!-- lightning_notifier::Notifier::new&#45;&gt;lightning_notifier::NotificationsEmitter -->
<g id="edge26" class="edge">
<title>lightning_notifier::Notifier::new&#45;&gt;lightning_notifier::NotificationsEmitter</title>
<path fill="none" stroke="#7f7f7f" stroke-dasharray="5,2" d="M896.07,-284.74C876.94,-308.26 844.44,-348.23 822.83,-374.8"/>
<polygon fill="#7f7f7f" stroke="#7f7f7f" points="820.09,-372.61 816.5,-382.58 825.53,-377.03 820.09,-372.61"/>
<text text-anchor="middle" x="846.95" y="-332.77" font-family="monospace" font-size="10.00">uses</text>
</g>
<!-- lightning_notifier::Notifier::new&#45;&gt;lightning_notifier::Notifier -->
<g id="edge27" class="edge">
<title>lightning_notifier::Notifier::new&#45;&gt;lightning_notifier::Notifier</title>
<path fill="none" stroke="#7f7f7f" stroke-dasharray="5,2" d="M863.97,-284.39C815.07,-320.42 745.04,-393.97 721.91,-435.82"/>
<polygon fill="#7f7f7f" stroke="#7f7f7f" points="718.68,-434.47 717.4,-444.99 724.95,-437.57 718.68,-434.47"/>
<text text-anchor="middle" x="780.44" y="-363.11" font-family="monospace" font-size="10.00">uses</text>
</g>
<!-- lightning_notifier::Notifier::subscribe_before_epoch_change&#45;&gt;lightning_notifier::BroadcastSub -->
<g id="edge28" class="edge">
<title>lightning_notifier::Notifier::subscribe_before_epoch_change&#45;&gt;lightning_notifier::BroadcastSub</title>
<path fill="none" stroke="#7f7f7f" stroke-dasharray="5,2" d="M431.12,-545.03C430.96,-545.04 430.8,-545.06 430.64,-545.07"/>
<polygon fill="#7f7f7f" stroke="#7f7f7f" points="433.05,-541.32 423.45,-545.79 433.75,-548.28 433.05,-541.32"/>
<text text-anchor="middle" x="443.38" y="-548.05" font-family="monospace" font-size="10.00">uses</text>
</g>
<!-- lightning_notifier::Notifier::subscribe_before_epoch_change&#45;&gt;lightning_notifier::NotificationsEmitter -->
<g id="edge29" class="edge">
<title>lightning_notifier::Notifier::subscribe_before_epoch_change&#45;&gt;lightning_notifier::NotificationsEmitter</title>
<path fill="none" stroke="#7f7f7f" stroke-dasharray="5,2" d="M592.16,-513.5C635.58,-490.25 709.1,-450.88 756.3,-425.61"/>
<polygon fill="#7f7f7f" stroke="#7f7f7f" points="758.21,-428.55 765.38,-420.75 754.91,-422.38 758.21,-428.55"/>
<text text-anchor="middle" x="661.73" y="-472.55" font-family="monospace" font-size="10.00">uses</text>
</g>
<!-- lightning_notifier::Notifier::subscribe_before_epoch_change&#45;&gt;lightning_notifier::Notifier -->
<g id="edge30" class="edge">
<title>lightning_notifier::Notifier::subscribe_before_epoch_change&#45;&gt;lightning_notifier::Notifier</title>
<path fill="none" stroke="#7f7f7f" stroke-dasharray="5,2" d="M667.72,-513.46C681.58,-506.26 694,-498.34 702.95,-490.56"/>
<polygon fill="#7f7f7f" stroke="#7f7f7f" points="705.47,-492.99 710.14,-483.48 700.56,-488.01 705.47,-492.99"/>
<text text-anchor="middle" x="672.83" y="-505.01" font-family="monospace" font-size="10.00">uses</text>
</g>
<!-- lightning_notifier::Notifier::subscribe_block_executed&#45;&gt;lightning_notifier::BroadcastSub -->
<g id="edge31" class="edge">
<title>lightning_notifier::Notifier::subscribe_block_executed&#45;&gt;lightning_notifier::BroadcastSub</title>
<path fill="none" stroke="#7f7f7f" stroke-dasharray="5,2" d="M552.38,-398.69C514.04,-429.78 438.08,-491.37 395.13,-526.2"/>
<polygon fill="#7f7f7f" stroke="#7f7f7f" points="392.81,-523.57 387.25,-532.58 397.22,-529 392.81,-523.57"/>
<text text-anchor="middle" x="461.25" y="-465.45" font-family="monospace" font-size="10.00">uses</text>
</g>
<!-- lightning_notifier::Notifier::subscribe_block_executed&#45;&gt;lightning_notifier::NotificationsEmitter -->
<g id="edge32" class="edge">
<title>lightning_notifier::Notifier::subscribe_block_executed&#45;&gt;lightning_notifier::NotificationsEmitter</title>
<path fill="none" stroke="#7f7f7f" stroke-dasharray="5,2" d="M686.45,-390.46C698.57,-391.65 710.72,-392.85 722.34,-393.99"/>
<polygon fill="#7f7f7f" stroke="#7f7f7f" points="722.11,-397.48 732.4,-394.98 722.79,-390.52 722.11,-397.48"/>
<text text-anchor="middle" x="716.9" y="-395.23" font-family="monospace" font-size="10.00">uses</text>
</g>
<!-- lightning_notifier::Notifier::subscribe_block_executed&#45;&gt;lightning_notifier::Notifier -->
<g id="edge33" class="edge">
<title>lightning_notifier::Notifier::subscribe_block_executed&#45;&gt;lightning_notifier::Notifier</title>
<path fill="none" stroke="#7f7f7f" stroke-dasharray="5,2" d="M578.54,-398.65C591.9,-420.8 633.74,-449.43 668.22,-463"/>
<polygon fill="#7f7f7f" stroke="#7f7f7f" points="667.13,-466.33 677.72,-466.42 669.49,-459.74 667.13,-466.33"/>
<text text-anchor="middle" x="610.88" y="-433.82" font-family="monospace" font-size="10.00">uses</text>
</g>
<!-- lightning_notifier::Notifier::subscribe_epoch_changed&#45;&gt;lightning_notifier::BroadcastSub -->
<g id="edge34" class="edge">
<title>lightning_notifier::Notifier::subscribe_epoch_changed&#45;&gt;lightning_notifier::BroadcastSub</title>
<path fill="none" stroke="#7f7f7f" stroke-dasharray="5,2" d="M575.04,-621.55C532.73,-607.58 475.18,-588.58 430.81,-573.93"/>
<polygon fill="#7f7f7f" stroke="#7f7f7f" points="431.86,-570.59 421.26,-570.78 429.66,-577.24 431.86,-570.59"/>
<text text-anchor="middle" x="490.42" y="-600.74" font-family="monospace" font-size="10.00">uses</text>
</g>
<!-- lightning_notifier::Notifier::subscribe_epoch_changed&#45;&gt;lightning_notifier::NotificationsEmitter -->
<g id="edge35" class="edge">
<title>lightning_notifier::Notifier::subscribe_epoch_changed&#45;&gt;lightning_notifier::NotificationsEmitter</title>
<path fill="none" stroke="#7f7f7f" stroke-dasharray="5,2" d="M646.25,-621.47C675.96,-579.27 747.15,-478.12 781.61,-429.17"/>
<polygon fill="#7f7f7f" stroke="#7f7f7f" points="784.51,-431.13 787.4,-420.94 778.79,-427.1 784.51,-431.13"/>
<text text-anchor="middle" x="701.43" y="-528.32" font-family="monospace" font-size="10.00">uses</text>
</g>
<!-- lightning_notifier::Notifier::subscribe_epoch_changed&#45;&gt;lightning_notifier::Notifier -->
<g id="edge36" class="edge">
<title>lightning_notifier::Notifier::subscribe_epoch_changed&#45;&gt;lightning_notifier::Notifier</title>
<path fill="none" stroke="#7f7f7f" stroke-dasharray="5,2" d="M664.43,-621.38C689.74,-590.14 717.58,-529.92 722.95,-493.42"/>
<polygon fill="#7f7f7f" stroke="#7f7f7f" points="726.44,-493.63 723.86,-483.36 719.47,-493 726.44,-493.63"/>
<text text-anchor="middle" x="681.19" y="-560.4" font-family="monospace" font-size="10.00">uses</text>
</g>
<!-- lightning_notifier::before_epoch_change&#45;&gt;lightning_notifier::BroadcastSub -->
<g id="edge37" class="edge">
<title>lightning_notifier::before_epoch_change&#45;&gt;lightning_notifier::BroadcastSub</title>
<path fill="none" stroke="#7f7f7f" stroke-dasharray="5,2" d="M259.46,-453.05C280.25,-472.75 312.73,-503.53 335.89,-525.47"/>
<polygon fill="#7f7f7f" stroke="#7f7f7f" points="333.69,-528.21 343.36,-532.55 338.51,-523.13 333.69,-528.21"/>
<text text-anchor="middle" x="285.17" y="-492.26" font-family="monospace" font-size="10.00">uses</text>
</g>
</g>
</svg>
