<?xml version="1.0" encoding="UTF-8" standalone="no"?>
<!DOCTYPE svg PUBLIC "-//W3C//DTD SVG 1.1//EN"
 "http://www.w3.org/Graphics/SVG/1.1/DTD/svg11.dtd">
<!-- Generated by graphviz version 4.0.0 (0)
 -->
<!-- Pages: 1 -->
<svg width="1281pt" height="2220pt"
 viewBox="0.00 0.00 1280.60 2220.10" xmlns="http://www.w3.org/2000/svg" xmlns:xlink="http://www.w3.org/1999/xlink">
<g id="graph0" class="graph" transform="scale(1 1) rotate(0) translate(28.8 2191.3)">
<polygon fill="white" stroke="transparent" points="-28.8,28.8 -28.8,-2191.3 1251.8,-2191.3 1251.8,28.8 -28.8,28.8"/>
<text text-anchor="middle" x="611.5" y="-2129.7" font-family="Helvetica,sans-Serif" font-size="36.00">lightning_rep_collector</text>
<!-- fdi -->
<g id="node1" class="node">
<title>fdi</title>
<polygon fill="#5397c8" stroke="black" points="27,-1343 27,-1381 128,-1381 128,-1343 27,-1343"/>
<text text-anchor="middle" x="77.5" y="-1369" font-family="monospace" font-size="10.00">external crate</text>
<polyline fill="none" stroke="black" points="27,-1362 128,-1362 "/>
<text text-anchor="middle" x="77.5" y="-1350" font-family="monospace" font-size="10.00">fdi</text>
</g>
<!-- lightning_rep_collector -->
<g id="node2" class="node">
<title>lightning_rep_collector</title>
<polygon fill="#5397c8" stroke="black" points="0,-719 0,-757 155,-757 155,-719 0,-719"/>
<text text-anchor="middle" x="77.5" y="-745" font-family="monospace" font-size="10.00">crate</text>
<polyline fill="none" stroke="black" points="0,-738 155,-738 "/>
<text text-anchor="middle" x="77.5" y="-726" font-family="monospace" font-size="10.00">lightning_rep_collector</text>
</g>
<!-- lightning_rep_collector::aggregator -->
<g id="node3" class="node">
<title>lightning_rep_collector::aggregator</title>
<polygon fill="#81c169" stroke="black" points="969,-2076 969,-2114 1196,-2114 1196,-2076 969,-2076"/>
<text text-anchor="middle" x="1082.5" y="-2102" font-family="monospace" font-size="10.00">pub mod</text>
<polyline fill="none" stroke="black" points="969,-2095 1196,-2095 "/>
<text text-anchor="middle" x="1082.5" y="-2083" font-family="monospace" font-size="10.00">lightning_rep_collector::aggregator</text>
</g>
<!-- lightning_rep_collector&#45;&gt;lightning_rep_collector::aggregator -->
<g id="edge1" class="edge">
<title>lightning_rep_collector&#45;&gt;lightning_rep_collector::aggregator</title>
<path fill="none" stroke="#000000" d="M90.62,-757.31C164.37,-865.83 524,-1395 524,-1395 524,-1395 958.47,-1939.55 1061.01,-2068.06"/>
<polygon fill="#000000" stroke="#000000" points="1058.3,-2070.28 1067.27,-2075.91 1063.77,-2065.91 1058.3,-2070.28"/>
<text text-anchor="middle" x="536.5" y="-1398" font-family="monospace" font-size="10.00">owns</text>
</g>
<!-- lightning_rep_collector&#45;&gt;lightning_rep_collector::aggregator -->
<g id="edge2" class="edge">
<title>lightning_rep_collector&#45;&gt;lightning_rep_collector::aggregator</title>
<path fill="none" stroke="#7f7f7f" stroke-dasharray="5,2" d="M96.57,-757.01C184.78,-844.94 549,-1208 549,-1208 549,-1208 974.82,-1915.98 1065.61,-2066.91"/>
<polygon fill="#7f7f7f" stroke="#7f7f7f" points="1062.71,-2068.88 1070.86,-2075.65 1068.71,-2065.28 1062.71,-2068.88"/>
<text text-anchor="middle" x="536.5" y="-1200" font-family="monospace" font-size="10.00">uses</text>
</g>
<!-- lightning_rep_collector::buffered_mpsc -->
<g id="node4" class="node">
<title>lightning_rep_collector::buffered_mpsc</title>
<polygon fill="#81c169" stroke="black" points="960,-597 960,-635 1205,-635 1205,-597 960,-597"/>
<text text-anchor="middle" x="1082.5" y="-623" font-family="monospace" font-size="10.00">pub mod</text>
<polyline fill="none" stroke="black" points="960,-616 1205,-616 "/>
<text text-anchor="middle" x="1082.5" y="-604" font-family="monospace" font-size="10.00">lightning_rep_collector::buffered_mpsc</text>
</g>
<!-- lightning_rep_collector&#45;&gt;lightning_rep_collector::buffered_mpsc -->
<g id="edge3" class="edge">
<title>lightning_rep_collector&#45;&gt;lightning_rep_collector::buffered_mpsc</title>
<path fill="none" stroke="#000000" d="M116.34,-757.05C224.97,-810.33 524,-957 524,-957 524,-957 914.68,-718.46 1042.53,-640.4"/>
<polygon fill="#000000" stroke="#000000" points="1044.56,-643.26 1051.28,-635.06 1040.92,-637.29 1044.56,-643.26"/>
<text text-anchor="middle" x="536.5" y="-960" font-family="monospace" font-size="10.00">owns</text>
</g>
<!-- lightning_rep_collector::config -->
<g id="node5" class="node">
<title>lightning_rep_collector::config</title>
<polygon fill="#81c169" stroke="black" points="981,-145 981,-183 1184,-183 1184,-145 981,-145"/>
<text text-anchor="middle" x="1082.5" y="-171" font-family="monospace" font-size="10.00">pub mod</text>
<polyline fill="none" stroke="black" points="981,-164 1184,-164 "/>
<text text-anchor="middle" x="1082.5" y="-152" font-family="monospace" font-size="10.00">lightning_rep_collector::config</text>
</g>
<!-- lightning_rep_collector&#45;&gt;lightning_rep_collector::config -->
<g id="edge4" class="edge">
<title>lightning_rep_collector&#45;&gt;lightning_rep_collector::config</title>
<path fill="none" stroke="#000000" d="M136.33,-718.89C257.58,-679.52 524,-593 524,-593 524,-593 929.07,-281.86 1049.26,-189.53"/>
<polygon fill="#000000" stroke="#000000" points="1051.62,-192.13 1057.42,-183.27 1047.35,-186.58 1051.62,-192.13"/>
<text text-anchor="middle" x="536.5" y="-596" font-family="monospace" font-size="10.00">owns</text>
</g>
<!-- lightning_rep_collector::measurement_manager -->
<g id="node6" class="node">
<title>lightning_rep_collector::measurement_manager</title>
<polygon fill="#f8c04c" stroke="black" points="942,-34 942,-72 1223,-72 1223,-34 942,-34"/>
<text text-anchor="middle" x="1082.5" y="-60" font-family="monospace" font-size="10.00">pub(crate) mod</text>
<polyline fill="none" stroke="black" points="942,-53 1223,-53 "/>
<text text-anchor="middle" x="1082.5" y="-41" font-family="monospace" font-size="10.00">lightning_rep_collector::measurement_manager</text>
</g>
<!-- lightning_rep_collector&#45;&gt;lightning_rep_collector::measurement_manager -->
<g id="edge5" class="edge">
<title>lightning_rep_collector&#45;&gt;lightning_rep_collector::measurement_manager</title>
<path fill="none" stroke="#000000" d="M98.98,-719C191.22,-637.42 549,-321 549,-321 549,-321 905.37,-141.98 1035.58,-76.57"/>
<polygon fill="#000000" stroke="#000000" points="1037.19,-79.68 1044.56,-72.06 1034.05,-73.42 1037.19,-79.68"/>
<text text-anchor="middle" x="536.5" y="-313" font-family="monospace" font-size="10.00">owns</text>
</g>
<!-- lightning_rep_collector::aggregator&#45;&gt;fdi -->
<g id="edge6" class="edge">
<title>lightning_rep_collector::aggregator&#45;&gt;fdi</title>
<path fill="none" stroke="#7f7f7f" stroke-dasharray="5,2" d="M1063.51,-2075.99C968.48,-1980.87 549,-1561 549,-1561 549,-1561 256.18,-1437.41 132.06,-1385.03"/>
<polygon fill="#7f7f7f" stroke="#7f7f7f" points="133.28,-1381.74 122.71,-1381.08 130.56,-1388.19 133.28,-1381.74"/>
<text text-anchor="middle" x="536.5" y="-1553" font-family="monospace" font-size="10.00">uses</text>
</g>
<!-- lightning_rep_collector::aggregator&#45;&gt;lightning_rep_collector::buffered_mpsc -->
<g id="edge7" class="edge">
<title>lightning_rep_collector::aggregator&#45;&gt;lightning_rep_collector::buffered_mpsc</title>
</g>
<!-- lightning_rep_collector::aggregator&#45;&gt;lightning_rep_collector::config -->
<g id="edge8" class="edge">
<title>lightning_rep_collector::aggregator&#45;&gt;lightning_rep_collector::config</title>
<path fill="none" stroke="#7f7f7f" stroke-dasharray="5,2" d="M1079.54,-2075.89C1055.94,-1923.34 899,-909 899,-909 899,-909 1041.53,-330.32 1075.36,-192.98"/>
<polygon fill="#7f7f7f" stroke="#7f7f7f" points="1078.79,-193.71 1077.78,-183.16 1071.99,-192.04 1078.79,-193.71"/>
<text text-anchor="middle" x="893.5" y="-906.5" font-family="monospace" font-size="10.00">uses</text>
</g>
<!-- lightning_rep_collector::aggregator&#45;&gt;lightning_rep_collector::measurement_manager -->
<g id="edge9" class="edge">
<title>lightning_rep_collector::aggregator&#45;&gt;lightning_rep_collector::measurement_manager</title>
<path fill="none" stroke="#7f7f7f" stroke-dasharray="5,2" d="M1079.69,-2075.87C1056.6,-1918.6 899,-845 899,-845 899,-845 1042.75,-224.58 1075.79,-81.98"/>
<polygon fill="#7f7f7f" stroke="#7f7f7f" points="1079.21,-82.72 1078.05,-72.19 1072.39,-81.14 1079.21,-82.72"/>
<text text-anchor="middle" x="893.5" y="-842.5" font-family="monospace" font-size="10.00">uses</text>
</g>
<!-- lightning_schema -->
<g id="node7" class="node">
<title>lightning_schema</title>
<polygon fill="#5397c8" stroke="black" points="21,-585 21,-623 134,-623 134,-585 21,-585"/>
<text text-anchor="middle" x="77.5" y="-611" font-family="monospace" font-size="10.00">external crate</text>
<polyline fill="none" stroke="black" points="21,-604 134,-604 "/>
<text text-anchor="middle" x="77.5" y="-592" font-family="monospace" font-size="10.00">lightning_schema</text>
</g>
<!-- lightning_rep_collector::aggregator&#45;&gt;lightning_schema -->
<g id="edge10" class="edge">
<title>lightning_rep_collector::aggregator&#45;&gt;lightning_schema</title>
<path fill="none" stroke="#7f7f7f" stroke-dasharray="5,2" d="M1077.22,-2075.91C1021.81,-1875.57 549,-166 549,-166 549,-166 206.87,-483.82 105.49,-578"/>
<polygon fill="#7f7f7f" stroke="#7f7f7f" points="103.01,-575.53 98.06,-584.9 107.77,-580.66 103.01,-575.53"/>
<text text-anchor="middle" x="536.5" y="-158" font-family="monospace" font-size="10.00">uses</text>
</g>
<!-- lightning_types -->
<g id="node8" class="node">
<title>lightning_types</title>
<polygon fill="#5397c8" stroke="black" points="24,-429 24,-467 131,-467 131,-429 24,-429"/>
<text text-anchor="middle" x="77.5" y="-455" font-family="monospace" font-size="10.00">external crate</text>
<polyline fill="none" stroke="black" points="24,-448 131,-448 "/>
<text text-anchor="middle" x="77.5" y="-436" font-family="monospace" font-size="10.00">lightning_types</text>
</g>
<!-- lightning_rep_collector::aggregator&#45;&gt;lightning_types -->
<g id="edge11" class="edge">
<title>lightning_rep_collector::aggregator&#45;&gt;lightning_types</title>
<path fill="none" stroke="#7f7f7f" stroke-dasharray="5,2" d="M1077.56,-2075.7C1023.78,-1865.61 549,-11 549,-11 549,-11 206.87,-328.09 105.49,-422.06"/>
<polygon fill="#7f7f7f" stroke="#7f7f7f" points="103.02,-419.58 98.06,-428.94 107.78,-424.71 103.02,-419.58"/>
<text text-anchor="middle" x="536.5" y="-3" font-family="monospace" font-size="10.00">uses</text>
</g>
</g>
</svg>
