<?xml version="1.0" encoding="UTF-8" standalone="no"?>
<!DOCTYPE svg PUBLIC "-//W3C//DTD SVG 1.1//EN"
 "http://www.w3.org/Graphics/SVG/1.1/DTD/svg11.dtd">
<!-- Generated by graphviz version 4.0.0 (0)
 -->
<!-- Pages: 1 -->
<svg width="2034pt" height="1576pt"
 viewBox="0.00 0.00 2033.60 1575.60" xmlns="http://www.w3.org/2000/svg" xmlns:xlink="http://www.w3.org/1999/xlink">
<g id="graph0" class="graph" transform="scale(1 1) rotate(0) translate(28.8 1546.8)">
<polygon fill="white" stroke="transparent" points="-28.8,28.8 -28.8,-1546.8 2004.8,-1546.8 2004.8,28.8 -28.8,28.8"/>
<text text-anchor="middle" x="988" y="-1485.2" font-family="Helvetica,sans-Serif" font-size="36.00">lightning_schema</text>
<!-- lightning_schema -->
<g id="node1" class="node">
<title>lightning_schema</title>
<polygon fill="#5397c8" stroke="black" points="800.58,-678.22 800.58,-716.22 913.58,-716.22 913.58,-678.22 800.58,-678.22"/>
<text text-anchor="middle" x="857.08" y="-704.22" font-family="monospace" font-size="10.00">crate</text>
<polyline fill="none" stroke="black" points="800.58,-697.22 913.58,-697.22 "/>
<text text-anchor="middle" x="857.08" y="-685.22" font-family="monospace" font-size="10.00">lightning_schema</text>
</g>
<!-- lightning_schema::AutoImplSerde -->
<g id="node2" class="node">
<title>lightning_schema::AutoImplSerde</title>
<polygon fill="#81c169" stroke="black" points="630.33,-532.76 630.33,-570.76 725.33,-570.76 725.33,-532.76 630.33,-532.76"/>
<text text-anchor="middle" x="677.83" y="-558.76" font-family="monospace" font-size="10.00">pub trait</text>
<polyline fill="none" stroke="black" points="630.33,-551.76 725.33,-551.76 "/>
<text text-anchor="middle" x="677.83" y="-539.76" font-family="monospace" font-size="10.00">AutoImplSerde</text>
</g>
<!-- lightning_schema&#45;&gt;lightning_schema::AutoImplSerde -->
<g id="edge1" class="edge">
<title>lightning_schema&#45;&gt;lightning_schema::AutoImplSerde</title>
<path fill="none" stroke="#000000" d="M855.01,-677.95C839.22,-647.62 780.48,-595.82 734.43,-567.72"/>
<polygon fill="#000000" stroke="#000000" points="736.1,-564.64 725.7,-562.6 732.55,-570.68 736.1,-564.64"/>
<text text-anchor="middle" x="782.22" y="-625.84" font-family="monospace" font-size="10.00">owns</text>
</g>
<!-- lightning_schema&#45;&gt;lightning_schema::AutoImplSerde -->
<g id="edge2" class="edge">
<title>lightning_schema&#45;&gt;lightning_schema::AutoImplSerde</title>
<path fill="none" stroke="#7f7f7f" stroke-dasharray="5,2" d="M800.39,-681.19C758.4,-655.55 705.9,-610.24 685.02,-579.48"/>
<polygon fill="#7f7f7f" stroke="#7f7f7f" points="687.97,-577.58 679.81,-570.83 681.97,-581.2 687.97,-577.58"/>
<text text-anchor="middle" x="730.21" y="-633.34" font-family="monospace" font-size="10.00">uses</text>
</g>
<!-- lightning_schema::LightningMessage -->
<g id="node3" class="node">
<title>lightning_schema::LightningMessage</title>
<polygon fill="#81c169" stroke="black" points="517.87,-238.95 517.87,-276.95 630.87,-276.95 630.87,-238.95 517.87,-238.95"/>
<text text-anchor="middle" x="574.37" y="-264.95" font-family="monospace" font-size="10.00">pub trait</text>
<polyline fill="none" stroke="black" points="517.87,-257.95 630.87,-257.95 "/>
<text text-anchor="middle" x="574.37" y="-245.95" font-family="monospace" font-size="10.00">LightningMessage</text>
</g>
<!-- lightning_schema&#45;&gt;lightning_schema::LightningMessage -->
<g id="edge3" class="edge">
<title>lightning_schema&#45;&gt;lightning_schema::LightningMessage</title>
<path fill="none" stroke="#000000" d="M856.88,-678.07C835.61,-607.14 682.33,-365.76 609.72,-284.37"/>
<polygon fill="#000000" stroke="#000000" points="612.3,-282 602.95,-277 607.14,-286.74 612.3,-282"/>
<text text-anchor="middle" x="720.8" y="-484.22" font-family="monospace" font-size="10.00">owns</text>
</g>
<!-- lightning_schema&#45;&gt;lightning_schema::LightningMessage -->
<g id="edge4" class="edge">
<title>lightning_schema&#45;&gt;lightning_schema::LightningMessage</title>
<path fill="none" stroke="#7f7f7f" stroke-dasharray="5,2" d="M828.49,-678.16C761.99,-608.15 609.75,-370.97 577.98,-287.03"/>
<polygon fill="#7f7f7f" stroke="#7f7f7f" points="581.21,-285.67 574.65,-277.35 574.6,-287.94 581.21,-285.67"/>
<text text-anchor="middle" x="690.74" y="-485.59" font-family="monospace" font-size="10.00">uses</text>
</g>
<!-- lightning_schema::broadcast::Advr -->
<g id="node4" class="node">
<title>lightning_schema::broadcast::Advr</title>
<polygon fill="#81c169" stroke="black" points="774.06,-830.77 774.06,-868.77 881.06,-868.77 881.06,-830.77 774.06,-830.77"/>
<text text-anchor="middle" x="827.56" y="-856.77" font-family="monospace" font-size="10.00">pub struct</text>
<polyline fill="none" stroke="black" points="774.06,-849.77 881.06,-849.77 "/>
<text text-anchor="middle" x="827.56" y="-837.77" font-family="monospace" font-size="10.00">broadcast::Advr</text>
</g>
<!-- lightning_schema&#45;&gt;lightning_schema::broadcast::Advr -->
<g id="edge5" class="edge">
<title>lightning_schema&#45;&gt;lightning_schema::broadcast::Advr</title>
<path fill="none" stroke="#000000" d="M853.4,-716.23C848.34,-742.38 839.19,-789.69 833.25,-820.4"/>
<polygon fill="#000000" stroke="#000000" points="829.75,-820.03 831.29,-830.51 836.63,-821.36 829.75,-820.03"/>
<text text-anchor="middle" x="830.82" y="-771.32" font-family="monospace" font-size="10.00">owns</text>
</g>
<!-- lightning_schema::broadcast::Frame -->
<g id="node5" class="node">
<title>lightning_schema::broadcast::Frame</title>
<polygon fill="#81c169" stroke="black" points="914.28,-814.13 914.28,-852.13 1027.28,-852.13 1027.28,-814.13 914.28,-814.13"/>
<text text-anchor="middle" x="970.78" y="-840.13" font-family="monospace" font-size="10.00">pub enum</text>
<polyline fill="none" stroke="black" points="914.28,-833.13 1027.28,-833.13 "/>
<text text-anchor="middle" x="970.78" y="-821.13" font-family="monospace" font-size="10.00">broadcast::Frame</text>
</g>
<!-- lightning_schema&#45;&gt;lightning_schema::broadcast::Frame -->
<g id="edge6" class="edge">
<title>lightning_schema&#45;&gt;lightning_schema::broadcast::Frame</title>
<path fill="none" stroke="#000000" d="M873.13,-716.4C892.77,-739.88 926.13,-779.76 948.31,-806.28"/>
<polygon fill="#000000" stroke="#000000" points="945.71,-808.62 954.81,-814.05 951.08,-804.13 945.71,-808.62"/>
<text text-anchor="middle" x="898.22" y="-764.34" font-family="monospace" font-size="10.00">owns</text>
</g>
<!-- lightning_schema::broadcast::Message -->
<g id="node6" class="node">
<title>lightning_schema::broadcast::Message</title>
<polygon fill="#81c169" stroke="black" points="536.54,-731.29 536.54,-769.29 661.54,-769.29 661.54,-731.29 536.54,-731.29"/>
<text text-anchor="middle" x="599.04" y="-757.29" font-family="monospace" font-size="10.00">pub struct</text>
<polyline fill="none" stroke="black" points="536.54,-750.29 661.54,-750.29 "/>
<text text-anchor="middle" x="599.04" y="-738.29" font-family="monospace" font-size="10.00">broadcast::Message</text>
</g>
<!-- lightning_schema&#45;&gt;lightning_schema::broadcast::Message -->
<g id="edge7" class="edge">
<title>lightning_schema&#45;&gt;lightning_schema::broadcast::Message</title>
<path fill="none" stroke="#000000" d="M800.45,-708.86C762.63,-716.65 712.52,-726.95 671.75,-735.34"/>
<polygon fill="#000000" stroke="#000000" points="670.96,-731.93 661.87,-737.37 672.37,-738.78 670.96,-731.93"/>
<text text-anchor="middle" x="723.6" y="-725.1" font-family="monospace" font-size="10.00">owns</text>
</g>
<!-- lightning_schema::broadcast::MessageInternedId -->
<g id="node8" class="node">
<title>lightning_schema::broadcast::MessageInternedId</title>
<polygon fill="#81c169" stroke="black" points="776.96,-254.02 776.96,-292.02 961.96,-292.02 961.96,-254.02 776.96,-254.02"/>
<text text-anchor="middle" x="869.46" y="-280.02" font-family="monospace" font-size="10.00">pub type</text>
<polyline fill="none" stroke="black" points="776.96,-273.02 961.96,-273.02 "/>
<text text-anchor="middle" x="869.46" y="-261.02" font-family="monospace" font-size="10.00">broadcast::MessageInternedId</text>
</g>
<!-- lightning_schema&#45;&gt;lightning_schema::broadcast::MessageInternedId -->
<g id="edge8" class="edge">
<title>lightning_schema&#45;&gt;lightning_schema::broadcast::MessageInternedId</title>
<path fill="none" stroke="#000000" d="M857.64,-678.17C859.6,-610.9 866.21,-384.18 868.59,-302.59"/>
<polygon fill="#000000" stroke="#000000" points="872.09,-302.6 868.89,-292.5 865.1,-302.4 872.09,-302.6"/>
<text text-anchor="middle" x="850.62" y="-493.38" font-family="monospace" font-size="10.00">owns</text>
</g>
<!-- lightning_schema::broadcast::ResolvedImmutablePointerRecord -->
<g id="node9" class="node">
<title>lightning_schema::broadcast::ResolvedImmutablePointerRecord</title>
<polygon fill="#81c169" stroke="black" points="940.2,-206.26 940.2,-244.26 1203.2,-244.26 1203.2,-206.26 940.2,-206.26"/>
<text text-anchor="middle" x="1071.7" y="-232.26" font-family="monospace" font-size="10.00">pub struct</text>
<polyline fill="none" stroke="black" points="940.2,-225.26 1203.2,-225.26 "/>
<text text-anchor="middle" x="1071.7" y="-213.26" font-family="monospace" font-size="10.00">broadcast::ResolvedImmutablePointerRecord</text>
</g>
<!-- lightning_schema&#45;&gt;lightning_schema::broadcast::ResolvedImmutablePointerRecord -->
<g id="edge9" class="edge">
<title>lightning_schema&#45;&gt;lightning_schema::broadcast::ResolvedImmutablePointerRecord</title>
<path fill="none" stroke="#000000" d="M865.76,-678.13C899.1,-604.82 1019.05,-341.04 1058.8,-253.62"/>
<polygon fill="#000000" stroke="#000000" points="1062.08,-254.87 1063.03,-244.32 1055.71,-251.98 1062.08,-254.87"/>
<text text-anchor="middle" x="949.78" y="-468.88" font-family="monospace" font-size="10.00">owns</text>
</g>
<!-- lightning_schema::broadcast::Want -->
<g id="node11" class="node">
<title>lightning_schema::broadcast::Want</title>
<polygon fill="#81c169" stroke="black" points="968.32,-444.2 968.32,-482.2 1075.32,-482.2 1075.32,-444.2 968.32,-444.2"/>
<text text-anchor="middle" x="1021.82" y="-470.2" font-family="monospace" font-size="10.00">pub struct</text>
<polyline fill="none" stroke="black" points="968.32,-463.2 1075.32,-463.2 "/>
<text text-anchor="middle" x="1021.82" y="-451.2" font-family="monospace" font-size="10.00">broadcast::Want</text>
</g>
<!-- lightning_schema&#45;&gt;lightning_schema::broadcast::Want -->
<g id="edge10" class="edge">
<title>lightning_schema&#45;&gt;lightning_schema::broadcast::Want</title>
<path fill="none" stroke="#000000" d="M870.56,-678.07C899.72,-636.65 968.71,-538.64 1002.5,-490.64"/>
<polygon fill="#000000" stroke="#000000" points="1005.49,-492.48 1008.38,-482.29 999.76,-488.45 1005.49,-492.48"/>
<text text-anchor="middle" x="924.03" y="-587.35" font-family="monospace" font-size="10.00">owns</text>
</g>
<!-- lightning_schema::envelope::Envelope -->
<g id="node12" class="node">
<title>lightning_schema::envelope::Envelope</title>
<polygon fill="#81c169" stroke="black" points="781.63,-1088.94 781.63,-1126.94 906.63,-1126.94 906.63,-1088.94 781.63,-1088.94"/>
<text text-anchor="middle" x="844.13" y="-1114.94" font-family="monospace" font-size="10.00">pub struct</text>
<polyline fill="none" stroke="black" points="781.63,-1107.94 906.63,-1107.94 "/>
<text text-anchor="middle" x="844.13" y="-1095.94" font-family="monospace" font-size="10.00">envelope::Envelope</text>
</g>
<!-- lightning_schema&#45;&gt;lightning_schema::envelope::Envelope -->
<g id="edge11" class="edge">
<title>lightning_schema&#45;&gt;lightning_schema::envelope::Envelope</title>
<path fill="none" stroke="#000000" d="M856.48,-716.48C854.4,-782.37 847.56,-999.08 845.06,-1078.46"/>
<polygon fill="#000000" stroke="#000000" points="841.55,-1078.62 844.74,-1088.72 848.55,-1078.84 841.55,-1078.62"/>
<text text-anchor="middle" x="838.27" y="-900.47" font-family="monospace" font-size="10.00">owns</text>
</g>
<!-- lightning_schema::handshake::ChallengeFrame -->
<g id="node14" class="node">
<title>lightning_schema::handshake::ChallengeFrame</title>
<polygon fill="#81c169" stroke="black" points="1404.32,-745.43 1404.32,-783.43 1571.32,-783.43 1571.32,-745.43 1404.32,-745.43"/>
<text text-anchor="middle" x="1487.82" y="-771.43" font-family="monospace" font-size="10.00">pub struct</text>
<polyline fill="none" stroke="black" points="1404.32,-764.43 1571.32,-764.43 "/>
<text text-anchor="middle" x="1487.82" y="-752.43" font-family="monospace" font-size="10.00">handshake::ChallengeFrame</text>
</g>
<!-- lightning_schema&#45;&gt;lightning_schema::handshake::ChallengeFrame -->
<g id="edge12" class="edge">
<title>lightning_schema&#45;&gt;lightning_schema::handshake::ChallengeFrame</title>
<path fill="none" stroke="#000000" d="M913.61,-703.24C1022.28,-714.82 1261.31,-740.29 1394.15,-754.45"/>
<polygon fill="#000000" stroke="#000000" points="1394,-757.95 1404.31,-755.53 1394.74,-750.99 1394,-757.95"/>
<text text-anchor="middle" x="1141.38" y="-731.84" font-family="monospace" font-size="10.00">owns</text>
</g>
<!-- lightning_schema::handshake::HandshakeRequestFrame -->
<g id="node17" class="node">
<title>lightning_schema::handshake::HandshakeRequestFrame</title>
<polygon fill="#81c169" stroke="black" points="474.05,-975.58 474.05,-1013.58 683.05,-1013.58 683.05,-975.58 474.05,-975.58"/>
<text text-anchor="middle" x="578.55" y="-1001.58" font-family="monospace" font-size="10.00">pub enum</text>
<polyline fill="none" stroke="black" points="474.05,-994.58 683.05,-994.58 "/>
<text text-anchor="middle" x="578.55" y="-982.58" font-family="monospace" font-size="10.00">handshake::HandshakeRequestFrame</text>
</g>
<!-- lightning_schema&#45;&gt;lightning_schema::handshake::HandshakeRequestFrame -->
<g id="edge13" class="edge">
<title>lightning_schema&#45;&gt;lightning_schema::handshake::HandshakeRequestFrame</title>
<path fill="none" stroke="#000000" d="M839.24,-716.27C791.2,-767.55 659.09,-908.6 603.61,-967.83"/>
<polygon fill="#000000" stroke="#000000" points="600.89,-965.61 596.61,-975.3 606,-970.39 600.89,-965.61"/>
<text text-anchor="middle" x="708.92" y="-845.05" font-family="monospace" font-size="10.00">owns</text>
</g>
<!-- lightning_schema::handshake::HandshakeResponse -->
<g id="node20" class="node">
<title>lightning_schema::handshake::HandshakeResponse</title>
<polygon fill="#81c169" stroke="black" points="355.57,-490.36 355.57,-528.36 540.57,-528.36 540.57,-490.36 355.57,-490.36"/>
<text text-anchor="middle" x="448.07" y="-516.36" font-family="monospace" font-size="10.00">pub struct</text>
<polyline fill="none" stroke="black" points="355.57,-509.36 540.57,-509.36 "/>
<text text-anchor="middle" x="448.07" y="-497.36" font-family="monospace" font-size="10.00">handshake::HandshakeResponse</text>
</g>
<!-- lightning_schema&#45;&gt;lightning_schema::handshake::HandshakeResponse -->
<g id="edge14" class="edge">
<title>lightning_schema&#45;&gt;lightning_schema::handshake::HandshakeResponse</title>
<path fill="none" stroke="#000000" d="M815.61,-678.17C740.13,-643.5 580.55,-570.2 498.75,-532.63"/>
<polygon fill="#000000" stroke="#000000" points="500.2,-529.45 489.65,-528.45 497.28,-535.81 500.2,-529.45"/>
<text text-anchor="middle" x="644.68" y="-608.4" font-family="monospace" font-size="10.00">owns</text>
</g>
<!-- lightning_schema::handshake::RequestFrame -->
<g id="node23" class="node">
<title>lightning_schema::handshake::RequestFrame</title>
<polygon fill="#81c169" stroke="black" points="1035.84,-1156.37 1035.84,-1194.37 1190.84,-1194.37 1190.84,-1156.37 1035.84,-1156.37"/>
<text text-anchor="middle" x="1113.34" y="-1182.37" font-family="monospace" font-size="10.00">pub enum</text>
<polyline fill="none" stroke="black" points="1035.84,-1175.37 1190.84,-1175.37 "/>
<text text-anchor="middle" x="1113.34" y="-1163.37" font-family="monospace" font-size="10.00">handshake::RequestFrame</text>
</g>
<!-- lightning_schema&#45;&gt;lightning_schema::handshake::RequestFrame -->
<g id="edge15" class="edge">
<title>lightning_schema&#45;&gt;lightning_schema::handshake::RequestFrame</title>
<path fill="none" stroke="#000000" d="M867.29,-716.26C906.98,-790.33 1051.26,-1059.52 1098.35,-1147.41"/>
<polygon fill="#000000" stroke="#000000" points="1095.3,-1149.11 1103.11,-1156.27 1101.47,-1145.8 1095.3,-1149.11"/>
<text text-anchor="middle" x="970.32" y="-934.83" font-family="monospace" font-size="10.00">owns</text>
</g>
<!-- lightning_schema::handshake::ResponseFrame -->
<g id="node26" class="node">
<title>lightning_schema::handshake::ResponseFrame</title>
<polygon fill="#81c169" stroke="black" points="1059.98,-629.81 1059.98,-667.81 1220.98,-667.81 1220.98,-629.81 1059.98,-629.81"/>
<text text-anchor="middle" x="1140.48" y="-655.81" font-family="monospace" font-size="10.00">pub enum</text>
<polyline fill="none" stroke="black" points="1059.98,-648.81 1220.98,-648.81 "/>
<text text-anchor="middle" x="1140.48" y="-636.81" font-family="monospace" font-size="10.00">handshake::ResponseFrame</text>
</g>
<!-- lightning_schema&#45;&gt;lightning_schema::handshake::ResponseFrame -->
<g id="edge16" class="edge">
<title>lightning_schema&#45;&gt;lightning_schema::handshake::ResponseFrame</title>
<path fill="none" stroke="#000000" d="M913.75,-687.54C952.65,-680.89 1005.11,-671.93 1049.77,-664.3"/>
<polygon fill="#000000" stroke="#000000" points="1050.49,-667.73 1059.76,-662.6 1049.31,-660.83 1050.49,-667.73"/>
<text text-anchor="middle" x="969.26" y="-678.92" font-family="monospace" font-size="10.00">owns</text>
</g>
<!-- lightning_schema::handshake::TerminationReason -->
<g id="node29" class="node">
<title>lightning_schema::handshake::TerminationReason</title>
<polygon fill="#81c169" stroke="black" points="1229,-612.04 1229,-650.04 1414,-650.04 1414,-612.04 1229,-612.04"/>
<text text-anchor="middle" x="1321.5" y="-638.04" font-family="monospace" font-size="10.00">pub enum</text>
<polyline fill="none" stroke="black" points="1229,-631.04 1414,-631.04 "/>
<text text-anchor="middle" x="1321.5" y="-619.04" font-family="monospace" font-size="10.00">handshake::TerminationReason</text>
</g>
<!-- lightning_schema&#45;&gt;lightning_schema::handshake::TerminationReason -->
<g id="edge17" class="edge">
<title>lightning_schema&#45;&gt;lightning_schema::handshake::TerminationReason</title>
<path fill="none" stroke="#000000" d="M914.03,-689.1C989.75,-678.31 1124.91,-659.06 1218.69,-645.69"/>
<polygon fill="#000000" stroke="#000000" points="1219.37,-649.13 1228.78,-644.26 1218.38,-642.2 1219.37,-649.13"/>
<text text-anchor="middle" x="1053.86" y="-670.4" font-family="monospace" font-size="10.00">owns</text>
</g>
<!-- lightning_schema::broadcast::Frame&#45;&gt;lightning_schema::broadcast::Advr -->
<g id="edge18" class="edge">
<title>lightning_schema::broadcast::Frame&#45;&gt;lightning_schema::broadcast::Advr</title>
<path fill="none" stroke="#7f7f7f" stroke-dasharray="5,2" d="M914.18,-839.71C906.76,-840.57 899.12,-841.46 891.59,-842.33"/>
<polygon fill="#7f7f7f" stroke="#7f7f7f" points="890.95,-838.88 881.42,-843.51 891.76,-845.83 890.95,-838.88"/>
<text text-anchor="middle" x="896.63" y="-833.02" font-family="monospace" font-size="10.00">uses</text>
</g>
<!-- lightning_schema::broadcast::Frame&#45;&gt;lightning_schema::broadcast::Message -->
<g id="edge19" class="edge">
<title>lightning_schema::broadcast::Frame&#45;&gt;lightning_schema::broadcast::Message</title>
<path fill="none" stroke="#7f7f7f" stroke-dasharray="5,2" d="M913.92,-820.46C849.07,-806.01 742.89,-782.35 672,-766.55"/>
<polygon fill="#7f7f7f" stroke="#7f7f7f" points="672.32,-763.04 661.8,-764.28 670.8,-769.87 672.32,-763.04"/>
<text text-anchor="middle" x="780.46" y="-796.51" font-family="monospace" font-size="10.00">uses</text>
</g>
<!-- lightning_schema::broadcast::Frame&#45;&gt;lightning_schema::broadcast::Want -->
<g id="edge20" class="edge">
<title>lightning_schema::broadcast::Frame&#45;&gt;lightning_schema::broadcast::Want</title>
<path fill="none" stroke="#7f7f7f" stroke-dasharray="5,2" d="M973.42,-814.02C981.76,-753.51 1007.66,-565.8 1017.74,-492.73"/>
<polygon fill="#7f7f7f" stroke="#7f7f7f" points="1021.27,-492.8 1019.17,-482.42 1014.33,-491.84 1021.27,-492.8"/>
<text text-anchor="middle" x="983.08" y="-656.38" font-family="monospace" font-size="10.00">uses</text>
</g>
<!-- lightning_schema::broadcast::Message::transcript -->
<g id="node7" class="node">
<title>lightning_schema::broadcast::Message::transcript</title>
<polygon fill="#db5367" stroke="black" points="0.41,-548.21 0.41,-586.21 197.41,-586.21 197.41,-548.21 0.41,-548.21"/>
<text text-anchor="middle" x="98.91" y="-574.21" font-family="monospace" font-size="10.00">pub(self) fn</text>
<polyline fill="none" stroke="black" points="0.41,-567.21 197.41,-567.21 "/>
<text text-anchor="middle" x="98.91" y="-555.21" font-family="monospace" font-size="10.00">broadcast::Message::transcript</text>
</g>
<!-- lightning_schema::broadcast::Message&#45;&gt;lightning_schema::broadcast::Message::transcript -->
<g id="edge21" class="edge">
<title>lightning_schema::broadcast::Message&#45;&gt;lightning_schema::broadcast::Message::transcript</title>
<path fill="none" stroke="#000000" d="M581.32,-731.14C522.26,-692.73 330.72,-618.97 207.43,-583.33"/>
<polygon fill="#000000" stroke="#000000" points="208.14,-579.89 197.57,-580.52 206.22,-586.63 208.14,-579.89"/>
<text text-anchor="middle" x="381.87" y="-660.24" font-family="monospace" font-size="10.00">owns</text>
</g>
<!-- lightning_schema::broadcast::Message::transcript&#45;&gt;lightning_schema::broadcast::Message -->
<g id="edge22" class="edge">
<title>lightning_schema::broadcast::Message::transcript&#45;&gt;lightning_schema::broadcast::Message</title>
<path fill="none" stroke="#7f7f7f" stroke-dasharray="5,2" d="M116.63,-586.37C181.81,-628.75 408.31,-714.19 526.39,-743.94"/>
<polygon fill="#7f7f7f" stroke="#7f7f7f" points="525.89,-747.42 536.44,-746.4 527.55,-740.62 525.89,-747.42"/>
<text text-anchor="middle" x="309.01" y="-668.15" font-family="monospace" font-size="10.00">uses</text>
</g>
<!-- lightning_schema::broadcast::ResolvedImmutablePointerRecord::transcript -->
<g id="node10" class="node">
<title>lightning_schema::broadcast::ResolvedImmutablePointerRecord::transcript</title>
<polygon fill="#db5367" stroke="black" points="970.73,-0.95 970.73,-38.95 1305.73,-38.95 1305.73,-0.95 970.73,-0.95"/>
<text text-anchor="middle" x="1138.23" y="-26.95" font-family="monospace" font-size="10.00">pub(self) fn</text>
<polyline fill="none" stroke="black" points="970.73,-19.95 1305.73,-19.95 "/>
<text text-anchor="middle" x="1138.23" y="-7.95" font-family="monospace" font-size="10.00">broadcast::ResolvedImmutablePointerRecord::transcript</text>
</g>
<!-- lightning_schema::broadcast::ResolvedImmutablePointerRecord&#45;&gt;lightning_schema::broadcast::ResolvedImmutablePointerRecord::transcript -->
<g id="edge23" class="edge">
<title>lightning_schema::broadcast::ResolvedImmutablePointerRecord&#45;&gt;lightning_schema::broadcast::ResolvedImmutablePointerRecord::transcript</title>
<path fill="none" stroke="#000000" d="M1097.17,-206.15C1121.16,-169.92 1146.26,-92.13 1147.69,-49.3"/>
<polygon fill="#000000" stroke="#000000" points="1151.19,-49.15 1147.53,-39.21 1144.19,-49.26 1151.19,-49.15"/>
<text text-anchor="middle" x="1109.93" y="-130.72" font-family="monospace" font-size="10.00">owns</text>
</g>
<!-- lightning_schema::broadcast::ResolvedImmutablePointerRecord::transcript&#45;&gt;lightning_schema::broadcast::ResolvedImmutablePointerRecord -->
<g id="edge24" class="edge">
<title>lightning_schema::broadcast::ResolvedImmutablePointerRecord::transcript&#45;&gt;lightning_schema::broadcast::ResolvedImmutablePointerRecord</title>
<path fill="none" stroke="#7f7f7f" stroke-dasharray="5,2" d="M1112.76,-39.06C1088.78,-75.29 1063.68,-153.07 1062.24,-195.91"/>
<polygon fill="#7f7f7f" stroke="#7f7f7f" points="1058.74,-196.06 1062.4,-206 1065.74,-195.95 1058.74,-196.06"/>
<text text-anchor="middle" x="1075" y="-120.48" font-family="monospace" font-size="10.00">uses</text>
</g>
<!-- lightning_schema::envelope::Envelope::new -->
<g id="node13" class="node">
<title>lightning_schema::envelope::Envelope::new</title>
<polygon fill="#81c169" stroke="black" points="723.83,-1431.59 723.83,-1469.59 878.83,-1469.59 878.83,-1431.59 723.83,-1431.59"/>
<text text-anchor="middle" x="801.33" y="-1457.59" font-family="monospace" font-size="10.00">pub fn</text>
<polyline fill="none" stroke="black" points="723.83,-1450.59 878.83,-1450.59 "/>
<text text-anchor="middle" x="801.33" y="-1438.59" font-family="monospace" font-size="10.00">envelope::Envelope::new</text>
</g>
<!-- lightning_schema::envelope::Envelope&#45;&gt;lightning_schema::envelope::Envelope::new -->
<g id="edge25" class="edge">
<title>lightning_schema::envelope::Envelope&#45;&gt;lightning_schema::envelope::Envelope::new</title>
<path fill="none" stroke="#000000" d="M827.82,-1127.15C803.55,-1184.21 781.93,-1352.71 789.36,-1421.19"/>
<polygon fill="#000000" stroke="#000000" points="785.93,-1421.89 790.81,-1431.3 792.86,-1420.9 785.93,-1421.89"/>
<text text-anchor="middle" x="796.09" y="-1277.17" font-family="monospace" font-size="10.00">owns</text>
</g>
<!-- lightning_schema::envelope::Envelope::new&#45;&gt;lightning_schema::envelope::Envelope -->
<g id="edge26" class="edge">
<title>lightning_schema::envelope::Envelope::new&#45;&gt;lightning_schema::envelope::Envelope</title>
<path fill="none" stroke="#7f7f7f" stroke-dasharray="5,2" d="M817.63,-1431.39C841.9,-1374.33 863.53,-1205.83 856.09,-1137.34"/>
<polygon fill="#7f7f7f" stroke="#7f7f7f" points="859.53,-1136.64 854.64,-1127.24 852.6,-1137.64 859.53,-1136.64"/>
<text text-anchor="middle" x="824.36" y="-1287.36" font-family="monospace" font-size="10.00">uses</text>
</g>
<!-- lightning_schema::handshake::ChallengeFrame::decode -->
<g id="node15" class="node">
<title>lightning_schema::handshake::ChallengeFrame::decode</title>
<polygon fill="#81c169" stroke="black" points="1557.97,-1016.44 1557.97,-1054.44 1772.97,-1054.44 1772.97,-1016.44 1557.97,-1016.44"/>
<text text-anchor="middle" x="1665.47" y="-1042.44" font-family="monospace" font-size="10.00">pub fn</text>
<polyline fill="none" stroke="black" points="1557.97,-1035.44 1772.97,-1035.44 "/>
<text text-anchor="middle" x="1665.47" y="-1023.44" font-family="monospace" font-size="10.00">handshake::ChallengeFrame::decode</text>
</g>
<!-- lightning_schema::handshake::ChallengeFrame&#45;&gt;lightning_schema::handshake::ChallengeFrame::decode -->
<g id="edge27" class="edge">
<title>lightning_schema::handshake::ChallengeFrame&#45;&gt;lightning_schema::handshake::ChallengeFrame::decode</title>
<path fill="none" stroke="#000000" d="M1485.88,-783.87C1497.46,-832.43 1574.52,-954.21 1625.14,-1009"/>
<polygon fill="#000000" stroke="#000000" points="1622.65,-1011.47 1632.09,-1016.27 1627.71,-1006.63 1622.65,-1011.47"/>
<text text-anchor="middle" x="1543.01" y="-899.44" font-family="monospace" font-size="10.00">owns</text>
</g>
<!-- lightning_schema::handshake::ChallengeFrame::encode -->
<g id="node16" class="node">
<title>lightning_schema::handshake::ChallengeFrame::encode</title>
<polygon fill="#81c169" stroke="black" points="1760.55,-681.36 1760.55,-719.36 1975.55,-719.36 1975.55,-681.36 1760.55,-681.36"/>
<text text-anchor="middle" x="1868.05" y="-707.36" font-family="monospace" font-size="10.00">pub fn</text>
<polyline fill="none" stroke="black" points="1760.55,-700.36 1975.55,-700.36 "/>
<text text-anchor="middle" x="1868.05" y="-688.36" font-family="monospace" font-size="10.00">handshake::ChallengeFrame::encode</text>
</g>
<!-- lightning_schema::handshake::ChallengeFrame&#45;&gt;lightning_schema::handshake::ChallengeFrame::encode -->
<g id="edge28" class="edge">
<title>lightning_schema::handshake::ChallengeFrame&#45;&gt;lightning_schema::handshake::ChallengeFrame::encode</title>
<path fill="none" stroke="#000000" d="M1571.73,-773.11C1653.92,-766.87 1775.07,-744.55 1833.75,-723.21"/>
<polygon fill="#000000" stroke="#000000" points="1835.23,-726.4 1843.29,-719.52 1832.7,-719.87 1835.23,-726.4"/>
<text text-anchor="middle" x="1690.24" y="-751.16" font-family="monospace" font-size="10.00">owns</text>
</g>
<!-- lightning_schema::handshake::ChallengeFrame::decode&#45;&gt;lightning_schema::handshake::ChallengeFrame -->
<g id="edge29" class="edge">
<title>lightning_schema::handshake::ChallengeFrame::decode&#45;&gt;lightning_schema::handshake::ChallengeFrame</title>
<path fill="none" stroke="#7f7f7f" stroke-dasharray="5,2" d="M1667.42,-1016C1655.83,-967.43 1578.78,-845.65 1528.16,-790.86"/>
<polygon fill="#7f7f7f" stroke="#7f7f7f" points="1530.64,-788.4 1521.2,-783.59 1525.59,-793.24 1530.64,-788.4"/>
<text text-anchor="middle" x="1585.29" y="-906.43" font-family="monospace" font-size="10.00">uses</text>
</g>
<!-- lightning_schema::handshake::ChallengeFrame::encode&#45;&gt;lightning_schema::handshake::ChallengeFrame -->
<g id="edge30" class="edge">
<title>lightning_schema::handshake::ChallengeFrame::encode&#45;&gt;lightning_schema::handshake::ChallengeFrame</title>
<path fill="none" stroke="#7f7f7f" stroke-dasharray="5,2" d="M1760.36,-693.82C1679.95,-702.06 1575.18,-722.26 1521.98,-741.63"/>
<polygon fill="#7f7f7f" stroke="#7f7f7f" points="1520.42,-738.48 1512.36,-745.36 1522.95,-745.01 1520.42,-738.48"/>
<text text-anchor="middle" x="1628.67" y="-720.72" font-family="monospace" font-size="10.00">uses</text>
</g>
<!-- lightning_schema::handshake::HandshakeRequestFrame::decode -->
<g id="node18" class="node">
<title>lightning_schema::handshake::HandshakeRequestFrame::decode</title>
<polygon fill="#81c169" stroke="black" points="320.98,-1309.83 320.98,-1347.83 577.98,-1347.83 577.98,-1309.83 320.98,-1309.83"/>
<text text-anchor="middle" x="449.48" y="-1335.83" font-family="monospace" font-size="10.00">pub fn</text>
<polyline fill="none" stroke="black" points="320.98,-1328.83 577.98,-1328.83 "/>
<text text-anchor="middle" x="449.48" y="-1316.83" font-family="monospace" font-size="10.00">handshake::HandshakeRequestFrame::decode</text>
</g>
<!-- lightning_schema::handshake::HandshakeRequestFrame&#45;&gt;lightning_schema::handshake::HandshakeRequestFrame::decode -->
<g id="edge31" class="edge">
<title>lightning_schema::handshake::HandshakeRequestFrame&#45;&gt;lightning_schema::handshake::HandshakeRequestFrame::decode</title>
<path fill="none" stroke="#000000" d="M555.11,-1013.77C516.16,-1069.95 453.6,-1232.07 444.95,-1299.37"/>
<polygon fill="#000000" stroke="#000000" points="441.43,-1299.42 444.02,-1309.7 448.41,-1300.05 441.43,-1299.42"/>
<text text-anchor="middle" x="487.53" y="-1159.57" font-family="monospace" font-size="10.00">owns</text>
</g>
<!-- lightning_schema::handshake::HandshakeRequestFrame::encode -->
<g id="node19" class="node">
<title>lightning_schema::handshake::HandshakeRequestFrame::encode</title>
<polygon fill="#81c169" stroke="black" points="82.39,-1109.29 82.39,-1147.29 339.39,-1147.29 339.39,-1109.29 82.39,-1109.29"/>
<text text-anchor="middle" x="210.89" y="-1135.29" font-family="monospace" font-size="10.00">pub fn</text>
<polyline fill="none" stroke="black" points="82.39,-1128.29 339.39,-1128.29 "/>
<text text-anchor="middle" x="210.89" y="-1116.29" font-family="monospace" font-size="10.00">handshake::HandshakeRequestFrame::encode</text>
</g>
<!-- lightning_schema::handshake::HandshakeRequestFrame&#45;&gt;lightning_schema::handshake::HandshakeRequestFrame::encode -->
<g id="edge32" class="edge">
<title>lightning_schema::handshake::HandshakeRequestFrame&#45;&gt;lightning_schema::handshake::HandshakeRequestFrame::encode</title>
<path fill="none" stroke="#000000" d="M473.72,-1007.07C390.78,-1031.03 281.46,-1073.91 234.12,-1103.59"/>
<polygon fill="#000000" stroke="#000000" points="232.14,-1100.69 225.76,-1109.15 236.02,-1106.52 232.14,-1100.69"/>
<text text-anchor="middle" x="341.42" y="-1058.33" font-family="monospace" font-size="10.00">owns</text>
</g>
<!-- lightning_schema::handshake::HandshakeRequestFrame::decode&#45;&gt;lightning_schema::handshake::HandshakeRequestFrame -->
<g id="edge33" class="edge">
<title>lightning_schema::handshake::HandshakeRequestFrame::decode&#45;&gt;lightning_schema::handshake::HandshakeRequestFrame</title>
<path fill="none" stroke="#7f7f7f" stroke-dasharray="5,2" d="M472.92,-1309.64C511.87,-1253.46 574.44,-1091.34 583.08,-1024.04"/>
<polygon fill="#7f7f7f" stroke="#7f7f7f" points="586.6,-1023.98 584.01,-1013.71 579.62,-1023.36 586.6,-1023.98"/>
<text text-anchor="middle" x="515.5" y="-1169.84" font-family="monospace" font-size="10.00">uses</text>
</g>
<!-- lightning_schema::handshake::HandshakeRequestFrame::encode&#45;&gt;lightning_schema::handshake::HandshakeRequestFrame -->
<g id="edge34" class="edge">
<title>lightning_schema::handshake::HandshakeRequestFrame::encode&#45;&gt;lightning_schema::handshake::HandshakeRequestFrame</title>
<path fill="none" stroke="#7f7f7f" stroke-dasharray="5,2" d="M337.68,-1109.21C417.05,-1084.55 512.11,-1046.39 555.36,-1019.27"/>
<polygon fill="#7f7f7f" stroke="#7f7f7f" points="557.4,-1022.12 563.78,-1013.66 553.52,-1016.29 557.4,-1022.12"/>
<text text-anchor="middle" x="434.02" y="-1067.24" font-family="monospace" font-size="10.00">uses</text>
</g>
<!-- lightning_schema::handshake::HandshakeResponse::decode -->
<g id="node21" class="node">
<title>lightning_schema::handshake::HandshakeResponse::decode</title>
<polygon fill="#81c169" stroke="black" points="183.44,-271.85 183.44,-309.85 416.44,-309.85 416.44,-271.85 183.44,-271.85"/>
<text text-anchor="middle" x="299.94" y="-297.85" font-family="monospace" font-size="10.00">pub fn</text>
<polyline fill="none" stroke="black" points="183.44,-290.85 416.44,-290.85 "/>
<text text-anchor="middle" x="299.94" y="-278.85" font-family="monospace" font-size="10.00">handshake::HandshakeResponse::decode</text>
</g>
<!-- lightning_schema::handshake::HandshakeResponse&#45;&gt;lightning_schema::handshake::HandshakeResponse::decode -->
<g id="edge35" class="edge">
<title>lightning_schema::handshake::HandshakeResponse&#45;&gt;lightning_schema::handshake::HandshakeResponse::decode</title>
<path fill="none" stroke="#000000" d="M450.91,-490.28C442.4,-450.44 386.16,-362.65 343.6,-317.53"/>
<polygon fill="#000000" stroke="#000000" points="345.86,-314.84 336.36,-310.14 340.86,-319.74 345.86,-314.84"/>
<text text-anchor="middle" x="384.75" y="-406.91" font-family="monospace" font-size="10.00">owns</text>
</g>
<!-- lightning_schema::handshake::HandshakeResponse::encode -->
<g id="node22" class="node">
<title>lightning_schema::handshake::HandshakeResponse::encode</title>
<polygon fill="#81c169" stroke="black" points="90.76,-801.79 90.76,-839.79 323.76,-839.79 323.76,-801.79 90.76,-801.79"/>
<text text-anchor="middle" x="207.26" y="-827.79" font-family="monospace" font-size="10.00">pub fn</text>
<polyline fill="none" stroke="black" points="90.76,-820.79 323.76,-820.79 "/>
<text text-anchor="middle" x="207.26" y="-808.79" font-family="monospace" font-size="10.00">handshake::HandshakeResponse::encode</text>
</g>
<!-- lightning_schema::handshake::HandshakeResponse&#45;&gt;lightning_schema::handshake::HandshakeResponse::encode -->
<g id="edge36" class="edge">
<title>lightning_schema::handshake::HandshakeResponse&#45;&gt;lightning_schema::handshake::HandshakeResponse::encode</title>
<path fill="none" stroke="#000000" d="M412.3,-528.51C352.12,-582.34 239.72,-729.08 211.49,-792.34"/>
<polygon fill="#000000" stroke="#000000" points="208.19,-791.17 207.7,-801.75 214.68,-793.78 208.19,-791.17"/>
<text text-anchor="middle" x="299.39" y="-652.43" font-family="monospace" font-size="10.00">owns</text>
</g>
<!-- lightning_schema::handshake::HandshakeResponse::decode&#45;&gt;lightning_schema::handshake::HandshakeResponse -->
<g id="edge37" class="edge">
<title>lightning_schema::handshake::HandshakeResponse::decode&#45;&gt;lightning_schema::handshake::HandshakeResponse</title>
<path fill="none" stroke="#7f7f7f" stroke-dasharray="5,2" d="M297.1,-309.92C305.62,-349.77 361.86,-437.55 404.42,-482.68"/>
<polygon fill="#7f7f7f" stroke="#7f7f7f" points="402.16,-485.37 411.66,-490.06 407.16,-480.47 402.16,-485.37"/>
<text text-anchor="middle" x="338.26" y="-399.3" font-family="monospace" font-size="10.00">uses</text>
</g>
<!-- lightning_schema::handshake::HandshakeResponse::encode&#45;&gt;lightning_schema::handshake::HandshakeResponse -->
<g id="edge38" class="edge">
<title>lightning_schema::handshake::HandshakeResponse::encode&#45;&gt;lightning_schema::handshake::HandshakeResponse</title>
<path fill="none" stroke="#7f7f7f" stroke-dasharray="5,2" d="M243.04,-801.64C303.22,-747.81 415.62,-601.07 443.85,-537.81"/>
<polygon fill="#7f7f7f" stroke="#7f7f7f" points="447.15,-538.98 447.63,-528.4 440.65,-536.37 447.15,-538.98"/>
<text text-anchor="middle" x="355.94" y="-672.72" font-family="monospace" font-size="10.00">uses</text>
</g>
<!-- lightning_schema::handshake::RequestFrame::decode -->
<g id="node24" class="node">
<title>lightning_schema::handshake::RequestFrame::decode</title>
<polygon fill="#81c169" stroke="black" points="1275.86,-1269.53 1275.86,-1307.53 1478.86,-1307.53 1478.86,-1269.53 1275.86,-1269.53"/>
<text text-anchor="middle" x="1377.36" y="-1295.53" font-family="monospace" font-size="10.00">pub fn</text>
<polyline fill="none" stroke="black" points="1275.86,-1288.53 1478.86,-1288.53 "/>
<text text-anchor="middle" x="1377.36" y="-1276.53" font-family="monospace" font-size="10.00">handshake::RequestFrame::decode</text>
</g>
<!-- lightning_schema::handshake::RequestFrame&#45;&gt;lightning_schema::handshake::RequestFrame::decode -->
<g id="edge39" class="edge">
<title>lightning_schema::handshake::RequestFrame&#45;&gt;lightning_schema::handshake::RequestFrame::decode</title>
<path fill="none" stroke="#000000" d="M1123.69,-1194.65C1148.2,-1217.05 1209.94,-1248.1 1266.45,-1269.61"/>
<polygon fill="#000000" stroke="#000000" points="1265.23,-1272.89 1275.83,-1273.11 1267.68,-1266.34 1265.23,-1272.89"/>
<text text-anchor="middle" x="1182.57" y="-1235.13" font-family="monospace" font-size="10.00">owns</text>
</g>
<!-- lightning_schema::handshake::RequestFrame::encode -->
<g id="node25" class="node">
<title>lightning_schema::handshake::RequestFrame::encode</title>
<polygon fill="#81c169" stroke="black" points="1017.24,-1424.05 1017.24,-1462.05 1220.24,-1462.05 1220.24,-1424.05 1017.24,-1424.05"/>
<text text-anchor="middle" x="1118.74" y="-1450.05" font-family="monospace" font-size="10.00">pub fn</text>
<polyline fill="none" stroke="black" points="1017.24,-1443.05 1220.24,-1443.05 "/>
<text text-anchor="middle" x="1118.74" y="-1431.05" font-family="monospace" font-size="10.00">handshake::RequestFrame::encode</text>
</g>
<!-- lightning_schema::handshake::RequestFrame&#45;&gt;lightning_schema::handshake::RequestFrame::encode -->
<g id="edge40" class="edge">
<title>lightning_schema::handshake::RequestFrame&#45;&gt;lightning_schema::handshake::RequestFrame::encode</title>
<path fill="none" stroke="#000000" d="M1099.05,-1194.48C1084.61,-1240.74 1085.99,-1358.94 1100.48,-1414.01"/>
<polygon fill="#000000" stroke="#000000" points="1097.21,-1415.27 1103.45,-1423.83 1103.91,-1413.25 1097.21,-1415.27"/>
<text text-anchor="middle" x="1087.27" y="-1307.25" font-family="monospace" font-size="10.00">owns</text>
</g>
<!-- lightning_schema::handshake::RequestFrame::decode&#45;&gt;lightning_schema::handshake::RequestFrame -->
<g id="edge41" class="edge">
<title>lightning_schema::handshake::RequestFrame::decode&#45;&gt;lightning_schema::handshake::RequestFrame</title>
<path fill="none" stroke="#7f7f7f" stroke-dasharray="5,2" d="M1367.01,-1269.24C1339.05,-1243.69 1262.6,-1206.86 1200.78,-1185.8"/>
<polygon fill="#7f7f7f" stroke="#7f7f7f" points="1201.58,-1182.38 1190.99,-1182.56 1199.38,-1189.03 1201.58,-1182.38"/>
<text text-anchor="middle" x="1271.4" y="-1230.52" font-family="monospace" font-size="10.00">uses</text>
</g>
<!-- lightning_schema::handshake::RequestFrame::encode&#45;&gt;lightning_schema::handshake::RequestFrame -->
<g id="edge42" class="edge">
<title>lightning_schema::handshake::RequestFrame::encode&#45;&gt;lightning_schema::handshake::RequestFrame</title>
<path fill="none" stroke="#7f7f7f" stroke-dasharray="5,2" d="M1133.02,-1423.93C1147.47,-1377.67 1146.08,-1259.48 1131.59,-1204.41"/>
<polygon fill="#7f7f7f" stroke="#7f7f7f" points="1134.87,-1203.15 1128.63,-1194.59 1128.17,-1205.17 1134.87,-1203.15"/>
<text text-anchor="middle" x="1119.81" y="-1317.17" font-family="monospace" font-size="10.00">uses</text>
</g>
<!-- lightning_schema::handshake::ResponseFrame::decode -->
<g id="node27" class="node">
<title>lightning_schema::handshake::ResponseFrame::decode</title>
<polygon fill="#81c169" stroke="black" points="1178.29,-359.57 1178.29,-397.57 1387.29,-397.57 1387.29,-359.57 1178.29,-359.57"/>
<text text-anchor="middle" x="1282.79" y="-385.57" font-family="monospace" font-size="10.00">pub fn</text>
<polyline fill="none" stroke="black" points="1178.29,-378.57 1387.29,-378.57 "/>
<text text-anchor="middle" x="1282.79" y="-366.57" font-family="monospace" font-size="10.00">handshake::ResponseFrame::decode</text>
</g>
<!-- lightning_schema::handshake::ResponseFrame&#45;&gt;lightning_schema::handshake::ResponseFrame::decode -->
<g id="edge43" class="edge">
<title>lightning_schema::handshake::ResponseFrame&#45;&gt;lightning_schema::handshake::ResponseFrame::decode</title>
<path fill="none" stroke="#000000" d="M1170.04,-629.37C1210.42,-582.04 1272.18,-463.69 1285.02,-407.83"/>
<polygon fill="#000000" stroke="#000000" points="1288.49,-408.32 1286.87,-397.85 1281.6,-407.04 1288.49,-408.32"/>
<text text-anchor="middle" x="1215.03" y="-521.6" font-family="monospace" font-size="10.00">owns</text>
</g>
<!-- lightning_schema::handshake::ResponseFrame::encode -->
<g id="node28" class="node">
<title>lightning_schema::handshake::ResponseFrame::encode</title>
<polygon fill="#81c169" stroke="black" points="1189.04,-869.76 1189.04,-907.76 1398.04,-907.76 1398.04,-869.76 1189.04,-869.76"/>
<text text-anchor="middle" x="1293.54" y="-895.76" font-family="monospace" font-size="10.00">pub fn</text>
<polyline fill="none" stroke="black" points="1189.04,-888.76 1398.04,-888.76 "/>
<text text-anchor="middle" x="1293.54" y="-876.76" font-family="monospace" font-size="10.00">handshake::ResponseFrame::encode</text>
</g>
<!-- lightning_schema::handshake::ResponseFrame&#45;&gt;lightning_schema::handshake::ResponseFrame::encode -->
<g id="edge44" class="edge">
<title>lightning_schema::handshake::ResponseFrame&#45;&gt;lightning_schema::handshake::ResponseFrame::encode</title>
<path fill="none" stroke="#000000" d="M1137.54,-667.89C1146.17,-711.23 1207.98,-812.81 1252.48,-862.09"/>
<polygon fill="#000000" stroke="#000000" points="1250.07,-864.63 1259.47,-869.53 1255.18,-859.84 1250.07,-864.63"/>
<text text-anchor="middle" x="1182.51" y="-767.99" font-family="monospace" font-size="10.00">owns</text>
</g>
<!-- lightning_schema::handshake::ResponseFrame&#45;&gt;lightning_schema::handshake::TerminationReason -->
<g id="edge45" class="edge">
<title>lightning_schema::handshake::ResponseFrame&#45;&gt;lightning_schema::handshake::TerminationReason</title>
<path fill="none" stroke="#7f7f7f" stroke-dasharray="5,2" d="M1221.2,-640.89C1221.36,-640.87 1221.52,-640.85 1221.68,-640.84"/>
<polygon fill="#7f7f7f" stroke="#7f7f7f" points="1219.25,-644.59 1228.86,-640.13 1218.57,-637.63 1219.25,-644.59"/>
<text text-anchor="middle" x="1233.94" y="-643.86" font-family="monospace" font-size="10.00">uses</text>
</g>
<!-- lightning_schema::handshake::ResponseFrame::decode&#45;&gt;lightning_schema::handshake::ResponseFrame -->
<g id="edge46" class="edge">
<title>lightning_schema::handshake::ResponseFrame::decode&#45;&gt;lightning_schema::handshake::ResponseFrame</title>
<path fill="none" stroke="#7f7f7f" stroke-dasharray="5,2" d="M1253.23,-398C1212.85,-445.33 1151.09,-563.68 1138.25,-619.54"/>
<polygon fill="#7f7f7f" stroke="#7f7f7f" points="1134.78,-619.05 1136.4,-629.52 1141.67,-620.33 1134.78,-619.05"/>
<text text-anchor="middle" x="1183.24" y="-511.77" font-family="monospace" font-size="10.00">uses</text>
</g>
<!-- lightning_schema::handshake::ResponseFrame::decode&#45;&gt;lightning_schema::handshake::TerminationReason -->
<g id="edge47" class="edge">
<title>lightning_schema::handshake::ResponseFrame::decode&#45;&gt;lightning_schema::handshake::TerminationReason</title>
<path fill="none" stroke="#7f7f7f" stroke-dasharray="5,2" d="M1285.76,-397.96C1292.52,-442.03 1309.07,-549.94 1317.05,-602"/>
<polygon fill="#7f7f7f" stroke="#7f7f7f" points="1313.6,-602.58 1318.57,-611.93 1320.52,-601.52 1313.6,-602.58"/>
<text text-anchor="middle" x="1288.9" y="-502.98" font-family="monospace" font-size="10.00">uses</text>
</g>
<!-- lightning_schema::handshake::ResponseFrame::encode&#45;&gt;lightning_schema::handshake::ResponseFrame -->
<g id="edge48" class="edge">
<title>lightning_schema::handshake::ResponseFrame::encode&#45;&gt;lightning_schema::handshake::ResponseFrame</title>
<path fill="none" stroke="#7f7f7f" stroke-dasharray="5,2" d="M1296.48,-869.68C1287.85,-826.34 1226.04,-724.76 1181.54,-675.48"/>
<polygon fill="#7f7f7f" stroke="#7f7f7f" points="1183.95,-672.94 1174.55,-668.04 1178.84,-677.73 1183.95,-672.94"/>
<text text-anchor="middle" x="1226.51" y="-775.58" font-family="monospace" font-size="10.00">uses</text>
</g>
<!-- lightning_schema::handshake::ResponseFrame::encode&#45;&gt;lightning_schema::handshake::TerminationReason -->
<g id="edge49" class="edge">
<title>lightning_schema::handshake::ResponseFrame::encode&#45;&gt;lightning_schema::handshake::TerminationReason</title>
<path fill="none" stroke="#7f7f7f" stroke-dasharray="5,2" d="M1295.64,-869.39C1300.5,-824.6 1312.54,-713.64 1318.31,-660.42"/>
<polygon fill="#7f7f7f" stroke="#7f7f7f" points="1321.82,-660.61 1319.41,-650.29 1314.86,-659.85 1321.82,-660.61"/>
<text text-anchor="middle" x="1294.48" y="-767.91" font-family="monospace" font-size="10.00">uses</text>
</g>
<!-- lightning_schema::handshake::TerminationReason::from_u8 -->
<g id="node30" class="node">
<title>lightning_schema::handshake::TerminationReason::from_u8</title>
<polygon fill="#81c169" stroke="black" points="1518.28,-390.98 1518.28,-428.98 1757.28,-428.98 1757.28,-390.98 1518.28,-390.98"/>
<text text-anchor="middle" x="1637.78" y="-416.98" font-family="monospace" font-size="10.00">pub fn</text>
<polyline fill="none" stroke="black" points="1518.28,-409.98 1757.28,-409.98 "/>
<text text-anchor="middle" x="1637.78" y="-397.98" font-family="monospace" font-size="10.00">handshake::TerminationReason::from_u8</text>
</g>
<!-- lightning_schema::handshake::TerminationReason&#45;&gt;lightning_schema::handshake::TerminationReason::from_u8 -->
<g id="edge50" class="edge">
<title>lightning_schema::handshake::TerminationReason&#45;&gt;lightning_schema::handshake::TerminationReason::from_u8</title>
<path fill="none" stroke="#000000" d="M1384.8,-611.89C1461.03,-571.14 1582.9,-483.5 1624.38,-437.06"/>
<polygon fill="#000000" stroke="#000000" points="1627.25,-439.09 1630.96,-429.16 1621.87,-434.61 1627.25,-439.09"/>
<text text-anchor="middle" x="1492.09" y="-527.47" font-family="monospace" font-size="10.00">owns</text>
</g>
<!-- lightning_schema::handshake::TerminationReason::from_u8&#45;&gt;lightning_schema::handshake::TerminationReason -->
<g id="edge51" class="edge">
<title>lightning_schema::handshake::TerminationReason::from_u8&#45;&gt;lightning_schema::handshake::TerminationReason</title>
<path fill="none" stroke="#7f7f7f" stroke-dasharray="5,2" d="M1574.48,-429.14C1498.25,-469.89 1376.38,-557.53 1334.9,-603.96"/>
<polygon fill="#7f7f7f" stroke="#7f7f7f" points="1332.03,-601.94 1328.32,-611.86 1337.41,-606.42 1332.03,-601.94"/>
<text text-anchor="middle" x="1442.19" y="-519.55" font-family="monospace" font-size="10.00">uses</text>
</g>
</g>
</svg>
