<?xml version="1.0" encoding="UTF-8" standalone="no"?>
<!DOCTYPE svg PUBLIC "-//W3C//DTD SVG 1.1//EN"
 "http://www.w3.org/Graphics/SVG/1.1/DTD/svg11.dtd">
<!-- Generated by graphviz version 4.0.0 (0)
 -->
<!-- Pages: 1 -->
<svg width="695pt" height="700pt"
 viewBox="0.00 0.00 694.60 699.60" xmlns="http://www.w3.org/2000/svg" xmlns:xlink="http://www.w3.org/1999/xlink">
<g id="graph0" class="graph" transform="scale(1 1) rotate(0) translate(28.8 670.8)">
<polygon fill="white" stroke="transparent" points="-28.8,28.8 -28.8,-670.8 665.8,-670.8 665.8,28.8 -28.8,28.8"/>
<text text-anchor="middle" x="318.5" y="-609.2" font-family="Helvetica,sans-Serif" font-size="36.00">lightning_service_executor</text>
<!-- fn_sdk::ipc_types -->
<g id="node1" class="node">
<title>fn_sdk::ipc_types</title>
<polygon fill="#81c169" stroke="black" points="0.06,-183.95 0.06,-221.95 119.06,-221.95 119.06,-183.95 0.06,-183.95"/>
<text text-anchor="middle" x="59.56" y="-209.95" font-family="monospace" font-size="10.00">external mod</text>
<polyline fill="none" stroke="black" points="0.06,-202.95 119.06,-202.95 "/>
<text text-anchor="middle" x="59.56" y="-190.95" font-family="monospace" font-size="10.00">fn_sdk::ipc_types</text>
</g>
<!-- lightning_service_executor -->
<g id="node2" class="node">
<title>lightning_service_executor</title>
<polygon fill="#5397c8" stroke="black" points="241.31,-271.73 241.31,-309.73 414.31,-309.73 414.31,-271.73 241.31,-271.73"/>
<text text-anchor="middle" x="327.81" y="-297.73" font-family="monospace" font-size="10.00">crate</text>
<polyline fill="none" stroke="black" points="241.31,-290.73 414.31,-290.73 "/>
<text text-anchor="middle" x="327.81" y="-278.73" font-family="monospace" font-size="10.00">lightning_service_executor</text>
</g>
<!-- lightning_service_executor::service -->
<g id="node3" class="node">
<title>lightning_service_executor::service</title>
<polygon fill="#81c169" stroke="black" points="127.08,-169.17 127.08,-207.17 354.08,-207.17 354.08,-169.17 127.08,-169.17"/>
<text text-anchor="middle" x="240.58" y="-195.17" font-family="monospace" font-size="10.00">pub mod</text>
<polyline fill="none" stroke="black" points="127.08,-188.17 354.08,-188.17 "/>
<text text-anchor="middle" x="240.58" y="-176.17" font-family="monospace" font-size="10.00">lightning_service_executor::service</text>
</g>
<!-- lightning_service_executor&#45;&gt;lightning_service_executor::service -->
<g id="edge1" class="edge">
<title>lightning_service_executor&#45;&gt;lightning_service_executor::service</title>
<path fill="none" stroke="#000000" d="M311.4,-271.44C297.88,-255.54 278.54,-232.81 263.49,-215.11"/>
<polygon fill="#000000" stroke="#000000" points="266.06,-212.73 256.91,-207.38 260.72,-217.26 266.06,-212.73"/>
<text text-anchor="middle" x="274.95" y="-246.27" font-family="monospace" font-size="10.00">owns</text>
</g>
<!-- lightning_service_executor::shim -->
<g id="node4" class="node">
<title>lightning_service_executor::shim</title>
<polygon fill="#81c169" stroke="black" points="111.56,-330.95 111.56,-368.95 320.56,-368.95 320.56,-330.95 111.56,-330.95"/>
<text text-anchor="middle" x="216.06" y="-356.95" font-family="monospace" font-size="10.00">pub mod</text>
<polyline fill="none" stroke="black" points="111.56,-349.95 320.56,-349.95 "/>
<text text-anchor="middle" x="216.06" y="-337.95" font-family="monospace" font-size="10.00">lightning_service_executor::shim</text>
</g>
<!-- lightning_service_executor&#45;&gt;lightning_service_executor::shim -->
<g id="edge2" class="edge">
<title>lightning_service_executor&#45;&gt;lightning_service_executor::shim</title>
<path fill="none" stroke="#000000" d="M291.84,-309.79C281.97,-315.02 271.15,-320.76 260.85,-326.21"/>
<polygon fill="#000000" stroke="#000000" points="259.17,-323.14 251.97,-330.92 262.44,-329.33 259.17,-323.14"/>
<text text-anchor="middle" x="263.84" y="-321" font-family="monospace" font-size="10.00">owns</text>
</g>
<!-- lightning_service_executor::test_services -->
<g id="node5" class="node">
<title>lightning_service_executor::test_services</title>
<polygon fill="#81c169" stroke="black" points="300.33,-381.85 300.33,-419.85 563.33,-419.85 563.33,-381.85 300.33,-381.85"/>
<text text-anchor="middle" x="431.83" y="-407.85" font-family="monospace" font-size="10.00">pub mod</text>
<polyline fill="none" stroke="black" points="300.33,-400.85 563.33,-400.85 "/>
<text text-anchor="middle" x="431.83" y="-388.85" font-family="monospace" font-size="10.00">lightning_service_executor::test_services</text>
</g>
<!-- lightning_service_executor&#45;&gt;lightning_service_executor::test_services -->
<g id="edge3" class="edge">
<title>lightning_service_executor&#45;&gt;lightning_service_executor::test_services</title>
<path fill="none" stroke="#000000" d="M345.93,-309.91C362.68,-327.65 387.74,-354.18 406.48,-374.01"/>
<polygon fill="#000000" stroke="#000000" points="404.16,-376.65 413.57,-381.52 409.25,-371.85 404.16,-376.65"/>
<text text-anchor="middle" x="363.71" y="-344.96" font-family="monospace" font-size="10.00">owns</text>
</g>
<!-- lightning_service_executor::service&#45;&gt;fn_sdk::ipc_types -->
<g id="edge4" class="edge">
<title>lightning_service_executor::service&#45;&gt;fn_sdk::ipc_types</title>
<path fill="none" stroke="#7f7f7f" stroke-dasharray="5,2" d="M126.96,-197.45C126.8,-197.46 126.64,-197.47 126.48,-197.49"/>
<polygon fill="#7f7f7f" stroke="#7f7f7f" points="129.06,-193.76 119.38,-198.07 129.63,-200.74 129.06,-193.76"/>
<text text-anchor="middle" x="120.47" y="-189.47" font-family="monospace" font-size="10.00">uses</text>
</g>
<!-- tokio::io -->
<g id="node7" class="node">
<title>tokio::io</title>
<polygon fill="#81c169" stroke="black" points="140.11,-0.34 140.11,-38.34 229.11,-38.34 229.11,-0.34 140.11,-0.34"/>
<text text-anchor="middle" x="184.61" y="-26.34" font-family="monospace" font-size="10.00">external mod</text>
<polyline fill="none" stroke="black" points="140.11,-19.34 229.11,-19.34 "/>
<text text-anchor="middle" x="184.61" y="-7.34" font-family="monospace" font-size="10.00">tokio::io</text>
</g>
<!-- lightning_service_executor::service&#45;&gt;tokio::io -->
<g id="edge5" class="edge">
<title>lightning_service_executor::service&#45;&gt;tokio::io</title>
<path fill="none" stroke="#7f7f7f" stroke-dasharray="5,2" d="M234.26,-169.13C224.48,-139.62 205.59,-82.64 194.14,-48.1"/>
<polygon fill="#7f7f7f" stroke="#7f7f7f" points="197.46,-46.96 190.99,-38.57 190.81,-49.16 197.46,-46.96"/>
<text text-anchor="middle" x="201.7" y="-111.62" font-family="monospace" font-size="10.00">uses</text>
</g>
<!-- tracing::instrument -->
<g id="node8" class="node">
<title>tracing::instrument</title>
<polygon fill="#81c169" stroke="black" points="295.15,-84.27 295.15,-122.27 426.15,-122.27 426.15,-84.27 295.15,-84.27"/>
<text text-anchor="middle" x="360.65" y="-110.27" font-family="monospace" font-size="10.00">external mod</text>
<polyline fill="none" stroke="black" points="295.15,-103.27 426.15,-103.27 "/>
<text text-anchor="middle" x="360.65" y="-91.27" font-family="monospace" font-size="10.00">tracing::instrument</text>
</g>
<!-- lightning_service_executor::service&#45;&gt;tracing::instrument -->
<g id="edge6" class="edge">
<title>lightning_service_executor::service&#45;&gt;tracing::instrument</title>
<path fill="none" stroke="#7f7f7f" stroke-dasharray="5,2" d="M267.52,-169.12C284.55,-157.08 306.74,-141.39 325.19,-128.34"/>
<polygon fill="#7f7f7f" stroke="#7f7f7f" points="327.23,-131.19 333.38,-122.56 323.19,-125.47 327.23,-131.19"/>
<text text-anchor="middle" x="283.86" y="-151.73" font-family="monospace" font-size="10.00">uses</text>
</g>
<!-- lightning_service_executor::shim&#45;&gt;lightning_service_executor::service -->
<g id="edge7" class="edge">
<title>lightning_service_executor::shim&#45;&gt;lightning_service_executor::service</title>
<path fill="none" stroke="#7f7f7f" stroke-dasharray="5,2" d="M218.97,-330.75C223.23,-302.66 231.19,-250.12 236.17,-217.26"/>
<polygon fill="#7f7f7f" stroke="#7f7f7f" points="239.63,-217.75 237.67,-207.34 232.71,-216.7 239.63,-217.75"/>
<text text-anchor="middle" x="215.07" y="-277.01" font-family="monospace" font-size="10.00">uses</text>
</g>
<!-- lightning_service_executor::test_services::io_stress -->
<g id="node6" class="node">
<title>lightning_service_executor::test_services::io_stress</title>
<polygon fill="#81c169" stroke="black" points="308.32,-555.36 308.32,-593.36 637.32,-593.36 637.32,-555.36 308.32,-555.36"/>
<text text-anchor="middle" x="472.82" y="-581.36" font-family="monospace" font-size="10.00">pub mod</text>
<polyline fill="none" stroke="black" points="308.32,-574.36 637.32,-574.36 "/>
<text text-anchor="middle" x="472.82" y="-562.36" font-family="monospace" font-size="10.00">lightning_service_executor::test_services::io_stress</text>
</g>
<!-- lightning_service_executor::test_services&#45;&gt;lightning_service_executor::test_services::io_stress -->
<g id="edge8" class="edge">
<title>lightning_service_executor::test_services&#45;&gt;lightning_service_executor::test_services::io_stress</title>
<path fill="none" stroke="#000000" d="M436.38,-420.08C443.57,-450.52 457.61,-509.97 466.01,-545.53"/>
<polygon fill="#000000" stroke="#000000" points="462.61,-546.38 468.32,-555.31 469.43,-544.77 462.61,-546.38"/>
<text text-anchor="middle" x="438.69" y="-485.81" font-family="monospace" font-size="10.00">owns</text>
</g>
</g>
</svg>
