<?xml version="1.0" encoding="UTF-8" standalone="no"?>
<!DOCTYPE svg PUBLIC "-//W3C//DTD SVG 1.1//EN"
 "http://www.w3.org/Graphics/SVG/1.1/DTD/svg11.dtd">
<!-- Generated by graphviz version 4.0.0 (0)
 -->
<!-- Pages: 1 -->
<svg width="550pt" height="286pt"
 viewBox="0.00 0.00 549.60 285.61" xmlns="http://www.w3.org/2000/svg" xmlns:xlink="http://www.w3.org/1999/xlink">
<g id="graph0" class="graph" transform="scale(1 1) rotate(0) translate(28.8 256.81)">
<polygon fill="white" stroke="transparent" points="-28.8,28.8 -28.8,-256.81 520.8,-256.81 520.8,28.8 -28.8,28.8"/>
<text text-anchor="middle" x="246" y="-195.21" font-family="Helvetica,sans-Serif" font-size="36.00">lightning_dack_aggregator</text>
<!-- lightning_dack_aggregator -->
<g id="node1" class="node">
<title>lightning_dack_aggregator</title>
<polygon fill="#5397c8" stroke="black" points="162.5,-94.51 162.5,-132.51 329.5,-132.51 329.5,-94.51 162.5,-94.51"/>
<text text-anchor="middle" x="246" y="-120.51" font-family="monospace" font-size="10.00">crate</text>
<polyline fill="none" stroke="black" points="162.5,-113.51 329.5,-113.51 "/>
<text text-anchor="middle" x="246" y="-101.51" font-family="monospace" font-size="10.00">lightning_dack_aggregator</text>
</g>
<!-- lightning_dack_aggregator::config -->
<g id="node2" class="node">
<title>lightning_dack_aggregator::config</title>
<polygon fill="#f8c04c" stroke="black" points="138.5,-141.51 138.5,-179.51 353.5,-179.51 353.5,-141.51 138.5,-141.51"/>
<text text-anchor="middle" x="246" y="-167.51" font-family="monospace" font-size="10.00">pub(crate) mod</text>
<polyline fill="none" stroke="black" points="138.5,-160.51 353.5,-160.51 "/>
<text text-anchor="middle" x="246" y="-148.51" font-family="monospace" font-size="10.00">lightning_dack_aggregator::config</text>
</g>
<!-- lightning_dack_aggregator&#45;&gt;lightning_dack_aggregator::config -->
<g id="edge1" class="edge">
<title>lightning_dack_aggregator&#45;&gt;lightning_dack_aggregator::config</title>
<path fill="none" stroke="#000000" d="M219.42,-132.63C219.4,-132.72 219.39,-132.81 219.37,-132.9"/>
<polygon fill="#000000" stroke="#000000" points="215.87,-131.27 219.4,-141.26 222.87,-131.25 215.87,-131.27"/>
<text text-anchor="middle" x="206.9" y="-135.76" font-family="monospace" font-size="10.00">owns</text>
</g>
<!-- lightning_dack_aggregator&#45;&gt;lightning_dack_aggregator::config -->
<g id="edge2" class="edge">
<title>lightning_dack_aggregator&#45;&gt;lightning_dack_aggregator::config</title>
<path fill="none" stroke="#7f7f7f" stroke-dasharray="5,2" d="M272.58,-132.63C272.6,-132.72 272.61,-132.81 272.63,-132.9"/>
<polygon fill="#7f7f7f" stroke="#7f7f7f" points="269.13,-131.25 272.6,-141.26 276.13,-131.27 269.13,-131.25"/>
<text text-anchor="middle" x="260.1" y="-135.76" font-family="monospace" font-size="10.00">uses</text>
</g>
<!-- lightning_dack_aggregator::dack_aggregator -->
<g id="node3" class="node">
<title>lightning_dack_aggregator::dack_aggregator</title>
<polygon fill="#f8c04c" stroke="black" points="111.5,-47.5 111.5,-85.5 380.5,-85.5 380.5,-47.5 111.5,-47.5"/>
<text text-anchor="middle" x="246" y="-73.5" font-family="monospace" font-size="10.00">pub(crate) mod</text>
<polyline fill="none" stroke="black" points="111.5,-66.5 380.5,-66.5 "/>
<text text-anchor="middle" x="246" y="-54.5" font-family="monospace" font-size="10.00">lightning_dack_aggregator::dack_aggregator</text>
</g>
<!-- lightning_dack_aggregator&#45;&gt;lightning_dack_aggregator::dack_aggregator -->
<g id="edge3" class="edge">
<title>lightning_dack_aggregator&#45;&gt;lightning_dack_aggregator::dack_aggregator</title>
<path fill="none" stroke="#000000" d="M272.58,-94.39C272.6,-94.3 272.61,-94.21 272.63,-94.12"/>
<polygon fill="#000000" stroke="#000000" points="276.13,-95.75 272.6,-85.76 269.13,-95.77 276.13,-95.75"/>
<text text-anchor="middle" x="260.1" y="-86.26" font-family="monospace" font-size="10.00">owns</text>
</g>
<!-- lightning_dack_aggregator&#45;&gt;lightning_dack_aggregator::dack_aggregator -->
<g id="edge4" class="edge">
<title>lightning_dack_aggregator&#45;&gt;lightning_dack_aggregator::dack_aggregator</title>
<path fill="none" stroke="#7f7f7f" stroke-dasharray="5,2" d="M219.42,-94.39C219.4,-94.3 219.39,-94.21 219.37,-94.12"/>
<polygon fill="#7f7f7f" stroke="#7f7f7f" points="222.87,-95.77 219.4,-85.76 215.87,-95.75 222.87,-95.77"/>
<text text-anchor="middle" x="206.9" y="-86.26" font-family="monospace" font-size="10.00">uses</text>
</g>
<!-- lightning_dack_aggregator::dack_aggregator&#45;&gt;lightning_dack_aggregator::config -->
<g id="edge5" class="edge">
<title>lightning_dack_aggregator::dack_aggregator&#45;&gt;lightning_dack_aggregator::config</title>
<path fill="none" stroke="#7f7f7f" stroke-dasharray="5,2" d="M246,-85.53C246,-98.57 246,-116.12 246,-130.97"/>
<polygon fill="#7f7f7f" stroke="#7f7f7f" points="242.5,-131.2 246,-141.2 249.5,-131.2 242.5,-131.2"/>
<text text-anchor="middle" x="233.5" y="-111.25" font-family="monospace" font-size="10.00">uses</text>
</g>
<!-- tokio::sync::mpsc -->
<g id="node4" class="node">
<title>tokio::sync::mpsc</title>
<polygon fill="#81c169" stroke="black" points="186.5,-0.5 186.5,-38.5 305.5,-38.5 305.5,-0.5 186.5,-0.5"/>
<text text-anchor="middle" x="246" y="-26.5" font-family="monospace" font-size="10.00">external mod</text>
<polyline fill="none" stroke="black" points="186.5,-19.5 305.5,-19.5 "/>
<text text-anchor="middle" x="246" y="-7.5" font-family="monospace" font-size="10.00">tokio::sync::mpsc</text>
</g>
<!-- lightning_dack_aggregator::dack_aggregator&#45;&gt;tokio::sync::mpsc -->
<g id="edge6" class="edge">
<title>lightning_dack_aggregator::dack_aggregator&#45;&gt;tokio::sync::mpsc</title>
<path fill="none" stroke="#7f7f7f" stroke-dasharray="5,2" d="M246,-47.39C246,-47.3 246,-47.21 246,-47.12"/>
<polygon fill="#7f7f7f" stroke="#7f7f7f" points="249.5,-48.75 246,-38.75 242.5,-48.75 249.5,-48.75"/>
<text text-anchor="middle" x="233.5" y="-39.25" font-family="monospace" font-size="10.00">uses</text>
</g>
</g>
</svg>
