<?xml version="1.0" encoding="UTF-8" standalone="no"?>
<!DOCTYPE svg PUBLIC "-//W3C//DTD SVG 1.1//EN"
 "http://www.w3.org/Graphics/SVG/1.1/DTD/svg11.dtd">
<!-- Generated by graphviz version 4.0.0 (0)
 -->
<!-- Pages: 1 -->
<svg width="423pt" height="333pt"
 viewBox="0.00 0.00 422.60 332.62" xmlns="http://www.w3.org/2000/svg" xmlns:xlink="http://www.w3.org/1999/xlink">
<g id="graph0" class="graph" transform="scale(1 1) rotate(0) translate(28.8 303.82)">
<polygon fill="white" stroke="transparent" points="-28.8,28.8 -28.8,-303.82 393.8,-303.82 393.8,28.8 -28.8,28.8"/>
<text text-anchor="middle" x="182.5" y="-242.22" font-family="Helvetica,sans-Serif" font-size="36.00">lightning_forwarder</text>
<!-- core::cmp -->
<g id="node1" class="node">
<title>core::cmp</title>
<polygon fill="#81c169" stroke="black" points="138,-188.52 138,-226.52 227,-226.52 227,-188.52 138,-188.52"/>
<text text-anchor="middle" x="182.5" y="-214.52" font-family="monospace" font-size="10.00">external mod</text>
<polyline fill="none" stroke="black" points="138,-207.52 227,-207.52 "/>
<text text-anchor="middle" x="182.5" y="-195.52" font-family="monospace" font-size="10.00">core::cmp</text>
</g>
<!-- lightning_forwarder -->
<g id="node2" class="node">
<title>lightning_forwarder</title>
<polygon fill="#5397c8" stroke="black" points="117,-94.51 117,-132.51 248,-132.51 248,-94.51 117,-94.51"/>
<text text-anchor="middle" x="182.5" y="-120.51" font-family="monospace" font-size="10.00">crate</text>
<polyline fill="none" stroke="black" points="117,-113.51 248,-113.51 "/>
<text text-anchor="middle" x="182.5" y="-101.51" font-family="monospace" font-size="10.00">lightning_forwarder</text>
</g>
<!-- lightning_forwarder::config -->
<g id="node3" class="node">
<title>lightning_forwarder::config</title>
<polygon fill="#81c169" stroke="black" points="93,-47.5 93,-85.5 272,-85.5 272,-47.5 93,-47.5"/>
<text text-anchor="middle" x="182.5" y="-73.5" font-family="monospace" font-size="10.00">pub mod</text>
<polyline fill="none" stroke="black" points="93,-66.5 272,-66.5 "/>
<text text-anchor="middle" x="182.5" y="-54.5" font-family="monospace" font-size="10.00">lightning_forwarder::config</text>
</g>
<!-- lightning_forwarder&#45;&gt;lightning_forwarder::config -->
<g id="edge1" class="edge">
<title>lightning_forwarder&#45;&gt;lightning_forwarder::config</title>
<path fill="none" stroke="#000000" d="M182.5,-94.39C182.5,-94.3 182.5,-94.21 182.5,-94.12"/>
<polygon fill="#000000" stroke="#000000" points="186,-95.76 182.5,-85.76 179,-95.76 186,-95.76"/>
<text text-anchor="middle" x="170" y="-86.26" font-family="monospace" font-size="10.00">owns</text>
</g>
<!-- lightning_forwarder::forwarder -->
<g id="node4" class="node">
<title>lightning_forwarder::forwarder</title>
<polygon fill="#f8c04c" stroke="black" points="84,-0.5 84,-38.5 281,-38.5 281,-0.5 84,-0.5"/>
<text text-anchor="middle" x="182.5" y="-26.5" font-family="monospace" font-size="10.00">pub(crate) mod</text>
<polyline fill="none" stroke="black" points="84,-19.5 281,-19.5 "/>
<text text-anchor="middle" x="182.5" y="-7.5" font-family="monospace" font-size="10.00">lightning_forwarder::forwarder</text>
</g>
<!-- lightning_forwarder&#45;&gt;lightning_forwarder::forwarder -->
<g id="edge2" class="edge">
<title>lightning_forwarder&#45;&gt;lightning_forwarder::forwarder</title>
<path fill="none" stroke="#000000" d="M204.69,-94.49C209.87,-81.32 210.86,-63.55 207.68,-48.62"/>
<polygon fill="#000000" stroke="#000000" points="210.98,-47.43 204.81,-38.82 204.26,-49.4 210.98,-47.43"/>
<text text-anchor="middle" x="193.69" y="-74.55" font-family="monospace" font-size="10.00">owns</text>
</g>
<!-- lightning_forwarder&#45;&gt;lightning_forwarder::forwarder -->
<g id="edge3" class="edge">
<title>lightning_forwarder&#45;&gt;lightning_forwarder::forwarder</title>
<path fill="none" stroke="#7f7f7f" stroke-dasharray="5,2" d="M160.31,-94.49C155.13,-81.32 154.14,-63.55 157.32,-48.62"/>
<polygon fill="#7f7f7f" stroke="#7f7f7f" points="160.74,-49.4 160.19,-38.82 154.02,-47.43 160.74,-49.4"/>
<text text-anchor="middle" x="146.31" y="-74.55" font-family="monospace" font-size="10.00">uses</text>
</g>
<!-- lightning_forwarder::worker -->
<g id="node5" class="node">
<title>lightning_forwarder::worker</title>
<polygon fill="#f8c04c" stroke="black" points="93,-141.51 93,-179.51 272,-179.51 272,-141.51 93,-141.51"/>
<text text-anchor="middle" x="182.5" y="-167.51" font-family="monospace" font-size="10.00">pub(crate) mod</text>
<polyline fill="none" stroke="black" points="93,-160.51 272,-160.51 "/>
<text text-anchor="middle" x="182.5" y="-148.51" font-family="monospace" font-size="10.00">lightning_forwarder::worker</text>
</g>
<!-- lightning_forwarder&#45;&gt;lightning_forwarder::worker -->
<g id="edge4" class="edge">
<title>lightning_forwarder&#45;&gt;lightning_forwarder::worker</title>
<path fill="none" stroke="#000000" d="M182.5,-132.63C182.5,-132.72 182.5,-132.81 182.5,-132.9"/>
<polygon fill="#000000" stroke="#000000" points="179,-131.26 182.5,-141.26 186,-131.26 179,-131.26"/>
<text text-anchor="middle" x="170" y="-135.76" font-family="monospace" font-size="10.00">owns</text>
</g>
<!-- lightning_forwarder::forwarder&#45;&gt;lightning_forwarder::config -->
<g id="edge5" class="edge">
<title>lightning_forwarder::forwarder&#45;&gt;lightning_forwarder::config</title>
<path fill="none" stroke="#7f7f7f" stroke-dasharray="5,2" d="M182.5,-38.62C182.5,-38.71 182.5,-38.8 182.5,-38.89"/>
<polygon fill="#7f7f7f" stroke="#7f7f7f" points="179,-37.25 182.5,-47.25 186,-37.25 179,-37.25"/>
<text text-anchor="middle" x="170" y="-41.75" font-family="monospace" font-size="10.00">uses</text>
</g>
<!-- lightning_forwarder::forwarder&#45;&gt;lightning_forwarder::worker -->
<g id="edge6" class="edge">
<title>lightning_forwarder::forwarder&#45;&gt;lightning_forwarder::worker</title>
<path fill="none" stroke="#7f7f7f" stroke-dasharray="5,2" d="M182.5,-38.52C182.5,-62.28 182.5,-103.19 182.5,-131.02"/>
<polygon fill="#7f7f7f" stroke="#7f7f7f" points="179,-131.35 182.5,-141.35 186,-131.35 179,-131.35"/>
<text text-anchor="middle" x="195" y="-87.77" font-family="monospace" font-size="10.00">uses</text>
</g>
<!-- lightning_forwarder::worker&#45;&gt;core::cmp -->
<g id="edge7" class="edge">
<title>lightning_forwarder::worker&#45;&gt;core::cmp</title>
<path fill="none" stroke="#7f7f7f" stroke-dasharray="5,2" d="M182.5,-179.63C182.5,-179.72 182.5,-179.81 182.5,-179.9"/>
<polygon fill="#7f7f7f" stroke="#7f7f7f" points="179,-178.26 182.5,-188.26 186,-178.26 179,-178.26"/>
<text text-anchor="middle" x="170" y="-182.77" font-family="monospace" font-size="10.00">uses</text>
</g>
</g>
</svg>
