<?xml version="1.0" encoding="UTF-8" standalone="no"?>
<!DOCTYPE svg PUBLIC "-//W3C//DTD SVG 1.1//EN"
 "http://www.w3.org/Graphics/SVG/1.1/DTD/svg11.dtd">
<!-- Generated by graphviz version 4.0.0 (0)
 -->
<!-- Pages: 1 -->
<svg width="1147pt" height="1057pt"
 viewBox="0.00 0.00 1146.59 1057.26" xmlns="http://www.w3.org/2000/svg" xmlns:xlink="http://www.w3.org/1999/xlink">
<g id="graph0" class="graph" transform="scale(1 1) rotate(0) translate(28.8 1028.46)">
<polygon fill="white" stroke="transparent" points="-28.8,28.8 -28.8,-1028.46 1117.79,-1028.46 1117.79,28.8 -28.8,28.8"/>
<text text-anchor="middle" x="544.5" y="-966.86" font-family="Helvetica,sans-Serif" font-size="36.00">lightning_forwarder</text>
<!-- lightning_forwarder -->
<g id="node1" class="node">
<title>lightning_forwarder</title>
<polygon fill="#5397c8" stroke="black" points="349.94,-546.24 349.94,-584.24 480.94,-584.24 480.94,-546.24 349.94,-546.24"/>
<text text-anchor="middle" x="415.44" y="-572.24" font-family="monospace" font-size="10.00">crate</text>
<polyline fill="none" stroke="black" points="349.94,-565.24 480.94,-565.24 "/>
<text text-anchor="middle" x="415.44" y="-553.24" font-family="monospace" font-size="10.00">lightning_forwarder</text>
</g>
<!-- lightning_forwarder::config::ForwarderConfig -->
<g id="node2" class="node">
<title>lightning_forwarder::config::ForwarderConfig</title>
<polygon fill="#81c169" stroke="black" points="461,-456.83 461,-494.83 616,-494.83 616,-456.83 461,-456.83"/>
<text text-anchor="middle" x="538.5" y="-482.83" font-family="monospace" font-size="10.00">pub struct</text>
<polyline fill="none" stroke="black" points="461,-475.83 616,-475.83 "/>
<text text-anchor="middle" x="538.5" y="-463.83" font-family="monospace" font-size="10.00">config::ForwarderConfig</text>
</g>
<!-- lightning_forwarder&#45;&gt;lightning_forwarder::config::ForwarderConfig -->
<g id="edge1" class="edge">
<title>lightning_forwarder&#45;&gt;lightning_forwarder::config::ForwarderConfig</title>
<path fill="none" stroke="#000000" d="M481.11,-550.38C501.9,-537.1 522.05,-519.48 532.84,-503.85"/>
<polygon fill="#000000" stroke="#000000" points="536.03,-505.33 538.04,-494.92 529.98,-501.8 536.03,-505.33"/>
<text text-anchor="middle" x="494.48" y="-530.11" font-family="monospace" font-size="10.00">owns</text>
</g>
<!-- lightning_forwarder&#45;&gt;lightning_forwarder::config::ForwarderConfig -->
<g id="edge2" class="edge">
<title>lightning_forwarder&#45;&gt;lightning_forwarder::config::ForwarderConfig</title>
<path fill="none" stroke="#7f7f7f" stroke-dasharray="5,2" d="M415.93,-546.05C422.44,-532.11 439.01,-515.24 458.06,-500.94"/>
<polygon fill="#7f7f7f" stroke="#7f7f7f" points="460.27,-503.66 466.35,-494.98 456.19,-497.97 460.27,-503.66"/>
<text text-anchor="middle" x="424.5" y="-526.49" font-family="monospace" font-size="10.00">uses</text>
</g>
<!-- lightning_forwarder::forwarder::Forwarder -->
<g id="node3" class="node">
<title>lightning_forwarder::forwarder::Forwarder</title>
<polygon fill="#81c169" stroke="black" points="759.33,-550.84 759.33,-588.84 896.33,-588.84 896.33,-550.84 759.33,-550.84"/>
<text text-anchor="middle" x="827.83" y="-576.84" font-family="monospace" font-size="10.00">pub struct</text>
<polyline fill="none" stroke="black" points="759.33,-569.84 896.33,-569.84 "/>
<text text-anchor="middle" x="827.83" y="-557.84" font-family="monospace" font-size="10.00">forwarder::Forwarder</text>
</g>
<!-- lightning_forwarder&#45;&gt;lightning_forwarder::forwarder::Forwarder -->
<g id="edge3" class="edge">
<title>lightning_forwarder&#45;&gt;lightning_forwarder::forwarder::Forwarder</title>
<path fill="none" stroke="#000000" d="M465.8,-584.26C538.98,-595.61 674.99,-597.92 757.86,-589.91"/>
<polygon fill="#000000" stroke="#000000" points="758.37,-593.37 767.95,-588.85 757.64,-586.41 758.37,-593.37"/>
<text text-anchor="middle" x="599.33" y="-590.08" font-family="monospace" font-size="10.00">owns</text>
</g>
<!-- lightning_forwarder&#45;&gt;lightning_forwarder::forwarder::Forwarder -->
<g id="edge4" class="edge">
<title>lightning_forwarder&#45;&gt;lightning_forwarder::forwarder::Forwarder</title>
<path fill="none" stroke="#7f7f7f" stroke-dasharray="5,2" d="M475.62,-546.2C553.66,-537.39 688.99,-538.86 767.23,-549.35"/>
<polygon fill="#7f7f7f" stroke="#7f7f7f" points="767.02,-552.85 777.41,-550.81 768.01,-545.92 767.02,-552.85"/>
<text text-anchor="middle" x="608.93" y="-550.77" font-family="monospace" font-size="10.00">uses</text>
</g>
<!-- lightning_forwarder::worker::Worker -->
<g id="node7" class="node">
<title>lightning_forwarder::worker::Worker</title>
<polygon fill="#81c169" stroke="black" points="198.67,-550.84 198.67,-588.84 299.67,-588.84 299.67,-550.84 198.67,-550.84"/>
<text text-anchor="middle" x="249.17" y="-576.84" font-family="monospace" font-size="10.00">pub struct</text>
<polyline fill="none" stroke="black" points="198.67,-569.84 299.67,-569.84 "/>
<text text-anchor="middle" x="249.17" y="-557.84" font-family="monospace" font-size="10.00">worker::Worker</text>
</g>
<!-- lightning_forwarder&#45;&gt;lightning_forwarder::worker::Worker -->
<g id="edge5" class="edge">
<title>lightning_forwarder&#45;&gt;lightning_forwarder::worker::Worker</title>
<path fill="none" stroke="#000000" d="M390.71,-546.2C360.88,-537.91 310.76,-538.73 278.86,-547.61"/>
<polygon fill="#000000" stroke="#000000" points="277.61,-544.33 269.19,-550.77 279.78,-550.99 277.61,-544.33"/>
<text text-anchor="middle" x="322.29" y="-549.91" font-family="monospace" font-size="10.00">owns</text>
</g>
<!-- lightning_forwarder&#45;&gt;lightning_forwarder::worker::Worker -->
<g id="edge6" class="edge">
<title>lightning_forwarder&#45;&gt;lightning_forwarder::worker::Worker</title>
<path fill="none" stroke="#7f7f7f" stroke-dasharray="5,2" d="M395.56,-584.25C367.94,-594.96 317.53,-597.62 283.69,-591.15"/>
<polygon fill="#7f7f7f" stroke="#7f7f7f" points="284.3,-587.69 273.76,-588.84 282.71,-594.51 284.3,-587.69"/>
<text text-anchor="middle" x="327.13" y="-590.7" font-family="monospace" font-size="10.00">uses</text>
</g>
<!-- lightning_forwarder::forwarder::Forwarder::Config -->
<g id="node4" class="node">
<title>lightning_forwarder::forwarder::Forwarder::Config</title>
<polygon fill="#db5367" stroke="black" points="535.41,-333.77 535.41,-371.77 720.41,-371.77 720.41,-333.77 535.41,-333.77"/>
<text text-anchor="middle" x="627.91" y="-359.77" font-family="monospace" font-size="10.00">pub(self) type</text>
<polyline fill="none" stroke="black" points="535.41,-352.77 720.41,-352.77 "/>
<text text-anchor="middle" x="627.91" y="-340.77" font-family="monospace" font-size="10.00">forwarder::Forwarder::Config</text>
</g>
<!-- lightning_forwarder::forwarder::Forwarder&#45;&gt;lightning_forwarder::forwarder::Forwarder::Config -->
<g id="edge7" class="edge">
<title>lightning_forwarder::forwarder::Forwarder&#45;&gt;lightning_forwarder::forwarder::Forwarder::Config</title>
<path fill="none" stroke="#000000" d="M810.09,-550.58C774.3,-511.72 693.39,-423.87 652.52,-379.49"/>
<polygon fill="#000000" stroke="#000000" points="654.96,-376.98 645.61,-371.99 649.81,-381.72 654.96,-376.98"/>
<text text-anchor="middle" x="718.8" y="-468.04" font-family="monospace" font-size="10.00">owns</text>
</g>
<!-- lightning_forwarder::forwarder::Forwarder::init -->
<g id="node5" class="node">
<title>lightning_forwarder::forwarder::Forwarder::init</title>
<polygon fill="#db5367" stroke="black" points="596.66,-409.83 596.66,-447.83 769.66,-447.83 769.66,-409.83 596.66,-409.83"/>
<text text-anchor="middle" x="683.16" y="-435.83" font-family="monospace" font-size="10.00">pub(self) fn</text>
<polyline fill="none" stroke="black" points="596.66,-428.83 769.66,-428.83 "/>
<text text-anchor="middle" x="683.16" y="-416.83" font-family="monospace" font-size="10.00">forwarder::Forwarder::init</text>
</g>
<!-- lightning_forwarder::forwarder::Forwarder&#45;&gt;lightning_forwarder::forwarder::Forwarder::init -->
<g id="edge8" class="edge">
<title>lightning_forwarder::forwarder::Forwarder&#45;&gt;lightning_forwarder::forwarder::Forwarder::init</title>
<path fill="none" stroke="#000000" d="M828.4,-550.71C818.66,-524.63 780.38,-482.18 745.08,-454.1"/>
<polygon fill="#000000" stroke="#000000" points="747.19,-451.31 737.13,-447.98 742.92,-456.86 747.19,-451.31"/>
<text text-anchor="middle" x="774.24" y="-505.4" font-family="monospace" font-size="10.00">owns</text>
</g>
<!-- lightning_forwarder::forwarder::Forwarder::mempool_socket -->
<g id="node6" class="node">
<title>lightning_forwarder::forwarder::Forwarder::mempool_socket</title>
<polygon fill="#db5367" stroke="black" points="855.99,-597.85 855.99,-635.85 1088.99,-635.85 1088.99,-597.85 855.99,-597.85"/>
<text text-anchor="middle" x="972.49" y="-623.85" font-family="monospace" font-size="10.00">pub(self) fn</text>
<polyline fill="none" stroke="black" points="855.99,-616.85 1088.99,-616.85 "/>
<text text-anchor="middle" x="972.49" y="-604.85" font-family="monospace" font-size="10.00">forwarder::Forwarder::mempool_socket</text>
</g>
<!-- lightning_forwarder::forwarder::Forwarder&#45;&gt;lightning_forwarder::forwarder::Forwarder::mempool_socket -->
<g id="edge9" class="edge">
<title>lightning_forwarder::forwarder::Forwarder&#45;&gt;lightning_forwarder::forwarder::Forwarder::mempool_socket</title>
<path fill="none" stroke="#000000" d="M835.24,-588.99C838.49,-592.26 842.6,-595.49 847.36,-598.62"/>
<polygon fill="#000000" stroke="#000000" points="845.56,-601.62 855.93,-603.77 849.16,-595.62 845.56,-601.62"/>
<text text-anchor="middle" x="828.8" y="-596.8" font-family="monospace" font-size="10.00">owns</text>
</g>
<!-- lightning_forwarder::forwarder::Forwarder::Config&#45;&gt;lightning_forwarder::config::ForwarderConfig -->
<g id="edge10" class="edge">
<title>lightning_forwarder::forwarder::Forwarder::Config&#45;&gt;lightning_forwarder::config::ForwarderConfig</title>
<path fill="none" stroke="#7f7f7f" stroke-dasharray="5,2" d="M613.93,-372C599.04,-392.5 575.33,-425.14 558.46,-448.35"/>
<polygon fill="#7f7f7f" stroke="#7f7f7f" points="555.42,-446.59 552.37,-456.74 561.08,-450.71 555.42,-446.59"/>
<text text-anchor="middle" x="573.7" y="-413.17" font-family="monospace" font-size="10.00">uses</text>
</g>
<!-- lightning_forwarder::forwarder::Forwarder::init&#45;&gt;lightning_forwarder::config::ForwarderConfig -->
<g id="edge11" class="edge">
<title>lightning_forwarder::forwarder::Forwarder::init&#45;&gt;lightning_forwarder::config::ForwarderConfig</title>
<path fill="none" stroke="#7f7f7f" stroke-dasharray="5,2" d="M624.32,-447.95C618.61,-449.8 612.78,-451.7 606.98,-453.58"/>
<polygon fill="#7f7f7f" stroke="#7f7f7f" points="605.71,-450.31 597.29,-456.73 607.88,-456.97 605.71,-450.31"/>
<text text-anchor="middle" x="628.15" y="-453.76" font-family="monospace" font-size="10.00">uses</text>
</g>
<!-- lightning_forwarder::forwarder::Forwarder::init&#45;&gt;lightning_forwarder::forwarder::Forwarder -->
<g id="edge12" class="edge">
<title>lightning_forwarder::forwarder::Forwarder::init&#45;&gt;lightning_forwarder::forwarder::Forwarder</title>
<path fill="none" stroke="#7f7f7f" stroke-dasharray="5,2" d="M682.59,-447.95C692.33,-474.04 730.61,-516.49 765.91,-544.57"/>
<polygon fill="#7f7f7f" stroke="#7f7f7f" points="763.8,-547.36 773.86,-550.68 768.07,-541.81 763.8,-547.36"/>
<text text-anchor="middle" x="711.75" y="-499.26" font-family="monospace" font-size="10.00">uses</text>
</g>
<!-- lightning_forwarder::forwarder::Forwarder::init&#45;&gt;lightning_forwarder::worker::Worker -->
<g id="edge13" class="edge">
<title>lightning_forwarder::forwarder::Forwarder::init&#45;&gt;lightning_forwarder::worker::Worker</title>
<path fill="none" stroke="#7f7f7f" stroke-dasharray="5,2" d="M624.63,-447.84C542.17,-474.64 392.59,-523.24 309.28,-550.31"/>
<polygon fill="#7f7f7f" stroke="#7f7f7f" points="308.13,-547 299.71,-553.42 310.3,-553.66 308.13,-547"/>
<text text-anchor="middle" x="454.46" y="-502.08" font-family="monospace" font-size="10.00">uses</text>
</g>
<!-- lightning_forwarder::forwarder::Forwarder::mempool_socket&#45;&gt;lightning_forwarder::forwarder::Forwarder -->
<g id="edge14" class="edge">
<title>lightning_forwarder::forwarder::Forwarder::mempool_socket&#45;&gt;lightning_forwarder::forwarder::Forwarder</title>
<path fill="none" stroke="#7f7f7f" stroke-dasharray="5,2" d="M965.08,-597.7C953.37,-585.9 930.4,-574.56 906.51,-567.02"/>
<polygon fill="#7f7f7f" stroke="#7f7f7f" points="907.18,-563.58 896.6,-564.14 905.22,-570.3 907.18,-563.58"/>
<text text-anchor="middle" x="923.29" y="-585.36" font-family="monospace" font-size="10.00">uses</text>
</g>
<!-- lightning_forwarder::worker::Worker::Request -->
<g id="node8" class="node">
<title>lightning_forwarder::worker::Worker::Request</title>
<polygon fill="#db5367" stroke="black" points="729.22,-826.01 729.22,-864.01 884.22,-864.01 884.22,-826.01 729.22,-826.01"/>
<text text-anchor="middle" x="806.72" y="-852.01" font-family="monospace" font-size="10.00">pub(self) type</text>
<polyline fill="none" stroke="black" points="729.22,-845.01 884.22,-845.01 "/>
<text text-anchor="middle" x="806.72" y="-833.01" font-family="monospace" font-size="10.00">worker::Worker::Request</text>
</g>
<!-- lightning_forwarder::worker::Worker&#45;&gt;lightning_forwarder::worker::Worker::Request -->
<g id="edge15" class="edge">
<title>lightning_forwarder::worker::Worker&#45;&gt;lightning_forwarder::worker::Worker::Request</title>
<path fill="none" stroke="#000000" d="M287.93,-588.97C387.27,-638 650.77,-768.04 759.14,-821.53"/>
<polygon fill="#000000" stroke="#000000" points="757.7,-824.72 768.21,-826.01 760.8,-818.44 757.7,-824.72"/>
<text text-anchor="middle" x="511.04" y="-708.25" font-family="monospace" font-size="10.00">owns</text>
</g>
<!-- lightning_forwarder::worker::Worker::Response -->
<g id="node9" class="node">
<title>lightning_forwarder::worker::Worker::Response</title>
<polygon fill="#db5367" stroke="black" points="458,-913.16 458,-951.16 619,-951.16 619,-913.16 458,-913.16"/>
<text text-anchor="middle" x="538.5" y="-939.16" font-family="monospace" font-size="10.00">pub(self) type</text>
<polyline fill="none" stroke="black" points="458,-932.16 619,-932.16 "/>
<text text-anchor="middle" x="538.5" y="-920.16" font-family="monospace" font-size="10.00">worker::Worker::Response</text>
</g>
<!-- lightning_forwarder::worker::Worker&#45;&gt;lightning_forwarder::worker::Worker::Response -->
<g id="edge16" class="edge">
<title>lightning_forwarder::worker::Worker&#45;&gt;lightning_forwarder::worker::Worker::Response</title>
<path fill="none" stroke="#000000" d="M264.52,-589.06C312.68,-649.38 460.9,-834.99 516.83,-905.03"/>
<polygon fill="#000000" stroke="#000000" points="514.21,-907.35 523.18,-912.98 519.68,-902.99 514.21,-907.35"/>
<text text-anchor="middle" x="378.17" y="-750.05" font-family="monospace" font-size="10.00">owns</text>
</g>
<!-- lightning_forwarder::worker::Worker::handle -->
<g id="node10" class="node">
<title>lightning_forwarder::worker::Worker::handle</title>
<polygon fill="#db5367" stroke="black" points="195.77,-826.01 195.77,-864.01 344.77,-864.01 344.77,-826.01 195.77,-826.01"/>
<text text-anchor="middle" x="270.27" y="-852.01" font-family="monospace" font-size="10.00">pub(self) async fn</text>
<polyline fill="none" stroke="black" points="195.77,-845.01 344.77,-845.01 "/>
<text text-anchor="middle" x="270.27" y="-833.01" font-family="monospace" font-size="10.00">worker::Worker::handle</text>
</g>
<!-- lightning_forwarder::worker::Worker&#45;&gt;lightning_forwarder::worker::Worker::handle -->
<g id="edge17" class="edge">
<title>lightning_forwarder::worker::Worker&#45;&gt;lightning_forwarder::worker::Worker::handle</title>
<path fill="none" stroke="#000000" d="M236.35,-588.98C224.17,-636.45 232.47,-759.72 250.33,-816.11"/>
<polygon fill="#000000" stroke="#000000" points="247.13,-817.57 253.77,-825.83 253.73,-815.23 247.13,-817.57"/>
<text text-anchor="middle" x="230.84" y="-705.55" font-family="monospace" font-size="10.00">owns</text>
</g>
<!-- lightning_forwarder::worker::Worker::handle_forward -->
<g id="node11" class="node">
<title>lightning_forwarder::worker::Worker::handle_forward</title>
<polygon fill="#db5367" stroke="black" points="6,-597.85 6,-635.85 203,-635.85 203,-597.85 6,-597.85"/>
<text text-anchor="middle" x="104.5" y="-623.85" font-family="monospace" font-size="10.00">pub(self) async fn</text>
<polyline fill="none" stroke="black" points="6,-616.85 203,-616.85 "/>
<text text-anchor="middle" x="104.5" y="-604.85" font-family="monospace" font-size="10.00">worker::Worker::handle_forward</text>
</g>
<!-- lightning_forwarder::worker::Worker&#45;&gt;lightning_forwarder::worker::Worker::handle_forward -->
<g id="edge18" class="edge">
<title>lightning_forwarder::worker::Worker&#45;&gt;lightning_forwarder::worker::Worker::handle_forward</title>
<path fill="none" stroke="#000000" d="M198.45,-560.11C170.77,-564.95 138.53,-577.21 119.75,-591.04"/>
<polygon fill="#000000" stroke="#000000" points="117.26,-588.56 111.91,-597.7 121.79,-593.89 117.26,-588.56"/>
<text text-anchor="middle" x="146.6" y="-578.58" font-family="monospace" font-size="10.00">owns</text>
</g>
<!-- lightning_forwarder::worker::Worker::make_connections -->
<g id="node12" class="node">
<title>lightning_forwarder::worker::Worker::make_connections</title>
<polygon fill="#db5367" stroke="black" points="0,-315.82 0,-353.82 209,-353.82 209,-315.82 0,-315.82"/>
<text text-anchor="middle" x="104.5" y="-341.82" font-family="monospace" font-size="10.00">pub(self) async fn</text>
<polyline fill="none" stroke="black" points="0,-334.82 209,-334.82 "/>
<text text-anchor="middle" x="104.5" y="-322.82" font-family="monospace" font-size="10.00">worker::Worker::make_connections</text>
</g>
<!-- lightning_forwarder::worker::Worker&#45;&gt;lightning_forwarder::worker::Worker::make_connections -->
<g id="edge19" class="edge">
<title>lightning_forwarder::worker::Worker&#45;&gt;lightning_forwarder::worker::Worker::make_connections</title>
<path fill="none" stroke="#000000" d="M252.58,-550.77C245.03,-508.3 187.37,-409.87 144.89,-361.54"/>
<polygon fill="#000000" stroke="#000000" points="147.28,-358.96 137.95,-353.95 142.11,-363.69 147.28,-358.96"/>
<text text-anchor="middle" x="186.23" y="-459.16" font-family="monospace" font-size="10.00">owns</text>
</g>
<!-- lightning_forwarder::worker::Worker::new -->
<g id="node13" class="node">
<title>lightning_forwarder::worker::Worker::new</title>
<polygon fill="#81c169" stroke="black" points="204.77,-87.65 204.77,-125.65 335.77,-125.65 335.77,-87.65 204.77,-87.65"/>
<text text-anchor="middle" x="270.27" y="-113.65" font-family="monospace" font-size="10.00">pub fn</text>
<polyline fill="none" stroke="black" points="204.77,-106.65 335.77,-106.65 "/>
<text text-anchor="middle" x="270.27" y="-94.65" font-family="monospace" font-size="10.00">worker::Worker::new</text>
</g>
<!-- lightning_forwarder::worker::Worker&#45;&gt;lightning_forwarder::worker::Worker::new -->
<g id="edge20" class="edge">
<title>lightning_forwarder::worker::Worker&#45;&gt;lightning_forwarder::worker::Worker::new</title>
<path fill="none" stroke="#000000" d="M261.78,-550.77C284.71,-478.68 297.08,-222.61 282.8,-135.73"/>
<polygon fill="#000000" stroke="#000000" points="286.2,-134.92 280.87,-125.76 279.33,-136.25 286.2,-134.92"/>
<text text-anchor="middle" x="259.79" y="-346.25" font-family="monospace" font-size="10.00">owns</text>
</g>
<!-- lightning_forwarder::worker::Worker::refresh_epoch -->
<g id="node14" class="node">
<title>lightning_forwarder::worker::Worker::refresh_epoch</title>
<polygon fill="#db5367" stroke="black" points="443,-0.5 443,-38.5 634,-38.5 634,-0.5 443,-0.5"/>
<text text-anchor="middle" x="538.5" y="-26.5" font-family="monospace" font-size="10.00">pub(self) fn</text>
<polyline fill="none" stroke="black" points="443,-19.5 634,-19.5 "/>
<text text-anchor="middle" x="538.5" y="-7.5" font-family="monospace" font-size="10.00">worker::Worker::refresh_epoch</text>
</g>
<!-- lightning_forwarder::worker::Worker&#45;&gt;lightning_forwarder::worker::Worker::refresh_epoch -->
<g id="edge21" class="edge">
<title>lightning_forwarder::worker::Worker&#45;&gt;lightning_forwarder::worker::Worker::refresh_epoch</title>
<path fill="none" stroke="#000000" d="M272.82,-550.73C338.75,-468.32 507.02,-148.1 536.5,-48.71"/>
<polygon fill="#000000" stroke="#000000" points="539.96,-49.31 539.16,-38.74 533.2,-47.5 539.96,-49.31"/>
<text text-anchor="middle" x="392.16" y="-302.72" font-family="monospace" font-size="10.00">owns</text>
</g>
<!-- lightning_forwarder::worker::Worker::handle&#45;&gt;lightning_forwarder::worker::Worker -->
<g id="edge22" class="edge">
<title>lightning_forwarder::worker::Worker::handle&#45;&gt;lightning_forwarder::worker::Worker</title>
<path fill="none" stroke="#7f7f7f" stroke-dasharray="5,2" d="M283.08,-825.87C295.27,-778.4 286.96,-655.14 269.11,-598.74"/>
<polygon fill="#7f7f7f" stroke="#7f7f7f" points="272.3,-597.28 265.67,-589.03 265.71,-599.62 272.3,-597.28"/>
<text text-anchor="middle" x="263.6" y="-715.31" font-family="monospace" font-size="10.00">uses</text>
</g>
<!-- lightning_forwarder::worker::Worker::handle_forward&#45;&gt;lightning_forwarder::worker::Worker -->
<g id="edge23" class="edge">
<title>lightning_forwarder::worker::Worker::handle_forward&#45;&gt;lightning_forwarder::worker::Worker</title>
<path fill="none" stroke="#7f7f7f" stroke-dasharray="5,2" d="M203.39,-612.26C215.07,-607.36 225.7,-601.68 233.83,-595.71"/>
<polygon fill="#7f7f7f" stroke="#7f7f7f" points="236.22,-598.28 241.59,-589.15 231.7,-592.93 236.22,-598.28"/>
<text text-anchor="middle" x="231.11" y="-606.99" font-family="monospace" font-size="10.00">uses</text>
</g>
<!-- lightning_forwarder::worker::Worker::make_connections&#45;&gt;lightning_forwarder::worker::Worker -->
<g id="edge24" class="edge">
<title>lightning_forwarder::worker::Worker::make_connections&#45;&gt;lightning_forwarder::worker::Worker</title>
<path fill="none" stroke="#7f7f7f" stroke-dasharray="5,2" d="M101.09,-353.88C108.64,-396.36 166.29,-494.79 208.78,-543.12"/>
<polygon fill="#7f7f7f" stroke="#7f7f7f" points="206.39,-545.69 215.72,-550.71 211.55,-540.97 206.39,-545.69"/>
<text text-anchor="middle" x="142.43" y="-451.5" font-family="monospace" font-size="10.00">uses</text>
</g>
<!-- lightning_forwarder::worker::Worker::new&#45;&gt;lightning_forwarder::worker::Worker -->
<g id="edge25" class="edge">
<title>lightning_forwarder::worker::Worker::new&#45;&gt;lightning_forwarder::worker::Worker</title>
<path fill="none" stroke="#7f7f7f" stroke-dasharray="5,2" d="M257.66,-125.72C234.72,-197.81 222.35,-453.89 236.64,-540.77"/>
<polygon fill="#7f7f7f" stroke="#7f7f7f" points="233.23,-541.58 238.57,-550.73 240.11,-540.25 233.23,-541.58"/>
<text text-anchor="middle" x="234.65" y="-336.25" font-family="monospace" font-size="10.00">uses</text>
</g>
<!-- lightning_forwarder::worker::Worker::refresh_epoch&#45;&gt;lightning_forwarder::worker::Worker -->
<g id="edge26" class="edge">
<title>lightning_forwarder::worker::Worker::refresh_epoch&#45;&gt;lightning_forwarder::worker::Worker</title>
<path fill="none" stroke="#7f7f7f" stroke-dasharray="5,2" d="M514.84,-38.61C448.91,-121.02 280.64,-441.24 251.16,-540.64"/>
<polygon fill="#7f7f7f" stroke="#7f7f7f" points="247.7,-540.03 248.5,-550.6 254.46,-541.84 247.7,-540.03"/>
<text text-anchor="middle" x="370.5" y="-281.62" font-family="monospace" font-size="10.00">uses</text>
</g>
</g>
</svg>
