<?xml version="1.0" encoding="UTF-8" standalone="no"?>
<!DOCTYPE svg PUBLIC "-//W3C//DTD SVG 1.1//EN"
 "http://www.w3.org/Graphics/SVG/1.1/DTD/svg11.dtd">
<!-- Generated by graphviz version 4.0.0 (0)
 -->
<!-- Pages: 1 -->
<svg width="2349pt" height="2839pt"
 viewBox="0.00 0.00 2348.60 2839.10" xmlns="http://www.w3.org/2000/svg" xmlns:xlink="http://www.w3.org/1999/xlink">
<g id="graph0" class="graph" transform="scale(1 1) rotate(0) translate(28.8 2810.3)">
<polygon fill="white" stroke="transparent" points="-28.8,28.8 -28.8,-2810.3 2319.8,-2810.3 2319.8,28.8 -28.8,28.8"/>
<text text-anchor="middle" x="1145.5" y="-2748.7" font-family="Helvetica,sans-Serif" font-size="36.00">lightning_service_executor</text>
<!-- fdi -->
<g id="node1" class="node">
<title>fdi</title>
<polygon fill="#5397c8" stroke="black" points="36,-1410 36,-1448 137,-1448 137,-1410 36,-1410"/>
<text text-anchor="middle" x="86.5" y="-1436" font-family="monospace" font-size="10.00">external crate</text>
<polyline fill="none" stroke="black" points="36,-1429 137,-1429 "/>
<text text-anchor="middle" x="86.5" y="-1417" font-family="monospace" font-size="10.00">fdi</text>
</g>
<!-- fn_sdk::ipc_types -->
<g id="node2" class="node">
<title>fn_sdk::ipc_types</title>
<polygon fill="#81c169" stroke="black" points="27,-871 27,-909 146,-909 146,-871 27,-871"/>
<text text-anchor="middle" x="86.5" y="-897" font-family="monospace" font-size="10.00">external mod</text>
<polyline fill="none" stroke="black" points="27,-890 146,-890 "/>
<text text-anchor="middle" x="86.5" y="-878" font-family="monospace" font-size="10.00">fn_sdk::ipc_types</text>
</g>
<!-- lightning_schema -->
<g id="node3" class="node">
<title>lightning_schema</title>
<polygon fill="#5397c8" stroke="black" points="30,-1122 30,-1160 143,-1160 143,-1122 30,-1122"/>
<text text-anchor="middle" x="86.5" y="-1148" font-family="monospace" font-size="10.00">external crate</text>
<polyline fill="none" stroke="black" points="30,-1141 143,-1141 "/>
<text text-anchor="middle" x="86.5" y="-1129" font-family="monospace" font-size="10.00">lightning_schema</text>
</g>
<!-- lightning_service_executor -->
<g id="node4" class="node">
<title>lightning_service_executor</title>
<polygon fill="#5397c8" stroke="black" points="0,-1238 0,-1276 173,-1276 173,-1238 0,-1238"/>
<text text-anchor="middle" x="86.5" y="-1264" font-family="monospace" font-size="10.00">crate</text>
<polyline fill="none" stroke="black" points="0,-1257 173,-1257 "/>
<text text-anchor="middle" x="86.5" y="-1245" font-family="monospace" font-size="10.00">lightning_service_executor</text>
</g>
<!-- lightning_service_executor::service -->
<g id="node5" class="node">
<title>lightning_service_executor::service</title>
<polygon fill="#81c169" stroke="black" points="954,-2695 954,-2733 1181,-2733 1181,-2695 954,-2695"/>
<text text-anchor="middle" x="1067.5" y="-2721" font-family="monospace" font-size="10.00">pub mod</text>
<polyline fill="none" stroke="black" points="954,-2714 1181,-2714 "/>
<text text-anchor="middle" x="1067.5" y="-2702" font-family="monospace" font-size="10.00">lightning_service_executor::service</text>
</g>
<!-- lightning_service_executor&#45;&gt;lightning_service_executor::service -->
<g id="edge1" class="edge">
<title>lightning_service_executor&#45;&gt;lightning_service_executor::service</title>
<path fill="none" stroke="#000000" d="M99.85,-1276.04C177.46,-1386.67 567,-1942 567,-1942 567,-1942 959.8,-2547.87 1049.44,-2686.14"/>
<polygon fill="#000000" stroke="#000000" points="1046.75,-2688.43 1055.13,-2694.92 1052.62,-2684.62 1046.75,-2688.43"/>
<text text-anchor="middle" x="554.5" y="-1934" font-family="monospace" font-size="10.00">owns</text>
</g>
<!-- lightning_service_executor::shim -->
<g id="node6" class="node">
<title>lightning_service_executor::shim</title>
<polygon fill="#81c169" stroke="black" points="963,-1216 963,-1254 1172,-1254 1172,-1216 963,-1216"/>
<text text-anchor="middle" x="1067.5" y="-1242" font-family="monospace" font-size="10.00">pub mod</text>
<polyline fill="none" stroke="black" points="963,-1235 1172,-1235 "/>
<text text-anchor="middle" x="1067.5" y="-1223" font-family="monospace" font-size="10.00">lightning_service_executor::shim</text>
</g>
<!-- lightning_service_executor&#45;&gt;lightning_service_executor::shim -->
<g id="edge2" class="edge">
<title>lightning_service_executor&#45;&gt;lightning_service_executor::shim</title>
<path fill="none" stroke="#000000" d="M173.25,-1257C305.41,-1257 542,-1257 542,-1257 542,-1257 798.06,-1246.28 952.7,-1239.81"/>
<polygon fill="#000000" stroke="#000000" points="952.89,-1243.3 962.74,-1239.39 952.6,-1236.31 952.89,-1243.3"/>
<text text-anchor="middle" x="554.5" y="-1260" font-family="monospace" font-size="10.00">owns</text>
</g>
<!-- lightning_service_executor::test_services -->
<g id="node7" class="node">
<title>lightning_service_executor::test_services</title>
<polygon fill="#81c169" stroke="black" points="936,-1083 936,-1121 1199,-1121 1199,-1083 936,-1083"/>
<text text-anchor="middle" x="1067.5" y="-1109" font-family="monospace" font-size="10.00">pub mod</text>
<polyline fill="none" stroke="black" points="936,-1102 1199,-1102 "/>
<text text-anchor="middle" x="1067.5" y="-1090" font-family="monospace" font-size="10.00">lightning_service_executor::test_services</text>
</g>
<!-- lightning_service_executor&#45;&gt;lightning_service_executor::test_services -->
<g id="edge3" class="edge">
<title>lightning_service_executor&#45;&gt;lightning_service_executor::test_services</title>
<path fill="none" stroke="#000000" d="M150.31,-1237.88C281.01,-1198.71 567,-1113 567,-1113 567,-1113 777.91,-1108.36 925.9,-1105.11"/>
<polygon fill="#000000" stroke="#000000" points="926.08,-1108.61 936,-1104.89 925.92,-1101.61 926.08,-1108.61"/>
<text text-anchor="middle" x="554.5" y="-1105" font-family="monospace" font-size="10.00">owns</text>
</g>
<!-- lightning_service_executor::service&#45;&gt;fdi -->
<g id="edge4" class="edge">
<title>lightning_service_executor::service&#45;&gt;fdi</title>
<path fill="none" stroke="#7f7f7f" stroke-dasharray="5,2" d="M1046.25,-2694.87C947.94,-2606.38 542,-2241 542,-2241 542,-2241 182.98,-1600.98 102.41,-1457.37"/>
<polygon fill="#7f7f7f" stroke="#7f7f7f" points="105.26,-1455.28 97.31,-1448.27 99.15,-1458.7 105.26,-1455.28"/>
<text text-anchor="middle" x="554.5" y="-2244" font-family="monospace" font-size="10.00">uses</text>
</g>
<!-- lightning_service_executor::service&#45;&gt;fn_sdk::ipc_types -->
<g id="edge5" class="edge">
<title>lightning_service_executor::service&#45;&gt;fn_sdk::ipc_types</title>
<path fill="none" stroke="#7f7f7f" stroke-dasharray="5,2" d="M1063.47,-2694.84C1016.1,-2469.6 567,-334 567,-334 567,-334 205.83,-751.92 109.75,-863.1"/>
<polygon fill="#7f7f7f" stroke="#7f7f7f" points="106.93,-861.01 103.04,-870.86 112.23,-865.58 106.93,-861.01"/>
<text text-anchor="middle" x="554.5" y="-326" font-family="monospace" font-size="10.00">uses</text>
</g>
<!-- lightning_service_executor::service&#45;&gt;lightning_schema -->
<g id="edge6" class="edge">
<title>lightning_service_executor::service&#45;&gt;lightning_schema</title>
<path fill="none" stroke="#7f7f7f" stroke-dasharray="5,2" d="M1062.05,-2694.88C1007.81,-2504.58 567,-958 567,-958 567,-958 275.04,-1069.19 146.28,-1118.23"/>
<polygon fill="#7f7f7f" stroke="#7f7f7f" points="144.66,-1115.1 136.56,-1121.93 147.15,-1121.65 144.66,-1115.1"/>
<text text-anchor="middle" x="554.5" y="-950" font-family="monospace" font-size="10.00">uses</text>
</g>
<!-- lightning_types -->
<g id="node9" class="node">
<title>lightning_types</title>
<polygon fill="#5397c8" stroke="black" points="33,-1001 33,-1039 140,-1039 140,-1001 33,-1001"/>
<text text-anchor="middle" x="86.5" y="-1027" font-family="monospace" font-size="10.00">external crate</text>
<polyline fill="none" stroke="black" points="33,-1020 140,-1020 "/>
<text text-anchor="middle" x="86.5" y="-1008" font-family="monospace" font-size="10.00">lightning_types</text>
</g>
<!-- lightning_service_executor::service&#45;&gt;lightning_types -->
<g id="edge7" class="edge">
<title>lightning_service_executor::service&#45;&gt;lightning_types</title>
<path fill="none" stroke="#7f7f7f" stroke-dasharray="5,2" d="M1062.86,-2694.86C1012.41,-2486.48 567,-647 567,-647 567,-647 226.86,-911.04 118.94,-994.82"/>
<polygon fill="#7f7f7f" stroke="#7f7f7f" points="116.74,-992.09 110.99,-1000.99 121.03,-997.62 116.74,-992.09"/>
<text text-anchor="middle" x="554.5" y="-639" font-family="monospace" font-size="10.00">uses</text>
</g>
<!-- tokio::io -->
<g id="node10" class="node">
<title>tokio::io</title>
<polygon fill="#81c169" stroke="black" points="42,-722 42,-760 131,-760 131,-722 42,-722"/>
<text text-anchor="middle" x="86.5" y="-748" font-family="monospace" font-size="10.00">external mod</text>
<polyline fill="none" stroke="black" points="42,-741 131,-741 "/>
<text text-anchor="middle" x="86.5" y="-729" font-family="monospace" font-size="10.00">tokio::io</text>
</g>
<!-- lightning_service_executor::service&#45;&gt;tokio::io -->
<g id="edge8" class="edge">
<title>lightning_service_executor::service&#45;&gt;tokio::io</title>
<path fill="none" stroke="#7f7f7f" stroke-dasharray="5,2" d="M1063.69,-2694.66C1017.49,-2460.33 567,-175 567,-175 567,-175 205.04,-601.37 109.43,-713.99"/>
<polygon fill="#7f7f7f" stroke="#7f7f7f" points="106.57,-711.96 102.76,-721.84 111.9,-716.49 106.57,-711.96"/>
<text text-anchor="middle" x="554.5" y="-167" font-family="monospace" font-size="10.00">uses</text>
</g>
<!-- tracing::instrument -->
<g id="node11" class="node">
<title>tracing::instrument</title>
<polygon fill="#81c169" stroke="black" points="21,-535 21,-573 152,-573 152,-535 21,-535"/>
<text text-anchor="middle" x="86.5" y="-561" font-family="monospace" font-size="10.00">external mod</text>
<polyline fill="none" stroke="black" points="21,-554 152,-554 "/>
<text text-anchor="middle" x="86.5" y="-542" font-family="monospace" font-size="10.00">tracing::instrument</text>
</g>
<!-- lightning_service_executor::service&#45;&gt;tracing::instrument -->
<g id="edge9" class="edge">
<title>lightning_service_executor::service&#45;&gt;tracing::instrument</title>
<path fill="none" stroke="#7f7f7f" stroke-dasharray="5,2" d="M1063.97,-2694.93C1019.35,-2453.97 567,-11 567,-11 567,-11 206.63,-418.25 110.06,-527.37"/>
<polygon fill="#7f7f7f" stroke="#7f7f7f" points="107.33,-525.18 103.32,-534.99 112.57,-529.82 107.33,-525.18"/>
<text text-anchor="middle" x="554.5" y="-3" font-family="monospace" font-size="10.00">uses</text>
</g>
<!-- lightning_service_executor::shim&#45;&gt;fdi -->
<g id="edge10" class="edge">
<title>lightning_service_executor::shim&#45;&gt;fdi</title>
<path fill="none" stroke="#7f7f7f" stroke-dasharray="5,2" d="M1055.54,-1254.37C977.32,-1381.04 542,-2086 542,-2086 542,-2086 192.12,-1581.34 105.65,-1456.62"/>
<polygon fill="#7f7f7f" stroke="#7f7f7f" points="108.46,-1454.53 99.89,-1448.31 102.71,-1458.52 108.46,-1454.53"/>
<text text-anchor="middle" x="554.5" y="-2089" font-family="monospace" font-size="10.00">uses</text>
</g>
<!-- lightning_service_executor::shim&#45;&gt;lightning_schema -->
<g id="edge11" class="edge">
<title>lightning_service_executor::shim&#45;&gt;lightning_schema</title>
<path fill="none" stroke="#7f7f7f" stroke-dasharray="5,2" d="M1045.35,-1215.88C948.49,-1132.28 567,-803 567,-803 567,-803 232.99,-1037.96 121.93,-1116.08"/>
<polygon fill="#7f7f7f" stroke="#7f7f7f" points="119.88,-1113.24 113.71,-1121.86 123.9,-1118.97 119.88,-1113.24"/>
<text text-anchor="middle" x="554.5" y="-795" font-family="monospace" font-size="10.00">uses</text>
</g>
<!-- lightning_service_executor::shim&#45;&gt;lightning_service_executor::service -->
<g id="edge12" class="edge">
<title>lightning_service_executor::shim&#45;&gt;lightning_service_executor::service</title>
</g>
<!-- lightning_service_executor::shim&#45;&gt;lightning_types -->
<g id="edge13" class="edge">
<title>lightning_service_executor::shim&#45;&gt;lightning_types</title>
<path fill="none" stroke="#7f7f7f" stroke-dasharray="5,2" d="M1054.63,-1215.86C976.29,-1099.41 567,-491 567,-491 567,-491 208.21,-886 110.7,-993.35"/>
<polygon fill="#7f7f7f" stroke="#7f7f7f" points="108.02,-991.1 103.89,-1000.86 113.2,-995.81 108.02,-991.1"/>
<text text-anchor="middle" x="554.5" y="-483" font-family="monospace" font-size="10.00">uses</text>
</g>
<!-- lightning_service_executor::test_services::io_stress -->
<g id="node8" class="node">
<title>lightning_service_executor::test_services::io_stress</title>
<polygon fill="#81c169" stroke="black" points="1962,-1083 1962,-1121 2291,-1121 2291,-1083 1962,-1083"/>
<text text-anchor="middle" x="2126.5" y="-1109" font-family="monospace" font-size="10.00">pub mod</text>
<polyline fill="none" stroke="black" points="1962,-1102 2291,-1102 "/>
<text text-anchor="middle" x="2126.5" y="-1090" font-family="monospace" font-size="10.00">lightning_service_executor::test_services::io_stress</text>
</g>
<!-- lightning_service_executor::test_services&#45;&gt;lightning_service_executor::test_services::io_stress -->
<g id="edge14" class="edge">
<title>lightning_service_executor::test_services&#45;&gt;lightning_service_executor::test_services::io_stress</title>
<path fill="none" stroke="#000000" d="M1199,-1102C1347.29,-1102 1568,-1102 1568,-1102 1568,-1102 1787.9,-1102 1951.74,-1102"/>
<polygon fill="#000000" stroke="#000000" points="1951.95,-1105.5 1961.95,-1102 1951.95,-1098.5 1951.95,-1105.5"/>
<text text-anchor="middle" x="1580.5" y="-1105" font-family="monospace" font-size="10.00">owns</text>
</g>
</g>
</svg>
