<?xml version="1.0" encoding="UTF-8" standalone="no"?>
<!DOCTYPE svg PUBLIC "-//W3C//DTD SVG 1.1//EN"
 "http://www.w3.org/Graphics/SVG/1.1/DTD/svg11.dtd">
<!-- Generated by graphviz version 4.0.0 (0)
 -->
<!-- Pages: 1 -->
<svg width="776pt" height="489pt"
 viewBox="0.00 0.00 776.47 489.35" xmlns="http://www.w3.org/2000/svg" xmlns:xlink="http://www.w3.org/1999/xlink">
<g id="graph0" class="graph" transform="scale(1 1) rotate(0) translate(28.8 460.55)">
<polygon fill="white" stroke="transparent" points="-28.8,28.8 -28.8,-460.55 747.67,-460.55 747.67,28.8 -28.8,28.8"/>
<text text-anchor="middle" x="359.44" y="-398.95" font-family="Helvetica,sans-Serif" font-size="36.00">better_shutdown</text>
<!-- better_shutdown -->
<g id="node1" class="node">
<title>better_shutdown</title>
<polygon fill="#5397c8" stroke="black" points="323.75,-154.62 323.75,-192.62 430.75,-192.62 430.75,-154.62 323.75,-154.62"/>
<text text-anchor="middle" x="377.25" y="-180.62" font-family="monospace" font-size="10.00">crate</text>
<polyline fill="none" stroke="black" points="323.75,-173.62 430.75,-173.62 "/>
<text text-anchor="middle" x="377.25" y="-161.62" font-family="monospace" font-size="10.00">better_shutdown</text>
</g>
<!-- better_shutdown::backtrace_list -->
<g id="node2" class="node">
<title>better_shutdown::backtrace_list</title>
<polygon fill="#f8c04c" stroke="black" points="515.87,-161.58 515.87,-199.58 718.87,-199.58 718.87,-161.58 515.87,-161.58"/>
<text text-anchor="middle" x="617.37" y="-187.58" font-family="monospace" font-size="10.00">pub(crate) mod</text>
<polyline fill="none" stroke="black" points="515.87,-180.58 718.87,-180.58 "/>
<text text-anchor="middle" x="617.37" y="-168.58" font-family="monospace" font-size="10.00">better_shutdown::backtrace_list</text>
</g>
<!-- better_shutdown&#45;&gt;better_shutdown::backtrace_list -->
<g id="edge1" class="edge">
<title>better_shutdown&#45;&gt;better_shutdown::backtrace_list</title>
<path fill="none" stroke="#000000" d="M405.21,-192.65C445.62,-204.15 520.87,-207.56 570.03,-201.12"/>
<polygon fill="#000000" stroke="#000000" points="570.74,-204.55 580.11,-199.59 569.69,-197.63 570.74,-204.55"/>
<text text-anchor="middle" x="475.12" y="-199.89" font-family="monospace" font-size="10.00">owns</text>
</g>
<!-- better_shutdown&#45;&gt;better_shutdown::backtrace_list -->
<g id="edge2" class="edge">
<title>better_shutdown&#45;&gt;better_shutdown::backtrace_list</title>
<path fill="none" stroke="#7f7f7f" stroke-dasharray="5,2" d="M414.56,-154.6C459.43,-146.8 534.33,-148.86 579.47,-159.03"/>
<polygon fill="#7f7f7f" stroke="#7f7f7f" points="578.89,-162.5 589.45,-161.56 580.61,-155.71 578.89,-162.5"/>
<text text-anchor="middle" x="484.52" y="-159.82" font-family="monospace" font-size="10.00">uses</text>
</g>
<!-- better_shutdown::completion_fut -->
<g id="node3" class="node">
<title>better_shutdown::completion_fut</title>
<polygon fill="#f8c04c" stroke="black" points="441.17,-17.37 441.17,-55.37 644.17,-55.37 644.17,-17.37 441.17,-17.37"/>
<text text-anchor="middle" x="542.67" y="-43.37" font-family="monospace" font-size="10.00">pub(crate) mod</text>
<polyline fill="none" stroke="black" points="441.17,-36.37 644.17,-36.37 "/>
<text text-anchor="middle" x="542.67" y="-24.37" font-family="monospace" font-size="10.00">better_shutdown::completion_fut</text>
</g>
<!-- better_shutdown&#45;&gt;better_shutdown::completion_fut -->
<g id="edge3" class="edge">
<title>better_shutdown&#45;&gt;better_shutdown::completion_fut</title>
<path fill="none" stroke="#000000" d="M430.9,-159.36C469.46,-135.75 516.98,-93.79 536.2,-64.42"/>
<polygon fill="#000000" stroke="#000000" points="539.24,-66.15 541.21,-55.74 533.18,-62.65 539.24,-66.15"/>
<text text-anchor="middle" x="471.05" y="-114.89" font-family="monospace" font-size="10.00">owns</text>
</g>
<!-- better_shutdown&#45;&gt;better_shutdown::completion_fut -->
<g id="edge4" class="edge">
<title>better_shutdown&#45;&gt;better_shutdown::completion_fut</title>
<path fill="none" stroke="#7f7f7f" stroke-dasharray="5,2" d="M378.69,-154.3C391.16,-128.78 433.65,-88.54 472.6,-61.41"/>
<polygon fill="#7f7f7f" stroke="#7f7f7f" points="475.03,-63.99 481.36,-55.49 471.11,-58.19 475.03,-63.99"/>
<text text-anchor="middle" x="413.14" y="-110.85" font-family="monospace" font-size="10.00">uses</text>
</g>
<!-- better_shutdown::controller -->
<g id="node4" class="node">
<title>better_shutdown::controller</title>
<polygon fill="#f8c04c" stroke="black" points="438.36,-345.25 438.36,-383.25 617.36,-383.25 617.36,-345.25 438.36,-345.25"/>
<text text-anchor="middle" x="527.86" y="-371.25" font-family="monospace" font-size="10.00">pub(crate) mod</text>
<polyline fill="none" stroke="black" points="438.36,-364.25 617.36,-364.25 "/>
<text text-anchor="middle" x="527.86" y="-352.25" font-family="monospace" font-size="10.00">better_shutdown::controller</text>
</g>
<!-- better_shutdown&#45;&gt;better_shutdown::controller -->
<g id="edge5" class="edge">
<title>better_shutdown&#45;&gt;better_shutdown::controller</title>
<path fill="none" stroke="#000000" d="M375.3,-192.69C384.91,-227.97 436.95,-298.75 478.53,-338.09"/>
<polygon fill="#000000" stroke="#000000" points="476.42,-340.89 486.16,-345.05 481.14,-335.72 476.42,-340.89"/>
<text text-anchor="middle" x="414.42" y="-268.39" font-family="monospace" font-size="10.00">owns</text>
</g>
<!-- better_shutdown&#45;&gt;better_shutdown::controller -->
<g id="edge6" class="edge">
<title>better_shutdown&#45;&gt;better_shutdown::controller</title>
<path fill="none" stroke="#7f7f7f" stroke-dasharray="5,2" d="M418.75,-192.65C458.01,-227.02 510.57,-295.74 526.56,-335.67"/>
<polygon fill="#7f7f7f" stroke="#7f7f7f" points="523.26,-336.84 529.81,-345.17 529.88,-334.57 523.26,-336.84"/>
<text text-anchor="middle" x="460.15" y="-267.16" font-family="monospace" font-size="10.00">uses</text>
</g>
<!-- better_shutdown::shared -->
<g id="node5" class="node">
<title>better_shutdown::shared</title>
<polygon fill="#f8c04c" stroke="black" points="275.34,-303.63 275.34,-341.63 430.34,-341.63 430.34,-303.63 275.34,-303.63"/>
<text text-anchor="middle" x="352.84" y="-329.63" font-family="monospace" font-size="10.00">pub(crate) mod</text>
<polyline fill="none" stroke="black" points="275.34,-322.63 430.34,-322.63 "/>
<text text-anchor="middle" x="352.84" y="-310.63" font-family="monospace" font-size="10.00">better_shutdown::shared</text>
</g>
<!-- better_shutdown&#45;&gt;better_shutdown::shared -->
<g id="edge7" class="edge">
<title>better_shutdown&#45;&gt;better_shutdown::shared</title>
<path fill="none" stroke="#000000" d="M374.11,-192.79C369.93,-218.28 362.52,-263.54 357.64,-293.32"/>
<polygon fill="#000000" stroke="#000000" points="354.13,-293.1 355.97,-303.53 361.04,-294.23 354.13,-293.1"/>
<text text-anchor="middle" x="353.37" y="-246.06" font-family="monospace" font-size="10.00">owns</text>
</g>
<!-- better_shutdown::signal_fut -->
<g id="node6" class="node">
<title>better_shutdown::signal_fut</title>
<polygon fill="#f8c04c" stroke="black" points="0,-286.21 0,-324.21 179,-324.21 179,-286.21 0,-286.21"/>
<text text-anchor="middle" x="89.5" y="-312.21" font-family="monospace" font-size="10.00">pub(crate) mod</text>
<polyline fill="none" stroke="black" points="0,-305.21 179,-305.21 "/>
<text text-anchor="middle" x="89.5" y="-293.21" font-family="monospace" font-size="10.00">better_shutdown::signal_fut</text>
</g>
<!-- better_shutdown&#45;&gt;better_shutdown::signal_fut -->
<g id="edge8" class="edge">
<title>better_shutdown&#45;&gt;better_shutdown::signal_fut</title>
<path fill="none" stroke="#000000" d="M323.53,-175.86C257.71,-194.74 150.31,-245.46 107.45,-279.48"/>
<polygon fill="#000000" stroke="#000000" points="105.09,-276.89 99.77,-286.05 109.64,-282.21 105.09,-276.89"/>
<text text-anchor="middle" x="202.99" y="-230.67" font-family="monospace" font-size="10.00">owns</text>
</g>
<!-- better_shutdown&#45;&gt;better_shutdown::signal_fut -->
<g id="edge9" class="edge">
<title>better_shutdown&#45;&gt;better_shutdown::signal_fut</title>
<path fill="none" stroke="#7f7f7f" stroke-dasharray="5,2" d="M366.86,-192.89C337.71,-220.04 255.88,-261.84 188.5,-287.58"/>
<polygon fill="#7f7f7f" stroke="#7f7f7f" points="187.23,-284.32 179.1,-291.1 189.69,-290.87 187.23,-284.32"/>
<text text-anchor="middle" x="265.18" y="-243.23" font-family="monospace" font-size="10.00">uses</text>
</g>
<!-- better_shutdown::wait_list -->
<g id="node7" class="node">
<title>better_shutdown::wait_list</title>
<polygon fill="#f8c04c" stroke="black" points="208.63,-0.5 208.63,-38.5 381.63,-38.5 381.63,-0.5 208.63,-0.5"/>
<text text-anchor="middle" x="295.13" y="-26.5" font-family="monospace" font-size="10.00">pub(crate) mod</text>
<polyline fill="none" stroke="black" points="208.63,-19.5 381.63,-19.5 "/>
<text text-anchor="middle" x="295.13" y="-7.5" font-family="monospace" font-size="10.00">better_shutdown::wait_list</text>
</g>
<!-- better_shutdown&#45;&gt;better_shutdown::wait_list -->
<g id="edge10" class="edge">
<title>better_shutdown&#45;&gt;better_shutdown::wait_list</title>
<path fill="none" stroke="#000000" d="M367.01,-154.41C352.75,-127.65 326.8,-78.94 310.29,-47.95"/>
<polygon fill="#000000" stroke="#000000" points="313.28,-46.13 305.49,-38.95 307.11,-49.42 313.28,-46.13"/>
<text text-anchor="middle" x="326.15" y="-104.18" font-family="monospace" font-size="10.00">owns</text>
</g>
<!-- better_shutdown::waiter -->
<g id="node8" class="node">
<title>better_shutdown::waiter</title>
<polygon fill="#f8c04c" stroke="black" points="98.76,-169.71 98.76,-207.71 253.76,-207.71 253.76,-169.71 98.76,-169.71"/>
<text text-anchor="middle" x="176.26" y="-195.71" font-family="monospace" font-size="10.00">pub(crate) mod</text>
<polyline fill="none" stroke="black" points="98.76,-188.71 253.76,-188.71 "/>
<text text-anchor="middle" x="176.26" y="-176.71" font-family="monospace" font-size="10.00">better_shutdown::waiter</text>
</g>
<!-- better_shutdown&#45;&gt;better_shutdown::waiter -->
<g id="edge11" class="edge">
<title>better_shutdown&#45;&gt;better_shutdown::waiter</title>
<path fill="none" stroke="#000000" d="M335.4,-154.59C296.71,-150.37 240.18,-155.25 205.94,-166.22"/>
<polygon fill="#000000" stroke="#000000" points="204.7,-162.95 196.49,-169.65 207.08,-169.53 204.7,-162.95"/>
<text text-anchor="middle" x="258.17" y="-152.41" font-family="monospace" font-size="10.00">owns</text>
</g>
<!-- better_shutdown&#45;&gt;better_shutdown::waiter -->
<g id="edge12" class="edge">
<title>better_shutdown&#45;&gt;better_shutdown::waiter</title>
<path fill="none" stroke="#7f7f7f" stroke-dasharray="5,2" d="M357.05,-192.66C327.12,-205.02 270.04,-211.38 227.99,-208.59"/>
<polygon fill="#7f7f7f" stroke="#7f7f7f" points="228.19,-205.09 217.92,-207.71 227.58,-212.07 228.19,-205.09"/>
<text text-anchor="middle" x="280.02" y="-203.63" font-family="monospace" font-size="10.00">uses</text>
</g>
<!-- better_shutdown::completion_fut&#45;&gt;better_shutdown::shared -->
<g id="edge13" class="edge">
<title>better_shutdown::completion_fut&#45;&gt;better_shutdown::shared</title>
<path fill="none" stroke="#7f7f7f" stroke-dasharray="5,2" d="M529.92,-55.6C497.1,-105.1 409.57,-237.08 371.25,-294.88"/>
<polygon fill="#7f7f7f" stroke="#7f7f7f" points="368.15,-293.22 365.54,-303.49 373.98,-297.09 368.15,-293.22"/>
<text text-anchor="middle" x="463.09" y="-178.24" font-family="monospace" font-size="10.00">uses</text>
</g>
<!-- better_shutdown::completion_fut&#45;&gt;better_shutdown::wait_list -->
<g id="edge14" class="edge">
<title>better_shutdown::completion_fut&#45;&gt;better_shutdown::wait_list</title>
<path fill="none" stroke="#7f7f7f" stroke-dasharray="5,2" d="M440.92,-29.44C424.84,-28.34 408.24,-27.21 392.27,-26.12"/>
<polygon fill="#7f7f7f" stroke="#7f7f7f" points="392.09,-22.6 381.88,-25.41 391.62,-29.59 392.09,-22.6"/>
<text text-anchor="middle" x="404.09" y="-30.78" font-family="monospace" font-size="10.00">uses</text>
</g>
<!-- better_shutdown::controller&#45;&gt;better_shutdown::backtrace_list -->
<g id="edge15" class="edge">
<title>better_shutdown::controller&#45;&gt;better_shutdown::backtrace_list</title>
<path fill="none" stroke="#7f7f7f" stroke-dasharray="5,2" d="M537.27,-344.94C553.09,-312.48 585.1,-246.81 603.5,-209.05"/>
<polygon fill="#7f7f7f" stroke="#7f7f7f" points="606.85,-210.16 608.09,-199.63 600.56,-207.09 606.85,-210.16"/>
<text text-anchor="middle" x="557.89" y="-279.99" font-family="monospace" font-size="10.00">uses</text>
</g>
<!-- better_shutdown::controller&#45;&gt;better_shutdown::completion_fut -->
<g id="edge16" class="edge">
<title>better_shutdown::controller&#45;&gt;better_shutdown::completion_fut</title>
<path fill="none" stroke="#7f7f7f" stroke-dasharray="5,2" d="M528.72,-345.2C531.2,-290.31 538.38,-131.5 541.35,-65.58"/>
<polygon fill="#7f7f7f" stroke="#7f7f7f" points="544.86,-65.62 541.81,-55.47 537.86,-65.3 544.86,-65.62"/>
<text text-anchor="middle" x="522.54" y="-208.39" font-family="monospace" font-size="10.00">uses</text>
</g>
<!-- better_shutdown::controller&#45;&gt;better_shutdown::shared -->
<g id="edge17" class="edge">
<title>better_shutdown::controller&#45;&gt;better_shutdown::shared</title>
<path fill="none" stroke="#7f7f7f" stroke-dasharray="5,2" d="M447.78,-345.21C445.26,-344.61 442.73,-344.01 440.2,-343.41"/>
<polygon fill="#7f7f7f" stroke="#7f7f7f" points="441,-340 430.47,-341.09 439.39,-346.81 441,-340"/>
<text text-anchor="middle" x="456.49" y="-336.31" font-family="monospace" font-size="10.00">uses</text>
</g>
<!-- better_shutdown::controller&#45;&gt;better_shutdown::waiter -->
<g id="edge18" class="edge">
<title>better_shutdown::controller&#45;&gt;better_shutdown::waiter</title>
<path fill="none" stroke="#7f7f7f" stroke-dasharray="5,2" d="M489.56,-345.13C424.83,-312.81 293.99,-247.49 223.61,-212.35"/>
<polygon fill="#7f7f7f" stroke="#7f7f7f" points="225.02,-209.14 214.51,-207.8 221.89,-215.4 225.02,-209.14"/>
<text text-anchor="middle" x="344.09" y="-281.74" font-family="monospace" font-size="10.00">uses</text>
</g>
<!-- better_shutdown::shared&#45;&gt;better_shutdown::backtrace_list -->
<g id="edge19" class="edge">
<title>better_shutdown::shared&#45;&gt;better_shutdown::backtrace_list</title>
<path fill="none" stroke="#7f7f7f" stroke-dasharray="5,2" d="M388.24,-303.62C435.92,-278.02 520.78,-232.45 572.76,-204.54"/>
<polygon fill="#7f7f7f" stroke="#7f7f7f" points="574.6,-207.52 581.76,-199.71 571.29,-201.36 574.6,-207.52"/>
<text text-anchor="middle" x="468" y="-246.08" font-family="monospace" font-size="10.00">uses</text>
</g>
<!-- better_shutdown::shared&#45;&gt;better_shutdown::wait_list -->
<g id="edge20" class="edge">
<title>better_shutdown::shared&#45;&gt;better_shutdown::wait_list</title>
<path fill="none" stroke="#7f7f7f" stroke-dasharray="5,2" d="M349.14,-303.21C339.31,-251.56 312.47,-110.57 300.74,-48.96"/>
<polygon fill="#7f7f7f" stroke="#7f7f7f" points="304.11,-47.93 298.8,-38.76 297.23,-49.24 304.11,-47.93"/>
<text text-anchor="middle" x="312.44" y="-179.09" font-family="monospace" font-size="10.00">uses</text>
</g>
<!-- better_shutdown::signal_fut&#45;&gt;better_shutdown::shared -->
<g id="edge21" class="edge">
<title>better_shutdown::signal_fut&#45;&gt;better_shutdown::shared</title>
<path fill="none" stroke="#7f7f7f" stroke-dasharray="5,2" d="M179.02,-311.13C206.78,-312.97 237.33,-314.99 264.97,-316.82"/>
<polygon fill="#7f7f7f" stroke="#7f7f7f" points="264.8,-320.32 275.01,-317.48 265.26,-313.33 264.8,-320.32"/>
<text text-anchor="middle" x="209.5" y="-316.98" font-family="monospace" font-size="10.00">uses</text>
</g>
<!-- better_shutdown::signal_fut&#45;&gt;better_shutdown::wait_list -->
<g id="edge22" class="edge">
<title>better_shutdown::signal_fut&#45;&gt;better_shutdown::wait_list</title>
<path fill="none" stroke="#7f7f7f" stroke-dasharray="5,2" d="M103.31,-286.02C138.94,-236.51 234.07,-104.34 275.45,-46.85"/>
<polygon fill="#7f7f7f" stroke="#7f7f7f" points="278.38,-48.77 281.38,-38.61 272.7,-44.68 278.38,-48.77"/>
<text text-anchor="middle" x="176.88" y="-158.43" font-family="monospace" font-size="10.00">uses</text>
</g>
<!-- better_shutdown::wait_list&#45;&gt;better_shutdown::backtrace_list -->
<g id="edge23" class="edge">
<title>better_shutdown::wait_list&#45;&gt;better_shutdown::backtrace_list</title>
<path fill="none" stroke="#7f7f7f" stroke-dasharray="5,2" d="M333.36,-38.61C392.47,-68.16 505.92,-124.87 570.09,-156.95"/>
<polygon fill="#7f7f7f" stroke="#7f7f7f" points="568.68,-160.16 579.19,-161.5 571.81,-153.9 568.68,-160.16"/>
<text text-anchor="middle" x="439.23" y="-100.78" font-family="monospace" font-size="10.00">uses</text>
</g>
<!-- better_shutdown::waiter&#45;&gt;better_shutdown::shared -->
<g id="edge24" class="edge">
<title>better_shutdown::waiter&#45;&gt;better_shutdown::shared</title>
<path fill="none" stroke="#7f7f7f" stroke-dasharray="5,2" d="M201.56,-207.89C232.5,-231.36 284.99,-271.17 319.29,-297.18"/>
<polygon fill="#7f7f7f" stroke="#7f7f7f" points="317.51,-300.23 327.59,-303.48 321.74,-294.65 317.51,-300.23"/>
<text text-anchor="middle" x="247.92" y="-255.54" font-family="monospace" font-size="10.00">uses</text>
</g>
<!-- better_shutdown::waiter&#45;&gt;better_shutdown::signal_fut -->
<g id="edge25" class="edge">
<title>better_shutdown::waiter&#45;&gt;better_shutdown::signal_fut</title>
<path fill="none" stroke="#7f7f7f" stroke-dasharray="5,2" d="M161.93,-207.94C147.74,-227 125.87,-256.37 109.88,-277.85"/>
<polygon fill="#7f7f7f" stroke="#7f7f7f" points="107.01,-275.83 103.85,-285.94 112.63,-280.01 107.01,-275.83"/>
<text text-anchor="middle" x="123.4" y="-245.9" font-family="monospace" font-size="10.00">uses</text>
</g>
<!-- better_shutdown::waiter&#45;&gt;better_shutdown::wait_list -->
<g id="edge26" class="edge">
<title>better_shutdown::waiter&#45;&gt;better_shutdown::wait_list</title>
<path fill="none" stroke="#7f7f7f" stroke-dasharray="5,2" d="M189.66,-169.62C210.77,-139.59 251.82,-81.15 276.01,-46.72"/>
<polygon fill="#7f7f7f" stroke="#7f7f7f" points="278.89,-48.71 281.77,-38.51 273.16,-44.68 278.89,-48.71"/>
<text text-anchor="middle" x="220.34" y="-111.17" font-family="monospace" font-size="10.00">uses</text>
</g>
</g>
</svg>
