<?xml version="1.0" encoding="UTF-8" standalone="no"?>
<!DOCTYPE svg PUBLIC "-//W3C//DTD SVG 1.1//EN"
 "http://www.w3.org/Graphics/SVG/1.1/DTD/svg11.dtd">
<!-- Generated by graphviz version 4.0.0 (0)
 -->
<!-- Pages: 1 -->
<svg width="1022pt" height="722pt"
 viewBox="0.00 0.00 1021.51 722.30" xmlns="http://www.w3.org/2000/svg" xmlns:xlink="http://www.w3.org/1999/xlink">
<g id="graph0" class="graph" transform="scale(1 1) rotate(0) translate(28.8 693.5)">
<polygon fill="white" stroke="transparent" points="-28.8,28.8 -28.8,-693.5 992.71,-693.5 992.71,28.8 -28.8,28.8"/>
<text text-anchor="middle" x="481.96" y="-631.9" font-family="Helvetica,sans-Serif" font-size="36.00">lightning_keystore</text>
<!-- lightning_keystore -->
<g id="node1" class="node">
<title>lightning_keystore</title>
<polygon fill="#5397c8" stroke="black" points="473.82,-171.39 473.82,-209.39 598.82,-209.39 598.82,-171.39 473.82,-171.39"/>
<text text-anchor="middle" x="536.32" y="-197.39" font-family="monospace" font-size="10.00">crate</text>
<polyline fill="none" stroke="black" points="473.82,-190.39 598.82,-190.39 "/>
<text text-anchor="middle" x="536.32" y="-178.39" font-family="monospace" font-size="10.00">lightning_keystore</text>
</g>
<!-- lightning_keystore::config::KeystoreConfig -->
<g id="node2" class="node">
<title>lightning_keystore::config::KeystoreConfig</title>
<polygon fill="#81c169" stroke="black" points="229.75,-321.64 229.75,-359.64 378.75,-359.64 378.75,-321.64 229.75,-321.64"/>
<text text-anchor="middle" x="304.25" y="-347.64" font-family="monospace" font-size="10.00">pub struct</text>
<polyline fill="none" stroke="black" points="229.75,-340.64 378.75,-340.64 "/>
<text text-anchor="middle" x="304.25" y="-328.64" font-family="monospace" font-size="10.00">config::KeystoreConfig</text>
</g>
<!-- lightning_keystore&#45;&gt;lightning_keystore::config::KeystoreConfig -->
<g id="edge1" class="edge">
<title>lightning_keystore&#45;&gt;lightning_keystore::config::KeystoreConfig</title>
<path fill="none" stroke="#000000" d="M473.62,-203.93C419.48,-230.2 346.1,-280.25 316.39,-313.34"/>
<polygon fill="#000000" stroke="#000000" points="313.44,-311.41 309.81,-321.36 318.86,-315.85 313.44,-311.41"/>
<text text-anchor="middle" x="382.51" y="-261.63" font-family="monospace" font-size="10.00">owns</text>
</g>
<!-- lightning_keystore&#45;&gt;lightning_keystore::config::KeystoreConfig -->
<g id="edge2" class="edge">
<title>lightning_keystore&#45;&gt;lightning_keystore::config::KeystoreConfig</title>
<path fill="none" stroke="#7f7f7f" stroke-dasharray="5,2" d="M530.94,-209.42C510.01,-238.32 442.89,-286.49 386.85,-316.86"/>
<polygon fill="#7f7f7f" stroke="#7f7f7f" points="385.16,-313.8 377.96,-321.57 388.44,-319.98 385.16,-313.8"/>
<text text-anchor="middle" x="446.4" y="-266.14" font-family="monospace" font-size="10.00">uses</text>
</g>
<!-- lightning_keystore::keystore::Keystore -->
<g id="node6" class="node">
<title>lightning_keystore::keystore::Keystore</title>
<polygon fill="#81c169" stroke="black" points="570.86,-363.97 570.86,-401.97 695.86,-401.97 695.86,-363.97 570.86,-363.97"/>
<text text-anchor="middle" x="633.36" y="-389.97" font-family="monospace" font-size="10.00">pub struct</text>
<polyline fill="none" stroke="black" points="570.86,-382.97 695.86,-382.97 "/>
<text text-anchor="middle" x="633.36" y="-370.97" font-family="monospace" font-size="10.00">keystore::Keystore</text>
</g>
<!-- lightning_keystore&#45;&gt;lightning_keystore::keystore::Keystore -->
<g id="edge3" class="edge">
<title>lightning_keystore&#45;&gt;lightning_keystore::keystore::Keystore</title>
<path fill="none" stroke="#000000" d="M529.98,-209.43C531.94,-244.3 565.25,-316 595.25,-355.79"/>
<polygon fill="#000000" stroke="#000000" points="592.63,-358.11 601.59,-363.77 598.11,-353.76 592.63,-358.11"/>
<text text-anchor="middle" x="550.11" y="-285.61" font-family="monospace" font-size="10.00">owns</text>
</g>
<!-- lightning_keystore&#45;&gt;lightning_keystore::keystore::Keystore -->
<g id="edge4" class="edge">
<title>lightning_keystore&#45;&gt;lightning_keystore::keystore::Keystore</title>
<path fill="none" stroke="#7f7f7f" stroke-dasharray="5,2" d="M568.04,-209.52C596.87,-243.75 631.28,-313.53 638.45,-353.71"/>
<polygon fill="#7f7f7f" stroke="#7f7f7f" points="634.99,-354.24 639.7,-363.73 641.94,-353.37 634.99,-354.24"/>
<text text-anchor="middle" x="590.75" y="-284.62" font-family="monospace" font-size="10.00">uses</text>
</g>
<!-- lightning_keystore::keystore::save -->
<g id="node14" class="node">
<title>lightning_keystore::keystore::save</title>
<polygon fill="#db5367" stroke="black" points="596.8,-0.5 596.8,-38.5 697.8,-38.5 697.8,-0.5 596.8,-0.5"/>
<text text-anchor="middle" x="647.3" y="-26.5" font-family="monospace" font-size="10.00">pub(self) fn</text>
<polyline fill="none" stroke="black" points="596.8,-19.5 697.8,-19.5 "/>
<text text-anchor="middle" x="647.3" y="-7.5" font-family="monospace" font-size="10.00">keystore::save</text>
</g>
<!-- lightning_keystore&#45;&gt;lightning_keystore::keystore::save -->
<g id="edge5" class="edge">
<title>lightning_keystore&#45;&gt;lightning_keystore::keystore::save</title>
<path fill="none" stroke="#000000" d="M548.84,-171.12C568.46,-140.91 606.54,-82.27 629.16,-47.43"/>
<polygon fill="#000000" stroke="#000000" points="632.32,-48.99 634.83,-38.7 626.45,-45.18 632.32,-48.99"/>
<text text-anchor="middle" x="576.5" y="-112.27" font-family="monospace" font-size="10.00">owns</text>
</g>
<!-- lightning_keystore::config::KeystoreConfig::load_test_keys -->
<g id="node3" class="node">
<title>lightning_keystore::config::KeystoreConfig::load_test_keys</title>
<polygon fill="#81c169" stroke="black" points="75.68,-503.82 75.68,-541.82 320.68,-541.82 320.68,-503.82 75.68,-503.82"/>
<text text-anchor="middle" x="198.18" y="-529.82" font-family="monospace" font-size="10.00">pub fn</text>
<polyline fill="none" stroke="black" points="75.68,-522.82 320.68,-522.82 "/>
<text text-anchor="middle" x="198.18" y="-510.82" font-family="monospace" font-size="10.00">config::KeystoreConfig::load_test_keys</text>
</g>
<!-- lightning_keystore::config::KeystoreConfig&#45;&gt;lightning_keystore::config::KeystoreConfig::load_test_keys -->
<g id="edge6" class="edge">
<title>lightning_keystore::config::KeystoreConfig&#45;&gt;lightning_keystore::config::KeystoreConfig::load_test_keys</title>
<path fill="none" stroke="#000000" d="M269.2,-359.97C239.37,-392.46 203.59,-455.79 194.64,-493.62"/>
<polygon fill="#000000" stroke="#000000" points="191.17,-493.11 192.85,-503.57 198.06,-494.35 191.17,-493.11"/>
<text text-anchor="middle" x="219.42" y="-429.8" font-family="monospace" font-size="10.00">owns</text>
</g>
<!-- lightning_keystore::config::KeystoreConfig::test -->
<g id="node4" class="node">
<title>lightning_keystore::config::KeystoreConfig::test</title>
<polygon fill="#81c169" stroke="black" points="0,-364.95 0,-402.95 185,-402.95 185,-364.95 0,-364.95"/>
<text text-anchor="middle" x="92.5" y="-390.95" font-family="monospace" font-size="10.00">pub fn</text>
<polyline fill="none" stroke="black" points="0,-383.95 185,-383.95 "/>
<text text-anchor="middle" x="92.5" y="-371.95" font-family="monospace" font-size="10.00">config::KeystoreConfig::test</text>
</g>
<!-- lightning_keystore::config::KeystoreConfig&#45;&gt;lightning_keystore::config::KeystoreConfig::test -->
<g id="edge7" class="edge">
<title>lightning_keystore::config::KeystoreConfig&#45;&gt;lightning_keystore::config::KeystoreConfig::test</title>
<path fill="none" stroke="#000000" d="M229.5,-329.86C189.6,-334.68 143.24,-346.45 115.92,-359.98"/>
<polygon fill="#000000" stroke="#000000" points="114.17,-356.95 107.09,-364.83 117.54,-363.08 114.17,-356.95"/>
<text text-anchor="middle" x="160.21" y="-347.92" font-family="monospace" font-size="10.00">owns</text>
</g>
<!-- lightning_keystore::config::KeystoreConfig::test2 -->
<g id="node5" class="node">
<title>lightning_keystore::config::KeystoreConfig::test2</title>
<polygon fill="#81c169" stroke="black" points="34.91,-209.74 34.91,-247.74 225.91,-247.74 225.91,-209.74 34.91,-209.74"/>
<text text-anchor="middle" x="130.41" y="-235.74" font-family="monospace" font-size="10.00">pub fn</text>
<polyline fill="none" stroke="black" points="34.91,-228.74 225.91,-228.74 "/>
<text text-anchor="middle" x="130.41" y="-216.74" font-family="monospace" font-size="10.00">config::KeystoreConfig::test2</text>
</g>
<!-- lightning_keystore::config::KeystoreConfig&#45;&gt;lightning_keystore::config::KeystoreConfig::test2 -->
<g id="edge8" class="edge">
<title>lightning_keystore::config::KeystoreConfig&#45;&gt;lightning_keystore::config::KeystoreConfig::test2</title>
<path fill="none" stroke="#000000" d="M300.74,-321.62C287.97,-301.55 252.79,-273.92 217.54,-253.11"/>
<polygon fill="#000000" stroke="#000000" points="219.01,-249.91 208.59,-247.97 215.52,-255.98 219.01,-249.91"/>
<text text-anchor="middle" x="246.64" y="-290.36" font-family="monospace" font-size="10.00">owns</text>
</g>
<!-- lightning_keystore::config::KeystoreConfig::load_test_keys&#45;&gt;lightning_keystore::config::KeystoreConfig -->
<g id="edge9" class="edge">
<title>lightning_keystore::config::KeystoreConfig::load_test_keys&#45;&gt;lightning_keystore::config::KeystoreConfig</title>
<path fill="none" stroke="#7f7f7f" stroke-dasharray="5,2" d="M233.23,-503.49C263.06,-471.01 298.85,-407.68 307.8,-369.84"/>
<polygon fill="#7f7f7f" stroke="#7f7f7f" points="311.26,-370.35 309.58,-359.89 304.37,-369.11 311.26,-370.35"/>
<text text-anchor="middle" x="258.01" y="-439.67" font-family="monospace" font-size="10.00">uses</text>
</g>
<!-- lightning_keystore::config::KeystoreConfig::test&#45;&gt;lightning_keystore::config::KeystoreConfig -->
<g id="edge10" class="edge">
<title>lightning_keystore::config::KeystoreConfig::test&#45;&gt;lightning_keystore::config::KeystoreConfig</title>
<path fill="none" stroke="#7f7f7f" stroke-dasharray="5,2" d="M185.19,-392.18C220.31,-386.43 257.4,-376.19 280.71,-364.67"/>
<polygon fill="#7f7f7f" stroke="#7f7f7f" points="282.43,-367.72 289.52,-359.85 279.07,-361.58 282.43,-367.72"/>
<text text-anchor="middle" x="220.45" y="-381.43" font-family="monospace" font-size="10.00">uses</text>
</g>
<!-- lightning_keystore::config::KeystoreConfig::test2&#45;&gt;lightning_keystore::config::KeystoreConfig -->
<g id="edge11" class="edge">
<title>lightning_keystore::config::KeystoreConfig::test2&#45;&gt;lightning_keystore::config::KeystoreConfig</title>
<path fill="none" stroke="#7f7f7f" stroke-dasharray="5,2" d="M133.92,-247.76C147.14,-268.54 184.34,-297.4 220.79,-318.43"/>
<polygon fill="#7f7f7f" stroke="#7f7f7f" points="219.1,-321.49 229.53,-323.32 222.52,-315.38 219.1,-321.49"/>
<text text-anchor="middle" x="164.86" y="-286.1" font-family="monospace" font-size="10.00">uses</text>
</g>
<!-- lightning_keystore::keystore::Keystore::Config -->
<g id="node7" class="node">
<title>lightning_keystore::keystore::Keystore::Config</title>
<polygon fill="#db5367" stroke="black" points="386.77,-336.01 386.77,-374.01 559.77,-374.01 559.77,-336.01 386.77,-336.01"/>
<text text-anchor="middle" x="473.27" y="-362.01" font-family="monospace" font-size="10.00">pub(self) type</text>
<polyline fill="none" stroke="black" points="386.77,-355.01 559.77,-355.01 "/>
<text text-anchor="middle" x="473.27" y="-343.01" font-family="monospace" font-size="10.00">keystore::Keystore::Config</text>
</g>
<!-- lightning_keystore::keystore::Keystore&#45;&gt;lightning_keystore::keystore::Keystore::Config -->
<g id="edge12" class="edge">
<title>lightning_keystore::keystore::Keystore&#45;&gt;lightning_keystore::keystore::Keystore::Config</title>
<path fill="none" stroke="#000000" d="M570.55,-372C570.33,-371.96 570.11,-371.92 569.89,-371.88"/>
<polygon fill="#000000" stroke="#000000" points="570.38,-368.42 559.93,-370.14 569.18,-375.31 570.38,-368.42"/>
<text text-anchor="middle" x="557.72" y="-374.94" font-family="monospace" font-size="10.00">owns</text>
</g>
<!-- lightning_keystore::keystore::Keystore::generate_keys -->
<g id="node8" class="node">
<title>lightning_keystore::keystore::Keystore::generate_keys</title>
<polygon fill="#db5367" stroke="black" points="319.34,-229.66 319.34,-267.66 534.34,-267.66 534.34,-229.66 319.34,-229.66"/>
<text text-anchor="middle" x="426.84" y="-255.66" font-family="monospace" font-size="10.00">pub(self) fn</text>
<polyline fill="none" stroke="black" points="319.34,-248.66 534.34,-248.66 "/>
<text text-anchor="middle" x="426.84" y="-236.66" font-family="monospace" font-size="10.00">keystore::Keystore::generate_keys</text>
</g>
<!-- lightning_keystore::keystore::Keystore&#45;&gt;lightning_keystore::keystore::Keystore::generate_keys -->
<g id="edge13" class="edge">
<title>lightning_keystore::keystore::Keystore&#45;&gt;lightning_keystore::keystore::Keystore::generate_keys</title>
<path fill="none" stroke="#000000" d="M603.77,-363.72C567.2,-339.94 504.89,-299.42 464.81,-273.35"/>
<polygon fill="#000000" stroke="#000000" points="466.66,-270.38 456.37,-267.86 462.85,-276.25 466.66,-270.38"/>
<text text-anchor="middle" x="521.79" y="-321.54" font-family="monospace" font-size="10.00">owns</text>
</g>
<!-- lightning_keystore::keystore::Keystore::get_bls_pk -->
<g id="node9" class="node">
<title>lightning_keystore::keystore::Keystore::get_bls_pk</title>
<polygon fill="#db5367" stroke="black" points="685.41,-220.68 685.41,-258.68 882.41,-258.68 882.41,-220.68 685.41,-220.68"/>
<text text-anchor="middle" x="783.91" y="-246.68" font-family="monospace" font-size="10.00">pub(self) fn</text>
<polyline fill="none" stroke="black" points="685.41,-239.68 882.41,-239.68 "/>
<text text-anchor="middle" x="783.91" y="-227.68" font-family="monospace" font-size="10.00">keystore::Keystore::get_bls_pk</text>
</g>
<!-- lightning_keystore::keystore::Keystore&#45;&gt;lightning_keystore::keystore::Keystore::get_bls_pk -->
<g id="edge14" class="edge">
<title>lightning_keystore::keystore::Keystore&#45;&gt;lightning_keystore::keystore::Keystore::get_bls_pk</title>
<path fill="none" stroke="#000000" d="M688.21,-363.74C722.95,-338.49 763.35,-297.21 779.48,-268.36"/>
<polygon fill="#000000" stroke="#000000" points="782.76,-269.62 783.98,-259.09 776.46,-266.56 782.76,-269.62"/>
<text text-anchor="middle" x="721.34" y="-319.05" font-family="monospace" font-size="10.00">owns</text>
</g>
<!-- lightning_keystore::keystore::Keystore::get_bls_sk -->
<g id="node10" class="node">
<title>lightning_keystore::keystore::Keystore::get_bls_sk</title>
<polygon fill="#db5367" stroke="black" points="691.85,-516.51 691.85,-554.51 888.85,-554.51 888.85,-516.51 691.85,-516.51"/>
<text text-anchor="middle" x="790.35" y="-542.51" font-family="monospace" font-size="10.00">pub(self) fn</text>
<polyline fill="none" stroke="black" points="691.85,-535.51 888.85,-535.51 "/>
<text text-anchor="middle" x="790.35" y="-523.51" font-family="monospace" font-size="10.00">keystore::Keystore::get_bls_sk</text>
</g>
<!-- lightning_keystore::keystore::Keystore&#45;&gt;lightning_keystore::keystore::Keystore::get_bls_sk -->
<g id="edge15" class="edge">
<title>lightning_keystore::keystore::Keystore&#45;&gt;lightning_keystore::keystore::Keystore::get_bls_sk</title>
<path fill="none" stroke="#000000" d="M633.33,-402.18C644.59,-430.63 689.41,-479.2 728.81,-510.01"/>
<polygon fill="#000000" stroke="#000000" points="727.04,-513.06 737.13,-516.3 731.26,-507.48 727.04,-513.06"/>
<text text-anchor="middle" x="668.57" y="-459.09" font-family="monospace" font-size="10.00">owns</text>
</g>
<!-- lightning_keystore::keystore::Keystore::get_ed25519_pk -->
<g id="node11" class="node">
<title>lightning_keystore::keystore::Keystore::get_ed25519_pk</title>
<polygon fill="#db5367" stroke="black" points="526.95,-578.2 526.95,-616.2 747.95,-616.2 747.95,-578.2 526.95,-578.2"/>
<text text-anchor="middle" x="637.45" y="-604.2" font-family="monospace" font-size="10.00">pub(self) fn</text>
<polyline fill="none" stroke="black" points="526.95,-597.2 747.95,-597.2 "/>
<text text-anchor="middle" x="637.45" y="-585.2" font-family="monospace" font-size="10.00">keystore::Keystore::get_ed25519_pk</text>
</g>
<!-- lightning_keystore::keystore::Keystore&#45;&gt;lightning_keystore::keystore::Keystore::get_ed25519_pk -->
<g id="edge16" class="edge">
<title>lightning_keystore::keystore::Keystore&#45;&gt;lightning_keystore::keystore::Keystore::get_ed25519_pk</title>
<path fill="none" stroke="#000000" d="M617.54,-402.29C604.95,-440.07 605.53,-523.9 617.65,-568.31"/>
<polygon fill="#000000" stroke="#000000" points="614.34,-569.45 620.69,-577.93 621.01,-567.34 614.34,-569.45"/>
<text text-anchor="middle" x="605.1" y="-488.3" font-family="monospace" font-size="10.00">owns</text>
</g>
<!-- lightning_keystore::keystore::Keystore::get_ed25519_sk -->
<g id="node12" class="node">
<title>lightning_keystore::keystore::Keystore::get_ed25519_sk</title>
<polygon fill="#db5367" stroke="black" points="742.91,-368.32 742.91,-406.32 963.91,-406.32 963.91,-368.32 742.91,-368.32"/>
<text text-anchor="middle" x="853.41" y="-394.32" font-family="monospace" font-size="10.00">pub(self) fn</text>
<polyline fill="none" stroke="black" points="742.91,-387.32 963.91,-387.32 "/>
<text text-anchor="middle" x="853.41" y="-375.32" font-family="monospace" font-size="10.00">keystore::Keystore::get_ed25519_sk</text>
</g>
<!-- lightning_keystore::keystore::Keystore&#45;&gt;lightning_keystore::keystore::Keystore::get_ed25519_sk -->
<g id="edge17" class="edge">
<title>lightning_keystore::keystore::Keystore&#45;&gt;lightning_keystore::keystore::Keystore::get_ed25519_sk</title>
<path fill="none" stroke="#000000" d="M660.42,-402.08C698.17,-412.91 766.98,-415.31 811.42,-408.17"/>
<polygon fill="#000000" stroke="#000000" points="812.14,-411.6 821.33,-406.33 810.86,-404.71 812.14,-411.6"/>
<text text-anchor="middle" x="723.42" y="-408.13" font-family="monospace" font-size="10.00">owns</text>
</g>
<!-- lightning_keystore::keystore::Keystore::init -->
<g id="node13" class="node">
<title>lightning_keystore::keystore::Keystore::init</title>
<polygon fill="#db5367" stroke="black" points="364.03,-468.5 364.03,-506.5 525.03,-506.5 525.03,-468.5 364.03,-468.5"/>
<text text-anchor="middle" x="444.53" y="-494.5" font-family="monospace" font-size="10.00">pub(self) fn</text>
<polyline fill="none" stroke="black" points="364.03,-487.5 525.03,-487.5 "/>
<text text-anchor="middle" x="444.53" y="-475.5" font-family="monospace" font-size="10.00">keystore::Keystore::init</text>
</g>
<!-- lightning_keystore::keystore::Keystore&#45;&gt;lightning_keystore::keystore::Keystore::init -->
<g id="edge18" class="edge">
<title>lightning_keystore::keystore::Keystore&#45;&gt;lightning_keystore::keystore::Keystore::init</title>
<path fill="none" stroke="#000000" d="M570.76,-389.89C529.77,-406.64 480.01,-436.71 456.68,-460.61"/>
<polygon fill="#000000" stroke="#000000" points="453.77,-458.61 449.83,-468.44 459.04,-463.22 453.77,-458.61"/>
<text text-anchor="middle" x="501.22" y="-428.25" font-family="monospace" font-size="10.00">owns</text>
</g>
<!-- lightning_keystore::keystore::Keystore::Config&#45;&gt;lightning_keystore::config::KeystoreConfig -->
<g id="edge19" class="edge">
<title>lightning_keystore::keystore::Keystore::Config&#45;&gt;lightning_keystore::config::KeystoreConfig</title>
<path fill="none" stroke="#7f7f7f" stroke-dasharray="5,2" d="M386.28,-347.62C386.13,-347.6 385.98,-347.59 385.83,-347.58"/>
<polygon fill="#7f7f7f" stroke="#7f7f7f" points="389.28,-344.36 379.02,-347 388.69,-351.33 389.28,-344.36"/>
<text text-anchor="middle" x="373.56" y="-350.6" font-family="monospace" font-size="10.00">uses</text>
</g>
<!-- lightning_keystore::keystore::Keystore::generate_keys&#45;&gt;lightning_keystore::config::KeystoreConfig -->
<g id="edge20" class="edge">
<title>lightning_keystore::keystore::Keystore::generate_keys&#45;&gt;lightning_keystore::config::KeystoreConfig</title>
<path fill="none" stroke="#7f7f7f" stroke-dasharray="5,2" d="M401.44,-267.72C383.03,-281.53 357.95,-300.35 337.88,-315.41"/>
<polygon fill="#7f7f7f" stroke="#7f7f7f" points="335.52,-312.81 329.62,-321.61 339.72,-318.4 335.52,-312.81"/>
<text text-anchor="middle" x="357.16" y="-294.56" font-family="monospace" font-size="10.00">uses</text>
</g>
<!-- lightning_keystore::keystore::Keystore::get_bls_pk&#45;&gt;lightning_keystore::keystore::Keystore -->
<g id="edge21" class="edge">
<title>lightning_keystore::keystore::Keystore::get_bls_pk&#45;&gt;lightning_keystore::keystore::Keystore</title>
<path fill="none" stroke="#7f7f7f" stroke-dasharray="5,2" d="M729.07,-258.91C694.33,-284.16 653.93,-325.44 637.8,-354.29"/>
<polygon fill="#7f7f7f" stroke="#7f7f7f" points="634.52,-353.04 633.3,-363.56 640.82,-356.09 634.52,-353.04"/>
<text text-anchor="middle" x="670.93" y="-309.6" font-family="monospace" font-size="10.00">uses</text>
</g>
<!-- lightning_keystore::keystore::Keystore::get_bls_sk&#45;&gt;lightning_keystore::keystore::Keystore -->
<g id="edge22" class="edge">
<title>lightning_keystore::keystore::Keystore::get_bls_sk&#45;&gt;lightning_keystore::keystore::Keystore</title>
<path fill="none" stroke="#7f7f7f" stroke-dasharray="5,2" d="M790.38,-516.3C779.12,-487.85 734.3,-439.28 694.9,-408.47"/>
<polygon fill="#7f7f7f" stroke="#7f7f7f" points="696.67,-405.42 686.59,-402.18 692.45,-411 696.67,-405.42"/>
<text text-anchor="middle" x="730.14" y="-465.38" font-family="monospace" font-size="10.00">uses</text>
</g>
<!-- lightning_keystore::keystore::Keystore::get_ed25519_pk&#45;&gt;lightning_keystore::keystore::Keystore -->
<g id="edge23" class="edge">
<title>lightning_keystore::keystore::Keystore::get_ed25519_pk&#45;&gt;lightning_keystore::keystore::Keystore</title>
<path fill="none" stroke="#7f7f7f" stroke-dasharray="5,2" d="M653.28,-577.88C665.87,-540.1 665.29,-456.26 653.17,-411.86"/>
<polygon fill="#7f7f7f" stroke="#7f7f7f" points="656.48,-410.72 650.13,-402.24 649.8,-412.83 656.48,-410.72"/>
<text text-anchor="middle" x="640.72" y="-497.87" font-family="monospace" font-size="10.00">uses</text>
</g>
<!-- lightning_keystore::keystore::Keystore::get_ed25519_sk&#45;&gt;lightning_keystore::keystore::Keystore -->
<g id="edge24" class="edge">
<title>lightning_keystore::keystore::Keystore::get_ed25519_sk&#45;&gt;lightning_keystore::keystore::Keystore</title>
<path fill="none" stroke="#7f7f7f" stroke-dasharray="5,2" d="M826.36,-368.21C788.61,-357.38 719.8,-354.98 675.36,-362.12"/>
<polygon fill="#7f7f7f" stroke="#7f7f7f" points="674.64,-358.69 665.44,-363.96 675.92,-365.57 674.64,-358.69"/>
<text text-anchor="middle" x="738.36" y="-357.16" font-family="monospace" font-size="10.00">uses</text>
</g>
<!-- lightning_keystore::keystore::Keystore::init&#45;&gt;lightning_keystore::config::KeystoreConfig -->
<g id="edge25" class="edge">
<title>lightning_keystore::keystore::Keystore::init&#45;&gt;lightning_keystore::config::KeystoreConfig</title>
<path fill="none" stroke="#7f7f7f" stroke-dasharray="5,2" d="M426.19,-468.3C401.51,-442.47 357.5,-396.39 329.65,-367.23"/>
<polygon fill="#7f7f7f" stroke="#7f7f7f" points="332.03,-364.66 322.6,-359.85 326.97,-369.49 332.03,-364.66"/>
<text text-anchor="middle" x="365.42" y="-420.77" font-family="monospace" font-size="10.00">uses</text>
</g>
<!-- lightning_keystore::keystore::Keystore::init&#45;&gt;lightning_keystore::keystore::Keystore -->
<g id="edge26" class="edge">
<title>lightning_keystore::keystore::Keystore::init&#45;&gt;lightning_keystore::keystore::Keystore</title>
<path fill="none" stroke="#7f7f7f" stroke-dasharray="5,2" d="M525.05,-472.68C561.77,-455.39 601.28,-430.32 621.28,-409.81"/>
<polygon fill="#7f7f7f" stroke="#7f7f7f" points="623.99,-412.02 627.94,-402.19 618.72,-407.41 623.99,-412.02"/>
<text text-anchor="middle" x="560.66" y="-444.25" font-family="monospace" font-size="10.00">uses</text>
</g>
</g>
</svg>
