<?xml version="1.0" encoding="UTF-8" standalone="no"?>
<!DOCTYPE svg PUBLIC "-//W3C//DTD SVG 1.1//EN"
 "http://www.w3.org/Graphics/SVG/1.1/DTD/svg11.dtd">
<!-- Generated by graphviz version 4.0.0 (0)
 -->
<!-- Pages: 1 -->
<svg width="518pt" height="541pt"
 viewBox="0.00 0.00 517.60 540.60" xmlns="http://www.w3.org/2000/svg" xmlns:xlink="http://www.w3.org/1999/xlink">
<g id="graph0" class="graph" transform="scale(1 1) rotate(0) translate(28.8 511.8)">
<polygon fill="white" stroke="transparent" points="-28.8,28.8 -28.8,-511.8 488.8,-511.8 488.8,28.8 -28.8,28.8"/>
<text text-anchor="middle" x="230" y="-450.2" font-family="Helvetica,sans-Serif" font-size="36.00">lightning_fetcher</text>
<!-- lightning_fetcher -->
<g id="node1" class="node">
<title>lightning_fetcher</title>
<polygon fill="#5397c8" stroke="black" points="341.45,-154.62 341.45,-192.62 460.45,-192.62 460.45,-154.62 341.45,-154.62"/>
<text text-anchor="middle" x="400.95" y="-180.62" font-family="monospace" font-size="10.00">crate</text>
<polyline fill="none" stroke="black" points="341.45,-173.62 460.45,-173.62 "/>
<text text-anchor="middle" x="400.95" y="-161.62" font-family="monospace" font-size="10.00">lightning_fetcher</text>
</g>
<!-- lightning_fetcher::config -->
<g id="node2" class="node">
<title>lightning_fetcher::config</title>
<polygon fill="#81c169" stroke="black" points="271.36,-0.89 271.36,-38.89 438.36,-38.89 438.36,-0.89 271.36,-0.89"/>
<text text-anchor="middle" x="354.86" y="-26.89" font-family="monospace" font-size="10.00">pub mod</text>
<polyline fill="none" stroke="black" points="271.36,-19.89 438.36,-19.89 "/>
<text text-anchor="middle" x="354.86" y="-7.89" font-family="monospace" font-size="10.00">lightning_fetcher::config</text>
</g>
<!-- lightning_fetcher&#45;&gt;lightning_fetcher::config -->
<g id="edge1" class="edge">
<title>lightning_fetcher&#45;&gt;lightning_fetcher::config</title>
<path fill="none" stroke="#000000" d="M395.2,-154.46C387.27,-128 372.88,-80.02 363.61,-49.08"/>
<polygon fill="#000000" stroke="#000000" points="366.9,-47.87 360.67,-39.29 360.19,-49.88 366.9,-47.87"/>
<text text-anchor="middle" x="366.91" y="-104.77" font-family="monospace" font-size="10.00">owns</text>
</g>
<!-- lightning_fetcher::fetcher -->
<g id="node3" class="node">
<title>lightning_fetcher::fetcher</title>
<polygon fill="#81c169" stroke="black" points="160.43,-116.6 160.43,-154.6 333.43,-154.6 333.43,-116.6 160.43,-116.6"/>
<text text-anchor="middle" x="246.93" y="-142.6" font-family="monospace" font-size="10.00">pub mod</text>
<polyline fill="none" stroke="black" points="160.43,-135.6 333.43,-135.6 "/>
<text text-anchor="middle" x="246.93" y="-123.6" font-family="monospace" font-size="10.00">lightning_fetcher::fetcher</text>
</g>
<!-- lightning_fetcher&#45;&gt;lightning_fetcher::fetcher -->
<g id="edge2" class="edge">
<title>lightning_fetcher&#45;&gt;lightning_fetcher::fetcher</title>
<path fill="none" stroke="#000000" d="M341.4,-158.92C338.92,-158.31 336.41,-157.69 333.89,-157.07"/>
<polygon fill="#000000" stroke="#000000" points="334.67,-153.66 324.12,-154.66 332.99,-160.45 334.67,-153.66"/>
<text text-anchor="middle" x="325.15" y="-161" font-family="monospace" font-size="10.00">owns</text>
</g>
<!-- lightning_fetcher::origin -->
<g id="node4" class="node">
<title>lightning_fetcher::origin</title>
<polygon fill="#f8c04c" stroke="black" points="196.16,-272.8 196.16,-310.8 363.16,-310.8 363.16,-272.8 196.16,-272.8"/>
<text text-anchor="middle" x="279.66" y="-298.8" font-family="monospace" font-size="10.00">pub(crate) mod</text>
<polyline fill="none" stroke="black" points="196.16,-291.8 363.16,-291.8 "/>
<text text-anchor="middle" x="279.66" y="-279.8" font-family="monospace" font-size="10.00">lightning_fetcher::origin</text>
</g>
<!-- lightning_fetcher&#45;&gt;lightning_fetcher::origin -->
<g id="edge3" class="edge">
<title>lightning_fetcher&#45;&gt;lightning_fetcher::origin</title>
<path fill="none" stroke="#000000" d="M381.19,-192.87C360.93,-212.62 329.27,-243.47 306.69,-265.46"/>
<polygon fill="#000000" stroke="#000000" points="304.13,-263.07 299.41,-272.56 309.02,-268.08 304.13,-263.07"/>
<text text-anchor="middle" x="331.44" y="-232.17" font-family="monospace" font-size="10.00">owns</text>
</g>
<!-- lightning_fetcher::fetcher&#45;&gt;lightning_fetcher::config -->
<g id="edge4" class="edge">
<title>lightning_fetcher::fetcher&#45;&gt;lightning_fetcher::config</title>
<path fill="none" stroke="#7f7f7f" stroke-dasharray="5,2" d="M264.75,-116.49C282.56,-97.4 310.09,-67.88 330.04,-46.5"/>
<polygon fill="#7f7f7f" stroke="#7f7f7f" points="332.75,-48.73 337.01,-39.03 327.63,-43.95 332.75,-48.73"/>
<text text-anchor="middle" x="284.9" y="-84.5" font-family="monospace" font-size="10.00">uses</text>
</g>
<!-- lightning_fetcher::fetcher&#45;&gt;lightning_fetcher::origin -->
<g id="edge5" class="edge">
<title>lightning_fetcher::fetcher&#45;&gt;lightning_fetcher::origin</title>
<path fill="none" stroke="#7f7f7f" stroke-dasharray="5,2" d="M233.58,-154.63C227.89,-181.88 236.47,-231.84 250.71,-263.42"/>
<polygon fill="#7f7f7f" stroke="#7f7f7f" points="247.7,-265.21 255.31,-272.59 253.96,-262.08 247.7,-265.21"/>
<text text-anchor="middle" x="229.65" y="-212.02" font-family="monospace" font-size="10.00">uses</text>
</g>
<!-- tokio::sync::mpsc -->
<g id="node6" class="node">
<title>tokio::sync::mpsc</title>
<polygon fill="#81c169" stroke="black" points="72.51,-359.54 72.51,-397.54 191.51,-397.54 191.51,-359.54 72.51,-359.54"/>
<text text-anchor="middle" x="132.01" y="-385.54" font-family="monospace" font-size="10.00">external mod</text>
<polyline fill="none" stroke="black" points="72.51,-378.54 191.51,-378.54 "/>
<text text-anchor="middle" x="132.01" y="-366.54" font-family="monospace" font-size="10.00">tokio::sync::mpsc</text>
</g>
<!-- lightning_fetcher::fetcher&#45;&gt;tokio::sync::mpsc -->
<g id="edge6" class="edge">
<title>lightning_fetcher::fetcher&#45;&gt;tokio::sync::mpsc</title>
<path fill="none" stroke="#7f7f7f" stroke-dasharray="5,2" d="M237.91,-154.66C217.82,-197.13 169.29,-299.73 145.54,-349.92"/>
<polygon fill="#7f7f7f" stroke="#7f7f7f" points="142.25,-348.69 141.14,-359.23 148.58,-351.69 142.25,-348.69"/>
<text text-anchor="middle" x="179.23" y="-255.29" font-family="monospace" font-size="10.00">uses</text>
</g>
<!-- tokio::sync::oneshot -->
<g id="node7" class="node">
<title>tokio::sync::oneshot</title>
<polygon fill="#81c169" stroke="black" points="-0.39,-128.6 -0.39,-166.6 136.61,-166.6 136.61,-128.6 -0.39,-128.6"/>
<text text-anchor="middle" x="68.11" y="-154.6" font-family="monospace" font-size="10.00">external mod</text>
<polyline fill="none" stroke="black" points="-0.39,-147.6 136.61,-147.6 "/>
<text text-anchor="middle" x="68.11" y="-135.6" font-family="monospace" font-size="10.00">tokio::sync::oneshot</text>
</g>
<!-- lightning_fetcher::fetcher&#45;&gt;tokio::sync::oneshot -->
<g id="edge7" class="edge">
<title>lightning_fetcher::fetcher&#45;&gt;tokio::sync::oneshot</title>
<path fill="none" stroke="#7f7f7f" stroke-dasharray="5,2" d="M160.4,-141.41C155.94,-141.71 151.47,-142.01 147.03,-142.31"/>
<polygon fill="#7f7f7f" stroke="#7f7f7f" points="146.5,-138.83 136.76,-143 146.97,-145.82 146.5,-138.83"/>
<text text-anchor="middle" x="147.46" y="-133.86" font-family="monospace" font-size="10.00">uses</text>
</g>
<!-- lightning_fetcher::origin&#45;&gt;lightning_fetcher::fetcher -->
<g id="edge8" class="edge">
<title>lightning_fetcher::origin&#45;&gt;lightning_fetcher::fetcher</title>
<path fill="none" stroke="#7f7f7f" stroke-dasharray="5,2" d="M293.02,-272.77C298.71,-245.52 290.12,-195.56 275.88,-163.98"/>
<polygon fill="#7f7f7f" stroke="#7f7f7f" points="278.9,-162.18 271.29,-154.81 272.64,-165.32 278.9,-162.18"/>
<text text-anchor="middle" x="271.95" y="-221.37" font-family="monospace" font-size="10.00">uses</text>
</g>
<!-- tokio::sync::broadcast -->
<g id="node5" class="node">
<title>tokio::sync::broadcast</title>
<polygon fill="#81c169" stroke="black" points="287.59,-396.08 287.59,-434.08 436.59,-434.08 436.59,-396.08 287.59,-396.08"/>
<text text-anchor="middle" x="362.09" y="-422.08" font-family="monospace" font-size="10.00">external mod</text>
<polyline fill="none" stroke="black" points="287.59,-415.08 436.59,-415.08 "/>
<text text-anchor="middle" x="362.09" y="-403.08" font-family="monospace" font-size="10.00">tokio::sync::broadcast</text>
</g>
<!-- lightning_fetcher::origin&#45;&gt;tokio::sync::broadcast -->
<g id="edge9" class="edge">
<title>lightning_fetcher::origin&#45;&gt;tokio::sync::broadcast</title>
<path fill="none" stroke="#7f7f7f" stroke-dasharray="5,2" d="M292.54,-311.06C306.27,-331.6 328.14,-364.3 343.68,-387.55"/>
<polygon fill="#7f7f7f" stroke="#7f7f7f" points="340.83,-389.59 349.3,-395.96 346.65,-385.7 340.83,-389.59"/>
<text text-anchor="middle" x="305.61" y="-352.31" font-family="monospace" font-size="10.00">uses</text>
</g>
<!-- lightning_fetcher::origin&#45;&gt;tokio::sync::mpsc -->
<g id="edge10" class="edge">
<title>lightning_fetcher::origin&#45;&gt;tokio::sync::mpsc</title>
<path fill="none" stroke="#7f7f7f" stroke-dasharray="5,2" d="M247.26,-310.83C225.51,-323.61 196.65,-340.56 173.26,-354.3"/>
<polygon fill="#7f7f7f" stroke="#7f7f7f" points="171.44,-351.32 164.59,-359.4 174.98,-357.35 171.44,-351.32"/>
<text text-anchor="middle" x="197.76" y="-335.57" font-family="monospace" font-size="10.00">uses</text>
</g>
<!-- lightning_fetcher::origin&#45;&gt;tokio::sync::oneshot -->
<g id="edge11" class="edge">
<title>lightning_fetcher::origin&#45;&gt;tokio::sync::oneshot</title>
<path fill="none" stroke="#7f7f7f" stroke-dasharray="5,2" d="M251.57,-272.65C213.8,-246.9 146.56,-201.08 104.82,-172.63"/>
<polygon fill="#7f7f7f" stroke="#7f7f7f" points="106.55,-169.57 96.32,-166.83 102.61,-175.36 106.55,-169.57"/>
<text text-anchor="middle" x="165.69" y="-225.64" font-family="monospace" font-size="10.00">uses</text>
</g>
</g>
</svg>
