<?xml version="1.0" encoding="UTF-8" standalone="no"?>
<!DOCTYPE svg PUBLIC "-//W3C//DTD SVG 1.1//EN"
 "http://www.w3.org/Graphics/SVG/1.1/DTD/svg11.dtd">
<!-- Generated by graphviz version 4.0.0 (0)
 -->
<!-- Pages: 1 -->
<svg width="1536pt" height="1001pt"
 viewBox="0.00 0.00 1535.60 1000.60" xmlns="http://www.w3.org/2000/svg" xmlns:xlink="http://www.w3.org/1999/xlink">
<g id="graph0" class="graph" transform="scale(1 1) rotate(0) translate(28.8 971.8)">
<polygon fill="white" stroke="transparent" points="-28.8,28.8 -28.8,-971.8 1506.8,-971.8 1506.8,28.8 -28.8,28.8"/>
<text text-anchor="middle" x="739" y="-910.2" font-family="Helvetica,sans-Serif" font-size="36.00">lightning_fetcher</text>
<!-- lightning_fetcher -->
<g id="node1" class="node">
<title>lightning_fetcher</title>
<polygon fill="#5397c8" stroke="black" points="598.12,-656.79 598.12,-694.79 717.12,-694.79 717.12,-656.79 598.12,-656.79"/>
<text text-anchor="middle" x="657.62" y="-682.79" font-family="monospace" font-size="10.00">crate</text>
<polyline fill="none" stroke="black" points="598.12,-675.79 717.12,-675.79 "/>
<text text-anchor="middle" x="657.62" y="-663.79" font-family="monospace" font-size="10.00">lightning_fetcher</text>
</g>
<!-- lightning_fetcher::config::Config -->
<g id="node2" class="node">
<title>lightning_fetcher::config::Config</title>
<polygon fill="#81c169" stroke="black" points="896.98,-532.75 896.98,-570.75 997.98,-570.75 997.98,-532.75 896.98,-532.75"/>
<text text-anchor="middle" x="947.48" y="-558.75" font-family="monospace" font-size="10.00">pub struct</text>
<polyline fill="none" stroke="black" points="896.98,-551.75 997.98,-551.75 "/>
<text text-anchor="middle" x="947.48" y="-539.75" font-family="monospace" font-size="10.00">config::Config</text>
</g>
<!-- lightning_fetcher&#45;&gt;lightning_fetcher::config::Config -->
<g id="edge1" class="edge">
<title>lightning_fetcher&#45;&gt;lightning_fetcher::config::Config</title>
<path fill="none" stroke="#000000" d="M717.46,-673.26C783.77,-654.87 886.47,-609.02 928.77,-577.16"/>
<polygon fill="#000000" stroke="#000000" points="931.07,-579.8 936.62,-570.78 926.66,-574.37 931.07,-579.8"/>
<text text-anchor="middle" x="810.62" y="-628.21" font-family="monospace" font-size="10.00">owns</text>
</g>
<!-- lightning_fetcher&#45;&gt;lightning_fetcher::config::Config -->
<g id="edge2" class="edge">
<title>lightning_fetcher&#45;&gt;lightning_fetcher::config::Config</title>
<path fill="none" stroke="#7f7f7f" stroke-dasharray="5,2" d="M668.79,-656.49C704.87,-624.75 816.48,-574.11 887.19,-554.41"/>
<polygon fill="#7f7f7f" stroke="#7f7f7f" points="888.11,-557.79 896.88,-551.84 886.32,-551.02 888.11,-557.79"/>
<text text-anchor="middle" x="765.49" y="-608.45" font-family="monospace" font-size="10.00">uses</text>
</g>
<!-- lightning_fetcher::fetcher::Fetcher -->
<g id="node3" class="node">
<title>lightning_fetcher::fetcher::Fetcher</title>
<polygon fill="#81c169" stroke="black" points="1073.92,-334.24 1073.92,-372.24 1186.92,-372.24 1186.92,-334.24 1073.92,-334.24"/>
<text text-anchor="middle" x="1130.42" y="-360.24" font-family="monospace" font-size="10.00">pub struct</text>
<polyline fill="none" stroke="black" points="1073.92,-353.24 1186.92,-353.24 "/>
<text text-anchor="middle" x="1130.42" y="-341.24" font-family="monospace" font-size="10.00">fetcher::Fetcher</text>
</g>
<!-- lightning_fetcher&#45;&gt;lightning_fetcher::fetcher::Fetcher -->
<g id="edge3" class="edge">
<title>lightning_fetcher&#45;&gt;lightning_fetcher::fetcher::Fetcher</title>
<path fill="none" stroke="#000000" d="M685.78,-656.58C767.25,-601.01 1003.13,-440.08 1094.07,-378.04"/>
<polygon fill="#000000" stroke="#000000" points="1096.12,-380.88 1102.41,-372.35 1092.18,-375.1 1096.12,-380.88"/>
<text text-anchor="middle" x="877.43" y="-520.31" font-family="monospace" font-size="10.00">owns</text>
</g>
<!-- lightning_fetcher::fetcher::FetcherInner -->
<g id="node10" class="node">
<title>lightning_fetcher::fetcher::FetcherInner</title>
<polygon fill="#db5367" stroke="black" points="550.25,-328.94 550.25,-366.94 693.25,-366.94 693.25,-328.94 550.25,-328.94"/>
<text text-anchor="middle" x="621.75" y="-354.94" font-family="monospace" font-size="10.00">pub(self) struct</text>
<polyline fill="none" stroke="black" points="550.25,-347.94 693.25,-347.94 "/>
<text text-anchor="middle" x="621.75" y="-335.94" font-family="monospace" font-size="10.00">fetcher::FetcherInner</text>
</g>
<!-- lightning_fetcher&#45;&gt;lightning_fetcher::fetcher::FetcherInner -->
<g id="edge4" class="edge">
<title>lightning_fetcher&#45;&gt;lightning_fetcher::fetcher::FetcherInner</title>
<path fill="none" stroke="#000000" d="M655.54,-656.75C649.53,-601.86 632.16,-443.05 624.95,-377.15"/>
<polygon fill="#000000" stroke="#000000" points="628.41,-376.6 623.84,-367.04 621.45,-377.36 628.41,-376.6"/>
<text text-anchor="middle" x="627.74" y="-519.95" font-family="monospace" font-size="10.00">owns</text>
</g>
<!-- lightning_fetcher::fetcher::Uri -->
<g id="node15" class="node">
<title>lightning_fetcher::fetcher::Uri</title>
<polygon fill="#f8c04c" stroke="black" points="820.19,-815.75 820.19,-853.75 927.19,-853.75 927.19,-815.75 820.19,-815.75"/>
<text text-anchor="middle" x="873.69" y="-841.75" font-family="monospace" font-size="10.00">pub(crate) type</text>
<polyline fill="none" stroke="black" points="820.19,-834.75 927.19,-834.75 "/>
<text text-anchor="middle" x="873.69" y="-822.75" font-family="monospace" font-size="10.00">fetcher::Uri</text>
</g>
<!-- lightning_fetcher&#45;&gt;lightning_fetcher::fetcher::Uri -->
<g id="edge5" class="edge">
<title>lightning_fetcher&#45;&gt;lightning_fetcher::fetcher::Uri</title>
<path fill="none" stroke="#000000" d="M661.51,-694.85C681.8,-727.45 755.55,-785.86 810.81,-817.13"/>
<polygon fill="#000000" stroke="#000000" points="809.4,-820.35 819.86,-822.09 812.77,-814.21 809.4,-820.35"/>
<text text-anchor="middle" x="723.66" y="-758.99" font-family="monospace" font-size="10.00">owns</text>
</g>
<!-- lightning_fetcher&#45;&gt;lightning_fetcher::fetcher::Uri -->
<g id="edge6" class="edge">
<title>lightning_fetcher&#45;&gt;lightning_fetcher::fetcher::Uri</title>
<path fill="none" stroke="#7f7f7f" stroke-dasharray="5,2" d="M717.39,-691.67C768.45,-719.97 836.91,-772.93 863.73,-807.11"/>
<polygon fill="#7f7f7f" stroke="#7f7f7f" points="860.96,-809.26 869.61,-815.37 866.66,-805.2 860.96,-809.26"/>
<text text-anchor="middle" x="778.06" y="-752.39" font-family="monospace" font-size="10.00">uses</text>
</g>
<!-- lightning_fetcher::origin::ErrorResponse -->
<g id="node16" class="node">
<title>lightning_fetcher::origin::ErrorResponse</title>
<polygon fill="#db5367" stroke="black" points="489.97,-851.52 489.97,-889.52 632.97,-889.52 632.97,-851.52 489.97,-851.52"/>
<text text-anchor="middle" x="561.47" y="-877.52" font-family="monospace" font-size="10.00">pub(self) enum</text>
<polyline fill="none" stroke="black" points="489.97,-870.52 632.97,-870.52 "/>
<text text-anchor="middle" x="561.47" y="-858.52" font-family="monospace" font-size="10.00">origin::ErrorResponse</text>
</g>
<!-- lightning_fetcher&#45;&gt;lightning_fetcher::origin::ErrorResponse -->
<g id="edge7" class="edge">
<title>lightning_fetcher&#45;&gt;lightning_fetcher::origin::ErrorResponse</title>
<path fill="none" stroke="#000000" d="M648.23,-694.82C631.21,-729.28 595.21,-802.19 575.35,-842.41"/>
<polygon fill="#000000" stroke="#000000" points="572.19,-840.9 570.9,-851.41 578.47,-844 572.19,-840.9"/>
<text text-anchor="middle" x="599.29" y="-771.61" font-family="monospace" font-size="10.00">owns</text>
</g>
<!-- lightning_fetcher::origin::OriginError -->
<g id="node17" class="node">
<title>lightning_fetcher::origin::OriginError</title>
<polygon fill="#81c169" stroke="black" points="703.59,-479.88 703.59,-517.88 834.59,-517.88 834.59,-479.88 703.59,-479.88"/>
<text text-anchor="middle" x="769.09" y="-505.88" font-family="monospace" font-size="10.00">pub struct</text>
<polyline fill="none" stroke="black" points="703.59,-498.88 834.59,-498.88 "/>
<text text-anchor="middle" x="769.09" y="-486.88" font-family="monospace" font-size="10.00">origin::OriginError</text>
</g>
<!-- lightning_fetcher&#45;&gt;lightning_fetcher::origin::OriginError -->
<g id="edge8" class="edge">
<title>lightning_fetcher&#45;&gt;lightning_fetcher::origin::OriginError</title>
<path fill="none" stroke="#000000" d="M669.77,-656.52C689.53,-625.15 728.75,-562.91 751.55,-526.72"/>
<polygon fill="#000000" stroke="#000000" points="754.6,-528.45 756.97,-518.12 748.68,-524.72 754.6,-528.45"/>
<text text-anchor="middle" x="698.16" y="-594.62" font-family="monospace" font-size="10.00">owns</text>
</g>
<!-- lightning_fetcher::origin::OriginFetcher -->
<g id="node18" class="node">
<title>lightning_fetcher::origin::OriginFetcher</title>
<polygon fill="#81c169" stroke="black" points="256.06,-570.92 256.06,-608.92 399.06,-608.92 399.06,-570.92 256.06,-570.92"/>
<text text-anchor="middle" x="327.56" y="-596.92" font-family="monospace" font-size="10.00">pub struct</text>
<polyline fill="none" stroke="black" points="256.06,-589.92 399.06,-589.92 "/>
<text text-anchor="middle" x="327.56" y="-577.92" font-family="monospace" font-size="10.00">origin::OriginFetcher</text>
</g>
<!-- lightning_fetcher&#45;&gt;lightning_fetcher::origin::OriginFetcher -->
<g id="edge9" class="edge">
<title>lightning_fetcher&#45;&gt;lightning_fetcher::origin::OriginFetcher</title>
<path fill="none" stroke="#000000" d="M640.02,-656.65C597.35,-631.81 486.93,-599.96 409.47,-587.3"/>
<polygon fill="#000000" stroke="#000000" points="409.67,-583.79 399.25,-585.72 408.59,-590.71 409.67,-583.79"/>
<text text-anchor="middle" x="512.25" y="-624.98" font-family="monospace" font-size="10.00">owns</text>
</g>
<!-- lightning_fetcher&#45;&gt;lightning_fetcher::origin::OriginFetcher -->
<g id="edge10" class="edge">
<title>lightning_fetcher&#45;&gt;lightning_fetcher::origin::OriginFetcher</title>
<path fill="none" stroke="#7f7f7f" stroke-dasharray="5,2" d="M597.92,-681.61C525.5,-672.76 406.79,-640.44 354.06,-613.86"/>
<polygon fill="#7f7f7f" stroke="#7f7f7f" points="355.47,-610.65 345,-608.97 352.14,-616.8 355.47,-610.65"/>
<text text-anchor="middle" x="463.49" y="-650.74" font-family="monospace" font-size="10.00">uses</text>
</g>
<!-- lightning_fetcher::origin::OriginRequest -->
<g id="node22" class="node">
<title>lightning_fetcher::origin::OriginRequest</title>
<polygon fill="#81c169" stroke="black" points="379.31,-333.42 379.31,-371.42 522.31,-371.42 522.31,-333.42 379.31,-333.42"/>
<text text-anchor="middle" x="450.81" y="-359.42" font-family="monospace" font-size="10.00">pub struct</text>
<polyline fill="none" stroke="black" points="379.31,-352.42 522.31,-352.42 "/>
<text text-anchor="middle" x="450.81" y="-340.42" font-family="monospace" font-size="10.00">origin::OriginRequest</text>
</g>
<!-- lightning_fetcher&#45;&gt;lightning_fetcher::origin::OriginRequest -->
<g id="edge11" class="edge">
<title>lightning_fetcher&#45;&gt;lightning_fetcher::origin::OriginRequest</title>
<path fill="none" stroke="#000000" d="M658.94,-656.52C644.85,-600.56 546.78,-443.29 489.15,-379.25"/>
<polygon fill="#000000" stroke="#000000" points="491.37,-376.49 481.99,-371.56 486.25,-381.26 491.37,-376.49"/>
<text text-anchor="middle" x="561.55" y="-520.88" font-family="monospace" font-size="10.00">owns</text>
</g>
<!-- lightning_fetcher&#45;&gt;lightning_fetcher::origin::OriginRequest -->
<g id="edge12" class="edge">
<title>lightning_fetcher&#45;&gt;lightning_fetcher::origin::OriginRequest</title>
<path fill="none" stroke="#7f7f7f" stroke-dasharray="5,2" d="M626.11,-656.31C572.66,-600.89 474.87,-446.88 452.45,-381.49"/>
<polygon fill="#7f7f7f" stroke="#7f7f7f" points="455.76,-380.35 449.52,-371.79 449.06,-382.37 455.76,-380.35"/>
<text text-anchor="middle" x="526.78" y="-521.9" font-family="monospace" font-size="10.00">uses</text>
</g>
<!-- lightning_fetcher::origin::SuccessResponse -->
<g id="node23" class="node">
<title>lightning_fetcher::origin::SuccessResponse</title>
<polygon fill="#db5367" stroke="black" points="366.42,-735.71 366.42,-773.71 521.42,-773.71 521.42,-735.71 366.42,-735.71"/>
<text text-anchor="middle" x="443.92" y="-761.71" font-family="monospace" font-size="10.00">pub(self) struct</text>
<polyline fill="none" stroke="black" points="366.42,-754.71 521.42,-754.71 "/>
<text text-anchor="middle" x="443.92" y="-742.71" font-family="monospace" font-size="10.00">origin::SuccessResponse</text>
</g>
<!-- lightning_fetcher&#45;&gt;lightning_fetcher::origin::SuccessResponse -->
<g id="edge13" class="edge">
<title>lightning_fetcher&#45;&gt;lightning_fetcher::origin::SuccessResponse</title>
<path fill="none" stroke="#000000" d="M606.17,-694.8C575.83,-706 537.27,-720.24 505.35,-732.03"/>
<polygon fill="#000000" stroke="#000000" points="503.85,-728.85 495.68,-735.6 506.27,-735.42 503.85,-728.85"/>
<text text-anchor="middle" x="543.26" y="-716.41" font-family="monospace" font-size="10.00">owns</text>
</g>
<!-- lightning_fetcher::fetcher::Fetcher::Config -->
<g id="node4" class="node">
<title>lightning_fetcher::fetcher::Fetcher::Config</title>
<polygon fill="#db5367" stroke="black" points="1032.86,-615.39 1032.86,-653.39 1193.86,-653.39 1193.86,-615.39 1032.86,-615.39"/>
<text text-anchor="middle" x="1113.36" y="-641.39" font-family="monospace" font-size="10.00">pub(self) type</text>
<polyline fill="none" stroke="black" points="1032.86,-634.39 1193.86,-634.39 "/>
<text text-anchor="middle" x="1113.36" y="-622.39" font-family="monospace" font-size="10.00">fetcher::Fetcher::Config</text>
</g>
<!-- lightning_fetcher::fetcher::Fetcher&#45;&gt;lightning_fetcher::fetcher::Fetcher::Config -->
<g id="edge14" class="edge">
<title>lightning_fetcher::fetcher::Fetcher&#45;&gt;lightning_fetcher::fetcher::Fetcher::Config</title>
<path fill="none" stroke="#000000" d="M1129.25,-372.57C1126.31,-420.94 1118.64,-547.46 1115.14,-605.07"/>
<polygon fill="#000000" stroke="#000000" points="1111.63,-605.11 1114.52,-615.31 1118.62,-605.54 1111.63,-605.11"/>
<text text-anchor="middle" x="1109.69" y="-491.82" font-family="monospace" font-size="10.00">owns</text>
</g>
<!-- lightning_fetcher::fetcher::Fetcher::get_socket -->
<g id="node5" class="node">
<title>lightning_fetcher::fetcher::Fetcher::get_socket</title>
<polygon fill="#db5367" stroke="black" points="1230.24,-462.63 1230.24,-500.63 1415.24,-500.63 1415.24,-462.63 1230.24,-462.63"/>
<text text-anchor="middle" x="1322.74" y="-488.63" font-family="monospace" font-size="10.00">pub(self) fn</text>
<polyline fill="none" stroke="black" points="1230.24,-481.63 1415.24,-481.63 "/>
<text text-anchor="middle" x="1322.74" y="-469.63" font-family="monospace" font-size="10.00">fetcher::Fetcher::get_socket</text>
</g>
<!-- lightning_fetcher::fetcher::Fetcher&#45;&gt;lightning_fetcher::fetcher::Fetcher::get_socket -->
<g id="edge15" class="edge">
<title>lightning_fetcher::fetcher::Fetcher&#45;&gt;lightning_fetcher::fetcher::Fetcher::get_socket</title>
<path fill="none" stroke="#000000" d="M1134.3,-372.24C1149.79,-396.22 1196.44,-432.32 1239.66,-457.42"/>
<polygon fill="#000000" stroke="#000000" points="1238.1,-460.56 1248.53,-462.45 1241.55,-454.47 1238.1,-460.56"/>
<text text-anchor="middle" x="1174.48" y="-417.83" font-family="monospace" font-size="10.00">owns</text>
</g>
<!-- lightning_fetcher::fetcher::Fetcher::init -->
<g id="node6" class="node">
<title>lightning_fetcher::fetcher::Fetcher::init</title>
<polygon fill="#db5367" stroke="black" points="805.33,-300.37 805.33,-338.37 954.33,-338.37 954.33,-300.37 805.33,-300.37"/>
<text text-anchor="middle" x="879.83" y="-326.37" font-family="monospace" font-size="10.00">pub(self) fn</text>
<polyline fill="none" stroke="black" points="805.33,-319.37 954.33,-319.37 "/>
<text text-anchor="middle" x="879.83" y="-307.37" font-family="monospace" font-size="10.00">fetcher::Fetcher::init</text>
</g>
<!-- lightning_fetcher::fetcher::Fetcher&#45;&gt;lightning_fetcher::fetcher::Fetcher::init -->
<g id="edge16" class="edge">
<title>lightning_fetcher::fetcher::Fetcher&#45;&gt;lightning_fetcher::fetcher::Fetcher::init</title>
<path fill="none" stroke="#000000" d="M1110.35,-334.2C1079,-319.96 1016.73,-308.41 964.8,-305.14"/>
<polygon fill="#000000" stroke="#000000" points="964.73,-301.63 954.56,-304.6 964.36,-308.62 964.73,-301.63"/>
<text text-anchor="middle" x="1025.07" y="-322.67" font-family="monospace" font-size="10.00">owns</text>
</g>
<!-- lightning_fetcher::fetcher::Fetcher::is_running -->
<g id="node7" class="node">
<title>lightning_fetcher::fetcher::Fetcher::is_running</title>
<polygon fill="#db5367" stroke="black" points="1292.54,-244.08 1292.54,-282.08 1477.54,-282.08 1477.54,-244.08 1292.54,-244.08"/>
<text text-anchor="middle" x="1385.04" y="-270.08" font-family="monospace" font-size="10.00">pub(self) fn</text>
<polyline fill="none" stroke="black" points="1292.54,-263.08 1477.54,-263.08 "/>
<text text-anchor="middle" x="1385.04" y="-251.08" font-family="monospace" font-size="10.00">fetcher::Fetcher::is_running</text>
</g>
<!-- lightning_fetcher::fetcher::Fetcher&#45;&gt;lightning_fetcher::fetcher::Fetcher::is_running -->
<g id="edge17" class="edge">
<title>lightning_fetcher::fetcher::Fetcher&#45;&gt;lightning_fetcher::fetcher::Fetcher::is_running</title>
<path fill="none" stroke="#000000" d="M1187.12,-356.38C1243.67,-345.03 1327.14,-313.75 1365.2,-288.16"/>
<polygon fill="#000000" stroke="#000000" points="1367.44,-290.86 1373.44,-282.13 1363.31,-285.21 1367.44,-290.86"/>
<text text-anchor="middle" x="1263.66" y="-325.27" font-family="monospace" font-size="10.00">owns</text>
</g>
<!-- lightning_fetcher::fetcher::Fetcher::shutdown -->
<g id="node8" class="node">
<title>lightning_fetcher::fetcher::Fetcher::shutdown</title>
<polygon fill="#db5367" stroke="black" points="1179.51,-55.61 1179.51,-93.61 1352.51,-93.61 1352.51,-55.61 1179.51,-55.61"/>
<text text-anchor="middle" x="1266.01" y="-81.61" font-family="monospace" font-size="10.00">pub(self) async fn</text>
<polyline fill="none" stroke="black" points="1179.51,-74.61 1352.51,-74.61 "/>
<text text-anchor="middle" x="1266.01" y="-62.61" font-family="monospace" font-size="10.00">fetcher::Fetcher::shutdown</text>
</g>
<!-- lightning_fetcher::fetcher::Fetcher&#45;&gt;lightning_fetcher::fetcher::Fetcher::shutdown -->
<g id="edge18" class="edge">
<title>lightning_fetcher::fetcher::Fetcher&#45;&gt;lightning_fetcher::fetcher::Fetcher::shutdown</title>
<path fill="none" stroke="#000000" d="M1158.45,-333.84C1197.78,-285.26 1257.79,-161.02 1269.1,-103.71"/>
<polygon fill="#000000" stroke="#000000" points="1272.56,-104.24 1270.63,-93.82 1265.64,-103.17 1272.56,-104.24"/>
<text text-anchor="middle" x="1201.27" y="-221.78" font-family="monospace" font-size="10.00">owns</text>
</g>
<!-- lightning_fetcher::fetcher::Fetcher::start -->
<g id="node9" class="node">
<title>lightning_fetcher::fetcher::Fetcher::start</title>
<polygon fill="#db5367" stroke="black" points="899.26,-0.77 899.26,-38.77 1054.26,-38.77 1054.26,-0.77 899.26,-0.77"/>
<text text-anchor="middle" x="976.76" y="-26.77" font-family="monospace" font-size="10.00">pub(self) async fn</text>
<polyline fill="none" stroke="black" points="899.26,-19.77 1054.26,-19.77 "/>
<text text-anchor="middle" x="976.76" y="-7.77" font-family="monospace" font-size="10.00">fetcher::Fetcher::start</text>
</g>
<!-- lightning_fetcher::fetcher::Fetcher&#45;&gt;lightning_fetcher::fetcher::Fetcher::start -->
<g id="edge19" class="edge">
<title>lightning_fetcher::fetcher::Fetcher&#45;&gt;lightning_fetcher::fetcher::Fetcher::start</title>
<path fill="none" stroke="#000000" d="M1134.55,-333.97C1128.4,-277.06 1054.76,-112.91 1008.33,-47.08"/>
<polygon fill="#000000" stroke="#000000" points="1011,-44.8 1002.25,-38.82 1005.36,-48.95 1011,-44.8"/>
<text text-anchor="middle" x="1058.94" y="-193.52" font-family="monospace" font-size="10.00">owns</text>
</g>
<!-- lightning_fetcher::fetcher::Fetcher::Config&#45;&gt;lightning_fetcher::config::Config -->
<g id="edge20" class="edge">
<title>lightning_fetcher::fetcher::Fetcher::Config&#45;&gt;lightning_fetcher::config::Config</title>
<path fill="none" stroke="#7f7f7f" stroke-dasharray="5,2" d="M1074.89,-615.23C1051.02,-603.34 1020.18,-587.97 994.82,-575.34"/>
<polygon fill="#7f7f7f" stroke="#7f7f7f" points="996.25,-572.14 985.74,-570.82 993.13,-578.41 996.25,-572.14"/>
<text text-anchor="middle" x="1022.35" y="-598.28" font-family="monospace" font-size="10.00">uses</text>
</g>
<!-- lightning_fetcher::fetcher::Fetcher::get_socket&#45;&gt;lightning_fetcher::fetcher::Fetcher -->
<g id="edge21" class="edge">
<title>lightning_fetcher::fetcher::Fetcher::get_socket&#45;&gt;lightning_fetcher::fetcher::Fetcher</title>
<path fill="none" stroke="#7f7f7f" stroke-dasharray="5,2" d="M1318.86,-462.63C1301.26,-435.38 1243.38,-392.46 1196.06,-367.84"/>
<polygon fill="#7f7f7f" stroke="#7f7f7f" points="1197.57,-364.68 1187.06,-363.31 1194.42,-370.93 1197.57,-364.68"/>
<text text-anchor="middle" x="1244.96" y="-418.23" font-family="monospace" font-size="10.00">uses</text>
</g>
<!-- lightning_fetcher::fetcher::Fetcher::init&#45;&gt;lightning_fetcher::config::Config -->
<g id="edge22" class="edge">
<title>lightning_fetcher::fetcher::Fetcher::init&#45;&gt;lightning_fetcher::config::Config</title>
<path fill="none" stroke="#7f7f7f" stroke-dasharray="5,2" d="M885.37,-338.39C897.19,-378.98 924.95,-474.36 939.01,-522.65"/>
<polygon fill="#7f7f7f" stroke="#7f7f7f" points="935.71,-523.85 941.87,-532.47 942.43,-521.89 935.71,-523.85"/>
<text text-anchor="middle" x="899.69" y="-433.52" font-family="monospace" font-size="10.00">uses</text>
</g>
<!-- lightning_fetcher::fetcher::Fetcher::init&#45;&gt;lightning_fetcher::fetcher::Fetcher -->
<g id="edge23" class="edge">
<title>lightning_fetcher::fetcher::Fetcher::init&#45;&gt;lightning_fetcher::fetcher::Fetcher</title>
<path fill="none" stroke="#7f7f7f" stroke-dasharray="5,2" d="M899.9,-338.42C934.99,-354.35 1008.8,-366.91 1063.52,-368.28"/>
<polygon fill="#7f7f7f" stroke="#7f7f7f" points="1063.8,-371.78 1073.84,-368.4 1063.88,-364.78 1063.8,-371.78"/>
<text text-anchor="middle" x="969.21" y="-356.35" font-family="monospace" font-size="10.00">uses</text>
</g>
<!-- lightning_fetcher::fetcher::Fetcher::init&#45;&gt;lightning_fetcher::fetcher::FetcherInner -->
<g id="edge24" class="edge">
<title>lightning_fetcher::fetcher::Fetcher::init&#45;&gt;lightning_fetcher::fetcher::FetcherInner</title>
<path fill="none" stroke="#7f7f7f" stroke-dasharray="5,2" d="M805.19,-327.63C773.35,-331.16 736.1,-335.28 703.52,-338.89"/>
<polygon fill="#7f7f7f" stroke="#7f7f7f" points="703.12,-335.41 693.57,-339.99 703.89,-342.37 703.12,-335.41"/>
<text text-anchor="middle" x="741.85" y="-336.26" font-family="monospace" font-size="10.00">uses</text>
</g>
<!-- lightning_fetcher::fetcher::Fetcher::is_running&#45;&gt;lightning_fetcher::fetcher::Fetcher -->
<g id="edge25" class="edge">
<title>lightning_fetcher::fetcher::Fetcher::is_running&#45;&gt;lightning_fetcher::fetcher::Fetcher</title>
<path fill="none" stroke="#7f7f7f" stroke-dasharray="5,2" d="M1292.43,-268.75C1240.91,-283.32 1181.24,-307.44 1150.57,-327.95"/>
<polygon fill="#7f7f7f" stroke="#7f7f7f" points="1148.4,-325.2 1142.37,-333.91 1152.51,-330.87 1148.4,-325.2"/>
<text text-anchor="middle" x="1209" y="-301.35" font-family="monospace" font-size="10.00">uses</text>
</g>
<!-- lightning_fetcher::fetcher::Fetcher::shutdown&#45;&gt;lightning_fetcher::fetcher::Fetcher -->
<g id="edge26" class="edge">
<title>lightning_fetcher::fetcher::Fetcher::shutdown&#45;&gt;lightning_fetcher::fetcher::Fetcher</title>
<path fill="none" stroke="#7f7f7f" stroke-dasharray="5,2" d="M1237.98,-94.01C1198.65,-142.6 1138.64,-266.83 1127.34,-324.15"/>
<polygon fill="#7f7f7f" stroke="#7f7f7f" points="1123.88,-323.62 1125.81,-334.04 1130.8,-324.69 1123.88,-323.62"/>
<text text-anchor="middle" x="1170.16" y="-212.08" font-family="monospace" font-size="10.00">uses</text>
</g>
<!-- lightning_fetcher::fetcher::Fetcher::start&#45;&gt;lightning_fetcher::fetcher::Fetcher -->
<g id="edge27" class="edge">
<title>lightning_fetcher::fetcher::Fetcher::start&#45;&gt;lightning_fetcher::fetcher::Fetcher</title>
<path fill="none" stroke="#7f7f7f" stroke-dasharray="5,2" d="M972.63,-39.04C978.77,-95.95 1052.42,-260.1 1098.85,-325.94"/>
<polygon fill="#7f7f7f" stroke="#7f7f7f" points="1096.18,-328.21 1104.93,-334.19 1101.81,-324.06 1096.18,-328.21"/>
<text text-anchor="middle" x="1023.24" y="-185.49" font-family="monospace" font-size="10.00">uses</text>
</g>
<!-- lightning_fetcher::fetcher::FetcherInner&#45;&gt;lightning_fetcher::config::Config -->
<g id="edge28" class="edge">
<title>lightning_fetcher::fetcher::FetcherInner&#45;&gt;lightning_fetcher::config::Config</title>
<path fill="none" stroke="#7f7f7f" stroke-dasharray="5,2" d="M652.4,-367.11C711.69,-404.21 842.05,-485.78 907.84,-526.95"/>
<polygon fill="#7f7f7f" stroke="#7f7f7f" points="906.35,-530.14 916.68,-532.48 910.06,-524.21 906.35,-530.14"/>
<text text-anchor="middle" x="767.62" y="-450.03" font-family="monospace" font-size="10.00">uses</text>
</g>
<!-- lightning_fetcher::fetcher::FetcherInner::fetch -->
<g id="node11" class="node">
<title>lightning_fetcher::fetcher::FetcherInner::fetch</title>
<polygon fill="#db5367" stroke="black" points="568.51,-197.86 568.51,-235.86 753.51,-235.86 753.51,-197.86 568.51,-197.86"/>
<text text-anchor="middle" x="661.01" y="-223.86" font-family="monospace" font-size="10.00">pub(self) async fn</text>
<polyline fill="none" stroke="black" points="568.51,-216.86 753.51,-216.86 "/>
<text text-anchor="middle" x="661.01" y="-204.86" font-family="monospace" font-size="10.00">fetcher::FetcherInner::fetch</text>
</g>
<!-- lightning_fetcher::fetcher::FetcherInner&#45;&gt;lightning_fetcher::fetcher::FetcherInner::fetch -->
<g id="edge29" class="edge">
<title>lightning_fetcher::fetcher::FetcherInner&#45;&gt;lightning_fetcher::fetcher::FetcherInner::fetch</title>
<path fill="none" stroke="#000000" d="M650.23,-328.93C664.15,-307.13 674.57,-271.66 674.36,-246.33"/>
<polygon fill="#000000" stroke="#000000" points="677.83,-245.88 673.59,-236.17 670.85,-246.4 677.83,-245.88"/>
<text text-anchor="middle" x="649.8" y="-290.63" font-family="monospace" font-size="10.00">owns</text>
</g>
<!-- lightning_fetcher::fetcher::FetcherInner::fetch_origin -->
<g id="node12" class="node">
<title>lightning_fetcher::fetcher::FetcherInner::fetch_origin</title>
<polygon fill="#db5367" stroke="black" points="271.06,-178.16 271.06,-216.16 498.06,-216.16 498.06,-178.16 271.06,-178.16"/>
<text text-anchor="middle" x="384.56" y="-204.16" font-family="monospace" font-size="10.00">pub(self) async fn</text>
<polyline fill="none" stroke="black" points="271.06,-197.16 498.06,-197.16 "/>
<text text-anchor="middle" x="384.56" y="-185.16" font-family="monospace" font-size="10.00">fetcher::FetcherInner::fetch_origin</text>
</g>
<!-- lightning_fetcher::fetcher::FetcherInner&#45;&gt;lightning_fetcher::fetcher::FetcherInner::fetch_origin -->
<g id="edge30" class="edge">
<title>lightning_fetcher::fetcher::FetcherInner&#45;&gt;lightning_fetcher::fetcher::FetcherInner::fetch_origin</title>
<path fill="none" stroke="#000000" d="M616,-328.82C594.37,-299.8 525.69,-251.45 468.51,-220.98"/>
<polygon fill="#000000" stroke="#000000" points="469.92,-217.78 459.44,-216.25 466.68,-223.98 469.92,-217.78"/>
<text text-anchor="middle" x="529.75" y="-277.9" font-family="monospace" font-size="10.00">owns</text>
</g>
<!-- lightning_fetcher::fetcher::FetcherInner::put -->
<g id="node13" class="node">
<title>lightning_fetcher::fetcher::FetcherInner::put</title>
<polygon fill="#db5367" stroke="black" points="454.46,-77.41 454.46,-115.41 627.46,-115.41 627.46,-77.41 454.46,-77.41"/>
<text text-anchor="middle" x="540.96" y="-103.41" font-family="monospace" font-size="10.00">pub(self) async fn</text>
<polyline fill="none" stroke="black" points="454.46,-96.41 627.46,-96.41 "/>
<text text-anchor="middle" x="540.96" y="-84.41" font-family="monospace" font-size="10.00">fetcher::FetcherInner::put</text>
</g>
<!-- lightning_fetcher::fetcher::FetcherInner&#45;&gt;lightning_fetcher::fetcher::FetcherInner::put -->
<g id="edge31" class="edge">
<title>lightning_fetcher::fetcher::FetcherInner&#45;&gt;lightning_fetcher::fetcher::FetcherInner::put</title>
<path fill="none" stroke="#000000" d="M629.94,-328.78C632.22,-284.46 599.34,-176.12 570.06,-124.41"/>
<polygon fill="#000000" stroke="#000000" points="572.99,-122.5 564.83,-115.74 566.99,-126.11 572.99,-122.5"/>
<text text-anchor="middle" x="587.5" y="-229.6" font-family="monospace" font-size="10.00">owns</text>
</g>
<!-- lightning_fetcher::fetcher::FetcherInner::start -->
<g id="node14" class="node">
<title>lightning_fetcher::fetcher::FetcherInner::start</title>
<polygon fill="#db5367" stroke="black" points="183.95,-301.87 183.95,-339.87 368.95,-339.87 368.95,-301.87 183.95,-301.87"/>
<text text-anchor="middle" x="276.45" y="-327.87" font-family="monospace" font-size="10.00">pub(self) async fn</text>
<polyline fill="none" stroke="black" points="183.95,-320.87 368.95,-320.87 "/>
<text text-anchor="middle" x="276.45" y="-308.87" font-family="monospace" font-size="10.00">fetcher::FetcherInner::start</text>
</g>
<!-- lightning_fetcher::fetcher::FetcherInner&#45;&gt;lightning_fetcher::fetcher::FetcherInner::start -->
<g id="edge32" class="edge">
<title>lightning_fetcher::fetcher::FetcherInner&#45;&gt;lightning_fetcher::fetcher::FetcherInner::start</title>
<path fill="none" stroke="#000000" d="M550.2,-342.33C500.83,-338.46 434.42,-333.26 379.38,-328.94"/>
<polygon fill="#000000" stroke="#000000" points="379.48,-325.44 369.24,-328.15 378.94,-332.42 379.48,-325.44"/>
<text text-anchor="middle" x="452.29" y="-327.64" font-family="monospace" font-size="10.00">owns</text>
</g>
<!-- lightning_fetcher::fetcher::FetcherInner::fetch&#45;&gt;lightning_fetcher::fetcher::FetcherInner -->
<g id="edge33" class="edge">
<title>lightning_fetcher::fetcher::FetcherInner::fetch&#45;&gt;lightning_fetcher::fetcher::FetcherInner</title>
<path fill="none" stroke="#7f7f7f" stroke-dasharray="5,2" d="M632.52,-235.87C618.6,-257.66 608.19,-293.13 608.4,-318.46"/>
<polygon fill="#7f7f7f" stroke="#7f7f7f" points="604.92,-318.92 609.16,-328.63 611.9,-318.39 604.92,-318.92"/>
<text text-anchor="middle" x="607.96" y="-280.16" font-family="monospace" font-size="10.00">uses</text>
</g>
<!-- lightning_fetcher::fetcher::FetcherInner::fetch&#45;&gt;lightning_fetcher::origin::OriginRequest -->
<g id="edge34" class="edge">
<title>lightning_fetcher::fetcher::FetcherInner::fetch&#45;&gt;lightning_fetcher::origin::OriginRequest</title>
<path fill="none" stroke="#7f7f7f" stroke-dasharray="5,2" d="M631.34,-235.99C594.01,-260.06 529.87,-301.43 488.95,-327.83"/>
<polygon fill="#7f7f7f" stroke="#7f7f7f" points="486.84,-325.02 480.33,-333.38 490.63,-330.91 486.84,-325.02"/>
<text text-anchor="middle" x="572.64" y="-284.91" font-family="monospace" font-size="10.00">uses</text>
</g>
<!-- lightning_fetcher::fetcher::FetcherInner::fetch_origin&#45;&gt;lightning_fetcher::fetcher::FetcherInner -->
<g id="edge35" class="edge">
<title>lightning_fetcher::fetcher::FetcherInner::fetch_origin&#45;&gt;lightning_fetcher::fetcher::FetcherInner</title>
<path fill="none" stroke="#7f7f7f" stroke-dasharray="5,2" d="M390.31,-216.28C412.35,-245.85 483.28,-295.51 541.08,-325.85"/>
<polygon fill="#7f7f7f" stroke="#7f7f7f" points="539.74,-329.09 550.24,-330.54 542.94,-322.86 539.74,-329.09"/>
<text text-anchor="middle" x="453.19" y="-274.06" font-family="monospace" font-size="10.00">uses</text>
</g>
<!-- lightning_fetcher::fetcher::FetcherInner::fetch_origin&#45;&gt;lightning_fetcher::origin::OriginRequest -->
<g id="edge36" class="edge">
<title>lightning_fetcher::fetcher::FetcherInner::fetch_origin&#45;&gt;lightning_fetcher::origin::OriginRequest</title>
<path fill="none" stroke="#7f7f7f" stroke-dasharray="5,2" d="M392.68,-216.19C404.15,-243.08 425.2,-292.4 438.57,-323.74"/>
<polygon fill="#7f7f7f" stroke="#7f7f7f" points="435.48,-325.4 442.62,-333.23 441.92,-322.66 435.48,-325.4"/>
<text text-anchor="middle" x="403.13" y="-272.97" font-family="monospace" font-size="10.00">uses</text>
</g>
<!-- lightning_fetcher::fetcher::FetcherInner::put&#45;&gt;lightning_fetcher::fetcher::FetcherInner -->
<g id="edge37" class="edge">
<title>lightning_fetcher::fetcher::FetcherInner::put&#45;&gt;lightning_fetcher::fetcher::FetcherInner</title>
<path fill="none" stroke="#7f7f7f" stroke-dasharray="5,2" d="M532.77,-115.56C530.49,-159.88 563.37,-268.23 592.65,-319.93"/>
<polygon fill="#7f7f7f" stroke="#7f7f7f" points="589.72,-321.85 597.88,-328.61 595.72,-318.23 589.72,-321.85"/>
<text text-anchor="middle" x="550.21" y="-220.75" font-family="monospace" font-size="10.00">uses</text>
</g>
<!-- lightning_fetcher::fetcher::FetcherInner::put&#45;&gt;lightning_fetcher::origin::OriginRequest -->
<g id="edge38" class="edge">
<title>lightning_fetcher::fetcher::FetcherInner::put&#45;&gt;lightning_fetcher::origin::OriginRequest</title>
<path fill="none" stroke="#7f7f7f" stroke-dasharray="5,2" d="M534.18,-115.65C518.48,-160.24 479.54,-270.84 460.97,-323.57"/>
<polygon fill="#7f7f7f" stroke="#7f7f7f" points="457.56,-322.71 457.54,-333.31 464.17,-325.04 457.56,-322.71"/>
<text text-anchor="middle" x="485.08" y="-222.61" font-family="monospace" font-size="10.00">uses</text>
</g>
<!-- lightning_fetcher::fetcher::FetcherInner::start&#45;&gt;lightning_fetcher::origin::OriginFetcher -->
<g id="edge39" class="edge">
<title>lightning_fetcher::fetcher::FetcherInner::start&#45;&gt;lightning_fetcher::origin::OriginFetcher</title>
<path fill="none" stroke="#7f7f7f" stroke-dasharray="5,2" d="M280.12,-340.22C288.98,-386.86 311.56,-505.68 322.04,-560.9"/>
<polygon fill="#7f7f7f" stroke="#7f7f7f" points="318.61,-561.58 323.91,-570.75 325.49,-560.27 318.61,-561.58"/>
<text text-anchor="middle" x="288.58" y="-453.56" font-family="monospace" font-size="10.00">uses</text>
</g>
<!-- lightning_fetcher::fetcher::FetcherInner::start&#45;&gt;lightning_fetcher::origin::OriginRequest -->
<g id="edge40" class="edge">
<title>lightning_fetcher::fetcher::FetcherInner::start&#45;&gt;lightning_fetcher::origin::OriginRequest</title>
<path fill="none" stroke="#7f7f7f" stroke-dasharray="5,2" d="M368.99,-337.62C369.1,-337.64 369.21,-337.66 369.31,-337.68"/>
<polygon fill="#7f7f7f" stroke="#7f7f7f" points="368.74,-341.13 379.21,-339.47 369.99,-334.24 368.74,-341.13"/>
<text text-anchor="middle" x="356.65" y="-340.65" font-family="monospace" font-size="10.00">uses</text>
</g>
<!-- lightning_fetcher::origin::OriginFetcher::new -->
<g id="node19" class="node">
<title>lightning_fetcher::origin::OriginFetcher::new</title>
<polygon fill="#81c169" stroke="black" points="-0.16,-495.99 -0.16,-533.99 172.84,-533.99 172.84,-495.99 -0.16,-495.99"/>
<text text-anchor="middle" x="86.34" y="-521.99" font-family="monospace" font-size="10.00">pub fn</text>
<polyline fill="none" stroke="black" points="-0.16,-514.99 172.84,-514.99 "/>
<text text-anchor="middle" x="86.34" y="-502.99" font-family="monospace" font-size="10.00">origin::OriginFetcher::new</text>
</g>
<!-- lightning_fetcher::origin::OriginFetcher&#45;&gt;lightning_fetcher::origin::OriginFetcher::new -->
<g id="edge41" class="edge">
<title>lightning_fetcher::origin::OriginFetcher&#45;&gt;lightning_fetcher::origin::OriginFetcher::new</title>
<path fill="none" stroke="#000000" d="M315.29,-570.9C290.55,-552.22 233.65,-530.49 182.73,-517.56"/>
<polygon fill="#000000" stroke="#000000" points="183.51,-514.15 172.96,-515.17 181.85,-520.95 183.51,-514.15"/>
<text text-anchor="middle" x="236.51" y="-547.23" font-family="monospace" font-size="10.00">owns</text>
</g>
<!-- lightning_fetcher::origin::OriginFetcher::spawn -->
<g id="node20" class="node">
<title>lightning_fetcher::origin::OriginFetcher::spawn</title>
<polygon fill="#db5367" stroke="black" points="122,-856.18 122,-894.18 307,-894.18 307,-856.18 122,-856.18"/>
<text text-anchor="middle" x="214.5" y="-882.18" font-family="monospace" font-size="10.00">pub(self) async fn</text>
<polyline fill="none" stroke="black" points="122,-875.18 307,-875.18 "/>
<text text-anchor="middle" x="214.5" y="-863.18" font-family="monospace" font-size="10.00">origin::OriginFetcher::spawn</text>
</g>
<!-- lightning_fetcher::origin::OriginFetcher&#45;&gt;lightning_fetcher::origin::OriginFetcher::spawn -->
<g id="edge42" class="edge">
<title>lightning_fetcher::origin::OriginFetcher&#45;&gt;lightning_fetcher::origin::OriginFetcher::spawn</title>
<path fill="none" stroke="#000000" d="M302.47,-609.27C267.26,-658.59 216.47,-787.15 209.25,-845.76"/>
<polygon fill="#000000" stroke="#000000" points="205.75,-845.6 208.42,-855.85 212.72,-846.17 205.75,-845.6"/>
<text text-anchor="middle" x="243.36" y="-730.52" font-family="monospace" font-size="10.00">owns</text>
</g>
<!-- lightning_fetcher::origin::OriginFetcher::start -->
<g id="node21" class="node">
<title>lightning_fetcher::origin::OriginFetcher::start</title>
<polygon fill="#81c169" stroke="black" points="407.07,-595.2 407.07,-633.2 592.07,-633.2 592.07,-595.2 407.07,-595.2"/>
<text text-anchor="middle" x="499.57" y="-621.2" font-family="monospace" font-size="10.00">pub async fn</text>
<polyline fill="none" stroke="black" points="407.07,-614.2 592.07,-614.2 "/>
<text text-anchor="middle" x="499.57" y="-602.2" font-family="monospace" font-size="10.00">origin::OriginFetcher::start</text>
</g>
<!-- lightning_fetcher::origin::OriginFetcher&#45;&gt;lightning_fetcher::origin::OriginFetcher::start -->
<g id="edge43" class="edge">
<title>lightning_fetcher::origin::OriginFetcher&#45;&gt;lightning_fetcher::origin::OriginFetcher::start</title>
<path fill="none" stroke="#000000" d="M342.01,-608.97C354.93,-616.49 375.07,-622.66 396.68,-626.66"/>
<polygon fill="#000000" stroke="#000000" points="396.25,-630.14 406.69,-628.34 397.41,-623.23 396.25,-630.14"/>
<text text-anchor="middle" x="356.84" y="-620.82" font-family="monospace" font-size="10.00">owns</text>
</g>
<!-- lightning_fetcher::origin::OriginFetcher&#45;&gt;lightning_fetcher::origin::OriginRequest -->
<g id="edge44" class="edge">
<title>lightning_fetcher::origin::OriginFetcher&#45;&gt;lightning_fetcher::origin::OriginRequest</title>
<path fill="none" stroke="#7f7f7f" stroke-dasharray="5,2" d="M337.44,-570.89C359.07,-529.2 410.74,-429.64 436.17,-380.64"/>
<polygon fill="#7f7f7f" stroke="#7f7f7f" points="439.39,-382.04 440.89,-371.55 433.18,-378.81 439.39,-382.04"/>
<text text-anchor="middle" x="374.3" y="-478.76" font-family="monospace" font-size="10.00">uses</text>
</g>
<!-- lightning_fetcher::origin::OriginFetcher::new&#45;&gt;lightning_fetcher::origin::OriginFetcher -->
<g id="edge45" class="edge">
<title>lightning_fetcher::origin::OriginFetcher::new&#45;&gt;lightning_fetcher::origin::OriginFetcher</title>
<path fill="none" stroke="#7f7f7f" stroke-dasharray="5,2" d="M98.61,-534.01C125.75,-554.51 191.63,-578.68 245.85,-590.87"/>
<polygon fill="#7f7f7f" stroke="#7f7f7f" points="245.32,-594.33 255.83,-593 246.78,-587.49 245.32,-594.33"/>
<text text-anchor="middle" x="159.73" y="-565.44" font-family="monospace" font-size="10.00">uses</text>
</g>
<!-- lightning_fetcher::origin::OriginFetcher::new&#45;&gt;lightning_fetcher::origin::OriginRequest -->
<g id="edge46" class="edge">
<title>lightning_fetcher::origin::OriginFetcher::new&#45;&gt;lightning_fetcher::origin::OriginRequest</title>
<path fill="none" stroke="#7f7f7f" stroke-dasharray="5,2" d="M129.22,-495.86C196.39,-465.9 326.23,-407.99 398.69,-375.67"/>
<polygon fill="#7f7f7f" stroke="#7f7f7f" points="400.39,-378.75 408.1,-371.48 397.54,-372.35 400.39,-378.75"/>
<text text-anchor="middle" x="251.46" y="-438.77" font-family="monospace" font-size="10.00">uses</text>
</g>
<!-- lightning_fetcher::origin::OriginFetcher::spawn&#45;&gt;lightning_fetcher::origin::ErrorResponse -->
<g id="edge47" class="edge">
<title>lightning_fetcher::origin::OriginFetcher::spawn&#45;&gt;lightning_fetcher::origin::ErrorResponse</title>
<path fill="none" stroke="#7f7f7f" stroke-dasharray="5,2" d="M307.03,-873.94C360.76,-873.22 427.85,-872.31 479.65,-871.62"/>
<polygon fill="#7f7f7f" stroke="#7f7f7f" points="479.84,-875.11 489.79,-871.48 479.75,-868.12 479.84,-875.11"/>
<text text-anchor="middle" x="380.84" y="-875.78" font-family="monospace" font-size="10.00">uses</text>
</g>
<!-- lightning_fetcher::origin::OriginFetcher::spawn&#45;&gt;lightning_fetcher::origin::OriginFetcher -->
<g id="edge48" class="edge">
<title>lightning_fetcher::origin::OriginFetcher::spawn&#45;&gt;lightning_fetcher::origin::OriginFetcher</title>
<path fill="none" stroke="#7f7f7f" stroke-dasharray="5,2" d="M239.58,-855.83C274.8,-806.52 325.58,-677.96 332.81,-619.35"/>
<polygon fill="#7f7f7f" stroke="#7f7f7f" points="336.31,-619.5 333.64,-609.25 329.34,-618.93 336.31,-619.5"/>
<text text-anchor="middle" x="273.7" y="-740.59" font-family="monospace" font-size="10.00">uses</text>
</g>
<!-- lightning_fetcher::origin::OriginFetcher::spawn&#45;&gt;lightning_fetcher::origin::SuccessResponse -->
<g id="edge49" class="edge">
<title>lightning_fetcher::origin::OriginFetcher::spawn&#45;&gt;lightning_fetcher::origin::SuccessResponse</title>
<path fill="none" stroke="#7f7f7f" stroke-dasharray="5,2" d="M250.85,-856.09C290.84,-835.1 355.17,-801.32 398.46,-778.59"/>
<polygon fill="#7f7f7f" stroke="#7f7f7f" points="400.14,-781.66 407.36,-773.91 396.88,-775.46 400.14,-781.66"/>
<text text-anchor="middle" x="312.16" y="-820.34" font-family="monospace" font-size="10.00">uses</text>
</g>
<!-- lightning_fetcher::origin::OriginFetcher::start&#45;&gt;lightning_fetcher::origin::ErrorResponse -->
<g id="edge50" class="edge">
<title>lightning_fetcher::origin::OriginFetcher::start&#45;&gt;lightning_fetcher::origin::ErrorResponse</title>
<path fill="none" stroke="#7f7f7f" stroke-dasharray="5,2" d="M504.23,-633.46C515.01,-678.11 541.75,-788.83 554.5,-841.63"/>
<polygon fill="#7f7f7f" stroke="#7f7f7f" points="551.1,-842.48 556.85,-851.38 557.9,-840.83 551.1,-842.48"/>
<text text-anchor="middle" x="541.86" y="-740.55" font-family="monospace" font-size="10.00">uses</text>
</g>
<!-- lightning_fetcher::origin::OriginFetcher::start&#45;&gt;lightning_fetcher::origin::OriginError -->
<g id="edge51" class="edge">
<title>lightning_fetcher::origin::OriginFetcher::start&#45;&gt;lightning_fetcher::origin::OriginError</title>
<path fill="none" stroke="#7f7f7f" stroke-dasharray="5,2" d="M544.08,-595.16C590.99,-575.08 664.92,-543.45 715.12,-521.97"/>
<polygon fill="#7f7f7f" stroke="#7f7f7f" points="716.71,-525.1 724.52,-517.95 713.95,-518.66 716.71,-525.1"/>
<text text-anchor="middle" x="617.1" y="-561.56" font-family="monospace" font-size="10.00">uses</text>
</g>
<!-- lightning_fetcher::origin::OriginFetcher::start&#45;&gt;lightning_fetcher::origin::OriginFetcher -->
<g id="edge52" class="edge">
<title>lightning_fetcher::origin::OriginFetcher::start&#45;&gt;lightning_fetcher::origin::OriginFetcher</title>
<path fill="none" stroke="#7f7f7f" stroke-dasharray="5,2" d="M485.12,-595.15C468.09,-585.23 438.51,-577.67 409.55,-574.32"/>
<polygon fill="#7f7f7f" stroke="#7f7f7f" points="409.64,-570.82 399.35,-573.32 408.96,-577.78 409.64,-570.82"/>
<text text-anchor="middle" x="434.83" y="-576.74" font-family="monospace" font-size="10.00">uses</text>
</g>
<!-- lightning_fetcher::origin::OriginFetcher::start&#45;&gt;lightning_fetcher::origin::OriginRequest -->
<g id="edge53" class="edge">
<title>lightning_fetcher::origin::OriginFetcher::start&#45;&gt;lightning_fetcher::origin::OriginRequest</title>
<path fill="none" stroke="#7f7f7f" stroke-dasharray="5,2" d="M495.99,-594.95C487.53,-549.57 466.31,-435.64 456.26,-381.66"/>
<polygon fill="#7f7f7f" stroke="#7f7f7f" points="459.68,-380.89 454.4,-371.7 452.79,-382.17 459.68,-380.89"/>
<text text-anchor="middle" x="463.62" y="-491.3" font-family="monospace" font-size="10.00">uses</text>
</g>
<!-- lightning_fetcher::origin::OriginFetcher::start&#45;&gt;lightning_fetcher::origin::SuccessResponse -->
<g id="edge54" class="edge">
<title>lightning_fetcher::origin::OriginFetcher::start&#45;&gt;lightning_fetcher::origin::SuccessResponse</title>
<path fill="none" stroke="#7f7f7f" stroke-dasharray="5,2" d="M491.95,-633.44C482.46,-657.41 466.17,-698.55 455.22,-726.19"/>
<polygon fill="#7f7f7f" stroke="#7f7f7f" points="451.88,-725.12 451.45,-735.7 458.39,-727.69 451.88,-725.12"/>
<text text-anchor="middle" x="461.09" y="-682.82" font-family="monospace" font-size="10.00">uses</text>
</g>
</g>
</svg>
