<?xml version="1.0" encoding="UTF-8" standalone="no"?>
<!DOCTYPE svg PUBLIC "-//W3C//DTD SVG 1.1//EN"
 "http://www.w3.org/Graphics/SVG/1.1/DTD/svg11.dtd">
<!-- Generated by graphviz version 4.0.0 (0)
 -->
<!-- Pages: 1 -->
<svg width="1040pt" height="729pt"
 viewBox="0.00 0.00 1039.59 728.92" xmlns="http://www.w3.org/2000/svg" xmlns:xlink="http://www.w3.org/1999/xlink">
<g id="graph0" class="graph" transform="scale(1 1) rotate(0) translate(28.8 700.12)">
<polygon fill="white" stroke="transparent" points="-28.8,28.8 -28.8,-700.12 1010.79,-700.12 1010.79,28.8 -28.8,28.8"/>
<text text-anchor="middle" x="490.99" y="-638.52" font-family="Helvetica,sans-Serif" font-size="36.00">lightning_keystore</text>
<!-- lightning_keystore -->
<g id="node1" class="node">
<title>lightning_keystore</title>
<polygon fill="#5397c8" stroke="black" points="379.74,-198.07 379.74,-236.07 504.74,-236.07 504.74,-198.07 379.74,-198.07"/>
<text text-anchor="middle" x="442.24" y="-224.07" font-family="monospace" font-size="10.00">crate</text>
<polyline fill="none" stroke="black" points="379.74,-217.07 504.74,-217.07 "/>
<text text-anchor="middle" x="442.24" y="-205.07" font-family="monospace" font-size="10.00">lightning_keystore</text>
</g>
<!-- lightning_keystore::config::KeystoreConfig -->
<g id="node2" class="node">
<title>lightning_keystore::config::KeystoreConfig</title>
<polygon fill="#81c169" stroke="black" points="232.99,-390.06 232.99,-428.06 381.99,-428.06 381.99,-390.06 232.99,-390.06"/>
<text text-anchor="middle" x="307.49" y="-416.06" font-family="monospace" font-size="10.00">pub struct</text>
<polyline fill="none" stroke="black" points="232.99,-409.06 381.99,-409.06 "/>
<text text-anchor="middle" x="307.49" y="-397.06" font-family="monospace" font-size="10.00">config::KeystoreConfig</text>
</g>
<!-- lightning_keystore&#45;&gt;lightning_keystore::config::KeystoreConfig -->
<g id="edge1" class="edge">
<title>lightning_keystore&#45;&gt;lightning_keystore::config::KeystoreConfig</title>
<path fill="none" stroke="#000000" d="M403.85,-236.17C367.73,-270.63 320.42,-340.06 307,-380.23"/>
<polygon fill="#000000" stroke="#000000" points="303.59,-379.45 304.29,-390.02 310.33,-381.31 303.59,-379.45"/>
<text text-anchor="middle" x="342.92" y="-311.2" font-family="monospace" font-size="10.00">owns</text>
</g>
<!-- lightning_keystore&#45;&gt;lightning_keystore::config::KeystoreConfig -->
<g id="edge2" class="edge">
<title>lightning_keystore&#45;&gt;lightning_keystore::config::KeystoreConfig</title>
<path fill="none" stroke="#7f7f7f" stroke-dasharray="5,2" d="M445.39,-236.35C437.92,-271.66 391.53,-342.79 353.48,-382.38"/>
<polygon fill="#7f7f7f" stroke="#7f7f7f" points="350.6,-380.32 346,-389.86 355.55,-385.27 350.6,-380.32"/>
<text text-anchor="middle" x="386.94" y="-312.37" font-family="monospace" font-size="10.00">uses</text>
</g>
<!-- lightning_keystore::keystore::Keystore -->
<g id="node6" class="node">
<title>lightning_keystore::keystore::Keystore</title>
<polygon fill="#81c169" stroke="black" points="595.92,-368.24 595.92,-406.24 720.92,-406.24 720.92,-368.24 595.92,-368.24"/>
<text text-anchor="middle" x="658.42" y="-394.24" font-family="monospace" font-size="10.00">pub struct</text>
<polyline fill="none" stroke="black" points="595.92,-387.24 720.92,-387.24 "/>
<text text-anchor="middle" x="658.42" y="-375.24" font-family="monospace" font-size="10.00">keystore::Keystore</text>
</g>
<!-- lightning_keystore&#45;&gt;lightning_keystore::keystore::Keystore -->
<g id="edge3" class="edge">
<title>lightning_keystore&#45;&gt;lightning_keystore::keystore::Keystore</title>
<path fill="none" stroke="#000000" d="M445.58,-236.12C464.48,-268.6 533.86,-327.86 588.69,-362.72"/>
<polygon fill="#000000" stroke="#000000" points="587.02,-365.8 597.36,-368.1 590.71,-359.85 587.02,-365.8"/>
<text text-anchor="middle" x="504.64" y="-302.42" font-family="monospace" font-size="10.00">owns</text>
</g>
<!-- lightning_keystore&#45;&gt;lightning_keystore::keystore::Keystore -->
<g id="edge4" class="edge">
<title>lightning_keystore&#45;&gt;lightning_keystore::keystore::Keystore</title>
<path fill="none" stroke="#7f7f7f" stroke-dasharray="5,2" d="M503.2,-236.15C554.71,-267.28 623.25,-324.01 649.33,-359.53"/>
<polygon fill="#7f7f7f" stroke="#7f7f7f" points="646.56,-361.69 655.01,-368.08 652.39,-357.81 646.56,-361.69"/>
<text text-anchor="middle" x="563.76" y="-300.84" font-family="monospace" font-size="10.00">uses</text>
</g>
<!-- lightning_keystore::keystore::save -->
<g id="node15" class="node">
<title>lightning_keystore::keystore::save</title>
<polygon fill="#db5367" stroke="black" points="339.71,-0.5 339.71,-38.5 440.71,-38.5 440.71,-0.5 339.71,-0.5"/>
<text text-anchor="middle" x="390.21" y="-26.5" font-family="monospace" font-size="10.00">pub(self) fn</text>
<polyline fill="none" stroke="black" points="339.71,-19.5 440.71,-19.5 "/>
<text text-anchor="middle" x="390.21" y="-7.5" font-family="monospace" font-size="10.00">keystore::save</text>
</g>
<!-- lightning_keystore&#45;&gt;lightning_keystore::keystore::save -->
<g id="edge5" class="edge">
<title>lightning_keystore&#45;&gt;lightning_keystore::keystore::save</title>
<path fill="none" stroke="#000000" d="M437.16,-197.77C427.98,-162.93 408.62,-89.39 397.85,-48.48"/>
<polygon fill="#000000" stroke="#000000" points="401.17,-47.37 395.24,-38.59 394.4,-49.15 401.17,-47.37"/>
<text text-anchor="middle" x="405" y="-126.13" font-family="monospace" font-size="10.00">owns</text>
</g>
<!-- lightning_keystore::config::KeystoreConfig::load_test_keys -->
<g id="node3" class="node">
<title>lightning_keystore::config::KeystoreConfig::load_test_keys</title>
<polygon fill="#81c169" stroke="black" points="83.2,-577.5 83.2,-615.5 328.2,-615.5 328.2,-577.5 83.2,-577.5"/>
<text text-anchor="middle" x="205.7" y="-603.5" font-family="monospace" font-size="10.00">pub fn</text>
<polyline fill="none" stroke="black" points="83.2,-596.5 328.2,-596.5 "/>
<text text-anchor="middle" x="205.7" y="-584.5" font-family="monospace" font-size="10.00">config::KeystoreConfig::load_test_keys</text>
</g>
<!-- lightning_keystore::config::KeystoreConfig&#45;&gt;lightning_keystore::config::KeystoreConfig::load_test_keys -->
<g id="edge6" class="edge">
<title>lightning_keystore::config::KeystoreConfig&#45;&gt;lightning_keystore::config::KeystoreConfig::load_test_keys</title>
<path fill="none" stroke="#000000" d="M274.11,-428.32C244.8,-461.63 209.67,-527.94 201.45,-567"/>
<polygon fill="#000000" stroke="#000000" points="197.94,-566.83 199.88,-577.24 204.86,-567.89 197.94,-566.83"/>
<text text-anchor="middle" x="225.28" y="-500.66" font-family="monospace" font-size="10.00">owns</text>
</g>
<!-- lightning_keystore::config::KeystoreConfig::test -->
<g id="node4" class="node">
<title>lightning_keystore::config::KeystoreConfig::test</title>
<polygon fill="#81c169" stroke="black" points="53.24,-256.21 53.24,-294.21 238.24,-294.21 238.24,-256.21 53.24,-256.21"/>
<text text-anchor="middle" x="145.74" y="-282.21" font-family="monospace" font-size="10.00">pub fn</text>
<polyline fill="none" stroke="black" points="53.24,-275.21 238.24,-275.21 "/>
<text text-anchor="middle" x="145.74" y="-263.21" font-family="monospace" font-size="10.00">config::KeystoreConfig::test</text>
</g>
<!-- lightning_keystore::config::KeystoreConfig&#45;&gt;lightning_keystore::config::KeystoreConfig::test -->
<g id="edge7" class="edge">
<title>lightning_keystore::config::KeystoreConfig&#45;&gt;lightning_keystore::config::KeystoreConfig::test</title>
<path fill="none" stroke="#000000" d="M306.27,-389.94C294.38,-365.16 253.82,-326.54 216.11,-300.17"/>
<polygon fill="#000000" stroke="#000000" points="217.86,-297.13 207.62,-294.41 213.93,-302.92 217.86,-297.13"/>
<text text-anchor="middle" x="248.69" y="-348.06" font-family="monospace" font-size="10.00">owns</text>
</g>
<!-- lightning_keystore::config::KeystoreConfig::test2 -->
<g id="node5" class="node">
<title>lightning_keystore::config::KeystoreConfig::test2</title>
<polygon fill="#81c169" stroke="black" points="0,-431.56 0,-469.56 191,-469.56 191,-431.56 0,-431.56"/>
<text text-anchor="middle" x="95.5" y="-457.56" font-family="monospace" font-size="10.00">pub fn</text>
<polyline fill="none" stroke="black" points="0,-450.56 191,-450.56 "/>
<text text-anchor="middle" x="95.5" y="-438.56" font-family="monospace" font-size="10.00">config::KeystoreConfig::test2</text>
</g>
<!-- lightning_keystore::config::KeystoreConfig&#45;&gt;lightning_keystore::config::KeystoreConfig::test2 -->
<g id="edge8" class="edge">
<title>lightning_keystore::config::KeystoreConfig&#45;&gt;lightning_keystore::config::KeystoreConfig::test2</title>
<path fill="none" stroke="#000000" d="M232.88,-397.64C193.17,-402.09 147.03,-413.37 119.56,-426.57"/>
<polygon fill="#000000" stroke="#000000" points="117.84,-423.52 110.66,-431.31 121.13,-429.7 117.84,-423.52"/>
<text text-anchor="middle" x="163.72" y="-415.11" font-family="monospace" font-size="10.00">owns</text>
</g>
<!-- lightning_keystore::config::KeystoreConfig::load_test_keys&#45;&gt;lightning_keystore::config::KeystoreConfig -->
<g id="edge9" class="edge">
<title>lightning_keystore::config::KeystoreConfig::load_test_keys&#45;&gt;lightning_keystore::config::KeystoreConfig</title>
<path fill="none" stroke="#7f7f7f" stroke-dasharray="5,2" d="M239.08,-577.24C268.4,-543.93 303.52,-477.62 311.74,-438.56"/>
<polygon fill="#7f7f7f" stroke="#7f7f7f" points="315.25,-438.73 313.31,-428.32 308.33,-437.67 315.25,-438.73"/>
<text text-anchor="middle" x="262.91" y="-510.9" font-family="monospace" font-size="10.00">uses</text>
</g>
<!-- lightning_keystore::config::KeystoreConfig::test&#45;&gt;lightning_keystore::config::KeystoreConfig -->
<g id="edge10" class="edge">
<title>lightning_keystore::config::KeystoreConfig::test&#45;&gt;lightning_keystore::config::KeystoreConfig</title>
<path fill="none" stroke="#7f7f7f" stroke-dasharray="5,2" d="M146.97,-294.33C158.85,-319.11 199.41,-357.73 237.12,-384.1"/>
<polygon fill="#7f7f7f" stroke="#7f7f7f" points="235.38,-387.14 245.62,-389.86 239.31,-381.35 235.38,-387.14"/>
<text text-anchor="middle" x="179.55" y="-342.21" font-family="monospace" font-size="10.00">uses</text>
</g>
<!-- lightning_keystore::config::KeystoreConfig::test2&#45;&gt;lightning_keystore::config::KeystoreConfig -->
<g id="edge11" class="edge">
<title>lightning_keystore::config::KeystoreConfig::test2&#45;&gt;lightning_keystore::config::KeystoreConfig</title>
<path fill="none" stroke="#7f7f7f" stroke-dasharray="5,2" d="M191.16,-459.08C225.25,-453.57 260.78,-443.95 283.5,-433.02"/>
<polygon fill="#7f7f7f" stroke="#7f7f7f" points="285.23,-436.06 292.41,-428.26 281.94,-429.88 285.23,-436.06"/>
<text text-anchor="middle" x="224.83" y="-449.05" font-family="monospace" font-size="10.00">uses</text>
</g>
<!-- lightning_keystore::keystore::Keystore::Config -->
<g id="node7" class="node">
<title>lightning_keystore::keystore::Keystore::Config</title>
<polygon fill="#db5367" stroke="black" points="404.39,-311.64 404.39,-349.64 577.39,-349.64 577.39,-311.64 404.39,-311.64"/>
<text text-anchor="middle" x="490.89" y="-337.64" font-family="monospace" font-size="10.00">pub(self) type</text>
<polyline fill="none" stroke="black" points="404.39,-330.64 577.39,-330.64 "/>
<text text-anchor="middle" x="490.89" y="-318.64" font-family="monospace" font-size="10.00">keystore::Keystore::Config</text>
</g>
<!-- lightning_keystore::keystore::Keystore&#45;&gt;lightning_keystore::keystore::Keystore::Config -->
<g id="edge12" class="edge">
<title>lightning_keystore::keystore::Keystore&#45;&gt;lightning_keystore::keystore::Keystore::Config</title>
<path fill="none" stroke="#000000" d="M602.17,-368.23C587.66,-363.33 571.92,-358.02 556.97,-352.96"/>
<polygon fill="#000000" stroke="#000000" points="557.87,-349.57 547.27,-349.69 555.63,-356.2 557.87,-349.57"/>
<text text-anchor="middle" x="567.07" y="-363.6" font-family="monospace" font-size="10.00">owns</text>
</g>
<!-- lightning_keystore::keystore::Keystore::build_graph -->
<g id="node8" class="node">
<title>lightning_keystore::keystore::Keystore::build_graph</title>
<polygon fill="#db5367" stroke="black" points="736.38,-229.64 736.38,-267.64 939.38,-267.64 939.38,-229.64 736.38,-229.64"/>
<text text-anchor="middle" x="837.88" y="-255.64" font-family="monospace" font-size="10.00">pub(self) fn</text>
<polyline fill="none" stroke="black" points="736.38,-248.64 939.38,-248.64 "/>
<text text-anchor="middle" x="837.88" y="-236.64" font-family="monospace" font-size="10.00">keystore::Keystore::build_graph</text>
</g>
<!-- lightning_keystore::keystore::Keystore&#45;&gt;lightning_keystore::keystore::Keystore::build_graph -->
<g id="edge13" class="edge">
<title>lightning_keystore::keystore::Keystore&#45;&gt;lightning_keystore::keystore::Keystore::build_graph</title>
<path fill="none" stroke="#000000" d="M683.37,-367.97C715.12,-343.45 770.01,-301.05 805.11,-273.95"/>
<polygon fill="#000000" stroke="#000000" points="807.37,-276.63 813.14,-267.75 803.09,-271.09 807.37,-276.63"/>
<text text-anchor="middle" x="731.74" y="-323.96" font-family="monospace" font-size="10.00">owns</text>
</g>
<!-- lightning_keystore::keystore::Keystore::generate_keys -->
<g id="node9" class="node">
<title>lightning_keystore::keystore::Keystore::generate_keys</title>
<polygon fill="#db5367" stroke="black" points="374.64,-531.07 374.64,-569.07 589.64,-569.07 589.64,-531.07 374.64,-531.07"/>
<text text-anchor="middle" x="482.14" y="-557.07" font-family="monospace" font-size="10.00">pub(self) fn</text>
<polyline fill="none" stroke="black" points="374.64,-550.07 589.64,-550.07 "/>
<text text-anchor="middle" x="482.14" y="-538.07" font-family="monospace" font-size="10.00">keystore::Keystore::generate_keys</text>
</g>
<!-- lightning_keystore::keystore::Keystore&#45;&gt;lightning_keystore::keystore::Keystore::generate_keys -->
<g id="edge14" class="edge">
<title>lightning_keystore::keystore::Keystore&#45;&gt;lightning_keystore::keystore::Keystore::generate_keys</title>
<path fill="none" stroke="#000000" d="M637.51,-406.56C605.88,-435.77 545.82,-491.24 510.35,-524"/>
<polygon fill="#000000" stroke="#000000" points="507.72,-521.67 502.75,-531.03 512.47,-526.81 507.72,-521.67"/>
<text text-anchor="middle" x="561.43" y="-468.28" font-family="monospace" font-size="10.00">owns</text>
</g>
<!-- lightning_keystore::keystore::Keystore::get_bls_pk -->
<g id="node10" class="node">
<title>lightning_keystore::keystore::Keystore::get_bls_pk</title>
<polygon fill="#db5367" stroke="black" points="733.09,-514.23 733.09,-552.23 930.09,-552.23 930.09,-514.23 733.09,-514.23"/>
<text text-anchor="middle" x="831.59" y="-540.23" font-family="monospace" font-size="10.00">pub(self) fn</text>
<polyline fill="none" stroke="black" points="733.09,-533.23 930.09,-533.23 "/>
<text text-anchor="middle" x="831.59" y="-521.23" font-family="monospace" font-size="10.00">keystore::Keystore::get_bls_pk</text>
</g>
<!-- lightning_keystore::keystore::Keystore&#45;&gt;lightning_keystore::keystore::Keystore::get_bls_pk -->
<g id="edge15" class="edge">
<title>lightning_keystore::keystore::Keystore&#45;&gt;lightning_keystore::keystore::Keystore::get_bls_pk</title>
<path fill="none" stroke="#000000" d="M659.94,-406.37C673.34,-433.83 721.27,-479.18 763.47,-508.49"/>
<polygon fill="#000000" stroke="#000000" points="761.58,-511.43 771.83,-514.12 765.5,-505.63 761.58,-511.43"/>
<text text-anchor="middle" x="699.2" y="-460.43" font-family="monospace" font-size="10.00">owns</text>
</g>
<!-- lightning_keystore::keystore::Keystore::get_bls_sk -->
<g id="node11" class="node">
<title>lightning_keystore::keystore::Keystore::get_bls_sk</title>
<polygon fill="#db5367" stroke="black" points="784.99,-373.66 784.99,-411.66 981.99,-411.66 981.99,-373.66 784.99,-373.66"/>
<text text-anchor="middle" x="883.49" y="-399.66" font-family="monospace" font-size="10.00">pub(self) fn</text>
<polyline fill="none" stroke="black" points="784.99,-392.66 981.99,-392.66 "/>
<text text-anchor="middle" x="883.49" y="-380.66" font-family="monospace" font-size="10.00">keystore::Keystore::get_bls_sk</text>
</g>
<!-- lightning_keystore::keystore::Keystore&#45;&gt;lightning_keystore::keystore::Keystore::get_bls_sk -->
<g id="edge16" class="edge">
<title>lightning_keystore::keystore::Keystore&#45;&gt;lightning_keystore::keystore::Keystore::get_bls_sk</title>
<path fill="none" stroke="#000000" d="M685.57,-406.36C723.85,-417.42 794.09,-420.22 839.77,-413.41"/>
<polygon fill="#000000" stroke="#000000" points="840.43,-416.84 849.69,-411.69 839.24,-409.95 840.43,-416.84"/>
<text text-anchor="middle" x="750.17" y="-412.88" font-family="monospace" font-size="10.00">owns</text>
</g>
<!-- lightning_keystore::keystore::Keystore::get_ed25519_pk -->
<g id="node12" class="node">
<title>lightning_keystore::keystore::Keystore::get_ed25519_pk</title>
<polygon fill="#db5367" stroke="black" points="587.69,-159.19 587.69,-197.19 808.69,-197.19 808.69,-159.19 587.69,-159.19"/>
<text text-anchor="middle" x="698.19" y="-185.19" font-family="monospace" font-size="10.00">pub(self) fn</text>
<polyline fill="none" stroke="black" points="587.69,-178.19 808.69,-178.19 "/>
<text text-anchor="middle" x="698.19" y="-166.19" font-family="monospace" font-size="10.00">keystore::Keystore::get_ed25519_pk</text>
</g>
<!-- lightning_keystore::keystore::Keystore&#45;&gt;lightning_keystore::keystore::Keystore::get_ed25519_pk -->
<g id="edge17" class="edge">
<title>lightning_keystore::keystore::Keystore&#45;&gt;lightning_keystore::keystore::Keystore::get_ed25519_pk</title>
<path fill="none" stroke="#000000" d="M679.85,-368.14C699.43,-331.33 715.08,-250.8 711.45,-207.3"/>
<polygon fill="#000000" stroke="#000000" points="714.92,-206.8 710.15,-197.34 707.97,-207.71 714.92,-206.8"/>
<text text-anchor="middle" x="683.15" y="-290.72" font-family="monospace" font-size="10.00">owns</text>
</g>
<!-- lightning_keystore::keystore::Keystore::get_ed25519_sk -->
<g id="node13" class="node">
<title>lightning_keystore::keystore::Keystore::get_ed25519_sk</title>
<polygon fill="#db5367" stroke="black" points="582.23,-584.82 582.23,-622.82 803.23,-622.82 803.23,-584.82 582.23,-584.82"/>
<text text-anchor="middle" x="692.73" y="-610.82" font-family="monospace" font-size="10.00">pub(self) fn</text>
<polyline fill="none" stroke="black" points="582.23,-603.82 803.23,-603.82 "/>
<text text-anchor="middle" x="692.73" y="-591.82" font-family="monospace" font-size="10.00">keystore::Keystore::get_ed25519_sk</text>
</g>
<!-- lightning_keystore::keystore::Keystore&#45;&gt;lightning_keystore::keystore::Keystore::get_ed25519_sk -->
<g id="edge18" class="edge">
<title>lightning_keystore::keystore::Keystore&#45;&gt;lightning_keystore::keystore::Keystore::get_ed25519_sk</title>
<path fill="none" stroke="#000000" d="M646.01,-406.26C637.86,-444.54 650.02,-530.72 668.34,-575.58"/>
<polygon fill="#000000" stroke="#000000" points="665.17,-577.07 672.47,-584.76 671.56,-574.2 665.17,-577.07"/>
<text text-anchor="middle" x="644.67" y="-493.92" font-family="monospace" font-size="10.00">owns</text>
</g>
<!-- lightning_keystore::keystore::Keystore::init -->
<g id="node14" class="node">
<title>lightning_keystore::keystore::Keystore::init</title>
<polygon fill="#81c169" stroke="black" points="390.01,-422.72 390.01,-460.72 551.01,-460.72 551.01,-422.72 390.01,-422.72"/>
<text text-anchor="middle" x="470.51" y="-448.72" font-family="monospace" font-size="10.00">pub fn</text>
<polyline fill="none" stroke="black" points="390.01,-441.72 551.01,-441.72 "/>
<text text-anchor="middle" x="470.51" y="-429.72" font-family="monospace" font-size="10.00">keystore::Keystore::init</text>
</g>
<!-- lightning_keystore::keystore::Keystore&#45;&gt;lightning_keystore::keystore::Keystore::init -->
<g id="edge19" class="edge">
<title>lightning_keystore::keystore::Keystore&#45;&gt;lightning_keystore::keystore::Keystore::init</title>
<path fill="none" stroke="#000000" d="M595.87,-379.45C558.66,-385.89 514.09,-400.94 489.26,-416.77"/>
<polygon fill="#000000" stroke="#000000" points="487.16,-413.96 481.05,-422.62 491.22,-419.66 487.16,-413.96"/>
<text text-anchor="middle" x="530.06" y="-401.11" font-family="monospace" font-size="10.00">owns</text>
</g>
<!-- lightning_keystore::keystore::Keystore::Config&#45;&gt;lightning_keystore::config::KeystoreConfig -->
<g id="edge20" class="edge">
<title>lightning_keystore::keystore::Keystore::Config&#45;&gt;lightning_keystore::config::KeystoreConfig</title>
<path fill="none" stroke="#7f7f7f" stroke-dasharray="5,2" d="M446.02,-349.82C420.51,-360.73 388.38,-374.47 361.48,-385.97"/>
<polygon fill="#7f7f7f" stroke="#7f7f7f" points="360.03,-382.79 352.21,-389.94 362.78,-389.22 360.03,-382.79"/>
<text text-anchor="middle" x="391.25" y="-370.9" font-family="monospace" font-size="10.00">uses</text>
</g>
<!-- lightning_keystore::keystore::Keystore::generate_keys&#45;&gt;lightning_keystore::config::KeystoreConfig -->
<g id="edge21" class="edge">
<title>lightning_keystore::keystore::Keystore::generate_keys&#45;&gt;lightning_keystore::config::KeystoreConfig</title>
<path fill="none" stroke="#7f7f7f" stroke-dasharray="5,2" d="M458.58,-531.05C427.72,-506.13 373.51,-462.36 339.1,-434.58"/>
<polygon fill="#7f7f7f" stroke="#7f7f7f" points="341.21,-431.78 331.23,-428.22 336.81,-437.23 341.21,-431.78"/>
<text text-anchor="middle" x="386.34" y="-485.81" font-family="monospace" font-size="10.00">uses</text>
</g>
<!-- lightning_keystore::keystore::Keystore::get_bls_pk&#45;&gt;lightning_keystore::keystore::Keystore -->
<g id="edge22" class="edge">
<title>lightning_keystore::keystore::Keystore::get_bls_pk&#45;&gt;lightning_keystore::keystore::Keystore</title>
<path fill="none" stroke="#7f7f7f" stroke-dasharray="5,2" d="M830.08,-514.1C816.68,-486.64 768.74,-441.29 726.54,-411.98"/>
<polygon fill="#7f7f7f" stroke="#7f7f7f" points="728.44,-409.04 718.19,-406.35 724.52,-414.84 728.44,-409.04"/>
<text text-anchor="middle" x="765.81" y="-466.04" font-family="monospace" font-size="10.00">uses</text>
</g>
<!-- lightning_keystore::keystore::Keystore::get_bls_sk&#45;&gt;lightning_keystore::keystore::Keystore -->
<g id="edge23" class="edge">
<title>lightning_keystore::keystore::Keystore::get_bls_sk&#45;&gt;lightning_keystore::keystore::Keystore</title>
<path fill="none" stroke="#7f7f7f" stroke-dasharray="5,2" d="M856.33,-373.54C818.05,-362.48 747.81,-359.67 702.13,-366.49"/>
<polygon fill="#7f7f7f" stroke="#7f7f7f" points="701.47,-363.05 692.21,-368.2 702.66,-369.95 701.47,-363.05"/>
<text text-anchor="middle" x="766.73" y="-373.02" font-family="monospace" font-size="10.00">uses</text>
</g>
<!-- lightning_keystore::keystore::Keystore::get_ed25519_pk&#45;&gt;lightning_keystore::keystore::Keystore -->
<g id="edge24" class="edge">
<title>lightning_keystore::keystore::Keystore::get_ed25519_pk&#45;&gt;lightning_keystore::keystore::Keystore</title>
<path fill="none" stroke="#7f7f7f" stroke-dasharray="5,2" d="M676.76,-197.3C657.18,-234.1 641.53,-314.63 645.16,-358.13"/>
<polygon fill="#7f7f7f" stroke="#7f7f7f" points="641.7,-358.63 646.46,-368.09 648.64,-357.72 641.7,-358.63"/>
<text text-anchor="middle" x="648.46" y="-280.71" font-family="monospace" font-size="10.00">uses</text>
</g>
<!-- lightning_keystore::keystore::Keystore::get_ed25519_sk&#45;&gt;lightning_keystore::keystore::Keystore -->
<g id="edge25" class="edge">
<title>lightning_keystore::keystore::Keystore::get_ed25519_sk&#45;&gt;lightning_keystore::keystore::Keystore</title>
<path fill="none" stroke="#7f7f7f" stroke-dasharray="5,2" d="M705.14,-584.81C713.29,-546.53 701.13,-460.34 682.81,-415.48"/>
<polygon fill="#7f7f7f" stroke="#7f7f7f" points="685.98,-413.99 678.68,-406.31 679.59,-416.87 685.98,-413.99"/>
<text text-anchor="middle" x="681.48" y="-503.14" font-family="monospace" font-size="10.00">uses</text>
</g>
<!-- lightning_keystore::keystore::Keystore::init&#45;&gt;lightning_keystore::config::KeystoreConfig -->
<g id="edge26" class="edge">
<title>lightning_keystore::keystore::Keystore::init&#45;&gt;lightning_keystore::config::KeystoreConfig</title>
<path fill="none" stroke="#7f7f7f" stroke-dasharray="5,2" d="M389.96,-425.58C389.8,-425.55 389.64,-425.51 389.47,-425.48"/>
<polygon fill="#7f7f7f" stroke="#7f7f7f" points="392.75,-422.57 382.26,-424.04 391.38,-429.43 392.75,-422.57"/>
<text text-anchor="middle" x="377.22" y="-428.53" font-family="monospace" font-size="10.00">uses</text>
</g>
<!-- lightning_keystore::keystore::Keystore::init&#45;&gt;lightning_keystore::keystore::Keystore -->
<g id="edge27" class="edge">
<title>lightning_keystore::keystore::Keystore::init&#45;&gt;lightning_keystore::keystore::Keystore</title>
<path fill="none" stroke="#7f7f7f" stroke-dasharray="5,2" d="M551.05,-445.86C583.71,-438.34 618.55,-425.6 639.5,-412.3"/>
<polygon fill="#7f7f7f" stroke="#7f7f7f" points="641.71,-415.02 647.84,-406.37 637.66,-409.32 641.71,-415.02"/>
<text text-anchor="middle" x="582.78" y="-432.08" font-family="monospace" font-size="10.00">uses</text>
</g>
</g>
</svg>
