<?xml version="1.0" encoding="UTF-8" standalone="no"?>
<!DOCTYPE svg PUBLIC "-//W3C//DTD SVG 1.1//EN"
 "http://www.w3.org/Graphics/SVG/1.1/DTD/svg11.dtd">
<!-- Generated by graphviz version 4.0.0 (0)
 -->
<!-- Pages: 1 -->
<svg width="965pt" height="703pt"
 viewBox="0.00 0.00 964.60 702.60" xmlns="http://www.w3.org/2000/svg" xmlns:xlink="http://www.w3.org/1999/xlink">
<g id="graph0" class="graph" transform="scale(1 1) rotate(0) translate(28.8 673.8)">
<polygon fill="white" stroke="transparent" points="-28.8,28.8 -28.8,-673.8 935.8,-673.8 935.8,28.8 -28.8,28.8"/>
<text text-anchor="middle" x="453.5" y="-612.2" font-family="Helvetica,sans-Serif" font-size="36.00">blake3_wasm</text>
<!-- blake3_wasm -->
<g id="node1" class="node">
<title>blake3_wasm</title>
<polygon fill="#5397c8" stroke="black" points="246.63,-219.16 246.63,-257.16 329.63,-257.16 329.63,-219.16 246.63,-219.16"/>
<text text-anchor="middle" x="288.13" y="-245.16" font-family="monospace" font-size="10.00">crate</text>
<polyline fill="none" stroke="black" points="246.63,-238.16 329.63,-238.16 "/>
<text text-anchor="middle" x="288.13" y="-226.16" font-family="monospace" font-size="10.00">blake3_wasm</text>
</g>
<!-- blake3_wasm::IncrementalVerifier -->
<g id="node2" class="node">
<title>blake3_wasm::IncrementalVerifier</title>
<polygon fill="#81c169" stroke="black" points="460.94,-269.03 460.94,-307.03 591.94,-307.03 591.94,-269.03 460.94,-269.03"/>
<text text-anchor="middle" x="526.44" y="-295.03" font-family="monospace" font-size="10.00">pub struct</text>
<polyline fill="none" stroke="black" points="460.94,-288.03 591.94,-288.03 "/>
<text text-anchor="middle" x="526.44" y="-276.03" font-family="monospace" font-size="10.00">IncrementalVerifier</text>
</g>
<!-- blake3_wasm&#45;&gt;blake3_wasm::IncrementalVerifier -->
<g id="edge1" class="edge">
<title>blake3_wasm&#45;&gt;blake3_wasm::IncrementalVerifier</title>
<path fill="none" stroke="#000000" d="M329.64,-246.85C362.96,-253.82 410.62,-263.79 450.69,-272.18"/>
<polygon fill="#000000" stroke="#000000" points="450.2,-275.65 460.7,-274.27 451.63,-268.8 450.2,-275.65"/>
<text text-anchor="middle" x="377.67" y="-262.51" font-family="monospace" font-size="10.00">owns</text>
</g>
<!-- blake3_wasm::hash -->
<g id="node9" class="node">
<title>blake3_wasm::hash</title>
<polygon fill="#81c169" stroke="black" points="0.26,-176.23 0.26,-214.23 54.26,-214.23 54.26,-176.23 0.26,-176.23"/>
<text text-anchor="middle" x="27.26" y="-202.23" font-family="monospace" font-size="10.00">pub fn</text>
<polyline fill="none" stroke="black" points="0.26,-195.23 54.26,-195.23 "/>
<text text-anchor="middle" x="27.26" y="-183.23" font-family="monospace" font-size="10.00">hash</text>
</g>
<!-- blake3_wasm&#45;&gt;blake3_wasm::hash -->
<g id="edge2" class="edge">
<title>blake3_wasm&#45;&gt;blake3_wasm::hash</title>
<path fill="none" stroke="#000000" d="M246.5,-231.31C196.25,-223.04 112.5,-209.26 64.36,-201.34"/>
<polygon fill="#000000" stroke="#000000" points="64.8,-197.86 54.36,-199.69 63.66,-204.77 64.8,-197.86"/>
<text text-anchor="middle" x="142.93" y="-219.33" font-family="monospace" font-size="10.00">owns</text>
</g>
<!-- blake3_wasm::IncrementalVerifier::feed_content -->
<g id="node3" class="node">
<title>blake3_wasm::IncrementalVerifier::feed_content</title>
<polygon fill="#81c169" stroke="black" points="547.97,-0.44 547.97,-38.44 762.97,-38.44 762.97,-0.44 547.97,-0.44"/>
<text text-anchor="middle" x="655.47" y="-26.44" font-family="monospace" font-size="10.00">pub fn</text>
<polyline fill="none" stroke="black" points="547.97,-19.44 762.97,-19.44 "/>
<text text-anchor="middle" x="655.47" y="-7.44" font-family="monospace" font-size="10.00">IncrementalVerifier::feed_content</text>
</g>
<!-- blake3_wasm::IncrementalVerifier&#45;&gt;blake3_wasm::IncrementalVerifier::feed_content -->
<g id="edge3" class="edge">
<title>blake3_wasm::IncrementalVerifier&#45;&gt;blake3_wasm::IncrementalVerifier::feed_content</title>
<path fill="none" stroke="#000000" d="M554.59,-268.64C592.44,-221.63 648.48,-104.02 658.94,-48.56"/>
<polygon fill="#000000" stroke="#000000" points="662.41,-49.05 660.38,-38.65 655.48,-48.04 662.41,-49.05"/>
<text text-anchor="middle" x="594.26" y="-161.6" font-family="monospace" font-size="10.00">owns</text>
</g>
<!-- blake3_wasm::IncrementalVerifier::feed_content_inner -->
<g id="node4" class="node">
<title>blake3_wasm::IncrementalVerifier::feed_content_inner</title>
<polygon fill="#f8c04c" stroke="black" points="405.47,-558.28 405.47,-596.28 656.47,-596.28 656.47,-558.28 405.47,-558.28"/>
<text text-anchor="middle" x="530.97" y="-584.28" font-family="monospace" font-size="10.00">pub(crate) fn</text>
<polyline fill="none" stroke="black" points="405.47,-577.28 656.47,-577.28 "/>
<text text-anchor="middle" x="530.97" y="-565.28" font-family="monospace" font-size="10.00">IncrementalVerifier::feed_content_inner</text>
</g>
<!-- blake3_wasm::IncrementalVerifier&#45;&gt;blake3_wasm::IncrementalVerifier::feed_content_inner -->
<g id="edge4" class="edge">
<title>blake3_wasm::IncrementalVerifier&#45;&gt;blake3_wasm::IncrementalVerifier::feed_content_inner</title>
<path fill="none" stroke="#000000" d="M512.5,-307.23C497.27,-356.81 498.39,-489.32 513.43,-548.29"/>
<polygon fill="#000000" stroke="#000000" points="510.12,-549.46 516.28,-558.08 516.84,-547.5 510.12,-549.46"/>
<text text-anchor="middle" x="500.47" y="-430.76" font-family="monospace" font-size="10.00">owns</text>
</g>
<!-- blake3_wasm::IncrementalVerifier::feed_proof -->
<g id="node5" class="node">
<title>blake3_wasm::IncrementalVerifier::feed_proof</title>
<polygon fill="#81c169" stroke="black" points="684.92,-450.32 684.92,-488.32 887.92,-488.32 887.92,-450.32 684.92,-450.32"/>
<text text-anchor="middle" x="786.42" y="-476.32" font-family="monospace" font-size="10.00">pub fn</text>
<polyline fill="none" stroke="black" points="684.92,-469.32 887.92,-469.32 "/>
<text text-anchor="middle" x="786.42" y="-457.32" font-family="monospace" font-size="10.00">IncrementalVerifier::feed_proof</text>
</g>
<!-- blake3_wasm::IncrementalVerifier&#45;&gt;blake3_wasm::IncrementalVerifier::feed_proof -->
<g id="edge5" class="edge">
<title>blake3_wasm::IncrementalVerifier&#45;&gt;blake3_wasm::IncrementalVerifier::feed_proof</title>
<path fill="none" stroke="#000000" d="M532.13,-307.35C557.08,-342.28 645.03,-408.02 710.84,-445.17"/>
<polygon fill="#000000" stroke="#000000" points="709.53,-448.44 719.97,-450.22 712.91,-442.32 709.53,-448.44"/>
<text text-anchor="middle" x="608.99" y="-379.26" font-family="monospace" font-size="10.00">owns</text>
</g>
<!-- blake3_wasm::IncrementalVerifier::feed_proof_and_content -->
<g id="node6" class="node">
<title>blake3_wasm::IncrementalVerifier::feed_proof_and_content</title>
<polygon fill="#81c169" stroke="black" points="183.82,-451.16 183.82,-489.16 458.82,-489.16 458.82,-451.16 183.82,-451.16"/>
<text text-anchor="middle" x="321.32" y="-477.16" font-family="monospace" font-size="10.00">pub fn</text>
<polyline fill="none" stroke="black" points="183.82,-470.16 458.82,-470.16 "/>
<text text-anchor="middle" x="321.32" y="-458.16" font-family="monospace" font-size="10.00">IncrementalVerifier::feed_proof_and_content</text>
</g>
<!-- blake3_wasm::IncrementalVerifier&#45;&gt;blake3_wasm::IncrementalVerifier::feed_proof_and_content -->
<g id="edge6" class="edge">
<title>blake3_wasm::IncrementalVerifier&#45;&gt;blake3_wasm::IncrementalVerifier::feed_proof_and_content</title>
<path fill="none" stroke="#000000" d="M471.85,-307.18C421.94,-340.38 353.54,-403.65 328.8,-441.85"/>
<polygon fill="#000000" stroke="#000000" points="325.49,-440.58 323.49,-450.99 331.54,-444.1 325.49,-440.58"/>
<text text-anchor="middle" x="387.82" y="-377.52" font-family="monospace" font-size="10.00">owns</text>
</g>
<!-- blake3_wasm::IncrementalVerifier::feed_proof_inner -->
<g id="node7" class="node">
<title>blake3_wasm::IncrementalVerifier::feed_proof_inner</title>
<polygon fill="#f8c04c" stroke="black" points="300.94,-30.4 300.94,-68.4 539.94,-68.4 539.94,-30.4 300.94,-30.4"/>
<text text-anchor="middle" x="420.44" y="-56.4" font-family="monospace" font-size="10.00">pub(crate) fn</text>
<polyline fill="none" stroke="black" points="300.94,-49.4 539.94,-49.4 "/>
<text text-anchor="middle" x="420.44" y="-37.4" font-family="monospace" font-size="10.00">IncrementalVerifier::feed_proof_inner</text>
</g>
<!-- blake3_wasm::IncrementalVerifier&#45;&gt;blake3_wasm::IncrementalVerifier::feed_proof_inner -->
<g id="edge7" class="edge">
<title>blake3_wasm::IncrementalVerifier&#45;&gt;blake3_wasm::IncrementalVerifier::feed_proof_inner</title>
<path fill="none" stroke="#000000" d="M532.63,-268.69C530.65,-225.97 488.51,-125.88 454.39,-76.84"/>
<polygon fill="#000000" stroke="#000000" points="457.08,-74.58 448.34,-68.58 451.43,-78.72 457.08,-74.58"/>
<text text-anchor="middle" x="481.01" y="-175.76" font-family="monospace" font-size="10.00">owns</text>
</g>
<!-- blake3_wasm::IncrementalVerifier::new -->
<g id="node8" class="node">
<title>blake3_wasm::IncrementalVerifier::new</title>
<polygon fill="#81c169" stroke="black" points="745.97,-201.37 745.97,-239.37 906.97,-239.37 906.97,-201.37 745.97,-201.37"/>
<text text-anchor="middle" x="826.47" y="-227.37" font-family="monospace" font-size="10.00">pub fn</text>
<polyline fill="none" stroke="black" points="745.97,-220.37 906.97,-220.37 "/>
<text text-anchor="middle" x="826.47" y="-208.37" font-family="monospace" font-size="10.00">IncrementalVerifier::new</text>
</g>
<!-- blake3_wasm::IncrementalVerifier&#45;&gt;blake3_wasm::IncrementalVerifier::new -->
<g id="edge8" class="edge">
<title>blake3_wasm::IncrementalVerifier&#45;&gt;blake3_wasm::IncrementalVerifier::new</title>
<path fill="none" stroke="#000000" d="M592.04,-295.99C656.9,-289.34 752.86,-265.99 799.38,-244.12"/>
<polygon fill="#000000" stroke="#000000" points="801.19,-247.13 808.52,-239.48 798.02,-240.88 801.19,-247.13"/>
<text text-anchor="middle" x="683.21" y="-273.05" font-family="monospace" font-size="10.00">owns</text>
</g>
<!-- blake3_wasm::IncrementalVerifier::feed_content&#45;&gt;blake3_wasm::IncrementalVerifier -->
<g id="edge9" class="edge">
<title>blake3_wasm::IncrementalVerifier::feed_content&#45;&gt;blake3_wasm::IncrementalVerifier</title>
<path fill="none" stroke="#7f7f7f" stroke-dasharray="5,2" d="M627.32,-38.82C589.46,-85.84 533.43,-203.45 522.97,-258.91"/>
<polygon fill="#7f7f7f" stroke="#7f7f7f" points="519.5,-258.42 521.53,-268.82 526.43,-259.42 519.5,-258.42"/>
<text text-anchor="middle" x="562.64" y="-151.86" font-family="monospace" font-size="10.00">uses</text>
</g>
<!-- blake3_wasm::IncrementalVerifier::feed_content_inner&#45;&gt;blake3_wasm::IncrementalVerifier -->
<g id="edge10" class="edge">
<title>blake3_wasm::IncrementalVerifier::feed_content_inner&#45;&gt;blake3_wasm::IncrementalVerifier</title>
<path fill="none" stroke="#7f7f7f" stroke-dasharray="5,2" d="M544.91,-558.08C560.14,-508.51 559.02,-376 543.99,-317.03"/>
<polygon fill="#7f7f7f" stroke="#7f7f7f" points="547.29,-315.85 541.13,-307.23 540.57,-317.81 547.29,-315.85"/>
<text text-anchor="middle" x="531.95" y="-440.55" font-family="monospace" font-size="10.00">uses</text>
</g>
<!-- blake3_wasm::IncrementalVerifier::feed_proof&#45;&gt;blake3_wasm::IncrementalVerifier -->
<g id="edge11" class="edge">
<title>blake3_wasm::IncrementalVerifier::feed_proof&#45;&gt;blake3_wasm::IncrementalVerifier</title>
<path fill="none" stroke="#7f7f7f" stroke-dasharray="5,2" d="M780.73,-450C755.68,-414.91 667.05,-348.74 601.15,-311.68"/>
<polygon fill="#7f7f7f" stroke="#7f7f7f" points="602.46,-308.41 592.01,-306.65 599.08,-314.54 602.46,-308.41"/>
<text text-anchor="middle" x="678.44" y="-383.84" font-family="monospace" font-size="10.00">uses</text>
</g>
<!-- blake3_wasm::IncrementalVerifier::feed_proof_and_content&#45;&gt;blake3_wasm::IncrementalVerifier -->
<g id="edge12" class="edge">
<title>blake3_wasm::IncrementalVerifier::feed_proof_and_content&#45;&gt;blake3_wasm::IncrementalVerifier</title>
<path fill="none" stroke="#7f7f7f" stroke-dasharray="5,2" d="M375.91,-451C425.83,-417.81 494.22,-354.53 518.96,-316.34"/>
<polygon fill="#7f7f7f" stroke="#7f7f7f" points="522.28,-317.6 524.28,-307.2 516.22,-314.08 522.28,-317.6"/>
<text text-anchor="middle" x="434.94" y="-386.67" font-family="monospace" font-size="10.00">uses</text>
</g>
<!-- blake3_wasm::IncrementalVerifier::feed_proof_inner&#45;&gt;blake3_wasm::IncrementalVerifier -->
<g id="edge13" class="edge">
<title>blake3_wasm::IncrementalVerifier::feed_proof_inner&#45;&gt;blake3_wasm::IncrementalVerifier</title>
<path fill="none" stroke="#7f7f7f" stroke-dasharray="5,2" d="M414.26,-68.74C416.24,-111.46 458.37,-211.54 492.49,-260.59"/>
<polygon fill="#7f7f7f" stroke="#7f7f7f" points="489.81,-262.85 498.54,-268.85 495.46,-258.71 489.81,-262.85"/>
<text text-anchor="middle" x="440.88" y="-167.66" font-family="monospace" font-size="10.00">uses</text>
</g>
<!-- blake3_wasm::IncrementalVerifier::new&#45;&gt;blake3_wasm::IncrementalVerifier -->
<g id="edge14" class="edge">
<title>blake3_wasm::IncrementalVerifier::new&#45;&gt;blake3_wasm::IncrementalVerifier</title>
<path fill="none" stroke="#7f7f7f" stroke-dasharray="5,2" d="M745.92,-214.16C681.84,-222.55 596.13,-244.15 553.19,-264.45"/>
<polygon fill="#7f7f7f" stroke="#7f7f7f" points="551.53,-261.36 544.21,-269.02 554.71,-267.6 551.53,-261.36"/>
<text text-anchor="middle" x="637.05" y="-242.31" font-family="monospace" font-size="10.00">uses</text>
</g>
</g>
</svg>
