<?xml version="1.0" encoding="UTF-8" standalone="no"?>
<!DOCTYPE svg PUBLIC "-//W3C//DTD SVG 1.1//EN"
 "http://www.w3.org/Graphics/SVG/1.1/DTD/svg11.dtd">
<!-- Generated by graphviz version 4.0.0 (0)
 -->
<!-- Pages: 1 -->
<svg width="1744pt" height="1558pt"
 viewBox="0.00 0.00 1744.13 1557.61" xmlns="http://www.w3.org/2000/svg" xmlns:xlink="http://www.w3.org/1999/xlink">
<g id="graph0" class="graph" transform="scale(1 1) rotate(0) translate(28.8 1528.81)">
<polygon fill="white" stroke="transparent" points="-28.8,28.8 -28.8,-1528.81 1715.33,-1528.81 1715.33,28.8 -28.8,28.8"/>
<text text-anchor="middle" x="843.27" y="-1467.21" font-family="Helvetica,sans-Serif" font-size="36.00">lightning_origin_ipfs</text>
<!-- lightning_origin_ipfs -->
<g id="node1" class="node">
<title>lightning_origin_ipfs</title>
<polygon fill="#5397c8" stroke="black" points="518.42,-917.17 518.42,-955.17 661.42,-955.17 661.42,-917.17 518.42,-917.17"/>
<text text-anchor="middle" x="589.92" y="-943.17" font-family="monospace" font-size="10.00">crate</text>
<polyline fill="none" stroke="black" points="518.42,-936.17 661.42,-936.17 "/>
<text text-anchor="middle" x="589.92" y="-924.17" font-family="monospace" font-size="10.00">lightning_origin_ipfs</text>
</g>
<!-- lightning_origin_ipfs::car_reader::reader::CarReader -->
<g id="node2" class="node">
<title>lightning_origin_ipfs::car_reader::reader::CarReader</title>
<polygon fill="#81c169" stroke="black" points="850.2,-1255.35 850.2,-1293.35 1041.2,-1293.35 1041.2,-1255.35 850.2,-1255.35"/>
<text text-anchor="middle" x="945.7" y="-1281.35" font-family="monospace" font-size="10.00">pub struct</text>
<polyline fill="none" stroke="black" points="850.2,-1274.35 1041.2,-1274.35 "/>
<text text-anchor="middle" x="945.7" y="-1262.35" font-family="monospace" font-size="10.00">car_reader::reader::CarReader</text>
</g>
<!-- lightning_origin_ipfs&#45;&gt;lightning_origin_ipfs::car_reader::reader::CarReader -->
<g id="edge1" class="edge">
<title>lightning_origin_ipfs&#45;&gt;lightning_origin_ipfs::car_reader::reader::CarReader</title>
<path fill="none" stroke="#000000" d="M594.66,-955.3C629.1,-1014.42 803.86,-1183.84 893.64,-1249.42"/>
<polygon fill="#000000" stroke="#000000" points="891.62,-1252.28 901.79,-1255.25 895.7,-1246.59 891.62,-1252.28"/>
<text text-anchor="middle" x="731.65" y="-1105.36" font-family="monospace" font-size="10.00">owns</text>
</g>
<!-- lightning_origin_ipfs&#45;&gt;lightning_origin_ipfs::car_reader::reader::CarReader -->
<g id="edge2" class="edge">
<title>lightning_origin_ipfs&#45;&gt;lightning_origin_ipfs::car_reader::reader::CarReader</title>
<path fill="none" stroke="#7f7f7f" stroke-dasharray="5,2" d="M633.73,-955.2C716.74,-1013.18 889.3,-1178.71 935.41,-1246.48"/>
<polygon fill="#7f7f7f" stroke="#7f7f7f" points="932.51,-1248.44 940.83,-1254.99 938.41,-1244.68 932.51,-1248.44"/>
<text text-anchor="middle" x="772.07" y="-1103.84" font-family="monospace" font-size="10.00">uses</text>
</g>
<!-- lightning_origin_ipfs::car_reader::reader::CarV1Header -->
<g id="node5" class="node">
<title>lightning_origin_ipfs::car_reader::reader::CarV1Header</title>
<polygon fill="#81c169" stroke="black" points="261.37,-748.44 261.37,-786.44 464.37,-786.44 464.37,-748.44 261.37,-748.44"/>
<text text-anchor="middle" x="362.87" y="-774.44" font-family="monospace" font-size="10.00">pub struct</text>
<polyline fill="none" stroke="black" points="261.37,-767.44 464.37,-767.44 "/>
<text text-anchor="middle" x="362.87" y="-755.44" font-family="monospace" font-size="10.00">car_reader::reader::CarV1Header</text>
</g>
<!-- lightning_origin_ipfs&#45;&gt;lightning_origin_ipfs::car_reader::reader::CarV1Header -->
<g id="edge3" class="edge">
<title>lightning_origin_ipfs&#45;&gt;lightning_origin_ipfs::car_reader::reader::CarV1Header</title>
<path fill="none" stroke="#000000" d="M564.31,-917.14C523.26,-886.63 442.69,-826.76 396.86,-792.71"/>
<polygon fill="#000000" stroke="#000000" points="398.84,-789.81 388.73,-786.66 394.66,-795.43 398.84,-789.81"/>
<text text-anchor="middle" x="468.09" y="-857.92" font-family="monospace" font-size="10.00">owns</text>
</g>
<!-- lightning_origin_ipfs::car_reader::reader::CarV2Header -->
<g id="node6" class="node">
<title>lightning_origin_ipfs::car_reader::reader::CarV2Header</title>
<polygon fill="#81c169" stroke="black" points="76.28,-1114.48 76.28,-1152.48 279.28,-1152.48 279.28,-1114.48 76.28,-1114.48"/>
<text text-anchor="middle" x="177.78" y="-1140.48" font-family="monospace" font-size="10.00">pub struct</text>
<polyline fill="none" stroke="black" points="76.28,-1133.48 279.28,-1133.48 "/>
<text text-anchor="middle" x="177.78" y="-1121.48" font-family="monospace" font-size="10.00">car_reader::reader::CarV2Header</text>
</g>
<!-- lightning_origin_ipfs&#45;&gt;lightning_origin_ipfs::car_reader::reader::CarV2Header -->
<g id="edge4" class="edge">
<title>lightning_origin_ipfs&#45;&gt;lightning_origin_ipfs::car_reader::reader::CarV2Header</title>
<path fill="none" stroke="#000000" d="M550.03,-955.27C474.17,-991.58 309.33,-1070.5 226.85,-1109.98"/>
<polygon fill="#000000" stroke="#000000" points="225.2,-1106.89 217.69,-1114.37 228.22,-1113.21 225.2,-1106.89"/>
<text text-anchor="middle" x="375.94" y="-1035.62" font-family="monospace" font-size="10.00">owns</text>
</g>
<!-- lightning_origin_ipfs::car_reader::reader::CarV2Pragma -->
<g id="node7" class="node">
<title>lightning_origin_ipfs::car_reader::reader::CarV2Pragma</title>
<polygon fill="#81c169" stroke="black" points="172,-947.29 172,-985.29 375,-985.29 375,-947.29 172,-947.29"/>
<text text-anchor="middle" x="273.5" y="-973.29" font-family="monospace" font-size="10.00">pub struct</text>
<polyline fill="none" stroke="black" points="172,-966.29 375,-966.29 "/>
<text text-anchor="middle" x="273.5" y="-954.29" font-family="monospace" font-size="10.00">car_reader::reader::CarV2Pragma</text>
</g>
<!-- lightning_origin_ipfs&#45;&gt;lightning_origin_ipfs::car_reader::reader::CarV2Pragma -->
<g id="edge5" class="edge">
<title>lightning_origin_ipfs&#45;&gt;lightning_origin_ipfs::car_reader::reader::CarV2Pragma</title>
<path fill="none" stroke="#000000" d="M518.12,-943C478.87,-946.74 429.4,-951.45 385.22,-955.65"/>
<polygon fill="#000000" stroke="#000000" points="384.63,-952.19 375.01,-956.62 385.29,-959.16 384.63,-952.19"/>
<text text-anchor="middle" x="439.17" y="-952.33" font-family="monospace" font-size="10.00">owns</text>
</g>
<!-- lightning_origin_ipfs::car_reader::reader::header_v1 -->
<g id="node8" class="node">
<title>lightning_origin_ipfs::car_reader::reader::header_v1</title>
<polygon fill="#81c169" stroke="black" points="489.5,-1299 489.5,-1337 680.5,-1337 680.5,-1299 489.5,-1299"/>
<text text-anchor="middle" x="585" y="-1325" font-family="monospace" font-size="10.00">pub async fn</text>
<polyline fill="none" stroke="black" points="489.5,-1318 680.5,-1318 "/>
<text text-anchor="middle" x="585" y="-1306" font-family="monospace" font-size="10.00">car_reader::reader::header_v1</text>
</g>
<!-- lightning_origin_ipfs&#45;&gt;lightning_origin_ipfs::car_reader::reader::header_v1 -->
<g id="edge6" class="edge">
<title>lightning_origin_ipfs&#45;&gt;lightning_origin_ipfs::car_reader::reader::header_v1</title>
<path fill="none" stroke="#000000" d="M589.67,-955.36C588.87,-1017.63 586.34,-1214.28 585.38,-1288.9"/>
<polygon fill="#000000" stroke="#000000" points="581.87,-1288.95 585.25,-1298.99 588.87,-1289.04 581.87,-1288.95"/>
<text text-anchor="middle" x="575.02" y="-1125.13" font-family="monospace" font-size="10.00">owns</text>
</g>
<!-- lightning_origin_ipfs::car_reader::reader::header_v2 -->
<g id="node9" class="node">
<title>lightning_origin_ipfs::car_reader::reader::header_v2</title>
<polygon fill="#81c169" stroke="black" points="155.05,-1223.85 155.05,-1261.85 346.05,-1261.85 346.05,-1223.85 155.05,-1223.85"/>
<text text-anchor="middle" x="250.55" y="-1249.85" font-family="monospace" font-size="10.00">pub async fn</text>
<polyline fill="none" stroke="black" points="155.05,-1242.85 346.05,-1242.85 "/>
<text text-anchor="middle" x="250.55" y="-1230.85" font-family="monospace" font-size="10.00">car_reader::reader::header_v2</text>
</g>
<!-- lightning_origin_ipfs&#45;&gt;lightning_origin_ipfs::car_reader::reader::header_v2 -->
<g id="edge7" class="edge">
<title>lightning_origin_ipfs&#45;&gt;lightning_origin_ipfs::car_reader::reader::header_v2</title>
<path fill="none" stroke="#000000" d="M568.69,-955.35C510.13,-1008.28 346.21,-1156.4 279.42,-1216.76"/>
<polygon fill="#000000" stroke="#000000" points="276.85,-1214.37 271.77,-1223.67 281.54,-1219.56 276.85,-1214.37"/>
<text text-anchor="middle" x="411.56" y="-1089.05" font-family="monospace" font-size="10.00">owns</text>
</g>
<!-- lightning_origin_ipfs::car_reader::reader::pragma_v2 -->
<g id="node10" class="node">
<title>lightning_origin_ipfs::car_reader::reader::pragma_v2</title>
<polygon fill="#81c169" stroke="black" points="0,-900.24 0,-938.24 191,-938.24 191,-900.24 0,-900.24"/>
<text text-anchor="middle" x="95.5" y="-926.24" font-family="monospace" font-size="10.00">pub async fn</text>
<polyline fill="none" stroke="black" points="0,-919.24 191,-919.24 "/>
<text text-anchor="middle" x="95.5" y="-907.24" font-family="monospace" font-size="10.00">car_reader::reader::pragma_v2</text>
</g>
<!-- lightning_origin_ipfs&#45;&gt;lightning_origin_ipfs::car_reader::reader::pragma_v2 -->
<g id="edge8" class="edge">
<title>lightning_origin_ipfs&#45;&gt;lightning_origin_ipfs::car_reader::reader::pragma_v2</title>
<path fill="none" stroke="#000000" d="M518.29,-933.72C435.15,-930.87 297.23,-926.15 201.63,-922.87"/>
<polygon fill="#000000" stroke="#000000" points="201.47,-919.37 191.35,-922.52 201.23,-926.36 201.47,-919.37"/>
<text text-anchor="middle" x="347.46" y="-931.29" font-family="monospace" font-size="10.00">owns</text>
</g>
<!-- lightning_origin_ipfs::car_reader::reader::read_block -->
<g id="node11" class="node">
<title>lightning_origin_ipfs::car_reader::reader::read_block</title>
<polygon fill="#db5367" stroke="black" points="56.37,-712.13 56.37,-750.13 253.37,-750.13 253.37,-712.13 56.37,-712.13"/>
<text text-anchor="middle" x="154.87" y="-738.13" font-family="monospace" font-size="10.00">pub(self) async fn</text>
<polyline fill="none" stroke="black" points="56.37,-731.13 253.37,-731.13 "/>
<text text-anchor="middle" x="154.87" y="-719.13" font-family="monospace" font-size="10.00">car_reader::reader::read_block</text>
</g>
<!-- lightning_origin_ipfs&#45;&gt;lightning_origin_ipfs::car_reader::reader::read_block -->
<g id="edge9" class="edge">
<title>lightning_origin_ipfs&#45;&gt;lightning_origin_ipfs::car_reader::reader::read_block</title>
<path fill="none" stroke="#000000" d="M549.38,-917.06C469.4,-879.36 291.5,-795.52 204.59,-754.56"/>
<polygon fill="#000000" stroke="#000000" points="206,-751.36 195.46,-750.26 203.01,-757.69 206,-751.36"/>
<text text-anchor="middle" x="364.48" y="-838.81" font-family="monospace" font-size="10.00">owns</text>
</g>
<!-- lightning_origin_ipfs::car_reader::reader::read_block_bytes -->
<g id="node12" class="node">
<title>lightning_origin_ipfs::car_reader::reader::read_block_bytes</title>
<polygon fill="#db5367" stroke="black" points="411.16,-594.07 411.16,-632.07 644.16,-632.07 644.16,-594.07 411.16,-594.07"/>
<text text-anchor="middle" x="527.66" y="-620.07" font-family="monospace" font-size="10.00">pub(self) async fn</text>
<polyline fill="none" stroke="black" points="411.16,-613.07 644.16,-613.07 "/>
<text text-anchor="middle" x="527.66" y="-601.07" font-family="monospace" font-size="10.00">car_reader::reader::read_block_bytes</text>
</g>
<!-- lightning_origin_ipfs&#45;&gt;lightning_origin_ipfs::car_reader::reader::read_block_bytes -->
<g id="edge10" class="edge">
<title>lightning_origin_ipfs&#45;&gt;lightning_origin_ipfs::car_reader::reader::read_block_bytes</title>
<path fill="none" stroke="#000000" d="M586.21,-916.92C575.72,-862.49 545.79,-707.15 533.27,-642.19"/>
<polygon fill="#000000" stroke="#000000" points="536.68,-641.37 531.35,-632.21 529.8,-642.69 536.68,-641.37"/>
<text text-anchor="middle" x="547.24" y="-782.56" font-family="monospace" font-size="10.00">owns</text>
</g>
<!-- lightning_origin_ipfs::car_reader::reader::read_varint_usize -->
<g id="node13" class="node">
<title>lightning_origin_ipfs::car_reader::reader::read_varint_usize</title>
<polygon fill="#db5367" stroke="black" points="163.94,-560.66 163.94,-598.66 402.94,-598.66 402.94,-560.66 163.94,-560.66"/>
<text text-anchor="middle" x="283.44" y="-586.66" font-family="monospace" font-size="10.00">pub(self) async fn</text>
<polyline fill="none" stroke="black" points="163.94,-579.66 402.94,-579.66 "/>
<text text-anchor="middle" x="283.44" y="-567.66" font-family="monospace" font-size="10.00">car_reader::reader::read_varint_usize</text>
</g>
<!-- lightning_origin_ipfs&#45;&gt;lightning_origin_ipfs::car_reader::reader::read_varint_usize -->
<g id="edge11" class="edge">
<title>lightning_origin_ipfs&#45;&gt;lightning_origin_ipfs::car_reader::reader::read_varint_usize</title>
<path fill="none" stroke="#000000" d="M573.44,-917C522.3,-857.52 366.19,-675.92 306.75,-606.78"/>
<polygon fill="#000000" stroke="#000000" points="309.17,-604.22 300,-598.92 303.86,-608.79 309.17,-604.22"/>
<text text-anchor="middle" x="452.6" y="-764.89" font-family="monospace" font-size="10.00">owns</text>
</g>
<!-- lightning_origin_ipfs::car_reader::utils::Buffer -->
<g id="node14" class="node">
<title>lightning_origin_ipfs::car_reader::utils::Buffer</title>
<polygon fill="#81c169" stroke="black" points="688.65,-1323.88 688.65,-1361.88 855.65,-1361.88 855.65,-1323.88 688.65,-1323.88"/>
<text text-anchor="middle" x="772.15" y="-1349.88" font-family="monospace" font-size="10.00">pub struct</text>
<polyline fill="none" stroke="black" points="688.65,-1342.88 855.65,-1342.88 "/>
<text text-anchor="middle" x="772.15" y="-1330.88" font-family="monospace" font-size="10.00">car_reader::utils::Buffer</text>
</g>
<!-- lightning_origin_ipfs&#45;&gt;lightning_origin_ipfs::car_reader::utils::Buffer -->
<g id="edge12" class="edge">
<title>lightning_origin_ipfs&#45;&gt;lightning_origin_ipfs::car_reader::utils::Buffer</title>
<path fill="none" stroke="#000000" d="M586.54,-955.35C594.71,-1021.67 689.8,-1237.87 742.51,-1315.34"/>
<polygon fill="#000000" stroke="#000000" points="739.77,-1317.52 748.4,-1323.66 745.48,-1313.47 739.77,-1317.52"/>
<text text-anchor="middle" x="652.02" y="-1138.34" font-family="monospace" font-size="10.00">owns</text>
</g>
<!-- lightning_origin_ipfs&#45;&gt;lightning_origin_ipfs::car_reader::utils::Buffer -->
<g id="edge13" class="edge">
<title>lightning_origin_ipfs&#45;&gt;lightning_origin_ipfs::car_reader::utils::Buffer</title>
<path fill="none" stroke="#7f7f7f" stroke-dasharray="5,2" d="M613.64,-955.35C662.46,-1021.1 757.9,-1234.28 773.81,-1313.38"/>
<polygon fill="#7f7f7f" stroke="#7f7f7f" points="770.42,-1314.34 775.52,-1323.62 777.33,-1313.19 770.42,-1314.34"/>
<text text-anchor="middle" x="681.23" y="-1137.37" font-family="monospace" font-size="10.00">uses</text>
</g>
<!-- lightning_origin_ipfs::car_reader::utils::hyper_error -->
<g id="node15" class="node">
<title>lightning_origin_ipfs::car_reader::utils::hyper_error</title>
<polygon fill="#81c169" stroke="black" points="323.27,-1145.14 323.27,-1183.14 520.27,-1183.14 520.27,-1145.14 323.27,-1145.14"/>
<text text-anchor="middle" x="421.77" y="-1171.14" font-family="monospace" font-size="10.00">pub fn</text>
<polyline fill="none" stroke="black" points="323.27,-1164.14 520.27,-1164.14 "/>
<text text-anchor="middle" x="421.77" y="-1152.14" font-family="monospace" font-size="10.00">car_reader::utils::hyper_error</text>
</g>
<!-- lightning_origin_ipfs&#45;&gt;lightning_origin_ipfs::car_reader::utils::hyper_error -->
<g id="edge14" class="edge">
<title>lightning_origin_ipfs&#45;&gt;lightning_origin_ipfs::car_reader::utils::hyper_error</title>
<path fill="none" stroke="#000000" d="M551.83,-955.54C507.46,-996.42 441.66,-1087.44 423.33,-1135.18"/>
<polygon fill="#000000" stroke="#000000" points="419.91,-1134.35 420.09,-1144.95 426.56,-1136.56 419.91,-1134.35"/>
<text text-anchor="middle" x="475.08" y="-1048.36" font-family="monospace" font-size="10.00">owns</text>
</g>
<!-- lightning_origin_ipfs&#45;&gt;lightning_origin_ipfs::car_reader::utils::hyper_error -->
<g id="edge15" class="edge">
<title>lightning_origin_ipfs&#45;&gt;lightning_origin_ipfs::car_reader::utils::hyper_error</title>
<path fill="none" stroke="#7f7f7f" stroke-dasharray="5,2" d="M591.61,-955.35C580.39,-997.08 514.44,-1091.05 467.04,-1137.91"/>
<polygon fill="#7f7f7f" stroke="#7f7f7f" points="464.42,-1135.57 459.6,-1145.01 469.25,-1140.63 464.42,-1135.57"/>
<text text-anchor="middle" x="516.82" y="-1049.63" font-family="monospace" font-size="10.00">uses</text>
</g>
<!-- lightning_origin_ipfs::config::Config -->
<g id="node16" class="node">
<title>lightning_origin_ipfs::config::Config</title>
<polygon fill="#81c169" stroke="black" points="870.62,-552.72 870.62,-590.72 971.62,-590.72 971.62,-552.72 870.62,-552.72"/>
<text text-anchor="middle" x="921.12" y="-578.72" font-family="monospace" font-size="10.00">pub struct</text>
<polyline fill="none" stroke="black" points="870.62,-571.72 971.62,-571.72 "/>
<text text-anchor="middle" x="921.12" y="-559.72" font-family="monospace" font-size="10.00">config::Config</text>
</g>
<!-- lightning_origin_ipfs&#45;&gt;lightning_origin_ipfs::config::Config -->
<g id="edge16" class="edge">
<title>lightning_origin_ipfs&#45;&gt;lightning_origin_ipfs::config::Config</title>
<path fill="none" stroke="#000000" d="M628.27,-917.13C705.58,-855.91 871.42,-672.16 913.03,-600"/>
<polygon fill="#000000" stroke="#000000" points="916.22,-601.45 917.86,-590.98 910.05,-598.14 916.22,-601.45"/>
<text text-anchor="middle" x="758.15" y="-761.57" font-family="monospace" font-size="10.00">owns</text>
</g>
<!-- lightning_origin_ipfs&#45;&gt;lightning_origin_ipfs::config::Config -->
<g id="edge17" class="edge">
<title>lightning_origin_ipfs&#45;&gt;lightning_origin_ipfs::config::Config</title>
<path fill="none" stroke="#7f7f7f" stroke-dasharray="5,2" d="M593.15,-916.97C623.47,-854.61 791.01,-666.99 874.91,-597.14"/>
<polygon fill="#7f7f7f" stroke="#7f7f7f" points="877.21,-599.79 882.77,-590.76 872.8,-594.35 877.21,-599.79"/>
<text text-anchor="middle" x="721.53" y="-760.06" font-family="monospace" font-size="10.00">uses</text>
</g>
<!-- lightning_origin_ipfs::config::Gateway -->
<g id="node17" class="node">
<title>lightning_origin_ipfs::config::Gateway</title>
<polygon fill="#81c169" stroke="black" points="704.61,-611.62 704.61,-649.62 811.61,-649.62 811.61,-611.62 704.61,-611.62"/>
<text text-anchor="middle" x="758.11" y="-637.62" font-family="monospace" font-size="10.00">pub struct</text>
<polyline fill="none" stroke="black" points="704.61,-630.62 811.61,-630.62 "/>
<text text-anchor="middle" x="758.11" y="-618.62" font-family="monospace" font-size="10.00">config::Gateway</text>
</g>
<!-- lightning_origin_ipfs&#45;&gt;lightning_origin_ipfs::config::Gateway -->
<g id="edge18" class="edge">
<title>lightning_origin_ipfs&#45;&gt;lightning_origin_ipfs::config::Gateway</title>
<path fill="none" stroke="#000000" d="M619.03,-916.86C664.96,-864.25 742.8,-721.87 759.02,-659.64"/>
<polygon fill="#000000" stroke="#000000" points="762.48,-660.2 761.2,-649.68 755.64,-658.7 762.48,-660.2"/>
<text text-anchor="middle" x="676.52" y="-791.25" font-family="monospace" font-size="10.00">owns</text>
</g>
<!-- lightning_origin_ipfs&#45;&gt;lightning_origin_ipfs::config::Gateway -->
<g id="edge19" class="edge">
<title>lightning_origin_ipfs&#45;&gt;lightning_origin_ipfs::config::Gateway</title>
<path fill="none" stroke="#7f7f7f" stroke-dasharray="5,2" d="M586.88,-916.87C595.97,-863.55 673.65,-718.22 722.81,-657.33"/>
<polygon fill="#7f7f7f" stroke="#7f7f7f" points="725.5,-659.56 729.25,-649.65 720.14,-655.07 725.5,-659.56"/>
<text text-anchor="middle" x="642.34" y="-790.1" font-family="monospace" font-size="10.00">uses</text>
</g>
<!-- lightning_origin_ipfs::config::Protocol -->
<g id="node18" class="node">
<title>lightning_origin_ipfs::config::Protocol</title>
<polygon fill="#81c169" stroke="black" points="525.9,-392.58 525.9,-430.58 638.9,-430.58 638.9,-392.58 525.9,-392.58"/>
<text text-anchor="middle" x="582.4" y="-418.58" font-family="monospace" font-size="10.00">pub enum</text>
<polyline fill="none" stroke="black" points="525.9,-411.58 638.9,-411.58 "/>
<text text-anchor="middle" x="582.4" y="-399.58" font-family="monospace" font-size="10.00">config::Protocol</text>
</g>
<!-- lightning_origin_ipfs&#45;&gt;lightning_origin_ipfs::config::Protocol -->
<g id="edge20" class="edge">
<title>lightning_origin_ipfs&#45;&gt;lightning_origin_ipfs::config::Protocol</title>
<path fill="none" stroke="#000000" d="M589.64,-916.88C588.51,-837.58 584.19,-536.46 582.82,-440.88"/>
<polygon fill="#000000" stroke="#000000" points="586.32,-440.72 582.67,-430.77 579.32,-440.82 586.32,-440.72"/>
<text text-anchor="middle" x="573.73" y="-681.88" font-family="monospace" font-size="10.00">owns</text>
</g>
<!-- lightning_origin_ipfs::decoder::decode_block -->
<g id="node20" class="node">
<title>lightning_origin_ipfs::decoder::decode_block</title>
<polygon fill="#81c169" stroke="black" points="338.44,-1338.72 338.44,-1376.72 481.44,-1376.72 481.44,-1338.72 338.44,-1338.72"/>
<text text-anchor="middle" x="409.94" y="-1364.72" font-family="monospace" font-size="10.00">pub fn</text>
<polyline fill="none" stroke="black" points="338.44,-1357.72 481.44,-1357.72 "/>
<text text-anchor="middle" x="409.94" y="-1345.72" font-family="monospace" font-size="10.00">decoder::decode_block</text>
</g>
<!-- lightning_origin_ipfs&#45;&gt;lightning_origin_ipfs::decoder::decode_block -->
<g id="edge21" class="edge">
<title>lightning_origin_ipfs&#45;&gt;lightning_origin_ipfs::decoder::decode_block</title>
<path fill="none" stroke="#000000" d="M581.72,-955.38C552.97,-1022.72 456.62,-1248.39 422.25,-1328.89"/>
<polygon fill="#000000" stroke="#000000" points="418.9,-1327.82 418.19,-1338.4 425.34,-1330.57 418.9,-1327.82"/>
<text text-anchor="middle" x="489.48" y="-1134.13" font-family="monospace" font-size="10.00">owns</text>
</g>
<!-- lightning_origin_ipfs::error::Error -->
<g id="node21" class="node">
<title>lightning_origin_ipfs::error::Error</title>
<polygon fill="#81c169" stroke="black" points="1063.53,-1061.8 1063.53,-1099.8 1152.53,-1099.8 1152.53,-1061.8 1063.53,-1061.8"/>
<text text-anchor="middle" x="1108.03" y="-1087.8" font-family="monospace" font-size="10.00">pub enum</text>
<polyline fill="none" stroke="black" points="1063.53,-1080.8 1152.53,-1080.8 "/>
<text text-anchor="middle" x="1108.03" y="-1068.8" font-family="monospace" font-size="10.00">error::Error</text>
</g>
<!-- lightning_origin_ipfs&#45;&gt;lightning_origin_ipfs::error::Error -->
<g id="edge22" class="edge">
<title>lightning_origin_ipfs&#45;&gt;lightning_origin_ipfs::error::Error</title>
<path fill="none" stroke="#000000" d="M611.89,-955.3C687.99,-994.98 940.6,-1066.97 1053.18,-1082.93"/>
<polygon fill="#000000" stroke="#000000" points="1052.94,-1086.43 1063.31,-1084.26 1053.85,-1079.49 1052.94,-1086.43"/>
<text text-anchor="middle" x="820.04" y="-1011.12" font-family="monospace" font-size="10.00">owns</text>
</g>
<!-- lightning_origin_ipfs&#45;&gt;lightning_origin_ipfs::error::Error -->
<g id="edge23" class="edge">
<title>lightning_origin_ipfs&#45;&gt;lightning_origin_ipfs::error::Error</title>
<path fill="none" stroke="#7f7f7f" stroke-dasharray="5,2" d="M661.65,-936.66C776.29,-955.96 995.9,-1018.79 1077.03,-1057.2"/>
<polygon fill="#7f7f7f" stroke="#7f7f7f" points="1075.71,-1060.45 1086.23,-1061.76 1078.82,-1054.18 1075.71,-1060.45"/>
<text text-anchor="middle" x="856.84" y="-999.93" font-family="monospace" font-size="10.00">uses</text>
</g>
<!-- lightning_origin_ipfs::origin_ipfs::IPFSOrigin -->
<g id="node22" class="node">
<title>lightning_origin_ipfs::origin_ipfs::IPFSOrigin</title>
<polygon fill="#81c169" stroke="black" points="1169.1,-742.88 1169.1,-780.88 1324.1,-780.88 1324.1,-742.88 1169.1,-742.88"/>
<text text-anchor="middle" x="1246.6" y="-768.88" font-family="monospace" font-size="10.00">pub struct</text>
<polyline fill="none" stroke="black" points="1169.1,-761.88 1324.1,-761.88 "/>
<text text-anchor="middle" x="1246.6" y="-749.88" font-family="monospace" font-size="10.00">origin_ipfs::IPFSOrigin</text>
</g>
<!-- lightning_origin_ipfs&#45;&gt;lightning_origin_ipfs::origin_ipfs::IPFSOrigin -->
<g id="edge24" class="edge">
<title>lightning_origin_ipfs&#45;&gt;lightning_origin_ipfs::origin_ipfs::IPFSOrigin</title>
<path fill="none" stroke="#000000" d="M661.51,-934.93C801.81,-912.4 1107.96,-829.9 1211.6,-785.19"/>
<polygon fill="#000000" stroke="#000000" points="1213.29,-788.27 1220.98,-780.99 1210.42,-781.88 1213.29,-788.27"/>
<text text-anchor="middle" x="924.05" y="-863.06" font-family="monospace" font-size="10.00">owns</text>
</g>
<!-- lightning_origin_ipfs&#45;&gt;lightning_origin_ipfs::origin_ipfs::IPFSOrigin -->
<g id="edge25" class="edge">
<title>lightning_origin_ipfs&#45;&gt;lightning_origin_ipfs::origin_ipfs::IPFSOrigin</title>
<path fill="none" stroke="#7f7f7f" stroke-dasharray="5,2" d="M615.51,-917.07C705.24,-875.1 1007.49,-792.54 1158.83,-765.85"/>
<polygon fill="#7f7f7f" stroke="#7f7f7f" points="1159.75,-769.24 1169.02,-764.1 1158.57,-762.34 1159.75,-769.24"/>
<text text-anchor="middle" x="874.67" y="-844.46" font-family="monospace" font-size="10.00">uses</text>
</g>
<!-- lightning_origin_ipfs::origin_ipfs::verify_data -->
<g id="node28" class="node">
<title>lightning_origin_ipfs::origin_ipfs::verify_data</title>
<polygon fill="#db5367" stroke="black" points="795.68,-1012.65 795.68,-1050.65 956.68,-1050.65 956.68,-1012.65 795.68,-1012.65"/>
<text text-anchor="middle" x="876.18" y="-1038.65" font-family="monospace" font-size="10.00">pub(self) fn</text>
<polyline fill="none" stroke="black" points="795.68,-1031.65 956.68,-1031.65 "/>
<text text-anchor="middle" x="876.18" y="-1019.65" font-family="monospace" font-size="10.00">origin_ipfs::verify_data</text>
</g>
<!-- lightning_origin_ipfs&#45;&gt;lightning_origin_ipfs::origin_ipfs::verify_data -->
<g id="edge26" class="edge">
<title>lightning_origin_ipfs&#45;&gt;lightning_origin_ipfs::origin_ipfs::verify_data</title>
<path fill="none" stroke="#000000" d="M647.16,-955.26C693.97,-970.87 760.22,-992.97 809.43,-1009.39"/>
<polygon fill="#000000" stroke="#000000" points="808.44,-1012.75 819.04,-1012.59 810.66,-1006.11 808.44,-1012.75"/>
<text text-anchor="middle" x="715.8" y="-985.32" font-family="monospace" font-size="10.00">owns</text>
</g>
<!-- lightning_origin_ipfs::car_reader::reader::CarReader::new -->
<g id="node3" class="node">
<title>lightning_origin_ipfs::car_reader::reader::CarReader::new</title>
<polygon fill="#81c169" stroke="black" points="929.89,-1413.51 929.89,-1451.51 1150.89,-1451.51 1150.89,-1413.51 929.89,-1413.51"/>
<text text-anchor="middle" x="1040.39" y="-1439.51" font-family="monospace" font-size="10.00">pub async fn</text>
<polyline fill="none" stroke="black" points="929.89,-1432.51 1150.89,-1432.51 "/>
<text text-anchor="middle" x="1040.39" y="-1420.51" font-family="monospace" font-size="10.00">car_reader::reader::CarReader::new</text>
</g>
<!-- lightning_origin_ipfs::car_reader::reader::CarReader&#45;&gt;lightning_origin_ipfs::car_reader::reader::CarReader::new -->
<g id="edge27" class="edge">
<title>lightning_origin_ipfs::car_reader::reader::CarReader&#45;&gt;lightning_origin_ipfs::car_reader::reader::CarReader::new</title>
<path fill="none" stroke="#000000" d="M939.83,-1293.66C942.69,-1322.33 970.08,-1373.71 996.8,-1405.72"/>
<polygon fill="#000000" stroke="#000000" points="994.34,-1408.21 1003.57,-1413.41 999.59,-1403.59 994.34,-1408.21"/>
<text text-anchor="middle" x="955.82" y="-1352.69" font-family="monospace" font-size="10.00">owns</text>
</g>
<!-- lightning_origin_ipfs::car_reader::reader::CarReader::next_block -->
<g id="node4" class="node">
<title>lightning_origin_ipfs::car_reader::reader::CarReader::next_block</title>
<polygon fill="#81c169" stroke="black" points="1118.44,-1356.67 1118.44,-1394.67 1381.44,-1394.67 1381.44,-1356.67 1118.44,-1356.67"/>
<text text-anchor="middle" x="1249.94" y="-1382.67" font-family="monospace" font-size="10.00">pub async fn</text>
<polyline fill="none" stroke="black" points="1118.44,-1375.67 1381.44,-1375.67 "/>
<text text-anchor="middle" x="1249.94" y="-1363.67" font-family="monospace" font-size="10.00">car_reader::reader::CarReader::next_block</text>
</g>
<!-- lightning_origin_ipfs::car_reader::reader::CarReader&#45;&gt;lightning_origin_ipfs::car_reader::reader::CarReader::next_block -->
<g id="edge28" class="edge">
<title>lightning_origin_ipfs::car_reader::reader::CarReader&#45;&gt;lightning_origin_ipfs::car_reader::reader::CarReader::next_block</title>
<path fill="none" stroke="#000000" d="M959.91,-1293.63C987.23,-1313.11 1048.88,-1338.21 1108.38,-1356.78"/>
<polygon fill="#000000" stroke="#000000" points="1107.7,-1360.24 1118.29,-1359.82 1109.75,-1353.54 1107.7,-1360.24"/>
<text text-anchor="middle" x="1021.65" y="-1328.21" font-family="monospace" font-size="10.00">owns</text>
</g>
<!-- lightning_origin_ipfs::car_reader::reader::CarReader::new&#45;&gt;lightning_origin_ipfs::car_reader::reader::CarReader -->
<g id="edge29" class="edge">
<title>lightning_origin_ipfs::car_reader::reader::CarReader::new&#45;&gt;lightning_origin_ipfs::car_reader::reader::CarReader</title>
<path fill="none" stroke="#7f7f7f" stroke-dasharray="5,2" d="M1046.26,-1413.2C1043.4,-1384.53 1016.01,-1333.15 989.29,-1301.14"/>
<polygon fill="#7f7f7f" stroke="#7f7f7f" points="991.75,-1298.65 982.52,-1293.45 986.5,-1303.27 991.75,-1298.65"/>
<text text-anchor="middle" x="1005.27" y="-1360.17" font-family="monospace" font-size="10.00">uses</text>
</g>
<!-- lightning_origin_ipfs::car_reader::reader::CarReader::new&#45;&gt;lightning_origin_ipfs::car_reader::utils::Buffer -->
<g id="edge30" class="edge">
<title>lightning_origin_ipfs::car_reader::reader::CarReader::new&#45;&gt;lightning_origin_ipfs::car_reader::utils::Buffer</title>
<path fill="none" stroke="#7f7f7f" stroke-dasharray="5,2" d="M983.5,-1413.5C941.24,-1399.38 883.45,-1380.07 838.98,-1365.21"/>
<polygon fill="#7f7f7f" stroke="#7f7f7f" points="840.01,-1361.86 829.41,-1362.01 837.79,-1368.5 840.01,-1361.86"/>
<text text-anchor="middle" x="898.74" y="-1392.35" font-family="monospace" font-size="10.00">uses</text>
</g>
<!-- lightning_origin_ipfs::car_reader::reader::CarReader::new&#45;&gt;lightning_origin_ipfs::error::Error -->
<g id="edge31" class="edge">
<title>lightning_origin_ipfs::car_reader::reader::CarReader::new&#45;&gt;lightning_origin_ipfs::error::Error</title>
<path fill="none" stroke="#7f7f7f" stroke-dasharray="5,2" d="M1044.07,-1413.35C1055.27,-1355.13 1088.95,-1180.01 1102.39,-1110.1"/>
<polygon fill="#7f7f7f" stroke="#7f7f7f" points="1105.84,-1110.67 1104.3,-1100.19 1098.97,-1109.35 1105.84,-1110.67"/>
<text text-anchor="middle" x="1060.73" y="-1264.72" font-family="monospace" font-size="10.00">uses</text>
</g>
<!-- lightning_origin_ipfs::car_reader::reader::CarReader::next_block&#45;&gt;lightning_origin_ipfs::car_reader::reader::CarReader -->
<g id="edge32" class="edge">
<title>lightning_origin_ipfs::car_reader::reader::CarReader::next_block&#45;&gt;lightning_origin_ipfs::car_reader::reader::CarReader</title>
<path fill="none" stroke="#7f7f7f" stroke-dasharray="5,2" d="M1235.73,-1356.39C1202.83,-1332.93 1120.15,-1301.32 1051.4,-1282.78"/>
<polygon fill="#7f7f7f" stroke="#7f7f7f" points="1051.93,-1279.3 1041.36,-1280.14 1050.15,-1286.07 1051.93,-1279.3"/>
<text text-anchor="middle" x="1131.06" y="-1322.58" font-family="monospace" font-size="10.00">uses</text>
</g>
<!-- lightning_origin_ipfs::car_reader::reader::CarReader::next_block&#45;&gt;lightning_origin_ipfs::error::Error -->
<g id="edge33" class="edge">
<title>lightning_origin_ipfs::car_reader::reader::CarReader::next_block&#45;&gt;lightning_origin_ipfs::error::Error</title>
<path fill="none" stroke="#7f7f7f" stroke-dasharray="5,2" d="M1240.63,-1356.32C1216.21,-1305.59 1150.25,-1168.54 1121.61,-1109.02"/>
<polygon fill="#7f7f7f" stroke="#7f7f7f" points="1124.68,-1107.32 1117.19,-1099.83 1118.37,-1110.36 1124.68,-1107.32"/>
<text text-anchor="middle" x="1168.62" y="-1235.67" font-family="monospace" font-size="10.00">uses</text>
</g>
<!-- lightning_origin_ipfs::car_reader::reader::header_v1&#45;&gt;lightning_origin_ipfs::car_reader::utils::Buffer -->
<g id="edge34" class="edge">
<title>lightning_origin_ipfs::car_reader::reader::header_v1&#45;&gt;lightning_origin_ipfs::car_reader::utils::Buffer</title>
<path fill="none" stroke="#7f7f7f" stroke-dasharray="5,2" d="M680.77,-1330.73C680.93,-1330.75 681.09,-1330.77 681.26,-1330.8"/>
<polygon fill="#7f7f7f" stroke="#7f7f7f" points="678.2,-1333.92 688.58,-1331.77 679.12,-1326.98 678.2,-1333.92"/>
<text text-anchor="middle" x="693.51" y="-1322.76" font-family="monospace" font-size="10.00">uses</text>
</g>
<!-- lightning_origin_ipfs::car_reader::reader::header_v2&#45;&gt;lightning_origin_ipfs::car_reader::reader::CarV2Header -->
<g id="edge35" class="edge">
<title>lightning_origin_ipfs::car_reader::reader::header_v2&#45;&gt;lightning_origin_ipfs::car_reader::reader::CarV2Header</title>
<path fill="none" stroke="#7f7f7f" stroke-dasharray="5,2" d="M237.88,-1223.8C226.36,-1206.49 209.24,-1180.76 196.22,-1161.19"/>
<polygon fill="#7f7f7f" stroke="#7f7f7f" points="199.01,-1159.06 190.55,-1152.68 193.18,-1162.94 199.01,-1159.06"/>
<text text-anchor="middle" x="204.55" y="-1195.49" font-family="monospace" font-size="10.00">uses</text>
</g>
<!-- lightning_origin_ipfs::car_reader::reader::pragma_v2&#45;&gt;lightning_origin_ipfs::car_reader::reader::CarV2Pragma -->
<g id="edge36" class="edge">
<title>lightning_origin_ipfs::car_reader::reader::pragma_v2&#45;&gt;lightning_origin_ipfs::car_reader::reader::CarV2Pragma</title>
<path fill="none" stroke="#7f7f7f" stroke-dasharray="5,2" d="M167.64,-938.31C175.59,-940.41 183.72,-942.56 191.78,-944.69"/>
<polygon fill="#7f7f7f" stroke="#7f7f7f" points="190.98,-948.1 201.54,-947.27 192.77,-941.33 190.98,-948.1"/>
<text text-anchor="middle" x="167.21" y="-944.5" font-family="monospace" font-size="10.00">uses</text>
</g>
<!-- lightning_origin_ipfs::config::Gateway&#45;&gt;lightning_origin_ipfs::config::Protocol -->
<g id="edge37" class="edge">
<title>lightning_origin_ipfs::config::Gateway&#45;&gt;lightning_origin_ipfs::config::Protocol</title>
<path fill="none" stroke="#7f7f7f" stroke-dasharray="5,2" d="M742.83,-611.57C711.54,-572.57 640.13,-483.55 604.08,-438.6"/>
<polygon fill="#7f7f7f" stroke="#7f7f7f" points="606.76,-436.36 597.77,-430.75 601.3,-440.74 606.76,-436.36"/>
<text text-anchor="middle" x="660.95" y="-528.09" font-family="monospace" font-size="10.00">uses</text>
</g>
<!-- lightning_origin_ipfs::config::Protocol::as_str -->
<g id="node19" class="node">
<title>lightning_origin_ipfs::config::Protocol::as_str</title>
<polygon fill="#81c169" stroke="black" points="417.87,-0.5 417.87,-38.5 578.87,-38.5 578.87,-0.5 417.87,-0.5"/>
<text text-anchor="middle" x="498.37" y="-26.5" font-family="monospace" font-size="10.00">pub fn</text>
<polyline fill="none" stroke="black" points="417.87,-19.5 578.87,-19.5 "/>
<text text-anchor="middle" x="498.37" y="-7.5" font-family="monospace" font-size="10.00">config::Protocol::as_str</text>
</g>
<!-- lightning_origin_ipfs::config::Protocol&#45;&gt;lightning_origin_ipfs::config::Protocol::as_str -->
<g id="edge38" class="edge">
<title>lightning_origin_ipfs::config::Protocol&#45;&gt;lightning_origin_ipfs::config::Protocol::as_str</title>
<path fill="none" stroke="#000000" d="M590.31,-392.53C596.07,-328.85 553.51,-124.08 520.46,-48.11"/>
<polygon fill="#000000" stroke="#000000" points="523.47,-46.27 516.08,-38.68 517.12,-49.22 523.47,-46.27"/>
<text text-anchor="middle" x="542.89" y="-223.32" font-family="monospace" font-size="10.00">owns</text>
</g>
<!-- lightning_origin_ipfs::config::Protocol::as_str&#45;&gt;lightning_origin_ipfs::config::Protocol -->
<g id="edge39" class="edge">
<title>lightning_origin_ipfs::config::Protocol::as_str&#45;&gt;lightning_origin_ipfs::config::Protocol</title>
<path fill="none" stroke="#7f7f7f" stroke-dasharray="5,2" d="M490.46,-38.56C484.7,-102.23 527.27,-307 560.31,-382.97"/>
<polygon fill="#7f7f7f" stroke="#7f7f7f" points="557.3,-384.81 564.7,-392.4 563.65,-381.86 557.3,-384.81"/>
<text text-anchor="middle" x="512.88" y="-213.76" font-family="monospace" font-size="10.00">uses</text>
</g>
<!-- lightning_origin_ipfs::origin_ipfs::IPFSOrigin::fetch -->
<g id="node23" class="node">
<title>lightning_origin_ipfs::origin_ipfs::IPFSOrigin::fetch</title>
<polygon fill="#81c169" stroke="black" points="1489.53,-563.59 1489.53,-601.59 1686.53,-601.59 1686.53,-563.59 1489.53,-563.59"/>
<text text-anchor="middle" x="1588.03" y="-589.59" font-family="monospace" font-size="10.00">pub async fn</text>
<polyline fill="none" stroke="black" points="1489.53,-582.59 1686.53,-582.59 "/>
<text text-anchor="middle" x="1588.03" y="-570.59" font-family="monospace" font-size="10.00">origin_ipfs::IPFSOrigin::fetch</text>
</g>
<!-- lightning_origin_ipfs::origin_ipfs::IPFSOrigin&#45;&gt;lightning_origin_ipfs::origin_ipfs::IPFSOrigin::fetch -->
<g id="edge40" class="edge">
<title>lightning_origin_ipfs::origin_ipfs::IPFSOrigin&#45;&gt;lightning_origin_ipfs::origin_ipfs::IPFSOrigin::fetch</title>
<path fill="none" stroke="#000000" d="M1324.29,-745.95C1404.91,-713.23 1524.95,-647.49 1570.35,-608.61"/>
<polygon fill="#000000" stroke="#000000" points="1572.91,-611.01 1577.93,-601.67 1568.19,-605.84 1572.91,-611.01"/>
<text text-anchor="middle" x="1434.82" y="-680.28" font-family="monospace" font-size="10.00">owns</text>
</g>
<!-- lightning_origin_ipfs::origin_ipfs::IPFSOrigin::fetch_from_gateway -->
<g id="node24" class="node">
<title>lightning_origin_ipfs::origin_ipfs::IPFSOrigin::fetch_from_gateway</title>
<polygon fill="#db5367" stroke="black" points="885.89,-754.24 885.89,-792.24 1160.89,-792.24 1160.89,-754.24 885.89,-754.24"/>
<text text-anchor="middle" x="1023.39" y="-780.24" font-family="monospace" font-size="10.00">pub(self) async fn</text>
<polyline fill="none" stroke="black" points="885.89,-773.24 1160.89,-773.24 "/>
<text text-anchor="middle" x="1023.39" y="-761.24" font-family="monospace" font-size="10.00">origin_ipfs::IPFSOrigin::fetch_from_gateway</text>
</g>
<!-- lightning_origin_ipfs::origin_ipfs::IPFSOrigin&#45;&gt;lightning_origin_ipfs::origin_ipfs::IPFSOrigin::fetch_from_gateway -->
<g id="edge41" class="edge">
<title>lightning_origin_ipfs::origin_ipfs::IPFSOrigin&#45;&gt;lightning_origin_ipfs::origin_ipfs::IPFSOrigin::fetch_from_gateway</title>
<path fill="none" stroke="#000000" d="M1206.91,-742.85C1164.27,-736.78 1097.27,-740.46 1057.1,-751.28"/>
<polygon fill="#000000" stroke="#000000" points="1056.06,-747.94 1047.5,-754.18 1058.08,-754.64 1056.06,-747.94"/>
<text text-anchor="middle" x="1119.5" y="-739.06" font-family="monospace" font-size="10.00">owns</text>
</g>
<!-- lightning_origin_ipfs::origin_ipfs::IPFSOrigin::handle_redirect -->
<g id="node25" class="node">
<title>lightning_origin_ipfs::origin_ipfs::IPFSOrigin::handle_redirect</title>
<polygon fill="#db5367" stroke="black" points="1289.59,-1013.09 1289.59,-1051.09 1546.59,-1051.09 1546.59,-1013.09 1289.59,-1013.09"/>
<text text-anchor="middle" x="1418.09" y="-1039.09" font-family="monospace" font-size="10.00">pub(self) async fn</text>
<polyline fill="none" stroke="black" points="1289.59,-1032.09 1546.59,-1032.09 "/>
<text text-anchor="middle" x="1418.09" y="-1020.09" font-family="monospace" font-size="10.00">origin_ipfs::IPFSOrigin::handle_redirect</text>
</g>
<!-- lightning_origin_ipfs::origin_ipfs::IPFSOrigin&#45;&gt;lightning_origin_ipfs::origin_ipfs::IPFSOrigin::handle_redirect -->
<g id="edge42" class="edge">
<title>lightning_origin_ipfs::origin_ipfs::IPFSOrigin&#45;&gt;lightning_origin_ipfs::origin_ipfs::IPFSOrigin::handle_redirect</title>
<path fill="none" stroke="#000000" d="M1244.27,-781.13C1254.81,-829.27 1328.82,-950.27 1378.13,-1005.19"/>
<polygon fill="#000000" stroke="#000000" points="1375.84,-1007.87 1385.22,-1012.8 1380.97,-1003.1 1375.84,-1007.87"/>
<text text-anchor="middle" x="1298.7" y="-896.16" font-family="monospace" font-size="10.00">owns</text>
</g>
<!-- lightning_origin_ipfs::origin_ipfs::IPFSOrigin::new -->
<g id="node26" class="node">
<title>lightning_origin_ipfs::origin_ipfs::IPFSOrigin::new</title>
<polygon fill="#81c169" stroke="black" points="1131.43,-424.5 1131.43,-462.5 1316.43,-462.5 1316.43,-424.5 1131.43,-424.5"/>
<text text-anchor="middle" x="1223.93" y="-450.5" font-family="monospace" font-size="10.00">pub fn</text>
<polyline fill="none" stroke="black" points="1131.43,-443.5 1316.43,-443.5 "/>
<text text-anchor="middle" x="1223.93" y="-431.5" font-family="monospace" font-size="10.00">origin_ipfs::IPFSOrigin::new</text>
</g>
<!-- lightning_origin_ipfs::origin_ipfs::IPFSOrigin&#45;&gt;lightning_origin_ipfs::origin_ipfs::IPFSOrigin::new -->
<g id="edge43" class="edge">
<title>lightning_origin_ipfs::origin_ipfs::IPFSOrigin&#45;&gt;lightning_origin_ipfs::origin_ipfs::IPFSOrigin::new</title>
<path fill="none" stroke="#000000" d="M1258.75,-742.42C1271.83,-688.42 1262.07,-536.53 1242.68,-472.51"/>
<polygon fill="#000000" stroke="#000000" points="1245.87,-471.03 1239.36,-462.67 1239.24,-473.27 1245.87,-471.03"/>
<text text-anchor="middle" x="1238.22" y="-610.47" font-family="monospace" font-size="10.00">owns</text>
</g>
<!-- lightning_origin_ipfs::origin_ipfs::IPFSOrigin::stream_car_into_blockstore -->
<g id="node27" class="node">
<title>lightning_origin_ipfs::origin_ipfs::IPFSOrigin::stream_car_into_blockstore</title>
<polygon fill="#81c169" stroke="black" points="1270.11,-880.78 1270.11,-918.78 1593.11,-918.78 1593.11,-880.78 1270.11,-880.78"/>
<text text-anchor="middle" x="1431.61" y="-906.78" font-family="monospace" font-size="10.00">pub async fn</text>
<polyline fill="none" stroke="black" points="1270.11,-899.78 1593.11,-899.78 "/>
<text text-anchor="middle" x="1431.61" y="-887.78" font-family="monospace" font-size="10.00">origin_ipfs::IPFSOrigin::stream_car_into_blockstore</text>
</g>
<!-- lightning_origin_ipfs::origin_ipfs::IPFSOrigin&#45;&gt;lightning_origin_ipfs::origin_ipfs::IPFSOrigin::stream_car_into_blockstore -->
<g id="edge44" class="edge">
<title>lightning_origin_ipfs::origin_ipfs::IPFSOrigin&#45;&gt;lightning_origin_ipfs::origin_ipfs::IPFSOrigin::stream_car_into_blockstore</title>
<path fill="none" stroke="#000000" d="M1249.46,-781.04C1264.36,-807.01 1312.88,-848.08 1356.38,-875.46"/>
<polygon fill="#000000" stroke="#000000" points="1354.64,-878.5 1365,-880.74 1358.3,-872.53 1354.64,-878.5"/>
<text text-anchor="middle" x="1290.42" y="-831.25" font-family="monospace" font-size="10.00">owns</text>
</g>
<!-- lightning_origin_ipfs::origin_ipfs::IPFSOrigin::fetch&#45;&gt;lightning_origin_ipfs::origin_ipfs::IPFSOrigin -->
<g id="edge45" class="edge">
<title>lightning_origin_ipfs::origin_ipfs::IPFSOrigin::fetch&#45;&gt;lightning_origin_ipfs::origin_ipfs::IPFSOrigin</title>
<path fill="none" stroke="#7f7f7f" stroke-dasharray="5,2" d="M1502.51,-601.75C1422.28,-635.34 1308.63,-698 1264.51,-735.66"/>
<polygon fill="#7f7f7f" stroke="#7f7f7f" points="1261.91,-733.3 1256.88,-742.62 1266.63,-738.47 1261.91,-733.3"/>
<text text-anchor="middle" x="1371.01" y="-671.71" font-family="monospace" font-size="10.00">uses</text>
</g>
<!-- lightning_origin_ipfs::origin_ipfs::IPFSOrigin::fetch_from_gateway&#45;&gt;lightning_origin_ipfs::config::Gateway -->
<g id="edge46" class="edge">
<title>lightning_origin_ipfs::origin_ipfs::IPFSOrigin::fetch_from_gateway&#45;&gt;lightning_origin_ipfs::config::Gateway</title>
<path fill="none" stroke="#7f7f7f" stroke-dasharray="5,2" d="M987.89,-754.15C940.08,-728.45 854.98,-682.7 802.85,-654.67"/>
<polygon fill="#7f7f7f" stroke="#7f7f7f" points="804.29,-651.47 793.83,-649.82 800.98,-657.64 804.29,-651.47"/>
<text text-anchor="middle" x="882.87" y="-707.41" font-family="monospace" font-size="10.00">uses</text>
</g>
<!-- lightning_origin_ipfs::origin_ipfs::IPFSOrigin::fetch_from_gateway&#45;&gt;lightning_origin_ipfs::error::Error -->
<g id="edge47" class="edge">
<title>lightning_origin_ipfs::origin_ipfs::IPFSOrigin::fetch_from_gateway&#45;&gt;lightning_origin_ipfs::error::Error</title>
<path fill="none" stroke="#7f7f7f" stroke-dasharray="5,2" d="M1028.69,-792.48C1043.06,-844.69 1082.85,-989.3 1099.99,-1051.61"/>
<polygon fill="#7f7f7f" stroke="#7f7f7f" points="1096.71,-1052.85 1102.73,-1061.57 1103.45,-1050.99 1096.71,-1052.85"/>
<text text-anchor="middle" x="1051.84" y="-925.04" font-family="monospace" font-size="10.00">uses</text>
</g>
<!-- lightning_origin_ipfs::origin_ipfs::IPFSOrigin::fetch_from_gateway&#45;&gt;lightning_origin_ipfs::origin_ipfs::IPFSOrigin -->
<g id="edge48" class="edge">
<title>lightning_origin_ipfs::origin_ipfs::IPFSOrigin::fetch_from_gateway&#45;&gt;lightning_origin_ipfs::origin_ipfs::IPFSOrigin</title>
<path fill="none" stroke="#7f7f7f" stroke-dasharray="5,2" d="M1063.09,-792.26C1105.72,-798.34 1172.73,-794.66 1212.9,-783.84"/>
<polygon fill="#7f7f7f" stroke="#7f7f7f" points="1213.94,-787.18 1222.5,-780.93 1211.91,-780.48 1213.94,-787.18"/>
<text text-anchor="middle" x="1150.49" y="-791.05" font-family="monospace" font-size="10.00">uses</text>
</g>
<!-- lightning_origin_ipfs::origin_ipfs::IPFSOrigin::handle_redirect&#45;&gt;lightning_origin_ipfs::error::Error -->
<g id="edge49" class="edge">
<title>lightning_origin_ipfs::origin_ipfs::IPFSOrigin::handle_redirect&#45;&gt;lightning_origin_ipfs::error::Error</title>
<path fill="none" stroke="#7f7f7f" stroke-dasharray="5,2" d="M1296.88,-1051.13C1250.61,-1058.4 1200.12,-1066.33 1163,-1072.16"/>
<polygon fill="#7f7f7f" stroke="#7f7f7f" points="1162.23,-1068.74 1152.89,-1073.75 1163.32,-1075.65 1162.23,-1068.74"/>
<text text-anchor="middle" x="1217.44" y="-1064.65" font-family="monospace" font-size="10.00">uses</text>
</g>
<!-- lightning_origin_ipfs::origin_ipfs::IPFSOrigin::handle_redirect&#45;&gt;lightning_origin_ipfs::origin_ipfs::IPFSOrigin -->
<g id="edge50" class="edge">
<title>lightning_origin_ipfs::origin_ipfs::IPFSOrigin::handle_redirect&#45;&gt;lightning_origin_ipfs::origin_ipfs::IPFSOrigin</title>
<path fill="none" stroke="#7f7f7f" stroke-dasharray="5,2" d="M1420.42,-1012.84C1409.88,-964.7 1335.87,-843.7 1286.55,-788.78"/>
<polygon fill="#7f7f7f" stroke="#7f7f7f" points="1288.85,-786.1 1279.47,-781.17 1283.72,-790.88 1288.85,-786.1"/>
<text text-anchor="middle" x="1340.99" y="-903.81" font-family="monospace" font-size="10.00">uses</text>
</g>
<!-- lightning_origin_ipfs::origin_ipfs::IPFSOrigin::new&#45;&gt;lightning_origin_ipfs::config::Config -->
<g id="edge51" class="edge">
<title>lightning_origin_ipfs::origin_ipfs::IPFSOrigin::new&#45;&gt;lightning_origin_ipfs::config::Config</title>
<path fill="none" stroke="#7f7f7f" stroke-dasharray="5,2" d="M1178.93,-462.56C1124.77,-485.49 1033.9,-523.97 975.77,-548.58"/>
<polygon fill="#7f7f7f" stroke="#7f7f7f" points="974.22,-545.43 966.38,-552.56 976.95,-551.88 974.22,-545.43"/>
<text text-anchor="middle" x="1064.85" y="-508.57" font-family="monospace" font-size="10.00">uses</text>
</g>
<!-- lightning_origin_ipfs::origin_ipfs::IPFSOrigin::new&#45;&gt;lightning_origin_ipfs::origin_ipfs::IPFSOrigin -->
<g id="edge52" class="edge">
<title>lightning_origin_ipfs::origin_ipfs::IPFSOrigin::new&#45;&gt;lightning_origin_ipfs::origin_ipfs::IPFSOrigin</title>
<path fill="none" stroke="#7f7f7f" stroke-dasharray="5,2" d="M1211.78,-462.95C1198.7,-516.95 1208.47,-668.84 1227.85,-732.86"/>
<polygon fill="#7f7f7f" stroke="#7f7f7f" points="1224.66,-734.35 1231.18,-742.7 1231.29,-732.11 1224.66,-734.35"/>
<text text-anchor="middle" x="1207.32" y="-600.91" font-family="monospace" font-size="10.00">uses</text>
</g>
<!-- lightning_origin_ipfs::origin_ipfs::IPFSOrigin::stream_car_into_blockstore&#45;&gt;lightning_origin_ipfs::error::Error -->
<g id="edge53" class="edge">
<title>lightning_origin_ipfs::origin_ipfs::IPFSOrigin::stream_car_into_blockstore&#45;&gt;lightning_origin_ipfs::error::Error</title>
<path fill="none" stroke="#7f7f7f" stroke-dasharray="5,2" d="M1397.59,-918.81C1338.24,-952.01 1215.89,-1020.45 1150.86,-1056.84"/>
<polygon fill="#7f7f7f" stroke="#7f7f7f" points="1149.09,-1053.81 1142.07,-1061.75 1152.51,-1059.92 1149.09,-1053.81"/>
<text text-anchor="middle" x="1261.72" y="-990.82" font-family="monospace" font-size="10.00">uses</text>
</g>
<!-- lightning_origin_ipfs::origin_ipfs::IPFSOrigin::stream_car_into_blockstore&#45;&gt;lightning_origin_ipfs::origin_ipfs::IPFSOrigin -->
<g id="edge54" class="edge">
<title>lightning_origin_ipfs::origin_ipfs::IPFSOrigin::stream_car_into_blockstore&#45;&gt;lightning_origin_ipfs::origin_ipfs::IPFSOrigin</title>
<path fill="none" stroke="#7f7f7f" stroke-dasharray="5,2" d="M1428.75,-880.62C1413.85,-854.64 1365.33,-813.57 1321.84,-786.2"/>
<polygon fill="#7f7f7f" stroke="#7f7f7f" points="1323.57,-783.15 1313.21,-780.91 1319.91,-789.12 1323.57,-783.15"/>
<text text-anchor="middle" x="1362.79" y="-836.41" font-family="monospace" font-size="10.00">uses</text>
</g>
<!-- lightning_origin_ipfs::origin_ipfs::verify_data&#45;&gt;lightning_origin_ipfs::error::Error -->
<g id="edge55" class="edge">
<title>lightning_origin_ipfs::origin_ipfs::verify_data&#45;&gt;lightning_origin_ipfs::error::Error</title>
<path fill="none" stroke="#7f7f7f" stroke-dasharray="5,2" d="M956.94,-1048.77C988.86,-1055.54 1024.7,-1063.13 1053.46,-1069.23"/>
<polygon fill="#7f7f7f" stroke="#7f7f7f" points="1052.81,-1072.67 1063.32,-1071.32 1054.26,-1065.82 1052.81,-1072.67"/>
<text text-anchor="middle" x="992.7" y="-1062" font-family="monospace" font-size="10.00">uses</text>
</g>
</g>
</svg>
