<?xml version="1.0" encoding="UTF-8" standalone="no"?>
<!DOCTYPE svg PUBLIC "-//W3C//DTD SVG 1.1//EN"
 "http://www.w3.org/Graphics/SVG/1.1/DTD/svg11.dtd">
<!-- Generated by graphviz version 4.0.0 (0)
 -->
<!-- Pages: 1 -->
<svg width="1293pt" height="2257pt"
 viewBox="0.00 0.00 1292.60 2257.10" xmlns="http://www.w3.org/2000/svg" xmlns:xlink="http://www.w3.org/1999/xlink">
<g id="graph0" class="graph" transform="scale(1 1) rotate(0) translate(28.8 2228.3)">
<polygon fill="white" stroke="transparent" points="-28.8,28.8 -28.8,-2228.3 1263.8,-2228.3 1263.8,28.8 -28.8,28.8"/>
<text text-anchor="middle" x="617.5" y="-2166.7" font-family="Helvetica,sans-Serif" font-size="36.00">lightning_blockstore_server</text>
<!-- core::mem -->
<g id="node1" class="node">
<title>core::mem</title>
<polygon fill="#81c169" stroke="black" points="45,-1622 45,-1660 134,-1660 134,-1622 45,-1622"/>
<text text-anchor="middle" x="89.5" y="-1648" font-family="monospace" font-size="10.00">external mod</text>
<polyline fill="none" stroke="black" points="45,-1641 134,-1641 "/>
<text text-anchor="middle" x="89.5" y="-1629" font-family="monospace" font-size="10.00">core::mem</text>
</g>
<!-- fdi -->
<g id="node2" class="node">
<title>fdi</title>
<polygon fill="#5397c8" stroke="black" points="39,-1328 39,-1366 140,-1366 140,-1328 39,-1328"/>
<text text-anchor="middle" x="89.5" y="-1354" font-family="monospace" font-size="10.00">external crate</text>
<polyline fill="none" stroke="black" points="39,-1347 140,-1347 "/>
<text text-anchor="middle" x="89.5" y="-1335" font-family="monospace" font-size="10.00">fdi</text>
</g>
<!-- lightning_blockstore_server -->
<g id="node3" class="node">
<title>lightning_blockstore_server</title>
<polygon fill="#5397c8" stroke="black" points="0,-1454 0,-1492 179,-1492 179,-1454 0,-1454"/>
<text text-anchor="middle" x="89.5" y="-1480" font-family="monospace" font-size="10.00">crate</text>
<polyline fill="none" stroke="black" points="0,-1473 179,-1473 "/>
<text text-anchor="middle" x="89.5" y="-1461" font-family="monospace" font-size="10.00">lightning_blockstore_server</text>
</g>
<!-- lightning_blockstore_server::blockstore_server -->
<g id="node4" class="node">
<title>lightning_blockstore_server::blockstore_server</title>
<polygon fill="#f8c04c" stroke="black" points="942,-2113 942,-2151 1235,-2151 1235,-2113 942,-2113"/>
<text text-anchor="middle" x="1088.5" y="-2139" font-family="monospace" font-size="10.00">pub(crate) mod</text>
<polyline fill="none" stroke="black" points="942,-2132 1235,-2132 "/>
<text text-anchor="middle" x="1088.5" y="-2120" font-family="monospace" font-size="10.00">lightning_blockstore_server::blockstore_server</text>
</g>
<!-- lightning_blockstore_server&#45;&gt;lightning_blockstore_server::blockstore_server -->
<g id="edge1" class="edge">
<title>lightning_blockstore_server&#45;&gt;lightning_blockstore_server::blockstore_server</title>
<path fill="none" stroke="#000000" d="M112.24,-1492.14C204.75,-1570.03 548,-1859 548,-1859 548,-1859 909.88,-2041.78 1041.43,-2108.22"/>
<polygon fill="#000000" stroke="#000000" points="1039.99,-2111.42 1050.49,-2112.8 1043.15,-2105.17 1039.99,-2111.42"/>
<text text-anchor="middle" x="560.5" y="-1862" font-family="monospace" font-size="10.00">owns</text>
</g>
<!-- lightning_blockstore_server&#45;&gt;lightning_blockstore_server::blockstore_server -->
<g id="edge2" class="edge">
<title>lightning_blockstore_server&#45;&gt;lightning_blockstore_server::blockstore_server</title>
<path fill="none" stroke="#7f7f7f" stroke-dasharray="5,2" d="M179.03,-1479.67C318.79,-1490.07 573,-1509 573,-1509 573,-1509 966.39,-1984.42 1065.86,-2104.64"/>
<polygon fill="#7f7f7f" stroke="#7f7f7f" points="1063.44,-2107.2 1072.51,-2112.67 1068.83,-2102.74 1063.44,-2107.2"/>
<text text-anchor="middle" x="560.5" y="-1501" font-family="monospace" font-size="10.00">uses</text>
</g>
<!-- lightning_blockstore_server::config -->
<g id="node5" class="node">
<title>lightning_blockstore_server::config</title>
<polygon fill="#f8c04c" stroke="black" points="975,-634 975,-672 1202,-672 1202,-634 975,-634"/>
<text text-anchor="middle" x="1088.5" y="-660" font-family="monospace" font-size="10.00">pub(crate) mod</text>
<polyline fill="none" stroke="black" points="975,-653 1202,-653 "/>
<text text-anchor="middle" x="1088.5" y="-641" font-family="monospace" font-size="10.00">lightning_blockstore_server::config</text>
</g>
<!-- lightning_blockstore_server&#45;&gt;lightning_blockstore_server::config -->
<g id="edge3" class="edge">
<title>lightning_blockstore_server&#45;&gt;lightning_blockstore_server::config</title>
<path fill="none" stroke="#000000" d="M106.99,-1453.75C193.68,-1358.37 573,-941 573,-941 573,-941 921.48,-746.31 1045.4,-677.08"/>
<polygon fill="#000000" stroke="#000000" points="1047.25,-680.05 1054.28,-672.12 1043.84,-673.94 1047.25,-680.05"/>
<text text-anchor="middle" x="560.5" y="-933" font-family="monospace" font-size="10.00">owns</text>
</g>
<!-- lightning_blockstore_server&#45;&gt;lightning_blockstore_server::config -->
<g id="edge4" class="edge">
<title>lightning_blockstore_server&#45;&gt;lightning_blockstore_server::config</title>
<path fill="none" stroke="#7f7f7f" stroke-dasharray="5,2" d="M102.94,-1453.91C181.02,-1342.95 573,-786 573,-786 573,-786 858.82,-712.26 1004.8,-674.59"/>
<polygon fill="#7f7f7f" stroke="#7f7f7f" points="1005.83,-677.94 1014.64,-672.06 1004.08,-671.16 1005.83,-677.94"/>
<text text-anchor="middle" x="560.5" y="-778" font-family="monospace" font-size="10.00">uses</text>
</g>
<!-- lightning_blockstore_server::blockstore_server&#45;&gt;core::mem -->
<g id="edge5" class="edge">
<title>lightning_blockstore_server::blockstore_server&#45;&gt;core::mem</title>
<path fill="none" stroke="#7f7f7f" stroke-dasharray="5,2" d="M1001.36,-2112.98C848.48,-2079.6 548,-2014 548,-2014 548,-2014 224.08,-1750.49 120.77,-1666.43"/>
<polygon fill="#7f7f7f" stroke="#7f7f7f" points="122.83,-1663.61 112.87,-1660.01 118.42,-1669.04 122.83,-1663.61"/>
<text text-anchor="middle" x="560.5" y="-2017" font-family="monospace" font-size="10.00">uses</text>
</g>
<!-- lightning_blockstore_server::blockstore_server&#45;&gt;fdi -->
<g id="edge6" class="edge">
<title>lightning_blockstore_server::blockstore_server&#45;&gt;fdi</title>
<path fill="none" stroke="#7f7f7f" stroke-dasharray="5,2" d="M1081.89,-2112.75C1021.84,-1937.9 573,-631 573,-631 573,-631 196.81,-1188.09 108.08,-1319.48"/>
<polygon fill="#7f7f7f" stroke="#7f7f7f" points="105.13,-1317.6 102.43,-1327.85 110.93,-1321.52 105.13,-1317.6"/>
<text text-anchor="middle" x="560.5" y="-623" font-family="monospace" font-size="10.00">uses</text>
</g>
<!-- lightning_blockstore_server::blockstore_server&#45;&gt;lightning_blockstore_server::config -->
<g id="edge7" class="edge">
<title>lightning_blockstore_server::blockstore_server&#45;&gt;lightning_blockstore_server::config</title>
</g>
<!-- lightning_schema -->
<g id="node6" class="node">
<title>lightning_schema</title>
<polygon fill="#5397c8" stroke="black" points="33,-1187 33,-1225 146,-1225 146,-1187 33,-1187"/>
<text text-anchor="middle" x="89.5" y="-1213" font-family="monospace" font-size="10.00">external crate</text>
<polyline fill="none" stroke="black" points="33,-1206 146,-1206 "/>
<text text-anchor="middle" x="89.5" y="-1194" font-family="monospace" font-size="10.00">lightning_schema</text>
</g>
<!-- lightning_blockstore_server::blockstore_server&#45;&gt;lightning_schema -->
<g id="edge8" class="edge">
<title>lightning_blockstore_server::blockstore_server&#45;&gt;lightning_schema</title>
<path fill="none" stroke="#7f7f7f" stroke-dasharray="5,2" d="M1082.53,-2112.83C1025.13,-1928.44 573,-476 573,-476 573,-476 195.99,-1045.21 107.8,-1178.37"/>
<polygon fill="#7f7f7f" stroke="#7f7f7f" points="104.79,-1176.58 102.18,-1186.85 110.62,-1180.45 104.79,-1176.58"/>
<text text-anchor="middle" x="560.5" y="-468" font-family="monospace" font-size="10.00">uses</text>
</g>
<!-- lightning_types -->
<g id="node7" class="node">
<title>lightning_types</title>
<polygon fill="#5397c8" stroke="black" points="36,-1015 36,-1053 143,-1053 143,-1015 36,-1015"/>
<text text-anchor="middle" x="89.5" y="-1041" font-family="monospace" font-size="10.00">external crate</text>
<polyline fill="none" stroke="black" points="36,-1034 143,-1034 "/>
<text text-anchor="middle" x="89.5" y="-1022" font-family="monospace" font-size="10.00">lightning_types</text>
</g>
<!-- lightning_blockstore_server::blockstore_server&#45;&gt;lightning_types -->
<g id="edge9" class="edge">
<title>lightning_blockstore_server::blockstore_server&#45;&gt;lightning_types</title>
<path fill="none" stroke="#7f7f7f" stroke-dasharray="5,2" d="M1083.06,-2112.89C1027.97,-1919.34 573,-321 573,-321 573,-321 196.81,-875.76 108.08,-1006.59"/>
<polygon fill="#7f7f7f" stroke="#7f7f7f" points="105.15,-1004.69 102.43,-1014.93 110.94,-1008.62 105.15,-1004.69"/>
<text text-anchor="middle" x="560.5" y="-313" font-family="monospace" font-size="10.00">uses</text>
</g>
<!-- tokio::sync::broadcast -->
<g id="node8" class="node">
<title>tokio::sync::broadcast</title>
<polygon fill="#81c169" stroke="black" points="15,-783 15,-821 164,-821 164,-783 15,-783"/>
<text text-anchor="middle" x="89.5" y="-809" font-family="monospace" font-size="10.00">external mod</text>
<polyline fill="none" stroke="black" points="15,-802 164,-802 "/>
<text text-anchor="middle" x="89.5" y="-790" font-family="monospace" font-size="10.00">tokio::sync::broadcast</text>
</g>
<!-- lightning_blockstore_server::blockstore_server&#45;&gt;tokio::sync::broadcast -->
<g id="edge10" class="edge">
<title>lightning_blockstore_server::blockstore_server&#45;&gt;tokio::sync::broadcast</title>
<path fill="none" stroke="#7f7f7f" stroke-dasharray="5,2" d="M1083.48,-2112.86C1030.33,-1910.17 573,-166 573,-166 573,-166 202.42,-653.46 110.13,-774.87"/>
<polygon fill="#7f7f7f" stroke="#7f7f7f" points="107.24,-772.89 103.97,-782.97 112.81,-777.12 107.24,-772.89"/>
<text text-anchor="middle" x="560.5" y="-158" font-family="monospace" font-size="10.00">uses</text>
</g>
<!-- tokio::sync::mpsc -->
<g id="node9" class="node">
<title>tokio::sync::mpsc</title>
<polygon fill="#81c169" stroke="black" points="30,-430 30,-468 149,-468 149,-430 30,-430"/>
<text text-anchor="middle" x="89.5" y="-456" font-family="monospace" font-size="10.00">external mod</text>
<polyline fill="none" stroke="black" points="30,-449 149,-449 "/>
<text text-anchor="middle" x="89.5" y="-437" font-family="monospace" font-size="10.00">tokio::sync::mpsc</text>
</g>
<!-- lightning_blockstore_server::blockstore_server&#45;&gt;tokio::sync::mpsc -->
<g id="edge11" class="edge">
<title>lightning_blockstore_server::blockstore_server&#45;&gt;tokio::sync::mpsc</title>
<path fill="none" stroke="#7f7f7f" stroke-dasharray="5,2" d="M1083.81,-2112.69C1032.23,-1900.49 573,-11 573,-11 573,-11 222.16,-328.82 118.2,-423"/>
<polygon fill="#7f7f7f" stroke="#7f7f7f" points="115.65,-420.59 110.59,-429.9 120.35,-425.78 115.65,-420.59"/>
<text text-anchor="middle" x="560.5" y="-3" font-family="monospace" font-size="10.00">uses</text>
</g>
</g>
</svg>
