<?xml version="1.0" encoding="UTF-8" standalone="no"?>
<!DOCTYPE svg PUBLIC "-//W3C//DTD SVG 1.1//EN"
 "http://www.w3.org/Graphics/SVG/1.1/DTD/svg11.dtd">
<!-- Generated by graphviz version 4.0.0 (0)
 -->
<!-- Pages: 1 -->
<svg width="2043pt" height="1210pt"
 viewBox="0.00 0.00 2042.60 1210.10" xmlns="http://www.w3.org/2000/svg" xmlns:xlink="http://www.w3.org/1999/xlink">
<g id="graph0" class="graph" transform="scale(1 1) rotate(0) translate(28.8 1181.3)">
<polygon fill="white" stroke="transparent" points="-28.8,28.8 -28.8,-1181.3 2013.8,-1181.3 2013.8,28.8 -28.8,28.8"/>
<text text-anchor="middle" x="992.5" y="-1119.7" font-family="Helvetica,sans-Serif" font-size="36.00">lightning_metrics</text>
<!-- lightning_metrics -->
<g id="node1" class="node">
<title>lightning_metrics</title>
<polygon fill="#5397c8" stroke="black" points="0,-833 0,-871 119,-871 119,-833 0,-833"/>
<text text-anchor="middle" x="59.5" y="-859" font-family="monospace" font-size="10.00">crate</text>
<polyline fill="none" stroke="black" points="0,-852 119,-852 "/>
<text text-anchor="middle" x="59.5" y="-840" font-family="monospace" font-size="10.00">lightning_metrics</text>
</g>
<!-- lightning_metrics::counter::Counter -->
<g id="node2" class="node">
<title>lightning_metrics::counter::Counter</title>
<polygon fill="#81c169" stroke="black" points="894,-1066 894,-1104 1007,-1104 1007,-1066 894,-1066"/>
<text text-anchor="middle" x="950.5" y="-1092" font-family="monospace" font-size="10.00">pub trait</text>
<polyline fill="none" stroke="black" points="894,-1085 1007,-1085 "/>
<text text-anchor="middle" x="950.5" y="-1073" font-family="monospace" font-size="10.00">counter::Counter</text>
</g>
<!-- lightning_metrics&#45;&gt;lightning_metrics::counter::Counter -->
<g id="edge1" class="edge">
<title>lightning_metrics&#45;&gt;lightning_metrics::counter::Counter</title>
<path fill="none" stroke="#000000" d="M94.57,-871.07C196.9,-926.71 488,-1085 488,-1085 488,-1085 755.6,-1085 883.7,-1085"/>
<polygon fill="#000000" stroke="#000000" points="883.79,-1088.5 893.79,-1085 883.79,-1081.5 883.79,-1088.5"/>
<text text-anchor="middle" x="500.5" y="-1088" font-family="monospace" font-size="10.00">owns</text>
</g>
<!-- lightning_metrics::histogram::Histogram -->
<g id="node3" class="node">
<title>lightning_metrics::histogram::Histogram</title>
<polygon fill="#81c169" stroke="black" points="882,-911 882,-949 1019,-949 1019,-911 882,-911"/>
<text text-anchor="middle" x="950.5" y="-937" font-family="monospace" font-size="10.00">pub trait</text>
<polyline fill="none" stroke="black" points="882,-930 1019,-930 "/>
<text text-anchor="middle" x="950.5" y="-918" font-family="monospace" font-size="10.00">histogram::Histogram</text>
</g>
<!-- lightning_metrics&#45;&gt;lightning_metrics::histogram::Histogram -->
<g id="edge2" class="edge">
<title>lightning_metrics&#45;&gt;lightning_metrics::histogram::Histogram</title>
<path fill="none" stroke="#000000" d="M119.08,-862.85C236.82,-884.28 488,-930 488,-930 488,-930 739.64,-930 871.69,-930"/>
<polygon fill="#000000" stroke="#000000" points="871.76,-933.5 881.76,-930 871.76,-926.5 871.76,-933.5"/>
<text text-anchor="middle" x="500.5" y="-933" font-family="monospace" font-size="10.00">owns</text>
</g>
<!-- lightning_metrics::labels::Label -->
<g id="node4" class="node">
<title>lightning_metrics::labels::Label</title>
<polygon fill="#f8c04c" stroke="black" points="897,-756 897,-794 1004,-794 1004,-756 897,-756"/>
<text text-anchor="middle" x="950.5" y="-782" font-family="monospace" font-size="10.00">pub(crate) type</text>
<polyline fill="none" stroke="black" points="897,-775 1004,-775 "/>
<text text-anchor="middle" x="950.5" y="-763" font-family="monospace" font-size="10.00">labels::Label</text>
</g>
<!-- lightning_metrics&#45;&gt;lightning_metrics::labels::Label -->
<g id="edge3" class="edge">
<title>lightning_metrics&#45;&gt;lightning_metrics::labels::Label</title>
<path fill="none" stroke="#000000" d="M119.25,-843.3C242.4,-825.38 513,-786 513,-786 513,-786 765.12,-779.66 886.58,-776.61"/>
<polygon fill="#000000" stroke="#000000" points="886.95,-780.1 896.85,-776.35 886.77,-773.1 886.95,-780.1"/>
<text text-anchor="middle" x="500.5" y="-778" font-family="monospace" font-size="10.00">owns</text>
</g>
<!-- lightning_metrics::labels::Labels -->
<g id="node5" class="node">
<title>lightning_metrics::labels::Labels</title>
<polygon fill="#81c169" stroke="black" points="900,-601 900,-639 1001,-639 1001,-601 900,-601"/>
<text text-anchor="middle" x="950.5" y="-627" font-family="monospace" font-size="10.00">pub struct</text>
<polyline fill="none" stroke="black" points="900,-620 1001,-620 "/>
<text text-anchor="middle" x="950.5" y="-608" font-family="monospace" font-size="10.00">labels::Labels</text>
</g>
<!-- lightning_metrics&#45;&gt;lightning_metrics::labels::Labels -->
<g id="edge4" class="edge">
<title>lightning_metrics&#45;&gt;lightning_metrics::labels::Labels</title>
<path fill="none" stroke="#000000" d="M98.56,-832.97C208.56,-779.36 513,-631 513,-631 513,-631 769.55,-624.55 889.73,-621.53"/>
<polygon fill="#000000" stroke="#000000" points="889.98,-625.02 899.89,-621.27 889.8,-618.03 889.98,-625.02"/>
<text text-anchor="middle" x="500.5" y="-623" font-family="monospace" font-size="10.00">owns</text>
</g>
<!-- lightning_metrics&#45;&gt;lightning_metrics::labels::Labels -->
<g id="edge5" class="edge">
<title>lightning_metrics&#45;&gt;lightning_metrics::labels::Labels</title>
<path fill="none" stroke="#7f7f7f" stroke-dasharray="5,2" d="M82.61,-832.84C175.03,-756.22 513,-476 513,-476 513,-476 770.07,-560.61 890.1,-600.12"/>
<polygon fill="#7f7f7f" stroke="#7f7f7f" points="889.29,-603.54 899.89,-603.34 891.48,-596.89 889.29,-603.54"/>
<text text-anchor="middle" x="500.5" y="-468" font-family="monospace" font-size="10.00">uses</text>
</g>
<!-- lightning_metrics::labels::Labels::extract_fn_name -->
<g id="node6" class="node">
<title>lightning_metrics::labels::Labels::extract_fn_name</title>
<polygon fill="#81c169" stroke="black" points="1782,-911 1782,-949 1985,-949 1985,-911 1782,-911"/>
<text text-anchor="middle" x="1883.5" y="-937" font-family="monospace" font-size="10.00">pub fn</text>
<polyline fill="none" stroke="black" points="1782,-930 1985,-930 "/>
<text text-anchor="middle" x="1883.5" y="-918" font-family="monospace" font-size="10.00">labels::Labels::extract_fn_name</text>
</g>
<!-- lightning_metrics::labels::Labels&#45;&gt;lightning_metrics::labels::Labels::extract_fn_name -->
<g id="edge6" class="edge">
<title>lightning_metrics::labels::Labels&#45;&gt;lightning_metrics::labels::Labels::extract_fn_name</title>
<path fill="none" stroke="#000000" d="M977.54,-639.16C1072.92,-706.74 1388,-930 1388,-930 1388,-930 1625.2,-930 1771.37,-930"/>
<polygon fill="#000000" stroke="#000000" points="1771.73,-933.5 1781.73,-930 1771.73,-926.5 1771.73,-933.5"/>
<text text-anchor="middle" x="1400.5" y="-933" font-family="monospace" font-size="10.00">owns</text>
</g>
<!-- lightning_metrics::labels::Labels::increment_by -->
<g id="node7" class="node">
<title>lightning_metrics::labels::Labels::increment_by</title>
<polygon fill="#db5367" stroke="black" points="1791,-756 1791,-794 1976,-794 1976,-756 1791,-756"/>
<text text-anchor="middle" x="1883.5" y="-782" font-family="monospace" font-size="10.00">pub(self) fn</text>
<polyline fill="none" stroke="black" points="1791,-775 1976,-775 "/>
<text text-anchor="middle" x="1883.5" y="-763" font-family="monospace" font-size="10.00">labels::Labels::increment_by</text>
</g>
<!-- lightning_metrics::labels::Labels&#45;&gt;lightning_metrics::labels::Labels::increment_by -->
<g id="edge7" class="edge">
<title>lightning_metrics::labels::Labels&#45;&gt;lightning_metrics::labels::Labels::increment_by</title>
<path fill="none" stroke="#000000" d="M1001.11,-637.93C1116.28,-678.73 1388,-775 1388,-775 1388,-775 1635.45,-775 1780.61,-775"/>
<polygon fill="#000000" stroke="#000000" points="1780.88,-778.5 1790.88,-775 1780.88,-771.5 1780.88,-778.5"/>
<text text-anchor="middle" x="1400.5" y="-778" font-family="monospace" font-size="10.00">owns</text>
</g>
<!-- lightning_metrics::labels::Labels::new -->
<g id="node8" class="node">
<title>lightning_metrics::labels::Labels::new</title>
<polygon fill="#81c169" stroke="black" points="1818,-601 1818,-639 1949,-639 1949,-601 1818,-601"/>
<text text-anchor="middle" x="1883.5" y="-627" font-family="monospace" font-size="10.00">pub fn</text>
<polyline fill="none" stroke="black" points="1818,-620 1949,-620 "/>
<text text-anchor="middle" x="1883.5" y="-608" font-family="monospace" font-size="10.00">labels::Labels::new</text>
</g>
<!-- lightning_metrics::labels::Labels&#45;&gt;lightning_metrics::labels::Labels::new -->
<g id="edge8" class="edge">
<title>lightning_metrics::labels::Labels&#45;&gt;lightning_metrics::labels::Labels::new</title>
<path fill="none" stroke="#000000" d="M1001.11,-620C1116.28,-620 1388,-620 1388,-620 1388,-620 1669.05,-620 1807.81,-620"/>
<polygon fill="#000000" stroke="#000000" points="1807.96,-623.5 1817.96,-620 1807.96,-616.5 1807.96,-623.5"/>
<text text-anchor="middle" x="1400.5" y="-623" font-family="monospace" font-size="10.00">owns</text>
</g>
<!-- lightning_metrics::labels::Labels::observe -->
<g id="node9" class="node">
<title>lightning_metrics::labels::Labels::observe</title>
<polygon fill="#db5367" stroke="black" points="1806,-446 1806,-484 1961,-484 1961,-446 1806,-446"/>
<text text-anchor="middle" x="1883.5" y="-472" font-family="monospace" font-size="10.00">pub(self) fn</text>
<polyline fill="none" stroke="black" points="1806,-465 1961,-465 "/>
<text text-anchor="middle" x="1883.5" y="-453" font-family="monospace" font-size="10.00">labels::Labels::observe</text>
</g>
<!-- lightning_metrics::labels::Labels&#45;&gt;lightning_metrics::labels::Labels::observe -->
<g id="edge9" class="edge">
<title>lightning_metrics::labels::Labels&#45;&gt;lightning_metrics::labels::Labels::observe</title>
<path fill="none" stroke="#000000" d="M1001.32,-604.18C1121.46,-566.77 1413,-476 1413,-476 1413,-476 1659.67,-470.23 1795.8,-467.05"/>
<polygon fill="#000000" stroke="#000000" points="1795.89,-470.55 1805.81,-466.82 1795.73,-463.55 1795.89,-470.55"/>
<text text-anchor="middle" x="1400.5" y="-468" font-family="monospace" font-size="10.00">owns</text>
</g>
<!-- lightning_metrics::labels::Labels::to_vec -->
<g id="node10" class="node">
<title>lightning_metrics::labels::Labels::to_vec</title>
<polygon fill="#81c169" stroke="black" points="1809,-291 1809,-329 1958,-329 1958,-291 1809,-291"/>
<text text-anchor="middle" x="1883.5" y="-317" font-family="monospace" font-size="10.00">pub fn</text>
<polyline fill="none" stroke="black" points="1809,-310 1958,-310 "/>
<text text-anchor="middle" x="1883.5" y="-298" font-family="monospace" font-size="10.00">labels::Labels::to_vec</text>
</g>
<!-- lightning_metrics::labels::Labels&#45;&gt;lightning_metrics::labels::Labels::to_vec -->
<g id="edge10" class="edge">
<title>lightning_metrics::labels::Labels&#45;&gt;lightning_metrics::labels::Labels::to_vec</title>
<path fill="none" stroke="#000000" d="M980.14,-600.84C1082.21,-534.85 1413,-321 1413,-321 1413,-321 1663.08,-315.15 1798.6,-311.99"/>
<polygon fill="#000000" stroke="#000000" points="1799.03,-315.48 1808.95,-311.74 1798.87,-308.48 1799.03,-315.48"/>
<text text-anchor="middle" x="1400.5" y="-313" font-family="monospace" font-size="10.00">owns</text>
</g>
<!-- lightning_metrics::labels::Labels::new&#45;&gt;lightning_metrics::labels::Labels -->
<g id="edge11" class="edge">
<title>lightning_metrics::labels::Labels::new&#45;&gt;lightning_metrics::labels::Labels</title>
<path fill="none" stroke="#7f7f7f" stroke-dasharray="5,2" d="M1863.58,-600.78C1774.03,-514.37 1413,-166 1413,-166 1413,-166 1075.9,-496.9 977.29,-593.7"/>
<polygon fill="#7f7f7f" stroke="#7f7f7f" points="974.76,-591.28 970.08,-600.78 979.67,-596.27 974.76,-591.28"/>
<text text-anchor="middle" x="1400.5" y="-158" font-family="monospace" font-size="10.00">uses</text>
</g>
<!-- lightning_metrics::labels::Labels::to_vec&#45;&gt;lightning_metrics::labels::Labels -->
<g id="edge12" class="edge">
<title>lightning_metrics::labels::Labels::to_vec&#45;&gt;lightning_metrics::labels::Labels</title>
<path fill="none" stroke="#7f7f7f" stroke-dasharray="5,2" d="M1853.35,-290.84C1749.51,-224.85 1413,-11 1413,-11 1413,-11 1061.53,-473.8 971.37,-592.51"/>
<polygon fill="#7f7f7f" stroke="#7f7f7f" points="968.37,-590.69 965.11,-600.77 973.94,-594.92 968.37,-590.69"/>
<text text-anchor="middle" x="1400.5" y="-3" font-family="monospace" font-size="10.00">uses</text>
</g>
</g>
</svg>
