<?xml version="1.0" encoding="UTF-8" standalone="no"?>
<!DOCTYPE svg PUBLIC "-//W3C//DTD SVG 1.1//EN"
 "http://www.w3.org/Graphics/SVG/1.1/DTD/svg11.dtd">
<!-- Generated by graphviz version 4.0.0 (0)
 -->
<!-- Pages: 1 -->
<svg width="1253pt" height="993pt"
 viewBox="0.00 0.00 1252.60 992.60" xmlns="http://www.w3.org/2000/svg" xmlns:xlink="http://www.w3.org/1999/xlink">
<g id="graph0" class="graph" transform="scale(1 1) rotate(0) translate(28.8 963.8)">
<polygon fill="white" stroke="transparent" points="-28.8,28.8 -28.8,-963.8 1223.8,-963.8 1223.8,28.8 -28.8,28.8"/>
<text text-anchor="middle" x="597.5" y="-902.2" font-family="Helvetica,sans-Serif" font-size="36.00">lightning_notifier</text>
<!-- lightning_notifier -->
<g id="node1" class="node">
<title>lightning_notifier</title>
<polygon fill="#5397c8" stroke="black" points="293.49,-330.66 293.49,-368.66 418.49,-368.66 418.49,-330.66 293.49,-330.66"/>
<text text-anchor="middle" x="355.99" y="-356.66" font-family="monospace" font-size="10.00">crate</text>
<polyline fill="none" stroke="black" points="293.49,-349.66 418.49,-349.66 "/>
<text text-anchor="middle" x="355.99" y="-337.66" font-family="monospace" font-size="10.00">lightning_notifier</text>
</g>
<!-- lightning_notifier::BroadcastSub -->
<g id="node2" class="node">
<title>lightning_notifier::BroadcastSub</title>
<polygon fill="#f8c04c" stroke="black" points="622.95,-500.29 622.95,-538.29 741.95,-538.29 741.95,-500.29 622.95,-500.29"/>
<text text-anchor="middle" x="682.45" y="-526.29" font-family="monospace" font-size="10.00">pub(crate) struct</text>
<polyline fill="none" stroke="black" points="622.95,-519.29 741.95,-519.29 "/>
<text text-anchor="middle" x="682.45" y="-507.29" font-family="monospace" font-size="10.00">BroadcastSub</text>
</g>
<!-- lightning_notifier&#45;&gt;lightning_notifier::BroadcastSub -->
<g id="edge1" class="edge">
<title>lightning_notifier&#45;&gt;lightning_notifier::BroadcastSub</title>
<path fill="none" stroke="#000000" d="M392.81,-368.79C452.73,-399.93 571.2,-461.49 636.53,-495.43"/>
<polygon fill="#000000" stroke="#000000" points="635.28,-498.73 645.77,-500.23 638.51,-492.52 635.28,-498.73"/>
<text text-anchor="middle" x="502.17" y="-435.11" font-family="monospace" font-size="10.00">owns</text>
</g>
<!-- lightning_notifier::NotificationsEmitter -->
<g id="node5" class="node">
<title>lightning_notifier::NotificationsEmitter</title>
<polygon fill="#81c169" stroke="black" points="528.35,-377.39 528.35,-415.39 665.35,-415.39 665.35,-377.39 528.35,-377.39"/>
<text text-anchor="middle" x="596.85" y="-403.39" font-family="monospace" font-size="10.00">pub struct</text>
<polyline fill="none" stroke="black" points="528.35,-396.39 665.35,-396.39 "/>
<text text-anchor="middle" x="596.85" y="-384.39" font-family="monospace" font-size="10.00">NotificationsEmitter</text>
</g>
<!-- lightning_notifier&#45;&gt;lightning_notifier::NotificationsEmitter -->
<g id="edge2" class="edge">
<title>lightning_notifier&#45;&gt;lightning_notifier::NotificationsEmitter</title>
<path fill="none" stroke="#000000" d="M418.65,-361.82C449.09,-367.72 485.99,-374.88 518.29,-381.15"/>
<polygon fill="#000000" stroke="#000000" points="517.68,-384.6 528.16,-383.06 519.01,-377.72 517.68,-384.6"/>
<text text-anchor="middle" x="455.97" y="-374.48" font-family="monospace" font-size="10.00">owns</text>
</g>
<!-- lightning_notifier::Notifier -->
<g id="node8" class="node">
<title>lightning_notifier::Notifier</title>
<polygon fill="#81c169" stroke="black" points="703.82,-331.09 703.82,-369.09 780.82,-369.09 780.82,-331.09 703.82,-331.09"/>
<text text-anchor="middle" x="742.32" y="-357.09" font-family="monospace" font-size="10.00">pub struct</text>
<polyline fill="none" stroke="black" points="703.82,-350.09 780.82,-350.09 "/>
<text text-anchor="middle" x="742.32" y="-338.09" font-family="monospace" font-size="10.00">Notifier</text>
</g>
<!-- lightning_notifier&#45;&gt;lightning_notifier::Notifier -->
<g id="edge3" class="edge">
<title>lightning_notifier&#45;&gt;lightning_notifier::Notifier</title>
<path fill="none" stroke="#000000" d="M418.92,-349.73C495.7,-349.82 623.84,-349.96 693.55,-350.03"/>
<polygon fill="#000000" stroke="#000000" points="693.8,-353.53 703.8,-350.04 693.81,-346.53 693.8,-353.53"/>
<text text-anchor="middle" x="543.73" y="-341.88" font-family="monospace" font-size="10.00">owns</text>
</g>
<!-- lightning_notifier::before_epoch_change -->
<g id="node16" class="node">
<title>lightning_notifier::before_epoch_change</title>
<polygon fill="#f8c04c" stroke="black" points="211.71,-602.21 211.71,-640.21 342.71,-640.21 342.71,-602.21 211.71,-602.21"/>
<text text-anchor="middle" x="277.21" y="-628.21" font-family="monospace" font-size="10.00">pub(crate) async fn</text>
<polyline fill="none" stroke="black" points="211.71,-621.21 342.71,-621.21 "/>
<text text-anchor="middle" x="277.21" y="-609.21" font-family="monospace" font-size="10.00">before_epoch_change</text>
</g>
<!-- lightning_notifier&#45;&gt;lightning_notifier::before_epoch_change -->
<g id="edge4" class="edge">
<title>lightning_notifier&#45;&gt;lightning_notifier::before_epoch_change</title>
<path fill="none" stroke="#000000" d="M350.45,-368.76C336.86,-415.6 301.81,-536.42 285.62,-592.2"/>
<polygon fill="#000000" stroke="#000000" points="282.17,-591.56 282.74,-602.14 288.89,-593.51 282.17,-591.56"/>
<text text-anchor="middle" x="305.54" y="-483.48" font-family="monospace" font-size="10.00">owns</text>
</g>
<!-- lightning_notifier::get_sleep_amount -->
<g id="node17" class="node">
<title>lightning_notifier::get_sleep_amount</title>
<polygon fill="#f8c04c" stroke="black" points="226.24,-20.83 226.24,-58.83 339.24,-58.83 339.24,-20.83 226.24,-20.83"/>
<text text-anchor="middle" x="282.74" y="-46.83" font-family="monospace" font-size="10.00">pub(crate) fn</text>
<polyline fill="none" stroke="black" points="226.24,-39.83 339.24,-39.83 "/>
<text text-anchor="middle" x="282.74" y="-27.83" font-family="monospace" font-size="10.00">get_sleep_amount</text>
</g>
<!-- lightning_notifier&#45;&gt;lightning_notifier::get_sleep_amount -->
<g id="edge5" class="edge">
<title>lightning_notifier&#45;&gt;lightning_notifier::get_sleep_amount</title>
<path fill="none" stroke="#000000" d="M351.41,-330.28C338.98,-277.68 304.54,-132 289.7,-69.23"/>
<polygon fill="#000000" stroke="#000000" points="293.03,-68.13 287.32,-59.2 286.22,-69.74 293.03,-68.13"/>
<text text-anchor="middle" x="308.05" y="-202.76" font-family="monospace" font-size="10.00">owns</text>
</g>
<!-- lightning_notifier::now -->
<g id="node18" class="node">
<title>lightning_notifier::now</title>
<polygon fill="#f8c04c" stroke="black" points="0.09,-468.34 0.09,-506.34 95.09,-506.34 95.09,-468.34 0.09,-468.34"/>
<text text-anchor="middle" x="47.59" y="-494.34" font-family="monospace" font-size="10.00">pub(crate) fn</text>
<polyline fill="none" stroke="black" points="0.09,-487.34 95.09,-487.34 "/>
<text text-anchor="middle" x="47.59" y="-475.34" font-family="monospace" font-size="10.00">now</text>
</g>
<!-- lightning_notifier&#45;&gt;lightning_notifier::now -->
<g id="edge6" class="edge">
<title>lightning_notifier&#45;&gt;lightning_notifier::now</title>
<path fill="none" stroke="#000000" d="M313.11,-368.81C257.34,-393.7 159.97,-437.17 99.91,-463.98"/>
<polygon fill="#000000" stroke="#000000" points="98.31,-460.86 90.6,-468.14 101.16,-467.26 98.31,-460.86"/>
<text text-anchor="middle" x="194.01" y="-419.39" font-family="monospace" font-size="10.00">owns</text>
</g>
<!-- lightning_notifier::BroadcastSub::last -->
<g id="node3" class="node">
<title>lightning_notifier::BroadcastSub::last</title>
<polygon fill="#f8c04c" stroke="black" points="389.69,-181.04 389.69,-219.04 520.69,-219.04 520.69,-181.04 389.69,-181.04"/>
<text text-anchor="middle" x="455.19" y="-207.04" font-family="monospace" font-size="10.00">pub(crate) async fn</text>
<polyline fill="none" stroke="black" points="389.69,-200.04 520.69,-200.04 "/>
<text text-anchor="middle" x="455.19" y="-188.04" font-family="monospace" font-size="10.00">BroadcastSub::last</text>
</g>
<!-- lightning_notifier::BroadcastSub&#45;&gt;lightning_notifier::BroadcastSub::last -->
<g id="edge7" class="edge">
<title>lightning_notifier::BroadcastSub&#45;&gt;lightning_notifier::BroadcastSub::last</title>
<path fill="none" stroke="#000000" d="M682.77,-500.2C665.79,-444.69 558.06,-289.51 496.01,-226.34"/>
<polygon fill="#000000" stroke="#000000" points="498.25,-223.63 488.67,-219.1 493.33,-228.62 498.25,-223.63"/>
<text text-anchor="middle" x="576.89" y="-366.27" font-family="monospace" font-size="10.00">owns</text>
</g>
<!-- lightning_notifier::BroadcastSub::recv -->
<g id="node4" class="node">
<title>lightning_notifier::BroadcastSub::recv</title>
<polygon fill="#f8c04c" stroke="black" points="783.46,-848.55 783.46,-886.55 914.46,-886.55 914.46,-848.55 783.46,-848.55"/>
<text text-anchor="middle" x="848.96" y="-874.55" font-family="monospace" font-size="10.00">pub(crate) async fn</text>
<polyline fill="none" stroke="black" points="783.46,-867.55 914.46,-867.55 "/>
<text text-anchor="middle" x="848.96" y="-855.55" font-family="monospace" font-size="10.00">BroadcastSub::recv</text>
</g>
<!-- lightning_notifier::BroadcastSub&#45;&gt;lightning_notifier::BroadcastSub::recv -->
<g id="edge8" class="edge">
<title>lightning_notifier::BroadcastSub&#45;&gt;lightning_notifier::BroadcastSub::recv</title>
<path fill="none" stroke="#000000" d="M678.81,-538.33C686.21,-597.02 767.66,-771.63 816.98,-840.08"/>
<polygon fill="#000000" stroke="#000000" points="814.32,-842.37 823.12,-848.27 819.92,-838.17 814.32,-842.37"/>
<text text-anchor="middle" x="760.4" y="-692.21" font-family="monospace" font-size="10.00">owns</text>
</g>
<!-- lightning_notifier::BroadcastSub::last&#45;&gt;lightning_notifier::BroadcastSub -->
<g id="edge9" class="edge">
<title>lightning_notifier::BroadcastSub::last&#45;&gt;lightning_notifier::BroadcastSub</title>
<path fill="none" stroke="#7f7f7f" stroke-dasharray="5,2" d="M454.87,-219.12C471.85,-274.64 579.58,-429.81 641.63,-492.99"/>
<polygon fill="#7f7f7f" stroke="#7f7f7f" points="639.39,-495.69 648.97,-500.23 644.31,-490.71 639.39,-495.69"/>
<text text-anchor="middle" x="535.75" y="-359.06" font-family="monospace" font-size="10.00">uses</text>
</g>
<!-- lightning_notifier::BroadcastSub::recv&#45;&gt;lightning_notifier::BroadcastSub -->
<g id="edge10" class="edge">
<title>lightning_notifier::BroadcastSub::recv&#45;&gt;lightning_notifier::BroadcastSub</title>
<path fill="none" stroke="#7f7f7f" stroke-dasharray="5,2" d="M852.59,-848.51C845.19,-789.83 763.74,-615.21 714.43,-546.76"/>
<polygon fill="#7f7f7f" stroke="#7f7f7f" points="717.09,-544.47 708.28,-538.58 711.49,-548.68 717.09,-544.47"/>
<text text-anchor="middle" x="796.01" y="-700.64" font-family="monospace" font-size="10.00">uses</text>
</g>
<!-- lightning_notifier::NotificationsEmitter::epoch_changed -->
<g id="node6" class="node">
<title>lightning_notifier::NotificationsEmitter::epoch_changed</title>
<polygon fill="#f8c04c" stroke="black" points="296.99,-829.35 296.99,-867.35 523.99,-867.35 523.99,-829.35 296.99,-829.35"/>
<text text-anchor="middle" x="410.49" y="-855.35" font-family="monospace" font-size="10.00">pub(crate) fn</text>
<polyline fill="none" stroke="black" points="296.99,-848.35 523.99,-848.35 "/>
<text text-anchor="middle" x="410.49" y="-836.35" font-family="monospace" font-size="10.00">NotificationsEmitter::epoch_changed</text>
</g>
<!-- lightning_notifier::NotificationsEmitter&#45;&gt;lightning_notifier::NotificationsEmitter::epoch_changed -->
<g id="edge11" class="edge">
<title>lightning_notifier::NotificationsEmitter&#45;&gt;lightning_notifier::NotificationsEmitter::epoch_changed</title>
<path fill="none" stroke="#000000" d="M574.97,-415.42C525.43,-486.53 423.48,-733.76 408.41,-819.29"/>
<polygon fill="#000000" stroke="#000000" points="404.92,-818.95 406.96,-829.35 411.85,-819.95 404.92,-818.95"/>
<text text-anchor="middle" x="479.19" y="-620.36" font-family="monospace" font-size="10.00">owns</text>
</g>
<!-- lightning_notifier::NotificationsEmitter::new_block -->
<g id="node7" class="node">
<title>lightning_notifier::NotificationsEmitter::new_block</title>
<polygon fill="#f8c04c" stroke="black" points="111.69,-247.03 111.69,-285.03 314.69,-285.03 314.69,-247.03 111.69,-247.03"/>
<text text-anchor="middle" x="213.19" y="-273.03" font-family="monospace" font-size="10.00">pub(crate) fn</text>
<polyline fill="none" stroke="black" points="111.69,-266.03 314.69,-266.03 "/>
<text text-anchor="middle" x="213.19" y="-254.03" font-family="monospace" font-size="10.00">NotificationsEmitter::new_block</text>
</g>
<!-- lightning_notifier::NotificationsEmitter&#45;&gt;lightning_notifier::NotificationsEmitter::new_block -->
<g id="edge12" class="edge">
<title>lightning_notifier::NotificationsEmitter&#45;&gt;lightning_notifier::NotificationsEmitter::new_block</title>
<path fill="none" stroke="#000000" d="M580.92,-377.35C537.66,-348.38 416.48,-303.19 324.9,-278.32"/>
<polygon fill="#000000" stroke="#000000" points="325.57,-274.88 315.01,-275.68 323.77,-281.64 325.57,-274.88"/>
<text text-anchor="middle" x="440.41" y="-330.84" font-family="monospace" font-size="10.00">owns</text>
</g>
<!-- lightning_notifier::NotificationsEmitter::epoch_changed&#45;&gt;lightning_notifier::NotificationsEmitter -->
<g id="edge13" class="edge">
<title>lightning_notifier::NotificationsEmitter::epoch_changed&#45;&gt;lightning_notifier::NotificationsEmitter</title>
<path fill="none" stroke="#7f7f7f" stroke-dasharray="5,2" d="M432.37,-829.32C481.91,-758.21 583.86,-510.98 598.94,-425.45"/>
<polygon fill="#7f7f7f" stroke="#7f7f7f" points="602.42,-425.79 600.38,-415.39 595.5,-424.79 602.42,-425.79"/>
<text text-anchor="middle" x="528.16" y="-630.39" font-family="monospace" font-size="10.00">uses</text>
</g>
<!-- lightning_notifier::NotificationsEmitter::new_block&#45;&gt;lightning_notifier::NotificationsEmitter -->
<g id="edge14" class="edge">
<title>lightning_notifier::NotificationsEmitter::new_block&#45;&gt;lightning_notifier::NotificationsEmitter</title>
<path fill="none" stroke="#7f7f7f" stroke-dasharray="5,2" d="M229.13,-285.07C277.86,-317.7 425.48,-370.92 518.28,-392.49"/>
<polygon fill="#7f7f7f" stroke="#7f7f7f" points="517.67,-395.94 528.19,-394.72 519.2,-389.12 517.67,-395.94"/>
<text text-anchor="middle" x="361.2" y="-330.78" font-family="monospace" font-size="10.00">uses</text>
</g>
<!-- lightning_notifier::Notifier&#45;&gt;lightning_notifier::NotificationsEmitter -->
<g id="edge15" class="edge">
<title>lightning_notifier::Notifier&#45;&gt;lightning_notifier::NotificationsEmitter</title>
<path fill="none" stroke="#7f7f7f" stroke-dasharray="5,2" d="M703.72,-362.37C692.25,-366.02 679.32,-370.14 666.51,-374.22"/>
<polygon fill="#7f7f7f" stroke="#7f7f7f" points="665.23,-370.95 656.77,-377.32 667.36,-377.62 665.23,-370.95"/>
<text text-anchor="middle" x="672.61" y="-360.3" font-family="monospace" font-size="10.00">uses</text>
</g>
<!-- lightning_notifier::Notifier::Emitter -->
<g id="node9" class="node">
<title>lightning_notifier::Notifier::Emitter</title>
<polygon fill="#f8c04c" stroke="black" points="566.58,-0.94 566.58,-38.94 685.58,-38.94 685.58,-0.94 566.58,-0.94"/>
<text text-anchor="middle" x="626.08" y="-26.94" font-family="monospace" font-size="10.00">pub(crate) type</text>
<polyline fill="none" stroke="black" points="566.58,-19.94 685.58,-19.94 "/>
<text text-anchor="middle" x="626.08" y="-7.94" font-family="monospace" font-size="10.00">Notifier::Emitter</text>
</g>
<!-- lightning_notifier::Notifier&#45;&gt;lightning_notifier::Notifier::Emitter -->
<g id="edge16" class="edge">
<title>lightning_notifier::Notifier&#45;&gt;lightning_notifier::Notifier::Emitter</title>
<path fill="none" stroke="#000000" d="M735.57,-330.91C716.07,-275.52 659.57,-115.06 636.29,-48.94"/>
<polygon fill="#000000" stroke="#000000" points="639.48,-47.44 632.85,-39.17 632.87,-49.77 639.48,-47.44"/>
<text text-anchor="middle" x="673.43" y="-192.93" font-family="monospace" font-size="10.00">owns</text>
</g>
<!-- lightning_notifier::Notifier::build_graph -->
<g id="node10" class="node">
<title>lightning_notifier::Notifier::build_graph</title>
<polygon fill="#f8c04c" stroke="black" points="1052.34,-160.57 1052.34,-198.57 1195.34,-198.57 1195.34,-160.57 1052.34,-160.57"/>
<text text-anchor="middle" x="1123.84" y="-186.57" font-family="monospace" font-size="10.00">pub(crate) fn</text>
<polyline fill="none" stroke="black" points="1052.34,-179.57 1195.34,-179.57 "/>
<text text-anchor="middle" x="1123.84" y="-167.57" font-family="monospace" font-size="10.00">Notifier::build_graph</text>
</g>
<!-- lightning_notifier::Notifier&#45;&gt;lightning_notifier::Notifier::build_graph -->
<g id="edge17" class="edge">
<title>lightning_notifier::Notifier&#45;&gt;lightning_notifier::Notifier::build_graph</title>
<path fill="none" stroke="#000000" d="M781,-332.8C849.94,-301.98 994.1,-237.55 1071.7,-202.87"/>
<polygon fill="#000000" stroke="#000000" points="1073.58,-205.86 1081.28,-198.59 1070.73,-199.47 1073.58,-205.86"/>
<text text-anchor="middle" x="913.85" y="-270.83" font-family="monospace" font-size="10.00">owns</text>
</g>
<!-- lightning_notifier::Notifier::get_emitter -->
<g id="node11" class="node">
<title>lightning_notifier::Notifier::get_emitter</title>
<polygon fill="#f8c04c" stroke="black" points="763.75,-71.48 763.75,-109.48 906.75,-109.48 906.75,-71.48 763.75,-71.48"/>
<text text-anchor="middle" x="835.25" y="-97.48" font-family="monospace" font-size="10.00">pub(crate) fn</text>
<polyline fill="none" stroke="black" points="763.75,-90.48 906.75,-90.48 "/>
<text text-anchor="middle" x="835.25" y="-78.48" font-family="monospace" font-size="10.00">Notifier::get_emitter</text>
</g>
<!-- lightning_notifier::Notifier&#45;&gt;lightning_notifier::Notifier::get_emitter -->
<g id="edge18" class="edge">
<title>lightning_notifier::Notifier&#45;&gt;lightning_notifier::Notifier::get_emitter</title>
<path fill="none" stroke="#000000" d="M766.97,-330.83C797.87,-285.5 837.85,-173.48 842.18,-119.74"/>
<polygon fill="#000000" stroke="#000000" points="845.69,-119.62 842.55,-109.5 838.69,-119.37 845.69,-119.62"/>
<text text-anchor="middle" x="792.07" y="-228.28" font-family="monospace" font-size="10.00">owns</text>
</g>
<!-- lightning_notifier::Notifier::new -->
<g id="node12" class="node">
<title>lightning_notifier::Notifier::new</title>
<polygon fill="#f8c04c" stroke="black" points="463.22,-503.03 463.22,-541.03 558.22,-541.03 558.22,-503.03 463.22,-503.03"/>
<text text-anchor="middle" x="510.72" y="-529.03" font-family="monospace" font-size="10.00">pub(crate) fn</text>
<polyline fill="none" stroke="black" points="463.22,-522.03 558.22,-522.03 "/>
<text text-anchor="middle" x="510.72" y="-510.03" font-family="monospace" font-size="10.00">Notifier::new</text>
</g>
<!-- lightning_notifier::Notifier&#45;&gt;lightning_notifier::Notifier::new -->
<g id="edge19" class="edge">
<title>lightning_notifier::Notifier&#45;&gt;lightning_notifier::Notifier::new</title>
<path fill="none" stroke="#000000" d="M703.72,-355.98C648.94,-381.24 553.88,-452.8 520.95,-494.63"/>
<polygon fill="#000000" stroke="#000000" points="518.05,-492.66 515.06,-502.83 523.74,-496.75 518.05,-492.66"/>
<text text-anchor="middle" x="599.83" y="-428.31" font-family="monospace" font-size="10.00">owns</text>
</g>
<!-- lightning_notifier::Notifier::subscribe_before_epoch_change -->
<g id="node13" class="node">
<title>lightning_notifier::Notifier::subscribe_before_epoch_change</title>
<polygon fill="#f8c04c" stroke="black" points="788.84,-370.43 788.84,-408.43 1039.84,-408.43 1039.84,-370.43 788.84,-370.43"/>
<text text-anchor="middle" x="914.34" y="-396.43" font-family="monospace" font-size="10.00">pub(crate) fn</text>
<polyline fill="none" stroke="black" points="788.84,-389.43 1039.84,-389.43 "/>
<text text-anchor="middle" x="914.34" y="-377.43" font-family="monospace" font-size="10.00">Notifier::subscribe_before_epoch_change</text>
</g>
<!-- lightning_notifier::Notifier&#45;&gt;lightning_notifier::Notifier::subscribe_before_epoch_change -->
<g id="edge20" class="edge">
<title>lightning_notifier::Notifier&#45;&gt;lightning_notifier::Notifier::subscribe_before_epoch_change</title>
<path fill="none" stroke="#000000" d="M753.7,-369.16C760.13,-373.91 768.84,-378.46 778.9,-382.61"/>
<polygon fill="#000000" stroke="#000000" points="777.9,-385.97 788.49,-386.29 780.41,-379.44 777.9,-385.97"/>
<text text-anchor="middle" x="753.8" y="-378.88" font-family="monospace" font-size="10.00">owns</text>
</g>
<!-- lightning_notifier::Notifier::subscribe_block_executed -->
<g id="node14" class="node">
<title>lightning_notifier::Notifier::subscribe_block_executed</title>
<polygon fill="#f8c04c" stroke="black" points="788.59,-532.71 788.59,-570.71 1009.59,-570.71 1009.59,-532.71 788.59,-532.71"/>
<text text-anchor="middle" x="899.09" y="-558.71" font-family="monospace" font-size="10.00">pub(crate) fn</text>
<polyline fill="none" stroke="black" points="788.59,-551.71 1009.59,-551.71 "/>
<text text-anchor="middle" x="899.09" y="-539.71" font-family="monospace" font-size="10.00">Notifier::subscribe_block_executed</text>
</g>
<!-- lightning_notifier::Notifier&#45;&gt;lightning_notifier::Notifier::subscribe_block_executed -->
<g id="edge21" class="edge">
<title>lightning_notifier::Notifier&#45;&gt;lightning_notifier::Notifier::subscribe_block_executed</title>
<path fill="none" stroke="#000000" d="M740.55,-369.32C750.87,-406.62 807.33,-484 850.92,-525.57"/>
<polygon fill="#000000" stroke="#000000" points="848.62,-528.2 858.34,-532.4 853.36,-523.05 848.62,-528.2"/>
<text text-anchor="middle" x="783.23" y="-450.44" font-family="monospace" font-size="10.00">owns</text>
</g>
<!-- lightning_notifier::Notifier::subscribe_epoch_changed -->
<g id="node15" class="node">
<title>lightning_notifier::Notifier::subscribe_epoch_changed</title>
<polygon fill="#f8c04c" stroke="black" points="536.58,-663.21 536.58,-701.21 751.58,-701.21 751.58,-663.21 536.58,-663.21"/>
<text text-anchor="middle" x="644.08" y="-689.21" font-family="monospace" font-size="10.00">pub(crate) fn</text>
<polyline fill="none" stroke="black" points="536.58,-682.21 751.58,-682.21 "/>
<text text-anchor="middle" x="644.08" y="-670.21" font-family="monospace" font-size="10.00">Notifier::subscribe_epoch_changed</text>
</g>
<!-- lightning_notifier::Notifier&#45;&gt;lightning_notifier::Notifier::subscribe_epoch_changed -->
<g id="edge22" class="edge">
<title>lightning_notifier::Notifier&#45;&gt;lightning_notifier::Notifier::subscribe_epoch_changed</title>
<path fill="none" stroke="#000000" d="M721.34,-369.28C687.85,-425.08 640.06,-586.12 636.99,-652.9"/>
<polygon fill="#000000" stroke="#000000" points="633.49,-653.11 636.91,-663.14 640.49,-653.17 633.49,-653.11"/>
<text text-anchor="middle" x="666.67" y="-514.09" font-family="monospace" font-size="10.00">owns</text>
</g>
<!-- lightning_notifier::Notifier::Emitter&#45;&gt;lightning_notifier::NotificationsEmitter -->
<g id="edge23" class="edge">
<title>lightning_notifier::Notifier::Emitter&#45;&gt;lightning_notifier::NotificationsEmitter</title>
<path fill="none" stroke="#7f7f7f" stroke-dasharray="5,2" d="M624.59,-39.13C619.81,-100.68 604.85,-293.45 599.12,-367.25"/>
<polygon fill="#7f7f7f" stroke="#7f7f7f" points="595.62,-367 598.34,-377.24 602.6,-367.54 595.62,-367"/>
<text text-anchor="middle" x="599.35" y="-206.19" font-family="monospace" font-size="10.00">uses</text>
</g>
<!-- lightning_notifier::Notifier::get_emitter&#45;&gt;lightning_notifier::NotificationsEmitter -->
<g id="edge24" class="edge">
<title>lightning_notifier::Notifier::get_emitter&#45;&gt;lightning_notifier::NotificationsEmitter</title>
<path fill="none" stroke="#7f7f7f" stroke-dasharray="5,2" d="M820.33,-109.61C779.44,-162.08 665.45,-308.37 618,-369.26"/>
<polygon fill="#7f7f7f" stroke="#7f7f7f" points="615.15,-367.22 611.76,-377.26 620.67,-371.53 615.15,-367.22"/>
<text text-anchor="middle" x="706.67" y="-242.44" font-family="monospace" font-size="10.00">uses</text>
</g>
<!-- lightning_notifier::Notifier::get_emitter&#45;&gt;lightning_notifier::Notifier -->
<g id="edge25" class="edge">
<title>lightning_notifier::Notifier::get_emitter&#45;&gt;lightning_notifier::Notifier</title>
<path fill="none" stroke="#7f7f7f" stroke-dasharray="5,2" d="M810.6,-109.74C779.69,-155.07 739.71,-267.08 735.39,-320.82"/>
<polygon fill="#7f7f7f" stroke="#7f7f7f" points="731.88,-320.94 735.01,-331.06 738.87,-321.2 731.88,-320.94"/>
<text text-anchor="middle" x="760.49" y="-218.28" font-family="monospace" font-size="10.00">uses</text>
</g>
<!-- lightning_notifier::Notifier::new&#45;&gt;lightning_notifier::NotificationsEmitter -->
<g id="edge26" class="edge">
<title>lightning_notifier::Notifier::new&#45;&gt;lightning_notifier::NotificationsEmitter</title>
<path fill="none" stroke="#7f7f7f" stroke-dasharray="5,2" d="M523.81,-502.95C538.22,-481.92 561.54,-447.9 577.95,-423.97"/>
<polygon fill="#7f7f7f" stroke="#7f7f7f" points="580.88,-425.88 583.65,-415.65 575.11,-421.92 580.88,-425.88"/>
<text text-anchor="middle" x="538.38" y="-466.46" font-family="monospace" font-size="10.00">uses</text>
</g>
<!-- lightning_notifier::Notifier::new&#45;&gt;lightning_notifier::Notifier -->
<g id="edge27" class="edge">
<title>lightning_notifier::Notifier::new&#45;&gt;lightning_notifier::Notifier</title>
<path fill="none" stroke="#7f7f7f" stroke-dasharray="5,2" d="M558.41,-511.72C613.89,-483.42 700.4,-417.49 731.81,-377.85"/>
<polygon fill="#7f7f7f" stroke="#7f7f7f" points="734.94,-379.49 737.96,-369.33 729.27,-375.39 734.94,-379.49"/>
<text text-anchor="middle" x="632.61" y="-447.78" font-family="monospace" font-size="10.00">uses</text>
</g>
<!-- lightning_notifier::Notifier::subscribe_before_epoch_change&#45;&gt;lightning_notifier::BroadcastSub -->
<g id="edge28" class="edge">
<title>lightning_notifier::Notifier::subscribe_before_epoch_change&#45;&gt;lightning_notifier::BroadcastSub</title>
<path fill="none" stroke="#7f7f7f" stroke-dasharray="5,2" d="M880.12,-408.59C838.99,-431.63 769.93,-470.3 725.29,-495.3"/>
<polygon fill="#7f7f7f" stroke="#7f7f7f" points="723.44,-492.32 716.43,-500.26 726.86,-498.43 723.44,-492.32"/>
<text text-anchor="middle" x="815.2" y="-454.95" font-family="monospace" font-size="10.00">uses</text>
</g>
<!-- lightning_notifier::Notifier::subscribe_before_epoch_change&#45;&gt;lightning_notifier::NotificationsEmitter -->
<g id="edge29" class="edge">
<title>lightning_notifier::Notifier::subscribe_before_epoch_change&#45;&gt;lightning_notifier::NotificationsEmitter</title>
<path fill="none" stroke="#7f7f7f" stroke-dasharray="5,2" d="M788.4,-392.19C750.43,-393.02 709.85,-393.91 675.85,-394.66"/>
<polygon fill="#7f7f7f" stroke="#7f7f7f" points="675.44,-391.17 665.52,-394.88 675.6,-398.16 675.44,-391.17"/>
<text text-anchor="middle" x="719.63" y="-396.42" font-family="monospace" font-size="10.00">uses</text>
</g>
<!-- lightning_notifier::Notifier::subscribe_before_epoch_change&#45;&gt;lightning_notifier::Notifier -->
<g id="edge30" class="edge">
<title>lightning_notifier::Notifier::subscribe_before_epoch_change&#45;&gt;lightning_notifier::Notifier</title>
<path fill="none" stroke="#7f7f7f" stroke-dasharray="5,2" d="M902.95,-370.36C880.39,-353.67 829.61,-339.4 791.08,-336.81"/>
<polygon fill="#7f7f7f" stroke="#7f7f7f" points="791.21,-333.31 781.07,-336.4 790.92,-340.3 791.21,-333.31"/>
<text text-anchor="middle" x="834.51" y="-356.58" font-family="monospace" font-size="10.00">uses</text>
</g>
<!-- lightning_notifier::Notifier::subscribe_block_executed&#45;&gt;lightning_notifier::BroadcastSub -->
<g id="edge31" class="edge">
<title>lightning_notifier::Notifier::subscribe_block_executed&#45;&gt;lightning_notifier::BroadcastSub</title>
<path fill="none" stroke="#7f7f7f" stroke-dasharray="5,2" d="M788.55,-535.17C776.12,-533.31 763.74,-531.46 752.04,-529.71"/>
<polygon fill="#7f7f7f" stroke="#7f7f7f" points="752.37,-526.22 741.96,-528.2 751.34,-533.14 752.37,-526.22"/>
<text text-anchor="middle" x="757.8" y="-535.44" font-family="monospace" font-size="10.00">uses</text>
</g>
<!-- lightning_notifier::Notifier::subscribe_block_executed&#45;&gt;lightning_notifier::NotificationsEmitter -->
<g id="edge32" class="edge">
<title>lightning_notifier::Notifier::subscribe_block_executed&#45;&gt;lightning_notifier::NotificationsEmitter</title>
<path fill="none" stroke="#7f7f7f" stroke-dasharray="5,2" d="M862.03,-532.67C806.97,-504.37 703.61,-451.25 643.48,-420.35"/>
<polygon fill="#7f7f7f" stroke="#7f7f7f" points="644.71,-417.05 634.22,-415.59 641.51,-423.28 644.71,-417.05"/>
<text text-anchor="middle" x="740.25" y="-479.51" font-family="monospace" font-size="10.00">uses</text>
</g>
<!-- lightning_notifier::Notifier::subscribe_block_executed&#45;&gt;lightning_notifier::Notifier -->
<g id="edge33" class="edge">
<title>lightning_notifier::Notifier::subscribe_block_executed&#45;&gt;lightning_notifier::Notifier</title>
<path fill="none" stroke="#7f7f7f" stroke-dasharray="5,2" d="M900.86,-532.48C890.37,-494.56 832.19,-415.22 788.33,-374.19"/>
<polygon fill="#7f7f7f" stroke="#7f7f7f" points="790.65,-371.57 780.87,-367.47 785.96,-376.77 790.65,-371.57"/>
<text text-anchor="middle" x="857.1" y="-456.34" font-family="monospace" font-size="10.00">uses</text>
</g>
<!-- lightning_notifier::Notifier::subscribe_epoch_changed&#45;&gt;lightning_notifier::BroadcastSub -->
<g id="edge34" class="edge">
<title>lightning_notifier::Notifier::subscribe_epoch_changed&#45;&gt;lightning_notifier::BroadcastSub</title>
<path fill="none" stroke="#7f7f7f" stroke-dasharray="5,2" d="M648.56,-663.21C655.21,-634.95 667.76,-581.66 675.58,-548.45"/>
<polygon fill="#7f7f7f" stroke="#7f7f7f" points="679.06,-548.97 677.94,-538.43 672.24,-547.36 679.06,-548.97"/>
<text text-anchor="middle" x="649.57" y="-608.83" font-family="monospace" font-size="10.00">uses</text>
</g>
<!-- lightning_notifier::Notifier::subscribe_epoch_changed&#45;&gt;lightning_notifier::NotificationsEmitter -->
<g id="edge35" class="edge">
<title>lightning_notifier::Notifier::subscribe_epoch_changed&#45;&gt;lightning_notifier::NotificationsEmitter</title>
<path fill="none" stroke="#7f7f7f" stroke-dasharray="5,2" d="M640.91,-663.02C632.81,-614 611.32,-483.98 601.67,-425.55"/>
<polygon fill="#7f7f7f" stroke="#7f7f7f" points="605.09,-424.8 600.01,-415.5 598.19,-425.94 605.09,-424.8"/>
<text text-anchor="middle" x="608.79" y="-547.28" font-family="monospace" font-size="10.00">uses</text>
</g>
<!-- lightning_notifier::Notifier::subscribe_epoch_changed&#45;&gt;lightning_notifier::Notifier -->
<g id="edge36" class="edge">
<title>lightning_notifier::Notifier::subscribe_epoch_changed&#45;&gt;lightning_notifier::Notifier</title>
<path fill="none" stroke="#7f7f7f" stroke-dasharray="5,2" d="M665.05,-663.02C698.55,-607.22 746.34,-446.18 749.41,-379.4"/>
<polygon fill="#7f7f7f" stroke="#7f7f7f" points="752.91,-379.19 749.49,-369.16 745.91,-379.13 752.91,-379.19"/>
<text text-anchor="middle" x="694.73" y="-524.21" font-family="monospace" font-size="10.00">uses</text>
</g>
<!-- lightning_notifier::before_epoch_change&#45;&gt;lightning_notifier::BroadcastSub -->
<g id="edge37" class="edge">
<title>lightning_notifier::before_epoch_change&#45;&gt;lightning_notifier::BroadcastSub</title>
<path fill="none" stroke="#7f7f7f" stroke-dasharray="5,2" d="M342.77,-604.72C416.94,-586.07 537.25,-555.81 613,-536.76"/>
<polygon fill="#7f7f7f" stroke="#7f7f7f" points="614.08,-540.1 622.92,-534.26 612.37,-533.31 614.08,-540.1"/>
<text text-anchor="middle" x="465.38" y="-573.74" font-family="monospace" font-size="10.00">uses</text>
</g>
</g>
</svg>
