<?xml version="1.0" encoding="UTF-8" standalone="no"?>
<!DOCTYPE svg PUBLIC "-//W3C//DTD SVG 1.1//EN"
 "http://www.w3.org/Graphics/SVG/1.1/DTD/svg11.dtd">
<!-- Generated by graphviz version 4.0.0 (0)
 -->
<!-- Pages: 1 -->
<svg width="1544pt" height="4050pt"
 viewBox="0.00 0.00 1543.84 4050.00" xmlns="http://www.w3.org/2000/svg" xmlns:xlink="http://www.w3.org/1999/xlink">
<g id="graph0" class="graph" transform="scale(0.740592 0.740592) rotate(0) translate(28.8 5439.8)">
<polygon fill="white" stroke="transparent" points="-28.8,28.8 -28.8,-5439.8 2055.8,-5439.8 2055.8,28.8 -28.8,28.8"/>
<text text-anchor="middle" x="1013.5" y="-5378.2" font-family="Helvetica,sans-Serif" font-size="36.00">cdk_rust</text>
<!-- cdk_rust -->
<g id="node1" class="node">
<title>cdk_rust</title>
<polygon fill="#5397c8" stroke="black" points="57,-1479.5 57,-1517.5 122,-1517.5 122,-1479.5 57,-1479.5"/>
<text text-anchor="middle" x="89.5" y="-1505.5" font-family="monospace" font-size="10.00">crate</text>
<polyline fill="none" stroke="black" points="57,-1498.5 122,-1498.5 "/>
<text text-anchor="middle" x="89.5" y="-1486.5" font-family="monospace" font-size="10.00">cdk_rust</text>
</g>
<!-- cdk_rust::builder -->
<g id="node2" class="node">
<title>cdk_rust::builder</title>
<polygon fill="#f8c04c" stroke="black" points="975,-5324.5 975,-5362.5 1094,-5362.5 1094,-5324.5 975,-5324.5"/>
<text text-anchor="middle" x="1034.5" y="-5350.5" font-family="monospace" font-size="10.00">pub(crate) mod</text>
<polyline fill="none" stroke="black" points="975,-5343.5 1094,-5343.5 "/>
<text text-anchor="middle" x="1034.5" y="-5331.5" font-family="monospace" font-size="10.00">cdk_rust::builder</text>
</g>
<!-- cdk_rust&#45;&gt;cdk_rust::builder -->
<g id="edge1" class="edge">
<title>cdk_rust&#45;&gt;cdk_rust::builder</title>
<path fill="none" stroke="#000000" d="M92.02,-1517.8C128.48,-1796.85 548,-5007.5 548,-5007.5 548,-5007.5 886.18,-5241.07 998.63,-5318.73"/>
<polygon fill="#000000" stroke="#000000" points="996.73,-5321.67 1006.95,-5324.47 1000.71,-5315.91 996.73,-5321.67"/>
<text text-anchor="middle" x="560.5" y="-5010.5" font-family="monospace" font-size="10.00">owns</text>
</g>
<!-- cdk_rust&#45;&gt;cdk_rust::builder -->
<g id="edge2" class="edge">
<title>cdk_rust&#45;&gt;cdk_rust::builder</title>
<path fill="none" stroke="#7f7f7f" stroke-dasharray="5,2" d="M92.43,-1517.78C131.48,-1774.9 548,-4517.5 548,-4517.5 548,-4517.5 933.05,-5171.26 1018.03,-5315.54"/>
<polygon fill="#7f7f7f" stroke="#7f7f7f" points="1015.1,-5317.46 1023.19,-5324.3 1021.13,-5313.91 1015.1,-5317.46"/>
<text text-anchor="middle" x="560.5" y="-4520.5" font-family="monospace" font-size="10.00">uses</text>
</g>
<!-- cdk_rust::connection -->
<g id="node3" class="node">
<title>cdk_rust::connection</title>
<polygon fill="#f8c04c" stroke="black" points="966,-3845.5 966,-3883.5 1103,-3883.5 1103,-3845.5 966,-3845.5"/>
<text text-anchor="middle" x="1034.5" y="-3871.5" font-family="monospace" font-size="10.00">pub(crate) mod</text>
<polyline fill="none" stroke="black" points="966,-3864.5 1103,-3864.5 "/>
<text text-anchor="middle" x="1034.5" y="-3852.5" font-family="monospace" font-size="10.00">cdk_rust::connection</text>
</g>
<!-- cdk_rust&#45;&gt;cdk_rust::connection -->
<g id="edge3" class="edge">
<title>cdk_rust&#45;&gt;cdk_rust::connection</title>
<path fill="none" stroke="#000000" d="M93.53,-1517.8C138.7,-1733.93 548,-3692.5 548,-3692.5 548,-3692.5 839.16,-3795.44 970.99,-3842.05"/>
<polygon fill="#000000" stroke="#000000" points="969.98,-3845.4 980.58,-3845.44 972.32,-3838.8 969.98,-3845.4"/>
<text text-anchor="middle" x="560.5" y="-3695.5" font-family="monospace" font-size="10.00">owns</text>
</g>
<!-- cdk_rust::context -->
<g id="node4" class="node">
<title>cdk_rust::context</title>
<polygon fill="#f8c04c" stroke="black" points="975,-2366.5 975,-2404.5 1094,-2404.5 1094,-2366.5 975,-2366.5"/>
<text text-anchor="middle" x="1034.5" y="-2392.5" font-family="monospace" font-size="10.00">pub(crate) mod</text>
<polyline fill="none" stroke="black" points="975,-2385.5 1094,-2385.5 "/>
<text text-anchor="middle" x="1034.5" y="-2373.5" font-family="monospace" font-size="10.00">cdk_rust::context</text>
</g>
<!-- cdk_rust&#45;&gt;cdk_rust::context -->
<g id="edge4" class="edge">
<title>cdk_rust&#45;&gt;cdk_rust::context</title>
<path fill="none" stroke="#000000" d="M122.35,-1504.55C231.18,-1524.58 573,-1587.5 573,-1587.5 573,-1587.5 935.97,-2215.13 1018.11,-2357.16"/>
<polygon fill="#000000" stroke="#000000" points="1015.28,-2359.27 1023.32,-2366.17 1021.34,-2355.76 1015.28,-2359.27"/>
<text text-anchor="middle" x="560.5" y="-1579.5" font-family="monospace" font-size="10.00">owns</text>
</g>
<!-- cdk_rust::frame -->
<g id="node5" class="node">
<title>cdk_rust::frame</title>
<polygon fill="#f8c04c" stroke="black" points="981,-1402.5 981,-1440.5 1088,-1440.5 1088,-1402.5 981,-1402.5"/>
<text text-anchor="middle" x="1034.5" y="-1428.5" font-family="monospace" font-size="10.00">pub(crate) mod</text>
<polyline fill="none" stroke="black" points="981,-1421.5 1088,-1421.5 "/>
<text text-anchor="middle" x="1034.5" y="-1409.5" font-family="monospace" font-size="10.00">cdk_rust::frame</text>
</g>
<!-- cdk_rust&#45;&gt;cdk_rust::frame -->
<g id="edge5" class="edge">
<title>cdk_rust&#45;&gt;cdk_rust::frame</title>
<path fill="none" stroke="#000000" d="M122.35,-1494.02C231.18,-1479.16 573,-1432.5 573,-1432.5 573,-1432.5 843.5,-1426.05 970.31,-1423.03"/>
<polygon fill="#000000" stroke="#000000" points="970.74,-1426.52 980.66,-1422.78 970.58,-1419.52 970.74,-1426.52"/>
<text text-anchor="middle" x="560.5" y="-1424.5" font-family="monospace" font-size="10.00">owns</text>
</g>
<!-- cdk_rust::mode -->
<g id="node6" class="node">
<title>cdk_rust::mode</title>
<polygon fill="#f8c04c" stroke="black" points="984,-876.5 984,-914.5 1085,-914.5 1085,-876.5 984,-876.5"/>
<text text-anchor="middle" x="1034.5" y="-902.5" font-family="monospace" font-size="10.00">pub(crate) mod</text>
<polyline fill="none" stroke="black" points="984,-895.5 1085,-895.5 "/>
<text text-anchor="middle" x="1034.5" y="-883.5" font-family="monospace" font-size="10.00">cdk_rust::mode</text>
</g>
<!-- cdk_rust&#45;&gt;cdk_rust::mode -->
<g id="edge6" class="edge">
<title>cdk_rust&#45;&gt;cdk_rust::mode</title>
<path fill="none" stroke="#000000" d="M119.75,-1479.48C225.6,-1412.93 573,-1194.5 573,-1194.5 573,-1194.5 885.89,-991.78 996.41,-920.18"/>
<polygon fill="#000000" stroke="#000000" points="998.44,-923.03 1004.93,-914.66 994.63,-917.16 998.44,-923.03"/>
<text text-anchor="middle" x="560.5" y="-1186.5" font-family="monospace" font-size="10.00">owns</text>
</g>
<!-- cdk_rust::transport -->
<g id="node8" class="node">
<title>cdk_rust::transport</title>
<polygon fill="#81c169" stroke="black" points="969,-761.5 969,-799.5 1100,-799.5 1100,-761.5 969,-761.5"/>
<text text-anchor="middle" x="1034.5" y="-787.5" font-family="monospace" font-size="10.00">pub mod</text>
<polyline fill="none" stroke="black" points="969,-780.5 1100,-780.5 "/>
<text text-anchor="middle" x="1034.5" y="-768.5" font-family="monospace" font-size="10.00">cdk_rust::transport</text>
</g>
<!-- cdk_rust&#45;&gt;cdk_rust::transport -->
<g id="edge7" class="edge">
<title>cdk_rust&#45;&gt;cdk_rust::transport</title>
<path fill="none" stroke="#000000" d="M104.23,-1479.48C185.26,-1374.91 573,-874.5 573,-874.5 573,-874.5 828,-822.56 958.9,-795.9"/>
<polygon fill="#000000" stroke="#000000" points="959.77,-799.29 968.87,-793.87 958.37,-792.43 959.77,-799.29"/>
<text text-anchor="middle" x="560.5" y="-866.5" font-family="monospace" font-size="10.00">owns</text>
</g>
<!-- lightning_schema::handshake -->
<g id="node10" class="node">
<title>lightning_schema::handshake</title>
<polygon fill="#81c169" stroke="black" points="0,-0.5 0,-38.5 179,-38.5 179,-0.5 0,-0.5"/>
<text text-anchor="middle" x="89.5" y="-26.5" font-family="monospace" font-size="10.00">external mod</text>
<polyline fill="none" stroke="black" points="0,-19.5 179,-19.5 "/>
<text text-anchor="middle" x="89.5" y="-7.5" font-family="monospace" font-size="10.00">lightning_schema::handshake</text>
</g>
<!-- cdk_rust&#45;&gt;lightning_schema::handshake -->
<g id="edge8" class="edge">
<title>cdk_rust&#45;&gt;lightning_schema::handshake</title>
</g>
<!-- cdk_rust::builder&#45;&gt;cdk_rust::connection -->
<g id="edge9" class="edge">
<title>cdk_rust::builder&#45;&gt;cdk_rust::connection</title>
</g>
<!-- cdk_rust::builder&#45;&gt;cdk_rust::context -->
<g id="edge10" class="edge">
<title>cdk_rust::builder&#45;&gt;cdk_rust::context</title>
<path fill="none" stroke="#7f7f7f" stroke-dasharray="5,2" d="M1033.36,-5324.38C1021.61,-5127.34 923,-3473.5 923,-3473.5 923,-3473.5 1013.63,-2589.16 1031.47,-2415.05"/>
<polygon fill="#7f7f7f" stroke="#7f7f7f" points="1034.98,-2415.15 1032.52,-2404.85 1028.02,-2414.44 1034.98,-2415.15"/>
<text text-anchor="middle" x="917.5" y="-3471" font-family="monospace" font-size="10.00">uses</text>
</g>
<!-- cdk_rust::builder&#45;&gt;cdk_rust::mode -->
<g id="edge11" class="edge">
<title>cdk_rust::builder&#45;&gt;cdk_rust::mode</title>
<path fill="none" stroke="#7f7f7f" stroke-dasharray="5,2" d="M1033.62,-5324.47C1023.15,-5098.46 923,-2935.5 923,-2935.5 923,-2935.5 1019.24,-1174.67 1032.9,-924.84"/>
<polygon fill="#7f7f7f" stroke="#7f7f7f" points="1036.4,-924.89 1033.45,-914.71 1029.41,-924.51 1036.4,-924.89"/>
<text text-anchor="middle" x="917.5" y="-2933" font-family="monospace" font-size="10.00">uses</text>
</g>
<!-- cdk_rust::builder&#45;&gt;cdk_rust::transport -->
<g id="edge12" class="edge">
<title>cdk_rust::builder&#45;&gt;cdk_rust::transport</title>
<path fill="none" stroke="#7f7f7f" stroke-dasharray="5,2" d="M1033.68,-5324.42C1023.57,-5088.36 923,-2741.5 923,-2741.5 923,-2741.5 1018.95,-1054.04 1032.83,-809.82"/>
<polygon fill="#7f7f7f" stroke="#7f7f7f" points="1036.34,-809.78 1033.41,-799.59 1029.35,-809.38 1036.34,-809.78"/>
<text text-anchor="middle" x="917.5" y="-2739" font-family="monospace" font-size="10.00">uses</text>
</g>
<!-- cdk_rust::connection&#45;&gt;cdk_rust::context -->
<g id="edge13" class="edge">
<title>cdk_rust::connection&#45;&gt;cdk_rust::context</title>
</g>
<!-- cdk_rust::connection&#45;&gt;cdk_rust::mode -->
<g id="edge14" class="edge">
<title>cdk_rust::connection&#45;&gt;cdk_rust::mode</title>
<path fill="none" stroke="#7f7f7f" stroke-dasharray="5,2" d="M1033.07,-3845.33C1020.08,-3671.18 923,-2369.5 923,-2369.5 923,-2369.5 1016.6,-1132.13 1032.28,-924.8"/>
<polygon fill="#7f7f7f" stroke="#7f7f7f" points="1035.79,-924.91 1033.05,-914.68 1028.81,-924.38 1035.79,-924.91"/>
<text text-anchor="middle" x="917.5" y="-2367" font-family="monospace" font-size="10.00">uses</text>
</g>
<!-- cdk_rust::connection&#45;&gt;cdk_rust::transport -->
<g id="edge15" class="edge">
<title>cdk_rust::connection&#45;&gt;cdk_rust::transport</title>
<path fill="none" stroke="#7f7f7f" stroke-dasharray="5,2" d="M1033.55,-3845.47C1022.74,-3628.27 923,-1624.5 923,-1624.5 923,-1624.5 1010.91,-959.07 1030.61,-809.92"/>
<polygon fill="#7f7f7f" stroke="#7f7f7f" points="1034.12,-810.09 1031.96,-799.71 1027.18,-809.17 1034.12,-810.09"/>
<text text-anchor="middle" x="917.5" y="-1622" font-family="monospace" font-size="10.00">uses</text>
</g>
<!-- cdk_rust::context&#45;&gt;cdk_rust::mode -->
<g id="edge16" class="edge">
<title>cdk_rust::context&#45;&gt;cdk_rust::mode</title>
<path fill="none" stroke="#7f7f7f" stroke-dasharray="5,2" d="M1031.63,-2366.34C1014.18,-2249.73 923,-1640.5 923,-1640.5 923,-1640.5 1009.43,-1062.98 1030.1,-924.9"/>
<polygon fill="#7f7f7f" stroke="#7f7f7f" points="1033.61,-925.07 1031.63,-914.66 1026.69,-924.04 1033.61,-925.07"/>
<text text-anchor="middle" x="917.5" y="-1638" font-family="monospace" font-size="10.00">uses</text>
</g>
<!-- cdk_rust::mode::sealed -->
<g id="node7" class="node">
<title>cdk_rust::mode::sealed</title>
<polygon fill="#db5367" stroke="black" points="1872,-1045.5 1872,-1083.5 2021,-1083.5 2021,-1045.5 1872,-1045.5"/>
<text text-anchor="middle" x="1946.5" y="-1071.5" font-family="monospace" font-size="10.00">pub(self) mod</text>
<polyline fill="none" stroke="black" points="1872,-1064.5 2021,-1064.5 "/>
<text text-anchor="middle" x="1946.5" y="-1052.5" font-family="monospace" font-size="10.00">cdk_rust::mode::sealed</text>
</g>
<!-- cdk_rust::mode&#45;&gt;cdk_rust::mode::sealed -->
<g id="edge17" class="edge">
<title>cdk_rust::mode&#45;&gt;cdk_rust::mode::sealed</title>
<path fill="none" stroke="#000000" d="M1083.84,-914.56C1198.25,-958.76 1472,-1064.5 1472,-1064.5 1472,-1064.5 1725.37,-1064.5 1861.82,-1064.5"/>
<polygon fill="#000000" stroke="#000000" points="1861.84,-1068 1871.84,-1064.5 1861.84,-1061 1861.84,-1068"/>
<text text-anchor="middle" x="1484.5" y="-1067.5" font-family="monospace" font-size="10.00">owns</text>
</g>
<!-- cdk_rust::mode::sealed&#45;&gt;cdk_rust::mode -->
<g id="edge18" class="edge">
<title>cdk_rust::mode::sealed&#45;&gt;cdk_rust::mode</title>
<path fill="none" stroke="#7f7f7f" stroke-dasharray="5,2" d="M1886.81,-1045.38C1764.54,-1006.21 1497,-920.5 1497,-920.5 1497,-920.5 1221.19,-905.59 1095.55,-898.8"/>
<polygon fill="#7f7f7f" stroke="#7f7f7f" points="1095.49,-895.29 1085.32,-898.25 1095.12,-902.28 1095.49,-895.29"/>
<text text-anchor="middle" x="1484.5" y="-912.5" font-family="monospace" font-size="10.00">uses</text>
</g>
<!-- cdk_rust::transport::tcp -->
<g id="node9" class="node">
<title>cdk_rust::transport::tcp</title>
<polygon fill="#81c169" stroke="black" points="1866,-735.5 1866,-773.5 2027,-773.5 2027,-735.5 1866,-735.5"/>
<text text-anchor="middle" x="1946.5" y="-761.5" font-family="monospace" font-size="10.00">pub mod</text>
<polyline fill="none" stroke="black" points="1866,-754.5 2027,-754.5 "/>
<text text-anchor="middle" x="1946.5" y="-742.5" font-family="monospace" font-size="10.00">cdk_rust::transport::tcp</text>
</g>
<!-- cdk_rust::transport&#45;&gt;cdk_rust::transport::tcp -->
<g id="edge19" class="edge">
<title>cdk_rust::transport&#45;&gt;cdk_rust::transport::tcp</title>
<path fill="none" stroke="#000000" d="M1100.27,-778.37C1227.96,-774.23 1497,-765.5 1497,-765.5 1497,-765.5 1724.52,-759.93 1855.82,-756.72"/>
<polygon fill="#000000" stroke="#000000" points="1855.97,-760.22 1865.88,-756.47 1855.8,-753.22 1855.97,-760.22"/>
<text text-anchor="middle" x="1484.5" y="-757.5" font-family="monospace" font-size="10.00">owns</text>
</g>
<!-- cdk_rust::transport::tcp&#45;&gt;cdk_rust::transport -->
<g id="edge20" class="edge">
<title>cdk_rust::transport::tcp&#45;&gt;cdk_rust::transport</title>
<path fill="none" stroke="#7f7f7f" stroke-dasharray="5,2" d="M1886.81,-735.38C1764.54,-696.21 1497,-610.5 1497,-610.5 1497,-610.5 1221.44,-711.79 1095.72,-758"/>
<polygon fill="#7f7f7f" stroke="#7f7f7f" points="1094.39,-754.76 1086.21,-761.49 1096.8,-761.33 1094.39,-754.76"/>
<text text-anchor="middle" x="1484.5" y="-602.5" font-family="monospace" font-size="10.00">uses</text>
</g>
</g>
</svg>
