<?xml version="1.0" encoding="UTF-8" standalone="no"?>
<!DOCTYPE svg PUBLIC "-//W3C//DTD SVG 1.1//EN"
 "http://www.w3.org/Graphics/SVG/1.1/DTD/svg11.dtd">
<!-- Generated by graphviz version 4.0.0 (0)
 -->
<!-- Pages: 1 -->
<svg width="1463pt" height="1337pt"
 viewBox="0.00 0.00 1462.78 1336.66" xmlns="http://www.w3.org/2000/svg" xmlns:xlink="http://www.w3.org/1999/xlink">
<g id="graph0" class="graph" transform="scale(1 1) rotate(0) translate(28.8 1307.86)">
<polygon fill="white" stroke="transparent" points="-28.8,28.8 -28.8,-1307.86 1433.98,-1307.86 1433.98,28.8 -28.8,28.8"/>
<text text-anchor="middle" x="702.59" y="-1246.26" font-family="Helvetica,sans-Serif" font-size="36.00">lightning_fetcher</text>
<!-- lightning_fetcher -->
<g id="node1" class="node">
<title>lightning_fetcher</title>
<polygon fill="#5397c8" stroke="black" points="391.54,-751.26 391.54,-789.26 510.54,-789.26 510.54,-751.26 391.54,-751.26"/>
<text text-anchor="middle" x="451.04" y="-777.26" font-family="monospace" font-size="10.00">crate</text>
<polyline fill="none" stroke="black" points="391.54,-770.26 510.54,-770.26 "/>
<text text-anchor="middle" x="451.04" y="-758.26" font-family="monospace" font-size="10.00">lightning_fetcher</text>
</g>
<!-- lightning_fetcher::config::Config -->
<g id="node2" class="node">
<title>lightning_fetcher::config::Config</title>
<polygon fill="#81c169" stroke="black" points="355.29,-494.49 355.29,-532.49 456.29,-532.49 456.29,-494.49 355.29,-494.49"/>
<text text-anchor="middle" x="405.79" y="-520.49" font-family="monospace" font-size="10.00">pub struct</text>
<polyline fill="none" stroke="black" points="355.29,-513.49 456.29,-513.49 "/>
<text text-anchor="middle" x="405.79" y="-501.49" font-family="monospace" font-size="10.00">config::Config</text>
</g>
<!-- lightning_fetcher&#45;&gt;lightning_fetcher::config::Config -->
<g id="edge1" class="edge">
<title>lightning_fetcher&#45;&gt;lightning_fetcher::config::Config</title>
<path fill="none" stroke="#000000" d="M462.09,-750.94C469.87,-705.93 451.63,-594.35 429.49,-541.72"/>
<polygon fill="#000000" stroke="#000000" points="432.67,-540.24 425.32,-532.6 426.3,-543.15 432.67,-540.24"/>
<text text-anchor="middle" x="433.29" y="-649.33" font-family="monospace" font-size="10.00">owns</text>
</g>
<!-- lightning_fetcher&#45;&gt;lightning_fetcher::config::Config -->
<g id="edge2" class="edge">
<title>lightning_fetcher&#45;&gt;lightning_fetcher::config::Config</title>
<path fill="none" stroke="#7f7f7f" stroke-dasharray="5,2" d="M431.5,-751.13C409.08,-706.53 389.15,-595.87 393.51,-542.74"/>
<polygon fill="#7f7f7f" stroke="#7f7f7f" points="397.01,-542.98 394.77,-532.62 390.06,-542.12 397.01,-542.98"/>
<text text-anchor="middle" x="400.01" y="-649.94" font-family="monospace" font-size="10.00">uses</text>
</g>
<!-- lightning_fetcher::fetcher::Fetcher -->
<g id="node3" class="node">
<title>lightning_fetcher::fetcher::Fetcher</title>
<polygon fill="#81c169" stroke="black" points="467.39,-321.4 467.39,-359.4 580.39,-359.4 580.39,-321.4 467.39,-321.4"/>
<text text-anchor="middle" x="523.89" y="-347.4" font-family="monospace" font-size="10.00">pub struct</text>
<polyline fill="none" stroke="black" points="467.39,-340.4 580.39,-340.4 "/>
<text text-anchor="middle" x="523.89" y="-328.4" font-family="monospace" font-size="10.00">fetcher::Fetcher</text>
</g>
<!-- lightning_fetcher&#45;&gt;lightning_fetcher::fetcher::Fetcher -->
<g id="edge3" class="edge">
<title>lightning_fetcher&#45;&gt;lightning_fetcher::fetcher::Fetcher</title>
<path fill="none" stroke="#000000" d="M454.26,-751.24C465.79,-683.21 505.02,-451.75 518.94,-369.6"/>
<polygon fill="#000000" stroke="#000000" points="522.4,-370.13 520.62,-359.69 515.5,-368.96 522.4,-370.13"/>
<text text-anchor="middle" x="474.1" y="-563.42" font-family="monospace" font-size="10.00">owns</text>
</g>
<!-- lightning_fetcher::fetcher::FetcherWorker -->
<g id="node8" class="node">
<title>lightning_fetcher::fetcher::FetcherWorker</title>
<polygon fill="#db5367" stroke="black" points="889.14,-755.71 889.14,-793.71 1038.14,-793.71 1038.14,-755.71 889.14,-755.71"/>
<text text-anchor="middle" x="963.64" y="-781.71" font-family="monospace" font-size="10.00">pub(self) struct</text>
<polyline fill="none" stroke="black" points="889.14,-774.71 1038.14,-774.71 "/>
<text text-anchor="middle" x="963.64" y="-762.71" font-family="monospace" font-size="10.00">fetcher::FetcherWorker</text>
</g>
<!-- lightning_fetcher&#45;&gt;lightning_fetcher::fetcher::FetcherWorker -->
<g id="edge4" class="edge">
<title>lightning_fetcher&#45;&gt;lightning_fetcher::fetcher::FetcherWorker</title>
<path fill="none" stroke="#000000" d="M510.59,-770.78C601.36,-771.56 774.71,-773.07 878.67,-773.97"/>
<polygon fill="#000000" stroke="#000000" points="878.79,-777.47 888.82,-774.06 878.85,-770.47 878.79,-777.47"/>
<text text-anchor="middle" x="682.13" y="-775.37" font-family="monospace" font-size="10.00">owns</text>
</g>
<!-- lightning_fetcher::fetcher::Uri -->
<g id="node15" class="node">
<title>lightning_fetcher::fetcher::Uri</title>
<polygon fill="#f8c04c" stroke="black" points="59.67,-601.48 59.67,-639.48 166.67,-639.48 166.67,-601.48 59.67,-601.48"/>
<text text-anchor="middle" x="113.17" y="-627.48" font-family="monospace" font-size="10.00">pub(crate) type</text>
<polyline fill="none" stroke="black" points="59.67,-620.48 166.67,-620.48 "/>
<text text-anchor="middle" x="113.17" y="-608.48" font-family="monospace" font-size="10.00">fetcher::Uri</text>
</g>
<!-- lightning_fetcher&#45;&gt;lightning_fetcher::fetcher::Uri -->
<g id="edge5" class="edge">
<title>lightning_fetcher&#45;&gt;lightning_fetcher::fetcher::Uri</title>
<path fill="none" stroke="#000000" d="M438.98,-750.97C396.97,-714.96 258.94,-650.93 176.47,-626.06"/>
<polygon fill="#000000" stroke="#000000" points="177.28,-622.65 166.7,-623.22 175.33,-629.37 177.28,-622.65"/>
<text text-anchor="middle" x="295.23" y="-691.51" font-family="monospace" font-size="10.00">owns</text>
</g>
<!-- lightning_fetcher&#45;&gt;lightning_fetcher::fetcher::Uri -->
<g id="edge6" class="edge">
<title>lightning_fetcher&#45;&gt;lightning_fetcher::fetcher::Uri</title>
<path fill="none" stroke="#7f7f7f" stroke-dasharray="5,2" d="M391.21,-765.72C313.67,-742.95 183.06,-683.28 133.04,-645.97"/>
<polygon fill="#7f7f7f" stroke="#7f7f7f" points="134.93,-643.01 124.93,-639.51 130.56,-648.48 134.93,-643.01"/>
<text text-anchor="middle" x="249.62" y="-708.84" font-family="monospace" font-size="10.00">uses</text>
</g>
<!-- lightning_fetcher::origin::ErrorResponse -->
<g id="node16" class="node">
<title>lightning_fetcher::origin::ErrorResponse</title>
<polygon fill="#db5367" stroke="black" points="218.74,-1010.85 218.74,-1048.85 361.74,-1048.85 361.74,-1010.85 218.74,-1010.85"/>
<text text-anchor="middle" x="290.24" y="-1036.85" font-family="monospace" font-size="10.00">pub(self) enum</text>
<polyline fill="none" stroke="black" points="218.74,-1029.85 361.74,-1029.85 "/>
<text text-anchor="middle" x="290.24" y="-1017.85" font-family="monospace" font-size="10.00">origin::ErrorResponse</text>
</g>
<!-- lightning_fetcher&#45;&gt;lightning_fetcher::origin::ErrorResponse -->
<g id="edge7" class="edge">
<title>lightning_fetcher&#45;&gt;lightning_fetcher::origin::ErrorResponse</title>
<path fill="none" stroke="#000000" d="M439.21,-789.35C411.1,-834.73 340.18,-949.22 307.38,-1002.19"/>
<polygon fill="#000000" stroke="#000000" points="304.37,-1000.39 302.08,-1010.74 310.32,-1004.08 304.37,-1000.39"/>
<text text-anchor="middle" x="360.79" y="-898.77" font-family="monospace" font-size="10.00">owns</text>
</g>
<!-- lightning_fetcher::origin::OriginError -->
<g id="node17" class="node">
<title>lightning_fetcher::origin::OriginError</title>
<polygon fill="#81c169" stroke="black" points="165.48,-837.42 165.48,-875.42 296.48,-875.42 296.48,-837.42 165.48,-837.42"/>
<text text-anchor="middle" x="230.98" y="-863.42" font-family="monospace" font-size="10.00">pub struct</text>
<polyline fill="none" stroke="black" points="165.48,-856.42 296.48,-856.42 "/>
<text text-anchor="middle" x="230.98" y="-844.42" font-family="monospace" font-size="10.00">origin::OriginError</text>
</g>
<!-- lightning_fetcher&#45;&gt;lightning_fetcher::origin::OriginError -->
<g id="edge8" class="edge">
<title>lightning_fetcher&#45;&gt;lightning_fetcher::origin::OriginError</title>
<path fill="none" stroke="#000000" d="M402.47,-789.28C369.15,-802.32 324.76,-819.7 289.49,-833.51"/>
<polygon fill="#000000" stroke="#000000" points="287.84,-830.4 279.8,-837.3 290.39,-836.92 287.84,-830.4"/>
<text text-anchor="middle" x="333.48" y="-814.39" font-family="monospace" font-size="10.00">owns</text>
</g>
<!-- lightning_fetcher::origin::OriginFetcher -->
<g id="node18" class="node">
<title>lightning_fetcher::origin::OriginFetcher</title>
<polygon fill="#81c169" stroke="black" points="419.84,-948.17 419.84,-986.17 562.84,-986.17 562.84,-948.17 419.84,-948.17"/>
<text text-anchor="middle" x="491.34" y="-974.17" font-family="monospace" font-size="10.00">pub struct</text>
<polyline fill="none" stroke="black" points="419.84,-967.17 562.84,-967.17 "/>
<text text-anchor="middle" x="491.34" y="-955.17" font-family="monospace" font-size="10.00">origin::OriginFetcher</text>
</g>
<!-- lightning_fetcher&#45;&gt;lightning_fetcher::origin::OriginFetcher -->
<g id="edge9" class="edge">
<title>lightning_fetcher&#45;&gt;lightning_fetcher::origin::OriginFetcher</title>
<path fill="none" stroke="#000000" d="M439,-789.51C432.67,-824.48 446.02,-898.08 464.43,-938.78"/>
<polygon fill="#000000" stroke="#000000" points="461.37,-940.49 468.94,-947.9 467.64,-937.39 461.37,-940.49"/>
<text text-anchor="middle" x="439.22" y="-867.15" font-family="monospace" font-size="10.00">owns</text>
</g>
<!-- lightning_fetcher&#45;&gt;lightning_fetcher::origin::OriginFetcher -->
<g id="edge10" class="edge">
<title>lightning_fetcher&#45;&gt;lightning_fetcher::origin::OriginFetcher</title>
<path fill="none" stroke="#7f7f7f" stroke-dasharray="5,2" d="M473.47,-789.61C492.43,-824.34 507.56,-897.03 504.59,-937.88"/>
<polygon fill="#7f7f7f" stroke="#7f7f7f" points="501.09,-937.67 503.35,-948.02 508.04,-938.52 501.09,-937.67"/>
<text text-anchor="middle" x="476.53" y="-866.74" font-family="monospace" font-size="10.00">uses</text>
</g>
<!-- lightning_fetcher::origin::OriginRequest -->
<g id="node22" class="node">
<title>lightning_fetcher::origin::OriginRequest</title>
<polygon fill="#81c169" stroke="black" points="619.64,-925.15 619.64,-963.15 762.64,-963.15 762.64,-925.15 619.64,-925.15"/>
<text text-anchor="middle" x="691.14" y="-951.15" font-family="monospace" font-size="10.00">pub struct</text>
<polyline fill="none" stroke="black" points="619.64,-944.15 762.64,-944.15 "/>
<text text-anchor="middle" x="691.14" y="-932.15" font-family="monospace" font-size="10.00">origin::OriginRequest</text>
</g>
<!-- lightning_fetcher&#45;&gt;lightning_fetcher::origin::OriginRequest -->
<g id="edge11" class="edge">
<title>lightning_fetcher&#45;&gt;lightning_fetcher::origin::OriginRequest</title>
<path fill="none" stroke="#000000" d="M455.8,-789.45C478.02,-822.9 556.75,-884.44 617.4,-920.04"/>
<polygon fill="#000000" stroke="#000000" points="615.79,-923.15 626.21,-925.09 619.28,-917.08 615.79,-923.15"/>
<text text-anchor="middle" x="524.1" y="-857.74" font-family="monospace" font-size="10.00">owns</text>
</g>
<!-- lightning_fetcher&#45;&gt;lightning_fetcher::origin::OriginRequest -->
<g id="edge12" class="edge">
<title>lightning_fetcher&#45;&gt;lightning_fetcher::origin::OriginRequest</title>
<path fill="none" stroke="#7f7f7f" stroke-dasharray="5,2" d="M510.76,-786.45C568.36,-817.75 650.17,-879.56 680.52,-917.07"/>
<polygon fill="#7f7f7f" stroke="#7f7f7f" points="677.73,-919.18 686.49,-925.14 683.36,-915.02 677.73,-919.18"/>
<text text-anchor="middle" x="583.14" y="-854.76" font-family="monospace" font-size="10.00">uses</text>
</g>
<!-- lightning_fetcher::origin::SuccessResponse -->
<g id="node23" class="node">
<title>lightning_fetcher::origin::SuccessResponse</title>
<polygon fill="#db5367" stroke="black" points="126.74,-1132.95 126.74,-1170.95 281.74,-1170.95 281.74,-1132.95 126.74,-1132.95"/>
<text text-anchor="middle" x="204.24" y="-1158.95" font-family="monospace" font-size="10.00">pub(self) struct</text>
<polyline fill="none" stroke="black" points="126.74,-1151.95 281.74,-1151.95 "/>
<text text-anchor="middle" x="204.24" y="-1139.95" font-family="monospace" font-size="10.00">origin::SuccessResponse</text>
</g>
<!-- lightning_fetcher&#45;&gt;lightning_fetcher::origin::SuccessResponse -->
<g id="edge13" class="edge">
<title>lightning_fetcher&#45;&gt;lightning_fetcher::origin::SuccessResponse</title>
<path fill="none" stroke="#000000" d="M438.63,-789.45C398.13,-852.08 269.72,-1050.69 222.17,-1124.22"/>
<polygon fill="#000000" stroke="#000000" points="219.02,-1122.65 216.53,-1132.95 224.9,-1126.45 219.02,-1122.65"/>
<text text-anchor="middle" x="317.9" y="-959.84" font-family="monospace" font-size="10.00">owns</text>
</g>
<!-- lightning_fetcher::fetcher::Fetcher::Config -->
<g id="node4" class="node">
<title>lightning_fetcher::fetcher::Fetcher::Config</title>
<polygon fill="#db5367" stroke="black" points="200.89,-255.32 200.89,-293.32 361.89,-293.32 361.89,-255.32 200.89,-255.32"/>
<text text-anchor="middle" x="281.39" y="-281.32" font-family="monospace" font-size="10.00">pub(self) type</text>
<polyline fill="none" stroke="black" points="200.89,-274.32 361.89,-274.32 "/>
<text text-anchor="middle" x="281.39" y="-262.32" font-family="monospace" font-size="10.00">fetcher::Fetcher::Config</text>
</g>
<!-- lightning_fetcher::fetcher::Fetcher&#45;&gt;lightning_fetcher::fetcher::Fetcher::Config -->
<g id="edge14" class="edge">
<title>lightning_fetcher::fetcher::Fetcher&#45;&gt;lightning_fetcher::fetcher::Fetcher::Config</title>
<path fill="none" stroke="#000000" d="M467.34,-324.99C435.87,-316.42 396.19,-305.6 361.57,-296.17"/>
<polygon fill="#000000" stroke="#000000" points="362.05,-292.67 351.48,-293.42 360.21,-299.43 362.05,-292.67"/>
<text text-anchor="middle" x="401.95" y="-313.58" font-family="monospace" font-size="10.00">owns</text>
</g>
<!-- lightning_fetcher::fetcher::Fetcher::build_graph -->
<g id="node5" class="node">
<title>lightning_fetcher::fetcher::Fetcher::build_graph</title>
<polygon fill="#db5367" stroke="black" points="318.08,-0.5 318.08,-38.5 509.08,-38.5 509.08,-0.5 318.08,-0.5"/>
<text text-anchor="middle" x="413.58" y="-26.5" font-family="monospace" font-size="10.00">pub(self) fn</text>
<polyline fill="none" stroke="black" points="318.08,-19.5 509.08,-19.5 "/>
<text text-anchor="middle" x="413.58" y="-7.5" font-family="monospace" font-size="10.00">fetcher::Fetcher::build_graph</text>
</g>
<!-- lightning_fetcher::fetcher::Fetcher&#45;&gt;lightning_fetcher::fetcher::Fetcher::build_graph -->
<g id="edge15" class="edge">
<title>lightning_fetcher::fetcher::Fetcher&#45;&gt;lightning_fetcher::fetcher::Fetcher::build_graph</title>
<path fill="none" stroke="#000000" d="M517.32,-321.28C498.69,-267.11 445.48,-112.31 423.38,-48.02"/>
<polygon fill="#000000" stroke="#000000" points="426.68,-46.83 420.12,-38.51 420.06,-49.11 426.68,-46.83"/>
<text text-anchor="middle" x="457.85" y="-187.65" font-family="monospace" font-size="10.00">owns</text>
</g>
<!-- lightning_fetcher::fetcher::Fetcher::get_socket -->
<g id="node6" class="node">
<title>lightning_fetcher::fetcher::Fetcher::get_socket</title>
<polygon fill="#db5367" stroke="black" points="586.98,-42.78 586.98,-80.78 771.98,-80.78 771.98,-42.78 586.98,-42.78"/>
<text text-anchor="middle" x="679.48" y="-68.78" font-family="monospace" font-size="10.00">pub(self) fn</text>
<polyline fill="none" stroke="black" points="586.98,-61.78 771.98,-61.78 "/>
<text text-anchor="middle" x="679.48" y="-49.78" font-family="monospace" font-size="10.00">fetcher::Fetcher::get_socket</text>
</g>
<!-- lightning_fetcher::fetcher::Fetcher&#45;&gt;lightning_fetcher::fetcher::Fetcher::get_socket -->
<g id="edge16" class="edge">
<title>lightning_fetcher::fetcher::Fetcher&#45;&gt;lightning_fetcher::fetcher::Fetcher::get_socket</title>
<path fill="none" stroke="#000000" d="M553.8,-321.39C596.94,-272.94 666,-148.21 680.8,-90.73"/>
<polygon fill="#000000" stroke="#000000" points="684.25,-91.33 682.91,-80.82 677.4,-89.87 684.25,-91.33"/>
<text text-anchor="middle" x="604.8" y="-209.06" font-family="monospace" font-size="10.00">owns</text>
</g>
<!-- lightning_fetcher::fetcher::Fetcher::new -->
<g id="node7" class="node">
<title>lightning_fetcher::fetcher::Fetcher::new</title>
<polygon fill="#81c169" stroke="black" points="579.75,-645.51 579.75,-683.51 722.75,-683.51 722.75,-645.51 579.75,-645.51"/>
<text text-anchor="middle" x="651.25" y="-671.51" font-family="monospace" font-size="10.00">pub fn</text>
<polyline fill="none" stroke="black" points="579.75,-664.51 722.75,-664.51 "/>
<text text-anchor="middle" x="651.25" y="-652.51" font-family="monospace" font-size="10.00">fetcher::Fetcher::new</text>
</g>
<!-- lightning_fetcher::fetcher::Fetcher&#45;&gt;lightning_fetcher::fetcher::Fetcher::new -->
<g id="edge17" class="edge">
<title>lightning_fetcher::fetcher::Fetcher&#45;&gt;lightning_fetcher::fetcher::Fetcher::new</title>
<path fill="none" stroke="#000000" d="M518.4,-359.6C520.9,-414.87 580.79,-572.06 621.63,-636.65"/>
<polygon fill="#000000" stroke="#000000" points="618.81,-638.74 627.25,-645.13 624.64,-634.87 618.81,-638.74"/>
<text text-anchor="middle" x="557.51" y="-501.13" font-family="monospace" font-size="10.00">owns</text>
</g>
<!-- lightning_fetcher::fetcher::Fetcher::Config&#45;&gt;lightning_fetcher::config::Config -->
<g id="edge18" class="edge">
<title>lightning_fetcher::fetcher::Fetcher::Config&#45;&gt;lightning_fetcher::config::Config</title>
<path fill="none" stroke="#7f7f7f" stroke-dasharray="5,2" d="M291.36,-293.49C313.19,-335.47 365.34,-435.73 391.01,-485.07"/>
<polygon fill="#7f7f7f" stroke="#7f7f7f" points="388.05,-486.97 395.77,-494.23 394.26,-483.74 388.05,-486.97"/>
<text text-anchor="middle" x="328.68" y="-392.28" font-family="monospace" font-size="10.00">uses</text>
</g>
<!-- lightning_fetcher::fetcher::Fetcher::get_socket&#45;&gt;lightning_fetcher::fetcher::Fetcher -->
<g id="edge19" class="edge">
<title>lightning_fetcher::fetcher::Fetcher::get_socket&#45;&gt;lightning_fetcher::fetcher::Fetcher</title>
<path fill="none" stroke="#7f7f7f" stroke-dasharray="5,2" d="M649.57,-80.79C606.42,-129.24 537.37,-253.97 522.57,-311.45"/>
<polygon fill="#7f7f7f" stroke="#7f7f7f" points="519.12,-310.85 520.45,-321.36 525.96,-312.31 519.12,-310.85"/>
<text text-anchor="middle" x="573.57" y="-199.12" font-family="monospace" font-size="10.00">uses</text>
</g>
<!-- lightning_fetcher::fetcher::Fetcher::new&#45;&gt;lightning_fetcher::config::Config -->
<g id="edge20" class="edge">
<title>lightning_fetcher::fetcher::Fetcher::new&#45;&gt;lightning_fetcher::config::Config</title>
<path fill="none" stroke="#7f7f7f" stroke-dasharray="5,2" d="M620.16,-645.38C575.84,-618.11 494.45,-568.04 445.72,-538.05"/>
<polygon fill="#7f7f7f" stroke="#7f7f7f" points="447.36,-534.96 437.01,-532.7 443.7,-540.92 447.36,-534.96"/>
<text text-anchor="middle" x="520.44" y="-594.72" font-family="monospace" font-size="10.00">uses</text>
</g>
<!-- lightning_fetcher::fetcher::Fetcher::new&#45;&gt;lightning_fetcher::fetcher::Fetcher -->
<g id="edge21" class="edge">
<title>lightning_fetcher::fetcher::Fetcher::new&#45;&gt;lightning_fetcher::fetcher::Fetcher</title>
<path fill="none" stroke="#7f7f7f" stroke-dasharray="5,2" d="M656.74,-645.31C654.23,-590.03 594.35,-432.85 553.51,-368.25"/>
<polygon fill="#7f7f7f" stroke="#7f7f7f" points="556.33,-366.17 547.88,-359.77 550.5,-370.04 556.33,-366.17"/>
<text text-anchor="middle" x="592.62" y="-509.78" font-family="monospace" font-size="10.00">uses</text>
</g>
<!-- lightning_fetcher::fetcher::Fetcher::new&#45;&gt;lightning_fetcher::fetcher::FetcherWorker -->
<g id="edge22" class="edge">
<title>lightning_fetcher::fetcher::Fetcher::new&#45;&gt;lightning_fetcher::fetcher::FetcherWorker</title>
<path fill="none" stroke="#7f7f7f" stroke-dasharray="5,2" d="M705.31,-683.58C759.46,-702.68 842.76,-732.07 900.05,-752.28"/>
<polygon fill="#7f7f7f" stroke="#7f7f7f" points="899.13,-755.66 909.72,-755.69 901.46,-749.06 899.13,-755.66"/>
<text text-anchor="middle" x="790.18" y="-720.93" font-family="monospace" font-size="10.00">uses</text>
</g>
<!-- lightning_fetcher::fetcher::Fetcher::new&#45;&gt;lightning_fetcher::origin::OriginFetcher -->
<g id="edge23" class="edge">
<title>lightning_fetcher::fetcher::Fetcher::new&#45;&gt;lightning_fetcher::origin::OriginFetcher</title>
<path fill="none" stroke="#7f7f7f" stroke-dasharray="5,2" d="M641.01,-683.9C613.59,-735.79 538.45,-878 506.28,-938.89"/>
<polygon fill="#7f7f7f" stroke="#7f7f7f" points="503.07,-937.46 501.5,-947.94 509.26,-940.73 503.07,-937.46"/>
<text text-anchor="middle" x="561.14" y="-814.4" font-family="monospace" font-size="10.00">uses</text>
</g>
<!-- lightning_fetcher::fetcher::Fetcher::new&#45;&gt;lightning_fetcher::origin::OriginRequest -->
<g id="edge24" class="edge">
<title>lightning_fetcher::fetcher::Fetcher::new&#45;&gt;lightning_fetcher::origin::OriginRequest</title>
<path fill="none" stroke="#7f7f7f" stroke-dasharray="5,2" d="M653.99,-683.73C660.84,-731.72 678.72,-857.08 686.92,-914.57"/>
<polygon fill="#7f7f7f" stroke="#7f7f7f" points="683.5,-915.39 688.38,-924.8 690.43,-914.4 683.5,-915.39"/>
<text text-anchor="middle" x="657.96" y="-802.15" font-family="monospace" font-size="10.00">uses</text>
</g>
<!-- lightning_fetcher::fetcher::FetcherWorker::Request -->
<g id="node9" class="node">
<title>lightning_fetcher::fetcher::FetcherWorker::Request</title>
<polygon fill="#db5367" stroke="black" points="904.64,-461.3 904.64,-499.3 1107.64,-499.3 1107.64,-461.3 904.64,-461.3"/>
<text text-anchor="middle" x="1006.14" y="-487.3" font-family="monospace" font-size="10.00">pub(self) type</text>
<polyline fill="none" stroke="black" points="904.64,-480.3 1107.64,-480.3 "/>
<text text-anchor="middle" x="1006.14" y="-468.3" font-family="monospace" font-size="10.00">fetcher::FetcherWorker::Request</text>
</g>
<!-- lightning_fetcher::fetcher::FetcherWorker&#45;&gt;lightning_fetcher::fetcher::FetcherWorker::Request -->
<g id="edge25" class="edge">
<title>lightning_fetcher::fetcher::FetcherWorker&#45;&gt;lightning_fetcher::fetcher::FetcherWorker::Request</title>
<path fill="none" stroke="#000000" d="M966.43,-755.39C973.71,-704.95 993.33,-569.03 1001.96,-509.22"/>
<polygon fill="#000000" stroke="#000000" points="1005.43,-509.7 1003.4,-499.31 998.5,-508.7 1005.43,-509.7"/>
<text text-anchor="middle" x="971.7" y="-635.31" font-family="monospace" font-size="10.00">owns</text>
</g>
<!-- lightning_fetcher::fetcher::FetcherWorker::Response -->
<g id="node10" class="node">
<title>lightning_fetcher::fetcher::FetcherWorker::Response</title>
<polygon fill="#db5367" stroke="black" points="1115.66,-499.99 1115.66,-537.99 1324.66,-537.99 1324.66,-499.99 1115.66,-499.99"/>
<text text-anchor="middle" x="1220.16" y="-525.99" font-family="monospace" font-size="10.00">pub(self) type</text>
<polyline fill="none" stroke="black" points="1115.66,-518.99 1324.66,-518.99 "/>
<text text-anchor="middle" x="1220.16" y="-506.99" font-family="monospace" font-size="10.00">fetcher::FetcherWorker::Response</text>
</g>
<!-- lightning_fetcher::fetcher::FetcherWorker&#45;&gt;lightning_fetcher::fetcher::FetcherWorker::Response -->
<g id="edge26" class="edge">
<title>lightning_fetcher::fetcher::FetcherWorker&#45;&gt;lightning_fetcher::fetcher::FetcherWorker::Response</title>
<path fill="none" stroke="#000000" d="M982.92,-755.49C1028.34,-710.21 1142.13,-596.78 1193.84,-545.23"/>
<polygon fill="#000000" stroke="#000000" points="1196.39,-547.63 1201.01,-538.09 1191.45,-542.67 1196.39,-547.63"/>
<text text-anchor="middle" x="1075.88" y="-653.36" font-family="monospace" font-size="10.00">owns</text>
</g>
<!-- lightning_fetcher::fetcher::FetcherWorker::fetch -->
<g id="node11" class="node">
<title>lightning_fetcher::fetcher::FetcherWorker::fetch</title>
<polygon fill="#db5367" stroke="black" points="1199.35,-878.97 1199.35,-916.97 1390.35,-916.97 1390.35,-878.97 1199.35,-878.97"/>
<text text-anchor="middle" x="1294.85" y="-904.97" font-family="monospace" font-size="10.00">pub(self) async fn</text>
<polyline fill="none" stroke="black" points="1199.35,-897.97 1390.35,-897.97 "/>
<text text-anchor="middle" x="1294.85" y="-885.97" font-family="monospace" font-size="10.00">fetcher::FetcherWorker::fetch</text>
</g>
<!-- lightning_fetcher::fetcher::FetcherWorker&#45;&gt;lightning_fetcher::fetcher::FetcherWorker::fetch -->
<g id="edge27" class="edge">
<title>lightning_fetcher::fetcher::FetcherWorker&#45;&gt;lightning_fetcher::fetcher::FetcherWorker::fetch</title>
<path fill="none" stroke="#000000" d="M977.31,-793.88C1013.28,-820.98 1111.44,-861.64 1189.25,-885.16"/>
<polygon fill="#000000" stroke="#000000" points="1188.54,-888.59 1199.12,-888.08 1190.53,-881.88 1188.54,-888.59"/>
<text text-anchor="middle" x="1070.78" y="-842.52" font-family="monospace" font-size="10.00">owns</text>
</g>
<!-- lightning_fetcher::fetcher::FetcherWorker::fetch_origin -->
<g id="node12" class="node">
<title>lightning_fetcher::fetcher::FetcherWorker::fetch_origin</title>
<polygon fill="#db5367" stroke="black" points="813.66,-1003.16 813.66,-1041.16 1046.66,-1041.16 1046.66,-1003.16 813.66,-1003.16"/>
<text text-anchor="middle" x="930.16" y="-1029.16" font-family="monospace" font-size="10.00">pub(self) async fn</text>
<polyline fill="none" stroke="black" points="813.66,-1022.16 1046.66,-1022.16 "/>
<text text-anchor="middle" x="930.16" y="-1010.16" font-family="monospace" font-size="10.00">fetcher::FetcherWorker::fetch_origin</text>
</g>
<!-- lightning_fetcher::fetcher::FetcherWorker&#45;&gt;lightning_fetcher::fetcher::FetcherWorker::fetch_origin -->
<g id="edge28" class="edge">
<title>lightning_fetcher::fetcher::FetcherWorker&#45;&gt;lightning_fetcher::fetcher::FetcherWorker::fetch_origin</title>
<path fill="none" stroke="#000000" d="M944.82,-794.08C924.78,-837.32 910.15,-941.63 916.36,-992.85"/>
<polygon fill="#000000" stroke="#000000" points="912.94,-993.63 918.01,-1002.93 919.85,-992.5 912.94,-993.63"/>
<text text-anchor="middle" x="918.09" y="-896.47" font-family="monospace" font-size="10.00">owns</text>
</g>
<!-- lightning_fetcher::fetcher::FetcherWorker::handle -->
<g id="node13" class="node">
<title>lightning_fetcher::fetcher::FetcherWorker::handle</title>
<polygon fill="#db5367" stroke="black" points="1208.18,-682.45 1208.18,-720.45 1405.18,-720.45 1405.18,-682.45 1208.18,-682.45"/>
<text text-anchor="middle" x="1306.68" y="-708.45" font-family="monospace" font-size="10.00">pub(self) async fn</text>
<polyline fill="none" stroke="black" points="1208.18,-701.45 1405.18,-701.45 "/>
<text text-anchor="middle" x="1306.68" y="-689.45" font-family="monospace" font-size="10.00">fetcher::FetcherWorker::handle</text>
</g>
<!-- lightning_fetcher::fetcher::FetcherWorker&#45;&gt;lightning_fetcher::fetcher::FetcherWorker::handle -->
<g id="edge29" class="edge">
<title>lightning_fetcher::fetcher::FetcherWorker&#45;&gt;lightning_fetcher::fetcher::FetcherWorker::handle</title>
<path fill="none" stroke="#000000" d="M1038.54,-781.5C1113.43,-773.47 1224.7,-747.81 1277.27,-724.82"/>
<polygon fill="#000000" stroke="#000000" points="1278.8,-727.97 1286.38,-720.57 1275.83,-721.63 1278.8,-727.97"/>
<text text-anchor="middle" x="1145.4" y="-756.16" font-family="monospace" font-size="10.00">owns</text>
</g>
<!-- lightning_fetcher::fetcher::FetcherWorker::put -->
<g id="node14" class="node">
<title>lightning_fetcher::fetcher::FetcherWorker::put</title>
<polygon fill="#db5367" stroke="black" points="1081.41,-1050.24 1081.41,-1088.24 1260.41,-1088.24 1260.41,-1050.24 1081.41,-1050.24"/>
<text text-anchor="middle" x="1170.91" y="-1076.24" font-family="monospace" font-size="10.00">pub(self) async fn</text>
<polyline fill="none" stroke="black" points="1081.41,-1069.24 1260.41,-1069.24 "/>
<text text-anchor="middle" x="1170.91" y="-1057.24" font-family="monospace" font-size="10.00">fetcher::FetcherWorker::put</text>
</g>
<!-- lightning_fetcher::fetcher::FetcherWorker&#45;&gt;lightning_fetcher::fetcher::FetcherWorker::put -->
<g id="edge30" class="edge">
<title>lightning_fetcher::fetcher::FetcherWorker&#45;&gt;lightning_fetcher::fetcher::FetcherWorker::put</title>
<path fill="none" stroke="#000000" d="M962.89,-794.16C978.1,-846.45 1072.37,-984.34 1129.79,-1043.12"/>
<polygon fill="#000000" stroke="#000000" points="1127.38,-1045.66 1136.94,-1050.21 1132.3,-1040.69 1127.38,-1045.66"/>
<text text-anchor="middle" x="1033.84" y="-921.64" font-family="monospace" font-size="10.00">owns</text>
</g>
<!-- lightning_fetcher::fetcher::FetcherWorker&#45;&gt;lightning_fetcher::origin::OriginRequest -->
<g id="edge31" class="edge">
<title>lightning_fetcher::fetcher::FetcherWorker&#45;&gt;lightning_fetcher::origin::OriginRequest</title>
<path fill="none" stroke="#7f7f7f" stroke-dasharray="5,2" d="M932.91,-793.82C883.2,-824.73 785.21,-885.66 730.48,-919.69"/>
<polygon fill="#7f7f7f" stroke="#7f7f7f" points="728.4,-916.86 721.76,-925.11 732.1,-922.81 728.4,-916.86"/>
<text text-anchor="middle" x="819.19" y="-859.75" font-family="monospace" font-size="10.00">uses</text>
</g>
<!-- lightning_fetcher::fetcher::FetcherWorker::fetch&#45;&gt;lightning_fetcher::fetcher::FetcherWorker -->
<g id="edge32" class="edge">
<title>lightning_fetcher::fetcher::FetcherWorker::fetch&#45;&gt;lightning_fetcher::fetcher::FetcherWorker</title>
<path fill="none" stroke="#7f7f7f" stroke-dasharray="5,2" d="M1281.18,-878.79C1241.92,-849.21 1128.54,-803.47 1048.42,-781.51"/>
<polygon fill="#7f7f7f" stroke="#7f7f7f" points="1048.89,-778.02 1038.33,-778.83 1047.09,-784.78 1048.89,-778.02"/>
<text text-anchor="middle" x="1152.3" y="-833.15" font-family="monospace" font-size="10.00">uses</text>
</g>
<!-- lightning_fetcher::fetcher::FetcherWorker::fetch_origin&#45;&gt;lightning_fetcher::fetcher::FetcherWorker -->
<g id="edge33" class="edge">
<title>lightning_fetcher::fetcher::FetcherWorker::fetch_origin&#45;&gt;lightning_fetcher::fetcher::FetcherWorker</title>
<path fill="none" stroke="#7f7f7f" stroke-dasharray="5,2" d="M948.99,-1002.78C969.02,-959.55 983.65,-855.24 977.44,-804.02"/>
<polygon fill="#7f7f7f" stroke="#7f7f7f" points="980.86,-803.24 975.79,-793.93 973.95,-804.37 980.86,-803.24"/>
<text text-anchor="middle" x="950.71" y="-906.4" font-family="monospace" font-size="10.00">uses</text>
</g>
<!-- lightning_fetcher::fetcher::FetcherWorker::fetch_origin&#45;&gt;lightning_fetcher::origin::OriginRequest -->
<g id="edge34" class="edge">
<title>lightning_fetcher::fetcher::FetcherWorker::fetch_origin&#45;&gt;lightning_fetcher::origin::OriginRequest</title>
<path fill="none" stroke="#7f7f7f" stroke-dasharray="5,2" d="M871.69,-1003.07C837.71,-991.98 794.72,-977.96 759.22,-966.37"/>
<polygon fill="#7f7f7f" stroke="#7f7f7f" points="760.01,-962.95 749.42,-963.17 757.84,-969.6 760.01,-962.95"/>
<text text-anchor="middle" x="802.96" y="-987.72" font-family="monospace" font-size="10.00">uses</text>
</g>
<!-- lightning_fetcher::fetcher::FetcherWorker::handle&#45;&gt;lightning_fetcher::fetcher::FetcherWorker -->
<g id="edge35" class="edge">
<title>lightning_fetcher::fetcher::FetcherWorker::handle&#45;&gt;lightning_fetcher::fetcher::FetcherWorker</title>
<path fill="none" stroke="#7f7f7f" stroke-dasharray="5,2" d="M1207.86,-697.64C1134.91,-707.88 1040.47,-730.64 993.21,-751.26"/>
<polygon fill="#7f7f7f" stroke="#7f7f7f" points="991.45,-748.22 983.87,-755.63 994.41,-754.57 991.45,-748.22"/>
<text text-anchor="middle" x="1088.03" y="-727.45" font-family="monospace" font-size="10.00">uses</text>
</g>
<!-- lightning_fetcher::fetcher::FetcherWorker::put&#45;&gt;lightning_fetcher::fetcher::FetcherWorker -->
<g id="edge36" class="edge">
<title>lightning_fetcher::fetcher::FetcherWorker::put&#45;&gt;lightning_fetcher::fetcher::FetcherWorker</title>
<path fill="none" stroke="#7f7f7f" stroke-dasharray="5,2" d="M1171.66,-1049.79C1156.45,-997.49 1062.18,-859.6 1004.76,-800.83"/>
<polygon fill="#7f7f7f" stroke="#7f7f7f" points="1007.17,-798.29 997.61,-793.73 1002.24,-803.26 1007.17,-798.29"/>
<text text-anchor="middle" x="1075.71" y="-928.31" font-family="monospace" font-size="10.00">uses</text>
</g>
<!-- lightning_fetcher::origin::OriginFetcher::new -->
<g id="node19" class="node">
<title>lightning_fetcher::origin::OriginFetcher::new</title>
<polygon fill="#81c169" stroke="black" points="581.25,-1192.56 581.25,-1230.56 754.25,-1230.56 754.25,-1192.56 581.25,-1192.56"/>
<text text-anchor="middle" x="667.75" y="-1218.56" font-family="monospace" font-size="10.00">pub fn</text>
<polyline fill="none" stroke="black" points="581.25,-1211.56 754.25,-1211.56 "/>
<text text-anchor="middle" x="667.75" y="-1199.56" font-family="monospace" font-size="10.00">origin::OriginFetcher::new</text>
</g>
<!-- lightning_fetcher::origin::OriginFetcher&#45;&gt;lightning_fetcher::origin::OriginFetcher::new -->
<g id="edge37" class="edge">
<title>lightning_fetcher::origin::OriginFetcher&#45;&gt;lightning_fetcher::origin::OriginFetcher::new</title>
<path fill="none" stroke="#000000" d="M489.76,-986.24C501.61,-1030.52 573.89,-1135.11 623.73,-1185.18"/>
<polygon fill="#000000" stroke="#000000" points="621.6,-1188 631.21,-1192.45 626.47,-1182.97 621.6,-1188"/>
<text text-anchor="middle" x="544.24" y="-1088.71" font-family="monospace" font-size="10.00">owns</text>
</g>
<!-- lightning_fetcher::origin::OriginFetcher::spawn -->
<g id="node20" class="node">
<title>lightning_fetcher::origin::OriginFetcher::spawn</title>
<polygon fill="#db5367" stroke="black" points="0,-1008.49 0,-1046.49 185,-1046.49 185,-1008.49 0,-1008.49"/>
<text text-anchor="middle" x="92.5" y="-1034.49" font-family="monospace" font-size="10.00">pub(self) async fn</text>
<polyline fill="none" stroke="black" points="0,-1027.49 185,-1027.49 "/>
<text text-anchor="middle" x="92.5" y="-1015.49" font-family="monospace" font-size="10.00">origin::OriginFetcher::spawn</text>
</g>
<!-- lightning_fetcher::origin::OriginFetcher&#45;&gt;lightning_fetcher::origin::OriginFetcher::spawn -->
<g id="edge38" class="edge">
<title>lightning_fetcher::origin::OriginFetcher&#45;&gt;lightning_fetcher::origin::OriginFetcher::spawn</title>
<path fill="none" stroke="#000000" d="M419.64,-956.81C334.15,-960.39 194.66,-982.88 128.91,-1004.95"/>
<polygon fill="#000000" stroke="#000000" points="127.64,-1001.69 119.39,-1008.35 129.98,-1008.29 127.64,-1001.69"/>
<text text-anchor="middle" x="261.78" y="-983.88" font-family="monospace" font-size="10.00">owns</text>
</g>
<!-- lightning_fetcher::origin::OriginFetcher::start -->
<g id="node21" class="node">
<title>lightning_fetcher::origin::OriginFetcher::start</title>
<polygon fill="#81c169" stroke="black" points="327.68,-1109.62 327.68,-1147.62 512.68,-1147.62 512.68,-1109.62 327.68,-1109.62"/>
<text text-anchor="middle" x="420.18" y="-1135.62" font-family="monospace" font-size="10.00">pub async fn</text>
<polyline fill="none" stroke="black" points="327.68,-1128.62 512.68,-1128.62 "/>
<text text-anchor="middle" x="420.18" y="-1116.62" font-family="monospace" font-size="10.00">origin::OriginFetcher::start</text>
</g>
<!-- lightning_fetcher::origin::OriginFetcher&#45;&gt;lightning_fetcher::origin::OriginFetcher::start -->
<g id="edge39" class="edge">
<title>lightning_fetcher::origin::OriginFetcher&#45;&gt;lightning_fetcher::origin::OriginFetcher::start</title>
<path fill="none" stroke="#000000" d="M459.92,-986.47C438.15,-1014.6 416.2,-1065.8 412.29,-1098.74"/>
<polygon fill="#000000" stroke="#000000" points="408.77,-1098.97 411.68,-1109.15 415.76,-1099.37 408.77,-1098.97"/>
<text text-anchor="middle" x="423.6" y="-1045.61" font-family="monospace" font-size="10.00">owns</text>
</g>
<!-- lightning_fetcher::origin::OriginFetcher&#45;&gt;lightning_fetcher::origin::OriginRequest -->
<g id="edge40" class="edge">
<title>lightning_fetcher::origin::OriginFetcher&#45;&gt;lightning_fetcher::origin::OriginRequest</title>
<path fill="none" stroke="#7f7f7f" stroke-dasharray="5,2" d="M562.9,-958.93C577.97,-957.19 593.97,-955.35 609.38,-953.57"/>
<polygon fill="#7f7f7f" stroke="#7f7f7f" points="609.86,-957.04 619.4,-952.42 609.06,-950.09 609.86,-957.04"/>
<text text-anchor="middle" x="598.64" y="-959.25" font-family="monospace" font-size="10.00">uses</text>
</g>
<!-- lightning_fetcher::origin::OriginFetcher::new&#45;&gt;lightning_fetcher::origin::OriginFetcher -->
<g id="edge41" class="edge">
<title>lightning_fetcher::origin::OriginFetcher::new&#45;&gt;lightning_fetcher::origin::OriginFetcher</title>
<path fill="none" stroke="#7f7f7f" stroke-dasharray="5,2" d="M669.33,-1192.49C657.48,-1148.21 585.2,-1043.62 535.36,-993.55"/>
<polygon fill="#7f7f7f" stroke="#7f7f7f" points="537.49,-990.73 527.87,-986.28 532.61,-995.76 537.49,-990.73"/>
<text text-anchor="middle" x="589.84" y="-1096.02" font-family="monospace" font-size="10.00">uses</text>
</g>
<!-- lightning_fetcher::origin::OriginFetcher::new&#45;&gt;lightning_fetcher::origin::OriginRequest -->
<g id="edge42" class="edge">
<title>lightning_fetcher::origin::OriginFetcher::new&#45;&gt;lightning_fetcher::origin::OriginRequest</title>
<path fill="none" stroke="#7f7f7f" stroke-dasharray="5,2" d="M669.43,-1192.32C673.48,-1146.07 683.77,-1028.37 688.59,-973.34"/>
<polygon fill="#7f7f7f" stroke="#7f7f7f" points="692.09,-973.48 689.47,-963.21 685.11,-972.87 692.09,-973.48"/>
<text text-anchor="middle" x="666.51" y="-1085.83" font-family="monospace" font-size="10.00">uses</text>
</g>
<!-- lightning_fetcher::origin::OriginFetcher::spawn&#45;&gt;lightning_fetcher::origin::ErrorResponse -->
<g id="edge43" class="edge">
<title>lightning_fetcher::origin::OriginFetcher::spawn&#45;&gt;lightning_fetcher::origin::ErrorResponse</title>
<path fill="none" stroke="#7f7f7f" stroke-dasharray="5,2" d="M185,-1028.6C192.83,-1028.69 200.71,-1028.78 208.45,-1028.88"/>
<polygon fill="#7f7f7f" stroke="#7f7f7f" points="208.48,-1032.38 218.52,-1029 208.56,-1025.38 208.48,-1032.38"/>
<text text-anchor="middle" x="202.97" y="-1020.74" font-family="monospace" font-size="10.00">uses</text>
</g>
<!-- lightning_fetcher::origin::OriginFetcher::spawn&#45;&gt;lightning_fetcher::origin::OriginFetcher -->
<g id="edge44" class="edge">
<title>lightning_fetcher::origin::OriginFetcher::spawn&#45;&gt;lightning_fetcher::origin::OriginFetcher</title>
<path fill="none" stroke="#7f7f7f" stroke-dasharray="5,2" d="M185.19,-1036.68C271.07,-1030.76 394.35,-1010.05 454.94,-989.7"/>
<polygon fill="#7f7f7f" stroke="#7f7f7f" points="456.22,-992.96 464.46,-986.31 453.87,-986.37 456.22,-992.96"/>
<text text-anchor="middle" x="307.57" y="-1005.19" font-family="monospace" font-size="10.00">uses</text>
</g>
<!-- lightning_fetcher::origin::OriginFetcher::spawn&#45;&gt;lightning_fetcher::origin::SuccessResponse -->
<g id="edge45" class="edge">
<title>lightning_fetcher::origin::OriginFetcher::spawn&#45;&gt;lightning_fetcher::origin::SuccessResponse</title>
<path fill="none" stroke="#7f7f7f" stroke-dasharray="5,2" d="M109.71,-1046.67C128.53,-1067.62 158.8,-1101.34 180.01,-1124.96"/>
<polygon fill="#7f7f7f" stroke="#7f7f7f" points="177.54,-1127.45 186.82,-1132.55 182.75,-1122.77 177.54,-1127.45"/>
<text text-anchor="middle" x="132.36" y="-1088.81" font-family="monospace" font-size="10.00">uses</text>
</g>
<!-- lightning_fetcher::origin::OriginFetcher::start&#45;&gt;lightning_fetcher::origin::ErrorResponse -->
<g id="edge46" class="edge">
<title>lightning_fetcher::origin::OriginFetcher::start&#45;&gt;lightning_fetcher::origin::ErrorResponse</title>
<path fill="none" stroke="#7f7f7f" stroke-dasharray="5,2" d="M395.12,-1109.58C374.85,-1094.17 346.12,-1072.32 323.85,-1055.4"/>
<polygon fill="#7f7f7f" stroke="#7f7f7f" points="325.74,-1052.44 315.66,-1049.17 321.5,-1058.01 325.74,-1052.44"/>
<text text-anchor="middle" x="346.98" y="-1085.49" font-family="monospace" font-size="10.00">uses</text>
</g>
<!-- lightning_fetcher::origin::OriginFetcher::start&#45;&gt;lightning_fetcher::origin::OriginError -->
<g id="edge47" class="edge">
<title>lightning_fetcher::origin::OriginFetcher::start&#45;&gt;lightning_fetcher::origin::OriginError</title>
<path fill="none" stroke="#7f7f7f" stroke-dasharray="5,2" d="M406.87,-1109.48C373.9,-1062.04 288.3,-938.89 250,-883.78"/>
<polygon fill="#7f7f7f" stroke="#7f7f7f" points="252.85,-881.75 244.27,-875.54 247.1,-885.75 252.85,-881.75"/>
<text text-anchor="middle" x="315.93" y="-988.63" font-family="monospace" font-size="10.00">uses</text>
</g>
<!-- lightning_fetcher::origin::OriginFetcher::start&#45;&gt;lightning_fetcher::origin::OriginFetcher -->
<g id="edge48" class="edge">
<title>lightning_fetcher::origin::OriginFetcher::start&#45;&gt;lightning_fetcher::origin::OriginFetcher</title>
<path fill="none" stroke="#7f7f7f" stroke-dasharray="5,2" d="M451.6,-1109.32C473.37,-1081.19 495.31,-1030 499.22,-997.05"/>
<polygon fill="#7f7f7f" stroke="#7f7f7f" points="502.74,-996.83 499.83,-986.64 495.75,-996.42 502.74,-996.83"/>
<text text-anchor="middle" x="462.91" y="-1056.19" font-family="monospace" font-size="10.00">uses</text>
</g>
<!-- lightning_fetcher::origin::OriginFetcher::start&#45;&gt;lightning_fetcher::origin::OriginRequest -->
<g id="edge49" class="edge">
<title>lightning_fetcher::origin::OriginFetcher::start&#45;&gt;lightning_fetcher::origin::OriginRequest</title>
<path fill="none" stroke="#7f7f7f" stroke-dasharray="5,2" d="M448.15,-1109.57C497.44,-1076.02 599.7,-1006.4 654.53,-969.08"/>
<polygon fill="#7f7f7f" stroke="#7f7f7f" points="656.61,-971.89 662.91,-963.37 652.67,-966.11 656.61,-971.89"/>
<text text-anchor="middle" x="538.84" y="-1042.32" font-family="monospace" font-size="10.00">uses</text>
</g>
<!-- lightning_fetcher::origin::OriginFetcher::start&#45;&gt;lightning_fetcher::origin::SuccessResponse -->
<g id="edge50" class="edge">
<title>lightning_fetcher::origin::OriginFetcher::start&#45;&gt;lightning_fetcher::origin::SuccessResponse</title>
<path fill="none" stroke="#7f7f7f" stroke-dasharray="5,2" d="M327.66,-1138.62C315.89,-1139.89 303.86,-1141.19 292.16,-1142.45"/>
<polygon fill="#7f7f7f" stroke="#7f7f7f" points="291.54,-1139 281.98,-1143.55 292.3,-1145.96 291.54,-1139"/>
<text text-anchor="middle" x="297.41" y="-1143.53" font-family="monospace" font-size="10.00">uses</text>
</g>
</g>
</svg>
