<?xml version="1.0" encoding="UTF-8" standalone="no"?>
<!DOCTYPE svg PUBLIC "-//W3C//DTD SVG 1.1//EN"
 "http://www.w3.org/Graphics/SVG/1.1/DTD/svg11.dtd">
<!-- Generated by graphviz version 4.0.0 (0)
 -->
<!-- Pages: 1 -->
<svg width="472pt" height="351pt"
 viewBox="0.00 0.00 472.49 350.97" xmlns="http://www.w3.org/2000/svg" xmlns:xlink="http://www.w3.org/1999/xlink">
<g id="graph0" class="graph" transform="scale(1 1) rotate(0) translate(28.8 322.17)">
<polygon fill="white" stroke="transparent" points="-28.8,28.8 -28.8,-322.17 443.69,-322.17 443.69,28.8 -28.8,28.8"/>
<text text-anchor="middle" x="207.44" y="-260.57" font-family="Helvetica,sans-Serif" font-size="36.00">spawn_swarm</text>
<!-- lightning_e2e::utils::shutdown -->
<g id="node1" class="node">
<title>lightning_e2e::utils::shutdown</title>
<polygon fill="#81c169" stroke="black" points="0,-0.5 0,-38.5 197,-38.5 197,-0.5 0,-0.5"/>
<text text-anchor="middle" x="98.5" y="-26.5" font-family="monospace" font-size="10.00">external mod</text>
<polyline fill="none" stroke="black" points="0,-19.5 197,-19.5 "/>
<text text-anchor="middle" x="98.5" y="-7.5" font-family="monospace" font-size="10.00">lightning_e2e::utils::shutdown</text>
</g>
<!-- lightning_test_utils::logging -->
<g id="node2" class="node">
<title>lightning_test_utils::logging</title>
<polygon fill="#81c169" stroke="black" points="223.89,-32.6 223.89,-70.6 414.89,-70.6 414.89,-32.6 223.89,-32.6"/>
<text text-anchor="middle" x="319.39" y="-58.6" font-family="monospace" font-size="10.00">external mod</text>
<polyline fill="none" stroke="black" points="223.89,-51.6 414.89,-51.6 "/>
<text text-anchor="middle" x="319.39" y="-39.6" font-family="monospace" font-size="10.00">lightning_test_utils::logging</text>
</g>
<!-- spawn_swarm -->
<g id="node3" class="node">
<title>spawn_swarm</title>
<polygon fill="#5397c8" stroke="black" points="158.27,-79.6 158.27,-117.6 241.27,-117.6 241.27,-79.6 158.27,-79.6"/>
<text text-anchor="middle" x="199.77" y="-105.6" font-family="monospace" font-size="10.00">crate</text>
<polyline fill="none" stroke="black" points="158.27,-98.6 241.27,-98.6 "/>
<text text-anchor="middle" x="199.77" y="-86.6" font-family="monospace" font-size="10.00">spawn_swarm</text>
</g>
<!-- spawn_swarm&#45;&gt;lightning_e2e::utils::shutdown -->
<g id="edge1" class="edge">
<title>spawn_swarm&#45;&gt;lightning_e2e::utils::shutdown</title>
<path fill="none" stroke="#7f7f7f" stroke-dasharray="5,2" d="M175.26,-79.45C162.05,-69.13 145.57,-56.26 131.27,-45.09"/>
<polygon fill="#7f7f7f" stroke="#7f7f7f" points="133.18,-42.14 123.14,-38.75 128.87,-47.66 133.18,-42.14"/>
<text text-anchor="middle" x="140.76" y="-65.27" font-family="monospace" font-size="10.00">uses</text>
</g>
<!-- spawn_swarm&#45;&gt;lightning_test_utils::logging -->
<g id="edge2" class="edge">
<title>spawn_swarm&#45;&gt;lightning_test_utils::logging</title>
<path fill="none" stroke="#7f7f7f" stroke-dasharray="5,2" d="M241.27,-82.29C247.86,-79.71 254.78,-76.99 261.65,-74.28"/>
<polygon fill="#7f7f7f" stroke="#7f7f7f" points="262.95,-77.54 270.98,-70.62 260.39,-71.02 262.95,-77.54"/>
<text text-anchor="middle" x="263.96" y="-81.29" font-family="monospace" font-size="10.00">uses</text>
</g>
<!-- std::fs -->
<g id="node4" class="node">
<title>std::fs</title>
<polygon fill="#81c169" stroke="black" points="136.82,-206.87 136.82,-244.87 225.82,-244.87 225.82,-206.87 136.82,-206.87"/>
<text text-anchor="middle" x="181.32" y="-232.87" font-family="monospace" font-size="10.00">external mod</text>
<polyline fill="none" stroke="black" points="136.82,-225.87 225.82,-225.87 "/>
<text text-anchor="middle" x="181.32" y="-213.87" font-family="monospace" font-size="10.00">std::fs</text>
</g>
<!-- spawn_swarm&#45;&gt;std::fs -->
<g id="edge3" class="edge">
<title>spawn_swarm&#45;&gt;std::fs</title>
<path fill="none" stroke="#7f7f7f" stroke-dasharray="5,2" d="M197.01,-117.66C193.98,-138.55 189.08,-172.35 185.56,-196.61"/>
<polygon fill="#7f7f7f" stroke="#7f7f7f" points="182.07,-196.29 184.1,-206.69 189,-197.29 182.07,-196.29"/>
<text text-anchor="middle" x="178.79" y="-160.13" font-family="monospace" font-size="10.00">uses</text>
</g>
</g>
</svg>
