<?xml version="1.0" encoding="UTF-8" standalone="no"?>
<!DOCTYPE svg PUBLIC "-//W3C//DTD SVG 1.1//EN"
 "http://www.w3.org/Graphics/SVG/1.1/DTD/svg11.dtd">
<!-- Generated by graphviz version 4.0.0 (0)
 -->
<!-- Pages: 1 -->
<svg width="749pt" height="911pt"
 viewBox="0.00 0.00 748.86 910.60" xmlns="http://www.w3.org/2000/svg" xmlns:xlink="http://www.w3.org/1999/xlink">
<g id="graph0" class="graph" transform="scale(1 1) rotate(0) translate(28.8 881.8)">
<polygon fill="white" stroke="transparent" points="-28.8,28.8 -28.8,-881.8 720.06,-881.8 720.06,28.8 -28.8,28.8"/>
<text text-anchor="middle" x="345.63" y="-820.2" font-family="Helvetica,sans-Serif" font-size="36.00">lightning_origin_ipfs</text>
<!-- fdi -->
<g id="node1" class="node">
<title>fdi</title>
<polygon fill="#5397c8" stroke="black" points="196.44,-0.5 196.44,-38.5 297.44,-38.5 297.44,-0.5 196.44,-0.5"/>
<text text-anchor="middle" x="246.94" y="-26.5" font-family="monospace" font-size="10.00">external crate</text>
<polyline fill="none" stroke="black" points="196.44,-19.5 297.44,-19.5 "/>
<text text-anchor="middle" x="246.94" y="-7.5" font-family="monospace" font-size="10.00">fdi</text>
</g>
<!-- hyper::client -->
<g id="node2" class="node">
<title>hyper::client</title>
<polygon fill="#81c169" stroke="black" points="567.05,-138.37 567.05,-176.37 662.05,-176.37 662.05,-138.37 567.05,-138.37"/>
<text text-anchor="middle" x="614.55" y="-164.37" font-family="monospace" font-size="10.00">external mod</text>
<polyline fill="none" stroke="black" points="567.05,-157.37 662.05,-157.37 "/>
<text text-anchor="middle" x="614.55" y="-145.37" font-family="monospace" font-size="10.00">hyper::client</text>
</g>
<!-- lightning_origin_ipfs -->
<g id="node3" class="node">
<title>lightning_origin_ipfs</title>
<polygon fill="#5397c8" stroke="black" points="265.7,-471.43 265.7,-509.43 408.7,-509.43 408.7,-471.43 265.7,-471.43"/>
<text text-anchor="middle" x="337.2" y="-497.43" font-family="monospace" font-size="10.00">crate</text>
<polyline fill="none" stroke="black" points="265.7,-490.43 408.7,-490.43 "/>
<text text-anchor="middle" x="337.2" y="-478.43" font-family="monospace" font-size="10.00">lightning_origin_ipfs</text>
</g>
<!-- lightning_origin_ipfs::car_reader -->
<g id="node4" class="node">
<title>lightning_origin_ipfs::car_reader</title>
<polygon fill="#f8c04c" stroke="black" points="309.43,-766.5 309.43,-804.5 524.43,-804.5 524.43,-766.5 309.43,-766.5"/>
<text text-anchor="middle" x="416.93" y="-792.5" font-family="monospace" font-size="10.00">pub(crate) mod</text>
<polyline fill="none" stroke="black" points="309.43,-785.5 524.43,-785.5 "/>
<text text-anchor="middle" x="416.93" y="-773.5" font-family="monospace" font-size="10.00">lightning_origin_ipfs::car_reader</text>
</g>
<!-- lightning_origin_ipfs&#45;&gt;lightning_origin_ipfs::car_reader -->
<g id="edge1" class="edge">
<title>lightning_origin_ipfs&#45;&gt;lightning_origin_ipfs::car_reader</title>
<path fill="none" stroke="#000000" d="M342.43,-509.79C356.09,-560.35 392.9,-696.57 409.1,-756.51"/>
<polygon fill="#000000" stroke="#000000" points="405.8,-757.71 411.79,-766.45 412.56,-755.89 405.8,-757.71"/>
<text text-anchor="middle" x="363.26" y="-636.15" font-family="monospace" font-size="10.00">owns</text>
</g>
<!-- lightning_origin_ipfs::config -->
<g id="node7" class="node">
<title>lightning_origin_ipfs::config</title>
<polygon fill="#81c169" stroke="black" points="0,-328.73 0,-366.73 191,-366.73 191,-328.73 0,-328.73"/>
<text text-anchor="middle" x="95.5" y="-354.73" font-family="monospace" font-size="10.00">pub mod</text>
<polyline fill="none" stroke="black" points="0,-347.73 191,-347.73 "/>
<text text-anchor="middle" x="95.5" y="-335.73" font-family="monospace" font-size="10.00">lightning_origin_ipfs::config</text>
</g>
<!-- lightning_origin_ipfs&#45;&gt;lightning_origin_ipfs::config -->
<g id="edge2" class="edge">
<title>lightning_origin_ipfs&#45;&gt;lightning_origin_ipfs::config</title>
<path fill="none" stroke="#000000" d="M330.57,-471.19C308.41,-443.71 241.92,-399.76 185.12,-371.22"/>
<polygon fill="#000000" stroke="#000000" points="186.61,-368.06 176.09,-366.78 183.52,-374.34 186.61,-368.06"/>
<text text-anchor="middle" x="245.34" y="-424.21" font-family="monospace" font-size="10.00">owns</text>
</g>
<!-- lightning_origin_ipfs&#45;&gt;lightning_origin_ipfs::config -->
<g id="edge3" class="edge">
<title>lightning_origin_ipfs&#45;&gt;lightning_origin_ipfs::config</title>
<path fill="none" stroke="#7f7f7f" stroke-dasharray="5,2" d="M265.42,-475.53C210.19,-450.15 138.86,-405.16 108.83,-374.45"/>
<polygon fill="#7f7f7f" stroke="#7f7f7f" points="111.41,-372.08 102.12,-366.97 106.19,-376.75 111.41,-372.08"/>
<text text-anchor="middle" x="174.63" y="-427.99" font-family="monospace" font-size="10.00">uses</text>
</g>
<!-- lightning_origin_ipfs::decoder -->
<g id="node8" class="node">
<title>lightning_origin_ipfs::decoder</title>
<polygon fill="#f8c04c" stroke="black" points="494.26,-356.96 494.26,-394.96 691.26,-394.96 691.26,-356.96 494.26,-356.96"/>
<text text-anchor="middle" x="592.76" y="-382.96" font-family="monospace" font-size="10.00">pub(crate) mod</text>
<polyline fill="none" stroke="black" points="494.26,-375.96 691.26,-375.96 "/>
<text text-anchor="middle" x="592.76" y="-363.96" font-family="monospace" font-size="10.00">lightning_origin_ipfs::decoder</text>
</g>
<!-- lightning_origin_ipfs&#45;&gt;lightning_origin_ipfs::decoder -->
<g id="edge4" class="edge">
<title>lightning_origin_ipfs&#45;&gt;lightning_origin_ipfs::decoder</title>
<path fill="none" stroke="#000000" d="M379.69,-471.4C424,-451.55 493.49,-420.43 540.98,-399.16"/>
<polygon fill="#000000" stroke="#000000" points="542.48,-402.32 550.17,-395.04 539.62,-395.93 542.48,-402.32"/>
<text text-anchor="middle" x="447.83" y="-438.28" font-family="monospace" font-size="10.00">owns</text>
</g>
<!-- lightning_origin_ipfs::error -->
<g id="node9" class="node">
<title>lightning_origin_ipfs::error</title>
<polygon fill="#f8c04c" stroke="black" points="14.82,-485.46 14.82,-523.46 199.82,-523.46 199.82,-485.46 14.82,-485.46"/>
<text text-anchor="middle" x="107.32" y="-511.46" font-family="monospace" font-size="10.00">pub(crate) mod</text>
<polyline fill="none" stroke="black" points="14.82,-504.46 199.82,-504.46 "/>
<text text-anchor="middle" x="107.32" y="-492.46" font-family="monospace" font-size="10.00">lightning_origin_ipfs::error</text>
</g>
<!-- lightning_origin_ipfs&#45;&gt;lightning_origin_ipfs::error -->
<g id="edge5" class="edge">
<title>lightning_origin_ipfs&#45;&gt;lightning_origin_ipfs::error</title>
<path fill="none" stroke="#000000" d="M265.41,-494.81C247.88,-495.88 228.78,-497.05 210.11,-498.19"/>
<polygon fill="#000000" stroke="#000000" points="209.87,-494.7 200.1,-498.8 210.29,-501.68 209.87,-494.7"/>
<text text-anchor="middle" x="225.26" y="-499.5" font-family="monospace" font-size="10.00">owns</text>
</g>
<!-- lightning_origin_ipfs::origin_ipfs -->
<g id="node10" class="node">
<title>lightning_origin_ipfs::origin_ipfs</title>
<polygon fill="#f8c04c" stroke="black" points="228.52,-274.07 228.52,-312.07 449.52,-312.07 449.52,-274.07 228.52,-274.07"/>
<text text-anchor="middle" x="339.02" y="-300.07" font-family="monospace" font-size="10.00">pub(crate) mod</text>
<polyline fill="none" stroke="black" points="228.52,-293.07 449.52,-293.07 "/>
<text text-anchor="middle" x="339.02" y="-281.07" font-family="monospace" font-size="10.00">lightning_origin_ipfs::origin_ipfs</text>
</g>
<!-- lightning_origin_ipfs&#45;&gt;lightning_origin_ipfs::origin_ipfs -->
<g id="edge6" class="edge">
<title>lightning_origin_ipfs&#45;&gt;lightning_origin_ipfs::origin_ipfs</title>
<path fill="none" stroke="#000000" d="M354.22,-471.3C367.05,-436.55 368.68,-362.85 358.46,-321.95"/>
<polygon fill="#000000" stroke="#000000" points="361.8,-320.9 355.61,-312.3 355.09,-322.88 361.8,-320.9"/>
<text text-anchor="middle" x="343.84" y="-399.63" font-family="monospace" font-size="10.00">owns</text>
</g>
<!-- lightning_origin_ipfs&#45;&gt;lightning_origin_ipfs::origin_ipfs -->
<g id="edge7" class="edge">
<title>lightning_origin_ipfs&#45;&gt;lightning_origin_ipfs::origin_ipfs</title>
<path fill="none" stroke="#7f7f7f" stroke-dasharray="5,2" d="M320.66,-471.35C308.36,-436.55 308.04,-362.58 319.01,-321.71"/>
<polygon fill="#7f7f7f" stroke="#7f7f7f" points="322.38,-322.66 322.04,-312.07 315.7,-320.56 322.38,-322.66"/>
<text text-anchor="middle" x="307.33" y="-399.53" font-family="monospace" font-size="10.00">uses</text>
</g>
<!-- lightning_origin_ipfs::car_reader::reader -->
<g id="node5" class="node">
<title>lightning_origin_ipfs::car_reader::reader</title>
<polygon fill="#db5367" stroke="black" points="152.02,-591.67 152.02,-629.67 415.02,-629.67 415.02,-591.67 152.02,-591.67"/>
<text text-anchor="middle" x="283.52" y="-617.67" font-family="monospace" font-size="10.00">pub(self) mod</text>
<polyline fill="none" stroke="black" points="152.02,-610.67 415.02,-610.67 "/>
<text text-anchor="middle" x="283.52" y="-598.67" font-family="monospace" font-size="10.00">lightning_origin_ipfs::car_reader::reader</text>
</g>
<!-- lightning_origin_ipfs::car_reader&#45;&gt;lightning_origin_ipfs::car_reader::reader -->
<g id="edge8" class="edge">
<title>lightning_origin_ipfs::car_reader&#45;&gt;lightning_origin_ipfs::car_reader::reader</title>
<path fill="none" stroke="#000000" d="M419.76,-766.46C412.19,-734.23 369.39,-672.99 332.81,-637.05"/>
<polygon fill="#000000" stroke="#000000" points="334.79,-634.1 325.12,-629.78 329.98,-639.19 334.79,-634.1"/>
<text text-anchor="middle" x="363.79" y="-704.75" font-family="monospace" font-size="10.00">owns</text>
</g>
<!-- lightning_origin_ipfs::car_reader&#45;&gt;lightning_origin_ipfs::car_reader::reader -->
<g id="edge9" class="edge">
<title>lightning_origin_ipfs::car_reader&#45;&gt;lightning_origin_ipfs::car_reader::reader</title>
<path fill="none" stroke="#7f7f7f" stroke-dasharray="5,2" d="M375.41,-766.45C340.66,-735.08 297.08,-675.68 283.65,-639.32"/>
<polygon fill="#7f7f7f" stroke="#7f7f7f" points="286.98,-638.24 280.69,-629.72 280.29,-640.31 286.98,-638.24"/>
<text text-anchor="middle" x="317.03" y="-705.88" font-family="monospace" font-size="10.00">uses</text>
</g>
<!-- lightning_origin_ipfs::car_reader::utils -->
<g id="node6" class="node">
<title>lightning_origin_ipfs::car_reader::utils</title>
<polygon fill="#db5367" stroke="black" points="390.4,-544.66 390.4,-582.66 647.4,-582.66 647.4,-544.66 390.4,-544.66"/>
<text text-anchor="middle" x="518.9" y="-570.66" font-family="monospace" font-size="10.00">pub(self) mod</text>
<polyline fill="none" stroke="black" points="390.4,-563.66 647.4,-563.66 "/>
<text text-anchor="middle" x="518.9" y="-551.66" font-family="monospace" font-size="10.00">lightning_origin_ipfs::car_reader::utils</text>
</g>
<!-- lightning_origin_ipfs::car_reader&#45;&gt;lightning_origin_ipfs::car_reader::utils -->
<g id="edge10" class="edge">
<title>lightning_origin_ipfs::car_reader&#45;&gt;lightning_origin_ipfs::car_reader::utils</title>
<path fill="none" stroke="#000000" d="M445.9,-766.4C477.13,-727.14 517,-639.32 524.16,-592.92"/>
<polygon fill="#000000" stroke="#000000" points="527.65,-593.18 525.22,-582.87 520.69,-592.45 527.65,-593.18"/>
<text text-anchor="middle" x="472.53" y="-682.66" font-family="monospace" font-size="10.00">owns</text>
</g>
<!-- lightning_origin_ipfs::car_reader&#45;&gt;lightning_origin_ipfs::car_reader::utils -->
<g id="edge11" class="edge">
<title>lightning_origin_ipfs::car_reader&#45;&gt;lightning_origin_ipfs::car_reader::utils</title>
<path fill="none" stroke="#7f7f7f" stroke-dasharray="5,2" d="M410.62,-766.19C412.52,-726.2 451.26,-636.58 483.84,-590.88"/>
<polygon fill="#7f7f7f" stroke="#7f7f7f" points="486.64,-592.98 489.85,-582.88 481.05,-588.78 486.64,-592.98"/>
<text text-anchor="middle" x="434.73" y="-681.54" font-family="monospace" font-size="10.00">uses</text>
</g>
<!-- lightning_origin_ipfs::car_reader::reader&#45;&gt;lightning_origin_ipfs::car_reader::utils -->
<g id="edge12" class="edge">
<title>lightning_origin_ipfs::car_reader::reader&#45;&gt;lightning_origin_ipfs::car_reader::utils</title>
<path fill="none" stroke="#7f7f7f" stroke-dasharray="5,2" d="M378.92,-591.62C390.35,-589.33 402.08,-586.99 413.64,-584.68"/>
<polygon fill="#7f7f7f" stroke="#7f7f7f" points="414.63,-588.05 423.75,-582.66 413.26,-581.19 414.63,-588.05"/>
<text text-anchor="middle" x="383.78" y="-580.15" font-family="monospace" font-size="10.00">uses</text>
</g>
<!-- lightning_origin_ipfs::car_reader::reader&#45;&gt;lightning_origin_ipfs::error -->
<g id="edge13" class="edge">
<title>lightning_origin_ipfs::car_reader::reader&#45;&gt;lightning_origin_ipfs::error</title>
<path fill="none" stroke="#7f7f7f" stroke-dasharray="5,2" d="M251.61,-591.43C222.42,-573.84 179.11,-547.73 147.56,-528.72"/>
<polygon fill="#7f7f7f" stroke="#7f7f7f" points="149.36,-525.72 138.99,-523.55 145.75,-531.71 149.36,-525.72"/>
<text text-anchor="middle" x="187.08" y="-563.08" font-family="monospace" font-size="10.00">uses</text>
</g>
<!-- lightning_origin_ipfs::origin_ipfs&#45;&gt;fdi -->
<g id="edge14" class="edge">
<title>lightning_origin_ipfs::origin_ipfs&#45;&gt;fdi</title>
<path fill="none" stroke="#7f7f7f" stroke-dasharray="5,2" d="M332.54,-273.84C316.63,-226.55 275.52,-104.42 256.66,-48.38"/>
<polygon fill="#7f7f7f" stroke="#7f7f7f" points="259.92,-47.08 253.41,-38.72 253.29,-49.31 259.92,-47.08"/>
<text text-anchor="middle" x="282.1" y="-164.11" font-family="monospace" font-size="10.00">uses</text>
</g>
<!-- lightning_origin_ipfs::origin_ipfs&#45;&gt;hyper::client -->
<g id="edge15" class="edge">
<title>lightning_origin_ipfs::origin_ipfs&#45;&gt;hyper::client</title>
<path fill="none" stroke="#7f7f7f" stroke-dasharray="5,2" d="M377.62,-274.06C427.08,-249.7 512.82,-207.47 566.47,-181.05"/>
<polygon fill="#7f7f7f" stroke="#7f7f7f" points="568.34,-184.03 575.77,-176.47 565.25,-177.75 568.34,-184.03"/>
<text text-anchor="middle" x="459.54" y="-230.56" font-family="monospace" font-size="10.00">uses</text>
</g>
<!-- lightning_origin_ipfs::origin_ipfs&#45;&gt;lightning_origin_ipfs::car_reader::reader -->
<g id="edge16" class="edge">
<title>lightning_origin_ipfs::origin_ipfs&#45;&gt;lightning_origin_ipfs::car_reader::reader</title>
<path fill="none" stroke="#7f7f7f" stroke-dasharray="5,2" d="M335.63,-312.46C326.24,-366.19 299.85,-517.22 288.65,-581.32"/>
<polygon fill="#7f7f7f" stroke="#7f7f7f" points="285.13,-581.08 286.86,-591.53 292.03,-582.28 285.13,-581.08"/>
<text text-anchor="middle" x="299.64" y="-449.89" font-family="monospace" font-size="10.00">uses</text>
</g>
<!-- lightning_origin_ipfs::origin_ipfs&#45;&gt;lightning_origin_ipfs::car_reader::utils -->
<g id="edge17" class="edge">
<title>lightning_origin_ipfs::origin_ipfs&#45;&gt;lightning_origin_ipfs::car_reader::utils</title>
<path fill="none" stroke="#7f7f7f" stroke-dasharray="5,2" d="M351.67,-312.1C382.95,-359.16 464.07,-481.18 500.6,-536.13"/>
<polygon fill="#7f7f7f" stroke="#7f7f7f" points="497.82,-538.27 506.27,-544.66 503.65,-534.39 497.82,-538.27"/>
<text text-anchor="middle" x="413.63" y="-427.11" font-family="monospace" font-size="10.00">uses</text>
</g>
<!-- lightning_origin_ipfs::origin_ipfs&#45;&gt;lightning_origin_ipfs::config -->
<g id="edge18" class="edge">
<title>lightning_origin_ipfs::origin_ipfs&#45;&gt;lightning_origin_ipfs::config</title>
<path fill="none" stroke="#7f7f7f" stroke-dasharray="5,2" d="M254.19,-312.11C233.57,-316.74 211.39,-321.72 190.34,-326.44"/>
<polygon fill="#7f7f7f" stroke="#7f7f7f" points="189.43,-323.06 180.44,-328.67 190.96,-329.89 189.43,-323.06"/>
<text text-anchor="middle" x="209.77" y="-322.28" font-family="monospace" font-size="10.00">uses</text>
</g>
<!-- lightning_origin_ipfs::origin_ipfs&#45;&gt;lightning_origin_ipfs::decoder -->
<g id="edge19" class="edge">
<title>lightning_origin_ipfs::origin_ipfs&#45;&gt;lightning_origin_ipfs::decoder</title>
<path fill="none" stroke="#7f7f7f" stroke-dasharray="5,2" d="M397.23,-312.09C435.22,-324.5 484.95,-340.74 524.75,-353.74"/>
<polygon fill="#7f7f7f" stroke="#7f7f7f" points="523.79,-357.11 534.38,-356.89 525.96,-350.46 523.79,-357.11"/>
<text text-anchor="middle" x="448.49" y="-335.92" font-family="monospace" font-size="10.00">uses</text>
</g>
<!-- lightning_origin_ipfs::origin_ipfs&#45;&gt;lightning_origin_ipfs::error -->
<g id="edge20" class="edge">
<title>lightning_origin_ipfs::origin_ipfs&#45;&gt;lightning_origin_ipfs::error</title>
<path fill="none" stroke="#7f7f7f" stroke-dasharray="5,2" d="M318.05,-312.21C276.37,-350.23 183.06,-435.36 135.85,-478.43"/>
<polygon fill="#7f7f7f" stroke="#7f7f7f" points="133.44,-475.9 128.41,-485.22 138.16,-481.07 133.44,-475.9"/>
<text text-anchor="middle" x="214.45" y="-398.32" font-family="monospace" font-size="10.00">uses</text>
</g>
<!-- lightning_schema -->
<g id="node11" class="node">
<title>lightning_schema</title>
<polygon fill="#5397c8" stroke="black" points="395.79,-9.89 395.79,-47.89 508.79,-47.89 508.79,-9.89 395.79,-9.89"/>
<text text-anchor="middle" x="452.29" y="-35.89" font-family="monospace" font-size="10.00">external crate</text>
<polyline fill="none" stroke="black" points="395.79,-28.89 508.79,-28.89 "/>
<text text-anchor="middle" x="452.29" y="-16.89" font-family="monospace" font-size="10.00">lightning_schema</text>
</g>
<!-- lightning_origin_ipfs::origin_ipfs&#45;&gt;lightning_schema -->
<g id="edge21" class="edge">
<title>lightning_origin_ipfs::origin_ipfs&#45;&gt;lightning_schema</title>
<path fill="none" stroke="#7f7f7f" stroke-dasharray="5,2" d="M347.35,-273.65C367.12,-227.54 416.94,-111.34 440.1,-57.32"/>
<polygon fill="#7f7f7f" stroke="#7f7f7f" points="443.38,-58.56 444.1,-47.99 436.94,-55.8 443.38,-58.56"/>
<text text-anchor="middle" x="381.22" y="-168.48" font-family="monospace" font-size="10.00">uses</text>
</g>
<!-- lightning_types -->
<g id="node12" class="node">
<title>lightning_types</title>
<polygon fill="#5397c8" stroke="black" points="15.24,-115.42 15.24,-153.42 122.24,-153.42 122.24,-115.42 15.24,-115.42"/>
<text text-anchor="middle" x="68.74" y="-141.42" font-family="monospace" font-size="10.00">external crate</text>
<polyline fill="none" stroke="black" points="15.24,-134.42 122.24,-134.42 "/>
<text text-anchor="middle" x="68.74" y="-122.42" font-family="monospace" font-size="10.00">lightning_types</text>
</g>
<!-- lightning_origin_ipfs::origin_ipfs&#45;&gt;lightning_types -->
<g id="edge22" class="edge">
<title>lightning_origin_ipfs::origin_ipfs&#45;&gt;lightning_types</title>
<path fill="none" stroke="#7f7f7f" stroke-dasharray="5,2" d="M306.42,-273.94C257.21,-245.05 163.99,-190.34 110.08,-158.69"/>
<polygon fill="#7f7f7f" stroke="#7f7f7f" points="111.85,-155.67 101.45,-153.63 108.31,-161.71 111.85,-155.67"/>
<text text-anchor="middle" x="195.75" y="-219.31" font-family="monospace" font-size="10.00">uses</text>
</g>
</g>
</svg>
