<?xml version="1.0" encoding="UTF-8" standalone="no"?>
<!DOCTYPE svg PUBLIC "-//W3C//DTD SVG 1.1//EN"
 "http://www.w3.org/Graphics/SVG/1.1/DTD/svg11.dtd">
<!-- Generated by graphviz version 4.0.0 (0)
 -->
<!-- Pages: 1 -->
<svg width="360pt" height="275pt"
 viewBox="0.00 0.00 359.60 274.60" xmlns="http://www.w3.org/2000/svg" xmlns:xlink="http://www.w3.org/1999/xlink">
<g id="graph0" class="graph" transform="scale(1 1) rotate(0) translate(36.8 245.8)">
<polygon fill="white" stroke="transparent" points="-36.8,28.8 -36.8,-245.8 322.8,-245.8 322.8,28.8 -36.8,28.8"/>
<text text-anchor="middle" x="143" y="-184.2" font-family="Helvetica,sans-Serif" font-size="36.00">lightning_signer</text>
<!-- lightning_signer -->
<g id="node1" class="node">
<title>lightning_signer</title>
<polygon fill="#5397c8" stroke="black" points="39.31,-83.44 39.31,-121.44 152.31,-121.44 152.31,-83.44 39.31,-83.44"/>
<text text-anchor="middle" x="95.81" y="-109.44" font-family="monospace" font-size="10.00">crate</text>
<polyline fill="none" stroke="black" points="39.31,-102.44 152.31,-102.44 "/>
<text text-anchor="middle" x="95.81" y="-90.44" font-family="monospace" font-size="10.00">lightning_signer</text>
</g>
<!-- lightning_signer::config -->
<g id="node2" class="node">
<title>lightning_signer::config</title>
<polygon fill="#f8c04c" stroke="black" points="98.49,-130.44 98.49,-168.44 259.49,-168.44 259.49,-130.44 98.49,-130.44"/>
<text text-anchor="middle" x="178.99" y="-156.44" font-family="monospace" font-size="10.00">pub(crate) mod</text>
<polyline fill="none" stroke="black" points="98.49,-149.44 259.49,-149.44 "/>
<text text-anchor="middle" x="178.99" y="-137.44" font-family="monospace" font-size="10.00">lightning_signer::config</text>
</g>
<!-- lightning_signer&#45;&gt;lightning_signer::config -->
<g id="edge1" class="edge">
<title>lightning_signer&#45;&gt;lightning_signer::config</title>
<path fill="none" stroke="#000000" d="M95.56,-121.5C95.6,-121.59 95.64,-121.68 95.69,-121.78"/>
<polygon fill="#000000" stroke="#000000" points="92.76,-123.7 101,-130.37 98.72,-120.02 92.76,-123.7"/>
<text text-anchor="middle" x="83.12" y="-124.64" font-family="monospace" font-size="10.00">owns</text>
</g>
<!-- lightning_signer&#45;&gt;lightning_signer::config -->
<g id="edge2" class="edge">
<title>lightning_signer&#45;&gt;lightning_signer::config</title>
<path fill="none" stroke="#7f7f7f" stroke-dasharray="5,2" d="M152.62,-103.56C161.02,-108.57 168.56,-114.83 173.83,-121.54"/>
<polygon fill="#7f7f7f" stroke="#7f7f7f" points="170.94,-123.54 179.16,-130.22 176.91,-119.87 170.94,-123.54"/>
<text text-anchor="middle" x="175.72" y="-115.55" font-family="monospace" font-size="10.00">uses</text>
</g>
<!-- tokio::sync::mpsc -->
<g id="node3" class="node">
<title>tokio::sync::mpsc</title>
<polygon fill="#81c169" stroke="black" points="26.88,-0.65 26.88,-38.65 145.88,-38.65 145.88,-0.65 26.88,-0.65"/>
<text text-anchor="middle" x="86.38" y="-26.65" font-family="monospace" font-size="10.00">external mod</text>
<polyline fill="none" stroke="black" points="26.88,-19.65 145.88,-19.65 "/>
<text text-anchor="middle" x="86.38" y="-7.65" font-family="monospace" font-size="10.00">tokio::sync::mpsc</text>
</g>
<!-- lightning_signer&#45;&gt;tokio::sync::mpsc -->
<g id="edge3" class="edge">
<title>lightning_signer&#45;&gt;tokio::sync::mpsc</title>
<path fill="none" stroke="#7f7f7f" stroke-dasharray="5,2" d="M93.62,-83.23C92.45,-73 91,-60.18 89.69,-48.75"/>
<polygon fill="#7f7f7f" stroke="#7f7f7f" points="93.16,-48.28 88.55,-38.75 86.21,-49.08 93.16,-48.28"/>
<text text-anchor="middle" x="79.16" y="-68.99" font-family="monospace" font-size="10.00">uses</text>
</g>
</g>
</svg>
