<?xml version="1.0" encoding="UTF-8" standalone="no"?>
<!DOCTYPE svg PUBLIC "-//W3C//DTD SVG 1.1//EN"
 "http://www.w3.org/Graphics/SVG/1.1/DTD/svg11.dtd">
<!-- Generated by graphviz version 4.0.0 (0)
 -->
<!-- Pages: 1 -->
<svg width="1468pt" height="1376pt"
 viewBox="0.00 0.00 1467.97 1376.10" xmlns="http://www.w3.org/2000/svg" xmlns:xlink="http://www.w3.org/1999/xlink">
<g id="graph0" class="graph" transform="scale(1 1) rotate(0) translate(28.8 1347.3)">
<polygon fill="white" stroke="transparent" points="-28.8,28.8 -28.8,-1347.3 1439.17,-1347.3 1439.17,28.8 -28.8,28.8"/>
<text text-anchor="middle" x="705.19" y="-1285.7" font-family="Helvetica,sans-Serif" font-size="36.00">lightning_resolver</text>
<!-- lightning_resolver -->
<g id="node1" class="node">
<title>lightning_resolver</title>
<polygon fill="#5397c8" stroke="black" points="439.9,-685.45 439.9,-723.45 564.9,-723.45 564.9,-685.45 439.9,-685.45"/>
<text text-anchor="middle" x="502.4" y="-711.45" font-family="monospace" font-size="10.00">crate</text>
<polyline fill="none" stroke="black" points="439.9,-704.45 564.9,-704.45 "/>
<text text-anchor="middle" x="502.4" y="-692.45" font-family="monospace" font-size="10.00">lightning_resolver</text>
</g>
<!-- lightning_resolver::config::Config -->
<g id="node2" class="node">
<title>lightning_resolver::config::Config</title>
<polygon fill="#81c169" stroke="black" points="646.78,-615.47 646.78,-653.47 747.78,-653.47 747.78,-615.47 646.78,-615.47"/>
<text text-anchor="middle" x="697.28" y="-641.47" font-family="monospace" font-size="10.00">pub struct</text>
<polyline fill="none" stroke="black" points="646.78,-634.47 747.78,-634.47 "/>
<text text-anchor="middle" x="697.28" y="-622.47" font-family="monospace" font-size="10.00">config::Config</text>
</g>
<!-- lightning_resolver&#45;&gt;lightning_resolver::config::Config -->
<g id="edge1" class="edge">
<title>lightning_resolver&#45;&gt;lightning_resolver::config::Config</title>
<path fill="none" stroke="#000000" d="M564.97,-708.01C605.24,-698.64 654.54,-678.72 680.28,-659.95"/>
<polygon fill="#000000" stroke="#000000" points="682.5,-662.66 688.06,-653.65 678.09,-657.22 682.5,-662.66"/>
<text text-anchor="middle" x="610.12" y="-686.98" font-family="monospace" font-size="10.00">owns</text>
</g>
<!-- lightning_resolver&#45;&gt;lightning_resolver::config::Config -->
<g id="edge2" class="edge">
<title>lightning_resolver&#45;&gt;lightning_resolver::config::Config</title>
<path fill="none" stroke="#7f7f7f" stroke-dasharray="5,2" d="M511.68,-685.23C534.31,-664.49 591.63,-640.62 636.75,-630.45"/>
<polygon fill="#7f7f7f" stroke="#7f7f7f" points="637.67,-633.83 646.75,-628.39 636.25,-626.98 637.67,-633.83"/>
<text text-anchor="middle" x="561.71" y="-660.84" font-family="monospace" font-size="10.00">uses</text>
</g>
<!-- lightning_resolver::origin_finder::OriginFinder -->
<g id="node3" class="node">
<title>lightning_resolver::origin_finder::OriginFinder</title>
<polygon fill="#81c169" stroke="black" points="878.65,-928.97 878.65,-966.97 1057.65,-966.97 1057.65,-928.97 878.65,-928.97"/>
<text text-anchor="middle" x="968.15" y="-954.97" font-family="monospace" font-size="10.00">pub struct</text>
<polyline fill="none" stroke="black" points="878.65,-947.97 1057.65,-947.97 "/>
<text text-anchor="middle" x="968.15" y="-935.97" font-family="monospace" font-size="10.00">origin_finder::OriginFinder</text>
</g>
<!-- lightning_resolver&#45;&gt;lightning_resolver::origin_finder::OriginFinder -->
<g id="edge3" class="edge">
<title>lightning_resolver&#45;&gt;lightning_resolver::origin_finder::OriginFinder</title>
<path fill="none" stroke="#000000" d="M514.92,-723.6C566.77,-770 762.25,-875.87 879.03,-924.96"/>
<polygon fill="#000000" stroke="#000000" points="877.76,-928.23 888.34,-928.82 880.44,-921.76 877.76,-928.23"/>
<text text-anchor="middle" x="684.47" y="-827.28" font-family="monospace" font-size="10.00">owns</text>
</g>
<!-- lightning_resolver&#45;&gt;lightning_resolver::origin_finder::OriginFinder -->
<g id="edge4" class="edge">
<title>lightning_resolver&#45;&gt;lightning_resolver::origin_finder::OriginFinder</title>
<path fill="none" stroke="#7f7f7f" stroke-dasharray="5,2" d="M565.13,-716.82C671.62,-757.5 881.71,-869.14 948.02,-922.39"/>
<polygon fill="#7f7f7f" stroke="#7f7f7f" points="945.83,-925.12 955.72,-928.89 950.34,-919.77 945.83,-925.12"/>
<text text-anchor="middle" x="744.08" y="-822.61" font-family="monospace" font-size="10.00">uses</text>
</g>
<!-- lightning_resolver::resolver::Resolver -->
<g id="node7" class="node">
<title>lightning_resolver::resolver::Resolver</title>
<polygon fill="#81c169" stroke="black" points="248.66,-755.51 248.66,-793.51 373.66,-793.51 373.66,-755.51 248.66,-755.51"/>
<text text-anchor="middle" x="311.16" y="-781.51" font-family="monospace" font-size="10.00">pub struct</text>
<polyline fill="none" stroke="black" points="248.66,-774.51 373.66,-774.51 "/>
<text text-anchor="middle" x="311.16" y="-762.51" font-family="monospace" font-size="10.00">resolver::Resolver</text>
</g>
<!-- lightning_resolver&#45;&gt;lightning_resolver::resolver::Resolver -->
<g id="edge5" class="edge">
<title>lightning_resolver&#45;&gt;lightning_resolver::resolver::Resolver</title>
<path fill="none" stroke="#000000" d="M450.4,-723.5C426.37,-732.3 397.66,-742.82 372.57,-752.01"/>
<polygon fill="#000000" stroke="#000000" points="371.34,-748.73 363.15,-755.46 373.75,-755.31 371.34,-748.73"/>
<text text-anchor="middle" x="398.99" y="-740.75" font-family="monospace" font-size="10.00">owns</text>
</g>
<!-- lightning_resolver::resolver::ResolverInner -->
<g id="node18" class="node">
<title>lightning_resolver::resolver::ResolverInner</title>
<polygon fill="#db5367" stroke="black" points="618.87,-206.11 618.87,-244.11 773.87,-244.11 773.87,-206.11 618.87,-206.11"/>
<text text-anchor="middle" x="696.37" y="-232.11" font-family="monospace" font-size="10.00">pub(self) struct</text>
<polyline fill="none" stroke="black" points="618.87,-225.11 773.87,-225.11 "/>
<text text-anchor="middle" x="696.37" y="-213.11" font-family="monospace" font-size="10.00">resolver::ResolverInner</text>
</g>
<!-- lightning_resolver&#45;&gt;lightning_resolver::resolver::ResolverInner -->
<g id="edge6" class="edge">
<title>lightning_resolver&#45;&gt;lightning_resolver::resolver::ResolverInner</title>
<path fill="none" stroke="#000000" d="M510.13,-685.36C540.12,-611.25 648.94,-342.33 684.81,-253.67"/>
<polygon fill="#000000" stroke="#000000" points="688.12,-254.83 688.63,-244.25 681.63,-252.2 688.12,-254.83"/>
<text text-anchor="middle" x="584.97" y="-472.52" font-family="monospace" font-size="10.00">owns</text>
</g>
<!-- lightning_resolver::origin_finder::OriginFinder::hash -->
<g id="node4" class="node">
<title>lightning_resolver::origin_finder::OriginFinder::hash</title>
<polygon fill="#db5367" stroke="black" points="1195.37,-722.12 1195.37,-760.12 1410.37,-760.12 1410.37,-722.12 1195.37,-722.12"/>
<text text-anchor="middle" x="1302.87" y="-748.12" font-family="monospace" font-size="10.00">pub(self) fn</text>
<polyline fill="none" stroke="black" points="1195.37,-741.12 1410.37,-741.12 "/>
<text text-anchor="middle" x="1302.87" y="-729.12" font-family="monospace" font-size="10.00">origin_finder::OriginFinder::hash</text>
</g>
<!-- lightning_resolver::origin_finder::OriginFinder&#45;&gt;lightning_resolver::origin_finder::OriginFinder::hash -->
<g id="edge7" class="edge">
<title>lightning_resolver::origin_finder::OriginFinder&#45;&gt;lightning_resolver::origin_finder::OriginFinder::hash</title>
<path fill="none" stroke="#000000" d="M1039.58,-928.88C1119.82,-890.36 1243.8,-811.07 1287.63,-767.57"/>
<polygon fill="#000000" stroke="#000000" points="1290.32,-769.81 1294.63,-760.13 1285.23,-765.01 1290.32,-769.81"/>
<text text-anchor="middle" x="1151.11" y="-851.22" font-family="monospace" font-size="10.00">owns</text>
</g>
<!-- lightning_resolver::origin_finder::OriginFinder::next -->
<g id="node5" class="node">
<title>lightning_resolver::origin_finder::OriginFinder::next</title>
<polygon fill="#db5367" stroke="black" points="1125.08,-922.54 1125.08,-960.54 1340.08,-960.54 1340.08,-922.54 1125.08,-922.54"/>
<text text-anchor="middle" x="1232.58" y="-948.54" font-family="monospace" font-size="10.00">pub(self) async fn</text>
<polyline fill="none" stroke="black" points="1125.08,-941.54 1340.08,-941.54 "/>
<text text-anchor="middle" x="1232.58" y="-929.54" font-family="monospace" font-size="10.00">origin_finder::OriginFinder::next</text>
</g>
<!-- lightning_resolver::origin_finder::OriginFinder&#45;&gt;lightning_resolver::origin_finder::OriginFinder::next -->
<g id="edge8" class="edge">
<title>lightning_resolver::origin_finder::OriginFinder&#45;&gt;lightning_resolver::origin_finder::OriginFinder::next</title>
<path fill="none" stroke="#000000" d="M1008.51,-966.97C1058.14,-975.04 1141.9,-973.09 1191.74,-962.79"/>
<polygon fill="#000000" stroke="#000000" points="1192.57,-966.19 1201.54,-960.55 1191.01,-959.37 1192.57,-966.19"/>
<text text-anchor="middle" x="1087.62" y="-967.88" font-family="monospace" font-size="10.00">owns</text>
</g>
<!-- lightning_resolver::origin_finder::OriginFinder::next_sync -->
<g id="node6" class="node">
<title>lightning_resolver::origin_finder::OriginFinder::next_sync</title>
<polygon fill="#db5367" stroke="black" points="981.69,-1085.3 981.69,-1123.3 1226.69,-1123.3 1226.69,-1085.3 981.69,-1085.3"/>
<text text-anchor="middle" x="1104.19" y="-1111.3" font-family="monospace" font-size="10.00">pub(self) fn</text>
<polyline fill="none" stroke="black" points="981.69,-1104.3 1226.69,-1104.3 "/>
<text text-anchor="middle" x="1104.19" y="-1092.3" font-family="monospace" font-size="10.00">origin_finder::OriginFinder::next_sync</text>
</g>
<!-- lightning_resolver::origin_finder::OriginFinder&#45;&gt;lightning_resolver::origin_finder::OriginFinder::next_sync -->
<g id="edge9" class="edge">
<title>lightning_resolver::origin_finder::OriginFinder&#45;&gt;lightning_resolver::origin_finder::OriginFinder::next_sync</title>
<path fill="none" stroke="#000000" d="M966.23,-967.23C974.69,-996.1 1014.08,-1046.53 1049.32,-1078.19"/>
<polygon fill="#000000" stroke="#000000" points="1047.38,-1081.14 1057.23,-1085.04 1051.96,-1075.85 1047.38,-1081.14"/>
<text text-anchor="middle" x="995.28" y="-1025.71" font-family="monospace" font-size="10.00">owns</text>
</g>
<!-- lightning_resolver::origin_finder::OriginFinder::hash&#45;&gt;lightning_resolver::origin_finder::OriginFinder -->
<g id="edge10" class="edge">
<title>lightning_resolver::origin_finder::OriginFinder::hash&#45;&gt;lightning_resolver::origin_finder::OriginFinder</title>
<path fill="none" stroke="#7f7f7f" stroke-dasharray="5,2" d="M1231.44,-760.21C1151.21,-798.72 1027.22,-878.01 983.39,-921.52"/>
<polygon fill="#7f7f7f" stroke="#7f7f7f" points="980.7,-919.27 976.39,-928.95 985.79,-924.07 980.7,-919.27"/>
<text text-anchor="middle" x="1094.92" y="-843.86" font-family="monospace" font-size="10.00">uses</text>
</g>
<!-- lightning_resolver::origin_finder::OriginFinder::next&#45;&gt;lightning_resolver::origin_finder::OriginFinder -->
<g id="edge11" class="edge">
<title>lightning_resolver::origin_finder::OriginFinder::next&#45;&gt;lightning_resolver::origin_finder::OriginFinder</title>
<path fill="none" stroke="#7f7f7f" stroke-dasharray="5,2" d="M1192.22,-922.54C1142.59,-914.47 1058.83,-916.42 1008.99,-926.72"/>
<polygon fill="#7f7f7f" stroke="#7f7f7f" points="1008.15,-923.32 999.19,-928.96 1009.72,-930.14 1008.15,-923.32"/>
<text text-anchor="middle" x="1088.1" y="-927.63" font-family="monospace" font-size="10.00">uses</text>
</g>
<!-- lightning_resolver::origin_finder::OriginFinder::next_sync&#45;&gt;lightning_resolver::origin_finder::OriginFinder -->
<g id="edge12" class="edge">
<title>lightning_resolver::origin_finder::OriginFinder::next_sync&#45;&gt;lightning_resolver::origin_finder::OriginFinder</title>
<path fill="none" stroke="#7f7f7f" stroke-dasharray="5,2" d="M1106.11,-1085.03C1097.66,-1056.16 1058.26,-1005.74 1023.02,-974.07"/>
<polygon fill="#7f7f7f" stroke="#7f7f7f" points="1024.96,-971.13 1015.11,-967.23 1020.38,-976.42 1024.96,-971.13"/>
<text text-anchor="middle" x="1052.06" y="-1032.55" font-family="monospace" font-size="10.00">uses</text>
</g>
<!-- lightning_resolver::resolver::Resolver::Config -->
<g id="node8" class="node">
<title>lightning_resolver::resolver::Resolver::Config</title>
<polygon fill="#db5367" stroke="black" points="788.21,-513.12 788.21,-551.12 961.21,-551.12 961.21,-513.12 788.21,-513.12"/>
<text text-anchor="middle" x="874.71" y="-539.12" font-family="monospace" font-size="10.00">pub(self) type</text>
<polyline fill="none" stroke="black" points="788.21,-532.12 961.21,-532.12 "/>
<text text-anchor="middle" x="874.71" y="-520.12" font-family="monospace" font-size="10.00">resolver::Resolver::Config</text>
</g>
<!-- lightning_resolver::resolver::Resolver&#45;&gt;lightning_resolver::resolver::Resolver::Config -->
<g id="edge13" class="edge">
<title>lightning_resolver::resolver::Resolver&#45;&gt;lightning_resolver::resolver::Resolver::Config</title>
<path fill="none" stroke="#000000" d="M355.38,-755.49C457.61,-711.51 710.06,-602.94 820.97,-555.23"/>
<polygon fill="#000000" stroke="#000000" points="822.5,-558.38 830.3,-551.22 819.73,-551.95 822.5,-558.38"/>
<text text-anchor="middle" x="575.67" y="-647.36" font-family="monospace" font-size="10.00">owns</text>
</g>
<!-- lightning_resolver::resolver::Resolver::OriginFinder -->
<g id="node9" class="node">
<title>lightning_resolver::resolver::Resolver::OriginFinder</title>
<polygon fill="#db5367" stroke="black" points="826.79,-1191.02 826.79,-1229.02 1035.79,-1229.02 1035.79,-1191.02 826.79,-1191.02"/>
<text text-anchor="middle" x="931.29" y="-1217.02" font-family="monospace" font-size="10.00">pub(self) type</text>
<polyline fill="none" stroke="black" points="826.79,-1210.02 1035.79,-1210.02 "/>
<text text-anchor="middle" x="931.29" y="-1198.02" font-family="monospace" font-size="10.00">resolver::Resolver::OriginFinder</text>
</g>
<!-- lightning_resolver::resolver::Resolver&#45;&gt;lightning_resolver::resolver::Resolver::OriginFinder -->
<g id="edge14" class="edge">
<title>lightning_resolver::resolver::Resolver&#45;&gt;lightning_resolver::resolver::Resolver::OriginFinder</title>
<path fill="none" stroke="#000000" d="M338.6,-793.78C438.67,-864.05 783.88,-1106.49 895.89,-1185.16"/>
<polygon fill="#000000" stroke="#000000" points="893.97,-1188.08 904.17,-1190.97 897.99,-1182.36 893.97,-1188.08"/>
<text text-anchor="middle" x="604.75" y="-992.47" font-family="monospace" font-size="10.00">owns</text>
</g>
<!-- lightning_resolver::resolver::Resolver::get_blake3_hash -->
<g id="node10" class="node">
<title>lightning_resolver::resolver::Resolver::get_blake3_hash</title>
<polygon fill="#db5367" stroke="black" points="344.43,-1189.45 344.43,-1227.45 571.43,-1227.45 571.43,-1189.45 344.43,-1189.45"/>
<text text-anchor="middle" x="457.93" y="-1215.45" font-family="monospace" font-size="10.00">pub(self) async fn</text>
<polyline fill="none" stroke="black" points="344.43,-1208.45 571.43,-1208.45 "/>
<text text-anchor="middle" x="457.93" y="-1196.45" font-family="monospace" font-size="10.00">resolver::Resolver::get_blake3_hash</text>
</g>
<!-- lightning_resolver::resolver::Resolver&#45;&gt;lightning_resolver::resolver::Resolver::get_blake3_hash -->
<g id="edge15" class="edge">
<title>lightning_resolver::resolver::Resolver&#45;&gt;lightning_resolver::resolver::Resolver::get_blake3_hash</title>
<path fill="none" stroke="#000000" d="M306.11,-793.71C308.55,-863.16 386.94,-1099.22 432.64,-1180.73"/>
<polygon fill="#000000" stroke="#000000" points="429.68,-1182.6 437.77,-1189.44 435.71,-1179.05 429.68,-1182.6"/>
<text text-anchor="middle" x="356.87" y="-990.22" font-family="monospace" font-size="10.00">owns</text>
</g>
<!-- lightning_resolver::resolver::Resolver::get_origin_finder -->
<g id="node11" class="node">
<title>lightning_resolver::resolver::Resolver::get_origin_finder</title>
<polygon fill="#db5367" stroke="black" points="579.62,-1232 579.62,-1270 818.62,-1270 818.62,-1232 579.62,-1232"/>
<text text-anchor="middle" x="699.12" y="-1258" font-family="monospace" font-size="10.00">pub(self) fn</text>
<polyline fill="none" stroke="black" points="579.62,-1251 818.62,-1251 "/>
<text text-anchor="middle" x="699.12" y="-1239" font-family="monospace" font-size="10.00">resolver::Resolver::get_origin_finder</text>
</g>
<!-- lightning_resolver::resolver::Resolver&#45;&gt;lightning_resolver::resolver::Resolver::get_origin_finder -->
<g id="edge16" class="edge">
<title>lightning_resolver::resolver::Resolver&#45;&gt;lightning_resolver::resolver::Resolver::get_origin_finder</title>
<path fill="none" stroke="#000000" d="M314.29,-793.56C348.5,-869.2 565.84,-1138.98 658.71,-1225.14"/>
<polygon fill="#000000" stroke="#000000" points="656.48,-1227.84 666.24,-1231.96 661.18,-1222.65 656.48,-1227.84"/>
<text text-anchor="middle" x="474" y="-1012.35" font-family="monospace" font-size="10.00">owns</text>
</g>
<!-- lightning_resolver::resolver::Resolver::get_origins -->
<g id="node12" class="node">
<title>lightning_resolver::resolver::Resolver::get_origins</title>
<polygon fill="#db5367" stroke="black" points="186.12,-1084.89 186.12,-1122.89 389.12,-1122.89 389.12,-1084.89 186.12,-1084.89"/>
<text text-anchor="middle" x="287.62" y="-1110.89" font-family="monospace" font-size="10.00">pub(self) fn</text>
<polyline fill="none" stroke="black" points="186.12,-1103.89 389.12,-1103.89 "/>
<text text-anchor="middle" x="287.62" y="-1091.89" font-family="monospace" font-size="10.00">resolver::Resolver::get_origins</text>
</g>
<!-- lightning_resolver::resolver::Resolver&#45;&gt;lightning_resolver::resolver::Resolver::get_origins -->
<g id="edge17" class="edge">
<title>lightning_resolver::resolver::Resolver&#45;&gt;lightning_resolver::resolver::Resolver::get_origins</title>
<path fill="none" stroke="#000000" d="M295.96,-793.63C275.11,-848.8 263,-1008.38 273.73,-1074.59"/>
<polygon fill="#000000" stroke="#000000" points="270.37,-1075.61 275.74,-1084.74 277.23,-1074.25 270.37,-1075.61"/>
<text text-anchor="middle" x="297.34" y="-937.11" font-family="monospace" font-size="10.00">owns</text>
</g>
<!-- lightning_resolver::resolver::Resolver::init -->
<g id="node13" class="node">
<title>lightning_resolver::resolver::Resolver::init</title>
<polygon fill="#db5367" stroke="black" points="818.65,-579.93 818.65,-617.93 979.65,-617.93 979.65,-579.93 818.65,-579.93"/>
<text text-anchor="middle" x="899.15" y="-605.93" font-family="monospace" font-size="10.00">pub(self) fn</text>
<polyline fill="none" stroke="black" points="818.65,-598.93 979.65,-598.93 "/>
<text text-anchor="middle" x="899.15" y="-586.93" font-family="monospace" font-size="10.00">resolver::Resolver::init</text>
</g>
<!-- lightning_resolver::resolver::Resolver&#45;&gt;lightning_resolver::resolver::Resolver::init -->
<g id="edge18" class="edge">
<title>lightning_resolver::resolver::Resolver&#45;&gt;lightning_resolver::resolver::Resolver::init</title>
<path fill="none" stroke="#000000" d="M373.7,-773.44C498.7,-751.25 774.94,-667.64 867.99,-622.49"/>
<polygon fill="#000000" stroke="#000000" points="869.57,-625.61 876.91,-617.98 866.41,-619.36 869.57,-625.61"/>
<text text-anchor="middle" x="608.35" y="-700.97" font-family="monospace" font-size="10.00">owns</text>
</g>
<!-- lightning_resolver::resolver::Resolver::is_running -->
<g id="node14" class="node">
<title>lightning_resolver::resolver::Resolver::is_running</title>
<polygon fill="#db5367" stroke="black" points="63.48,-922.54 63.48,-960.54 260.48,-960.54 260.48,-922.54 63.48,-922.54"/>
<text text-anchor="middle" x="161.98" y="-948.54" font-family="monospace" font-size="10.00">pub(self) fn</text>
<polyline fill="none" stroke="black" points="63.48,-941.54 260.48,-941.54 "/>
<text text-anchor="middle" x="161.98" y="-929.54" font-family="monospace" font-size="10.00">resolver::Resolver::is_running</text>
</g>
<!-- lightning_resolver::resolver::Resolver&#45;&gt;lightning_resolver::resolver::Resolver::is_running -->
<g id="edge19" class="edge">
<title>lightning_resolver::resolver::Resolver&#45;&gt;lightning_resolver::resolver::Resolver::is_running</title>
<path fill="none" stroke="#000000" d="M264.41,-793.53C227.33,-823.41 180.83,-877.92 164.64,-912.59"/>
<polygon fill="#000000" stroke="#000000" points="161.25,-911.65 160.77,-922.23 167.74,-914.26 161.25,-911.65"/>
<text text-anchor="middle" x="202.03" y="-856.06" font-family="monospace" font-size="10.00">owns</text>
</g>
<!-- lightning_resolver::resolver::Resolver::publish -->
<g id="node15" class="node">
<title>lightning_resolver::resolver::Resolver::publish</title>
<polygon fill="#db5367" stroke="black" points="3.08,-722.12 3.08,-760.12 182.08,-760.12 182.08,-722.12 3.08,-722.12"/>
<text text-anchor="middle" x="92.58" y="-748.12" font-family="monospace" font-size="10.00">pub(self) async fn</text>
<polyline fill="none" stroke="black" points="3.08,-741.12 182.08,-741.12 "/>
<text text-anchor="middle" x="92.58" y="-729.12" font-family="monospace" font-size="10.00">resolver::Resolver::publish</text>
</g>
<!-- lightning_resolver::resolver::Resolver&#45;&gt;lightning_resolver::resolver::Resolver::publish -->
<g id="edge20" class="edge">
<title>lightning_resolver::resolver::Resolver&#45;&gt;lightning_resolver::resolver::Resolver::publish</title>
<path fill="none" stroke="#000000" d="M293.84,-755.35C271.56,-743.81 231.22,-734.1 192.47,-729.25"/>
<polygon fill="#000000" stroke="#000000" points="192.46,-725.73 182.13,-728.07 191.67,-732.68 192.46,-725.73"/>
<text text-anchor="middle" x="230.65" y="-745.3" font-family="monospace" font-size="10.00">owns</text>
</g>
<!-- lightning_resolver::resolver::Resolver::shutdown -->
<g id="node16" class="node">
<title>lightning_resolver::resolver::Resolver::shutdown</title>
<polygon fill="#db5367" stroke="black" points="0,-508.83 0,-546.83 185,-546.83 185,-508.83 0,-508.83"/>
<text text-anchor="middle" x="92.5" y="-534.83" font-family="monospace" font-size="10.00">pub(self) async fn</text>
<polyline fill="none" stroke="black" points="0,-527.83 185,-527.83 "/>
<text text-anchor="middle" x="92.5" y="-515.83" font-family="monospace" font-size="10.00">resolver::Resolver::shutdown</text>
</g>
<!-- lightning_resolver::resolver::Resolver&#45;&gt;lightning_resolver::resolver::Resolver::shutdown -->
<g id="edge21" class="edge">
<title>lightning_resolver::resolver::Resolver&#45;&gt;lightning_resolver::resolver::Resolver::shutdown</title>
<path fill="none" stroke="#000000" d="M310.27,-755.22C292.26,-709.98 201.8,-603.79 142.5,-553.51"/>
<polygon fill="#000000" stroke="#000000" points="144.65,-550.75 134.71,-547.09 140.19,-556.15 144.65,-550.75"/>
<text text-anchor="middle" x="213.88" y="-657.37" font-family="monospace" font-size="10.00">owns</text>
</g>
<!-- lightning_resolver::resolver::Resolver::start -->
<g id="node17" class="node">
<title>lightning_resolver::resolver::Resolver::start</title>
<polygon fill="#db5367" stroke="black" points="78.84,-308.41 78.84,-346.41 245.84,-346.41 245.84,-308.41 78.84,-308.41"/>
<text text-anchor="middle" x="162.34" y="-334.41" font-family="monospace" font-size="10.00">pub(self) async fn</text>
<polyline fill="none" stroke="black" points="78.84,-327.41 245.84,-327.41 "/>
<text text-anchor="middle" x="162.34" y="-315.41" font-family="monospace" font-size="10.00">resolver::Resolver::start</text>
</g>
<!-- lightning_resolver::resolver::Resolver&#45;&gt;lightning_resolver::resolver::Resolver::start -->
<g id="edge22" class="edge">
<title>lightning_resolver::resolver::Resolver&#45;&gt;lightning_resolver::resolver::Resolver::start</title>
<path fill="none" stroke="#000000" d="M316.16,-755.46C313.86,-684.65 233.43,-438.69 187.26,-355.18"/>
<polygon fill="#000000" stroke="#000000" points="190.26,-353.39 182.22,-346.49 184.21,-356.9 190.26,-353.39"/>
<text text-anchor="middle" x="239.21" y="-558.32" font-family="monospace" font-size="10.00">owns</text>
</g>
<!-- lightning_resolver::resolver::Resolver::Config&#45;&gt;lightning_resolver::config::Config -->
<g id="edge23" class="edge">
<title>lightning_resolver::resolver::Resolver::Config&#45;&gt;lightning_resolver::config::Config</title>
<path fill="none" stroke="#7f7f7f" stroke-dasharray="5,2" d="M841.75,-551.13C812.84,-567.81 770.63,-592.16 739.3,-610.23"/>
<polygon fill="#7f7f7f" stroke="#7f7f7f" points="737.28,-607.36 730.36,-615.39 740.78,-613.43 737.28,-607.36"/>
<text text-anchor="middle" x="778.03" y="-583.68" font-family="monospace" font-size="10.00">uses</text>
</g>
<!-- lightning_resolver::resolver::Resolver::OriginFinder&#45;&gt;lightning_resolver::origin_finder::OriginFinder -->
<g id="edge24" class="edge">
<title>lightning_resolver::resolver::Resolver::OriginFinder&#45;&gt;lightning_resolver::origin_finder::OriginFinder</title>
<path fill="none" stroke="#7f7f7f" stroke-dasharray="5,2" d="M934,-1190.75C940.39,-1145.32 956.43,-1031.27 964.03,-977.23"/>
<polygon fill="#7f7f7f" stroke="#7f7f7f" points="967.51,-977.65 965.43,-967.26 960.58,-976.68 967.51,-977.65"/>
<text text-anchor="middle" x="936.52" y="-1086.99" font-family="monospace" font-size="10.00">uses</text>
</g>
<!-- lightning_resolver::resolver::Resolver::get_blake3_hash&#45;&gt;lightning_resolver::resolver::Resolver -->
<g id="edge25" class="edge">
<title>lightning_resolver::resolver::Resolver::get_blake3_hash&#45;&gt;lightning_resolver::resolver::Resolver</title>
<path fill="none" stroke="#7f7f7f" stroke-dasharray="5,2" d="M462.98,-1189.25C460.54,-1119.8 382.15,-883.74 336.45,-802.23"/>
<polygon fill="#7f7f7f" stroke="#7f7f7f" points="339.41,-800.35 331.32,-793.51 333.38,-803.9 339.41,-800.35"/>
<text text-anchor="middle" x="387.22" y="-998.74" font-family="monospace" font-size="10.00">uses</text>
</g>
<!-- lightning_resolver::resolver::Resolver::get_origin_finder&#45;&gt;lightning_resolver::origin_finder::OriginFinder -->
<g id="edge26" class="edge">
<title>lightning_resolver::resolver::Resolver::get_origin_finder&#45;&gt;lightning_resolver::origin_finder::OriginFinder</title>
<path fill="none" stroke="#7f7f7f" stroke-dasharray="5,2" d="M716.36,-1231.58C762.86,-1179.2 890.97,-1034.9 944.33,-974.79"/>
<polygon fill="#7f7f7f" stroke="#7f7f7f" points="947.03,-977.02 951.05,-967.22 941.8,-972.37 947.03,-977.02"/>
<text text-anchor="middle" x="817.84" y="-1106.19" font-family="monospace" font-size="10.00">uses</text>
</g>
<!-- lightning_resolver::resolver::Resolver::get_origin_finder&#45;&gt;lightning_resolver::resolver::Resolver -->
<g id="edge27" class="edge">
<title>lightning_resolver::resolver::Resolver::get_origin_finder&#45;&gt;lightning_resolver::resolver::Resolver</title>
<path fill="none" stroke="#7f7f7f" stroke-dasharray="5,2" d="M695.99,-1231.94C661.77,-1156.3 444.44,-886.52 351.57,-800.37"/>
<polygon fill="#7f7f7f" stroke="#7f7f7f" points="353.8,-797.67 344.04,-793.55 349.1,-802.85 353.8,-797.67"/>
<text text-anchor="middle" x="511.28" y="-1019.16" font-family="monospace" font-size="10.00">uses</text>
</g>
<!-- lightning_resolver::resolver::Resolver::get_origins&#45;&gt;lightning_resolver::resolver::Resolver -->
<g id="edge28" class="edge">
<title>lightning_resolver::resolver::Resolver::get_origins&#45;&gt;lightning_resolver::resolver::Resolver</title>
<path fill="none" stroke="#7f7f7f" stroke-dasharray="5,2" d="M302.82,-1084.77C323.66,-1029.6 335.78,-870.02 325.04,-803.81"/>
<polygon fill="#7f7f7f" stroke="#7f7f7f" points="328.41,-802.79 323.03,-793.66 321.54,-804.15 328.41,-802.79"/>
<text text-anchor="middle" x="326.43" y="-947.29" font-family="monospace" font-size="10.00">uses</text>
</g>
<!-- lightning_resolver::resolver::Resolver::init&#45;&gt;lightning_resolver::config::Config -->
<g id="edge29" class="edge">
<title>lightning_resolver::resolver::Resolver::init&#45;&gt;lightning_resolver::config::Config</title>
<path fill="none" stroke="#7f7f7f" stroke-dasharray="5,2" d="M818.5,-613.13C798.3,-616.69 776.97,-620.44 757.92,-623.8"/>
<polygon fill="#7f7f7f" stroke="#7f7f7f" points="757.14,-620.38 747.9,-625.56 758.35,-627.27 757.14,-620.38"/>
<text text-anchor="middle" x="775.71" y="-621.46" font-family="monospace" font-size="10.00">uses</text>
</g>
<!-- lightning_resolver::resolver::Resolver::init&#45;&gt;lightning_resolver::resolver::Resolver -->
<g id="edge30" class="edge">
<title>lightning_resolver::resolver::Resolver::init&#45;&gt;lightning_resolver::resolver::Resolver</title>
<path fill="none" stroke="#7f7f7f" stroke-dasharray="5,2" d="M818.41,-603.44C686.58,-629.8 431.15,-707.85 342.35,-750.93"/>
<polygon fill="#7f7f7f" stroke="#7f7f7f" points="340.67,-747.86 333.32,-755.49 343.83,-754.11 340.67,-747.86"/>
<text text-anchor="middle" x="592.88" y="-669.18" font-family="monospace" font-size="10.00">uses</text>
</g>
<!-- lightning_resolver::resolver::Resolver::init&#45;&gt;lightning_resolver::resolver::ResolverInner -->
<g id="edge31" class="edge">
<title>lightning_resolver::resolver::Resolver::init&#45;&gt;lightning_resolver::resolver::ResolverInner</title>
<path fill="none" stroke="#7f7f7f" stroke-dasharray="5,2" d="M888.81,-579.88C855.52,-518.5 750.97,-325.76 711.58,-253.15"/>
<polygon fill="#7f7f7f" stroke="#7f7f7f" points="714.53,-251.24 706.68,-244.12 708.38,-254.58 714.53,-251.24"/>
<text text-anchor="middle" x="787.7" y="-419.51" font-family="monospace" font-size="10.00">uses</text>
</g>
<!-- lightning_resolver::resolver::Resolver::is_running&#45;&gt;lightning_resolver::resolver::Resolver -->
<g id="edge32" class="edge">
<title>lightning_resolver::resolver::Resolver::is_running&#45;&gt;lightning_resolver::resolver::Resolver</title>
<path fill="none" stroke="#7f7f7f" stroke-dasharray="5,2" d="M208.72,-922.53C245.81,-892.64 292.31,-838.13 308.5,-803.46"/>
<polygon fill="#7f7f7f" stroke="#7f7f7f" points="311.89,-804.4 312.37,-793.82 305.39,-801.8 311.89,-804.4"/>
<text text-anchor="middle" x="246.11" y="-865.99" font-family="monospace" font-size="10.00">uses</text>
</g>
<!-- lightning_resolver::resolver::Resolver::publish&#45;&gt;lightning_resolver::resolver::Resolver -->
<g id="edge33" class="edge">
<title>lightning_resolver::resolver::Resolver::publish&#45;&gt;lightning_resolver::resolver::Resolver</title>
<path fill="none" stroke="#7f7f7f" stroke-dasharray="5,2" d="M109.9,-760.27C137.41,-774.54 192.5,-785.99 238.1,-788.96"/>
<polygon fill="#7f7f7f" stroke="#7f7f7f" points="238.11,-792.47 248.27,-789.49 238.47,-785.47 238.11,-792.47"/>
<text text-anchor="middle" x="161.5" y="-777.62" font-family="monospace" font-size="10.00">uses</text>
</g>
<!-- lightning_resolver::resolver::Resolver::shutdown&#45;&gt;lightning_resolver::resolver::Resolver -->
<g id="edge34" class="edge">
<title>lightning_resolver::resolver::Resolver::shutdown&#45;&gt;lightning_resolver::resolver::Resolver</title>
<path fill="none" stroke="#7f7f7f" stroke-dasharray="5,2" d="M93.39,-547.12C111.4,-592.36 201.85,-698.55 261.16,-748.82"/>
<polygon fill="#7f7f7f" stroke="#7f7f7f" points="259.01,-751.59 268.95,-755.25 263.46,-746.18 259.01,-751.59"/>
<text text-anchor="middle" x="164.77" y="-650.97" font-family="monospace" font-size="10.00">uses</text>
</g>
<!-- lightning_resolver::resolver::Resolver::start&#45;&gt;lightning_resolver::resolver::Resolver -->
<g id="edge35" class="edge">
<title>lightning_resolver::resolver::Resolver::start&#45;&gt;lightning_resolver::resolver::Resolver</title>
<path fill="none" stroke="#7f7f7f" stroke-dasharray="5,2" d="M157.33,-346.46C159.63,-417.26 240.06,-663.22 286.23,-746.73"/>
<polygon fill="#7f7f7f" stroke="#7f7f7f" points="283.23,-748.53 291.28,-755.42 289.28,-745.01 283.23,-748.53"/>
<text text-anchor="middle" x="209.28" y="-549.59" font-family="monospace" font-size="10.00">uses</text>
</g>
<!-- lightning_resolver::resolver::ResolverInner::get_blake3_hash -->
<g id="node19" class="node">
<title>lightning_resolver::resolver::ResolverInner::get_blake3_hash</title>
<polygon fill="#db5367" stroke="black" points="166.28,-145.71 166.28,-183.71 423.28,-183.71 423.28,-145.71 166.28,-145.71"/>
<text text-anchor="middle" x="294.78" y="-171.71" font-family="monospace" font-size="10.00">pub(self) async fn</text>
<polyline fill="none" stroke="black" points="166.28,-164.71 423.28,-164.71 "/>
<text text-anchor="middle" x="294.78" y="-152.71" font-family="monospace" font-size="10.00">resolver::ResolverInner::get_blake3_hash</text>
</g>
<!-- lightning_resolver::resolver::ResolverInner&#45;&gt;lightning_resolver::resolver::ResolverInner::get_blake3_hash -->
<g id="edge36" class="edge">
<title>lightning_resolver::resolver::ResolverInner&#45;&gt;lightning_resolver::resolver::ResolverInner::get_blake3_hash</title>
<path fill="none" stroke="#000000" d="M669.38,-206C621.59,-187.92 519.14,-168.88 433.44,-159.61"/>
<polygon fill="#000000" stroke="#000000" points="433.65,-156.12 423.34,-158.56 432.92,-163.08 433.65,-156.12"/>
<text text-anchor="middle" x="538.91" y="-185.81" font-family="monospace" font-size="10.00">owns</text>
</g>
<!-- lightning_resolver::resolver::ResolverInner::get_origins -->
<g id="node20" class="node">
<title>lightning_resolver::resolver::ResolverInner::get_origins</title>
<polygon fill="#db5367" stroke="black" points="356.06,-40.88 356.06,-78.88 589.06,-78.88 589.06,-40.88 356.06,-40.88"/>
<text text-anchor="middle" x="472.56" y="-66.88" font-family="monospace" font-size="10.00">pub(self) fn</text>
<polyline fill="none" stroke="black" points="356.06,-59.88 589.06,-59.88 "/>
<text text-anchor="middle" x="472.56" y="-47.88" font-family="monospace" font-size="10.00">resolver::ResolverInner::get_origins</text>
</g>
<!-- lightning_resolver::resolver::ResolverInner&#45;&gt;lightning_resolver::resolver::ResolverInner::get_origins -->
<g id="edge37" class="edge">
<title>lightning_resolver::resolver::ResolverInner&#45;&gt;lightning_resolver::resolver::ResolverInner::get_origins</title>
<path fill="none" stroke="#000000" d="M692.31,-206.08C672.41,-174.44 602.26,-118 546.2,-84.22"/>
<polygon fill="#000000" stroke="#000000" points="547.72,-81.06 537.33,-79 544.17,-87.09 547.72,-81.06"/>
<text text-anchor="middle" x="606.76" y="-148.15" font-family="monospace" font-size="10.00">owns</text>
</g>
<!-- lightning_resolver::resolver::ResolverInner::publish -->
<g id="node21" class="node">
<title>lightning_resolver::resolver::ResolverInner::publish</title>
<polygon fill="#db5367" stroke="black" points="597.09,-0.5 597.09,-38.5 806.09,-38.5 806.09,-0.5 597.09,-0.5"/>
<text text-anchor="middle" x="701.59" y="-26.5" font-family="monospace" font-size="10.00">pub(self) async fn</text>
<polyline fill="none" stroke="black" points="597.09,-19.5 806.09,-19.5 "/>
<text text-anchor="middle" x="701.59" y="-7.5" font-family="monospace" font-size="10.00">resolver::ResolverInner::publish</text>
</g>
<!-- lightning_resolver::resolver::ResolverInner&#45;&gt;lightning_resolver::resolver::ResolverInner::publish -->
<g id="edge38" class="edge">
<title>lightning_resolver::resolver::ResolverInner&#45;&gt;lightning_resolver::resolver::ResolverInner::publish</title>
<path fill="none" stroke="#000000" d="M713.58,-205.81C727.28,-169.55 730.14,-91.06 720.2,-48.44"/>
<polygon fill="#000000" stroke="#000000" points="723.54,-47.37 717.48,-38.68 716.79,-49.25 723.54,-47.37"/>
<text text-anchor="middle" x="704.39" y="-130.13" font-family="monospace" font-size="10.00">owns</text>
</g>
<!-- lightning_resolver::resolver::ResolverInner::start -->
<g id="node22" class="node">
<title>lightning_resolver::resolver::ResolverInner::start</title>
<polygon fill="#db5367" stroke="black" points="814.18,-37.74 814.18,-75.74 1011.18,-75.74 1011.18,-37.74 814.18,-37.74"/>
<text text-anchor="middle" x="912.68" y="-63.74" font-family="monospace" font-size="10.00">pub(self) async fn</text>
<polyline fill="none" stroke="black" points="814.18,-56.74 1011.18,-56.74 "/>
<text text-anchor="middle" x="912.68" y="-44.74" font-family="monospace" font-size="10.00">resolver::ResolverInner::start</text>
</g>
<!-- lightning_resolver::resolver::ResolverInner&#45;&gt;lightning_resolver::resolver::ResolverInner::start -->
<g id="edge39" class="edge">
<title>lightning_resolver::resolver::ResolverInner&#45;&gt;lightning_resolver::resolver::ResolverInner::start</title>
<path fill="none" stroke="#000000" d="M758.14,-205.97C809.62,-175.1 877.7,-119.27 903.62,-84.19"/>
<polygon fill="#000000" stroke="#000000" points="906.62,-86 909.27,-75.75 900.8,-82.11 906.62,-86"/>
<text text-anchor="middle" x="818.38" y="-148.08" font-family="monospace" font-size="10.00">owns</text>
</g>
<!-- lightning_resolver::resolver::ResolverInner::store_mapping -->
<g id="node23" class="node">
<title>lightning_resolver::resolver::ResolverInner::store_mapping</title>
<polygon fill="#db5367" stroke="black" points="974.72,-145.08 974.72,-183.08 1219.72,-183.08 1219.72,-145.08 974.72,-145.08"/>
<text text-anchor="middle" x="1097.22" y="-171.08" font-family="monospace" font-size="10.00">pub(self) fn</text>
<polyline fill="none" stroke="black" points="974.72,-164.08 1219.72,-164.08 "/>
<text text-anchor="middle" x="1097.22" y="-152.08" font-family="monospace" font-size="10.00">resolver::ResolverInner::store_mapping</text>
</g>
<!-- lightning_resolver::resolver::ResolverInner&#45;&gt;lightning_resolver::resolver::ResolverInner::store_mapping -->
<g id="edge40" class="edge">
<title>lightning_resolver::resolver::ResolverInner&#45;&gt;lightning_resolver::resolver::ResolverInner::store_mapping</title>
<path fill="none" stroke="#000000" d="M774.13,-213.27C828.16,-205.04 901.51,-193.87 964.67,-184.26"/>
<polygon fill="#000000" stroke="#000000" points="965.35,-187.69 974.71,-182.73 964.3,-180.77 965.35,-187.69"/>
<text text-anchor="middle" x="856.9" y="-201.76" font-family="monospace" font-size="10.00">owns</text>
</g>
<!-- lightning_resolver::resolver::ResolverInner::get_blake3_hash&#45;&gt;lightning_resolver::resolver::ResolverInner -->
<g id="edge41" class="edge">
<title>lightning_resolver::resolver::ResolverInner::get_blake3_hash&#45;&gt;lightning_resolver::resolver::ResolverInner</title>
<path fill="none" stroke="#7f7f7f" stroke-dasharray="5,2" d="M321.77,-183.82C379.59,-205.68 517.41,-228.96 608.79,-234.65"/>
<polygon fill="#7f7f7f" stroke="#7f7f7f" points="608.69,-238.15 618.87,-235.21 609.08,-231.16 608.69,-238.15"/>
<text text-anchor="middle" x="452.78" y="-212.23" font-family="monospace" font-size="10.00">uses</text>
</g>
<!-- lightning_resolver::resolver::ResolverInner::get_origins&#45;&gt;lightning_resolver::resolver::ResolverInner -->
<g id="edge42" class="edge">
<title>lightning_resolver::resolver::ResolverInner::get_origins&#45;&gt;lightning_resolver::resolver::ResolverInner</title>
<path fill="none" stroke="#7f7f7f" stroke-dasharray="5,2" d="M476.62,-78.91C496.53,-110.54 566.67,-166.99 622.74,-200.76"/>
<polygon fill="#7f7f7f" stroke="#7f7f7f" points="621.21,-203.93 631.61,-205.98 624.76,-197.89 621.21,-203.93"/>
<text text-anchor="middle" x="537.18" y="-142.84" font-family="monospace" font-size="10.00">uses</text>
</g>
<!-- lightning_resolver::resolver::ResolverInner::publish&#45;&gt;lightning_resolver::resolver::ResolverInner -->
<g id="edge43" class="edge">
<title>lightning_resolver::resolver::ResolverInner::publish&#45;&gt;lightning_resolver::resolver::ResolverInner</title>
<path fill="none" stroke="#7f7f7f" stroke-dasharray="5,2" d="M684.38,-38.79C670.68,-75.05 667.81,-153.55 677.75,-196.16"/>
<polygon fill="#7f7f7f" stroke="#7f7f7f" points="674.42,-197.24 680.48,-205.93 681.16,-195.36 674.42,-197.24"/>
<text text-anchor="middle" x="668.57" y="-120.48" font-family="monospace" font-size="10.00">uses</text>
</g>
<!-- lightning_resolver::resolver::ResolverInner::start&#45;&gt;lightning_resolver::resolver::ResolverInner -->
<g id="edge44" class="edge">
<title>lightning_resolver::resolver::ResolverInner::start&#45;&gt;lightning_resolver::resolver::ResolverInner</title>
<path fill="none" stroke="#7f7f7f" stroke-dasharray="5,2" d="M850.91,-75.88C799.42,-106.75 731.34,-162.58 705.42,-197.66"/>
<polygon fill="#7f7f7f" stroke="#7f7f7f" points="702.43,-195.85 699.78,-206.1 708.25,-199.74 702.43,-195.85"/>
<text text-anchor="middle" x="765.67" y="-139.77" font-family="monospace" font-size="10.00">uses</text>
</g>
</g>
</svg>
