<?xml version="1.0" encoding="UTF-8" standalone="no"?>
<!DOCTYPE svg PUBLIC "-//W3C//DTD SVG 1.1//EN"
 "http://www.w3.org/Graphics/SVG/1.1/DTD/svg11.dtd">
<!-- Generated by graphviz version 4.0.0 (0)
 -->
<!-- Pages: 1 -->
<svg width="1822pt" height="903pt"
 viewBox="0.00 0.00 1821.89 903.16" xmlns="http://www.w3.org/2000/svg" xmlns:xlink="http://www.w3.org/1999/xlink">
<g id="graph0" class="graph" transform="scale(1 1) rotate(0) translate(28.8 874.36)">
<polygon fill="white" stroke="transparent" points="-28.8,28.8 -28.8,-874.36 1793.09,-874.36 1793.09,28.8 -28.8,28.8"/>
<text text-anchor="middle" x="882.14" y="-812.76" font-family="Helvetica,sans-Serif" font-size="36.00">lightning_dack_aggregator</text>
<!-- lightning_dack_aggregator -->
<g id="node1" class="node">
<title>lightning_dack_aggregator</title>
<polygon fill="#5397c8" stroke="black" points="649.22,-212.02 649.22,-250.02 816.22,-250.02 816.22,-212.02 649.22,-212.02"/>
<text text-anchor="middle" x="732.72" y="-238.02" font-family="monospace" font-size="10.00">crate</text>
<polyline fill="none" stroke="black" points="649.22,-231.02 816.22,-231.02 "/>
<text text-anchor="middle" x="732.72" y="-219.02" font-family="monospace" font-size="10.00">lightning_dack_aggregator</text>
</g>
<!-- lightning_dack_aggregator::config::Config -->
<g id="node2" class="node">
<title>lightning_dack_aggregator::config::Config</title>
<polygon fill="#81c169" stroke="black" points="466.13,-465.84 466.13,-503.84 567.13,-503.84 567.13,-465.84 466.13,-465.84"/>
<text text-anchor="middle" x="516.63" y="-491.84" font-family="monospace" font-size="10.00">pub struct</text>
<polyline fill="none" stroke="black" points="466.13,-484.84 567.13,-484.84 "/>
<text text-anchor="middle" x="516.63" y="-472.84" font-family="monospace" font-size="10.00">config::Config</text>
</g>
<!-- lightning_dack_aggregator&#45;&gt;lightning_dack_aggregator::config::Config -->
<g id="edge1" class="edge">
<title>lightning_dack_aggregator&#45;&gt;lightning_dack_aggregator::config::Config</title>
<path fill="none" stroke="#000000" d="M692.17,-250.18C637.28,-295.45 546.81,-403.5 521.19,-456.37"/>
<polygon fill="#000000" stroke="#000000" points="517.96,-455.01 517.18,-465.58 524.38,-457.8 517.96,-455.01"/>
<text text-anchor="middle" x="594.18" y="-356.28" font-family="monospace" font-size="10.00">owns</text>
</g>
<!-- lightning_dack_aggregator&#45;&gt;lightning_dack_aggregator::config::Config -->
<g id="edge2" class="edge">
<title>lightning_dack_aggregator&#45;&gt;lightning_dack_aggregator::config::Config</title>
<path fill="none" stroke="#7f7f7f" stroke-dasharray="5,2" d="M732.1,-250.45C714.53,-296.8 623.92,-407.33 565.09,-458.94"/>
<polygon fill="#7f7f7f" stroke="#7f7f7f" points="562.71,-456.37 557.37,-465.52 567.25,-461.7 562.71,-456.37"/>
<text text-anchor="middle" x="636.1" y="-357.69" font-family="monospace" font-size="10.00">uses</text>
</g>
<!-- lightning_dack_aggregator::dack_aggregator::AggregatorInner -->
<g id="node3" class="node">
<title>lightning_dack_aggregator::dack_aggregator::AggregatorInner</title>
<polygon fill="#db5367" stroke="black" points="264.24,-257.9 264.24,-295.9 473.24,-295.9 473.24,-257.9 264.24,-257.9"/>
<text text-anchor="middle" x="368.74" y="-283.9" font-family="monospace" font-size="10.00">pub(self) struct</text>
<polyline fill="none" stroke="black" points="264.24,-276.9 473.24,-276.9 "/>
<text text-anchor="middle" x="368.74" y="-264.9" font-family="monospace" font-size="10.00">dack_aggregator::AggregatorInner</text>
</g>
<!-- lightning_dack_aggregator&#45;&gt;lightning_dack_aggregator::dack_aggregator::AggregatorInner -->
<g id="edge3" class="edge">
<title>lightning_dack_aggregator&#45;&gt;lightning_dack_aggregator::dack_aggregator::AggregatorInner</title>
<path fill="none" stroke="#000000" d="M649.21,-241.55C600.01,-247.75 537.08,-255.68 483.29,-262.46"/>
<polygon fill="#000000" stroke="#000000" points="482.84,-258.99 473.36,-263.71 483.72,-265.94 482.84,-258.99"/>
<text text-anchor="middle" x="553.75" y="-255" font-family="monospace" font-size="10.00">owns</text>
</g>
<!-- lightning_dack_aggregator::dack_aggregator::DeliveryAcknowledgmentAggregator -->
<g id="node6" class="node">
<title>lightning_dack_aggregator::dack_aggregator::DeliveryAcknowledgmentAggregator</title>
<polygon fill="#81c169" stroke="black" points="1029.64,-389.48 1029.64,-427.48 1340.64,-427.48 1340.64,-389.48 1029.64,-389.48"/>
<text text-anchor="middle" x="1185.14" y="-415.48" font-family="monospace" font-size="10.00">pub struct</text>
<polyline fill="none" stroke="black" points="1029.64,-408.48 1340.64,-408.48 "/>
<text text-anchor="middle" x="1185.14" y="-396.48" font-family="monospace" font-size="10.00">dack_aggregator::DeliveryAcknowledgmentAggregator</text>
</g>
<!-- lightning_dack_aggregator&#45;&gt;lightning_dack_aggregator::dack_aggregator::DeliveryAcknowledgmentAggregator -->
<g id="edge4" class="edge">
<title>lightning_dack_aggregator&#45;&gt;lightning_dack_aggregator::dack_aggregator::DeliveryAcknowledgmentAggregator</title>
<path fill="none" stroke="#000000" d="M748.63,-250.21C798.46,-285.48 952.8,-350.19 1063.89,-386.39"/>
<polygon fill="#000000" stroke="#000000" points="1062.89,-389.75 1073.49,-389.48 1065.04,-383.09 1062.89,-389.75"/>
<text text-anchor="middle" x="893.76" y="-321.3" font-family="monospace" font-size="10.00">owns</text>
</g>
<!-- lightning_dack_aggregator&#45;&gt;lightning_dack_aggregator::dack_aggregator::DeliveryAcknowledgmentAggregator -->
<g id="edge5" class="edge">
<title>lightning_dack_aggregator&#45;&gt;lightning_dack_aggregator::dack_aggregator::DeliveryAcknowledgmentAggregator</title>
<path fill="none" stroke="#7f7f7f" stroke-dasharray="5,2" d="M816.29,-241.47C921.69,-271.98 1096.56,-342.93 1160.79,-383.67"/>
<polygon fill="#7f7f7f" stroke="#7f7f7f" points="1159.18,-386.8 1169.44,-389.45 1163.07,-380.98 1159.18,-386.8"/>
<text text-anchor="middle" x="976.04" y="-315.57" font-family="monospace" font-size="10.00">uses</text>
</g>
<!-- lightning_dack_aggregator::dack_aggregator::AggregatorInner&#45;&gt;lightning_dack_aggregator::config::Config -->
<g id="edge6" class="edge">
<title>lightning_dack_aggregator::dack_aggregator::AggregatorInner&#45;&gt;lightning_dack_aggregator::config::Config</title>
<path fill="none" stroke="#7f7f7f" stroke-dasharray="5,2" d="M382.39,-296.09C408.75,-333.15 466.73,-414.68 497.14,-457.44"/>
<polygon fill="#7f7f7f" stroke="#7f7f7f" points="494.37,-459.58 503.01,-465.7 500.07,-455.52 494.37,-459.58"/>
<text text-anchor="middle" x="427.26" y="-379.76" font-family="monospace" font-size="10.00">uses</text>
</g>
<!-- lightning_dack_aggregator::dack_aggregator::AggregatorInner::new -->
<g id="node4" class="node">
<title>lightning_dack_aggregator::dack_aggregator::AggregatorInner::new</title>
<polygon fill="#db5367" stroke="black" points="94.54,-579.75 94.54,-617.75 333.54,-617.75 333.54,-579.75 94.54,-579.75"/>
<text text-anchor="middle" x="214.04" y="-605.75" font-family="monospace" font-size="10.00">pub(self) fn</text>
<polyline fill="none" stroke="black" points="94.54,-598.75 333.54,-598.75 "/>
<text text-anchor="middle" x="214.04" y="-586.75" font-family="monospace" font-size="10.00">dack_aggregator::AggregatorInner::new</text>
</g>
<!-- lightning_dack_aggregator::dack_aggregator::AggregatorInner&#45;&gt;lightning_dack_aggregator::dack_aggregator::AggregatorInner::new -->
<g id="edge7" class="edge">
<title>lightning_dack_aggregator::dack_aggregator::AggregatorInner&#45;&gt;lightning_dack_aggregator::dack_aggregator::AggregatorInner::new</title>
<path fill="none" stroke="#000000" d="M342.36,-295.98C298.85,-350.55 225.2,-504.39 211.74,-569.56"/>
<polygon fill="#000000" stroke="#000000" points="208.26,-569.15 210.07,-579.59 215.17,-570.3 208.26,-569.15"/>
<text text-anchor="middle" x="264.55" y="-435.77" font-family="monospace" font-size="10.00">owns</text>
</g>
<!-- lightning_dack_aggregator::dack_aggregator::AggregatorInner::start -->
<g id="node5" class="node">
<title>lightning_dack_aggregator::dack_aggregator::AggregatorInner::start</title>
<polygon fill="#db5367" stroke="black" points="0,-257.11 0,-295.11 251,-295.11 251,-257.11 0,-257.11"/>
<text text-anchor="middle" x="125.5" y="-283.11" font-family="monospace" font-size="10.00">pub(self) async fn</text>
<polyline fill="none" stroke="black" points="0,-276.11 251,-276.11 "/>
<text text-anchor="middle" x="125.5" y="-264.11" font-family="monospace" font-size="10.00">dack_aggregator::AggregatorInner::start</text>
</g>
<!-- lightning_dack_aggregator::dack_aggregator::AggregatorInner&#45;&gt;lightning_dack_aggregator::dack_aggregator::AggregatorInner::start -->
<g id="edge8" class="edge">
<title>lightning_dack_aggregator::dack_aggregator::AggregatorInner&#45;&gt;lightning_dack_aggregator::dack_aggregator::AggregatorInner::start</title>
<path fill="none" stroke="#000000" d="M337,-257.87C293.87,-247.76 216.62,-246.77 168.37,-255.1"/>
<polygon fill="#000000" stroke="#000000" points="167.68,-251.67 158.54,-257.02 169.02,-258.54 167.68,-251.67"/>
<text text-anchor="middle" x="240.19" y="-248.49" font-family="monospace" font-size="10.00">owns</text>
</g>
<!-- lightning_dack_aggregator::dack_aggregator::AggregatorInner::new&#45;&gt;lightning_dack_aggregator::config::Config -->
<g id="edge9" class="edge">
<title>lightning_dack_aggregator::dack_aggregator::AggregatorInner::new&#45;&gt;lightning_dack_aggregator::config::Config</title>
<path fill="none" stroke="#7f7f7f" stroke-dasharray="5,2" d="M264.69,-579.69C317.57,-559.78 400.47,-528.57 456.61,-507.44"/>
<polygon fill="#7f7f7f" stroke="#7f7f7f" points="457.94,-510.67 466.07,-503.87 455.48,-504.12 457.94,-510.67"/>
<text text-anchor="middle" x="348.15" y="-546.56" font-family="monospace" font-size="10.00">uses</text>
</g>
<!-- lightning_dack_aggregator::dack_aggregator::AggregatorInner::new&#45;&gt;lightning_dack_aggregator::dack_aggregator::AggregatorInner -->
<g id="edge10" class="edge">
<title>lightning_dack_aggregator::dack_aggregator::AggregatorInner::new&#45;&gt;lightning_dack_aggregator::dack_aggregator::AggregatorInner</title>
<path fill="none" stroke="#7f7f7f" stroke-dasharray="5,2" d="M240.42,-579.68C283.94,-525.1 357.59,-371.27 371.04,-306.09"/>
<polygon fill="#7f7f7f" stroke="#7f7f7f" points="374.52,-306.5 372.71,-296.06 367.62,-305.35 374.52,-306.5"/>
<text text-anchor="middle" x="293.23" y="-445.88" font-family="monospace" font-size="10.00">uses</text>
</g>
<!-- lightning_dack_aggregator::dack_aggregator::AggregatorInner::start&#45;&gt;lightning_dack_aggregator::config::Config -->
<g id="edge11" class="edge">
<title>lightning_dack_aggregator::dack_aggregator::AggregatorInner::start&#45;&gt;lightning_dack_aggregator::config::Config</title>
<path fill="none" stroke="#7f7f7f" stroke-dasharray="5,2" d="M161.25,-295.18C232.74,-333.34 393.19,-418.96 471.67,-460.85"/>
<polygon fill="#7f7f7f" stroke="#7f7f7f" points="470.35,-464.11 480.82,-465.73 473.65,-457.94 470.35,-464.11"/>
<text text-anchor="middle" x="303.96" y="-381.02" font-family="monospace" font-size="10.00">uses</text>
</g>
<!-- lightning_dack_aggregator::dack_aggregator::AggregatorInner::start&#45;&gt;lightning_dack_aggregator::dack_aggregator::AggregatorInner -->
<g id="edge12" class="edge">
<title>lightning_dack_aggregator::dack_aggregator::AggregatorInner::start&#45;&gt;lightning_dack_aggregator::dack_aggregator::AggregatorInner</title>
<path fill="none" stroke="#7f7f7f" stroke-dasharray="5,2" d="M157.24,-295.14C200.37,-305.24 277.62,-306.24 325.87,-297.91"/>
<polygon fill="#7f7f7f" stroke="#7f7f7f" points="326.56,-301.34 335.7,-295.99 325.22,-294.47 326.56,-301.34"/>
<text text-anchor="middle" x="229.05" y="-299.52" font-family="monospace" font-size="10.00">uses</text>
</g>
<!-- lightning_dack_aggregator::dack_aggregator::DeliveryAcknowledgmentAggregator::Config -->
<g id="node7" class="node">
<title>lightning_dack_aggregator::dack_aggregator::DeliveryAcknowledgmentAggregator::Config</title>
<polygon fill="#db5367" stroke="black" points="677.58,-688.97 677.58,-726.97 1036.58,-726.97 1036.58,-688.97 677.58,-688.97"/>
<text text-anchor="middle" x="857.08" y="-714.97" font-family="monospace" font-size="10.00">pub(self) type</text>
<polyline fill="none" stroke="black" points="677.58,-707.97 1036.58,-707.97 "/>
<text text-anchor="middle" x="857.08" y="-695.97" font-family="monospace" font-size="10.00">dack_aggregator::DeliveryAcknowledgmentAggregator::Config</text>
</g>
<!-- lightning_dack_aggregator::dack_aggregator::DeliveryAcknowledgmentAggregator&#45;&gt;lightning_dack_aggregator::dack_aggregator::DeliveryAcknowledgmentAggregator::Config -->
<g id="edge13" class="edge">
<title>lightning_dack_aggregator::dack_aggregator::DeliveryAcknowledgmentAggregator&#45;&gt;lightning_dack_aggregator::dack_aggregator::DeliveryAcknowledgmentAggregator::Config</title>
<path fill="none" stroke="#000000" d="M1164.12,-427.67C1107.18,-479.65 949.92,-623.22 885.33,-682.18"/>
<polygon fill="#000000" stroke="#000000" points="882.95,-679.61 877.93,-688.94 887.67,-684.78 882.95,-679.61"/>
<text text-anchor="middle" x="1012.23" y="-557.93" font-family="monospace" font-size="10.00">owns</text>
</g>
<!-- lightning_dack_aggregator::dack_aggregator::DeliveryAcknowledgmentAggregator::init -->
<g id="node8" class="node">
<title>lightning_dack_aggregator::dack_aggregator::DeliveryAcknowledgmentAggregator::init</title>
<polygon fill="#db5367" stroke="black" points="702.89,-436.49 702.89,-474.49 1049.89,-474.49 1049.89,-436.49 702.89,-436.49"/>
<text text-anchor="middle" x="876.39" y="-462.49" font-family="monospace" font-size="10.00">pub(self) fn</text>
<polyline fill="none" stroke="black" points="702.89,-455.49 1049.89,-455.49 "/>
<text text-anchor="middle" x="876.39" y="-443.49" font-family="monospace" font-size="10.00">dack_aggregator::DeliveryAcknowledgmentAggregator::init</text>
</g>
<!-- lightning_dack_aggregator::dack_aggregator::DeliveryAcknowledgmentAggregator&#45;&gt;lightning_dack_aggregator::dack_aggregator::DeliveryAcknowledgmentAggregator::init -->
<g id="edge14" class="edge">
<title>lightning_dack_aggregator::dack_aggregator::DeliveryAcknowledgmentAggregator&#45;&gt;lightning_dack_aggregator::dack_aggregator::DeliveryAcknowledgmentAggregator::init</title>
<path fill="none" stroke="#000000" d="M1029.42,-404.89C983.36,-411.77 937.46,-421.87 908.11,-432.69"/>
<polygon fill="#000000" stroke="#000000" points="906.82,-429.44 898.81,-436.38 909.4,-435.94 906.82,-429.44"/>
<text text-anchor="middle" x="956.26" y="-421.79" font-family="monospace" font-size="10.00">owns</text>
</g>
<!-- lightning_dack_aggregator::dack_aggregator::DeliveryAcknowledgmentAggregator::is_running -->
<g id="node9" class="node">
<title>lightning_dack_aggregator::dack_aggregator::DeliveryAcknowledgmentAggregator::is_running</title>
<polygon fill="#db5367" stroke="black" points="1334.08,-150.2 1334.08,-188.2 1717.08,-188.2 1717.08,-150.2 1334.08,-150.2"/>
<text text-anchor="middle" x="1525.58" y="-176.2" font-family="monospace" font-size="10.00">pub(self) fn</text>
<polyline fill="none" stroke="black" points="1334.08,-169.2 1717.08,-169.2 "/>
<text text-anchor="middle" x="1525.58" y="-157.2" font-family="monospace" font-size="10.00">dack_aggregator::DeliveryAcknowledgmentAggregator::is_running</text>
</g>
<!-- lightning_dack_aggregator::dack_aggregator::DeliveryAcknowledgmentAggregator&#45;&gt;lightning_dack_aggregator::dack_aggregator::DeliveryAcknowledgmentAggregator::is_running -->
<g id="edge15" class="edge">
<title>lightning_dack_aggregator::dack_aggregator::DeliveryAcknowledgmentAggregator&#45;&gt;lightning_dack_aggregator::dack_aggregator::DeliveryAcknowledgmentAggregator::is_running</title>
<path fill="none" stroke="#000000" d="M1246.77,-389.39C1328.55,-345.6 1466.6,-246.25 1511.73,-196.22"/>
<polygon fill="#000000" stroke="#000000" points="1514.6,-198.24 1518.37,-188.34 1509.25,-193.73 1514.6,-198.24"/>
<text text-anchor="middle" x="1366.75" y="-295.81" font-family="monospace" font-size="10.00">owns</text>
</g>
<!-- lightning_dack_aggregator::dack_aggregator::DeliveryAcknowledgmentAggregator::shutdown -->
<g id="node10" class="node">
<title>lightning_dack_aggregator::dack_aggregator::DeliveryAcknowledgmentAggregator::shutdown</title>
<polygon fill="#db5367" stroke="black" points="1021.31,-0.5 1021.31,-38.5 1392.31,-38.5 1392.31,-0.5 1021.31,-0.5"/>
<text text-anchor="middle" x="1206.81" y="-26.5" font-family="monospace" font-size="10.00">pub(self) async fn</text>
<polyline fill="none" stroke="black" points="1021.31,-19.5 1392.31,-19.5 "/>
<text text-anchor="middle" x="1206.81" y="-7.5" font-family="monospace" font-size="10.00">dack_aggregator::DeliveryAcknowledgmentAggregator::shutdown</text>
</g>
<!-- lightning_dack_aggregator::dack_aggregator::DeliveryAcknowledgmentAggregator&#45;&gt;lightning_dack_aggregator::dack_aggregator::DeliveryAcknowledgmentAggregator::shutdown -->
<g id="edge16" class="edge">
<title>lightning_dack_aggregator::dack_aggregator::DeliveryAcknowledgmentAggregator&#45;&gt;lightning_dack_aggregator::dack_aggregator::DeliveryAcknowledgmentAggregator::shutdown</title>
<path fill="none" stroke="#000000" d="M1198.97,-389.37C1220.76,-326.34 1232.71,-124.86 1220.13,-48.87"/>
<polygon fill="#000000" stroke="#000000" points="1223.48,-47.73 1218.1,-38.6 1216.61,-49.09 1223.48,-47.73"/>
<text text-anchor="middle" x="1197.05" y="-222.12" font-family="monospace" font-size="10.00">owns</text>
</g>
<!-- lightning_dack_aggregator::dack_aggregator::DeliveryAcknowledgmentAggregator::socket -->
<g id="node11" class="node">
<title>lightning_dack_aggregator::dack_aggregator::DeliveryAcknowledgmentAggregator::socket</title>
<polygon fill="#db5367" stroke="black" points="1405.29,-493.06 1405.29,-531.06 1764.29,-531.06 1764.29,-493.06 1405.29,-493.06"/>
<text text-anchor="middle" x="1584.79" y="-519.06" font-family="monospace" font-size="10.00">pub(self) fn</text>
<polyline fill="none" stroke="black" points="1405.29,-512.06 1764.29,-512.06 "/>
<text text-anchor="middle" x="1584.79" y="-500.06" font-family="monospace" font-size="10.00">dack_aggregator::DeliveryAcknowledgmentAggregator::socket</text>
</g>
<!-- lightning_dack_aggregator::dack_aggregator::DeliveryAcknowledgmentAggregator&#45;&gt;lightning_dack_aggregator::dack_aggregator::DeliveryAcknowledgmentAggregator::socket -->
<g id="edge17" class="edge">
<title>lightning_dack_aggregator::dack_aggregator::DeliveryAcknowledgmentAggregator&#45;&gt;lightning_dack_aggregator::dack_aggregator::DeliveryAcknowledgmentAggregator::socket</title>
<path fill="none" stroke="#000000" d="M1204.97,-427.57C1240.71,-446.88 1319.02,-471.79 1395.32,-490.76"/>
<polygon fill="#000000" stroke="#000000" points="1394.55,-494.17 1405.09,-493.15 1396.21,-487.37 1394.55,-494.17"/>
<text text-anchor="middle" x="1287.64" y="-462.16" font-family="monospace" font-size="10.00">owns</text>
</g>
<!-- lightning_dack_aggregator::dack_aggregator::DeliveryAcknowledgmentAggregator::start -->
<g id="node12" class="node">
<title>lightning_dack_aggregator::dack_aggregator::DeliveryAcknowledgmentAggregator::start</title>
<polygon fill="#db5367" stroke="black" points="1181.85,-759.06 1181.85,-797.06 1534.85,-797.06 1534.85,-759.06 1181.85,-759.06"/>
<text text-anchor="middle" x="1358.35" y="-785.06" font-family="monospace" font-size="10.00">pub(self) async fn</text>
<polyline fill="none" stroke="black" points="1181.85,-778.06 1534.85,-778.06 "/>
<text text-anchor="middle" x="1358.35" y="-766.06" font-family="monospace" font-size="10.00">dack_aggregator::DeliveryAcknowledgmentAggregator::start</text>
</g>
<!-- lightning_dack_aggregator::dack_aggregator::DeliveryAcknowledgmentAggregator&#45;&gt;lightning_dack_aggregator::dack_aggregator::DeliveryAcknowledgmentAggregator::start -->
<g id="edge18" class="edge">
<title>lightning_dack_aggregator::dack_aggregator::DeliveryAcknowledgmentAggregator&#45;&gt;lightning_dack_aggregator::dack_aggregator::DeliveryAcknowledgmentAggregator::start</title>
<path fill="none" stroke="#000000" d="M1181.64,-427.52C1189.41,-489.02 1276.46,-678.91 1327.28,-750.67"/>
<polygon fill="#000000" stroke="#000000" points="1324.53,-752.85 1333.29,-758.82 1330.17,-748.69 1324.53,-752.85"/>
<text text-anchor="middle" x="1241.96" y="-592.1" font-family="monospace" font-size="10.00">owns</text>
</g>
<!-- lightning_dack_aggregator::dack_aggregator::DeliveryAcknowledgmentAggregator::Config&#45;&gt;lightning_dack_aggregator::config::Config -->
<g id="edge19" class="edge">
<title>lightning_dack_aggregator::dack_aggregator::DeliveryAcknowledgmentAggregator::Config&#45;&gt;lightning_dack_aggregator::config::Config</title>
<path fill="none" stroke="#7f7f7f" stroke-dasharray="5,2" d="M828.05,-688.94C766.53,-648.62 623.03,-554.57 554.44,-509.62"/>
<polygon fill="#7f7f7f" stroke="#7f7f7f" points="556.35,-506.69 546.07,-504.13 552.51,-512.54 556.35,-506.69"/>
<text text-anchor="middle" x="678.75" y="-602.28" font-family="monospace" font-size="10.00">uses</text>
</g>
<!-- lightning_dack_aggregator::dack_aggregator::DeliveryAcknowledgmentAggregator::init&#45;&gt;lightning_dack_aggregator::config::Config -->
<g id="edge20" class="edge">
<title>lightning_dack_aggregator::dack_aggregator::DeliveryAcknowledgmentAggregator::init&#45;&gt;lightning_dack_aggregator::config::Config</title>
<path fill="none" stroke="#7f7f7f" stroke-dasharray="5,2" d="M702.83,-469.65C657.69,-473.33 612.03,-477.06 577.21,-479.9"/>
<polygon fill="#7f7f7f" stroke="#7f7f7f" points="576.91,-476.41 567.23,-480.71 577.48,-483.39 576.91,-476.41"/>
<text text-anchor="middle" x="627.52" y="-477.77" font-family="monospace" font-size="10.00">uses</text>
</g>
<!-- lightning_dack_aggregator::dack_aggregator::DeliveryAcknowledgmentAggregator::init&#45;&gt;lightning_dack_aggregator::dack_aggregator::DeliveryAcknowledgmentAggregator -->
<g id="edge21" class="edge">
<title>lightning_dack_aggregator::dack_aggregator::DeliveryAcknowledgmentAggregator::init&#45;&gt;lightning_dack_aggregator::dack_aggregator::DeliveryAcknowledgmentAggregator</title>
<path fill="none" stroke="#7f7f7f" stroke-dasharray="5,2" d="M1050.17,-456.22C1089.91,-449.55 1127.91,-440.69 1153.41,-431.29"/>
<polygon fill="#7f7f7f" stroke="#7f7f7f" points="1154.89,-434.47 1162.89,-427.52 1152.3,-427.96 1154.89,-434.47"/>
<text text-anchor="middle" x="1089.29" y="-446.76" font-family="monospace" font-size="10.00">uses</text>
</g>
<!-- lightning_dack_aggregator::dack_aggregator::DeliveryAcknowledgmentAggregator::is_running&#45;&gt;lightning_dack_aggregator::dack_aggregator::DeliveryAcknowledgmentAggregator -->
<g id="edge22" class="edge">
<title>lightning_dack_aggregator::dack_aggregator::DeliveryAcknowledgmentAggregator::is_running&#45;&gt;lightning_dack_aggregator::dack_aggregator::DeliveryAcknowledgmentAggregator</title>
<path fill="none" stroke="#7f7f7f" stroke-dasharray="5,2" d="M1463.95,-188.29C1382.17,-232.09 1244.12,-331.44 1198.99,-381.47"/>
<polygon fill="#7f7f7f" stroke="#7f7f7f" points="1196.12,-379.44 1192.35,-389.34 1201.47,-383.96 1196.12,-379.44"/>
<text text-anchor="middle" x="1318.97" y="-287.88" font-family="monospace" font-size="10.00">uses</text>
</g>
<!-- lightning_dack_aggregator::dack_aggregator::DeliveryAcknowledgmentAggregator::shutdown&#45;&gt;lightning_dack_aggregator::dack_aggregator::DeliveryAcknowledgmentAggregator -->
<g id="edge23" class="edge">
<title>lightning_dack_aggregator::dack_aggregator::DeliveryAcknowledgmentAggregator::shutdown&#45;&gt;lightning_dack_aggregator::dack_aggregator::DeliveryAcknowledgmentAggregator</title>
<path fill="none" stroke="#7f7f7f" stroke-dasharray="5,2" d="M1192.98,-38.62C1171.2,-101.64 1159.24,-303.13 1171.82,-379.12"/>
<polygon fill="#7f7f7f" stroke="#7f7f7f" points="1168.47,-380.26 1173.85,-389.38 1175.34,-378.89 1168.47,-380.26"/>
<text text-anchor="middle" x="1169.9" y="-211.87" font-family="monospace" font-size="10.00">uses</text>
</g>
<!-- lightning_dack_aggregator::dack_aggregator::DeliveryAcknowledgmentAggregator::socket&#45;&gt;lightning_dack_aggregator::dack_aggregator::DeliveryAcknowledgmentAggregator -->
<g id="edge24" class="edge">
<title>lightning_dack_aggregator::dack_aggregator::DeliveryAcknowledgmentAggregator::socket&#45;&gt;lightning_dack_aggregator::dack_aggregator::DeliveryAcknowledgmentAggregator</title>
<path fill="none" stroke="#7f7f7f" stroke-dasharray="5,2" d="M1564.96,-492.97C1525.51,-471.66 1434.2,-443.52 1350.97,-424.09"/>
<polygon fill="#7f7f7f" stroke="#7f7f7f" points="1351.66,-420.66 1341.13,-421.82 1350.09,-427.48 1351.66,-420.66"/>
<text text-anchor="middle" x="1445.47" y="-461.53" font-family="monospace" font-size="10.00">uses</text>
</g>
<!-- lightning_dack_aggregator::dack_aggregator::DeliveryAcknowledgmentAggregator::start&#45;&gt;lightning_dack_aggregator::dack_aggregator::DeliveryAcknowledgmentAggregator -->
<g id="edge25" class="edge">
<title>lightning_dack_aggregator::dack_aggregator::DeliveryAcknowledgmentAggregator::start&#45;&gt;lightning_dack_aggregator::dack_aggregator::DeliveryAcknowledgmentAggregator</title>
<path fill="none" stroke="#7f7f7f" stroke-dasharray="5,2" d="M1361.86,-759.03C1354.09,-697.52 1267.03,-507.64 1216.22,-435.88"/>
<polygon fill="#7f7f7f" stroke="#7f7f7f" points="1218.96,-433.7 1210.21,-427.73 1213.32,-437.85 1218.96,-433.7"/>
<text text-anchor="middle" x="1276.54" y="-600.45" font-family="monospace" font-size="10.00">uses</text>
</g>
</g>
</svg>
