<?xml version="1.0" encoding="UTF-8" standalone="no"?>
<!DOCTYPE svg PUBLIC "-//W3C//DTD SVG 1.1//EN"
 "http://www.w3.org/Graphics/SVG/1.1/DTD/svg11.dtd">
<!-- Generated by graphviz version 4.0.0 (0)
 -->
<!-- Pages: 1 -->
<svg width="1156pt" height="1064pt"
 viewBox="0.00 0.00 1156.31 1064.15" xmlns="http://www.w3.org/2000/svg" xmlns:xlink="http://www.w3.org/1999/xlink">
<g id="graph0" class="graph" transform="scale(1 1) rotate(0) translate(28.8 1035.35)">
<polygon fill="white" stroke="transparent" points="-28.8,28.8 -28.8,-1035.35 1127.51,-1035.35 1127.51,28.8 -28.8,28.8"/>
<text text-anchor="middle" x="549.36" y="-973.75" font-family="Helvetica,sans-Serif" font-size="36.00">fleek_crypto</text>
<!-- fleek_crypto -->
<g id="node1" class="node">
<title>fleek_crypto</title>
<polygon fill="#5397c8" stroke="black" points="382.49,-509.25 382.49,-547.25 471.49,-547.25 471.49,-509.25 382.49,-509.25"/>
<text text-anchor="middle" x="426.99" y="-535.25" font-family="monospace" font-size="10.00">crate</text>
<polyline fill="none" stroke="black" points="382.49,-528.25 471.49,-528.25 "/>
<text text-anchor="middle" x="426.99" y="-516.25" font-family="monospace" font-size="10.00">fleek_crypto</text>
</g>
<!-- fleek_crypto::address -->
<g id="node2" class="node">
<title>fleek_crypto::address</title>
<polygon fill="#f8c04c" stroke="black" points="458.74,-865.29 458.74,-903.29 601.74,-903.29 601.74,-865.29 458.74,-865.29"/>
<text text-anchor="middle" x="530.24" y="-891.29" font-family="monospace" font-size="10.00">pub(crate) mod</text>
<polyline fill="none" stroke="black" points="458.74,-884.29 601.74,-884.29 "/>
<text text-anchor="middle" x="530.24" y="-872.29" font-family="monospace" font-size="10.00">fleek_crypto::address</text>
</g>
<!-- fleek_crypto&#45;&gt;fleek_crypto::address -->
<g id="edge1" class="edge">
<title>fleek_crypto&#45;&gt;fleek_crypto::address</title>
<path fill="none" stroke="#000000" d="M420.07,-547.34C418.07,-606.58 468.54,-785.98 504.92,-856.04"/>
<polygon fill="#000000" stroke="#000000" points="502.06,-858.11 509.95,-865.17 508.19,-854.73 502.06,-858.11"/>
<text text-anchor="middle" x="449.99" y="-704.69" font-family="monospace" font-size="10.00">owns</text>
</g>
<!-- fleek_crypto&#45;&gt;fleek_crypto::address -->
<g id="edge2" class="edge">
<title>fleek_crypto&#45;&gt;fleek_crypto::address</title>
<path fill="none" stroke="#7f7f7f" stroke-dasharray="5,2" d="M447.29,-547.39C481.98,-606.31 533.66,-783.8 537.05,-854.74"/>
<polygon fill="#7f7f7f" stroke="#7f7f7f" points="533.55,-855.22 537.17,-865.18 540.55,-855.14 533.55,-855.22"/>
<text text-anchor="middle" x="479.67" y="-704.06" font-family="monospace" font-size="10.00">uses</text>
</g>
<!-- fleek_crypto::base58_array -->
<g id="node3" class="node">
<title>fleek_crypto::base58_array</title>
<polygon fill="#f8c04c" stroke="black" points="0,-382.74 0,-420.74 173,-420.74 173,-382.74 0,-382.74"/>
<text text-anchor="middle" x="86.5" y="-408.74" font-family="monospace" font-size="10.00">pub(crate) mod</text>
<polyline fill="none" stroke="black" points="0,-401.74 173,-401.74 "/>
<text text-anchor="middle" x="86.5" y="-389.74" font-family="monospace" font-size="10.00">fleek_crypto::base58_array</text>
</g>
<!-- fleek_crypto&#45;&gt;fleek_crypto::base58_array -->
<g id="edge3" class="edge">
<title>fleek_crypto&#45;&gt;fleek_crypto::base58_array</title>
<path fill="none" stroke="#000000" d="M382.48,-511.71C322.34,-489.37 214.92,-449.46 147.36,-424.35"/>
<polygon fill="#000000" stroke="#000000" points="148.29,-420.96 137.69,-420.76 145.85,-427.53 148.29,-420.96"/>
<text text-anchor="middle" x="252.42" y="-471.03" font-family="monospace" font-size="10.00">owns</text>
</g>
<!-- fleek_crypto::hex_array -->
<g id="node4" class="node">
<title>fleek_crypto::hex_array</title>
<polygon fill="#f8c04c" stroke="black" points="216.85,-920.05 216.85,-958.05 371.85,-958.05 371.85,-920.05 216.85,-920.05"/>
<text text-anchor="middle" x="294.35" y="-946.05" font-family="monospace" font-size="10.00">pub(crate) mod</text>
<polyline fill="none" stroke="black" points="216.85,-939.05 371.85,-939.05 "/>
<text text-anchor="middle" x="294.35" y="-927.05" font-family="monospace" font-size="10.00">fleek_crypto::hex_array</text>
</g>
<!-- fleek_crypto&#45;&gt;fleek_crypto::hex_array -->
<g id="edge4" class="edge">
<title>fleek_crypto&#45;&gt;fleek_crypto::hex_array</title>
<path fill="none" stroke="#000000" d="M420.77,-547.51C399.45,-613.55 329.22,-831.06 303.71,-910.06"/>
<polygon fill="#000000" stroke="#000000" points="300.3,-909.24 300.55,-919.83 306.96,-911.39 300.3,-909.24"/>
<text text-anchor="middle" x="349.74" y="-731.78" font-family="monospace" font-size="10.00">owns</text>
</g>
<!-- fleek_crypto::keys -->
<g id="node5" class="node">
<title>fleek_crypto::keys</title>
<polygon fill="#f8c04c" stroke="black" points="790.04,-490.24 790.04,-528.24 915.04,-528.24 915.04,-490.24 790.04,-490.24"/>
<text text-anchor="middle" x="852.54" y="-516.24" font-family="monospace" font-size="10.00">pub(crate) mod</text>
<polyline fill="none" stroke="black" points="790.04,-509.24 915.04,-509.24 "/>
<text text-anchor="middle" x="852.54" y="-497.24" font-family="monospace" font-size="10.00">fleek_crypto::keys</text>
</g>
<!-- fleek_crypto&#45;&gt;fleek_crypto::keys -->
<g id="edge5" class="edge">
<title>fleek_crypto&#45;&gt;fleek_crypto::keys</title>
<path fill="none" stroke="#000000" d="M471.73,-526.25C545.01,-522.97 691.3,-516.44 779.7,-512.49"/>
<polygon fill="#000000" stroke="#000000" points="780.08,-515.98 789.92,-512.03 779.77,-508.98 780.08,-515.98"/>
<text text-anchor="middle" x="638.21" y="-511.37" font-family="monospace" font-size="10.00">owns</text>
</g>
<!-- fleek_crypto::keys::pk -->
<g id="node6" class="node">
<title>fleek_crypto::keys::pk</title>
<polygon fill="#db5367" stroke="black" points="479.5,-519 479.5,-557 628.5,-557 628.5,-519 479.5,-519"/>
<text text-anchor="middle" x="554" y="-545" font-family="monospace" font-size="10.00">pub(self) mod</text>
<polyline fill="none" stroke="black" points="479.5,-538 628.5,-538 "/>
<text text-anchor="middle" x="554" y="-526" font-family="monospace" font-size="10.00">fleek_crypto::keys::pk</text>
</g>
<!-- fleek_crypto&#45;&gt;fleek_crypto::keys::pk -->
<g id="edge6" class="edge">
<title>fleek_crypto&#45;&gt;fleek_crypto::keys::pk</title>
<path fill="none" stroke="#7f7f7f" stroke-dasharray="5,2" d="M471.77,-531.69C471.92,-531.7 472.08,-531.71 472.23,-531.72"/>
<polygon fill="#7f7f7f" stroke="#7f7f7f" points="468.92,-534.98 479.16,-532.25 469.46,-528 468.92,-534.98"/>
<text text-anchor="middle" x="484.5" y="-534.7" font-family="monospace" font-size="10.00">uses</text>
</g>
<!-- fleek_crypto::keys::sk::account -->
<g id="node8" class="node">
<title>fleek_crypto::keys::sk::account</title>
<polygon fill="#db5367" stroke="black" points="674.41,-330.82 674.41,-368.82 877.41,-368.82 877.41,-330.82 674.41,-330.82"/>
<text text-anchor="middle" x="775.91" y="-356.82" font-family="monospace" font-size="10.00">pub(self) mod</text>
<polyline fill="none" stroke="black" points="674.41,-349.82 877.41,-349.82 "/>
<text text-anchor="middle" x="775.91" y="-337.82" font-family="monospace" font-size="10.00">fleek_crypto::keys::sk::account</text>
</g>
<!-- fleek_crypto&#45;&gt;fleek_crypto::keys::sk::account -->
<g id="edge7" class="edge">
<title>fleek_crypto&#45;&gt;fleek_crypto::keys::sk::account</title>
<path fill="none" stroke="#7f7f7f" stroke-dasharray="5,2" d="M464.33,-509.15C528.52,-476.33 659.6,-409.3 729.54,-373.54"/>
<polygon fill="#7f7f7f" stroke="#7f7f7f" points="731.26,-376.58 738.57,-368.91 728.08,-370.35 731.26,-376.58"/>
<text text-anchor="middle" x="584.43" y="-444.34" font-family="monospace" font-size="10.00">uses</text>
</g>
<!-- fleek_crypto::keys::sk::consensus -->
<g id="node9" class="node">
<title>fleek_crypto::keys::sk::consensus</title>
<polygon fill="#db5367" stroke="black" points="500.95,-146.46 500.95,-184.46 715.95,-184.46 715.95,-146.46 500.95,-146.46"/>
<text text-anchor="middle" x="608.45" y="-172.46" font-family="monospace" font-size="10.00">pub(self) mod</text>
<polyline fill="none" stroke="black" points="500.95,-165.46 715.95,-165.46 "/>
<text text-anchor="middle" x="608.45" y="-153.46" font-family="monospace" font-size="10.00">fleek_crypto::keys::sk::consensus</text>
</g>
<!-- fleek_crypto&#45;&gt;fleek_crypto::keys::sk::consensus -->
<g id="edge8" class="edge">
<title>fleek_crypto&#45;&gt;fleek_crypto::keys::sk::consensus</title>
<path fill="none" stroke="#7f7f7f" stroke-dasharray="5,2" d="M436.62,-509C466.64,-448.98 558.65,-265.02 594.21,-193.92"/>
<polygon fill="#7f7f7f" stroke="#7f7f7f" points="597.5,-195.17 598.84,-184.66 591.24,-192.04 597.5,-195.17"/>
<text text-anchor="middle" x="502.92" y="-354.46" font-family="monospace" font-size="10.00">uses</text>
</g>
<!-- fleek_crypto::keys::sk::node -->
<g id="node10" class="node">
<title>fleek_crypto::keys::sk::node</title>
<polygon fill="#db5367" stroke="black" points="593.75,-238.95 593.75,-276.95 778.75,-276.95 778.75,-238.95 593.75,-238.95"/>
<text text-anchor="middle" x="686.25" y="-264.95" font-family="monospace" font-size="10.00">pub(self) mod</text>
<polyline fill="none" stroke="black" points="593.75,-257.95 778.75,-257.95 "/>
<text text-anchor="middle" x="686.25" y="-245.95" font-family="monospace" font-size="10.00">fleek_crypto::keys::sk::node</text>
</g>
<!-- fleek_crypto&#45;&gt;fleek_crypto::keys::sk::node -->
<g id="edge9" class="edge">
<title>fleek_crypto&#45;&gt;fleek_crypto::keys::sk::node</title>
<path fill="none" stroke="#7f7f7f" stroke-dasharray="5,2" d="M445.22,-509.24C490.48,-462.05 608.1,-339.43 660.46,-284.84"/>
<polygon fill="#7f7f7f" stroke="#7f7f7f" points="663.29,-286.94 667.69,-277.3 658.24,-282.09 663.29,-286.94"/>
<text text-anchor="middle" x="540.34" y="-400.04" font-family="monospace" font-size="10.00">uses</text>
</g>
<!-- fleek_crypto::traits -->
<g id="node11" class="node">
<title>fleek_crypto::traits</title>
<polygon fill="#f8c04c" stroke="black" points="288.18,-248.22 288.18,-286.22 425.18,-286.22 425.18,-248.22 288.18,-248.22"/>
<text text-anchor="middle" x="356.68" y="-274.22" font-family="monospace" font-size="10.00">pub(crate) mod</text>
<polyline fill="none" stroke="black" points="288.18,-267.22 425.18,-267.22 "/>
<text text-anchor="middle" x="356.68" y="-255.22" font-family="monospace" font-size="10.00">fleek_crypto::traits</text>
</g>
<!-- fleek_crypto&#45;&gt;fleek_crypto::traits -->
<g id="edge10" class="edge">
<title>fleek_crypto&#45;&gt;fleek_crypto::traits</title>
<path fill="none" stroke="#000000" d="M435.99,-509.15C440.18,-463.49 411.04,-348.88 383.6,-295.35"/>
<polygon fill="#000000" stroke="#000000" points="386.57,-293.47 378.68,-286.39 380.43,-296.84 386.57,-293.47"/>
<text text-anchor="middle" x="397.29" y="-405.25" font-family="monospace" font-size="10.00">owns</text>
</g>
<!-- fleek_crypto&#45;&gt;fleek_crypto::traits -->
<g id="edge11" class="edge">
<title>fleek_crypto&#45;&gt;fleek_crypto::traits</title>
<path fill="none" stroke="#7f7f7f" stroke-dasharray="5,2" d="M404.87,-508.87C378.05,-463.45 347.57,-350.89 347.28,-296.85"/>
<polygon fill="#7f7f7f" stroke="#7f7f7f" points="350.79,-296.67 347.67,-286.55 343.8,-296.42 350.79,-296.67"/>
<text text-anchor="middle" x="363.58" y="-405.86" font-family="monospace" font-size="10.00">uses</text>
</g>
<!-- fleek_crypto::transaction -->
<g id="node12" class="node">
<title>fleek_crypto::transaction</title>
<polygon fill="#f8c04c" stroke="black" points="127.23,-647.78 127.23,-685.78 294.23,-685.78 294.23,-647.78 127.23,-647.78"/>
<text text-anchor="middle" x="210.73" y="-673.78" font-family="monospace" font-size="10.00">pub(crate) mod</text>
<polyline fill="none" stroke="black" points="127.23,-666.78 294.23,-666.78 "/>
<text text-anchor="middle" x="210.73" y="-654.78" font-family="monospace" font-size="10.00">fleek_crypto::transaction</text>
</g>
<!-- fleek_crypto&#45;&gt;fleek_crypto::transaction -->
<g id="edge12" class="edge">
<title>fleek_crypto&#45;&gt;fleek_crypto::transaction</title>
<path fill="none" stroke="#000000" d="M382.28,-532.84C331.54,-553.4 253.11,-605.04 222.43,-639.44"/>
<polygon fill="#000000" stroke="#000000" points="219.59,-637.39 216.01,-647.36 225.02,-641.8 219.59,-637.39"/>
<text text-anchor="middle" x="289.85" y="-589.14" font-family="monospace" font-size="10.00">owns</text>
</g>
<!-- fleek_crypto&#45;&gt;fleek_crypto::transaction -->
<g id="edge13" class="edge">
<title>fleek_crypto&#45;&gt;fleek_crypto::transaction</title>
<path fill="none" stroke="#7f7f7f" stroke-dasharray="5,2" d="M421.95,-547.34C403.19,-573.73 345.71,-615.36 295.24,-642.94"/>
<polygon fill="#7f7f7f" stroke="#7f7f7f" points="293.41,-639.95 286.24,-647.75 296.71,-646.13 293.41,-639.95"/>
<text text-anchor="middle" x="346.09" y="-598.14" font-family="monospace" font-size="10.00">uses</text>
</g>
<!-- fleek_crypto::address&#45;&gt;fleek_crypto::hex_array -->
<g id="edge14" class="edge">
<title>fleek_crypto::address&#45;&gt;fleek_crypto::hex_array</title>
<path fill="none" stroke="#7f7f7f" stroke-dasharray="5,2" d="M458.5,-900.94C434.33,-906.56 407.08,-912.88 381.83,-918.74"/>
<polygon fill="#7f7f7f" stroke="#7f7f7f" points="380.85,-915.38 371.9,-921.05 382.43,-922.2 380.85,-915.38"/>
<text text-anchor="middle" x="407.67" y="-912.84" font-family="monospace" font-size="10.00">uses</text>
</g>
<!-- fleek_crypto::address&#45;&gt;fleek_crypto::keys::pk -->
<g id="edge15" class="edge">
<title>fleek_crypto::address&#45;&gt;fleek_crypto::keys::pk</title>
<path fill="none" stroke="#7f7f7f" stroke-dasharray="5,2" d="M531.55,-865.18C535.49,-807.71 547.27,-636.19 552,-567.21"/>
<polygon fill="#7f7f7f" stroke="#7f7f7f" points="555.5,-567.27 552.7,-557.05 548.52,-566.79 555.5,-567.27"/>
<text text-anchor="middle" x="529.28" y="-719.19" font-family="monospace" font-size="10.00">uses</text>
</g>
<!-- fleek_crypto::keys&#45;&gt;fleek_crypto::keys::pk -->
<g id="edge16" class="edge">
<title>fleek_crypto::keys&#45;&gt;fleek_crypto::keys::pk</title>
<path fill="none" stroke="#000000" d="M790,-492.96C729.19,-491.35 639.01,-501.24 589.58,-515.88"/>
<polygon fill="#000000" stroke="#000000" points="588.41,-512.58 579.97,-518.97 590.56,-519.24 588.41,-512.58"/>
<text text-anchor="middle" x="677.29" y="-507.42" font-family="monospace" font-size="10.00">owns</text>
</g>
<!-- fleek_crypto::keys&#45;&gt;fleek_crypto::keys::pk -->
<g id="edge17" class="edge">
<title>fleek_crypto::keys&#45;&gt;fleek_crypto::keys::pk</title>
<path fill="none" stroke="#7f7f7f" stroke-dasharray="5,2" d="M826.57,-528.27C785.1,-542.82 702.2,-553.48 638.65,-554.38"/>
<polygon fill="#7f7f7f" stroke="#7f7f7f" points="638.6,-550.88 628.62,-554.44 638.64,-557.88 638.6,-550.88"/>
<text text-anchor="middle" x="720.11" y="-544.32" font-family="monospace" font-size="10.00">uses</text>
</g>
<!-- fleek_crypto::keys::sk -->
<g id="node7" class="node">
<title>fleek_crypto::keys::sk</title>
<polygon fill="#db5367" stroke="black" points="802.84,-0.5 802.84,-38.5 951.84,-38.5 951.84,-0.5 802.84,-0.5"/>
<text text-anchor="middle" x="877.34" y="-26.5" font-family="monospace" font-size="10.00">pub(self) mod</text>
<polyline fill="none" stroke="black" points="802.84,-19.5 951.84,-19.5 "/>
<text text-anchor="middle" x="877.34" y="-7.5" font-family="monospace" font-size="10.00">fleek_crypto::keys::sk</text>
</g>
<!-- fleek_crypto::keys&#45;&gt;fleek_crypto::keys::sk -->
<g id="edge18" class="edge">
<title>fleek_crypto::keys&#45;&gt;fleek_crypto::keys::sk</title>
<path fill="none" stroke="#000000" d="M853.51,-490.04C857.33,-414.75 871.27,-139.38 875.86,-48.68"/>
<polygon fill="#000000" stroke="#000000" points="879.36,-48.73 876.37,-38.57 872.37,-48.38 879.36,-48.73"/>
<text text-anchor="middle" x="852.19" y="-272.36" font-family="monospace" font-size="10.00">owns</text>
</g>
<!-- fleek_crypto::keys&#45;&gt;fleek_crypto::keys::sk::account -->
<g id="edge19" class="edge">
<title>fleek_crypto::keys&#45;&gt;fleek_crypto::keys::sk::account</title>
<path fill="none" stroke="#7f7f7f" stroke-dasharray="5,2" d="M843.3,-490.01C829.95,-462.24 805.18,-410.72 789.68,-378.46"/>
<polygon fill="#7f7f7f" stroke="#7f7f7f" points="792.67,-376.62 785.19,-369.12 786.36,-379.65 792.67,-376.62"/>
<text text-anchor="middle" x="803.99" y="-437.23" font-family="monospace" font-size="10.00">uses</text>
</g>
<!-- fleek_crypto::keys&#45;&gt;fleek_crypto::keys::sk::consensus -->
<g id="edge20" class="edge">
<title>fleek_crypto::keys&#45;&gt;fleek_crypto::keys::sk::consensus</title>
<path fill="none" stroke="#7f7f7f" stroke-dasharray="5,2" d="M838.72,-489.77C797.6,-431.86 675.96,-260.54 628.11,-193.14"/>
<polygon fill="#7f7f7f" stroke="#7f7f7f" points="630.76,-190.84 622.12,-184.71 625.06,-194.89 630.76,-190.84"/>
<text text-anchor="middle" x="720.91" y="-344.45" font-family="monospace" font-size="10.00">uses</text>
</g>
<!-- fleek_crypto::keys&#45;&gt;fleek_crypto::keys::sk::node -->
<g id="edge21" class="edge">
<title>fleek_crypto::keys&#45;&gt;fleek_crypto::keys::sk::node</title>
<path fill="none" stroke="#7f7f7f" stroke-dasharray="5,2" d="M839.77,-489.93C810.5,-445.7 738.48,-336.87 704.52,-285.57"/>
<polygon fill="#7f7f7f" stroke="#7f7f7f" points="707.27,-283.38 698.84,-276.97 701.44,-287.24 707.27,-283.38"/>
<text text-anchor="middle" x="759.65" y="-390.75" font-family="monospace" font-size="10.00">uses</text>
</g>
<!-- fleek_crypto::keys::pk&#45;&gt;fleek_crypto::base58_array -->
<g id="edge22" class="edge">
<title>fleek_crypto::keys::pk&#45;&gt;fleek_crypto::base58_array</title>
<path fill="none" stroke="#7f7f7f" stroke-dasharray="5,2" d="M488.51,-518.91C402.56,-493.86 252.03,-449.99 161.57,-423.62"/>
<polygon fill="#7f7f7f" stroke="#7f7f7f" points="162.51,-420.25 151.93,-420.81 160.55,-426.97 162.51,-420.25"/>
<text text-anchor="middle" x="312.54" y="-474.27" font-family="monospace" font-size="10.00">uses</text>
</g>
<!-- fleek_crypto::keys::pk&#45;&gt;fleek_crypto::traits -->
<g id="edge23" class="edge">
<title>fleek_crypto::keys::pk&#45;&gt;fleek_crypto::traits</title>
<path fill="none" stroke="#7f7f7f" stroke-dasharray="5,2" d="M540.13,-518.96C505.74,-471.77 416.46,-349.25 376.51,-294.43"/>
<polygon fill="#7f7f7f" stroke="#7f7f7f" points="379.26,-292.26 370.54,-286.24 373.6,-296.38 379.26,-292.26"/>
<text text-anchor="middle" x="445.82" y="-409.7" font-family="monospace" font-size="10.00">uses</text>
</g>
<!-- fleek_crypto::keys::sk&#45;&gt;fleek_crypto::keys::sk::account -->
<g id="edge24" class="edge">
<title>fleek_crypto::keys::sk&#45;&gt;fleek_crypto::keys::sk::account</title>
<path fill="none" stroke="#000000" d="M855.89,-38.91C821.85,-94.7 772.75,-254.28 769.1,-320.61"/>
<polygon fill="#000000" stroke="#000000" points="765.6,-320.73 768.93,-330.79 772.6,-320.85 765.6,-320.73"/>
<text text-anchor="middle" x="799.99" y="-182.76" font-family="monospace" font-size="10.00">owns</text>
</g>
<!-- fleek_crypto::keys::sk&#45;&gt;fleek_crypto::keys::sk::account -->
<g id="edge25" class="edge">
<title>fleek_crypto::keys::sk&#45;&gt;fleek_crypto::keys::sk::account</title>
<path fill="none" stroke="#7f7f7f" stroke-dasharray="5,2" d="M884.33,-38.59C885.9,-94.42 837.95,-255.94 802.35,-321.7"/>
<polygon fill="#7f7f7f" stroke="#7f7f7f" points="799.14,-320.27 797.2,-330.69 805.21,-323.76 799.14,-320.27"/>
<text text-anchor="middle" x="830.84" y="-183.15" font-family="monospace" font-size="10.00">uses</text>
</g>
<!-- fleek_crypto::keys::sk&#45;&gt;fleek_crypto::keys::sk::consensus -->
<g id="edge26" class="edge">
<title>fleek_crypto::keys::sk&#45;&gt;fleek_crypto::keys::sk::consensus</title>
<path fill="none" stroke="#000000" d="M802.83,-33.41C740.98,-59.34 658.2,-107.09 623.75,-139.05"/>
<polygon fill="#000000" stroke="#000000" points="621,-136.85 616.43,-146.41 625.96,-141.79 621,-136.85"/>
<text text-anchor="middle" x="700.79" y="-89.23" font-family="monospace" font-size="10.00">owns</text>
</g>
<!-- fleek_crypto::keys::sk&#45;&gt;fleek_crypto::keys::sk::consensus -->
<g id="edge27" class="edge">
<title>fleek_crypto::keys::sk&#45;&gt;fleek_crypto::keys::sk::consensus</title>
<path fill="none" stroke="#7f7f7f" stroke-dasharray="5,2" d="M869.11,-38.82C843.42,-67.13 767.63,-112.88 704.21,-142.17"/>
<polygon fill="#7f7f7f" stroke="#7f7f7f" points="702.62,-139.05 694.95,-146.36 705.51,-145.42 702.62,-139.05"/>
<text text-anchor="middle" x="774.16" y="-93.49" font-family="monospace" font-size="10.00">uses</text>
</g>
<!-- fleek_crypto::keys::sk&#45;&gt;fleek_crypto::keys::sk::node -->
<g id="edge28" class="edge">
<title>fleek_crypto::keys::sk&#45;&gt;fleek_crypto::keys::sk::node</title>
<path fill="none" stroke="#000000" d="M837.59,-38.84C788.25,-81.54 711.48,-179.14 689.5,-229.04"/>
<polygon fill="#000000" stroke="#000000" points="686.13,-228.06 685.77,-238.65 692.66,-230.59 686.13,-228.06"/>
<text text-anchor="middle" x="751.05" y="-136.94" font-family="monospace" font-size="10.00">owns</text>
</g>
<!-- fleek_crypto::keys::sk&#45;&gt;fleek_crypto::keys::sk::node -->
<g id="edge29" class="edge">
<title>fleek_crypto::keys::sk&#45;&gt;fleek_crypto::keys::sk::node</title>
<path fill="none" stroke="#7f7f7f" stroke-dasharray="5,2" d="M877.83,-38.78C863.52,-82.5 786.16,-183.35 733.29,-232.09"/>
<polygon fill="#7f7f7f" stroke="#7f7f7f" points="730.8,-229.62 725.68,-238.89 735.47,-234.84 730.8,-229.62"/>
<text text-anchor="middle" x="793.06" y="-138.43" font-family="monospace" font-size="10.00">uses</text>
</g>
<!-- fleek_crypto::keys::sk::account&#45;&gt;fleek_crypto::keys::pk -->
<g id="edge30" class="edge">
<title>fleek_crypto::keys::sk::account&#45;&gt;fleek_crypto::keys::pk</title>
<path fill="none" stroke="#7f7f7f" stroke-dasharray="5,2" d="M753.41,-368.9C713.29,-402.93 629.37,-474.09 584.25,-512.35"/>
<polygon fill="#7f7f7f" stroke="#7f7f7f" points="581.93,-509.73 576.56,-518.87 586.45,-515.07 581.93,-509.73"/>
<text text-anchor="middle" x="656.33" y="-443.63" font-family="monospace" font-size="10.00">uses</text>
</g>
<!-- fleek_crypto::keys::sk::account&#45;&gt;fleek_crypto::traits -->
<g id="edge31" class="edge">
<title>fleek_crypto::keys::sk::account&#45;&gt;fleek_crypto::traits</title>
<path fill="none" stroke="#7f7f7f" stroke-dasharray="5,2" d="M679.47,-330.82C605.38,-316.22 504.35,-296.31 435.17,-282.68"/>
<polygon fill="#7f7f7f" stroke="#7f7f7f" points="435.69,-279.22 425.2,-280.72 434.34,-286.09 435.69,-279.22"/>
<text text-anchor="middle" x="544.82" y="-309.75" font-family="monospace" font-size="10.00">uses</text>
</g>
<!-- pem_rfc7468 -->
<g id="node13" class="node">
<title>pem_rfc7468</title>
<polygon fill="#5397c8" stroke="black" points="997.71,-145.15 997.71,-183.15 1098.71,-183.15 1098.71,-145.15 997.71,-145.15"/>
<text text-anchor="middle" x="1048.21" y="-171.15" font-family="monospace" font-size="10.00">external crate</text>
<polyline fill="none" stroke="black" points="997.71,-164.15 1098.71,-164.15 "/>
<text text-anchor="middle" x="1048.21" y="-152.15" font-family="monospace" font-size="10.00">pem_rfc7468</text>
</g>
<!-- fleek_crypto::keys::sk::account&#45;&gt;pem_rfc7468 -->
<g id="edge32" class="edge">
<title>fleek_crypto::keys::sk::account&#45;&gt;pem_rfc7468</title>
<path fill="none" stroke="#7f7f7f" stroke-dasharray="5,2" d="M804.02,-330.65C853.68,-296.79 956.86,-226.44 1011.85,-188.94"/>
<polygon fill="#7f7f7f" stroke="#7f7f7f" points="1013.96,-191.74 1020.25,-183.21 1010.02,-185.95 1013.96,-191.74"/>
<text text-anchor="middle" x="895.44" y="-262.79" font-family="monospace" font-size="10.00">uses</text>
</g>
<!-- fleek_crypto::keys::sk::consensus&#45;&gt;fleek_crypto::keys::pk -->
<g id="edge33" class="edge">
<title>fleek_crypto::keys::sk::consensus&#45;&gt;fleek_crypto::keys::pk</title>
<path fill="none" stroke="#7f7f7f" stroke-dasharray="5,2" d="M605.64,-184.7C596.71,-245.77 568.99,-435.45 558.29,-508.71"/>
<polygon fill="#7f7f7f" stroke="#7f7f7f" points="554.82,-508.25 556.83,-518.65 561.74,-509.26 554.82,-508.25"/>
<text text-anchor="middle" x="569.46" y="-349.71" font-family="monospace" font-size="10.00">uses</text>
</g>
<!-- fleek_crypto::keys::sk::consensus&#45;&gt;fleek_crypto::traits -->
<g id="edge34" class="edge">
<title>fleek_crypto::keys::sk::consensus&#45;&gt;fleek_crypto::traits</title>
<path fill="none" stroke="#7f7f7f" stroke-dasharray="5,2" d="M561.39,-184.48C519.49,-201.41 458.09,-226.23 413.47,-244.26"/>
<polygon fill="#7f7f7f" stroke="#7f7f7f" points="411.9,-241.12 403.94,-248.12 414.52,-247.61 411.9,-241.12"/>
<text text-anchor="middle" x="474.93" y="-217.37" font-family="monospace" font-size="10.00">uses</text>
</g>
<!-- fleek_crypto::keys::sk::consensus&#45;&gt;pem_rfc7468 -->
<g id="edge35" class="edge">
<title>fleek_crypto::keys::sk::consensus&#45;&gt;pem_rfc7468</title>
<path fill="none" stroke="#7f7f7f" stroke-dasharray="5,2" d="M716.03,-165.14C801.28,-164.88 917.33,-164.54 987.28,-164.33"/>
<polygon fill="#7f7f7f" stroke="#7f7f7f" points="987.69,-167.83 997.68,-164.3 987.67,-160.83 987.69,-167.83"/>
<text text-anchor="middle" x="839.16" y="-167.73" font-family="monospace" font-size="10.00">uses</text>
</g>
<!-- fleek_crypto::keys::sk::node&#45;&gt;fleek_crypto::keys::pk -->
<g id="edge36" class="edge">
<title>fleek_crypto::keys::sk::node&#45;&gt;fleek_crypto::keys::pk</title>
<path fill="none" stroke="#7f7f7f" stroke-dasharray="5,2" d="M677.16,-277.2C654.27,-325.68 594.15,-452.98 567.3,-509.85"/>
<polygon fill="#7f7f7f" stroke="#7f7f7f" points="564.09,-508.45 562.98,-518.99 570.42,-511.44 564.09,-508.45"/>
<text text-anchor="middle" x="609.73" y="-396.53" font-family="monospace" font-size="10.00">uses</text>
</g>
<!-- fleek_crypto::keys::sk::node&#45;&gt;fleek_crypto::traits -->
<g id="edge37" class="edge">
<title>fleek_crypto::keys::sk::node&#45;&gt;fleek_crypto::traits</title>
<path fill="none" stroke="#7f7f7f" stroke-dasharray="5,2" d="M593.57,-260.56C543.82,-261.96 483.14,-263.66 435.65,-265"/>
<polygon fill="#7f7f7f" stroke="#7f7f7f" points="435.32,-261.5 425.42,-265.28 435.52,-268.5 435.32,-261.5"/>
<text text-anchor="middle" x="502.11" y="-265.78" font-family="monospace" font-size="10.00">uses</text>
</g>
<!-- fleek_crypto::keys::sk::node&#45;&gt;pem_rfc7468 -->
<g id="edge38" class="edge">
<title>fleek_crypto::keys::sk::node&#45;&gt;pem_rfc7468</title>
<path fill="none" stroke="#7f7f7f" stroke-dasharray="5,2" d="M759.93,-238.86C827.13,-221.44 925.23,-196.02 987.88,-179.78"/>
<polygon fill="#7f7f7f" stroke="#7f7f7f" points="988.82,-183.15 997.62,-177.26 987.07,-176.38 988.82,-183.15"/>
<text text-anchor="middle" x="861.41" y="-212.32" font-family="monospace" font-size="10.00">uses</text>
</g>
<!-- fleek_crypto::transaction&#45;&gt;fleek_crypto::address -->
<g id="edge39" class="edge">
<title>fleek_crypto::transaction&#45;&gt;fleek_crypto::address</title>
<path fill="none" stroke="#7f7f7f" stroke-dasharray="5,2" d="M238.8,-685.89C296.54,-725.2 428.59,-815.09 493.23,-859.09"/>
<polygon fill="#7f7f7f" stroke="#7f7f7f" points="491.65,-862.25 501.88,-864.99 495.59,-856.47 491.65,-862.25"/>
<text text-anchor="middle" x="353.52" y="-775.49" font-family="monospace" font-size="10.00">uses</text>
</g>
<!-- fleek_crypto::transaction&#45;&gt;fleek_crypto::keys::pk -->
<g id="edge40" class="edge">
<title>fleek_crypto::transaction&#45;&gt;fleek_crypto::keys::pk</title>
<path fill="none" stroke="#7f7f7f" stroke-dasharray="5,2" d="M261.38,-647.78C323.24,-624.57 427.76,-585.36 493.71,-560.62"/>
<polygon fill="#7f7f7f" stroke="#7f7f7f" points="495.01,-563.87 503.15,-557.08 492.55,-557.32 495.01,-563.87"/>
<text text-anchor="middle" x="390.04" y="-607.2" font-family="monospace" font-size="10.00">uses</text>
</g>
<!-- fleek_crypto::transaction&#45;&gt;fleek_crypto::traits -->
<g id="edge41" class="edge">
<title>fleek_crypto::transaction&#45;&gt;fleek_crypto::traits</title>
<path fill="none" stroke="#7f7f7f" stroke-dasharray="5,2" d="M217.67,-647.78C241.2,-583.36 318.04,-373.01 346.21,-295.89"/>
<polygon fill="#7f7f7f" stroke="#7f7f7f" points="349.55,-296.93 349.7,-286.34 342.98,-294.53 349.55,-296.93"/>
<text text-anchor="middle" x="294.44" y="-463.83" font-family="monospace" font-size="10.00">uses</text>
</g>
</g>
</svg>
