<?xml version="1.0" encoding="UTF-8" standalone="no"?>
<!DOCTYPE svg PUBLIC "-//W3C//DTD SVG 1.1//EN"
 "http://www.w3.org/Graphics/SVG/1.1/DTD/svg11.dtd">
<!-- Generated by graphviz version 4.0.0 (0)
 -->
<!-- Pages: 1 -->
<svg width="377pt" height="281pt"
 viewBox="0.00 0.00 376.60 280.61" xmlns="http://www.w3.org/2000/svg" xmlns:xlink="http://www.w3.org/1999/xlink">
<g id="graph0" class="graph" transform="scale(1 1) rotate(0) translate(28.8 251.81)">
<polygon fill="white" stroke="transparent" points="-28.8,28.8 -28.8,-251.81 347.8,-251.81 347.8,28.8 -28.8,28.8"/>
<text text-anchor="middle" x="159.5" y="-190.21" font-family="Helvetica,sans-Serif" font-size="36.00">lightning_notifier</text>
<!-- fdi -->
<g id="node1" class="node">
<title>fdi</title>
<polygon fill="#5397c8" stroke="black" points="168.01,-136.51 168.01,-174.51 269.01,-174.51 269.01,-136.51 168.01,-136.51"/>
<text text-anchor="middle" x="218.51" y="-162.51" font-family="monospace" font-size="10.00">external crate</text>
<polyline fill="none" stroke="black" points="168.01,-155.51 269.01,-155.51 "/>
<text text-anchor="middle" x="218.51" y="-143.51" font-family="monospace" font-size="10.00">fdi</text>
</g>
<!-- lightning_notifier -->
<g id="node2" class="node">
<title>lightning_notifier</title>
<polygon fill="#5397c8" stroke="black" points="88,-68.51 88,-106.51 213,-106.51 213,-68.51 88,-68.51"/>
<text text-anchor="middle" x="150.5" y="-94.51" font-family="monospace" font-size="10.00">crate</text>
<polyline fill="none" stroke="black" points="88,-87.51 213,-87.51 "/>
<text text-anchor="middle" x="150.5" y="-75.51" font-family="monospace" font-size="10.00">lightning_notifier</text>
</g>
<!-- lightning_notifier&#45;&gt;fdi -->
<g id="edge1" class="edge">
<title>lightning_notifier&#45;&gt;fdi</title>
<path fill="none" stroke="#7f7f7f" stroke-dasharray="5,2" d="M169.81,-106.81C176.76,-113.76 184.72,-121.73 192.17,-129.18"/>
<polygon fill="#7f7f7f" stroke="#7f7f7f" points="189.84,-131.8 199.39,-136.39 194.79,-126.85 189.84,-131.8"/>
<text text-anchor="middle" x="168.49" y="-120.99" font-family="monospace" font-size="10.00">uses</text>
</g>
<!-- lightning_schema -->
<g id="node3" class="node">
<title>lightning_schema</title>
<polygon fill="#5397c8" stroke="black" points="25.99,-136.51 25.99,-174.51 138.99,-174.51 138.99,-136.51 25.99,-136.51"/>
<text text-anchor="middle" x="82.49" y="-162.51" font-family="monospace" font-size="10.00">external crate</text>
<polyline fill="none" stroke="black" points="25.99,-155.51 138.99,-155.51 "/>
<text text-anchor="middle" x="82.49" y="-143.51" font-family="monospace" font-size="10.00">lightning_schema</text>
</g>
<!-- lightning_notifier&#45;&gt;lightning_schema -->
<g id="edge2" class="edge">
<title>lightning_notifier&#45;&gt;lightning_schema</title>
<path fill="none" stroke="#7f7f7f" stroke-dasharray="5,2" d="M131.19,-106.81C124.24,-113.76 116.28,-121.73 108.83,-129.18"/>
<polygon fill="#7f7f7f" stroke="#7f7f7f" points="106.21,-126.85 101.61,-136.39 111.16,-131.8 106.21,-126.85"/>
<text text-anchor="middle" x="107.51" y="-120.99" font-family="monospace" font-size="10.00">uses</text>
</g>
<!-- lightning_types -->
<g id="node4" class="node">
<title>lightning_types</title>
<polygon fill="#5397c8" stroke="black" points="28.99,-0.5 28.99,-38.5 135.99,-38.5 135.99,-0.5 28.99,-0.5"/>
<text text-anchor="middle" x="82.49" y="-26.5" font-family="monospace" font-size="10.00">external crate</text>
<polyline fill="none" stroke="black" points="28.99,-19.5 135.99,-19.5 "/>
<text text-anchor="middle" x="82.49" y="-7.5" font-family="monospace" font-size="10.00">lightning_types</text>
</g>
<!-- lightning_notifier&#45;&gt;lightning_types -->
<g id="edge3" class="edge">
<title>lightning_notifier&#45;&gt;lightning_types</title>
<path fill="none" stroke="#7f7f7f" stroke-dasharray="5,2" d="M131.19,-68.2C124.24,-61.25 116.28,-53.28 108.83,-45.84"/>
<polygon fill="#7f7f7f" stroke="#7f7f7f" points="111.16,-43.22 101.61,-38.62 106.21,-48.16 111.16,-43.22"/>
<text text-anchor="middle" x="107.51" y="-60.02" font-family="monospace" font-size="10.00">uses</text>
</g>
<!-- tokio::sync::broadcast -->
<g id="node5" class="node">
<title>tokio::sync::broadcast</title>
<polygon fill="#81c169" stroke="black" points="144.01,-0.5 144.01,-38.5 293.01,-38.5 293.01,-0.5 144.01,-0.5"/>
<text text-anchor="middle" x="218.51" y="-26.5" font-family="monospace" font-size="10.00">external mod</text>
<polyline fill="none" stroke="black" points="144.01,-19.5 293.01,-19.5 "/>
<text text-anchor="middle" x="218.51" y="-7.5" font-family="monospace" font-size="10.00">tokio::sync::broadcast</text>
</g>
<!-- lightning_notifier&#45;&gt;tokio::sync::broadcast -->
<g id="edge4" class="edge">
<title>lightning_notifier&#45;&gt;tokio::sync::broadcast</title>
<path fill="none" stroke="#7f7f7f" stroke-dasharray="5,2" d="M169.81,-68.2C176.76,-61.25 184.72,-53.28 192.17,-45.84"/>
<polygon fill="#7f7f7f" stroke="#7f7f7f" points="194.79,-48.16 199.39,-38.62 189.84,-43.22 194.79,-48.16"/>
<text text-anchor="middle" x="168.49" y="-60.02" font-family="monospace" font-size="10.00">uses</text>
</g>
</g>
</svg>
