<?xml version="1.0" encoding="UTF-8" standalone="no"?>
<!DOCTYPE svg PUBLIC "-//W3C//DTD SVG 1.1//EN"
 "http://www.w3.org/Graphics/SVG/1.1/DTD/svg11.dtd">
<!-- Generated by graphviz version 4.0.0 (0)
 -->
<!-- Pages: 1 -->
<svg width="1563pt" height="1138pt"
 viewBox="0.00 0.00 1562.68 1138.14" xmlns="http://www.w3.org/2000/svg" xmlns:xlink="http://www.w3.org/1999/xlink">
<g id="graph0" class="graph" transform="scale(1 1) rotate(0) translate(28.8 1109.34)">
<polygon fill="white" stroke="transparent" points="-28.8,28.8 -28.8,-1109.34 1533.88,-1109.34 1533.88,28.8 -28.8,28.8"/>
<text text-anchor="middle" x="752.54" y="-1047.74" font-family="Helvetica,sans-Serif" font-size="36.00">lightning_types</text>
<!-- lightning_types -->
<g id="node1" class="node">
<title>lightning_types</title>
<polygon fill="#5397c8" stroke="black" points="521.73,-505.22 521.73,-543.22 628.73,-543.22 628.73,-505.22 521.73,-505.22"/>
<text text-anchor="middle" x="575.23" y="-531.22" font-family="monospace" font-size="10.00">crate</text>
<polyline fill="none" stroke="black" points="521.73,-524.22 628.73,-524.22 "/>
<text text-anchor="middle" x="575.23" y="-512.22" font-family="monospace" font-size="10.00">lightning_types</text>
</g>
<!-- lightning_types::application -->
<g id="node2" class="node">
<title>lightning_types::application</title>
<polygon fill="#f8c04c" stroke="black" points="988.64,-629.66 988.64,-667.66 1173.64,-667.66 1173.64,-629.66 988.64,-629.66"/>
<text text-anchor="middle" x="1081.14" y="-655.66" font-family="monospace" font-size="10.00">pub(crate) mod</text>
<polyline fill="none" stroke="black" points="988.64,-648.66 1173.64,-648.66 "/>
<text text-anchor="middle" x="1081.14" y="-636.66" font-family="monospace" font-size="10.00">lightning_types::application</text>
</g>
<!-- lightning_types&#45;&gt;lightning_types::application -->
<g id="edge1" class="edge">
<title>lightning_types&#45;&gt;lightning_types::application</title>
<path fill="none" stroke="#000000" d="M598.63,-543.26C665.13,-575.15 857.54,-625.55 978.37,-645.86"/>
<polygon fill="#000000" stroke="#000000" points="977.95,-649.34 988.38,-647.5 979.08,-642.43 977.95,-649.34"/>
<text text-anchor="middle" x="776" y="-597.56" font-family="monospace" font-size="10.00">owns</text>
</g>
<!-- lightning_types&#45;&gt;lightning_types::application -->
<g id="edge2" class="edge">
<title>lightning_types&#45;&gt;lightning_types::application</title>
<path fill="none" stroke="#7f7f7f" stroke-dasharray="5,2" d="M629.16,-520.07C734.31,-531.37 963.56,-588.5 1048.62,-625.47"/>
<polygon fill="#7f7f7f" stroke="#7f7f7f" points="1047.25,-628.69 1057.8,-629.65 1050.15,-622.32 1047.25,-628.69"/>
<text text-anchor="middle" x="826.39" y="-575.77" font-family="monospace" font-size="10.00">uses</text>
</g>
<!-- lightning_types::blockstore -->
<g id="node3" class="node">
<title>lightning_types::blockstore</title>
<polygon fill="#f8c04c" stroke="black" points="277.71,-787.94 277.71,-825.94 456.71,-825.94 456.71,-787.94 277.71,-787.94"/>
<text text-anchor="middle" x="367.21" y="-813.94" font-family="monospace" font-size="10.00">pub(crate) mod</text>
<polyline fill="none" stroke="black" points="277.71,-806.94 456.71,-806.94 "/>
<text text-anchor="middle" x="367.21" y="-794.94" font-family="monospace" font-size="10.00">lightning_types::blockstore</text>
</g>
<!-- lightning_types&#45;&gt;lightning_types::blockstore -->
<g id="edge3" class="edge">
<title>lightning_types&#45;&gt;lightning_types::blockstore</title>
<path fill="none" stroke="#000000" d="M539.38,-543.65C485.85,-593.32 393.78,-719.93 370.12,-778.12"/>
<polygon fill="#000000" stroke="#000000" points="366.72,-777.24 366.62,-787.84 373.3,-779.61 366.72,-777.24"/>
<text text-anchor="middle" x="442.25" y="-663.89" font-family="monospace" font-size="10.00">owns</text>
</g>
<!-- lightning_types&#45;&gt;lightning_types::blockstore -->
<g id="edge4" class="edge">
<title>lightning_types&#45;&gt;lightning_types::blockstore</title>
<path fill="none" stroke="#7f7f7f" stroke-dasharray="5,2" d="M575.8,-543.36C560.46,-593.66 467.89,-723.55 410.29,-780.56"/>
<polygon fill="#7f7f7f" stroke="#7f7f7f" points="407.55,-778.34 402.75,-787.79 412.39,-783.4 407.55,-778.34"/>
<text text-anchor="middle" x="480.55" y="-664.96" font-family="monospace" font-size="10.00">uses</text>
</g>
<!-- lightning_types::blockstore_server -->
<g id="node4" class="node">
<title>lightning_types::blockstore_server</title>
<polygon fill="#f8c04c" stroke="black" points="433.16,-951.05 433.16,-989.05 654.16,-989.05 654.16,-951.05 433.16,-951.05"/>
<text text-anchor="middle" x="543.66" y="-977.05" font-family="monospace" font-size="10.00">pub(crate) mod</text>
<polyline fill="none" stroke="black" points="433.16,-970.05 654.16,-970.05 "/>
<text text-anchor="middle" x="543.66" y="-958.05" font-family="monospace" font-size="10.00">lightning_types::blockstore_server</text>
</g>
<!-- lightning_types&#45;&gt;lightning_types::blockstore_server -->
<g id="edge5" class="edge">
<title>lightning_types&#45;&gt;lightning_types::blockstore_server</title>
<path fill="none" stroke="#000000" d="M561.79,-543.39C537.52,-613.52 519.67,-856.33 531.67,-940.81"/>
<polygon fill="#000000" stroke="#000000" points="528.23,-941.49 533.37,-950.76 535.13,-940.31 528.23,-941.49"/>
<text text-anchor="middle" x="534.23" y="-745.1" font-family="monospace" font-size="10.00">owns</text>
</g>
<!-- lightning_types&#45;&gt;lightning_types::blockstore_server -->
<g id="edge6" class="edge">
<title>lightning_types&#45;&gt;lightning_types::blockstore_server</title>
<path fill="none" stroke="#7f7f7f" stroke-dasharray="5,2" d="M585.48,-543.34C600.15,-613.54 583.82,-857.19 560.08,-941.27"/>
<polygon fill="#7f7f7f" stroke="#7f7f7f" points="556.7,-940.34 557.07,-950.93 563.39,-942.42 556.7,-940.34"/>
<text text-anchor="middle" x="560.28" y="-745.3" font-family="monospace" font-size="10.00">uses</text>
</g>
<!-- lightning_types::bridge -->
<g id="node5" class="node">
<title>lightning_types::bridge</title>
<polygon fill="#f8c04c" stroke="black" points="819.83,-181.97 819.83,-219.97 974.83,-219.97 974.83,-181.97 819.83,-181.97"/>
<text text-anchor="middle" x="897.33" y="-207.97" font-family="monospace" font-size="10.00">pub(crate) mod</text>
<polyline fill="none" stroke="black" points="819.83,-200.97 974.83,-200.97 "/>
<text text-anchor="middle" x="897.33" y="-188.97" font-family="monospace" font-size="10.00">lightning_types::bridge</text>
</g>
<!-- lightning_types&#45;&gt;lightning_types::bridge -->
<g id="edge7" class="edge">
<title>lightning_types&#45;&gt;lightning_types::bridge</title>
<path fill="none" stroke="#000000" d="M617.95,-505.02C694.41,-449.14 846.89,-294.6 888.22,-229.22"/>
<polygon fill="#000000" stroke="#000000" points="891.45,-230.64 893.49,-220.24 885.41,-227.09 891.45,-230.64"/>
<text text-anchor="middle" x="740.59" y="-370.12" font-family="monospace" font-size="10.00">owns</text>
</g>
<!-- lightning_types&#45;&gt;lightning_types::bridge -->
<g id="edge8" class="edge">
<title>lightning_types&#45;&gt;lightning_types::bridge</title>
<path fill="none" stroke="#7f7f7f" stroke-dasharray="5,2" d="M579.01,-505.05C609.28,-448.13 763.91,-289.49 846.6,-226.16"/>
<polygon fill="#7f7f7f" stroke="#7f7f7f" points="848.71,-228.95 854.61,-220.16 844.51,-223.35 848.71,-228.95"/>
<text text-anchor="middle" x="700.3" y="-368.61" font-family="monospace" font-size="10.00">uses</text>
</g>
<!-- lightning_types::broadcast -->
<g id="node6" class="node">
<title>lightning_types::broadcast</title>
<polygon fill="#f8c04c" stroke="black" points="500.74,-0.5 500.74,-38.5 673.74,-38.5 673.74,-0.5 500.74,-0.5"/>
<text text-anchor="middle" x="587.24" y="-26.5" font-family="monospace" font-size="10.00">pub(crate) mod</text>
<polyline fill="none" stroke="black" points="500.74,-19.5 673.74,-19.5 "/>
<text text-anchor="middle" x="587.24" y="-7.5" font-family="monospace" font-size="10.00">lightning_types::broadcast</text>
</g>
<!-- lightning_types&#45;&gt;lightning_types::broadcast -->
<g id="edge9" class="edge">
<title>lightning_types&#45;&gt;lightning_types::broadcast</title>
<path fill="none" stroke="#000000" d="M586.94,-505.01C609.05,-427.95 616.58,-140.98 599.92,-48.45"/>
<polygon fill="#000000" stroke="#000000" points="603.35,-47.72 597.89,-38.64 596.49,-49.15 603.35,-47.72"/>
<text text-anchor="middle" x="580.93" y="-268.73" font-family="monospace" font-size="10.00">owns</text>
</g>
<!-- lightning_types&#45;&gt;lightning_types::broadcast -->
<g id="edge10" class="edge">
<title>lightning_types&#45;&gt;lightning_types::broadcast</title>
<path fill="none" stroke="#7f7f7f" stroke-dasharray="5,2" d="M564.59,-505.09C546.04,-428.18 552.07,-141.23 573.03,-48.56"/>
<polygon fill="#7f7f7f" stroke="#7f7f7f" points="576.46,-49.29 575.52,-38.73 569.67,-47.57 576.46,-49.29"/>
<text text-anchor="middle" x="556.31" y="-279.82" font-family="monospace" font-size="10.00">uses</text>
</g>
<!-- lightning_types::compression -->
<g id="node7" class="node">
<title>lightning_types::compression</title>
<polygon fill="#f8c04c" stroke="black" points="31.79,-321.58 31.79,-359.58 216.79,-359.58 216.79,-321.58 31.79,-321.58"/>
<text text-anchor="middle" x="124.29" y="-347.58" font-family="monospace" font-size="10.00">pub(crate) mod</text>
<polyline fill="none" stroke="black" points="31.79,-340.58 216.79,-340.58 "/>
<text text-anchor="middle" x="124.29" y="-328.58" font-family="monospace" font-size="10.00">lightning_types::compression</text>
</g>
<!-- lightning_types&#45;&gt;lightning_types::compression -->
<g id="edge11" class="edge">
<title>lightning_types&#45;&gt;lightning_types::compression</title>
<path fill="none" stroke="#000000" d="M560.05,-505.19C508.29,-467.24 338.27,-394.22 226.45,-358"/>
<polygon fill="#000000" stroke="#000000" points="227.42,-354.64 216.83,-354.93 225.29,-361.31 227.42,-354.64"/>
<text text-anchor="middle" x="380.75" y="-434.6" font-family="monospace" font-size="10.00">owns</text>
</g>
<!-- lightning_types&#45;&gt;lightning_types::compression -->
<g id="edge12" class="edge">
<title>lightning_types&#45;&gt;lightning_types::compression</title>
<path fill="none" stroke="#7f7f7f" stroke-dasharray="5,2" d="M521.72,-521.1C423.43,-496.09 218.52,-411.52 148.25,-365.64"/>
<polygon fill="#7f7f7f" stroke="#7f7f7f" points="149.84,-362.49 139.62,-359.71 145.87,-368.26 149.84,-362.49"/>
<text text-anchor="middle" x="322.49" y="-446.37" font-family="monospace" font-size="10.00">uses</text>
</g>
<!-- lightning_types::connection -->
<g id="node8" class="node">
<title>lightning_types::connection</title>
<polygon fill="#f8c04c" stroke="black" points="120.92,-189.87 120.92,-227.87 299.92,-227.87 299.92,-189.87 120.92,-189.87"/>
<text text-anchor="middle" x="210.42" y="-215.87" font-family="monospace" font-size="10.00">pub(crate) mod</text>
<polyline fill="none" stroke="black" points="120.92,-208.87 299.92,-208.87 "/>
<text text-anchor="middle" x="210.42" y="-196.87" font-family="monospace" font-size="10.00">lightning_types::connection</text>
</g>
<!-- lightning_types&#45;&gt;lightning_types::connection -->
<g id="edge13" class="edge">
<title>lightning_types&#45;&gt;lightning_types::connection</title>
<path fill="none" stroke="#000000" d="M569.34,-504.79C532.52,-448.36 359.13,-295.13 267.04,-233.45"/>
<polygon fill="#000000" stroke="#000000" points="268.94,-230.51 258.66,-227.94 265.1,-236.36 268.94,-230.51"/>
<text text-anchor="middle" x="405.69" y="-372.12" font-family="monospace" font-size="10.00">owns</text>
</g>
<!-- lightning_types&#45;&gt;lightning_types::connection -->
<g id="edge14" class="edge">
<title>lightning_types&#45;&gt;lightning_types::connection</title>
<path fill="none" stroke="#7f7f7f" stroke-dasharray="5,2" d="M527.06,-505.18C441.54,-450.24 270.37,-300.6 222.2,-236.64"/>
<polygon fill="#7f7f7f" stroke="#7f7f7f" points="224.87,-234.35 216.25,-228.2 219.15,-238.39 224.87,-234.35"/>
<text text-anchor="middle" x="362.13" y="-373.91" font-family="monospace" font-size="10.00">uses</text>
</g>
<!-- lightning_types::content -->
<g id="node9" class="node">
<title>lightning_types::content</title>
<polygon fill="#f8c04c" stroke="black" points="0,-555.16 0,-593.16 161,-593.16 161,-555.16 0,-555.16"/>
<text text-anchor="middle" x="80.5" y="-581.16" font-family="monospace" font-size="10.00">pub(crate) mod</text>
<polyline fill="none" stroke="black" points="0,-574.16 161,-574.16 "/>
<text text-anchor="middle" x="80.5" y="-562.16" font-family="monospace" font-size="10.00">lightning_types::content</text>
</g>
<!-- lightning_types&#45;&gt;lightning_types::content -->
<g id="edge15" class="edge">
<title>lightning_types&#45;&gt;lightning_types::content</title>
<path fill="none" stroke="#000000" d="M521.47,-512.2C423.8,-508.95 218.85,-529.82 126.88,-552.58"/>
<polygon fill="#000000" stroke="#000000" points="125.82,-549.24 117.03,-555.15 127.59,-556.02 125.82,-549.24"/>
<text text-anchor="middle" x="311.68" y="-535.39" font-family="monospace" font-size="10.00">owns</text>
</g>
<!-- lightning_types&#45;&gt;lightning_types::content -->
<g id="edge16" class="edge">
<title>lightning_types&#45;&gt;lightning_types::content</title>
<path fill="none" stroke="#7f7f7f" stroke-dasharray="5,2" d="M538.36,-543.32C461.31,-564.41 281.37,-584.58 171.4,-586.38"/>
<polygon fill="#7f7f7f" stroke="#7f7f7f" points="171.27,-582.88 161.31,-586.49 171.35,-589.88 171.27,-582.88"/>
<text text-anchor="middle" x="342.38" y="-567.85" font-family="monospace" font-size="10.00">uses</text>
</g>
<!-- lightning_types::content_registry -->
<g id="node10" class="node">
<title>lightning_types::content_registry</title>
<polygon fill="#f8c04c" stroke="black" points="514.96,-695.71 514.96,-733.71 729.96,-733.71 729.96,-695.71 514.96,-695.71"/>
<text text-anchor="middle" x="622.46" y="-721.71" font-family="monospace" font-size="10.00">pub(crate) mod</text>
<polyline fill="none" stroke="black" points="514.96,-714.71 729.96,-714.71 "/>
<text text-anchor="middle" x="622.46" y="-702.71" font-family="monospace" font-size="10.00">lightning_types::content_registry</text>
</g>
<!-- lightning_types&#45;&gt;lightning_types::content_registry -->
<g id="edge17" class="edge">
<title>lightning_types&#45;&gt;lightning_types::content_registry</title>
<path fill="none" stroke="#000000" d="M563.91,-543.57C558.89,-577.56 574.36,-647.42 593.82,-686.66"/>
<polygon fill="#000000" stroke="#000000" points="590.74,-688.33 598.57,-695.47 596.9,-685 590.74,-688.33"/>
<text text-anchor="middle" x="566.36" y="-618.11" font-family="monospace" font-size="10.00">owns</text>
</g>
<!-- lightning_types&#45;&gt;lightning_types::content_registry -->
<g id="edge18" class="edge">
<title>lightning_types&#45;&gt;lightning_types::content_registry</title>
<path fill="none" stroke="#7f7f7f" stroke-dasharray="5,2" d="M599.14,-543.49C618.94,-577.08 636.12,-645.92 634.65,-685.42"/>
<polygon fill="#7f7f7f" stroke="#7f7f7f" points="631.16,-685.22 633.77,-695.49 638.13,-685.83 631.16,-685.22"/>
<text text-anchor="middle" x="604.4" y="-617.45" font-family="monospace" font-size="10.00">uses</text>
</g>
<!-- lightning_types::dack_aggregator -->
<g id="node11" class="node">
<title>lightning_types::dack_aggregator</title>
<polygon fill="#f8c04c" stroke="black" points="650.98,-269.2 650.98,-307.2 859.98,-307.2 859.98,-269.2 650.98,-269.2"/>
<text text-anchor="middle" x="755.48" y="-295.2" font-family="monospace" font-size="10.00">pub(crate) mod</text>
<polyline fill="none" stroke="black" points="650.98,-288.2 859.98,-288.2 "/>
<text text-anchor="middle" x="755.48" y="-276.2" font-family="monospace" font-size="10.00">lightning_types::dack_aggregator</text>
</g>
<!-- lightning_types&#45;&gt;lightning_types::dack_aggregator -->
<g id="edge19" class="edge">
<title>lightning_types&#45;&gt;lightning_types::dack_aggregator</title>
<path fill="none" stroke="#000000" d="M613.83,-504.85C660.95,-462.54 733.07,-366.31 753.18,-316.98"/>
<polygon fill="#000000" stroke="#000000" points="756.5,-318.08 756.57,-307.48 749.91,-315.72 756.5,-318.08"/>
<text text-anchor="middle" x="671.01" y="-413.91" font-family="monospace" font-size="10.00">owns</text>
</g>
<!-- lightning_types&#45;&gt;lightning_types::dack_aggregator -->
<g id="edge20" class="edge">
<title>lightning_types&#45;&gt;lightning_types::dack_aggregator</title>
<path fill="none" stroke="#7f7f7f" stroke-dasharray="5,2" d="M574.16,-504.87C587,-461.73 659.01,-363.01 709.33,-314.59"/>
<polygon fill="#7f7f7f" stroke="#7f7f7f" points="711.97,-316.92 716.9,-307.55 707.2,-311.8 711.97,-316.92"/>
<text text-anchor="middle" x="629.25" y="-412.73" font-family="monospace" font-size="10.00">uses</text>
</g>
<!-- lightning_types::fetcher -->
<g id="node12" class="node">
<title>lightning_types::fetcher</title>
<polygon fill="#f8c04c" stroke="black" points="78.98,-714.82 78.98,-752.82 239.98,-752.82 239.98,-714.82 78.98,-714.82"/>
<text text-anchor="middle" x="159.48" y="-740.82" font-family="monospace" font-size="10.00">pub(crate) mod</text>
<polyline fill="none" stroke="black" points="78.98,-733.82 239.98,-733.82 "/>
<text text-anchor="middle" x="159.48" y="-721.82" font-family="monospace" font-size="10.00">lightning_types::fetcher</text>
</g>
<!-- lightning_types&#45;&gt;lightning_types::fetcher -->
<g id="edge21" class="edge">
<title>lightning_types&#45;&gt;lightning_types::fetcher</title>
<path fill="none" stroke="#000000" d="M521.59,-531.47C428.25,-563.33 241.06,-659.08 179.3,-708.18"/>
<polygon fill="#000000" stroke="#000000" points="176.84,-705.67 171.44,-714.78 181.35,-711.03 176.84,-705.67"/>
<text text-anchor="middle" x="337.95" y="-622.82" font-family="monospace" font-size="10.00">owns</text>
</g>
<!-- lightning_types&#45;&gt;lightning_types::fetcher -->
<g id="edge22" class="edge">
<title>lightning_types&#45;&gt;lightning_types::fetcher</title>
<path fill="none" stroke="#7f7f7f" stroke-dasharray="5,2" d="M563.14,-543.36C516.99,-584.73 353.96,-670.72 249.6,-712.84"/>
<polygon fill="#7f7f7f" stroke="#7f7f7f" points="248.01,-709.71 240,-716.66 250.59,-716.22 248.01,-709.71"/>
<text text-anchor="middle" x="393.87" y="-631.1" font-family="monospace" font-size="10.00">uses</text>
</g>
<!-- lightning_types::misbehavior -->
<g id="node13" class="node">
<title>lightning_types::misbehavior</title>
<polygon fill="#f8c04c" stroke="black" points="930.54,-302.4 930.54,-340.4 1115.54,-340.4 1115.54,-302.4 930.54,-302.4"/>
<text text-anchor="middle" x="1023.04" y="-328.4" font-family="monospace" font-size="10.00">pub(crate) mod</text>
<polyline fill="none" stroke="black" points="930.54,-321.4 1115.54,-321.4 "/>
<text text-anchor="middle" x="1023.04" y="-309.4" font-family="monospace" font-size="10.00">lightning_types::misbehavior</text>
</g>
<!-- lightning_types&#45;&gt;lightning_types::misbehavior -->
<g id="edge23" class="edge">
<title>lightning_types&#45;&gt;lightning_types::misbehavior</title>
<path fill="none" stroke="#000000" d="M629.02,-518.84C727.61,-489.52 932.5,-395.51 1000.74,-346.82"/>
<polygon fill="#000000" stroke="#000000" points="1003.19,-349.35 1009.08,-340.55 998.99,-343.76 1003.19,-349.35"/>
<text text-anchor="middle" x="802.38" y="-435.83" font-family="monospace" font-size="10.00">owns</text>
</g>
<!-- lightning_types&#45;&gt;lightning_types::misbehavior -->
<g id="edge24" class="edge">
<title>lightning_types&#45;&gt;lightning_types::misbehavior</title>
<path fill="none" stroke="#7f7f7f" stroke-dasharray="5,2" d="M589.09,-505.14C638.93,-465.19 808.71,-384.36 920.65,-343.18"/>
<polygon fill="#7f7f7f" stroke="#7f7f7f" points="922.08,-346.39 930.28,-339.69 919.69,-339.81 922.08,-346.39"/>
<text text-anchor="middle" x="742.37" y="-427.16" font-family="monospace" font-size="10.00">uses</text>
</g>
<!-- lightning_types::pool -->
<g id="node14" class="node">
<title>lightning_types::pool</title>
<polygon fill="#f8c04c" stroke="black" points="282.14,-994.04 282.14,-1032.04 425.14,-1032.04 425.14,-994.04 282.14,-994.04"/>
<text text-anchor="middle" x="353.64" y="-1020.04" font-family="monospace" font-size="10.00">pub(crate) mod</text>
<polyline fill="none" stroke="black" points="282.14,-1013.04 425.14,-1013.04 "/>
<text text-anchor="middle" x="353.64" y="-1001.04" font-family="monospace" font-size="10.00">lightning_types::pool</text>
</g>
<!-- lightning_types&#45;&gt;lightning_types::pool -->
<g id="edge25" class="edge">
<title>lightning_types&#45;&gt;lightning_types::pool</title>
<path fill="none" stroke="#000000" d="M552.77,-543.26C497.45,-618.71 373.06,-893.17 353.07,-983.99"/>
<polygon fill="#000000" stroke="#000000" points="349.62,-983.41 351.2,-993.89 356.5,-984.71 349.62,-983.41"/>
<text text-anchor="middle" x="440.42" y="-766.62" font-family="monospace" font-size="10.00">owns</text>
</g>
<!-- lightning_types&#45;&gt;lightning_types::pool -->
<g id="edge26" class="edge">
<title>lightning_types&#45;&gt;lightning_types::pool</title>
<path fill="none" stroke="#7f7f7f" stroke-dasharray="5,2" d="M577.68,-543.28C566.24,-619.3 442,-896.9 381.86,-985.79"/>
<polygon fill="#7f7f7f" stroke="#7f7f7f" points="378.96,-983.84 376.08,-994.03 384.69,-987.86 378.96,-983.84"/>
<text text-anchor="middle" x="467.27" y="-767.54" font-family="monospace" font-size="10.00">uses</text>
</g>
<!-- lightning_types::reputation -->
<g id="node15" class="node">
<title>lightning_types::reputation</title>
<polygon fill="#f8c04c" stroke="black" points="752.09,-665.88 752.09,-703.88 931.09,-703.88 931.09,-665.88 752.09,-665.88"/>
<text text-anchor="middle" x="841.59" y="-691.88" font-family="monospace" font-size="10.00">pub(crate) mod</text>
<polyline fill="none" stroke="black" points="752.09,-684.88 931.09,-684.88 "/>
<text text-anchor="middle" x="841.59" y="-672.88" font-family="monospace" font-size="10.00">lightning_types::reputation</text>
</g>
<!-- lightning_types&#45;&gt;lightning_types::reputation -->
<g id="edge27" class="edge">
<title>lightning_types&#45;&gt;lightning_types::reputation</title>
<path fill="none" stroke="#000000" d="M582.22,-543.32C607.74,-574.5 689.94,-628.64 755.24,-661.35"/>
<polygon fill="#000000" stroke="#000000" points="753.81,-664.55 764.33,-665.82 756.9,-658.26 753.81,-664.55"/>
<text text-anchor="middle" x="656.23" y="-605.33" font-family="monospace" font-size="10.00">owns</text>
</g>
<!-- lightning_types&#45;&gt;lightning_types::reputation -->
<g id="edge28" class="edge">
<title>lightning_types&#45;&gt;lightning_types::reputation</title>
<path fill="none" stroke="#7f7f7f" stroke-dasharray="5,2" d="M628.91,-532.64C691.55,-558.72 790.3,-620.14 827.6,-658.05"/>
<polygon fill="#7f7f7f" stroke="#7f7f7f" points="825.28,-660.7 834.59,-665.76 830.46,-656 825.28,-660.7"/>
<text text-anchor="middle" x="715.76" y="-598.35" font-family="monospace" font-size="10.00">uses</text>
</g>
<!-- lightning_types::response -->
<g id="node16" class="node">
<title>lightning_types::response</title>
<polygon fill="#f8c04c" stroke="black" points="899.41,-778.7 899.41,-816.7 1066.41,-816.7 1066.41,-778.7 899.41,-778.7"/>
<text text-anchor="middle" x="982.91" y="-804.7" font-family="monospace" font-size="10.00">pub(crate) mod</text>
<polyline fill="none" stroke="black" points="899.41,-797.7 1066.41,-797.7 "/>
<text text-anchor="middle" x="982.91" y="-785.7" font-family="monospace" font-size="10.00">lightning_types::response</text>
</g>
<!-- lightning_types&#45;&gt;lightning_types::response -->
<g id="edge29" class="edge">
<title>lightning_types&#45;&gt;lightning_types::response</title>
<path fill="none" stroke="#000000" d="M584.09,-543.42C627.58,-594.03 808.84,-719.16 911.65,-773.78"/>
<polygon fill="#000000" stroke="#000000" points="910.26,-777 920.74,-778.53 913.5,-770.8 910.26,-777"/>
<text text-anchor="middle" x="735.37" y="-661.6" font-family="monospace" font-size="10.00">owns</text>
</g>
<!-- lightning_types&#45;&gt;lightning_types::response -->
<g id="edge30" class="edge">
<title>lightning_types&#45;&gt;lightning_types::response</title>
<path fill="none" stroke="#7f7f7f" stroke-dasharray="5,2" d="M629.02,-539.17C722.87,-585.45 910.25,-712.81 966.98,-770.84"/>
<polygon fill="#7f7f7f" stroke="#7f7f7f" points="964.74,-773.57 974.09,-778.55 969.88,-768.83 964.74,-773.57"/>
<text text-anchor="middle" x="785.5" y="-647.01" font-family="monospace" font-size="10.00">uses</text>
</g>
<!-- lightning_types::rpc -->
<g id="node17" class="node">
<title>lightning_types::rpc</title>
<polygon fill="#f8c04c" stroke="black" points="306.35,-55.89 306.35,-93.89 443.35,-93.89 443.35,-55.89 306.35,-55.89"/>
<text text-anchor="middle" x="374.85" y="-81.89" font-family="monospace" font-size="10.00">pub(crate) mod</text>
<polyline fill="none" stroke="black" points="306.35,-74.89 443.35,-74.89 "/>
<text text-anchor="middle" x="374.85" y="-62.89" font-family="monospace" font-size="10.00">lightning_types::rpc</text>
</g>
<!-- lightning_types&#45;&gt;lightning_types::rpc -->
<g id="edge31" class="edge">
<title>lightning_types&#45;&gt;lightning_types::rpc</title>
<path fill="none" stroke="#000000" d="M578.17,-504.98C568.51,-433.38 459.77,-185.82 403.55,-102.3"/>
<polygon fill="#000000" stroke="#000000" points="406.39,-100.25 397.79,-94.07 400.66,-104.26 406.39,-100.25"/>
<text text-anchor="middle" x="478.36" y="-306.64" font-family="monospace" font-size="10.00">owns</text>
</g>
<!-- lightning_types&#45;&gt;lightning_types::rpc -->
<g id="edge32" class="edge">
<title>lightning_types&#45;&gt;lightning_types::rpc</title>
<path fill="none" stroke="#7f7f7f" stroke-dasharray="5,2" d="M552.32,-505.09C500.38,-434.13 391.23,-189.26 373.63,-104.03"/>
<polygon fill="#7f7f7f" stroke="#7f7f7f" points="377.05,-103.25 371.89,-94 370.15,-104.45 377.05,-103.25"/>
<text text-anchor="middle" x="450.48" y="-307.56" font-family="monospace" font-size="10.00">uses</text>
</g>
<!-- lightning_types::state -->
<g id="node18" class="node">
<title>lightning_types::state</title>
<polygon fill="#f8c04c" stroke="black" points="727.72,-838.52 727.72,-876.52 876.72,-876.52 876.72,-838.52 727.72,-838.52"/>
<text text-anchor="middle" x="802.22" y="-864.52" font-family="monospace" font-size="10.00">pub(crate) mod</text>
<polyline fill="none" stroke="black" points="727.72,-857.52 876.72,-857.52 "/>
<text text-anchor="middle" x="802.22" y="-845.52" font-family="monospace" font-size="10.00">lightning_types::state</text>
</g>
<!-- lightning_types&#45;&gt;lightning_types::state -->
<g id="edge33" class="edge">
<title>lightning_types&#45;&gt;lightning_types::state</title>
<path fill="none" stroke="#000000" d="M574.68,-543.41C591.28,-600.77 700.49,-764.94 762.53,-830.69"/>
<polygon fill="#000000" stroke="#000000" points="760.37,-833.49 769.85,-838.21 765.38,-828.6 760.37,-833.49"/>
<text text-anchor="middle" x="656.11" y="-679.05" font-family="monospace" font-size="10.00">owns</text>
</g>
<!-- lightning_types&#45;&gt;lightning_types::state -->
<g id="edge34" class="edge">
<title>lightning_types&#45;&gt;lightning_types::state</title>
<path fill="none" stroke="#7f7f7f" stroke-dasharray="5,2" d="M607.74,-543.67C665.13,-600.59 774.05,-761.68 799.49,-828.68"/>
<polygon fill="#7f7f7f" stroke="#7f7f7f" points="796.2,-829.88 802.73,-838.22 802.83,-827.63 796.2,-829.88"/>
<text text-anchor="middle" x="691.11" y="-678.17" font-family="monospace" font-size="10.00">uses</text>
</g>
<!-- lightning_types::transaction -->
<g id="node19" class="node">
<title>lightning_types::transaction</title>
<polygon fill="#f8c04c" stroke="black" points="866.44,-509.44 866.44,-547.44 1051.44,-547.44 1051.44,-509.44 866.44,-509.44"/>
<text text-anchor="middle" x="958.94" y="-535.44" font-family="monospace" font-size="10.00">pub(crate) mod</text>
<polyline fill="none" stroke="black" points="866.44,-528.44 1051.44,-528.44 "/>
<text text-anchor="middle" x="958.94" y="-516.44" font-family="monospace" font-size="10.00">lightning_types::transaction</text>
</g>
<!-- lightning_types&#45;&gt;lightning_types::transaction -->
<g id="edge35" class="edge">
<title>lightning_types&#45;&gt;lightning_types::transaction</title>
<path fill="none" stroke="#000000" d="M622.46,-543.25C690.56,-554.47 816.6,-556.64 893.59,-548.59"/>
<polygon fill="#000000" stroke="#000000" points="894.12,-552.06 903.66,-547.45 893.32,-545.1 894.12,-552.06"/>
<text text-anchor="middle" x="745.53" y="-548.92" font-family="monospace" font-size="10.00">owns</text>
</g>
<!-- lightning_types&#45;&gt;lightning_types::transaction -->
<g id="edge36" class="edge">
<title>lightning_types&#45;&gt;lightning_types::transaction</title>
<path fill="none" stroke="#7f7f7f" stroke-dasharray="5,2" d="M628.79,-505.42C700.69,-496.25 827.87,-497.46 901.63,-507.87"/>
<polygon fill="#7f7f7f" stroke="#7f7f7f" points="901.26,-511.35 911.67,-509.4 902.31,-504.43 901.26,-511.35"/>
<text text-anchor="middle" x="752.71" y="-509.65" font-family="monospace" font-size="10.00">uses</text>
</g>
<!-- lightning_types::application&#45;&gt;lightning_types::response -->
<g id="edge37" class="edge">
<title>lightning_types::application&#45;&gt;lightning_types::response</title>
<path fill="none" stroke="#7f7f7f" stroke-dasharray="5,2" d="M1041.48,-667.86C1015.98,-693.82 988.23,-738.22 979.81,-768.28"/>
<polygon fill="#7f7f7f" stroke="#7f7f7f" points="976.35,-767.76 977.68,-778.27 983.19,-769.22 976.35,-767.76"/>
<text text-anchor="middle" x="998.15" y="-721.07" font-family="monospace" font-size="10.00">uses</text>
</g>
<!-- lightning_types::blockstore_server&#45;&gt;lightning_types::blockstore -->
<g id="edge38" class="edge">
<title>lightning_types::blockstore_server&#45;&gt;lightning_types::blockstore</title>
<path fill="none" stroke="#7f7f7f" stroke-dasharray="5,2" d="M523.07,-951.02C491.55,-921.88 431.23,-866.12 395.58,-833.17"/>
<polygon fill="#7f7f7f" stroke="#7f7f7f" points="397.66,-830.32 387.94,-826.1 392.91,-835.46 397.66,-830.32"/>
<text text-anchor="middle" x="446.82" y="-895.09" font-family="monospace" font-size="10.00">uses</text>
</g>
<!-- lightning_types::blockstore_server&#45;&gt;lightning_types::pool -->
<g id="edge39" class="edge">
<title>lightning_types::blockstore_server&#45;&gt;lightning_types::pool</title>
<path fill="none" stroke="#7f7f7f" stroke-dasharray="5,2" d="M459.48,-989.1C451.36,-990.93 443.14,-992.79 435.05,-994.62"/>
<polygon fill="#7f7f7f" stroke="#7f7f7f" points="434.25,-991.22 425.27,-996.84 435.8,-998.04 434.25,-991.22"/>
<text text-anchor="middle" x="459.77" y="-994.86" font-family="monospace" font-size="10.00">uses</text>
</g>
<!-- lightning_types::blockstore_server&#45;&gt;lightning_types::state -->
<g id="edge40" class="edge">
<title>lightning_types::blockstore_server&#45;&gt;lightning_types::state</title>
<path fill="none" stroke="#7f7f7f" stroke-dasharray="5,2" d="M587.52,-950.96C632.09,-931.56 701.19,-901.49 748.9,-880.73"/>
<polygon fill="#7f7f7f" stroke="#7f7f7f" points="750.37,-883.9 758.14,-876.7 747.58,-877.48 750.37,-883.9"/>
<text text-anchor="middle" x="655.71" y="-918.84" font-family="monospace" font-size="10.00">uses</text>
</g>
<!-- lightning_types::connection&#45;&gt;lightning_types::compression -->
<g id="edge41" class="edge">
<title>lightning_types::connection&#45;&gt;lightning_types::compression</title>
<path fill="none" stroke="#7f7f7f" stroke-dasharray="5,2" d="M197.9,-228.02C183.29,-250.36 159.02,-287.46 142.37,-312.93"/>
<polygon fill="#7f7f7f" stroke="#7f7f7f" points="139.37,-311.12 136.83,-321.4 145.23,-314.95 139.37,-311.12"/>
<text text-anchor="middle" x="157.64" y="-273.47" font-family="monospace" font-size="10.00">uses</text>
</g>
<!-- lightning_types::content_registry&#45;&gt;lightning_types::blockstore -->
<g id="edge42" class="edge">
<title>lightning_types::content_registry&#45;&gt;lightning_types::blockstore</title>
<path fill="none" stroke="#7f7f7f" stroke-dasharray="5,2" d="M569.58,-733.82C528.85,-748.54 472.44,-768.92 429.53,-784.43"/>
<polygon fill="#7f7f7f" stroke="#7f7f7f" points="428.25,-781.17 420.03,-787.86 430.63,-787.75 428.25,-781.17"/>
<text text-anchor="middle" x="487.05" y="-751.12" font-family="monospace" font-size="10.00">uses</text>
</g>
<!-- lightning_types::fetcher&#45;&gt;lightning_types::blockstore -->
<g id="edge43" class="edge">
<title>lightning_types::fetcher&#45;&gt;lightning_types::blockstore</title>
<path fill="none" stroke="#7f7f7f" stroke-dasharray="5,2" d="M213.52,-752.84C241.06,-762.53 274.72,-774.38 303.52,-784.52"/>
<polygon fill="#7f7f7f" stroke="#7f7f7f" points="302.49,-787.87 313.08,-787.89 304.81,-781.27 302.49,-787.87"/>
<text text-anchor="middle" x="246.02" y="-771.68" font-family="monospace" font-size="10.00">uses</text>
</g>
<!-- lightning_types::fetcher&#45;&gt;lightning_types::content -->
<g id="edge44" class="edge">
<title>lightning_types::fetcher&#45;&gt;lightning_types::content</title>
<path fill="none" stroke="#7f7f7f" stroke-dasharray="5,2" d="M149.95,-714.56C136.2,-686.75 110.67,-635.14 94.69,-602.84"/>
<polygon fill="#7f7f7f" stroke="#7f7f7f" points="97.63,-600.89 90.06,-593.48 91.36,-604 97.63,-600.89"/>
<text text-anchor="middle" x="109.82" y="-661.7" font-family="monospace" font-size="10.00">uses</text>
</g>
<!-- lightning_types::response&#45;&gt;lightning_types::application -->
<g id="edge45" class="edge">
<title>lightning_types::response&#45;&gt;lightning_types::application</title>
<path fill="none" stroke="#7f7f7f" stroke-dasharray="5,2" d="M1022.56,-778.5C1048.06,-752.54 1075.82,-708.14 1084.23,-678.08"/>
<polygon fill="#7f7f7f" stroke="#7f7f7f" points="1087.7,-678.61 1086.36,-668.09 1080.85,-677.14 1087.7,-678.61"/>
<text text-anchor="middle" x="1040.9" y="-731.29" font-family="monospace" font-size="10.00">uses</text>
</g>
<!-- lightning_types::response&#45;&gt;lightning_types::state -->
<g id="edge46" class="edge">
<title>lightning_types::response&#45;&gt;lightning_types::state</title>
<path fill="none" stroke="#7f7f7f" stroke-dasharray="5,2" d="M925.24,-816.8C907.47,-822.68 887.75,-829.21 869.39,-835.28"/>
<polygon fill="#7f7f7f" stroke="#7f7f7f" points="868.04,-832.04 859.65,-838.51 870.24,-838.69 868.04,-832.04"/>
<text text-anchor="middle" x="884.82" y="-829.04" font-family="monospace" font-size="10.00">uses</text>
</g>
<!-- lightning_types::response&#45;&gt;lightning_types::transaction -->
<g id="edge47" class="edge">
<title>lightning_types::response&#45;&gt;lightning_types::transaction</title>
<path fill="none" stroke="#7f7f7f" stroke-dasharray="5,2" d="M995.62,-778.34C1007.1,-731.56 997.64,-612.29 979.41,-557.16"/>
<polygon fill="#7f7f7f" stroke="#7f7f7f" points="982.64,-555.82 975.9,-547.64 976.07,-558.24 982.64,-555.82"/>
<text text-anchor="middle" x="975.02" y="-670.75" font-family="monospace" font-size="10.00">uses</text>
</g>
<!-- lightning_types::state&#45;&gt;lightning_types::reputation -->
<g id="edge48" class="edge">
<title>lightning_types::state&#45;&gt;lightning_types::reputation</title>
<path fill="none" stroke="#7f7f7f" stroke-dasharray="5,2" d="M806.58,-838.39C813.44,-808.31 826.79,-749.76 834.88,-714.31"/>
<polygon fill="#7f7f7f" stroke="#7f7f7f" points="838.4,-714.63 837.21,-704.1 831.57,-713.07 838.4,-714.63"/>
<text text-anchor="middle" x="808.23" y="-779.35" font-family="monospace" font-size="10.00">uses</text>
</g>
<!-- lightning_types::transaction&#45;&gt;lightning_types::application -->
<g id="edge49" class="edge">
<title>lightning_types::transaction&#45;&gt;lightning_types::application</title>
<path fill="none" stroke="#7f7f7f" stroke-dasharray="5,2" d="M978.3,-547.49C998.74,-567.59 1031.11,-599.44 1054.07,-622.02"/>
<polygon fill="#7f7f7f" stroke="#7f7f7f" points="1051.88,-624.78 1061.46,-629.3 1056.79,-619.79 1051.88,-624.78"/>
<text text-anchor="middle" x="1003.68" y="-587.76" font-family="monospace" font-size="10.00">uses</text>
</g>
<!-- lightning_types::transaction&#45;&gt;lightning_types::bridge -->
<g id="edge50" class="edge">
<title>lightning_types::transaction&#45;&gt;lightning_types::bridge</title>
<path fill="none" stroke="#7f7f7f" stroke-dasharray="5,2" d="M955.36,-509.42C945.05,-454.59 915.2,-295.98 902.82,-230.14"/>
<polygon fill="#7f7f7f" stroke="#7f7f7f" points="906.21,-229.23 900.92,-220.05 899.33,-230.52 906.21,-229.23"/>
<text text-anchor="middle" x="916.59" y="-372.78" font-family="monospace" font-size="10.00">uses</text>
</g>
<!-- lightning_types::transaction&#45;&gt;lightning_types::content_registry -->
<g id="edge51" class="edge">
<title>lightning_types::transaction&#45;&gt;lightning_types::content_registry</title>
<path fill="none" stroke="#7f7f7f" stroke-dasharray="5,2" d="M924.51,-547.5C862.85,-581.64 733.68,-653.14 665.98,-690.62"/>
<polygon fill="#7f7f7f" stroke="#7f7f7f" points="663.9,-687.77 656.84,-695.68 667.29,-693.9 663.9,-687.77"/>
<text text-anchor="middle" x="782.74" y="-622.06" font-family="monospace" font-size="10.00">uses</text>
</g>
<!-- lightning_types::transaction&#45;&gt;lightning_types::dack_aggregator -->
<g id="edge52" class="edge">
<title>lightning_types::transaction&#45;&gt;lightning_types::dack_aggregator</title>
<path fill="none" stroke="#7f7f7f" stroke-dasharray="5,2" d="M942.63,-509.19C906.46,-466.47 819.42,-363.7 778.05,-314.85"/>
<polygon fill="#7f7f7f" stroke="#7f7f7f" points="780.71,-312.58 771.58,-307.21 775.37,-317.11 780.71,-312.58"/>
<text text-anchor="middle" x="847.84" y="-415.02" font-family="monospace" font-size="10.00">uses</text>
</g>
<!-- lightning_types::transaction&#45;&gt;lightning_types::misbehavior -->
<g id="edge53" class="edge">
<title>lightning_types::transaction&#45;&gt;lightning_types::misbehavior</title>
<path fill="none" stroke="#7f7f7f" stroke-dasharray="5,2" d="M964.86,-509.33C976.16,-472.82 1000.89,-392.95 1014.18,-350.03"/>
<polygon fill="#7f7f7f" stroke="#7f7f7f" points="1017.52,-351.05 1017.14,-340.46 1010.84,-348.98 1017.52,-351.05"/>
<text text-anchor="middle" x="977.02" y="-432.68" font-family="monospace" font-size="10.00">uses</text>
</g>
<!-- lightning_types::transaction&#45;&gt;lightning_types::reputation -->
<g id="edge54" class="edge">
<title>lightning_types::transaction&#45;&gt;lightning_types::reputation</title>
<path fill="none" stroke="#7f7f7f" stroke-dasharray="5,2" d="M944.55,-547.62C923.96,-575.07 885.99,-625.69 862.36,-657.2"/>
<polygon fill="#7f7f7f" stroke="#7f7f7f" points="859.3,-655.44 856.1,-665.54 864.9,-659.64 859.3,-655.44"/>
<text text-anchor="middle" x="890.95" y="-605.41" font-family="monospace" font-size="10.00">uses</text>
</g>
<!-- lightning_types::transaction&#45;&gt;lightning_types::response -->
<g id="edge55" class="edge">
<title>lightning_types::transaction&#45;&gt;lightning_types::response</title>
<path fill="none" stroke="#7f7f7f" stroke-dasharray="5,2" d="M946.22,-547.8C934.75,-594.58 944.21,-713.85 962.44,-768.98"/>
<polygon fill="#7f7f7f" stroke="#7f7f7f" points="959.21,-770.33 965.95,-778.5 965.78,-767.91 959.21,-770.33"/>
<text text-anchor="middle" x="941.83" y="-650.39" font-family="monospace" font-size="10.00">uses</text>
</g>
<!-- lightning_types::transaction&#45;&gt;lightning_types::state -->
<g id="edge56" class="edge">
<title>lightning_types::transaction&#45;&gt;lightning_types::state</title>
<path fill="none" stroke="#7f7f7f" stroke-dasharray="5,2" d="M949.84,-547.56C923.49,-602.88 847.06,-763.37 815.79,-829.02"/>
<polygon fill="#7f7f7f" stroke="#7f7f7f" points="812.49,-827.82 811.35,-838.35 818.81,-830.83 812.49,-827.82"/>
<text text-anchor="middle" x="870.31" y="-691.29" font-family="monospace" font-size="10.00">uses</text>
</g>
<!-- rlp -->
<g id="node20" class="node">
<title>rlp</title>
<polygon fill="#5397c8" stroke="black" points="1404.08,-465.57 1404.08,-503.57 1505.08,-503.57 1505.08,-465.57 1404.08,-465.57"/>
<text text-anchor="middle" x="1454.58" y="-491.57" font-family="monospace" font-size="10.00">external crate</text>
<polyline fill="none" stroke="black" points="1404.08,-484.57 1505.08,-484.57 "/>
<text text-anchor="middle" x="1454.58" y="-472.57" font-family="monospace" font-size="10.00">rlp</text>
</g>
<!-- lightning_types::transaction&#45;&gt;rlp -->
<g id="edge57" class="edge">
<title>lightning_types::transaction&#45;&gt;rlp</title>
<path fill="none" stroke="#7f7f7f" stroke-dasharray="5,2" d="M1051.59,-520.24C1151.75,-511.37 1308.49,-497.5 1393.98,-489.93"/>
<polygon fill="#7f7f7f" stroke="#7f7f7f" points="1394.4,-493.41 1404.05,-489.04 1393.78,-486.44 1394.4,-493.41"/>
<text text-anchor="middle" x="1210.28" y="-508.09" font-family="monospace" font-size="10.00">uses</text>
</g>
</g>
</svg>
