<?xml version="1.0" encoding="UTF-8" standalone="no"?>
<!DOCTYPE svg PUBLIC "-//W3C//DTD SVG 1.1//EN"
 "http://www.w3.org/Graphics/SVG/1.1/DTD/svg11.dtd">
<!-- Generated by graphviz version 4.0.0 (0)
 -->
<!-- Pages: 1 -->
<svg width="2103pt" height="3081pt"
 viewBox="0.00 0.00 2102.60 3080.60" xmlns="http://www.w3.org/2000/svg" xmlns:xlink="http://www.w3.org/1999/xlink">
<g id="graph0" class="graph" transform="scale(1 1) rotate(0) translate(28.8 3051.8)">
<polygon fill="white" stroke="transparent" points="-28.8,28.8 -28.8,-3051.8 2073.8,-3051.8 2073.8,28.8 -28.8,28.8"/>
<text text-anchor="middle" x="1022.5" y="-2990.2" font-family="Helvetica,sans-Serif" font-size="36.00">lightning_forwarder</text>
<!-- lightning_forwarder -->
<g id="node1" class="node">
<title>lightning_forwarder</title>
<polygon fill="#5397c8" stroke="black" points="0,-2302 0,-2340 131,-2340 131,-2302 0,-2302"/>
<text text-anchor="middle" x="65.5" y="-2328" font-family="monospace" font-size="10.00">crate</text>
<polyline fill="none" stroke="black" points="0,-2321 131,-2321 "/>
<text text-anchor="middle" x="65.5" y="-2309" font-family="monospace" font-size="10.00">lightning_forwarder</text>
</g>
<!-- lightning_forwarder::config::ForwarderConfig -->
<g id="node2" class="node">
<title>lightning_forwarder::config::ForwarderConfig</title>
<polygon fill="#81c169" stroke="black" points="894,-2612 894,-2650 1049,-2650 1049,-2612 894,-2612"/>
<text text-anchor="middle" x="971.5" y="-2638" font-family="monospace" font-size="10.00">pub struct</text>
<polyline fill="none" stroke="black" points="894,-2631 1049,-2631 "/>
<text text-anchor="middle" x="971.5" y="-2619" font-family="monospace" font-size="10.00">config::ForwarderConfig</text>
</g>
<!-- lightning_forwarder&#45;&gt;lightning_forwarder::config::ForwarderConfig -->
<g id="edge1" class="edge">
<title>lightning_forwarder&#45;&gt;lightning_forwarder::config::ForwarderConfig</title>
<path fill="none" stroke="#000000" d="M92.35,-2340.16C187.08,-2407.74 500,-2631 500,-2631 500,-2631 747.52,-2631 883.88,-2631"/>
<polygon fill="#000000" stroke="#000000" points="883.91,-2634.5 893.91,-2631 883.91,-2627.5 883.91,-2634.5"/>
<text text-anchor="middle" x="512.5" y="-2634" font-family="monospace" font-size="10.00">owns</text>
</g>
<!-- lightning_forwarder&#45;&gt;lightning_forwarder::config::ForwarderConfig -->
<g id="edge2" class="edge">
<title>lightning_forwarder&#45;&gt;lightning_forwarder::config::ForwarderConfig</title>
<path fill="none" stroke="#7f7f7f" stroke-dasharray="5,2" d="M118.78,-2340.01C234.8,-2381.4 500,-2476 500,-2476 500,-2476 773.9,-2566.04 904.18,-2608.87"/>
<polygon fill="#7f7f7f" stroke="#7f7f7f" points="903.09,-2612.2 913.68,-2611.99 905.28,-2605.55 903.09,-2612.2"/>
<text text-anchor="middle" x="512.5" y="-2479" font-family="monospace" font-size="10.00">uses</text>
</g>
<!-- lightning_forwarder::forwarder::Forwarder -->
<g id="node3" class="node">
<title>lightning_forwarder::forwarder::Forwarder</title>
<polygon fill="#81c169" stroke="black" points="903,-2402 903,-2440 1040,-2440 1040,-2402 903,-2402"/>
<text text-anchor="middle" x="971.5" y="-2428" font-family="monospace" font-size="10.00">pub struct</text>
<polyline fill="none" stroke="black" points="903,-2421 1040,-2421 "/>
<text text-anchor="middle" x="971.5" y="-2409" font-family="monospace" font-size="10.00">forwarder::Forwarder</text>
</g>
<!-- lightning_forwarder&#45;&gt;lightning_forwarder::forwarder::Forwarder -->
<g id="edge3" class="edge">
<title>lightning_forwarder&#45;&gt;lightning_forwarder::forwarder::Forwarder</title>
<path fill="none" stroke="#000000" d="M131.34,-2322.58C258.39,-2325.62 525,-2332 525,-2332 525,-2332 764.33,-2379.7 892.55,-2405.26"/>
<polygon fill="#000000" stroke="#000000" points="892.22,-2408.77 902.71,-2407.29 893.59,-2401.9 892.22,-2408.77"/>
<text text-anchor="middle" x="512.5" y="-2324" font-family="monospace" font-size="10.00">owns</text>
</g>
<!-- lightning_forwarder&#45;&gt;lightning_forwarder::forwarder::Forwarder -->
<g id="edge4" class="edge">
<title>lightning_forwarder&#45;&gt;lightning_forwarder::forwarder::Forwarder</title>
<path fill="none" stroke="#7f7f7f" stroke-dasharray="5,2" d="M112.09,-2301.94C228.91,-2254.14 525,-2133 525,-2133 525,-2133 825.03,-2326.52 933.2,-2396.3"/>
<polygon fill="#7f7f7f" stroke="#7f7f7f" points="931.56,-2399.4 941.86,-2401.88 935.35,-2393.52 931.56,-2399.4"/>
<text text-anchor="middle" x="512.5" y="-2125" font-family="monospace" font-size="10.00">uses</text>
</g>
<!-- lightning_forwarder::worker::Worker -->
<g id="node7" class="node">
<title>lightning_forwarder::worker::Worker</title>
<polygon fill="#81c169" stroke="black" points="921,-1240 921,-1278 1022,-1278 1022,-1240 921,-1240"/>
<text text-anchor="middle" x="971.5" y="-1266" font-family="monospace" font-size="10.00">pub struct</text>
<polyline fill="none" stroke="black" points="921,-1259 1022,-1259 "/>
<text text-anchor="middle" x="971.5" y="-1247" font-family="monospace" font-size="10.00">worker::Worker</text>
</g>
<!-- lightning_forwarder&#45;&gt;lightning_forwarder::worker::Worker -->
<g id="edge5" class="edge">
<title>lightning_forwarder&#45;&gt;lightning_forwarder::worker::Worker</title>
<path fill="none" stroke="#000000" d="M84.45,-2301.72C168.08,-2216.65 500,-1879 500,-1879 500,-1879 859.81,-1405.87 950.79,-1286.23"/>
<polygon fill="#000000" stroke="#000000" points="953.6,-1288.31 956.87,-1278.24 948.03,-1284.08 953.6,-1288.31"/>
<text text-anchor="middle" x="512.5" y="-1882" font-family="monospace" font-size="10.00">owns</text>
</g>
<!-- lightning_forwarder&#45;&gt;lightning_forwarder::worker::Worker -->
<g id="edge6" class="edge">
<title>lightning_forwarder&#45;&gt;lightning_forwarder::worker::Worker</title>
<path fill="none" stroke="#7f7f7f" stroke-dasharray="5,2" d="M74.27,-2301.95C137.79,-2163.98 525,-1323 525,-1323 525,-1323 788.66,-1285.21 910.76,-1267.71"/>
<polygon fill="#7f7f7f" stroke="#7f7f7f" points="911.31,-1271.16 920.72,-1266.28 910.32,-1264.23 911.31,-1271.16"/>
<text text-anchor="middle" x="512.5" y="-1315" font-family="monospace" font-size="10.00">uses</text>
</g>
<!-- lightning_forwarder::forwarder::Forwarder::Config -->
<g id="node4" class="node">
<title>lightning_forwarder::forwarder::Forwarder::Config</title>
<polygon fill="#db5367" stroke="black" points="1836,-2635 1836,-2673 2021,-2673 2021,-2635 1836,-2635"/>
<text text-anchor="middle" x="1928.5" y="-2661" font-family="monospace" font-size="10.00">pub(self) type</text>
<polyline fill="none" stroke="black" points="1836,-2654 2021,-2654 "/>
<text text-anchor="middle" x="1928.5" y="-2642" font-family="monospace" font-size="10.00">forwarder::Forwarder::Config</text>
</g>
<!-- lightning_forwarder::forwarder::Forwarder&#45;&gt;lightning_forwarder::forwarder::Forwarder::Config -->
<g id="edge7" class="edge">
<title>lightning_forwarder::forwarder::Forwarder&#45;&gt;lightning_forwarder::forwarder::Forwarder::Config</title>
<path fill="none" stroke="#000000" d="M1008.04,-2440.07C1114.68,-2495.71 1418,-2654 1418,-2654 1418,-2654 1676.56,-2654 1825.66,-2654"/>
<polygon fill="#000000" stroke="#000000" points="1825.76,-2657.5 1835.76,-2654 1825.76,-2650.5 1825.76,-2657.5"/>
<text text-anchor="middle" x="1430.5" y="-2657" font-family="monospace" font-size="10.00">owns</text>
</g>
<!-- lightning_forwarder::forwarder::Forwarder::init -->
<g id="node5" class="node">
<title>lightning_forwarder::forwarder::Forwarder::init</title>
<polygon fill="#db5367" stroke="black" points="1842,-2480 1842,-2518 2015,-2518 2015,-2480 1842,-2480"/>
<text text-anchor="middle" x="1928.5" y="-2506" font-family="monospace" font-size="10.00">pub(self) fn</text>
<polyline fill="none" stroke="black" points="1842,-2499 2015,-2499 "/>
<text text-anchor="middle" x="1928.5" y="-2487" font-family="monospace" font-size="10.00">forwarder::Forwarder::init</text>
</g>
<!-- lightning_forwarder::forwarder::Forwarder&#45;&gt;lightning_forwarder::forwarder::Forwarder::init -->
<g id="edge8" class="edge">
<title>lightning_forwarder::forwarder::Forwarder&#45;&gt;lightning_forwarder::forwarder::Forwarder::init</title>
<path fill="none" stroke="#000000" d="M1040.29,-2433.02C1165.53,-2454.9 1418,-2499 1418,-2499 1418,-2499 1683.89,-2499 1831.89,-2499"/>
<polygon fill="#000000" stroke="#000000" points="1831.9,-2502.5 1841.9,-2499 1831.9,-2495.5 1831.9,-2502.5"/>
<text text-anchor="middle" x="1430.5" y="-2502" font-family="monospace" font-size="10.00">owns</text>
</g>
<!-- lightning_forwarder::forwarder::Forwarder::mempool_socket -->
<g id="node6" class="node">
<title>lightning_forwarder::forwarder::Forwarder::mempool_socket</title>
<polygon fill="#db5367" stroke="black" points="1812,-2325 1812,-2363 2045,-2363 2045,-2325 1812,-2325"/>
<text text-anchor="middle" x="1928.5" y="-2351" font-family="monospace" font-size="10.00">pub(self) fn</text>
<polyline fill="none" stroke="black" points="1812,-2344 2045,-2344 "/>
<text text-anchor="middle" x="1928.5" y="-2332" font-family="monospace" font-size="10.00">forwarder::Forwarder::mempool_socket</text>
</g>
<!-- lightning_forwarder::forwarder::Forwarder&#45;&gt;lightning_forwarder::forwarder::Forwarder::mempool_socket -->
<g id="edge9" class="edge">
<title>lightning_forwarder::forwarder::Forwarder&#45;&gt;lightning_forwarder::forwarder::Forwarder::mempool_socket</title>
<path fill="none" stroke="#000000" d="M1040.06,-2411.4C1170.83,-2393.1 1443,-2355 1443,-2355 1443,-2355 1657.82,-2350.13 1801.67,-2346.87"/>
<polygon fill="#000000" stroke="#000000" points="1801.98,-2350.37 1811.9,-2346.64 1801.83,-2343.37 1801.98,-2350.37"/>
<text text-anchor="middle" x="1430.5" y="-2347" font-family="monospace" font-size="10.00">owns</text>
</g>
<!-- lightning_forwarder::forwarder::Forwarder::Config&#45;&gt;lightning_forwarder::config::ForwarderConfig -->
<g id="edge10" class="edge">
<title>lightning_forwarder::forwarder::Forwarder::Config&#45;&gt;lightning_forwarder::config::ForwarderConfig</title>
<path fill="none" stroke="#7f7f7f" stroke-dasharray="5,2" d="M1896.95,-2673.16C1785.65,-2740.74 1418,-2964 1418,-2964 1418,-2964 1109.57,-2733.97 1005.4,-2656.28"/>
<polygon fill="#7f7f7f" stroke="#7f7f7f" points="1007.22,-2653.27 997.11,-2650.1 1003.03,-2658.88 1007.22,-2653.27"/>
<text text-anchor="middle" x="1430.5" y="-2967" font-family="monospace" font-size="10.00">uses</text>
</g>
<!-- lightning_forwarder::forwarder::Forwarder::init&#45;&gt;lightning_forwarder::config::ForwarderConfig -->
<g id="edge11" class="edge">
<title>lightning_forwarder::forwarder::Forwarder::init&#45;&gt;lightning_forwarder::config::ForwarderConfig</title>
<path fill="none" stroke="#7f7f7f" stroke-dasharray="5,2" d="M1896.95,-2518.16C1785.65,-2585.74 1418,-2809 1418,-2809 1418,-2809 1149.22,-2701.85 1028.74,-2653.82"/>
<polygon fill="#7f7f7f" stroke="#7f7f7f" points="1029.87,-2650.5 1019.28,-2650.05 1027.28,-2657 1029.87,-2650.5"/>
<text text-anchor="middle" x="1430.5" y="-2812" font-family="monospace" font-size="10.00">uses</text>
</g>
<!-- lightning_forwarder::forwarder::Forwarder::init&#45;&gt;lightning_forwarder::forwarder::Forwarder -->
<g id="edge12" class="edge">
<title>lightning_forwarder::forwarder::Forwarder::init&#45;&gt;lightning_forwarder::forwarder::Forwarder</title>
<path fill="none" stroke="#7f7f7f" stroke-dasharray="5,2" d="M1897.39,-2479.84C1790.24,-2413.85 1443,-2200 1443,-2200 1443,-2200 1142.35,-2340.92 1021.2,-2397.7"/>
<polygon fill="#7f7f7f" stroke="#7f7f7f" points="1019.68,-2394.55 1012.11,-2401.97 1022.65,-2400.89 1019.68,-2394.55"/>
<text text-anchor="middle" x="1430.5" y="-2192" font-family="monospace" font-size="10.00">uses</text>
</g>
<!-- lightning_forwarder::forwarder::Forwarder::init&#45;&gt;lightning_forwarder::worker::Worker -->
<g id="edge13" class="edge">
<title>lightning_forwarder::forwarder::Forwarder::init&#45;&gt;lightning_forwarder::worker::Worker</title>
<path fill="none" stroke="#7f7f7f" stroke-dasharray="5,2" d="M1912.66,-2479.76C1826.5,-2375.12 1418,-1879 1418,-1879 1418,-1879 1077.95,-1406.81 991.37,-1286.59"/>
<polygon fill="#7f7f7f" stroke="#7f7f7f" points="994.04,-1284.3 985.35,-1278.24 988.36,-1288.4 994.04,-1284.3"/>
<text text-anchor="middle" x="1430.5" y="-1882" font-family="monospace" font-size="10.00">uses</text>
</g>
<!-- lightning_forwarder::forwarder::Forwarder::mempool_socket&#45;&gt;lightning_forwarder::forwarder::Forwarder -->
<g id="edge14" class="edge">
<title>lightning_forwarder::forwarder::Forwarder::mempool_socket&#45;&gt;lightning_forwarder::forwarder::Forwarder</title>
<path fill="none" stroke="#7f7f7f" stroke-dasharray="5,2" d="M1897.39,-2324.84C1790.24,-2258.85 1443,-2045 1443,-2045 1443,-2045 1109.9,-2310.63 1003.65,-2395.36"/>
<polygon fill="#7f7f7f" stroke="#7f7f7f" points="1001.17,-2392.87 995.53,-2401.84 1005.53,-2398.34 1001.17,-2392.87"/>
<text text-anchor="middle" x="1430.5" y="-2037" font-family="monospace" font-size="10.00">uses</text>
</g>
<!-- lightning_forwarder::worker::Worker::Request -->
<g id="node8" class="node">
<title>lightning_forwarder::worker::Worker::Request</title>
<polygon fill="#db5367" stroke="black" points="1851,-1705 1851,-1743 2006,-1743 2006,-1705 1851,-1705"/>
<text text-anchor="middle" x="1928.5" y="-1731" font-family="monospace" font-size="10.00">pub(self) type</text>
<polyline fill="none" stroke="black" points="1851,-1724 2006,-1724 "/>
<text text-anchor="middle" x="1928.5" y="-1712" font-family="monospace" font-size="10.00">worker::Worker::Request</text>
</g>
<!-- lightning_forwarder::worker::Worker&#45;&gt;lightning_forwarder::worker::Worker::Request -->
<g id="edge15" class="edge">
<title>lightning_forwarder::worker::Worker&#45;&gt;lightning_forwarder::worker::Worker::Request</title>
<path fill="none" stroke="#000000" d="M989.84,-1278.1C1073.86,-1365.6 1418,-1724 1418,-1724 1418,-1724 1694.71,-1724 1840.69,-1724"/>
<polygon fill="#000000" stroke="#000000" points="1840.97,-1727.5 1850.97,-1724 1840.97,-1720.5 1840.97,-1727.5"/>
<text text-anchor="middle" x="1430.5" y="-1727" font-family="monospace" font-size="10.00">owns</text>
</g>
<!-- lightning_forwarder::worker::Worker::Response -->
<g id="node9" class="node">
<title>lightning_forwarder::worker::Worker::Response</title>
<polygon fill="#db5367" stroke="black" points="1848,-1550 1848,-1588 2009,-1588 2009,-1550 1848,-1550"/>
<text text-anchor="middle" x="1928.5" y="-1576" font-family="monospace" font-size="10.00">pub(self) type</text>
<polyline fill="none" stroke="black" points="1848,-1569 2009,-1569 "/>
<text text-anchor="middle" x="1928.5" y="-1557" font-family="monospace" font-size="10.00">worker::Worker::Response</text>
</g>
<!-- lightning_forwarder::worker::Worker&#45;&gt;lightning_forwarder::worker::Worker::Response -->
<g id="edge16" class="edge">
<title>lightning_forwarder::worker::Worker&#45;&gt;lightning_forwarder::worker::Worker::Response</title>
<path fill="none" stroke="#000000" d="M999.09,-1278.16C1096.44,-1345.74 1418,-1569 1418,-1569 1418,-1569 1690.78,-1569 1837.55,-1569"/>
<polygon fill="#000000" stroke="#000000" points="1837.89,-1572.5 1847.89,-1569 1837.89,-1565.5 1837.89,-1572.5"/>
<text text-anchor="middle" x="1430.5" y="-1572" font-family="monospace" font-size="10.00">owns</text>
</g>
<!-- lightning_forwarder::worker::Worker::handle -->
<g id="node10" class="node">
<title>lightning_forwarder::worker::Worker::handle</title>
<polygon fill="#db5367" stroke="black" points="1854,-1395 1854,-1433 2003,-1433 2003,-1395 1854,-1395"/>
<text text-anchor="middle" x="1928.5" y="-1421" font-family="monospace" font-size="10.00">pub(self) async fn</text>
<polyline fill="none" stroke="black" points="1854,-1414 2003,-1414 "/>
<text text-anchor="middle" x="1928.5" y="-1402" font-family="monospace" font-size="10.00">worker::Worker::handle</text>
</g>
<!-- lightning_forwarder::worker::Worker&#45;&gt;lightning_forwarder::worker::Worker::handle -->
<g id="edge17" class="edge">
<title>lightning_forwarder::worker::Worker&#45;&gt;lightning_forwarder::worker::Worker::handle</title>
<path fill="none" stroke="#000000" d="M1022.28,-1276.63C1139.31,-1317.25 1418,-1414 1418,-1414 1418,-1414 1698.67,-1414 1843.79,-1414"/>
<polygon fill="#000000" stroke="#000000" points="1844,-1417.5 1854,-1414 1844,-1410.5 1844,-1417.5"/>
<text text-anchor="middle" x="1430.5" y="-1417" font-family="monospace" font-size="10.00">owns</text>
</g>
<!-- lightning_forwarder::worker::Worker::handle_forward -->
<g id="node11" class="node">
<title>lightning_forwarder::worker::Worker::handle_forward</title>
<polygon fill="#db5367" stroke="black" points="1830,-1240 1830,-1278 2027,-1278 2027,-1240 1830,-1240"/>
<text text-anchor="middle" x="1928.5" y="-1266" font-family="monospace" font-size="10.00">pub(self) async fn</text>
<polyline fill="none" stroke="black" points="1830,-1259 2027,-1259 "/>
<text text-anchor="middle" x="1928.5" y="-1247" font-family="monospace" font-size="10.00">worker::Worker::handle_forward</text>
</g>
<!-- lightning_forwarder::worker::Worker&#45;&gt;lightning_forwarder::worker::Worker::handle_forward -->
<g id="edge18" class="edge">
<title>lightning_forwarder::worker::Worker&#45;&gt;lightning_forwarder::worker::Worker::handle_forward</title>
<path fill="none" stroke="#000000" d="M1022.28,-1259C1139.31,-1259 1418,-1259 1418,-1259 1418,-1259 1669.67,-1259 1819.6,-1259"/>
<polygon fill="#000000" stroke="#000000" points="1819.77,-1262.5 1829.77,-1259 1819.77,-1255.5 1819.77,-1262.5"/>
<text text-anchor="middle" x="1430.5" y="-1262" font-family="monospace" font-size="10.00">owns</text>
</g>
<!-- lightning_forwarder::worker::Worker::make_connections -->
<g id="node12" class="node">
<title>lightning_forwarder::worker::Worker::make_connections</title>
<polygon fill="#db5367" stroke="black" points="1824,-1085 1824,-1123 2033,-1123 2033,-1085 1824,-1085"/>
<text text-anchor="middle" x="1928.5" y="-1111" font-family="monospace" font-size="10.00">pub(self) async fn</text>
<polyline fill="none" stroke="black" points="1824,-1104 2033,-1104 "/>
<text text-anchor="middle" x="1928.5" y="-1092" font-family="monospace" font-size="10.00">worker::Worker::make_connections</text>
</g>
<!-- lightning_forwarder::worker::Worker&#45;&gt;lightning_forwarder::worker::Worker::make_connections -->
<g id="edge19" class="edge">
<title>lightning_forwarder::worker::Worker&#45;&gt;lightning_forwarder::worker::Worker::make_connections</title>
<path fill="none" stroke="#000000" d="M1022.41,-1243.45C1144.33,-1206.22 1443,-1115 1443,-1115 1443,-1115 1670,-1109.86 1813.56,-1106.6"/>
<polygon fill="#000000" stroke="#000000" points="1813.83,-1110.1 1823.75,-1106.37 1813.67,-1103.1 1813.83,-1110.1"/>
<text text-anchor="middle" x="1430.5" y="-1107" font-family="monospace" font-size="10.00">owns</text>
</g>
<!-- lightning_forwarder::worker::Worker::new -->
<g id="node13" class="node">
<title>lightning_forwarder::worker::Worker::new</title>
<polygon fill="#81c169" stroke="black" points="1863,-930 1863,-968 1994,-968 1994,-930 1863,-930"/>
<text text-anchor="middle" x="1928.5" y="-956" font-family="monospace" font-size="10.00">pub fn</text>
<polyline fill="none" stroke="black" points="1863,-949 1994,-949 "/>
<text text-anchor="middle" x="1928.5" y="-937" font-family="monospace" font-size="10.00">worker::Worker::new</text>
</g>
<!-- lightning_forwarder::worker::Worker&#45;&gt;lightning_forwarder::worker::Worker::new -->
<g id="edge20" class="edge">
<title>lightning_forwarder::worker::Worker&#45;&gt;lightning_forwarder::worker::Worker::new</title>
<path fill="none" stroke="#000000" d="M1001.71,-1239.84C1105.78,-1173.85 1443,-960 1443,-960 1443,-960 1715.74,-953.82 1852.38,-950.72"/>
<polygon fill="#000000" stroke="#000000" points="1852.85,-954.21 1862.77,-950.49 1852.69,-947.22 1852.85,-954.21"/>
<text text-anchor="middle" x="1430.5" y="-952" font-family="monospace" font-size="10.00">owns</text>
</g>
<!-- lightning_forwarder::worker::Worker::refresh_epoch -->
<g id="node14" class="node">
<title>lightning_forwarder::worker::Worker::refresh_epoch</title>
<polygon fill="#db5367" stroke="black" points="1833,-775 1833,-813 2024,-813 2024,-775 1833,-775"/>
<text text-anchor="middle" x="1928.5" y="-801" font-family="monospace" font-size="10.00">pub(self) fn</text>
<polyline fill="none" stroke="black" points="1833,-794 2024,-794 "/>
<text text-anchor="middle" x="1928.5" y="-782" font-family="monospace" font-size="10.00">worker::Worker::refresh_epoch</text>
</g>
<!-- lightning_forwarder::worker::Worker&#45;&gt;lightning_forwarder::worker::Worker::refresh_epoch -->
<g id="edge21" class="edge">
<title>lightning_forwarder::worker::Worker&#45;&gt;lightning_forwarder::worker::Worker::refresh_epoch</title>
<path fill="none" stroke="#000000" d="M991.46,-1239.78C1081.2,-1153.37 1443,-805 1443,-805 1443,-805 1679.92,-799.63 1822.75,-796.4"/>
<polygon fill="#000000" stroke="#000000" points="1822.95,-799.89 1832.87,-796.17 1822.79,-792.89 1822.95,-799.89"/>
<text text-anchor="middle" x="1430.5" y="-797" font-family="monospace" font-size="10.00">owns</text>
</g>
<!-- lightning_forwarder::worker::Worker::handle&#45;&gt;lightning_forwarder::worker::Worker -->
<g id="edge22" class="edge">
<title>lightning_forwarder::worker::Worker::handle&#45;&gt;lightning_forwarder::worker::Worker</title>
<path fill="none" stroke="#7f7f7f" stroke-dasharray="5,2" d="M1916.26,-1394.71C1840.88,-1275.93 1443,-649 1443,-649 1443,-649 1084.69,-1112.56 992.78,-1231.47"/>
<polygon fill="#7f7f7f" stroke="#7f7f7f" points="989.74,-1229.68 986.39,-1239.74 995.27,-1233.96 989.74,-1229.68"/>
<text text-anchor="middle" x="1430.5" y="-641" font-family="monospace" font-size="10.00">uses</text>
</g>
<!-- lightning_forwarder::worker::Worker::handle_forward&#45;&gt;lightning_forwarder::worker::Worker -->
<g id="edge23" class="edge">
<title>lightning_forwarder::worker::Worker::handle_forward&#45;&gt;lightning_forwarder::worker::Worker</title>
<path fill="none" stroke="#7f7f7f" stroke-dasharray="5,2" d="M1916.26,-1239.68C1840.88,-1120.75 1443,-493 1443,-493 1443,-493 1073.76,-1092.87 988.79,-1230.91"/>
<polygon fill="#7f7f7f" stroke="#7f7f7f" points="985.65,-1229.33 983.39,-1239.68 991.61,-1233 985.65,-1229.33"/>
<text text-anchor="middle" x="1430.5" y="-485" font-family="monospace" font-size="10.00">uses</text>
</g>
<!-- lightning_forwarder::worker::Worker::make_connections&#45;&gt;lightning_forwarder::worker::Worker -->
<g id="edge24" class="edge">
<title>lightning_forwarder::worker::Worker::make_connections&#45;&gt;lightning_forwarder::worker::Worker</title>
<path fill="none" stroke="#7f7f7f" stroke-dasharray="5,2" d="M1916.26,-1084.63C1840.88,-965.39 1443,-336 1443,-336 1443,-336 1065.05,-1075.87 985.92,-1230.77"/>
<polygon fill="#7f7f7f" stroke="#7f7f7f" points="982.78,-1229.22 981.35,-1239.72 989.01,-1232.41 982.78,-1229.22"/>
<text text-anchor="middle" x="1430.5" y="-328" font-family="monospace" font-size="10.00">uses</text>
</g>
<!-- lightning_forwarder::worker::Worker::new&#45;&gt;lightning_forwarder::worker::Worker -->
<g id="edge25" class="edge">
<title>lightning_forwarder::worker::Worker::new&#45;&gt;lightning_forwarder::worker::Worker</title>
<path fill="none" stroke="#7f7f7f" stroke-dasharray="5,2" d="M1916.5,-929.89C1841.74,-810.86 1443,-176 1443,-176 1443,-176 1058.61,-1058.92 983.97,-1230.36"/>
<polygon fill="#7f7f7f" stroke="#7f7f7f" points="980.67,-1229.18 979.88,-1239.74 987.08,-1231.97 980.67,-1229.18"/>
<text text-anchor="middle" x="1430.5" y="-168" font-family="monospace" font-size="10.00">uses</text>
</g>
<!-- lightning_forwarder::worker::Worker::refresh_epoch&#45;&gt;lightning_forwarder::worker::Worker -->
<g id="edge26" class="edge">
<title>lightning_forwarder::worker::Worker::refresh_epoch&#45;&gt;lightning_forwarder::worker::Worker</title>
<path fill="none" stroke="#7f7f7f" stroke-dasharray="5,2" d="M1916.5,-774.64C1841.74,-654.07 1443,-11 1443,-11 1443,-11 1052.54,-1044.5 982.27,-1230.5"/>
<polygon fill="#7f7f7f" stroke="#7f7f7f" points="978.98,-1229.3 978.72,-1239.9 985.53,-1231.78 978.98,-1229.3"/>
<text text-anchor="middle" x="1430.5" y="-3" font-family="monospace" font-size="10.00">uses</text>
</g>
</g>
</svg>
