<?xml version="1.0" encoding="UTF-8" standalone="no"?>
<!DOCTYPE svg PUBLIC "-//W3C//DTD SVG 1.1//EN"
 "http://www.w3.org/Graphics/SVG/1.1/DTD/svg11.dtd">
<!-- Generated by graphviz version 4.0.0 (0)
 -->
<!-- Pages: 1 -->
<svg width="1143pt" height="3158pt"
 viewBox="0.00 0.00 1142.60 3158.10" xmlns="http://www.w3.org/2000/svg" xmlns:xlink="http://www.w3.org/1999/xlink">
<g id="graph0" class="graph" transform="scale(1 1) rotate(0) translate(28.8 3129.3)">
<polygon fill="white" stroke="transparent" points="-28.8,28.8 -28.8,-3129.3 1113.8,-3129.3 1113.8,28.8 -28.8,28.8"/>
<text text-anchor="middle" x="542.5" y="-3067.7" font-family="Helvetica,sans-Serif" font-size="36.00">lightning_fetcher</text>
<!-- fdi -->
<g id="node1" class="node">
<title>fdi</title>
<polygon fill="#5397c8" stroke="black" points="24,-1707 24,-1745 125,-1745 125,-1707 24,-1707"/>
<text text-anchor="middle" x="74.5" y="-1733" font-family="monospace" font-size="10.00">external crate</text>
<polyline fill="none" stroke="black" points="24,-1726 125,-1726 "/>
<text text-anchor="middle" x="74.5" y="-1714" font-family="monospace" font-size="10.00">fdi</text>
</g>
<!-- lightning_fetcher -->
<g id="node2" class="node">
<title>lightning_fetcher</title>
<polygon fill="#5397c8" stroke="black" points="15,-1535 15,-1573 134,-1573 134,-1535 15,-1535"/>
<text text-anchor="middle" x="74.5" y="-1561" font-family="monospace" font-size="10.00">crate</text>
<polyline fill="none" stroke="black" points="15,-1554 134,-1554 "/>
<text text-anchor="middle" x="74.5" y="-1542" font-family="monospace" font-size="10.00">lightning_fetcher</text>
</g>
<!-- lightning_fetcher::config -->
<g id="node3" class="node">
<title>lightning_fetcher::config</title>
<polygon fill="#81c169" stroke="black" points="915,-3014 915,-3052 1082,-3052 1082,-3014 915,-3014"/>
<text text-anchor="middle" x="998.5" y="-3040" font-family="monospace" font-size="10.00">pub mod</text>
<polyline fill="none" stroke="black" points="915,-3033 1082,-3033 "/>
<text text-anchor="middle" x="998.5" y="-3021" font-family="monospace" font-size="10.00">lightning_fetcher::config</text>
</g>
<!-- lightning_fetcher&#45;&gt;lightning_fetcher::config -->
<g id="edge1" class="edge">
<title>lightning_fetcher&#45;&gt;lightning_fetcher::config</title>
<path fill="none" stroke="#000000" d="M85.03,-1573.39C152.19,-1697.11 518,-2371 518,-2371 518,-2371 887.89,-2880.61 978.6,-3005.58"/>
<polygon fill="#000000" stroke="#000000" points="975.93,-3007.86 984.64,-3013.9 981.6,-3003.75 975.93,-3007.86"/>
<text text-anchor="middle" x="530.5" y="-2374" font-family="monospace" font-size="10.00">owns</text>
</g>
<!-- lightning_fetcher::fetcher -->
<g id="node4" class="node">
<title>lightning_fetcher::fetcher</title>
<polygon fill="#81c169" stroke="black" points="912,-1535 912,-1573 1085,-1573 1085,-1535 912,-1535"/>
<text text-anchor="middle" x="998.5" y="-1561" font-family="monospace" font-size="10.00">pub mod</text>
<polyline fill="none" stroke="black" points="912,-1554 1085,-1554 "/>
<text text-anchor="middle" x="998.5" y="-1542" font-family="monospace" font-size="10.00">lightning_fetcher::fetcher</text>
</g>
<!-- lightning_fetcher&#45;&gt;lightning_fetcher::fetcher -->
<g id="edge2" class="edge">
<title>lightning_fetcher&#45;&gt;lightning_fetcher::fetcher</title>
<path fill="none" stroke="#000000" d="M134.31,-1554C255.37,-1554 518,-1554 518,-1554 518,-1554 761.04,-1554 901.42,-1554"/>
<polygon fill="#000000" stroke="#000000" points="901.76,-1557.5 911.76,-1554 901.76,-1550.5 901.76,-1557.5"/>
<text text-anchor="middle" x="530.5" y="-1557" font-family="monospace" font-size="10.00">owns</text>
</g>
<!-- lightning_fetcher::origin -->
<g id="node5" class="node">
<title>lightning_fetcher::origin</title>
<polygon fill="#f8c04c" stroke="black" points="915,-56 915,-94 1082,-94 1082,-56 915,-56"/>
<text text-anchor="middle" x="998.5" y="-82" font-family="monospace" font-size="10.00">pub(crate) mod</text>
<polyline fill="none" stroke="black" points="915,-75 1082,-75 "/>
<text text-anchor="middle" x="998.5" y="-63" font-family="monospace" font-size="10.00">lightning_fetcher::origin</text>
</g>
<!-- lightning_fetcher&#45;&gt;lightning_fetcher::origin -->
<g id="edge3" class="edge">
<title>lightning_fetcher&#45;&gt;lightning_fetcher::origin</title>
<path fill="none" stroke="#000000" d="M127.56,-1534.98C245.28,-1492.78 518,-1395 518,-1395 518,-1395 917.99,-296.17 988.08,-103.62"/>
<polygon fill="#000000" stroke="#000000" points="991.39,-104.76 991.52,-94.17 984.81,-102.37 991.39,-104.76"/>
<text text-anchor="middle" x="530.5" y="-1398" font-family="monospace" font-size="10.00">owns</text>
</g>
<!-- lightning_fetcher::fetcher&#45;&gt;fdi -->
<g id="edge4" class="edge">
<title>lightning_fetcher::fetcher&#45;&gt;fdi</title>
<path fill="none" stroke="#7f7f7f" stroke-dasharray="5,2" d="M990.36,-1573.09C927.22,-1721.18 518,-2681 518,-2681 518,-2681 160.97,-1912.2 87.59,-1754.19"/>
<polygon fill="#7f7f7f" stroke="#7f7f7f" points="90.75,-1752.67 83.36,-1745.08 84.4,-1755.62 90.75,-1752.67"/>
<text text-anchor="middle" x="530.5" y="-2684" font-family="monospace" font-size="10.00">uses</text>
</g>
<!-- lightning_fetcher::fetcher&#45;&gt;lightning_fetcher::config -->
<g id="edge5" class="edge">
<title>lightning_fetcher::fetcher&#45;&gt;lightning_fetcher::config</title>
</g>
<!-- lightning_fetcher::fetcher&#45;&gt;lightning_fetcher::origin -->
<g id="edge6" class="edge">
<title>lightning_fetcher::fetcher&#45;&gt;lightning_fetcher::origin</title>
</g>
<!-- lightning_schema -->
<g id="node6" class="node">
<title>lightning_schema</title>
<polygon fill="#5397c8" stroke="black" points="18,-1417 18,-1455 131,-1455 131,-1417 18,-1417"/>
<text text-anchor="middle" x="74.5" y="-1443" font-family="monospace" font-size="10.00">external crate</text>
<polyline fill="none" stroke="black" points="18,-1436 131,-1436 "/>
<text text-anchor="middle" x="74.5" y="-1424" font-family="monospace" font-size="10.00">lightning_schema</text>
</g>
<!-- lightning_fetcher::fetcher&#45;&gt;lightning_schema -->
<g id="edge7" class="edge">
<title>lightning_fetcher::fetcher&#45;&gt;lightning_schema</title>
<path fill="none" stroke="#7f7f7f" stroke-dasharray="5,2" d="M969.66,-1534.82C869.53,-1468.21 543,-1251 543,-1251 543,-1251 257.64,-1363.68 132.33,-1413.16"/>
<polygon fill="#7f7f7f" stroke="#7f7f7f" points="130.89,-1409.97 122.87,-1416.9 133.46,-1416.48 130.89,-1409.97"/>
<text text-anchor="middle" x="530.5" y="-1243" font-family="monospace" font-size="10.00">uses</text>
</g>
<!-- lightning_types -->
<g id="node7" class="node">
<title>lightning_types</title>
<polygon fill="#5397c8" stroke="black" points="21,-1292 21,-1330 128,-1330 128,-1292 21,-1292"/>
<text text-anchor="middle" x="74.5" y="-1318" font-family="monospace" font-size="10.00">external crate</text>
<polyline fill="none" stroke="black" points="21,-1311 128,-1311 "/>
<text text-anchor="middle" x="74.5" y="-1299" font-family="monospace" font-size="10.00">lightning_types</text>
</g>
<!-- lightning_fetcher::fetcher&#45;&gt;lightning_types -->
<g id="edge8" class="edge">
<title>lightning_fetcher::fetcher&#45;&gt;lightning_types</title>
<path fill="none" stroke="#7f7f7f" stroke-dasharray="5,2" d="M984.37,-1534.98C907.48,-1431.51 543,-941 543,-941 543,-941 212.77,-1201.8 106.81,-1285.49"/>
<polygon fill="#7f7f7f" stroke="#7f7f7f" points="104.38,-1282.94 98.7,-1291.89 108.72,-1288.44 104.38,-1282.94"/>
<text text-anchor="middle" x="530.5" y="-933" font-family="monospace" font-size="10.00">uses</text>
</g>
<!-- tokio::sync::mpsc -->
<g id="node9" class="node">
<title>tokio::sync::mpsc</title>
<polygon fill="#81c169" stroke="black" points="15,-983 15,-1021 134,-1021 134,-983 15,-983"/>
<text text-anchor="middle" x="74.5" y="-1009" font-family="monospace" font-size="10.00">external mod</text>
<polyline fill="none" stroke="black" points="15,-1002 134,-1002 "/>
<text text-anchor="middle" x="74.5" y="-990" font-family="monospace" font-size="10.00">tokio::sync::mpsc</text>
</g>
<!-- lightning_fetcher::fetcher&#45;&gt;tokio::sync::mpsc -->
<g id="edge9" class="edge">
<title>lightning_fetcher::fetcher&#45;&gt;tokio::sync::mpsc</title>
<path fill="none" stroke="#7f7f7f" stroke-dasharray="5,2" d="M990.4,-1534.83C929.29,-1390.2 543,-476 543,-476 543,-476 193.87,-867.98 98.39,-975.18"/>
<polygon fill="#7f7f7f" stroke="#7f7f7f" points="95.49,-973.17 91.45,-982.97 100.72,-977.83 95.49,-973.17"/>
<text text-anchor="middle" x="530.5" y="-468" font-family="monospace" font-size="10.00">uses</text>
</g>
<!-- tokio::sync::oneshot -->
<g id="node10" class="node">
<title>tokio::sync::oneshot</title>
<polygon fill="#81c169" stroke="black" points="6,-756 6,-794 143,-794 143,-756 6,-756"/>
<text text-anchor="middle" x="74.5" y="-782" font-family="monospace" font-size="10.00">external mod</text>
<polyline fill="none" stroke="black" points="6,-775 143,-775 "/>
<text text-anchor="middle" x="74.5" y="-763" font-family="monospace" font-size="10.00">tokio::sync::oneshot</text>
</g>
<!-- lightning_fetcher::fetcher&#45;&gt;tokio::sync::oneshot -->
<g id="edge10" class="edge">
<title>lightning_fetcher::fetcher&#45;&gt;tokio::sync::oneshot</title>
<path fill="none" stroke="#7f7f7f" stroke-dasharray="5,2" d="M992.23,-1534.91C937.52,-1368.2 543,-166 543,-166 543,-166 186.97,-628.8 95.64,-747.51"/>
<polygon fill="#7f7f7f" stroke="#7f7f7f" points="92.62,-745.71 89.3,-755.77 98.17,-749.98 92.62,-745.71"/>
<text text-anchor="middle" x="530.5" y="-158" font-family="monospace" font-size="10.00">uses</text>
</g>
<!-- lightning_fetcher::origin&#45;&gt;fdi -->
<g id="edge11" class="edge">
<title>lightning_fetcher::origin&#45;&gt;fdi</title>
<path fill="none" stroke="#7f7f7f" stroke-dasharray="5,2" d="M994.77,-94.02C950.05,-322.15 518,-2526 518,-2526 518,-2526 169.19,-1896.8 90.25,-1754.41"/>
<polygon fill="#7f7f7f" stroke="#7f7f7f" points="93.15,-1752.43 85.24,-1745.38 87.03,-1755.82 93.15,-1752.43"/>
<text text-anchor="middle" x="530.5" y="-2529" font-family="monospace" font-size="10.00">uses</text>
</g>
<!-- lightning_fetcher::origin&#45;&gt;lightning_fetcher::fetcher -->
<g id="edge12" class="edge">
<title>lightning_fetcher::origin&#45;&gt;lightning_fetcher::fetcher</title>
</g>
<!-- lightning_fetcher::origin&#45;&gt;lightning_schema -->
<g id="edge13" class="edge">
<title>lightning_fetcher::origin&#45;&gt;lightning_schema</title>
<path fill="none" stroke="#7f7f7f" stroke-dasharray="5,2" d="M989.33,-94.27C922.9,-233.91 518,-1085 518,-1085 518,-1085 208.84,-1329.68 106.77,-1410.46"/>
<polygon fill="#7f7f7f" stroke="#7f7f7f" points="104.33,-1407.93 98.66,-1416.88 108.67,-1413.42 104.33,-1407.93"/>
<text text-anchor="middle" x="530.5" y="-1088" font-family="monospace" font-size="10.00">uses</text>
</g>
<!-- lightning_fetcher::origin&#45;&gt;lightning_types -->
<g id="edge14" class="edge">
<title>lightning_fetcher::origin&#45;&gt;lightning_types</title>
<path fill="none" stroke="#7f7f7f" stroke-dasharray="5,2" d="M985.4,-94.09C908.39,-206.28 518,-775 518,-775 518,-775 186.77,-1175.31 96.81,-1284.03"/>
<polygon fill="#7f7f7f" stroke="#7f7f7f" points="93.96,-1281.99 90.28,-1291.92 99.36,-1286.45 93.96,-1281.99"/>
<text text-anchor="middle" x="530.5" y="-778" font-family="monospace" font-size="10.00">uses</text>
</g>
<!-- tokio::sync::broadcast -->
<g id="node8" class="node">
<title>tokio::sync::broadcast</title>
<polygon fill="#81c169" stroke="black" points="0,-1152 0,-1190 149,-1190 149,-1152 0,-1152"/>
<text text-anchor="middle" x="74.5" y="-1178" font-family="monospace" font-size="10.00">external mod</text>
<polyline fill="none" stroke="black" points="0,-1171 149,-1171 "/>
<text text-anchor="middle" x="74.5" y="-1159" font-family="monospace" font-size="10.00">tokio::sync::broadcast</text>
</g>
<!-- lightning_fetcher::origin&#45;&gt;tokio::sync::broadcast -->
<g id="edge15" class="edge">
<title>lightning_fetcher::origin&#45;&gt;tokio::sync::broadcast</title>
<path fill="none" stroke="#7f7f7f" stroke-dasharray="5,2" d="M982.82,-94.14C902.73,-191.91 543,-631 543,-631 543,-631 192.4,-1035.11 97.79,-1144.16"/>
<polygon fill="#7f7f7f" stroke="#7f7f7f" points="95.08,-1141.93 91.17,-1151.78 100.37,-1146.52 95.08,-1141.93"/>
<text text-anchor="middle" x="530.5" y="-623" font-family="monospace" font-size="10.00">uses</text>
</g>
<!-- lightning_fetcher::origin&#45;&gt;tokio::sync::mpsc -->
<g id="edge16" class="edge">
<title>lightning_fetcher::origin&#45;&gt;tokio::sync::mpsc</title>
<path fill="none" stroke="#7f7f7f" stroke-dasharray="5,2" d="M963.14,-94.1C856.11,-151.9 543,-321 543,-321 543,-321 181.57,-846.37 93.62,-974.21"/>
<polygon fill="#7f7f7f" stroke="#7f7f7f" points="90.55,-972.49 87.77,-982.72 96.32,-976.46 90.55,-972.49"/>
<text text-anchor="middle" x="530.5" y="-313" font-family="monospace" font-size="10.00">uses</text>
</g>
<!-- lightning_fetcher::origin&#45;&gt;tokio::sync::oneshot -->
<g id="edge17" class="edge">
<title>lightning_fetcher::origin&#45;&gt;tokio::sync::oneshot</title>
<path fill="none" stroke="#7f7f7f" stroke-dasharray="5,2" d="M914.95,-63.26C783.46,-44.79 543,-11 543,-11 543,-11 176.11,-609.3 91.68,-746.98"/>
<polygon fill="#7f7f7f" stroke="#7f7f7f" points="88.56,-745.38 86.32,-755.73 94.53,-749.04 88.56,-745.38"/>
<text text-anchor="middle" x="530.5" y="-3" font-family="monospace" font-size="10.00">uses</text>
</g>
</g>
</svg>
