<?xml version="1.0" encoding="UTF-8" standalone="no"?>
<!DOCTYPE svg PUBLIC "-//W3C//DTD SVG 1.1//EN"
 "http://www.w3.org/Graphics/SVG/1.1/DTD/svg11.dtd">
<!-- Generated by graphviz version 4.0.0 (0)
 -->
<!-- Pages: 1 -->
<svg width="1199pt" height="1041pt"
 viewBox="0.00 0.00 1199.18 1040.71" xmlns="http://www.w3.org/2000/svg" xmlns:xlink="http://www.w3.org/1999/xlink">
<g id="graph0" class="graph" transform="scale(1 1) rotate(0) translate(28.8 1011.91)">
<polygon fill="white" stroke="transparent" points="-28.8,28.8 -28.8,-1011.91 1170.38,-1011.91 1170.38,28.8 -28.8,28.8"/>
<text text-anchor="middle" x="570.79" y="-950.31" font-family="Helvetica,sans-Serif" font-size="36.00">lightning_consensus</text>
<!-- fdi -->
<g id="node1" class="node">
<title>fdi</title>
<polygon fill="#5397c8" stroke="black" points="248.77,-72.48 248.77,-110.48 349.77,-110.48 349.77,-72.48 248.77,-72.48"/>
<text text-anchor="middle" x="299.27" y="-98.48" font-family="monospace" font-size="10.00">external crate</text>
<polyline fill="none" stroke="black" points="248.77,-91.48 349.77,-91.48 "/>
<text text-anchor="middle" x="299.27" y="-79.48" font-family="monospace" font-size="10.00">fdi</text>
</g>
<!-- fleek_blake3 -->
<g id="node2" class="node">
<title>fleek_blake3</title>
<polygon fill="#5397c8" stroke="black" points="0,-595.7 0,-633.7 101,-633.7 101,-595.7 0,-595.7"/>
<text text-anchor="middle" x="50.5" y="-621.7" font-family="monospace" font-size="10.00">external crate</text>
<polyline fill="none" stroke="black" points="0,-614.7 101,-614.7 "/>
<text text-anchor="middle" x="50.5" y="-602.7" font-family="monospace" font-size="10.00">fleek_blake3</text>
</g>
<!-- lightning_consensus -->
<g id="node3" class="node">
<title>lightning_consensus</title>
<polygon fill="#5397c8" stroke="black" points="698.86,-655.33 698.86,-693.33 829.86,-693.33 829.86,-655.33 698.86,-655.33"/>
<text text-anchor="middle" x="764.36" y="-681.33" font-family="monospace" font-size="10.00">crate</text>
<polyline fill="none" stroke="black" points="698.86,-674.33 829.86,-674.33 "/>
<text text-anchor="middle" x="764.36" y="-662.33" font-family="monospace" font-size="10.00">lightning_consensus</text>
</g>
<!-- lightning_consensus::config -->
<g id="node4" class="node">
<title>lightning_consensus::config</title>
<polygon fill="#81c169" stroke="black" points="540.49,-727.31 540.49,-765.31 719.49,-765.31 719.49,-727.31 540.49,-727.31"/>
<text text-anchor="middle" x="629.99" y="-753.31" font-family="monospace" font-size="10.00">pub mod</text>
<polyline fill="none" stroke="black" points="540.49,-746.31 719.49,-746.31 "/>
<text text-anchor="middle" x="629.99" y="-734.31" font-family="monospace" font-size="10.00">lightning_consensus::config</text>
</g>
<!-- lightning_consensus&#45;&gt;lightning_consensus::config -->
<g id="edge1" class="edge">
<title>lightning_consensus&#45;&gt;lightning_consensus::config</title>
<path fill="none" stroke="#000000" d="M728.71,-693.43C712.16,-702.3 692.3,-712.93 674.75,-722.33"/>
<polygon fill="#000000" stroke="#000000" points="672.98,-719.31 665.82,-727.12 676.28,-725.48 672.98,-719.31"/>
<text text-anchor="middle" x="689.23" y="-710.88" font-family="monospace" font-size="10.00">owns</text>
</g>
<!-- lightning_consensus::consensus -->
<g id="node5" class="node">
<title>lightning_consensus::consensus</title>
<polygon fill="#81c169" stroke="black" points="335.38,-727.31 335.38,-765.31 532.38,-765.31 532.38,-727.31 335.38,-727.31"/>
<text text-anchor="middle" x="433.88" y="-753.31" font-family="monospace" font-size="10.00">pub mod</text>
<polyline fill="none" stroke="black" points="335.38,-746.31 532.38,-746.31 "/>
<text text-anchor="middle" x="433.88" y="-734.31" font-family="monospace" font-size="10.00">lightning_consensus::consensus</text>
</g>
<!-- lightning_consensus&#45;&gt;lightning_consensus::consensus -->
<g id="edge2" class="edge">
<title>lightning_consensus&#45;&gt;lightning_consensus::consensus</title>
<path fill="none" stroke="#000000" d="M698.68,-688.64C650.83,-699.06 585.23,-713.35 531.29,-725.09"/>
<polygon fill="#000000" stroke="#000000" points="530.39,-721.71 521.37,-727.26 531.88,-728.55 530.39,-721.71"/>
<text text-anchor="middle" x="602.48" y="-709.87" font-family="monospace" font-size="10.00">owns</text>
</g>
<!-- lightning_consensus::edge_node -->
<g id="node6" class="node">
<title>lightning_consensus::edge_node</title>
<polygon fill="#81c169" stroke="black" points="665.9,-72.48 665.9,-110.48 862.9,-110.48 862.9,-72.48 665.9,-72.48"/>
<text text-anchor="middle" x="764.4" y="-98.48" font-family="monospace" font-size="10.00">pub mod</text>
<polyline fill="none" stroke="black" points="665.9,-91.48 862.9,-91.48 "/>
<text text-anchor="middle" x="764.4" y="-79.48" font-family="monospace" font-size="10.00">lightning_consensus::edge_node</text>
</g>
<!-- lightning_consensus&#45;&gt;lightning_consensus::edge_node -->
<g id="edge3" class="edge">
<title>lightning_consensus&#45;&gt;lightning_consensus::edge_node</title>
<path fill="none" stroke="#000000" d="M764.37,-655.27C764.37,-570.1 764.39,-224.01 764.4,-120.72"/>
<polygon fill="#000000" stroke="#000000" points="767.9,-120.69 764.4,-110.69 760.9,-120.69 767.9,-120.69"/>
<text text-anchor="middle" x="751.88" y="-390.99" font-family="monospace" font-size="10.00">owns</text>
</g>
<!-- lightning_consensus::execution -->
<g id="node10" class="node">
<title>lightning_consensus::execution</title>
<polygon fill="#81c169" stroke="black" points="97.49,-525.63 97.49,-563.63 294.49,-563.63 294.49,-525.63 97.49,-525.63"/>
<text text-anchor="middle" x="195.99" y="-551.63" font-family="monospace" font-size="10.00">pub mod</text>
<polyline fill="none" stroke="black" points="97.49,-544.63 294.49,-544.63 "/>
<text text-anchor="middle" x="195.99" y="-532.63" font-family="monospace" font-size="10.00">lightning_consensus::execution</text>
</g>
<!-- lightning_consensus&#45;&gt;lightning_consensus::execution -->
<g id="edge4" class="edge">
<title>lightning_consensus&#45;&gt;lightning_consensus::execution</title>
<path fill="none" stroke="#000000" d="M698.61,-659.33C597.81,-636.33 404.7,-592.26 289.41,-565.95"/>
<polygon fill="#000000" stroke="#000000" points="290.06,-562.51 279.53,-563.7 288.5,-569.33 290.06,-562.51"/>
<text text-anchor="middle" x="481.51" y="-615.64" font-family="monospace" font-size="10.00">owns</text>
</g>
<!-- lightning_consensus::narwhal -->
<g id="node11" class="node">
<title>lightning_consensus::narwhal</title>
<polygon fill="#81c169" stroke="black" points="775.15,-525.63 775.15,-563.63 960.15,-563.63 960.15,-525.63 775.15,-525.63"/>
<text text-anchor="middle" x="867.65" y="-551.63" font-family="monospace" font-size="10.00">pub mod</text>
<polyline fill="none" stroke="black" points="775.15,-544.63 960.15,-544.63 "/>
<text text-anchor="middle" x="867.65" y="-532.63" font-family="monospace" font-size="10.00">lightning_consensus::narwhal</text>
</g>
<!-- lightning_consensus&#45;&gt;lightning_consensus::narwhal -->
<g id="edge5" class="edge">
<title>lightning_consensus&#45;&gt;lightning_consensus::narwhal</title>
<path fill="none" stroke="#000000" d="M779.6,-655.2C797.15,-633.16 826.1,-596.81 845.98,-571.84"/>
<polygon fill="#000000" stroke="#000000" points="848.85,-573.85 852.34,-563.85 843.38,-569.49 848.85,-573.85"/>
<text text-anchor="middle" x="800.29" y="-616.52" font-family="monospace" font-size="10.00">owns</text>
</g>
<!-- lightning_consensus::validator -->
<g id="node12" class="node">
<title>lightning_consensus::validator</title>
<polygon fill="#81c169" stroke="black" points="799.56,-363.9 799.56,-401.9 996.56,-401.9 996.56,-363.9 799.56,-363.9"/>
<text text-anchor="middle" x="898.06" y="-389.9" font-family="monospace" font-size="10.00">pub mod</text>
<polyline fill="none" stroke="black" points="799.56,-382.9 996.56,-382.9 "/>
<text text-anchor="middle" x="898.06" y="-370.9" font-family="monospace" font-size="10.00">lightning_consensus::validator</text>
</g>
<!-- lightning_consensus&#45;&gt;lightning_consensus::validator -->
<g id="edge6" class="edge">
<title>lightning_consensus&#45;&gt;lightning_consensus::validator</title>
<path fill="none" stroke="#000000" d="M773.14,-655.21C796.08,-605.19 857.98,-470.27 885.07,-411.22"/>
<polygon fill="#000000" stroke="#000000" points="888.27,-412.64 889.25,-402.1 881.9,-409.73 888.27,-412.64"/>
<text text-anchor="middle" x="816.6" y="-525.22" font-family="monospace" font-size="10.00">owns</text>
</g>
<!-- lightning_consensus::consensus&#45;&gt;fdi -->
<g id="edge7" class="edge">
<title>lightning_consensus::consensus&#45;&gt;fdi</title>
<path fill="none" stroke="#7f7f7f" stroke-dasharray="5,2" d="M429.92,-727.07C410.85,-634.25 328.32,-232.75 305.27,-120.65"/>
<polygon fill="#7f7f7f" stroke="#7f7f7f" points="308.67,-119.81 303.23,-110.72 301.82,-121.22 308.67,-119.81"/>
<text text-anchor="middle" x="355.1" y="-426.86" font-family="monospace" font-size="10.00">uses</text>
</g>
<!-- lightning_consensus::consensus&#45;&gt;lightning_consensus::config -->
<g id="edge8" class="edge">
<title>lightning_consensus::consensus&#45;&gt;lightning_consensus::config</title>
<path fill="none" stroke="#7f7f7f" stroke-dasharray="5,2" d="M532.51,-746.31C532.67,-746.31 532.83,-746.31 532.99,-746.31"/>
<polygon fill="#7f7f7f" stroke="#7f7f7f" points="530.23,-749.81 540.23,-746.31 530.23,-742.81 530.23,-749.81"/>
<text text-anchor="middle" x="545.25" y="-749.31" font-family="monospace" font-size="10.00">uses</text>
</g>
<!-- lightning_consensus::edge_node::consensus -->
<g id="node7" class="node">
<title>lightning_consensus::edge_node::consensus</title>
<polygon fill="#81c169" stroke="black" points="64.49,-202.17 64.49,-240.17 327.49,-240.17 327.49,-202.17 64.49,-202.17"/>
<text text-anchor="middle" x="195.99" y="-228.17" font-family="monospace" font-size="10.00">pub mod</text>
<polyline fill="none" stroke="black" points="64.49,-221.17 327.49,-221.17 "/>
<text text-anchor="middle" x="195.99" y="-209.17" font-family="monospace" font-size="10.00">lightning_consensus::edge_node::consensus</text>
</g>
<!-- lightning_consensus::consensus&#45;&gt;lightning_consensus::edge_node::consensus -->
<g id="edge9" class="edge">
<title>lightning_consensus::consensus&#45;&gt;lightning_consensus::edge_node::consensus</title>
<path fill="none" stroke="#7f7f7f" stroke-dasharray="5,2" d="M435.99,-727.09C423.13,-646.92 286.99,-343 223.96,-248.85"/>
<polygon fill="#7f7f7f" stroke="#7f7f7f" points="226.68,-246.62 218.1,-240.4 220.93,-250.61 226.68,-246.62"/>
<text text-anchor="middle" x="317.48" y="-490.97" font-family="monospace" font-size="10.00">uses</text>
</g>
<!-- lightning_consensus::consensus&#45;&gt;lightning_consensus::execution -->
<g id="edge10" class="edge">
<title>lightning_consensus::consensus&#45;&gt;lightning_consensus::execution</title>
<path fill="none" stroke="#7f7f7f" stroke-dasharray="5,2" d="M411.07,-726.97C368,-690.46 274.69,-611.35 226.37,-570.39"/>
<polygon fill="#7f7f7f" stroke="#7f7f7f" points="228.63,-567.71 218.73,-563.91 224.1,-573.05 228.63,-567.71"/>
<text text-anchor="middle" x="306.22" y="-640.68" font-family="monospace" font-size="10.00">uses</text>
</g>
<!-- lightning_consensus::consensus&#45;&gt;lightning_consensus::narwhal -->
<g id="edge11" class="edge">
<title>lightning_consensus::consensus&#45;&gt;lightning_consensus::narwhal</title>
<path fill="none" stroke="#7f7f7f" stroke-dasharray="5,2" d="M475.08,-727.15C555.06,-689.97 731.1,-608.12 817.63,-567.89"/>
<polygon fill="#7f7f7f" stroke="#7f7f7f" points="819.13,-571.05 826.72,-563.66 816.18,-564.7 819.13,-571.05"/>
<text text-anchor="middle" x="633.85" y="-650.52" font-family="monospace" font-size="10.00">uses</text>
</g>
<!-- lightning_schema -->
<g id="node13" class="node">
<title>lightning_schema</title>
<polygon fill="#5397c8" stroke="black" points="365.18,-0.5 365.18,-38.5 478.18,-38.5 478.18,-0.5 365.18,-0.5"/>
<text text-anchor="middle" x="421.68" y="-26.5" font-family="monospace" font-size="10.00">external crate</text>
<polyline fill="none" stroke="black" points="365.18,-19.5 478.18,-19.5 "/>
<text text-anchor="middle" x="421.68" y="-7.5" font-family="monospace" font-size="10.00">lightning_schema</text>
</g>
<!-- lightning_consensus::consensus&#45;&gt;lightning_schema -->
<g id="edge12" class="edge">
<title>lightning_consensus::consensus&#45;&gt;lightning_schema</title>
<path fill="none" stroke="#7f7f7f" stroke-dasharray="5,2" d="M433.56,-727.24C431.89,-627.98 424.21,-170.32 422.17,-49.06"/>
<polygon fill="#7f7f7f" stroke="#7f7f7f" points="425.67,-48.64 422,-38.7 418.67,-48.76 425.67,-48.64"/>
<text text-anchor="middle" x="415.37" y="-391.15" font-family="monospace" font-size="10.00">uses</text>
</g>
<!-- lightning_types -->
<g id="node14" class="node">
<title>lightning_types</title>
<polygon fill="#5397c8" stroke="black" points="105.58,-363.9 105.58,-401.9 212.58,-401.9 212.58,-363.9 105.58,-363.9"/>
<text text-anchor="middle" x="159.08" y="-389.9" font-family="monospace" font-size="10.00">external crate</text>
<polyline fill="none" stroke="black" points="105.58,-382.9 212.58,-382.9 "/>
<text text-anchor="middle" x="159.08" y="-370.9" font-family="monospace" font-size="10.00">lightning_types</text>
</g>
<!-- lightning_consensus::consensus&#45;&gt;lightning_types -->
<g id="edge13" class="edge">
<title>lightning_consensus::consensus&#45;&gt;lightning_types</title>
<path fill="none" stroke="#7f7f7f" stroke-dasharray="5,2" d="M419.49,-727.28C373.97,-667.08 232.93,-480.57 179.7,-410.17"/>
<polygon fill="#7f7f7f" stroke="#7f7f7f" points="182.48,-408.05 173.66,-402.18 176.9,-412.27 182.48,-408.05"/>
<text text-anchor="middle" x="287.1" y="-571.73" font-family="monospace" font-size="10.00">uses</text>
</g>
<!-- tokio::sync::mpsc -->
<g id="node16" class="node">
<title>tokio::sync::mpsc</title>
<polygon fill="#81c169" stroke="black" points="239.78,-655.33 239.78,-693.33 358.78,-693.33 358.78,-655.33 239.78,-655.33"/>
<text text-anchor="middle" x="299.28" y="-681.33" font-family="monospace" font-size="10.00">external mod</text>
<polyline fill="none" stroke="black" points="239.78,-674.33 358.78,-674.33 "/>
<text text-anchor="middle" x="299.28" y="-662.33" font-family="monospace" font-size="10.00">tokio::sync::mpsc</text>
</g>
<!-- lightning_consensus::consensus&#45;&gt;tokio::sync::mpsc -->
<g id="edge14" class="edge">
<title>lightning_consensus::consensus&#45;&gt;tokio::sync::mpsc</title>
<path fill="none" stroke="#7f7f7f" stroke-dasharray="5,2" d="M398.16,-727.21C381.58,-718.34 361.69,-707.71 344.11,-698.31"/>
<polygon fill="#7f7f7f" stroke="#7f7f7f" points="345.63,-695.15 335.16,-693.52 342.33,-701.32 345.63,-695.15"/>
<text text-anchor="middle" x="358.64" y="-715.76" font-family="monospace" font-size="10.00">uses</text>
</g>
<!-- tokio::task -->
<g id="node17" class="node">
<title>tokio::task</title>
<polygon fill="#81c169" stroke="black" points="448.64,-896.61 448.64,-934.61 537.64,-934.61 537.64,-896.61 448.64,-896.61"/>
<text text-anchor="middle" x="493.14" y="-922.61" font-family="monospace" font-size="10.00">external mod</text>
<polyline fill="none" stroke="black" points="448.64,-915.61 537.64,-915.61 "/>
<text text-anchor="middle" x="493.14" y="-903.61" font-family="monospace" font-size="10.00">tokio::task</text>
</g>
<!-- lightning_consensus::consensus&#45;&gt;tokio::task -->
<g id="edge15" class="edge">
<title>lightning_consensus::consensus&#45;&gt;tokio::task</title>
<path fill="none" stroke="#7f7f7f" stroke-dasharray="5,2" d="M440.56,-765.4C450.95,-795.07 471.03,-852.44 483.15,-887.05"/>
<polygon fill="#7f7f7f" stroke="#7f7f7f" points="479.88,-888.3 486.49,-896.59 486.48,-885.99 479.88,-888.3"/>
<text text-anchor="middle" x="449.36" y="-829.23" font-family="monospace" font-size="10.00">uses</text>
</g>
<!-- tokio::time -->
<g id="node18" class="node">
<title>tokio::time</title>
<polygon fill="#81c169" stroke="black" points="290.87,-860.62 290.87,-898.62 379.87,-898.62 379.87,-860.62 290.87,-860.62"/>
<text text-anchor="middle" x="335.37" y="-886.62" font-family="monospace" font-size="10.00">external mod</text>
<polyline fill="none" stroke="black" points="290.87,-879.62 379.87,-879.62 "/>
<text text-anchor="middle" x="335.37" y="-867.62" font-family="monospace" font-size="10.00">tokio::time</text>
</g>
<!-- lightning_consensus::consensus&#45;&gt;tokio::time -->
<g id="edge16" class="edge">
<title>lightning_consensus::consensus&#45;&gt;tokio::time</title>
<path fill="none" stroke="#7f7f7f" stroke-dasharray="5,2" d="M419.77,-765.41C402.94,-788.18 374.7,-826.39 355.57,-852.29"/>
<polygon fill="#7f7f7f" stroke="#7f7f7f" points="352.59,-850.43 349.46,-860.56 358.22,-854.59 352.59,-850.43"/>
<text text-anchor="middle" x="375.17" y="-811.85" font-family="monospace" font-size="10.00">uses</text>
</g>
<!-- lightning_consensus::edge_node&#45;&gt;lightning_consensus::edge_node::consensus -->
<g id="edge17" class="edge">
<title>lightning_consensus::edge_node&#45;&gt;lightning_consensus::edge_node::consensus</title>
<path fill="none" stroke="#000000" d="M680.84,-110.54C576.4,-134.37 398.19,-175.04 289.36,-199.87"/>
<polygon fill="#000000" stroke="#000000" points="288.35,-196.51 279.38,-202.15 289.91,-203.34 288.35,-196.51"/>
<text text-anchor="middle" x="472.6" y="-158.21" font-family="monospace" font-size="10.00">owns</text>
</g>
<!-- lightning_consensus::edge_node::ring_buffer -->
<g id="node8" class="node">
<title>lightning_consensus::edge_node::ring_buffer</title>
<polygon fill="#f8c04c" stroke="black" points="730.15,-202.17 730.15,-240.17 1005.15,-240.17 1005.15,-202.17 730.15,-202.17"/>
<text text-anchor="middle" x="867.65" y="-228.17" font-family="monospace" font-size="10.00">pub(crate) mod</text>
<polyline fill="none" stroke="black" points="730.15,-221.17 1005.15,-221.17 "/>
<text text-anchor="middle" x="867.65" y="-209.17" font-family="monospace" font-size="10.00">lightning_consensus::edge_node::ring_buffer</text>
</g>
<!-- lightning_consensus::edge_node&#45;&gt;lightning_consensus::edge_node::ring_buffer -->
<g id="edge18" class="edge">
<title>lightning_consensus::edge_node&#45;&gt;lightning_consensus::edge_node::ring_buffer</title>
<path fill="none" stroke="#000000" d="M779.64,-110.61C797.17,-132.65 826.11,-169 845.99,-193.96"/>
<polygon fill="#000000" stroke="#000000" points="843.38,-196.31 852.35,-201.96 848.86,-191.95 843.38,-196.31"/>
<text text-anchor="middle" x="800.31" y="-155.29" font-family="monospace" font-size="10.00">owns</text>
</g>
<!-- lightning_consensus::edge_node::transaction_store -->
<g id="node9" class="node">
<title>lightning_consensus::edge_node::transaction_store</title>
<polygon fill="#db5367" stroke="black" points="486.3,-0.5 486.3,-38.5 797.3,-38.5 797.3,-0.5 486.3,-0.5"/>
<text text-anchor="middle" x="641.8" y="-26.5" font-family="monospace" font-size="10.00">pub(self) mod</text>
<polyline fill="none" stroke="black" points="486.3,-19.5 797.3,-19.5 "/>
<text text-anchor="middle" x="641.8" y="-7.5" font-family="monospace" font-size="10.00">lightning_consensus::edge_node::transaction_store</text>
</g>
<!-- lightning_consensus::edge_node&#45;&gt;lightning_consensus::edge_node::transaction_store -->
<g id="edge19" class="edge">
<title>lightning_consensus::edge_node&#45;&gt;lightning_consensus::edge_node::transaction_store</title>
<path fill="none" stroke="#000000" d="M731.87,-72.38C717.05,-63.67 699.32,-53.27 683.53,-43.99"/>
<polygon fill="#000000" stroke="#000000" points="684.88,-40.73 674.49,-38.69 681.34,-46.77 684.88,-40.73"/>
<text text-anchor="middle" x="695.2" y="-61.19" font-family="monospace" font-size="10.00">owns</text>
</g>
<!-- lightning_consensus::edge_node::consensus&#45;&gt;fdi -->
<g id="edge20" class="edge">
<title>lightning_consensus::edge_node::consensus&#45;&gt;fdi</title>
<path fill="none" stroke="#7f7f7f" stroke-dasharray="5,2" d="M211.23,-202.04C228.78,-180.01 257.72,-143.65 277.61,-118.69"/>
<polygon fill="#7f7f7f" stroke="#7f7f7f" points="280.48,-120.7 283.97,-110.69 275.01,-116.33 280.48,-120.7"/>
<text text-anchor="middle" x="231.92" y="-163.36" font-family="monospace" font-size="10.00">uses</text>
</g>
<!-- lightning_consensus::edge_node::consensus&#45;&gt;lightning_consensus::consensus -->
<g id="edge21" class="edge">
<title>lightning_consensus::edge_node::consensus&#45;&gt;lightning_consensus::consensus</title>
<path fill="none" stroke="#7f7f7f" stroke-dasharray="5,2" d="M193.88,-240.39C206.75,-320.56 342.89,-624.48 405.91,-718.64"/>
<polygon fill="#7f7f7f" stroke="#7f7f7f" points="403.19,-720.86 411.77,-727.08 408.94,-716.87 403.19,-720.86"/>
<text text-anchor="middle" x="287.39" y="-482.51" font-family="monospace" font-size="10.00">uses</text>
</g>
<!-- lightning_consensus::edge_node::consensus&#45;&gt;lightning_consensus::edge_node::transaction_store -->
<g id="edge22" class="edge">
<title>lightning_consensus::edge_node::consensus&#45;&gt;lightning_consensus::edge_node::transaction_store</title>
<path fill="none" stroke="#7f7f7f" stroke-dasharray="5,2" d="M238.34,-202.02C320.54,-164.83 501.46,-82.99 590.4,-42.75"/>
<polygon fill="#7f7f7f" stroke="#7f7f7f" points="592.08,-45.84 599.74,-38.53 589.19,-39.46 592.08,-45.84"/>
<text text-anchor="middle" x="401.87" y="-125.39" font-family="monospace" font-size="10.00">uses</text>
</g>
<!-- lightning_consensus::edge_node::consensus&#45;&gt;lightning_consensus::execution -->
<g id="edge23" class="edge">
<title>lightning_consensus::edge_node::consensus&#45;&gt;lightning_consensus::execution</title>
<path fill="none" stroke="#7f7f7f" stroke-dasharray="5,2" d="M195.99,-240.44C195.99,-294.82 195.99,-449.8 195.99,-515.08"/>
<polygon fill="#7f7f7f" stroke="#7f7f7f" points="192.49,-515.47 195.99,-525.47 199.49,-515.47 192.49,-515.47"/>
<text text-anchor="middle" x="208.49" y="-380.76" font-family="monospace" font-size="10.00">uses</text>
</g>
<!-- lightning_consensus::edge_node::consensus&#45;&gt;lightning_schema -->
<g id="edge24" class="edge">
<title>lightning_consensus::edge_node::consensus&#45;&gt;lightning_schema</title>
<path fill="none" stroke="#7f7f7f" stroke-dasharray="5,2" d="M217.63,-201.84C258.41,-165.4 346.65,-86.54 392.57,-45.51"/>
<polygon fill="#7f7f7f" stroke="#7f7f7f" points="394.98,-48.05 400.1,-38.78 390.31,-42.83 394.98,-48.05"/>
<text text-anchor="middle" x="292.6" y="-126.67" font-family="monospace" font-size="10.00">uses</text>
</g>
<!-- lightning_consensus::edge_node::consensus&#45;&gt;lightning_types -->
<g id="edge25" class="edge">
<title>lightning_consensus::edge_node::consensus&#45;&gt;lightning_types</title>
<path fill="none" stroke="#7f7f7f" stroke-dasharray="5,2" d="M191.61,-240.36C185.2,-268.45 173.21,-320.98 165.72,-353.82"/>
<polygon fill="#7f7f7f" stroke="#7f7f7f" points="162.27,-353.21 163.45,-363.74 169.09,-354.77 162.27,-353.21"/>
<text text-anchor="middle" x="166.17" y="-300.09" font-family="monospace" font-size="10.00">uses</text>
</g>
<!-- lightning_consensus::edge_node::consensus&#45;&gt;tokio::sync::mpsc -->
<g id="edge26" class="edge">
<title>lightning_consensus::edge_node::consensus&#45;&gt;tokio::sync::mpsc</title>
<path fill="none" stroke="#7f7f7f" stroke-dasharray="5,2" d="M200.37,-240.36C216.56,-311.43 273.23,-560.05 292.67,-645.35"/>
<polygon fill="#7f7f7f" stroke="#7f7f7f" points="289.27,-646.17 294.9,-655.15 296.09,-644.62 289.27,-646.17"/>
<text text-anchor="middle" x="234.02" y="-445.85" font-family="monospace" font-size="10.00">uses</text>
</g>
<!-- lightning_consensus::edge_node::ring_buffer&#45;&gt;fdi -->
<g id="edge27" class="edge">
<title>lightning_consensus::edge_node::ring_buffer&#45;&gt;fdi</title>
<path fill="none" stroke="#7f7f7f" stroke-dasharray="5,2" d="M784.09,-202.11C668.37,-175.7 462.08,-128.63 359.97,-105.33"/>
<polygon fill="#7f7f7f" stroke="#7f7f7f" points="360.65,-101.89 350.12,-103.08 359.09,-108.72 360.65,-101.89"/>
<text text-anchor="middle" x="559.53" y="-156.72" font-family="monospace" font-size="10.00">uses</text>
</g>
<!-- lightning_consensus::edge_node::ring_buffer&#45;&gt;lightning_consensus::consensus -->
<g id="edge28" class="edge">
<title>lightning_consensus::edge_node::ring_buffer&#45;&gt;lightning_consensus::consensus</title>
<path fill="none" stroke="#7f7f7f" stroke-dasharray="5,2" d="M851.95,-240.17C786.27,-319.69 533.29,-625.96 456.27,-719.21"/>
<polygon fill="#7f7f7f" stroke="#7f7f7f" points="453.45,-717.12 449.78,-727.06 458.85,-721.58 453.45,-717.12"/>
<text text-anchor="middle" x="641.61" y="-482.69" font-family="monospace" font-size="10.00">uses</text>
</g>
<!-- lightning_consensus::edge_node::ring_buffer&#45;&gt;lightning_consensus::edge_node::transaction_store -->
<g id="edge29" class="edge">
<title>lightning_consensus::edge_node::ring_buffer&#45;&gt;lightning_consensus::edge_node::transaction_store</title>
<path fill="none" stroke="#7f7f7f" stroke-dasharray="5,2" d="M865.04,-202.17C845.26,-164.14 762.79,-86.06 703.35,-44.5"/>
<polygon fill="#7f7f7f" stroke="#7f7f7f" points="704.99,-41.38 694.76,-38.64 701.05,-47.16 704.99,-41.38"/>
<text text-anchor="middle" x="771.69" y="-126.33" font-family="monospace" font-size="10.00">uses</text>
</g>
<!-- lightning_consensus::edge_node::ring_buffer&#45;&gt;lightning_consensus::execution -->
<g id="edge30" class="edge">
<title>lightning_consensus::edge_node::ring_buffer&#45;&gt;lightning_consensus::execution</title>
<path fill="none" stroke="#7f7f7f" stroke-dasharray="5,2" d="M828.14,-240.2C711.96,-296.15 371.65,-460.04 244.58,-521.23"/>
<polygon fill="#7f7f7f" stroke="#7f7f7f" points="242.94,-518.14 235.45,-525.63 245.98,-524.45 242.94,-518.14"/>
<text text-anchor="middle" x="523.86" y="-383.72" font-family="monospace" font-size="10.00">uses</text>
</g>
<!-- lightning_consensus::edge_node::ring_buffer&#45;&gt;lightning_schema -->
<g id="edge31" class="edge">
<title>lightning_consensus::edge_node::ring_buffer&#45;&gt;lightning_schema</title>
<path fill="none" stroke="#7f7f7f" stroke-dasharray="5,2" d="M825.29,-202.02C743.05,-164.83 562.07,-82.99 473.1,-42.75"/>
<polygon fill="#7f7f7f" stroke="#7f7f7f" points="474.3,-39.46 463.75,-38.53 471.42,-45.84 474.3,-39.46"/>
<text text-anchor="middle" x="636.69" y="-125.39" font-family="monospace" font-size="10.00">uses</text>
</g>
<!-- lightning_consensus::edge_node::ring_buffer&#45;&gt;lightning_types -->
<g id="edge32" class="edge">
<title>lightning_consensus::edge_node::ring_buffer&#45;&gt;lightning_types</title>
<path fill="none" stroke="#7f7f7f" stroke-dasharray="5,2" d="M784.28,-240.2C641.1,-272.88 351.47,-338.99 222.97,-368.32"/>
<polygon fill="#7f7f7f" stroke="#7f7f7f" points="221.86,-364.98 212.89,-370.62 223.42,-371.81 221.86,-364.98"/>
<text text-anchor="middle" x="491.12" y="-307.26" font-family="monospace" font-size="10.00">uses</text>
</g>
<!-- lightning_consensus::edge_node::transaction_store&#45;&gt;fdi -->
<g id="edge33" class="edge">
<title>lightning_consensus::edge_node::transaction_store&#45;&gt;fdi</title>
<path fill="none" stroke="#7f7f7f" stroke-dasharray="5,2" d="M551.36,-38.51C490.84,-51.22 412.86,-67.61 359.76,-78.77"/>
<polygon fill="#7f7f7f" stroke="#7f7f7f" points="358.88,-75.38 349.81,-80.86 360.32,-82.23 358.88,-75.38"/>
<text text-anchor="middle" x="443.06" y="-61.64" font-family="monospace" font-size="10.00">uses</text>
</g>
<!-- lightning_consensus::edge_node::transaction_store&#45;&gt;lightning_consensus::consensus -->
<g id="edge34" class="edge">
<title>lightning_consensus::edge_node::transaction_store&#45;&gt;lightning_consensus::consensus</title>
<path fill="none" stroke="#7f7f7f" stroke-dasharray="5,2" d="M636.35,-38.57C607.9,-138.02 476.5,-597.33 442.13,-717.48"/>
<polygon fill="#7f7f7f" stroke="#7f7f7f" points="438.76,-716.53 439.37,-727.11 445.49,-718.45 438.76,-716.53"/>
<text text-anchor="middle" x="526.74" y="-370.02" font-family="monospace" font-size="10.00">uses</text>
</g>
<!-- lightning_consensus::edge_node::transaction_store&#45;&gt;lightning_consensus::edge_node::ring_buffer -->
<g id="edge35" class="edge">
<title>lightning_consensus::edge_node::transaction_store&#45;&gt;lightning_consensus::edge_node::ring_buffer</title>
<path fill="none" stroke="#7f7f7f" stroke-dasharray="5,2" d="M644.41,-38.51C664.19,-76.54 746.66,-154.61 806.1,-196.18"/>
<polygon fill="#7f7f7f" stroke="#7f7f7f" points="804.46,-199.3 814.69,-202.04 808.4,-193.51 804.46,-199.3"/>
<text text-anchor="middle" x="712.76" y="-120.34" font-family="monospace" font-size="10.00">uses</text>
</g>
<!-- lightning_consensus::edge_node::transaction_store&#45;&gt;lightning_consensus::execution -->
<g id="edge36" class="edge">
<title>lightning_consensus::edge_node::transaction_store&#45;&gt;lightning_consensus::execution</title>
<path fill="none" stroke="#7f7f7f" stroke-dasharray="5,2" d="M625.67,-38.5C558.17,-118.02 298.17,-424.28 219,-517.53"/>
<polygon fill="#7f7f7f" stroke="#7f7f7f" points="216.14,-515.5 212.34,-525.38 221.48,-520.03 216.14,-515.5"/>
<text text-anchor="middle" x="409.84" y="-281.02" font-family="monospace" font-size="10.00">uses</text>
</g>
<!-- lightning_consensus::edge_node::transaction_store&#45;&gt;lightning_schema -->
<g id="edge37" class="edge">
<title>lightning_consensus::edge_node::transaction_store&#45;&gt;lightning_schema</title>
<path fill="none" stroke="#7f7f7f" stroke-dasharray="5,2" d="M486.23,-19.5C486.15,-19.5 486.07,-19.5 485.98,-19.5"/>
<polygon fill="#7f7f7f" stroke="#7f7f7f" points="488.3,-16 478.3,-19.5 488.3,-23 488.3,-16"/>
<text text-anchor="middle" x="473.61" y="-22.5" font-family="monospace" font-size="10.00">uses</text>
</g>
<!-- lightning_consensus::edge_node::transaction_store&#45;&gt;lightning_types -->
<g id="edge38" class="edge">
<title>lightning_consensus::edge_node::transaction_store&#45;&gt;lightning_types</title>
<path fill="none" stroke="#7f7f7f" stroke-dasharray="5,2" d="M616.53,-38.53C535.73,-99.35 283.68,-289.11 192.46,-357.78"/>
<polygon fill="#7f7f7f" stroke="#7f7f7f" points="190.28,-355.04 184.39,-363.85 194.49,-360.63 190.28,-355.04"/>
<text text-anchor="middle" x="391.99" y="-201.15" font-family="monospace" font-size="10.00">uses</text>
</g>
<!-- lightning_consensus::execution&#45;&gt;fdi -->
<g id="edge39" class="edge">
<title>lightning_consensus::execution&#45;&gt;fdi</title>
<path fill="none" stroke="#7f7f7f" stroke-dasharray="5,2" d="M200.37,-525.45C216.56,-454.38 273.23,-205.76 292.67,-120.46"/>
<polygon fill="#7f7f7f" stroke="#7f7f7f" points="296.09,-121.19 294.9,-110.66 289.27,-119.64 296.09,-121.19"/>
<text text-anchor="middle" x="234.02" y="-325.96" font-family="monospace" font-size="10.00">uses</text>
</g>
<!-- lightning_consensus::execution&#45;&gt;fleek_blake3 -->
<g id="edge40" class="edge">
<title>lightning_consensus::execution&#45;&gt;fleek_blake3</title>
<path fill="none" stroke="#7f7f7f" stroke-dasharray="5,2" d="M156.24,-563.78C138.6,-572.27 117.69,-582.35 99.13,-591.28"/>
<polygon fill="#7f7f7f" stroke="#7f7f7f" points="97.45,-588.21 89.96,-595.7 100.49,-594.51 97.45,-588.21"/>
<text text-anchor="middle" x="115.18" y="-580.53" font-family="monospace" font-size="10.00">uses</text>
</g>
<!-- lightning_consensus::execution&#45;&gt;lightning_schema -->
<g id="edge41" class="edge">
<title>lightning_consensus::execution&#45;&gt;lightning_schema</title>
<path fill="none" stroke="#7f7f7f" stroke-dasharray="5,2" d="M204.16,-525.63C238.16,-446.52 368.63,-142.93 409.42,-48.02"/>
<polygon fill="#7f7f7f" stroke="#7f7f7f" points="412.67,-49.32 413.4,-38.75 406.24,-46.56 412.67,-49.32"/>
<text text-anchor="middle" x="294.29" y="-289.83" font-family="monospace" font-size="10.00">uses</text>
</g>
<!-- lightning_consensus::execution&#45;&gt;lightning_types -->
<g id="edge42" class="edge">
<title>lightning_consensus::execution&#45;&gt;lightning_types</title>
<path fill="none" stroke="#7f7f7f" stroke-dasharray="5,2" d="M191.61,-525.45C185.2,-497.36 173.21,-444.83 165.72,-411.98"/>
<polygon fill="#7f7f7f" stroke="#7f7f7f" points="169.09,-411.04 163.45,-402.07 162.27,-412.6 169.09,-411.04"/>
<text text-anchor="middle" x="166.17" y="-471.72" font-family="monospace" font-size="10.00">uses</text>
</g>
<!-- lightning_consensus::execution&#45;&gt;tokio::sync::mpsc -->
<g id="edge43" class="edge">
<title>lightning_consensus::execution&#45;&gt;tokio::sync::mpsc</title>
<path fill="none" stroke="#7f7f7f" stroke-dasharray="5,2" d="M211.23,-563.77C228.78,-585.8 257.73,-622.16 277.61,-647.12"/>
<polygon fill="#7f7f7f" stroke="#7f7f7f" points="275.01,-649.47 283.97,-655.12 280.48,-645.11 275.01,-649.47"/>
<text text-anchor="middle" x="231.92" y="-608.45" font-family="monospace" font-size="10.00">uses</text>
</g>
<!-- lightning_consensus::narwhal&#45;&gt;lightning_consensus::validator -->
<g id="edge44" class="edge">
<title>lightning_consensus::narwhal&#45;&gt;lightning_consensus::validator</title>
<path fill="none" stroke="#7f7f7f" stroke-dasharray="5,2" d="M871.25,-525.45C876.54,-497.36 886.41,-444.83 892.59,-411.98"/>
<polygon fill="#7f7f7f" stroke="#7f7f7f" points="896.05,-412.54 894.46,-402.07 889.17,-411.25 896.05,-412.54"/>
<text text-anchor="middle" x="869.42" y="-471.72" font-family="monospace" font-size="10.00">uses</text>
</g>
<!-- lightning_utils::eth -->
<g id="node15" class="node">
<title>lightning_utils::eth</title>
<polygon fill="#81c169" stroke="black" points="1004.58,-363.9 1004.58,-401.9 1141.58,-401.9 1141.58,-363.9 1004.58,-363.9"/>
<text text-anchor="middle" x="1073.08" y="-389.9" font-family="monospace" font-size="10.00">external mod</text>
<polyline fill="none" stroke="black" points="1004.58,-382.9 1141.58,-382.9 "/>
<text text-anchor="middle" x="1073.08" y="-370.9" font-family="monospace" font-size="10.00">lightning_utils::eth</text>
</g>
<!-- lightning_consensus::validator&#45;&gt;lightning_utils::eth -->
<g id="edge45" class="edge">
<title>lightning_consensus::validator&#45;&gt;lightning_utils::eth</title>
<path fill="none" stroke="#7f7f7f" stroke-dasharray="5,2" d="M996.57,-382.9C996.73,-382.9 996.9,-382.9 997.06,-382.9"/>
<polygon fill="#7f7f7f" stroke="#7f7f7f" points="994.44,-386.4 1004.44,-382.9 994.44,-379.4 994.44,-386.4"/>
<text text-anchor="middle" x="1009.31" y="-385.9" font-family="monospace" font-size="10.00">uses</text>
</g>
</g>
</svg>
