<?xml version="1.0" encoding="UTF-8" standalone="no"?>
<!DOCTYPE svg PUBLIC "-//W3C//DTD SVG 1.1//EN"
 "http://www.w3.org/Graphics/SVG/1.1/DTD/svg11.dtd">
<!-- Generated by graphviz version 4.0.0 (0)
 -->
<!-- Pages: 1 -->
<svg width="708pt" height="435pt"
 viewBox="0.00 0.00 707.88 435.00" xmlns="http://www.w3.org/2000/svg" xmlns:xlink="http://www.w3.org/1999/xlink">
<g id="graph0" class="graph" transform="scale(1 1) rotate(0) translate(28.8 406.2)">
<polygon fill="white" stroke="transparent" points="-28.8,28.8 -28.8,-406.2 679.08,-406.2 679.08,28.8 -28.8,28.8"/>
<text text-anchor="middle" x="325.14" y="-344.6" font-family="Helvetica,sans-Serif" font-size="36.00">lightning_utils</text>
<!-- fdi -->
<g id="node1" class="node">
<title>fdi</title>
<polygon fill="#5397c8" stroke="black" points="116.93,-290.9 116.93,-328.9 217.93,-328.9 217.93,-290.9 116.93,-290.9"/>
<text text-anchor="middle" x="167.43" y="-316.9" font-family="monospace" font-size="10.00">external crate</text>
<polyline fill="none" stroke="black" points="116.93,-309.9 217.93,-309.9 "/>
<text text-anchor="middle" x="167.43" y="-297.9" font-family="monospace" font-size="10.00">fdi</text>
</g>
<!-- lightning_schema -->
<g id="node2" class="node">
<title>lightning_schema</title>
<polygon fill="#5397c8" stroke="black" points="0,-146.09 0,-184.09 113,-184.09 113,-146.09 0,-146.09"/>
<text text-anchor="middle" x="56.5" y="-172.09" font-family="monospace" font-size="10.00">external crate</text>
<polyline fill="none" stroke="black" points="0,-165.09 113,-165.09 "/>
<text text-anchor="middle" x="56.5" y="-153.09" font-family="monospace" font-size="10.00">lightning_schema</text>
</g>
<!-- lightning_types -->
<g id="node3" class="node">
<title>lightning_types</title>
<polygon fill="#5397c8" stroke="black" points="113.66,-0.5 113.66,-38.5 220.66,-38.5 220.66,-0.5 113.66,-0.5"/>
<text text-anchor="middle" x="167.16" y="-26.5" font-family="monospace" font-size="10.00">external crate</text>
<polyline fill="none" stroke="black" points="113.66,-19.5 220.66,-19.5 "/>
<text text-anchor="middle" x="167.16" y="-7.5" font-family="monospace" font-size="10.00">lightning_types</text>
</g>
<!-- lightning_utils -->
<g id="node4" class="node">
<title>lightning_utils</title>
<polygon fill="#5397c8" stroke="black" points="356.12,-146.04 356.12,-184.04 463.12,-184.04 463.12,-146.04 356.12,-146.04"/>
<text text-anchor="middle" x="409.62" y="-172.04" font-family="monospace" font-size="10.00">crate</text>
<polyline fill="none" stroke="black" points="356.12,-165.04 463.12,-165.04 "/>
<text text-anchor="middle" x="409.62" y="-153.04" font-family="monospace" font-size="10.00">lightning_utils</text>
</g>
<!-- lightning_utils::application -->
<g id="node5" class="node">
<title>lightning_utils::application</title>
<polygon fill="#81c169" stroke="black" points="121.02,-144.92 121.02,-182.92 306.02,-182.92 306.02,-144.92 121.02,-144.92"/>
<text text-anchor="middle" x="213.52" y="-170.92" font-family="monospace" font-size="10.00">pub mod</text>
<polyline fill="none" stroke="black" points="121.02,-163.92 306.02,-163.92 "/>
<text text-anchor="middle" x="213.52" y="-151.92" font-family="monospace" font-size="10.00">lightning_utils::application</text>
</g>
<!-- lightning_utils&#45;&gt;lightning_utils::application -->
<g id="edge1" class="edge">
<title>lightning_utils&#45;&gt;lightning_utils::application</title>
<path fill="none" stroke="#000000" d="M356.04,-164.74C343.62,-164.67 330.01,-164.59 316.27,-164.51"/>
<polygon fill="#000000" stroke="#000000" points="316.28,-161.01 306.26,-164.45 316.24,-168.01 316.28,-161.01"/>
<text text-anchor="middle" x="323.65" y="-167.62" font-family="monospace" font-size="10.00">owns</text>
</g>
<!-- lightning_utils::eth -->
<g id="node6" class="node">
<title>lightning_utils::eth</title>
<polygon fill="#81c169" stroke="black" points="391.08,-0.73 391.08,-38.73 528.08,-38.73 528.08,-0.73 391.08,-0.73"/>
<text text-anchor="middle" x="459.58" y="-26.73" font-family="monospace" font-size="10.00">pub mod</text>
<polyline fill="none" stroke="black" points="391.08,-19.73 528.08,-19.73 "/>
<text text-anchor="middle" x="459.58" y="-7.73" font-family="monospace" font-size="10.00">lightning_utils::eth</text>
</g>
<!-- lightning_utils&#45;&gt;lightning_utils::eth -->
<g id="edge2" class="edge">
<title>lightning_utils&#45;&gt;lightning_utils::eth</title>
<path fill="none" stroke="#000000" d="M416.26,-145.75C424.8,-120.89 439.74,-77.44 449.64,-48.63"/>
<polygon fill="#000000" stroke="#000000" points="452.97,-49.7 452.92,-39.1 446.36,-47.42 452.97,-49.7"/>
<text text-anchor="middle" x="420.45" y="-100.19" font-family="monospace" font-size="10.00">owns</text>
</g>
<!-- lightning_utils::rpc -->
<g id="node7" class="node">
<title>lightning_utils::rpc</title>
<polygon fill="#81c169" stroke="black" points="391.46,-290.47 391.46,-328.47 528.46,-328.47 528.46,-290.47 391.46,-290.47"/>
<text text-anchor="middle" x="459.96" y="-316.47" font-family="monospace" font-size="10.00">pub mod</text>
<polyline fill="none" stroke="black" points="391.46,-309.47 528.46,-309.47 "/>
<text text-anchor="middle" x="459.96" y="-297.47" font-family="monospace" font-size="10.00">lightning_utils::rpc</text>
</g>
<!-- lightning_utils&#45;&gt;lightning_utils::rpc -->
<g id="edge3" class="edge">
<title>lightning_utils&#45;&gt;lightning_utils::rpc</title>
<path fill="none" stroke="#000000" d="M416.31,-184.22C424.92,-208.93 439.97,-252.1 449.95,-280.74"/>
<polygon fill="#000000" stroke="#000000" points="446.65,-281.92 453.25,-290.21 453.26,-279.61 446.65,-281.92"/>
<text text-anchor="middle" x="420.63" y="-235.48" font-family="monospace" font-size="10.00">owns</text>
</g>
<!-- lightning_utils::shutdown -->
<g id="node8" class="node">
<title>lightning_utils::shutdown</title>
<polygon fill="#81c169" stroke="black" points="483.28,-145.4 483.28,-183.4 650.28,-183.4 650.28,-145.4 483.28,-145.4"/>
<text text-anchor="middle" x="566.78" y="-171.4" font-family="monospace" font-size="10.00">pub mod</text>
<polyline fill="none" stroke="black" points="483.28,-164.4 650.28,-164.4 "/>
<text text-anchor="middle" x="566.78" y="-152.4" font-family="monospace" font-size="10.00">lightning_utils::shutdown</text>
</g>
<!-- lightning_utils&#45;&gt;lightning_utils::shutdown -->
<g id="edge4" class="edge">
<title>lightning_utils&#45;&gt;lightning_utils::shutdown</title>
<path fill="none" stroke="#000000" d="M463.27,-164.83C466.37,-164.81 469.53,-164.8 472.72,-164.79"/>
<polygon fill="#000000" stroke="#000000" points="473.03,-168.29 483.02,-164.75 473,-161.29 473.03,-168.29"/>
<text text-anchor="middle" x="474.24" y="-156.81" font-family="monospace" font-size="10.00">owns</text>
</g>
<!-- lightning_utils::application&#45;&gt;fdi -->
<g id="edge5" class="edge">
<title>lightning_utils::application&#45;&gt;fdi</title>
<path fill="none" stroke="#7f7f7f" stroke-dasharray="5,2" d="M207.49,-183.01C199.59,-208.03 185.66,-252.16 176.49,-281.22"/>
<polygon fill="#7f7f7f" stroke="#7f7f7f" points="173.13,-280.22 173.46,-290.81 179.81,-282.33 173.13,-280.22"/>
<text text-anchor="middle" x="179.49" y="-235.11" font-family="monospace" font-size="10.00">uses</text>
</g>
<!-- lightning_utils::application&#45;&gt;lightning_schema -->
<g id="edge6" class="edge">
<title>lightning_utils::application&#45;&gt;lightning_schema</title>
<path fill="none" stroke="#7f7f7f" stroke-dasharray="5,2" d="M120.82,-164.61C120.66,-164.61 120.5,-164.61 120.34,-164.62"/>
<polygon fill="#7f7f7f" stroke="#7f7f7f" points="123.29,-161.09 113.32,-164.67 123.35,-168.09 123.29,-161.09"/>
<text text-anchor="middle" x="114.33" y="-156.61" font-family="monospace" font-size="10.00">uses</text>
</g>
<!-- lightning_utils::application&#45;&gt;lightning_types -->
<g id="edge7" class="edge">
<title>lightning_utils::application&#45;&gt;lightning_types</title>
<path fill="none" stroke="#7f7f7f" stroke-dasharray="5,2" d="M207.36,-144.75C199.46,-120.14 185.69,-77.24 176.5,-48.6"/>
<polygon fill="#7f7f7f" stroke="#7f7f7f" points="179.73,-47.21 173.34,-38.76 173.07,-49.35 179.73,-47.21"/>
<text text-anchor="middle" x="179.43" y="-99.67" font-family="monospace" font-size="10.00">uses</text>
</g>
</g>
</svg>
