<?xml version="1.0" encoding="UTF-8" standalone="no"?>
<!DOCTYPE svg PUBLIC "-//W3C//DTD SVG 1.1//EN"
 "http://www.w3.org/Graphics/SVG/1.1/DTD/svg11.dtd">
<!-- Generated by graphviz version 4.0.0 (0)
 -->
<!-- Pages: 1 -->
<svg width="1180pt" height="1254pt"
 viewBox="0.00 0.00 1180.38 1254.35" xmlns="http://www.w3.org/2000/svg" xmlns:xlink="http://www.w3.org/1999/xlink">
<g id="graph0" class="graph" transform="scale(1 1) rotate(0) translate(28.8 1225.55)">
<polygon fill="white" stroke="transparent" points="-28.8,28.8 -28.8,-1225.55 1151.58,-1225.55 1151.58,28.8 -28.8,28.8"/>
<text text-anchor="middle" x="561.39" y="-1163.95" font-family="Helvetica,sans-Serif" font-size="36.00">lightning_fetcher</text>
<!-- lightning_fetcher -->
<g id="node1" class="node">
<title>lightning_fetcher</title>
<polygon fill="#5397c8" stroke="black" points="577.27,-614.88 577.27,-652.88 696.27,-652.88 696.27,-614.88 577.27,-614.88"/>
<text text-anchor="middle" x="636.77" y="-640.88" font-family="monospace" font-size="10.00">crate</text>
<polyline fill="none" stroke="black" points="577.27,-633.88 696.27,-633.88 "/>
<text text-anchor="middle" x="636.77" y="-621.88" font-family="monospace" font-size="10.00">lightning_fetcher</text>
</g>
<!-- lightning_fetcher::config::Config -->
<g id="node2" class="node">
<title>lightning_fetcher::config::Config</title>
<polygon fill="#81c169" stroke="black" points="447.74,-424.3 447.74,-462.3 548.74,-462.3 548.74,-424.3 447.74,-424.3"/>
<text text-anchor="middle" x="498.24" y="-450.3" font-family="monospace" font-size="10.00">pub struct</text>
<polyline fill="none" stroke="black" points="447.74,-443.3 548.74,-443.3 "/>
<text text-anchor="middle" x="498.24" y="-431.3" font-family="monospace" font-size="10.00">config::Config</text>
</g>
<!-- lightning_fetcher&#45;&gt;lightning_fetcher::config::Config -->
<g id="edge1" class="edge">
<title>lightning_fetcher&#45;&gt;lightning_fetcher::config::Config</title>
<path fill="none" stroke="#000000" d="M639.64,-614.87C631.78,-579.83 584.15,-509.25 545.26,-469.86"/>
<polygon fill="#000000" stroke="#000000" points="547.22,-466.88 537.61,-462.42 542.34,-471.9 547.22,-466.88"/>
<text text-anchor="middle" x="579.95" y="-545.36" font-family="monospace" font-size="10.00">owns</text>
</g>
<!-- lightning_fetcher&#45;&gt;lightning_fetcher::config::Config -->
<g id="edge2" class="edge">
<title>lightning_fetcher&#45;&gt;lightning_fetcher::config::Config</title>
<path fill="none" stroke="#7f7f7f" stroke-dasharray="5,2" d="M597.18,-614.56C560.48,-580.29 512.43,-512.1 498.31,-472.28"/>
<polygon fill="#7f7f7f" stroke="#7f7f7f" points="501.63,-471.16 495.43,-462.57 494.92,-473.16 501.63,-471.16"/>
<text text-anchor="middle" x="535.24" y="-546.42" font-family="monospace" font-size="10.00">uses</text>
</g>
<!-- lightning_fetcher::fetcher::Fetcher -->
<g id="node3" class="node">
<title>lightning_fetcher::fetcher::Fetcher</title>
<polygon fill="#81c169" stroke="black" points="669.79,-297.87 669.79,-335.87 782.79,-335.87 782.79,-297.87 669.79,-297.87"/>
<text text-anchor="middle" x="726.29" y="-323.87" font-family="monospace" font-size="10.00">pub struct</text>
<polyline fill="none" stroke="black" points="669.79,-316.87 782.79,-316.87 "/>
<text text-anchor="middle" x="726.29" y="-304.87" font-family="monospace" font-size="10.00">fetcher::Fetcher</text>
</g>
<!-- lightning_fetcher&#45;&gt;lightning_fetcher::fetcher::Fetcher -->
<g id="edge3" class="edge">
<title>lightning_fetcher&#45;&gt;lightning_fetcher::fetcher::Fetcher</title>
<path fill="none" stroke="#000000" d="M642.23,-614.52C657.41,-560.79 700.12,-409.52 718.13,-345.77"/>
<polygon fill="#000000" stroke="#000000" points="721.54,-346.55 720.89,-335.97 714.81,-344.64 721.54,-346.55"/>
<text text-anchor="middle" x="667.68" y="-483.15" font-family="monospace" font-size="10.00">owns</text>
</g>
<!-- lightning_fetcher::fetcher::FetcherInner -->
<g id="node10" class="node">
<title>lightning_fetcher::fetcher::FetcherInner</title>
<polygon fill="#db5367" stroke="black" points="275.05,-548.97 275.05,-586.97 418.05,-586.97 418.05,-548.97 275.05,-548.97"/>
<text text-anchor="middle" x="346.55" y="-574.97" font-family="monospace" font-size="10.00">pub(self) struct</text>
<polyline fill="none" stroke="black" points="275.05,-567.97 418.05,-567.97 "/>
<text text-anchor="middle" x="346.55" y="-555.97" font-family="monospace" font-size="10.00">fetcher::FetcherInner</text>
</g>
<!-- lightning_fetcher&#45;&gt;lightning_fetcher::fetcher::FetcherInner -->
<g id="edge4" class="edge">
<title>lightning_fetcher&#45;&gt;lightning_fetcher::fetcher::FetcherInner</title>
<path fill="none" stroke="#000000" d="M576.98,-620.3C534,-610.54 475.51,-597.25 428.22,-586.51"/>
<polygon fill="#000000" stroke="#000000" points="428.83,-583.06 418.31,-584.26 427.28,-589.89 428.83,-583.06"/>
<text text-anchor="middle" x="490.1" y="-606.41" font-family="monospace" font-size="10.00">owns</text>
</g>
<!-- lightning_fetcher::fetcher::Uri -->
<g id="node15" class="node">
<title>lightning_fetcher::fetcher::Uri</title>
<polygon fill="#f8c04c" stroke="black" points="862.24,-575.74 862.24,-613.74 969.24,-613.74 969.24,-575.74 862.24,-575.74"/>
<text text-anchor="middle" x="915.74" y="-601.74" font-family="monospace" font-size="10.00">pub(crate) type</text>
<polyline fill="none" stroke="black" points="862.24,-594.74 969.24,-594.74 "/>
<text text-anchor="middle" x="915.74" y="-582.74" font-family="monospace" font-size="10.00">fetcher::Uri</text>
</g>
<!-- lightning_fetcher&#45;&gt;lightning_fetcher::fetcher::Uri -->
<g id="edge5" class="edge">
<title>lightning_fetcher&#45;&gt;lightning_fetcher::fetcher::Uri</title>
<path fill="none" stroke="#000000" d="M696.3,-647.94C754.16,-647.42 839.68,-634.1 885,-617.49"/>
<polygon fill="#000000" stroke="#000000" points="886.31,-620.74 894.3,-613.78 883.72,-614.23 886.31,-620.74"/>
<text text-anchor="middle" x="778.15" y="-635.71" font-family="monospace" font-size="10.00">owns</text>
</g>
<!-- lightning_fetcher&#45;&gt;lightning_fetcher::fetcher::Uri -->
<g id="edge6" class="edge">
<title>lightning_fetcher&#45;&gt;lightning_fetcher::fetcher::Uri</title>
<path fill="none" stroke="#7f7f7f" stroke-dasharray="5,2" d="M658.34,-614.77C699.43,-596.91 790.15,-581.9 852.15,-580.74"/>
<polygon fill="#7f7f7f" stroke="#7f7f7f" points="852.25,-584.24 862.23,-580.67 852.21,-577.24 852.25,-584.24"/>
<text text-anchor="middle" x="742.75" y="-600.76" font-family="monospace" font-size="10.00">uses</text>
</g>
<!-- lightning_fetcher::origin::ErrorResponse -->
<g id="node16" class="node">
<title>lightning_fetcher::origin::ErrorResponse</title>
<polygon fill="#db5367" stroke="black" points="747.83,-845.06 747.83,-883.06 890.83,-883.06 890.83,-845.06 747.83,-845.06"/>
<text text-anchor="middle" x="819.33" y="-871.06" font-family="monospace" font-size="10.00">pub(self) enum</text>
<polyline fill="none" stroke="black" points="747.83,-864.06 890.83,-864.06 "/>
<text text-anchor="middle" x="819.33" y="-852.06" font-family="monospace" font-size="10.00">origin::ErrorResponse</text>
</g>
<!-- lightning_fetcher&#45;&gt;lightning_fetcher::origin::ErrorResponse -->
<g id="edge7" class="edge">
<title>lightning_fetcher&#45;&gt;lightning_fetcher::origin::ErrorResponse</title>
<path fill="none" stroke="#000000" d="M652.02,-653.11C684.52,-694.08 760.66,-790.09 797.97,-837.13"/>
<polygon fill="#000000" stroke="#000000" points="795.3,-839.39 804.25,-845.05 800.78,-835.04 795.3,-839.39"/>
<text text-anchor="middle" x="712.49" y="-748.12" font-family="monospace" font-size="10.00">owns</text>
</g>
<!-- lightning_fetcher::origin::OriginError -->
<g id="node17" class="node">
<title>lightning_fetcher::origin::OriginError</title>
<polygon fill="#81c169" stroke="black" points="778.81,-723.4 778.81,-761.4 909.81,-761.4 909.81,-723.4 778.81,-723.4"/>
<text text-anchor="middle" x="844.31" y="-749.4" font-family="monospace" font-size="10.00">pub struct</text>
<polyline fill="none" stroke="black" points="778.81,-742.4 909.81,-742.4 "/>
<text text-anchor="middle" x="844.31" y="-730.4" font-family="monospace" font-size="10.00">origin::OriginError</text>
</g>
<!-- lightning_fetcher&#45;&gt;lightning_fetcher::origin::OriginError -->
<g id="edge8" class="edge">
<title>lightning_fetcher&#45;&gt;lightning_fetcher::origin::OriginError</title>
<path fill="none" stroke="#000000" d="M673.39,-653.03C708.26,-671.26 760.85,-698.76 798.48,-718.43"/>
<polygon fill="#000000" stroke="#000000" points="797.22,-721.72 807.7,-723.26 800.46,-715.52 797.22,-721.72"/>
<text text-anchor="middle" x="723.43" y="-688.73" font-family="monospace" font-size="10.00">owns</text>
</g>
<!-- lightning_fetcher::origin::OriginFetcher -->
<g id="node18" class="node">
<title>lightning_fetcher::origin::OriginFetcher</title>
<polygon fill="#81c169" stroke="black" points="409.7,-873.37 409.7,-911.37 552.7,-911.37 552.7,-873.37 409.7,-873.37"/>
<text text-anchor="middle" x="481.2" y="-899.37" font-family="monospace" font-size="10.00">pub struct</text>
<polyline fill="none" stroke="black" points="409.7,-892.37 552.7,-892.37 "/>
<text text-anchor="middle" x="481.2" y="-880.37" font-family="monospace" font-size="10.00">origin::OriginFetcher</text>
</g>
<!-- lightning_fetcher&#45;&gt;lightning_fetcher::origin::OriginFetcher -->
<g id="edge9" class="edge">
<title>lightning_fetcher&#45;&gt;lightning_fetcher::origin::OriginFetcher</title>
<path fill="none" stroke="#000000" d="M604.74,-652.95C562.01,-698.42 495.86,-809.65 480.46,-863.39"/>
<polygon fill="#000000" stroke="#000000" points="477,-862.8 478.08,-873.34 483.81,-864.43 477,-862.8"/>
<text text-anchor="middle" x="530.1" y="-761.17" font-family="monospace" font-size="10.00">owns</text>
</g>
<!-- lightning_fetcher&#45;&gt;lightning_fetcher::origin::OriginFetcher -->
<g id="edge10" class="edge">
<title>lightning_fetcher&#45;&gt;lightning_fetcher::origin::OriginFetcher</title>
<path fill="none" stroke="#7f7f7f" stroke-dasharray="5,2" d="M639.84,-653.19C631.22,-699.48 565.83,-812.68 520.3,-865.43"/>
<polygon fill="#7f7f7f" stroke="#7f7f7f" points="517.53,-863.27 513.46,-873.05 522.74,-867.95 517.53,-863.27"/>
<text text-anchor="middle" x="567.57" y="-762.31" font-family="monospace" font-size="10.00">uses</text>
</g>
<!-- lightning_fetcher::origin::OriginRequest -->
<g id="node22" class="node">
<title>lightning_fetcher::origin::OriginRequest</title>
<polygon fill="#81c169" stroke="black" points="300.72,-742.68 300.72,-780.68 443.72,-780.68 443.72,-742.68 300.72,-742.68"/>
<text text-anchor="middle" x="372.22" y="-768.68" font-family="monospace" font-size="10.00">pub struct</text>
<polyline fill="none" stroke="black" points="300.72,-761.68 443.72,-761.68 "/>
<text text-anchor="middle" x="372.22" y="-749.68" font-family="monospace" font-size="10.00">origin::OriginRequest</text>
</g>
<!-- lightning_fetcher&#45;&gt;lightning_fetcher::origin::OriginRequest -->
<g id="edge11" class="edge">
<title>lightning_fetcher&#45;&gt;lightning_fetcher::origin::OriginRequest</title>
<path fill="none" stroke="#000000" d="M577.26,-638.53C516.43,-658.39 426.26,-703.97 388.82,-735.62"/>
<polygon fill="#000000" stroke="#000000" points="386.27,-733.2 381.27,-742.54 391,-738.36 386.27,-733.2"/>
<text text-anchor="middle" x="470.54" y="-690.07" font-family="monospace" font-size="10.00">owns</text>
</g>
<!-- lightning_fetcher&#45;&gt;lightning_fetcher::origin::OriginRequest -->
<g id="edge12" class="edge">
<title>lightning_fetcher&#45;&gt;lightning_fetcher::origin::OriginRequest</title>
<path fill="none" stroke="#7f7f7f" stroke-dasharray="5,2" d="M627.59,-653.14C599.6,-681.32 517.42,-725.05 453.62,-749.26"/>
<polygon fill="#7f7f7f" stroke="#7f7f7f" points="452.12,-746.08 443.95,-752.83 454.54,-752.65 452.12,-746.08"/>
<text text-anchor="middle" x="528.11" y="-704.2" font-family="monospace" font-size="10.00">uses</text>
</g>
<!-- lightning_fetcher::origin::SuccessResponse -->
<g id="node23" class="node">
<title>lightning_fetcher::origin::SuccessResponse</title>
<polygon fill="#db5367" stroke="black" points="704.38,-901.59 704.38,-939.59 859.38,-939.59 859.38,-901.59 704.38,-901.59"/>
<text text-anchor="middle" x="781.88" y="-927.59" font-family="monospace" font-size="10.00">pub(self) struct</text>
<polyline fill="none" stroke="black" points="704.38,-920.59 859.38,-920.59 "/>
<text text-anchor="middle" x="781.88" y="-908.59" font-family="monospace" font-size="10.00">origin::SuccessResponse</text>
</g>
<!-- lightning_fetcher&#45;&gt;lightning_fetcher::origin::SuccessResponse -->
<g id="edge13" class="edge">
<title>lightning_fetcher&#45;&gt;lightning_fetcher::origin::SuccessResponse</title>
<path fill="none" stroke="#000000" d="M646.51,-653.13C671.56,-702.61 738.24,-834.36 767.63,-892.43"/>
<polygon fill="#000000" stroke="#000000" points="764.54,-894.08 772.18,-901.42 770.79,-890.92 764.54,-894.08"/>
<text text-anchor="middle" x="694.57" y="-775.78" font-family="monospace" font-size="10.00">owns</text>
</g>
<!-- lightning_fetcher::fetcher::Fetcher::Config -->
<g id="node4" class="node">
<title>lightning_fetcher::fetcher::Fetcher::Config</title>
<polygon fill="#db5367" stroke="black" points="441.58,-141.78 441.58,-179.78 602.58,-179.78 602.58,-141.78 441.58,-141.78"/>
<text text-anchor="middle" x="522.08" y="-167.78" font-family="monospace" font-size="10.00">pub(self) type</text>
<polyline fill="none" stroke="black" points="441.58,-160.78 602.58,-160.78 "/>
<text text-anchor="middle" x="522.08" y="-148.78" font-family="monospace" font-size="10.00">fetcher::Fetcher::Config</text>
</g>
<!-- lightning_fetcher::fetcher::Fetcher&#45;&gt;lightning_fetcher::fetcher::Fetcher::Config -->
<g id="edge14" class="edge">
<title>lightning_fetcher::fetcher::Fetcher&#45;&gt;lightning_fetcher::fetcher::Fetcher::Config</title>
<path fill="none" stroke="#000000" d="M701.25,-297.73C664.48,-269.63 595.84,-217.16 555.03,-185.97"/>
<polygon fill="#000000" stroke="#000000" points="557.08,-183.13 547.01,-179.84 552.83,-188.69 557.08,-183.13"/>
<text text-anchor="middle" x="615.64" y="-244.85" font-family="monospace" font-size="10.00">owns</text>
</g>
<!-- lightning_fetcher::fetcher::Fetcher::get_socket -->
<g id="node5" class="node">
<title>lightning_fetcher::fetcher::Fetcher::get_socket</title>
<polygon fill="#db5367" stroke="black" points="937.78,-310.16 937.78,-348.16 1122.78,-348.16 1122.78,-310.16 937.78,-310.16"/>
<text text-anchor="middle" x="1030.28" y="-336.16" font-family="monospace" font-size="10.00">pub(self) fn</text>
<polyline fill="none" stroke="black" points="937.78,-329.16 1122.78,-329.16 "/>
<text text-anchor="middle" x="1030.28" y="-317.16" font-family="monospace" font-size="10.00">fetcher::Fetcher::get_socket</text>
</g>
<!-- lightning_fetcher::fetcher::Fetcher&#45;&gt;lightning_fetcher::fetcher::Fetcher::get_socket -->
<g id="edge15" class="edge">
<title>lightning_fetcher::fetcher::Fetcher&#45;&gt;lightning_fetcher::fetcher::Fetcher::get_socket</title>
<path fill="none" stroke="#000000" d="M758.98,-335.88C808.08,-348.41 901.86,-353.81 965.24,-349.05"/>
<polygon fill="#000000" stroke="#000000" points="965.87,-352.51 975.53,-348.16 965.27,-345.54 965.87,-352.51"/>
<text text-anchor="middle" x="849.61" y="-345.46" font-family="monospace" font-size="10.00">owns</text>
</g>
<!-- lightning_fetcher::fetcher::Fetcher::init -->
<g id="node6" class="node">
<title>lightning_fetcher::fetcher::Fetcher::init</title>
<polygon fill="#db5367" stroke="black" points="333.37,-265.13 333.37,-303.13 482.37,-303.13 482.37,-265.13 333.37,-265.13"/>
<text text-anchor="middle" x="407.87" y="-291.13" font-family="monospace" font-size="10.00">pub(self) fn</text>
<polyline fill="none" stroke="black" points="333.37,-284.13 482.37,-284.13 "/>
<text text-anchor="middle" x="407.87" y="-272.13" font-family="monospace" font-size="10.00">fetcher::Fetcher::init</text>
</g>
<!-- lightning_fetcher::fetcher::Fetcher&#45;&gt;lightning_fetcher::fetcher::Fetcher::init -->
<g id="edge16" class="edge">
<title>lightning_fetcher::fetcher::Fetcher&#45;&gt;lightning_fetcher::fetcher::Fetcher::init</title>
<path fill="none" stroke="#000000" d="M699.69,-297.86C654.7,-282.18 561.84,-270.01 492.88,-268.75"/>
<polygon fill="#000000" stroke="#000000" points="492.5,-265.24 482.46,-268.64 492.43,-272.24 492.5,-265.24"/>
<text text-anchor="middle" x="583.78" y="-286.3" font-family="monospace" font-size="10.00">owns</text>
</g>
<!-- lightning_fetcher::fetcher::Fetcher::is_running -->
<g id="node7" class="node">
<title>lightning_fetcher::fetcher::Fetcher::is_running</title>
<polygon fill="#db5367" stroke="black" points="577.82,-0.5 577.82,-38.5 762.82,-38.5 762.82,-0.5 577.82,-0.5"/>
<text text-anchor="middle" x="670.32" y="-26.5" font-family="monospace" font-size="10.00">pub(self) fn</text>
<polyline fill="none" stroke="black" points="577.82,-19.5 762.82,-19.5 "/>
<text text-anchor="middle" x="670.32" y="-7.5" font-family="monospace" font-size="10.00">fetcher::Fetcher::is_running</text>
</g>
<!-- lightning_fetcher::fetcher::Fetcher&#45;&gt;lightning_fetcher::fetcher::Fetcher::is_running -->
<g id="edge17" class="edge">
<title>lightning_fetcher::fetcher::Fetcher&#45;&gt;lightning_fetcher::fetcher::Fetcher::is_running</title>
<path fill="none" stroke="#000000" d="M736.24,-297.56C743.62,-246.52 719.03,-108.42 693.52,-48.16"/>
<polygon fill="#000000" stroke="#000000" points="696.6,-46.49 689.25,-38.85 690.24,-49.4 696.6,-46.49"/>
<text text-anchor="middle" x="702.38" y="-175.86" font-family="monospace" font-size="10.00">owns</text>
</g>
<!-- lightning_fetcher::fetcher::Fetcher::shutdown -->
<g id="node8" class="node">
<title>lightning_fetcher::fetcher::Fetcher::shutdown</title>
<polygon fill="#db5367" stroke="black" points="887.31,-163.48 887.31,-201.48 1060.31,-201.48 1060.31,-163.48 887.31,-163.48"/>
<text text-anchor="middle" x="973.81" y="-189.48" font-family="monospace" font-size="10.00">pub(self) async fn</text>
<polyline fill="none" stroke="black" points="887.31,-182.48 1060.31,-182.48 "/>
<text text-anchor="middle" x="973.81" y="-170.48" font-family="monospace" font-size="10.00">fetcher::Fetcher::shutdown</text>
</g>
<!-- lightning_fetcher::fetcher::Fetcher&#45;&gt;lightning_fetcher::fetcher::Fetcher::shutdown -->
<g id="edge18" class="edge">
<title>lightning_fetcher::fetcher::Fetcher&#45;&gt;lightning_fetcher::fetcher::Fetcher::shutdown</title>
<path fill="none" stroke="#000000" d="M782.86,-310.73C840.09,-289.49 924.24,-241.83 958.88,-209.28"/>
<polygon fill="#000000" stroke="#000000" points="961.74,-211.36 966.22,-201.76 956.73,-206.47 961.74,-211.36"/>
<text text-anchor="middle" x="858.37" y="-263.01" font-family="monospace" font-size="10.00">owns</text>
</g>
<!-- lightning_fetcher::fetcher::Fetcher::start -->
<g id="node9" class="node">
<title>lightning_fetcher::fetcher::Fetcher::start</title>
<polygon fill="#db5367" stroke="black" points="766.74,-49.19 766.74,-87.19 921.74,-87.19 921.74,-49.19 766.74,-49.19"/>
<text text-anchor="middle" x="844.24" y="-75.19" font-family="monospace" font-size="10.00">pub(self) async fn</text>
<polyline fill="none" stroke="black" points="766.74,-68.19 921.74,-68.19 "/>
<text text-anchor="middle" x="844.24" y="-56.19" font-family="monospace" font-size="10.00">fetcher::Fetcher::start</text>
</g>
<!-- lightning_fetcher::fetcher::Fetcher&#45;&gt;lightning_fetcher::fetcher::Fetcher::start -->
<g id="edge19" class="edge">
<title>lightning_fetcher::fetcher::Fetcher&#45;&gt;lightning_fetcher::fetcher::Fetcher::start</title>
<path fill="none" stroke="#000000" d="M754.7,-297.75C789.88,-254.1 839.09,-149.43 848.33,-97.58"/>
<polygon fill="#000000" stroke="#000000" points="851.84,-97.74 849.67,-87.36 844.9,-96.82 851.84,-97.74"/>
<text text-anchor="middle" x="789.02" y="-200.67" font-family="monospace" font-size="10.00">owns</text>
</g>
<!-- lightning_fetcher::fetcher::Fetcher::Config&#45;&gt;lightning_fetcher::config::Config -->
<g id="edge20" class="edge">
<title>lightning_fetcher::fetcher::Fetcher::Config&#45;&gt;lightning_fetcher::config::Config</title>
<path fill="none" stroke="#7f7f7f" stroke-dasharray="5,2" d="M520.44,-180.2C516.34,-228.81 505.61,-355.95 500.73,-413.83"/>
<polygon fill="#7f7f7f" stroke="#7f7f7f" points="497.21,-413.86 499.86,-424.12 504.19,-414.45 497.21,-413.86"/>
<text text-anchor="middle" x="498.09" y="-300.02" font-family="monospace" font-size="10.00">uses</text>
</g>
<!-- lightning_fetcher::fetcher::Fetcher::get_socket&#45;&gt;lightning_fetcher::fetcher::Fetcher -->
<g id="edge21" class="edge">
<title>lightning_fetcher::fetcher::Fetcher::get_socket&#45;&gt;lightning_fetcher::fetcher::Fetcher</title>
<path fill="none" stroke="#7f7f7f" stroke-dasharray="5,2" d="M997.59,-310.16C948.49,-297.62 854.71,-292.22 791.33,-296.98"/>
<polygon fill="#7f7f7f" stroke="#7f7f7f" points="790.7,-293.52 781.04,-297.87 791.3,-300.49 790.7,-293.52"/>
<text text-anchor="middle" x="881.96" y="-306.57" font-family="monospace" font-size="10.00">uses</text>
</g>
<!-- lightning_fetcher::fetcher::Fetcher::init&#45;&gt;lightning_fetcher::config::Config -->
<g id="edge22" class="edge">
<title>lightning_fetcher::fetcher::Fetcher::init&#45;&gt;lightning_fetcher::config::Config</title>
<path fill="none" stroke="#7f7f7f" stroke-dasharray="5,2" d="M418.77,-303.33C434.58,-331.18 463.97,-382.95 482.24,-415.12"/>
<polygon fill="#7f7f7f" stroke="#7f7f7f" points="479.32,-417.07 487.3,-424.04 485.41,-413.61 479.32,-417.07"/>
<text text-anchor="middle" x="438.01" y="-362.23" font-family="monospace" font-size="10.00">uses</text>
</g>
<!-- lightning_fetcher::fetcher::Fetcher::init&#45;&gt;lightning_fetcher::fetcher::Fetcher -->
<g id="edge23" class="edge">
<title>lightning_fetcher::fetcher::Fetcher::init&#45;&gt;lightning_fetcher::fetcher::Fetcher</title>
<path fill="none" stroke="#7f7f7f" stroke-dasharray="5,2" d="M434.47,-303.14C483.58,-320.27 589.76,-333.2 659.59,-332.32"/>
<polygon fill="#7f7f7f" stroke="#7f7f7f" points="659.7,-335.82 669.62,-332.09 659.54,-328.82 659.7,-335.82"/>
<text text-anchor="middle" x="534.53" y="-320.73" font-family="monospace" font-size="10.00">uses</text>
</g>
<!-- lightning_fetcher::fetcher::Fetcher::init&#45;&gt;lightning_fetcher::fetcher::FetcherInner -->
<g id="edge24" class="edge">
<title>lightning_fetcher::fetcher::Fetcher::init&#45;&gt;lightning_fetcher::fetcher::FetcherInner</title>
<path fill="none" stroke="#7f7f7f" stroke-dasharray="5,2" d="M403.75,-303.2C393.26,-351.76 365.47,-480.37 352.89,-538.59"/>
<polygon fill="#7f7f7f" stroke="#7f7f7f" points="349.42,-538.1 350.73,-548.61 356.26,-539.58 349.42,-538.1"/>
<text text-anchor="middle" x="365.82" y="-423.9" font-family="monospace" font-size="10.00">uses</text>
</g>
<!-- lightning_fetcher::fetcher::Fetcher::is_running&#45;&gt;lightning_fetcher::fetcher::Fetcher -->
<g id="edge25" class="edge">
<title>lightning_fetcher::fetcher::Fetcher::is_running&#45;&gt;lightning_fetcher::fetcher::Fetcher</title>
<path fill="none" stroke="#7f7f7f" stroke-dasharray="5,2" d="M660.37,-38.81C652.99,-89.85 677.58,-227.95 703.09,-288.21"/>
<polygon fill="#7f7f7f" stroke="#7f7f7f" points="700.01,-289.89 707.35,-297.52 706.37,-286.97 700.01,-289.89"/>
<text text-anchor="middle" x="669.23" y="-166.51" font-family="monospace" font-size="10.00">uses</text>
</g>
<!-- lightning_fetcher::fetcher::Fetcher::shutdown&#45;&gt;lightning_fetcher::fetcher::Fetcher -->
<g id="edge26" class="edge">
<title>lightning_fetcher::fetcher::Fetcher::shutdown&#45;&gt;lightning_fetcher::fetcher::Fetcher</title>
<path fill="none" stroke="#7f7f7f" stroke-dasharray="5,2" d="M887.27,-201C833.65,-225.12 769.93,-262.99 741.04,-290.23"/>
<polygon fill="#7f7f7f" stroke="#7f7f7f" points="738.33,-288 733.86,-297.61 743.34,-292.89 738.33,-288"/>
<text text-anchor="middle" x="801.66" y="-248.62" font-family="monospace" font-size="10.00">uses</text>
</g>
<!-- lightning_fetcher::fetcher::Fetcher::start&#45;&gt;lightning_fetcher::fetcher::Fetcher -->
<g id="edge27" class="edge">
<title>lightning_fetcher::fetcher::Fetcher::start&#45;&gt;lightning_fetcher::fetcher::Fetcher</title>
<path fill="none" stroke="#7f7f7f" stroke-dasharray="5,2" d="M815.82,-87.31C780.65,-130.95 731.44,-235.63 722.2,-287.47"/>
<polygon fill="#7f7f7f" stroke="#7f7f7f" points="718.69,-287.32 720.85,-297.69 725.63,-288.23 718.69,-287.32"/>
<text text-anchor="middle" x="756.51" y="-190.39" font-family="monospace" font-size="10.00">uses</text>
</g>
<!-- lightning_fetcher::fetcher::FetcherInner&#45;&gt;lightning_fetcher::config::Config -->
<g id="edge28" class="edge">
<title>lightning_fetcher::fetcher::FetcherInner&#45;&gt;lightning_fetcher::config::Config</title>
<path fill="none" stroke="#7f7f7f" stroke-dasharray="5,2" d="M369.92,-548.76C396.05,-527.29 438.48,-492.41 467.34,-468.7"/>
<polygon fill="#7f7f7f" stroke="#7f7f7f" points="469.59,-471.38 475.1,-462.33 465.15,-465.97 469.59,-471.38"/>
<text text-anchor="middle" x="406.13" y="-511.73" font-family="monospace" font-size="10.00">uses</text>
</g>
<!-- lightning_fetcher::fetcher::FetcherInner::fetch -->
<g id="node11" class="node">
<title>lightning_fetcher::fetcher::FetcherInner::fetch</title>
<polygon fill="#db5367" stroke="black" points="51.23,-505.38 51.23,-543.38 236.23,-543.38 236.23,-505.38 51.23,-505.38"/>
<text text-anchor="middle" x="143.73" y="-531.38" font-family="monospace" font-size="10.00">pub(self) async fn</text>
<polyline fill="none" stroke="black" points="51.23,-524.38 236.23,-524.38 "/>
<text text-anchor="middle" x="143.73" y="-512.38" font-family="monospace" font-size="10.00">fetcher::FetcherInner::fetch</text>
</g>
<!-- lightning_fetcher::fetcher::FetcherInner&#45;&gt;lightning_fetcher::fetcher::FetcherInner::fetch -->
<g id="edge29" class="edge">
<title>lightning_fetcher::fetcher::FetcherInner&#45;&gt;lightning_fetcher::fetcher::FetcherInner::fetch</title>
<path fill="none" stroke="#000000" d="M332.92,-548.89C314.63,-536.98 280.71,-525.88 246.57,-518.89"/>
<polygon fill="#000000" stroke="#000000" points="246.96,-515.39 236.47,-516.94 245.63,-522.27 246.96,-515.39"/>
<text text-anchor="middle" x="277.25" y="-536.89" font-family="monospace" font-size="10.00">owns</text>
</g>
<!-- lightning_fetcher::fetcher::FetcherInner::fetch_origin -->
<g id="node12" class="node">
<title>lightning_fetcher::fetcher::FetcherInner::fetch_origin</title>
<polygon fill="#db5367" stroke="black" points="0,-737.58 0,-775.58 227,-775.58 227,-737.58 0,-737.58"/>
<text text-anchor="middle" x="113.5" y="-763.58" font-family="monospace" font-size="10.00">pub(self) async fn</text>
<polyline fill="none" stroke="black" points="0,-756.58 227,-756.58 "/>
<text text-anchor="middle" x="113.5" y="-744.58" font-family="monospace" font-size="10.00">fetcher::FetcherInner::fetch_origin</text>
</g>
<!-- lightning_fetcher::fetcher::FetcherInner&#45;&gt;lightning_fetcher::fetcher::FetcherInner::fetch_origin -->
<g id="edge30" class="edge">
<title>lightning_fetcher::fetcher::FetcherInner&#45;&gt;lightning_fetcher::fetcher::FetcherInner::fetch_origin</title>
<path fill="none" stroke="#000000" d="M288.49,-586.99C231.97,-621.6 151.68,-689.18 122.81,-728.87"/>
<polygon fill="#000000" stroke="#000000" points="119.78,-727.1 117.18,-737.37 125.62,-730.97 119.78,-727.1"/>
<text text-anchor="middle" x="218.15" y="-660.93" font-family="monospace" font-size="10.00">owns</text>
</g>
<!-- lightning_fetcher::fetcher::FetcherInner::put -->
<g id="node13" class="node">
<title>lightning_fetcher::fetcher::FetcherInner::put</title>
<polygon fill="#db5367" stroke="black" points="28.23,-620.45 28.23,-658.45 201.23,-658.45 201.23,-620.45 28.23,-620.45"/>
<text text-anchor="middle" x="114.73" y="-646.45" font-family="monospace" font-size="10.00">pub(self) async fn</text>
<polyline fill="none" stroke="black" points="28.23,-639.45 201.23,-639.45 "/>
<text text-anchor="middle" x="114.73" y="-627.45" font-family="monospace" font-size="10.00">fetcher::FetcherInner::put</text>
</g>
<!-- lightning_fetcher::fetcher::FetcherInner&#45;&gt;lightning_fetcher::fetcher::FetcherInner::put -->
<g id="edge31" class="edge">
<title>lightning_fetcher::fetcher::FetcherInner&#45;&gt;lightning_fetcher::fetcher::FetcherInner::put</title>
<path fill="none" stroke="#000000" d="M274.76,-564.47C226.5,-574.24 166.33,-595.15 135.2,-614.58"/>
<polygon fill="#000000" stroke="#000000" points="133.15,-611.74 126.87,-620.28 137.1,-617.52 133.15,-611.74"/>
<text text-anchor="middle" x="192.48" y="-592.53" font-family="monospace" font-size="10.00">owns</text>
</g>
<!-- lightning_fetcher::fetcher::FetcherInner::start -->
<g id="node14" class="node">
<title>lightning_fetcher::fetcher::FetcherInner::start</title>
<polygon fill="#db5367" stroke="black" points="143.64,-846.97 143.64,-884.97 328.64,-884.97 328.64,-846.97 143.64,-846.97"/>
<text text-anchor="middle" x="236.14" y="-872.97" font-family="monospace" font-size="10.00">pub(self) async fn</text>
<polyline fill="none" stroke="black" points="143.64,-865.97 328.64,-865.97 "/>
<text text-anchor="middle" x="236.14" y="-853.97" font-family="monospace" font-size="10.00">fetcher::FetcherInner::start</text>
</g>
<!-- lightning_fetcher::fetcher::FetcherInner&#45;&gt;lightning_fetcher::fetcher::FetcherInner::start -->
<g id="edge32" class="edge">
<title>lightning_fetcher::fetcher::FetcherInner&#45;&gt;lightning_fetcher::fetcher::FetcherInner::start</title>
<path fill="none" stroke="#000000" d="M339.47,-587.06C320.67,-637.82 269.34,-776.36 246.9,-836.95"/>
<polygon fill="#000000" stroke="#000000" points="243.49,-836.06 243.3,-846.65 250.06,-838.49 243.49,-836.06"/>
<text text-anchor="middle" x="280.68" y="-715.01" font-family="monospace" font-size="10.00">owns</text>
</g>
<!-- lightning_fetcher::fetcher::FetcherInner::fetch&#45;&gt;lightning_fetcher::fetcher::FetcherInner -->
<g id="edge33" class="edge">
<title>lightning_fetcher::fetcher::FetcherInner::fetch&#45;&gt;lightning_fetcher::fetcher::FetcherInner</title>
<path fill="none" stroke="#7f7f7f" stroke-dasharray="5,2" d="M157.36,-543.45C179.48,-557.85 224.45,-571.08 265.02,-577.28"/>
<polygon fill="#7f7f7f" stroke="#7f7f7f" points="264.56,-580.75 274.95,-578.66 265.53,-573.81 264.56,-580.75"/>
<text text-anchor="middle" x="198.69" y="-563.36" font-family="monospace" font-size="10.00">uses</text>
</g>
<!-- lightning_fetcher::fetcher::FetcherInner::fetch&#45;&gt;lightning_fetcher::origin::OriginRequest -->
<g id="edge34" class="edge">
<title>lightning_fetcher::fetcher::FetcherInner::fetch&#45;&gt;lightning_fetcher::origin::OriginRequest</title>
<path fill="none" stroke="#7f7f7f" stroke-dasharray="5,2" d="M162.05,-543.4C202.65,-585.57 300.34,-687.02 346.81,-735.29"/>
<polygon fill="#7f7f7f" stroke="#7f7f7f" points="344.36,-737.79 353.82,-742.57 349.4,-732.94 344.36,-737.79"/>
<text text-anchor="middle" x="241.93" y="-642.35" font-family="monospace" font-size="10.00">uses</text>
</g>
<!-- lightning_fetcher::fetcher::FetcherInner::fetch_origin&#45;&gt;lightning_fetcher::fetcher::FetcherInner -->
<g id="edge35" class="edge">
<title>lightning_fetcher::fetcher::FetcherInner::fetch_origin&#45;&gt;lightning_fetcher::fetcher::FetcherInner</title>
<path fill="none" stroke="#7f7f7f" stroke-dasharray="5,2" d="M171.56,-737.56C228.08,-702.95 308.37,-635.36 337.24,-595.68"/>
<polygon fill="#7f7f7f" stroke="#7f7f7f" points="340.26,-597.45 342.87,-587.18 334.43,-593.58 340.26,-597.45"/>
<text text-anchor="middle" x="266.9" y="-669.62" font-family="monospace" font-size="10.00">uses</text>
</g>
<!-- lightning_fetcher::fetcher::FetcherInner::fetch_origin&#45;&gt;lightning_fetcher::origin::OriginRequest -->
<g id="edge36" class="edge">
<title>lightning_fetcher::fetcher::FetcherInner::fetch_origin&#45;&gt;lightning_fetcher::origin::OriginRequest</title>
<path fill="none" stroke="#7f7f7f" stroke-dasharray="5,2" d="M227.35,-758.82C248.48,-759.24 270.17,-759.67 290.11,-760.06"/>
<polygon fill="#7f7f7f" stroke="#7f7f7f" points="290.31,-763.56 300.37,-760.26 290.44,-756.57 290.31,-763.56"/>
<text text-anchor="middle" x="246.23" y="-762.44" font-family="monospace" font-size="10.00">uses</text>
</g>
<!-- lightning_fetcher::fetcher::FetcherInner::put&#45;&gt;lightning_fetcher::fetcher::FetcherInner -->
<g id="edge37" class="edge">
<title>lightning_fetcher::fetcher::FetcherInner::put&#45;&gt;lightning_fetcher::fetcher::FetcherInner</title>
<path fill="none" stroke="#7f7f7f" stroke-dasharray="5,2" d="M201.45,-639.66C246.43,-629.01 297.64,-610.46 325.71,-593.06"/>
<polygon fill="#7f7f7f" stroke="#7f7f7f" points="328,-595.74 334.3,-587.22 324.06,-589.95 328,-595.74"/>
<text text-anchor="middle" x="251.08" y="-619.36" font-family="monospace" font-size="10.00">uses</text>
</g>
<!-- lightning_fetcher::fetcher::FetcherInner::put&#45;&gt;lightning_fetcher::origin::OriginRequest -->
<g id="edge38" class="edge">
<title>lightning_fetcher::fetcher::FetcherInner::put&#45;&gt;lightning_fetcher::origin::OriginRequest</title>
<path fill="none" stroke="#7f7f7f" stroke-dasharray="5,2" d="M154.96,-658.55C200.27,-680.05 273.94,-715.02 322.73,-738.19"/>
<polygon fill="#7f7f7f" stroke="#7f7f7f" points="321.31,-741.38 331.84,-742.51 324.31,-735.06 321.31,-741.38"/>
<text text-anchor="middle" x="226.35" y="-701.37" font-family="monospace" font-size="10.00">uses</text>
</g>
<!-- lightning_fetcher::fetcher::FetcherInner::start&#45;&gt;lightning_fetcher::origin::OriginFetcher -->
<g id="edge39" class="edge">
<title>lightning_fetcher::fetcher::FetcherInner::start&#45;&gt;lightning_fetcher::origin::OriginFetcher</title>
<path fill="none" stroke="#7f7f7f" stroke-dasharray="5,2" d="M328.79,-875.95C351.95,-878.45 376.62,-881.11 399.22,-883.54"/>
<polygon fill="#7f7f7f" stroke="#7f7f7f" points="399.12,-887.05 409.44,-884.64 399.87,-880.09 399.12,-887.05"/>
<text text-anchor="middle" x="351.5" y="-882.75" font-family="monospace" font-size="10.00">uses</text>
</g>
<!-- lightning_fetcher::fetcher::FetcherInner::start&#45;&gt;lightning_fetcher::origin::OriginRequest -->
<g id="edge40" class="edge">
<title>lightning_fetcher::fetcher::FetcherInner::start&#45;&gt;lightning_fetcher::origin::OriginRequest</title>
<path fill="none" stroke="#7f7f7f" stroke-dasharray="5,2" d="M261.1,-846.84C283.06,-830.01 315.2,-805.38 339.27,-786.93"/>
<polygon fill="#7f7f7f" stroke="#7f7f7f" points="341.61,-789.55 347.42,-780.69 337.35,-783.99 341.61,-789.55"/>
<text text-anchor="middle" x="287.68" y="-819.89" font-family="monospace" font-size="10.00">uses</text>
</g>
<!-- lightning_fetcher::origin::OriginFetcher::new -->
<g id="node19" class="node">
<title>lightning_fetcher::origin::OriginFetcher::new</title>
<polygon fill="#81c169" stroke="black" points="199.68,-1049.24 199.68,-1087.24 372.68,-1087.24 372.68,-1049.24 199.68,-1049.24"/>
<text text-anchor="middle" x="286.18" y="-1075.24" font-family="monospace" font-size="10.00">pub fn</text>
<polyline fill="none" stroke="black" points="199.68,-1068.24 372.68,-1068.24 "/>
<text text-anchor="middle" x="286.18" y="-1056.24" font-family="monospace" font-size="10.00">origin::OriginFetcher::new</text>
</g>
<!-- lightning_fetcher::origin::OriginFetcher&#45;&gt;lightning_fetcher::origin::OriginFetcher::new -->
<g id="edge41" class="edge">
<title>lightning_fetcher::origin::OriginFetcher&#45;&gt;lightning_fetcher::origin::OriginFetcher::new</title>
<path fill="none" stroke="#000000" d="M426.88,-911.48C379.35,-943.58 315.73,-1003.61 292.81,-1040.36"/>
<polygon fill="#000000" stroke="#000000" points="289.71,-1038.73 287.89,-1049.17 295.82,-1042.14 289.71,-1038.73"/>
<text text-anchor="middle" x="347.34" y="-978.92" font-family="monospace" font-size="10.00">owns</text>
</g>
<!-- lightning_fetcher::origin::OriginFetcher::spawn -->
<g id="node20" class="node">
<title>lightning_fetcher::origin::OriginFetcher::spawn</title>
<polygon fill="#db5367" stroke="black" points="591.4,-1110.25 591.4,-1148.25 776.4,-1148.25 776.4,-1110.25 591.4,-1110.25"/>
<text text-anchor="middle" x="683.9" y="-1136.25" font-family="monospace" font-size="10.00">pub(self) async fn</text>
<polyline fill="none" stroke="black" points="591.4,-1129.25 776.4,-1129.25 "/>
<text text-anchor="middle" x="683.9" y="-1117.25" font-family="monospace" font-size="10.00">origin::OriginFetcher::spawn</text>
</g>
<!-- lightning_fetcher::origin::OriginFetcher&#45;&gt;lightning_fetcher::origin::OriginFetcher::spawn -->
<g id="edge42" class="edge">
<title>lightning_fetcher::origin::OriginFetcher&#45;&gt;lightning_fetcher::origin::OriginFetcher::spawn</title>
<path fill="none" stroke="#000000" d="M481.38,-911.47C497.22,-954.96 579.18,-1055.05 634.7,-1103.54"/>
<polygon fill="#000000" stroke="#000000" points="632.46,-1106.23 642.35,-1110.03 636.99,-1100.89 632.46,-1106.23"/>
<text text-anchor="middle" x="545.54" y="-1010.5" font-family="monospace" font-size="10.00">owns</text>
</g>
<!-- lightning_fetcher::origin::OriginFetcher::start -->
<g id="node21" class="node">
<title>lightning_fetcher::origin::OriginFetcher::start</title>
<polygon fill="#81c169" stroke="black" points="511.37,-944.06 511.37,-982.06 696.37,-982.06 696.37,-944.06 511.37,-944.06"/>
<text text-anchor="middle" x="603.87" y="-970.06" font-family="monospace" font-size="10.00">pub async fn</text>
<polyline fill="none" stroke="black" points="511.37,-963.06 696.37,-963.06 "/>
<text text-anchor="middle" x="603.87" y="-951.06" font-family="monospace" font-size="10.00">origin::OriginFetcher::start</text>
</g>
<!-- lightning_fetcher::origin::OriginFetcher&#45;&gt;lightning_fetcher::origin::OriginFetcher::start -->
<g id="edge43" class="edge">
<title>lightning_fetcher::origin::OriginFetcher&#45;&gt;lightning_fetcher::origin::OriginFetcher::start</title>
<path fill="none" stroke="#000000" d="M483.43,-911.71C488.49,-920.34 497.93,-929.62 509.41,-938.22"/>
<polygon fill="#000000" stroke="#000000" points="507.48,-941.14 517.66,-944.04 511.51,-935.42 507.48,-941.14"/>
<text text-anchor="middle" x="483.92" y="-927.97" font-family="monospace" font-size="10.00">owns</text>
</g>
<!-- lightning_fetcher::origin::OriginFetcher&#45;&gt;lightning_fetcher::origin::OriginRequest -->
<g id="edge44" class="edge">
<title>lightning_fetcher::origin::OriginFetcher&#45;&gt;lightning_fetcher::origin::OriginRequest</title>
<path fill="none" stroke="#7f7f7f" stroke-dasharray="5,2" d="M465.36,-873.37C446.71,-851.01 415.63,-813.74 394.55,-788.46"/>
<polygon fill="#7f7f7f" stroke="#7f7f7f" points="397.18,-786.14 388.08,-780.7 391.8,-790.63 397.18,-786.14"/>
<text text-anchor="middle" x="417.45" y="-833.91" font-family="monospace" font-size="10.00">uses</text>
</g>
<!-- lightning_fetcher::origin::OriginFetcher::new&#45;&gt;lightning_fetcher::origin::OriginFetcher -->
<g id="edge45" class="edge">
<title>lightning_fetcher::origin::OriginFetcher::new&#45;&gt;lightning_fetcher::origin::OriginFetcher</title>
<path fill="none" stroke="#7f7f7f" stroke-dasharray="5,2" d="M340.51,-1049.14C388.03,-1017.04 451.66,-957.01 474.58,-920.26"/>
<polygon fill="#7f7f7f" stroke="#7f7f7f" points="477.68,-921.89 479.49,-911.45 471.57,-918.48 477.68,-921.89"/>
<text text-anchor="middle" x="395.05" y="-987.7" font-family="monospace" font-size="10.00">uses</text>
</g>
<!-- lightning_fetcher::origin::OriginFetcher::new&#45;&gt;lightning_fetcher::origin::OriginRequest -->
<g id="edge46" class="edge">
<title>lightning_fetcher::origin::OriginFetcher::new&#45;&gt;lightning_fetcher::origin::OriginRequest</title>
<path fill="none" stroke="#7f7f7f" stroke-dasharray="5,2" d="M291.56,-1049.07C306.17,-997.02 346.62,-852.88 364.05,-790.77"/>
<polygon fill="#7f7f7f" stroke="#7f7f7f" points="367.5,-791.42 366.84,-780.85 360.76,-789.53 367.5,-791.42"/>
<text text-anchor="middle" x="315.31" y="-922.92" font-family="monospace" font-size="10.00">uses</text>
</g>
<!-- lightning_fetcher::origin::OriginFetcher::spawn&#45;&gt;lightning_fetcher::origin::ErrorResponse -->
<g id="edge47" class="edge">
<title>lightning_fetcher::origin::OriginFetcher::spawn&#45;&gt;lightning_fetcher::origin::ErrorResponse</title>
<path fill="none" stroke="#7f7f7f" stroke-dasharray="5,2" d="M693.64,-1110.18C717.15,-1064.13 777.13,-946.68 804.87,-892.38"/>
<polygon fill="#7f7f7f" stroke="#7f7f7f" points="808.07,-893.81 809.5,-883.31 801.83,-890.63 808.07,-893.81"/>
<text text-anchor="middle" x="736.75" y="-1004.28" font-family="monospace" font-size="10.00">uses</text>
</g>
<!-- lightning_fetcher::origin::OriginFetcher::spawn&#45;&gt;lightning_fetcher::origin::OriginFetcher -->
<g id="edge48" class="edge">
<title>lightning_fetcher::origin::OriginFetcher::spawn&#45;&gt;lightning_fetcher::origin::OriginFetcher</title>
<path fill="none" stroke="#7f7f7f" stroke-dasharray="5,2" d="M683.73,-1110.15C667.89,-1066.66 585.92,-966.57 530.41,-918.08"/>
<polygon fill="#7f7f7f" stroke="#7f7f7f" points="532.65,-915.39 522.76,-911.59 528.12,-920.73 532.65,-915.39"/>
<text text-anchor="middle" x="594.57" y="-1017.12" font-family="monospace" font-size="10.00">uses</text>
</g>
<!-- lightning_fetcher::origin::OriginFetcher::spawn&#45;&gt;lightning_fetcher::origin::SuccessResponse -->
<g id="edge49" class="edge">
<title>lightning_fetcher::origin::OriginFetcher::spawn&#45;&gt;lightning_fetcher::origin::SuccessResponse</title>
<path fill="none" stroke="#7f7f7f" stroke-dasharray="5,2" d="M692.94,-1109.99C710.3,-1073.04 748.34,-992.02 768.59,-948.9"/>
<polygon fill="#7f7f7f" stroke="#7f7f7f" points="771.78,-950.34 772.86,-939.8 765.44,-947.37 771.78,-950.34"/>
<text text-anchor="middle" x="718.27" y="-1032.45" font-family="monospace" font-size="10.00">uses</text>
</g>
<!-- lightning_fetcher::origin::OriginFetcher::start&#45;&gt;lightning_fetcher::origin::ErrorResponse -->
<g id="edge50" class="edge">
<title>lightning_fetcher::origin::OriginFetcher::start&#45;&gt;lightning_fetcher::origin::ErrorResponse</title>
<path fill="none" stroke="#7f7f7f" stroke-dasharray="5,2" d="M645.41,-943.97C680.58,-927.81 731.12,-904.59 768.67,-887.34"/>
<polygon fill="#7f7f7f" stroke="#7f7f7f" points="770.29,-890.44 777.91,-883.09 767.37,-884.08 770.29,-890.44"/>
<text text-anchor="middle" x="694.54" y="-918.66" font-family="monospace" font-size="10.00">uses</text>
</g>
<!-- lightning_fetcher::origin::OriginFetcher::start&#45;&gt;lightning_fetcher::origin::OriginError -->
<g id="edge51" class="edge">
<title>lightning_fetcher::origin::OriginFetcher::start&#45;&gt;lightning_fetcher::origin::OriginError</title>
<path fill="none" stroke="#7f7f7f" stroke-dasharray="5,2" d="M624.78,-943.87C667.95,-904.25 766.93,-813.41 815.86,-768.51"/>
<polygon fill="#7f7f7f" stroke="#7f7f7f" points="818.27,-771.05 823.27,-761.71 813.53,-765.89 818.27,-771.05"/>
<text text-anchor="middle" x="707.82" y="-859.19" font-family="monospace" font-size="10.00">uses</text>
</g>
<!-- lightning_fetcher::origin::OriginFetcher::start&#45;&gt;lightning_fetcher::origin::OriginFetcher -->
<g id="edge52" class="edge">
<title>lightning_fetcher::origin::OriginFetcher::start&#45;&gt;lightning_fetcher::origin::OriginFetcher</title>
<path fill="none" stroke="#7f7f7f" stroke-dasharray="5,2" d="M601.64,-943.72C594.64,-931.78 579.24,-918.58 561.65,-907.69"/>
<polygon fill="#7f7f7f" stroke="#7f7f7f" points="563.26,-904.58 552.86,-902.54 559.72,-910.62 563.26,-904.58"/>
<text text-anchor="middle" x="569.15" y="-928.7" font-family="monospace" font-size="10.00">uses</text>
</g>
<!-- lightning_fetcher::origin::OriginFetcher::start&#45;&gt;lightning_fetcher::origin::OriginRequest -->
<g id="edge53" class="edge">
<title>lightning_fetcher::origin::OriginFetcher::start&#45;&gt;lightning_fetcher::origin::OriginRequest</title>
<path fill="none" stroke="#7f7f7f" stroke-dasharray="5,2" d="M581.65,-943.75C539.8,-907.36 449.23,-828.63 402.09,-787.65"/>
<polygon fill="#7f7f7f" stroke="#7f7f7f" points="404.2,-784.85 394.36,-780.93 399.61,-790.13 404.2,-784.85"/>
<text text-anchor="middle" x="479.37" y="-857.7" font-family="monospace" font-size="10.00">uses</text>
</g>
<!-- lightning_fetcher::origin::OriginFetcher::start&#45;&gt;lightning_fetcher::origin::SuccessResponse -->
<g id="edge54" class="edge">
<title>lightning_fetcher::origin::OriginFetcher::start&#45;&gt;lightning_fetcher::origin::SuccessResponse</title>
<path fill="none" stroke="#7f7f7f" stroke-dasharray="5,2" d="M683.76,-944C687.29,-943.16 690.84,-942.31 694.38,-941.47"/>
<polygon fill="#7f7f7f" stroke="#7f7f7f" points="695.42,-944.82 704.34,-939.09 693.8,-938.01 695.42,-944.82"/>
<text text-anchor="middle" x="676.57" y="-934.74" font-family="monospace" font-size="10.00">uses</text>
</g>
</g>
</svg>
