<?xml version="1.0" encoding="UTF-8" standalone="no"?>
<!DOCTYPE svg PUBLIC "-//W3C//DTD SVG 1.1//EN"
 "http://www.w3.org/Graphics/SVG/1.1/DTD/svg11.dtd">
<!-- Generated by graphviz version 4.0.0 (0)
 -->
<!-- Pages: 1 -->
<svg width="453pt" height="544pt"
 viewBox="0.00 0.00 452.84 543.84" xmlns="http://www.w3.org/2000/svg" xmlns:xlink="http://www.w3.org/1999/xlink">
<g id="graph0" class="graph" transform="scale(1 1) rotate(0) translate(28.8 515.04)">
<polygon fill="white" stroke="transparent" points="-28.8,28.8 -28.8,-515.04 424.04,-515.04 424.04,28.8 -28.8,28.8"/>
<text text-anchor="middle" x="197.62" y="-453.44" font-family="Helvetica,sans-Serif" font-size="36.00">lightning_fetcher</text>
<!-- lightning_fetcher -->
<g id="node1" class="node">
<title>lightning_fetcher</title>
<polygon fill="#5397c8" stroke="black" points="88.53,-78.95 88.53,-116.95 207.53,-116.95 207.53,-78.95 88.53,-78.95"/>
<text text-anchor="middle" x="148.03" y="-104.95" font-family="monospace" font-size="10.00">crate</text>
<polyline fill="none" stroke="black" points="88.53,-97.95 207.53,-97.95 "/>
<text text-anchor="middle" x="148.03" y="-85.95" font-family="monospace" font-size="10.00">lightning_fetcher</text>
</g>
<!-- lightning_fetcher::config -->
<g id="node2" class="node">
<title>lightning_fetcher::config</title>
<polygon fill="#81c169" stroke="black" points="177.8,-0.5 177.8,-38.5 344.8,-38.5 344.8,-0.5 177.8,-0.5"/>
<text text-anchor="middle" x="261.3" y="-26.5" font-family="monospace" font-size="10.00">pub mod</text>
<polyline fill="none" stroke="black" points="177.8,-19.5 344.8,-19.5 "/>
<text text-anchor="middle" x="261.3" y="-7.5" font-family="monospace" font-size="10.00">lightning_fetcher::config</text>
</g>
<!-- lightning_fetcher&#45;&gt;lightning_fetcher::config -->
<g id="edge1" class="edge">
<title>lightning_fetcher&#45;&gt;lightning_fetcher::config</title>
<path fill="none" stroke="#000000" d="M175.74,-78.76C190.55,-68.5 208.97,-55.75 224.92,-44.7"/>
<polygon fill="#000000" stroke="#000000" points="227.26,-47.34 233.48,-38.77 223.27,-41.58 227.26,-47.34"/>
<text text-anchor="middle" x="187.83" y="-64.73" font-family="monospace" font-size="10.00">owns</text>
</g>
<!-- lightning_fetcher::fetcher -->
<g id="node3" class="node">
<title>lightning_fetcher::fetcher</title>
<polygon fill="#81c169" stroke="black" points="150.31,-146.27 150.31,-184.27 323.31,-184.27 323.31,-146.27 150.31,-146.27"/>
<text text-anchor="middle" x="236.81" y="-172.27" font-family="monospace" font-size="10.00">pub mod</text>
<polyline fill="none" stroke="black" points="150.31,-165.27 323.31,-165.27 "/>
<text text-anchor="middle" x="236.81" y="-153.27" font-family="monospace" font-size="10.00">lightning_fetcher::fetcher</text>
</g>
<!-- lightning_fetcher&#45;&gt;lightning_fetcher::fetcher -->
<g id="edge2" class="edge">
<title>lightning_fetcher&#45;&gt;lightning_fetcher::fetcher</title>
<path fill="none" stroke="#000000" d="M173.24,-117.06C182.61,-124.17 193.39,-132.35 203.39,-139.93"/>
<polygon fill="#000000" stroke="#000000" points="201.46,-142.86 211.55,-146.11 205.69,-137.28 201.46,-142.86"/>
<text text-anchor="middle" x="175.81" y="-131.49" font-family="monospace" font-size="10.00">owns</text>
</g>
<!-- lightning_fetcher::origin -->
<g id="node4" class="node">
<title>lightning_fetcher::origin</title>
<polygon fill="#f8c04c" stroke="black" points="101.22,-252.39 101.22,-290.39 268.22,-290.39 268.22,-252.39 101.22,-252.39"/>
<text text-anchor="middle" x="184.72" y="-278.39" font-family="monospace" font-size="10.00">pub(crate) mod</text>
<polyline fill="none" stroke="black" points="101.22,-271.39 268.22,-271.39 "/>
<text text-anchor="middle" x="184.72" y="-259.39" font-family="monospace" font-size="10.00">lightning_fetcher::origin</text>
</g>
<!-- lightning_fetcher&#45;&gt;lightning_fetcher::origin -->
<g id="edge3" class="edge">
<title>lightning_fetcher&#45;&gt;lightning_fetcher::origin</title>
<path fill="none" stroke="#000000" d="M152.1,-117.17C158.51,-147.47 171,-206.52 178.53,-242.11"/>
<polygon fill="#000000" stroke="#000000" points="175.2,-243.28 180.69,-252.34 182.05,-241.83 175.2,-243.28"/>
<text text-anchor="middle" x="152.81" y="-182.64" font-family="monospace" font-size="10.00">owns</text>
</g>
<!-- lightning_fetcher::fetcher&#45;&gt;lightning_fetcher::config -->
<g id="edge4" class="edge">
<title>lightning_fetcher::fetcher&#45;&gt;lightning_fetcher::config</title>
<path fill="none" stroke="#7f7f7f" stroke-dasharray="5,2" d="M240.01,-146.22C244.19,-121.33 251.55,-77.54 256.42,-48.52"/>
<polygon fill="#7f7f7f" stroke="#7f7f7f" points="259.89,-49 258.1,-38.56 252.99,-47.84 259.89,-49"/>
<text text-anchor="middle" x="235.72" y="-100.37" font-family="monospace" font-size="10.00">uses</text>
</g>
<!-- lightning_fetcher::fetcher&#45;&gt;lightning_fetcher::origin -->
<g id="edge5" class="edge">
<title>lightning_fetcher::fetcher&#45;&gt;lightning_fetcher::origin</title>
<path fill="none" stroke="#7f7f7f" stroke-dasharray="5,2" d="M200.12,-184.29C187.57,-200.62 177.37,-223.69 175.04,-242.26"/>
<polygon fill="#7f7f7f" stroke="#7f7f7f" points="171.54,-242.17 174.6,-252.31 178.53,-242.47 171.54,-242.17"/>
<text text-anchor="middle" x="175.08" y="-216.28" font-family="monospace" font-size="10.00">uses</text>
</g>
<!-- tokio::sync::mpsc -->
<g id="node6" class="node">
<title>tokio::sync::mpsc</title>
<polygon fill="#81c169" stroke="black" points="276.24,-248.8 276.24,-286.8 395.24,-286.8 395.24,-248.8 276.24,-248.8"/>
<text text-anchor="middle" x="335.74" y="-274.8" font-family="monospace" font-size="10.00">external mod</text>
<polyline fill="none" stroke="black" points="276.24,-267.8 395.24,-267.8 "/>
<text text-anchor="middle" x="335.74" y="-255.8" font-family="monospace" font-size="10.00">tokio::sync::mpsc</text>
</g>
<!-- lightning_fetcher::fetcher&#45;&gt;tokio::sync::mpsc -->
<g id="edge6" class="edge">
<title>lightning_fetcher::fetcher&#45;&gt;tokio::sync::mpsc</title>
<path fill="none" stroke="#7f7f7f" stroke-dasharray="5,2" d="M255.42,-184.56C270.89,-200.6 293.08,-223.59 310.21,-241.35"/>
<polygon fill="#7f7f7f" stroke="#7f7f7f" points="307.75,-243.83 317.21,-248.6 312.79,-238.97 307.75,-243.83"/>
<text text-anchor="middle" x="270.32" y="-215.95" font-family="monospace" font-size="10.00">uses</text>
</g>
<!-- tokio::sync::oneshot -->
<g id="node7" class="node">
<title>tokio::sync::oneshot</title>
<polygon fill="#81c169" stroke="black" points="0,-196.62 0,-234.62 137,-234.62 137,-196.62 0,-196.62"/>
<text text-anchor="middle" x="68.5" y="-222.62" font-family="monospace" font-size="10.00">external mod</text>
<polyline fill="none" stroke="black" points="0,-215.62 137,-215.62 "/>
<text text-anchor="middle" x="68.5" y="-203.62" font-family="monospace" font-size="10.00">tokio::sync::oneshot</text>
</g>
<!-- lightning_fetcher::fetcher&#45;&gt;tokio::sync::oneshot -->
<g id="edge7" class="edge">
<title>lightning_fetcher::fetcher&#45;&gt;tokio::sync::oneshot</title>
<path fill="none" stroke="#7f7f7f" stroke-dasharray="5,2" d="M173.18,-184.31C163.02,-187.35 152.44,-190.51 142.07,-193.61"/>
<polygon fill="#7f7f7f" stroke="#7f7f7f" points="140.8,-190.34 132.22,-196.56 142.8,-197.05 140.8,-190.34"/>
<text text-anchor="middle" x="170.13" y="-191.96" font-family="monospace" font-size="10.00">uses</text>
</g>
<!-- lightning_fetcher::origin&#45;&gt;lightning_fetcher::fetcher -->
<g id="edge8" class="edge">
<title>lightning_fetcher::origin&#45;&gt;lightning_fetcher::fetcher</title>
<path fill="none" stroke="#7f7f7f" stroke-dasharray="5,2" d="M221.41,-252.37C233.96,-236.04 244.16,-212.97 246.49,-194.4"/>
<polygon fill="#7f7f7f" stroke="#7f7f7f" points="249.99,-194.49 246.93,-184.35 243,-194.19 249.99,-194.49"/>
<text text-anchor="middle" x="221.45" y="-226.38" font-family="monospace" font-size="10.00">uses</text>
</g>
<!-- tokio::sync::broadcast -->
<g id="node5" class="node">
<title>tokio::sync::broadcast</title>
<polygon fill="#81c169" stroke="black" points="77.62,-399.74 77.62,-437.74 226.62,-437.74 226.62,-399.74 77.62,-399.74"/>
<text text-anchor="middle" x="152.12" y="-425.74" font-family="monospace" font-size="10.00">external mod</text>
<polyline fill="none" stroke="black" points="77.62,-418.74 226.62,-418.74 "/>
<text text-anchor="middle" x="152.12" y="-406.74" font-family="monospace" font-size="10.00">tokio::sync::broadcast</text>
</g>
<!-- lightning_fetcher::origin&#45;&gt;tokio::sync::broadcast -->
<g id="edge9" class="edge">
<title>lightning_fetcher::origin&#45;&gt;tokio::sync::broadcast</title>
<path fill="none" stroke="#7f7f7f" stroke-dasharray="5,2" d="M180.46,-290.65C174.89,-315.8 165.1,-360.07 158.61,-389.4"/>
<polygon fill="#7f7f7f" stroke="#7f7f7f" points="155.12,-388.95 156.38,-399.47 161.96,-390.46 155.12,-388.95"/>
<text text-anchor="middle" x="157.03" y="-343.03" font-family="monospace" font-size="10.00">uses</text>
</g>
<!-- lightning_fetcher::origin&#45;&gt;tokio::sync::mpsc -->
<g id="edge10" class="edge">
<title>lightning_fetcher::origin&#45;&gt;tokio::sync::mpsc</title>
<path fill="none" stroke="#7f7f7f" stroke-dasharray="5,2" d="M268.62,-269.39C268.77,-269.39 268.93,-269.39 269.08,-269.38"/>
<polygon fill="#7f7f7f" stroke="#7f7f7f" points="265.99,-272.96 275.91,-269.22 265.83,-265.96 265.99,-272.96"/>
<text text-anchor="middle" x="281.35" y="-272.39" font-family="monospace" font-size="10.00">uses</text>
</g>
<!-- lightning_fetcher::origin&#45;&gt;tokio::sync::oneshot -->
<g id="edge11" class="edge">
<title>lightning_fetcher::origin&#45;&gt;tokio::sync::oneshot</title>
<path fill="none" stroke="#7f7f7f" stroke-dasharray="5,2" d="M145.05,-252.35C136.17,-248.09 126.65,-243.52 117.45,-239.11"/>
<polygon fill="#7f7f7f" stroke="#7f7f7f" points="118.92,-235.93 108.39,-234.76 115.89,-242.24 118.92,-235.93"/>
<text text-anchor="middle" x="143.75" y="-237.73" font-family="monospace" font-size="10.00">uses</text>
</g>
</g>
</svg>
