<?xml version="1.0" encoding="UTF-8" standalone="no"?>
<!DOCTYPE svg PUBLIC "-//W3C//DTD SVG 1.1//EN"
 "http://www.w3.org/Graphics/SVG/1.1/DTD/svg11.dtd">
<!-- Generated by graphviz version 4.0.0 (0)
 -->
<!-- Pages: 1 -->
<svg width="445pt" height="349pt"
 viewBox="0.00 0.00 445.12 348.57" xmlns="http://www.w3.org/2000/svg" xmlns:xlink="http://www.w3.org/1999/xlink">
<g id="graph0" class="graph" transform="scale(1 1) rotate(0) translate(28.8 319.77)">
<polygon fill="white" stroke="transparent" points="-28.8,28.8 -28.8,-319.77 416.32,-319.77 416.32,28.8 -28.8,28.8"/>
<text text-anchor="middle" x="193.76" y="-258.17" font-family="Helvetica,sans-Serif" font-size="36.00">lightning_pinger</text>
<!-- lightning_metrics::histogram -->
<g id="node1" class="node">
<title>lightning_metrics::histogram</title>
<polygon fill="#81c169" stroke="black" points="0,-136.48 0,-174.48 185,-174.48 185,-136.48 0,-136.48"/>
<text text-anchor="middle" x="92.5" y="-162.48" font-family="monospace" font-size="10.00">external mod</text>
<polyline fill="none" stroke="black" points="0,-155.48 185,-155.48 "/>
<text text-anchor="middle" x="92.5" y="-143.48" font-family="monospace" font-size="10.00">lightning_metrics::histogram</text>
</g>
<!-- lightning_pinger -->
<g id="node2" class="node">
<title>lightning_pinger</title>
<polygon fill="#5397c8" stroke="black" points="193.02,-136.48 193.02,-174.48 306.02,-174.48 306.02,-136.48 193.02,-136.48"/>
<text text-anchor="middle" x="249.52" y="-162.48" font-family="monospace" font-size="10.00">crate</text>
<polyline fill="none" stroke="black" points="193.02,-155.48 306.02,-155.48 "/>
<text text-anchor="middle" x="249.52" y="-143.48" font-family="monospace" font-size="10.00">lightning_pinger</text>
</g>
<!-- lightning_pinger::config -->
<g id="node3" class="node">
<title>lightning_pinger::config</title>
<polygon fill="#81c169" stroke="black" points="208.27,-204.47 208.27,-242.47 369.27,-242.47 369.27,-204.47 208.27,-204.47"/>
<text text-anchor="middle" x="288.77" y="-230.47" font-family="monospace" font-size="10.00">pub mod</text>
<polyline fill="none" stroke="black" points="208.27,-223.47 369.27,-223.47 "/>
<text text-anchor="middle" x="288.77" y="-211.47" font-family="monospace" font-size="10.00">lightning_pinger::config</text>
</g>
<!-- lightning_pinger&#45;&gt;lightning_pinger::config -->
<g id="edge1" class="edge">
<title>lightning_pinger&#45;&gt;lightning_pinger::config</title>
<path fill="none" stroke="#000000" d="M238.19,-174.62C237.72,-181.12 239.15,-188.27 241.93,-195.14"/>
<polygon fill="#000000" stroke="#000000" points="238.89,-196.88 246.51,-204.24 245.14,-193.74 238.89,-196.88"/>
<text text-anchor="middle" x="227.56" y="-187.88" font-family="monospace" font-size="10.00">owns</text>
</g>
<!-- lightning_pinger&#45;&gt;lightning_pinger::config -->
<g id="edge2" class="edge">
<title>lightning_pinger&#45;&gt;lightning_pinger::config</title>
<path fill="none" stroke="#7f7f7f" stroke-dasharray="5,2" d="M291.82,-174.79C295.51,-180.86 298.2,-187.58 299.43,-194.13"/>
<polygon fill="#7f7f7f" stroke="#7f7f7f" points="295.94,-194.43 300.11,-204.17 302.93,-193.96 295.94,-194.43"/>
<text text-anchor="middle" x="283.13" y="-187.46" font-family="monospace" font-size="10.00">uses</text>
</g>
<!-- lightning_pinger::pinger -->
<g id="node4" class="node">
<title>lightning_pinger::pinger</title>
<polygon fill="#81c169" stroke="black" points="129.76,-68.49 129.76,-106.49 290.76,-106.49 290.76,-68.49 129.76,-68.49"/>
<text text-anchor="middle" x="210.26" y="-94.49" font-family="monospace" font-size="10.00">pub mod</text>
<polyline fill="none" stroke="black" points="129.76,-87.49 290.76,-87.49 "/>
<text text-anchor="middle" x="210.26" y="-75.49" font-family="monospace" font-size="10.00">lightning_pinger::pinger</text>
</g>
<!-- lightning_pinger&#45;&gt;lightning_pinger::pinger -->
<g id="edge3" class="edge">
<title>lightning_pinger&#45;&gt;lightning_pinger::pinger</title>
<path fill="none" stroke="#000000" d="M260.84,-136.34C261.31,-129.84 259.89,-122.68 257.1,-115.82"/>
<polygon fill="#000000" stroke="#000000" points="260.14,-114.07 252.52,-106.72 253.89,-117.22 260.14,-114.07"/>
<text text-anchor="middle" x="246.47" y="-118.08" font-family="monospace" font-size="10.00">owns</text>
</g>
<!-- lightning_pinger&#45;&gt;lightning_pinger::pinger -->
<g id="edge4" class="edge">
<title>lightning_pinger&#45;&gt;lightning_pinger::pinger</title>
<path fill="none" stroke="#7f7f7f" stroke-dasharray="5,2" d="M207.21,-136.17C203.53,-130.1 200.83,-123.38 199.6,-116.83"/>
<polygon fill="#7f7f7f" stroke="#7f7f7f" points="203.09,-116.53 198.93,-106.79 196.1,-117 203.09,-116.53"/>
<text text-anchor="middle" x="190.9" y="-118.5" font-family="monospace" font-size="10.00">uses</text>
</g>
<!-- lightning_pinger::pinger&#45;&gt;lightning_metrics::histogram -->
<g id="edge5" class="edge">
<title>lightning_pinger::pinger&#45;&gt;lightning_metrics::histogram</title>
<path fill="none" stroke="#7f7f7f" stroke-dasharray="5,2" d="M177.15,-106.61C163.98,-114.21 148.66,-123.05 134.71,-131.11"/>
<polygon fill="#7f7f7f" stroke="#7f7f7f" points="132.69,-128.24 125.78,-136.27 136.19,-134.3 132.69,-128.24"/>
<text text-anchor="middle" x="143.43" y="-121.86" font-family="monospace" font-size="10.00">uses</text>
</g>
<!-- lightning_pinger::pinger&#45;&gt;lightning_pinger::config -->
<g id="edge6" class="edge">
<title>lightning_pinger::pinger&#45;&gt;lightning_pinger::config</title>
<path fill="none" stroke="#7f7f7f" stroke-dasharray="5,2" d="M221.34,-106.68C234.73,-129.87 257.35,-169.05 272.66,-195.57"/>
<polygon fill="#7f7f7f" stroke="#7f7f7f" points="269.71,-197.46 277.74,-204.37 275.78,-193.96 269.71,-197.46"/>
<text text-anchor="middle" x="234.5" y="-154.13" font-family="monospace" font-size="10.00">uses</text>
</g>
<!-- tokio::sync::mpsc -->
<g id="node5" class="node">
<title>tokio::sync::mpsc</title>
<polygon fill="#81c169" stroke="black" points="268.52,-0.5 268.52,-38.5 387.52,-38.5 387.52,-0.5 268.52,-0.5"/>
<text text-anchor="middle" x="328.02" y="-26.5" font-family="monospace" font-size="10.00">external mod</text>
<polyline fill="none" stroke="black" points="268.52,-19.5 387.52,-19.5 "/>
<text text-anchor="middle" x="328.02" y="-7.5" font-family="monospace" font-size="10.00">tokio::sync::mpsc</text>
</g>
<!-- lightning_pinger::pinger&#45;&gt;tokio::sync::mpsc -->
<g id="edge7" class="edge">
<title>lightning_pinger::pinger&#45;&gt;tokio::sync::mpsc</title>
<path fill="none" stroke="#7f7f7f" stroke-dasharray="5,2" d="M243.38,-68.37C256.55,-60.77 271.86,-51.93 285.81,-43.87"/>
<polygon fill="#7f7f7f" stroke="#7f7f7f" points="287.84,-46.74 294.75,-38.71 284.34,-40.68 287.84,-46.74"/>
<text text-anchor="middle" x="252.1" y="-59.12" font-family="monospace" font-size="10.00">uses</text>
</g>
</g>
</svg>
