<?xml version="1.0" encoding="UTF-8" standalone="no"?>
<!DOCTYPE svg PUBLIC "-//W3C//DTD SVG 1.1//EN"
 "http://www.w3.org/Graphics/SVG/1.1/DTD/svg11.dtd">
<!-- Generated by graphviz version 4.0.0 (0)
 -->
<!-- Pages: 1 -->
<svg width="671pt" height="411pt"
 viewBox="0.00 0.00 670.85 411.08" xmlns="http://www.w3.org/2000/svg" xmlns:xlink="http://www.w3.org/1999/xlink">
<g id="graph0" class="graph" transform="scale(1 1) rotate(0) translate(28.8 382.28)">
<polygon fill="white" stroke="transparent" points="-28.8,28.8 -28.8,-382.28 642.05,-382.28 642.05,28.8 -28.8,28.8"/>
<text text-anchor="middle" x="306.63" y="-320.68" font-family="Helvetica,sans-Serif" font-size="36.00">better_shutdown</text>
<!-- better_shutdown -->
<g id="node1" class="node">
<title>better_shutdown</title>
<polygon fill="#5397c8" stroke="black" points="235.79,-92.92 235.79,-130.92 342.79,-130.92 342.79,-92.92 235.79,-92.92"/>
<text text-anchor="middle" x="289.29" y="-118.92" font-family="monospace" font-size="10.00">crate</text>
<polyline fill="none" stroke="black" points="235.79,-111.92 342.79,-111.92 "/>
<text text-anchor="middle" x="289.29" y="-99.92" font-family="monospace" font-size="10.00">better_shutdown</text>
</g>
<!-- better_shutdown::backtrace_list -->
<g id="node2" class="node">
<title>better_shutdown::backtrace_list</title>
<polygon fill="#f8c04c" stroke="black" points="52.39,-0.5 52.39,-38.5 255.39,-38.5 255.39,-0.5 52.39,-0.5"/>
<text text-anchor="middle" x="153.89" y="-26.5" font-family="monospace" font-size="10.00">pub(crate) mod</text>
<polyline fill="none" stroke="black" points="52.39,-19.5 255.39,-19.5 "/>
<text text-anchor="middle" x="153.89" y="-7.5" font-family="monospace" font-size="10.00">better_shutdown::backtrace_list</text>
</g>
<!-- better_shutdown&#45;&gt;better_shutdown::backtrace_list -->
<g id="edge1" class="edge">
<title>better_shutdown&#45;&gt;better_shutdown::backtrace_list</title>
<path fill="none" stroke="#000000" d="M287.77,-92.77C279.92,-77.87 260.17,-59.53 238.05,-44.26"/>
<polygon fill="#000000" stroke="#000000" points="239.75,-41.18 229.48,-38.57 235.88,-47.02 239.75,-41.18"/>
<text text-anchor="middle" x="250.41" y="-71.51" font-family="monospace" font-size="10.00">owns</text>
</g>
<!-- better_shutdown&#45;&gt;better_shutdown::backtrace_list -->
<g id="edge2" class="edge">
<title>better_shutdown&#45;&gt;better_shutdown::backtrace_list</title>
<path fill="none" stroke="#7f7f7f" stroke-dasharray="5,2" d="M235.78,-105.42C207.41,-91.25 175.85,-67.3 160.78,-47.03"/>
<polygon fill="#7f7f7f" stroke="#7f7f7f" points="163.73,-45.14 155.39,-38.6 157.83,-48.91 163.73,-45.14"/>
<text text-anchor="middle" x="185.78" y="-79.23" font-family="monospace" font-size="10.00">uses</text>
</g>
<!-- better_shutdown::completion_fut -->
<g id="node3" class="node">
<title>better_shutdown::completion_fut</title>
<polygon fill="#f8c04c" stroke="black" points="0,-135.22 0,-173.22 203,-173.22 203,-135.22 0,-135.22"/>
<text text-anchor="middle" x="101.5" y="-161.22" font-family="monospace" font-size="10.00">pub(crate) mod</text>
<polyline fill="none" stroke="black" points="0,-154.22 203,-154.22 "/>
<text text-anchor="middle" x="101.5" y="-142.22" font-family="monospace" font-size="10.00">better_shutdown::completion_fut</text>
</g>
<!-- better_shutdown&#45;&gt;better_shutdown::completion_fut -->
<g id="edge3" class="edge">
<title>better_shutdown&#45;&gt;better_shutdown::completion_fut</title>
<path fill="none" stroke="#000000" d="M235.67,-99.44C198.15,-102.49 150.12,-114.93 122.81,-129.73"/>
<polygon fill="#000000" stroke="#000000" points="120.79,-126.86 114.07,-135.05 124.43,-132.84 120.79,-126.86"/>
<text text-anchor="middle" x="166.74" y="-117.59" font-family="monospace" font-size="10.00">owns</text>
</g>
<!-- better_shutdown&#45;&gt;better_shutdown::completion_fut -->
<g id="edge4" class="edge">
<title>better_shutdown&#45;&gt;better_shutdown::completion_fut</title>
<path fill="none" stroke="#7f7f7f" stroke-dasharray="5,2" d="M276.78,-131.05C262.78,-140.79 238.83,-149.91 213.05,-156.57"/>
<polygon fill="#7f7f7f" stroke="#7f7f7f" points="211.98,-153.23 203.1,-159.01 213.64,-160.03 211.98,-153.23"/>
<text text-anchor="middle" x="232.42" y="-146.81" font-family="monospace" font-size="10.00">uses</text>
</g>
<!-- better_shutdown::controller -->
<g id="node4" class="node">
<title>better_shutdown::controller</title>
<polygon fill="#f8c04c" stroke="black" points="94.36,-266.98 94.36,-304.98 273.36,-304.98 273.36,-266.98 94.36,-266.98"/>
<text text-anchor="middle" x="183.86" y="-292.98" font-family="monospace" font-size="10.00">pub(crate) mod</text>
<polyline fill="none" stroke="black" points="94.36,-285.98 273.36,-285.98 "/>
<text text-anchor="middle" x="183.86" y="-273.98" font-family="monospace" font-size="10.00">better_shutdown::controller</text>
</g>
<!-- better_shutdown&#45;&gt;better_shutdown::controller -->
<g id="edge5" class="edge">
<title>better_shutdown&#45;&gt;better_shutdown::controller</title>
<path fill="none" stroke="#000000" d="M253.23,-130.97C224.03,-161.9 189.56,-220.77 180.53,-256.86"/>
<polygon fill="#000000" stroke="#000000" points="177.07,-256.36 178.63,-266.84 183.94,-257.67 177.07,-256.36"/>
<text text-anchor="middle" x="204.38" y="-196.92" font-family="monospace" font-size="10.00">owns</text>
</g>
<!-- better_shutdown&#45;&gt;better_shutdown::controller -->
<g id="edge6" class="edge">
<title>better_shutdown&#45;&gt;better_shutdown::controller</title>
<path fill="none" stroke="#7f7f7f" stroke-dasharray="5,2" d="M294.51,-131.06C290.74,-162.77 257.35,-223.37 226.93,-259.08"/>
<polygon fill="#7f7f7f" stroke="#7f7f7f" points="224.14,-256.95 220.09,-266.74 229.36,-261.61 224.14,-256.95"/>
<text text-anchor="middle" x="248.22" y="-187.07" font-family="monospace" font-size="10.00">uses</text>
</g>
<!-- better_shutdown::shared -->
<g id="node5" class="node">
<title>better_shutdown::shared</title>
<polygon fill="#f8c04c" stroke="black" points="230.3,-186.02 230.3,-224.02 385.3,-224.02 385.3,-186.02 230.3,-186.02"/>
<text text-anchor="middle" x="307.8" y="-212.02" font-family="monospace" font-size="10.00">pub(crate) mod</text>
<polyline fill="none" stroke="black" points="230.3,-205.02 385.3,-205.02 "/>
<text text-anchor="middle" x="307.8" y="-193.02" font-family="monospace" font-size="10.00">better_shutdown::shared</text>
</g>
<!-- better_shutdown&#45;&gt;better_shutdown::shared -->
<g id="edge7" class="edge">
<title>better_shutdown&#45;&gt;better_shutdown::shared</title>
<path fill="none" stroke="#000000" d="M293.13,-131.21C295.68,-144.07 299.09,-161.21 301.98,-175.74"/>
<polygon fill="#000000" stroke="#000000" points="298.59,-176.63 303.97,-185.75 305.45,-175.26 298.59,-176.63"/>
<text text-anchor="middle" x="285.05" y="-156.47" font-family="monospace" font-size="10.00">owns</text>
</g>
<!-- better_shutdown::signal_fut -->
<g id="node6" class="node">
<title>better_shutdown::signal_fut</title>
<polygon fill="#f8c04c" stroke="black" points="434.25,-82.37 434.25,-120.37 613.25,-120.37 613.25,-82.37 434.25,-82.37"/>
<text text-anchor="middle" x="523.75" y="-108.37" font-family="monospace" font-size="10.00">pub(crate) mod</text>
<polyline fill="none" stroke="black" points="434.25,-101.37 613.25,-101.37 "/>
<text text-anchor="middle" x="523.75" y="-89.37" font-family="monospace" font-size="10.00">better_shutdown::signal_fut</text>
</g>
<!-- better_shutdown&#45;&gt;better_shutdown::signal_fut -->
<g id="edge8" class="edge">
<title>better_shutdown&#45;&gt;better_shutdown::signal_fut</title>
<path fill="none" stroke="#000000" d="M329.74,-130.94C374.46,-137.38 445.79,-133.96 488.37,-123.16"/>
<polygon fill="#000000" stroke="#000000" points="489.36,-126.52 498.03,-120.42 487.45,-119.78 489.36,-126.52"/>
<text text-anchor="middle" x="396.55" y="-130.05" font-family="monospace" font-size="10.00">owns</text>
</g>
<!-- better_shutdown&#45;&gt;better_shutdown::signal_fut -->
<g id="edge9" class="edge">
<title>better_shutdown&#45;&gt;better_shutdown::signal_fut</title>
<path fill="none" stroke="#7f7f7f" stroke-dasharray="5,2" d="M314.93,-92.89C352.81,-80.81 424.5,-76.03 473.19,-81.1"/>
<polygon fill="#7f7f7f" stroke="#7f7f7f" points="472.86,-84.59 483.21,-82.34 473.72,-77.64 472.86,-84.59"/>
<text text-anchor="middle" x="381.56" y="-90" font-family="monospace" font-size="10.00">uses</text>
</g>
<!-- better_shutdown::wait_list -->
<g id="node7" class="node">
<title>better_shutdown::wait_list</title>
<polygon fill="#f8c04c" stroke="black" points="263.41,-1.19 263.41,-39.19 436.41,-39.19 436.41,-1.19 263.41,-1.19"/>
<text text-anchor="middle" x="349.91" y="-27.19" font-family="monospace" font-size="10.00">pub(crate) mod</text>
<polyline fill="none" stroke="black" points="263.41,-20.19 436.41,-20.19 "/>
<text text-anchor="middle" x="349.91" y="-8.19" font-family="monospace" font-size="10.00">better_shutdown::wait_list</text>
</g>
<!-- better_shutdown&#45;&gt;better_shutdown::wait_list -->
<g id="edge10" class="edge">
<title>better_shutdown&#45;&gt;better_shutdown::wait_list</title>
<path fill="none" stroke="#000000" d="M301.85,-92.91C310.41,-79.96 321.88,-62.6 331.47,-48.09"/>
<polygon fill="#000000" stroke="#000000" points="334.57,-49.76 337.16,-39.48 328.73,-45.9 334.57,-49.76"/>
<text text-anchor="middle" x="304.16" y="-73.5" font-family="monospace" font-size="10.00">owns</text>
</g>
<!-- better_shutdown::waiter -->
<g id="node8" class="node">
<title>better_shutdown::waiter</title>
<polygon fill="#f8c04c" stroke="black" points="359.78,-235.87 359.78,-273.87 514.78,-273.87 514.78,-235.87 359.78,-235.87"/>
<text text-anchor="middle" x="437.28" y="-261.87" font-family="monospace" font-size="10.00">pub(crate) mod</text>
<polyline fill="none" stroke="black" points="359.78,-254.87 514.78,-254.87 "/>
<text text-anchor="middle" x="437.28" y="-242.87" font-family="monospace" font-size="10.00">better_shutdown::waiter</text>
</g>
<!-- better_shutdown&#45;&gt;better_shutdown::waiter -->
<g id="edge11" class="edge">
<title>better_shutdown&#45;&gt;better_shutdown::waiter</title>
<path fill="none" stroke="#000000" d="M288.98,-131.21C299.23,-157.75 338.9,-201.14 375.12,-229.63"/>
<polygon fill="#000000" stroke="#000000" points="373.19,-232.56 383.27,-235.83 377.43,-226.99 373.19,-232.56"/>
<text text-anchor="middle" x="319.55" y="-172.42" font-family="monospace" font-size="10.00">owns</text>
</g>
<!-- better_shutdown&#45;&gt;better_shutdown::waiter -->
<g id="edge12" class="edge">
<title>better_shutdown&#45;&gt;better_shutdown::waiter</title>
<path fill="none" stroke="#7f7f7f" stroke-dasharray="5,2" d="M343.18,-130.87C377.48,-156.01 417.37,-197.35 433.16,-226.21"/>
<polygon fill="#7f7f7f" stroke="#7f7f7f" points="430.11,-227.95 437.55,-235.49 436.44,-224.95 430.11,-227.95"/>
<text text-anchor="middle" x="375.67" y="-170.54" font-family="monospace" font-size="10.00">uses</text>
</g>
<!-- better_shutdown::completion_fut&#45;&gt;better_shutdown::shared -->
<g id="edge13" class="edge">
<title>better_shutdown::completion_fut&#45;&gt;better_shutdown::shared</title>
<path fill="none" stroke="#7f7f7f" stroke-dasharray="5,2" d="M178.9,-173.28C192.43,-176.61 206.58,-180.1 220.36,-183.49"/>
<polygon fill="#7f7f7f" stroke="#7f7f7f" points="219.76,-186.95 230.3,-185.94 221.43,-180.15 219.76,-186.95"/>
<text text-anchor="middle" x="187.13" y="-181.39" font-family="monospace" font-size="10.00">uses</text>
</g>
<!-- better_shutdown::completion_fut&#45;&gt;better_shutdown::wait_list -->
<g id="edge14" class="edge">
<title>better_shutdown::completion_fut&#45;&gt;better_shutdown::wait_list</title>
<path fill="none" stroke="#7f7f7f" stroke-dasharray="5,2" d="M136.83,-135.16C181.12,-111.26 257.09,-70.27 305.34,-44.24"/>
<polygon fill="#7f7f7f" stroke="#7f7f7f" points="307.17,-47.23 314.3,-39.4 303.84,-41.07 307.17,-47.23"/>
<text text-anchor="middle" x="208.58" y="-92.7" font-family="monospace" font-size="10.00">uses</text>
</g>
<!-- better_shutdown::controller&#45;&gt;better_shutdown::backtrace_list -->
<g id="edge15" class="edge">
<title>better_shutdown::controller&#45;&gt;better_shutdown::backtrace_list</title>
<path fill="none" stroke="#7f7f7f" stroke-dasharray="5,2" d="M181.7,-266.81C176.53,-220.83 163.39,-103.99 157.21,-48.99"/>
<polygon fill="#7f7f7f" stroke="#7f7f7f" points="160.66,-48.4 156.07,-38.85 153.71,-49.18 160.66,-48.4"/>
<text text-anchor="middle" x="156.95" y="-160.9" font-family="monospace" font-size="10.00">uses</text>
</g>
<!-- better_shutdown::controller&#45;&gt;better_shutdown::completion_fut -->
<g id="edge16" class="edge">
<title>better_shutdown::controller&#45;&gt;better_shutdown::completion_fut</title>
<path fill="none" stroke="#7f7f7f" stroke-dasharray="5,2" d="M171.88,-266.82C157.91,-244.47 134.71,-207.35 118.79,-181.88"/>
<polygon fill="#7f7f7f" stroke="#7f7f7f" points="121.76,-180.03 113.49,-173.4 115.82,-183.74 121.76,-180.03"/>
<text text-anchor="middle" x="132.84" y="-227.35" font-family="monospace" font-size="10.00">uses</text>
</g>
<!-- better_shutdown::controller&#45;&gt;better_shutdown::shared -->
<g id="edge17" class="edge">
<title>better_shutdown::controller&#45;&gt;better_shutdown::shared</title>
<path fill="none" stroke="#7f7f7f" stroke-dasharray="5,2" d="M213.23,-266.79C230.21,-255.7 251.75,-241.63 269.98,-229.72"/>
<polygon fill="#7f7f7f" stroke="#7f7f7f" points="272.18,-232.47 278.64,-224.07 268.35,-226.61 272.18,-232.47"/>
<text text-anchor="middle" x="229.11" y="-251.26" font-family="monospace" font-size="10.00">uses</text>
</g>
<!-- better_shutdown::controller&#45;&gt;better_shutdown::waiter -->
<g id="edge18" class="edge">
<title>better_shutdown::controller&#45;&gt;better_shutdown::waiter</title>
<path fill="none" stroke="#7f7f7f" stroke-dasharray="5,2" d="M273.56,-274.97C298.21,-271.94 324.92,-268.66 349.46,-265.65"/>
<polygon fill="#7f7f7f" stroke="#7f7f7f" points="349.97,-269.11 359.47,-264.42 349.12,-262.17 349.97,-269.11"/>
<text text-anchor="middle" x="299.01" y="-273.31" font-family="monospace" font-size="10.00">uses</text>
</g>
<!-- better_shutdown::shared&#45;&gt;better_shutdown::backtrace_list -->
<g id="edge19" class="edge">
<title>better_shutdown::shared&#45;&gt;better_shutdown::backtrace_list</title>
<path fill="none" stroke="#7f7f7f" stroke-dasharray="5,2" d="M291.91,-185.87C264.42,-152.73 207.91,-84.62 176.4,-46.63"/>
<polygon fill="#7f7f7f" stroke="#7f7f7f" points="178.78,-44.01 169.7,-38.55 173.39,-48.48 178.78,-44.01"/>
<text text-anchor="middle" x="221.65" y="-119.25" font-family="monospace" font-size="10.00">uses</text>
</g>
<!-- better_shutdown::shared&#45;&gt;better_shutdown::wait_list -->
<g id="edge20" class="edge">
<title>better_shutdown::shared&#45;&gt;better_shutdown::wait_list</title>
<path fill="none" stroke="#7f7f7f" stroke-dasharray="5,2" d="M312.15,-185.94C319.52,-153.56 334.53,-87.68 343.25,-49.44"/>
<polygon fill="#7f7f7f" stroke="#7f7f7f" points="346.72,-49.97 345.52,-39.44 339.89,-48.42 346.72,-49.97"/>
<text text-anchor="middle" x="340.2" y="-120.69" font-family="monospace" font-size="10.00">uses</text>
</g>
<!-- better_shutdown::signal_fut&#45;&gt;better_shutdown::shared -->
<g id="edge21" class="edge">
<title>better_shutdown::signal_fut&#45;&gt;better_shutdown::shared</title>
<path fill="none" stroke="#7f7f7f" stroke-dasharray="5,2" d="M484.14,-120.38C448.34,-137.57 395.48,-162.93 356.98,-181.41"/>
<polygon fill="#7f7f7f" stroke="#7f7f7f" points="355.02,-178.47 347.52,-185.96 358.05,-184.78 355.02,-178.47"/>
<text text-anchor="middle" x="408.06" y="-153.9" font-family="monospace" font-size="10.00">uses</text>
</g>
<!-- better_shutdown::signal_fut&#45;&gt;better_shutdown::wait_list -->
<g id="edge22" class="edge">
<title>better_shutdown::signal_fut&#45;&gt;better_shutdown::wait_list</title>
<path fill="none" stroke="#7f7f7f" stroke-dasharray="5,2" d="M483,-82.34C458.13,-70.72 426.16,-55.79 399.79,-43.48"/>
<polygon fill="#7f7f7f" stroke="#7f7f7f" points="401.26,-40.3 390.72,-39.24 398.3,-46.64 401.26,-40.3"/>
<text text-anchor="middle" x="428.89" y="-65.91" font-family="monospace" font-size="10.00">uses</text>
</g>
<!-- better_shutdown::wait_list&#45;&gt;better_shutdown::backtrace_list -->
<g id="edge23" class="edge">
<title>better_shutdown::wait_list&#45;&gt;better_shutdown::backtrace_list</title>
<path fill="none" stroke="#7f7f7f" stroke-dasharray="5,2" d="M263.36,-19.88C263.2,-19.88 263.04,-19.88 262.88,-19.88"/>
<polygon fill="#7f7f7f" stroke="#7f7f7f" points="265.66,-16.39 255.65,-19.86 265.64,-23.39 265.66,-16.39"/>
<text text-anchor="middle" x="250.62" y="-22.88" font-family="monospace" font-size="10.00">uses</text>
</g>
<!-- better_shutdown::waiter&#45;&gt;better_shutdown::shared -->
<g id="edge24" class="edge">
<title>better_shutdown::waiter&#45;&gt;better_shutdown::shared</title>
<path fill="none" stroke="#7f7f7f" stroke-dasharray="5,2" d="M387.59,-235.74C380.82,-233.14 373.82,-230.44 366.91,-227.78"/>
<polygon fill="#7f7f7f" stroke="#7f7f7f" points="368.16,-224.51 357.57,-224.18 365.64,-231.04 368.16,-224.51"/>
<text text-anchor="middle" x="389.75" y="-223.76" font-family="monospace" font-size="10.00">uses</text>
</g>
<!-- better_shutdown::waiter&#45;&gt;better_shutdown::signal_fut -->
<g id="edge25" class="edge">
<title>better_shutdown::waiter&#45;&gt;better_shutdown::signal_fut</title>
<path fill="none" stroke="#7f7f7f" stroke-dasharray="5,2" d="M448.06,-235.74C463.07,-209.08 490.4,-160.57 507.79,-129.71"/>
<polygon fill="#7f7f7f" stroke="#7f7f7f" points="510.98,-131.17 512.84,-120.74 504.88,-127.74 510.98,-131.17"/>
<text text-anchor="middle" x="465.42" y="-185.73" font-family="monospace" font-size="10.00">uses</text>
</g>
<!-- better_shutdown::waiter&#45;&gt;better_shutdown::wait_list -->
<g id="edge26" class="edge">
<title>better_shutdown::waiter&#45;&gt;better_shutdown::wait_list</title>
<path fill="none" stroke="#7f7f7f" stroke-dasharray="5,2" d="M430.13,-235.67C414.8,-194.48 378.68,-97.47 360.61,-48.92"/>
<polygon fill="#7f7f7f" stroke="#7f7f7f" points="363.81,-47.48 357.04,-39.33 357.25,-49.92 363.81,-47.48"/>
<text text-anchor="middle" x="382.87" y="-145.29" font-family="monospace" font-size="10.00">uses</text>
</g>
</g>
</svg>
