<?xml version="1.0" encoding="UTF-8" standalone="no"?>
<!DOCTYPE svg PUBLIC "-//W3C//DTD SVG 1.1//EN"
 "http://www.w3.org/Graphics/SVG/1.1/DTD/svg11.dtd">
<!-- Generated by graphviz version 4.0.0 (0)
 -->
<!-- Pages: 1 -->
<svg width="528pt" height="324pt"
 viewBox="0.00 0.00 527.60 323.73" xmlns="http://www.w3.org/2000/svg" xmlns:xlink="http://www.w3.org/1999/xlink">
<g id="graph0" class="graph" transform="scale(1 1) rotate(0) translate(36.8 294.93)">
<polygon fill="white" stroke="transparent" points="-36.8,28.8 -36.8,-294.93 490.8,-294.93 490.8,28.8 -36.8,28.8"/>
<text text-anchor="middle" x="227" y="-233.33" font-family="Helvetica,sans-Serif" font-size="36.00">lightning_origin_demuxer</text>
<!-- lightning_origin_demuxer -->
<g id="node1" class="node">
<title>lightning_origin_demuxer</title>
<polygon fill="#5397c8" stroke="black" points="37.65,-169.02 37.65,-207.02 198.65,-207.02 198.65,-169.02 37.65,-169.02"/>
<text text-anchor="middle" x="118.15" y="-195.02" font-family="monospace" font-size="10.00">crate</text>
<polyline fill="none" stroke="black" points="37.65,-188.02 198.65,-188.02 "/>
<text text-anchor="middle" x="118.15" y="-176.02" font-family="monospace" font-size="10.00">lightning_origin_demuxer</text>
</g>
<!-- lightning_origin_demuxer::config -->
<g id="node2" class="node">
<title>lightning_origin_demuxer::config</title>
<polygon fill="#f8c04c" stroke="black" points="206.67,-166.51 206.67,-204.51 415.67,-204.51 415.67,-166.51 206.67,-166.51"/>
<text text-anchor="middle" x="311.17" y="-192.51" font-family="monospace" font-size="10.00">pub(crate) mod</text>
<polyline fill="none" stroke="black" points="206.67,-185.51 415.67,-185.51 "/>
<text text-anchor="middle" x="311.17" y="-173.51" font-family="monospace" font-size="10.00">lightning_origin_demuxer::config</text>
</g>
<!-- lightning_origin_demuxer&#45;&gt;lightning_origin_demuxer::config -->
<g id="edge1" class="edge">
<title>lightning_origin_demuxer&#45;&gt;lightning_origin_demuxer::config</title>
<path fill="none" stroke="#000000" d="M145.24,-207.05C179.73,-216.09 239.36,-215.94 276.95,-207.22"/>
<polygon fill="#000000" stroke="#000000" points="278.19,-210.51 286.94,-204.53 276.37,-203.75 278.19,-210.51"/>
<text text-anchor="middle" x="198.6" y="-210.13" font-family="monospace" font-size="10.00">owns</text>
</g>
<!-- lightning_origin_demuxer&#45;&gt;lightning_origin_demuxer::config -->
<g id="edge2" class="edge">
<title>lightning_origin_demuxer&#45;&gt;lightning_origin_demuxer::config</title>
<path fill="none" stroke="#7f7f7f" stroke-dasharray="5,2" d="M142.35,-169.01C175.47,-158.64 235.2,-156.84 274.01,-164.23"/>
<polygon fill="#7f7f7f" stroke="#7f7f7f" points="273.36,-167.67 283.88,-166.43 274.88,-160.84 273.36,-167.67"/>
<text text-anchor="middle" x="195.68" y="-158.62" font-family="monospace" font-size="10.00">uses</text>
</g>
<!-- lightning_origin_demuxer::demuxer -->
<g id="node3" class="node">
<title>lightning_origin_demuxer::demuxer</title>
<polygon fill="#f8c04c" stroke="black" points="104.99,-0.6 104.99,-38.6 319.99,-38.6 319.99,-0.6 104.99,-0.6"/>
<text text-anchor="middle" x="212.49" y="-26.6" font-family="monospace" font-size="10.00">pub(crate) mod</text>
<polyline fill="none" stroke="black" points="104.99,-19.6 319.99,-19.6 "/>
<text text-anchor="middle" x="212.49" y="-7.6" font-family="monospace" font-size="10.00">lightning_origin_demuxer::demuxer</text>
</g>
<!-- lightning_origin_demuxer&#45;&gt;lightning_origin_demuxer::demuxer -->
<g id="edge3" class="edge">
<title>lightning_origin_demuxer&#45;&gt;lightning_origin_demuxer::demuxer</title>
<path fill="none" stroke="#000000" d="M152.96,-168.98C179.69,-139.18 209.86,-83.41 217.15,-48.67"/>
<polygon fill="#000000" stroke="#000000" points="220.64,-49.02 218.65,-38.61 213.71,-47.98 220.64,-49.02"/>
<text text-anchor="middle" x="172.56" y="-111.82" font-family="monospace" font-size="10.00">owns</text>
</g>
<!-- lightning_origin_demuxer&#45;&gt;lightning_origin_demuxer::demuxer -->
<g id="edge4" class="edge">
<title>lightning_origin_demuxer&#45;&gt;lightning_origin_demuxer::demuxer</title>
<path fill="none" stroke="#7f7f7f" stroke-dasharray="5,2" d="M111.98,-169.01C114.31,-138.53 143.24,-81.15 170.89,-46.67"/>
<polygon fill="#7f7f7f" stroke="#7f7f7f" points="173.72,-48.74 177.5,-38.84 168.37,-44.22 173.72,-48.74"/>
<text text-anchor="middle" x="128.94" y="-110.84" font-family="monospace" font-size="10.00">uses</text>
</g>
<!-- lightning_origin_demuxer::demuxer&#45;&gt;lightning_origin_demuxer::config -->
<g id="edge5" class="edge">
<title>lightning_origin_demuxer::demuxer&#45;&gt;lightning_origin_demuxer::config</title>
<path fill="none" stroke="#7f7f7f" stroke-dasharray="5,2" d="M223.81,-38.64C241.16,-67.81 274.43,-123.75 294.53,-157.54"/>
<polygon fill="#7f7f7f" stroke="#7f7f7f" points="291.71,-159.64 299.83,-166.44 297.72,-156.06 291.71,-159.64"/>
<text text-anchor="middle" x="246.67" y="-101.09" font-family="monospace" font-size="10.00">uses</text>
</g>
</g>
</svg>
