<?xml version="1.0" encoding="UTF-8" standalone="no"?>
<!DOCTYPE svg PUBLIC "-//W3C//DTD SVG 1.1//EN"
 "http://www.w3.org/Graphics/SVG/1.1/DTD/svg11.dtd">
<!-- Generated by graphviz version 4.0.0 (0)
 -->
<!-- Pages: 1 -->
<svg width="870pt" height="682pt"
 viewBox="0.00 0.00 869.52 682.40" xmlns="http://www.w3.org/2000/svg" xmlns:xlink="http://www.w3.org/1999/xlink">
<g id="graph0" class="graph" transform="scale(1 1) rotate(0) translate(28.8 653.6)">
<polygon fill="white" stroke="transparent" points="-28.8,28.8 -28.8,-653.6 840.72,-653.6 840.72,28.8 -28.8,28.8"/>
<text text-anchor="middle" x="405.96" y="-592" font-family="Helvetica,sans-Serif" font-size="36.00">lightning_rep_collector</text>
<!-- fdi -->
<g id="node1" class="node">
<title>fdi</title>
<polygon fill="#5397c8" stroke="black" points="55.48,-516.63 55.48,-554.63 156.48,-554.63 156.48,-516.63 55.48,-516.63"/>
<text text-anchor="middle" x="105.98" y="-542.63" font-family="monospace" font-size="10.00">external crate</text>
<polyline fill="none" stroke="black" points="55.48,-535.63 156.48,-535.63 "/>
<text text-anchor="middle" x="105.98" y="-523.63" font-family="monospace" font-size="10.00">fdi</text>
</g>
<!-- lightning_rep_collector -->
<g id="node2" class="node">
<title>lightning_rep_collector</title>
<polygon fill="#5397c8" stroke="black" points="168.81,-246.66 168.81,-284.66 323.81,-284.66 323.81,-246.66 168.81,-246.66"/>
<text text-anchor="middle" x="246.31" y="-272.66" font-family="monospace" font-size="10.00">crate</text>
<polyline fill="none" stroke="black" points="168.81,-265.66 323.81,-265.66 "/>
<text text-anchor="middle" x="246.31" y="-253.66" font-family="monospace" font-size="10.00">lightning_rep_collector</text>
</g>
<!-- lightning_rep_collector::aggregator -->
<g id="node3" class="node">
<title>lightning_rep_collector::aggregator</title>
<polygon fill="#81c169" stroke="black" points="331.83,-290.74 331.83,-328.74 558.83,-328.74 558.83,-290.74 331.83,-290.74"/>
<text text-anchor="middle" x="445.33" y="-316.74" font-family="monospace" font-size="10.00">pub mod</text>
<polyline fill="none" stroke="black" points="331.83,-309.74 558.83,-309.74 "/>
<text text-anchor="middle" x="445.33" y="-297.74" font-family="monospace" font-size="10.00">lightning_rep_collector::aggregator</text>
</g>
<!-- lightning_rep_collector&#45;&gt;lightning_rep_collector::aggregator -->
<g id="edge1" class="edge">
<title>lightning_rep_collector&#45;&gt;lightning_rep_collector::aggregator</title>
<path fill="none" stroke="#000000" d="M259.53,-284.76C273.38,-294.02 296.47,-302.82 321.76,-309.61"/>
<polygon fill="#000000" stroke="#000000" points="320.99,-313.02 331.54,-312.11 322.72,-306.24 320.99,-313.02"/>
<text text-anchor="middle" x="278.14" y="-300.18" font-family="monospace" font-size="10.00">owns</text>
</g>
<!-- lightning_rep_collector&#45;&gt;lightning_rep_collector::aggregator -->
<g id="edge2" class="edge">
<title>lightning_rep_collector&#45;&gt;lightning_rep_collector::aggregator</title>
<path fill="none" stroke="#7f7f7f" stroke-dasharray="5,2" d="M324.08,-256.19C359.77,-261.59 399.36,-272.79 423.35,-285.47"/>
<polygon fill="#7f7f7f" stroke="#7f7f7f" points="421.64,-288.53 432.03,-290.59 425.19,-282.5 421.64,-288.53"/>
<text text-anchor="middle" x="361.22" y="-273.83" font-family="monospace" font-size="10.00">uses</text>
</g>
<!-- lightning_rep_collector::buffered_mpsc -->
<g id="node4" class="node">
<title>lightning_rep_collector::buffered_mpsc</title>
<polygon fill="#81c169" stroke="black" points="0,-76.22 0,-114.22 245,-114.22 245,-76.22 0,-76.22"/>
<text text-anchor="middle" x="122.5" y="-102.22" font-family="monospace" font-size="10.00">pub mod</text>
<polyline fill="none" stroke="black" points="0,-95.22 245,-95.22 "/>
<text text-anchor="middle" x="122.5" y="-83.22" font-family="monospace" font-size="10.00">lightning_rep_collector::buffered_mpsc</text>
</g>
<!-- lightning_rep_collector&#45;&gt;lightning_rep_collector::buffered_mpsc -->
<g id="edge3" class="edge">
<title>lightning_rep_collector&#45;&gt;lightning_rep_collector::buffered_mpsc</title>
<path fill="none" stroke="#000000" d="M232.35,-246.44C210.37,-216.19 167.62,-157.33 142.42,-122.64"/>
<polygon fill="#000000" stroke="#000000" points="145.12,-120.41 136.41,-114.37 139.46,-124.52 145.12,-120.41"/>
<text text-anchor="middle" x="174.88" y="-187.54" font-family="monospace" font-size="10.00">owns</text>
</g>
<!-- lightning_rep_collector::config -->
<g id="node5" class="node">
<title>lightning_rep_collector::config</title>
<polygon fill="#81c169" stroke="black" points="273.19,-538.3 273.19,-576.3 476.19,-576.3 476.19,-538.3 273.19,-538.3"/>
<text text-anchor="middle" x="374.69" y="-564.3" font-family="monospace" font-size="10.00">pub mod</text>
<polyline fill="none" stroke="black" points="273.19,-557.3 476.19,-557.3 "/>
<text text-anchor="middle" x="374.69" y="-545.3" font-family="monospace" font-size="10.00">lightning_rep_collector::config</text>
</g>
<!-- lightning_rep_collector&#45;&gt;lightning_rep_collector::config -->
<g id="edge4" class="edge">
<title>lightning_rep_collector&#45;&gt;lightning_rep_collector::config</title>
<path fill="none" stroke="#000000" d="M254.74,-284.8C276.73,-334.75 335.96,-469.31 362.05,-528.59"/>
<polygon fill="#000000" stroke="#000000" points="359,-530.35 366.24,-538.09 365.41,-527.53 359,-530.35"/>
<text text-anchor="middle" x="295.9" y="-409.69" font-family="monospace" font-size="10.00">owns</text>
</g>
<!-- lightning_rep_collector::measurement_manager -->
<g id="node6" class="node">
<title>lightning_rep_collector::measurement_manager</title>
<polygon fill="#f8c04c" stroke="black" points="269.31,-0.5 269.31,-38.5 550.31,-38.5 550.31,-0.5 269.31,-0.5"/>
<text text-anchor="middle" x="409.81" y="-26.5" font-family="monospace" font-size="10.00">pub(crate) mod</text>
<polyline fill="none" stroke="black" points="269.31,-19.5 550.31,-19.5 "/>
<text text-anchor="middle" x="409.81" y="-7.5" font-family="monospace" font-size="10.00">lightning_rep_collector::measurement_manager</text>
</g>
<!-- lightning_rep_collector&#45;&gt;lightning_rep_collector::measurement_manager -->
<g id="edge5" class="edge">
<title>lightning_rep_collector&#45;&gt;lightning_rep_collector::measurement_manager</title>
<path fill="none" stroke="#000000" d="M259.14,-246.35C287.98,-202.94 357.99,-97.53 391.43,-47.18"/>
<polygon fill="#000000" stroke="#000000" points="394.43,-48.99 397.04,-38.73 388.6,-45.12 394.43,-48.99"/>
<text text-anchor="middle" x="312.79" y="-149.76" font-family="monospace" font-size="10.00">owns</text>
</g>
<!-- lightning_rep_collector::aggregator&#45;&gt;fdi -->
<g id="edge6" class="edge">
<title>lightning_rep_collector::aggregator&#45;&gt;fdi</title>
<path fill="none" stroke="#7f7f7f" stroke-dasharray="5,2" d="M416.69,-328.81C355.4,-369.61 211.54,-465.36 143.24,-510.83"/>
<polygon fill="#7f7f7f" stroke="#7f7f7f" points="141.29,-507.92 134.9,-516.38 145.17,-513.75 141.29,-507.92"/>
<text text-anchor="middle" x="267.47" y="-422.82" font-family="monospace" font-size="10.00">uses</text>
</g>
<!-- lightning_rep_collector::aggregator&#45;&gt;lightning_rep_collector::buffered_mpsc -->
<g id="edge7" class="edge">
<title>lightning_rep_collector::aggregator&#45;&gt;lightning_rep_collector::buffered_mpsc</title>
<path fill="none" stroke="#7f7f7f" stroke-dasharray="5,2" d="M416.68,-290.71C358.2,-251.84 225.11,-163.41 159.91,-120.08"/>
<polygon fill="#7f7f7f" stroke="#7f7f7f" points="161.82,-117.14 151.55,-114.52 157.94,-122.97 161.82,-117.14"/>
<text text-anchor="middle" x="275.8" y="-208.39" font-family="monospace" font-size="10.00">uses</text>
</g>
<!-- lightning_rep_collector::aggregator&#45;&gt;lightning_rep_collector::config -->
<g id="edge8" class="edge">
<title>lightning_rep_collector::aggregator&#45;&gt;lightning_rep_collector::config</title>
<path fill="none" stroke="#7f7f7f" stroke-dasharray="5,2" d="M439.91,-328.76C427.61,-371.87 397.53,-477.25 382.92,-528.45"/>
<polygon fill="#7f7f7f" stroke="#7f7f7f" points="379.51,-527.64 380.14,-538.22 386.25,-529.56 379.51,-527.64"/>
<text text-anchor="middle" x="398.92" y="-431.6" font-family="monospace" font-size="10.00">uses</text>
</g>
<!-- lightning_rep_collector::aggregator&#45;&gt;lightning_rep_collector::measurement_manager -->
<g id="edge9" class="edge">
<title>lightning_rep_collector::aggregator&#45;&gt;lightning_rep_collector::measurement_manager</title>
<path fill="none" stroke="#7f7f7f" stroke-dasharray="5,2" d="M443,-290.7C436.94,-241.19 420.67,-108.17 413.4,-48.8"/>
<polygon fill="#7f7f7f" stroke="#7f7f7f" points="416.84,-48.11 412.15,-38.61 409.89,-48.96 416.84,-48.11"/>
<text text-anchor="middle" x="415.7" y="-172.75" font-family="monospace" font-size="10.00">uses</text>
</g>
<!-- lightning_schema -->
<g id="node7" class="node">
<title>lightning_schema</title>
<polygon fill="#5397c8" stroke="black" points="685.31,-496.5 685.31,-534.5 798.31,-534.5 798.31,-496.5 685.31,-496.5"/>
<text text-anchor="middle" x="741.81" y="-522.5" font-family="monospace" font-size="10.00">external crate</text>
<polyline fill="none" stroke="black" points="685.31,-515.5 798.31,-515.5 "/>
<text text-anchor="middle" x="741.81" y="-503.5" font-family="monospace" font-size="10.00">lightning_schema</text>
</g>
<!-- lightning_rep_collector::aggregator&#45;&gt;lightning_schema -->
<g id="edge10" class="edge">
<title>lightning_rep_collector::aggregator&#45;&gt;lightning_schema</title>
<path fill="none" stroke="#7f7f7f" stroke-dasharray="5,2" d="M472.96,-328.92C526.81,-366.28 645.76,-448.84 705.74,-490.46"/>
<polygon fill="#7f7f7f" stroke="#7f7f7f" points="703.94,-493.47 714.15,-496.3 707.93,-487.72 703.94,-493.47"/>
<text text-anchor="middle" x="576.85" y="-412.69" font-family="monospace" font-size="10.00">uses</text>
</g>
<!-- lightning_types -->
<g id="node8" class="node">
<title>lightning_types</title>
<polygon fill="#5397c8" stroke="black" points="704.92,-120.19 704.92,-158.19 811.92,-158.19 811.92,-120.19 704.92,-120.19"/>
<text text-anchor="middle" x="758.42" y="-146.19" font-family="monospace" font-size="10.00">external crate</text>
<polyline fill="none" stroke="black" points="704.92,-139.19 811.92,-139.19 "/>
<text text-anchor="middle" x="758.42" y="-127.19" font-family="monospace" font-size="10.00">lightning_types</text>
</g>
<!-- lightning_rep_collector::aggregator&#45;&gt;lightning_types -->
<g id="edge11" class="edge">
<title>lightning_rep_collector::aggregator&#45;&gt;lightning_types</title>
<path fill="none" stroke="#7f7f7f" stroke-dasharray="5,2" d="M480.34,-290.68C537.68,-259.44 651.5,-197.44 714.29,-163.24"/>
<polygon fill="#7f7f7f" stroke="#7f7f7f" points="716.06,-166.26 723.17,-158.4 712.71,-160.11 716.06,-166.26"/>
<text text-anchor="middle" x="584.81" y="-229.96" font-family="monospace" font-size="10.00">uses</text>
</g>
</g>
</svg>
