<?xml version="1.0" encoding="UTF-8" standalone="no"?>
<!DOCTYPE svg PUBLIC "-//W3C//DTD SVG 1.1//EN"
 "http://www.w3.org/Graphics/SVG/1.1/DTD/svg11.dtd">
<!-- Generated by graphviz version 4.0.0 (0)
 -->
<!-- Pages: 1 -->
<svg width="360pt" height="311pt"
 viewBox="0.00 0.00 359.60 310.60" xmlns="http://www.w3.org/2000/svg" xmlns:xlink="http://www.w3.org/1999/xlink">
<g id="graph0" class="graph" transform="scale(1 1) rotate(0) translate(37.3 281.8)">
<polygon fill="white" stroke="transparent" points="-37.3,28.8 -37.3,-281.8 322.3,-281.8 322.3,28.8 -37.3,28.8"/>
<text text-anchor="middle" x="142.5" y="-220.2" font-family="Helvetica,sans-Serif" font-size="36.00">lightning_signer</text>
<!-- fdi -->
<g id="node1" class="node">
<title>fdi</title>
<polygon fill="#5397c8" stroke="black" points="14.33,-0.31 14.33,-38.31 115.33,-38.31 115.33,-0.31 14.33,-0.31"/>
<text text-anchor="middle" x="64.83" y="-26.31" font-family="monospace" font-size="10.00">external crate</text>
<polyline fill="none" stroke="black" points="14.33,-19.31 115.33,-19.31 "/>
<text text-anchor="middle" x="64.83" y="-7.31" font-family="monospace" font-size="10.00">fdi</text>
</g>
<!-- lightning_schema -->
<g id="node2" class="node">
<title>lightning_schema</title>
<polygon fill="#5397c8" stroke="black" points="157.97,-19.36 157.97,-57.36 270.97,-57.36 270.97,-19.36 157.97,-19.36"/>
<text text-anchor="middle" x="214.47" y="-45.36" font-family="monospace" font-size="10.00">external crate</text>
<polyline fill="none" stroke="black" points="157.97,-38.36 270.97,-38.36 "/>
<text text-anchor="middle" x="214.47" y="-26.36" font-family="monospace" font-size="10.00">lightning_schema</text>
</g>
<!-- lightning_signer -->
<g id="node3" class="node">
<title>lightning_signer</title>
<polygon fill="#5397c8" stroke="black" points="83.46,-66.37 83.46,-104.37 196.46,-104.37 196.46,-66.37 83.46,-66.37"/>
<text text-anchor="middle" x="139.96" y="-92.37" font-family="monospace" font-size="10.00">crate</text>
<polyline fill="none" stroke="black" points="83.46,-85.37 196.46,-85.37 "/>
<text text-anchor="middle" x="139.96" y="-73.37" font-family="monospace" font-size="10.00">lightning_signer</text>
</g>
<!-- lightning_signer&#45;&gt;fdi -->
<g id="edge1" class="edge">
<title>lightning_signer&#45;&gt;fdi</title>
<path fill="none" stroke="#7f7f7f" stroke-dasharray="5,2" d="M118.23,-66.26C110.76,-59.69 102.26,-52.21 94.27,-45.19"/>
<polygon fill="#7f7f7f" stroke="#7f7f7f" points="96.34,-42.35 86.51,-38.37 91.71,-47.6 96.34,-42.35"/>
<text text-anchor="middle" x="93.75" y="-47.73" font-family="monospace" font-size="10.00">uses</text>
</g>
<!-- lightning_signer&#45;&gt;lightning_schema -->
<g id="edge2" class="edge">
<title>lightning_signer&#45;&gt;lightning_schema</title>
<path fill="none" stroke="#7f7f7f" stroke-dasharray="5,2" d="M170.27,-66.25C171.96,-65.18 173.67,-64.1 175.39,-63.02"/>
<polygon fill="#7f7f7f" stroke="#7f7f7f" points="177.36,-65.91 183.95,-57.62 173.62,-59.99 177.36,-65.91"/>
<text text-anchor="middle" x="160.33" y="-56.63" font-family="monospace" font-size="10.00">uses</text>
</g>
<!-- lightning_types -->
<g id="node4" class="node">
<title>lightning_types</title>
<polygon fill="#5397c8" stroke="black" points="66.17,-166.56 66.17,-204.56 173.17,-204.56 173.17,-166.56 66.17,-166.56"/>
<text text-anchor="middle" x="119.67" y="-192.56" font-family="monospace" font-size="10.00">external crate</text>
<polyline fill="none" stroke="black" points="66.17,-185.56 173.17,-185.56 "/>
<text text-anchor="middle" x="119.67" y="-173.56" font-family="monospace" font-size="10.00">lightning_types</text>
</g>
<!-- lightning_signer&#45;&gt;lightning_types -->
<g id="edge3" class="edge">
<title>lightning_signer&#45;&gt;lightning_types</title>
<path fill="none" stroke="#7f7f7f" stroke-dasharray="5,2" d="M136.05,-104.68C133.1,-119.24 129.01,-139.45 125.65,-156.03"/>
<polygon fill="#7f7f7f" stroke="#7f7f7f" points="122.13,-155.81 123.57,-166.3 128.99,-157.2 122.13,-155.81"/>
<text text-anchor="middle" x="118.35" y="-133.36" font-family="monospace" font-size="10.00">uses</text>
</g>
</g>
</svg>
