<?xml version="1.0" encoding="UTF-8" standalone="no"?>
<!DOCTYPE svg PUBLIC "-//W3C//DTD SVG 1.1//EN"
 "http://www.w3.org/Graphics/SVG/1.1/DTD/svg11.dtd">
<!-- Generated by graphviz version 4.0.0 (0)
 -->
<!-- Pages: 1 -->
<svg width="435pt" height="330pt"
 viewBox="0.00 0.00 435.12 330.15" xmlns="http://www.w3.org/2000/svg" xmlns:xlink="http://www.w3.org/1999/xlink">
<g id="graph0" class="graph" transform="scale(1 1) rotate(0) translate(28.8 301.35)">
<polygon fill="white" stroke="transparent" points="-28.8,28.8 -28.8,-301.35 406.32,-301.35 406.32,28.8 -28.8,28.8"/>
<text text-anchor="middle" x="188.76" y="-239.75" font-family="Helvetica,sans-Serif" font-size="36.00">lightning_schema</text>
<!-- lightning_schema -->
<g id="node1" class="node">
<title>lightning_schema</title>
<polygon fill="#5397c8" stroke="black" points="124.4,-69.79 124.4,-107.79 237.4,-107.79 237.4,-69.79 124.4,-69.79"/>
<text text-anchor="middle" x="180.9" y="-95.79" font-family="monospace" font-size="10.00">crate</text>
<polyline fill="none" stroke="black" points="124.4,-88.79 237.4,-88.79 "/>
<text text-anchor="middle" x="180.9" y="-76.79" font-family="monospace" font-size="10.00">lightning_schema</text>
</g>
<!-- lightning_schema::broadcast -->
<g id="node2" class="node">
<title>lightning_schema::broadcast</title>
<polygon fill="#81c169" stroke="black" points="78.45,-186.05 78.45,-224.05 257.45,-224.05 257.45,-186.05 78.45,-186.05"/>
<text text-anchor="middle" x="167.95" y="-212.05" font-family="monospace" font-size="10.00">pub mod</text>
<polyline fill="none" stroke="black" points="78.45,-205.05 257.45,-205.05 "/>
<text text-anchor="middle" x="167.95" y="-193.05" font-family="monospace" font-size="10.00">lightning_schema::broadcast</text>
</g>
<!-- lightning_schema&#45;&gt;lightning_schema::broadcast -->
<g id="edge1" class="edge">
<title>lightning_schema&#45;&gt;lightning_schema::broadcast</title>
<path fill="none" stroke="#000000" d="M157.08,-108C148.24,-126.55 144.59,-154.83 147.98,-176.11"/>
<polygon fill="#000000" stroke="#000000" points="144.58,-176.94 150.23,-185.91 151.41,-175.38 144.58,-176.94"/>
<text text-anchor="middle" x="140.03" y="-145.05" font-family="monospace" font-size="10.00">owns</text>
</g>
<!-- lightning_schema::envelope -->
<g id="node3" class="node">
<title>lightning_schema::envelope</title>
<polygon fill="#81c169" stroke="black" points="0,-0.5 0,-38.5 173,-38.5 173,-0.5 0,-0.5"/>
<text text-anchor="middle" x="86.5" y="-26.5" font-family="monospace" font-size="10.00">pub mod</text>
<polyline fill="none" stroke="black" points="0,-19.5 173,-19.5 "/>
<text text-anchor="middle" x="86.5" y="-7.5" font-family="monospace" font-size="10.00">lightning_schema::envelope</text>
</g>
<!-- lightning_schema&#45;&gt;lightning_schema::envelope -->
<g id="edge2" class="edge">
<title>lightning_schema&#45;&gt;lightning_schema::envelope</title>
<path fill="none" stroke="#000000" d="M182.1,-69.59C179.17,-61.85 173.07,-53.53 165.26,-45.7"/>
<polygon fill="#000000" stroke="#000000" points="167.37,-42.89 157.65,-38.68 162.63,-48.04 167.37,-42.89"/>
<text text-anchor="middle" x="161.18" y="-60.65" font-family="monospace" font-size="10.00">owns</text>
</g>
<!-- lightning_schema::handshake -->
<g id="node4" class="node">
<title>lightning_schema::handshake</title>
<polygon fill="#81c169" stroke="black" points="198.52,-22.78 198.52,-60.78 377.52,-60.78 377.52,-22.78 198.52,-22.78"/>
<text text-anchor="middle" x="288.02" y="-48.78" font-family="monospace" font-size="10.00">pub mod</text>
<polyline fill="none" stroke="black" points="198.52,-41.78 377.52,-41.78 "/>
<text text-anchor="middle" x="288.02" y="-29.78" font-family="monospace" font-size="10.00">lightning_schema::handshake</text>
</g>
<!-- lightning_schema&#45;&gt;lightning_schema::handshake -->
<g id="edge3" class="edge">
<title>lightning_schema&#45;&gt;lightning_schema::handshake</title>
<path fill="none" stroke="#000000" d="M224.47,-69.67C227.98,-68.13 231.55,-66.57 235.11,-65"/>
<polygon fill="#000000" stroke="#000000" points="236.74,-68.11 244.49,-60.89 233.93,-61.7 236.74,-68.11"/>
<text text-anchor="middle" x="242.29" y="-70.34" font-family="monospace" font-size="10.00">owns</text>
</g>
<!-- lightning_schema::broadcast&#45;&gt;lightning_schema -->
<g id="edge4" class="edge">
<title>lightning_schema::broadcast&#45;&gt;lightning_schema</title>
<path fill="none" stroke="#7f7f7f" stroke-dasharray="5,2" d="M191.77,-185.84C200.61,-167.28 204.26,-139 200.86,-117.73"/>
<polygon fill="#7f7f7f" stroke="#7f7f7f" points="204.26,-116.89 198.62,-107.93 197.44,-118.45 204.26,-116.89"/>
<text text-anchor="middle" x="183.82" y="-154.79" font-family="monospace" font-size="10.00">uses</text>
</g>
<!-- lightning_schema::envelope&#45;&gt;lightning_schema -->
<g id="edge5" class="edge">
<title>lightning_schema::envelope&#45;&gt;lightning_schema</title>
<path fill="none" stroke="#7f7f7f" stroke-dasharray="5,2" d="M85.3,-38.7C89.76,-50.49 101.58,-63.62 115.59,-74.32"/>
<polygon fill="#7f7f7f" stroke="#7f7f7f" points="113.87,-77.38 124.06,-80.3 117.91,-71.67 113.87,-77.38"/>
<text text-anchor="middle" x="87.95" y="-59.51" font-family="monospace" font-size="10.00">uses</text>
</g>
</g>
</svg>
