<?xml version="1.0" encoding="UTF-8" standalone="no"?>
<!DOCTYPE svg PUBLIC "-//W3C//DTD SVG 1.1//EN"
 "http://www.w3.org/Graphics/SVG/1.1/DTD/svg11.dtd">
<!-- Generated by graphviz version 4.0.0 (0)
 -->
<!-- Pages: 1 -->
<svg width="637pt" height="627pt"
 viewBox="0.00 0.00 637.09 626.83" xmlns="http://www.w3.org/2000/svg" xmlns:xlink="http://www.w3.org/1999/xlink">
<g id="graph0" class="graph" transform="scale(1 1) rotate(0) translate(28.8 598.03)">
<polygon fill="white" stroke="transparent" points="-28.8,28.8 -28.8,-598.03 608.29,-598.03 608.29,28.8 -28.8,28.8"/>
<text text-anchor="middle" x="289.75" y="-536.43" font-family="Helvetica,sans-Serif" font-size="36.00">lightning_blockstore</text>
<!-- lightning_blockstore -->
<g id="node1" class="node">
<title>lightning_blockstore</title>
<polygon fill="#5397c8" stroke="black" points="193.02,-161.24 193.02,-199.24 330.02,-199.24 330.02,-161.24 193.02,-161.24"/>
<text text-anchor="middle" x="261.52" y="-187.24" font-family="monospace" font-size="10.00">crate</text>
<polyline fill="none" stroke="black" points="193.02,-180.24 330.02,-180.24 "/>
<text text-anchor="middle" x="261.52" y="-168.24" font-family="monospace" font-size="10.00">lightning_blockstore</text>
</g>
<!-- lightning_blockstore::blockstore -->
<g id="node2" class="node">
<title>lightning_blockstore::blockstore</title>
<polygon fill="#81c169" stroke="black" points="209.25,-321.99 209.25,-359.99 418.25,-359.99 418.25,-321.99 209.25,-321.99"/>
<text text-anchor="middle" x="313.75" y="-347.99" font-family="monospace" font-size="10.00">pub mod</text>
<polyline fill="none" stroke="black" points="209.25,-340.99 418.25,-340.99 "/>
<text text-anchor="middle" x="313.75" y="-328.99" font-family="monospace" font-size="10.00">lightning_blockstore::blockstore</text>
</g>
<!-- lightning_blockstore&#45;&gt;lightning_blockstore::blockstore -->
<g id="edge1" class="edge">
<title>lightning_blockstore&#45;&gt;lightning_blockstore::blockstore</title>
<path fill="none" stroke="#000000" d="M267.71,-199.32C276.78,-227.23 293.75,-279.44 304.35,-312.09"/>
<polygon fill="#000000" stroke="#000000" points="301.14,-313.51 307.56,-321.94 307.8,-311.35 301.14,-313.51"/>
<text text-anchor="middle" x="273.53" y="-258.7" font-family="monospace" font-size="10.00">owns</text>
</g>
<!-- lightning_blockstore::config -->
<g id="node3" class="node">
<title>lightning_blockstore::config</title>
<polygon fill="#81c169" stroke="black" points="0,-161.24 0,-199.24 185,-199.24 185,-161.24 0,-161.24"/>
<text text-anchor="middle" x="92.5" y="-187.24" font-family="monospace" font-size="10.00">pub mod</text>
<polyline fill="none" stroke="black" points="0,-180.24 185,-180.24 "/>
<text text-anchor="middle" x="92.5" y="-168.24" font-family="monospace" font-size="10.00">lightning_blockstore::config</text>
</g>
<!-- lightning_blockstore&#45;&gt;lightning_blockstore::config -->
<g id="edge2" class="edge">
<title>lightning_blockstore&#45;&gt;lightning_blockstore::config</title>
<path fill="none" stroke="#000000" d="M192.77,-180.24C192.61,-180.24 192.45,-180.24 192.29,-180.24"/>
<polygon fill="#000000" stroke="#000000" points="195.04,-176.74 185.04,-180.24 195.04,-183.74 195.04,-176.74"/>
<text text-anchor="middle" x="186.28" y="-172.24" font-family="monospace" font-size="10.00">owns</text>
</g>
<!-- lightning_blockstore::put -->
<g id="node4" class="node">
<title>lightning_blockstore::put</title>
<polygon fill="#81c169" stroke="black" points="125.79,-0.5 125.79,-38.5 292.79,-38.5 292.79,-0.5 125.79,-0.5"/>
<text text-anchor="middle" x="209.29" y="-26.5" font-family="monospace" font-size="10.00">pub mod</text>
<polyline fill="none" stroke="black" points="125.79,-19.5 292.79,-19.5 "/>
<text text-anchor="middle" x="209.29" y="-7.5" font-family="monospace" font-size="10.00">lightning_blockstore::put</text>
</g>
<!-- lightning_blockstore&#45;&gt;lightning_blockstore::put -->
<g id="edge3" class="edge">
<title>lightning_blockstore&#45;&gt;lightning_blockstore::put</title>
<path fill="none" stroke="#000000" d="M255.32,-161.17C246.25,-133.26 229.29,-81.05 218.68,-48.4"/>
<polygon fill="#000000" stroke="#000000" points="221.9,-46.97 215.48,-38.55 215.24,-49.14 221.9,-46.97"/>
<text text-anchor="middle" x="224.5" y="-107.79" font-family="monospace" font-size="10.00">owns</text>
</g>
<!-- lightning_blockstore::store -->
<g id="node5" class="node">
<title>lightning_blockstore::store</title>
<polygon fill="#f8c04c" stroke="black" points="308.75,-61.9 308.75,-99.9 487.75,-99.9 487.75,-61.9 308.75,-61.9"/>
<text text-anchor="middle" x="398.25" y="-87.9" font-family="monospace" font-size="10.00">pub(crate) mod</text>
<polyline fill="none" stroke="black" points="308.75,-80.9 487.75,-80.9 "/>
<text text-anchor="middle" x="398.25" y="-68.9" font-family="monospace" font-size="10.00">lightning_blockstore::store</text>
</g>
<!-- lightning_blockstore&#45;&gt;lightning_blockstore::store -->
<g id="edge4" class="edge">
<title>lightning_blockstore&#45;&gt;lightning_blockstore::store</title>
<path fill="none" stroke="#000000" d="M287.88,-161.09C309.45,-145.42 340.11,-123.14 363.65,-106.04"/>
<polygon fill="#000000" stroke="#000000" points="365.94,-108.7 371.97,-100 361.82,-103.04 365.94,-108.7"/>
<text text-anchor="middle" x="313.27" y="-136.56" font-family="monospace" font-size="10.00">owns</text>
</g>
<!-- lightning_blockstore::blockstore&#45;&gt;lightning_blockstore::config -->
<g id="edge5" class="edge">
<title>lightning_blockstore::blockstore&#45;&gt;lightning_blockstore::config</title>
<path fill="none" stroke="#7f7f7f" stroke-dasharray="5,2" d="M287.5,-321.92C247.49,-292.85 171.25,-237.46 126.88,-205.22"/>
<polygon fill="#7f7f7f" stroke="#7f7f7f" points="128.86,-202.34 118.71,-199.29 124.75,-208 128.86,-202.34"/>
<text text-anchor="middle" x="194.69" y="-266.57" font-family="monospace" font-size="10.00">uses</text>
</g>
<!-- lightning_blockstore::blockstore&#45;&gt;lightning_blockstore::put -->
<g id="edge6" class="edge">
<title>lightning_blockstore::blockstore&#45;&gt;lightning_blockstore::put</title>
<path fill="none" stroke="#7f7f7f" stroke-dasharray="5,2" d="M307.52,-321.84C289.89,-267.57 239.5,-112.48 218.57,-48.08"/>
<polygon fill="#7f7f7f" stroke="#7f7f7f" points="221.9,-46.98 215.48,-38.55 215.24,-49.14 221.9,-46.98"/>
<text text-anchor="middle" x="250.55" y="-187.96" font-family="monospace" font-size="10.00">uses</text>
</g>
<!-- lightning_blockstore::blockstore&#45;&gt;lightning_blockstore::store -->
<g id="edge7" class="edge">
<title>lightning_blockstore::blockstore&#45;&gt;lightning_blockstore::store</title>
<path fill="none" stroke="#7f7f7f" stroke-dasharray="5,2" d="M319.96,-321.86C334.64,-276.68 371.54,-163.1 388.93,-109.61"/>
<polygon fill="#7f7f7f" stroke="#7f7f7f" points="392.27,-110.64 392.03,-100.05 385.61,-108.48 392.27,-110.64"/>
<text text-anchor="middle" x="341.94" y="-218.74" font-family="monospace" font-size="10.00">uses</text>
</g>
<!-- std::io -->
<g id="node6" class="node">
<title>std::io</title>
<polygon fill="#81c169" stroke="black" points="490.49,-359.94 490.49,-397.94 579.49,-397.94 579.49,-359.94 490.49,-359.94"/>
<text text-anchor="middle" x="534.99" y="-385.94" font-family="monospace" font-size="10.00">external mod</text>
<polyline fill="none" stroke="black" points="490.49,-378.94 579.49,-378.94 "/>
<text text-anchor="middle" x="534.99" y="-366.94" font-family="monospace" font-size="10.00">std::io</text>
</g>
<!-- lightning_blockstore::blockstore&#45;&gt;std::io -->
<g id="edge8" class="edge">
<title>lightning_blockstore::blockstore&#45;&gt;std::io</title>
<path fill="none" stroke="#7f7f7f" stroke-dasharray="5,2" d="M418.54,-358.96C439.93,-362.63 461.61,-366.35 480.38,-369.57"/>
<polygon fill="#7f7f7f" stroke="#7f7f7f" points="480.03,-373.06 490.48,-371.3 481.22,-366.16 480.03,-373.06"/>
<text text-anchor="middle" x="436.96" y="-367.27" font-family="monospace" font-size="10.00">uses</text>
</g>
<!-- tokio::fs -->
<g id="node7" class="node">
<title>tokio::fs</title>
<polygon fill="#81c169" stroke="black" points="112.56,-482.73 112.56,-520.73 201.56,-520.73 201.56,-482.73 112.56,-482.73"/>
<text text-anchor="middle" x="157.06" y="-508.73" font-family="monospace" font-size="10.00">external mod</text>
<polyline fill="none" stroke="black" points="112.56,-501.73 201.56,-501.73 "/>
<text text-anchor="middle" x="157.06" y="-489.73" font-family="monospace" font-size="10.00">tokio::fs</text>
</g>
<!-- lightning_blockstore::blockstore&#45;&gt;tokio::fs -->
<g id="edge9" class="edge">
<title>lightning_blockstore::blockstore&#45;&gt;tokio::fs</title>
<path fill="none" stroke="#7f7f7f" stroke-dasharray="5,2" d="M295.16,-360.06C267.24,-388.7 214.4,-442.91 182.79,-475.33"/>
<polygon fill="#7f7f7f" stroke="#7f7f7f" points="180.1,-473.08 175.62,-482.69 185.11,-477.97 180.1,-473.08"/>
<text text-anchor="middle" x="226.47" y="-420.7" font-family="monospace" font-size="10.00">uses</text>
</g>
<!-- lightning_blockstore::store&#45;&gt;std::io -->
<g id="edge10" class="edge">
<title>lightning_blockstore::store&#45;&gt;std::io</title>
<path fill="none" stroke="#7f7f7f" stroke-dasharray="5,2" d="M407.02,-100C430.36,-150.87 494.13,-289.88 521.85,-350.28"/>
<polygon fill="#7f7f7f" stroke="#7f7f7f" points="518.78,-351.98 526.13,-359.61 525.14,-349.06 518.78,-351.98"/>
<text text-anchor="middle" x="451.93" y="-228.14" font-family="monospace" font-size="10.00">uses</text>
</g>
</g>
</svg>
