<?xml version="1.0" encoding="UTF-8" standalone="no"?>
<!DOCTYPE svg PUBLIC "-//W3C//DTD SVG 1.1//EN"
 "http://www.w3.org/Graphics/SVG/1.1/DTD/svg11.dtd">
<!-- Generated by graphviz version 4.0.0 (0)
 -->
<!-- Pages: 1 -->
<svg width="1742pt" height="860pt"
 viewBox="0.00 0.00 1742.40 859.90" xmlns="http://www.w3.org/2000/svg" xmlns:xlink="http://www.w3.org/1999/xlink">
<g id="graph0" class="graph" transform="scale(1 1) rotate(0) translate(28.8 831.1)">
<polygon fill="white" stroke="transparent" points="-28.8,28.8 -28.8,-831.1 1713.6,-831.1 1713.6,28.8 -28.8,28.8"/>
<text text-anchor="middle" x="842.4" y="-769.5" font-family="Helvetica,sans-Serif" font-size="36.00">lightning_dack_aggregator</text>
<!-- lightning_dack_aggregator -->
<g id="node1" class="node">
<title>lightning_dack_aggregator</title>
<polygon fill="#5397c8" stroke="black" points="884.22,-459.75 884.22,-497.75 1051.22,-497.75 1051.22,-459.75 884.22,-459.75"/>
<text text-anchor="middle" x="967.72" y="-485.75" font-family="monospace" font-size="10.00">crate</text>
<polyline fill="none" stroke="black" points="884.22,-478.75 1051.22,-478.75 "/>
<text text-anchor="middle" x="967.72" y="-466.75" font-family="monospace" font-size="10.00">lightning_dack_aggregator</text>
</g>
<!-- lightning_dack_aggregator::config::Config -->
<g id="node2" class="node">
<title>lightning_dack_aggregator::config::Config</title>
<polygon fill="#81c169" stroke="black" points="1176.54,-275.85 1176.54,-313.85 1277.54,-313.85 1277.54,-275.85 1176.54,-275.85"/>
<text text-anchor="middle" x="1227.04" y="-301.85" font-family="monospace" font-size="10.00">pub struct</text>
<polyline fill="none" stroke="black" points="1176.54,-294.85 1277.54,-294.85 "/>
<text text-anchor="middle" x="1227.04" y="-282.85" font-family="monospace" font-size="10.00">config::Config</text>
</g>
<!-- lightning_dack_aggregator&#45;&gt;lightning_dack_aggregator::config::Config -->
<g id="edge1" class="edge">
<title>lightning_dack_aggregator&#45;&gt;lightning_dack_aggregator::config::Config</title>
<path fill="none" stroke="#000000" d="M1033.03,-459.64C1094.99,-425.71 1182.49,-360.92 1215.21,-322.26"/>
<polygon fill="#000000" stroke="#000000" points="1218.29,-324.01 1221.66,-313.96 1212.76,-319.71 1218.29,-324.01"/>
<text text-anchor="middle" x="1111.62" y="-393.95" font-family="monospace" font-size="10.00">owns</text>
</g>
<!-- lightning_dack_aggregator&#45;&gt;lightning_dack_aggregator::config::Config -->
<g id="edge2" class="edge">
<title>lightning_dack_aggregator&#45;&gt;lightning_dack_aggregator::config::Config</title>
<path fill="none" stroke="#7f7f7f" stroke-dasharray="5,2" d="M973.03,-459.74C999.45,-421.74 1100.53,-346.38 1167.31,-310.95"/>
<polygon fill="#7f7f7f" stroke="#7f7f7f" points="1169.2,-313.91 1176.49,-306.22 1166,-307.69 1169.2,-313.91"/>
<text text-anchor="middle" x="1057.67" y="-388.34" font-family="monospace" font-size="10.00">uses</text>
</g>
<!-- lightning_dack_aggregator::dack_aggregator::AggregatorInner -->
<g id="node3" class="node">
<title>lightning_dack_aggregator::dack_aggregator::AggregatorInner</title>
<polygon fill="#db5367" stroke="black" points="1216.78,-474.84 1216.78,-512.84 1425.78,-512.84 1425.78,-474.84 1216.78,-474.84"/>
<text text-anchor="middle" x="1321.28" y="-500.84" font-family="monospace" font-size="10.00">pub(self) struct</text>
<polyline fill="none" stroke="black" points="1216.78,-493.84 1425.78,-493.84 "/>
<text text-anchor="middle" x="1321.28" y="-481.84" font-family="monospace" font-size="10.00">dack_aggregator::AggregatorInner</text>
</g>
<!-- lightning_dack_aggregator&#45;&gt;lightning_dack_aggregator::dack_aggregator::AggregatorInner -->
<g id="edge3" class="edge">
<title>lightning_dack_aggregator&#45;&gt;lightning_dack_aggregator::dack_aggregator::AggregatorInner</title>
<path fill="none" stroke="#000000" d="M1051.5,-482.33C1097.74,-484.3 1155.83,-486.78 1206.26,-488.93"/>
<polygon fill="#000000" stroke="#000000" points="1206.42,-492.44 1216.56,-489.37 1206.72,-485.45 1206.42,-492.44"/>
<text text-anchor="middle" x="1116.38" y="-488.63" font-family="monospace" font-size="10.00">owns</text>
</g>
<!-- lightning_dack_aggregator::dack_aggregator::DeliveryAcknowledgmentAggregator -->
<g id="node6" class="node">
<title>lightning_dack_aggregator::dack_aggregator::DeliveryAcknowledgmentAggregator</title>
<polygon fill="#81c169" stroke="black" points="389.56,-355.92 389.56,-393.92 700.56,-393.92 700.56,-355.92 389.56,-355.92"/>
<text text-anchor="middle" x="545.06" y="-381.92" font-family="monospace" font-size="10.00">pub struct</text>
<polyline fill="none" stroke="black" points="389.56,-374.92 700.56,-374.92 "/>
<text text-anchor="middle" x="545.06" y="-362.92" font-family="monospace" font-size="10.00">dack_aggregator::DeliveryAcknowledgmentAggregator</text>
</g>
<!-- lightning_dack_aggregator&#45;&gt;lightning_dack_aggregator::dack_aggregator::DeliveryAcknowledgmentAggregator -->
<g id="edge4" class="edge">
<title>lightning_dack_aggregator&#45;&gt;lightning_dack_aggregator::dack_aggregator::DeliveryAcknowledgmentAggregator</title>
<path fill="none" stroke="#000000" d="M946.39,-459.61C902.89,-437.48 800.76,-408.01 710.41,-388.51"/>
<polygon fill="#000000" stroke="#000000" points="711.09,-385.08 700.58,-386.42 709.63,-391.92 711.09,-385.08"/>
<text text-anchor="middle" x="815.9" y="-427.06" font-family="monospace" font-size="10.00">owns</text>
</g>
<!-- lightning_dack_aggregator&#45;&gt;lightning_dack_aggregator::dack_aggregator::DeliveryAcknowledgmentAggregator -->
<g id="edge5" class="edge">
<title>lightning_dack_aggregator&#45;&gt;lightning_dack_aggregator::dack_aggregator::DeliveryAcknowledgmentAggregator</title>
<path fill="none" stroke="#7f7f7f" stroke-dasharray="5,2" d="M884.07,-480.4C789.07,-466.23 639.12,-427.32 575.3,-398.34"/>
<polygon fill="#7f7f7f" stroke="#7f7f7f" points="576.71,-395.13 566.18,-393.96 573.68,-401.44 576.71,-395.13"/>
<text text-anchor="middle" x="717.19" y="-442.37" font-family="monospace" font-size="10.00">uses</text>
</g>
<!-- lightning_dack_aggregator::dack_aggregator::AggregatorInner&#45;&gt;lightning_dack_aggregator::config::Config -->
<g id="edge6" class="edge">
<title>lightning_dack_aggregator::dack_aggregator::AggregatorInner&#45;&gt;lightning_dack_aggregator::config::Config</title>
<path fill="none" stroke="#7f7f7f" stroke-dasharray="5,2" d="M1312.24,-474.76C1295.56,-439.55 1259.88,-364.2 1240.4,-323.07"/>
<polygon fill="#7f7f7f" stroke="#7f7f7f" points="1243.49,-321.42 1236.05,-313.88 1237.16,-324.41 1243.49,-321.42"/>
<text text-anchor="middle" x="1263.82" y="-401.92" font-family="monospace" font-size="10.00">uses</text>
</g>
<!-- lightning_dack_aggregator::dack_aggregator::AggregatorInner::new -->
<g id="node4" class="node">
<title>lightning_dack_aggregator::dack_aggregator::AggregatorInner::new</title>
<polygon fill="#db5367" stroke="black" points="1372.39,-175.89 1372.39,-213.89 1611.39,-213.89 1611.39,-175.89 1372.39,-175.89"/>
<text text-anchor="middle" x="1491.89" y="-201.89" font-family="monospace" font-size="10.00">pub(self) fn</text>
<polyline fill="none" stroke="black" points="1372.39,-194.89 1611.39,-194.89 "/>
<text text-anchor="middle" x="1491.89" y="-182.89" font-family="monospace" font-size="10.00">dack_aggregator::AggregatorInner::new</text>
</g>
<!-- lightning_dack_aggregator::dack_aggregator::AggregatorInner&#45;&gt;lightning_dack_aggregator::dack_aggregator::AggregatorInner::new -->
<g id="edge7" class="edge">
<title>lightning_dack_aggregator::dack_aggregator::AggregatorInner&#45;&gt;lightning_dack_aggregator::dack_aggregator::AggregatorInner::new</title>
<path fill="none" stroke="#000000" d="M1351.31,-474.41C1397.66,-422.61 1475.67,-284.84 1492.46,-223.83"/>
<polygon fill="#000000" stroke="#000000" points="1495.88,-224.58 1494.74,-214.05 1489.06,-222.99 1495.88,-224.58"/>
<text text-anchor="middle" x="1409.38" y="-352.12" font-family="monospace" font-size="10.00">owns</text>
</g>
<!-- lightning_dack_aggregator::dack_aggregator::AggregatorInner::start -->
<g id="node5" class="node">
<title>lightning_dack_aggregator::dack_aggregator::AggregatorInner::start</title>
<polygon fill="#db5367" stroke="black" points="1433.8,-485.94 1433.8,-523.94 1684.8,-523.94 1684.8,-485.94 1433.8,-485.94"/>
<text text-anchor="middle" x="1559.3" y="-511.94" font-family="monospace" font-size="10.00">pub(self) async fn</text>
<polyline fill="none" stroke="black" points="1433.8,-504.94 1684.8,-504.94 "/>
<text text-anchor="middle" x="1559.3" y="-492.94" font-family="monospace" font-size="10.00">dack_aggregator::AggregatorInner::start</text>
</g>
<!-- lightning_dack_aggregator::dack_aggregator::AggregatorInner&#45;&gt;lightning_dack_aggregator::dack_aggregator::AggregatorInner::start -->
<g id="edge8" class="edge">
<title>lightning_dack_aggregator::dack_aggregator::AggregatorInner&#45;&gt;lightning_dack_aggregator::dack_aggregator::AggregatorInner::start</title>
<path fill="none" stroke="#000000" d="M1347.29,-512.93C1385.51,-525.03 1457.66,-529.99 1507.08,-525.18"/>
<polygon fill="#000000" stroke="#000000" points="1507.73,-528.63 1517.26,-524 1506.93,-521.67 1507.73,-528.63"/>
<text text-anchor="middle" x="1414.68" y="-522.05" font-family="monospace" font-size="10.00">owns</text>
</g>
<!-- lightning_dack_aggregator::dack_aggregator::AggregatorInner::new&#45;&gt;lightning_dack_aggregator::config::Config -->
<g id="edge9" class="edge">
<title>lightning_dack_aggregator::dack_aggregator::AggregatorInner::new&#45;&gt;lightning_dack_aggregator::config::Config</title>
<path fill="none" stroke="#7f7f7f" stroke-dasharray="5,2" d="M1441.45,-213.92C1397.5,-230.51 1333.69,-254.6 1287.11,-272.18"/>
<polygon fill="#7f7f7f" stroke="#7f7f7f" points="1285.86,-268.91 1277.74,-275.72 1288.33,-275.46 1285.86,-268.91"/>
<text text-anchor="middle" x="1351.78" y="-246.05" font-family="monospace" font-size="10.00">uses</text>
</g>
<!-- lightning_dack_aggregator::dack_aggregator::AggregatorInner::new&#45;&gt;lightning_dack_aggregator::dack_aggregator::AggregatorInner -->
<g id="edge10" class="edge">
<title>lightning_dack_aggregator::dack_aggregator::AggregatorInner::new&#45;&gt;lightning_dack_aggregator::dack_aggregator::AggregatorInner</title>
<path fill="none" stroke="#7f7f7f" stroke-dasharray="5,2" d="M1461.86,-214.32C1415.5,-266.12 1337.5,-403.89 1320.71,-464.89"/>
<polygon fill="#7f7f7f" stroke="#7f7f7f" points="1317.29,-464.14 1318.43,-474.68 1324.11,-465.73 1317.29,-464.14"/>
<text text-anchor="middle" x="1378.78" y="-342.61" font-family="monospace" font-size="10.00">uses</text>
</g>
<!-- lightning_dack_aggregator::dack_aggregator::AggregatorInner::start&#45;&gt;lightning_dack_aggregator::config::Config -->
<g id="edge11" class="edge">
<title>lightning_dack_aggregator::dack_aggregator::AggregatorInner::start&#45;&gt;lightning_dack_aggregator::config::Config</title>
<path fill="none" stroke="#7f7f7f" stroke-dasharray="5,2" d="M1529.23,-485.93C1468.84,-447.75 1332.89,-361.78 1265.88,-319.41"/>
<polygon fill="#7f7f7f" stroke="#7f7f7f" points="1267.6,-316.36 1257.28,-313.98 1263.86,-322.28 1267.6,-316.36"/>
<text text-anchor="middle" x="1385.05" y="-405.67" font-family="monospace" font-size="10.00">uses</text>
</g>
<!-- lightning_dack_aggregator::dack_aggregator::AggregatorInner::start&#45;&gt;lightning_dack_aggregator::dack_aggregator::AggregatorInner -->
<g id="edge12" class="edge">
<title>lightning_dack_aggregator::dack_aggregator::AggregatorInner::start&#45;&gt;lightning_dack_aggregator::dack_aggregator::AggregatorInner</title>
<path fill="none" stroke="#7f7f7f" stroke-dasharray="5,2" d="M1533.29,-485.86C1495.06,-473.76 1422.92,-468.8 1373.5,-473.61"/>
<polygon fill="#7f7f7f" stroke="#7f7f7f" points="1372.85,-470.16 1363.31,-474.79 1373.65,-477.12 1372.85,-470.16"/>
<text text-anchor="middle" x="1440.89" y="-471.73" font-family="monospace" font-size="10.00">uses</text>
</g>
<!-- lightning_dack_aggregator::dack_aggregator::DeliveryAcknowledgmentAggregator::Config -->
<g id="node7" class="node">
<title>lightning_dack_aggregator::dack_aggregator::DeliveryAcknowledgmentAggregator::Config</title>
<polygon fill="#db5367" stroke="black" points="693.34,-166.36 693.34,-204.36 1052.34,-204.36 1052.34,-166.36 693.34,-166.36"/>
<text text-anchor="middle" x="872.84" y="-192.36" font-family="monospace" font-size="10.00">pub(self) type</text>
<polyline fill="none" stroke="black" points="693.34,-185.36 1052.34,-185.36 "/>
<text text-anchor="middle" x="872.84" y="-173.36" font-family="monospace" font-size="10.00">dack_aggregator::DeliveryAcknowledgmentAggregator::Config</text>
</g>
<!-- lightning_dack_aggregator::dack_aggregator::DeliveryAcknowledgmentAggregator&#45;&gt;lightning_dack_aggregator::dack_aggregator::DeliveryAcknowledgmentAggregator::Config -->
<g id="edge13" class="edge">
<title>lightning_dack_aggregator::dack_aggregator::DeliveryAcknowledgmentAggregator&#45;&gt;lightning_dack_aggregator::dack_aggregator::DeliveryAcknowledgmentAggregator::Config</title>
<path fill="none" stroke="#000000" d="M577.99,-355.88C637.99,-321.18 765.02,-247.71 831.03,-209.54"/>
<polygon fill="#000000" stroke="#000000" points="833.02,-212.43 839.93,-204.39 829.52,-206.37 833.02,-212.43"/>
<text text-anchor="middle" x="692.01" y="-285.71" font-family="monospace" font-size="10.00">owns</text>
</g>
<!-- lightning_dack_aggregator::dack_aggregator::DeliveryAcknowledgmentAggregator::build_graph -->
<g id="node8" class="node">
<title>lightning_dack_aggregator::dack_aggregator::DeliveryAcknowledgmentAggregator::build_graph</title>
<polygon fill="#db5367" stroke="black" points="0,-219.11 0,-257.11 389,-257.11 389,-219.11 0,-219.11"/>
<text text-anchor="middle" x="194.5" y="-245.11" font-family="monospace" font-size="10.00">pub(self) fn</text>
<polyline fill="none" stroke="black" points="0,-238.11 389,-238.11 "/>
<text text-anchor="middle" x="194.5" y="-226.11" font-family="monospace" font-size="10.00">dack_aggregator::DeliveryAcknowledgmentAggregator::build_graph</text>
</g>
<!-- lightning_dack_aggregator::dack_aggregator::DeliveryAcknowledgmentAggregator&#45;&gt;lightning_dack_aggregator::dack_aggregator::DeliveryAcknowledgmentAggregator::build_graph -->
<g id="edge14" class="edge">
<title>lightning_dack_aggregator::dack_aggregator::DeliveryAcknowledgmentAggregator&#45;&gt;lightning_dack_aggregator::dack_aggregator::DeliveryAcknowledgmentAggregator::build_graph</title>
<path fill="none" stroke="#000000" d="M496.32,-355.9C432.53,-331.01 320.87,-287.43 252.71,-260.83"/>
<polygon fill="#000000" stroke="#000000" points="253.98,-257.57 243.39,-257.19 251.44,-264.09 253.98,-257.57"/>
<text text-anchor="middle" x="362.01" y="-311.37" font-family="monospace" font-size="10.00">owns</text>
</g>
<!-- lightning_dack_aggregator::dack_aggregator::DeliveryAcknowledgmentAggregator::init -->
<g id="node9" class="node">
<title>lightning_dack_aggregator::dack_aggregator::DeliveryAcknowledgmentAggregator::init</title>
<polygon fill="#db5367" stroke="black" points="284.43,-0.5 284.43,-38.5 631.43,-38.5 631.43,-0.5 284.43,-0.5"/>
<text text-anchor="middle" x="457.93" y="-26.5" font-family="monospace" font-size="10.00">pub(self) fn</text>
<polyline fill="none" stroke="black" points="284.43,-19.5 631.43,-19.5 "/>
<text text-anchor="middle" x="457.93" y="-7.5" font-family="monospace" font-size="10.00">dack_aggregator::DeliveryAcknowledgmentAggregator::init</text>
</g>
<!-- lightning_dack_aggregator::dack_aggregator::DeliveryAcknowledgmentAggregator&#45;&gt;lightning_dack_aggregator::dack_aggregator::DeliveryAcknowledgmentAggregator::init -->
<g id="edge15" class="edge">
<title>lightning_dack_aggregator::dack_aggregator::DeliveryAcknowledgmentAggregator&#45;&gt;lightning_dack_aggregator::dack_aggregator::DeliveryAcknowledgmentAggregator::init</title>
<path fill="none" stroke="#000000" d="M552.87,-355.84C557.24,-296.74 514.77,-117.64 481.64,-47.73"/>
<polygon fill="#000000" stroke="#000000" points="484.67,-45.96 477.03,-38.61 478.42,-49.12 484.67,-45.96"/>
<text text-anchor="middle" x="504.75" y="-204.79" font-family="monospace" font-size="10.00">owns</text>
</g>
<!-- lightning_dack_aggregator::dack_aggregator::DeliveryAcknowledgmentAggregator::socket -->
<g id="node10" class="node">
<title>lightning_dack_aggregator::dack_aggregator::DeliveryAcknowledgmentAggregator::socket</title>
<polygon fill="#db5367" stroke="black" points="349.17,-715.8 349.17,-753.8 708.17,-753.8 708.17,-715.8 349.17,-715.8"/>
<text text-anchor="middle" x="528.67" y="-741.8" font-family="monospace" font-size="10.00">pub(self) fn</text>
<polyline fill="none" stroke="black" points="349.17,-734.8 708.17,-734.8 "/>
<text text-anchor="middle" x="528.67" y="-722.8" font-family="monospace" font-size="10.00">dack_aggregator::DeliveryAcknowledgmentAggregator::socket</text>
</g>
<!-- lightning_dack_aggregator::dack_aggregator::DeliveryAcknowledgmentAggregator&#45;&gt;lightning_dack_aggregator::dack_aggregator::DeliveryAcknowledgmentAggregator::socket -->
<g id="edge16" class="edge">
<title>lightning_dack_aggregator::dack_aggregator::DeliveryAcknowledgmentAggregator&#45;&gt;lightning_dack_aggregator::dack_aggregator::DeliveryAcknowledgmentAggregator::socket</title>
<path fill="none" stroke="#000000" d="M531.05,-393.93C510.64,-453.12 501.62,-634.37 514.55,-705.61"/>
<polygon fill="#000000" stroke="#000000" points="511.19,-706.64 516.72,-715.68 518.04,-705.17 511.19,-706.64"/>
<text text-anchor="middle" x="510.3" y="-552.77" font-family="monospace" font-size="10.00">owns</text>
</g>
<!-- lightning_dack_aggregator::dack_aggregator::DeliveryAcknowledgmentAggregator::start -->
<g id="node11" class="node">
<title>lightning_dack_aggregator::dack_aggregator::DeliveryAcknowledgmentAggregator::start</title>
<polygon fill="#db5367" stroke="black" points="49.68,-554.57 49.68,-592.57 402.68,-592.57 402.68,-554.57 49.68,-554.57"/>
<text text-anchor="middle" x="226.18" y="-580.57" font-family="monospace" font-size="10.00">pub(self) async fn</text>
<polyline fill="none" stroke="black" points="49.68,-573.57 402.68,-573.57 "/>
<text text-anchor="middle" x="226.18" y="-561.57" font-family="monospace" font-size="10.00">dack_aggregator::DeliveryAcknowledgmentAggregator::start</text>
</g>
<!-- lightning_dack_aggregator::dack_aggregator::DeliveryAcknowledgmentAggregator&#45;&gt;lightning_dack_aggregator::dack_aggregator::DeliveryAcknowledgmentAggregator::start -->
<g id="edge17" class="edge">
<title>lightning_dack_aggregator::dack_aggregator::DeliveryAcknowledgmentAggregator&#45;&gt;lightning_dack_aggregator::dack_aggregator::DeliveryAcknowledgmentAggregator::start</title>
<path fill="none" stroke="#000000" d="M473.24,-394.11C396.96,-431.12 282.5,-505.15 241.05,-546.94"/>
<polygon fill="#000000" stroke="#000000" points="238.42,-544.64 234.19,-554.35 243.55,-549.39 238.42,-544.64"/>
<text text-anchor="middle" x="344.64" y="-473.52" font-family="monospace" font-size="10.00">owns</text>
</g>
<!-- lightning_dack_aggregator::dack_aggregator::DeliveryAcknowledgmentAggregator::Config&#45;&gt;lightning_dack_aggregator::config::Config -->
<g id="edge18" class="edge">
<title>lightning_dack_aggregator::dack_aggregator::DeliveryAcknowledgmentAggregator::Config&#45;&gt;lightning_dack_aggregator::config::Config</title>
<path fill="none" stroke="#7f7f7f" stroke-dasharray="5,2" d="M934.53,-204.43C999.76,-224.6 1101.99,-256.2 1166.7,-276.2"/>
<polygon fill="#7f7f7f" stroke="#7f7f7f" points="1165.77,-279.58 1176.36,-279.19 1167.84,-272.89 1165.77,-279.58"/>
<text text-anchor="middle" x="1038.12" y="-243.32" font-family="monospace" font-size="10.00">uses</text>
</g>
<!-- lightning_dack_aggregator::dack_aggregator::DeliveryAcknowledgmentAggregator::init&#45;&gt;lightning_dack_aggregator::dack_aggregator::DeliveryAcknowledgmentAggregator -->
<g id="edge19" class="edge">
<title>lightning_dack_aggregator::dack_aggregator::DeliveryAcknowledgmentAggregator::init&#45;&gt;lightning_dack_aggregator::dack_aggregator::DeliveryAcknowledgmentAggregator</title>
<path fill="none" stroke="#7f7f7f" stroke-dasharray="5,2" d="M450.12,-38.58C445.74,-97.68 488.22,-276.78 521.35,-346.69"/>
<polygon fill="#7f7f7f" stroke="#7f7f7f" points="518.32,-348.46 525.95,-355.81 524.57,-345.31 518.32,-348.46"/>
<text text-anchor="middle" x="473.23" y="-195.64" font-family="monospace" font-size="10.00">uses</text>
</g>
<!-- lightning_dack_aggregator::dack_aggregator::DeliveryAcknowledgmentAggregator::socket&#45;&gt;lightning_dack_aggregator::dack_aggregator::DeliveryAcknowledgmentAggregator -->
<g id="edge20" class="edge">
<title>lightning_dack_aggregator::dack_aggregator::DeliveryAcknowledgmentAggregator::socket&#45;&gt;lightning_dack_aggregator::dack_aggregator::DeliveryAcknowledgmentAggregator</title>
<path fill="none" stroke="#7f7f7f" stroke-dasharray="5,2" d="M542.67,-715.79C563.08,-656.61 572.11,-475.36 559.18,-404.11"/>
<polygon fill="#7f7f7f" stroke="#7f7f7f" points="562.53,-403.08 557.01,-394.04 555.69,-404.55 562.53,-403.08"/>
<text text-anchor="middle" x="538.42" y="-562.95" font-family="monospace" font-size="10.00">uses</text>
</g>
<!-- lightning_dack_aggregator::dack_aggregator::DeliveryAcknowledgmentAggregator::start&#45;&gt;lightning_dack_aggregator::dack_aggregator::DeliveryAcknowledgmentAggregator -->
<g id="edge21" class="edge">
<title>lightning_dack_aggregator::dack_aggregator::DeliveryAcknowledgmentAggregator::start&#45;&gt;lightning_dack_aggregator::dack_aggregator::DeliveryAcknowledgmentAggregator</title>
<path fill="none" stroke="#7f7f7f" stroke-dasharray="5,2" d="M298,-554.38C374.28,-517.37 488.74,-443.34 530.19,-401.55"/>
<polygon fill="#7f7f7f" stroke="#7f7f7f" points="532.82,-403.86 537.05,-394.14 527.69,-399.1 532.82,-403.86"/>
<text text-anchor="middle" x="401.6" y="-480.97" font-family="monospace" font-size="10.00">uses</text>
</g>
</g>
</svg>
