<?xml version="1.0" encoding="UTF-8" standalone="no"?>
<!DOCTYPE svg PUBLIC "-//W3C//DTD SVG 1.1//EN"
 "http://www.w3.org/Graphics/SVG/1.1/DTD/svg11.dtd">
<!-- Generated by graphviz version 4.0.0 (0)
 -->
<!-- Pages: 1 -->
<svg width="559pt" height="521pt"
 viewBox="0.00 0.00 559.26 520.64" xmlns="http://www.w3.org/2000/svg" xmlns:xlink="http://www.w3.org/1999/xlink">
<g id="graph0" class="graph" transform="scale(1 1) rotate(0) translate(28.8 491.84)">
<polygon fill="white" stroke="transparent" points="-28.8,28.8 -28.8,-491.84 530.46,-491.84 530.46,28.8 -28.8,28.8"/>
<text text-anchor="middle" x="250.83" y="-430.24" font-family="Helvetica,sans-Serif" font-size="36.00">lightning_topology</text>
<!-- lightning_topology -->
<g id="node1" class="node">
<title>lightning_topology</title>
<polygon fill="#5397c8" stroke="black" points="108.41,-235.52 108.41,-273.52 233.41,-273.52 233.41,-235.52 108.41,-235.52"/>
<text text-anchor="middle" x="170.91" y="-261.52" font-family="monospace" font-size="10.00">crate</text>
<polyline fill="none" stroke="black" points="108.41,-254.52 233.41,-254.52 "/>
<text text-anchor="middle" x="170.91" y="-242.52" font-family="monospace" font-size="10.00">lightning_topology</text>
</g>
<!-- lightning_topology::clustering -->
<g id="node2" class="node">
<title>lightning_topology::clustering</title>
<polygon fill="#81c169" stroke="black" points="153.83,-188.52 153.83,-226.52 350.83,-226.52 350.83,-188.52 153.83,-188.52"/>
<text text-anchor="middle" x="252.33" y="-214.52" font-family="monospace" font-size="10.00">pub mod</text>
<polyline fill="none" stroke="black" points="153.83,-207.52 350.83,-207.52 "/>
<text text-anchor="middle" x="252.33" y="-195.52" font-family="monospace" font-size="10.00">lightning_topology::clustering</text>
</g>
<!-- lightning_topology&#45;&gt;lightning_topology::clustering -->
<g id="edge1" class="edge">
<title>lightning_topology&#45;&gt;lightning_topology::clustering</title>
<path fill="none" stroke="#000000" d="M204.03,-235.4C206.07,-234.23 208.13,-233.04 210.2,-231.84"/>
<polygon fill="#000000" stroke="#000000" points="212.33,-234.65 219.24,-226.62 208.83,-228.59 212.33,-234.65"/>
<text text-anchor="middle" x="194.62" y="-225.62" font-family="monospace" font-size="10.00">owns</text>
</g>
<!-- lightning_topology::config -->
<g id="node3" class="node">
<title>lightning_topology::config</title>
<polygon fill="#81c169" stroke="black" points="328.66,-282.53 328.66,-320.53 501.66,-320.53 501.66,-282.53 328.66,-282.53"/>
<text text-anchor="middle" x="415.16" y="-308.53" font-family="monospace" font-size="10.00">pub mod</text>
<polyline fill="none" stroke="black" points="328.66,-301.53 501.66,-301.53 "/>
<text text-anchor="middle" x="415.16" y="-289.53" font-family="monospace" font-size="10.00">lightning_topology::config</text>
</g>
<!-- lightning_topology&#45;&gt;lightning_topology::config -->
<g id="edge2" class="edge">
<title>lightning_topology&#45;&gt;lightning_topology::config</title>
<path fill="none" stroke="#000000" d="M187.94,-273.74C215.03,-288.65 269.63,-302.75 318.53,-309.65"/>
<polygon fill="#000000" stroke="#000000" points="318.18,-313.14 328.55,-310.98 319.09,-306.2 318.18,-313.14"/>
<text text-anchor="middle" x="240.74" y="-294.69" font-family="monospace" font-size="10.00">owns</text>
</g>
<!-- lightning_topology&#45;&gt;lightning_topology::config -->
<g id="edge3" class="edge">
<title>lightning_topology&#45;&gt;lightning_topology::config</title>
<path fill="none" stroke="#7f7f7f" stroke-dasharray="5,2" d="M233.53,-242.75C284.04,-246.22 352.46,-261.12 389.27,-277.9"/>
<polygon fill="#7f7f7f" stroke="#7f7f7f" points="387.84,-281.1 398.35,-282.44 390.97,-274.84 387.84,-281.1"/>
<text text-anchor="middle" x="298.9" y="-263.32" font-family="monospace" font-size="10.00">uses</text>
</g>
<!-- lightning_topology::core -->
<g id="node4" class="node">
<title>lightning_topology::core</title>
<polygon fill="#f8c04c" stroke="black" points="171.83,-376.54 171.83,-414.54 332.83,-414.54 332.83,-376.54 171.83,-376.54"/>
<text text-anchor="middle" x="252.33" y="-402.54" font-family="monospace" font-size="10.00">pub(crate) mod</text>
<polyline fill="none" stroke="black" points="171.83,-395.54 332.83,-395.54 "/>
<text text-anchor="middle" x="252.33" y="-383.54" font-family="monospace" font-size="10.00">lightning_topology::core</text>
</g>
<!-- lightning_topology&#45;&gt;lightning_topology::core -->
<g id="edge4" class="edge">
<title>lightning_topology&#45;&gt;lightning_topology::core</title>
<path fill="none" stroke="#000000" d="M164.01,-273.58C165.47,-298.59 186.25,-340.57 208.48,-368.55"/>
<polygon fill="#000000" stroke="#000000" points="205.97,-371 215.08,-376.4 211.32,-366.49 205.97,-371"/>
<text text-anchor="middle" x="173.74" y="-324.06" font-family="monospace" font-size="10.00">owns</text>
</g>
<!-- lightning_topology&#45;&gt;lightning_topology::core -->
<g id="edge5" class="edge">
<title>lightning_topology&#45;&gt;lightning_topology::core</title>
<path fill="none" stroke="#7f7f7f" stroke-dasharray="5,2" d="M208.25,-273.76C229.95,-298.01 251.92,-338.3 257.8,-366.27"/>
<polygon fill="#7f7f7f" stroke="#7f7f7f" points="254.36,-366.92 259.23,-376.33 261.29,-365.94 254.36,-366.92"/>
<text text-anchor="middle" x="220.52" y="-323.02" font-family="monospace" font-size="10.00">uses</text>
</g>
<!-- lightning_topology::divisive -->
<g id="node5" class="node">
<title>lightning_topology::divisive</title>
<polygon fill="#81c169" stroke="black" points="241.24,-141.51 241.24,-179.51 426.24,-179.51 426.24,-141.51 241.24,-141.51"/>
<text text-anchor="middle" x="333.74" y="-167.51" font-family="monospace" font-size="10.00">pub mod</text>
<polyline fill="none" stroke="black" points="241.24,-160.51 426.24,-160.51 "/>
<text text-anchor="middle" x="333.74" y="-148.51" font-family="monospace" font-size="10.00">lightning_topology::divisive</text>
</g>
<!-- lightning_topology&#45;&gt;lightning_topology::divisive -->
<g id="edge6" class="edge">
<title>lightning_topology&#45;&gt;lightning_topology::divisive</title>
<path fill="none" stroke="#000000" d="M203.87,-235.5C229.16,-220.89 264.28,-200.62 291.61,-184.84"/>
<polygon fill="#000000" stroke="#000000" points="293.65,-187.7 300.56,-179.67 290.15,-181.64 293.65,-187.7"/>
<text text-anchor="middle" x="235.24" y="-213.17" font-family="monospace" font-size="10.00">owns</text>
</g>
<!-- lightning_topology::pairing -->
<g id="node6" class="node">
<title>lightning_topology::pairing</title>
<polygon fill="#81c169" stroke="black" points="0,-282.53 0,-320.53 179,-320.53 179,-282.53 0,-282.53"/>
<text text-anchor="middle" x="89.5" y="-308.53" font-family="monospace" font-size="10.00">pub mod</text>
<polyline fill="none" stroke="black" points="0,-301.53 179,-301.53 "/>
<text text-anchor="middle" x="89.5" y="-289.53" font-family="monospace" font-size="10.00">lightning_topology::pairing</text>
</g>
<!-- lightning_topology&#45;&gt;lightning_topology::pairing -->
<g id="edge7" class="edge">
<title>lightning_topology&#45;&gt;lightning_topology::pairing</title>
<path fill="none" stroke="#000000" d="M137.8,-273.64C135.76,-274.82 133.7,-276.01 131.63,-277.21"/>
<polygon fill="#000000" stroke="#000000" points="129.5,-274.4 122.59,-282.43 133,-280.46 129.5,-274.4"/>
<text text-anchor="middle" x="122.21" y="-278.42" font-family="monospace" font-size="10.00">owns</text>
</g>
<!-- tokio::sync::mpsc -->
<g id="node7" class="node">
<title>tokio::sync::mpsc</title>
<polygon fill="#81c169" stroke="black" points="30,-94.51 30,-132.51 149,-132.51 149,-94.51 30,-94.51"/>
<text text-anchor="middle" x="89.5" y="-120.51" font-family="monospace" font-size="10.00">external mod</text>
<polyline fill="none" stroke="black" points="30,-113.51 149,-113.51 "/>
<text text-anchor="middle" x="89.5" y="-101.51" font-family="monospace" font-size="10.00">tokio::sync::mpsc</text>
</g>
<!-- lightning_topology&#45;&gt;tokio::sync::mpsc -->
<g id="edge8" class="edge">
<title>lightning_topology&#45;&gt;tokio::sync::mpsc</title>
<path fill="none" stroke="#7f7f7f" stroke-dasharray="5,2" d="M159.93,-235.51C145.97,-211.33 121.76,-169.38 105.68,-141.53"/>
<polygon fill="#7f7f7f" stroke="#7f7f7f" points="108.6,-139.59 100.57,-132.68 102.53,-143.09 108.6,-139.59"/>
<text text-anchor="middle" x="120.31" y="-191.52" font-family="monospace" font-size="10.00">uses</text>
</g>
<!-- tokio::sync::watch -->
<g id="node8" class="node">
<title>tokio::sync::watch</title>
<polygon fill="#81c169" stroke="black" points="189.83,-0.5 189.83,-38.5 314.83,-38.5 314.83,-0.5 189.83,-0.5"/>
<text text-anchor="middle" x="252.33" y="-26.5" font-family="monospace" font-size="10.00">external mod</text>
<polyline fill="none" stroke="black" points="189.83,-19.5 314.83,-19.5 "/>
<text text-anchor="middle" x="252.33" y="-7.5" font-family="monospace" font-size="10.00">tokio::sync::watch</text>
</g>
<!-- lightning_topology&#45;&gt;tokio::sync::watch -->
<g id="edge9" class="edge">
<title>lightning_topology&#45;&gt;tokio::sync::watch</title>
<path fill="none" stroke="#7f7f7f" stroke-dasharray="5,2" d="M177.58,-235.29C191.87,-194.04 225.52,-96.89 242.36,-48.27"/>
<polygon fill="#7f7f7f" stroke="#7f7f7f" points="245.72,-49.26 245.69,-38.67 239.11,-46.97 245.72,-49.26"/>
<text text-anchor="middle" x="197.47" y="-144.78" font-family="monospace" font-size="10.00">uses</text>
</g>
<!-- lightning_topology::core&#45;&gt;lightning_topology::divisive -->
<g id="edge10" class="edge">
<title>lightning_topology::core&#45;&gt;lightning_topology::divisive</title>
<path fill="none" stroke="#7f7f7f" stroke-dasharray="5,2" d="M258.99,-376.3C273.28,-335.06 306.93,-237.91 323.78,-189.28"/>
<polygon fill="#7f7f7f" stroke="#7f7f7f" points="327.14,-190.28 327.1,-179.68 320.52,-187.99 327.14,-190.28"/>
<text text-anchor="middle" x="278.88" y="-285.79" font-family="monospace" font-size="10.00">uses</text>
</g>
<!-- lightning_topology::divisive&#45;&gt;lightning_topology::clustering -->
<g id="edge11" class="edge">
<title>lightning_topology::divisive&#45;&gt;lightning_topology::clustering</title>
<path fill="none" stroke="#7f7f7f" stroke-dasharray="5,2" d="M300.63,-179.63C298.59,-180.81 296.53,-182 294.46,-183.2"/>
<polygon fill="#7f7f7f" stroke="#7f7f7f" points="292.32,-180.39 285.41,-188.42 295.82,-186.45 292.32,-180.39"/>
<text text-anchor="middle" x="285.04" y="-184.42" font-family="monospace" font-size="10.00">uses</text>
</g>
<!-- lightning_topology::divisive&#45;&gt;lightning_topology::pairing -->
<g id="edge12" class="edge">
<title>lightning_topology::divisive&#45;&gt;lightning_topology::pairing</title>
<path fill="none" stroke="#7f7f7f" stroke-dasharray="5,2" d="M300.8,-179.53C257.01,-204.82 179.57,-249.52 131.59,-277.23"/>
<polygon fill="#7f7f7f" stroke="#7f7f7f" points="129.61,-274.33 122.7,-282.36 133.11,-280.39 129.61,-274.33"/>
<text text-anchor="middle" x="228.7" y="-231.38" font-family="monospace" font-size="10.00">uses</text>
</g>
</g>
</svg>
