<?xml version="1.0" encoding="UTF-8" standalone="no"?>
<!DOCTYPE svg PUBLIC "-//W3C//DTD SVG 1.1//EN"
 "http://www.w3.org/Graphics/SVG/1.1/DTD/svg11.dtd">
<!-- Generated by graphviz version 4.0.0 (0)
 -->
<!-- Pages: 1 -->
<svg width="1326pt" height="3214pt"
 viewBox="0.00 0.00 1325.60 3213.60" xmlns="http://www.w3.org/2000/svg" xmlns:xlink="http://www.w3.org/1999/xlink">
<g id="graph0" class="graph" transform="scale(1 1) rotate(0) translate(28.8 3184.8)">
<polygon fill="white" stroke="transparent" points="-28.8,28.8 -28.8,-3184.8 1296.8,-3184.8 1296.8,28.8 -28.8,28.8"/>
<text text-anchor="middle" x="634" y="-3123.2" font-family="Helvetica,sans-Serif" font-size="36.00">lightning_origin_demuxer</text>
<!-- fdi -->
<g id="node1" class="node">
<title>fdi</title>
<polygon fill="#5397c8" stroke="black" points="159,-3069.5 159,-3107.5 260,-3107.5 260,-3069.5 159,-3069.5"/>
<text text-anchor="middle" x="209.5" y="-3095.5" font-family="monospace" font-size="10.00">external crate</text>
<polyline fill="none" stroke="black" points="159,-3088.5 260,-3088.5 "/>
<text text-anchor="middle" x="209.5" y="-3076.5" font-family="monospace" font-size="10.00">fdi</text>
</g>
<!-- lightning_origin_demuxer -->
<g id="node2" class="node">
<title>lightning_origin_demuxer</title>
<polygon fill="#5397c8" stroke="black" points="129,-1590.5 129,-1628.5 290,-1628.5 290,-1590.5 129,-1590.5"/>
<text text-anchor="middle" x="209.5" y="-1616.5" font-family="monospace" font-size="10.00">crate</text>
<polyline fill="none" stroke="black" points="129,-1609.5 290,-1609.5 "/>
<text text-anchor="middle" x="209.5" y="-1597.5" font-family="monospace" font-size="10.00">lightning_origin_demuxer</text>
</g>
<!-- lightning_origin_demuxer&#45;&gt;fdi -->
<g id="edge1" class="edge">
<title>lightning_origin_demuxer&#45;&gt;fdi</title>
</g>
<!-- lightning_origin_demuxer::config -->
<g id="node3" class="node">
<title>lightning_origin_demuxer::config</title>
<polygon fill="#f8c04c" stroke="black" points="1056,-2316.5 1056,-2354.5 1265,-2354.5 1265,-2316.5 1056,-2316.5"/>
<text text-anchor="middle" x="1160.5" y="-2342.5" font-family="monospace" font-size="10.00">pub(crate) mod</text>
<polyline fill="none" stroke="black" points="1056,-2335.5 1265,-2335.5 "/>
<text text-anchor="middle" x="1160.5" y="-2323.5" font-family="monospace" font-size="10.00">lightning_origin_demuxer::config</text>
</g>
<!-- lightning_origin_demuxer&#45;&gt;lightning_origin_demuxer::config -->
<g id="edge2" class="edge">
<title>lightning_origin_demuxer&#45;&gt;lightning_origin_demuxer::config</title>
<path fill="none" stroke="#000000" d="M226.03,-1628.62C307.13,-1722.44 659,-2129.5 659,-2129.5 659,-2129.5 974.1,-2258.93 1104.76,-2312.61"/>
<polygon fill="#000000" stroke="#000000" points="1103.64,-2315.93 1114.22,-2316.49 1106.3,-2309.45 1103.64,-2315.93"/>
<text text-anchor="middle" x="671.5" y="-2132.5" font-family="monospace" font-size="10.00">owns</text>
</g>
<!-- lightning_origin_demuxer&#45;&gt;lightning_origin_demuxer::config -->
<g id="edge3" class="edge">
<title>lightning_origin_demuxer&#45;&gt;lightning_origin_demuxer::config</title>
<path fill="none" stroke="#7f7f7f" stroke-dasharray="5,2" d="M262.55,-1628.51C386.37,-1672.87 684,-1779.5 684,-1779.5 684,-1779.5 1042.16,-2197.42 1137.45,-2308.6"/>
<polygon fill="#7f7f7f" stroke="#7f7f7f" points="1134.93,-2311.05 1144.1,-2316.36 1140.25,-2306.49 1134.93,-2311.05"/>
<text text-anchor="middle" x="671.5" y="-1771.5" font-family="monospace" font-size="10.00">uses</text>
</g>
<!-- lightning_origin_demuxer::demuxer -->
<g id="node4" class="node">
<title>lightning_origin_demuxer::demuxer</title>
<polygon fill="#f8c04c" stroke="black" points="1053,-837.5 1053,-875.5 1268,-875.5 1268,-837.5 1053,-837.5"/>
<text text-anchor="middle" x="1160.5" y="-863.5" font-family="monospace" font-size="10.00">pub(crate) mod</text>
<polyline fill="none" stroke="black" points="1053,-856.5 1268,-856.5 "/>
<text text-anchor="middle" x="1160.5" y="-844.5" font-family="monospace" font-size="10.00">lightning_origin_demuxer::demuxer</text>
</g>
<!-- lightning_origin_demuxer&#45;&gt;lightning_origin_demuxer::demuxer -->
<g id="edge4" class="edge">
<title>lightning_origin_demuxer&#45;&gt;lightning_origin_demuxer::demuxer</title>
<path fill="none" stroke="#000000" d="M232.39,-1590.35C327.17,-1511.05 684,-1212.5 684,-1212.5 684,-1212.5 1018.26,-962.77 1126.86,-881.63"/>
<polygon fill="#000000" stroke="#000000" points="1128.97,-884.43 1134.88,-875.64 1124.78,-878.82 1128.97,-884.43"/>
<text text-anchor="middle" x="671.5" y="-1204.5" font-family="monospace" font-size="10.00">owns</text>
</g>
<!-- lightning_origin_demuxer&#45;&gt;lightning_origin_demuxer::demuxer -->
<g id="edge5" class="edge">
<title>lightning_origin_demuxer&#45;&gt;lightning_origin_demuxer::demuxer</title>
<path fill="none" stroke="#7f7f7f" stroke-dasharray="5,2" d="M225.83,-1590.5C309.27,-1493.44 684,-1057.5 684,-1057.5 684,-1057.5 980.64,-932.37 1105.82,-879.57"/>
<polygon fill="#7f7f7f" stroke="#7f7f7f" points="1107.39,-882.7 1115.24,-875.59 1104.67,-876.25 1107.39,-882.7"/>
<text text-anchor="middle" x="671.5" y="-1049.5" font-family="monospace" font-size="10.00">uses</text>
</g>
<!-- lightning_schema -->
<g id="node5" class="node">
<title>lightning_schema</title>
<polygon fill="#5397c8" stroke="black" points="153,-111.5 153,-149.5 266,-149.5 266,-111.5 153,-111.5"/>
<text text-anchor="middle" x="209.5" y="-137.5" font-family="monospace" font-size="10.00">external crate</text>
<polyline fill="none" stroke="black" points="153,-130.5 266,-130.5 "/>
<text text-anchor="middle" x="209.5" y="-118.5" font-family="monospace" font-size="10.00">lightning_schema</text>
</g>
<!-- lightning_origin_demuxer&#45;&gt;lightning_schema -->
<g id="edge6" class="edge">
<title>lightning_origin_demuxer&#45;&gt;lightning_schema</title>
</g>
<!-- lightning_types -->
<g id="node6" class="node">
<title>lightning_types</title>
<polygon fill="#5397c8" stroke="black" points="156,-0.5 156,-38.5 263,-38.5 263,-0.5 156,-0.5"/>
<text text-anchor="middle" x="209.5" y="-26.5" font-family="monospace" font-size="10.00">external crate</text>
<polyline fill="none" stroke="black" points="156,-19.5 263,-19.5 "/>
<text text-anchor="middle" x="209.5" y="-7.5" font-family="monospace" font-size="10.00">lightning_types</text>
</g>
<!-- lightning_origin_demuxer&#45;&gt;lightning_types -->
<g id="edge7" class="edge">
<title>lightning_origin_demuxer&#45;&gt;lightning_types</title>
<path fill="none" stroke="#7f7f7f" stroke-dasharray="5,2" d="M206.51,-1590.24C187.65,-1468.83 86,-814.5 86,-814.5 86,-814.5 182.55,-192.97 204.91,-49.02"/>
<polygon fill="#7f7f7f" stroke="#7f7f7f" points="208.43,-49.18 206.51,-38.76 201.51,-48.1 208.43,-49.18"/>
<text text-anchor="middle" x="80.5" y="-812" font-family="monospace" font-size="10.00">uses</text>
</g>
<!-- lightning_origin_demuxer::demuxer&#45;&gt;lightning_origin_demuxer::config -->
<g id="edge8" class="edge">
<title>lightning_origin_demuxer::demuxer&#45;&gt;lightning_origin_demuxer::config</title>
</g>
</g>
</svg>
