<?xml version="1.0" encoding="UTF-8" standalone="no"?>
<!DOCTYPE svg PUBLIC "-//W3C//DTD SVG 1.1//EN"
 "http://www.w3.org/Graphics/SVG/1.1/DTD/svg11.dtd">
<!-- Generated by graphviz version 4.0.0 (0)
 -->
<!-- Pages: 1 -->
<svg width="2031pt" height="2295pt"
 viewBox="0.00 0.00 2030.60 2295.10" xmlns="http://www.w3.org/2000/svg" xmlns:xlink="http://www.w3.org/1999/xlink">
<g id="graph0" class="graph" transform="scale(1 1) rotate(0) translate(28.8 2266.3)">
<polygon fill="white" stroke="transparent" points="-28.8,28.8 -28.8,-2266.3 2001.8,-2266.3 2001.8,28.8 -28.8,28.8"/>
<text text-anchor="middle" x="986.5" y="-2204.7" font-family="Helvetica,sans-Serif" font-size="36.00">lightning_origin_demuxer</text>
<!-- lightning_origin_demuxer -->
<g id="node1" class="node">
<title>lightning_origin_demuxer</title>
<polygon fill="#5397c8" stroke="black" points="0,-1192 0,-1230 161,-1230 161,-1192 0,-1192"/>
<text text-anchor="middle" x="80.5" y="-1218" font-family="monospace" font-size="10.00">crate</text>
<polyline fill="none" stroke="black" points="0,-1211 161,-1211 "/>
<text text-anchor="middle" x="80.5" y="-1199" font-family="monospace" font-size="10.00">lightning_origin_demuxer</text>
</g>
<!-- lightning_origin_demuxer::OriginDemuxer -->
<g id="node2" class="node">
<title>lightning_origin_demuxer::OriginDemuxer</title>
<polygon fill="#81c169" stroke="black" points="933,-1841 933,-1879 1028,-1879 1028,-1841 933,-1841"/>
<text text-anchor="middle" x="980.5" y="-1867" font-family="monospace" font-size="10.00">pub struct</text>
<polyline fill="none" stroke="black" points="933,-1860 1028,-1860 "/>
<text text-anchor="middle" x="980.5" y="-1848" font-family="monospace" font-size="10.00">OriginDemuxer</text>
</g>
<!-- lightning_origin_demuxer&#45;&gt;lightning_origin_demuxer::OriginDemuxer -->
<g id="edge1" class="edge">
<title>lightning_origin_demuxer&#45;&gt;lightning_origin_demuxer::OriginDemuxer</title>
<path fill="none" stroke="#000000" d="M101.88,-1230.12C191.21,-1310.01 530,-1613 530,-1613 530,-1613 823.56,-1773.95 936.74,-1836.01"/>
<polygon fill="#000000" stroke="#000000" points="935.07,-1839.09 945.52,-1840.82 938.44,-1832.95 935.07,-1839.09"/>
<text text-anchor="middle" x="542.5" y="-1616" font-family="monospace" font-size="10.00">owns</text>
</g>
<!-- lightning_origin_demuxer::config::Config -->
<g id="node7" class="node">
<title>lightning_origin_demuxer::config::Config</title>
<polygon fill="#81c169" stroke="black" points="930,-1192 930,-1230 1031,-1230 1031,-1192 930,-1192"/>
<text text-anchor="middle" x="980.5" y="-1218" font-family="monospace" font-size="10.00">pub struct</text>
<polyline fill="none" stroke="black" points="930,-1211 1031,-1211 "/>
<text text-anchor="middle" x="980.5" y="-1199" font-family="monospace" font-size="10.00">config::Config</text>
</g>
<!-- lightning_origin_demuxer&#45;&gt;lightning_origin_demuxer::config::Config -->
<g id="edge2" class="edge">
<title>lightning_origin_demuxer&#45;&gt;lightning_origin_demuxer::config::Config</title>
<path fill="none" stroke="#000000" d="M161.12,-1211C290.47,-1211 530,-1211 530,-1211 530,-1211 796.68,-1211 919.67,-1211"/>
<polygon fill="#000000" stroke="#000000" points="919.7,-1214.5 929.7,-1211 919.7,-1207.5 919.7,-1214.5"/>
<text text-anchor="middle" x="542.5" y="-1214" font-family="monospace" font-size="10.00">owns</text>
</g>
<!-- lightning_origin_demuxer&#45;&gt;lightning_origin_demuxer::config::Config -->
<g id="edge3" class="edge">
<title>lightning_origin_demuxer&#45;&gt;lightning_origin_demuxer::config::Config</title>
<path fill="none" stroke="#7f7f7f" stroke-dasharray="5,2" d="M134.93,-1191.96C259.57,-1148.35 555,-1045 555,-1045 555,-1045 805.63,-1142.78 922.19,-1188.25"/>
<polygon fill="#7f7f7f" stroke="#7f7f7f" points="921.1,-1191.58 931.69,-1191.96 923.65,-1185.06 921.1,-1191.58"/>
<text text-anchor="middle" x="542.5" y="-1037" font-family="monospace" font-size="10.00">uses</text>
</g>
<!-- lightning_origin_demuxer::demuxer::Demuxer -->
<g id="node8" class="node">
<title>lightning_origin_demuxer::demuxer::Demuxer</title>
<polygon fill="#81c169" stroke="black" points="924,-601 924,-639 1037,-639 1037,-601 924,-601"/>
<text text-anchor="middle" x="980.5" y="-627" font-family="monospace" font-size="10.00">pub struct</text>
<polyline fill="none" stroke="black" points="924,-620 1037,-620 "/>
<text text-anchor="middle" x="980.5" y="-608" font-family="monospace" font-size="10.00">demuxer::Demuxer</text>
</g>
<!-- lightning_origin_demuxer&#45;&gt;lightning_origin_demuxer::demuxer::Demuxer -->
<g id="edge4" class="edge">
<title>lightning_origin_demuxer&#45;&gt;lightning_origin_demuxer::demuxer::Demuxer</title>
<path fill="none" stroke="#000000" d="M105.34,-1191.89C202.98,-1116.79 555,-846 555,-846 555,-846 825.98,-702.07 935.44,-643.93"/>
<polygon fill="#000000" stroke="#000000" points="937.4,-646.86 944.59,-639.07 934.12,-640.67 937.4,-646.86"/>
<text text-anchor="middle" x="542.5" y="-838" font-family="monospace" font-size="10.00">owns</text>
</g>
<!-- lightning_origin_demuxer&#45;&gt;lightning_origin_demuxer::demuxer::Demuxer -->
<g id="edge5" class="edge">
<title>lightning_origin_demuxer&#45;&gt;lightning_origin_demuxer::demuxer::Demuxer</title>
<path fill="none" stroke="#7f7f7f" stroke-dasharray="5,2" d="M97.95,-1191.88C183.56,-1098.06 555,-691 555,-691 555,-691 794.11,-651.1 913.84,-631.12"/>
<polygon fill="#7f7f7f" stroke="#7f7f7f" points="914.71,-634.53 924,-629.43 913.56,-627.62 914.71,-634.53"/>
<text text-anchor="middle" x="542.5" y="-683" font-family="monospace" font-size="10.00">uses</text>
</g>
<!-- lightning_origin_demuxer::OriginDemuxer::Config -->
<g id="node3" class="node">
<title>lightning_origin_demuxer::OriginDemuxer::Config</title>
<polygon fill="#f8c04c" stroke="black" points="1815,-2151 1815,-2189 1958,-2189 1958,-2151 1815,-2151"/>
<text text-anchor="middle" x="1886.5" y="-2177" font-family="monospace" font-size="10.00">pub(crate) type</text>
<polyline fill="none" stroke="black" points="1815,-2170 1958,-2170 "/>
<text text-anchor="middle" x="1886.5" y="-2158" font-family="monospace" font-size="10.00">OriginDemuxer::Config</text>
</g>
<!-- lightning_origin_demuxer::OriginDemuxer&#45;&gt;lightning_origin_demuxer::OriginDemuxer::Config -->
<g id="edge6" class="edge">
<title>lightning_origin_demuxer::OriginDemuxer&#45;&gt;lightning_origin_demuxer::OriginDemuxer::Config</title>
<path fill="none" stroke="#000000" d="M1006.8,-1879.16C1099.56,-1946.74 1406,-2170 1406,-2170 1406,-2170 1667.62,-2170 1804.77,-2170"/>
<polygon fill="#000000" stroke="#000000" points="1804.82,-2173.5 1814.82,-2170 1804.82,-2166.5 1804.82,-2173.5"/>
<text text-anchor="middle" x="1418.5" y="-2173" font-family="monospace" font-size="10.00">owns</text>
</g>
<!-- lightning_origin_demuxer::OriginDemuxer::build_graph -->
<g id="node4" class="node">
<title>lightning_origin_demuxer::OriginDemuxer::build_graph</title>
<polygon fill="#f8c04c" stroke="black" points="1800,-1996 1800,-2034 1973,-2034 1973,-1996 1800,-1996"/>
<text text-anchor="middle" x="1886.5" y="-2022" font-family="monospace" font-size="10.00">pub(crate) fn</text>
<polyline fill="none" stroke="black" points="1800,-2015 1973,-2015 "/>
<text text-anchor="middle" x="1886.5" y="-2003" font-family="monospace" font-size="10.00">OriginDemuxer::build_graph</text>
</g>
<!-- lightning_origin_demuxer::OriginDemuxer&#45;&gt;lightning_origin_demuxer::OriginDemuxer::build_graph -->
<g id="edge7" class="edge">
<title>lightning_origin_demuxer::OriginDemuxer&#45;&gt;lightning_origin_demuxer::OriginDemuxer::build_graph</title>
<path fill="none" stroke="#000000" d="M1028.07,-1877.33C1139.1,-1917.78 1406,-2015 1406,-2015 1406,-2015 1649.04,-2015 1789.42,-2015"/>
<polygon fill="#000000" stroke="#000000" points="1789.76,-2018.5 1799.76,-2015 1789.76,-2011.5 1789.76,-2018.5"/>
<text text-anchor="middle" x="1418.5" y="-2018" font-family="monospace" font-size="10.00">owns</text>
</g>
<!-- lightning_origin_demuxer::OriginDemuxer::get_socket -->
<g id="node5" class="node">
<title>lightning_origin_demuxer::OriginDemuxer::get_socket</title>
<polygon fill="#f8c04c" stroke="black" points="1803,-1841 1803,-1879 1970,-1879 1970,-1841 1803,-1841"/>
<text text-anchor="middle" x="1886.5" y="-1867" font-family="monospace" font-size="10.00">pub(crate) fn</text>
<polyline fill="none" stroke="black" points="1803,-1860 1970,-1860 "/>
<text text-anchor="middle" x="1886.5" y="-1848" font-family="monospace" font-size="10.00">OriginDemuxer::get_socket</text>
</g>
<!-- lightning_origin_demuxer::OriginDemuxer&#45;&gt;lightning_origin_demuxer::OriginDemuxer::get_socket -->
<g id="edge8" class="edge">
<title>lightning_origin_demuxer::OriginDemuxer&#45;&gt;lightning_origin_demuxer::OriginDemuxer::get_socket</title>
<path fill="none" stroke="#000000" d="M1028.07,-1860C1139.1,-1860 1406,-1860 1406,-1860 1406,-1860 1652.64,-1860 1792.51,-1860"/>
<polygon fill="#000000" stroke="#000000" points="1792.8,-1863.5 1802.8,-1860 1792.8,-1856.5 1792.8,-1863.5"/>
<text text-anchor="middle" x="1418.5" y="-1863" font-family="monospace" font-size="10.00">owns</text>
</g>
<!-- lightning_origin_demuxer::OriginDemuxer::new -->
<g id="node6" class="node">
<title>lightning_origin_demuxer::OriginDemuxer::new</title>
<polygon fill="#81c169" stroke="black" points="1824,-1686 1824,-1724 1949,-1724 1949,-1686 1824,-1686"/>
<text text-anchor="middle" x="1886.5" y="-1712" font-family="monospace" font-size="10.00">pub fn</text>
<polyline fill="none" stroke="black" points="1824,-1705 1949,-1705 "/>
<text text-anchor="middle" x="1886.5" y="-1693" font-family="monospace" font-size="10.00">OriginDemuxer::new</text>
</g>
<!-- lightning_origin_demuxer::OriginDemuxer&#45;&gt;lightning_origin_demuxer::OriginDemuxer::new -->
<g id="edge9" class="edge">
<title>lightning_origin_demuxer::OriginDemuxer&#45;&gt;lightning_origin_demuxer::OriginDemuxer::new</title>
<path fill="none" stroke="#000000" d="M1028.28,-1844.73C1144.23,-1807.67 1431,-1716 1431,-1716 1431,-1716 1684.76,-1709.87 1813.47,-1706.76"/>
<polygon fill="#000000" stroke="#000000" points="1813.73,-1710.26 1823.64,-1706.52 1813.56,-1703.26 1813.73,-1710.26"/>
<text text-anchor="middle" x="1418.5" y="-1708" font-family="monospace" font-size="10.00">owns</text>
</g>
<!-- lightning_origin_demuxer::OriginDemuxer::Config&#45;&gt;lightning_origin_demuxer::config::Config -->
<g id="edge10" class="edge">
<title>lightning_origin_demuxer::OriginDemuxer::Config&#45;&gt;lightning_origin_demuxer::config::Config</title>
<path fill="none" stroke="#7f7f7f" stroke-dasharray="5,2" d="M1876.99,-2150.81C1811.57,-2018.83 1431,-1251 1431,-1251 1431,-1251 1164.32,-1227.32 1041.33,-1216.4"/>
<polygon fill="#7f7f7f" stroke="#7f7f7f" points="1041.57,-1212.91 1031.3,-1215.51 1040.95,-1219.88 1041.57,-1212.91"/>
<text text-anchor="middle" x="1418.5" y="-1243" font-family="monospace" font-size="10.00">uses</text>
</g>
<!-- lightning_origin_demuxer::OriginDemuxer::get_socket&#45;&gt;lightning_origin_demuxer::OriginDemuxer -->
<g id="edge11" class="edge">
<title>lightning_origin_demuxer::OriginDemuxer::get_socket&#45;&gt;lightning_origin_demuxer::OriginDemuxer</title>
<path fill="none" stroke="#7f7f7f" stroke-dasharray="5,2" d="M1857.31,-1840.84C1756.78,-1774.85 1431,-1561 1431,-1561 1431,-1561 1126.18,-1763.31 1018.01,-1835.1"/>
<polygon fill="#7f7f7f" stroke="#7f7f7f" points="1015.76,-1832.4 1009.37,-1840.84 1019.63,-1838.23 1015.76,-1832.4"/>
<text text-anchor="middle" x="1418.5" y="-1553" font-family="monospace" font-size="10.00">uses</text>
</g>
<!-- lightning_origin_demuxer::OriginDemuxer::new&#45;&gt;lightning_origin_demuxer::OriginDemuxer -->
<g id="edge12" class="edge">
<title>lightning_origin_demuxer::OriginDemuxer::new&#45;&gt;lightning_origin_demuxer::OriginDemuxer</title>
<path fill="none" stroke="#7f7f7f" stroke-dasharray="5,2" d="M1857.31,-1685.84C1756.78,-1619.85 1431,-1406 1431,-1406 1431,-1406 1103.3,-1736.24 1006.88,-1833.41"/>
<polygon fill="#7f7f7f" stroke="#7f7f7f" points="1004.13,-1831.22 999.57,-1840.78 1009.1,-1836.15 1004.13,-1831.22"/>
<text text-anchor="middle" x="1418.5" y="-1398" font-family="monospace" font-size="10.00">uses</text>
</g>
<!-- lightning_origin_demuxer::OriginDemuxer::new&#45;&gt;lightning_origin_demuxer::config::Config -->
<g id="edge13" class="edge">
<title>lightning_origin_demuxer::OriginDemuxer::new&#45;&gt;lightning_origin_demuxer::config::Config</title>
<path fill="none" stroke="#7f7f7f" stroke-dasharray="5,2" d="M1872.12,-1685.77C1794.69,-1582.25 1431,-1096 1431,-1096 1431,-1096 1164.32,-1164.07 1041.33,-1195.47"/>
<polygon fill="#7f7f7f" stroke="#7f7f7f" points="1040.13,-1192.17 1031.3,-1198.03 1041.86,-1198.95 1040.13,-1192.17"/>
<text text-anchor="middle" x="1418.5" y="-1088" font-family="monospace" font-size="10.00">uses</text>
</g>
<!-- lightning_origin_demuxer::demuxer::Demuxer::Request -->
<g id="node9" class="node">
<title>lightning_origin_demuxer::demuxer::Demuxer::Request</title>
<polygon fill="#db5367" stroke="black" points="1803,-756 1803,-794 1970,-794 1970,-756 1803,-756"/>
<text text-anchor="middle" x="1886.5" y="-782" font-family="monospace" font-size="10.00">pub(self) type</text>
<polyline fill="none" stroke="black" points="1803,-775 1970,-775 "/>
<text text-anchor="middle" x="1886.5" y="-763" font-family="monospace" font-size="10.00">demuxer::Demuxer::Request</text>
</g>
<!-- lightning_origin_demuxer::demuxer::Demuxer&#45;&gt;lightning_origin_demuxer::demuxer::Demuxer::Request -->
<g id="edge14" class="edge">
<title>lightning_origin_demuxer::demuxer::Demuxer&#45;&gt;lightning_origin_demuxer::demuxer::Demuxer::Request</title>
<path fill="none" stroke="#000000" d="M1032.67,-639.01C1146.3,-680.4 1406,-775 1406,-775 1406,-775 1652.64,-775 1792.51,-775"/>
<polygon fill="#000000" stroke="#000000" points="1792.8,-778.5 1802.8,-775 1792.8,-771.5 1792.8,-778.5"/>
<text text-anchor="middle" x="1418.5" y="-778" font-family="monospace" font-size="10.00">owns</text>
</g>
<!-- lightning_origin_demuxer::demuxer::Demuxer::Response -->
<g id="node10" class="node">
<title>lightning_origin_demuxer::demuxer::Demuxer::Response</title>
<polygon fill="#db5367" stroke="black" points="1800,-601 1800,-639 1973,-639 1973,-601 1800,-601"/>
<text text-anchor="middle" x="1886.5" y="-627" font-family="monospace" font-size="10.00">pub(self) type</text>
<polyline fill="none" stroke="black" points="1800,-620 1973,-620 "/>
<text text-anchor="middle" x="1886.5" y="-608" font-family="monospace" font-size="10.00">demuxer::Demuxer::Response</text>
</g>
<!-- lightning_origin_demuxer::demuxer::Demuxer&#45;&gt;lightning_origin_demuxer::demuxer::Demuxer::Response -->
<g id="edge15" class="edge">
<title>lightning_origin_demuxer::demuxer::Demuxer&#45;&gt;lightning_origin_demuxer::demuxer::Demuxer::Response</title>
<path fill="none" stroke="#000000" d="M1037,-620C1152.75,-620 1406,-620 1406,-620 1406,-620 1649.04,-620 1789.42,-620"/>
<polygon fill="#000000" stroke="#000000" points="1789.76,-623.5 1799.76,-620 1789.76,-616.5 1789.76,-623.5"/>
<text text-anchor="middle" x="1418.5" y="-623" font-family="monospace" font-size="10.00">owns</text>
</g>
<!-- lightning_origin_demuxer::demuxer::Demuxer::handle -->
<g id="node11" class="node">
<title>lightning_origin_demuxer::demuxer::Demuxer::handle</title>
<polygon fill="#db5367" stroke="black" points="1806,-446 1806,-484 1967,-484 1967,-446 1806,-446"/>
<text text-anchor="middle" x="1886.5" y="-472" font-family="monospace" font-size="10.00">pub(self) async fn</text>
<polyline fill="none" stroke="black" points="1806,-465 1967,-465 "/>
<text text-anchor="middle" x="1886.5" y="-453" font-family="monospace" font-size="10.00">demuxer::Demuxer::handle</text>
</g>
<!-- lightning_origin_demuxer::demuxer::Demuxer&#45;&gt;lightning_origin_demuxer::demuxer::Demuxer::handle -->
<g id="edge16" class="edge">
<title>lightning_origin_demuxer::demuxer::Demuxer&#45;&gt;lightning_origin_demuxer::demuxer::Demuxer::handle</title>
<path fill="none" stroke="#000000" d="M1037.1,-601.91C1158.09,-563.23 1431,-476 1431,-476 1431,-476 1662.79,-470.4 1795.67,-467.19"/>
<polygon fill="#000000" stroke="#000000" points="1795.94,-470.69 1805.85,-466.95 1795.77,-463.69 1795.94,-470.69"/>
<text text-anchor="middle" x="1418.5" y="-468" font-family="monospace" font-size="10.00">owns</text>
</g>
<!-- lightning_origin_demuxer::demuxer::Demuxer::new -->
<g id="node12" class="node">
<title>lightning_origin_demuxer::demuxer::Demuxer::new</title>
<polygon fill="#81c169" stroke="black" points="1815,-291 1815,-329 1958,-329 1958,-291 1815,-291"/>
<text text-anchor="middle" x="1886.5" y="-317" font-family="monospace" font-size="10.00">pub fn</text>
<polyline fill="none" stroke="black" points="1815,-310 1958,-310 "/>
<text text-anchor="middle" x="1886.5" y="-298" font-family="monospace" font-size="10.00">demuxer::Demuxer::new</text>
</g>
<!-- lightning_origin_demuxer::demuxer::Demuxer&#45;&gt;lightning_origin_demuxer::demuxer::Demuxer::new -->
<g id="edge17" class="edge">
<title>lightning_origin_demuxer::demuxer::Demuxer&#45;&gt;lightning_origin_demuxer::demuxer::Demuxer::new</title>
<path fill="none" stroke="#000000" d="M1009.37,-600.84C1108.8,-534.85 1431,-321 1431,-321 1431,-321 1673.74,-315.14 1804.82,-311.97"/>
<polygon fill="#000000" stroke="#000000" points="1804.91,-315.47 1814.83,-311.73 1804.75,-308.47 1804.91,-315.47"/>
<text text-anchor="middle" x="1418.5" y="-313" font-family="monospace" font-size="10.00">owns</text>
</g>
<!-- lightning_origin_demuxer::demuxer::Demuxer::handle&#45;&gt;lightning_origin_demuxer::demuxer::Demuxer -->
<g id="edge18" class="edge">
<title>lightning_origin_demuxer::demuxer::Demuxer::handle&#45;&gt;lightning_origin_demuxer::demuxer::Demuxer</title>
<path fill="none" stroke="#7f7f7f" stroke-dasharray="5,2" d="M1857.31,-445.84C1756.78,-379.85 1431,-166 1431,-166 1431,-166 1103.3,-496.24 1006.88,-593.41"/>
<polygon fill="#7f7f7f" stroke="#7f7f7f" points="1004.13,-591.22 999.57,-600.78 1009.1,-596.15 1004.13,-591.22"/>
<text text-anchor="middle" x="1418.5" y="-158" font-family="monospace" font-size="10.00">uses</text>
</g>
<!-- lightning_origin_demuxer::demuxer::Demuxer::new&#45;&gt;lightning_origin_demuxer::config::Config -->
<g id="edge19" class="edge">
<title>lightning_origin_demuxer::demuxer::Demuxer::new&#45;&gt;lightning_origin_demuxer::config::Config</title>
<path fill="none" stroke="#7f7f7f" stroke-dasharray="5,2" d="M1871.59,-329.24C1790.49,-433.88 1406,-930 1406,-930 1406,-930 1121.98,-1117.57 1018.03,-1186.22"/>
<polygon fill="#7f7f7f" stroke="#7f7f7f" points="1015.83,-1183.48 1009.41,-1191.91 1019.69,-1189.32 1015.83,-1183.48"/>
<text text-anchor="middle" x="1418.5" y="-933" font-family="monospace" font-size="10.00">uses</text>
</g>
<!-- lightning_origin_demuxer::demuxer::Demuxer::new&#45;&gt;lightning_origin_demuxer::demuxer::Demuxer -->
<g id="edge20" class="edge">
<title>lightning_origin_demuxer::demuxer::Demuxer::new&#45;&gt;lightning_origin_demuxer::demuxer::Demuxer</title>
<path fill="none" stroke="#7f7f7f" stroke-dasharray="5,2" d="M1857.31,-290.84C1756.78,-224.85 1431,-11 1431,-11 1431,-11 1088.65,-473.8 1000.83,-592.51"/>
<polygon fill="#7f7f7f" stroke="#7f7f7f" points="997.86,-590.65 994.73,-600.77 1003.49,-594.81 997.86,-590.65"/>
<text text-anchor="middle" x="1418.5" y="-3" font-family="monospace" font-size="10.00">uses</text>
</g>
</g>
</svg>
