<?xml version="1.0" encoding="UTF-8" standalone="no"?>
<!DOCTYPE svg PUBLIC "-//W3C//DTD SVG 1.1//EN"
 "http://www.w3.org/Graphics/SVG/1.1/DTD/svg11.dtd">
<!-- Generated by graphviz version 4.0.0 (0)
 -->
<!-- Pages: 1 -->
<svg width="528pt" height="255pt"
 viewBox="0.00 0.00 527.60 254.59" xmlns="http://www.w3.org/2000/svg" xmlns:xlink="http://www.w3.org/1999/xlink">
<g id="graph0" class="graph" transform="scale(1 1) rotate(0) translate(28.8 225.79)">
<polygon fill="white" stroke="transparent" points="-28.8,28.8 -28.8,-225.79 498.8,-225.79 498.8,28.8 -28.8,28.8"/>
<text text-anchor="middle" x="235" y="-164.19" font-family="Helvetica,sans-Serif" font-size="36.00">lightning_origin_demuxer</text>
<!-- fdi -->
<g id="node1" class="node">
<title>fdi</title>
<polygon fill="#5397c8" stroke="black" points="3.59,-55.47 3.59,-93.47 104.59,-93.47 104.59,-55.47 3.59,-55.47"/>
<text text-anchor="middle" x="54.09" y="-81.47" font-family="monospace" font-size="10.00">external crate</text>
<polyline fill="none" stroke="black" points="3.59,-74.47 104.59,-74.47 "/>
<text text-anchor="middle" x="54.09" y="-62.47" font-family="monospace" font-size="10.00">fdi</text>
</g>
<!-- lightning_origin_demuxer -->
<g id="node2" class="node">
<title>lightning_origin_demuxer</title>
<polygon fill="#5397c8" stroke="black" points="196.97,-55.49 196.97,-93.49 357.97,-93.49 357.97,-55.49 196.97,-55.49"/>
<text text-anchor="middle" x="277.47" y="-81.49" font-family="monospace" font-size="10.00">crate</text>
<polyline fill="none" stroke="black" points="196.97,-74.49 357.97,-74.49 "/>
<text text-anchor="middle" x="277.47" y="-62.49" font-family="monospace" font-size="10.00">lightning_origin_demuxer</text>
</g>
<!-- lightning_origin_demuxer&#45;&gt;fdi -->
<g id="edge1" class="edge">
<title>lightning_origin_demuxer&#45;&gt;fdi</title>
<path fill="none" stroke="#7f7f7f" stroke-dasharray="5,2" d="M196.82,-74.48C169.8,-74.48 140.15,-74.48 114.91,-74.48"/>
<polygon fill="#7f7f7f" stroke="#7f7f7f" points="114.75,-70.98 104.74,-74.48 114.74,-77.98 114.75,-70.98"/>
<text text-anchor="middle" x="143.37" y="-77.48" font-family="monospace" font-size="10.00">uses</text>
</g>
<!-- lightning_origin_demuxer::config -->
<g id="node3" class="node">
<title>lightning_origin_demuxer::config</title>
<polygon fill="#f8c04c" stroke="black" points="254.43,-102.49 254.43,-140.49 463.43,-140.49 463.43,-102.49 254.43,-102.49"/>
<text text-anchor="middle" x="358.93" y="-128.49" font-family="monospace" font-size="10.00">pub(crate) mod</text>
<polyline fill="none" stroke="black" points="254.43,-121.49 463.43,-121.49 "/>
<text text-anchor="middle" x="358.93" y="-109.49" font-family="monospace" font-size="10.00">lightning_origin_demuxer::config</text>
</g>
<!-- lightning_origin_demuxer&#45;&gt;lightning_origin_demuxer::config -->
<g id="edge2" class="edge">
<title>lightning_origin_demuxer&#45;&gt;lightning_origin_demuxer::config</title>
<path fill="none" stroke="#000000" d="M277.09,-93.87C277.13,-93.96 277.17,-94.05 277.21,-94.14"/>
<polygon fill="#000000" stroke="#000000" points="274.01,-95.61 282.18,-102.36 280,-91.99 274.01,-95.61"/>
<text text-anchor="middle" x="264.65" y="-97" font-family="monospace" font-size="10.00">owns</text>
</g>
<!-- lightning_origin_demuxer&#45;&gt;lightning_origin_demuxer::config -->
<g id="edge3" class="edge">
<title>lightning_origin_demuxer&#45;&gt;lightning_origin_demuxer::config</title>
<path fill="none" stroke="#7f7f7f" stroke-dasharray="5,2" d="M354.14,-93.52C354.21,-93.61 354.27,-93.7 354.34,-93.79"/>
<polygon fill="#7f7f7f" stroke="#7f7f7f" points="351.28,-95.49 359.39,-102.31 357.3,-91.92 351.28,-95.49"/>
<text text-anchor="middle" x="366.74" y="-85.66" font-family="monospace" font-size="10.00">uses</text>
</g>
<!-- lightning_origin_demuxer::demuxer -->
<g id="node4" class="node">
<title>lightning_origin_demuxer::demuxer</title>
<polygon fill="#f8c04c" stroke="black" points="251.41,-8.44 251.41,-46.44 466.41,-46.44 466.41,-8.44 251.41,-8.44"/>
<text text-anchor="middle" x="358.91" y="-34.44" font-family="monospace" font-size="10.00">pub(crate) mod</text>
<polyline fill="none" stroke="black" points="251.41,-27.44 466.41,-27.44 "/>
<text text-anchor="middle" x="358.91" y="-15.44" font-family="monospace" font-size="10.00">lightning_origin_demuxer::demuxer</text>
</g>
<!-- lightning_origin_demuxer&#45;&gt;lightning_origin_demuxer::demuxer -->
<g id="edge4" class="edge">
<title>lightning_origin_demuxer&#45;&gt;lightning_origin_demuxer::demuxer</title>
<path fill="none" stroke="#000000" d="M354.13,-55.41C354.19,-55.33 354.26,-55.24 354.33,-55.15"/>
<polygon fill="#000000" stroke="#000000" points="357.29,-57.01 359.38,-46.62 351.27,-53.44 357.29,-57.01"/>
<text text-anchor="middle" x="366.73" y="-58.28" font-family="monospace" font-size="10.00">owns</text>
</g>
<!-- lightning_origin_demuxer&#45;&gt;lightning_origin_demuxer::demuxer -->
<g id="edge5" class="edge">
<title>lightning_origin_demuxer&#45;&gt;lightning_origin_demuxer::demuxer</title>
<path fill="none" stroke="#7f7f7f" stroke-dasharray="5,2" d="M277.08,-55.11C277.12,-55.02 277.16,-54.93 277.2,-54.84"/>
<polygon fill="#7f7f7f" stroke="#7f7f7f" points="279.99,-56.99 282.17,-46.62 274,-53.37 279.99,-56.99"/>
<text text-anchor="middle" x="264.64" y="-46.97" font-family="monospace" font-size="10.00">uses</text>
</g>
<!-- lightning_schema -->
<g id="node5" class="node">
<title>lightning_schema</title>
<polygon fill="#5397c8" stroke="black" points="119.07,-110.49 119.07,-148.49 232.07,-148.49 232.07,-110.49 119.07,-110.49"/>
<text text-anchor="middle" x="175.57" y="-136.49" font-family="monospace" font-size="10.00">external crate</text>
<polyline fill="none" stroke="black" points="119.07,-129.49 232.07,-129.49 "/>
<text text-anchor="middle" x="175.57" y="-117.49" font-family="monospace" font-size="10.00">lightning_schema</text>
</g>
<!-- lightning_origin_demuxer&#45;&gt;lightning_schema -->
<g id="edge6" class="edge">
<title>lightning_origin_demuxer&#45;&gt;lightning_schema</title>
<path fill="none" stroke="#7f7f7f" stroke-dasharray="5,2" d="M242.12,-93.57C235,-97.41 227.44,-101.49 220.06,-105.48"/>
<polygon fill="#7f7f7f" stroke="#7f7f7f" points="218,-102.61 210.86,-110.44 221.32,-108.77 218,-102.61"/>
<text text-anchor="middle" x="218.59" y="-102.52" font-family="monospace" font-size="10.00">uses</text>
</g>
<!-- lightning_types -->
<g id="node6" class="node">
<title>lightning_types</title>
<polygon fill="#5397c8" stroke="black" points="122.06,-0.5 122.06,-38.5 229.06,-38.5 229.06,-0.5 122.06,-0.5"/>
<text text-anchor="middle" x="175.56" y="-26.5" font-family="monospace" font-size="10.00">external crate</text>
<polyline fill="none" stroke="black" points="122.06,-19.5 229.06,-19.5 "/>
<text text-anchor="middle" x="175.56" y="-7.5" font-family="monospace" font-size="10.00">lightning_types</text>
</g>
<!-- lightning_origin_demuxer&#45;&gt;lightning_types -->
<g id="edge7" class="edge">
<title>lightning_origin_demuxer&#45;&gt;lightning_types</title>
<path fill="none" stroke="#7f7f7f" stroke-dasharray="5,2" d="M242.11,-55.41C235,-51.57 227.43,-47.49 220.05,-43.51"/>
<polygon fill="#7f7f7f" stroke="#7f7f7f" points="221.31,-40.21 210.85,-38.54 217.99,-46.37 221.31,-40.21"/>
<text text-anchor="middle" x="218.58" y="-41.46" font-family="monospace" font-size="10.00">uses</text>
</g>
<!-- lightning_origin_demuxer::demuxer&#45;&gt;lightning_origin_demuxer::config -->
<g id="edge8" class="edge">
<title>lightning_origin_demuxer::demuxer&#45;&gt;lightning_origin_demuxer::config</title>
<path fill="none" stroke="#7f7f7f" stroke-dasharray="5,2" d="M358.91,-46.47C358.92,-59.6 358.92,-77.31 358.93,-92.23"/>
<polygon fill="#7f7f7f" stroke="#7f7f7f" points="355.43,-92.49 358.93,-102.49 362.43,-92.49 355.43,-92.49"/>
<text text-anchor="middle" x="371.42" y="-72.35" font-family="monospace" font-size="10.00">uses</text>
</g>
</g>
</svg>
