<?xml version="1.0" encoding="UTF-8" standalone="no"?>
<!DOCTYPE svg PUBLIC "-//W3C//DTD SVG 1.1//EN"
 "http://www.w3.org/Graphics/SVG/1.1/DTD/svg11.dtd">
<!-- Generated by graphviz version 4.0.0 (0)
 -->
<!-- Pages: 1 -->
<svg width="383pt" height="169pt"
 viewBox="0.00 0.00 382.60 168.71" xmlns="http://www.w3.org/2000/svg" xmlns:xlink="http://www.w3.org/1999/xlink">
<g id="graph0" class="graph" transform="scale(1 1) rotate(0) translate(28.8 139.91)">
<polygon fill="white" stroke="transparent" points="-28.8,28.8 -28.8,-139.91 353.8,-139.91 353.8,28.8 -28.8,28.8"/>
<text text-anchor="middle" x="162.5" y="-78.31" font-family="Helvetica,sans-Serif" font-size="36.00">lightning_indexer</text>
<!-- lightning_indexer -->
<g id="node1" class="node">
<title>lightning_indexer</title>
<polygon fill="#5397c8" stroke="black" points="190.51,-12.55 190.51,-50.55 309.51,-50.55 309.51,-12.55 190.51,-12.55"/>
<text text-anchor="middle" x="250.01" y="-38.55" font-family="monospace" font-size="10.00">crate</text>
<polyline fill="none" stroke="black" points="190.51,-31.55 309.51,-31.55 "/>
<text text-anchor="middle" x="250.01" y="-19.55" font-family="monospace" font-size="10.00">lightning_indexer</text>
</g>
<!-- lightning_indexer::config -->
<g id="node2" class="node">
<title>lightning_indexer::config</title>
<polygon fill="#f8c04c" stroke="black" points="15.49,-12.55 15.49,-50.55 182.49,-50.55 182.49,-12.55 15.49,-12.55"/>
<text text-anchor="middle" x="98.99" y="-38.55" font-family="monospace" font-size="10.00">pub(crate) mod</text>
<polyline fill="none" stroke="black" points="15.49,-31.55 182.49,-31.55 "/>
<text text-anchor="middle" x="98.99" y="-19.55" font-family="monospace" font-size="10.00">lightning_indexer::config</text>
</g>
<!-- lightning_indexer&#45;&gt;lightning_indexer::config -->
<g id="edge1" class="edge">
<title>lightning_indexer&#45;&gt;lightning_indexer::config</title>
<path fill="none" stroke="#000000" d="M229.95,-12.51C204.12,-3.03 158.97,-2.02 129.03,-9.49"/>
<polygon fill="#000000" stroke="#000000" points="127.69,-6.24 119.13,-12.48 129.71,-12.94 127.69,-6.24"/>
<text text-anchor="middle" x="166.99" y="-3" font-family="monospace" font-size="10.00">owns</text>
</g>
<!-- lightning_indexer&#45;&gt;lightning_indexer::config -->
<g id="edge2" class="edge">
<title>lightning_indexer&#45;&gt;lightning_indexer::config</title>
<path fill="none" stroke="#7f7f7f" stroke-dasharray="5,2" d="M229.95,-50.59C204.12,-60.08 158.97,-61.09 129.03,-53.62"/>
<polygon fill="#7f7f7f" stroke="#7f7f7f" points="129.71,-50.17 119.13,-50.62 127.69,-56.87 129.71,-50.17"/>
<text text-anchor="middle" x="166.99" y="-55.11" font-family="monospace" font-size="10.00">uses</text>
</g>
</g>
</svg>
