<?xml version="1.0" encoding="UTF-8" standalone="no"?>
<!DOCTYPE svg PUBLIC "-//W3C//DTD SVG 1.1//EN"
 "http://www.w3.org/Graphics/SVG/1.1/DTD/svg11.dtd">
<!-- Generated by graphviz version 4.0.0 (0)
 -->
<!-- Pages: 1 -->
<svg width="709pt" height="516pt"
 viewBox="0.00 0.00 709.20 516.36" xmlns="http://www.w3.org/2000/svg" xmlns:xlink="http://www.w3.org/1999/xlink">
<g id="graph0" class="graph" transform="scale(1 1) rotate(0) translate(28.8 487.56)">
<polygon fill="white" stroke="transparent" points="-28.8,28.8 -28.8,-487.56 680.4,-487.56 680.4,28.8 -28.8,28.8"/>
<text text-anchor="middle" x="325.8" y="-425.96" font-family="Helvetica,sans-Serif" font-size="36.00">infusion</text>
<!-- infusion -->
<g id="node1" class="node">
<title>infusion</title>
<polygon fill="#5397c8" stroke="black" points="310.31,-186.81 310.31,-224.81 375.31,-224.81 375.31,-186.81 310.31,-186.81"/>
<text text-anchor="middle" x="342.81" y="-212.81" font-family="monospace" font-size="10.00">crate</text>
<polyline fill="none" stroke="black" points="310.31,-205.81 375.31,-205.81 "/>
<text text-anchor="middle" x="342.81" y="-193.81" font-family="monospace" font-size="10.00">infusion</text>
</g>
<!-- infusion::container -->
<g id="node2" class="node">
<title>infusion::container</title>
<polygon fill="#81c169" stroke="black" points="115.77,-80.67 115.77,-118.67 246.77,-118.67 246.77,-80.67 115.77,-80.67"/>
<text text-anchor="middle" x="181.27" y="-106.67" font-family="monospace" font-size="10.00">pub mod</text>
<polyline fill="none" stroke="black" points="115.77,-99.67 246.77,-99.67 "/>
<text text-anchor="middle" x="181.27" y="-87.67" font-family="monospace" font-size="10.00">infusion::container</text>
</g>
<!-- infusion&#45;&gt;infusion::container -->
<g id="edge1" class="edge">
<title>infusion&#45;&gt;infusion::container</title>
<path fill="none" stroke="#000000" d="M339.86,-186.66C327.25,-165.79 290.84,-137.15 255.89,-117.34"/>
<polygon fill="#000000" stroke="#000000" points="257.5,-114.23 247.05,-112.5 254.14,-120.37 257.5,-114.23"/>
<text text-anchor="middle" x="285.37" y="-155" font-family="monospace" font-size="10.00">owns</text>
</g>
<!-- infusion&#45;&gt;infusion::container -->
<g id="edge2" class="edge">
<title>infusion&#45;&gt;infusion::container</title>
<path fill="none" stroke="#7f7f7f" stroke-dasharray="5,2" d="M310.11,-207.38C272.32,-195.32 214.06,-156.59 190.27,-127.29"/>
<polygon fill="#7f7f7f" stroke="#7f7f7f" points="192.95,-125.02 184.28,-118.93 187.26,-129.09 192.95,-125.02"/>
<text text-anchor="middle" x="237.69" y="-170.33" font-family="monospace" font-size="10.00">uses</text>
</g>
<!-- infusion::error -->
<g id="node3" class="node">
<title>infusion::error</title>
<polygon fill="#81c169" stroke="black" points="0.76,-113.14 0.76,-151.14 107.76,-151.14 107.76,-113.14 0.76,-113.14"/>
<text text-anchor="middle" x="54.26" y="-139.14" font-family="monospace" font-size="10.00">pub mod</text>
<polyline fill="none" stroke="black" points="0.76,-132.14 107.76,-132.14 "/>
<text text-anchor="middle" x="54.26" y="-120.14" font-family="monospace" font-size="10.00">infusion::error</text>
</g>
<!-- infusion&#45;&gt;infusion::error -->
<g id="edge3" class="edge">
<title>infusion&#45;&gt;infusion::error</title>
<path fill="none" stroke="#000000" d="M326.57,-186.67C287.1,-162.66 185.25,-134.04 117.86,-125.51"/>
<polygon fill="#000000" stroke="#000000" points="118.1,-122.01 107.77,-124.36 117.31,-128.97 118.1,-122.01"/>
<text text-anchor="middle" x="209.72" y="-159.09" font-family="monospace" font-size="10.00">owns</text>
</g>
<!-- infusion&#45;&gt;infusion::error -->
<g id="edge4" class="edge">
<title>infusion&#45;&gt;infusion::error</title>
<path fill="none" stroke="#7f7f7f" stroke-dasharray="5,2" d="M310.17,-214.93C251.99,-213.87 132.01,-183.33 79.55,-156.32"/>
<polygon fill="#7f7f7f" stroke="#7f7f7f" points="81.01,-153.13 70.57,-151.33 77.61,-159.25 81.01,-153.13"/>
<text text-anchor="middle" x="182.36" y="-188.62" font-family="monospace" font-size="10.00">uses</text>
</g>
<!-- infusion::graph -->
<g id="node4" class="node">
<title>infusion::graph</title>
<polygon fill="#81c169" stroke="black" points="0,-258.57 0,-296.57 107,-296.57 107,-258.57 0,-258.57"/>
<text text-anchor="middle" x="53.5" y="-284.57" font-family="monospace" font-size="10.00">pub mod</text>
<polyline fill="none" stroke="black" points="0,-277.57 107,-277.57 "/>
<text text-anchor="middle" x="53.5" y="-265.57" font-family="monospace" font-size="10.00">infusion::graph</text>
</g>
<!-- infusion&#45;&gt;infusion::graph -->
<g id="edge5" class="edge">
<title>infusion&#45;&gt;infusion::graph</title>
<path fill="none" stroke="#000000" d="M310.21,-196.47C251.97,-197.15 131.68,-226.9 78.99,-253.56"/>
<polygon fill="#000000" stroke="#000000" points="77.06,-250.63 69.96,-258.49 80.42,-256.77 77.06,-250.63"/>
<text text-anchor="middle" x="182.1" y="-228.02" font-family="monospace" font-size="10.00">owns</text>
</g>
<!-- infusion&#45;&gt;infusion::graph -->
<g id="edge6" class="edge">
<title>infusion&#45;&gt;infusion::graph</title>
<path fill="none" stroke="#7f7f7f" stroke-dasharray="5,2" d="M326.43,-224.84C286.75,-248.59 184.62,-276.54 117.11,-284.62"/>
<polygon fill="#7f7f7f" stroke="#7f7f7f" points="116.57,-281.16 107,-285.71 117.32,-288.12 116.57,-281.16"/>
<text text-anchor="middle" x="209.27" y="-257.73" font-family="monospace" font-size="10.00">uses</text>
</g>
<!-- infusion::macros2 -->
<g id="node5" class="node">
<title>infusion::macros2</title>
<polygon fill="#f8c04c" stroke="black" points="532.6,-0.5 532.6,-38.5 651.6,-38.5 651.6,-0.5 532.6,-0.5"/>
<text text-anchor="middle" x="592.1" y="-26.5" font-family="monospace" font-size="10.00">pub(crate) mod</text>
<polyline fill="none" stroke="black" points="532.6,-19.5 651.6,-19.5 "/>
<text text-anchor="middle" x="592.1" y="-7.5" font-family="monospace" font-size="10.00">infusion::macros2</text>
</g>
<!-- infusion&#45;&gt;infusion::macros2 -->
<g id="edge7" class="edge">
<title>infusion&#45;&gt;infusion::macros2</title>
<path fill="none" stroke="#000000" d="M368.55,-186.57C413.83,-152.74 507.69,-82.58 558.19,-44.84"/>
<polygon fill="#000000" stroke="#000000" points="560.59,-47.42 566.5,-38.63 556.4,-41.81 560.59,-47.42"/>
<text text-anchor="middle" x="450.87" y="-118.71" font-family="monospace" font-size="10.00">owns</text>
</g>
<!-- infusion::note -->
<g id="node6" class="node">
<title>infusion::note</title>
<polygon fill="#81c169" stroke="black" points="541.5,-372.26 541.5,-410.26 642.5,-410.26 642.5,-372.26 541.5,-372.26"/>
<text text-anchor="middle" x="592" y="-398.26" font-family="monospace" font-size="10.00">pub mod</text>
<polyline fill="none" stroke="black" points="541.5,-391.26 642.5,-391.26 "/>
<text text-anchor="middle" x="592" y="-379.26" font-family="monospace" font-size="10.00">infusion::note</text>
</g>
<!-- infusion&#45;&gt;infusion::note -->
<g id="edge8" class="edge">
<title>infusion&#45;&gt;infusion::note</title>
<path fill="none" stroke="#000000" d="M368.54,-224.96C413.8,-258.64 507.62,-328.47 558.1,-366.03"/>
<polygon fill="#000000" stroke="#000000" points="556.3,-369.05 566.41,-372.22 560.48,-363.44 556.3,-369.05"/>
<text text-anchor="middle" x="450.82" y="-298.5" font-family="monospace" font-size="10.00">owns</text>
</g>
<!-- infusion::vtable -->
<g id="node7" class="node">
<title>infusion::vtable</title>
<polygon fill="#81c169" stroke="black" points="124.38,-293.53 124.38,-331.53 237.38,-331.53 237.38,-293.53 124.38,-293.53"/>
<text text-anchor="middle" x="180.88" y="-319.53" font-family="monospace" font-size="10.00">pub mod</text>
<polyline fill="none" stroke="black" points="124.38,-312.53 237.38,-312.53 "/>
<text text-anchor="middle" x="180.88" y="-300.53" font-family="monospace" font-size="10.00">infusion::vtable</text>
</g>
<!-- infusion&#45;&gt;infusion::vtable -->
<g id="edge9" class="edge">
<title>infusion&#45;&gt;infusion::vtable</title>
<path fill="none" stroke="#000000" d="M313.86,-224.89C287.23,-242.44 247.58,-268.57 218.51,-287.73"/>
<polygon fill="#000000" stroke="#000000" points="216.27,-285.01 209.85,-293.44 220.12,-290.86 216.27,-285.01"/>
<text text-anchor="middle" x="253.69" y="-259.31" font-family="monospace" font-size="10.00">owns</text>
</g>
<!-- infusion::container&#45;&gt;infusion::error -->
<g id="edge10" class="edge">
<title>infusion::container&#45;&gt;infusion::error</title>
<path fill="none" stroke="#7f7f7f" stroke-dasharray="5,2" d="M115.53,-116.48C115.37,-116.52 115.21,-116.56 115.05,-116.6"/>
<polygon fill="#7f7f7f" stroke="#7f7f7f" points="116.76,-112.55 107.93,-118.42 118.49,-119.33 116.76,-112.55"/>
<text text-anchor="middle" x="102.79" y="-108.54" font-family="monospace" font-size="10.00">uses</text>
</g>
<!-- infusion::container&#45;&gt;infusion::graph -->
<g id="edge11" class="edge">
<title>infusion::container&#45;&gt;infusion::graph</title>
<path fill="none" stroke="#7f7f7f" stroke-dasharray="5,2" d="M167.6,-118.71C144.89,-150.33 99.32,-213.78 73.16,-250.19"/>
<polygon fill="#7f7f7f" stroke="#7f7f7f" points="70.26,-248.24 67.27,-258.4 75.94,-252.32 70.26,-248.24"/>
<text text-anchor="middle" x="107.88" y="-187.45" font-family="monospace" font-size="10.00">uses</text>
</g>
<!-- infusion::container&#45;&gt;infusion::vtable -->
<g id="edge12" class="edge">
<title>infusion::container&#45;&gt;infusion::vtable</title>
<path fill="none" stroke="#7f7f7f" stroke-dasharray="5,2" d="M164.91,-118.91C151.64,-156.4 150.53,-239.45 161.73,-283.61"/>
<polygon fill="#7f7f7f" stroke="#7f7f7f" points="158.45,-284.85 164.66,-293.44 165.16,-282.85 158.45,-284.85"/>
<text text-anchor="middle" x="150.82" y="-204.26" font-family="monospace" font-size="10.00">uses</text>
</g>
<!-- infusion::error&#45;&gt;infusion::vtable -->
<g id="edge13" class="edge">
<title>infusion::error&#45;&gt;infusion::vtable</title>
<path fill="none" stroke="#7f7f7f" stroke-dasharray="5,2" d="M67.81,-151.45C90.37,-183.59 135.71,-248.18 161.59,-285.06"/>
<polygon fill="#7f7f7f" stroke="#7f7f7f" points="158.81,-287.19 167.42,-293.37 164.54,-283.17 158.81,-287.19"/>
<text text-anchor="middle" x="102.2" y="-221.26" font-family="monospace" font-size="10.00">uses</text>
</g>
<!-- infusion::graph&#45;&gt;infusion::error -->
<g id="edge14" class="edge">
<title>infusion::graph&#45;&gt;infusion::error</title>
<path fill="none" stroke="#7f7f7f" stroke-dasharray="5,2" d="M53.6,-258.56C53.73,-233.85 53.95,-190.43 54.1,-161.48"/>
<polygon fill="#7f7f7f" stroke="#7f7f7f" points="57.61,-161.18 54.16,-151.16 50.61,-161.14 57.61,-161.18"/>
<text text-anchor="middle" x="41.35" y="-213.02" font-family="monospace" font-size="10.00">uses</text>
</g>
<!-- infusion::graph&#45;&gt;infusion::vtable -->
<g id="edge15" class="edge">
<title>infusion::graph&#45;&gt;infusion::vtable</title>
<path fill="none" stroke="#7f7f7f" stroke-dasharray="5,2" d="M60.9,-296.66C71.93,-307.53 93.01,-316.94 114.5,-322.25"/>
<polygon fill="#7f7f7f" stroke="#7f7f7f" points="113.85,-325.69 124.37,-324.4 115.34,-318.85 113.85,-325.69"/>
<text text-anchor="middle" x="75.2" y="-312.46" font-family="monospace" font-size="10.00">uses</text>
</g>
<!-- infusion::vtable&#45;&gt;infusion::container -->
<g id="edge16" class="edge">
<title>infusion::vtable&#45;&gt;infusion::container</title>
<path fill="none" stroke="#7f7f7f" stroke-dasharray="5,2" d="M197.23,-293.3C210.51,-255.8 211.62,-172.76 200.42,-128.6"/>
<polygon fill="#7f7f7f" stroke="#7f7f7f" points="203.7,-127.35 197.49,-118.77 196.99,-129.35 203.7,-127.35"/>
<text text-anchor="middle" x="186.32" y="-213.95" font-family="monospace" font-size="10.00">uses</text>
</g>
<!-- infusion::vtable&#45;&gt;infusion::graph -->
<g id="edge17" class="edge">
<title>infusion::vtable&#45;&gt;infusion::graph</title>
<path fill="none" stroke="#7f7f7f" stroke-dasharray="5,2" d="M173.48,-293.44C161.99,-282.13 139.59,-272.39 117.19,-267.21"/>
<polygon fill="#7f7f7f" stroke="#7f7f7f" points="117.78,-263.76 107.29,-265.22 116.4,-270.62 117.78,-263.76"/>
<text text-anchor="middle" x="132.84" y="-283.33" font-family="monospace" font-size="10.00">uses</text>
</g>
</g>
</svg>
