<?xml version="1.0" encoding="UTF-8" standalone="no"?>
<!DOCTYPE svg PUBLIC "-//W3C//DTD SVG 1.1//EN"
 "http://www.w3.org/Graphics/SVG/1.1/DTD/svg11.dtd">
<!-- Generated by graphviz version 4.0.0 (0)
 -->
<!-- Pages: 1 -->
<svg width="550pt" height="461pt"
 viewBox="0.00 0.00 549.60 460.89" xmlns="http://www.w3.org/2000/svg" xmlns:xlink="http://www.w3.org/1999/xlink">
<g id="graph0" class="graph" transform="scale(1 1) rotate(0) translate(28.8 432.09)">
<polygon fill="white" stroke="transparent" points="-28.8,28.8 -28.8,-432.09 520.8,-432.09 520.8,28.8 -28.8,28.8"/>
<text text-anchor="middle" x="246" y="-370.49" font-family="Helvetica,sans-Serif" font-size="36.00">lightning_dack_aggregator</text>
<!-- fdi -->
<g id="node1" class="node">
<title>fdi</title>
<polygon fill="#5397c8" stroke="black" points="33.87,-214.27 33.87,-252.27 134.87,-252.27 134.87,-214.27 33.87,-214.27"/>
<text text-anchor="middle" x="84.37" y="-240.27" font-family="monospace" font-size="10.00">external crate</text>
<polyline fill="none" stroke="black" points="33.87,-233.27 134.87,-233.27 "/>
<text text-anchor="middle" x="84.37" y="-221.27" font-family="monospace" font-size="10.00">fdi</text>
</g>
<!-- lightning_dack_aggregator -->
<g id="node2" class="node">
<title>lightning_dack_aggregator</title>
<polygon fill="#5397c8" stroke="black" points="291.13,-74.47 291.13,-112.47 458.13,-112.47 458.13,-74.47 291.13,-74.47"/>
<text text-anchor="middle" x="374.63" y="-100.47" font-family="monospace" font-size="10.00">crate</text>
<polyline fill="none" stroke="black" points="291.13,-93.47 458.13,-93.47 "/>
<text text-anchor="middle" x="374.63" y="-81.47" font-family="monospace" font-size="10.00">lightning_dack_aggregator</text>
</g>
<!-- lightning_dack_aggregator::config -->
<g id="node3" class="node">
<title>lightning_dack_aggregator::config</title>
<polygon fill="#f8c04c" stroke="black" points="172.2,-0.5 172.2,-38.5 387.2,-38.5 387.2,-0.5 172.2,-0.5"/>
<text text-anchor="middle" x="279.7" y="-26.5" font-family="monospace" font-size="10.00">pub(crate) mod</text>
<polyline fill="none" stroke="black" points="172.2,-19.5 387.2,-19.5 "/>
<text text-anchor="middle" x="279.7" y="-7.5" font-family="monospace" font-size="10.00">lightning_dack_aggregator::config</text>
</g>
<!-- lightning_dack_aggregator&#45;&gt;lightning_dack_aggregator::config -->
<g id="edge1" class="edge">
<title>lightning_dack_aggregator&#45;&gt;lightning_dack_aggregator::config</title>
<path fill="none" stroke="#000000" d="M376.16,-74.13C372.85,-64.95 365.25,-54.81 355.61,-45.47"/>
<polygon fill="#000000" stroke="#000000" points="357.66,-42.6 347.89,-38.52 352.98,-47.81 357.66,-42.6"/>
<text text-anchor="middle" x="353.39" y="-62.8" font-family="monospace" font-size="10.00">owns</text>
</g>
<!-- lightning_dack_aggregator&#45;&gt;lightning_dack_aggregator::config -->
<g id="edge2" class="edge">
<title>lightning_dack_aggregator&#45;&gt;lightning_dack_aggregator::config</title>
<path fill="none" stroke="#7f7f7f" stroke-dasharray="5,2" d="M306.46,-74.46C296.67,-66.26 288.13,-56.97 282.68,-48.02"/>
<polygon fill="#7f7f7f" stroke="#7f7f7f" points="285.74,-46.3 278.19,-38.87 279.45,-49.39 285.74,-46.3"/>
<text text-anchor="middle" x="282.07" y="-64.24" font-family="monospace" font-size="10.00">uses</text>
</g>
<!-- lightning_dack_aggregator::dack_aggregator -->
<g id="node4" class="node">
<title>lightning_dack_aggregator::dack_aggregator</title>
<polygon fill="#f8c04c" stroke="black" points="101.33,-154.78 101.33,-192.78 370.33,-192.78 370.33,-154.78 101.33,-154.78"/>
<text text-anchor="middle" x="235.83" y="-180.78" font-family="monospace" font-size="10.00">pub(crate) mod</text>
<polyline fill="none" stroke="black" points="101.33,-173.78 370.33,-173.78 "/>
<text text-anchor="middle" x="235.83" y="-161.78" font-family="monospace" font-size="10.00">lightning_dack_aggregator::dack_aggregator</text>
</g>
<!-- lightning_dack_aggregator&#45;&gt;lightning_dack_aggregator::dack_aggregator -->
<g id="edge3" class="edge">
<title>lightning_dack_aggregator&#45;&gt;lightning_dack_aggregator::dack_aggregator</title>
<path fill="none" stroke="#000000" d="M290.9,-110.73C272.58,-121.41 255.6,-134.23 245.09,-146.22"/>
<polygon fill="#000000" stroke="#000000" points="242.18,-144.27 238.92,-154.35 247.75,-148.5 242.18,-144.27"/>
<text text-anchor="middle" x="255.5" y="-131.47" font-family="monospace" font-size="10.00">owns</text>
</g>
<!-- lightning_dack_aggregator&#45;&gt;lightning_dack_aggregator::dack_aggregator -->
<g id="edge4" class="edge">
<title>lightning_dack_aggregator&#45;&gt;lightning_dack_aggregator::dack_aggregator</title>
<path fill="none" stroke="#7f7f7f" stroke-dasharray="5,2" d="M371.76,-112.57C364.53,-124.2 349.3,-137.43 331.49,-149.14"/>
<polygon fill="#7f7f7f" stroke="#7f7f7f" points="329.17,-146.46 322.57,-154.75 332.9,-152.39 329.17,-146.46"/>
<text text-anchor="middle" x="339.13" y="-133.85" font-family="monospace" font-size="10.00">uses</text>
</g>
<!-- lightning_dack_aggregator::dack_aggregator&#45;&gt;fdi -->
<g id="edge5" class="edge">
<title>lightning_dack_aggregator::dack_aggregator&#45;&gt;fdi</title>
<path fill="none" stroke="#7f7f7f" stroke-dasharray="5,2" d="M187.08,-192.93C172.82,-198.53 157.09,-204.71 142.32,-210.51"/>
<polygon fill="#7f7f7f" stroke="#7f7f7f" points="140.8,-207.35 132.77,-214.26 143.36,-213.86 140.8,-207.35"/>
<text text-anchor="middle" x="152.2" y="-204.72" font-family="monospace" font-size="10.00">uses</text>
</g>
<!-- lightning_dack_aggregator::dack_aggregator&#45;&gt;lightning_dack_aggregator::config -->
<g id="edge6" class="edge">
<title>lightning_dack_aggregator::dack_aggregator&#45;&gt;lightning_dack_aggregator::config</title>
<path fill="none" stroke="#7f7f7f" stroke-dasharray="5,2" d="M241.3,-154.55C248.85,-127.99 262.54,-79.84 271.37,-48.79"/>
<polygon fill="#7f7f7f" stroke="#7f7f7f" points="274.8,-49.55 274.17,-38.97 268.06,-47.63 274.8,-49.55"/>
<text text-anchor="middle" x="243.84" y="-104.67" font-family="monospace" font-size="10.00">uses</text>
</g>
<!-- lightning_schema -->
<g id="node5" class="node">
<title>lightning_schema</title>
<polygon fill="#5397c8" stroke="black" points="315.58,-249.9 315.58,-287.9 428.58,-287.9 428.58,-249.9 315.58,-249.9"/>
<text text-anchor="middle" x="372.08" y="-275.9" font-family="monospace" font-size="10.00">external crate</text>
<polyline fill="none" stroke="black" points="315.58,-268.9 428.58,-268.9 "/>
<text text-anchor="middle" x="372.08" y="-256.9" font-family="monospace" font-size="10.00">lightning_schema</text>
</g>
<!-- lightning_dack_aggregator::dack_aggregator&#45;&gt;lightning_schema -->
<g id="edge7" class="edge">
<title>lightning_dack_aggregator::dack_aggregator&#45;&gt;lightning_schema</title>
<path fill="none" stroke="#7f7f7f" stroke-dasharray="5,2" d="M263.08,-192.8C284.01,-207.41 313.12,-227.73 335.99,-243.7"/>
<polygon fill="#7f7f7f" stroke="#7f7f7f" points="334.21,-246.73 344.42,-249.58 338.22,-240.99 334.21,-246.73"/>
<text text-anchor="middle" x="287.03" y="-221.25" font-family="monospace" font-size="10.00">uses</text>
</g>
<!-- lightning_types -->
<g id="node6" class="node">
<title>lightning_types</title>
<polygon fill="#5397c8" stroke="black" points="165.65,-316.79 165.65,-354.79 272.65,-354.79 272.65,-316.79 165.65,-316.79"/>
<text text-anchor="middle" x="219.15" y="-342.79" font-family="monospace" font-size="10.00">external crate</text>
<polyline fill="none" stroke="black" points="165.65,-335.79 272.65,-335.79 "/>
<text text-anchor="middle" x="219.15" y="-323.79" font-family="monospace" font-size="10.00">lightning_types</text>
</g>
<!-- lightning_dack_aggregator::dack_aggregator&#45;&gt;lightning_types -->
<g id="edge8" class="edge">
<title>lightning_dack_aggregator::dack_aggregator&#45;&gt;lightning_types</title>
<path fill="none" stroke="#7f7f7f" stroke-dasharray="5,2" d="M233.86,-193C230.97,-221.01 225.59,-273.3 222.19,-306.23"/>
<polygon fill="#7f7f7f" stroke="#7f7f7f" points="218.67,-306.29 221.13,-316.59 225.63,-307 218.67,-306.29"/>
<text text-anchor="middle" x="215.52" y="-252.62" font-family="monospace" font-size="10.00">uses</text>
</g>
<!-- tokio::sync::mpsc -->
<g id="node7" class="node">
<title>tokio::sync::mpsc</title>
<polygon fill="#81c169" stroke="black" points="49.83,-47.5 49.83,-85.5 168.83,-85.5 168.83,-47.5 49.83,-47.5"/>
<text text-anchor="middle" x="109.33" y="-73.5" font-family="monospace" font-size="10.00">external mod</text>
<polyline fill="none" stroke="black" points="49.83,-66.5 168.83,-66.5 "/>
<text text-anchor="middle" x="109.33" y="-54.5" font-family="monospace" font-size="10.00">tokio::sync::mpsc</text>
</g>
<!-- lightning_dack_aggregator::dack_aggregator&#45;&gt;tokio::sync::mpsc -->
<g id="edge9" class="edge">
<title>lightning_dack_aggregator::dack_aggregator&#45;&gt;tokio::sync::mpsc</title>
<path fill="none" stroke="#7f7f7f" stroke-dasharray="5,2" d="M213.22,-154.6C192.62,-137.13 162.05,-111.21 139.4,-92.01"/>
<polygon fill="#7f7f7f" stroke="#7f7f7f" points="141.64,-89.32 131.75,-85.52 137.12,-94.65 141.64,-89.32"/>
<text text-anchor="middle" x="163.81" y="-126.3" font-family="monospace" font-size="10.00">uses</text>
</g>
</g>
</svg>
