<?xml version="1.0" encoding="UTF-8" standalone="no"?>
<!DOCTYPE svg PUBLIC "-//W3C//DTD SVG 1.1//EN"
 "http://www.w3.org/Graphics/SVG/1.1/DTD/svg11.dtd">
<!-- Generated by graphviz version 4.0.0 (0)
 -->
<!-- Pages: 1 -->
<svg width="1104pt" height="1161pt"
 viewBox="0.00 0.00 1104.06 1160.77" xmlns="http://www.w3.org/2000/svg" xmlns:xlink="http://www.w3.org/1999/xlink">
<g id="graph0" class="graph" transform="scale(1 1) rotate(0) translate(28.8 1131.97)">
<polygon fill="white" stroke="transparent" points="-28.8,28.8 -28.8,-1131.97 1075.26,-1131.97 1075.26,28.8 -28.8,28.8"/>
<text text-anchor="middle" x="523.23" y="-1070.37" font-family="Helvetica,sans-Serif" font-size="36.00">lightning_dack_aggregator</text>
<!-- lightning_dack_aggregator -->
<g id="node1" class="node">
<title>lightning_dack_aggregator</title>
<polygon fill="#5397c8" stroke="black" points="254.35,-502.74 254.35,-540.74 421.35,-540.74 421.35,-502.74 254.35,-502.74"/>
<text text-anchor="middle" x="337.85" y="-528.74" font-family="monospace" font-size="10.00">crate</text>
<polyline fill="none" stroke="black" points="254.35,-521.74 421.35,-521.74 "/>
<text text-anchor="middle" x="337.85" y="-509.74" font-family="monospace" font-size="10.00">lightning_dack_aggregator</text>
</g>
<!-- lightning_dack_aggregator::config::Config -->
<g id="node2" class="node">
<title>lightning_dack_aggregator::config::Config</title>
<polygon fill="#81c169" stroke="black" points="356.75,-778.39 356.75,-816.39 457.75,-816.39 457.75,-778.39 356.75,-778.39"/>
<text text-anchor="middle" x="407.25" y="-804.39" font-family="monospace" font-size="10.00">pub struct</text>
<polyline fill="none" stroke="black" points="356.75,-797.39 457.75,-797.39 "/>
<text text-anchor="middle" x="407.25" y="-785.39" font-family="monospace" font-size="10.00">config::Config</text>
</g>
<!-- lightning_dack_aggregator&#45;&gt;lightning_dack_aggregator::config::Config -->
<g id="edge1" class="edge">
<title>lightning_dack_aggregator&#45;&gt;lightning_dack_aggregator::config::Config</title>
<path fill="none" stroke="#000000" d="M328.79,-541.05C324.11,-589.01 353.64,-712.77 381.3,-769.01"/>
<polygon fill="#000000" stroke="#000000" points="378.31,-770.86 386.07,-778.07 384.5,-767.59 378.31,-770.86"/>
<text text-anchor="middle" x="342.54" y="-658.03" font-family="monospace" font-size="10.00">owns</text>
</g>
<!-- lightning_dack_aggregator&#45;&gt;lightning_dack_aggregator::config::Config -->
<g id="edge2" class="edge">
<title>lightning_dack_aggregator&#45;&gt;lightning_dack_aggregator::config::Config</title>
<path fill="none" stroke="#7f7f7f" stroke-dasharray="5,2" d="M358.96,-540.92C386.14,-588.49 417.27,-711.3 416.8,-768.04"/>
<polygon fill="#7f7f7f" stroke="#7f7f7f" points="413.3,-768 416.31,-778.16 420.29,-768.34 413.3,-768"/>
<text text-anchor="middle" x="375.38" y="-657.48" font-family="monospace" font-size="10.00">uses</text>
</g>
<!-- lightning_dack_aggregator::dack_aggregator::AggregatorInner -->
<g id="node3" class="node">
<title>lightning_dack_aggregator::dack_aggregator::AggregatorInner</title>
<polygon fill="#db5367" stroke="black" points="111.59,-745.95 111.59,-783.95 320.59,-783.95 320.59,-745.95 111.59,-745.95"/>
<text text-anchor="middle" x="216.09" y="-771.95" font-family="monospace" font-size="10.00">pub(self) struct</text>
<polyline fill="none" stroke="black" points="111.59,-764.95 320.59,-764.95 "/>
<text text-anchor="middle" x="216.09" y="-752.95" font-family="monospace" font-size="10.00">dack_aggregator::AggregatorInner</text>
</g>
<!-- lightning_dack_aggregator&#45;&gt;lightning_dack_aggregator::dack_aggregator::AggregatorInner -->
<g id="edge3" class="edge">
<title>lightning_dack_aggregator&#45;&gt;lightning_dack_aggregator::dack_aggregator::AggregatorInner</title>
<path fill="none" stroke="#000000" d="M328.3,-540.83C306.97,-583.43 255.38,-686.49 230.28,-736.62"/>
<polygon fill="#000000" stroke="#000000" points="227.12,-735.11 225.77,-745.62 233.38,-738.24 227.12,-735.11"/>
<text text-anchor="middle" x="266.79" y="-641.72" font-family="monospace" font-size="10.00">owns</text>
</g>
<!-- lightning_dack_aggregator::dack_aggregator::DeliveryAcknowledgmentAggregator -->
<g id="node6" class="node">
<title>lightning_dack_aggregator::dack_aggregator::DeliveryAcknowledgmentAggregator</title>
<polygon fill="#81c169" stroke="black" points="390.14,-287.34 390.14,-325.34 701.14,-325.34 701.14,-287.34 390.14,-287.34"/>
<text text-anchor="middle" x="545.64" y="-313.34" font-family="monospace" font-size="10.00">pub struct</text>
<polyline fill="none" stroke="black" points="390.14,-306.34 701.14,-306.34 "/>
<text text-anchor="middle" x="545.64" y="-294.34" font-family="monospace" font-size="10.00">dack_aggregator::DeliveryAcknowledgmentAggregator</text>
</g>
<!-- lightning_dack_aggregator&#45;&gt;lightning_dack_aggregator::dack_aggregator::DeliveryAcknowledgmentAggregator -->
<g id="edge4" class="edge">
<title>lightning_dack_aggregator&#45;&gt;lightning_dack_aggregator::dack_aggregator::DeliveryAcknowledgmentAggregator</title>
<path fill="none" stroke="#000000" d="M384.1,-502.74C436.36,-463.73 515.08,-379.96 540.01,-334.63"/>
<polygon fill="#000000" stroke="#000000" points="543.2,-336.09 544.49,-325.57 536.92,-332.99 543.2,-336.09"/>
<text text-anchor="middle" x="449.55" y="-421.69" font-family="monospace" font-size="10.00">owns</text>
</g>
<!-- lightning_dack_aggregator&#45;&gt;lightning_dack_aggregator::dack_aggregator::DeliveryAcknowledgmentAggregator -->
<g id="edge5" class="edge">
<title>lightning_dack_aggregator&#45;&gt;lightning_dack_aggregator::dack_aggregator::DeliveryAcknowledgmentAggregator</title>
<path fill="none" stroke="#7f7f7f" stroke-dasharray="5,2" d="M338.92,-502.72C355.96,-462.56 435.32,-375.9 491.27,-331.6"/>
<polygon fill="#7f7f7f" stroke="#7f7f7f" points="493.55,-334.26 499.34,-325.38 489.28,-328.71 493.55,-334.26"/>
<text text-anchor="middle" x="402.6" y="-420.16" font-family="monospace" font-size="10.00">uses</text>
</g>
<!-- lightning_dack_aggregator::dack_aggregator::AggregatorInner&#45;&gt;lightning_dack_aggregator::config::Config -->
<g id="edge6" class="edge">
<title>lightning_dack_aggregator::dack_aggregator::AggregatorInner&#45;&gt;lightning_dack_aggregator::config::Config</title>
<path fill="none" stroke="#7f7f7f" stroke-dasharray="5,2" d="M320.62,-782.69C329.42,-784.18 338.12,-785.66 346.41,-787.06"/>
<polygon fill="#7f7f7f" stroke="#7f7f7f" points="345.87,-790.52 356.31,-788.74 347.04,-783.62 345.87,-790.52"/>
<text text-anchor="middle" x="321.02" y="-787.88" font-family="monospace" font-size="10.00">uses</text>
</g>
<!-- lightning_dack_aggregator::dack_aggregator::AggregatorInner::new -->
<g id="node4" class="node">
<title>lightning_dack_aggregator::dack_aggregator::AggregatorInner::new</title>
<polygon fill="#db5367" stroke="black" points="0,-932.95 0,-970.95 239,-970.95 239,-932.95 0,-932.95"/>
<text text-anchor="middle" x="119.5" y="-958.95" font-family="monospace" font-size="10.00">pub(self) fn</text>
<polyline fill="none" stroke="black" points="0,-951.95 239,-951.95 "/>
<text text-anchor="middle" x="119.5" y="-939.95" font-family="monospace" font-size="10.00">dack_aggregator::AggregatorInner::new</text>
</g>
<!-- lightning_dack_aggregator::dack_aggregator::AggregatorInner&#45;&gt;lightning_dack_aggregator::dack_aggregator::AggregatorInner::new -->
<g id="edge7" class="edge">
<title>lightning_dack_aggregator::dack_aggregator::AggregatorInner&#45;&gt;lightning_dack_aggregator::dack_aggregator::AggregatorInner::new</title>
<path fill="none" stroke="#000000" d="M183.62,-784.16C155.23,-817.41 121.77,-883.78 114.52,-922.71"/>
<polygon fill="#000000" stroke="#000000" points="111.02,-922.54 113.2,-932.91 117.96,-923.44 111.02,-922.54"/>
<text text-anchor="middle" x="136.57" y="-856.43" font-family="monospace" font-size="10.00">owns</text>
</g>
<!-- lightning_dack_aggregator::dack_aggregator::AggregatorInner::start -->
<g id="node5" class="node">
<title>lightning_dack_aggregator::dack_aggregator::AggregatorInner::start</title>
<polygon fill="#db5367" stroke="black" points="279.32,-1016.67 279.32,-1054.67 530.32,-1054.67 530.32,-1016.67 279.32,-1016.67"/>
<text text-anchor="middle" x="404.82" y="-1042.67" font-family="monospace" font-size="10.00">pub(self) async fn</text>
<polyline fill="none" stroke="black" points="279.32,-1035.67 530.32,-1035.67 "/>
<text text-anchor="middle" x="404.82" y="-1023.67" font-family="monospace" font-size="10.00">dack_aggregator::AggregatorInner::start</text>
</g>
<!-- lightning_dack_aggregator::dack_aggregator::AggregatorInner&#45;&gt;lightning_dack_aggregator::dack_aggregator::AggregatorInner::start -->
<g id="edge8" class="edge">
<title>lightning_dack_aggregator::dack_aggregator::AggregatorInner&#45;&gt;lightning_dack_aggregator::dack_aggregator::AggregatorInner::start</title>
<path fill="none" stroke="#000000" d="M214.74,-784.22C227.78,-832.68 309.63,-954.31 362.74,-1009.18"/>
<polygon fill="#000000" stroke="#000000" points="360.48,-1011.87 370.03,-1016.46 365.43,-1006.92 360.48,-1011.87"/>
<text text-anchor="middle" x="276.24" y="-899.7" font-family="monospace" font-size="10.00">owns</text>
</g>
<!-- lightning_dack_aggregator::dack_aggregator::AggregatorInner::new&#45;&gt;lightning_dack_aggregator::config::Config -->
<g id="edge9" class="edge">
<title>lightning_dack_aggregator::dack_aggregator::AggregatorInner::new&#45;&gt;lightning_dack_aggregator::config::Config</title>
<path fill="none" stroke="#7f7f7f" stroke-dasharray="5,2" d="M155.07,-932.84C207.49,-904.69 305.43,-852.08 362.61,-821.37"/>
<polygon fill="#7f7f7f" stroke="#7f7f7f" points="364.61,-824.27 371.76,-816.45 361.3,-818.1 364.61,-824.27"/>
<text text-anchor="middle" x="246.34" y="-880.11" font-family="monospace" font-size="10.00">uses</text>
</g>
<!-- lightning_dack_aggregator::dack_aggregator::AggregatorInner::new&#45;&gt;lightning_dack_aggregator::dack_aggregator::AggregatorInner -->
<g id="edge10" class="edge">
<title>lightning_dack_aggregator::dack_aggregator::AggregatorInner::new&#45;&gt;lightning_dack_aggregator::dack_aggregator::AggregatorInner</title>
<path fill="none" stroke="#7f7f7f" stroke-dasharray="5,2" d="M151.97,-932.75C180.36,-899.5 213.83,-833.12 221.07,-794.19"/>
<polygon fill="#7f7f7f" stroke="#7f7f7f" points="224.58,-794.36 222.39,-783.99 217.64,-793.46 224.58,-794.36"/>
<text text-anchor="middle" x="174.02" y="-866.47" font-family="monospace" font-size="10.00">uses</text>
</g>
<!-- lightning_dack_aggregator::dack_aggregator::AggregatorInner::start&#45;&gt;lightning_dack_aggregator::config::Config -->
<g id="edge11" class="edge">
<title>lightning_dack_aggregator::dack_aggregator::AggregatorInner::start&#45;&gt;lightning_dack_aggregator::config::Config</title>
<path fill="none" stroke="#7f7f7f" stroke-dasharray="5,2" d="M405.01,-1016.57C405.44,-975.01 406.45,-876.1 406.96,-826.63"/>
<polygon fill="#7f7f7f" stroke="#7f7f7f" points="410.46,-826.61 407.06,-816.58 403.46,-826.54 410.46,-826.61"/>
<text text-anchor="middle" x="393.48" y="-924.6" font-family="monospace" font-size="10.00">uses</text>
</g>
<!-- lightning_dack_aggregator::dack_aggregator::AggregatorInner::start&#45;&gt;lightning_dack_aggregator::dack_aggregator::AggregatorInner -->
<g id="edge12" class="edge">
<title>lightning_dack_aggregator::dack_aggregator::AggregatorInner::start&#45;&gt;lightning_dack_aggregator::dack_aggregator::AggregatorInner</title>
<path fill="none" stroke="#7f7f7f" stroke-dasharray="5,2" d="M406.17,-1016.4C393.13,-967.94 311.28,-846.31 258.17,-791.45"/>
<polygon fill="#7f7f7f" stroke="#7f7f7f" points="260.43,-788.75 250.88,-784.16 255.48,-793.7 260.43,-788.75"/>
<text text-anchor="middle" x="319.67" y="-906.92" font-family="monospace" font-size="10.00">uses</text>
</g>
<!-- lightning_dack_aggregator::dack_aggregator::DeliveryAcknowledgmentAggregator::Config -->
<g id="node7" class="node">
<title>lightning_dack_aggregator::dack_aggregator::DeliveryAcknowledgmentAggregator::Config</title>
<polygon fill="#db5367" stroke="black" points="421.07,-574.49 421.07,-612.49 780.07,-612.49 780.07,-574.49 421.07,-574.49"/>
<text text-anchor="middle" x="600.57" y="-600.49" font-family="monospace" font-size="10.00">pub(self) type</text>
<polyline fill="none" stroke="black" points="421.07,-593.49 780.07,-593.49 "/>
<text text-anchor="middle" x="600.57" y="-581.49" font-family="monospace" font-size="10.00">dack_aggregator::DeliveryAcknowledgmentAggregator::Config</text>
</g>
<!-- lightning_dack_aggregator::dack_aggregator::DeliveryAcknowledgmentAggregator&#45;&gt;lightning_dack_aggregator::dack_aggregator::DeliveryAcknowledgmentAggregator::Config -->
<g id="edge13" class="edge">
<title>lightning_dack_aggregator::dack_aggregator::DeliveryAcknowledgmentAggregator&#45;&gt;lightning_dack_aggregator::dack_aggregator::DeliveryAcknowledgmentAggregator::Config</title>
<path fill="none" stroke="#000000" d="M549.33,-325.63C558.75,-374.87 583.74,-505.5 594.97,-564.2"/>
<polygon fill="#000000" stroke="#000000" points="591.58,-565.12 596.9,-574.28 598.45,-563.8 591.58,-565.12"/>
<text text-anchor="middle" x="559.65" y="-447.91" font-family="monospace" font-size="10.00">owns</text>
</g>
<!-- lightning_dack_aggregator::dack_aggregator::DeliveryAcknowledgmentAggregator::build_graph -->
<g id="node8" class="node">
<title>lightning_dack_aggregator::dack_aggregator::DeliveryAcknowledgmentAggregator::build_graph</title>
<polygon fill="#db5367" stroke="black" points="657.46,-334.34 657.46,-372.34 1046.46,-372.34 1046.46,-334.34 657.46,-334.34"/>
<text text-anchor="middle" x="851.96" y="-360.34" font-family="monospace" font-size="10.00">pub(self) fn</text>
<polyline fill="none" stroke="black" points="657.46,-353.34 1046.46,-353.34 "/>
<text text-anchor="middle" x="851.96" y="-341.34" font-family="monospace" font-size="10.00">dack_aggregator::DeliveryAcknowledgmentAggregator::build_graph</text>
</g>
<!-- lightning_dack_aggregator::dack_aggregator::DeliveryAcknowledgmentAggregator&#45;&gt;lightning_dack_aggregator::dack_aggregator::DeliveryAcknowledgmentAggregator::build_graph -->
<g id="edge14" class="edge">
<title>lightning_dack_aggregator::dack_aggregator::DeliveryAcknowledgmentAggregator&#45;&gt;lightning_dack_aggregator::dack_aggregator::DeliveryAcknowledgmentAggregator::build_graph</title>
<path fill="none" stroke="#000000" d="M669.79,-325.39C685.72,-327.84 702.09,-330.35 718.17,-332.81"/>
<polygon fill="#000000" stroke="#000000" points="717.72,-336.29 728.13,-334.34 718.78,-329.37 717.72,-336.29"/>
<text text-anchor="middle" x="706.48" y="-321.1" font-family="monospace" font-size="10.00">owns</text>
</g>
<!-- lightning_dack_aggregator::dack_aggregator::DeliveryAcknowledgmentAggregator::init -->
<g id="node9" class="node">
<title>lightning_dack_aggregator::dack_aggregator::DeliveryAcknowledgmentAggregator::init</title>
<polygon fill="#db5367" stroke="black" points="116.47,-116.97 116.47,-154.97 463.47,-154.97 463.47,-116.97 116.47,-116.97"/>
<text text-anchor="middle" x="289.97" y="-142.97" font-family="monospace" font-size="10.00">pub(self) fn</text>
<polyline fill="none" stroke="black" points="116.47,-135.97 463.47,-135.97 "/>
<text text-anchor="middle" x="289.97" y="-123.97" font-family="monospace" font-size="10.00">dack_aggregator::DeliveryAcknowledgmentAggregator::init</text>
</g>
<!-- lightning_dack_aggregator::dack_aggregator::DeliveryAcknowledgmentAggregator&#45;&gt;lightning_dack_aggregator::dack_aggregator::DeliveryAcknowledgmentAggregator::init -->
<g id="edge15" class="edge">
<title>lightning_dack_aggregator::dack_aggregator::DeliveryAcknowledgmentAggregator&#45;&gt;lightning_dack_aggregator::dack_aggregator::DeliveryAcknowledgmentAggregator::init</title>
<path fill="none" stroke="#000000" d="M539.68,-287.05C515.28,-254.06 432.61,-194.5 368.75,-159.72"/>
<polygon fill="#000000" stroke="#000000" points="370.34,-156.61 359.87,-154.99 367.04,-162.78 370.34,-156.61"/>
<text text-anchor="middle" x="441.71" y="-226.39" font-family="monospace" font-size="10.00">owns</text>
</g>
<!-- lightning_dack_aggregator::dack_aggregator::DeliveryAcknowledgmentAggregator::socket -->
<g id="node10" class="node">
<title>lightning_dack_aggregator::dack_aggregator::DeliveryAcknowledgmentAggregator::socket</title>
<polygon fill="#db5367" stroke="black" points="584.46,-98.24 584.46,-136.24 943.46,-136.24 943.46,-98.24 584.46,-98.24"/>
<text text-anchor="middle" x="763.96" y="-124.24" font-family="monospace" font-size="10.00">pub(self) fn</text>
<polyline fill="none" stroke="black" points="584.46,-117.24 943.46,-117.24 "/>
<text text-anchor="middle" x="763.96" y="-105.24" font-family="monospace" font-size="10.00">dack_aggregator::DeliveryAcknowledgmentAggregator::socket</text>
</g>
<!-- lightning_dack_aggregator::dack_aggregator::DeliveryAcknowledgmentAggregator&#45;&gt;lightning_dack_aggregator::dack_aggregator::DeliveryAcknowledgmentAggregator::socket -->
<g id="edge16" class="edge">
<title>lightning_dack_aggregator::dack_aggregator::DeliveryAcknowledgmentAggregator&#45;&gt;lightning_dack_aggregator::dack_aggregator::DeliveryAcknowledgmentAggregator::socket</title>
<path fill="none" stroke="#000000" d="M600.59,-287.32C653.97,-252.7 729.39,-184.82 755.99,-145.06"/>
<polygon fill="#000000" stroke="#000000" points="759.1,-146.68 761.28,-136.31 753.11,-143.05 759.1,-146.68"/>
<text text-anchor="middle" x="665.79" y="-219.19" font-family="monospace" font-size="10.00">owns</text>
</g>
<!-- lightning_dack_aggregator::dack_aggregator::DeliveryAcknowledgmentAggregator::start -->
<g id="node11" class="node">
<title>lightning_dack_aggregator::dack_aggregator::DeliveryAcknowledgmentAggregator::start</title>
<polygon fill="#db5367" stroke="black" points="335.27,-0.5 335.27,-38.5 688.27,-38.5 688.27,-0.5 335.27,-0.5"/>
<text text-anchor="middle" x="511.77" y="-26.5" font-family="monospace" font-size="10.00">pub(self) async fn</text>
<polyline fill="none" stroke="black" points="335.27,-19.5 688.27,-19.5 "/>
<text text-anchor="middle" x="511.77" y="-7.5" font-family="monospace" font-size="10.00">dack_aggregator::DeliveryAcknowledgmentAggregator::start</text>
</g>
<!-- lightning_dack_aggregator::dack_aggregator::DeliveryAcknowledgmentAggregator&#45;&gt;lightning_dack_aggregator::dack_aggregator::DeliveryAcknowledgmentAggregator::start -->
<g id="edge17" class="edge">
<title>lightning_dack_aggregator::dack_aggregator::DeliveryAcknowledgmentAggregator&#45;&gt;lightning_dack_aggregator::dack_aggregator::DeliveryAcknowledgmentAggregator::start</title>
<path fill="none" stroke="#000000" d="M557.28,-287.21C567.84,-237.93 553.58,-106.64 532.78,-48.2"/>
<polygon fill="#000000" stroke="#000000" points="536.01,-46.86 529.11,-38.82 529.49,-49.41 536.01,-46.86"/>
<text text-anchor="middle" x="532.53" y="-170.71" font-family="monospace" font-size="10.00">owns</text>
</g>
<!-- lightning_dack_aggregator::dack_aggregator::DeliveryAcknowledgmentAggregator::Config&#45;&gt;lightning_dack_aggregator::config::Config -->
<g id="edge18" class="edge">
<title>lightning_dack_aggregator::dack_aggregator::DeliveryAcknowledgmentAggregator::Config&#45;&gt;lightning_dack_aggregator::config::Config</title>
<path fill="none" stroke="#7f7f7f" stroke-dasharray="5,2" d="M582.38,-612.67C547.7,-649.25 472.03,-729.06 432.48,-770.78"/>
<polygon fill="#7f7f7f" stroke="#7f7f7f" points="429.87,-768.44 425.53,-778.11 434.95,-773.26 429.87,-768.44"/>
<text text-anchor="middle" x="494.93" y="-694.72" font-family="monospace" font-size="10.00">uses</text>
</g>
<!-- lightning_dack_aggregator::dack_aggregator::DeliveryAcknowledgmentAggregator::init&#45;&gt;lightning_dack_aggregator::dack_aggregator::DeliveryAcknowledgmentAggregator -->
<g id="edge19" class="edge">
<title>lightning_dack_aggregator::dack_aggregator::DeliveryAcknowledgmentAggregator::init&#45;&gt;lightning_dack_aggregator::dack_aggregator::DeliveryAcknowledgmentAggregator</title>
<path fill="none" stroke="#7f7f7f" stroke-dasharray="5,2" d="M295.93,-155.26C320.34,-188.25 403.01,-247.82 466.87,-282.59"/>
<polygon fill="#7f7f7f" stroke="#7f7f7f" points="465.28,-285.71 475.75,-287.33 468.57,-279.53 465.28,-285.71"/>
<text text-anchor="middle" x="368.9" y="-221.93" font-family="monospace" font-size="10.00">uses</text>
</g>
<!-- lightning_dack_aggregator::dack_aggregator::DeliveryAcknowledgmentAggregator::socket&#45;&gt;lightning_dack_aggregator::dack_aggregator::DeliveryAcknowledgmentAggregator -->
<g id="edge20" class="edge">
<title>lightning_dack_aggregator::dack_aggregator::DeliveryAcknowledgmentAggregator::socket&#45;&gt;lightning_dack_aggregator::dack_aggregator::DeliveryAcknowledgmentAggregator</title>
<path fill="none" stroke="#7f7f7f" stroke-dasharray="5,2" d="M709.01,-136.26C655.63,-170.88 580.21,-238.76 553.61,-278.52"/>
<polygon fill="#7f7f7f" stroke="#7f7f7f" points="550.5,-276.9 548.32,-287.27 556.49,-280.52 550.5,-276.9"/>
<text text-anchor="middle" x="618.81" y="-210.39" font-family="monospace" font-size="10.00">uses</text>
</g>
<!-- lightning_dack_aggregator::dack_aggregator::DeliveryAcknowledgmentAggregator::start&#45;&gt;lightning_dack_aggregator::dack_aggregator::DeliveryAcknowledgmentAggregator -->
<g id="edge21" class="edge">
<title>lightning_dack_aggregator::dack_aggregator::DeliveryAcknowledgmentAggregator::start&#45;&gt;lightning_dack_aggregator::dack_aggregator::DeliveryAcknowledgmentAggregator</title>
<path fill="none" stroke="#7f7f7f" stroke-dasharray="5,2" d="M500.14,-38.63C489.58,-87.91 503.84,-219.2 524.64,-277.64"/>
<polygon fill="#7f7f7f" stroke="#7f7f7f" points="521.41,-278.98 528.31,-287.02 527.92,-276.43 521.41,-278.98"/>
<text text-anchor="middle" x="499.89" y="-161.13" font-family="monospace" font-size="10.00">uses</text>
</g>
</g>
</svg>
