<?xml version="1.0" encoding="UTF-8" standalone="no"?>
<!DOCTYPE svg PUBLIC "-//W3C//DTD SVG 1.1//EN"
 "http://www.w3.org/Graphics/SVG/1.1/DTD/svg11.dtd">
<!-- Generated by graphviz version 4.0.0 (0)
 -->
<!-- Pages: 1 -->
<svg width="1444pt" height="1259pt"
 viewBox="0.00 0.00 1443.60 1258.60" xmlns="http://www.w3.org/2000/svg" xmlns:xlink="http://www.w3.org/1999/xlink">
<g id="graph0" class="graph" transform="scale(1 1) rotate(0) translate(28.8 1229.8)">
<polygon fill="white" stroke="transparent" points="-28.8,28.8 -28.8,-1229.8 1414.8,-1229.8 1414.8,28.8 -28.8,28.8"/>
<text text-anchor="middle" x="693" y="-1168.2" font-family="Helvetica,sans-Serif" font-size="36.00">lightning_keystore</text>
<!-- lightning_keystore -->
<g id="node1" class="node">
<title>lightning_keystore</title>
<polygon fill="#5397c8" stroke="black" points="632.81,-782.77 632.81,-820.77 757.81,-820.77 757.81,-782.77 632.81,-782.77"/>
<text text-anchor="middle" x="695.31" y="-808.77" font-family="monospace" font-size="10.00">crate</text>
<polyline fill="none" stroke="black" points="632.81,-801.77 757.81,-801.77 "/>
<text text-anchor="middle" x="695.31" y="-789.77" font-family="monospace" font-size="10.00">lightning_keystore</text>
</g>
<!-- lightning_keystore::config::KeystoreConfig -->
<g id="node2" class="node">
<title>lightning_keystore::config::KeystoreConfig</title>
<polygon fill="#81c169" stroke="black" points="474.88,-642.66 474.88,-680.66 623.88,-680.66 623.88,-642.66 474.88,-642.66"/>
<text text-anchor="middle" x="549.38" y="-668.66" font-family="monospace" font-size="10.00">pub struct</text>
<polyline fill="none" stroke="black" points="474.88,-661.66 623.88,-661.66 "/>
<text text-anchor="middle" x="549.38" y="-649.66" font-family="monospace" font-size="10.00">config::KeystoreConfig</text>
</g>
<!-- lightning_keystore&#45;&gt;lightning_keystore::config::KeystoreConfig -->
<g id="edge1" class="edge">
<title>lightning_keystore&#45;&gt;lightning_keystore::config::KeystoreConfig</title>
<path fill="none" stroke="#000000" d="M695.72,-782.63C685.8,-756.67 647.36,-714.65 611.89,-686.79"/>
<polygon fill="#000000" stroke="#000000" points="613.99,-683.99 603.91,-680.72 609.75,-689.56 613.99,-683.99"/>
<text text-anchor="middle" x="641.31" y="-737.71" font-family="monospace" font-size="10.00">owns</text>
</g>
<!-- lightning_keystore&#45;&gt;lightning_keystore::config::KeystoreConfig -->
<g id="edge2" class="edge">
<title>lightning_keystore&#45;&gt;lightning_keystore::config::KeystoreConfig</title>
<path fill="none" stroke="#7f7f7f" stroke-dasharray="5,2" d="M640.71,-782.65C607.15,-758.03 568.65,-718.17 553.33,-690.07"/>
<polygon fill="#7f7f7f" stroke="#7f7f7f" points="556.33,-688.24 548.92,-680.67 549.99,-691.21 556.33,-688.24"/>
<text text-anchor="middle" x="584.52" y="-739.36" font-family="monospace" font-size="10.00">uses</text>
</g>
<!-- lightning_keystore::keystore::Keystore -->
<g id="node6" class="node">
<title>lightning_keystore::keystore::Keystore</title>
<polygon fill="#81c169" stroke="black" points="880.75,-404.16 880.75,-442.16 1005.75,-442.16 1005.75,-404.16 880.75,-404.16"/>
<text text-anchor="middle" x="943.25" y="-430.16" font-family="monospace" font-size="10.00">pub struct</text>
<polyline fill="none" stroke="black" points="880.75,-423.16 1005.75,-423.16 "/>
<text text-anchor="middle" x="943.25" y="-411.16" font-family="monospace" font-size="10.00">keystore::Keystore</text>
</g>
<!-- lightning_keystore&#45;&gt;lightning_keystore::keystore::Keystore -->
<g id="edge3" class="edge">
<title>lightning_keystore&#45;&gt;lightning_keystore::keystore::Keystore</title>
<path fill="none" stroke="#000000" d="M725.54,-782.66C786.49,-720.07 912.57,-526.69 940.31,-452.11"/>
<polygon fill="#000000" stroke="#000000" points="943.7,-453 943.55,-442.41 937.06,-450.78 943.7,-453"/>
<text text-anchor="middle" x="820.42" y="-609.39" font-family="monospace" font-size="10.00">owns</text>
</g>
<!-- lightning_keystore&#45;&gt;lightning_keystore::keystore::Keystore -->
<g id="edge4" class="edge">
<title>lightning_keystore&#45;&gt;lightning_keystore::keystore::Keystore</title>
<path fill="none" stroke="#7f7f7f" stroke-dasharray="5,2" d="M694.98,-782.62C713.18,-719.29 839.58,-522.71 905.86,-449.9"/>
<polygon fill="#7f7f7f" stroke="#7f7f7f" points="908.56,-452.13 912.86,-442.45 903.46,-447.34 908.56,-452.13"/>
<text text-anchor="middle" x="787.92" y="-608.26" font-family="monospace" font-size="10.00">uses</text>
</g>
<!-- lightning_keystore::keystore::save -->
<g id="node15" class="node">
<title>lightning_keystore::keystore::save</title>
<polygon fill="#db5367" stroke="black" points="651.78,-1114.03 651.78,-1152.03 752.78,-1152.03 752.78,-1114.03 651.78,-1114.03"/>
<text text-anchor="middle" x="702.28" y="-1140.03" font-family="monospace" font-size="10.00">pub(self) fn</text>
<polyline fill="none" stroke="black" points="651.78,-1133.03 752.78,-1133.03 "/>
<text text-anchor="middle" x="702.28" y="-1121.03" font-family="monospace" font-size="10.00">keystore::save</text>
</g>
<!-- lightning_keystore&#45;&gt;lightning_keystore::keystore::save -->
<g id="edge5" class="edge">
<title>lightning_keystore&#45;&gt;lightning_keystore::keystore::save</title>
<path fill="none" stroke="#000000" d="M695.72,-821.02C696.88,-876.48 700.26,-1036.93 701.66,-1103.52"/>
<polygon fill="#000000" stroke="#000000" points="698.17,-1103.81 701.88,-1113.74 705.17,-1103.67 698.17,-1103.81"/>
<text text-anchor="middle" x="686.19" y="-965.27" font-family="monospace" font-size="10.00">owns</text>
</g>
<!-- lightning_keystore::config::KeystoreConfig::load_test_keys -->
<g id="node3" class="node">
<title>lightning_keystore::config::KeystoreConfig::load_test_keys</title>
<polygon fill="#81c169" stroke="black" points="-0.39,-519.01 -0.39,-557.01 244.61,-557.01 244.61,-519.01 -0.39,-519.01"/>
<text text-anchor="middle" x="122.11" y="-545.01" font-family="monospace" font-size="10.00">pub fn</text>
<polyline fill="none" stroke="black" points="-0.39,-538.01 244.61,-538.01 "/>
<text text-anchor="middle" x="122.11" y="-526.01" font-family="monospace" font-size="10.00">config::KeystoreConfig::load_test_keys</text>
</g>
<!-- lightning_keystore::config::KeystoreConfig&#45;&gt;lightning_keystore::config::KeystoreConfig::load_test_keys -->
<g id="edge6" class="edge">
<title>lightning_keystore::config::KeystoreConfig&#45;&gt;lightning_keystore::config::KeystoreConfig::load_test_keys</title>
<path fill="none" stroke="#000000" d="M530.31,-642.63C482.5,-615.27 354.92,-574.22 254.96,-550.57"/>
<polygon fill="#000000" stroke="#000000" points="255.61,-547.12 245.07,-548.26 254.02,-553.94 255.61,-547.12"/>
<text text-anchor="middle" x="380.14" y="-599.6" font-family="monospace" font-size="10.00">owns</text>
</g>
<!-- lightning_keystore::config::KeystoreConfig::test -->
<g id="node4" class="node">
<title>lightning_keystore::config::KeystoreConfig::test</title>
<polygon fill="#81c169" stroke="black" points="173.99,-898.63 173.99,-936.63 358.99,-936.63 358.99,-898.63 173.99,-898.63"/>
<text text-anchor="middle" x="266.49" y="-924.63" font-family="monospace" font-size="10.00">pub fn</text>
<polyline fill="none" stroke="black" points="173.99,-917.63 358.99,-917.63 "/>
<text text-anchor="middle" x="266.49" y="-905.63" font-family="monospace" font-size="10.00">config::KeystoreConfig::test</text>
</g>
<!-- lightning_keystore::config::KeystoreConfig&#45;&gt;lightning_keystore::config::KeystoreConfig::test -->
<g id="edge7" class="edge">
<title>lightning_keystore::config::KeystoreConfig&#45;&gt;lightning_keystore::config::KeystoreConfig::test</title>
<path fill="none" stroke="#000000" d="M500.03,-680.87C430.95,-726.95 312.08,-836.53 275.83,-889.78"/>
<polygon fill="#000000" stroke="#000000" points="272.75,-888.1 270.4,-898.43 278.68,-891.83 272.75,-888.1"/>
<text text-anchor="middle" x="375.43" y="-788.32" font-family="monospace" font-size="10.00">owns</text>
</g>
<!-- lightning_keystore::config::KeystoreConfig::test2 -->
<g id="node5" class="node">
<title>lightning_keystore::config::KeystoreConfig::test2</title>
<polygon fill="#81c169" stroke="black" points="696.85,-614.41 696.85,-652.41 887.85,-652.41 887.85,-614.41 696.85,-614.41"/>
<text text-anchor="middle" x="792.35" y="-640.41" font-family="monospace" font-size="10.00">pub fn</text>
<polyline fill="none" stroke="black" points="696.85,-633.41 887.85,-633.41 "/>
<text text-anchor="middle" x="792.35" y="-621.41" font-family="monospace" font-size="10.00">config::KeystoreConfig::test2</text>
</g>
<!-- lightning_keystore::config::KeystoreConfig&#45;&gt;lightning_keystore::config::KeystoreConfig::test2 -->
<g id="edge8" class="edge">
<title>lightning_keystore::config::KeystoreConfig&#45;&gt;lightning_keystore::config::KeystoreConfig::test2</title>
<path fill="none" stroke="#000000" d="M624.16,-678.02C670.62,-676.78 727.81,-668.18 762.12,-656.13"/>
<polygon fill="#000000" stroke="#000000" points="763.52,-659.34 771.58,-652.47 760.99,-652.81 763.52,-659.34"/>
<text text-anchor="middle" x="680.64" y="-670.08" font-family="monospace" font-size="10.00">owns</text>
</g>
<!-- lightning_keystore::config::KeystoreConfig::load_test_keys&#45;&gt;lightning_keystore::config::KeystoreConfig -->
<g id="edge9" class="edge">
<title>lightning_keystore::config::KeystoreConfig::load_test_keys&#45;&gt;lightning_keystore::config::KeystoreConfig</title>
<path fill="none" stroke="#7f7f7f" stroke-dasharray="5,2" d="M141.17,-557.03C197.13,-589.06 362.37,-639.84 464.7,-659.52"/>
<polygon fill="#7f7f7f" stroke="#7f7f7f" points="464.23,-663 474.71,-661.39 465.51,-656.12 464.23,-663"/>
<text text-anchor="middle" x="290.43" y="-611.28" font-family="monospace" font-size="10.00">uses</text>
</g>
<!-- lightning_keystore::config::KeystoreConfig::test&#45;&gt;lightning_keystore::config::KeystoreConfig -->
<g id="edge10" class="edge">
<title>lightning_keystore::config::KeystoreConfig::test&#45;&gt;lightning_keystore::config::KeystoreConfig</title>
<path fill="none" stroke="#7f7f7f" stroke-dasharray="5,2" d="M315.84,-898.41C384.92,-852.33 503.79,-742.76 540.03,-689.51"/>
<polygon fill="#7f7f7f" stroke="#7f7f7f" points="543.11,-691.18 545.47,-680.85 537.19,-687.46 543.11,-691.18"/>
<text text-anchor="middle" x="415.44" y="-796.96" font-family="monospace" font-size="10.00">uses</text>
</g>
<!-- lightning_keystore::config::KeystoreConfig::test2&#45;&gt;lightning_keystore::config::KeystoreConfig -->
<g id="edge11" class="edge">
<title>lightning_keystore::config::KeystoreConfig::test2&#45;&gt;lightning_keystore::config::KeystoreConfig</title>
<path fill="none" stroke="#7f7f7f" stroke-dasharray="5,2" d="M696.76,-618.04C655.02,-620.86 609,-628.63 579.67,-638.92"/>
<polygon fill="#7f7f7f" stroke="#7f7f7f" points="578.08,-635.78 570.02,-642.66 580.61,-642.3 578.08,-635.78"/>
<text text-anchor="middle" x="625.71" y="-631.48" font-family="monospace" font-size="10.00">uses</text>
</g>
<!-- lightning_keystore::keystore::Keystore::Config -->
<g id="node7" class="node">
<title>lightning_keystore::keystore::Keystore::Config</title>
<polygon fill="#db5367" stroke="black" points="588.68,-340.73 588.68,-378.73 761.68,-378.73 761.68,-340.73 588.68,-340.73"/>
<text text-anchor="middle" x="675.18" y="-366.73" font-family="monospace" font-size="10.00">pub(self) type</text>
<polyline fill="none" stroke="black" points="588.68,-359.73 761.68,-359.73 "/>
<text text-anchor="middle" x="675.18" y="-347.73" font-family="monospace" font-size="10.00">keystore::Keystore::Config</text>
</g>
<!-- lightning_keystore::keystore::Keystore&#45;&gt;lightning_keystore::keystore::Keystore::Config -->
<g id="edge12" class="edge">
<title>lightning_keystore::keystore::Keystore&#45;&gt;lightning_keystore::keystore::Keystore::Config</title>
<path fill="none" stroke="#000000" d="M880.74,-408.37C846.51,-400.27 803.49,-390.09 765.65,-381.13"/>
<polygon fill="#000000" stroke="#000000" points="766.18,-377.66 755.65,-378.77 764.57,-384.47 766.18,-377.66"/>
<text text-anchor="middle" x="810.7" y="-397.75" font-family="monospace" font-size="10.00">owns</text>
</g>
<!-- lightning_keystore::keystore::Keystore::build_graph -->
<g id="node8" class="node">
<title>lightning_keystore::keystore::Keystore::build_graph</title>
<polygon fill="#db5367" stroke="black" points="1067.85,-403.09 1067.85,-441.09 1270.85,-441.09 1270.85,-403.09 1067.85,-403.09"/>
<text text-anchor="middle" x="1169.35" y="-429.09" font-family="monospace" font-size="10.00">pub(self) fn</text>
<polyline fill="none" stroke="black" points="1067.85,-422.09 1270.85,-422.09 "/>
<text text-anchor="middle" x="1169.35" y="-410.09" font-family="monospace" font-size="10.00">keystore::Keystore::build_graph</text>
</g>
<!-- lightning_keystore::keystore::Keystore&#45;&gt;lightning_keystore::keystore::Keystore::build_graph -->
<g id="edge13" class="edge">
<title>lightning_keystore::keystore::Keystore&#45;&gt;lightning_keystore::keystore::Keystore::build_graph</title>
<path fill="none" stroke="#000000" d="M1005.93,-422.86C1021.88,-422.79 1039.51,-422.7 1057.12,-422.62"/>
<polygon fill="#000000" stroke="#000000" points="1057.49,-426.12 1067.47,-422.57 1057.45,-419.12 1057.49,-426.12"/>
<text text-anchor="middle" x="1019.02" y="-425.74" font-family="monospace" font-size="10.00">owns</text>
</g>
<!-- lightning_keystore::keystore::Keystore::generate_keys -->
<g id="node9" class="node">
<title>lightning_keystore::keystore::Keystore::generate_keys</title>
<polygon fill="#db5367" stroke="black" points="365.66,-324.49 365.66,-362.49 580.66,-362.49 580.66,-324.49 365.66,-324.49"/>
<text text-anchor="middle" x="473.16" y="-350.49" font-family="monospace" font-size="10.00">pub(self) fn</text>
<polyline fill="none" stroke="black" points="365.66,-343.49 580.66,-343.49 "/>
<text text-anchor="middle" x="473.16" y="-331.49" font-family="monospace" font-size="10.00">keystore::Keystore::generate_keys</text>
</g>
<!-- lightning_keystore::keystore::Keystore&#45;&gt;lightning_keystore::keystore::Keystore::generate_keys -->
<g id="edge14" class="edge">
<title>lightning_keystore::keystore::Keystore&#45;&gt;lightning_keystore::keystore::Keystore::generate_keys</title>
<path fill="none" stroke="#000000" d="M880.34,-412.5C806.47,-399.98 682.4,-378.95 590.59,-363.39"/>
<polygon fill="#000000" stroke="#000000" points="591.13,-359.93 580.69,-361.71 589.96,-366.84 591.13,-359.93"/>
<text text-anchor="middle" x="722.96" y="-390.94" font-family="monospace" font-size="10.00">owns</text>
</g>
<!-- lightning_keystore::keystore::Keystore::get_bls_pk -->
<g id="node10" class="node">
<title>lightning_keystore::keystore::Keystore::get_bls_pk</title>
<polygon fill="#db5367" stroke="black" points="876.06,-0.28 876.06,-38.28 1073.06,-38.28 1073.06,-0.28 876.06,-0.28"/>
<text text-anchor="middle" x="974.56" y="-26.28" font-family="monospace" font-size="10.00">pub(self) fn</text>
<polyline fill="none" stroke="black" points="876.06,-19.28 1073.06,-19.28 "/>
<text text-anchor="middle" x="974.56" y="-7.28" font-family="monospace" font-size="10.00">keystore::Keystore::get_bls_pk</text>
</g>
<!-- lightning_keystore::keystore::Keystore&#45;&gt;lightning_keystore::keystore::Keystore::get_bls_pk -->
<g id="edge15" class="edge">
<title>lightning_keystore::keystore::Keystore&#45;&gt;lightning_keystore::keystore::Keystore::get_bls_pk</title>
<path fill="none" stroke="#000000" d="M957.36,-404.1C980.95,-339.25 998.08,-126.93 986.95,-48.62"/>
<polygon fill="#000000" stroke="#000000" points="990.35,-47.74 985.19,-38.49 983.46,-48.94 990.35,-47.74"/>
<text text-anchor="middle" x="959.66" y="-229.36" font-family="monospace" font-size="10.00">owns</text>
</g>
<!-- lightning_keystore::keystore::Keystore::get_bls_sk -->
<g id="node11" class="node">
<title>lightning_keystore::keystore::Keystore::get_bls_sk</title>
<polygon fill="#db5367" stroke="black" points="1189.45,-127.35 1189.45,-165.35 1386.45,-165.35 1386.45,-127.35 1189.45,-127.35"/>
<text text-anchor="middle" x="1287.95" y="-153.35" font-family="monospace" font-size="10.00">pub(self) fn</text>
<polyline fill="none" stroke="black" points="1189.45,-146.35 1386.45,-146.35 "/>
<text text-anchor="middle" x="1287.95" y="-134.35" font-family="monospace" font-size="10.00">keystore::Keystore::get_bls_sk</text>
</g>
<!-- lightning_keystore::keystore::Keystore&#45;&gt;lightning_keystore::keystore::Keystore::get_bls_sk -->
<g id="edge16" class="edge">
<title>lightning_keystore::keystore::Keystore&#45;&gt;lightning_keystore::keystore::Keystore::get_bls_sk</title>
<path fill="none" stroke="#000000" d="M996.31,-404.07C1078.67,-354.52 1230.53,-230.58 1275.89,-173.58"/>
<polygon fill="#000000" stroke="#000000" points="1278.85,-175.47 1282.01,-165.35 1273.23,-171.29 1278.85,-175.47"/>
<text text-anchor="middle" x="1123.6" y="-291.82" font-family="monospace" font-size="10.00">owns</text>
</g>
<!-- lightning_keystore::keystore::Keystore::get_ed25519_pk -->
<g id="node12" class="node">
<title>lightning_keystore::keystore::Keystore::get_ed25519_pk</title>
<polygon fill="#db5367" stroke="black" points="527.84,-71.73 527.84,-109.73 748.84,-109.73 748.84,-71.73 527.84,-71.73"/>
<text text-anchor="middle" x="638.34" y="-97.73" font-family="monospace" font-size="10.00">pub(self) fn</text>
<polyline fill="none" stroke="black" points="527.84,-90.73 748.84,-90.73 "/>
<text text-anchor="middle" x="638.34" y="-78.73" font-family="monospace" font-size="10.00">keystore::Keystore::get_ed25519_pk</text>
</g>
<!-- lightning_keystore::keystore::Keystore&#45;&gt;lightning_keystore::keystore::Keystore::get_ed25519_pk -->
<g id="edge17" class="edge">
<title>lightning_keystore::keystore::Keystore&#45;&gt;lightning_keystore::keystore::Keystore::get_ed25519_pk</title>
<path fill="none" stroke="#000000" d="M940.39,-403.99C912.8,-346.02 764.86,-181.26 686.04,-116.28"/>
<polygon fill="#000000" stroke="#000000" points="688.15,-113.49 678.17,-109.95 683.76,-118.94 688.15,-113.49"/>
<text text-anchor="middle" x="800.71" y="-263.14" font-family="monospace" font-size="10.00">owns</text>
</g>
<!-- lightning_keystore::keystore::Keystore::get_ed25519_sk -->
<g id="node13" class="node">
<title>lightning_keystore::keystore::Keystore::get_ed25519_sk</title>
<polygon fill="#db5367" stroke="black" points="1136.58,-602.76 1136.58,-640.76 1357.58,-640.76 1357.58,-602.76 1136.58,-602.76"/>
<text text-anchor="middle" x="1247.08" y="-628.76" font-family="monospace" font-size="10.00">pub(self) fn</text>
<polyline fill="none" stroke="black" points="1136.58,-621.76 1357.58,-621.76 "/>
<text text-anchor="middle" x="1247.08" y="-609.76" font-family="monospace" font-size="10.00">keystore::Keystore::get_ed25519_sk</text>
</g>
<!-- lightning_keystore::keystore::Keystore&#45;&gt;lightning_keystore::keystore::Keystore::get_ed25519_sk -->
<g id="edge18" class="edge">
<title>lightning_keystore::keystore::Keystore&#45;&gt;lightning_keystore::keystore::Keystore::get_ed25519_sk</title>
<path fill="none" stroke="#000000" d="M950.46,-442.36C981.09,-480.62 1091.78,-557.18 1169.17,-597.91"/>
<polygon fill="#000000" stroke="#000000" points="1167.94,-601.22 1178.43,-602.7 1171.15,-595 1167.94,-601.22"/>
<text text-anchor="middle" x="1047.31" y="-523.14" font-family="monospace" font-size="10.00">owns</text>
</g>
<!-- lightning_keystore::keystore::Keystore::init -->
<g id="node14" class="node">
<title>lightning_keystore::keystore::Keystore::init</title>
<polygon fill="#81c169" stroke="black" points="876.12,-737.25 876.12,-775.25 1037.12,-775.25 1037.12,-737.25 876.12,-737.25"/>
<text text-anchor="middle" x="956.62" y="-763.25" font-family="monospace" font-size="10.00">pub fn</text>
<polyline fill="none" stroke="black" points="876.12,-756.25 1037.12,-756.25 "/>
<text text-anchor="middle" x="956.62" y="-744.25" font-family="monospace" font-size="10.00">keystore::Keystore::init</text>
</g>
<!-- lightning_keystore::keystore::Keystore&#45;&gt;lightning_keystore::keystore::Keystore::init -->
<g id="edge19" class="edge">
<title>lightning_keystore::keystore::Keystore&#45;&gt;lightning_keystore::keystore::Keystore::init</title>
<path fill="none" stroke="#000000" d="M930.67,-442.56C915.73,-498.5 921.26,-660.38 939.18,-727.05"/>
<polygon fill="#000000" stroke="#000000" points="935.91,-728.34 942.16,-736.9 942.61,-726.31 935.91,-728.34"/>
<text text-anchor="middle" x="922.42" y="-587.8" font-family="monospace" font-size="10.00">owns</text>
</g>
<!-- lightning_keystore::keystore::Keystore::Config&#45;&gt;lightning_keystore::config::KeystoreConfig -->
<g id="edge20" class="edge">
<title>lightning_keystore::keystore::Keystore::Config&#45;&gt;lightning_keystore::config::KeystoreConfig</title>
<path fill="none" stroke="#7f7f7f" stroke-dasharray="5,2" d="M667.12,-379.07C645.6,-430.73 586.69,-572.12 561.29,-633.07"/>
<polygon fill="#7f7f7f" stroke="#7f7f7f" points="557.99,-631.9 557.37,-642.47 564.45,-634.59 557.99,-631.9"/>
<text text-anchor="middle" x="601.71" y="-509.07" font-family="monospace" font-size="10.00">uses</text>
</g>
<!-- lightning_keystore::keystore::Keystore::generate_keys&#45;&gt;lightning_keystore::config::KeystoreConfig -->
<g id="edge21" class="edge">
<title>lightning_keystore::keystore::Keystore::generate_keys&#45;&gt;lightning_keystore::config::KeystoreConfig</title>
<path fill="none" stroke="#7f7f7f" stroke-dasharray="5,2" d="M477.82,-362.92C490.73,-416.85 527.1,-568.67 542.43,-632.65"/>
<polygon fill="#7f7f7f" stroke="#7f7f7f" points="539.05,-633.58 544.79,-642.49 545.86,-631.95 539.05,-633.58"/>
<text text-anchor="middle" x="497.62" y="-500.78" font-family="monospace" font-size="10.00">uses</text>
</g>
<!-- lightning_keystore::keystore::Keystore::get_bls_pk&#45;&gt;lightning_keystore::keystore::Keystore -->
<g id="edge22" class="edge">
<title>lightning_keystore::keystore::Keystore::get_bls_pk&#45;&gt;lightning_keystore::keystore::Keystore</title>
<path fill="none" stroke="#7f7f7f" stroke-dasharray="5,2" d="M960.45,-38.34C936.86,-103.19 919.72,-315.51 930.85,-393.82"/>
<polygon fill="#7f7f7f" stroke="#7f7f7f" points="927.45,-394.7 932.61,-403.95 934.35,-393.5 927.45,-394.7"/>
<text text-anchor="middle" x="933.15" y="-219.08" font-family="monospace" font-size="10.00">uses</text>
</g>
<!-- lightning_keystore::keystore::Keystore::get_bls_sk&#45;&gt;lightning_keystore::keystore::Keystore -->
<g id="edge23" class="edge">
<title>lightning_keystore::keystore::Keystore::get_bls_sk&#45;&gt;lightning_keystore::keystore::Keystore</title>
<path fill="none" stroke="#7f7f7f" stroke-dasharray="5,2" d="M1234.89,-165.44C1152.53,-214.99 1000.67,-338.93 955.32,-395.92"/>
<polygon fill="#7f7f7f" stroke="#7f7f7f" points="952.35,-394.04 949.2,-404.15 957.97,-398.22 952.35,-394.04"/>
<text text-anchor="middle" x="1082.6" y="-283.68" font-family="monospace" font-size="10.00">uses</text>
</g>
<!-- lightning_keystore::keystore::Keystore::get_ed25519_pk&#45;&gt;lightning_keystore::keystore::Keystore -->
<g id="edge24" class="edge">
<title>lightning_keystore::keystore::Keystore::get_ed25519_pk&#45;&gt;lightning_keystore::keystore::Keystore</title>
<path fill="none" stroke="#7f7f7f" stroke-dasharray="5,2" d="M641.19,-109.9C668.78,-167.87 816.72,-332.63 895.55,-397.61"/>
<polygon fill="#7f7f7f" stroke="#7f7f7f" points="893.44,-400.4 903.42,-403.94 897.82,-394.95 893.44,-400.4"/>
<text text-anchor="middle" x="755.87" y="-256.75" font-family="monospace" font-size="10.00">uses</text>
</g>
<!-- lightning_keystore::keystore::Keystore::get_ed25519_sk&#45;&gt;lightning_keystore::keystore::Keystore -->
<g id="edge25" class="edge">
<title>lightning_keystore::keystore::Keystore::get_ed25519_sk&#45;&gt;lightning_keystore::keystore::Keystore</title>
<path fill="none" stroke="#7f7f7f" stroke-dasharray="5,2" d="M1239.87,-602.56C1208.45,-563.31 1092.79,-483.78 1015.25,-443.93"/>
<polygon fill="#7f7f7f" stroke="#7f7f7f" points="1016.5,-440.64 1006,-439.28 1013.36,-446.9 1016.5,-440.64"/>
<text text-anchor="middle" x="1115.06" y="-526.25" font-family="monospace" font-size="10.00">uses</text>
</g>
<!-- lightning_keystore::keystore::Keystore::init&#45;&gt;lightning_keystore::config::KeystoreConfig -->
<g id="edge26" class="edge">
<title>lightning_keystore::keystore::Keystore::init&#45;&gt;lightning_keystore::config::KeystoreConfig</title>
<path fill="none" stroke="#7f7f7f" stroke-dasharray="5,2" d="M875.68,-737.45C805.67,-721.19 704.82,-697.76 633.81,-681.27"/>
<polygon fill="#7f7f7f" stroke="#7f7f7f" points="634.53,-677.84 623.99,-678.99 632.94,-684.66 634.53,-677.84"/>
<text text-anchor="middle" x="742.24" y="-712.36" font-family="monospace" font-size="10.00">uses</text>
</g>
<!-- lightning_keystore::keystore::Keystore::init&#45;&gt;lightning_keystore::keystore::Keystore -->
<g id="edge27" class="edge">
<title>lightning_keystore::keystore::Keystore::init&#45;&gt;lightning_keystore::keystore::Keystore</title>
<path fill="none" stroke="#7f7f7f" stroke-dasharray="5,2" d="M969.21,-736.86C984.15,-680.91 978.62,-519.03 960.69,-452.37"/>
<polygon fill="#7f7f7f" stroke="#7f7f7f" points="963.96,-451.07 957.71,-442.52 957.26,-453.1 963.96,-451.07"/>
<text text-anchor="middle" x="952.45" y="-597.61" font-family="monospace" font-size="10.00">uses</text>
</g>
</g>
</svg>
