<?xml version="1.0" encoding="UTF-8" standalone="no"?>
<!DOCTYPE svg PUBLIC "-//W3C//DTD SVG 1.1//EN"
 "http://www.w3.org/Graphics/SVG/1.1/DTD/svg11.dtd">
<!-- Generated by graphviz version 4.0.0 (0)
 -->
<!-- Pages: 1 -->
<svg width="1175pt" height="746pt"
 viewBox="0.00 0.00 1174.53 746.46" xmlns="http://www.w3.org/2000/svg" xmlns:xlink="http://www.w3.org/1999/xlink">
<g id="graph0" class="graph" transform="scale(1 1) rotate(0) translate(28.8 717.66)">
<polygon fill="white" stroke="transparent" points="-28.8,28.8 -28.8,-717.66 1145.73,-717.66 1145.73,28.8 -28.8,28.8"/>
<text text-anchor="middle" x="558.46" y="-656.06" font-family="Helvetica,sans-Serif" font-size="36.00">lightning_pinger</text>
<!-- lightning_pinger -->
<g id="node1" class="node">
<title>lightning_pinger</title>
<polygon fill="#5397c8" stroke="black" points="564.91,-207.83 564.91,-245.83 677.91,-245.83 677.91,-207.83 564.91,-207.83"/>
<text text-anchor="middle" x="621.41" y="-233.83" font-family="monospace" font-size="10.00">crate</text>
<polyline fill="none" stroke="black" points="564.91,-226.83 677.91,-226.83 "/>
<text text-anchor="middle" x="621.41" y="-214.83" font-family="monospace" font-size="10.00">lightning_pinger</text>
</g>
<!-- lightning_pinger::config::Config -->
<g id="node2" class="node">
<title>lightning_pinger::config::Config</title>
<polygon fill="#81c169" stroke="black" points="680.12,-293.92 680.12,-331.92 781.12,-331.92 781.12,-293.92 680.12,-293.92"/>
<text text-anchor="middle" x="730.62" y="-319.92" font-family="monospace" font-size="10.00">pub struct</text>
<polyline fill="none" stroke="black" points="680.12,-312.92 781.12,-312.92 "/>
<text text-anchor="middle" x="730.62" y="-300.92" font-family="monospace" font-size="10.00">config::Config</text>
</g>
<!-- lightning_pinger&#45;&gt;lightning_pinger::config::Config -->
<g id="edge1" class="edge">
<title>lightning_pinger&#45;&gt;lightning_pinger::config::Config</title>
<path fill="none" stroke="#000000" d="M620.56,-245.91C627.26,-263.08 648.75,-284.66 671.29,-299.82"/>
<polygon fill="#000000" stroke="#000000" points="669.63,-302.92 679.96,-305.3 673.37,-297 669.63,-302.92"/>
<text text-anchor="middle" x="633.43" y="-275.87" font-family="monospace" font-size="10.00">owns</text>
</g>
<!-- lightning_pinger&#45;&gt;lightning_pinger::config::Config -->
<g id="edge2" class="edge">
<title>lightning_pinger&#45;&gt;lightning_pinger::config::Config</title>
<path fill="none" stroke="#7f7f7f" stroke-dasharray="5,2" d="M677.97,-238.09C697.6,-250.79 716.87,-268.67 726.76,-284.62"/>
<polygon fill="#7f7f7f" stroke="#7f7f7f" points="723.76,-286.44 731.43,-293.74 729.99,-283.25 723.76,-286.44"/>
<text text-anchor="middle" x="689.86" y="-264.36" font-family="monospace" font-size="10.00">uses</text>
</g>
<!-- lightning_pinger::pinger::Message -->
<g id="node3" class="node">
<title>lightning_pinger::pinger::Message</title>
<polygon fill="#db5367" stroke="black" points="711.72,-0.5 711.72,-38.5 818.72,-38.5 818.72,-0.5 711.72,-0.5"/>
<text text-anchor="middle" x="765.22" y="-26.5" font-family="monospace" font-size="10.00">pub(self) enum</text>
<polyline fill="none" stroke="black" points="711.72,-19.5 818.72,-19.5 "/>
<text text-anchor="middle" x="765.22" y="-7.5" font-family="monospace" font-size="10.00">pinger::Message</text>
</g>
<!-- lightning_pinger&#45;&gt;lightning_pinger::pinger::Message -->
<g id="edge3" class="edge">
<title>lightning_pinger&#45;&gt;lightning_pinger::pinger::Message</title>
<path fill="none" stroke="#000000" d="M634.68,-207.7C660.31,-170.75 716.7,-89.46 746.27,-46.82"/>
<polygon fill="#000000" stroke="#000000" points="749.15,-48.8 751.98,-38.59 743.4,-44.81 749.15,-48.8"/>
<text text-anchor="middle" x="677.98" y="-130.26" font-family="monospace" font-size="10.00">owns</text>
</g>
<!-- lightning_pinger::pinger::Pinger -->
<g id="node4" class="node">
<title>lightning_pinger::pinger::Pinger</title>
<polygon fill="#81c169" stroke="black" points="287.23,-334.64 287.23,-372.64 388.23,-372.64 388.23,-334.64 287.23,-334.64"/>
<text text-anchor="middle" x="337.73" y="-360.64" font-family="monospace" font-size="10.00">pub struct</text>
<polyline fill="none" stroke="black" points="287.23,-353.64 388.23,-353.64 "/>
<text text-anchor="middle" x="337.73" y="-341.64" font-family="monospace" font-size="10.00">pinger::Pinger</text>
</g>
<!-- lightning_pinger&#45;&gt;lightning_pinger::pinger::Pinger -->
<g id="edge4" class="edge">
<title>lightning_pinger&#45;&gt;lightning_pinger::pinger::Pinger</title>
<path fill="none" stroke="#000000" d="M564.77,-229.29C499.79,-247.87 397.41,-295.41 355.74,-328.04"/>
<polygon fill="#000000" stroke="#000000" points="353.41,-325.43 348.03,-334.56 357.92,-330.78 353.41,-325.43"/>
<text text-anchor="middle" x="447.76" y="-281.67" font-family="monospace" font-size="10.00">owns</text>
</g>
<!-- lightning_pinger&#45;&gt;lightning_pinger::pinger::Pinger -->
<g id="edge5" class="edge">
<title>lightning_pinger&#45;&gt;lightning_pinger::pinger::Pinger</title>
<path fill="none" stroke="#7f7f7f" stroke-dasharray="5,2" d="M611.14,-245.88C576.76,-277.72 468.15,-329.28 398.44,-349.99"/>
<polygon fill="#7f7f7f" stroke="#7f7f7f" points="397.12,-346.73 388.45,-352.82 399.03,-353.46 397.12,-346.73"/>
<text text-anchor="middle" x="492.29" y="-300.94" font-family="monospace" font-size="10.00">uses</text>
</g>
<!-- lightning_pinger::pinger::PingerInner -->
<g id="node9" class="node">
<title>lightning_pinger::pinger::PingerInner</title>
<polygon fill="#db5367" stroke="black" points="754.37,-387.91 754.37,-425.91 885.37,-425.91 885.37,-387.91 754.37,-387.91"/>
<text text-anchor="middle" x="819.87" y="-413.91" font-family="monospace" font-size="10.00">pub(self) struct</text>
<polyline fill="none" stroke="black" points="754.37,-406.91 885.37,-406.91 "/>
<text text-anchor="middle" x="819.87" y="-394.91" font-family="monospace" font-size="10.00">pinger::PingerInner</text>
</g>
<!-- lightning_pinger&#45;&gt;lightning_pinger::pinger::PingerInner -->
<g id="edge6" class="edge">
<title>lightning_pinger&#45;&gt;lightning_pinger::pinger::PingerInner</title>
<path fill="none" stroke="#000000" d="M642.65,-246.1C678.46,-278.6 750.88,-344.31 791.18,-380.87"/>
<polygon fill="#000000" stroke="#000000" points="789.03,-383.65 798.79,-387.78 793.73,-378.47 789.03,-383.65"/>
<text text-anchor="middle" x="704.41" y="-316.49" font-family="monospace" font-size="10.00">owns</text>
</g>
<!-- lightning_pinger::pinger::Pinger::Config -->
<g id="node5" class="node">
<title>lightning_pinger::pinger::Pinger::Config</title>
<polygon fill="#db5367" stroke="black" points="396.44,-236.61 396.44,-274.61 545.44,-274.61 545.44,-236.61 396.44,-236.61"/>
<text text-anchor="middle" x="470.94" y="-262.61" font-family="monospace" font-size="10.00">pub(self) type</text>
<polyline fill="none" stroke="black" points="396.44,-255.61 545.44,-255.61 "/>
<text text-anchor="middle" x="470.94" y="-243.61" font-family="monospace" font-size="10.00">pinger::Pinger::Config</text>
</g>
<!-- lightning_pinger::pinger::Pinger&#45;&gt;lightning_pinger::pinger::Pinger::Config -->
<g id="edge7" class="edge">
<title>lightning_pinger::pinger::Pinger&#45;&gt;lightning_pinger::pinger::Pinger::Config</title>
<path fill="none" stroke="#000000" d="M363.73,-334.51C384.63,-319.12 414.17,-297.39 436.94,-280.63"/>
<polygon fill="#000000" stroke="#000000" points="439.02,-283.44 445,-274.7 434.87,-277.8 439.02,-283.44"/>
<text text-anchor="middle" x="387.84" y="-310.57" font-family="monospace" font-size="10.00">owns</text>
</g>
<!-- lightning_pinger::pinger::Pinger::build_graph -->
<g id="node6" class="node">
<title>lightning_pinger::pinger::Pinger::build_graph</title>
<polygon fill="#db5367" stroke="black" points="0,-251.7 0,-289.7 179,-289.7 179,-251.7 0,-251.7"/>
<text text-anchor="middle" x="89.5" y="-277.7" font-family="monospace" font-size="10.00">pub(self) fn</text>
<polyline fill="none" stroke="black" points="0,-270.7 179,-270.7 "/>
<text text-anchor="middle" x="89.5" y="-258.7" font-family="monospace" font-size="10.00">pinger::Pinger::build_graph</text>
</g>
<!-- lightning_pinger::pinger::Pinger&#45;&gt;lightning_pinger::pinger::Pinger::build_graph -->
<g id="edge8" class="edge">
<title>lightning_pinger::pinger::Pinger&#45;&gt;lightning_pinger::pinger::Pinger::build_graph</title>
<path fill="none" stroke="#000000" d="M287.2,-336.76C249.4,-324.13 197.36,-306.74 156.16,-292.97"/>
<polygon fill="#000000" stroke="#000000" points="157.06,-289.59 146.47,-289.74 154.84,-296.23 157.06,-289.59"/>
<text text-anchor="middle" x="209.18" y="-317.87" font-family="monospace" font-size="10.00">owns</text>
</g>
<!-- lightning_pinger::pinger::Pinger::new -->
<g id="node7" class="node">
<title>lightning_pinger::pinger::Pinger::new</title>
<polygon fill="#81c169" stroke="black" points="517.99,-430.25 517.99,-468.25 648.99,-468.25 648.99,-430.25 517.99,-430.25"/>
<text text-anchor="middle" x="583.49" y="-456.25" font-family="monospace" font-size="10.00">pub fn</text>
<polyline fill="none" stroke="black" points="517.99,-449.25 648.99,-449.25 "/>
<text text-anchor="middle" x="583.49" y="-437.25" font-family="monospace" font-size="10.00">pinger::Pinger::new</text>
</g>
<!-- lightning_pinger::pinger::Pinger&#45;&gt;lightning_pinger::pinger::Pinger::new -->
<g id="edge9" class="edge">
<title>lightning_pinger::pinger::Pinger&#45;&gt;lightning_pinger::pinger::Pinger::new</title>
<path fill="none" stroke="#000000" d="M348.36,-372.9C376.12,-397.15 450.27,-429.65 508.05,-445.99"/>
<polygon fill="#000000" stroke="#000000" points="507.34,-449.42 517.91,-448.65 509.17,-442.66 507.34,-449.42"/>
<text text-anchor="middle" x="415.71" y="-412.44" font-family="monospace" font-size="10.00">owns</text>
</g>
<!-- lightning_pinger::pinger::Pinger::start -->
<g id="node8" class="node">
<title>lightning_pinger::pinger::Pinger::start</title>
<polygon fill="#81c169" stroke="black" points="52.91,-484.69 52.91,-522.69 195.91,-522.69 195.91,-484.69 52.91,-484.69"/>
<text text-anchor="middle" x="124.41" y="-510.69" font-family="monospace" font-size="10.00">pub async fn</text>
<polyline fill="none" stroke="black" points="52.91,-503.69 195.91,-503.69 "/>
<text text-anchor="middle" x="124.41" y="-491.69" font-family="monospace" font-size="10.00">pinger::Pinger::start</text>
</g>
<!-- lightning_pinger::pinger::Pinger&#45;&gt;lightning_pinger::pinger::Pinger::start -->
<g id="edge10" class="edge">
<title>lightning_pinger::pinger::Pinger&#45;&gt;lightning_pinger::pinger::Pinger::start</title>
<path fill="none" stroke="#000000" d="M287.08,-363.21C236.38,-387.94 163.07,-441.47 134.76,-476.23"/>
<polygon fill="#000000" stroke="#000000" points="131.69,-474.5 128.58,-484.63 137.32,-478.65 131.69,-474.5"/>
<text text-anchor="middle" x="198.42" y="-422.72" font-family="monospace" font-size="10.00">owns</text>
</g>
<!-- lightning_pinger::pinger::Pinger::Config&#45;&gt;lightning_pinger::config::Config -->
<g id="edge11" class="edge">
<title>lightning_pinger::pinger::Pinger::Config&#45;&gt;lightning_pinger::config::Config</title>
<path fill="none" stroke="#7f7f7f" stroke-dasharray="5,2" d="M545.7,-272.11C585.01,-280.78 632.58,-291.28 669.63,-299.46"/>
<polygon fill="#7f7f7f" stroke="#7f7f7f" points="669.27,-302.96 679.79,-301.7 670.78,-296.12 669.27,-302.96"/>
<text text-anchor="middle" x="595.17" y="-288.78" font-family="monospace" font-size="10.00">uses</text>
</g>
<!-- lightning_pinger::pinger::Pinger::new&#45;&gt;lightning_pinger::config::Config -->
<g id="edge12" class="edge">
<title>lightning_pinger::pinger::Pinger::new&#45;&gt;lightning_pinger::config::Config</title>
<path fill="none" stroke="#7f7f7f" stroke-dasharray="5,2" d="M604.25,-430C629.89,-406.25 673.59,-365.76 702.29,-339.17"/>
<polygon fill="#7f7f7f" stroke="#7f7f7f" points="705,-341.43 709.96,-332.06 700.24,-336.29 705,-341.43"/>
<text text-anchor="middle" x="640.77" y="-387.59" font-family="monospace" font-size="10.00">uses</text>
</g>
<!-- lightning_pinger::pinger::Pinger::new&#45;&gt;lightning_pinger::pinger::Pinger -->
<g id="edge13" class="edge">
<title>lightning_pinger::pinger::Pinger::new&#45;&gt;lightning_pinger::pinger::Pinger</title>
<path fill="none" stroke="#7f7f7f" stroke-dasharray="5,2" d="M572.85,-429.99C542.64,-403.6 457.48,-367.43 398.27,-352.97"/>
<polygon fill="#7f7f7f" stroke="#7f7f7f" points="398.8,-349.5 388.27,-350.68 397.24,-356.32 398.8,-349.5"/>
<text text-anchor="middle" x="473.06" y="-394.48" font-family="monospace" font-size="10.00">uses</text>
</g>
<!-- lightning_pinger::pinger::Pinger::new&#45;&gt;lightning_pinger::pinger::PingerInner -->
<g id="edge14" class="edge">
<title>lightning_pinger::pinger::Pinger::new&#45;&gt;lightning_pinger::pinger::PingerInner</title>
<path fill="none" stroke="#7f7f7f" stroke-dasharray="5,2" d="M649.02,-437.51C678.48,-432.24 713.43,-425.98 744.02,-420.5"/>
<polygon fill="#7f7f7f" stroke="#7f7f7f" points="744.99,-423.88 754.21,-418.67 743.75,-416.99 744.99,-423.88"/>
<text text-anchor="middle" x="684.02" y="-432" font-family="monospace" font-size="10.00">uses</text>
</g>
<!-- lightning_pinger::pinger::Pinger::start&#45;&gt;lightning_pinger::pinger::Pinger -->
<g id="edge15" class="edge">
<title>lightning_pinger::pinger::Pinger::start&#45;&gt;lightning_pinger::pinger::Pinger</title>
<path fill="none" stroke="#7f7f7f" stroke-dasharray="5,2" d="M193.13,-484.64C241.82,-457.48 302.23,-411.96 327.34,-381.15"/>
<polygon fill="#7f7f7f" stroke="#7f7f7f" points="330.32,-383.01 333.45,-372.88 324.69,-378.85 330.32,-383.01"/>
<text text-anchor="middle" x="247.73" y="-435.9" font-family="monospace" font-size="10.00">uses</text>
</g>
<!-- lightning_pinger::pinger::PingerInner&#45;&gt;lightning_pinger::config::Config -->
<g id="edge16" class="edge">
<title>lightning_pinger::pinger::PingerInner&#45;&gt;lightning_pinger::config::Config</title>
<path fill="none" stroke="#7f7f7f" stroke-dasharray="5,2" d="M801.81,-387.89C788.71,-374.09 770.81,-355.24 756.24,-339.89"/>
<polygon fill="#7f7f7f" stroke="#7f7f7f" points="758.39,-337.07 748.96,-332.23 753.31,-341.89 758.39,-337.07"/>
<text text-anchor="middle" x="766.52" y="-366.89" font-family="monospace" font-size="10.00">uses</text>
</g>
<!-- lightning_pinger::pinger::PingerInner::get_node_registry -->
<g id="node10" class="node">
<title>lightning_pinger::pinger::PingerInner::get_node_registry</title>
<polygon fill="#db5367" stroke="black" points="871.93,-602.36 871.93,-640.36 1116.93,-640.36 1116.93,-602.36 871.93,-602.36"/>
<text text-anchor="middle" x="994.43" y="-628.36" font-family="monospace" font-size="10.00">pub(self) fn</text>
<polyline fill="none" stroke="black" points="871.93,-621.36 1116.93,-621.36 "/>
<text text-anchor="middle" x="994.43" y="-609.36" font-family="monospace" font-size="10.00">pinger::PingerInner::get_node_registry</text>
</g>
<!-- lightning_pinger::pinger::PingerInner&#45;&gt;lightning_pinger::pinger::PingerInner::get_node_registry -->
<g id="edge17" class="edge">
<title>lightning_pinger::pinger::PingerInner&#45;&gt;lightning_pinger::pinger::PingerInner::get_node_registry</title>
<path fill="none" stroke="#000000" d="M819.01,-426.28C831.65,-466.04 897.5,-551.46 945.71,-595.51"/>
<polygon fill="#000000" stroke="#000000" points="943.47,-598.21 953.28,-602.22 948.11,-592.97 943.47,-598.21"/>
<text text-anchor="middle" x="869.86" y="-513.9" font-family="monospace" font-size="10.00">owns</text>
</g>
<!-- lightning_pinger::pinger::PingerInner::new -->
<g id="node11" class="node">
<title>lightning_pinger::pinger::PingerInner::new</title>
<polygon fill="#db5367" stroke="black" points="893.39,-355.03 893.39,-393.03 1054.39,-393.03 1054.39,-355.03 893.39,-355.03"/>
<text text-anchor="middle" x="973.89" y="-381.03" font-family="monospace" font-size="10.00">pub(self) fn</text>
<polyline fill="none" stroke="black" points="893.39,-374.03 1054.39,-374.03 "/>
<text text-anchor="middle" x="973.89" y="-362.03" font-family="monospace" font-size="10.00">pinger::PingerInner::new</text>
</g>
<!-- lightning_pinger::pinger::PingerInner&#45;&gt;lightning_pinger::pinger::PingerInner::new -->
<g id="edge18" class="edge">
<title>lightning_pinger::pinger::PingerInner&#45;&gt;lightning_pinger::pinger::PingerInner::new</title>
<path fill="none" stroke="#000000" d="M885.37,-419.93C910.25,-416.39 936.76,-408.61 954.26,-398.85"/>
<polygon fill="#000000" stroke="#000000" points="956.47,-401.59 962.99,-393.24 952.69,-395.7 956.47,-401.59"/>
<text text-anchor="middle" x="907.32" y="-412.39" font-family="monospace" font-size="10.00">owns</text>
</g>
<!-- lightning_pinger::pinger::PingerInner::run -->
<g id="node12" class="node">
<title>lightning_pinger::pinger::PingerInner::run</title>
<polygon fill="#db5367" stroke="black" points="793.26,-159.6 793.26,-197.6 954.26,-197.6 954.26,-159.6 793.26,-159.6"/>
<text text-anchor="middle" x="873.76" y="-185.6" font-family="monospace" font-size="10.00">pub(self) async fn</text>
<polyline fill="none" stroke="black" points="793.26,-178.6 954.26,-178.6 "/>
<text text-anchor="middle" x="873.76" y="-166.6" font-family="monospace" font-size="10.00">pinger::PingerInner::run</text>
</g>
<!-- lightning_pinger::pinger::PingerInner&#45;&gt;lightning_pinger::pinger::PingerInner::run -->
<g id="edge19" class="edge">
<title>lightning_pinger::pinger::PingerInner&#45;&gt;lightning_pinger::pinger::PingerInner::run</title>
<path fill="none" stroke="#000000" d="M841.98,-387.69C864.8,-347.57 886.77,-255.38 885.04,-207.87"/>
<polygon fill="#000000" stroke="#000000" points="888.53,-207.58 884.23,-197.9 881.55,-208.15 888.53,-207.58"/>
<text text-anchor="middle" x="851.01" y="-300.78" font-family="monospace" font-size="10.00">owns</text>
</g>
<!-- lightning_pinger::pinger::PingerInner::get_node_registry&#45;&gt;lightning_pinger::pinger::PingerInner -->
<g id="edge20" class="edge">
<title>lightning_pinger::pinger::PingerInner::get_node_registry&#45;&gt;lightning_pinger::pinger::PingerInner</title>
<path fill="none" stroke="#7f7f7f" stroke-dasharray="5,2" d="M995.29,-601.99C982.64,-562.23 916.8,-476.81 868.59,-432.76"/>
<polygon fill="#7f7f7f" stroke="#7f7f7f" points="870.82,-430.06 861.01,-426.05 866.18,-435.3 870.82,-430.06"/>
<text text-anchor="middle" x="919.44" y="-520.37" font-family="monospace" font-size="10.00">uses</text>
</g>
<!-- lightning_pinger::pinger::PingerInner::new&#45;&gt;lightning_pinger::config::Config -->
<g id="edge21" class="edge">
<title>lightning_pinger::pinger::PingerInner::new&#45;&gt;lightning_pinger::config::Config</title>
<path fill="none" stroke="#7f7f7f" stroke-dasharray="5,2" d="M898.25,-355.03C863.74,-346.36 823.44,-336.23 791.01,-328.09"/>
<polygon fill="#7f7f7f" stroke="#7f7f7f" points="791.76,-324.67 781.21,-325.62 790.05,-331.45 791.76,-324.67"/>
<text text-anchor="middle" x="832.13" y="-344.56" font-family="monospace" font-size="10.00">uses</text>
</g>
<!-- lightning_pinger::pinger::PingerInner::new&#45;&gt;lightning_pinger::pinger::PingerInner -->
<g id="edge22" class="edge">
<title>lightning_pinger::pinger::PingerInner::new&#45;&gt;lightning_pinger::pinger::PingerInner</title>
<path fill="none" stroke="#7f7f7f" stroke-dasharray="5,2" d="M893.05,-363.69C872.92,-367.84 853.13,-374.42 839.18,-382.27"/>
<polygon fill="#7f7f7f" stroke="#7f7f7f" points="837,-379.51 830.52,-387.89 840.81,-385.38 837,-379.51"/>
<text text-anchor="middle" x="853.61" y="-375.98" font-family="monospace" font-size="10.00">uses</text>
</g>
<!-- lightning_pinger::pinger::PingerInner::run&#45;&gt;lightning_pinger::config::Config -->
<g id="edge23" class="edge">
<title>lightning_pinger::pinger::PingerInner::run&#45;&gt;lightning_pinger::config::Config</title>
<path fill="none" stroke="#7f7f7f" stroke-dasharray="5,2" d="M853.25,-197.84C828.38,-221.18 786.34,-260.63 758.53,-286.73"/>
<polygon fill="#7f7f7f" stroke="#7f7f7f" points="755.99,-284.31 751.09,-293.71 760.78,-289.42 755.99,-284.31"/>
<text text-anchor="middle" x="793.39" y="-245.28" font-family="monospace" font-size="10.00">uses</text>
</g>
<!-- lightning_pinger::pinger::PingerInner::run&#45;&gt;lightning_pinger::pinger::Message -->
<g id="edge24" class="edge">
<title>lightning_pinger::pinger::PingerInner::run&#45;&gt;lightning_pinger::pinger::Message</title>
<path fill="none" stroke="#7f7f7f" stroke-dasharray="5,2" d="M860.67,-159.41C841.6,-131.46 806.07,-79.39 784.15,-47.26"/>
<polygon fill="#7f7f7f" stroke="#7f7f7f" points="786.88,-45.05 778.36,-38.76 781.1,-48.99 786.88,-45.05"/>
<text text-anchor="middle" x="809.91" y="-106.33" font-family="monospace" font-size="10.00">uses</text>
</g>
<!-- lightning_pinger::pinger::PingerInner::run&#45;&gt;lightning_pinger::pinger::PingerInner -->
<g id="edge25" class="edge">
<title>lightning_pinger::pinger::PingerInner::run&#45;&gt;lightning_pinger::pinger::PingerInner</title>
<path fill="none" stroke="#7f7f7f" stroke-dasharray="5,2" d="M851.65,-197.82C828.83,-237.94 806.87,-330.13 808.59,-377.64"/>
<polygon fill="#7f7f7f" stroke="#7f7f7f" points="805.1,-377.93 809.4,-387.61 812.08,-377.36 805.1,-377.93"/>
<text text-anchor="middle" x="817.62" y="-290.73" font-family="monospace" font-size="10.00">uses</text>
</g>
</g>
</svg>
