<?xml version="1.0" encoding="UTF-8" standalone="no"?>
<!DOCTYPE svg PUBLIC "-//W3C//DTD SVG 1.1//EN"
 "http://www.w3.org/Graphics/SVG/1.1/DTD/svg11.dtd">
<!-- Generated by graphviz version 4.0.0 (0)
 -->
<!-- Pages: 1 -->
<svg width="1389pt" height="831pt"
 viewBox="0.00 0.00 1388.50 830.85" xmlns="http://www.w3.org/2000/svg" xmlns:xlink="http://www.w3.org/1999/xlink">
<g id="graph0" class="graph" transform="scale(1 1) rotate(0) translate(28.8 802.05)">
<polygon fill="white" stroke="transparent" points="-28.8,28.8 -28.8,-802.05 1359.7,-802.05 1359.7,28.8 -28.8,28.8"/>
<text text-anchor="middle" x="665.45" y="-740.45" font-family="Helvetica,sans-Serif" font-size="36.00">lightning_origin_ipfs</text>
<!-- fdi -->
<g id="node1" class="node">
<title>fdi</title>
<polygon fill="#5397c8" stroke="black" points="0,-328.1 0,-366.1 101,-366.1 101,-328.1 0,-328.1"/>
<text text-anchor="middle" x="50.5" y="-354.1" font-family="monospace" font-size="10.00">external crate</text>
<polyline fill="none" stroke="black" points="0,-347.1 101,-347.1 "/>
<text text-anchor="middle" x="50.5" y="-335.1" font-family="monospace" font-size="10.00">fdi</text>
</g>
<!-- hyper::client -->
<g id="node2" class="node">
<title>hyper::client</title>
<polygon fill="#81c169" stroke="black" points="381.68,-686.75 381.68,-724.75 476.68,-724.75 476.68,-686.75 381.68,-686.75"/>
<text text-anchor="middle" x="429.18" y="-712.75" font-family="monospace" font-size="10.00">external mod</text>
<polyline fill="none" stroke="black" points="381.68,-705.75 476.68,-705.75 "/>
<text text-anchor="middle" x="429.18" y="-693.75" font-family="monospace" font-size="10.00">hyper::client</text>
</g>
<!-- lightning_origin_ipfs -->
<g id="node3" class="node">
<title>lightning_origin_ipfs</title>
<polygon fill="#5397c8" stroke="black" points="897.78,-654.46 897.78,-692.46 1040.78,-692.46 1040.78,-654.46 897.78,-654.46"/>
<text text-anchor="middle" x="969.28" y="-680.46" font-family="monospace" font-size="10.00">crate</text>
<polyline fill="none" stroke="black" points="897.78,-673.46 1040.78,-673.46 "/>
<text text-anchor="middle" x="969.28" y="-661.46" font-family="monospace" font-size="10.00">lightning_origin_ipfs</text>
</g>
<!-- lightning_origin_ipfs::car_reader -->
<g id="node4" class="node">
<title>lightning_origin_ipfs::car_reader</title>
<polygon fill="#f8c04c" stroke="black" points="1115.9,-255.86 1115.9,-293.86 1330.9,-293.86 1330.9,-255.86 1115.9,-255.86"/>
<text text-anchor="middle" x="1223.4" y="-281.86" font-family="monospace" font-size="10.00">pub(crate) mod</text>
<polyline fill="none" stroke="black" points="1115.9,-274.86 1330.9,-274.86 "/>
<text text-anchor="middle" x="1223.4" y="-262.86" font-family="monospace" font-size="10.00">lightning_origin_ipfs::car_reader</text>
</g>
<!-- lightning_origin_ipfs&#45;&gt;lightning_origin_ipfs::car_reader -->
<g id="edge1" class="edge">
<title>lightning_origin_ipfs&#45;&gt;lightning_origin_ipfs::car_reader</title>
<path fill="none" stroke="#000000" d="M981.54,-654.23C1022.89,-589.38 1157.35,-378.47 1205.8,-302.48"/>
<polygon fill="#000000" stroke="#000000" points="1208.85,-304.21 1211.27,-293.9 1202.94,-300.45 1208.85,-304.21"/>
<text text-anchor="middle" x="1081.17" y="-481.35" font-family="monospace" font-size="10.00">owns</text>
</g>
<!-- lightning_origin_ipfs::config -->
<g id="node7" class="node">
<title>lightning_origin_ipfs::config</title>
<polygon fill="#81c169" stroke="black" points="621.86,-609.95 621.86,-647.95 812.86,-647.95 812.86,-609.95 621.86,-609.95"/>
<text text-anchor="middle" x="717.36" y="-635.95" font-family="monospace" font-size="10.00">pub mod</text>
<polyline fill="none" stroke="black" points="621.86,-628.95 812.86,-628.95 "/>
<text text-anchor="middle" x="717.36" y="-616.95" font-family="monospace" font-size="10.00">lightning_origin_ipfs::config</text>
</g>
<!-- lightning_origin_ipfs&#45;&gt;lightning_origin_ipfs::config -->
<g id="edge2" class="edge">
<title>lightning_origin_ipfs&#45;&gt;lightning_origin_ipfs::config</title>
<path fill="none" stroke="#000000" d="M951.39,-654.4C924.45,-640.38 871.6,-627.36 822.92,-620.66"/>
<polygon fill="#000000" stroke="#000000" points="823.29,-617.18 812.92,-619.37 822.39,-624.13 823.29,-617.18"/>
<text text-anchor="middle" x="874.65" y="-640.53" font-family="monospace" font-size="10.00">owns</text>
</g>
<!-- lightning_origin_ipfs&#45;&gt;lightning_origin_ipfs::config -->
<g id="edge3" class="edge">
<title>lightning_origin_ipfs&#45;&gt;lightning_origin_ipfs::config</title>
<path fill="none" stroke="#7f7f7f" stroke-dasharray="5,2" d="M897.56,-685.39C846.58,-681.57 780.98,-667.99 744.61,-652.4"/>
<polygon fill="#7f7f7f" stroke="#7f7f7f" points="745.7,-649.04 735.16,-647.95 742.72,-655.38 745.7,-649.04"/>
<text text-anchor="middle" x="808.58" y="-671.89" font-family="monospace" font-size="10.00">uses</text>
</g>
<!-- lightning_origin_ipfs::decoder -->
<g id="node8" class="node">
<title>lightning_origin_ipfs::decoder</title>
<polygon fill="#f8c04c" stroke="black" points="1080.4,-507.79 1080.4,-545.79 1277.4,-545.79 1277.4,-507.79 1080.4,-507.79"/>
<text text-anchor="middle" x="1178.9" y="-533.79" font-family="monospace" font-size="10.00">pub(crate) mod</text>
<polyline fill="none" stroke="black" points="1080.4,-526.79 1277.4,-526.79 "/>
<text text-anchor="middle" x="1178.9" y="-514.79" font-family="monospace" font-size="10.00">lightning_origin_ipfs::decoder</text>
</g>
<!-- lightning_origin_ipfs&#45;&gt;lightning_origin_ipfs::decoder -->
<g id="edge4" class="edge">
<title>lightning_origin_ipfs&#45;&gt;lightning_origin_ipfs::decoder</title>
<path fill="none" stroke="#000000" d="M996.69,-654.28C1034.19,-628.04 1101.57,-580.89 1143.05,-551.87"/>
<polygon fill="#000000" stroke="#000000" points="1145.3,-554.57 1151.49,-545.97 1141.29,-548.83 1145.3,-554.57"/>
<text text-anchor="middle" x="1057.37" y="-606.08" font-family="monospace" font-size="10.00">owns</text>
</g>
<!-- lightning_origin_ipfs::error -->
<g id="node9" class="node">
<title>lightning_origin_ipfs::error</title>
<polygon fill="#f8c04c" stroke="black" points="522.7,-148.41 522.7,-186.41 707.7,-186.41 707.7,-148.41 522.7,-148.41"/>
<text text-anchor="middle" x="615.2" y="-174.41" font-family="monospace" font-size="10.00">pub(crate) mod</text>
<polyline fill="none" stroke="black" points="522.7,-167.41 707.7,-167.41 "/>
<text text-anchor="middle" x="615.2" y="-155.41" font-family="monospace" font-size="10.00">lightning_origin_ipfs::error</text>
</g>
<!-- lightning_origin_ipfs&#45;&gt;lightning_origin_ipfs::error -->
<g id="edge5" class="edge">
<title>lightning_origin_ipfs&#45;&gt;lightning_origin_ipfs::error</title>
<path fill="none" stroke="#000000" d="M955.84,-654.24C901.56,-576.66 698.47,-286.41 634.57,-195.09"/>
<polygon fill="#000000" stroke="#000000" points="637.26,-192.84 628.66,-186.65 631.53,-196.85 637.26,-192.84"/>
<text text-anchor="middle" x="782.7" y="-427.67" font-family="monospace" font-size="10.00">owns</text>
</g>
<!-- lightning_origin_ipfs::origin_ipfs -->
<g id="node10" class="node">
<title>lightning_origin_ipfs::origin_ipfs</title>
<polygon fill="#f8c04c" stroke="black" points="460.19,-400.34 460.19,-438.34 681.19,-438.34 681.19,-400.34 460.19,-400.34"/>
<text text-anchor="middle" x="570.69" y="-426.34" font-family="monospace" font-size="10.00">pub(crate) mod</text>
<polyline fill="none" stroke="black" points="460.19,-419.34 681.19,-419.34 "/>
<text text-anchor="middle" x="570.69" y="-407.34" font-family="monospace" font-size="10.00">lightning_origin_ipfs::origin_ipfs</text>
</g>
<!-- lightning_origin_ipfs&#45;&gt;lightning_origin_ipfs::origin_ipfs -->
<g id="edge6" class="edge">
<title>lightning_origin_ipfs&#45;&gt;lightning_origin_ipfs::origin_ipfs</title>
<path fill="none" stroke="#000000" d="M960.15,-654.38C917.62,-606.72 746.82,-494.15 645.84,-442.97"/>
<polygon fill="#000000" stroke="#000000" points="647.1,-439.69 636.59,-438.36 643.98,-445.95 647.1,-439.69"/>
<text text-anchor="middle" x="790.49" y="-551.67" font-family="monospace" font-size="10.00">owns</text>
</g>
<!-- lightning_origin_ipfs&#45;&gt;lightning_origin_ipfs::origin_ipfs -->
<g id="edge7" class="edge">
<title>lightning_origin_ipfs&#45;&gt;lightning_origin_ipfs::origin_ipfs</title>
<path fill="none" stroke="#7f7f7f" stroke-dasharray="5,2" d="M902.99,-654.24C808.26,-607.77 640.73,-498.67 587.06,-445.95"/>
<polygon fill="#7f7f7f" stroke="#7f7f7f" points="589.44,-443.37 579.99,-438.59 584.39,-448.22 589.44,-443.37"/>
<text text-anchor="middle" x="732.53" y="-553.09" font-family="monospace" font-size="10.00">uses</text>
</g>
<!-- lightning_origin_ipfs::car_reader::reader -->
<g id="node5" class="node">
<title>lightning_origin_ipfs::car_reader::reader</title>
<polygon fill="#db5367" stroke="black" points="686.27,-0.5 686.27,-38.5 949.27,-38.5 949.27,-0.5 686.27,-0.5"/>
<text text-anchor="middle" x="817.77" y="-26.5" font-family="monospace" font-size="10.00">pub(self) mod</text>
<polyline fill="none" stroke="black" points="686.27,-19.5 949.27,-19.5 "/>
<text text-anchor="middle" x="817.77" y="-7.5" font-family="monospace" font-size="10.00">lightning_origin_ipfs::car_reader::reader</text>
</g>
<!-- lightning_origin_ipfs::car_reader&#45;&gt;lightning_origin_ipfs::car_reader::reader -->
<g id="edge8" class="edge">
<title>lightning_origin_ipfs::car_reader&#45;&gt;lightning_origin_ipfs::car_reader::reader</title>
<path fill="none" stroke="#000000" d="M1213.95,-255.71C1170.37,-207.78 996.2,-94.48 893.64,-43.11"/>
<polygon fill="#000000" stroke="#000000" points="895.07,-39.92 884.55,-38.63 891.98,-46.2 895.07,-39.92"/>
<text text-anchor="middle" x="1041.3" y="-152.41" font-family="monospace" font-size="10.00">owns</text>
</g>
<!-- lightning_origin_ipfs::car_reader&#45;&gt;lightning_origin_ipfs::car_reader::reader -->
<g id="edge9" class="edge">
<title>lightning_origin_ipfs::car_reader&#45;&gt;lightning_origin_ipfs::car_reader::reader</title>
<path fill="none" stroke="#7f7f7f" stroke-dasharray="5,2" d="M1156.68,-255.76C1060.33,-209.08 888.86,-98.84 834.29,-45.91"/>
<polygon fill="#7f7f7f" stroke="#7f7f7f" points="836.59,-43.25 827.11,-38.53 831.58,-48.14 836.59,-43.25"/>
<text text-anchor="middle" x="982.98" y="-153.83" font-family="monospace" font-size="10.00">uses</text>
</g>
<!-- lightning_origin_ipfs::car_reader::utils -->
<g id="node6" class="node">
<title>lightning_origin_ipfs::car_reader::utils</title>
<polygon fill="#db5367" stroke="black" points="955.32,-47.5 955.32,-85.5 1212.32,-85.5 1212.32,-47.5 955.32,-47.5"/>
<text text-anchor="middle" x="1083.82" y="-73.5" font-family="monospace" font-size="10.00">pub(self) mod</text>
<polyline fill="none" stroke="black" points="955.32,-66.5 1212.32,-66.5 "/>
<text text-anchor="middle" x="1083.82" y="-54.5" font-family="monospace" font-size="10.00">lightning_origin_ipfs::car_reader::utils</text>
</g>
<!-- lightning_origin_ipfs::car_reader&#45;&gt;lightning_origin_ipfs::car_reader::utils -->
<g id="edge10" class="edge">
<title>lightning_origin_ipfs::car_reader&#45;&gt;lightning_origin_ipfs::car_reader::utils</title>
<path fill="none" stroke="#000000" d="M1226.59,-255.63C1218.89,-217.38 1167.49,-135.8 1127.33,-92.87"/>
<polygon fill="#000000" stroke="#000000" points="1129.72,-90.3 1120.23,-85.57 1124.7,-95.18 1129.72,-90.3"/>
<text text-anchor="middle" x="1164.46" y="-177.25" font-family="monospace" font-size="10.00">owns</text>
</g>
<!-- lightning_origin_ipfs::car_reader&#45;&gt;lightning_origin_ipfs::car_reader::utils -->
<g id="edge11" class="edge">
<title>lightning_origin_ipfs::car_reader&#45;&gt;lightning_origin_ipfs::car_reader::utils</title>
<path fill="none" stroke="#7f7f7f" stroke-dasharray="5,2" d="M1186.73,-255.54C1148.82,-218.11 1097.06,-138.98 1083.19,-95.38"/>
<polygon fill="#7f7f7f" stroke="#7f7f7f" points="1086.55,-94.39 1080.61,-85.62 1079.78,-96.18 1086.55,-94.39"/>
<text text-anchor="middle" x="1122.46" y="-178.46" font-family="monospace" font-size="10.00">uses</text>
</g>
<!-- lightning_origin_ipfs::car_reader::reader&#45;&gt;lightning_origin_ipfs::car_reader::utils -->
<g id="edge12" class="edge">
<title>lightning_origin_ipfs::car_reader::reader&#45;&gt;lightning_origin_ipfs::car_reader::utils</title>
<path fill="none" stroke="#7f7f7f" stroke-dasharray="5,2" d="M925.6,-38.55C938.92,-40.9 952.58,-43.32 966.03,-45.69"/>
<polygon fill="#7f7f7f" stroke="#7f7f7f" points="965.81,-49.21 976.27,-47.5 967.03,-42.32 965.81,-49.21"/>
<text text-anchor="middle" x="933.32" y="-45.12" font-family="monospace" font-size="10.00">uses</text>
</g>
<!-- lightning_origin_ipfs::car_reader::reader&#45;&gt;lightning_origin_ipfs::error -->
<g id="edge13" class="edge">
<title>lightning_origin_ipfs::car_reader::reader&#45;&gt;lightning_origin_ipfs::error</title>
<path fill="none" stroke="#7f7f7f" stroke-dasharray="5,2" d="M791.7,-38.53C755.49,-64.98 689.89,-112.88 649.67,-142.24"/>
<polygon fill="#7f7f7f" stroke="#7f7f7f" points="647.5,-139.49 641.49,-148.21 651.63,-145.14 647.5,-139.49"/>
<text text-anchor="middle" x="708.19" y="-93.39" font-family="monospace" font-size="10.00">uses</text>
</g>
<!-- lightning_origin_ipfs::origin_ipfs&#45;&gt;fdi -->
<g id="edge14" class="edge">
<title>lightning_origin_ipfs::origin_ipfs&#45;&gt;fdi</title>
<path fill="none" stroke="#7f7f7f" stroke-dasharray="5,2" d="M460.06,-403.97C353.56,-389.18 196.47,-367.37 111.11,-355.52"/>
<polygon fill="#7f7f7f" stroke="#7f7f7f" points="111.45,-352.03 101.06,-354.12 110.48,-358.96 111.45,-352.03"/>
<text text-anchor="middle" x="273.08" y="-382.74" font-family="monospace" font-size="10.00">uses</text>
</g>
<!-- lightning_origin_ipfs::origin_ipfs&#45;&gt;hyper::client -->
<g id="edge15" class="edge">
<title>lightning_origin_ipfs::origin_ipfs&#45;&gt;hyper::client</title>
<path fill="none" stroke="#7f7f7f" stroke-dasharray="5,2" d="M561.19,-438.57C536.77,-488 471.74,-619.61 443.08,-677.62"/>
<polygon fill="#7f7f7f" stroke="#7f7f7f" points="439.94,-676.08 438.65,-686.6 446.21,-679.18 439.94,-676.08"/>
<text text-anchor="middle" x="489.64" y="-561.1" font-family="monospace" font-size="10.00">uses</text>
</g>
<!-- lightning_origin_ipfs::origin_ipfs&#45;&gt;lightning_origin_ipfs::car_reader::reader -->
<g id="edge16" class="edge">
<title>lightning_origin_ipfs::origin_ipfs&#45;&gt;lightning_origin_ipfs::car_reader::reader</title>
<path fill="none" stroke="#7f7f7f" stroke-dasharray="5,2" d="M582.44,-400.32C622.44,-335.6 753.41,-123.65 800.62,-47.26"/>
<polygon fill="#7f7f7f" stroke="#7f7f7f" points="803.67,-48.98 805.95,-38.63 797.71,-45.3 803.67,-48.98"/>
<text text-anchor="middle" x="679.03" y="-226.79" font-family="monospace" font-size="10.00">uses</text>
</g>
<!-- lightning_origin_ipfs::origin_ipfs&#45;&gt;lightning_origin_ipfs::car_reader::utils -->
<g id="edge17" class="edge">
<title>lightning_origin_ipfs::origin_ipfs&#45;&gt;lightning_origin_ipfs::car_reader::utils</title>
<path fill="none" stroke="#7f7f7f" stroke-dasharray="5,2" d="M598.65,-400.12C685.53,-340.37 950.87,-157.92 1047.85,-91.24"/>
<polygon fill="#7f7f7f" stroke="#7f7f7f" points="1049.9,-94.08 1056.16,-85.53 1045.93,-88.31 1049.9,-94.08"/>
<text text-anchor="middle" x="810.75" y="-248.68" font-family="monospace" font-size="10.00">uses</text>
</g>
<!-- lightning_origin_ipfs::origin_ipfs&#45;&gt;lightning_origin_ipfs::config -->
<g id="edge18" class="edge">
<title>lightning_origin_ipfs::origin_ipfs&#45;&gt;lightning_origin_ipfs::config</title>
<path fill="none" stroke="#7f7f7f" stroke-dasharray="5,2" d="M584.23,-438.68C610.37,-476.04 667.87,-558.22 698.03,-601.32"/>
<polygon fill="#7f7f7f" stroke="#7f7f7f" points="695.26,-603.46 703.86,-609.65 700.99,-599.45 695.26,-603.46"/>
<text text-anchor="middle" x="628.63" y="-523" font-family="monospace" font-size="10.00">uses</text>
</g>
<!-- lightning_origin_ipfs::origin_ipfs&#45;&gt;lightning_origin_ipfs::decoder -->
<g id="edge19" class="edge">
<title>lightning_origin_ipfs::origin_ipfs&#45;&gt;lightning_origin_ipfs::decoder</title>
<path fill="none" stroke="#7f7f7f" stroke-dasharray="5,2" d="M678.38,-438.36C788.83,-457.87 959.71,-488.06 1070.44,-507.63"/>
<polygon fill="#7f7f7f" stroke="#7f7f7f" points="1069.84,-511.08 1080.3,-509.37 1071.06,-504.18 1069.84,-511.08"/>
<text text-anchor="middle" x="861.91" y="-475.99" font-family="monospace" font-size="10.00">uses</text>
</g>
<!-- lightning_origin_ipfs::origin_ipfs&#45;&gt;lightning_origin_ipfs::error -->
<g id="edge20" class="edge">
<title>lightning_origin_ipfs::origin_ipfs&#45;&gt;lightning_origin_ipfs::error</title>
<path fill="none" stroke="#7f7f7f" stroke-dasharray="5,2" d="M574.11,-399.99C581.88,-356.01 600.9,-248.34 610.08,-196.39"/>
<polygon fill="#7f7f7f" stroke="#7f7f7f" points="613.54,-196.94 611.83,-186.48 606.65,-195.72 613.54,-196.94"/>
<text text-anchor="middle" x="579.6" y="-301.19" font-family="monospace" font-size="10.00">uses</text>
</g>
<!-- lightning_schema -->
<g id="node11" class="node">
<title>lightning_schema</title>
<polygon fill="#5397c8" stroke="black" points="265.01,-455.71 265.01,-493.71 378.01,-493.71 378.01,-455.71 265.01,-455.71"/>
<text text-anchor="middle" x="321.51" y="-481.71" font-family="monospace" font-size="10.00">external crate</text>
<polyline fill="none" stroke="black" points="265.01,-474.71 378.01,-474.71 "/>
<text text-anchor="middle" x="321.51" y="-462.71" font-family="monospace" font-size="10.00">lightning_schema</text>
</g>
<!-- lightning_origin_ipfs::origin_ipfs&#45;&gt;lightning_schema -->
<g id="edge21" class="edge">
<title>lightning_origin_ipfs::origin_ipfs&#45;&gt;lightning_schema</title>
<path fill="none" stroke="#7f7f7f" stroke-dasharray="5,2" d="M484.94,-438.39C453.19,-445.44 417.71,-453.33 387.94,-459.95"/>
<polygon fill="#7f7f7f" stroke="#7f7f7f" points="387.07,-456.55 378.07,-462.14 388.59,-463.38 387.07,-456.55"/>
<text text-anchor="middle" x="423.94" y="-452.17" font-family="monospace" font-size="10.00">uses</text>
</g>
<!-- lightning_types -->
<g id="node12" class="node">
<title>lightning_types</title>
<polygon fill="#5397c8" stroke="black" points="267.99,-200.6 267.99,-238.6 374.99,-238.6 374.99,-200.6 267.99,-200.6"/>
<text text-anchor="middle" x="321.49" y="-226.6" font-family="monospace" font-size="10.00">external crate</text>
<polyline fill="none" stroke="black" points="267.99,-219.6 374.99,-219.6 "/>
<text text-anchor="middle" x="321.49" y="-207.6" font-family="monospace" font-size="10.00">lightning_types</text>
</g>
<!-- lightning_origin_ipfs::origin_ipfs&#45;&gt;lightning_types -->
<g id="edge22" class="edge">
<title>lightning_origin_ipfs::origin_ipfs&#45;&gt;lightning_types</title>
<path fill="none" stroke="#7f7f7f" stroke-dasharray="5,2" d="M546.8,-400.18C501.68,-364.02 403.93,-285.68 353.31,-245.1"/>
<polygon fill="#7f7f7f" stroke="#7f7f7f" points="355.3,-242.21 345.31,-238.69 350.93,-247.68 355.3,-242.21"/>
<text text-anchor="middle" x="437.55" y="-325.64" font-family="monospace" font-size="10.00">uses</text>
</g>
</g>
</svg>
