<?xml version="1.0" encoding="UTF-8" standalone="no"?>
<!DOCTYPE svg PUBLIC "-//W3C//DTD SVG 1.1//EN"
 "http://www.w3.org/Graphics/SVG/1.1/DTD/svg11.dtd">
<!-- Generated by graphviz version 4.0.0 (0)
 -->
<!-- Pages: 1 -->
<svg width="1465pt" height="1622pt"
 viewBox="0.00 0.00 1464.60 1621.60" xmlns="http://www.w3.org/2000/svg" xmlns:xlink="http://www.w3.org/1999/xlink">
<g id="graph0" class="graph" transform="scale(1 1) rotate(0) translate(28.8 1592.8)">
<polygon fill="white" stroke="transparent" points="-28.8,28.8 -28.8,-1592.8 1435.8,-1592.8 1435.8,28.8 -28.8,28.8"/>
<text text-anchor="middle" x="703.5" y="-1531.2" font-family="Helvetica,sans-Serif" font-size="36.00">lightning_archive</text>
<!-- lightning_archive -->
<g id="node1" class="node">
<title>lightning_archive</title>
<polygon fill="#5397c8" stroke="black" points="528.1,-693.27 528.1,-731.27 647.1,-731.27 647.1,-693.27 528.1,-693.27"/>
<text text-anchor="middle" x="587.6" y="-719.27" font-family="monospace" font-size="10.00">crate</text>
<polyline fill="none" stroke="black" points="528.1,-712.27 647.1,-712.27 "/>
<text text-anchor="middle" x="587.6" y="-700.27" font-family="monospace" font-size="10.00">lightning_archive</text>
</g>
<!-- lightning_archive::archive::Archive -->
<g id="node2" class="node">
<title>lightning_archive::archive::Archive</title>
<polygon fill="#81c169" stroke="black" points="799.18,-411.86 799.18,-449.86 912.18,-449.86 912.18,-411.86 799.18,-411.86"/>
<text text-anchor="middle" x="855.68" y="-437.86" font-family="monospace" font-size="10.00">pub struct</text>
<polyline fill="none" stroke="black" points="799.18,-430.86 912.18,-430.86 "/>
<text text-anchor="middle" x="855.68" y="-418.86" font-family="monospace" font-size="10.00">archive::Archive</text>
</g>
<!-- lightning_archive&#45;&gt;lightning_archive::archive::Archive -->
<g id="edge1" class="edge">
<title>lightning_archive&#45;&gt;lightning_archive::archive::Archive</title>
<path fill="none" stroke="#000000" d="M606.03,-692.93C652.91,-643.71 776.82,-513.64 830.4,-457.4"/>
<polygon fill="#000000" stroke="#000000" points="833.12,-459.62 837.48,-449.97 828.05,-454.8 833.12,-459.62"/>
<text text-anchor="middle" x="705.71" y="-578.16" font-family="monospace" font-size="10.00">owns</text>
</g>
<!-- lightning_archive::archive::ArchiveInner -->
<g id="node12" class="node">
<title>lightning_archive::archive::ArchiveInner</title>
<polygon fill="#db5367" stroke="black" points="537.76,-1125.8 537.76,-1163.8 680.76,-1163.8 680.76,-1125.8 537.76,-1125.8"/>
<text text-anchor="middle" x="609.26" y="-1151.8" font-family="monospace" font-size="10.00">pub(self) struct</text>
<polyline fill="none" stroke="black" points="537.76,-1144.8 680.76,-1144.8 "/>
<text text-anchor="middle" x="609.26" y="-1132.8" font-family="monospace" font-size="10.00">archive::ArchiveInner</text>
</g>
<!-- lightning_archive&#45;&gt;lightning_archive::archive::ArchiveInner -->
<g id="edge2" class="edge">
<title>lightning_archive&#45;&gt;lightning_archive::archive::ArchiveInner</title>
<path fill="none" stroke="#000000" d="M588.56,-731.41C591.98,-799.79 603.62,-1032.28 607.77,-1115.15"/>
<polygon fill="#000000" stroke="#000000" points="604.29,-1115.57 608.28,-1125.38 611.28,-1115.22 604.29,-1115.57"/>
<text text-anchor="middle" x="585.67" y="-926.28" font-family="monospace" font-size="10.00">owns</text>
</g>
<!-- lightning_archive::archive::BlockInfo -->
<g id="node21" class="node">
<title>lightning_archive::archive::BlockInfo</title>
<polygon fill="#f8c04c" stroke="black" points="165.63,-770.08 165.63,-808.08 290.63,-808.08 290.63,-770.08 165.63,-770.08"/>
<text text-anchor="middle" x="228.13" y="-796.08" font-family="monospace" font-size="10.00">pub(crate) struct</text>
<polyline fill="none" stroke="black" points="165.63,-789.08 290.63,-789.08 "/>
<text text-anchor="middle" x="228.13" y="-777.08" font-family="monospace" font-size="10.00">archive::BlockInfo</text>
</g>
<!-- lightning_archive&#45;&gt;lightning_archive::archive::BlockInfo -->
<g id="edge3" class="edge">
<title>lightning_archive&#45;&gt;lightning_archive::archive::BlockInfo</title>
<path fill="none" stroke="#000000" d="M527.84,-725.04C465.46,-738.37 367.59,-759.28 300.79,-773.55"/>
<polygon fill="#000000" stroke="#000000" points="299.8,-770.19 290.75,-775.7 301.26,-777.03 299.8,-770.19"/>
<text text-anchor="middle" x="401.81" y="-752.3" font-family="monospace" font-size="10.00">owns</text>
</g>
<!-- lightning_archive::archive::insertion_task -->
<g id="node22" class="node">
<title>lightning_archive::archive::insertion_task</title>
<polygon fill="#db5367" stroke="black" points="484.94,-497.07 484.94,-535.07 639.94,-535.07 639.94,-497.07 484.94,-497.07"/>
<text text-anchor="middle" x="562.44" y="-523.07" font-family="monospace" font-size="10.00">pub(self) async fn</text>
<polyline fill="none" stroke="black" points="484.94,-516.07 639.94,-516.07 "/>
<text text-anchor="middle" x="562.44" y="-504.07" font-family="monospace" font-size="10.00">archive::insertion_task</text>
</g>
<!-- lightning_archive&#45;&gt;lightning_archive::archive::insertion_task -->
<g id="edge4" class="edge">
<title>lightning_archive&#45;&gt;lightning_archive::archive::insertion_task</title>
<path fill="none" stroke="#000000" d="M585.14,-693.1C580.73,-658.67 571.42,-586.15 566.2,-545.43"/>
<polygon fill="#000000" stroke="#000000" points="569.65,-544.79 564.9,-535.32 562.7,-545.69 569.65,-544.79"/>
<text text-anchor="middle" x="563.17" y="-622.26" font-family="monospace" font-size="10.00">owns</text>
</g>
<!-- lightning_archive::config::Config -->
<g id="node23" class="node">
<title>lightning_archive::config::Config</title>
<polygon fill="#81c169" stroke="black" points="730.11,-653.05 730.11,-691.05 831.11,-691.05 831.11,-653.05 730.11,-653.05"/>
<text text-anchor="middle" x="780.61" y="-679.05" font-family="monospace" font-size="10.00">pub struct</text>
<polyline fill="none" stroke="black" points="730.11,-672.05 831.11,-672.05 "/>
<text text-anchor="middle" x="780.61" y="-660.05" font-family="monospace" font-size="10.00">config::Config</text>
</g>
<!-- lightning_archive&#45;&gt;lightning_archive::config::Config -->
<g id="edge5" class="edge">
<title>lightning_archive&#45;&gt;lightning_archive::config::Config</title>
<path fill="none" stroke="#000000" d="M647.15,-724.98C684.97,-721.71 731.65,-710.11 758.65,-696.14"/>
<polygon fill="#000000" stroke="#000000" points="760.43,-699.15 767.33,-691.11 756.92,-693.09 760.43,-699.15"/>
<text text-anchor="middle" x="690.4" y="-713.56" font-family="monospace" font-size="10.00">owns</text>
</g>
<!-- lightning_archive&#45;&gt;lightning_archive::config::Config -->
<g id="edge6" class="edge">
<title>lightning_archive&#45;&gt;lightning_archive::config::Config</title>
<path fill="none" stroke="#7f7f7f" stroke-dasharray="5,2" d="M600.81,-693.25C625.07,-677.25 677.62,-663.29 719.71,-659.46"/>
<polygon fill="#7f7f7f" stroke="#7f7f7f" points="720.17,-662.94 729.89,-658.72 719.66,-655.96 720.17,-662.94"/>
<text text-anchor="middle" x="647.76" y="-679.36" font-family="monospace" font-size="10.00">uses</text>
</g>
<!-- lightning_archive::archive::Archive::Config -->
<g id="node3" class="node">
<title>lightning_archive::archive::Archive::Config</title>
<polygon fill="#db5367" stroke="black" points="985.7,-572.49 985.7,-610.49 1146.7,-610.49 1146.7,-572.49 985.7,-572.49"/>
<text text-anchor="middle" x="1066.2" y="-598.49" font-family="monospace" font-size="10.00">pub(self) type</text>
<polyline fill="none" stroke="black" points="985.7,-591.49 1146.7,-591.49 "/>
<text text-anchor="middle" x="1066.2" y="-579.49" font-family="monospace" font-size="10.00">archive::Archive::Config</text>
</g>
<!-- lightning_archive::archive::Archive&#45;&gt;lightning_archive::archive::Archive::Config -->
<g id="edge7" class="edge">
<title>lightning_archive::archive::Archive&#45;&gt;lightning_archive::archive::Archive::Config</title>
<path fill="none" stroke="#000000" d="M880.66,-449.92C918.64,-478.9 990.96,-534.09 1033.22,-566.33"/>
<polygon fill="#000000" stroke="#000000" points="1031.18,-569.18 1041.25,-572.46 1035.43,-563.61 1031.18,-569.18"/>
<text text-anchor="middle" x="944.44" y="-511.13" font-family="monospace" font-size="10.00">owns</text>
</g>
<!-- lightning_archive::archive::Archive::build_graph -->
<g id="node4" class="node">
<title>lightning_archive::archive::Archive::build_graph</title>
<polygon fill="#db5367" stroke="black" points="1106.54,-751.94 1106.54,-789.94 1297.54,-789.94 1297.54,-751.94 1106.54,-751.94"/>
<text text-anchor="middle" x="1202.04" y="-777.94" font-family="monospace" font-size="10.00">pub(self) fn</text>
<polyline fill="none" stroke="black" points="1106.54,-770.94 1297.54,-770.94 "/>
<text text-anchor="middle" x="1202.04" y="-758.94" font-family="monospace" font-size="10.00">archive::Archive::build_graph</text>
</g>
<!-- lightning_archive::archive::Archive&#45;&gt;lightning_archive::archive::Archive::build_graph -->
<g id="edge8" class="edge">
<title>lightning_archive::archive::Archive&#45;&gt;lightning_archive::archive::Archive::build_graph</title>
<path fill="none" stroke="#000000" d="M875.29,-450.12C934,-507.76 1108.36,-678.96 1175.38,-744.77"/>
<polygon fill="#000000" stroke="#000000" points="1173.05,-747.38 1182.64,-751.89 1177.96,-742.39 1173.05,-747.38"/>
<text text-anchor="middle" x="1012.84" y="-600.44" font-family="monospace" font-size="10.00">owns</text>
</g>
<!-- lightning_archive::archive::Archive::get_block_by_hash -->
<g id="node5" class="node">
<title>lightning_archive::archive::Archive::get_block_by_hash</title>
<polygon fill="#db5367" stroke="black" points="966.3,-343.77 966.3,-381.77 1193.3,-381.77 1193.3,-343.77 966.3,-343.77"/>
<text text-anchor="middle" x="1079.8" y="-369.77" font-family="monospace" font-size="10.00">pub(self) async fn</text>
<polyline fill="none" stroke="black" points="966.3,-362.77 1193.3,-362.77 "/>
<text text-anchor="middle" x="1079.8" y="-350.77" font-family="monospace" font-size="10.00">archive::Archive::get_block_by_hash</text>
</g>
<!-- lightning_archive::archive::Archive&#45;&gt;lightning_archive::archive::Archive::get_block_by_hash -->
<g id="edge9" class="edge">
<title>lightning_archive::archive::Archive&#45;&gt;lightning_archive::archive::Archive::get_block_by_hash</title>
<path fill="none" stroke="#000000" d="M912.36,-437.6C960.32,-430.1 1026.19,-408.36 1059.32,-387.78"/>
<polygon fill="#000000" stroke="#000000" points="1061.48,-390.54 1067.76,-382.01 1057.53,-384.76 1061.48,-390.54"/>
<text text-anchor="middle" x="973.34" y="-415.69" font-family="monospace" font-size="10.00">owns</text>
</g>
<!-- lightning_archive::archive::Archive::get_block_by_number -->
<g id="node6" class="node">
<title>lightning_archive::archive::Archive::get_block_by_number</title>
<polygon fill="#db5367" stroke="black" points="1168.29,-442.21 1168.29,-480.21 1407.29,-480.21 1407.29,-442.21 1168.29,-442.21"/>
<text text-anchor="middle" x="1287.79" y="-468.21" font-family="monospace" font-size="10.00">pub(self) async fn</text>
<polyline fill="none" stroke="black" points="1168.29,-461.21 1407.29,-461.21 "/>
<text text-anchor="middle" x="1287.79" y="-449.21" font-family="monospace" font-size="10.00">archive::Archive::get_block_by_number</text>
</g>
<!-- lightning_archive::archive::Archive&#45;&gt;lightning_archive::archive::Archive::get_block_by_number -->
<g id="edge10" class="edge">
<title>lightning_archive::archive::Archive&#45;&gt;lightning_archive::archive::Archive::get_block_by_number</title>
<path fill="none" stroke="#000000" d="M893.65,-449.89C952.2,-464.3 1067.24,-475.25 1158,-477.06"/>
<polygon fill="#000000" stroke="#000000" points="1158.04,-480.56 1168.1,-477.22 1158.15,-473.56 1158.04,-480.56"/>
<text text-anchor="middle" x="1013.32" y="-466.47" font-family="monospace" font-size="10.00">owns</text>
</g>
<!-- lightning_archive::archive::Archive::get_historical_epoch_state -->
<g id="node7" class="node">
<title>lightning_archive::archive::Archive::get_historical_epoch_state</title>
<polygon fill="#db5367" stroke="black" points="705.94,-0.47 705.94,-38.47 986.94,-38.47 986.94,-0.47 705.94,-0.47"/>
<text text-anchor="middle" x="846.44" y="-26.47" font-family="monospace" font-size="10.00">pub(self) async fn</text>
<polyline fill="none" stroke="black" points="705.94,-19.47 986.94,-19.47 "/>
<text text-anchor="middle" x="846.44" y="-7.47" font-family="monospace" font-size="10.00">archive::Archive::get_historical_epoch_state</text>
</g>
<!-- lightning_archive::archive::Archive&#45;&gt;lightning_archive::archive::Archive::get_historical_epoch_state -->
<g id="edge11" class="edge">
<title>lightning_archive::archive::Archive&#45;&gt;lightning_archive::archive::Archive::get_historical_epoch_state</title>
<path fill="none" stroke="#000000" d="M867.38,-411.85C884.83,-345.98 880.78,-127.35 861.81,-48.3"/>
<polygon fill="#000000" stroke="#000000" points="865.15,-47.26 859.16,-38.52 858.4,-49.09 865.15,-47.26"/>
<text text-anchor="middle" x="852.1" y="-233.07" font-family="monospace" font-size="10.00">owns</text>
</g>
<!-- lightning_archive::archive::Archive::get_transaction -->
<g id="node8" class="node">
<title>lightning_archive::archive::Archive::get_transaction</title>
<polygon fill="#db5367" stroke="black" points="639,-268.6 639,-306.6 854,-306.6 854,-268.6 639,-268.6"/>
<text text-anchor="middle" x="746.5" y="-294.6" font-family="monospace" font-size="10.00">pub(self) async fn</text>
<polyline fill="none" stroke="black" points="639,-287.6 854,-287.6 "/>
<text text-anchor="middle" x="746.5" y="-275.6" font-family="monospace" font-size="10.00">archive::Archive::get_transaction</text>
</g>
<!-- lightning_archive::archive::Archive&#45;&gt;lightning_archive::archive::Archive::get_transaction -->
<g id="edge12" class="edge">
<title>lightning_archive::archive::Archive&#45;&gt;lightning_archive::archive::Archive::get_transaction</title>
<path fill="none" stroke="#000000" d="M859.61,-411.58C854.46,-385.62 825.7,-342.44 797.65,-313.93"/>
<polygon fill="#000000" stroke="#000000" points="799.78,-311.11 790.16,-306.66 794.9,-316.14 799.78,-311.11"/>
<text text-anchor="middle" x="816.13" y="-365.76" font-family="monospace" font-size="10.00">owns</text>
</g>
<!-- lightning_archive::archive::Archive::get_transaction_receipt -->
<g id="node9" class="node">
<title>lightning_archive::archive::Archive::get_transaction_receipt</title>
<polygon fill="#db5367" stroke="black" points="367.97,-261.35 367.97,-299.35 630.97,-299.35 630.97,-261.35 367.97,-261.35"/>
<text text-anchor="middle" x="499.47" y="-287.35" font-family="monospace" font-size="10.00">pub(self) async fn</text>
<polyline fill="none" stroke="black" points="367.97,-280.35 630.97,-280.35 "/>
<text text-anchor="middle" x="499.47" y="-268.35" font-family="monospace" font-size="10.00">archive::Archive::get_transaction_receipt</text>
</g>
<!-- lightning_archive::archive::Archive&#45;&gt;lightning_archive::archive::Archive::get_transaction_receipt -->
<g id="edge13" class="edge">
<title>lightning_archive::archive::Archive&#45;&gt;lightning_archive::archive::Archive::get_transaction_receipt</title>
<path fill="none" stroke="#000000" d="M842.92,-411.8C806.47,-382.12 701.38,-333.21 616.88,-302.79"/>
<polygon fill="#000000" stroke="#000000" points="617.8,-299.4 607.2,-299.35 615.46,-306 617.8,-299.4"/>
<text text-anchor="middle" x="717.4" y="-360.29" font-family="monospace" font-size="10.00">owns</text>
</g>
<!-- lightning_archive::archive::Archive::is_active -->
<g id="node10" class="node">
<title>lightning_archive::archive::Archive::is_active</title>
<polygon fill="#db5367" stroke="black" points="1011.84,-62.92 1011.84,-100.92 1190.84,-100.92 1190.84,-62.92 1011.84,-62.92"/>
<text text-anchor="middle" x="1101.34" y="-88.92" font-family="monospace" font-size="10.00">pub(self) fn</text>
<polyline fill="none" stroke="black" points="1011.84,-81.92 1190.84,-81.92 "/>
<text text-anchor="middle" x="1101.34" y="-69.92" font-family="monospace" font-size="10.00">archive::Archive::is_active</text>
</g>
<!-- lightning_archive::archive::Archive&#45;&gt;lightning_archive::archive::Archive::is_active -->
<g id="edge14" class="edge">
<title>lightning_archive::archive::Archive&#45;&gt;lightning_archive::archive::Archive::is_active</title>
<path fill="none" stroke="#000000" d="M888.05,-411.83C948.8,-353.15 1069.45,-180.74 1097.75,-110.88"/>
<polygon fill="#000000" stroke="#000000" points="1101.09,-111.93 1101.23,-101.34 1094.51,-109.53 1101.09,-111.93"/>
<text text-anchor="middle" x="980.4" y="-264.35" font-family="monospace" font-size="10.00">owns</text>
</g>
<!-- lightning_archive::archive::Archive::new -->
<g id="node11" class="node">
<title>lightning_archive::archive::Archive::new</title>
<polygon fill="#81c169" stroke="black" points="800.02,-883.43 800.02,-921.43 943.02,-921.43 943.02,-883.43 800.02,-883.43"/>
<text text-anchor="middle" x="871.52" y="-909.43" font-family="monospace" font-size="10.00">pub fn</text>
<polyline fill="none" stroke="black" points="800.02,-902.43 943.02,-902.43 "/>
<text text-anchor="middle" x="871.52" y="-890.43" font-family="monospace" font-size="10.00">archive::Archive::new</text>
</g>
<!-- lightning_archive::archive::Archive&#45;&gt;lightning_archive::archive::Archive::new -->
<g id="edge15" class="edge">
<title>lightning_archive::archive::Archive&#45;&gt;lightning_archive::archive::Archive::new</title>
<path fill="none" stroke="#000000" d="M844.9,-450.03C827.45,-523.2 835.41,-785.33 856.58,-873.36"/>
<polygon fill="#000000" stroke="#000000" points="853.25,-874.46 859.23,-883.21 860.01,-872.65 853.25,-874.46"/>
<text text-anchor="middle" x="863.24" y="-664.69" font-family="monospace" font-size="10.00">owns</text>
</g>
<!-- lightning_archive::archive::Archive::Config&#45;&gt;lightning_archive::config::Config -->
<g id="edge16" class="edge">
<title>lightning_archive::archive::Archive::Config&#45;&gt;lightning_archive::config::Config</title>
<path fill="none" stroke="#7f7f7f" stroke-dasharray="5,2" d="M998.51,-610.58C950.72,-624.06 887.24,-641.97 841.13,-654.98"/>
<polygon fill="#7f7f7f" stroke="#7f7f7f" points="839.94,-651.68 831.27,-657.76 841.84,-658.41 839.94,-651.68"/>
<text text-anchor="middle" x="907.32" y="-635.78" font-family="monospace" font-size="10.00">uses</text>
</g>
<!-- lightning_archive::archive::Archive::get_block_by_hash&#45;&gt;lightning_archive::archive::Archive -->
<g id="edge17" class="edge">
<title>lightning_archive::archive::Archive::get_block_by_hash&#45;&gt;lightning_archive::archive::Archive</title>
<path fill="none" stroke="#7f7f7f" stroke-dasharray="5,2" d="M966.14,-369.12C931.46,-379.23 896.99,-392.86 875.92,-406"/>
<polygon fill="#7f7f7f" stroke="#7f7f7f" points="873.75,-403.25 867.49,-411.79 877.72,-409.02 873.75,-403.25"/>
<text text-anchor="middle" x="908.53" y="-390.56" font-family="monospace" font-size="10.00">uses</text>
</g>
<!-- lightning_archive::archive::Archive::get_block_by_number&#45;&gt;lightning_archive::archive::Archive -->
<g id="edge18" class="edge">
<title>lightning_archive::archive::Archive::get_block_by_number&#45;&gt;lightning_archive::archive::Archive</title>
<path fill="none" stroke="#7f7f7f" stroke-dasharray="5,2" d="M1249.82,-442.18C1176.43,-424.12 1014.3,-411.5 922.48,-415.49"/>
<polygon fill="#7f7f7f" stroke="#7f7f7f" points="922.26,-412 912.46,-416.02 922.63,-418.99 922.26,-412"/>
<text text-anchor="middle" x="1073.65" y="-431.84" font-family="monospace" font-size="10.00">uses</text>
</g>
<!-- lightning_archive::archive::Archive::get_historical_epoch_state&#45;&gt;lightning_archive::archive::Archive -->
<g id="edge19" class="edge">
<title>lightning_archive::archive::Archive::get_historical_epoch_state&#45;&gt;lightning_archive::archive::Archive</title>
<path fill="none" stroke="#7f7f7f" stroke-dasharray="5,2" d="M834.73,-38.49C817.28,-104.35 821.33,-322.99 840.31,-402.03"/>
<polygon fill="#7f7f7f" stroke="#7f7f7f" points="836.96,-403.07 842.95,-411.81 843.72,-401.24 836.96,-403.07"/>
<text text-anchor="middle" x="825.02" y="-223.26" font-family="monospace" font-size="10.00">uses</text>
</g>
<!-- lightning_archive::archive::Archive::get_transaction&#45;&gt;lightning_archive::archive::Archive -->
<g id="edge20" class="edge">
<title>lightning_archive::archive::Archive::get_transaction&#45;&gt;lightning_archive::archive::Archive</title>
<path fill="none" stroke="#7f7f7f" stroke-dasharray="5,2" d="M742.57,-306.88C747.72,-332.84 776.48,-376.03 804.53,-404.54"/>
<polygon fill="#7f7f7f" stroke="#7f7f7f" points="802.4,-407.35 812.02,-411.81 807.28,-402.33 802.4,-407.35"/>
<text text-anchor="middle" x="761.05" y="-358.71" font-family="monospace" font-size="10.00">uses</text>
</g>
<!-- lightning_archive::archive::Archive::get_transaction_receipt&#45;&gt;lightning_archive::archive::Archive -->
<g id="edge21" class="edge">
<title>lightning_archive::archive::Archive::get_transaction_receipt&#45;&gt;lightning_archive::archive::Archive</title>
<path fill="none" stroke="#7f7f7f" stroke-dasharray="5,2" d="M512.24,-299.41C556.56,-335.51 702.44,-400.06 789.31,-425.19"/>
<polygon fill="#7f7f7f" stroke="#7f7f7f" points="788.51,-428.6 799.08,-427.91 790.39,-421.86 788.51,-428.6"/>
<text text-anchor="middle" x="638.27" y="-365.3" font-family="monospace" font-size="10.00">uses</text>
</g>
<!-- lightning_archive::archive::Archive::is_active&#45;&gt;lightning_archive::archive::Archive -->
<g id="edge22" class="edge">
<title>lightning_archive::archive::Archive::is_active&#45;&gt;lightning_archive::archive::Archive</title>
<path fill="none" stroke="#7f7f7f" stroke-dasharray="5,2" d="M1068.97,-100.95C1008.23,-159.63 887.58,-332.04 859.28,-401.91"/>
<polygon fill="#7f7f7f" stroke="#7f7f7f" points="855.94,-400.85 855.79,-411.45 862.51,-403.26 855.94,-400.85"/>
<text text-anchor="middle" x="951.63" y="-254.43" font-family="monospace" font-size="10.00">uses</text>
</g>
<!-- lightning_archive::archive::Archive::new&#45;&gt;lightning_archive::archive::Archive -->
<g id="edge23" class="edge">
<title>lightning_archive::archive::Archive::new&#45;&gt;lightning_archive::archive::Archive</title>
<path fill="none" stroke="#7f7f7f" stroke-dasharray="5,2" d="M882.3,-883.27C899.75,-810.09 891.79,-547.96 870.62,-459.93"/>
<polygon fill="#7f7f7f" stroke="#7f7f7f" points="873.95,-458.83 867.97,-450.08 867.19,-460.65 873.95,-458.83"/>
<text text-anchor="middle" x="888.96" y="-674.6" font-family="monospace" font-size="10.00">uses</text>
</g>
<!-- lightning_archive::archive::Archive::new&#45;&gt;lightning_archive::archive::ArchiveInner -->
<g id="edge24" class="edge">
<title>lightning_archive::archive::Archive::new&#45;&gt;lightning_archive::archive::ArchiveInner</title>
<path fill="none" stroke="#7f7f7f" stroke-dasharray="5,2" d="M850.94,-921.45C804.33,-964.53 690.62,-1069.6 637.49,-1118.71"/>
<polygon fill="#7f7f7f" stroke="#7f7f7f" points="635.07,-1116.17 630.1,-1125.53 639.82,-1121.32 635.07,-1116.17"/>
<text text-anchor="middle" x="731.71" y="-1023.08" font-family="monospace" font-size="10.00">uses</text>
</g>
<!-- lightning_archive::archive::Archive::new&#45;&gt;lightning_archive::config::Config -->
<g id="edge25" class="edge">
<title>lightning_archive::archive::Archive::new&#45;&gt;lightning_archive::config::Config</title>
<path fill="none" stroke="#7f7f7f" stroke-dasharray="5,2" d="M863.93,-883.18C847.91,-842.6 810.6,-748.07 791.83,-700.48"/>
<polygon fill="#7f7f7f" stroke="#7f7f7f" points="795.04,-699.1 788.12,-691.08 788.53,-701.67 795.04,-699.1"/>
<text text-anchor="middle" x="815.38" y="-794.83" font-family="monospace" font-size="10.00">uses</text>
</g>
<!-- lightning_archive::archive::ArchiveInner::get_block_by_block_number -->
<g id="node13" class="node">
<title>lightning_archive::archive::ArchiveInner::get_block_by_block_number</title>
<polygon fill="#db5367" stroke="black" points="695.52,-1461.78 695.52,-1499.78 1000.52,-1499.78 1000.52,-1461.78 695.52,-1461.78"/>
<text text-anchor="middle" x="848.02" y="-1487.78" font-family="monospace" font-size="10.00">pub(self) fn</text>
<polyline fill="none" stroke="black" points="695.52,-1480.78 1000.52,-1480.78 "/>
<text text-anchor="middle" x="848.02" y="-1468.78" font-family="monospace" font-size="10.00">archive::ArchiveInner::get_block_by_block_number</text>
</g>
<!-- lightning_archive::archive::ArchiveInner&#45;&gt;lightning_archive::archive::ArchiveInner::get_block_by_block_number -->
<g id="edge26" class="edge">
<title>lightning_archive::archive::ArchiveInner&#45;&gt;lightning_archive::archive::ArchiveInner::get_block_by_block_number</title>
<path fill="none" stroke="#000000" d="M609.22,-1164.03C627.46,-1221.94 743.06,-1388.31 807.57,-1454.28"/>
<polygon fill="#000000" stroke="#000000" points="805.23,-1456.89 814.79,-1461.45 810.16,-1451.92 805.23,-1456.89"/>
<text text-anchor="middle" x="695.89" y="-1312.16" font-family="monospace" font-size="10.00">owns</text>
</g>
<!-- lightning_archive::archive::ArchiveInner::get_block_by_hash -->
<g id="node14" class="node">
<title>lightning_archive::archive::ArchiveInner::get_block_by_hash</title>
<polygon fill="#db5367" stroke="black" points="428.06,-1477.74 428.06,-1515.74 685.06,-1515.74 685.06,-1477.74 428.06,-1477.74"/>
<text text-anchor="middle" x="556.56" y="-1503.74" font-family="monospace" font-size="10.00">pub(self) fn</text>
<polyline fill="none" stroke="black" points="428.06,-1496.74 685.06,-1496.74 "/>
<text text-anchor="middle" x="556.56" y="-1484.74" font-family="monospace" font-size="10.00">archive::ArchiveInner::get_block_by_hash</text>
</g>
<!-- lightning_archive::archive::ArchiveInner&#45;&gt;lightning_archive::archive::ArchiveInner::get_block_by_hash -->
<g id="edge27" class="edge">
<title>lightning_archive::archive::ArchiveInner&#45;&gt;lightning_archive::archive::ArchiveInner::get_block_by_hash</title>
<path fill="none" stroke="#000000" d="M592.5,-1163.99C566.43,-1222.25 539.74,-1396.96 545.52,-1467.14"/>
<polygon fill="#000000" stroke="#000000" points="542.09,-1467.95 546.73,-1477.47 549.04,-1467.13 542.09,-1467.95"/>
<text text-anchor="middle" x="556.51" y="-1318.56" font-family="monospace" font-size="10.00">owns</text>
</g>
<!-- lightning_archive::archive::ArchiveInner::get_block_by_num -->
<g id="node15" class="node">
<title>lightning_archive::archive::ArchiveInner::get_block_by_num</title>
<polygon fill="#db5367" stroke="black" points="0.37,-1022.25 0.37,-1060.25 251.37,-1060.25 251.37,-1022.25 0.37,-1022.25"/>
<text text-anchor="middle" x="125.87" y="-1048.25" font-family="monospace" font-size="10.00">pub(self) fn</text>
<polyline fill="none" stroke="black" points="0.37,-1041.25 251.37,-1041.25 "/>
<text text-anchor="middle" x="125.87" y="-1029.25" font-family="monospace" font-size="10.00">archive::ArchiveInner::get_block_by_num</text>
</g>
<!-- lightning_archive::archive::ArchiveInner&#45;&gt;lightning_archive::archive::ArchiveInner::get_block_by_num -->
<g id="edge28" class="edge">
<title>lightning_archive::archive::ArchiveInner&#45;&gt;lightning_archive::archive::ArchiveInner::get_block_by_num</title>
<path fill="none" stroke="#000000" d="M584.34,-1125.73C525.4,-1099.71 374.24,-1063.63 261.47,-1045.46"/>
<polygon fill="#000000" stroke="#000000" points="261.8,-1041.97 251.37,-1043.87 260.71,-1048.89 261.8,-1041.97"/>
<text text-anchor="middle" x="410.41" y="-1088.6" font-family="monospace" font-size="10.00">owns</text>
</g>
<!-- lightning_archive::archive::ArchiveInner::get_historical_query_runner -->
<g id="node16" class="node">
<title>lightning_archive::archive::ArchiveInner::get_historical_query_runner</title>
<polygon fill="#db5367" stroke="black" points="905.74,-1168.56 905.74,-1206.56 1222.74,-1206.56 1222.74,-1168.56 905.74,-1168.56"/>
<text text-anchor="middle" x="1064.24" y="-1194.56" font-family="monospace" font-size="10.00">pub(self) fn</text>
<polyline fill="none" stroke="black" points="905.74,-1187.56 1222.74,-1187.56 "/>
<text text-anchor="middle" x="1064.24" y="-1175.56" font-family="monospace" font-size="10.00">archive::ArchiveInner::get_historical_query_runner</text>
</g>
<!-- lightning_archive::archive::ArchiveInner&#45;&gt;lightning_archive::archive::ArchiveInner::get_historical_query_runner -->
<g id="edge29" class="edge">
<title>lightning_archive::archive::ArchiveInner&#45;&gt;lightning_archive::archive::ArchiveInner::get_historical_query_runner</title>
<path fill="none" stroke="#000000" d="M645.02,-1163.88C698.79,-1178.65 803.86,-1192.03 895.36,-1197.92"/>
<polygon fill="#000000" stroke="#000000" points="895.4,-1201.43 905.59,-1198.55 895.83,-1194.44 895.4,-1201.43"/>
<text text-anchor="middle" x="757.69" y="-1183.9" font-family="monospace" font-size="10.00">owns</text>
</g>
<!-- lightning_archive::archive::ArchiveInner::get_transaction_receipt -->
<g id="node17" class="node">
<title>lightning_archive::archive::ArchiveInner::get_transaction_receipt</title>
<polygon fill="#db5367" stroke="black" points="638.72,-1074.6 638.72,-1112.6 931.72,-1112.6 931.72,-1074.6 638.72,-1074.6"/>
<text text-anchor="middle" x="785.22" y="-1100.6" font-family="monospace" font-size="10.00">pub(self) fn</text>
<polyline fill="none" stroke="black" points="638.72,-1093.6 931.72,-1093.6 "/>
<text text-anchor="middle" x="785.22" y="-1081.6" font-family="monospace" font-size="10.00">archive::ArchiveInner::get_transaction_receipt</text>
</g>
<!-- lightning_archive::archive::ArchiveInner&#45;&gt;lightning_archive::archive::ArchiveInner::get_transaction_receipt -->
<g id="edge30" class="edge">
<title>lightning_archive::archive::ArchiveInner&#45;&gt;lightning_archive::archive::ArchiveInner::get_transaction_receipt</title>
<path fill="none" stroke="#000000" d="M680.82,-1151.17C712.27,-1144.48 746.59,-1132.05 767.1,-1118.73"/>
<polygon fill="#000000" stroke="#000000" points="769.23,-1121.5 775.24,-1112.77 765.1,-1115.85 769.23,-1121.5"/>
<text text-anchor="middle" x="711.46" y="-1137.95" font-family="monospace" font-size="10.00">owns</text>
</g>
<!-- lightning_archive::archive::ArchiveInner::handle_block -->
<g id="node18" class="node">
<title>lightning_archive::archive::ArchiveInner::handle_block</title>
<polygon fill="#db5367" stroke="black" points="296.94,-1051.14 296.94,-1089.14 523.94,-1089.14 523.94,-1051.14 296.94,-1051.14"/>
<text text-anchor="middle" x="410.44" y="-1077.14" font-family="monospace" font-size="10.00">pub(self) fn</text>
<polyline fill="none" stroke="black" points="296.94,-1070.14 523.94,-1070.14 "/>
<text text-anchor="middle" x="410.44" y="-1058.14" font-family="monospace" font-size="10.00">archive::ArchiveInner::handle_block</text>
</g>
<!-- lightning_archive::archive::ArchiveInner&#45;&gt;lightning_archive::archive::ArchiveInner::handle_block -->
<g id="edge31" class="edge">
<title>lightning_archive::archive::ArchiveInner&#45;&gt;lightning_archive::archive::ArchiveInner::handle_block</title>
<path fill="none" stroke="#000000" d="M600.16,-1125.56C586.93,-1113.16 561.61,-1099.4 533.65,-1087.83"/>
<polygon fill="#000000" stroke="#000000" points="534.66,-1084.47 524.08,-1084 532.06,-1090.97 534.66,-1084.47"/>
<text text-anchor="middle" x="554.41" y="-1109.7" font-family="monospace" font-size="10.00">owns</text>
</g>
<!-- lightning_archive::archive::ArchiveInner::handle_epoch -->
<g id="node19" class="node">
<title>lightning_archive::archive::ArchiveInner::handle_epoch</title>
<polygon fill="#db5367" stroke="black" points="446.85,-954.86 446.85,-992.86 673.85,-992.86 673.85,-954.86 446.85,-954.86"/>
<text text-anchor="middle" x="560.35" y="-980.86" font-family="monospace" font-size="10.00">pub(self) async fn</text>
<polyline fill="none" stroke="black" points="446.85,-973.86 673.85,-973.86 "/>
<text text-anchor="middle" x="560.35" y="-961.86" font-family="monospace" font-size="10.00">archive::ArchiveInner::handle_epoch</text>
</g>
<!-- lightning_archive::archive::ArchiveInner&#45;&gt;lightning_archive::archive::ArchiveInner::handle_epoch -->
<g id="edge32" class="edge">
<title>lightning_archive::archive::ArchiveInner&#45;&gt;lightning_archive::archive::ArchiveInner::handle_epoch</title>
<path fill="none" stroke="#000000" d="M620.43,-1125.51C624.43,-1095.09 609.77,-1036.59 591.24,-1001.69"/>
<polygon fill="#000000" stroke="#000000" points="594.21,-999.85 586.19,-992.94 588.15,-1003.35 594.21,-999.85"/>
<text text-anchor="middle" x="593.34" y="-1066.6" font-family="monospace" font-size="10.00">owns</text>
</g>
<!-- lightning_archive::archive::ArchiveInner::new -->
<g id="node20" class="node">
<title>lightning_archive::archive::ArchiveInner::new</title>
<polygon fill="#db5367" stroke="black" points="242.35,-1393.76 242.35,-1431.76 415.35,-1431.76 415.35,-1393.76 242.35,-1393.76"/>
<text text-anchor="middle" x="328.85" y="-1419.76" font-family="monospace" font-size="10.00">pub(self) fn</text>
<polyline fill="none" stroke="black" points="242.35,-1412.76 415.35,-1412.76 "/>
<text text-anchor="middle" x="328.85" y="-1400.76" font-family="monospace" font-size="10.00">archive::ArchiveInner::new</text>
</g>
<!-- lightning_archive::archive::ArchiveInner&#45;&gt;lightning_archive::archive::ArchiveInner::new -->
<g id="edge33" class="edge">
<title>lightning_archive::archive::ArchiveInner&#45;&gt;lightning_archive::archive::ArchiveInner::new</title>
<path fill="none" stroke="#000000" d="M562.76,-1163.86C494.18,-1211.71 372.86,-1329.55 337.33,-1385.01"/>
<polygon fill="#000000" stroke="#000000" points="334.29,-1383.28 332.22,-1393.67 340.32,-1386.84 334.29,-1383.28"/>
<text text-anchor="middle" x="437.55" y="-1277.44" font-family="monospace" font-size="10.00">owns</text>
</g>
<!-- lightning_archive::archive::ArchiveInner::get_block_by_block_number&#45;&gt;lightning_archive::archive::ArchiveInner -->
<g id="edge34" class="edge">
<title>lightning_archive::archive::ArchiveInner::get_block_by_block_number&#45;&gt;lightning_archive::archive::ArchiveInner</title>
<path fill="none" stroke="#7f7f7f" stroke-dasharray="5,2" d="M848.06,-1461.55C829.82,-1403.64 714.22,-1237.27 649.71,-1171.3"/>
<polygon fill="#7f7f7f" stroke="#7f7f7f" points="652.05,-1168.69 642.49,-1164.13 647.12,-1173.66 652.05,-1168.69"/>
<text text-anchor="middle" x="736.39" y="-1319.42" font-family="monospace" font-size="10.00">uses</text>
</g>
<!-- lightning_archive::archive::ArchiveInner::get_block_by_hash&#45;&gt;lightning_archive::archive::ArchiveInner -->
<g id="edge35" class="edge">
<title>lightning_archive::archive::ArchiveInner::get_block_by_hash&#45;&gt;lightning_archive::archive::ArchiveInner</title>
<path fill="none" stroke="#7f7f7f" stroke-dasharray="5,2" d="M573.31,-1477.55C599.38,-1419.29 626.07,-1244.57 620.3,-1174.39"/>
<polygon fill="#7f7f7f" stroke="#7f7f7f" points="623.73,-1173.59 619.09,-1164.06 616.78,-1174.4 623.73,-1173.59"/>
<text text-anchor="middle" x="584.31" y="-1328.97" font-family="monospace" font-size="10.00">uses</text>
</g>
<!-- lightning_archive::archive::ArchiveInner::get_block_by_num&#45;&gt;lightning_archive::archive::ArchiveInner -->
<g id="edge36" class="edge">
<title>lightning_archive::archive::ArchiveInner::get_block_by_num&#45;&gt;lightning_archive::archive::ArchiveInner</title>
<path fill="none" stroke="#7f7f7f" stroke-dasharray="5,2" d="M150.78,-1060.32C219.75,-1090.76 414.98,-1134.99 527.22,-1148.16"/>
<polygon fill="#7f7f7f" stroke="#7f7f7f" points="527.15,-1151.67 537.48,-1149.3 527.93,-1144.71 527.15,-1151.67"/>
<text text-anchor="middle" x="326.5" y="-1107.24" font-family="monospace" font-size="10.00">uses</text>
</g>
<!-- lightning_archive::archive::ArchiveInner::get_block_by_num&#45;&gt;lightning_archive::archive::BlockInfo -->
<g id="edge37" class="edge">
<title>lightning_archive::archive::ArchiveInner::get_block_by_num&#45;&gt;lightning_archive::archive::BlockInfo</title>
<path fill="none" stroke="#7f7f7f" stroke-dasharray="5,2" d="M133.73,-1021.88C151.61,-977.77 195.46,-869.64 216.5,-817.76"/>
<polygon fill="#7f7f7f" stroke="#7f7f7f" points="219.87,-818.75 220.39,-808.17 213.38,-816.12 219.87,-818.75"/>
<text text-anchor="middle" x="162.61" y="-922.82" font-family="monospace" font-size="10.00">uses</text>
</g>
<!-- lightning_archive::archive::ArchiveInner::get_historical_query_runner&#45;&gt;lightning_archive::archive::ArchiveInner -->
<g id="edge38" class="edge">
<title>lightning_archive::archive::ArchiveInner::get_historical_query_runner&#45;&gt;lightning_archive::archive::ArchiveInner</title>
<path fill="none" stroke="#7f7f7f" stroke-dasharray="5,2" d="M1028.47,-1168.48C956.23,-1148.63 791.36,-1131.29 691.24,-1131.27"/>
<polygon fill="#7f7f7f" stroke="#7f7f7f" points="691.14,-1127.77 681.16,-1131.33 691.18,-1134.77 691.14,-1127.77"/>
<text text-anchor="middle" x="847.36" y="-1152.88" font-family="monospace" font-size="10.00">uses</text>
</g>
<!-- lightning_archive::archive::ArchiveInner::get_transaction_receipt&#45;&gt;lightning_archive::archive::ArchiveInner -->
<g id="edge39" class="edge">
<title>lightning_archive::archive::ArchiveInner::get_transaction_receipt&#45;&gt;lightning_archive::archive::ArchiveInner</title>
<path fill="none" stroke="#7f7f7f" stroke-dasharray="5,2" d="M639.47,-1112.71C634.99,-1115.02 630.87,-1117.39 627.19,-1119.79"/>
<polygon fill="#7f7f7f" stroke="#7f7f7f" points="625.02,-1117.04 619.04,-1125.79 629.17,-1122.68 625.02,-1117.04"/>
<text text-anchor="middle" x="620.83" y="-1108.25" font-family="monospace" font-size="10.00">uses</text>
</g>
<!-- lightning_archive::archive::ArchiveInner::handle_block&#45;&gt;lightning_archive::archive::ArchiveInner -->
<g id="edge40" class="edge">
<title>lightning_archive::archive::ArchiveInner::handle_block&#45;&gt;lightning_archive::archive::ArchiveInner</title>
<path fill="none" stroke="#7f7f7f" stroke-dasharray="5,2" d="M419.53,-1089.37C439.19,-1107.79 485.53,-1129.21 527.57,-1142"/>
<polygon fill="#7f7f7f" stroke="#7f7f7f" points="526.72,-1145.4 537.3,-1144.83 528.67,-1138.68 526.72,-1145.4"/>
<text text-anchor="middle" x="461.05" y="-1118.69" font-family="monospace" font-size="10.00">uses</text>
</g>
<!-- lightning_archive::archive::ArchiveInner::handle_block&#45;&gt;lightning_archive::archive::BlockInfo -->
<g id="edge41" class="edge">
<title>lightning_archive::archive::ArchiveInner::handle_block&#45;&gt;lightning_archive::archive::BlockInfo</title>
<path fill="none" stroke="#7f7f7f" stroke-dasharray="5,2" d="M397.91,-1050.82C366.22,-1001.96 282.79,-873.35 245.99,-816.63"/>
<polygon fill="#7f7f7f" stroke="#7f7f7f" points="248.88,-814.65 240.5,-808.16 243.01,-818.46 248.88,-814.65"/>
<text text-anchor="middle" x="309.45" y="-936.72" font-family="monospace" font-size="10.00">uses</text>
</g>
<!-- lightning_archive::archive::ArchiveInner::handle_epoch&#45;&gt;lightning_archive::archive::ArchiveInner -->
<g id="edge42" class="edge">
<title>lightning_archive::archive::ArchiveInner::handle_epoch&#45;&gt;lightning_archive::archive::ArchiveInner</title>
<path fill="none" stroke="#7f7f7f" stroke-dasharray="5,2" d="M549.17,-993.15C545.17,-1023.57 559.83,-1082.06 578.36,-1116.96"/>
<polygon fill="#7f7f7f" stroke="#7f7f7f" points="575.39,-1118.81 583.42,-1125.72 581.45,-1115.31 575.39,-1118.81"/>
<text text-anchor="middle" x="551.27" y="-1058.06" font-family="monospace" font-size="10.00">uses</text>
</g>
<!-- lightning_archive::archive::ArchiveInner::new&#45;&gt;lightning_archive::archive::ArchiveInner -->
<g id="edge43" class="edge">
<title>lightning_archive::archive::ArchiveInner::new&#45;&gt;lightning_archive::archive::ArchiveInner</title>
<path fill="none" stroke="#7f7f7f" stroke-dasharray="5,2" d="M375.34,-1393.7C443.93,-1345.85 565.24,-1228.01 600.78,-1172.55"/>
<polygon fill="#7f7f7f" stroke="#7f7f7f" points="603.82,-1174.28 605.89,-1163.89 597.79,-1170.72 603.82,-1174.28"/>
<text text-anchor="middle" x="475.56" y="-1286.12" font-family="monospace" font-size="10.00">uses</text>
</g>
<!-- lightning_archive::archive::insertion_task&#45;&gt;lightning_archive::archive::Archive -->
<g id="edge44" class="edge">
<title>lightning_archive::archive::insertion_task&#45;&gt;lightning_archive::archive::Archive</title>
<path fill="none" stroke="#7f7f7f" stroke-dasharray="5,2" d="M627.88,-497.06C675.89,-483.11 740.85,-464.23 789.12,-450.21"/>
<polygon fill="#7f7f7f" stroke="#7f7f7f" points="790.22,-453.53 798.85,-447.38 788.27,-446.81 790.22,-453.53"/>
<text text-anchor="middle" x="696" y="-476.63" font-family="monospace" font-size="10.00">uses</text>
</g>
</g>
</svg>
