<?xml version="1.0" encoding="UTF-8" standalone="no"?>
<!DOCTYPE svg PUBLIC "-//W3C//DTD SVG 1.1//EN"
 "http://www.w3.org/Graphics/SVG/1.1/DTD/svg11.dtd">
<!-- Generated by graphviz version 4.0.0 (0)
 -->
<!-- Pages: 1 -->
<svg width="1004pt" height="1279pt"
 viewBox="0.00 0.00 1003.70 1279.35" xmlns="http://www.w3.org/2000/svg" xmlns:xlink="http://www.w3.org/1999/xlink">
<g id="graph0" class="graph" transform="scale(1 1) rotate(0) translate(28.8 1250.55)">
<polygon fill="white" stroke="transparent" points="-28.8,28.8 -28.8,-1250.55 974.9,-1250.55 974.9,28.8 -28.8,28.8"/>
<text text-anchor="middle" x="473.05" y="-1188.95" font-family="Helvetica,sans-Serif" font-size="36.00">hp_fixed</text>
<!-- hp_fixed -->
<g id="node1" class="node">
<title>hp_fixed</title>
<polygon fill="#5397c8" stroke="black" points="456.01,-568.21 456.01,-606.21 521.01,-606.21 521.01,-568.21 456.01,-568.21"/>
<text text-anchor="middle" x="488.51" y="-594.21" font-family="monospace" font-size="10.00">crate</text>
<polyline fill="none" stroke="black" points="456.01,-587.21 521.01,-587.21 "/>
<text text-anchor="middle" x="488.51" y="-575.21" font-family="monospace" font-size="10.00">hp_fixed</text>
</g>
<!-- hp_fixed::HpFixedConversionError -->
<g id="node2" class="node">
<title>hp_fixed::HpFixedConversionError</title>
<polygon fill="#81c169" stroke="black" points="738.31,-625.41 738.31,-663.41 887.31,-663.41 887.31,-625.41 738.31,-625.41"/>
<text text-anchor="middle" x="812.81" y="-651.41" font-family="monospace" font-size="10.00">pub enum</text>
<polyline fill="none" stroke="black" points="738.31,-644.41 887.31,-644.41 "/>
<text text-anchor="middle" x="812.81" y="-632.41" font-family="monospace" font-size="10.00">HpFixedConversionError</text>
</g>
<!-- hp_fixed&#45;&gt;hp_fixed::HpFixedConversionError -->
<g id="edge1" class="edge">
<title>hp_fixed&#45;&gt;hp_fixed::HpFixedConversionError</title>
<path fill="none" stroke="#000000" d="M510.01,-606.26C553.67,-626.31 654.54,-647.05 727.91,-653.52"/>
<polygon fill="#000000" stroke="#000000" points="727.82,-657.02 738.07,-654.34 728.38,-650.05 727.82,-657.02"/>
<text text-anchor="middle" x="606.46" y="-632.89" font-family="monospace" font-size="10.00">owns</text>
</g>
<!-- hp_fixed&#45;&gt;hp_fixed::HpFixedConversionError -->
<g id="edge2" class="edge">
<title>hp_fixed&#45;&gt;hp_fixed::HpFixedConversionError</title>
<path fill="none" stroke="#7f7f7f" stroke-dasharray="5,2" d="M521.3,-576.29C584.14,-573.39 720.51,-597.15 781.88,-621.36"/>
<polygon fill="#7f7f7f" stroke="#7f7f7f" points="780.83,-624.72 791.4,-625.41 783.56,-618.28 780.83,-624.72"/>
<text text-anchor="middle" x="639.09" y="-590.83" font-family="monospace" font-size="10.00">uses</text>
</g>
<!-- hp_fixed::format_hp_fixed -->
<g id="node3" class="node">
<title>hp_fixed::format_hp_fixed</title>
<polygon fill="#f8c04c" stroke="black" points="247.28,-516.05 247.28,-554.05 354.28,-554.05 354.28,-516.05 247.28,-516.05"/>
<text text-anchor="middle" x="300.78" y="-542.05" font-family="monospace" font-size="10.00">pub(crate) fn</text>
<polyline fill="none" stroke="black" points="247.28,-535.05 354.28,-535.05 "/>
<text text-anchor="middle" x="300.78" y="-523.05" font-family="monospace" font-size="10.00">format_hp_fixed</text>
</g>
<!-- hp_fixed&#45;&gt;hp_fixed::format_hp_fixed -->
<g id="edge3" class="edge">
<title>hp_fixed&#45;&gt;hp_fixed::format_hp_fixed</title>
<path fill="none" stroke="#000000" d="M477.62,-568.09C455.68,-550.76 405.71,-533.58 364.4,-526.73"/>
<polygon fill="#000000" stroke="#000000" points="364.79,-523.25 354.38,-525.26 363.76,-530.18 364.79,-523.25"/>
<text text-anchor="middle" x="408.51" y="-550.41" font-family="monospace" font-size="10.00">owns</text>
</g>
<!-- hp_fixed&#45;&gt;hp_fixed::format_hp_fixed -->
<g id="edge4" class="edge">
<title>hp_fixed&#45;&gt;hp_fixed::format_hp_fixed</title>
<path fill="none" stroke="#7f7f7f" stroke-dasharray="5,2" d="M455.94,-598.62C416.81,-598.08 352.78,-580.04 320.45,-560.22"/>
<polygon fill="#7f7f7f" stroke="#7f7f7f" points="322.08,-557.1 311.86,-554.32 318.12,-562.87 322.08,-557.1"/>
<text text-anchor="middle" x="375.69" y="-582.42" font-family="monospace" font-size="10.00">uses</text>
</g>
<!-- hp_fixed::get_float_parts -->
<g id="node4" class="node">
<title>hp_fixed::get_float_parts</title>
<polygon fill="#f8c04c" stroke="black" points="131.44,-524.37 131.44,-562.37 238.44,-562.37 238.44,-524.37 131.44,-524.37"/>
<text text-anchor="middle" x="184.94" y="-550.37" font-family="monospace" font-size="10.00">pub(crate) fn</text>
<polyline fill="none" stroke="black" points="131.44,-543.37 238.44,-543.37 "/>
<text text-anchor="middle" x="184.94" y="-531.37" font-family="monospace" font-size="10.00">get_float_parts</text>
</g>
<!-- hp_fixed&#45;&gt;hp_fixed::get_float_parts -->
<g id="edge5" class="edge">
<title>hp_fixed&#45;&gt;hp_fixed::get_float_parts</title>
<path fill="none" stroke="#000000" d="M465.91,-568.14C420.42,-548.89 316.6,-531.73 248.68,-530.26"/>
<polygon fill="#000000" stroke="#000000" points="248.55,-526.75 238.51,-530.15 248.48,-533.75 248.55,-526.75"/>
<text text-anchor="middle" x="369.79" y="-552.2" font-family="monospace" font-size="10.00">owns</text>
</g>
<!-- hp_fixed&#45;&gt;hp_fixed::get_float_parts -->
<g id="edge6" class="edge">
<title>hp_fixed&#45;&gt;hp_fixed::get_float_parts</title>
<path fill="none" stroke="#7f7f7f" stroke-dasharray="5,2" d="M455.87,-599.65C397.3,-604.36 275.21,-587.06 217.04,-566.13"/>
<polygon fill="#7f7f7f" stroke="#7f7f7f" points="218.2,-562.83 207.61,-562.47 215.66,-569.35 218.2,-562.83"/>
<text text-anchor="middle" x="323.95" y="-585.89" font-family="monospace" font-size="10.00">uses</text>
</g>
<!-- hp_fixed::get_float_parts_b -->
<g id="node5" class="node">
<title>hp_fixed::get_float_parts_b</title>
<polygon fill="#f8c04c" stroke="black" points="609.05,-602.45 609.05,-640.45 728.05,-640.45 728.05,-602.45 609.05,-602.45"/>
<text text-anchor="middle" x="668.55" y="-628.45" font-family="monospace" font-size="10.00">pub(crate) fn</text>
<polyline fill="none" stroke="black" points="609.05,-621.45 728.05,-621.45 "/>
<text text-anchor="middle" x="668.55" y="-609.45" font-family="monospace" font-size="10.00">get_float_parts_b</text>
</g>
<!-- hp_fixed&#45;&gt;hp_fixed::get_float_parts_b -->
<g id="edge7" class="edge">
<title>hp_fixed&#45;&gt;hp_fixed::get_float_parts_b</title>
<path fill="none" stroke="#000000" d="M501.76,-606.34C522.26,-619.66 562.79,-630.67 598.78,-634.69"/>
<polygon fill="#000000" stroke="#000000" points="598.51,-638.18 608.8,-635.64 599.17,-631.21 598.51,-638.18"/>
<text text-anchor="middle" x="537.77" y="-623.52" font-family="monospace" font-size="10.00">owns</text>
</g>
<!-- hp_fixed&#45;&gt;hp_fixed::get_float_parts_b -->
<g id="edge8" class="edge">
<title>hp_fixed&#45;&gt;hp_fixed::get_float_parts_b</title>
<path fill="none" stroke="#7f7f7f" stroke-dasharray="5,2" d="M521.26,-572.61C557.53,-570.37 614.86,-581.54 646.29,-597.22"/>
<polygon fill="#7f7f7f" stroke="#7f7f7f" points="644.73,-600.36 655.16,-602.22 648.16,-594.26 644.73,-600.36"/>
<text text-anchor="middle" x="571.27" y="-587.92" font-family="monospace" font-size="10.00">uses</text>
</g>
<!-- hp_fixed::signed::HpFixed -->
<g id="node6" class="node">
<title>hp_fixed::signed::HpFixed</title>
<polygon fill="#81c169" stroke="black" points="490.24,-269.8 490.24,-307.8 597.24,-307.8 597.24,-269.8 490.24,-269.8"/>
<text text-anchor="middle" x="543.74" y="-295.8" font-family="monospace" font-size="10.00">pub struct</text>
<polyline fill="none" stroke="black" points="490.24,-288.8 597.24,-288.8 "/>
<text text-anchor="middle" x="543.74" y="-276.8" font-family="monospace" font-size="10.00">signed::HpFixed</text>
</g>
<!-- hp_fixed&#45;&gt;hp_fixed::signed::HpFixed -->
<g id="edge9" class="edge">
<title>hp_fixed&#45;&gt;hp_fixed::signed::HpFixed</title>
<path fill="none" stroke="#000000" d="M492.05,-568.09C501.44,-517.37 527.03,-379.11 538.29,-318.24"/>
<polygon fill="#000000" stroke="#000000" points="541.78,-318.62 540.16,-308.15 534.9,-317.34 541.78,-318.62"/>
<text text-anchor="middle" x="502.67" y="-446.17" font-family="monospace" font-size="10.00">owns</text>
</g>
<!-- hp_fixed::unsigned::HpUfixed -->
<g id="node19" class="node">
<title>hp_fixed::unsigned::HpUfixed</title>
<polygon fill="#81c169" stroke="black" points="389.35,-870.08 389.35,-908.08 514.35,-908.08 514.35,-870.08 389.35,-870.08"/>
<text text-anchor="middle" x="451.85" y="-896.08" font-family="monospace" font-size="10.00">pub struct</text>
<polyline fill="none" stroke="black" points="389.35,-889.08 514.35,-889.08 "/>
<text text-anchor="middle" x="451.85" y="-877.08" font-family="monospace" font-size="10.00">unsigned::HpUfixed</text>
</g>
<!-- hp_fixed&#45;&gt;hp_fixed::unsigned::HpUfixed -->
<g id="edge10" class="edge">
<title>hp_fixed&#45;&gt;hp_fixed::unsigned::HpUfixed</title>
<path fill="none" stroke="#000000" d="M486.16,-606.55C479.92,-657.99 462.87,-798.39 455.42,-859.74"/>
<polygon fill="#000000" stroke="#000000" points="451.91,-859.55 454.18,-869.9 458.86,-860.39 451.91,-859.55"/>
<text text-anchor="middle" x="458.29" y="-736.15" font-family="monospace" font-size="10.00">owns</text>
</g>
<!-- hp_fixed::signed::HpFixed::convert_precision -->
<g id="node7" class="node">
<title>hp_fixed::signed::HpFixed::convert_precision</title>
<polygon fill="#81c169" stroke="black" points="150.28,-122.03 150.28,-160.03 371.28,-160.03 371.28,-122.03 150.28,-122.03"/>
<text text-anchor="middle" x="260.78" y="-148.03" font-family="monospace" font-size="10.00">pub fn</text>
<polyline fill="none" stroke="black" points="150.28,-141.03 371.28,-141.03 "/>
<text text-anchor="middle" x="260.78" y="-129.03" font-family="monospace" font-size="10.00">signed::HpFixed::convert_precision</text>
</g>
<!-- hp_fixed::signed::HpFixed&#45;&gt;hp_fixed::signed::HpFixed::convert_precision -->
<g id="edge11" class="edge">
<title>hp_fixed::signed::HpFixed&#45;&gt;hp_fixed::signed::HpFixed::convert_precision</title>
<path fill="none" stroke="#000000" d="M534.9,-269.63C507.54,-240.89 426.55,-193.99 359.52,-164.23"/>
<polygon fill="#000000" stroke="#000000" points="360.73,-160.94 350.16,-160.15 357.93,-167.35 360.73,-160.94"/>
<text text-anchor="middle" x="434.71" y="-219.93" font-family="monospace" font-size="10.00">owns</text>
</g>
<!-- hp_fixed::signed::HpFixed::deserialize -->
<g id="node8" class="node">
<title>hp_fixed::signed::HpFixed::deserialize</title>
<polygon fill="#db5367" stroke="black" points="733.37,-157.06 733.37,-195.06 918.37,-195.06 918.37,-157.06 733.37,-157.06"/>
<text text-anchor="middle" x="825.87" y="-183.06" font-family="monospace" font-size="10.00">pub(self) fn</text>
<polyline fill="none" stroke="black" points="733.37,-176.06 918.37,-176.06 "/>
<text text-anchor="middle" x="825.87" y="-164.06" font-family="monospace" font-size="10.00">signed::HpFixed::deserialize</text>
</g>
<!-- hp_fixed::signed::HpFixed&#45;&gt;hp_fixed::signed::HpFixed::deserialize -->
<g id="edge12" class="edge">
<title>hp_fixed::signed::HpFixed&#45;&gt;hp_fixed::signed::HpFixed::deserialize</title>
<path fill="none" stroke="#000000" d="M591.6,-269.67C640.59,-250.1 716.72,-219.68 768.81,-198.86"/>
<polygon fill="#000000" stroke="#000000" points="770.26,-202.05 778.24,-195.09 767.66,-195.55 770.26,-202.05"/>
<text text-anchor="middle" x="667.71" y="-237.27" font-family="monospace" font-size="10.00">owns</text>
</g>
<!-- hp_fixed::signed::HpFixed::floor -->
<g id="node9" class="node">
<title>hp_fixed::signed::HpFixed::floor</title>
<polygon fill="#81c169" stroke="black" points="367.62,-75.01 367.62,-113.01 516.62,-113.01 516.62,-75.01 367.62,-75.01"/>
<text text-anchor="middle" x="442.12" y="-101.01" font-family="monospace" font-size="10.00">pub fn</text>
<polyline fill="none" stroke="black" points="367.62,-94.01 516.62,-94.01 "/>
<text text-anchor="middle" x="442.12" y="-82.01" font-family="monospace" font-size="10.00">signed::HpFixed::floor</text>
</g>
<!-- hp_fixed::signed::HpFixed&#45;&gt;hp_fixed::signed::HpFixed::floor -->
<g id="edge13" class="edge">
<title>hp_fixed::signed::HpFixed&#45;&gt;hp_fixed::signed::HpFixed::floor</title>
<path fill="none" stroke="#000000" d="M549.73,-269.8C547.2,-234.44 511.81,-161.12 480.63,-120.89"/>
<polygon fill="#000000" stroke="#000000" points="483.29,-118.62 474.25,-113.08 477.86,-123.04 483.29,-118.62"/>
<text text-anchor="middle" x="502.68" y="-198.35" font-family="monospace" font-size="10.00">owns</text>
</g>
<!-- hp_fixed::signed::HpFixed::json_schema -->
<g id="node10" class="node">
<title>hp_fixed::signed::HpFixed::json_schema</title>
<polygon fill="#db5367" stroke="black" points="539.19,-0.5 539.19,-38.5 724.19,-38.5 724.19,-0.5 539.19,-0.5"/>
<text text-anchor="middle" x="631.69" y="-26.5" font-family="monospace" font-size="10.00">pub(self) fn</text>
<polyline fill="none" stroke="black" points="539.19,-19.5 724.19,-19.5 "/>
<text text-anchor="middle" x="631.69" y="-7.5" font-family="monospace" font-size="10.00">signed::HpFixed::json_schema</text>
</g>
<!-- hp_fixed::signed::HpFixed&#45;&gt;hp_fixed::signed::HpFixed::json_schema -->
<g id="edge14" class="edge">
<title>hp_fixed::signed::HpFixed&#45;&gt;hp_fixed::signed::HpFixed::json_schema</title>
<path fill="none" stroke="#000000" d="M597.44,-280.15C658.93,-240.4 699.23,-108.15 664.84,-47.27"/>
<polygon fill="#000000" stroke="#000000" points="667.67,-45.21 659.22,-38.82 661.85,-49.09 667.67,-45.21"/>
<text text-anchor="middle" x="618.64" y="-166.71" font-family="monospace" font-size="10.00">owns</text>
</g>
<!-- hp_fixed::signed::HpFixed&#45;&gt;hp_fixed::signed::HpFixed::json_schema -->
<g id="edge15" class="edge">
<title>hp_fixed::signed::HpFixed&#45;&gt;hp_fixed::signed::HpFixed::json_schema</title>
<path fill="none" stroke="#000000" d="M516.3,-269.58C477.22,-219.89 505.22,-101.25 557.09,-45.94"/>
<polygon fill="#000000" stroke="#000000" points="559.57,-48.4 564.21,-38.88 554.64,-43.43 559.57,-48.4"/>
<text text-anchor="middle" x="524.19" y="-149.76" font-family="monospace" font-size="10.00">owns</text>
</g>
<!-- hp_fixed::signed::HpFixed::max -->
<g id="node11" class="node">
<title>hp_fixed::signed::HpFixed::max</title>
<polygon fill="#81c169" stroke="black" points="394.12,-12.22 394.12,-50.22 531.12,-50.22 531.12,-12.22 394.12,-12.22"/>
<text text-anchor="middle" x="462.62" y="-38.22" font-family="monospace" font-size="10.00">pub fn</text>
<polyline fill="none" stroke="black" points="394.12,-31.22 531.12,-31.22 "/>
<text text-anchor="middle" x="462.62" y="-19.22" font-family="monospace" font-size="10.00">signed::HpFixed::max</text>
</g>
<!-- hp_fixed::signed::HpFixed&#45;&gt;hp_fixed::signed::HpFixed::max -->
<g id="edge16" class="edge">
<title>hp_fixed::signed::HpFixed&#45;&gt;hp_fixed::signed::HpFixed::max</title>
<path fill="none" stroke="#000000" d="M551.91,-269.78C554.41,-224.57 520.82,-111.91 491.2,-59.08"/>
<polygon fill="#000000" stroke="#000000" points="494.05,-57.03 485.92,-50.24 488.04,-60.62 494.05,-57.03"/>
<text text-anchor="middle" x="509.06" y="-167.43" font-family="monospace" font-size="10.00">owns</text>
</g>
<!-- hp_fixed::signed::HpFixed::min -->
<g id="node12" class="node">
<title>hp_fixed::signed::HpFixed::min</title>
<polygon fill="#81c169" stroke="black" points="174.25,-221.29 174.25,-259.29 311.25,-259.29 311.25,-221.29 174.25,-221.29"/>
<text text-anchor="middle" x="242.75" y="-247.29" font-family="monospace" font-size="10.00">pub fn</text>
<polyline fill="none" stroke="black" points="174.25,-240.29 311.25,-240.29 "/>
<text text-anchor="middle" x="242.75" y="-228.29" font-family="monospace" font-size="10.00">signed::HpFixed::min</text>
</g>
<!-- hp_fixed::signed::HpFixed&#45;&gt;hp_fixed::signed::HpFixed::min -->
<g id="edge17" class="edge">
<title>hp_fixed::signed::HpFixed&#45;&gt;hp_fixed::signed::HpFixed::min</title>
<path fill="none" stroke="#000000" d="M522.09,-269.6C480.7,-251.03 388.72,-233.43 321.56,-228.96"/>
<polygon fill="#000000" stroke="#000000" points="321.61,-225.46 311.42,-228.38 321.21,-232.45 321.61,-225.46"/>
<text text-anchor="middle" x="409.32" y="-252.28" font-family="monospace" font-size="10.00">owns</text>
</g>
<!-- hp_fixed::signed::HpFixed::new -->
<g id="node13" class="node">
<title>hp_fixed::signed::HpFixed::new</title>
<polygon fill="#81c169" stroke="black" points="800.76,-250.56 800.76,-288.56 937.76,-288.56 937.76,-250.56 800.76,-250.56"/>
<text text-anchor="middle" x="869.26" y="-276.56" font-family="monospace" font-size="10.00">pub fn</text>
<polyline fill="none" stroke="black" points="800.76,-269.56 937.76,-269.56 "/>
<text text-anchor="middle" x="869.26" y="-257.56" font-family="monospace" font-size="10.00">signed::HpFixed::new</text>
</g>
<!-- hp_fixed::signed::HpFixed&#45;&gt;hp_fixed::signed::HpFixed::new -->
<g id="edge18" class="edge">
<title>hp_fixed::signed::HpFixed&#45;&gt;hp_fixed::signed::HpFixed::new</title>
<path fill="none" stroke="#000000" d="M597.25,-306.13C661.67,-311.52 768.5,-304.72 827.28,-291.09"/>
<polygon fill="#000000" stroke="#000000" points="828.14,-294.49 836.98,-288.66 826.43,-287.7 828.14,-294.49"/>
<text text-anchor="middle" x="699.77" y="-301.61" font-family="monospace" font-size="10.00">owns</text>
</g>
<!-- hp_fixed::signed::HpFixed::schema_id -->
<g id="node14" class="node">
<title>hp_fixed::signed::HpFixed::schema_id</title>
<polygon fill="#db5367" stroke="black" points="773.1,-347.81 773.1,-385.81 946.1,-385.81 946.1,-347.81 773.1,-347.81"/>
<text text-anchor="middle" x="859.6" y="-373.81" font-family="monospace" font-size="10.00">pub(self) fn</text>
<polyline fill="none" stroke="black" points="773.1,-366.81 946.1,-366.81 "/>
<text text-anchor="middle" x="859.6" y="-354.81" font-family="monospace" font-size="10.00">signed::HpFixed::schema_id</text>
</g>
<!-- hp_fixed::signed::HpFixed&#45;&gt;hp_fixed::signed::HpFixed::schema_id -->
<g id="edge19" class="edge">
<title>hp_fixed::signed::HpFixed&#45;&gt;hp_fixed::signed::HpFixed::schema_id</title>
<path fill="none" stroke="#000000" d="M561.51,-308C599.65,-329.78 691.17,-355.93 762.85,-368.37"/>
<polygon fill="#000000" stroke="#000000" points="762.39,-371.84 772.83,-370.03 763.54,-364.93 762.39,-371.84"/>
<text text-anchor="middle" x="649.68" y="-330.18" font-family="monospace" font-size="10.00">owns</text>
</g>
<!-- hp_fixed::signed::HpFixed&#45;&gt;hp_fixed::signed::HpFixed::schema_id -->
<g id="edge20" class="edge">
<title>hp_fixed::signed::HpFixed&#45;&gt;hp_fixed::signed::HpFixed::schema_id</title>
<path fill="none" stroke="#000000" d="M597.59,-281.3C666.08,-287.8 781.45,-317.49 833.23,-343.06"/>
<polygon fill="#000000" stroke="#000000" points="831.65,-346.19 842.13,-347.78 834.93,-340 831.65,-346.19"/>
<text text-anchor="middle" x="702.91" y="-315.18" font-family="monospace" font-size="10.00">owns</text>
</g>
<!-- hp_fixed::signed::HpFixed::schema_name -->
<g id="node15" class="node">
<title>hp_fixed::signed::HpFixed::schema_name</title>
<polygon fill="#db5367" stroke="black" points="580.06,-339.6 580.06,-377.6 765.06,-377.6 765.06,-339.6 580.06,-339.6"/>
<text text-anchor="middle" x="672.56" y="-365.6" font-family="monospace" font-size="10.00">pub(self) fn</text>
<polyline fill="none" stroke="black" points="580.06,-358.6 765.06,-358.6 "/>
<text text-anchor="middle" x="672.56" y="-346.6" font-family="monospace" font-size="10.00">signed::HpFixed::schema_name</text>
</g>
<!-- hp_fixed::signed::HpFixed&#45;&gt;hp_fixed::signed::HpFixed::schema_name -->
<g id="edge21" class="edge">
<title>hp_fixed::signed::HpFixed&#45;&gt;hp_fixed::signed::HpFixed::schema_name</title>
<path fill="none" stroke="#000000" d="M546.83,-308.27C552.21,-316.64 561.84,-325.58 573.48,-333.89"/>
<polygon fill="#000000" stroke="#000000" points="571.58,-336.83 581.83,-339.52 575.5,-331.03 571.58,-336.83"/>
<text text-anchor="middle" x="547.65" y="-324.08" font-family="monospace" font-size="10.00">owns</text>
</g>
<!-- hp_fixed::signed::HpFixed&#45;&gt;hp_fixed::signed::HpFixed::schema_name -->
<g id="edge22" class="edge">
<title>hp_fixed::signed::HpFixed&#45;&gt;hp_fixed::signed::HpFixed::schema_name</title>
<path fill="none" stroke="#000000" d="M597.32,-288.92C622.08,-298.55 648.89,-315.27 663.37,-331.29"/>
<polygon fill="#000000" stroke="#000000" points="660.87,-333.77 669.74,-339.56 666.41,-329.5 660.87,-333.77"/>
<text text-anchor="middle" x="617.84" y="-313.11" font-family="monospace" font-size="10.00">owns</text>
</g>
<!-- hp_fixed::signed::HpFixed::serialize -->
<g id="node16" class="node">
<title>hp_fixed::signed::HpFixed::serialize</title>
<polygon fill="#db5367" stroke="black" points="552.27,-118.42 552.27,-156.42 725.27,-156.42 725.27,-118.42 552.27,-118.42"/>
<text text-anchor="middle" x="638.77" y="-144.42" font-family="monospace" font-size="10.00">pub(self) fn</text>
<polyline fill="none" stroke="black" points="552.27,-137.42 725.27,-137.42 "/>
<text text-anchor="middle" x="638.77" y="-125.42" font-family="monospace" font-size="10.00">signed::HpFixed::serialize</text>
</g>
<!-- hp_fixed::signed::HpFixed&#45;&gt;hp_fixed::signed::HpFixed::serialize -->
<g id="edge23" class="edge">
<title>hp_fixed::signed::HpFixed&#45;&gt;hp_fixed::signed::HpFixed::serialize</title>
<path fill="none" stroke="#000000" d="M582.07,-269.65C607.3,-243.2 634.71,-197.32 642.53,-166.68"/>
<polygon fill="#000000" stroke="#000000" points="646.03,-167 644.44,-156.53 639.15,-165.71 646.03,-167"/>
<text text-anchor="middle" x="599.8" y="-221.16" font-family="monospace" font-size="10.00">owns</text>
</g>
<!-- hp_fixed::signed::HpFixed::try_abs -->
<g id="node17" class="node">
<title>hp_fixed::signed::HpFixed::try_abs</title>
<polygon fill="#81c169" stroke="black" points="671.99,-55.37 671.99,-93.37 832.99,-93.37 832.99,-55.37 671.99,-55.37"/>
<text text-anchor="middle" x="752.49" y="-81.37" font-family="monospace" font-size="10.00">pub fn</text>
<polyline fill="none" stroke="black" points="671.99,-74.37 832.99,-74.37 "/>
<text text-anchor="middle" x="752.49" y="-62.37" font-family="monospace" font-size="10.00">signed::HpFixed::try_abs</text>
</g>
<!-- hp_fixed::signed::HpFixed&#45;&gt;hp_fixed::signed::HpFixed::try_abs -->
<g id="edge24" class="edge">
<title>hp_fixed::signed::HpFixed&#45;&gt;hp_fixed::signed::HpFixed::try_abs</title>
<path fill="none" stroke="#000000" d="M590.6,-269.62C643.08,-230.65 721.8,-147.56 746.79,-102.52"/>
<polygon fill="#000000" stroke="#000000" points="749.95,-104.03 751.28,-93.52 743.68,-100.91 749.95,-104.03"/>
<text text-anchor="middle" x="656.2" y="-189.07" font-family="monospace" font-size="10.00">owns</text>
</g>
<!-- hp_fixed::signed::HpFixed::zero -->
<g id="node18" class="node">
<title>hp_fixed::signed::HpFixed::zero</title>
<polygon fill="#81c169" stroke="black" points="284.07,-277.78 284.07,-315.78 427.07,-315.78 427.07,-277.78 284.07,-277.78"/>
<text text-anchor="middle" x="355.57" y="-303.78" font-family="monospace" font-size="10.00">pub fn</text>
<polyline fill="none" stroke="black" points="284.07,-296.78 427.07,-296.78 "/>
<text text-anchor="middle" x="355.57" y="-284.78" font-family="monospace" font-size="10.00">signed::HpFixed::zero</text>
</g>
<!-- hp_fixed::signed::HpFixed&#45;&gt;hp_fixed::signed::HpFixed::zero -->
<g id="edge25" class="edge">
<title>hp_fixed::signed::HpFixed&#45;&gt;hp_fixed::signed::HpFixed::zero</title>
<path fill="none" stroke="#000000" d="M513.06,-269.73C478.17,-262.51 421.53,-264.75 386.53,-274.6"/>
<polygon fill="#000000" stroke="#000000" points="385.27,-271.33 376.84,-277.74 387.43,-277.99 385.27,-271.33"/>
<text text-anchor="middle" x="437.3" y="-264.16" font-family="monospace" font-size="10.00">owns</text>
</g>
<!-- hp_fixed::signed::HpFixed::convert_precision&#45;&gt;hp_fixed::signed::HpFixed -->
<g id="edge26" class="edge">
<title>hp_fixed::signed::HpFixed::convert_precision&#45;&gt;hp_fixed::signed::HpFixed</title>
<path fill="none" stroke="#7f7f7f" stroke-dasharray="5,2" d="M269.62,-160.2C302.07,-194.29 409.95,-253.91 480.52,-280.2"/>
<polygon fill="#7f7f7f" stroke="#7f7f7f" points="479.62,-283.6 490.22,-283.68 481.99,-277.01 479.62,-283.6"/>
<text text-anchor="middle" x="362.57" y="-223.2" font-family="monospace" font-size="10.00">uses</text>
</g>
<!-- hp_fixed::signed::HpFixed::floor&#45;&gt;hp_fixed::signed::HpFixed -->
<g id="edge27" class="edge">
<title>hp_fixed::signed::HpFixed::floor&#45;&gt;hp_fixed::signed::HpFixed</title>
<path fill="none" stroke="#7f7f7f" stroke-dasharray="5,2" d="M436.14,-113.01C438.66,-148.37 474.05,-221.69 505.23,-261.91"/>
<polygon fill="#7f7f7f" stroke="#7f7f7f" points="502.57,-264.19 511.61,-269.73 508,-259.77 502.57,-264.19"/>
<text text-anchor="middle" x="458.18" y="-190.46" font-family="monospace" font-size="10.00">uses</text>
</g>
<!-- hp_fixed::signed::HpFixed::json_schema&#45;&gt;hp_fixed::signed::HpFixed -->
<g id="edge28" class="edge">
<title>hp_fixed::signed::HpFixed::json_schema&#45;&gt;hp_fixed::signed::HpFixed</title>
<path fill="none" stroke="#7f7f7f" stroke-dasharray="5,2" d="M608.22,-38.81C577.95,-85.61 539.32,-203.91 536.18,-259.47"/>
<polygon fill="#7f7f7f" stroke="#7f7f7f" points="532.68,-259.66 536.04,-269.71 539.68,-259.76 532.68,-259.66"/>
<text text-anchor="middle" x="559.7" y="-152.14" font-family="monospace" font-size="10.00">uses</text>
</g>
<!-- hp_fixed::signed::HpFixed::json_schema&#45;&gt;hp_fixed::signed::HpFixed -->
<g id="edge29" class="edge">
<title>hp_fixed::signed::HpFixed::json_schema&#45;&gt;hp_fixed::signed::HpFixed</title>
<path fill="none" stroke="#7f7f7f" stroke-dasharray="5,2" d="M639.41,-38.9C641.04,-86.11 603.86,-205.64 572.57,-260.64"/>
<polygon fill="#7f7f7f" stroke="#7f7f7f" points="569.38,-259.14 567.2,-269.51 575.37,-262.76 569.38,-259.14"/>
<text text-anchor="middle" x="593.49" y="-152.77" font-family="monospace" font-size="10.00">uses</text>
</g>
<!-- hp_fixed::signed::HpFixed::max&#45;&gt;hp_fixed::signed::HpFixed -->
<g id="edge30" class="edge">
<title>hp_fixed::signed::HpFixed::max&#45;&gt;hp_fixed::signed::HpFixed</title>
<path fill="none" stroke="#7f7f7f" stroke-dasharray="5,2" d="M454.45,-50.24C451.95,-95.45 485.54,-208.11 515.16,-260.94"/>
<polygon fill="#7f7f7f" stroke="#7f7f7f" points="512.31,-262.99 520.44,-269.78 518.32,-259.4 512.31,-262.99"/>
<text text-anchor="middle" x="472.3" y="-158.59" font-family="monospace" font-size="10.00">uses</text>
</g>
<!-- hp_fixed::signed::HpFixed::min&#45;&gt;hp_fixed::signed::HpFixed -->
<g id="edge31" class="edge">
<title>hp_fixed::signed::HpFixed::min&#45;&gt;hp_fixed::signed::HpFixed</title>
<path fill="none" stroke="#7f7f7f" stroke-dasharray="5,2" d="M264.4,-259.49C308.97,-279.49 412.17,-298.35 479.91,-300.92"/>
<polygon fill="#7f7f7f" stroke="#7f7f7f" points="479.96,-304.42 490.05,-301.18 480.14,-297.42 479.96,-304.42"/>
<text text-anchor="middle" x="359.66" y="-272.21" font-family="monospace" font-size="10.00">uses</text>
</g>
<!-- hp_fixed::signed::HpFixed::new&#45;&gt;hp_fixed::signed::HpFixed -->
<g id="edge32" class="edge">
<title>hp_fixed::signed::HpFixed::new&#45;&gt;hp_fixed::signed::HpFixed</title>
<path fill="none" stroke="#7f7f7f" stroke-dasharray="5,2" d="M800.49,-251.22C735.52,-247.91 640.14,-254.66 585.78,-267.25"/>
<polygon fill="#7f7f7f" stroke="#7f7f7f" points="584.65,-263.93 575.8,-269.76 586.35,-270.72 584.65,-263.93"/>
<text text-anchor="middle" x="680.64" y="-262.23" font-family="monospace" font-size="10.00">uses</text>
</g>
<!-- hp_fixed::signed::HpFixed::serialize&#45;&gt;hp_fixed::signed::HpFixed -->
<g id="edge33" class="edge">
<title>hp_fixed::signed::HpFixed::serialize&#45;&gt;hp_fixed::signed::HpFixed</title>
<path fill="none" stroke="#7f7f7f" stroke-dasharray="5,2" d="M600.44,-156.57C575.21,-183.02 547.8,-228.9 539.98,-259.54"/>
<polygon fill="#7f7f7f" stroke="#7f7f7f" points="536.48,-259.22 538.07,-269.69 543.36,-260.51 536.48,-259.22"/>
<text text-anchor="middle" x="557.71" y="-211.06" font-family="monospace" font-size="10.00">uses</text>
</g>
<!-- hp_fixed::signed::HpFixed::try_abs&#45;&gt;hp_fixed::signed::HpFixed -->
<g id="edge34" class="edge">
<title>hp_fixed::signed::HpFixed::try_abs&#45;&gt;hp_fixed::signed::HpFixed</title>
<path fill="none" stroke="#7f7f7f" stroke-dasharray="5,2" d="M705.63,-93.55C653.15,-132.52 574.43,-215.61 549.44,-260.64"/>
<polygon fill="#7f7f7f" stroke="#7f7f7f" points="546.28,-259.13 544.96,-269.65 552.55,-262.26 546.28,-259.13"/>
<text text-anchor="middle" x="615.04" y="-180.1" font-family="monospace" font-size="10.00">uses</text>
</g>
<!-- hp_fixed::signed::HpFixed::zero&#45;&gt;hp_fixed::signed::HpFixed -->
<g id="edge35" class="edge">
<title>hp_fixed::signed::HpFixed::zero&#45;&gt;hp_fixed::signed::HpFixed</title>
<path fill="none" stroke="#7f7f7f" stroke-dasharray="5,2" d="M386.25,-315.85C421.14,-323.07 477.78,-320.84 512.78,-310.98"/>
<polygon fill="#7f7f7f" stroke="#7f7f7f" points="514.04,-314.25 522.48,-307.84 511.88,-307.59 514.04,-314.25"/>
<text text-anchor="middle" x="462.02" y="-316.42" font-family="monospace" font-size="10.00">uses</text>
</g>
<!-- hp_fixed::unsigned::HpUfixed::convert_precision -->
<g id="node20" class="node">
<title>hp_fixed::unsigned::HpUfixed::convert_precision</title>
<polygon fill="#81c169" stroke="black" points="73.1,-1051.75 73.1,-1089.75 312.1,-1089.75 312.1,-1051.75 73.1,-1051.75"/>
<text text-anchor="middle" x="192.6" y="-1077.75" font-family="monospace" font-size="10.00">pub fn</text>
<polyline fill="none" stroke="black" points="73.1,-1070.75 312.1,-1070.75 "/>
<text text-anchor="middle" x="192.6" y="-1058.75" font-family="monospace" font-size="10.00">unsigned::HpUfixed::convert_precision</text>
</g>
<!-- hp_fixed::unsigned::HpUfixed&#45;&gt;hp_fixed::unsigned::HpUfixed::convert_precision -->
<g id="edge36" class="edge">
<title>hp_fixed::unsigned::HpUfixed&#45;&gt;hp_fixed::unsigned::HpUfixed::convert_precision</title>
<path fill="none" stroke="#000000" d="M389.34,-906.23C327.38,-939.18 237.94,-1004.41 204.61,-1043.34"/>
<polygon fill="#000000" stroke="#000000" points="201.47,-1041.67 198.04,-1051.7 206.97,-1046 201.47,-1041.67"/>
<text text-anchor="middle" x="284.47" y="-977.78" font-family="monospace" font-size="10.00">owns</text>
</g>
<!-- hp_fixed::unsigned::HpUfixed::deserialize -->
<g id="node21" class="node">
<title>hp_fixed::unsigned::HpUfixed::deserialize</title>
<polygon fill="#db5367" stroke="black" points="170.2,-829.54 170.2,-867.54 373.2,-867.54 373.2,-829.54 170.2,-829.54"/>
<text text-anchor="middle" x="271.7" y="-855.54" font-family="monospace" font-size="10.00">pub(self) fn</text>
<polyline fill="none" stroke="black" points="170.2,-848.54 373.2,-848.54 "/>
<text text-anchor="middle" x="271.7" y="-836.54" font-family="monospace" font-size="10.00">unsigned::HpUfixed::deserialize</text>
</g>
<!-- hp_fixed::unsigned::HpUfixed&#45;&gt;hp_fixed::unsigned::HpUfixed::deserialize -->
<g id="edge37" class="edge">
<title>hp_fixed::unsigned::HpUfixed&#45;&gt;hp_fixed::unsigned::HpUfixed::deserialize</title>
<path fill="none" stroke="#000000" d="M389.35,-875.01C381.85,-873.32 374.06,-871.57 366.23,-869.81"/>
<polygon fill="#000000" stroke="#000000" points="366.83,-866.36 356.31,-867.58 365.3,-873.19 366.83,-866.36"/>
<text text-anchor="middle" x="365.29" y="-875.41" font-family="monospace" font-size="10.00">owns</text>
</g>
<!-- hp_fixed::unsigned::HpUfixed::floor -->
<g id="node22" class="node">
<title>hp_fixed::unsigned::HpUfixed::floor</title>
<polygon fill="#81c169" stroke="black" points="0,-881.23 0,-919.23 167,-919.23 167,-881.23 0,-881.23"/>
<text text-anchor="middle" x="83.5" y="-907.23" font-family="monospace" font-size="10.00">pub fn</text>
<polyline fill="none" stroke="black" points="0,-900.23 167,-900.23 "/>
<text text-anchor="middle" x="83.5" y="-888.23" font-family="monospace" font-size="10.00">unsigned::HpUfixed::floor</text>
</g>
<!-- hp_fixed::unsigned::HpUfixed&#45;&gt;hp_fixed::unsigned::HpUfixed::floor -->
<g id="edge38" class="edge">
<title>hp_fixed::unsigned::HpUfixed&#45;&gt;hp_fixed::unsigned::HpUfixed::floor</title>
<path fill="none" stroke="#000000" d="M389.15,-870.15C317.27,-863.63 200.82,-867.63 134.34,-879.27"/>
<polygon fill="#000000" stroke="#000000" points="133.29,-875.91 124.11,-881.21 134.59,-882.79 133.29,-875.91"/>
<text text-anchor="middle" x="249.25" y="-877.71" font-family="monospace" font-size="10.00">owns</text>
</g>
<!-- hp_fixed::unsigned::HpUfixed::get_value -->
<g id="node23" class="node">
<title>hp_fixed::unsigned::HpUfixed::get_value</title>
<polygon fill="#81c169" stroke="black" points="490.55,-1016.2 490.55,-1054.2 681.55,-1054.2 681.55,-1016.2 490.55,-1016.2"/>
<text text-anchor="middle" x="586.05" y="-1042.2" font-family="monospace" font-size="10.00">pub fn</text>
<polyline fill="none" stroke="black" points="490.55,-1035.2 681.55,-1035.2 "/>
<text text-anchor="middle" x="586.05" y="-1023.2" font-family="monospace" font-size="10.00">unsigned::HpUfixed::get_value</text>
</g>
<!-- hp_fixed::unsigned::HpUfixed&#45;&gt;hp_fixed::unsigned::HpUfixed::get_value -->
<g id="edge39" class="edge">
<title>hp_fixed::unsigned::HpUfixed&#45;&gt;hp_fixed::unsigned::HpUfixed::get_value</title>
<path fill="none" stroke="#000000" d="M450.17,-908.3C458.52,-935.19 495,-980.12 528.67,-1009.38"/>
<polygon fill="#000000" stroke="#000000" points="526.79,-1012.37 536.7,-1016.1 531.28,-1007 526.79,-1012.37"/>
<text text-anchor="middle" x="476.92" y="-961.84" font-family="monospace" font-size="10.00">owns</text>
</g>
<!-- hp_fixed::unsigned::HpUfixed::json_schema -->
<g id="node24" class="node">
<title>hp_fixed::unsigned::HpUfixed::json_schema</title>
<polygon fill="#db5367" stroke="black" points="579.58,-1135.25 579.58,-1173.25 782.58,-1173.25 782.58,-1135.25 579.58,-1135.25"/>
<text text-anchor="middle" x="681.08" y="-1161.25" font-family="monospace" font-size="10.00">pub(self) fn</text>
<polyline fill="none" stroke="black" points="579.58,-1154.25 782.58,-1154.25 "/>
<text text-anchor="middle" x="681.08" y="-1142.25" font-family="monospace" font-size="10.00">unsigned::HpUfixed::json_schema</text>
</g>
<!-- hp_fixed::unsigned::HpUfixed&#45;&gt;hp_fixed::unsigned::HpUfixed::json_schema -->
<g id="edge40" class="edge">
<title>hp_fixed::unsigned::HpUfixed&#45;&gt;hp_fixed::unsigned::HpUfixed::json_schema</title>
<path fill="none" stroke="#000000" d="M452.77,-908.2C471.61,-956.19 570.58,-1074.71 632.68,-1128.45"/>
<polygon fill="#000000" stroke="#000000" points="630.54,-1131.22 640.44,-1134.98 635.04,-1125.87 630.54,-1131.22"/>
<text text-anchor="middle" x="530.22" y="-1010.33" font-family="monospace" font-size="10.00">owns</text>
</g>
<!-- hp_fixed::unsigned::HpUfixed::max -->
<g id="node25" class="node">
<title>hp_fixed::unsigned::HpUfixed::max</title>
<polygon fill="#81c169" stroke="black" points="247.4,-1098.76 247.4,-1136.76 402.4,-1136.76 402.4,-1098.76 247.4,-1098.76"/>
<text text-anchor="middle" x="324.9" y="-1124.76" font-family="monospace" font-size="10.00">pub fn</text>
<polyline fill="none" stroke="black" points="247.4,-1117.76 402.4,-1117.76 "/>
<text text-anchor="middle" x="324.9" y="-1105.76" font-family="monospace" font-size="10.00">unsigned::HpUfixed::max</text>
</g>
<!-- hp_fixed::unsigned::HpUfixed&#45;&gt;hp_fixed::unsigned::HpUfixed::max -->
<g id="edge41" class="edge">
<title>hp_fixed::unsigned::HpUfixed&#45;&gt;hp_fixed::unsigned::HpUfixed::max</title>
<path fill="none" stroke="#000000" d="M420.15,-908.16C383.92,-948.68 333.65,-1040.57 322.27,-1088.48"/>
<polygon fill="#000000" stroke="#000000" points="318.79,-1088.08 320.38,-1098.55 325.67,-1089.37 318.79,-1088.08"/>
<text text-anchor="middle" x="358.71" y="-1001.32" font-family="monospace" font-size="10.00">owns</text>
</g>
<!-- hp_fixed::unsigned::HpUfixed::min -->
<g id="node26" class="node">
<title>hp_fixed::unsigned::HpUfixed::min</title>
<polygon fill="#81c169" stroke="black" points="547.56,-852.45 547.56,-890.45 702.56,-890.45 702.56,-852.45 547.56,-852.45"/>
<text text-anchor="middle" x="625.06" y="-878.45" font-family="monospace" font-size="10.00">pub fn</text>
<polyline fill="none" stroke="black" points="547.56,-871.45 702.56,-871.45 "/>
<text text-anchor="middle" x="625.06" y="-859.45" font-family="monospace" font-size="10.00">unsigned::HpUfixed::min</text>
</g>
<!-- hp_fixed::unsigned::HpUfixed&#45;&gt;hp_fixed::unsigned::HpUfixed::min -->
<g id="edge42" class="edge">
<title>hp_fixed::unsigned::HpUfixed&#45;&gt;hp_fixed::unsigned::HpUfixed::min</title>
<path fill="none" stroke="#000000" d="M494.82,-908.11C527.64,-910.56 571.76,-905.13 599.32,-894.63"/>
<polygon fill="#000000" stroke="#000000" points="600.91,-897.76 608.66,-890.54 598.1,-891.35 600.91,-897.76"/>
<text text-anchor="middle" x="534.57" y="-904.37" font-family="monospace" font-size="10.00">owns</text>
</g>
<!-- hp_fixed::unsigned::HpUfixed::new -->
<g id="node27" class="node">
<title>hp_fixed::unsigned::HpUfixed::new</title>
<polygon fill="#81c169" stroke="black" points="689.7,-1022.7 689.7,-1060.7 844.7,-1060.7 844.7,-1022.7 689.7,-1022.7"/>
<text text-anchor="middle" x="767.2" y="-1048.7" font-family="monospace" font-size="10.00">pub fn</text>
<polyline fill="none" stroke="black" points="689.7,-1041.7 844.7,-1041.7 "/>
<text text-anchor="middle" x="767.2" y="-1029.7" font-family="monospace" font-size="10.00">unsigned::HpUfixed::new</text>
</g>
<!-- hp_fixed::unsigned::HpUfixed&#45;&gt;hp_fixed::unsigned::HpUfixed::new -->
<g id="edge43" class="edge">
<title>hp_fixed::unsigned::HpUfixed&#45;&gt;hp_fixed::unsigned::HpUfixed::new</title>
<path fill="none" stroke="#000000" d="M462.37,-908.33C496.47,-940.55 602.18,-995.73 679.72,-1025.57"/>
<polygon fill="#000000" stroke="#000000" points="678.91,-1029.01 689.5,-1029.26 681.38,-1022.46 678.91,-1029.01"/>
<text text-anchor="middle" x="558.54" y="-969.95" font-family="monospace" font-size="10.00">owns</text>
</g>
<!-- hp_fixed::unsigned::HpUfixed::schema_id -->
<g id="node28" class="node">
<title>hp_fixed::unsigned::HpUfixed::schema_id</title>
<polygon fill="#db5367" stroke="black" points="48.7,-965.74 48.7,-1003.74 239.7,-1003.74 239.7,-965.74 48.7,-965.74"/>
<text text-anchor="middle" x="144.2" y="-991.74" font-family="monospace" font-size="10.00">pub(self) fn</text>
<polyline fill="none" stroke="black" points="48.7,-984.74 239.7,-984.74 "/>
<text text-anchor="middle" x="144.2" y="-972.74" font-family="monospace" font-size="10.00">unsigned::HpUfixed::schema_id</text>
</g>
<!-- hp_fixed::unsigned::HpUfixed&#45;&gt;hp_fixed::unsigned::HpUfixed::schema_id -->
<g id="edge44" class="edge">
<title>hp_fixed::unsigned::HpUfixed&#45;&gt;hp_fixed::unsigned::HpUfixed::schema_id</title>
<path fill="none" stroke="#000000" d="M390.7,-908.09C340.14,-923.81 268.28,-946.16 215.18,-962.67"/>
<polygon fill="#000000" stroke="#000000" points="214.01,-959.37 205.5,-965.68 216.08,-966.05 214.01,-959.37"/>
<text text-anchor="middle" x="290.44" y="-938.38" font-family="monospace" font-size="10.00">owns</text>
</g>
<!-- hp_fixed::unsigned::HpUfixed::schema_name -->
<g id="node29" class="node">
<title>hp_fixed::unsigned::HpUfixed::schema_name</title>
<polygon fill="#db5367" stroke="black" points="54.08,-777.28 54.08,-815.28 257.08,-815.28 257.08,-777.28 54.08,-777.28"/>
<text text-anchor="middle" x="155.58" y="-803.28" font-family="monospace" font-size="10.00">pub(self) fn</text>
<polyline fill="none" stroke="black" points="54.08,-796.28 257.08,-796.28 "/>
<text text-anchor="middle" x="155.58" y="-784.28" font-family="monospace" font-size="10.00">unsigned::HpUfixed::schema_name</text>
</g>
<!-- hp_fixed::unsigned::HpUfixed&#45;&gt;hp_fixed::unsigned::HpUfixed::schema_name -->
<g id="edge45" class="edge">
<title>hp_fixed::unsigned::HpUfixed&#45;&gt;hp_fixed::unsigned::HpUfixed::schema_name</title>
<path fill="none" stroke="#000000" d="M391.18,-870.08C343.33,-855.09 276.51,-834.16 226.24,-818.42"/>
<polygon fill="#000000" stroke="#000000" points="227.01,-814.99 216.42,-815.34 224.92,-821.67 227.01,-814.99"/>
<text text-anchor="middle" x="296.21" y="-847.25" font-family="monospace" font-size="10.00">owns</text>
</g>
<!-- hp_fixed::unsigned::HpUfixed::serialize -->
<g id="node30" class="node">
<title>hp_fixed::unsigned::HpUfixed::serialize</title>
<polygon fill="#db5367" stroke="black" points="660.98,-906.92 660.98,-944.92 851.98,-944.92 851.98,-906.92 660.98,-906.92"/>
<text text-anchor="middle" x="756.48" y="-932.92" font-family="monospace" font-size="10.00">pub(self) fn</text>
<polyline fill="none" stroke="black" points="660.98,-925.92 851.98,-925.92 "/>
<text text-anchor="middle" x="756.48" y="-913.92" font-family="monospace" font-size="10.00">unsigned::HpUfixed::serialize</text>
</g>
<!-- hp_fixed::unsigned::HpUfixed&#45;&gt;hp_fixed::unsigned::HpUfixed::serialize -->
<g id="edge46" class="edge">
<title>hp_fixed::unsigned::HpUfixed&#45;&gt;hp_fixed::unsigned::HpUfixed::serialize</title>
<path fill="none" stroke="#000000" d="M476.17,-908.12C513.67,-922.59 587.78,-934.82 650.38,-938.98"/>
<polygon fill="#000000" stroke="#000000" points="650.53,-942.49 660.72,-939.59 650.95,-935.5 650.53,-942.49"/>
<text text-anchor="middle" x="550.78" y="-926.55" font-family="monospace" font-size="10.00">owns</text>
</g>
<!-- hp_fixed::unsigned::HpUfixed::zero -->
<g id="node31" class="node">
<title>hp_fixed::unsigned::HpUfixed::zero</title>
<polygon fill="#81c169" stroke="black" points="410.44,-1123.57 410.44,-1161.57 571.44,-1161.57 571.44,-1123.57 410.44,-1123.57"/>
<text text-anchor="middle" x="490.94" y="-1149.57" font-family="monospace" font-size="10.00">pub fn</text>
<polyline fill="none" stroke="black" points="410.44,-1142.57 571.44,-1142.57 "/>
<text text-anchor="middle" x="490.94" y="-1130.57" font-family="monospace" font-size="10.00">unsigned::HpUfixed::zero</text>
</g>
<!-- hp_fixed::unsigned::HpUfixed&#45;&gt;hp_fixed::unsigned::HpUfixed::zero -->
<g id="edge47" class="edge">
<title>hp_fixed::unsigned::HpUfixed&#45;&gt;hp_fixed::unsigned::HpUfixed::zero</title>
<path fill="none" stroke="#000000" d="M440.26,-908.3C431.61,-952.66 447.09,-1062.04 467.85,-1114.16"/>
<polygon fill="#000000" stroke="#000000" points="464.72,-1115.72 471.93,-1123.49 471.13,-1112.92 464.72,-1115.72"/>
<text text-anchor="middle" x="441.56" y="-1014.23" font-family="monospace" font-size="10.00">owns</text>
</g>
<!-- hp_fixed::unsigned::HpUfixed::convert_precision&#45;&gt;hp_fixed::unsigned::HpUfixed -->
<g id="edge48" class="edge">
<title>hp_fixed::unsigned::HpUfixed::convert_precision&#45;&gt;hp_fixed::unsigned::HpUfixed</title>
<path fill="none" stroke="#7f7f7f" stroke-dasharray="5,2" d="M258.82,-1051.61C320.59,-1018.08 407.19,-954.64 439.86,-916.48"/>
<polygon fill="#7f7f7f" stroke="#7f7f7f" points="442.88,-918.3 446.31,-908.28 437.38,-913.97 442.88,-918.3"/>
<text text-anchor="middle" x="336.84" y="-987.05" font-family="monospace" font-size="10.00">uses</text>
</g>
<!-- hp_fixed::unsigned::HpUfixed::floor&#45;&gt;hp_fixed::unsigned::HpUfixed -->
<g id="edge49" class="edge">
<title>hp_fixed::unsigned::HpUfixed::floor&#45;&gt;hp_fixed::unsigned::HpUfixed</title>
<path fill="none" stroke="#7f7f7f" stroke-dasharray="5,2" d="M147.04,-919.24C218.98,-925.64 334.76,-921.64 400.99,-910.04"/>
<polygon fill="#7f7f7f" stroke="#7f7f7f" points="402,-913.41 411.18,-908.11 400.7,-906.53 402,-913.41"/>
<text text-anchor="middle" x="261.51" y="-917.64" font-family="monospace" font-size="10.00">uses</text>
</g>
<!-- hp_fixed::unsigned::HpUfixed::get_value&#45;&gt;hp_fixed::unsigned::HpUfixed -->
<g id="edge50" class="edge">
<title>hp_fixed::unsigned::HpUfixed::get_value&#45;&gt;hp_fixed::unsigned::HpUfixed</title>
<path fill="none" stroke="#7f7f7f" stroke-dasharray="5,2" d="M587.73,-1015.98C579.38,-989.08 542.9,-944.16 509.22,-914.89"/>
<polygon fill="#7f7f7f" stroke="#7f7f7f" points="511.11,-911.91 501.2,-908.18 506.62,-917.28 511.11,-911.91"/>
<text text-anchor="middle" x="535.98" y="-957.44" font-family="monospace" font-size="10.00">uses</text>
</g>
<!-- hp_fixed::unsigned::HpUfixed::json_schema&#45;&gt;hp_fixed::unsigned::HpUfixed -->
<g id="edge51" class="edge">
<title>hp_fixed::unsigned::HpUfixed::json_schema&#45;&gt;hp_fixed::unsigned::HpUfixed</title>
<path fill="none" stroke="#7f7f7f" stroke-dasharray="5,2" d="M680.16,-1135.13C661.32,-1087.14 562.36,-968.62 500.25,-914.88"/>
<polygon fill="#7f7f7f" stroke="#7f7f7f" points="502.4,-912.11 492.49,-908.35 497.89,-917.46 502.4,-912.11"/>
<text text-anchor="middle" x="577.71" y="-1017" font-family="monospace" font-size="10.00">uses</text>
</g>
<!-- hp_fixed::unsigned::HpUfixed::max&#45;&gt;hp_fixed::unsigned::HpUfixed -->
<g id="edge52" class="edge">
<title>hp_fixed::unsigned::HpUfixed::max&#45;&gt;hp_fixed::unsigned::HpUfixed</title>
<path fill="none" stroke="#7f7f7f" stroke-dasharray="5,2" d="M356.6,-1098.68C392.83,-1058.16 443.1,-966.26 454.48,-918.36"/>
<polygon fill="#7f7f7f" stroke="#7f7f7f" points="457.96,-918.76 456.37,-908.28 451.08,-917.47 457.96,-918.76"/>
<text text-anchor="middle" x="393.04" y="-1011.52" font-family="monospace" font-size="10.00">uses</text>
</g>
<!-- hp_fixed::unsigned::HpUfixed::min&#45;&gt;hp_fixed::unsigned::HpUfixed -->
<g id="edge53" class="edge">
<title>hp_fixed::unsigned::HpUfixed::min&#45;&gt;hp_fixed::unsigned::HpUfixed</title>
<path fill="none" stroke="#7f7f7f" stroke-dasharray="5,2" d="M582.1,-852.42C549.28,-849.97 505.15,-855.4 477.6,-865.9"/>
<polygon fill="#7f7f7f" stroke="#7f7f7f" points="476.01,-862.77 468.25,-869.98 478.82,-869.18 476.01,-862.77"/>
<text text-anchor="middle" x="517.35" y="-851.16" font-family="monospace" font-size="10.00">uses</text>
</g>
<!-- hp_fixed::unsigned::HpUfixed::new&#45;&gt;hp_fixed::unsigned::HpUfixed -->
<g id="edge54" class="edge">
<title>hp_fixed::unsigned::HpUfixed::new&#45;&gt;hp_fixed::unsigned::HpUfixed</title>
<path fill="none" stroke="#7f7f7f" stroke-dasharray="5,2" d="M756.68,-1022.44C720.34,-988.11 602.65,-927.69 524.43,-899.66"/>
<polygon fill="#7f7f7f" stroke="#7f7f7f" points="525.22,-896.23 514.62,-896.25 522.91,-902.84 525.22,-896.23"/>
<text text-anchor="middle" x="628.06" y="-964.05" font-family="monospace" font-size="10.00">uses</text>
</g>
<!-- hp_fixed::unsigned::HpUfixed::serialize&#45;&gt;hp_fixed::unsigned::HpUfixed -->
<g id="edge55" class="edge">
<title>hp_fixed::unsigned::HpUfixed::serialize&#45;&gt;hp_fixed::unsigned::HpUfixed</title>
<path fill="none" stroke="#7f7f7f" stroke-dasharray="5,2" d="M732.16,-906.87C687.72,-889.72 591.87,-875.73 524.67,-874.58"/>
<polygon fill="#7f7f7f" stroke="#7f7f7f" points="524.59,-871.08 514.56,-874.5 524.54,-878.08 524.59,-871.08"/>
<text text-anchor="middle" x="615.92" y="-893.72" font-family="monospace" font-size="10.00">uses</text>
</g>
<!-- hp_fixed::unsigned::HpUfixed::zero&#45;&gt;hp_fixed::unsigned::HpUfixed -->
<g id="edge56" class="edge">
<title>hp_fixed::unsigned::HpUfixed::zero&#45;&gt;hp_fixed::unsigned::HpUfixed</title>
<path fill="none" stroke="#7f7f7f" stroke-dasharray="5,2" d="M502.53,-1123.35C511.19,-1078.99 495.71,-969.61 474.95,-917.49"/>
<polygon fill="#7f7f7f" stroke="#7f7f7f" points="478.08,-915.93 470.87,-908.16 471.67,-918.73 478.08,-915.93"/>
<text text-anchor="middle" x="476.24" y="-1023.42" font-family="monospace" font-size="10.00">uses</text>
</g>
</g>
</svg>
