<?xml version="1.0" encoding="UTF-8" standalone="no"?>
<!DOCTYPE svg PUBLIC "-//W3C//DTD SVG 1.1//EN"
 "http://www.w3.org/Graphics/SVG/1.1/DTD/svg11.dtd">
<!-- Generated by graphviz version 4.0.0 (0)
 -->
<!-- Pages: 1 -->
<svg width="796pt" height="647pt"
 viewBox="0.00 0.00 795.60 646.60" xmlns="http://www.w3.org/2000/svg" xmlns:xlink="http://www.w3.org/1999/xlink">
<g id="graph0" class="graph" transform="scale(1 1) rotate(0) translate(28.8 617.8)">
<polygon fill="white" stroke="transparent" points="-28.8,28.8 -28.8,-617.8 766.8,-617.8 766.8,28.8 -28.8,28.8"/>
<text text-anchor="middle" x="369" y="-556.2" font-family="Helvetica,sans-Serif" font-size="36.00">lightning_forwarder</text>
<!-- core::cmp -->
<g id="node1" class="node">
<title>core::cmp</title>
<polygon fill="#81c169" stroke="black" points="-0.1,-502.67 -0.1,-540.67 88.9,-540.67 88.9,-502.67 -0.1,-502.67"/>
<text text-anchor="middle" x="44.4" y="-528.67" font-family="monospace" font-size="10.00">external mod</text>
<polyline fill="none" stroke="black" points="-0.1,-521.67 88.9,-521.67 "/>
<text text-anchor="middle" x="44.4" y="-509.67" font-family="monospace" font-size="10.00">core::cmp</text>
</g>
<!-- fdi -->
<g id="node2" class="node">
<title>fdi</title>
<polygon fill="#5397c8" stroke="black" points="637.34,-260.09 637.34,-298.09 738.34,-298.09 738.34,-260.09 637.34,-260.09"/>
<text text-anchor="middle" x="687.84" y="-286.09" font-family="monospace" font-size="10.00">external crate</text>
<polyline fill="none" stroke="black" points="637.34,-279.09 738.34,-279.09 "/>
<text text-anchor="middle" x="687.84" y="-267.09" font-family="monospace" font-size="10.00">fdi</text>
</g>
<!-- lightning_forwarder -->
<g id="node3" class="node">
<title>lightning_forwarder</title>
<polygon fill="#5397c8" stroke="black" points="185.07,-285.7 185.07,-323.7 316.07,-323.7 316.07,-285.7 185.07,-285.7"/>
<text text-anchor="middle" x="250.57" y="-311.7" font-family="monospace" font-size="10.00">crate</text>
<polyline fill="none" stroke="black" points="185.07,-304.7 316.07,-304.7 "/>
<text text-anchor="middle" x="250.57" y="-292.7" font-family="monospace" font-size="10.00">lightning_forwarder</text>
</g>
<!-- lightning_forwarder::config -->
<g id="node4" class="node">
<title>lightning_forwarder::config</title>
<polygon fill="#81c169" stroke="black" points="358.64,-403.07 358.64,-441.07 537.64,-441.07 537.64,-403.07 358.64,-403.07"/>
<text text-anchor="middle" x="448.14" y="-429.07" font-family="monospace" font-size="10.00">pub mod</text>
<polyline fill="none" stroke="black" points="358.64,-422.07 537.64,-422.07 "/>
<text text-anchor="middle" x="448.14" y="-410.07" font-family="monospace" font-size="10.00">lightning_forwarder::config</text>
</g>
<!-- lightning_forwarder&#45;&gt;lightning_forwarder::config -->
<g id="edge1" class="edge">
<title>lightning_forwarder&#45;&gt;lightning_forwarder::config</title>
<path fill="none" stroke="#000000" d="M282.76,-323.82C316.62,-343.94 370.04,-375.67 406.96,-397.61"/>
<polygon fill="#000000" stroke="#000000" points="405.59,-400.86 415.97,-402.96 409.16,-394.84 405.59,-400.86"/>
<text text-anchor="middle" x="332.36" y="-363.71" font-family="monospace" font-size="10.00">owns</text>
</g>
<!-- lightning_forwarder::forwarder -->
<g id="node5" class="node">
<title>lightning_forwarder::forwarder</title>
<polygon fill="#f8c04c" stroke="black" points="314.24,-234.14 314.24,-272.14 511.24,-272.14 511.24,-234.14 314.24,-234.14"/>
<text text-anchor="middle" x="412.74" y="-260.14" font-family="monospace" font-size="10.00">pub(crate) mod</text>
<polyline fill="none" stroke="black" points="314.24,-253.14 511.24,-253.14 "/>
<text text-anchor="middle" x="412.74" y="-241.14" font-family="monospace" font-size="10.00">lightning_forwarder::forwarder</text>
</g>
<!-- lightning_forwarder&#45;&gt;lightning_forwarder::forwarder -->
<g id="edge2" class="edge">
<title>lightning_forwarder&#45;&gt;lightning_forwarder::forwarder</title>
<path fill="none" stroke="#000000" d="M316.07,-311.13C345.3,-304.53 377.29,-292.02 396.3,-278.62"/>
<polygon fill="#000000" stroke="#000000" points="398.69,-281.19 404.3,-272.2 394.31,-275.73 398.69,-281.19"/>
<text text-anchor="middle" x="343.69" y="-297.87" font-family="monospace" font-size="10.00">owns</text>
</g>
<!-- lightning_forwarder&#45;&gt;lightning_forwarder::forwarder -->
<g id="edge3" class="edge">
<title>lightning_forwarder&#45;&gt;lightning_forwarder::forwarder</title>
<path fill="none" stroke="#7f7f7f" stroke-dasharray="5,2" d="M259.1,-285.57C268.88,-276.46 285.61,-267.41 304.54,-259.92"/>
<polygon fill="#7f7f7f" stroke="#7f7f7f" points="305.86,-263.17 313.99,-256.38 303.4,-256.61 305.86,-263.17"/>
<text text-anchor="middle" x="269.32" y="-275.75" font-family="monospace" font-size="10.00">uses</text>
</g>
<!-- lightning_forwarder::worker -->
<g id="node6" class="node">
<title>lightning_forwarder::worker</title>
<polygon fill="#f8c04c" stroke="black" points="171.62,-439.39 171.62,-477.39 350.62,-477.39 350.62,-439.39 171.62,-439.39"/>
<text text-anchor="middle" x="261.12" y="-465.39" font-family="monospace" font-size="10.00">pub(crate) mod</text>
<polyline fill="none" stroke="black" points="171.62,-458.39 350.62,-458.39 "/>
<text text-anchor="middle" x="261.12" y="-446.39" font-family="monospace" font-size="10.00">lightning_forwarder::worker</text>
</g>
<!-- lightning_forwarder&#45;&gt;lightning_forwarder::worker -->
<g id="edge4" class="edge">
<title>lightning_forwarder&#45;&gt;lightning_forwarder::worker</title>
<path fill="none" stroke="#000000" d="M251.89,-323.85C253.7,-350.2 256.97,-397.86 259.09,-428.81"/>
<polygon fill="#000000" stroke="#000000" points="255.61,-429.26 259.79,-439 262.6,-428.78 255.61,-429.26"/>
<text text-anchor="middle" x="242.99" y="-379.33" font-family="monospace" font-size="10.00">owns</text>
</g>
<!-- lightning_forwarder::forwarder&#45;&gt;fdi -->
<g id="edge5" class="edge">
<title>lightning_forwarder::forwarder&#45;&gt;fdi</title>
<path fill="none" stroke="#7f7f7f" stroke-dasharray="5,2" d="M511.28,-262.44C549.84,-266.07 592.86,-270.13 626.78,-273.33"/>
<polygon fill="#7f7f7f" stroke="#7f7f7f" points="626.72,-276.84 637,-274.29 627.38,-269.87 626.72,-276.84"/>
<text text-anchor="middle" x="556.53" y="-270.88" font-family="monospace" font-size="10.00">uses</text>
</g>
<!-- lightning_forwarder::forwarder&#45;&gt;lightning_forwarder::config -->
<g id="edge6" class="edge">
<title>lightning_forwarder::forwarder&#45;&gt;lightning_forwarder::config</title>
<path fill="none" stroke="#7f7f7f" stroke-dasharray="5,2" d="M416.74,-272.19C422.9,-301.6 434.77,-358.24 442.02,-392.85"/>
<polygon fill="#7f7f7f" stroke="#7f7f7f" points="438.63,-393.76 444.11,-402.83 445.48,-392.32 438.63,-393.76"/>
<text text-anchor="middle" x="416.88" y="-335.52" font-family="monospace" font-size="10.00">uses</text>
</g>
<!-- lightning_forwarder::forwarder&#45;&gt;lightning_forwarder::worker -->
<g id="edge7" class="edge">
<title>lightning_forwarder::forwarder&#45;&gt;lightning_forwarder::worker</title>
<path fill="none" stroke="#7f7f7f" stroke-dasharray="5,2" d="M398.48,-272.45C371.38,-309.14 312.37,-389.02 281.25,-431.14"/>
<polygon fill="#7f7f7f" stroke="#7f7f7f" points="278.37,-429.16 275.24,-439.28 284,-433.32 278.37,-429.16"/>
<text text-anchor="middle" x="327.37" y="-343.8" font-family="monospace" font-size="10.00">uses</text>
</g>
<!-- lightning_schema -->
<g id="node7" class="node">
<title>lightning_schema</title>
<polygon fill="#5397c8" stroke="black" points="213.88,-0.8 213.88,-38.8 326.88,-38.8 326.88,-0.8 213.88,-0.8"/>
<text text-anchor="middle" x="270.38" y="-26.8" font-family="monospace" font-size="10.00">external crate</text>
<polyline fill="none" stroke="black" points="213.88,-19.8 326.88,-19.8 "/>
<text text-anchor="middle" x="270.38" y="-7.8" font-family="monospace" font-size="10.00">lightning_schema</text>
</g>
<!-- lightning_forwarder::forwarder&#45;&gt;lightning_schema -->
<g id="edge8" class="edge">
<title>lightning_forwarder::forwarder&#45;&gt;lightning_schema</title>
<path fill="none" stroke="#7f7f7f" stroke-dasharray="5,2" d="M401.09,-234.05C375.95,-192.84 316.52,-95.42 287.25,-47.46"/>
<polygon fill="#7f7f7f" stroke="#7f7f7f" points="290.18,-45.54 281.99,-38.83 284.21,-49.19 290.18,-45.54"/>
<text text-anchor="middle" x="331.67" y="-143.75" font-family="monospace" font-size="10.00">uses</text>
</g>
<!-- lightning_types -->
<g id="node8" class="node">
<title>lightning_types</title>
<polygon fill="#5397c8" stroke="black" points="505.98,-3.56 505.98,-41.56 612.98,-41.56 612.98,-3.56 505.98,-3.56"/>
<text text-anchor="middle" x="559.48" y="-29.56" font-family="monospace" font-size="10.00">external crate</text>
<polyline fill="none" stroke="black" points="505.98,-22.56 612.98,-22.56 "/>
<text text-anchor="middle" x="559.48" y="-10.56" font-family="monospace" font-size="10.00">lightning_types</text>
</g>
<!-- lightning_forwarder::forwarder&#45;&gt;lightning_types -->
<g id="edge9" class="edge">
<title>lightning_forwarder::forwarder&#45;&gt;lightning_types</title>
<path fill="none" stroke="#7f7f7f" stroke-dasharray="5,2" d="M425,-233.88C451.02,-193 511.82,-97.45 541.94,-50.13"/>
<polygon fill="#7f7f7f" stroke="#7f7f7f" points="544.94,-51.92 547.36,-41.61 539.04,-48.16 544.94,-51.92"/>
<text text-anchor="middle" x="470.97" y="-145" font-family="monospace" font-size="10.00">uses</text>
</g>
<!-- lightning_forwarder::worker&#45;&gt;core::cmp -->
<g id="edge10" class="edge">
<title>lightning_forwarder::worker&#45;&gt;core::cmp</title>
<path fill="none" stroke="#7f7f7f" stroke-dasharray="5,2" d="M195.81,-477.46C164.79,-486.52 128.15,-497.22 98.69,-505.82"/>
<polygon fill="#7f7f7f" stroke="#7f7f7f" points="97.61,-502.49 88.99,-508.65 99.57,-509.21 97.61,-502.49"/>
<text text-anchor="middle" x="134.75" y="-494.64" font-family="monospace" font-size="10.00">uses</text>
</g>
</g>
</svg>
