<?xml version="1.0" encoding="UTF-8" standalone="no"?>
<!DOCTYPE svg PUBLIC "-//W3C//DTD SVG 1.1//EN"
 "http://www.w3.org/Graphics/SVG/1.1/DTD/svg11.dtd">
<!-- Generated by graphviz version 4.0.0 (0)
 -->
<!-- Pages: 1 -->
<svg width="700pt" height="820pt"
 viewBox="0.00 0.00 699.60 819.60" xmlns="http://www.w3.org/2000/svg" xmlns:xlink="http://www.w3.org/1999/xlink">
<g id="graph0" class="graph" transform="scale(1 1) rotate(0) translate(28.8 790.8)">
<polygon fill="white" stroke="transparent" points="-28.8,28.8 -28.8,-790.8 670.8,-790.8 670.8,28.8 -28.8,28.8"/>
<text text-anchor="middle" x="321" y="-729.2" font-family="Helvetica,sans-Serif" font-size="36.00">lightning_pinger</text>
<!-- lightning_pinger -->
<g id="node1" class="node">
<title>lightning_pinger</title>
<polygon fill="#5397c8" stroke="black" points="196.17,-371.32 196.17,-409.32 309.17,-409.32 309.17,-371.32 196.17,-371.32"/>
<text text-anchor="middle" x="252.67" y="-397.32" font-family="monospace" font-size="10.00">crate</text>
<polyline fill="none" stroke="black" points="196.17,-390.32 309.17,-390.32 "/>
<text text-anchor="middle" x="252.67" y="-378.32" font-family="monospace" font-size="10.00">lightning_pinger</text>
</g>
<!-- lightning_pinger::config::Config -->
<g id="node2" class="node">
<title>lightning_pinger::config::Config</title>
<polygon fill="#81c169" stroke="black" points="382.76,-332.36 382.76,-370.36 483.76,-370.36 483.76,-332.36 382.76,-332.36"/>
<text text-anchor="middle" x="433.26" y="-358.36" font-family="monospace" font-size="10.00">pub struct</text>
<polyline fill="none" stroke="black" points="382.76,-351.36 483.76,-351.36 "/>
<text text-anchor="middle" x="433.26" y="-339.36" font-family="monospace" font-size="10.00">config::Config</text>
</g>
<!-- lightning_pinger&#45;&gt;lightning_pinger::config::Config -->
<g id="edge1" class="edge">
<title>lightning_pinger&#45;&gt;lightning_pinger::config::Config</title>
<path fill="none" stroke="#000000" d="M309.63,-403.28C344.55,-400.19 387.17,-389.19 412.22,-375.73"/>
<polygon fill="#000000" stroke="#000000" points="414.17,-378.64 420.91,-370.46 410.54,-372.65 414.17,-378.64"/>
<text text-anchor="middle" x="348.42" y="-392.51" font-family="monospace" font-size="10.00">owns</text>
</g>
<!-- lightning_pinger&#45;&gt;lightning_pinger::config::Config -->
<g id="edge2" class="edge">
<title>lightning_pinger&#45;&gt;lightning_pinger::config::Config</title>
<path fill="none" stroke="#7f7f7f" stroke-dasharray="5,2" d="M265,-371.24C286.93,-355.98 333.57,-342.81 372.24,-338.79"/>
<polygon fill="#7f7f7f" stroke="#7f7f7f" points="372.72,-342.26 382.39,-337.93 372.13,-335.28 372.72,-342.26"/>
<text text-anchor="middle" x="306.12" y="-358.01" font-family="monospace" font-size="10.00">uses</text>
</g>
<!-- lightning_pinger::pinger::Message -->
<g id="node3" class="node">
<title>lightning_pinger::pinger::Message</title>
<polygon fill="#db5367" stroke="black" points="0.16,-421.71 0.16,-459.71 107.16,-459.71 107.16,-421.71 0.16,-421.71"/>
<text text-anchor="middle" x="53.66" y="-447.71" font-family="monospace" font-size="10.00">pub(self) enum</text>
<polyline fill="none" stroke="black" points="0.16,-440.71 107.16,-440.71 "/>
<text text-anchor="middle" x="53.66" y="-428.71" font-family="monospace" font-size="10.00">pinger::Message</text>
</g>
<!-- lightning_pinger&#45;&gt;lightning_pinger::pinger::Message -->
<g id="edge3" class="edge">
<title>lightning_pinger&#45;&gt;lightning_pinger::pinger::Message</title>
<path fill="none" stroke="#000000" d="M195.91,-404.69C171.37,-410.91 142.54,-418.21 117.27,-424.61"/>
<polygon fill="#000000" stroke="#000000" points="116.25,-421.25 107.42,-427.1 117.97,-428.04 116.25,-421.25"/>
<text text-anchor="middle" x="144.09" y="-417.65" font-family="monospace" font-size="10.00">owns</text>
</g>
<!-- lightning_pinger::pinger::Pinger -->
<g id="node4" class="node">
<title>lightning_pinger::pinger::Pinger</title>
<polygon fill="#81c169" stroke="black" points="263.21,-513.04 263.21,-551.04 364.21,-551.04 364.21,-513.04 263.21,-513.04"/>
<text text-anchor="middle" x="313.71" y="-539.04" font-family="monospace" font-size="10.00">pub struct</text>
<polyline fill="none" stroke="black" points="263.21,-532.04 364.21,-532.04 "/>
<text text-anchor="middle" x="313.71" y="-520.04" font-family="monospace" font-size="10.00">pinger::Pinger</text>
</g>
<!-- lightning_pinger&#45;&gt;lightning_pinger::pinger::Pinger -->
<g id="edge4" class="edge">
<title>lightning_pinger&#45;&gt;lightning_pinger::pinger::Pinger</title>
<path fill="none" stroke="#000000" d="M243.21,-409.6C242.08,-434.39 257.33,-476.33 275.56,-504.35"/>
<polygon fill="#000000" stroke="#000000" points="272.7,-506.37 281.3,-512.57 278.44,-502.36 272.7,-506.37"/>
<text text-anchor="middle" x="246.88" y="-459.98" font-family="monospace" font-size="10.00">owns</text>
</g>
<!-- lightning_pinger&#45;&gt;lightning_pinger::pinger::Pinger -->
<g id="edge5" class="edge">
<title>lightning_pinger&#45;&gt;lightning_pinger::pinger::Pinger</title>
<path fill="none" stroke="#7f7f7f" stroke-dasharray="5,2" d="M284.95,-409.61C303.34,-433.91 320.22,-474.84 322.87,-502.89"/>
<polygon fill="#7f7f7f" stroke="#7f7f7f" points="319.38,-503.06 323.17,-512.95 326.37,-502.85 319.38,-503.06"/>
<text text-anchor="middle" x="291.41" y="-459.25" font-family="monospace" font-size="10.00">uses</text>
</g>
<!-- lightning_pinger::pinger::PingerInner -->
<g id="node9" class="node">
<title>lightning_pinger::pinger::PingerInner</title>
<polygon fill="#db5367" stroke="black" points="325.67,-168.03 325.67,-206.03 456.67,-206.03 456.67,-168.03 325.67,-168.03"/>
<text text-anchor="middle" x="391.17" y="-194.03" font-family="monospace" font-size="10.00">pub(self) struct</text>
<polyline fill="none" stroke="black" points="325.67,-187.03 456.67,-187.03 "/>
<text text-anchor="middle" x="391.17" y="-175.03" font-family="monospace" font-size="10.00">pinger::PingerInner</text>
</g>
<!-- lightning_pinger&#45;&gt;lightning_pinger::pinger::PingerInner -->
<g id="edge6" class="edge">
<title>lightning_pinger&#45;&gt;lightning_pinger::pinger::PingerInner</title>
<path fill="none" stroke="#000000" d="M265.7,-371.19C290.35,-335.02 343.86,-256.47 372.39,-214.6"/>
<polygon fill="#000000" stroke="#000000" points="375.34,-216.49 378.08,-206.25 369.55,-212.54 375.34,-216.49"/>
<text text-anchor="middle" x="306.55" y="-295.9" font-family="monospace" font-size="10.00">owns</text>
</g>
<!-- lightning_pinger::pinger::Pinger::Config -->
<g id="node5" class="node">
<title>lightning_pinger::pinger::Pinger::Config</title>
<polygon fill="#db5367" stroke="black" points="344.15,-578.07 344.15,-616.07 493.15,-616.07 493.15,-578.07 344.15,-578.07"/>
<text text-anchor="middle" x="418.65" y="-604.07" font-family="monospace" font-size="10.00">pub(self) type</text>
<polyline fill="none" stroke="black" points="344.15,-597.07 493.15,-597.07 "/>
<text text-anchor="middle" x="418.65" y="-585.07" font-family="monospace" font-size="10.00">pinger::Pinger::Config</text>
</g>
<!-- lightning_pinger::pinger::Pinger&#45;&gt;lightning_pinger::pinger::Pinger::Config -->
<g id="edge7" class="edge">
<title>lightning_pinger::pinger::Pinger&#45;&gt;lightning_pinger::pinger::Pinger::Config</title>
<path fill="none" stroke="#000000" d="M344.63,-551.2C355.52,-557.95 367.91,-565.62 379.39,-572.74"/>
<polygon fill="#000000" stroke="#000000" points="377.61,-575.76 387.96,-578.05 381.3,-569.81 377.61,-575.76"/>
<text text-anchor="middle" x="349.51" y="-564.97" font-family="monospace" font-size="10.00">owns</text>
</g>
<!-- lightning_pinger::pinger::Pinger::build_graph -->
<g id="node6" class="node">
<title>lightning_pinger::pinger::Pinger::build_graph</title>
<polygon fill="#db5367" stroke="black" points="98.08,-675.49 98.08,-713.49 277.08,-713.49 277.08,-675.49 98.08,-675.49"/>
<text text-anchor="middle" x="187.58" y="-701.49" font-family="monospace" font-size="10.00">pub(self) fn</text>
<polyline fill="none" stroke="black" points="98.08,-694.49 277.08,-694.49 "/>
<text text-anchor="middle" x="187.58" y="-682.49" font-family="monospace" font-size="10.00">pinger::Pinger::build_graph</text>
</g>
<!-- lightning_pinger::pinger::Pinger&#45;&gt;lightning_pinger::pinger::Pinger::build_graph -->
<g id="edge8" class="edge">
<title>lightning_pinger::pinger::Pinger&#45;&gt;lightning_pinger::pinger::Pinger::build_graph</title>
<path fill="none" stroke="#000000" d="M298.75,-551.31C276.46,-580.01 234.45,-634.12 208.94,-666.97"/>
<polygon fill="#000000" stroke="#000000" points="205.89,-665.19 202.53,-675.24 211.42,-669.49 205.89,-665.19"/>
<text text-anchor="middle" x="241.35" y="-612.14" font-family="monospace" font-size="10.00">owns</text>
</g>
<!-- lightning_pinger::pinger::Pinger::new -->
<g id="node7" class="node">
<title>lightning_pinger::pinger::Pinger::new</title>
<polygon fill="#81c169" stroke="black" points="166.88,-177.21 166.88,-215.21 297.88,-215.21 297.88,-177.21 166.88,-177.21"/>
<text text-anchor="middle" x="232.38" y="-203.21" font-family="monospace" font-size="10.00">pub fn</text>
<polyline fill="none" stroke="black" points="166.88,-196.21 297.88,-196.21 "/>
<text text-anchor="middle" x="232.38" y="-184.21" font-family="monospace" font-size="10.00">pinger::Pinger::new</text>
</g>
<!-- lightning_pinger::pinger::Pinger&#45;&gt;lightning_pinger::pinger::Pinger::new -->
<g id="edge9" class="edge">
<title>lightning_pinger::pinger::Pinger&#45;&gt;lightning_pinger::pinger::Pinger::new</title>
<path fill="none" stroke="#000000" d="M321.88,-512.91C326.57,-456.51 288.14,-291.67 256.56,-224.77"/>
<polygon fill="#000000" stroke="#000000" points="259.58,-222.99 251.96,-215.63 253.33,-226.14 259.58,-222.99"/>
<text text-anchor="middle" x="276.72" y="-360.84" font-family="monospace" font-size="10.00">owns</text>
</g>
<!-- lightning_pinger::pinger::Pinger::start -->
<g id="node8" class="node">
<title>lightning_pinger::pinger::Pinger::start</title>
<polygon fill="#81c169" stroke="black" points="499.49,-466.73 499.49,-504.73 642.49,-504.73 642.49,-466.73 499.49,-466.73"/>
<text text-anchor="middle" x="570.99" y="-492.73" font-family="monospace" font-size="10.00">pub async fn</text>
<polyline fill="none" stroke="black" points="499.49,-485.73 642.49,-485.73 "/>
<text text-anchor="middle" x="570.99" y="-473.73" font-family="monospace" font-size="10.00">pinger::Pinger::start</text>
</g>
<!-- lightning_pinger::pinger::Pinger&#45;&gt;lightning_pinger::pinger::Pinger::start -->
<g id="edge10" class="edge">
<title>lightning_pinger::pinger::Pinger&#45;&gt;lightning_pinger::pinger::Pinger::start</title>
<path fill="none" stroke="#000000" d="M364.39,-544.67C418.19,-543.52 501.1,-527.52 543.72,-509.14"/>
<polygon fill="#000000" stroke="#000000" points="545.36,-512.24 552.92,-504.81 542.38,-505.91 545.36,-512.24"/>
<text text-anchor="middle" x="441.56" y="-529.91" font-family="monospace" font-size="10.00">owns</text>
</g>
<!-- lightning_pinger::pinger::Pinger::Config&#45;&gt;lightning_pinger::config::Config -->
<g id="edge11" class="edge">
<title>lightning_pinger::pinger::Pinger::Config&#45;&gt;lightning_pinger::config::Config</title>
<path fill="none" stroke="#7f7f7f" stroke-dasharray="5,2" d="M419.8,-577.79C422.35,-534.91 428.5,-431.42 431.52,-380.56"/>
<polygon fill="#7f7f7f" stroke="#7f7f7f" points="435.02,-380.74 432.12,-370.55 428.03,-380.32 435.02,-380.74"/>
<text text-anchor="middle" x="413.16" y="-482.18" font-family="monospace" font-size="10.00">uses</text>
</g>
<!-- lightning_pinger::pinger::Pinger::new&#45;&gt;lightning_pinger::config::Config -->
<g id="edge12" class="edge">
<title>lightning_pinger::pinger::Pinger::new&#45;&gt;lightning_pinger::config::Config</title>
<path fill="none" stroke="#7f7f7f" stroke-dasharray="5,2" d="M257.01,-215.23C293,-243.03 360.05,-294.82 400.27,-325.88"/>
<polygon fill="#7f7f7f" stroke="#7f7f7f" points="398.37,-328.84 408.43,-332.18 402.65,-323.3 398.37,-328.84"/>
<text text-anchor="middle" x="316.14" y="-273.56" font-family="monospace" font-size="10.00">uses</text>
</g>
<!-- lightning_pinger::pinger::Pinger::new&#45;&gt;lightning_pinger::pinger::Pinger -->
<g id="edge13" class="edge">
<title>lightning_pinger::pinger::Pinger::new&#45;&gt;lightning_pinger::pinger::Pinger</title>
<path fill="none" stroke="#7f7f7f" stroke-dasharray="5,2" d="M224.21,-215.33C219.51,-271.73 257.95,-436.57 289.53,-503.48"/>
<polygon fill="#7f7f7f" stroke="#7f7f7f" points="286.51,-505.26 294.13,-512.61 292.76,-502.11 286.51,-505.26"/>
<text text-anchor="middle" x="244.37" y="-362.41" font-family="monospace" font-size="10.00">uses</text>
</g>
<!-- lightning_pinger::pinger::Pinger::new&#45;&gt;lightning_pinger::pinger::PingerInner -->
<g id="edge14" class="edge">
<title>lightning_pinger::pinger::Pinger::new&#45;&gt;lightning_pinger::pinger::PingerInner</title>
<path fill="none" stroke="#7f7f7f" stroke-dasharray="5,2" d="M297.88,-192.42C303.6,-192.09 309.41,-191.75 315.2,-191.42"/>
<polygon fill="#7f7f7f" stroke="#7f7f7f" points="315.78,-194.89 325.56,-190.82 315.38,-187.9 315.78,-194.89"/>
<text text-anchor="middle" x="312.79" y="-183.92" font-family="monospace" font-size="10.00">uses</text>
</g>
<!-- lightning_pinger::pinger::Pinger::start&#45;&gt;lightning_pinger::pinger::Pinger -->
<g id="edge15" class="edge">
<title>lightning_pinger::pinger::Pinger::start&#45;&gt;lightning_pinger::pinger::Pinger</title>
<path fill="none" stroke="#7f7f7f" stroke-dasharray="5,2" d="M499.47,-474.16C446.86,-478.19 378.29,-492.52 340.88,-508.67"/>
<polygon fill="#7f7f7f" stroke="#7f7f7f" points="339.18,-505.6 331.63,-513.04 342.17,-511.93 339.18,-505.6"/>
<text text-anchor="middle" x="407.67" y="-494.41" font-family="monospace" font-size="10.00">uses</text>
</g>
<!-- lightning_pinger::pinger::PingerInner&#45;&gt;lightning_pinger::config::Config -->
<g id="edge16" class="edge">
<title>lightning_pinger::pinger::PingerInner&#45;&gt;lightning_pinger::config::Config</title>
<path fill="none" stroke="#7f7f7f" stroke-dasharray="5,2" d="M396.08,-206.2C403.4,-234.77 417.22,-288.74 425.8,-322.22"/>
<polygon fill="#7f7f7f" stroke="#7f7f7f" points="422.51,-323.49 428.38,-332.31 429.29,-321.75 422.51,-323.49"/>
<text text-anchor="middle" x="398.44" y="-267.21" font-family="monospace" font-size="10.00">uses</text>
</g>
<!-- lightning_pinger::pinger::PingerInner::get_node_registry -->
<g id="node10" class="node">
<title>lightning_pinger::pinger::PingerInner::get_node_registry</title>
<polygon fill="#db5367" stroke="black" points="277.6,-0.98 277.6,-38.98 522.6,-38.98 522.6,-0.98 277.6,-0.98"/>
<text text-anchor="middle" x="400.1" y="-26.98" font-family="monospace" font-size="10.00">pub(self) fn</text>
<polyline fill="none" stroke="black" points="277.6,-19.98 522.6,-19.98 "/>
<text text-anchor="middle" x="400.1" y="-7.98" font-family="monospace" font-size="10.00">pinger::PingerInner::get_node_registry</text>
</g>
<!-- lightning_pinger::pinger::PingerInner&#45;&gt;lightning_pinger::pinger::PingerInner::get_node_registry -->
<g id="edge17" class="edge">
<title>lightning_pinger::pinger::PingerInner&#45;&gt;lightning_pinger::pinger::PingerInner::get_node_registry</title>
<path fill="none" stroke="#000000" d="M410.56,-167.86C422.82,-138.7 426.59,-83.03 419.32,-48.93"/>
<polygon fill="#000000" stroke="#000000" points="422.65,-47.86 416.7,-39.1 415.89,-49.66 422.65,-47.86"/>
<text text-anchor="middle" x="402.44" y="-111.39" font-family="monospace" font-size="10.00">owns</text>
</g>
<!-- lightning_pinger::pinger::PingerInner::new -->
<g id="node11" class="node">
<title>lightning_pinger::pinger::PingerInner::new</title>
<polygon fill="#db5367" stroke="black" points="457.99,-215.03 457.99,-253.03 618.99,-253.03 618.99,-215.03 457.99,-215.03"/>
<text text-anchor="middle" x="538.49" y="-241.03" font-family="monospace" font-size="10.00">pub(self) fn</text>
<polyline fill="none" stroke="black" points="457.99,-234.03 618.99,-234.03 "/>
<text text-anchor="middle" x="538.49" y="-222.03" font-family="monospace" font-size="10.00">pinger::PingerInner::new</text>
</g>
<!-- lightning_pinger::pinger::PingerInner&#45;&gt;lightning_pinger::pinger::PingerInner::new -->
<g id="edge18" class="edge">
<title>lightning_pinger::pinger::PingerInner&#45;&gt;lightning_pinger::pinger::PingerInner::new</title>
<path fill="none" stroke="#000000" d="M398.89,-206.2C409.17,-216.31 427.82,-226.08 448.23,-233.41"/>
<polygon fill="#000000" stroke="#000000" points="447.12,-236.73 457.72,-236.6 449.35,-230.09 447.12,-236.73"/>
<text text-anchor="middle" x="411.06" y="-222.81" font-family="monospace" font-size="10.00">owns</text>
</g>
<!-- lightning_pinger::pinger::PingerInner::run -->
<g id="node12" class="node">
<title>lightning_pinger::pinger::PingerInner::run</title>
<polygon fill="#db5367" stroke="black" points="52.88,-279.74 52.88,-317.74 213.88,-317.74 213.88,-279.74 52.88,-279.74"/>
<text text-anchor="middle" x="133.38" y="-305.74" font-family="monospace" font-size="10.00">pub(self) async fn</text>
<polyline fill="none" stroke="black" points="52.88,-298.74 213.88,-298.74 "/>
<text text-anchor="middle" x="133.38" y="-286.74" font-family="monospace" font-size="10.00">pinger::PingerInner::run</text>
</g>
<!-- lightning_pinger::pinger::PingerInner&#45;&gt;lightning_pinger::pinger::PingerInner::run -->
<g id="edge19" class="edge">
<title>lightning_pinger::pinger::PingerInner&#45;&gt;lightning_pinger::pinger::PingerInner::run</title>
<path fill="none" stroke="#000000" d="M325.54,-190.63C267.51,-207.92 187.04,-245.03 151.25,-272.85"/>
<polygon fill="#000000" stroke="#000000" points="148.93,-270.23 143.54,-279.35 153.44,-275.58 148.93,-270.23"/>
<text text-anchor="middle" x="225.89" y="-234.74" font-family="monospace" font-size="10.00">owns</text>
</g>
<!-- lightning_pinger::pinger::PingerInner::get_node_registry&#45;&gt;lightning_pinger::pinger::PingerInner -->
<g id="edge20" class="edge">
<title>lightning_pinger::pinger::PingerInner::get_node_registry&#45;&gt;lightning_pinger::pinger::PingerInner</title>
<path fill="none" stroke="#7f7f7f" stroke-dasharray="5,2" d="M380.71,-39.15C368.45,-68.31 364.68,-123.97 371.95,-158.07"/>
<polygon fill="#7f7f7f" stroke="#7f7f7f" points="368.62,-159.15 374.57,-167.91 375.38,-157.35 368.62,-159.15"/>
<text text-anchor="middle" x="363.83" y="-101.61" font-family="monospace" font-size="10.00">uses</text>
</g>
<!-- lightning_pinger::pinger::PingerInner::new&#45;&gt;lightning_pinger::config::Config -->
<g id="edge21" class="edge">
<title>lightning_pinger::pinger::PingerInner::new&#45;&gt;lightning_pinger::config::Config</title>
<path fill="none" stroke="#7f7f7f" stroke-dasharray="5,2" d="M521.35,-253.14C503.92,-272.58 476.77,-302.84 457.22,-324.64"/>
<polygon fill="#7f7f7f" stroke="#7f7f7f" points="454.47,-322.47 450.39,-332.25 459.68,-327.15 454.47,-322.47"/>
<text text-anchor="middle" x="476.79" y="-291.89" font-family="monospace" font-size="10.00">uses</text>
</g>
<!-- lightning_pinger::pinger::PingerInner::new&#45;&gt;lightning_pinger::pinger::PingerInner -->
<g id="edge22" class="edge">
<title>lightning_pinger::pinger::PingerInner::new&#45;&gt;lightning_pinger::pinger::PingerInner</title>
<path fill="none" stroke="#7f7f7f" stroke-dasharray="5,2" d="M530.77,-214.86C518.09,-202.39 492.66,-190.42 466.89,-182.93"/>
<polygon fill="#7f7f7f" stroke="#7f7f7f" points="467.59,-179.5 457.02,-180.29 465.77,-186.26 467.59,-179.5"/>
<text text-anchor="middle" x="486.33" y="-201.9" font-family="monospace" font-size="10.00">uses</text>
</g>
<!-- lightning_pinger::pinger::PingerInner::run&#45;&gt;lightning_pinger::config::Config -->
<g id="edge23" class="edge">
<title>lightning_pinger::pinger::PingerInner::run&#45;&gt;lightning_pinger::config::Config</title>
<path fill="none" stroke="#7f7f7f" stroke-dasharray="5,2" d="M214.14,-312.91C263.97,-321.65 326.87,-332.69 372.48,-340.69"/>
<polygon fill="#7f7f7f" stroke="#7f7f7f" points="372.06,-344.17 382.52,-342.45 373.27,-337.28 372.06,-344.17"/>
<text text-anchor="middle" x="280.81" y="-329.8" font-family="monospace" font-size="10.00">uses</text>
</g>
<!-- lightning_pinger::pinger::PingerInner::run&#45;&gt;lightning_pinger::pinger::Message -->
<g id="edge24" class="edge">
<title>lightning_pinger::pinger::PingerInner::run&#45;&gt;lightning_pinger::pinger::Message</title>
<path fill="none" stroke="#7f7f7f" stroke-dasharray="5,2" d="M122.63,-317.89C108.96,-342.23 85.25,-384.46 69.5,-412.5"/>
<polygon fill="#7f7f7f" stroke="#7f7f7f" points="66.34,-410.98 64.5,-421.42 72.44,-414.41 66.34,-410.98"/>
<text text-anchor="middle" x="83.57" y="-368.19" font-family="monospace" font-size="10.00">uses</text>
</g>
<!-- lightning_pinger::pinger::PingerInner::run&#45;&gt;lightning_pinger::pinger::PingerInner -->
<g id="edge25" class="edge">
<title>lightning_pinger::pinger::PingerInner::run&#45;&gt;lightning_pinger::pinger::PingerInner</title>
<path fill="none" stroke="#7f7f7f" stroke-dasharray="5,2" d="M214.22,-290.33C270.45,-271.59 340.75,-238.28 373.45,-212.8"/>
<polygon fill="#7f7f7f" stroke="#7f7f7f" points="375.91,-215.31 381.28,-206.18 371.39,-209.97 375.91,-215.31"/>
<text text-anchor="middle" x="281.34" y="-254.57" font-family="monospace" font-size="10.00">uses</text>
</g>
</g>
</svg>
