<?xml version="1.0" encoding="UTF-8" standalone="no"?>
<!DOCTYPE svg PUBLIC "-//W3C//DTD SVG 1.1//EN"
 "http://www.w3.org/Graphics/SVG/1.1/DTD/svg11.dtd">
<!-- Generated by graphviz version 4.0.0 (0)
 -->
<!-- Pages: 1 -->
<svg width="749pt" height="627pt"
 viewBox="0.00 0.00 749.07 626.83" xmlns="http://www.w3.org/2000/svg" xmlns:xlink="http://www.w3.org/1999/xlink">
<g id="graph0" class="graph" transform="scale(1 1) rotate(0) translate(28.8 598.03)">
<polygon fill="white" stroke="transparent" points="-28.8,28.8 -28.8,-598.03 720.27,-598.03 720.27,28.8 -28.8,28.8"/>
<text text-anchor="middle" x="345.74" y="-536.43" font-family="Helvetica,sans-Serif" font-size="36.00">fdi</text>
<!-- core::ptr -->
<g id="node1" class="node">
<title>core::ptr</title>
<polygon fill="#81c169" stroke="black" points="0,-242.32 0,-280.32 89,-280.32 89,-242.32 0,-242.32"/>
<text text-anchor="middle" x="44.5" y="-268.32" font-family="monospace" font-size="10.00">external mod</text>
<polyline fill="none" stroke="black" points="0,-261.32 89,-261.32 "/>
<text text-anchor="middle" x="44.5" y="-249.32" font-family="monospace" font-size="10.00">core::ptr</text>
</g>
<!-- fdi -->
<g id="node2" class="node">
<title>fdi</title>
<polygon fill="#5397c8" stroke="black" points="575.85,-364.81 575.85,-402.81 629.85,-402.81 629.85,-364.81 575.85,-364.81"/>
<text text-anchor="middle" x="602.85" y="-390.81" font-family="monospace" font-size="10.00">crate</text>
<polyline fill="none" stroke="black" points="575.85,-383.81 629.85,-383.81 "/>
<text text-anchor="middle" x="602.85" y="-371.81" font-family="monospace" font-size="10.00">fdi</text>
</g>
<!-- fdi::bind -->
<g id="node3" class="node">
<title>fdi::bind</title>
<polygon fill="#f8c04c" stroke="black" points="408.01,-10.88 408.01,-48.88 509.01,-48.88 509.01,-10.88 408.01,-10.88"/>
<text text-anchor="middle" x="458.51" y="-36.88" font-family="monospace" font-size="10.00">pub(crate) mod</text>
<polyline fill="none" stroke="black" points="408.01,-29.88 509.01,-29.88 "/>
<text text-anchor="middle" x="458.51" y="-17.88" font-family="monospace" font-size="10.00">fdi::bind</text>
</g>
<!-- fdi&#45;&gt;fdi::bind -->
<g id="edge1" class="edge">
<title>fdi&#45;&gt;fdi::bind</title>
<path fill="none" stroke="#000000" d="M607.62,-364.66C603.5,-305.3 532.63,-127.05 487.9,-57.62"/>
<polygon fill="#000000" stroke="#000000" points="490.54,-55.27 482.04,-48.95 484.74,-59.19 490.54,-55.27"/>
<text text-anchor="middle" x="535.26" y="-214.14" font-family="monospace" font-size="10.00">owns</text>
</g>
<!-- fdi&#45;&gt;fdi::bind -->
<g id="edge2" class="edge">
<title>fdi&#45;&gt;fdi::bind</title>
<path fill="none" stroke="#7f7f7f" stroke-dasharray="5,2" d="M579.29,-364.72C537.34,-305.83 465.47,-129.39 454.87,-58.98"/>
<polygon fill="#7f7f7f" stroke="#7f7f7f" points="458.34,-58.54 453.73,-49 451.39,-59.33 458.34,-58.54"/>
<text text-anchor="middle" x="504.58" y="-214.85" font-family="monospace" font-size="10.00">uses</text>
</g>
<!-- fdi::dyn_method -->
<g id="node4" class="node">
<title>fdi::dyn_method</title>
<polygon fill="#f8c04c" stroke="black" points="97.1,-242.32 97.1,-280.32 204.1,-280.32 204.1,-242.32 97.1,-242.32"/>
<text text-anchor="middle" x="150.6" y="-268.32" font-family="monospace" font-size="10.00">pub(crate) mod</text>
<polyline fill="none" stroke="black" points="97.1,-261.32 204.1,-261.32 "/>
<text text-anchor="middle" x="150.6" y="-249.32" font-family="monospace" font-size="10.00">fdi::dyn_method</text>
</g>
<!-- fdi&#45;&gt;fdi::dyn_method -->
<g id="edge3" class="edge">
<title>fdi&#45;&gt;fdi::dyn_method</title>
<path fill="none" stroke="#000000" d="M575.58,-376.43C504.88,-357.28 314.27,-305.65 214.09,-278.52"/>
<polygon fill="#000000" stroke="#000000" points="214.96,-275.12 204.39,-275.89 213.13,-281.88 214.96,-275.12"/>
<text text-anchor="middle" x="382.33" y="-330.47" font-family="monospace" font-size="10.00">owns</text>
</g>
<!-- fdi::event -->
<g id="node5" class="node">
<title>fdi::event</title>
<polygon fill="#f8c04c" stroke="black" points="580.19,-200.26 580.19,-238.26 681.19,-238.26 681.19,-200.26 580.19,-200.26"/>
<text text-anchor="middle" x="630.69" y="-226.26" font-family="monospace" font-size="10.00">pub(crate) mod</text>
<polyline fill="none" stroke="black" points="580.19,-219.26 681.19,-219.26 "/>
<text text-anchor="middle" x="630.69" y="-207.26" font-family="monospace" font-size="10.00">fdi::event</text>
</g>
<!-- fdi&#45;&gt;fdi::event -->
<g id="edge4" class="edge">
<title>fdi&#45;&gt;fdi::event</title>
<path fill="none" stroke="#000000" d="M625.66,-364.49C640.61,-335.81 650.06,-282.01 646.32,-248.51"/>
<polygon fill="#000000" stroke="#000000" points="649.73,-247.69 644.64,-238.4 642.83,-248.84 649.73,-247.69"/>
<text text-anchor="middle" x="623.49" y="-309.5" font-family="monospace" font-size="10.00">owns</text>
</g>
<!-- fdi&#45;&gt;fdi::event -->
<g id="edge5" class="edge">
<title>fdi&#45;&gt;fdi::event</title>
<path fill="none" stroke="#7f7f7f" stroke-dasharray="5,2" d="M588.88,-364.6C582.16,-335.69 589.73,-281.07 603.69,-247.6"/>
<polygon fill="#7f7f7f" stroke="#7f7f7f" points="606.95,-248.89 608,-238.35 600.6,-245.94 606.95,-248.89"/>
<text text-anchor="middle" x="583.79" y="-309.1" font-family="monospace" font-size="10.00">uses</text>
</g>
<!-- fdi::executor -->
<g id="node6" class="node">
<title>fdi::executor</title>
<polygon fill="#f8c04c" stroke="black" points="296.48,-482.73 296.48,-520.73 397.48,-520.73 397.48,-482.73 296.48,-482.73"/>
<text text-anchor="middle" x="346.98" y="-508.73" font-family="monospace" font-size="10.00">pub(crate) mod</text>
<polyline fill="none" stroke="black" points="296.48,-501.73 397.48,-501.73 "/>
<text text-anchor="middle" x="346.98" y="-489.73" font-family="monospace" font-size="10.00">fdi::executor</text>
</g>
<!-- fdi&#45;&gt;fdi::executor -->
<g id="edge6" class="edge">
<title>fdi&#45;&gt;fdi::executor</title>
<path fill="none" stroke="#000000" d="M575.36,-379.25C521.93,-387.51 407.36,-440.02 363.71,-475.91"/>
<polygon fill="#000000" stroke="#000000" points="361.32,-473.35 356.2,-482.62 365.99,-478.57 361.32,-473.35"/>
<text text-anchor="middle" x="457.04" y="-430.58" font-family="monospace" font-size="10.00">owns</text>
</g>
<!-- fdi&#45;&gt;fdi::executor -->
<g id="edge7" class="edge">
<title>fdi&#45;&gt;fdi::executor</title>
<path fill="none" stroke="#7f7f7f" stroke-dasharray="5,2" d="M593.64,-402.93C563.43,-432.73 470.33,-478.79 407.37,-498.24"/>
<polygon fill="#7f7f7f" stroke="#7f7f7f" points="406.15,-494.95 397.54,-501.13 408.12,-501.67 406.15,-494.95"/>
<text text-anchor="middle" x="488" y="-453.58" font-family="monospace" font-size="10.00">uses</text>
</g>
<!-- fdi::ext -->
<g id="node7" class="node">
<title>fdi::ext</title>
<polygon fill="#f8c04c" stroke="black" points="405.48,-472.65 405.48,-510.65 506.48,-510.65 506.48,-472.65 405.48,-472.65"/>
<text text-anchor="middle" x="455.98" y="-498.65" font-family="monospace" font-size="10.00">pub(crate) mod</text>
<polyline fill="none" stroke="black" points="405.48,-491.65 506.48,-491.65 "/>
<text text-anchor="middle" x="455.98" y="-479.65" font-family="monospace" font-size="10.00">fdi::ext</text>
</g>
<!-- fdi&#45;&gt;fdi::ext -->
<g id="edge8" class="edge">
<title>fdi&#45;&gt;fdi::ext</title>
<path fill="none" stroke="#000000" d="M575.72,-381.58C540.75,-392.35 484.65,-433.33 462.9,-463.78"/>
<polygon fill="#000000" stroke="#000000" points="459.82,-462.11 457.52,-472.46 465.77,-465.81 459.82,-462.11"/>
<text text-anchor="middle" x="506.81" y="-414.68" font-family="monospace" font-size="10.00">owns</text>
</g>
<!-- fdi&#45;&gt;fdi::ext -->
<g id="edge9" class="edge">
<title>fdi&#45;&gt;fdi::ext</title>
<path fill="none" stroke="#7f7f7f" stroke-dasharray="5,2" d="M601.35,-402.94C589.51,-426 550.53,-458.99 515.55,-479.02"/>
<polygon fill="#7f7f7f" stroke="#7f7f7f" points="513.87,-475.96 506.77,-483.82 517.22,-482.1 513.87,-475.96"/>
<text text-anchor="middle" x="545.95" y="-443.98" font-family="monospace" font-size="10.00">uses</text>
</g>
<!-- fdi::extractor -->
<g id="node8" class="node">
<title>fdi::extractor</title>
<polygon fill="#f8c04c" stroke="black" points="183.8,-32.52 183.8,-70.52 284.8,-70.52 284.8,-32.52 183.8,-32.52"/>
<text text-anchor="middle" x="234.3" y="-58.52" font-family="monospace" font-size="10.00">pub(crate) mod</text>
<polyline fill="none" stroke="black" points="183.8,-51.52 284.8,-51.52 "/>
<text text-anchor="middle" x="234.3" y="-39.52" font-family="monospace" font-size="10.00">fdi::extractor</text>
</g>
<!-- fdi&#45;&gt;fdi::extractor -->
<g id="edge10" class="edge">
<title>fdi&#45;&gt;fdi::extractor</title>
<path fill="none" stroke="#000000" d="M597.47,-364.69C561.14,-306.31 381.61,-141.12 288.82,-76.43"/>
<polygon fill="#000000" stroke="#000000" points="290.62,-73.42 280.39,-70.67 286.68,-79.2 290.62,-73.42"/>
<text text-anchor="middle" x="430.65" y="-223.56" font-family="monospace" font-size="10.00">owns</text>
</g>
<!-- fdi&#45;&gt;fdi::extractor -->
<g id="edge11" class="edge">
<title>fdi&#45;&gt;fdi::extractor</title>
<path fill="none" stroke="#7f7f7f" stroke-dasharray="5,2" d="M575.83,-376.52C500.72,-334.29 298.23,-151.94 245.74,-79.57"/>
<polygon fill="#7f7f7f" stroke="#7f7f7f" points="248.36,-77.21 239.85,-70.91 242.58,-81.15 248.36,-77.21"/>
<text text-anchor="middle" x="398.29" y="-231.05" font-family="monospace" font-size="10.00">uses</text>
</g>
<!-- fdi::graph -->
<g id="node9" class="node">
<title>fdi::graph</title>
<polygon fill="#f8c04c" stroke="black" points="140.25,-403.29 140.25,-441.29 241.25,-441.29 241.25,-403.29 140.25,-403.29"/>
<text text-anchor="middle" x="190.75" y="-429.29" font-family="monospace" font-size="10.00">pub(crate) mod</text>
<polyline fill="none" stroke="black" points="140.25,-422.29 241.25,-422.29 "/>
<text text-anchor="middle" x="190.75" y="-410.29" font-family="monospace" font-size="10.00">fdi::graph</text>
</g>
<!-- fdi&#45;&gt;fdi::graph -->
<g id="edge12" class="edge">
<title>fdi&#45;&gt;fdi::graph</title>
<path fill="none" stroke="#000000" d="M575.77,-372.33C505.87,-362.7 318.98,-378.93 233.94,-400.58"/>
<polygon fill="#000000" stroke="#000000" points="232.82,-397.26 224.09,-403.25 234.65,-404.01 232.82,-397.26"/>
<text text-anchor="middle" x="392.35" y="-389.46" font-family="monospace" font-size="10.00">owns</text>
</g>
<!-- fdi&#45;&gt;fdi::graph -->
<g id="edge13" class="edge">
<title>fdi&#45;&gt;fdi::graph</title>
<path fill="none" stroke="#7f7f7f" stroke-dasharray="5,2" d="M575.55,-401.02C510.04,-421.85 342.68,-439.16 251.75,-436.3"/>
<polygon fill="#7f7f7f" stroke="#7f7f7f" points="251.72,-432.79 241.59,-435.88 251.43,-439.79 251.72,-432.79"/>
<text text-anchor="middle" x="401.15" y="-421.66" font-family="monospace" font-size="10.00">uses</text>
</g>
<!-- fdi::helpers -->
<g id="node10" class="node">
<title>fdi::helpers</title>
<polygon fill="#f8c04c" stroke="black" points="500.13,-425.61 500.13,-463.61 601.13,-463.61 601.13,-425.61 500.13,-425.61"/>
<text text-anchor="middle" x="550.63" y="-451.61" font-family="monospace" font-size="10.00">pub(crate) mod</text>
<polyline fill="none" stroke="black" points="500.13,-444.61 601.13,-444.61 "/>
<text text-anchor="middle" x="550.63" y="-432.61" font-family="monospace" font-size="10.00">fdi::helpers</text>
</g>
<!-- fdi&#45;&gt;fdi::helpers -->
<g id="edge14" class="edge">
<title>fdi&#45;&gt;fdi::helpers</title>
<path fill="none" stroke="#000000" d="M586.32,-403.05C582.42,-407.6 578.18,-412.53 574.04,-417.35"/>
<polygon fill="#000000" stroke="#000000" points="571.08,-415.42 567.22,-425.29 576.39,-419.98 571.08,-415.42"/>
<text text-anchor="middle" x="567.68" y="-413.2" font-family="monospace" font-size="10.00">owns</text>
</g>
<!-- fdi::impl_tuple -->
<g id="node14" class="node">
<title>fdi::impl_tuple</title>
<polygon fill="#f8c04c" stroke="black" points="292.9,-0.5 292.9,-38.5 399.9,-38.5 399.9,-0.5 292.9,-0.5"/>
<text text-anchor="middle" x="346.4" y="-26.5" font-family="monospace" font-size="10.00">pub(crate) mod</text>
<polyline fill="none" stroke="black" points="292.9,-19.5 399.9,-19.5 "/>
<text text-anchor="middle" x="346.4" y="-7.5" font-family="monospace" font-size="10.00">fdi::impl_tuple</text>
</g>
<!-- fdi&#45;&gt;fdi::impl_tuple -->
<g id="edge15" class="edge">
<title>fdi&#45;&gt;fdi::impl_tuple</title>
<path fill="none" stroke="#000000" d="M589.42,-364.74C547.02,-304.51 415.86,-118.17 365.95,-47.27"/>
<polygon fill="#000000" stroke="#000000" points="368.62,-44.99 360.01,-38.82 362.9,-49.02 368.62,-44.99"/>
<text text-anchor="middle" x="465.19" y="-209" font-family="monospace" font-size="10.00">owns</text>
</g>
<!-- fdi::method -->
<g id="node15" class="node">
<title>fdi::method</title>
<polygon fill="#f8c04c" stroke="black" points="502,-57.89 502,-95.89 603,-95.89 603,-57.89 502,-57.89"/>
<text text-anchor="middle" x="552.5" y="-83.89" font-family="monospace" font-size="10.00">pub(crate) mod</text>
<polyline fill="none" stroke="black" points="502,-76.89 603,-76.89 "/>
<text text-anchor="middle" x="552.5" y="-64.89" font-family="monospace" font-size="10.00">fdi::method</text>
</g>
<!-- fdi&#45;&gt;fdi::method -->
<g id="edge16" class="edge">
<title>fdi&#45;&gt;fdi::method</title>
<path fill="none" stroke="#000000" d="M613.1,-364.74C621.73,-312.48 599.24,-167.28 574.54,-105.37"/>
<polygon fill="#000000" stroke="#000000" points="577.74,-103.96 570.56,-96.17 571.32,-106.74 577.74,-103.96"/>
<text text-anchor="middle" x="581.32" y="-238.05" font-family="monospace" font-size="10.00">owns</text>
</g>
<!-- fdi&#45;&gt;fdi::method -->
<g id="edge17" class="edge">
<title>fdi&#45;&gt;fdi::method</title>
<path fill="none" stroke="#7f7f7f" stroke-dasharray="5,2" d="M584.83,-364.61C560.11,-312.48 536.03,-168.56 541.04,-106.22"/>
<polygon fill="#7f7f7f" stroke="#7f7f7f" points="544.56,-106.26 542.26,-95.91 537.61,-105.43 544.56,-106.26"/>
<text text-anchor="middle" x="550.43" y="-238.41" font-family="monospace" font-size="10.00">uses</text>
</g>
<!-- fdi::provider -->
<g id="node16" class="node">
<title>fdi::provider</title>
<polygon fill="#f8c04c" stroke="black" points="132.12,-83.22 132.12,-121.22 233.12,-121.22 233.12,-83.22 132.12,-83.22"/>
<text text-anchor="middle" x="182.62" y="-109.22" font-family="monospace" font-size="10.00">pub(crate) mod</text>
<polyline fill="none" stroke="black" points="132.12,-102.22 233.12,-102.22 "/>
<text text-anchor="middle" x="182.62" y="-90.22" font-family="monospace" font-size="10.00">fdi::provider</text>
</g>
<!-- fdi&#45;&gt;fdi::provider -->
<g id="edge18" class="edge">
<title>fdi&#45;&gt;fdi::provider</title>
<path fill="none" stroke="#000000" d="M593.93,-364.78C547.58,-311.18 345.2,-172.63 242.35,-120.36"/>
<polygon fill="#000000" stroke="#000000" points="243.83,-117.18 233.32,-115.87 240.71,-123.45 243.83,-117.18"/>
<text text-anchor="middle" x="405.64" y="-245.57" font-family="monospace" font-size="10.00">owns</text>
</g>
<!-- fdi&#45;&gt;fdi::provider -->
<g id="edge19" class="edge">
<title>fdi&#45;&gt;fdi::provider</title>
<path fill="none" stroke="#7f7f7f" stroke-dasharray="5,2" d="M575.65,-380.57C494.89,-349.49 262.75,-194.26 198.55,-128.82"/>
<polygon fill="#7f7f7f" stroke="#7f7f7f" points="200.94,-126.25 191.58,-121.3 195.81,-131.01 200.94,-126.25"/>
<text text-anchor="middle" x="374.6" y="-257.69" font-family="monospace" font-size="10.00">uses</text>
</g>
<!-- fdi::ty -->
<g id="node17" class="node">
<title>fdi::ty</title>
<polygon fill="#f8c04c" stroke="black" points="101.16,-328.48 101.16,-366.48 202.16,-366.48 202.16,-328.48 101.16,-328.48"/>
<text text-anchor="middle" x="151.66" y="-354.48" font-family="monospace" font-size="10.00">pub(crate) mod</text>
<polyline fill="none" stroke="black" points="101.16,-347.48 202.16,-347.48 "/>
<text text-anchor="middle" x="151.66" y="-335.48" font-family="monospace" font-size="10.00">fdi::ty</text>
</g>
<!-- fdi&#45;&gt;fdi::ty -->
<g id="edge20" class="edge">
<title>fdi&#45;&gt;fdi::ty</title>
<path fill="none" stroke="#000000" d="M575.64,-381.62C504.52,-375.9 311.74,-360.37 212.5,-352.38"/>
<polygon fill="#000000" stroke="#000000" points="212.57,-348.88 202.32,-351.56 212.01,-355.85 212.57,-348.88"/>
<text text-anchor="middle" x="381.57" y="-370" font-family="monospace" font-size="10.00">owns</text>
</g>
<!-- fdi::viz -->
<g id="node18" class="node">
<title>fdi::viz</title>
<polygon fill="#81c169" stroke="black" points="223.4,-456.7 223.4,-494.7 288.4,-494.7 288.4,-456.7 223.4,-456.7"/>
<text text-anchor="middle" x="255.9" y="-482.7" font-family="monospace" font-size="10.00">pub mod</text>
<polyline fill="none" stroke="black" points="223.4,-475.7 288.4,-475.7 "/>
<text text-anchor="middle" x="255.9" y="-463.7" font-family="monospace" font-size="10.00">fdi::viz</text>
</g>
<!-- fdi&#45;&gt;fdi::viz -->
<g id="edge21" class="edge">
<title>fdi&#45;&gt;fdi::viz</title>
<path fill="none" stroke="#000000" d="M575.62,-391.02C515.36,-406.99 370.32,-445.4 298.15,-464.51"/>
<polygon fill="#000000" stroke="#000000" points="297.24,-461.13 288.47,-467.08 299.03,-467.9 297.24,-461.13"/>
<text text-anchor="middle" x="449.39" y="-419.77" font-family="monospace" font-size="10.00">owns</text>
</g>
<!-- fdi::bind&#45;&gt;fdi::event -->
<g id="edge22" class="edge">
<title>fdi::bind&#45;&gt;fdi::event</title>
<path fill="none" stroke="#7f7f7f" stroke-dasharray="5,2" d="M475.97,-49.09C506.78,-82.97 570.86,-153.46 606.12,-192.24"/>
<polygon fill="#7f7f7f" stroke="#7f7f7f" points="603.87,-194.97 613.18,-200.01 609.05,-190.26 603.87,-194.97"/>
<text text-anchor="middle" x="528.54" y="-112.66" font-family="monospace" font-size="10.00">uses</text>
</g>
<!-- fdi::bind&#45;&gt;fdi::ext -->
<g id="edge23" class="edge">
<title>fdi::bind&#45;&gt;fdi::ext</title>
<path fill="none" stroke="#7f7f7f" stroke-dasharray="5,2" d="M458.4,-49.14C458.01,-121.24 456.62,-375.6 456.14,-462.39"/>
<polygon fill="#7f7f7f" stroke="#7f7f7f" points="452.64,-462.55 456.09,-472.57 459.64,-462.59 452.64,-462.55"/>
<text text-anchor="middle" x="444.77" y="-258.76" font-family="monospace" font-size="10.00">uses</text>
</g>
<!-- fdi::bind&#45;&gt;fdi::extractor -->
<g id="edge24" class="edge">
<title>fdi::bind&#45;&gt;fdi::extractor</title>
<path fill="none" stroke="#7f7f7f" stroke-dasharray="5,2" d="M407.91,-34.77C374.53,-37.99 330.6,-42.23 295.29,-45.63"/>
<polygon fill="#7f7f7f" stroke="#7f7f7f" points="294.72,-42.17 285.1,-46.62 295.39,-49.14 294.72,-42.17"/>
<text text-anchor="middle" x="339.1" y="-43.2" font-family="monospace" font-size="10.00">uses</text>
</g>
<!-- fdi::bind&#45;&gt;fdi::method -->
<g id="edge25" class="edge">
<title>fdi::bind&#45;&gt;fdi::method</title>
<path fill="none" stroke="#7f7f7f" stroke-dasharray="5,2" d="M496.74,-49C499.55,-50.41 502.4,-51.83 505.25,-53.26"/>
<polygon fill="#7f7f7f" stroke="#7f7f7f" points="503.8,-56.44 514.31,-57.79 506.93,-50.18 503.8,-56.44"/>
<text text-anchor="middle" x="488.49" y="-54.13" font-family="monospace" font-size="10.00">uses</text>
</g>
<!-- fdi::bind&#45;&gt;fdi::provider -->
<g id="edge26" class="edge">
<title>fdi::bind&#45;&gt;fdi::provider</title>
<path fill="none" stroke="#7f7f7f" stroke-dasharray="5,2" d="M407.91,-43.15C361.48,-55.32 292.63,-73.38 243.28,-86.32"/>
<polygon fill="#7f7f7f" stroke="#7f7f7f" points="242.15,-82.99 233.37,-88.91 243.93,-89.76 242.15,-82.99"/>
<text text-anchor="middle" x="313.09" y="-67.73" font-family="monospace" font-size="10.00">uses</text>
</g>
<!-- fdi::bind&#45;&gt;fdi::ty -->
<g id="edge27" class="edge">
<title>fdi::bind&#45;&gt;fdi::ty</title>
<path fill="none" stroke="#7f7f7f" stroke-dasharray="5,2" d="M439.78,-49.27C387.12,-103.78 237.7,-258.43 177.39,-320.86"/>
<polygon fill="#7f7f7f" stroke="#7f7f7f" points="174.58,-318.72 170.15,-328.35 179.62,-323.59 174.58,-318.72"/>
<text text-anchor="middle" x="296.08" y="-188.07" font-family="monospace" font-size="10.00">uses</text>
</g>
<!-- fdi::dyn_method&#45;&gt;core::ptr -->
<g id="edge28" class="edge">
<title>fdi::dyn_method&#45;&gt;core::ptr</title>
<path fill="none" stroke="#7f7f7f" stroke-dasharray="5,2" d="M96.93,-261.32C96.77,-261.32 96.61,-261.32 96.45,-261.32"/>
<polygon fill="#7f7f7f" stroke="#7f7f7f" points="99.25,-257.82 89.25,-261.32 99.25,-264.82 99.25,-257.82"/>
<text text-anchor="middle" x="84.19" y="-264.32" font-family="monospace" font-size="10.00">uses</text>
</g>
<!-- fdi::dyn_method&#45;&gt;fdi::event -->
<g id="edge29" class="edge">
<title>fdi::dyn_method&#45;&gt;fdi::event</title>
<path fill="none" stroke="#7f7f7f" stroke-dasharray="5,2" d="M204.43,-274.28C298.79,-278.71 492.53,-261.61 582.64,-240.76"/>
<polygon fill="#7f7f7f" stroke="#7f7f7f" points="583.7,-244.11 592.59,-238.34 582.04,-237.31 583.7,-244.11"/>
<text text-anchor="middle" x="406.04" y="-260.52" font-family="monospace" font-size="10.00">uses</text>
</g>
<!-- fdi::dyn_method&#45;&gt;fdi::method -->
<g id="edge30" class="edge">
<title>fdi::dyn_method&#45;&gt;fdi::method</title>
<path fill="none" stroke="#7f7f7f" stroke-dasharray="5,2" d="M192.1,-242.28C266.2,-208.27 421.04,-137.21 501.5,-100.29"/>
<polygon fill="#7f7f7f" stroke="#7f7f7f" points="503.3,-103.31 510.93,-95.96 500.38,-96.95 503.3,-103.31"/>
<text text-anchor="middle" x="334.3" y="-174.28" font-family="monospace" font-size="10.00">uses</text>
</g>
<!-- fdi::dyn_method&#45;&gt;fdi::provider -->
<g id="edge31" class="edge">
<title>fdi::dyn_method&#45;&gt;fdi::provider</title>
<path fill="none" stroke="#7f7f7f" stroke-dasharray="5,2" d="M154.47,-242.13C159.99,-214.65 170.21,-163.88 176.7,-131.64"/>
<polygon fill="#7f7f7f" stroke="#7f7f7f" points="180.2,-131.97 178.74,-121.48 173.34,-130.59 180.2,-131.97"/>
<text text-anchor="middle" x="153.08" y="-189.88" font-family="monospace" font-size="10.00">uses</text>
</g>
<!-- fdi::dyn_method&#45;&gt;fdi::ty -->
<g id="edge32" class="edge">
<title>fdi::dyn_method&#45;&gt;fdi::ty</title>
<path fill="none" stroke="#7f7f7f" stroke-dasharray="5,2" d="M150.84,-280.44C150.97,-291.48 151.15,-305.61 151.3,-318.04"/>
<polygon fill="#7f7f7f" stroke="#7f7f7f" points="147.81,-318.46 151.43,-328.41 154.81,-318.37 147.81,-318.46"/>
<text text-anchor="middle" x="138.57" y="-302.24" font-family="monospace" font-size="10.00">uses</text>
</g>
<!-- fdi::event&#45;&gt;fdi::dyn_method -->
<g id="edge33" class="edge">
<title>fdi::event&#45;&gt;fdi::dyn_method</title>
<path fill="none" stroke="#7f7f7f" stroke-dasharray="5,2" d="M580.07,-206.46C486.9,-201.48 289.53,-218.75 198.47,-239.86"/>
<polygon fill="#7f7f7f" stroke="#7f7f7f" points="197.57,-236.48 188.68,-242.25 199.23,-243.28 197.57,-236.48"/>
<text text-anchor="middle" x="376.77" y="-215.16" font-family="monospace" font-size="10.00">uses</text>
</g>
<!-- fdi::event&#45;&gt;fdi::ext -->
<g id="edge34" class="edge">
<title>fdi::event&#45;&gt;fdi::ext</title>
<path fill="none" stroke="#7f7f7f" stroke-dasharray="5,2" d="M618.4,-238.42C588.02,-285.79 509.24,-408.62 473.76,-463.94"/>
<polygon fill="#7f7f7f" stroke="#7f7f7f" points="470.71,-462.21 468.26,-472.52 476.6,-465.99 470.71,-462.21"/>
<text text-anchor="middle" x="533.58" y="-354.18" font-family="monospace" font-size="10.00">uses</text>
</g>
<!-- fdi::event&#45;&gt;fdi::method -->
<g id="edge35" class="edge">
<title>fdi::event&#45;&gt;fdi::method</title>
<path fill="none" stroke="#7f7f7f" stroke-dasharray="5,2" d="M638.01,-200.08C636.95,-174.85 616.9,-132.31 595.21,-104.04"/>
<polygon fill="#7f7f7f" stroke="#7f7f7f" points="597.78,-101.66 588.75,-96.12 592.36,-106.09 597.78,-101.66"/>
<text text-anchor="middle" x="604.11" y="-155.06" font-family="monospace" font-size="10.00">uses</text>
</g>
<!-- fdi::event&#45;&gt;fdi::provider -->
<g id="edge36" class="edge">
<title>fdi::event&#45;&gt;fdi::provider</title>
<path fill="none" stroke="#7f7f7f" stroke-dasharray="5,2" d="M609.6,-200.18C544.36,-166.16 345.11,-112.22 243.48,-98.88"/>
<polygon fill="#7f7f7f" stroke="#7f7f7f" points="243.72,-95.38 233.37,-97.65 242.87,-102.33 243.72,-95.38"/>
<text text-anchor="middle" x="414.04" y="-152.53" font-family="monospace" font-size="10.00">uses</text>
</g>
<!-- fdi::event&#45;&gt;fdi::ty -->
<g id="edge37" class="edge">
<title>fdi::event&#45;&gt;fdi::ty</title>
<path fill="none" stroke="#7f7f7f" stroke-dasharray="5,2" d="M579.88,-232.86C490.92,-256.67 307.4,-305.8 212.09,-331.31"/>
<polygon fill="#7f7f7f" stroke="#7f7f7f" points="211.07,-327.96 202.31,-333.93 212.88,-334.72 211.07,-327.96"/>
<text text-anchor="middle" x="383.48" y="-285.09" font-family="monospace" font-size="10.00">uses</text>
</g>
<!-- fdi::ext&#45;&gt;fdi::executor -->
<g id="edge38" class="edge">
<title>fdi::ext&#45;&gt;fdi::executor</title>
<path fill="none" stroke="#7f7f7f" stroke-dasharray="5,2" d="M405.31,-496.34C405.15,-496.35 404.99,-496.37 404.83,-496.38"/>
<polygon fill="#7f7f7f" stroke="#7f7f7f" points="407.27,-492.64 397.63,-497.05 407.91,-499.61 407.27,-492.64"/>
<text text-anchor="middle" x="392.57" y="-499.36" font-family="monospace" font-size="10.00">uses</text>
</g>
<!-- fdi::ext&#45;&gt;fdi::helpers -->
<g id="edge39" class="edge">
<title>fdi::ext&#45;&gt;fdi::helpers</title>
<path fill="none" stroke="#7f7f7f" stroke-dasharray="5,2" d="M494.48,-472.52C497.31,-471.11 500.18,-469.69 503.05,-468.26"/>
<polygon fill="#7f7f7f" stroke="#7f7f7f" points="504.77,-471.31 512.17,-463.73 501.65,-465.04 504.77,-471.31"/>
<text text-anchor="middle" x="486.26" y="-462.39" font-family="monospace" font-size="10.00">uses</text>
</g>
<!-- fdi::ext&#45;&gt;fdi::method -->
<g id="edge40" class="edge">
<title>fdi::ext&#45;&gt;fdi::method</title>
<path fill="none" stroke="#7f7f7f" stroke-dasharray="5,2" d="M460.45,-472.48C475.88,-406.15 527.08,-186.15 545.68,-106.22"/>
<polygon fill="#7f7f7f" stroke="#7f7f7f" points="549.12,-106.87 547.98,-96.33 542.3,-105.28 549.12,-106.87"/>
<text text-anchor="middle" x="490.56" y="-292.35" font-family="monospace" font-size="10.00">uses</text>
</g>
<!-- fdi::extractor&#45;&gt;fdi::provider -->
<g id="edge41" class="edge">
<title>fdi::extractor&#45;&gt;fdi::provider</title>
<path fill="none" stroke="#7f7f7f" stroke-dasharray="5,2" d="M183.76,-64.3C181.7,-67.13 179.96,-70.13 178.65,-73.2"/>
<polygon fill="#7f7f7f" stroke="#7f7f7f" points="175.19,-72.57 176,-83.14 181.96,-74.37 175.19,-72.57"/>
<text text-anchor="middle" x="168.7" y="-71.75" font-family="monospace" font-size="10.00">uses</text>
</g>
<!-- fdi::extractor&#45;&gt;fdi::ty -->
<g id="edge42" class="edge">
<title>fdi::extractor&#45;&gt;fdi::ty</title>
<path fill="none" stroke="#7f7f7f" stroke-dasharray="5,2" d="M228.88,-70.94C214.72,-121.65 176.57,-258.28 159.78,-318.41"/>
<polygon fill="#7f7f7f" stroke="#7f7f7f" points="156.32,-317.8 157,-328.38 163.06,-319.69 156.32,-317.8"/>
<text text-anchor="middle" x="206.83" y="-197.67" font-family="monospace" font-size="10.00">uses</text>
</g>
<!-- fdi::graph&#45;&gt;fdi::dyn_method -->
<g id="edge43" class="edge">
<title>fdi::graph&#45;&gt;fdi::dyn_method</title>
<path fill="none" stroke="#7f7f7f" stroke-dasharray="5,2" d="M185.98,-403.19C179.01,-375.24 165.97,-322.96 157.82,-290.26"/>
<polygon fill="#7f7f7f" stroke="#7f7f7f" points="161.18,-289.25 155.36,-280.39 154.38,-290.94 161.18,-289.25"/>
<text text-anchor="middle" x="159.4" y="-349.73" font-family="monospace" font-size="10.00">uses</text>
</g>
<!-- fdi::graph&#45;&gt;fdi::event -->
<g id="edge44" class="edge">
<title>fdi::graph&#45;&gt;fdi::event</title>
<path fill="none" stroke="#7f7f7f" stroke-dasharray="5,2" d="M232.13,-403.19C313.14,-365.81 492.36,-283.1 580.18,-242.57"/>
<polygon fill="#7f7f7f" stroke="#7f7f7f" points="581.8,-245.68 589.41,-238.31 578.86,-239.32 581.8,-245.68"/>
<text text-anchor="middle" x="393.66" y="-314.88" font-family="monospace" font-size="10.00">uses</text>
</g>
<!-- fdi::graph&#45;&gt;fdi::ext -->
<g id="edge45" class="edge">
<title>fdi::graph&#45;&gt;fdi::ext</title>
<path fill="none" stroke="#7f7f7f" stroke-dasharray="5,2" d="M241.26,-435.5C285.18,-446.99 348.91,-463.65 395.53,-475.84"/>
<polygon fill="#7f7f7f" stroke="#7f7f7f" points="394.65,-479.23 405.21,-478.37 396.42,-472.46 394.65,-479.23"/>
<text text-anchor="middle" x="305.9" y="-458.67" font-family="monospace" font-size="10.00">uses</text>
</g>
<!-- fdi::graph&#45;&gt;fdi::method -->
<g id="edge46" class="edge">
<title>fdi::graph&#45;&gt;fdi::method</title>
<path fill="none" stroke="#7f7f7f" stroke-dasharray="5,2" d="M210.71,-403.23C271.61,-345.08 455.11,-169.87 525.04,-103.11"/>
<polygon fill="#7f7f7f" stroke="#7f7f7f" points="527.78,-105.33 532.6,-95.89 522.95,-100.26 527.78,-105.33"/>
<text text-anchor="middle" x="355.37" y="-245.17" font-family="monospace" font-size="10.00">uses</text>
</g>
<!-- fdi::graph&#45;&gt;fdi::provider -->
<g id="edge47" class="edge">
<title>fdi::graph&#45;&gt;fdi::provider</title>
<path fill="none" stroke="#7f7f7f" stroke-dasharray="5,2" d="M190.26,-403.23C188.9,-349.54 185.02,-196.78 183.37,-131.92"/>
<polygon fill="#7f7f7f" stroke="#7f7f7f" points="186.86,-131.5 183.11,-121.59 179.87,-131.67 186.86,-131.5"/>
<text text-anchor="middle" x="199.32" y="-270.57" font-family="monospace" font-size="10.00">uses</text>
</g>
<!-- fdi::graph&#45;&gt;fdi::ty -->
<g id="edge48" class="edge">
<title>fdi::graph&#45;&gt;fdi::ty</title>
<path fill="none" stroke="#7f7f7f" stroke-dasharray="5,2" d="M180.68,-403.02C176.35,-394.73 171.2,-384.88 166.45,-375.78"/>
<polygon fill="#7f7f7f" stroke="#7f7f7f" points="169.43,-373.92 161.69,-366.68 163.22,-377.17 169.43,-373.92"/>
<text text-anchor="middle" x="161.06" y="-392.4" font-family="monospace" font-size="10.00">uses</text>
</g>
<!-- fdi::helpers::map -->
<g id="node11" class="node">
<title>fdi::helpers::map</title>
<polygon fill="#81c169" stroke="black" points="572.47,-286.09 572.47,-324.09 691.47,-324.09 691.47,-286.09 572.47,-286.09"/>
<text text-anchor="middle" x="631.97" y="-312.09" font-family="monospace" font-size="10.00">pub mod</text>
<polyline fill="none" stroke="black" points="572.47,-305.09 691.47,-305.09 "/>
<text text-anchor="middle" x="631.97" y="-293.09" font-family="monospace" font-size="10.00">fdi::helpers::map</text>
</g>
<!-- fdi::helpers&#45;&gt;fdi::helpers::map -->
<g id="edge49" class="edge">
<title>fdi::helpers&#45;&gt;fdi::helpers::map</title>
<path fill="none" stroke="#000000" d="M561.77,-425.5C575.68,-401.63 599.61,-360.59 615.61,-333.15"/>
<polygon fill="#000000" stroke="#000000" points="618.69,-334.82 620.71,-324.41 612.64,-331.29 618.69,-334.82"/>
<text text-anchor="middle" x="576.19" y="-382.33" font-family="monospace" font-size="10.00">owns</text>
</g>
<!-- fdi::helpers::on -->
<g id="node12" class="node">
<title>fdi::helpers::on</title>
<polygon fill="#81c169" stroke="black" points="92.03,-157.08 92.03,-195.08 205.03,-195.08 205.03,-157.08 92.03,-157.08"/>
<text text-anchor="middle" x="148.53" y="-183.08" font-family="monospace" font-size="10.00">pub mod</text>
<polyline fill="none" stroke="black" points="92.03,-176.08 205.03,-176.08 "/>
<text text-anchor="middle" x="148.53" y="-164.08" font-family="monospace" font-size="10.00">fdi::helpers::on</text>
</g>
<!-- fdi::helpers&#45;&gt;fdi::helpers::on -->
<g id="edge50" class="edge">
<title>fdi::helpers&#45;&gt;fdi::helpers::on</title>
<path fill="none" stroke="#000000" d="M522.03,-425.51C450.85,-377.98 265.74,-254.36 185.99,-201.09"/>
<polygon fill="#000000" stroke="#000000" points="187.51,-197.9 177.25,-195.26 183.62,-203.72 187.51,-197.9"/>
<text text-anchor="middle" x="341.51" y="-316.3" font-family="monospace" font-size="10.00">owns</text>
</g>
<!-- fdi::helpers::wrap_with -->
<g id="node13" class="node">
<title>fdi::helpers::wrap_with</title>
<polygon fill="#81c169" stroke="black" points="527.33,-119.99 527.33,-157.99 682.33,-157.99 682.33,-119.99 527.33,-119.99"/>
<text text-anchor="middle" x="604.83" y="-145.99" font-family="monospace" font-size="10.00">pub mod</text>
<polyline fill="none" stroke="black" points="527.33,-138.99 682.33,-138.99 "/>
<text text-anchor="middle" x="604.83" y="-126.99" font-family="monospace" font-size="10.00">fdi::helpers::wrap_with</text>
</g>
<!-- fdi::helpers&#45;&gt;fdi::helpers::wrap_with -->
<g id="edge51" class="edge">
<title>fdi::helpers&#45;&gt;fdi::helpers::wrap_with</title>
<path fill="none" stroke="#000000" d="M554.02,-425.49C563.22,-373.61 588.7,-229.91 599.68,-168"/>
<polygon fill="#000000" stroke="#000000" points="603.14,-168.56 601.44,-158.1 596.24,-167.34 603.14,-168.56"/>
<text text-anchor="middle" x="564.35" y="-288.74" font-family="monospace" font-size="10.00">owns</text>
</g>
<!-- fdi::helpers::map&#45;&gt;fdi::event -->
<g id="edge52" class="edge">
<title>fdi::helpers::map&#45;&gt;fdi::event</title>
<path fill="none" stroke="#7f7f7f" stroke-dasharray="5,2" d="M631.69,-286.04C631.52,-275.12 631.31,-261.17 631.13,-248.85"/>
<polygon fill="#7f7f7f" stroke="#7f7f7f" points="634.63,-248.5 630.98,-238.55 627.63,-248.61 634.63,-248.5"/>
<text text-anchor="middle" x="618.91" y="-270.44" font-family="monospace" font-size="10.00">uses</text>
</g>
<!-- fdi::helpers::map&#45;&gt;fdi::method -->
<g id="edge53" class="edge">
<title>fdi::helpers::map&#45;&gt;fdi::method</title>
<path fill="none" stroke="#7f7f7f" stroke-dasharray="5,2" d="M625.33,-286.03C611.4,-246.01 579.02,-153.04 562.54,-105.7"/>
<polygon fill="#7f7f7f" stroke="#7f7f7f" points="565.77,-104.35 559.18,-96.06 559.16,-106.65 565.77,-104.35"/>
<text text-anchor="middle" x="581.44" y="-187.86" font-family="monospace" font-size="10.00">uses</text>
</g>
<!-- fdi::helpers::map&#45;&gt;fdi::provider -->
<g id="edge54" class="edge">
<title>fdi::helpers::map&#45;&gt;fdi::provider</title>
<path fill="none" stroke="#7f7f7f" stroke-dasharray="5,2" d="M589.7,-286.01C506.88,-248.61 323.54,-165.84 233.93,-125.39"/>
<polygon fill="#7f7f7f" stroke="#7f7f7f" points="235.33,-122.18 224.78,-121.25 232.45,-128.56 235.33,-122.18"/>
<text text-anchor="middle" x="424.32" y="-208.7" font-family="monospace" font-size="10.00">uses</text>
</g>
<!-- fdi::helpers::map&#45;&gt;fdi::ty -->
<g id="edge55" class="edge">
<title>fdi::helpers::map&#45;&gt;fdi::ty</title>
<path fill="none" stroke="#7f7f7f" stroke-dasharray="5,2" d="M572.11,-310.37C480.12,-318.49 304.97,-333.95 212.44,-342.12"/>
<polygon fill="#7f7f7f" stroke="#7f7f7f" points="212.04,-338.64 202.39,-343.01 212.66,-345.61 212.04,-338.64"/>
<text text-anchor="middle" x="404.77" y="-329.25" font-family="monospace" font-size="10.00">uses</text>
</g>
<!-- fdi::helpers::on&#45;&gt;fdi::dyn_method -->
<g id="edge56" class="edge">
<title>fdi::helpers::on&#45;&gt;fdi::dyn_method</title>
<path fill="none" stroke="#7f7f7f" stroke-dasharray="5,2" d="M149,-195.42C149.26,-206.21 149.6,-219.87 149.89,-231.95"/>
<polygon fill="#7f7f7f" stroke="#7f7f7f" points="146.39,-232.14 150.14,-242.05 153.39,-231.97 146.39,-232.14"/>
<text text-anchor="middle" x="136.95" y="-216.69" font-family="monospace" font-size="10.00">uses</text>
</g>
<!-- fdi::helpers::on&#45;&gt;fdi::event -->
<g id="edge57" class="edge">
<title>fdi::helpers::on&#45;&gt;fdi::event</title>
<path fill="none" stroke="#7f7f7f" stroke-dasharray="5,2" d="M205.26,-181.16C296.67,-189.35 475.82,-205.39 569.81,-213.81"/>
<polygon fill="#7f7f7f" stroke="#7f7f7f" points="569.74,-217.32 580.01,-214.72 570.37,-210.35 569.74,-217.32"/>
<text text-anchor="middle" x="375.03" y="-200.48" font-family="monospace" font-size="10.00">uses</text>
</g>
<!-- fdi::helpers::on&#45;&gt;fdi::method -->
<g id="edge58" class="edge">
<title>fdi::helpers::on&#45;&gt;fdi::method</title>
<path fill="none" stroke="#7f7f7f" stroke-dasharray="5,2" d="M205.13,-162.18C280.67,-143.63 413.92,-110.91 491.59,-91.84"/>
<polygon fill="#7f7f7f" stroke="#7f7f7f" points="492.83,-95.14 501.71,-89.36 491.16,-88.34 492.83,-95.14"/>
<text text-anchor="middle" x="335.86" y="-130.01" font-family="monospace" font-size="10.00">uses</text>
</g>
<!-- fdi::helpers::on&#45;&gt;fdi::provider -->
<g id="edge59" class="edge">
<title>fdi::helpers::on&#45;&gt;fdi::provider</title>
<path fill="none" stroke="#7f7f7f" stroke-dasharray="5,2" d="M157.31,-157.06C161.02,-149.02 165.42,-139.49 169.5,-130.65"/>
<polygon fill="#7f7f7f" stroke="#7f7f7f" points="172.74,-131.98 173.75,-121.43 166.38,-129.04 172.74,-131.98"/>
<text text-anchor="middle" x="150.9" y="-146.86" font-family="monospace" font-size="10.00">uses</text>
</g>
<!-- fdi::helpers::on&#45;&gt;fdi::ty -->
<g id="edge60" class="edge">
<title>fdi::helpers::on&#45;&gt;fdi::ty</title>
<path fill="none" stroke="#7f7f7f" stroke-dasharray="5,2" d="M148.88,-195.41C149.43,-225.32 150.48,-283.03 151.13,-318.12"/>
<polygon fill="#7f7f7f" stroke="#7f7f7f" points="147.63,-318.29 151.31,-328.22 154.63,-318.16 147.63,-318.29"/>
<text text-anchor="middle" x="137.5" y="-259.76" font-family="monospace" font-size="10.00">uses</text>
</g>
<!-- fdi::helpers::wrap_with&#45;&gt;fdi::event -->
<g id="edge61" class="edge">
<title>fdi::helpers::wrap_with&#45;&gt;fdi::event</title>
<path fill="none" stroke="#7f7f7f" stroke-dasharray="5,2" d="M610.95,-158.02C614.06,-167.64 617.89,-179.53 621.35,-190.27"/>
<polygon fill="#7f7f7f" stroke="#7f7f7f" points="618.12,-191.65 624.51,-200.1 624.78,-189.51 618.12,-191.65"/>
<text text-anchor="middle" x="603.65" y="-166.14" font-family="monospace" font-size="10.00">uses</text>
</g>
<!-- fdi::helpers::wrap_with&#45;&gt;fdi::method -->
<g id="edge62" class="edge">
<title>fdi::helpers::wrap_with&#45;&gt;fdi::method</title>
<path fill="none" stroke="#7f7f7f" stroke-dasharray="5,2" d="M588.56,-119.68C584.28,-114.61 579.6,-109.05 575.06,-103.66"/>
<polygon fill="#7f7f7f" stroke="#7f7f7f" points="577.7,-101.36 568.58,-95.97 572.35,-105.87 577.7,-101.36"/>
<text text-anchor="middle" x="569.31" y="-103.67" font-family="monospace" font-size="10.00">uses</text>
</g>
<!-- fdi::helpers::wrap_with&#45;&gt;fdi::provider -->
<g id="edge63" class="edge">
<title>fdi::helpers::wrap_with&#45;&gt;fdi::provider</title>
<path fill="none" stroke="#7f7f7f" stroke-dasharray="5,2" d="M526.89,-132.21C445.08,-125.08 318.17,-114.03 243.44,-107.52"/>
<polygon fill="#7f7f7f" stroke="#7f7f7f" points="243.52,-104.01 233.25,-106.63 242.91,-110.98 243.52,-104.01"/>
<text text-anchor="middle" x="372.67" y="-122.86" font-family="monospace" font-size="10.00">uses</text>
</g>
<!-- fdi::helpers::wrap_with&#45;&gt;fdi::ty -->
<g id="edge64" class="edge">
<title>fdi::helpers::wrap_with&#45;&gt;fdi::ty</title>
<path fill="none" stroke="#7f7f7f" stroke-dasharray="5,2" d="M563.41,-158.05C480.16,-196.35 292.79,-282.55 202.37,-324.15"/>
<polygon fill="#7f7f7f" stroke="#7f7f7f" points="200.77,-321.04 193.15,-328.4 203.69,-327.4 200.77,-321.04"/>
<text text-anchor="middle" x="370.39" y="-233.1" font-family="monospace" font-size="10.00">uses</text>
</g>
<!-- fdi::impl_tuple&#45;&gt;fdi::bind -->
<g id="edge65" class="edge">
<title>fdi::impl_tuple&#45;&gt;fdi::bind</title>
<path fill="none" stroke="#7f7f7f" stroke-dasharray="5,2" d="M400.16,-24.48C400.32,-24.49 400.48,-24.51 400.64,-24.52"/>
<polygon fill="#7f7f7f" stroke="#7f7f7f" points="397.63,-27.76 407.91,-25.2 398.28,-20.79 397.63,-27.76"/>
<text text-anchor="middle" x="400.4" y="-16.5" font-family="monospace" font-size="10.00">uses</text>
</g>
<!-- fdi::impl_tuple&#45;&gt;fdi::event -->
<g id="edge66" class="edge">
<title>fdi::impl_tuple&#45;&gt;fdi::event</title>
<path fill="none" stroke="#7f7f7f" stroke-dasharray="5,2" d="M373.66,-38.65C425.35,-74.97 537.56,-153.82 595.1,-194.25"/>
<polygon fill="#7f7f7f" stroke="#7f7f7f" points="593.32,-197.28 603.51,-200.17 597.34,-191.55 593.32,-197.28"/>
<text text-anchor="middle" x="471.88" y="-119.45" font-family="monospace" font-size="10.00">uses</text>
</g>
<!-- fdi::impl_tuple&#45;&gt;fdi::extractor -->
<g id="edge67" class="edge">
<title>fdi::impl_tuple&#45;&gt;fdi::extractor</title>
<path fill="none" stroke="#7f7f7f" stroke-dasharray="5,2" d="M292.65,-34.85C292.49,-34.9 292.33,-34.94 292.17,-34.99"/>
<polygon fill="#7f7f7f" stroke="#7f7f7f" points="293.55,-30.95 284.9,-37.07 295.48,-37.69 293.55,-30.95"/>
<text text-anchor="middle" x="279.91" y="-26.92" font-family="monospace" font-size="10.00">uses</text>
</g>
<!-- fdi::impl_tuple&#45;&gt;fdi::method -->
<g id="edge68" class="edge">
<title>fdi::impl_tuple&#45;&gt;fdi::method</title>
<path fill="none" stroke="#7f7f7f" stroke-dasharray="5,2" d="M400.02,-34.43C428.31,-42.3 463.11,-51.99 492.32,-60.13"/>
<polygon fill="#7f7f7f" stroke="#7f7f7f" points="491.42,-63.51 502,-62.82 493.3,-56.77 491.42,-63.51"/>
<text text-anchor="middle" x="433.67" y="-50.28" font-family="monospace" font-size="10.00">uses</text>
</g>
<!-- fdi::impl_tuple&#45;&gt;fdi::provider -->
<g id="edge69" class="edge">
<title>fdi::impl_tuple&#45;&gt;fdi::provider</title>
<path fill="none" stroke="#7f7f7f" stroke-dasharray="5,2" d="M308.42,-38.69C284.85,-50.59 254.4,-65.97 229.36,-78.61"/>
<polygon fill="#7f7f7f" stroke="#7f7f7f" points="227.75,-75.51 220.4,-83.14 230.9,-81.75 227.75,-75.51"/>
<text text-anchor="middle" x="281.39" y="-61.65" font-family="monospace" font-size="10.00">uses</text>
</g>
<!-- fdi::impl_tuple&#45;&gt;fdi::ty -->
<g id="edge70" class="edge">
<title>fdi::impl_tuple&#45;&gt;fdi::ty</title>
<path fill="none" stroke="#7f7f7f" stroke-dasharray="5,2" d="M335.09,-38.55C302.29,-93.8 206.99,-254.3 168.29,-319.48"/>
<polygon fill="#7f7f7f" stroke="#7f7f7f" points="165.1,-317.99 163.01,-328.38 171.12,-321.57 165.1,-317.99"/>
<text text-anchor="middle" x="239.19" y="-182.01" font-family="monospace" font-size="10.00">uses</text>
</g>
<!-- fdi::method&#45;&gt;fdi::event -->
<g id="edge71" class="edge">
<title>fdi::method&#45;&gt;fdi::event</title>
<path fill="none" stroke="#7f7f7f" stroke-dasharray="5,2" d="M545.19,-96.07C546.24,-121.29 566.29,-163.84 587.98,-192.1"/>
<polygon fill="#7f7f7f" stroke="#7f7f7f" points="585.41,-194.48 594.44,-200.02 590.83,-190.06 585.41,-194.48"/>
<text text-anchor="middle" x="554.08" y="-147.09" font-family="monospace" font-size="10.00">uses</text>
</g>
<!-- fdi::method&#45;&gt;fdi::provider -->
<g id="edge72" class="edge">
<title>fdi::method&#45;&gt;fdi::provider</title>
<path fill="none" stroke="#7f7f7f" stroke-dasharray="5,2" d="M501.85,-80.35C434.52,-84.97 315.69,-93.1 243.55,-98.05"/>
<polygon fill="#7f7f7f" stroke="#7f7f7f" points="242.99,-94.58 233.25,-98.75 243.47,-101.56 242.99,-94.58"/>
<text text-anchor="middle" x="360.2" y="-92.2" font-family="monospace" font-size="10.00">uses</text>
</g>
<!-- fdi::method&#45;&gt;fdi::ty -->
<g id="edge73" class="edge">
<title>fdi::method&#45;&gt;fdi::ty</title>
<path fill="none" stroke="#7f7f7f" stroke-dasharray="5,2" d="M524.32,-95.91C453.45,-143.75 267.86,-269.04 188.51,-322.61"/>
<polygon fill="#7f7f7f" stroke="#7f7f7f" points="186.15,-319.98 179.82,-328.48 190.06,-325.78 186.15,-319.98"/>
<text text-anchor="middle" x="343.91" y="-212.26" font-family="monospace" font-size="10.00">uses</text>
</g>
<!-- fdi::provider&#45;&gt;fdi::event -->
<g id="edge74" class="edge">
<title>fdi::provider&#45;&gt;fdi::event</title>
<path fill="none" stroke="#7f7f7f" stroke-dasharray="5,2" d="M203.71,-121.3C268.94,-155.33 468.19,-209.26 569.82,-222.6"/>
<polygon fill="#7f7f7f" stroke="#7f7f7f" points="569.59,-226.1 579.94,-223.83 570.43,-219.15 569.59,-226.1"/>
<text text-anchor="middle" x="374.27" y="-174.95" font-family="monospace" font-size="10.00">uses</text>
</g>
<!-- fdi::provider&#45;&gt;fdi::executor -->
<g id="edge75" class="edge">
<title>fdi::provider&#45;&gt;fdi::executor</title>
<path fill="none" stroke="#7f7f7f" stroke-dasharray="5,2" d="M190.44,-121.22C216.93,-185.63 303.46,-395.95 335.19,-473.06"/>
<polygon fill="#7f7f7f" stroke="#7f7f7f" points="332.08,-474.7 339.12,-482.62 338.55,-472.04 332.08,-474.7"/>
<text text-anchor="middle" x="250.31" y="-300.14" font-family="monospace" font-size="10.00">uses</text>
</g>
<!-- fdi::provider&#45;&gt;fdi::extractor -->
<g id="edge76" class="edge">
<title>fdi::provider&#45;&gt;fdi::extractor</title>
<path fill="none" stroke="#7f7f7f" stroke-dasharray="5,2" d="M233.16,-89.44C235.22,-86.61 236.96,-83.61 238.27,-80.54"/>
<polygon fill="#7f7f7f" stroke="#7f7f7f" points="241.73,-81.17 240.92,-70.6 234.96,-79.36 241.73,-81.17"/>
<text text-anchor="middle" x="248.22" y="-87.99" font-family="monospace" font-size="10.00">uses</text>
</g>
<!-- fdi::provider&#45;&gt;fdi::ty -->
<g id="edge77" class="edge">
<title>fdi::provider&#45;&gt;fdi::ty</title>
<path fill="none" stroke="#7f7f7f" stroke-dasharray="5,2" d="M180.19,-121.46C174.79,-164.27 161.75,-267.57 155.34,-318.33"/>
<polygon fill="#7f7f7f" stroke="#7f7f7f" points="151.86,-317.97 154.08,-328.33 158.81,-318.84 151.86,-317.97"/>
<text text-anchor="middle" x="180.27" y="-222.9" font-family="monospace" font-size="10.00">uses</text>
</g>
<!-- fdi::viz&#45;&gt;fdi::graph -->
<g id="edge78" class="edge">
<title>fdi::viz&#45;&gt;fdi::graph</title>
<path fill="none" stroke="#7f7f7f" stroke-dasharray="5,2" d="M232.37,-456.42C229.01,-453.66 225.51,-450.79 222.03,-447.94"/>
<polygon fill="#7f7f7f" stroke="#7f7f7f" points="223.97,-445 214.01,-441.37 219.53,-450.41 223.97,-445"/>
<text text-anchor="middle" x="214.7" y="-444.18" font-family="monospace" font-size="10.00">uses</text>
</g>
<!-- fdi::viz&#45;&gt;fdi::ty -->
<g id="edge79" class="edge">
<title>fdi::viz&#45;&gt;fdi::ty</title>
<path fill="none" stroke="#7f7f7f" stroke-dasharray="5,2" d="M240.29,-456.51C222.64,-434.79 193.75,-399.25 173.78,-374.69"/>
<polygon fill="#7f7f7f" stroke="#7f7f7f" points="176.4,-372.36 167.37,-366.81 170.97,-376.78 176.4,-372.36"/>
<text text-anchor="middle" x="194.53" y="-418.6" font-family="monospace" font-size="10.00">uses</text>
</g>
</g>
</svg>
