<?xml version="1.0" encoding="UTF-8" standalone="no"?>
<!DOCTYPE svg PUBLIC "-//W3C//DTD SVG 1.1//EN"
 "http://www.w3.org/Graphics/SVG/1.1/DTD/svg11.dtd">
<!-- Generated by graphviz version 4.0.0 (0)
 -->
<!-- Pages: 1 -->
<svg width="1167pt" height="1678pt"
 viewBox="0.00 0.00 1166.60 1678.10" xmlns="http://www.w3.org/2000/svg" xmlns:xlink="http://www.w3.org/1999/xlink">
<g id="graph0" class="graph" transform="scale(1 1) rotate(0) translate(28.8 1649.3)">
<polygon fill="white" stroke="transparent" points="-28.8,28.8 -28.8,-1649.3 1137.8,-1649.3 1137.8,28.8 -28.8,28.8"/>
<text text-anchor="middle" x="554.5" y="-1587.7" font-family="Helvetica,sans-Serif" font-size="36.00">lightning_pinger</text>
<!-- fdi -->
<g id="node1" class="node">
<title>fdi</title>
<polygon fill="#5397c8" stroke="black" points="42,-1226.5 42,-1264.5 143,-1264.5 143,-1226.5 42,-1226.5"/>
<text text-anchor="middle" x="92.5" y="-1252.5" font-family="monospace" font-size="10.00">external crate</text>
<polyline fill="none" stroke="black" points="42,-1245.5 143,-1245.5 "/>
<text text-anchor="middle" x="92.5" y="-1233.5" font-family="monospace" font-size="10.00">fdi</text>
</g>
<!-- lightning_metrics::histogram -->
<g id="node2" class="node">
<title>lightning_metrics::histogram</title>
<polygon fill="#81c169" stroke="black" points="0,-527.5 0,-565.5 185,-565.5 185,-527.5 0,-527.5"/>
<text text-anchor="middle" x="92.5" y="-553.5" font-family="monospace" font-size="10.00">external mod</text>
<polyline fill="none" stroke="black" points="0,-546.5 185,-546.5 "/>
<text text-anchor="middle" x="92.5" y="-534.5" font-family="monospace" font-size="10.00">lightning_metrics::histogram</text>
</g>
<!-- lightning_pinger -->
<g id="node3" class="node">
<title>lightning_pinger</title>
<polygon fill="#5397c8" stroke="black" points="36,-976.5 36,-1014.5 149,-1014.5 149,-976.5 36,-976.5"/>
<text text-anchor="middle" x="92.5" y="-1002.5" font-family="monospace" font-size="10.00">crate</text>
<polyline fill="none" stroke="black" points="36,-995.5 149,-995.5 "/>
<text text-anchor="middle" x="92.5" y="-983.5" font-family="monospace" font-size="10.00">lightning_pinger</text>
</g>
<!-- lightning_pinger::config -->
<g id="node4" class="node">
<title>lightning_pinger::config</title>
<polygon fill="#81c169" stroke="black" points="948,-1479.5 948,-1517.5 1109,-1517.5 1109,-1479.5 948,-1479.5"/>
<text text-anchor="middle" x="1028.5" y="-1505.5" font-family="monospace" font-size="10.00">pub mod</text>
<polyline fill="none" stroke="black" points="948,-1498.5 1109,-1498.5 "/>
<text text-anchor="middle" x="1028.5" y="-1486.5" font-family="monospace" font-size="10.00">lightning_pinger::config</text>
</g>
<!-- lightning_pinger&#45;&gt;lightning_pinger::config -->
<g id="edge1" class="edge">
<title>lightning_pinger&#45;&gt;lightning_pinger::config</title>
<path fill="none" stroke="#000000" d="M114.14,-1014.77C205.38,-1096.03 554,-1406.5 554,-1406.5 554,-1406.5 799.83,-1454.16 937.6,-1480.88"/>
<polygon fill="#000000" stroke="#000000" points="937.26,-1484.37 947.74,-1482.84 938.59,-1477.5 937.26,-1484.37"/>
<text text-anchor="middle" x="566.5" y="-1409.5" font-family="monospace" font-size="10.00">owns</text>
</g>
<!-- lightning_pinger&#45;&gt;lightning_pinger::config -->
<g id="edge2" class="edge">
<title>lightning_pinger&#45;&gt;lightning_pinger::config</title>
<path fill="none" stroke="#7f7f7f" stroke-dasharray="5,2" d="M145.49,-1014.56C271.58,-1059.92 579,-1170.5 579,-1170.5 579,-1170.5 888.79,-1396.56 994.01,-1473.33"/>
<polygon fill="#7f7f7f" stroke="#7f7f7f" points="992.25,-1476.38 1002.39,-1479.45 996.38,-1470.73 992.25,-1476.38"/>
<text text-anchor="middle" x="566.5" y="-1162.5" font-family="monospace" font-size="10.00">uses</text>
</g>
<!-- lightning_pinger::pinger -->
<g id="node5" class="node">
<title>lightning_pinger::pinger</title>
<polygon fill="#81c169" stroke="black" points="948,-0.5 948,-38.5 1109,-38.5 1109,-0.5 948,-0.5"/>
<text text-anchor="middle" x="1028.5" y="-26.5" font-family="monospace" font-size="10.00">pub mod</text>
<polyline fill="none" stroke="black" points="948,-19.5 1109,-19.5 "/>
<text text-anchor="middle" x="1028.5" y="-7.5" font-family="monospace" font-size="10.00">lightning_pinger::pinger</text>
</g>
<!-- lightning_pinger&#45;&gt;lightning_pinger::pinger -->
<g id="edge3" class="edge">
<title>lightning_pinger&#45;&gt;lightning_pinger::pinger</title>
<path fill="none" stroke="#000000" d="M143.21,-976.38C263.09,-931.18 554,-821.5 554,-821.5 554,-821.5 928,-189.37 1011.92,-47.52"/>
<polygon fill="#000000" stroke="#000000" points="1015.16,-48.92 1017.24,-38.53 1009.13,-45.36 1015.16,-48.92"/>
<text text-anchor="middle" x="566.5" y="-824.5" font-family="monospace" font-size="10.00">owns</text>
</g>
<!-- lightning_pinger&#45;&gt;lightning_pinger::pinger -->
<g id="edge4" class="edge">
<title>lightning_pinger&#45;&gt;lightning_pinger::pinger</title>
<path fill="none" stroke="#7f7f7f" stroke-dasharray="5,2" d="M119.31,-976.33C217.8,-905.9 554,-665.5 554,-665.5 554,-665.5 917.68,-170.37 1008.26,-47.06"/>
<polygon fill="#7f7f7f" stroke="#7f7f7f" points="1011.2,-48.96 1014.3,-38.83 1005.56,-44.82 1011.2,-48.96"/>
<text text-anchor="middle" x="566.5" y="-668.5" font-family="monospace" font-size="10.00">uses</text>
</g>
<!-- lightning_pinger::pinger&#45;&gt;fdi -->
<g id="edge5" class="edge">
<title>lightning_pinger::pinger&#45;&gt;fdi</title>
<path fill="none" stroke="#7f7f7f" stroke-dasharray="5,2" d="M1022.59,-38.72C968.01,-216.09 554,-1561.5 554,-1561.5 554,-1561.5 237.48,-1344.77 128.7,-1270.29"/>
<polygon fill="#7f7f7f" stroke="#7f7f7f" points="130.56,-1267.32 120.33,-1264.56 126.6,-1273.09 130.56,-1267.32"/>
<text text-anchor="middle" x="566.5" y="-1564.5" font-family="monospace" font-size="10.00">uses</text>
</g>
<!-- lightning_pinger::pinger&#45;&gt;lightning_metrics::histogram -->
<g id="edge6" class="edge">
<title>lightning_pinger::pinger&#45;&gt;lightning_metrics::histogram</title>
<path fill="none" stroke="#7f7f7f" stroke-dasharray="5,2" d="M1009.9,-38.67C922.17,-129.08 554,-508.5 554,-508.5 554,-508.5 331.08,-526.86 195.1,-538.05"/>
<polygon fill="#7f7f7f" stroke="#7f7f7f" points="194.74,-534.57 185.06,-538.88 195.31,-541.55 194.74,-534.57"/>
<text text-anchor="middle" x="566.5" y="-511.5" font-family="monospace" font-size="10.00">uses</text>
</g>
<!-- lightning_pinger::pinger&#45;&gt;lightning_pinger::config -->
<g id="edge7" class="edge">
<title>lightning_pinger::pinger&#45;&gt;lightning_pinger::config</title>
</g>
<!-- lightning_schema -->
<g id="node6" class="node">
<title>lightning_schema</title>
<polygon fill="#5397c8" stroke="black" points="36,-402.5 36,-440.5 149,-440.5 149,-402.5 36,-402.5"/>
<text text-anchor="middle" x="92.5" y="-428.5" font-family="monospace" font-size="10.00">external crate</text>
<polyline fill="none" stroke="black" points="36,-421.5 149,-421.5 "/>
<text text-anchor="middle" x="92.5" y="-409.5" font-family="monospace" font-size="10.00">lightning_schema</text>
</g>
<!-- lightning_pinger::pinger&#45;&gt;lightning_schema -->
<g id="edge8" class="edge">
<title>lightning_pinger::pinger&#45;&gt;lightning_schema</title>
<path fill="none" stroke="#7f7f7f" stroke-dasharray="5,2" d="M1000.94,-38.61C899.67,-108.83 554,-348.5 554,-348.5 554,-348.5 286.98,-390.74 159.16,-410.96"/>
<polygon fill="#7f7f7f" stroke="#7f7f7f" points="158.42,-407.53 149.09,-412.55 159.51,-414.44 158.42,-407.53"/>
<text text-anchor="middle" x="566.5" y="-351.5" font-family="monospace" font-size="10.00">uses</text>
</g>
<!-- lightning_types -->
<g id="node7" class="node">
<title>lightning_types</title>
<polygon fill="#5397c8" stroke="black" points="39,-264.5 39,-302.5 146,-302.5 146,-264.5 39,-264.5"/>
<text text-anchor="middle" x="92.5" y="-290.5" font-family="monospace" font-size="10.00">external crate</text>
<polyline fill="none" stroke="black" points="39,-283.5 146,-283.5 "/>
<text text-anchor="middle" x="92.5" y="-271.5" font-family="monospace" font-size="10.00">lightning_types</text>
</g>
<!-- lightning_pinger::pinger&#45;&gt;lightning_types -->
<g id="edge9" class="edge">
<title>lightning_pinger::pinger&#45;&gt;lightning_types</title>
<path fill="none" stroke="#7f7f7f" stroke-dasharray="5,2" d="M973.61,-38.59C848.7,-82.02 554,-184.5 554,-184.5 554,-184.5 282.96,-242.64 156.31,-269.81"/>
<polygon fill="#7f7f7f" stroke="#7f7f7f" points="155.39,-266.43 146.34,-271.95 156.85,-273.27 155.39,-266.43"/>
<text text-anchor="middle" x="566.5" y="-187.5" font-family="monospace" font-size="10.00">uses</text>
</g>
<!-- tokio::sync::mpsc -->
<g id="node8" class="node">
<title>tokio::sync::mpsc</title>
<polygon fill="#81c169" stroke="black" points="33,-98.5 33,-136.5 152,-136.5 152,-98.5 33,-98.5"/>
<text text-anchor="middle" x="92.5" y="-124.5" font-family="monospace" font-size="10.00">external mod</text>
<polyline fill="none" stroke="black" points="33,-117.5 152,-117.5 "/>
<text text-anchor="middle" x="92.5" y="-105.5" font-family="monospace" font-size="10.00">tokio::sync::mpsc</text>
</g>
<!-- lightning_pinger::pinger&#45;&gt;tokio::sync::mpsc -->
<g id="edge10" class="edge">
<title>lightning_pinger::pinger&#45;&gt;tokio::sync::mpsc</title>
<path fill="none" stroke="#7f7f7f" stroke-dasharray="5,2" d="M947.88,-19.86C818.53,-20.43 579,-21.5 579,-21.5 579,-21.5 296.95,-77.16 162.37,-103.71"/>
<polygon fill="#7f7f7f" stroke="#7f7f7f" points="161.29,-100.36 152.15,-105.73 162.64,-107.23 161.29,-100.36"/>
<text text-anchor="middle" x="566.5" y="-13.5" font-family="monospace" font-size="10.00">uses</text>
</g>
</g>
</svg>
