<?xml version="1.0" encoding="UTF-8" standalone="no"?>
<!DOCTYPE svg PUBLIC "-//W3C//DTD SVG 1.1//EN"
 "http://www.w3.org/Graphics/SVG/1.1/DTD/svg11.dtd">
<!-- Generated by graphviz version 4.0.0 (0)
 -->
<!-- Pages: 1 -->
<svg width="734pt" height="491pt"
 viewBox="0.00 0.00 734.47 490.61" xmlns="http://www.w3.org/2000/svg" xmlns:xlink="http://www.w3.org/1999/xlink">
<g id="graph0" class="graph" transform="scale(1 1) rotate(0) translate(28.8 461.81)">
<polygon fill="white" stroke="transparent" points="-28.8,28.8 -28.8,-461.81 705.67,-461.81 705.67,28.8 -28.8,28.8"/>
<text text-anchor="middle" x="338.44" y="-400.21" font-family="Helvetica,sans-Serif" font-size="36.00">lightning_keystore</text>
<!-- fdi -->
<g id="node1" class="node">
<title>fdi</title>
<polygon fill="#5397c8" stroke="black" points="0,-97.57 0,-135.57 101,-135.57 101,-97.57 0,-97.57"/>
<text text-anchor="middle" x="50.5" y="-123.57" font-family="monospace" font-size="10.00">external crate</text>
<polyline fill="none" stroke="black" points="0,-116.57 101,-116.57 "/>
<text text-anchor="middle" x="50.5" y="-104.57" font-family="monospace" font-size="10.00">fdi</text>
</g>
<!-- lightning_keystore -->
<g id="node2" class="node">
<title>lightning_keystore</title>
<polygon fill="#5397c8" stroke="black" points="551.87,-159.77 551.87,-197.77 676.87,-197.77 676.87,-159.77 551.87,-159.77"/>
<text text-anchor="middle" x="614.37" y="-185.77" font-family="monospace" font-size="10.00">crate</text>
<polyline fill="none" stroke="black" points="551.87,-178.77 676.87,-178.77 "/>
<text text-anchor="middle" x="614.37" y="-166.77" font-family="monospace" font-size="10.00">lightning_keystore</text>
</g>
<!-- lightning_keystore::config -->
<g id="node3" class="node">
<title>lightning_keystore::config</title>
<polygon fill="#f8c04c" stroke="black" points="472.58,-3.45 472.58,-41.45 645.58,-41.45 645.58,-3.45 472.58,-3.45"/>
<text text-anchor="middle" x="559.08" y="-29.45" font-family="monospace" font-size="10.00">pub(crate) mod</text>
<polyline fill="none" stroke="black" points="472.58,-22.45 645.58,-22.45 "/>
<text text-anchor="middle" x="559.08" y="-10.45" font-family="monospace" font-size="10.00">lightning_keystore::config</text>
</g>
<!-- lightning_keystore&#45;&gt;lightning_keystore::config -->
<g id="edge1" class="edge">
<title>lightning_keystore&#45;&gt;lightning_keystore::config</title>
<path fill="none" stroke="#000000" d="M624.73,-159.5C627.22,-131.84 611.92,-81.75 593.34,-50.21"/>
<polygon fill="#000000" stroke="#000000" points="596.08,-48 587.75,-41.46 590.18,-51.77 596.08,-48"/>
<text text-anchor="middle" x="596.53" y="-107.86" font-family="monospace" font-size="10.00">owns</text>
</g>
<!-- lightning_keystore&#45;&gt;lightning_keystore::config -->
<g id="edge2" class="edge">
<title>lightning_keystore&#45;&gt;lightning_keystore::config</title>
<path fill="none" stroke="#7f7f7f" stroke-dasharray="5,2" d="M585.54,-159.53C566.7,-132.28 549.72,-83.13 548.53,-51.49"/>
<polygon fill="#7f7f7f" stroke="#7f7f7f" points="552.03,-51.56 548.75,-41.49 545.03,-51.41 552.03,-51.56"/>
<text text-anchor="middle" x="554.53" y="-108.51" font-family="monospace" font-size="10.00">uses</text>
</g>
<!-- lightning_keystore::keystore -->
<g id="node4" class="node">
<title>lightning_keystore::keystore</title>
<polygon fill="#f8c04c" stroke="black" points="358.85,-129.49 358.85,-167.49 543.85,-167.49 543.85,-129.49 358.85,-129.49"/>
<text text-anchor="middle" x="451.35" y="-155.49" font-family="monospace" font-size="10.00">pub(crate) mod</text>
<polyline fill="none" stroke="black" points="358.85,-148.49 543.85,-148.49 "/>
<text text-anchor="middle" x="451.35" y="-136.49" font-family="monospace" font-size="10.00">lightning_keystore::keystore</text>
</g>
<!-- lightning_keystore&#45;&gt;lightning_keystore::keystore -->
<g id="edge3" class="edge">
<title>lightning_keystore&#45;&gt;lightning_keystore::keystore</title>
<path fill="none" stroke="#000000" d="M602.06,-159.61C590.85,-151.99 573.24,-145.35 553.94,-140.57"/>
<polygon fill="#000000" stroke="#000000" points="554.56,-137.12 544.03,-138.31 553,-143.95 554.56,-137.12"/>
<text text-anchor="middle" x="565.5" y="-142.09" font-family="monospace" font-size="10.00">owns</text>
</g>
<!-- lightning_keystore&#45;&gt;lightning_keystore::keystore -->
<g id="edge4" class="edge">
<title>lightning_keystore&#45;&gt;lightning_keystore::keystore</title>
<path fill="none" stroke="#7f7f7f" stroke-dasharray="5,2" d="M551.69,-193.54C523.59,-190.84 492.34,-183.01 472.26,-172.69"/>
<polygon fill="#7f7f7f" stroke="#7f7f7f" points="474.01,-169.66 463.61,-167.61 470.46,-175.69 474.01,-169.66"/>
<text text-anchor="middle" x="499.48" y="-186.11" font-family="monospace" font-size="10.00">uses</text>
</g>
<!-- lightning_keystore::keystore&#45;&gt;fdi -->
<g id="edge5" class="edge">
<title>lightning_keystore::keystore&#45;&gt;fdi</title>
<path fill="none" stroke="#7f7f7f" stroke-dasharray="5,2" d="M358.63,-141.11C282.58,-135.05 177.08,-126.65 111.35,-121.41"/>
<polygon fill="#7f7f7f" stroke="#7f7f7f" points="111.4,-117.91 101.16,-120.6 110.85,-124.89 111.4,-117.91"/>
<text text-anchor="middle" x="222.49" y="-134.26" font-family="monospace" font-size="10.00">uses</text>
</g>
<!-- lightning_keystore::keystore&#45;&gt;lightning_keystore::config -->
<g id="edge6" class="edge">
<title>lightning_keystore::keystore&#45;&gt;lightning_keystore::config</title>
<path fill="none" stroke="#7f7f7f" stroke-dasharray="5,2" d="M467.72,-129.35C485.91,-108.06 515.43,-73.52 535.97,-49.49"/>
<polygon fill="#7f7f7f" stroke="#7f7f7f" points="538.73,-51.65 542.57,-41.77 533.41,-47.1 538.73,-51.65"/>
<text text-anchor="middle" x="489.35" y="-92.42" font-family="monospace" font-size="10.00">uses</text>
</g>
<!-- lightning_schema -->
<g id="node5" class="node">
<title>lightning_schema</title>
<polygon fill="#5397c8" stroke="black" points="331.1,-346.51 331.1,-384.51 444.1,-384.51 444.1,-346.51 331.1,-346.51"/>
<text text-anchor="middle" x="387.6" y="-372.51" font-family="monospace" font-size="10.00">external crate</text>
<polyline fill="none" stroke="black" points="331.1,-365.51 444.1,-365.51 "/>
<text text-anchor="middle" x="387.6" y="-353.51" font-family="monospace" font-size="10.00">lightning_schema</text>
</g>
<!-- lightning_keystore::keystore&#45;&gt;lightning_schema -->
<g id="edge7" class="edge">
<title>lightning_keystore::keystore&#45;&gt;lightning_schema</title>
<path fill="none" stroke="#7f7f7f" stroke-dasharray="5,2" d="M445.7,-167.75C434.47,-205.96 409.33,-291.53 396.1,-336.55"/>
<polygon fill="#7f7f7f" stroke="#7f7f7f" points="392.7,-335.71 393.24,-346.3 399.42,-337.69 392.7,-335.71"/>
<text text-anchor="middle" x="408.4" y="-255.15" font-family="monospace" font-size="10.00">uses</text>
</g>
<!-- lightning_types -->
<g id="node6" class="node">
<title>lightning_types</title>
<polygon fill="#5397c8" stroke="black" points="212.02,-194.87 212.02,-232.87 319.02,-232.87 319.02,-194.87 212.02,-194.87"/>
<text text-anchor="middle" x="265.52" y="-220.87" font-family="monospace" font-size="10.00">external crate</text>
<polyline fill="none" stroke="black" points="212.02,-213.87 319.02,-213.87 "/>
<text text-anchor="middle" x="265.52" y="-201.87" font-family="monospace" font-size="10.00">lightning_types</text>
</g>
<!-- lightning_keystore::keystore&#45;&gt;lightning_types -->
<g id="edge8" class="edge">
<title>lightning_keystore::keystore&#45;&gt;lightning_types</title>
<path fill="none" stroke="#7f7f7f" stroke-dasharray="5,2" d="M397.1,-167.57C375.73,-175.09 351.04,-183.78 328.86,-191.58"/>
<polygon fill="#7f7f7f" stroke="#7f7f7f" points="327.47,-188.36 319.19,-194.98 329.79,-194.97 327.47,-188.36"/>
<text text-anchor="middle" x="350.48" y="-182.58" font-family="monospace" font-size="10.00">uses</text>
</g>
<!-- std::fs -->
<g id="node7" class="node">
<title>std::fs</title>
<polygon fill="#81c169" stroke="black" points="220.94,-0.5 220.94,-38.5 309.94,-38.5 309.94,-0.5 220.94,-0.5"/>
<text text-anchor="middle" x="265.44" y="-26.5" font-family="monospace" font-size="10.00">external mod</text>
<polyline fill="none" stroke="black" points="220.94,-19.5 309.94,-19.5 "/>
<text text-anchor="middle" x="265.44" y="-7.5" font-family="monospace" font-size="10.00">std::fs</text>
</g>
<!-- lightning_keystore::keystore&#45;&gt;std::fs -->
<g id="edge9" class="edge">
<title>lightning_keystore::keystore&#45;&gt;std::fs</title>
<path fill="none" stroke="#7f7f7f" stroke-dasharray="5,2" d="M423.92,-129.46C391.38,-106.88 337.04,-69.18 301.22,-44.33"/>
<polygon fill="#7f7f7f" stroke="#7f7f7f" points="303.19,-41.44 292.98,-38.61 299.2,-47.19 303.19,-41.44"/>
<text text-anchor="middle" x="350.07" y="-89.89" font-family="monospace" font-size="10.00">uses</text>
</g>
</g>
</svg>
