<?xml version="1.0" encoding="UTF-8" standalone="no"?>
<!DOCTYPE svg PUBLIC "-//W3C//DTD SVG 1.1//EN"
 "http://www.w3.org/Graphics/SVG/1.1/DTD/svg11.dtd">
<!-- Generated by graphviz version 4.0.0 (0)
 -->
<!-- Pages: 1 -->
<svg width="526pt" height="510pt"
 viewBox="0.00 0.00 526.13 510.10" xmlns="http://www.w3.org/2000/svg" xmlns:xlink="http://www.w3.org/1999/xlink">
<g id="graph0" class="graph" transform="scale(1 1) rotate(0) translate(28.8 481.3)">
<polygon fill="white" stroke="transparent" points="-28.8,28.8 -28.8,-481.3 497.33,-481.3 497.33,28.8 -28.8,28.8"/>
<text text-anchor="middle" x="234.27" y="-419.7" font-family="Helvetica,sans-Serif" font-size="36.00">lightning_syncronizer</text>
<!-- fdi -->
<g id="node1" class="node">
<title>fdi</title>
<polygon fill="#5397c8" stroke="black" points="6,-366 6,-404 107,-404 107,-366 6,-366"/>
<text text-anchor="middle" x="56.5" y="-392" font-family="monospace" font-size="10.00">external crate</text>
<polyline fill="none" stroke="black" points="6,-385 107,-385 "/>
<text text-anchor="middle" x="56.5" y="-373" font-family="monospace" font-size="10.00">fdi</text>
</g>
<!-- lightning_schema -->
<g id="node2" class="node">
<title>lightning_schema</title>
<polygon fill="#5397c8" stroke="black" points="0,-122.33 0,-160.33 113,-160.33 113,-122.33 0,-122.33"/>
<text text-anchor="middle" x="56.5" y="-148.33" font-family="monospace" font-size="10.00">external crate</text>
<polyline fill="none" stroke="black" points="0,-141.33 113,-141.33 "/>
<text text-anchor="middle" x="56.5" y="-129.33" font-family="monospace" font-size="10.00">lightning_schema</text>
</g>
<!-- lightning_syncronizer -->
<g id="node3" class="node">
<title>lightning_syncronizer</title>
<polygon fill="#5397c8" stroke="black" points="196.02,-244.17 196.02,-282.17 339.02,-282.17 339.02,-244.17 196.02,-244.17"/>
<text text-anchor="middle" x="267.52" y="-270.17" font-family="monospace" font-size="10.00">crate</text>
<polyline fill="none" stroke="black" points="196.02,-263.17 339.02,-263.17 "/>
<text text-anchor="middle" x="267.52" y="-251.17" font-family="monospace" font-size="10.00">lightning_syncronizer</text>
</g>
<!-- lightning_syncronizer::config -->
<g id="node4" class="node">
<title>lightning_syncronizer::config</title>
<polygon fill="#81c169" stroke="black" points="277.53,-305.08 277.53,-343.08 468.53,-343.08 468.53,-305.08 277.53,-305.08"/>
<text text-anchor="middle" x="373.03" y="-331.08" font-family="monospace" font-size="10.00">pub mod</text>
<polyline fill="none" stroke="black" points="277.53,-324.08 468.53,-324.08 "/>
<text text-anchor="middle" x="373.03" y="-312.08" font-family="monospace" font-size="10.00">lightning_syncronizer::config</text>
</g>
<!-- lightning_syncronizer&#45;&gt;lightning_syncronizer::config -->
<g id="edge1" class="edge">
<title>lightning_syncronizer&#45;&gt;lightning_syncronizer::config</title>
<path fill="none" stroke="#000000" d="M300.62,-282.27C310.34,-287.89 321.1,-294.1 331.29,-299.98"/>
<polygon fill="#000000" stroke="#000000" points="329.64,-303.07 340.05,-305.04 333.14,-297.01 329.64,-303.07"/>
<text text-anchor="middle" x="303.45" y="-294.13" font-family="monospace" font-size="10.00">owns</text>
</g>
<!-- lightning_syncronizer::rpc -->
<g id="node5" class="node">
<title>lightning_syncronizer::rpc</title>
<polygon fill="#81c169" stroke="black" points="181.02,-366 181.02,-404 354.02,-404 354.02,-366 181.02,-366"/>
<text text-anchor="middle" x="267.52" y="-392" font-family="monospace" font-size="10.00">pub mod</text>
<polyline fill="none" stroke="black" points="181.02,-385 354.02,-385 "/>
<text text-anchor="middle" x="267.52" y="-373" font-family="monospace" font-size="10.00">lightning_syncronizer::rpc</text>
</g>
<!-- lightning_syncronizer&#45;&gt;lightning_syncronizer::rpc -->
<g id="edge2" class="edge">
<title>lightning_syncronizer&#45;&gt;lightning_syncronizer::rpc</title>
<path fill="none" stroke="#000000" d="M267.52,-282.2C267.52,-301.85 267.52,-332.75 267.52,-355.55"/>
<polygon fill="#000000" stroke="#000000" points="264.02,-355.69 267.52,-365.69 271.02,-355.69 264.02,-355.69"/>
<text text-anchor="middle" x="255.02" y="-321.88" font-family="monospace" font-size="10.00">owns</text>
</g>
<!-- lightning_syncronizer::syncronizer -->
<g id="node6" class="node">
<title>lightning_syncronizer::syncronizer</title>
<polygon fill="#81c169" stroke="black" points="51.51,-183.25 51.51,-221.25 272.51,-221.25 272.51,-183.25 51.51,-183.25"/>
<text text-anchor="middle" x="162.01" y="-209.25" font-family="monospace" font-size="10.00">pub mod</text>
<polyline fill="none" stroke="black" points="51.51,-202.25 272.51,-202.25 "/>
<text text-anchor="middle" x="162.01" y="-190.25" font-family="monospace" font-size="10.00">lightning_syncronizer::syncronizer</text>
</g>
<!-- lightning_syncronizer&#45;&gt;lightning_syncronizer::syncronizer -->
<g id="edge3" class="edge">
<title>lightning_syncronizer&#45;&gt;lightning_syncronizer::syncronizer</title>
<path fill="none" stroke="#000000" d="M234.43,-244.06C224.7,-238.45 213.94,-232.23 203.75,-226.35"/>
<polygon fill="#000000" stroke="#000000" points="205.4,-223.26 194.99,-221.29 201.9,-229.32 205.4,-223.26"/>
<text text-anchor="middle" x="206.59" y="-227.2" font-family="monospace" font-size="10.00">owns</text>
</g>
<!-- lightning_syncronizer::utils -->
<g id="node7" class="node">
<title>lightning_syncronizer::utils</title>
<polygon fill="#f8c04c" stroke="black" points="280.53,-183.25 280.53,-221.25 465.53,-221.25 465.53,-183.25 280.53,-183.25"/>
<text text-anchor="middle" x="373.03" y="-209.25" font-family="monospace" font-size="10.00">pub(crate) mod</text>
<polyline fill="none" stroke="black" points="280.53,-202.25 465.53,-202.25 "/>
<text text-anchor="middle" x="373.03" y="-190.25" font-family="monospace" font-size="10.00">lightning_syncronizer::utils</text>
</g>
<!-- lightning_syncronizer&#45;&gt;lightning_syncronizer::utils -->
<g id="edge4" class="edge">
<title>lightning_syncronizer&#45;&gt;lightning_syncronizer::utils</title>
<path fill="none" stroke="#000000" d="M300.62,-244.06C310.34,-238.45 321.1,-232.23 331.29,-226.35"/>
<polygon fill="#000000" stroke="#000000" points="333.14,-229.32 340.05,-221.29 329.64,-223.26 333.14,-229.32"/>
<text text-anchor="middle" x="303.45" y="-227.2" font-family="monospace" font-size="10.00">owns</text>
</g>
<!-- lightning_syncronizer::syncronizer&#45;&gt;fdi -->
<g id="edge5" class="edge">
<title>lightning_syncronizer::syncronizer&#45;&gt;fdi</title>
<path fill="none" stroke="#7f7f7f" stroke-dasharray="5,2" d="M150.92,-221.46C132.24,-253.82 94.42,-319.32 72.74,-356.86"/>
<polygon fill="#7f7f7f" stroke="#7f7f7f" points="69.57,-355.36 67.6,-365.77 75.63,-358.86 69.57,-355.36"/>
<text text-anchor="middle" x="99.33" y="-292.16" font-family="monospace" font-size="10.00">uses</text>
</g>
<!-- lightning_syncronizer::syncronizer&#45;&gt;lightning_schema -->
<g id="edge6" class="edge">
<title>lightning_syncronizer::syncronizer&#45;&gt;lightning_schema</title>
<path fill="none" stroke="#7f7f7f" stroke-dasharray="5,2" d="M128.92,-183.14C119.19,-177.53 108.43,-171.32 98.24,-165.43"/>
<polygon fill="#7f7f7f" stroke="#7f7f7f" points="99.89,-162.34 89.48,-160.37 96.39,-168.4 99.89,-162.34"/>
<text text-anchor="middle" x="101.08" y="-166.29" font-family="monospace" font-size="10.00">uses</text>
</g>
<!-- lightning_syncronizer::syncronizer&#45;&gt;lightning_syncronizer::config -->
<g id="edge7" class="edge">
<title>lightning_syncronizer::syncronizer&#45;&gt;lightning_syncronizer::config</title>
<path fill="none" stroke="#7f7f7f" stroke-dasharray="5,2" d="M194.98,-221.29C231.73,-242.5 291.23,-276.86 331.22,-299.94"/>
<polygon fill="#7f7f7f" stroke="#7f7f7f" points="329.53,-303.01 339.94,-304.98 333.03,-296.95 329.53,-303.01"/>
<text text-anchor="middle" x="250.6" y="-263.62" font-family="monospace" font-size="10.00">uses</text>
</g>
<!-- lightning_syncronizer::syncronizer&#45;&gt;lightning_syncronizer::rpc -->
<g id="edge8" class="edge">
<title>lightning_syncronizer::syncronizer&#45;&gt;lightning_syncronizer::rpc</title>
<path fill="none" stroke="#7f7f7f" stroke-dasharray="5,2" d="M173.1,-221.46C191.78,-253.82 229.6,-319.32 251.28,-356.86"/>
<polygon fill="#7f7f7f" stroke="#7f7f7f" points="248.39,-358.86 256.42,-365.77 254.45,-355.36 248.39,-358.86"/>
<text text-anchor="middle" x="199.69" y="-292.16" font-family="monospace" font-size="10.00">uses</text>
</g>
<!-- lightning_syncronizer::syncronizer&#45;&gt;lightning_syncronizer::utils -->
<g id="edge9" class="edge">
<title>lightning_syncronizer::syncronizer&#45;&gt;lightning_syncronizer::utils</title>
<path fill="none" stroke="#7f7f7f" stroke-dasharray="5,2" d="M272.77,-202.25C272.94,-202.25 273.1,-202.25 273.26,-202.25"/>
<polygon fill="#7f7f7f" stroke="#7f7f7f" points="270.52,-205.75 280.52,-202.25 270.52,-198.75 270.52,-205.75"/>
<text text-anchor="middle" x="273.02" y="-194.25" font-family="monospace" font-size="10.00">uses</text>
</g>
<!-- lightning_types -->
<g id="node8" class="node">
<title>lightning_types</title>
<polygon fill="#5397c8" stroke="black" points="214.02,-0.5 214.02,-38.5 321.02,-38.5 321.02,-0.5 214.02,-0.5"/>
<text text-anchor="middle" x="267.52" y="-26.5" font-family="monospace" font-size="10.00">external crate</text>
<polyline fill="none" stroke="black" points="214.02,-19.5 321.02,-19.5 "/>
<text text-anchor="middle" x="267.52" y="-7.5" font-family="monospace" font-size="10.00">lightning_types</text>
</g>
<!-- lightning_syncronizer::syncronizer&#45;&gt;lightning_types -->
<g id="edge10" class="edge">
<title>lightning_syncronizer::syncronizer&#45;&gt;lightning_types</title>
<path fill="none" stroke="#7f7f7f" stroke-dasharray="5,2" d="M173.1,-183.04C191.78,-150.68 229.6,-85.18 251.28,-47.63"/>
<polygon fill="#7f7f7f" stroke="#7f7f7f" points="254.45,-49.14 256.42,-38.73 248.39,-45.64 254.45,-49.14"/>
<text text-anchor="middle" x="199.69" y="-118.34" font-family="monospace" font-size="10.00">uses</text>
</g>
<!-- lightning_syncronizer::utils&#45;&gt;lightning_syncronizer::rpc -->
<g id="edge11" class="edge">
<title>lightning_syncronizer::utils&#45;&gt;lightning_syncronizer::rpc</title>
<path fill="none" stroke="#7f7f7f" stroke-dasharray="5,2" d="M361.94,-221.46C343.26,-253.82 305.44,-319.32 283.76,-356.86"/>
<polygon fill="#7f7f7f" stroke="#7f7f7f" points="280.59,-355.36 278.62,-365.77 286.65,-358.86 280.59,-355.36"/>
<text text-anchor="middle" x="335.35" y="-292.16" font-family="monospace" font-size="10.00">uses</text>
</g>
</g>
</svg>
