<?xml version="1.0" encoding="UTF-8" standalone="no"?>
<!DOCTYPE svg PUBLIC "-//W3C//DTD SVG 1.1//EN"
 "http://www.w3.org/Graphics/SVG/1.1/DTD/svg11.dtd">
<!-- Generated by graphviz version 4.0.0 (0)
 -->
<!-- Pages: 1 -->
<svg width="852pt" height="619pt"
 viewBox="0.00 0.00 852.12 619.32" xmlns="http://www.w3.org/2000/svg" xmlns:xlink="http://www.w3.org/1999/xlink">
<g id="graph0" class="graph" transform="scale(1 1) rotate(0) translate(28.8 590.52)">
<polygon fill="white" stroke="transparent" points="-28.8,28.8 -28.8,-590.52 823.32,-590.52 823.32,28.8 -28.8,28.8"/>
<text text-anchor="middle" x="397.26" y="-528.92" font-family="Helvetica,sans-Serif" font-size="36.00">lightning_fetcher</text>
<!-- fdi -->
<g id="node1" class="node">
<title>fdi</title>
<polygon fill="#5397c8" stroke="black" points="447.12,-392.78 447.12,-430.78 548.12,-430.78 548.12,-392.78 447.12,-392.78"/>
<text text-anchor="middle" x="497.62" y="-418.78" font-family="monospace" font-size="10.00">external crate</text>
<polyline fill="none" stroke="black" points="447.12,-411.78 548.12,-411.78 "/>
<text text-anchor="middle" x="497.62" y="-399.78" font-family="monospace" font-size="10.00">fdi</text>
</g>
<!-- lightning_fetcher -->
<g id="node2" class="node">
<title>lightning_fetcher</title>
<polygon fill="#5397c8" stroke="black" points="132.98,-29.13 132.98,-67.13 251.98,-67.13 251.98,-29.13 132.98,-29.13"/>
<text text-anchor="middle" x="192.48" y="-55.13" font-family="monospace" font-size="10.00">crate</text>
<polyline fill="none" stroke="black" points="132.98,-48.13 251.98,-48.13 "/>
<text text-anchor="middle" x="192.48" y="-36.13" font-family="monospace" font-size="10.00">lightning_fetcher</text>
</g>
<!-- lightning_fetcher::config -->
<g id="node3" class="node">
<title>lightning_fetcher::config</title>
<polygon fill="#81c169" stroke="black" points="271.34,-0.5 271.34,-38.5 438.34,-38.5 438.34,-0.5 271.34,-0.5"/>
<text text-anchor="middle" x="354.84" y="-26.5" font-family="monospace" font-size="10.00">pub mod</text>
<polyline fill="none" stroke="black" points="271.34,-19.5 438.34,-19.5 "/>
<text text-anchor="middle" x="354.84" y="-7.5" font-family="monospace" font-size="10.00">lightning_fetcher::config</text>
</g>
<!-- lightning_fetcher&#45;&gt;lightning_fetcher::config -->
<g id="edge1" class="edge">
<title>lightning_fetcher&#45;&gt;lightning_fetcher::config</title>
<path fill="none" stroke="#000000" d="M252.01,-37.63C255.04,-37.1 258.1,-36.56 261.2,-36.01"/>
<polygon fill="#000000" stroke="#000000" points="261.9,-39.44 271.14,-34.26 260.68,-32.55 261.9,-39.44"/>
<text text-anchor="middle" x="269.1" y="-39.82" font-family="monospace" font-size="10.00">owns</text>
</g>
<!-- lightning_fetcher::fetcher -->
<g id="node4" class="node">
<title>lightning_fetcher::fetcher</title>
<polygon fill="#81c169" stroke="black" points="0,-155.43 0,-193.43 173,-193.43 173,-155.43 0,-155.43"/>
<text text-anchor="middle" x="86.5" y="-181.43" font-family="monospace" font-size="10.00">pub mod</text>
<polyline fill="none" stroke="black" points="0,-174.43 173,-174.43 "/>
<text text-anchor="middle" x="86.5" y="-162.43" font-family="monospace" font-size="10.00">lightning_fetcher::fetcher</text>
</g>
<!-- lightning_fetcher&#45;&gt;lightning_fetcher::fetcher -->
<g id="edge2" class="edge">
<title>lightning_fetcher&#45;&gt;lightning_fetcher::fetcher</title>
<path fill="none" stroke="#000000" d="M176.38,-67.31C158.48,-88.64 129.44,-123.25 109.23,-147.33"/>
<polygon fill="#000000" stroke="#000000" points="106.49,-145.15 102.75,-155.06 111.86,-149.65 106.49,-145.15"/>
<text text-anchor="middle" x="130.31" y="-110.32" font-family="monospace" font-size="10.00">owns</text>
</g>
<!-- lightning_fetcher::origin -->
<g id="node5" class="node">
<title>lightning_fetcher::origin</title>
<polygon fill="#f8c04c" stroke="black" points="470.51,-237.86 470.51,-275.86 637.51,-275.86 637.51,-237.86 470.51,-237.86"/>
<text text-anchor="middle" x="554.01" y="-263.86" font-family="monospace" font-size="10.00">pub(crate) mod</text>
<polyline fill="none" stroke="black" points="470.51,-256.86 637.51,-256.86 "/>
<text text-anchor="middle" x="554.01" y="-244.86" font-family="monospace" font-size="10.00">lightning_fetcher::origin</text>
</g>
<!-- lightning_fetcher&#45;&gt;lightning_fetcher::origin -->
<g id="edge3" class="edge">
<title>lightning_fetcher&#45;&gt;lightning_fetcher::origin</title>
<path fill="none" stroke="#000000" d="M225.52,-67.21C291.46,-105.28 439.3,-190.63 512.01,-232.61"/>
<polygon fill="#000000" stroke="#000000" points="510.5,-235.78 520.91,-237.75 514,-229.72 510.5,-235.78"/>
<text text-anchor="middle" x="356.26" y="-152.91" font-family="monospace" font-size="10.00">owns</text>
</g>
<!-- lightning_fetcher::fetcher&#45;&gt;fdi -->
<g id="edge4" class="edge">
<title>lightning_fetcher::fetcher&#45;&gt;fdi</title>
<path fill="none" stroke="#7f7f7f" stroke-dasharray="5,2" d="M119.45,-193.45C193.57,-236.24 373.36,-340.05 455.47,-387.45"/>
<polygon fill="#7f7f7f" stroke="#7f7f7f" points="454.1,-390.7 464.51,-392.67 457.6,-384.64 454.1,-390.7"/>
<text text-anchor="middle" x="274.96" y="-293.45" font-family="monospace" font-size="10.00">uses</text>
</g>
<!-- lightning_fetcher::fetcher&#45;&gt;lightning_fetcher::config -->
<g id="edge5" class="edge">
<title>lightning_fetcher::fetcher&#45;&gt;lightning_fetcher::config</title>
<path fill="none" stroke="#7f7f7f" stroke-dasharray="5,2" d="M119.67,-155.27C168.45,-127.11 259.51,-74.54 312.87,-43.73"/>
<polygon fill="#7f7f7f" stroke="#7f7f7f" points="314.83,-46.64 321.74,-38.61 311.33,-40.58 314.83,-46.64"/>
<text text-anchor="middle" x="203.77" y="-102.5" font-family="monospace" font-size="10.00">uses</text>
</g>
<!-- lightning_fetcher::fetcher&#45;&gt;lightning_fetcher::origin -->
<g id="edge6" class="edge">
<title>lightning_fetcher::fetcher&#45;&gt;lightning_fetcher::origin</title>
<path fill="none" stroke="#7f7f7f" stroke-dasharray="5,2" d="M113.66,-193.45C179.85,-219.46 351.7,-252.4 460.12,-262.47"/>
<polygon fill="#7f7f7f" stroke="#7f7f7f" points="460.14,-265.98 470.41,-263.37 460.75,-259.01 460.14,-265.98"/>
<text text-anchor="middle" x="274.39" y="-230.96" font-family="monospace" font-size="10.00">uses</text>
</g>
<!-- lightning_schema -->
<g id="node6" class="node">
<title>lightning_schema</title>
<polygon fill="#5397c8" stroke="black" points="441.12,-82.93 441.12,-120.93 554.12,-120.93 554.12,-82.93 441.12,-82.93"/>
<text text-anchor="middle" x="497.62" y="-108.93" font-family="monospace" font-size="10.00">external crate</text>
<polyline fill="none" stroke="black" points="441.12,-101.93 554.12,-101.93 "/>
<text text-anchor="middle" x="497.62" y="-89.93" font-family="monospace" font-size="10.00">lightning_schema</text>
</g>
<!-- lightning_fetcher::fetcher&#45;&gt;lightning_schema -->
<g id="edge7" class="edge">
<title>lightning_fetcher::fetcher&#45;&gt;lightning_schema</title>
<path fill="none" stroke="#7f7f7f" stroke-dasharray="5,2" d="M173.19,-159.14C250.09,-145.58 360.82,-126.06 430.97,-113.69"/>
<polygon fill="#7f7f7f" stroke="#7f7f7f" points="431.78,-117.1 441.02,-111.91 430.56,-110.2 431.78,-117.1"/>
<text text-anchor="middle" x="289.58" y="-139.41" font-family="monospace" font-size="10.00">uses</text>
</g>
<!-- lightning_types -->
<g id="node7" class="node">
<title>lightning_types</title>
<polygon fill="#5397c8" stroke="black" points="33,-320.29 33,-358.29 140,-358.29 140,-320.29 33,-320.29"/>
<text text-anchor="middle" x="86.5" y="-346.29" font-family="monospace" font-size="10.00">external crate</text>
<polyline fill="none" stroke="black" points="33,-339.29 140,-339.29 "/>
<text text-anchor="middle" x="86.5" y="-327.29" font-family="monospace" font-size="10.00">lightning_types</text>
</g>
<!-- lightning_fetcher::fetcher&#45;&gt;lightning_types -->
<g id="edge8" class="edge">
<title>lightning_fetcher::fetcher&#45;&gt;lightning_types</title>
<path fill="none" stroke="#7f7f7f" stroke-dasharray="5,2" d="M86.5,-193.66C86.5,-222.33 86.5,-276.47 86.5,-310.06"/>
<polygon fill="#7f7f7f" stroke="#7f7f7f" points="83,-310.18 86.5,-320.18 90,-310.18 83,-310.18"/>
<text text-anchor="middle" x="74" y="-254.86" font-family="monospace" font-size="10.00">uses</text>
</g>
<!-- tokio::sync::mpsc -->
<g id="node9" class="node">
<title>tokio::sync::mpsc</title>
<polygon fill="#81c169" stroke="black" points="132.98,-446.59 132.98,-484.59 251.98,-484.59 251.98,-446.59 132.98,-446.59"/>
<text text-anchor="middle" x="192.48" y="-472.59" font-family="monospace" font-size="10.00">external mod</text>
<polyline fill="none" stroke="black" points="132.98,-465.59 251.98,-465.59 "/>
<text text-anchor="middle" x="192.48" y="-453.59" font-family="monospace" font-size="10.00">tokio::sync::mpsc</text>
</g>
<!-- lightning_fetcher::fetcher&#45;&gt;tokio::sync::mpsc -->
<g id="edge9" class="edge">
<title>lightning_fetcher::fetcher&#45;&gt;tokio::sync::mpsc</title>
<path fill="none" stroke="#7f7f7f" stroke-dasharray="5,2" d="M93.45,-193.53C111.61,-243.4 160.5,-377.75 182.04,-436.93"/>
<polygon fill="#7f7f7f" stroke="#7f7f7f" points="178.79,-438.22 185.5,-446.42 185.36,-435.82 178.79,-438.22"/>
<text text-anchor="middle" x="125.25" y="-307.23" font-family="monospace" font-size="10.00">uses</text>
</g>
<!-- tokio::sync::oneshot -->
<g id="node10" class="node">
<title>tokio::sync::oneshot</title>
<polygon fill="#81c169" stroke="black" points="286.34,-475.22 286.34,-513.22 423.34,-513.22 423.34,-475.22 286.34,-475.22"/>
<text text-anchor="middle" x="354.84" y="-501.22" font-family="monospace" font-size="10.00">external mod</text>
<polyline fill="none" stroke="black" points="286.34,-494.22 423.34,-494.22 "/>
<text text-anchor="middle" x="354.84" y="-482.22" font-family="monospace" font-size="10.00">tokio::sync::oneshot</text>
</g>
<!-- lightning_fetcher::fetcher&#45;&gt;tokio::sync::oneshot -->
<g id="edge10" class="edge">
<title>lightning_fetcher::fetcher&#45;&gt;tokio::sync::oneshot</title>
<path fill="none" stroke="#7f7f7f" stroke-dasharray="5,2" d="M102.48,-193.47C148.05,-247.78 278.75,-403.54 331.92,-466.91"/>
<polygon fill="#7f7f7f" stroke="#7f7f7f" points="329.49,-469.46 338.6,-474.87 334.85,-464.96 329.49,-469.46"/>
<text text-anchor="middle" x="204.7" y="-333.19" font-family="monospace" font-size="10.00">uses</text>
</g>
<!-- lightning_fetcher::origin&#45;&gt;fdi -->
<g id="edge11" class="edge">
<title>lightning_fetcher::origin&#45;&gt;fdi</title>
<path fill="none" stroke="#7f7f7f" stroke-dasharray="5,2" d="M546.98,-276.17C537.18,-303.1 519.33,-352.14 507.99,-383.29"/>
<polygon fill="#7f7f7f" stroke="#7f7f7f" points="504.69,-382.13 504.56,-392.72 511.27,-384.52 504.69,-382.13"/>
<text text-anchor="middle" x="514.99" y="-332.73" font-family="monospace" font-size="10.00">uses</text>
</g>
<!-- lightning_fetcher::origin&#45;&gt;lightning_fetcher::fetcher -->
<g id="edge12" class="edge">
<title>lightning_fetcher::origin&#45;&gt;lightning_fetcher::fetcher</title>
<path fill="none" stroke="#7f7f7f" stroke-dasharray="5,2" d="M526.84,-237.83C461.24,-212.06 291.86,-179.47 183.3,-169.09"/>
<polygon fill="#7f7f7f" stroke="#7f7f7f" points="183.6,-165.6 173.32,-168.18 182.96,-172.57 183.6,-165.6"/>
<text text-anchor="middle" x="342.57" y="-206.46" font-family="monospace" font-size="10.00">uses</text>
</g>
<!-- lightning_fetcher::origin&#45;&gt;lightning_schema -->
<g id="edge13" class="edge">
<title>lightning_fetcher::origin&#45;&gt;lightning_schema</title>
<path fill="none" stroke="#7f7f7f" stroke-dasharray="5,2" d="M546.98,-237.55C537.18,-210.62 519.33,-161.57 507.99,-130.43"/>
<polygon fill="#7f7f7f" stroke="#7f7f7f" points="511.27,-129.2 504.56,-121 504.69,-131.59 511.27,-129.2"/>
<text text-anchor="middle" x="514.99" y="-186.99" font-family="monospace" font-size="10.00">uses</text>
</g>
<!-- lightning_fetcher::origin&#45;&gt;lightning_types -->
<g id="edge14" class="edge">
<title>lightning_fetcher::origin&#45;&gt;lightning_types</title>
<path fill="none" stroke="#7f7f7f" stroke-dasharray="5,2" d="M470.43,-271.6C378.65,-287.78 233.32,-313.4 150.29,-328.05"/>
<polygon fill="#7f7f7f" stroke="#7f7f7f" points="149.47,-324.64 140.23,-329.82 150.68,-331.53 149.47,-324.64"/>
<text text-anchor="middle" x="322.86" y="-302.82" font-family="monospace" font-size="10.00">uses</text>
</g>
<!-- tokio::sync::broadcast -->
<g id="node8" class="node">
<title>tokio::sync::broadcast</title>
<polygon fill="#81c169" stroke="black" points="645.52,-237.86 645.52,-275.86 794.52,-275.86 794.52,-237.86 645.52,-237.86"/>
<text text-anchor="middle" x="720.02" y="-263.86" font-family="monospace" font-size="10.00">external mod</text>
<polyline fill="none" stroke="black" points="645.52,-256.86 794.52,-256.86 "/>
<text text-anchor="middle" x="720.02" y="-244.86" font-family="monospace" font-size="10.00">tokio::sync::broadcast</text>
</g>
<!-- lightning_fetcher::origin&#45;&gt;tokio::sync::broadcast -->
<g id="edge15" class="edge">
<title>lightning_fetcher::origin&#45;&gt;tokio::sync::broadcast</title>
<path fill="none" stroke="#7f7f7f" stroke-dasharray="5,2" d="M637.99,-256.86C638.14,-256.86 638.29,-256.86 638.44,-256.86"/>
<polygon fill="#7f7f7f" stroke="#7f7f7f" points="635.21,-260.36 645.21,-256.86 635.21,-253.36 635.21,-260.36"/>
<text text-anchor="middle" x="638.21" y="-248.86" font-family="monospace" font-size="10.00">uses</text>
</g>
<!-- lightning_fetcher::origin&#45;&gt;tokio::sync::mpsc -->
<g id="edge16" class="edge">
<title>lightning_fetcher::origin&#45;&gt;tokio::sync::mpsc</title>
<path fill="none" stroke="#7f7f7f" stroke-dasharray="5,2" d="M520.97,-275.94C455.02,-314.01 307.18,-399.37 234.47,-441.34"/>
<polygon fill="#7f7f7f" stroke="#7f7f7f" points="232.48,-438.45 225.57,-446.48 235.98,-444.51 232.48,-438.45"/>
<text text-anchor="middle" x="365.22" y="-361.64" font-family="monospace" font-size="10.00">uses</text>
</g>
<!-- lightning_fetcher::origin&#45;&gt;tokio::sync::oneshot -->
<g id="edge17" class="edge">
<title>lightning_fetcher::origin&#45;&gt;tokio::sync::oneshot</title>
<path fill="none" stroke="#7f7f7f" stroke-dasharray="5,2" d="M538.04,-275.88C502.79,-317.9 418.2,-418.71 377.48,-467.23"/>
<polygon fill="#7f7f7f" stroke="#7f7f7f" points="374.62,-465.2 370.88,-475.11 379.99,-469.69 374.62,-465.2"/>
<text text-anchor="middle" x="445.26" y="-374.56" font-family="monospace" font-size="10.00">uses</text>
</g>
</g>
</svg>
