<?xml version="1.0" encoding="UTF-8" standalone="no"?>
<!DOCTYPE svg PUBLIC "-//W3C//DTD SVG 1.1//EN"
 "http://www.w3.org/Graphics/SVG/1.1/DTD/svg11.dtd">
<!-- Generated by graphviz version 4.0.0 (0)
 -->
<!-- Pages: 1 -->
<svg width="1534pt" height="1508pt"
 viewBox="0.00 0.00 1534.14 1508.27" xmlns="http://www.w3.org/2000/svg" xmlns:xlink="http://www.w3.org/1999/xlink">
<g id="graph0" class="graph" transform="scale(1 1) rotate(0) translate(28.8 1479.47)">
<polygon fill="white" stroke="transparent" points="-28.8,28.8 -28.8,-1479.47 1505.34,-1479.47 1505.34,28.8 -28.8,28.8"/>
<text text-anchor="middle" x="738.27" y="-1417.87" font-family="Helvetica,sans-Serif" font-size="36.00">lightning_resolver</text>
<!-- lightning_resolver -->
<g id="node1" class="node">
<title>lightning_resolver</title>
<polygon fill="#5397c8" stroke="black" points="704.58,-660.49 704.58,-698.49 829.58,-698.49 829.58,-660.49 704.58,-660.49"/>
<text text-anchor="middle" x="767.08" y="-686.49" font-family="monospace" font-size="10.00">crate</text>
<polyline fill="none" stroke="black" points="704.58,-679.49 829.58,-679.49 "/>
<text text-anchor="middle" x="767.08" y="-667.49" font-family="monospace" font-size="10.00">lightning_resolver</text>
</g>
<!-- lightning_resolver::config::Config -->
<g id="node2" class="node">
<title>lightning_resolver::config::Config</title>
<polygon fill="#81c169" stroke="black" points="1056.38,-835.14 1056.38,-873.14 1157.38,-873.14 1157.38,-835.14 1056.38,-835.14"/>
<text text-anchor="middle" x="1106.88" y="-861.14" font-family="monospace" font-size="10.00">pub struct</text>
<polyline fill="none" stroke="black" points="1056.38,-854.14 1157.38,-854.14 "/>
<text text-anchor="middle" x="1106.88" y="-842.14" font-family="monospace" font-size="10.00">config::Config</text>
</g>
<!-- lightning_resolver&#45;&gt;lightning_resolver::config::Config -->
<g id="edge1" class="edge">
<title>lightning_resolver&#45;&gt;lightning_resolver::config::Config</title>
<path fill="none" stroke="#000000" d="M777.4,-698.61C818.09,-738.18 963.06,-815.57 1046.73,-845.66"/>
<polygon fill="#000000" stroke="#000000" points="1045.77,-849.03 1056.37,-849.01 1048.07,-842.42 1045.77,-849.03"/>
<text text-anchor="middle" x="899.56" y="-775.13" font-family="monospace" font-size="10.00">owns</text>
</g>
<!-- lightning_resolver&#45;&gt;lightning_resolver::config::Config -->
<g id="edge2" class="edge">
<title>lightning_resolver&#45;&gt;lightning_resolver::config::Config</title>
<path fill="none" stroke="#7f7f7f" stroke-dasharray="5,2" d="M829.83,-688.92C909.17,-717.93 1040.55,-787.48 1088.87,-828.12"/>
<polygon fill="#7f7f7f" stroke="#7f7f7f" points="1086.62,-830.8 1096.4,-834.87 1091.29,-825.59 1086.62,-830.8"/>
<text text-anchor="middle" x="946.85" y="-761.52" font-family="monospace" font-size="10.00">uses</text>
</g>
<!-- lightning_resolver::origin_finder::OriginFinder -->
<g id="node3" class="node">
<title>lightning_resolver::origin_finder::OriginFinder</title>
<polygon fill="#81c169" stroke="black" points="346.54,-462.74 346.54,-500.74 525.54,-500.74 525.54,-462.74 346.54,-462.74"/>
<text text-anchor="middle" x="436.04" y="-488.74" font-family="monospace" font-size="10.00">pub struct</text>
<polyline fill="none" stroke="black" points="346.54,-481.74 525.54,-481.74 "/>
<text text-anchor="middle" x="436.04" y="-469.74" font-family="monospace" font-size="10.00">origin_finder::OriginFinder</text>
</g>
<!-- lightning_resolver&#45;&gt;lightning_resolver::origin_finder::OriginFinder -->
<g id="edge3" class="edge">
<title>lightning_resolver&#45;&gt;lightning_resolver::origin_finder::OriginFinder</title>
<path fill="none" stroke="#000000" d="M758.57,-660.46C724.48,-622.2 603.54,-545.78 519.65,-505.21"/>
<polygon fill="#000000" stroke="#000000" points="520.92,-501.94 510.38,-500.81 517.91,-508.26 520.92,-501.94"/>
<text text-anchor="middle" x="626.61" y="-585.84" font-family="monospace" font-size="10.00">owns</text>
</g>
<!-- lightning_resolver&#45;&gt;lightning_resolver::origin_finder::OriginFinder -->
<g id="edge4" class="edge">
<title>lightning_resolver&#45;&gt;lightning_resolver::origin_finder::OriginFinder</title>
<path fill="none" stroke="#7f7f7f" stroke-dasharray="5,2" d="M704.58,-665.81C626.02,-631.15 496.89,-551.8 451.6,-508.05"/>
<polygon fill="#7f7f7f" stroke="#7f7f7f" points="454.08,-505.58 444.61,-500.83 449.05,-510.45 454.08,-505.58"/>
<text text-anchor="middle" x="565.59" y="-589.93" font-family="monospace" font-size="10.00">uses</text>
</g>
<!-- lightning_resolver::resolver::Resolver -->
<g id="node7" class="node">
<title>lightning_resolver::resolver::Resolver</title>
<polygon fill="#81c169" stroke="black" points="958.9,-362.92 958.9,-400.92 1083.9,-400.92 1083.9,-362.92 958.9,-362.92"/>
<text text-anchor="middle" x="1021.4" y="-388.92" font-family="monospace" font-size="10.00">pub struct</text>
<polyline fill="none" stroke="black" points="958.9,-381.92 1083.9,-381.92 "/>
<text text-anchor="middle" x="1021.4" y="-369.92" font-family="monospace" font-size="10.00">resolver::Resolver</text>
</g>
<!-- lightning_resolver&#45;&gt;lightning_resolver::resolver::Resolver -->
<g id="edge5" class="edge">
<title>lightning_resolver&#45;&gt;lightning_resolver::resolver::Resolver</title>
<path fill="none" stroke="#000000" d="M783.38,-660.43C827.15,-609.21 947.38,-468.54 998.22,-409.05"/>
<polygon fill="#000000" stroke="#000000" points="1001.08,-411.09 1004.92,-401.21 995.76,-406.54 1001.08,-411.09"/>
<text text-anchor="middle" x="878.3" y="-537.74" font-family="monospace" font-size="10.00">owns</text>
</g>
<!-- lightning_resolver::resolver::ResolverInner -->
<g id="node18" class="node">
<title>lightning_resolver::resolver::ResolverInner</title>
<polygon fill="#db5367" stroke="black" points="686.57,-1034.2 686.57,-1072.2 841.57,-1072.2 841.57,-1034.2 686.57,-1034.2"/>
<text text-anchor="middle" x="764.07" y="-1060.2" font-family="monospace" font-size="10.00">pub(self) struct</text>
<polyline fill="none" stroke="black" points="686.57,-1053.2 841.57,-1053.2 "/>
<text text-anchor="middle" x="764.07" y="-1041.2" font-family="monospace" font-size="10.00">resolver::ResolverInner</text>
</g>
<!-- lightning_resolver&#45;&gt;lightning_resolver::resolver::ResolverInner -->
<g id="edge6" class="edge">
<title>lightning_resolver&#45;&gt;lightning_resolver::resolver::ResolverInner</title>
<path fill="none" stroke="#000000" d="M766.93,-698.54C766.44,-759.51 764.9,-950.22 764.31,-1023.81"/>
<polygon fill="#000000" stroke="#000000" points="760.81,-1024.16 764.23,-1034.19 767.81,-1024.22 760.81,-1024.16"/>
<text text-anchor="middle" x="753.12" y="-864.18" font-family="monospace" font-size="10.00">owns</text>
</g>
<!-- lightning_resolver::origin_finder::OriginFinder::hash -->
<g id="node4" class="node">
<title>lightning_resolver::origin_finder::OriginFinder::hash</title>
<polygon fill="#db5367" stroke="black" points="0,-385.45 0,-423.45 215,-423.45 215,-385.45 0,-385.45"/>
<text text-anchor="middle" x="107.5" y="-411.45" font-family="monospace" font-size="10.00">pub(self) fn</text>
<polyline fill="none" stroke="black" points="0,-404.45 215,-404.45 "/>
<text text-anchor="middle" x="107.5" y="-392.45" font-family="monospace" font-size="10.00">origin_finder::OriginFinder::hash</text>
</g>
<!-- lightning_resolver::origin_finder::OriginFinder&#45;&gt;lightning_resolver::origin_finder::OriginFinder::hash -->
<g id="edge7" class="edge">
<title>lightning_resolver::origin_finder::OriginFinder&#45;&gt;lightning_resolver::origin_finder::OriginFinder::hash</title>
<path fill="none" stroke="#000000" d="M417.26,-462.55C380.43,-442.51 296.48,-418.87 225.23,-405.7"/>
<polygon fill="#000000" stroke="#000000" points="225.72,-402.24 215.26,-403.92 224.49,-409.13 225.72,-402.24"/>
<text text-anchor="middle" x="308.75" y="-437.12" font-family="monospace" font-size="10.00">owns</text>
</g>
<!-- lightning_resolver::origin_finder::OriginFinder::next -->
<g id="node5" class="node">
<title>lightning_resolver::origin_finder::OriginFinder::next</title>
<polygon fill="#db5367" stroke="black" points="30.47,-626.15 30.47,-664.15 245.47,-664.15 245.47,-626.15 30.47,-626.15"/>
<text text-anchor="middle" x="137.97" y="-652.15" font-family="monospace" font-size="10.00">pub(self) async fn</text>
<polyline fill="none" stroke="black" points="30.47,-645.15 245.47,-645.15 "/>
<text text-anchor="middle" x="137.97" y="-633.15" font-family="monospace" font-size="10.00">origin_finder::OriginFinder::next</text>
</g>
<!-- lightning_resolver::origin_finder::OriginFinder&#45;&gt;lightning_resolver::origin_finder::OriginFinder::next -->
<g id="edge8" class="edge">
<title>lightning_resolver::origin_finder::OriginFinder&#45;&gt;lightning_resolver::origin_finder::OriginFinder::next</title>
<path fill="none" stroke="#000000" d="M352.18,-500.85C283.37,-531.16 191.78,-584.44 154.31,-618.53"/>
<polygon fill="#000000" stroke="#000000" points="151.47,-616.42 146.77,-625.92 156.36,-621.42 151.47,-616.42"/>
<text text-anchor="middle" x="240.75" y="-562.69" font-family="monospace" font-size="10.00">owns</text>
</g>
<!-- lightning_resolver::origin_finder::OriginFinder::next_sync -->
<g id="node6" class="node">
<title>lightning_resolver::origin_finder::OriginFinder::next_sync</title>
<polygon fill="#db5367" stroke="black" points="101.33,-163.82 101.33,-201.82 346.33,-201.82 346.33,-163.82 101.33,-163.82"/>
<text text-anchor="middle" x="223.83" y="-189.82" font-family="monospace" font-size="10.00">pub(self) fn</text>
<polyline fill="none" stroke="black" points="101.33,-182.82 346.33,-182.82 "/>
<text text-anchor="middle" x="223.83" y="-170.82" font-family="monospace" font-size="10.00">origin_finder::OriginFinder::next_sync</text>
</g>
<!-- lightning_resolver::origin_finder::OriginFinder&#45;&gt;lightning_resolver::origin_finder::OriginFinder::next_sync -->
<g id="edge9" class="edge">
<title>lightning_resolver::origin_finder::OriginFinder&#45;&gt;lightning_resolver::origin_finder::OriginFinder::next_sync</title>
<path fill="none" stroke="#000000" d="M436.69,-462.53C421.14,-409.82 323.86,-268.83 265.22,-209.11"/>
<polygon fill="#000000" stroke="#000000" points="267.49,-206.44 257.91,-201.91 262.58,-211.42 267.49,-206.44"/>
<text text-anchor="middle" x="338.45" y="-338.82" font-family="monospace" font-size="10.00">owns</text>
</g>
<!-- lightning_resolver::origin_finder::OriginFinder::hash&#45;&gt;lightning_resolver::origin_finder::OriginFinder -->
<g id="edge10" class="edge">
<title>lightning_resolver::origin_finder::OriginFinder::hash&#45;&gt;lightning_resolver::origin_finder::OriginFinder</title>
<path fill="none" stroke="#7f7f7f" stroke-dasharray="5,2" d="M126.27,-423.64C166.27,-445.4 261.85,-471.41 336.37,-483.64"/>
<polygon fill="#7f7f7f" stroke="#7f7f7f" points="335.85,-487.1 346.27,-485.2 336.94,-480.18 335.85,-487.1"/>
<text text-anchor="middle" x="218.82" y="-456.64" font-family="monospace" font-size="10.00">uses</text>
</g>
<!-- lightning_resolver::origin_finder::OriginFinder::next&#45;&gt;lightning_resolver::origin_finder::OriginFinder -->
<g id="edge11" class="edge">
<title>lightning_resolver::origin_finder::OriginFinder::next&#45;&gt;lightning_resolver::origin_finder::OriginFinder</title>
<path fill="none" stroke="#7f7f7f" stroke-dasharray="5,2" d="M221.82,-626.03C290.63,-595.72 382.23,-542.44 419.69,-508.35"/>
<polygon fill="#7f7f7f" stroke="#7f7f7f" points="422.54,-510.46 427.23,-500.97 417.64,-505.46 422.54,-510.46"/>
<text text-anchor="middle" x="308.26" y="-570.19" font-family="monospace" font-size="10.00">uses</text>
</g>
<!-- lightning_resolver::origin_finder::OriginFinder::next_sync&#45;&gt;lightning_resolver::origin_finder::OriginFinder -->
<g id="edge12" class="edge">
<title>lightning_resolver::origin_finder::OriginFinder::next_sync&#45;&gt;lightning_resolver::origin_finder::OriginFinder</title>
<path fill="none" stroke="#7f7f7f" stroke-dasharray="5,2" d="M223.18,-202.03C238.72,-254.74 336.01,-395.73 394.65,-455.45"/>
<polygon fill="#7f7f7f" stroke="#7f7f7f" points="392.37,-458.12 401.95,-462.65 397.29,-453.14 392.37,-458.12"/>
<text text-anchor="middle" x="296.41" y="-331.74" font-family="monospace" font-size="10.00">uses</text>
</g>
<!-- lightning_resolver::resolver::Resolver::Config -->
<g id="node8" class="node">
<title>lightning_resolver::resolver::Resolver::Config</title>
<polygon fill="#db5367" stroke="black" points="1159.54,-584.81 1159.54,-622.81 1332.54,-622.81 1332.54,-584.81 1159.54,-584.81"/>
<text text-anchor="middle" x="1246.04" y="-610.81" font-family="monospace" font-size="10.00">pub(self) type</text>
<polyline fill="none" stroke="black" points="1159.54,-603.81 1332.54,-603.81 "/>
<text text-anchor="middle" x="1246.04" y="-591.81" font-family="monospace" font-size="10.00">resolver::Resolver::Config</text>
</g>
<!-- lightning_resolver::resolver::Resolver&#45;&gt;lightning_resolver::resolver::Resolver::Config -->
<g id="edge13" class="edge">
<title>lightning_resolver::resolver::Resolver&#45;&gt;lightning_resolver::resolver::Resolver::Config</title>
<path fill="none" stroke="#000000" d="M1040.95,-401.22C1081.29,-441.07 1173.84,-532.48 1219.53,-577.62"/>
<polygon fill="#000000" stroke="#000000" points="1217.13,-580.17 1226.7,-584.71 1222.05,-575.19 1217.13,-580.17"/>
<text text-anchor="middle" x="1117.74" y="-492.42" font-family="monospace" font-size="10.00">owns</text>
</g>
<!-- lightning_resolver::resolver::Resolver::OriginFinder -->
<g id="node9" class="node">
<title>lightning_resolver::resolver::Resolver::OriginFinder</title>
<polygon fill="#db5367" stroke="black" points="601.61,-338.24 601.61,-376.24 810.61,-376.24 810.61,-338.24 601.61,-338.24"/>
<text text-anchor="middle" x="706.11" y="-364.24" font-family="monospace" font-size="10.00">pub(self) type</text>
<polyline fill="none" stroke="black" points="601.61,-357.24 810.61,-357.24 "/>
<text text-anchor="middle" x="706.11" y="-345.24" font-family="monospace" font-size="10.00">resolver::Resolver::OriginFinder</text>
</g>
<!-- lightning_resolver::resolver::Resolver&#45;&gt;lightning_resolver::resolver::Resolver::OriginFinder -->
<g id="edge14" class="edge">
<title>lightning_resolver::resolver::Resolver&#45;&gt;lightning_resolver::resolver::Resolver::OriginFinder</title>
<path fill="none" stroke="#000000" d="M958.74,-377.01C919.42,-373.93 867.53,-369.87 821.02,-366.23"/>
<polygon fill="#000000" stroke="#000000" points="821.11,-362.73 810.87,-365.44 820.57,-369.71 821.11,-362.73"/>
<text text-anchor="middle" x="877.38" y="-374.62" font-family="monospace" font-size="10.00">owns</text>
</g>
<!-- lightning_resolver::resolver::Resolver::get_blake3_hash -->
<g id="node10" class="node">
<title>lightning_resolver::resolver::Resolver::get_blake3_hash</title>
<polygon fill="#db5367" stroke="black" points="958.68,-0.5 958.68,-38.5 1185.68,-38.5 1185.68,-0.5 958.68,-0.5"/>
<text text-anchor="middle" x="1072.18" y="-26.5" font-family="monospace" font-size="10.00">pub(self) async fn</text>
<polyline fill="none" stroke="black" points="958.68,-19.5 1185.68,-19.5 "/>
<text text-anchor="middle" x="1072.18" y="-7.5" font-family="monospace" font-size="10.00">resolver::Resolver::get_blake3_hash</text>
</g>
<!-- lightning_resolver::resolver::Resolver&#45;&gt;lightning_resolver::resolver::Resolver::get_blake3_hash -->
<g id="edge15" class="edge">
<title>lightning_resolver::resolver::Resolver&#45;&gt;lightning_resolver::resolver::Resolver::get_blake3_hash</title>
<path fill="none" stroke="#000000" d="M1037.73,-362.74C1063.69,-303.08 1089.77,-120.85 1083.33,-49.01"/>
<polygon fill="#000000" stroke="#000000" points="1086.77,-48.35 1082.08,-38.85 1079.83,-49.2 1086.77,-48.35"/>
<text text-anchor="middle" x="1048.03" y="-208.87" font-family="monospace" font-size="10.00">owns</text>
</g>
<!-- lightning_resolver::resolver::Resolver::get_origin_finder -->
<g id="node11" class="node">
<title>lightning_resolver::resolver::Resolver::get_origin_finder</title>
<polygon fill="#db5367" stroke="black" points="556.1,-209.28 556.1,-247.28 795.1,-247.28 795.1,-209.28 556.1,-209.28"/>
<text text-anchor="middle" x="675.6" y="-235.28" font-family="monospace" font-size="10.00">pub(self) fn</text>
<polyline fill="none" stroke="black" points="556.1,-228.28 795.1,-228.28 "/>
<text text-anchor="middle" x="675.6" y="-216.28" font-family="monospace" font-size="10.00">resolver::Resolver::get_origin_finder</text>
</g>
<!-- lightning_resolver::resolver::Resolver&#45;&gt;lightning_resolver::resolver::Resolver::get_origin_finder -->
<g id="edge16" class="edge">
<title>lightning_resolver::resolver::Resolver&#45;&gt;lightning_resolver::resolver::Resolver::get_origin_finder</title>
<path fill="none" stroke="#000000" d="M1009.37,-362.79C973.96,-332.5 870.12,-281.89 787.48,-250.78"/>
<polygon fill="#000000" stroke="#000000" points="788.62,-247.47 778.03,-247.28 786.19,-254.04 788.62,-247.47"/>
<text text-anchor="middle" x="885.93" y="-309.79" font-family="monospace" font-size="10.00">owns</text>
</g>
<!-- lightning_resolver::resolver::Resolver::get_origins -->
<g id="node12" class="node">
<title>lightning_resolver::resolver::Resolver::get_origins</title>
<polygon fill="#db5367" stroke="black" points="747.57,-40.27 747.57,-78.27 950.57,-78.27 950.57,-40.27 747.57,-40.27"/>
<text text-anchor="middle" x="849.07" y="-66.27" font-family="monospace" font-size="10.00">pub(self) fn</text>
<polyline fill="none" stroke="black" points="747.57,-59.27 950.57,-59.27 "/>
<text text-anchor="middle" x="849.07" y="-47.27" font-family="monospace" font-size="10.00">resolver::Resolver::get_origins</text>
</g>
<!-- lightning_resolver::resolver::Resolver&#45;&gt;lightning_resolver::resolver::Resolver::get_origins -->
<g id="edge17" class="edge">
<title>lightning_resolver::resolver::Resolver&#45;&gt;lightning_resolver::resolver::Resolver::get_origins</title>
<path fill="none" stroke="#000000" d="M1024.42,-362.49C1015.13,-306.77 933.8,-150.35 883.59,-86.4"/>
<polygon fill="#000000" stroke="#000000" points="886.06,-83.89 877.03,-78.36 880.64,-88.32 886.06,-83.89"/>
<text text-anchor="middle" x="941.51" y="-227.44" font-family="monospace" font-size="10.00">owns</text>
</g>
<!-- lightning_resolver::resolver::Resolver::init -->
<g id="node13" class="node">
<title>lightning_resolver::resolver::Resolver::init</title>
<polygon fill="#db5367" stroke="black" points="865.42,-726.73 865.42,-764.73 1026.42,-764.73 1026.42,-726.73 865.42,-726.73"/>
<text text-anchor="middle" x="945.92" y="-752.73" font-family="monospace" font-size="10.00">pub(self) fn</text>
<polyline fill="none" stroke="black" points="865.42,-745.73 1026.42,-745.73 "/>
<text text-anchor="middle" x="945.92" y="-733.73" font-family="monospace" font-size="10.00">resolver::Resolver::init</text>
</g>
<!-- lightning_resolver::resolver::Resolver&#45;&gt;lightning_resolver::resolver::Resolver::init -->
<g id="edge18" class="edge">
<title>lightning_resolver::resolver::Resolver&#45;&gt;lightning_resolver::resolver::Resolver::init</title>
<path fill="none" stroke="#000000" d="M1003.41,-401.07C973.31,-460.97 934.88,-644.29 936.84,-716.33"/>
<polygon fill="#000000" stroke="#000000" points="933.36,-716.75 937.47,-726.51 940.35,-716.32 933.36,-716.75"/>
<text text-anchor="middle" x="957.63" y="-561.7" font-family="monospace" font-size="10.00">owns</text>
</g>
<!-- lightning_resolver::resolver::Resolver::is_running -->
<g id="node14" class="node">
<title>lightning_resolver::resolver::Resolver::is_running</title>
<polygon fill="#db5367" stroke="black" points="1279.54,-314.53 1279.54,-352.53 1476.54,-352.53 1476.54,-314.53 1279.54,-314.53"/>
<text text-anchor="middle" x="1378.04" y="-340.53" font-family="monospace" font-size="10.00">pub(self) fn</text>
<polyline fill="none" stroke="black" points="1279.54,-333.53 1476.54,-333.53 "/>
<text text-anchor="middle" x="1378.04" y="-321.53" font-family="monospace" font-size="10.00">resolver::Resolver::is_running</text>
</g>
<!-- lightning_resolver::resolver::Resolver&#45;&gt;lightning_resolver::resolver::Resolver::is_running -->
<g id="edge19" class="edge">
<title>lightning_resolver::resolver::Resolver&#45;&gt;lightning_resolver::resolver::Resolver::is_running</title>
<path fill="none" stroke="#000000" d="M1084.3,-394.39C1159.44,-393.54 1282.5,-375.69 1342.69,-355.88"/>
<polygon fill="#000000" stroke="#000000" points="1343.87,-359.17 1352.14,-352.55 1341.54,-352.57 1343.87,-359.17"/>
<text text-anchor="middle" x="1200.99" y="-378.13" font-family="monospace" font-size="10.00">owns</text>
</g>
<!-- lightning_resolver::resolver::Resolver::publish -->
<g id="node15" class="node">
<title>lightning_resolver::resolver::Resolver::publish</title>
<polygon fill="#db5367" stroke="black" points="1297.52,-479.69 1297.52,-517.69 1476.52,-517.69 1476.52,-479.69 1297.52,-479.69"/>
<text text-anchor="middle" x="1387.02" y="-505.69" font-family="monospace" font-size="10.00">pub(self) async fn</text>
<polyline fill="none" stroke="black" points="1297.52,-498.69 1476.52,-498.69 "/>
<text text-anchor="middle" x="1387.02" y="-486.69" font-family="monospace" font-size="10.00">resolver::Resolver::publish</text>
</g>
<!-- lightning_resolver::resolver::Resolver&#45;&gt;lightning_resolver::resolver::Resolver::publish -->
<g id="edge20" class="edge">
<title>lightning_resolver::resolver::Resolver&#45;&gt;lightning_resolver::resolver::Resolver::publish</title>
<path fill="none" stroke="#000000" d="M1037.57,-400.94C1080.7,-429.01 1200.02,-470.83 1287.32,-491.86"/>
<polygon fill="#000000" stroke="#000000" points="1286.73,-495.32 1297.26,-494.2 1288.33,-488.5 1286.73,-495.32"/>
<text text-anchor="middle" x="1149.94" y="-449.4" font-family="monospace" font-size="10.00">owns</text>
</g>
<!-- lightning_resolver::resolver::Resolver::shutdown -->
<g id="node16" class="node">
<title>lightning_resolver::resolver::Resolver::shutdown</title>
<polygon fill="#db5367" stroke="black" points="1218.1,-168.73 1218.1,-206.73 1403.1,-206.73 1403.1,-168.73 1218.1,-168.73"/>
<text text-anchor="middle" x="1310.6" y="-194.73" font-family="monospace" font-size="10.00">pub(self) async fn</text>
<polyline fill="none" stroke="black" points="1218.1,-187.73 1403.1,-187.73 "/>
<text text-anchor="middle" x="1310.6" y="-175.73" font-family="monospace" font-size="10.00">resolver::Resolver::shutdown</text>
</g>
<!-- lightning_resolver::resolver::Resolver&#45;&gt;lightning_resolver::resolver::Resolver::shutdown -->
<g id="edge21" class="edge">
<title>lightning_resolver::resolver::Resolver&#45;&gt;lightning_resolver::resolver::Resolver::shutdown</title>
<path fill="none" stroke="#000000" d="M1084.24,-365.22C1153.65,-330.02 1259.67,-256.35 1297.54,-214.56"/>
<polygon fill="#000000" stroke="#000000" points="1300.23,-216.81 1303.99,-206.9 1294.87,-212.3 1300.23,-216.81"/>
<text text-anchor="middle" x="1178.39" y="-292.89" font-family="monospace" font-size="10.00">owns</text>
</g>
<!-- lightning_resolver::resolver::Resolver::start -->
<g id="node17" class="node">
<title>lightning_resolver::resolver::Resolver::start</title>
<polygon fill="#db5367" stroke="black" points="1108.17,-58.48 1108.17,-96.48 1275.17,-96.48 1275.17,-58.48 1108.17,-58.48"/>
<text text-anchor="middle" x="1191.67" y="-84.48" font-family="monospace" font-size="10.00">pub(self) async fn</text>
<polyline fill="none" stroke="black" points="1108.17,-77.48 1275.17,-77.48 "/>
<text text-anchor="middle" x="1191.67" y="-65.48" font-family="monospace" font-size="10.00">resolver::Resolver::start</text>
</g>
<!-- lightning_resolver::resolver::Resolver&#45;&gt;lightning_resolver::resolver::Resolver::start -->
<g id="edge22" class="edge">
<title>lightning_resolver::resolver::Resolver&#45;&gt;lightning_resolver::resolver::Resolver::start</title>
<path fill="none" stroke="#000000" d="M1050.64,-362.8C1096.93,-310.49 1175.74,-168.63 1192.38,-106.51"/>
<polygon fill="#000000" stroke="#000000" points="1195.83,-107.09 1194.62,-96.56 1189.01,-105.54 1195.83,-107.09"/>
<text text-anchor="middle" x="1109.01" y="-237.66" font-family="monospace" font-size="10.00">owns</text>
</g>
<!-- lightning_resolver::resolver::Resolver::Config&#45;&gt;lightning_resolver::config::Config -->
<g id="edge23" class="edge">
<title>lightning_resolver::resolver::Resolver::Config&#45;&gt;lightning_resolver::config::Config</title>
<path fill="none" stroke="#7f7f7f" stroke-dasharray="5,2" d="M1235.35,-623.03C1210.97,-666.9 1151.13,-774.54 1122.56,-825.93"/>
<polygon fill="#7f7f7f" stroke="#7f7f7f" points="1119.4,-824.41 1117.6,-834.85 1125.52,-827.81 1119.4,-824.41"/>
<text text-anchor="middle" x="1166.46" y="-727.48" font-family="monospace" font-size="10.00">uses</text>
</g>
<!-- lightning_resolver::resolver::Resolver::OriginFinder&#45;&gt;lightning_resolver::origin_finder::OriginFinder -->
<g id="edge24" class="edge">
<title>lightning_resolver::resolver::Resolver::OriginFinder&#45;&gt;lightning_resolver::origin_finder::OriginFinder</title>
<path fill="none" stroke="#7f7f7f" stroke-dasharray="5,2" d="M664.8,-376.28C616.94,-398.34 538.11,-434.68 486.62,-458.42"/>
<polygon fill="#7f7f7f" stroke="#7f7f7f" points="484.96,-455.33 477.34,-462.69 487.89,-461.69 484.96,-455.33"/>
<text text-anchor="middle" x="563.21" y="-420.35" font-family="monospace" font-size="10.00">uses</text>
</g>
<!-- lightning_resolver::resolver::Resolver::get_blake3_hash&#45;&gt;lightning_resolver::resolver::Resolver -->
<g id="edge25" class="edge">
<title>lightning_resolver::resolver::Resolver::get_blake3_hash&#45;&gt;lightning_resolver::resolver::Resolver</title>
<path fill="none" stroke="#7f7f7f" stroke-dasharray="5,2" d="M1055.86,-38.68C1029.9,-98.34 1003.82,-280.57 1010.26,-352.41"/>
<polygon fill="#7f7f7f" stroke="#7f7f7f" points="1006.81,-353.07 1011.51,-362.57 1013.76,-352.21 1006.81,-353.07"/>
<text text-anchor="middle" x="1020.56" y="-198.54" font-family="monospace" font-size="10.00">uses</text>
</g>
<!-- lightning_resolver::resolver::Resolver::get_origin_finder&#45;&gt;lightning_resolver::origin_finder::OriginFinder -->
<g id="edge26" class="edge">
<title>lightning_resolver::resolver::Resolver::get_origin_finder&#45;&gt;lightning_resolver::origin_finder::OriginFinder</title>
<path fill="none" stroke="#7f7f7f" stroke-dasharray="5,2" d="M657.6,-247.33C615.37,-292.01 509.87,-403.63 461.27,-455.04"/>
<polygon fill="#7f7f7f" stroke="#7f7f7f" points="458.58,-452.79 454.25,-462.47 463.66,-457.6 458.58,-452.79"/>
<text text-anchor="middle" x="546.93" y="-354.18" font-family="monospace" font-size="10.00">uses</text>
</g>
<!-- lightning_resolver::resolver::Resolver::get_origin_finder&#45;&gt;lightning_resolver::resolver::Resolver -->
<g id="edge27" class="edge">
<title>lightning_resolver::resolver::Resolver::get_origin_finder&#45;&gt;lightning_resolver::resolver::Resolver</title>
<path fill="none" stroke="#7f7f7f" stroke-dasharray="5,2" d="M687.64,-247.4C729.02,-282.81 863.89,-345.97 949.13,-373.3"/>
<polygon fill="#7f7f7f" stroke="#7f7f7f" points="948.17,-376.67 958.76,-376.3 950.25,-369.98 948.17,-376.67"/>
<text text-anchor="middle" x="805.89" y="-313.35" font-family="monospace" font-size="10.00">uses</text>
</g>
<!-- lightning_resolver::resolver::Resolver::get_origins&#45;&gt;lightning_resolver::resolver::Resolver -->
<g id="edge28" class="edge">
<title>lightning_resolver::resolver::Resolver::get_origins&#45;&gt;lightning_resolver::resolver::Resolver</title>
<path fill="none" stroke="#7f7f7f" stroke-dasharray="5,2" d="M846.06,-78.7C855.34,-134.42 936.68,-290.84 986.88,-354.79"/>
<polygon fill="#7f7f7f" stroke="#7f7f7f" points="984.41,-357.29 993.45,-362.83 989.83,-352.87 984.41,-357.29"/>
<text text-anchor="middle" x="903.97" y="-219.74" font-family="monospace" font-size="10.00">uses</text>
</g>
<!-- lightning_resolver::resolver::Resolver::init&#45;&gt;lightning_resolver::config::Config -->
<g id="edge29" class="edge">
<title>lightning_resolver::resolver::Resolver::init&#45;&gt;lightning_resolver::config::Config</title>
<path fill="none" stroke="#7f7f7f" stroke-dasharray="5,2" d="M974.33,-764.86C1000.91,-782.77 1040.77,-809.62 1069.84,-829.19"/>
<polygon fill="#7f7f7f" stroke="#7f7f7f" points="1068.24,-832.33 1078.49,-835.02 1072.15,-826.53 1068.24,-832.33"/>
<text text-anchor="middle" x="1009.58" y="-800.03" font-family="monospace" font-size="10.00">uses</text>
</g>
<!-- lightning_resolver::resolver::Resolver::init&#45;&gt;lightning_resolver::resolver::Resolver -->
<g id="edge30" class="edge">
<title>lightning_resolver::resolver::Resolver::init&#45;&gt;lightning_resolver::resolver::Resolver</title>
<path fill="none" stroke="#7f7f7f" stroke-dasharray="5,2" d="M963.91,-726.58C994.02,-666.68 1032.44,-483.36 1030.49,-411.32"/>
<polygon fill="#7f7f7f" stroke="#7f7f7f" points="1033.97,-410.9 1029.86,-401.14 1026.98,-411.33 1033.97,-410.9"/>
<text text-anchor="middle" x="984.7" y="-571.95" font-family="monospace" font-size="10.00">uses</text>
</g>
<!-- lightning_resolver::resolver::Resolver::init&#45;&gt;lightning_resolver::resolver::ResolverInner -->
<g id="edge31" class="edge">
<title>lightning_resolver::resolver::Resolver::init&#45;&gt;lightning_resolver::resolver::ResolverInner</title>
<path fill="none" stroke="#7f7f7f" stroke-dasharray="5,2" d="M934.54,-764.96C903.48,-817.48 817.11,-963.52 780.65,-1025.17"/>
<polygon fill="#7f7f7f" stroke="#7f7f7f" points="777.52,-1023.58 775.44,-1033.97 783.55,-1027.14 777.52,-1023.58"/>
<text text-anchor="middle" x="845.1" y="-898.07" font-family="monospace" font-size="10.00">uses</text>
</g>
<!-- lightning_resolver::resolver::Resolver::is_running&#45;&gt;lightning_resolver::resolver::Resolver -->
<g id="edge32" class="edge">
<title>lightning_resolver::resolver::Resolver::is_running&#45;&gt;lightning_resolver::resolver::Resolver</title>
<path fill="none" stroke="#7f7f7f" stroke-dasharray="5,2" d="M1279.21,-322.49C1205.38,-327.19 1108.72,-342.57 1057.26,-359.4"/>
<polygon fill="#7f7f7f" stroke="#7f7f7f" points="1055.87,-356.18 1047.59,-362.79 1058.18,-362.79 1055.87,-356.18"/>
<text text-anchor="middle" x="1155.73" y="-343.94" font-family="monospace" font-size="10.00">uses</text>
</g>
<!-- lightning_resolver::resolver::Resolver::publish&#45;&gt;lightning_resolver::resolver::Resolver -->
<g id="edge33" class="edge">
<title>lightning_resolver::resolver::Resolver::publish&#45;&gt;lightning_resolver::resolver::Resolver</title>
<path fill="none" stroke="#7f7f7f" stroke-dasharray="5,2" d="M1370.85,-479.67C1323.05,-448.57 1181.68,-400.57 1094.02,-382.7"/>
<polygon fill="#7f7f7f" stroke="#7f7f7f" points="1094.62,-379.25 1084.13,-380.77 1093.28,-386.12 1094.62,-379.25"/>
<text text-anchor="middle" x="1219.94" y="-434.18" font-family="monospace" font-size="10.00">uses</text>
</g>
<!-- lightning_resolver::resolver::Resolver::shutdown&#45;&gt;lightning_resolver::resolver::Resolver -->
<g id="edge34" class="edge">
<title>lightning_resolver::resolver::Resolver::shutdown&#45;&gt;lightning_resolver::resolver::Resolver</title>
<path fill="none" stroke="#7f7f7f" stroke-dasharray="5,2" d="M1243.04,-206.86C1173.74,-242.86 1071.82,-314 1034.64,-354.89"/>
<polygon fill="#7f7f7f" stroke="#7f7f7f" points="1031.87,-352.74 1028.1,-362.64 1037.22,-357.25 1031.87,-352.74"/>
<text text-anchor="middle" x="1126.34" y="-283.87" font-family="monospace" font-size="10.00">uses</text>
</g>
<!-- lightning_resolver::resolver::Resolver::start&#45;&gt;lightning_resolver::resolver::Resolver -->
<g id="edge35" class="edge">
<title>lightning_resolver::resolver::Resolver::start&#45;&gt;lightning_resolver::resolver::Resolver</title>
<path fill="none" stroke="#7f7f7f" stroke-dasharray="5,2" d="M1162.43,-96.6C1116.14,-148.9 1037.34,-290.76 1020.7,-352.89"/>
<polygon fill="#7f7f7f" stroke="#7f7f7f" points="1017.24,-352.31 1018.45,-362.84 1024.07,-353.85 1017.24,-352.31"/>
<text text-anchor="middle" x="1079.06" y="-227.74" font-family="monospace" font-size="10.00">uses</text>
</g>
<!-- lightning_resolver::resolver::ResolverInner::get_blake3_hash -->
<g id="node19" class="node">
<title>lightning_resolver::resolver::ResolverInner::get_blake3_hash</title>
<polygon fill="#db5367" stroke="black" points="385.11,-1271.29 385.11,-1309.29 642.11,-1309.29 642.11,-1271.29 385.11,-1271.29"/>
<text text-anchor="middle" x="513.61" y="-1297.29" font-family="monospace" font-size="10.00">pub(self) async fn</text>
<polyline fill="none" stroke="black" points="385.11,-1290.29 642.11,-1290.29 "/>
<text text-anchor="middle" x="513.61" y="-1278.29" font-family="monospace" font-size="10.00">resolver::ResolverInner::get_blake3_hash</text>
</g>
<!-- lightning_resolver::resolver::ResolverInner&#45;&gt;lightning_resolver::resolver::ResolverInner::get_blake3_hash -->
<g id="edge36" class="edge">
<title>lightning_resolver::resolver::ResolverInner&#45;&gt;lightning_resolver::resolver::ResolverInner::get_blake3_hash</title>
<path fill="none" stroke="#000000" d="M715.62,-1072.3C653.64,-1115.22 552.79,-1212.8 521.48,-1262.42"/>
<polygon fill="#000000" stroke="#000000" points="518.43,-1260.7 516.46,-1271.11 524.49,-1264.2 518.43,-1260.7"/>
<text text-anchor="middle" x="606.05" y="-1170.36" font-family="monospace" font-size="10.00">owns</text>
</g>
<!-- lightning_resolver::resolver::ResolverInner::get_origins -->
<g id="node20" class="node">
<title>lightning_resolver::resolver::ResolverInner::get_origins</title>
<polygon fill="#db5367" stroke="black" points="585.97,-1364.17 585.97,-1402.17 818.97,-1402.17 818.97,-1364.17 585.97,-1364.17"/>
<text text-anchor="middle" x="702.47" y="-1390.17" font-family="monospace" font-size="10.00">pub(self) fn</text>
<polyline fill="none" stroke="black" points="585.97,-1383.17 818.97,-1383.17 "/>
<text text-anchor="middle" x="702.47" y="-1371.17" font-family="monospace" font-size="10.00">resolver::ResolverInner::get_origins</text>
</g>
<!-- lightning_resolver::resolver::ResolverInner&#45;&gt;lightning_resolver::resolver::ResolverInner::get_origins -->
<g id="edge37" class="edge">
<title>lightning_resolver::resolver::ResolverInner&#45;&gt;lightning_resolver::resolver::ResolverInner::get_origins</title>
<path fill="none" stroke="#000000" d="M746.03,-1072.23C718.86,-1127.46 688.57,-1287.39 692.16,-1353.81"/>
<polygon fill="#000000" stroke="#000000" points="688.69,-1354.36 693.08,-1364 695.67,-1353.73 688.69,-1354.36"/>
<text text-anchor="middle" x="706.6" y="-1216.02" font-family="monospace" font-size="10.00">owns</text>
</g>
<!-- lightning_resolver::resolver::ResolverInner::publish -->
<g id="node21" class="node">
<title>lightning_resolver::resolver::ResolverInner::publish</title>
<polygon fill="#db5367" stroke="black" points="827,-1345.18 827,-1383.18 1036,-1383.18 1036,-1345.18 827,-1345.18"/>
<text text-anchor="middle" x="931.5" y="-1371.18" font-family="monospace" font-size="10.00">pub(self) async fn</text>
<polyline fill="none" stroke="black" points="827,-1364.18 1036,-1364.18 "/>
<text text-anchor="middle" x="931.5" y="-1352.18" font-family="monospace" font-size="10.00">resolver::ResolverInner::publish</text>
</g>
<!-- lightning_resolver::resolver::ResolverInner&#45;&gt;lightning_resolver::resolver::ResolverInner::publish -->
<g id="edge38" class="edge">
<title>lightning_resolver::resolver::ResolverInner&#45;&gt;lightning_resolver::resolver::ResolverInner::publish</title>
<path fill="none" stroke="#000000" d="M760.94,-1072.63C769.86,-1126.74 847.53,-1275.21 896.56,-1337.15"/>
<polygon fill="#000000" stroke="#000000" points="893.93,-1339.45 902.98,-1344.95 899.33,-1335.01 893.93,-1339.45"/>
<text text-anchor="middle" x="816.25" y="-1207.89" font-family="monospace" font-size="10.00">owns</text>
</g>
<!-- lightning_resolver::resolver::ResolverInner::start -->
<g id="node22" class="node">
<title>lightning_resolver::resolver::ResolverInner::start</title>
<polygon fill="#db5367" stroke="black" points="319.19,-1100.18 319.19,-1138.18 516.19,-1138.18 516.19,-1100.18 319.19,-1100.18"/>
<text text-anchor="middle" x="417.69" y="-1126.18" font-family="monospace" font-size="10.00">pub(self) async fn</text>
<polyline fill="none" stroke="black" points="319.19,-1119.18 516.19,-1119.18 "/>
<text text-anchor="middle" x="417.69" y="-1107.18" font-family="monospace" font-size="10.00">resolver::ResolverInner::start</text>
</g>
<!-- lightning_resolver::resolver::ResolverInner&#45;&gt;lightning_resolver::resolver::ResolverInner::start -->
<g id="edge39" class="edge">
<title>lightning_resolver::resolver::ResolverInner&#45;&gt;lightning_resolver::resolver::ResolverInner::start</title>
<path fill="none" stroke="#000000" d="M686.4,-1045.04C611.34,-1051.76 501.53,-1074.6 448.51,-1096.14"/>
<polygon fill="#000000" stroke="#000000" points="447.07,-1092.95 439.29,-1100.14 449.85,-1099.37 447.07,-1092.95"/>
<text text-anchor="middle" x="554.95" y="-1073.59" font-family="monospace" font-size="10.00">owns</text>
</g>
<!-- lightning_resolver::resolver::ResolverInner::store_mapping -->
<g id="node23" class="node">
<title>lightning_resolver::resolver::ResolverInner::store_mapping</title>
<polygon fill="#db5367" stroke="black" points="964.92,-1234.16 964.92,-1272.16 1209.92,-1272.16 1209.92,-1234.16 964.92,-1234.16"/>
<text text-anchor="middle" x="1087.42" y="-1260.16" font-family="monospace" font-size="10.00">pub(self) fn</text>
<polyline fill="none" stroke="black" points="964.92,-1253.16 1209.92,-1253.16 "/>
<text text-anchor="middle" x="1087.42" y="-1241.16" font-family="monospace" font-size="10.00">resolver::ResolverInner::store_mapping</text>
</g>
<!-- lightning_resolver::resolver::ResolverInner&#45;&gt;lightning_resolver::resolver::ResolverInner::store_mapping -->
<g id="edge40" class="edge">
<title>lightning_resolver::resolver::ResolverInner&#45;&gt;lightning_resolver::resolver::ResolverInner::store_mapping</title>
<path fill="none" stroke="#000000" d="M795.08,-1072.37C854.11,-1108.87 982.55,-1188.3 1047.75,-1228.62"/>
<polygon fill="#000000" stroke="#000000" points="1046.17,-1231.76 1056.51,-1234.04 1049.85,-1225.81 1046.17,-1231.76"/>
<text text-anchor="middle" x="908.91" y="-1153.5" font-family="monospace" font-size="10.00">owns</text>
</g>
<!-- lightning_resolver::resolver::ResolverInner::get_blake3_hash&#45;&gt;lightning_resolver::resolver::ResolverInner -->
<g id="edge41" class="edge">
<title>lightning_resolver::resolver::ResolverInner::get_blake3_hash&#45;&gt;lightning_resolver::resolver::ResolverInner</title>
<path fill="none" stroke="#7f7f7f" stroke-dasharray="5,2" d="M562.06,-1271.19C624.04,-1228.27 724.88,-1130.69 756.2,-1081.06"/>
<polygon fill="#7f7f7f" stroke="#7f7f7f" points="759.25,-1082.79 761.22,-1072.38 753.19,-1079.29 759.25,-1082.79"/>
<text text-anchor="middle" x="646.63" y="-1179.13" font-family="monospace" font-size="10.00">uses</text>
</g>
<!-- lightning_resolver::resolver::ResolverInner::get_origins&#45;&gt;lightning_resolver::resolver::ResolverInner -->
<g id="edge42" class="edge">
<title>lightning_resolver::resolver::ResolverInner::get_origins&#45;&gt;lightning_resolver::resolver::ResolverInner</title>
<path fill="none" stroke="#7f7f7f" stroke-dasharray="5,2" d="M720.51,-1364.14C747.68,-1308.91 777.97,-1148.98 774.39,-1082.56"/>
<polygon fill="#7f7f7f" stroke="#7f7f7f" points="777.85,-1082.01 773.47,-1072.37 770.88,-1082.64 777.85,-1082.01"/>
<text text-anchor="middle" x="734.95" y="-1226.35" font-family="monospace" font-size="10.00">uses</text>
</g>
<!-- lightning_resolver::resolver::ResolverInner::publish&#45;&gt;lightning_resolver::resolver::ResolverInner -->
<g id="edge43" class="edge">
<title>lightning_resolver::resolver::ResolverInner::publish&#45;&gt;lightning_resolver::resolver::ResolverInner</title>
<path fill="none" stroke="#7f7f7f" stroke-dasharray="5,2" d="M934.63,-1344.74C925.71,-1290.63 848.04,-1142.16 799.01,-1080.22"/>
<polygon fill="#7f7f7f" stroke="#7f7f7f" points="801.64,-1077.92 792.59,-1072.42 796.24,-1082.37 801.64,-1077.92"/>
<text text-anchor="middle" x="854.32" y="-1215.48" font-family="monospace" font-size="10.00">uses</text>
</g>
<!-- lightning_resolver::resolver::ResolverInner::start&#45;&gt;lightning_resolver::resolver::ResolverInner -->
<g id="edge44" class="edge">
<title>lightning_resolver::resolver::ResolverInner::start&#45;&gt;lightning_resolver::resolver::ResolverInner</title>
<path fill="none" stroke="#7f7f7f" stroke-dasharray="5,2" d="M516.44,-1125.14C589.76,-1116.51 685.05,-1095.83 733.28,-1076.23"/>
<polygon fill="#7f7f7f" stroke="#7f7f7f" points="734.78,-1079.39 742.56,-1072.2 731.99,-1072.97 734.78,-1079.39"/>
<text text-anchor="middle" x="612.36" y="-1103.68" font-family="monospace" font-size="10.00">uses</text>
</g>
</g>
</svg>
