<?xml version="1.0" encoding="UTF-8" standalone="no"?>
<!DOCTYPE svg PUBLIC "-//W3C//DTD SVG 1.1//EN"
 "http://www.w3.org/Graphics/SVG/1.1/DTD/svg11.dtd">
<!-- Generated by graphviz version 4.0.0 (0)
 -->
<!-- Pages: 1 -->
<svg width="421pt" height="408pt"
 viewBox="0.00 0.00 420.60 407.60" xmlns="http://www.w3.org/2000/svg" xmlns:xlink="http://www.w3.org/1999/xlink">
<g id="graph0" class="graph" transform="scale(1 1) rotate(0) translate(28.8 378.8)">
<polygon fill="white" stroke="transparent" points="-28.8,28.8 -28.8,-378.8 391.8,-378.8 391.8,28.8 -28.8,28.8"/>
<text text-anchor="middle" x="181.5" y="-317.2" font-family="Helvetica,sans-Serif" font-size="36.00">lightning_node</text>
<!-- fdi -->
<g id="node1" class="node">
<title>fdi</title>
<polygon fill="#5397c8" stroke="black" points="11.13,-43.63 11.13,-81.63 112.13,-81.63 112.13,-43.63 11.13,-43.63"/>
<text text-anchor="middle" x="61.63" y="-69.63" font-family="monospace" font-size="10.00">external crate</text>
<polyline fill="none" stroke="black" points="11.13,-62.63 112.13,-62.63 "/>
<text text-anchor="middle" x="61.63" y="-50.63" font-family="monospace" font-size="10.00">fdi</text>
</g>
<!-- lightning_node -->
<g id="node2" class="node">
<title>lightning_node</title>
<polygon fill="#5397c8" stroke="black" points="170.45,-0.9 170.45,-38.9 271.45,-38.9 271.45,-0.9 170.45,-0.9"/>
<text text-anchor="middle" x="220.95" y="-26.9" font-family="monospace" font-size="10.00">crate</text>
<polyline fill="none" stroke="black" points="170.45,-19.9 271.45,-19.9 "/>
<text text-anchor="middle" x="220.95" y="-7.9" font-family="monospace" font-size="10.00">lightning_node</text>
</g>
<!-- lightning_node::config -->
<g id="node3" class="node">
<title>lightning_node::config</title>
<polygon fill="#81c169" stroke="black" points="99.37,-143.75 99.37,-181.75 248.37,-181.75 248.37,-143.75 99.37,-143.75"/>
<text text-anchor="middle" x="173.87" y="-169.75" font-family="monospace" font-size="10.00">pub mod</text>
<polyline fill="none" stroke="black" points="99.37,-162.75 248.37,-162.75 "/>
<text text-anchor="middle" x="173.87" y="-150.75" font-family="monospace" font-size="10.00">lightning_node::config</text>
</g>
<!-- lightning_node&#45;&gt;lightning_node::config -->
<g id="edge1" class="edge">
<title>lightning_node&#45;&gt;lightning_node::config</title>
<path fill="none" stroke="#000000" d="M192.14,-39.09C175.89,-63.45 162.5,-105.04 162.01,-133.36"/>
<polygon fill="#000000" stroke="#000000" points="158.52,-133.67 162.47,-143.5 165.51,-133.35 158.52,-133.67"/>
<text text-anchor="middle" x="164.57" y="-89.22" font-family="monospace" font-size="10.00">owns</text>
</g>
<!-- lightning_node&#45;&gt;lightning_node::config -->
<g id="edge2" class="edge">
<title>lightning_node&#45;&gt;lightning_node::config</title>
<path fill="none" stroke="#7f7f7f" stroke-dasharray="5,2" d="M232.35,-39.13C235.39,-64.01 223.69,-106.72 207.89,-135.01"/>
<polygon fill="#7f7f7f" stroke="#7f7f7f" points="204.85,-133.28 202.63,-143.65 210.82,-136.93 204.85,-133.28"/>
<text text-anchor="middle" x="207.62" y="-90.07" font-family="monospace" font-size="10.00">uses</text>
</g>
<!-- lightning_node::config&#45;&gt;fdi -->
<g id="edge3" class="edge">
<title>lightning_node::config&#45;&gt;fdi</title>
<path fill="none" stroke="#7f7f7f" stroke-dasharray="5,2" d="M152.5,-143.68C135.06,-128.13 110.23,-105.98 90.94,-88.77"/>
<polygon fill="#7f7f7f" stroke="#7f7f7f" points="93.1,-86.02 83.31,-81.97 88.44,-91.24 93.1,-86.02"/>
<text text-anchor="middle" x="109.22" y="-119.23" font-family="monospace" font-size="10.00">uses</text>
</g>
<!-- lightning_schema -->
<g id="node4" class="node">
<title>lightning_schema</title>
<polygon fill="#5397c8" stroke="black" points="0.04,-212.54 0.04,-250.54 113.04,-250.54 113.04,-212.54 0.04,-212.54"/>
<text text-anchor="middle" x="56.54" y="-238.54" font-family="monospace" font-size="10.00">external crate</text>
<polyline fill="none" stroke="black" points="0.04,-231.54 113.04,-231.54 "/>
<text text-anchor="middle" x="56.54" y="-219.54" font-family="monospace" font-size="10.00">lightning_schema</text>
</g>
<!-- lightning_node::config&#45;&gt;lightning_schema -->
<g id="edge4" class="edge">
<title>lightning_node::config&#45;&gt;lightning_schema</title>
<path fill="none" stroke="#7f7f7f" stroke-dasharray="5,2" d="M141.19,-181.91C127.71,-189.81 111.94,-199.06 97.69,-207.41"/>
<polygon fill="#7f7f7f" stroke="#7f7f7f" points="95.9,-204.41 89.05,-212.48 99.44,-210.44 95.9,-204.41"/>
<text text-anchor="middle" x="106.94" y="-197.66" font-family="monospace" font-size="10.00">uses</text>
</g>
<!-- lightning_types -->
<g id="node5" class="node">
<title>lightning_types</title>
<polygon fill="#5397c8" stroke="black" points="256.39,-144.59 256.39,-182.59 363.39,-182.59 363.39,-144.59 256.39,-144.59"/>
<text text-anchor="middle" x="309.89" y="-170.59" font-family="monospace" font-size="10.00">external crate</text>
<polyline fill="none" stroke="black" points="256.39,-163.59 363.39,-163.59 "/>
<text text-anchor="middle" x="309.89" y="-151.59" font-family="monospace" font-size="10.00">lightning_types</text>
</g>
<!-- lightning_node::config&#45;&gt;lightning_types -->
<g id="edge5" class="edge">
<title>lightning_node::config&#45;&gt;lightning_types</title>
<path fill="none" stroke="#7f7f7f" stroke-dasharray="5,2" d="M248.64,-163.21C248.81,-163.21 248.97,-163.21 249.13,-163.22"/>
<polygon fill="#7f7f7f" stroke="#7f7f7f" points="246.35,-166.7 256.37,-163.26 246.39,-159.7 246.35,-166.7"/>
<text text-anchor="middle" x="261.39" y="-166.21" font-family="monospace" font-size="10.00">uses</text>
</g>
<!-- std::fs -->
<g id="node6" class="node">
<title>std::fs</title>
<polygon fill="#81c169" stroke="black" points="161.41,-263.2 161.41,-301.2 250.41,-301.2 250.41,-263.2 161.41,-263.2"/>
<text text-anchor="middle" x="205.91" y="-289.2" font-family="monospace" font-size="10.00">external mod</text>
<polyline fill="none" stroke="black" points="161.41,-282.2 250.41,-282.2 "/>
<text text-anchor="middle" x="205.91" y="-270.2" font-family="monospace" font-size="10.00">std::fs</text>
</g>
<!-- lightning_node::config&#45;&gt;std::fs -->
<g id="edge6" class="edge">
<title>lightning_node::config&#45;&gt;std::fs</title>
<path fill="none" stroke="#7f7f7f" stroke-dasharray="5,2" d="M179.02,-181.94C184.18,-201.18 192.19,-231.05 198.13,-253.19"/>
<polygon fill="#7f7f7f" stroke="#7f7f7f" points="194.8,-254.3 200.78,-263.05 201.57,-252.49 194.8,-254.3"/>
<text text-anchor="middle" x="176.08" y="-220.57" font-family="monospace" font-size="10.00">uses</text>
</g>
</g>
</svg>
