<?xml version="1.0" encoding="UTF-8" standalone="no"?>
<!DOCTYPE svg PUBLIC "-//W3C//DTD SVG 1.1//EN"
 "http://www.w3.org/Graphics/SVG/1.1/DTD/svg11.dtd">
<!-- Generated by graphviz version 4.0.0 (0)
 -->
<!-- Pages: 1 -->
<svg width="1764pt" height="1746pt"
 viewBox="0.00 0.00 1763.56 1746.47" xmlns="http://www.w3.org/2000/svg" xmlns:xlink="http://www.w3.org/1999/xlink">
<g id="graph0" class="graph" transform="scale(1 1) rotate(0) translate(28.8 1717.67)">
<polygon fill="white" stroke="transparent" points="-28.8,28.8 -28.8,-1717.67 1734.76,-1717.67 1734.76,28.8 -28.8,28.8"/>
<text text-anchor="middle" x="852.98" y="-1656.07" font-family="Helvetica,sans-Serif" font-size="36.00">lightning_reputation</text>
<!-- lightning_reputation -->
<g id="node1" class="node">
<title>lightning_reputation</title>
<polygon fill="#5397c8" stroke="black" points="1019.94,-924.54 1019.94,-962.54 1156.94,-962.54 1156.94,-924.54 1019.94,-924.54"/>
<text text-anchor="middle" x="1088.44" y="-950.54" font-family="monospace" font-size="10.00">crate</text>
<polyline fill="none" stroke="black" points="1019.94,-943.54 1156.94,-943.54 "/>
<text text-anchor="middle" x="1088.44" y="-931.54" font-family="monospace" font-size="10.00">lightning_reputation</text>
</g>
<!-- lightning_reputation::calculate_normalized_measurements -->
<g id="node2" class="node">
<title>lightning_reputation::calculate_normalized_measurements</title>
<polygon fill="#f8c04c" stroke="black" points="791.14,-1185.89 791.14,-1223.89 1006.14,-1223.89 1006.14,-1185.89 791.14,-1185.89"/>
<text text-anchor="middle" x="898.64" y="-1211.89" font-family="monospace" font-size="10.00">pub(crate) fn</text>
<polyline fill="none" stroke="black" points="791.14,-1204.89 1006.14,-1204.89 "/>
<text text-anchor="middle" x="898.64" y="-1192.89" font-family="monospace" font-size="10.00">calculate_normalized_measurements</text>
</g>
<!-- lightning_reputation&#45;&gt;lightning_reputation::calculate_normalized_measurements -->
<g id="edge1" class="edge">
<title>lightning_reputation&#45;&gt;lightning_reputation::calculate_normalized_measurements</title>
<path fill="none" stroke="#000000" d="M1074.48,-962.75C1041.23,-1008.54 957.24,-1124.19 918.63,-1177.37"/>
<polygon fill="#000000" stroke="#000000" points="915.66,-1175.5 912.61,-1185.65 921.32,-1179.61 915.66,-1175.5"/>
<text text-anchor="middle" x="984.05" y="-1073.06" font-family="monospace" font-size="10.00">owns</text>
</g>
<!-- lightning_reputation::calculate_reputation_scores -->
<g id="node3" class="node">
<title>lightning_reputation::calculate_reputation_scores</title>
<polygon fill="#81c169" stroke="black" points="696.02,-755.55 696.02,-793.55 875.02,-793.55 875.02,-755.55 696.02,-755.55"/>
<text text-anchor="middle" x="785.52" y="-781.55" font-family="monospace" font-size="10.00">pub fn</text>
<polyline fill="none" stroke="black" points="696.02,-774.55 875.02,-774.55 "/>
<text text-anchor="middle" x="785.52" y="-762.55" font-family="monospace" font-size="10.00">calculate_reputation_scores</text>
</g>
<!-- lightning_reputation&#45;&gt;lightning_reputation::calculate_reputation_scores -->
<g id="edge2" class="edge">
<title>lightning_reputation&#45;&gt;lightning_reputation::calculate_reputation_scores</title>
<path fill="none" stroke="#000000" d="M1054.28,-924.48C998.94,-893.61 889.78,-832.71 828.99,-798.8"/>
<polygon fill="#000000" stroke="#000000" points="830.46,-795.61 820.02,-793.79 827.05,-801.72 830.46,-795.61"/>
<text text-anchor="middle" x="929.13" y="-864.64" font-family="monospace" font-size="10.00">owns</text>
</g>
<!-- lightning_reputation::statistics::abs_difference -->
<g id="node4" class="node">
<title>lightning_reputation::statistics::abs_difference</title>
<polygon fill="#db5367" stroke="black" points="1126.75,-1419.62 1126.75,-1457.62 1299.75,-1457.62 1299.75,-1419.62 1126.75,-1419.62"/>
<text text-anchor="middle" x="1213.25" y="-1445.62" font-family="monospace" font-size="10.00">pub(self) fn</text>
<polyline fill="none" stroke="black" points="1126.75,-1438.62 1299.75,-1438.62 "/>
<text text-anchor="middle" x="1213.25" y="-1426.62" font-family="monospace" font-size="10.00">statistics::abs_difference</text>
</g>
<!-- lightning_reputation&#45;&gt;lightning_reputation::statistics::abs_difference -->
<g id="edge3" class="edge">
<title>lightning_reputation&#45;&gt;lightning_reputation::statistics::abs_difference</title>
<path fill="none" stroke="#000000" d="M1093.25,-962.64C1112.37,-1038.45 1182.94,-1318.38 1205.95,-1409.64"/>
<polygon fill="#000000" stroke="#000000" points="1202.61,-1410.73 1208.45,-1419.57 1209.4,-1409.02 1202.61,-1410.73"/>
<text text-anchor="middle" x="1137.1" y="-1178.14" font-family="monospace" font-size="10.00">owns</text>
</g>
<!-- lightning_reputation::statistics::approx_quantile -->
<g id="node5" class="node">
<title>lightning_reputation::statistics::approx_quantile</title>
<polygon fill="#81c169" stroke="black" points="1437.48,-1022.25 1437.48,-1060.25 1616.48,-1060.25 1616.48,-1022.25 1437.48,-1022.25"/>
<text text-anchor="middle" x="1526.98" y="-1048.25" font-family="monospace" font-size="10.00">pub fn</text>
<polyline fill="none" stroke="black" points="1437.48,-1041.25 1616.48,-1041.25 "/>
<text text-anchor="middle" x="1526.98" y="-1029.25" font-family="monospace" font-size="10.00">statistics::approx_quantile</text>
</g>
<!-- lightning_reputation&#45;&gt;lightning_reputation::statistics::approx_quantile -->
<g id="edge4" class="edge">
<title>lightning_reputation&#45;&gt;lightning_reputation::statistics::approx_quantile</title>
<path fill="none" stroke="#000000" d="M1156.96,-958.8C1230.8,-975.26 1348.86,-1001.56 1431.72,-1020.03"/>
<polygon fill="#000000" stroke="#000000" points="1431.12,-1023.48 1441.64,-1022.24 1432.64,-1016.65 1431.12,-1023.48"/>
<text text-anchor="middle" x="1281.84" y="-992.41" font-family="monospace" font-size="10.00">owns</text>
</g>
<!-- lightning_reputation::statistics::calculate_mean -->
<g id="node6" class="node">
<title>lightning_reputation::statistics::calculate_mean</title>
<polygon fill="#db5367" stroke="black" points="934.09,-1411.96 934.09,-1449.96 1107.09,-1449.96 1107.09,-1411.96 934.09,-1411.96"/>
<text text-anchor="middle" x="1020.59" y="-1437.96" font-family="monospace" font-size="10.00">pub(self) fn</text>
<polyline fill="none" stroke="black" points="934.09,-1430.96 1107.09,-1430.96 "/>
<text text-anchor="middle" x="1020.59" y="-1418.96" font-family="monospace" font-size="10.00">statistics::calculate_mean</text>
</g>
<!-- lightning_reputation&#45;&gt;lightning_reputation::statistics::calculate_mean -->
<g id="edge5" class="edge">
<title>lightning_reputation&#45;&gt;lightning_reputation::statistics::calculate_mean</title>
<path fill="none" stroke="#000000" d="M1085.78,-962.64C1075.36,-1037.49 1037.29,-1311.03 1024.68,-1401.61"/>
<polygon fill="#000000" stroke="#000000" points="1021.18,-1401.33 1023.27,-1411.72 1028.11,-1402.3 1021.18,-1401.33"/>
<text text-anchor="middle" x="1042.73" y="-1185.13" font-family="monospace" font-size="10.00">owns</text>
</g>
<!-- lightning_reputation::statistics::calculate_variance -->
<g id="node7" class="node">
<title>lightning_reputation::statistics::calculate_variance</title>
<polygon fill="#db5367" stroke="black" points="922.91,-587.8 922.91,-625.8 1119.91,-625.8 1119.91,-587.8 922.91,-587.8"/>
<text text-anchor="middle" x="1021.41" y="-613.8" font-family="monospace" font-size="10.00">pub(self) fn</text>
<polyline fill="none" stroke="black" points="922.91,-606.8 1119.91,-606.8 "/>
<text text-anchor="middle" x="1021.41" y="-594.8" font-family="monospace" font-size="10.00">statistics::calculate_variance</text>
</g>
<!-- lightning_reputation&#45;&gt;lightning_reputation::statistics::calculate_variance -->
<g id="edge6" class="edge">
<title>lightning_reputation&#45;&gt;lightning_reputation::statistics::calculate_variance</title>
<path fill="none" stroke="#000000" d="M1084.64,-924.47C1073.47,-868.34 1040.65,-703.45 1027.23,-636.03"/>
<polygon fill="#000000" stroke="#000000" points="1030.63,-635.2 1025.25,-626.08 1023.77,-636.57 1030.63,-635.2"/>
<text text-anchor="middle" x="1043.43" y="-783.25" font-family="monospace" font-size="10.00">owns</text>
</g>
<!-- lightning_reputation::statistics::calculate_weighted_mean -->
<g id="node8" class="node">
<title>lightning_reputation::statistics::calculate_weighted_mean</title>
<polygon fill="#db5367" stroke="black" points="1308.05,-784.87 1308.05,-822.87 1535.05,-822.87 1535.05,-784.87 1308.05,-784.87"/>
<text text-anchor="middle" x="1421.55" y="-810.87" font-family="monospace" font-size="10.00">pub(self) fn</text>
<polyline fill="none" stroke="black" points="1308.05,-803.87 1535.05,-803.87 "/>
<text text-anchor="middle" x="1421.55" y="-791.87" font-family="monospace" font-size="10.00">statistics::calculate_weighted_mean</text>
</g>
<!-- lightning_reputation&#45;&gt;lightning_reputation::statistics::calculate_weighted_mean -->
<g id="edge7" class="edge">
<title>lightning_reputation&#45;&gt;lightning_reputation::statistics::calculate_weighted_mean</title>
<path fill="none" stroke="#000000" d="M1134.06,-924.41C1194.77,-898.95 1302.01,-853.99 1366.95,-826.76"/>
<polygon fill="#000000" stroke="#000000" points="1368.35,-829.97 1376.22,-822.88 1365.64,-823.52 1368.35,-829.97"/>
<text text-anchor="middle" x="1238" y="-878.59" font-family="monospace" font-size="10.00">owns</text>
</g>
<!-- lightning_reputation::statistics::calculate_z_normalized_weighted_mean -->
<g id="node9" class="node">
<title>lightning_reputation::statistics::calculate_z_normalized_weighted_mean</title>
<polygon fill="#81c169" stroke="black" points="1030.66,-444.74 1030.66,-482.74 1335.66,-482.74 1335.66,-444.74 1030.66,-444.74"/>
<text text-anchor="middle" x="1183.16" y="-470.74" font-family="monospace" font-size="10.00">pub fn</text>
<polyline fill="none" stroke="black" points="1030.66,-463.74 1335.66,-463.74 "/>
<text text-anchor="middle" x="1183.16" y="-451.74" font-family="monospace" font-size="10.00">statistics::calculate_z_normalized_weighted_mean</text>
</g>
<!-- lightning_reputation&#45;&gt;lightning_reputation::statistics::calculate_z_normalized_weighted_mean -->
<g id="edge8" class="edge">
<title>lightning_reputation&#45;&gt;lightning_reputation::statistics::calculate_z_normalized_weighted_mean</title>
<path fill="none" stroke="#000000" d="M1092.21,-924.43C1106.82,-850.4 1159.78,-582.16 1177.41,-492.88"/>
<polygon fill="#000000" stroke="#000000" points="1180.88,-493.39 1179.38,-482.9 1174.01,-492.03 1180.88,-493.39"/>
<text text-anchor="middle" x="1122.31" y="-711.65" font-family="monospace" font-size="10.00">owns</text>
</g>
<!-- lightning_reputation::statistics::calculate_z_score -->
<g id="node10" class="node">
<title>lightning_reputation::statistics::calculate_z_score</title>
<polygon fill="#db5367" stroke="black" points="1390.55,-594.76 1390.55,-632.76 1581.55,-632.76 1581.55,-594.76 1390.55,-594.76"/>
<text text-anchor="middle" x="1486.05" y="-620.76" font-family="monospace" font-size="10.00">pub(self) fn</text>
<polyline fill="none" stroke="black" points="1390.55,-613.76 1581.55,-613.76 "/>
<text text-anchor="middle" x="1486.05" y="-601.76" font-family="monospace" font-size="10.00">statistics::calculate_z_score</text>
</g>
<!-- lightning_reputation&#45;&gt;lightning_reputation::statistics::calculate_z_score -->
<g id="edge9" class="edge">
<title>lightning_reputation&#45;&gt;lightning_reputation::statistics::calculate_z_score</title>
<path fill="none" stroke="#000000" d="M1111.53,-924.38C1179.34,-868.14 1377.89,-703.47 1454.96,-639.54"/>
<polygon fill="#000000" stroke="#000000" points="1457.43,-642.04 1462.89,-632.96 1452.96,-636.65 1457.43,-642.04"/>
<text text-anchor="middle" x="1270.75" y="-784.96" font-family="monospace" font-size="10.00">owns</text>
</g>
<!-- lightning_reputation::statistics::min_max_normalize -->
<g id="node11" class="node">
<title>lightning_reputation::statistics::min_max_normalize</title>
<polygon fill="#81c169" stroke="black" points="1191.49,-571 1191.49,-609 1382.49,-609 1382.49,-571 1191.49,-571"/>
<text text-anchor="middle" x="1286.99" y="-597" font-family="monospace" font-size="10.00">pub fn</text>
<polyline fill="none" stroke="black" points="1191.49,-590 1382.49,-590 "/>
<text text-anchor="middle" x="1286.99" y="-578" font-family="monospace" font-size="10.00">statistics::min_max_normalize</text>
</g>
<!-- lightning_reputation&#45;&gt;lightning_reputation::statistics::min_max_normalize -->
<g id="edge10" class="edge">
<title>lightning_reputation&#45;&gt;lightning_reputation::statistics::min_max_normalize</title>
<path fill="none" stroke="#000000" d="M1099.11,-924.53C1132.04,-865.9 1232.15,-687.65 1271.18,-618.16"/>
<polygon fill="#000000" stroke="#000000" points="1274.42,-619.54 1276.27,-609.1 1268.32,-616.11 1274.42,-619.54"/>
<text text-anchor="middle" x="1172.64" y="-774.35" font-family="monospace" font-size="10.00">owns</text>
</g>
<!-- lightning_reputation::statistics::try_min_max_normalize -->
<g id="node12" class="node">
<title>lightning_reputation::statistics::try_min_max_normalize</title>
<polygon fill="#81c169" stroke="black" points="603.51,-612.99 603.51,-650.99 818.51,-650.99 818.51,-612.99 603.51,-612.99"/>
<text text-anchor="middle" x="711.01" y="-638.99" font-family="monospace" font-size="10.00">pub fn</text>
<polyline fill="none" stroke="black" points="603.51,-631.99 818.51,-631.99 "/>
<text text-anchor="middle" x="711.01" y="-619.99" font-family="monospace" font-size="10.00">statistics::try_min_max_normalize</text>
</g>
<!-- lightning_reputation&#45;&gt;lightning_reputation::statistics::try_min_max_normalize -->
<g id="edge11" class="edge">
<title>lightning_reputation&#45;&gt;lightning_reputation::statistics::try_min_max_normalize</title>
<path fill="none" stroke="#000000" d="M1065.4,-924.52C1000.52,-870.96 816.22,-718.84 742.28,-657.8"/>
<polygon fill="#000000" stroke="#000000" points="744.17,-654.83 734.23,-651.16 739.72,-660.23 744.17,-654.83"/>
<text text-anchor="middle" x="891.34" y="-794.16" font-family="monospace" font-size="10.00">owns</text>
</g>
<!-- lightning_reputation::statistics::z_score_normalize_filter -->
<g id="node13" class="node">
<title>lightning_reputation::statistics::z_score_normalize_filter</title>
<polygon fill="#db5367" stroke="black" points="1472.96,-853.52 1472.96,-891.52 1705.96,-891.52 1705.96,-853.52 1472.96,-853.52"/>
<text text-anchor="middle" x="1589.46" y="-879.52" font-family="monospace" font-size="10.00">pub(self) fn</text>
<polyline fill="none" stroke="black" points="1472.96,-872.52 1705.96,-872.52 "/>
<text text-anchor="middle" x="1589.46" y="-860.52" font-family="monospace" font-size="10.00">statistics::z_score_normalize_filter</text>
</g>
<!-- lightning_reputation&#45;&gt;lightning_reputation::statistics::z_score_normalize_filter -->
<g id="edge12" class="edge">
<title>lightning_reputation&#45;&gt;lightning_reputation::statistics::z_score_normalize_filter</title>
<path fill="none" stroke="#000000" d="M1157.05,-933.81C1235.48,-922.69 1365.52,-904.26 1462.55,-890.51"/>
<polygon fill="#000000" stroke="#000000" points="1463.31,-893.94 1472.72,-889.07 1462.33,-887.01 1463.31,-893.94"/>
<text text-anchor="middle" x="1297.3" y="-915.16" font-family="monospace" font-size="10.00">owns</text>
</g>
<!-- lightning_reputation::types::CollectedMeasurements -->
<g id="node14" class="node">
<title>lightning_reputation::types::CollectedMeasurements</title>
<polygon fill="#f8c04c" stroke="black" points="1102.51,-1197.18 1102.51,-1235.18 1287.51,-1235.18 1287.51,-1197.18 1102.51,-1197.18"/>
<text text-anchor="middle" x="1195.01" y="-1223.18" font-family="monospace" font-size="10.00">pub(crate) struct</text>
<polyline fill="none" stroke="black" points="1102.51,-1216.18 1287.51,-1216.18 "/>
<text text-anchor="middle" x="1195.01" y="-1204.18" font-family="monospace" font-size="10.00">types::CollectedMeasurements</text>
</g>
<!-- lightning_reputation&#45;&gt;lightning_reputation::types::CollectedMeasurements -->
<g id="edge13" class="edge">
<title>lightning_reputation&#45;&gt;lightning_reputation::types::CollectedMeasurements</title>
<path fill="none" stroke="#000000" d="M1082.01,-962.95C1083.07,-1010.85 1128.67,-1132.71 1163.98,-1188.26"/>
<polygon fill="#000000" stroke="#000000" points="1161.3,-1190.54 1169.77,-1196.9 1167.11,-1186.65 1161.3,-1190.54"/>
<text text-anchor="middle" x="1110.5" y="-1078.6" font-family="monospace" font-size="10.00">owns</text>
</g>
<!-- lightning_reputation&#45;&gt;lightning_reputation::types::CollectedMeasurements -->
<g id="edge14" class="edge">
<title>lightning_reputation&#45;&gt;lightning_reputation::types::CollectedMeasurements</title>
<path fill="none" stroke="#7f7f7f" stroke-dasharray="5,2" d="M1113.6,-962.71C1147.37,-1010.04 1194.36,-1130.7 1200.73,-1186.95"/>
<polygon fill="#7f7f7f" stroke="#7f7f7f" points="1197.24,-1187.26 1201.44,-1196.99 1204.23,-1186.77 1197.24,-1187.26"/>
<text text-anchor="middle" x="1144.66" y="-1077.83" font-family="monospace" font-size="10.00">uses</text>
</g>
<!-- lightning_reputation::types::MinMaxValues -->
<g id="node15" class="node">
<title>lightning_reputation::types::MinMaxValues</title>
<polygon fill="#f8c04c" stroke="black" points="577.41,-945.25 577.41,-983.25 708.41,-983.25 708.41,-945.25 577.41,-945.25"/>
<text text-anchor="middle" x="642.91" y="-971.25" font-family="monospace" font-size="10.00">pub(crate) struct</text>
<polyline fill="none" stroke="black" points="577.41,-964.25 708.41,-964.25 "/>
<text text-anchor="middle" x="642.91" y="-952.25" font-family="monospace" font-size="10.00">types::MinMaxValues</text>
</g>
<!-- lightning_reputation&#45;&gt;lightning_reputation::types::MinMaxValues -->
<g id="edge15" class="edge">
<title>lightning_reputation&#45;&gt;lightning_reputation::types::MinMaxValues</title>
<path fill="none" stroke="#000000" d="M1019.84,-926.67C930.91,-921 777.66,-928.66 696.67,-943.27"/>
<polygon fill="#000000" stroke="#000000" points="695.85,-939.86 686.69,-945.18 697.17,-946.74 695.85,-939.86"/>
<text text-anchor="middle" x="845.76" y="-937.97" font-family="monospace" font-size="10.00">owns</text>
</g>
<!-- lightning_reputation&#45;&gt;lightning_reputation::types::MinMaxValues -->
<g id="edge16" class="edge">
<title>lightning_reputation&#45;&gt;lightning_reputation::types::MinMaxValues</title>
<path fill="none" stroke="#7f7f7f" stroke-dasharray="5,2" d="M1044.88,-962.55C969.19,-978.03 812.55,-986.58 718.72,-981.54"/>
<polygon fill="#7f7f7f" stroke="#7f7f7f" points="718.91,-978.04 708.72,-980.93 718.49,-985.03 718.91,-978.04"/>
<text text-anchor="middle" x="869.3" y="-975.05" font-family="monospace" font-size="10.00">uses</text>
</g>
<!-- lightning_reputation::types::NormalizedMeasurements -->
<g id="node16" class="node">
<title>lightning_reputation::types::NormalizedMeasurements</title>
<polygon fill="#f8c04c" stroke="black" points="496.76,-1126.85 496.76,-1164.85 687.76,-1164.85 687.76,-1126.85 496.76,-1126.85"/>
<text text-anchor="middle" x="592.26" y="-1152.85" font-family="monospace" font-size="10.00">pub(crate) struct</text>
<polyline fill="none" stroke="black" points="496.76,-1145.85 687.76,-1145.85 "/>
<text text-anchor="middle" x="592.26" y="-1133.85" font-family="monospace" font-size="10.00">types::NormalizedMeasurements</text>
</g>
<!-- lightning_reputation&#45;&gt;lightning_reputation::types::NormalizedMeasurements -->
<g id="edge17" class="edge">
<title>lightning_reputation&#45;&gt;lightning_reputation::types::NormalizedMeasurements</title>
<path fill="none" stroke="#000000" d="M1019.85,-951.48C907.79,-983.47 691.09,-1073.54 617.31,-1120.75"/>
<polygon fill="#000000" stroke="#000000" points="615,-1118.08 608.64,-1126.56 618.9,-1123.89 615,-1118.08"/>
<text text-anchor="middle" x="806.08" y="-1039.11" font-family="monospace" font-size="10.00">owns</text>
</g>
<!-- lightning_reputation&#45;&gt;lightning_reputation::types::NormalizedMeasurements -->
<g id="edge18" class="edge">
<title>lightning_reputation&#45;&gt;lightning_reputation::types::NormalizedMeasurements</title>
<path fill="none" stroke="#7f7f7f" stroke-dasharray="5,2" d="M1072.43,-962.56C1015.33,-1003.31 820.95,-1086.3 697.63,-1126.59"/>
<polygon fill="#7f7f7f" stroke="#7f7f7f" points="696.21,-1123.36 687.77,-1129.76 698.36,-1130.03 696.21,-1123.36"/>
<text text-anchor="middle" x="872.53" y="-1047.57" font-family="monospace" font-size="10.00">uses</text>
</g>
<!-- lightning_reputation::types::Values -->
<g id="node20" class="node">
<title>lightning_reputation::types::Values</title>
<polygon fill="#f8c04c" stroke="black" points="676.23,-1232.9 676.23,-1270.9 795.23,-1270.9 795.23,-1232.9 676.23,-1232.9"/>
<text text-anchor="middle" x="735.73" y="-1258.9" font-family="monospace" font-size="10.00">pub(crate) struct</text>
<polyline fill="none" stroke="black" points="676.23,-1251.9 795.23,-1251.9 "/>
<text text-anchor="middle" x="735.73" y="-1239.9" font-family="monospace" font-size="10.00">types::Values</text>
</g>
<!-- lightning_reputation&#45;&gt;lightning_reputation::types::Values -->
<g id="edge19" class="edge">
<title>lightning_reputation&#45;&gt;lightning_reputation::types::Values</title>
<path fill="none" stroke="#000000" d="M1066.64,-962.59C1005.9,-1015.7 834.66,-1165.41 765.37,-1225.98"/>
<polygon fill="#000000" stroke="#000000" points="763.06,-1223.36 757.83,-1232.58 767.66,-1228.63 763.06,-1223.36"/>
<text text-anchor="middle" x="903.51" y="-1097.29" font-family="monospace" font-size="10.00">owns</text>
</g>
<!-- lightning_reputation::types::WeightedFloat -->
<g id="node21" class="node">
<title>lightning_reputation::types::WeightedFloat</title>
<polygon fill="#f8c04c" stroke="black" points="825.32,-423.17 825.32,-461.17 962.32,-461.17 962.32,-423.17 825.32,-423.17"/>
<text text-anchor="middle" x="893.82" y="-449.17" font-family="monospace" font-size="10.00">pub(crate) struct</text>
<polyline fill="none" stroke="black" points="825.32,-442.17 962.32,-442.17 "/>
<text text-anchor="middle" x="893.82" y="-430.17" font-family="monospace" font-size="10.00">types::WeightedFloat</text>
</g>
<!-- lightning_reputation&#45;&gt;lightning_reputation::types::WeightedFloat -->
<g id="edge20" class="edge">
<title>lightning_reputation&#45;&gt;lightning_reputation::types::WeightedFloat</title>
<path fill="none" stroke="#000000" d="M1081.05,-924.49C1051.33,-847.95 940.49,-562.39 904.9,-470.71"/>
<polygon fill="#000000" stroke="#000000" points="908.1,-469.29 901.22,-461.23 901.58,-471.82 908.1,-469.29"/>
<text text-anchor="middle" x="980.47" y="-700.6" font-family="monospace" font-size="10.00">owns</text>
</g>
<!-- lightning_reputation::types::WeightedReputationMeasurements -->
<g id="node23" class="node">
<title>lightning_reputation::types::WeightedReputationMeasurements</title>
<polygon fill="#81c169" stroke="black" points="1273.83,-1324 1273.83,-1362 1512.83,-1362 1512.83,-1324 1273.83,-1324"/>
<text text-anchor="middle" x="1393.33" y="-1350" font-family="monospace" font-size="10.00">pub struct</text>
<polyline fill="none" stroke="black" points="1273.83,-1343 1512.83,-1343 "/>
<text text-anchor="middle" x="1393.33" y="-1331" font-family="monospace" font-size="10.00">types::WeightedReputationMeasurements</text>
</g>
<!-- lightning_reputation&#45;&gt;lightning_reputation::types::WeightedReputationMeasurements -->
<g id="edge21" class="edge">
<title>lightning_reputation&#45;&gt;lightning_reputation::types::WeightedReputationMeasurements</title>
<path fill="none" stroke="#000000" d="M1090,-962.66C1115.43,-1028.86 1274.51,-1240.6 1352.48,-1316.48"/>
<polygon fill="#000000" stroke="#000000" points="1350.56,-1319.47 1360.22,-1323.8 1355.37,-1314.39 1350.56,-1319.47"/>
<text text-anchor="middle" x="1208.74" y="-1142.57" font-family="monospace" font-size="10.00">owns</text>
</g>
<!-- lightning_reputation&#45;&gt;lightning_reputation::types::WeightedReputationMeasurements -->
<g id="edge22" class="edge">
<title>lightning_reputation&#45;&gt;lightning_reputation::types::WeightedReputationMeasurements</title>
<path fill="none" stroke="#7f7f7f" stroke-dasharray="5,2" d="M1121.54,-962.72C1193.05,-1028.35 1351.48,-1236.93 1387.73,-1314.5"/>
<polygon fill="#7f7f7f" stroke="#7f7f7f" points="1384.53,-1315.91 1391.7,-1323.71 1390.96,-1313.14 1384.53,-1315.91"/>
<text text-anchor="middle" x="1242.14" y="-1141.61" font-family="monospace" font-size="10.00">uses</text>
</g>
<!-- lightning_reputation::types::WeightedValue -->
<g id="node24" class="node">
<title>lightning_reputation::types::WeightedValue</title>
<polygon fill="#81c169" stroke="black" points="1436.12,-1181.41 1436.12,-1219.41 1573.12,-1219.41 1573.12,-1181.41 1436.12,-1181.41"/>
<text text-anchor="middle" x="1504.62" y="-1207.41" font-family="monospace" font-size="10.00">pub trait</text>
<polyline fill="none" stroke="black" points="1436.12,-1200.41 1573.12,-1200.41 "/>
<text text-anchor="middle" x="1504.62" y="-1188.41" font-family="monospace" font-size="10.00">types::WeightedValue</text>
</g>
<!-- lightning_reputation&#45;&gt;lightning_reputation::types::WeightedValue -->
<g id="edge23" class="edge">
<title>lightning_reputation&#45;&gt;lightning_reputation::types::WeightedValue</title>
<path fill="none" stroke="#000000" d="M1098.38,-962.8C1143.52,-1011.07 1322.7,-1125.28 1427.63,-1176.86"/>
<polygon fill="#000000" stroke="#000000" points="1426.4,-1180.15 1436.93,-1181.36 1429.45,-1173.85 1426.4,-1180.15"/>
<text text-anchor="middle" x="1250.5" y="-1072.83" font-family="monospace" font-size="10.00">owns</text>
</g>
<!-- lightning_reputation&#45;&gt;lightning_reputation::types::WeightedValue -->
<g id="edge24" class="edge">
<title>lightning_reputation&#45;&gt;lightning_reputation::types::WeightedValue</title>
<path fill="none" stroke="#7f7f7f" stroke-dasharray="5,2" d="M1156.02,-962.54C1254.71,-1009.45 1431.58,-1120.92 1487.68,-1174.13"/>
<polygon fill="#7f7f7f" stroke="#7f7f7f" points="1485.23,-1176.63 1494.77,-1181.24 1490.18,-1171.69 1485.23,-1176.63"/>
<text text-anchor="middle" x="1309.35" y="-1071.34" font-family="monospace" font-size="10.00">uses</text>
</g>
<!-- lightning_reputation::calculate_normalized_measurements&#45;&gt;lightning_reputation::types::CollectedMeasurements -->
<g id="edge25" class="edge">
<title>lightning_reputation::calculate_normalized_measurements&#45;&gt;lightning_reputation::types::CollectedMeasurements</title>
<path fill="none" stroke="#7f7f7f" stroke-dasharray="5,2" d="M1006.47,-1209C1034.48,-1210.07 1064.57,-1211.21 1092.31,-1212.27"/>
<polygon fill="#7f7f7f" stroke="#7f7f7f" points="1092.28,-1215.77 1102.41,-1212.65 1092.55,-1208.78 1092.28,-1215.77"/>
<text text-anchor="middle" x="1036.89" y="-1213.64" font-family="monospace" font-size="10.00">uses</text>
</g>
<!-- lightning_reputation::calculate_normalized_measurements&#45;&gt;lightning_reputation::types::NormalizedMeasurements -->
<g id="edge26" class="edge">
<title>lightning_reputation::calculate_normalized_measurements&#45;&gt;lightning_reputation::types::NormalizedMeasurements</title>
<path fill="none" stroke="#7f7f7f" stroke-dasharray="5,2" d="M800.01,-1185.89C767.43,-1179.61 731.07,-1172.6 697.98,-1166.23"/>
<polygon fill="#7f7f7f" stroke="#7f7f7f" points="698.31,-1162.72 687.83,-1164.27 696.98,-1169.6 698.31,-1162.72"/>
<text text-anchor="middle" x="736.5" y="-1179.06" font-family="monospace" font-size="10.00">uses</text>
</g>
<!-- lightning_reputation::calculate_reputation_scores&#45;&gt;lightning_reputation::types::MinMaxValues -->
<g id="edge27" class="edge">
<title>lightning_reputation::calculate_reputation_scores&#45;&gt;lightning_reputation::types::MinMaxValues</title>
<path fill="none" stroke="#7f7f7f" stroke-dasharray="5,2" d="M771.06,-793.78C745.59,-827.67 692.63,-898.11 663.4,-936.99"/>
<polygon fill="#7f7f7f" stroke="#7f7f7f" points="660.4,-935.15 657.19,-945.24 666,-939.35 660.4,-935.15"/>
<text text-anchor="middle" x="704.73" y="-868.39" font-family="monospace" font-size="10.00">uses</text>
</g>
<!-- lightning_reputation::types::MinMaxValues&#45;&gt;lightning_reputation::types::Values -->
<g id="edge28" class="edge">
<title>lightning_reputation::types::MinMaxValues&#45;&gt;lightning_reputation::types::Values</title>
<path fill="none" stroke="#7f7f7f" stroke-dasharray="5,2" d="M649.14,-983.57C665.09,-1033 707.46,-1164.3 726.38,-1222.92"/>
<polygon fill="#7f7f7f" stroke="#7f7f7f" points="723.12,-1224.22 729.52,-1232.66 729.78,-1222.07 723.12,-1224.22"/>
<text text-anchor="middle" x="675.26" y="-1106.24" font-family="monospace" font-size="10.00">uses</text>
</g>
<!-- lightning_reputation::types::NormalizedMeasurements::calculate_score -->
<g id="node17" class="node">
<title>lightning_reputation::types::NormalizedMeasurements::calculate_score</title>
<polygon fill="#81c169" stroke="black" points="0,-925.36 0,-963.36 293,-963.36 293,-925.36 0,-925.36"/>
<text text-anchor="middle" x="146.5" y="-951.36" font-family="monospace" font-size="10.00">pub fn</text>
<polyline fill="none" stroke="black" points="0,-944.36 293,-944.36 "/>
<text text-anchor="middle" x="146.5" y="-932.36" font-family="monospace" font-size="10.00">types::NormalizedMeasurements::calculate_score</text>
</g>
<!-- lightning_reputation::types::NormalizedMeasurements&#45;&gt;lightning_reputation::types::NormalizedMeasurements::calculate_score -->
<g id="edge29" class="edge">
<title>lightning_reputation::types::NormalizedMeasurements&#45;&gt;lightning_reputation::types::NormalizedMeasurements::calculate_score</title>
<path fill="none" stroke="#000000" d="M578.48,-1126.83C529.3,-1087.38 362.77,-1008.09 251.32,-966.92"/>
<polygon fill="#000000" stroke="#000000" points="252.32,-963.56 241.72,-963.42 249.92,-970.13 252.32,-963.56"/>
<text text-anchor="middle" x="402.4" y="-1049.88" font-family="monospace" font-size="10.00">owns</text>
</g>
<!-- lightning_reputation::types::NormalizedMeasurements::get_uptime -->
<g id="node18" class="node">
<title>lightning_reputation::types::NormalizedMeasurements::get_uptime</title>
<polygon fill="#81c169" stroke="black" points="296.04,-1602.37 296.04,-1640.37 559.04,-1640.37 559.04,-1602.37 296.04,-1602.37"/>
<text text-anchor="middle" x="427.54" y="-1628.37" font-family="monospace" font-size="10.00">pub fn</text>
<polyline fill="none" stroke="black" points="296.04,-1621.37 559.04,-1621.37 "/>
<text text-anchor="middle" x="427.54" y="-1609.37" font-family="monospace" font-size="10.00">types::NormalizedMeasurements::get_uptime</text>
</g>
<!-- lightning_reputation::types::NormalizedMeasurements&#45;&gt;lightning_reputation::types::NormalizedMeasurements::get_uptime -->
<g id="edge30" class="edge">
<title>lightning_reputation::types::NormalizedMeasurements&#45;&gt;lightning_reputation::types::NormalizedMeasurements::get_uptime</title>
<path fill="none" stroke="#000000" d="M572.38,-1165.01C526.52,-1238.84 434.91,-1502.85 424.01,-1591.97"/>
<polygon fill="#000000" stroke="#000000" points="420.5,-1591.9 423.08,-1602.18 427.48,-1592.54 420.5,-1591.9"/>
<text text-anchor="middle" x="485.7" y="-1381.49" font-family="monospace" font-size="10.00">owns</text>
</g>
<!-- lightning_reputation::types::NormalizedMeasurements::normalize -->
<g id="node19" class="node">
<title>lightning_reputation::types::NormalizedMeasurements::normalize</title>
<polygon fill="#81c169" stroke="black" points="170.18,-1239.89 170.18,-1277.89 427.18,-1277.89 427.18,-1239.89 170.18,-1239.89"/>
<text text-anchor="middle" x="298.68" y="-1265.89" font-family="monospace" font-size="10.00">pub fn</text>
<polyline fill="none" stroke="black" points="170.18,-1258.89 427.18,-1258.89 "/>
<text text-anchor="middle" x="298.68" y="-1246.89" font-family="monospace" font-size="10.00">types::NormalizedMeasurements::normalize</text>
</g>
<!-- lightning_reputation::types::NormalizedMeasurements&#45;&gt;lightning_reputation::types::NormalizedMeasurements::normalize -->
<g id="edge31" class="edge">
<title>lightning_reputation::types::NormalizedMeasurements&#45;&gt;lightning_reputation::types::NormalizedMeasurements::normalize</title>
<path fill="none" stroke="#000000" d="M496.43,-1156.08C433.37,-1175.46 356.1,-1208.27 319.47,-1233.37"/>
<polygon fill="#000000" stroke="#000000" points="317.03,-1230.82 311.06,-1239.57 321.19,-1236.45 317.03,-1230.82"/>
<text text-anchor="middle" x="395.45" y="-1197.72" font-family="monospace" font-size="10.00">owns</text>
</g>
<!-- lightning_reputation::types::NormalizedMeasurements::calculate_score&#45;&gt;lightning_reputation::types::NormalizedMeasurements -->
<g id="edge32" class="edge">
<title>lightning_reputation::types::NormalizedMeasurements::calculate_score&#45;&gt;lightning_reputation::types::NormalizedMeasurements</title>
<path fill="none" stroke="#7f7f7f" stroke-dasharray="5,2" d="M160.29,-963.38C209.46,-1002.84 376,-1082.12 487.44,-1123.29"/>
<polygon fill="#7f7f7f" stroke="#7f7f7f" points="486.44,-1126.66 497.04,-1126.8 488.84,-1120.08 486.44,-1126.66"/>
<text text-anchor="middle" x="311.36" y="-1046.34" font-family="monospace" font-size="10.00">uses</text>
</g>
<!-- lightning_reputation::types::NormalizedMeasurements::get_uptime&#45;&gt;lightning_reputation::types::NormalizedMeasurements -->
<g id="edge33" class="edge">
<title>lightning_reputation::types::NormalizedMeasurements::get_uptime&#45;&gt;lightning_reputation::types::NormalizedMeasurements</title>
<path fill="none" stroke="#7f7f7f" stroke-dasharray="5,2" d="M447.43,-1602.21C493.28,-1528.38 584.89,-1264.36 595.79,-1175.25"/>
<polygon fill="#7f7f7f" stroke="#7f7f7f" points="599.3,-1175.32 596.73,-1165.04 592.33,-1174.68 599.3,-1175.32"/>
<text text-anchor="middle" x="534.11" y="-1391.73" font-family="monospace" font-size="10.00">uses</text>
</g>
<!-- lightning_reputation::types::NormalizedMeasurements::normalize&#45;&gt;lightning_reputation::types::MinMaxValues -->
<g id="edge34" class="edge">
<title>lightning_reputation::types::NormalizedMeasurements::normalize&#45;&gt;lightning_reputation::types::MinMaxValues</title>
<path fill="none" stroke="#7f7f7f" stroke-dasharray="5,2" d="M321,-1239.78C380.84,-1188.56 544.91,-1048.12 612.84,-989.98"/>
<polygon fill="#7f7f7f" stroke="#7f7f7f" points="615.32,-992.47 620.64,-983.31 610.76,-987.15 615.32,-992.47"/>
<text text-anchor="middle" x="454.42" y="-1117.88" font-family="monospace" font-size="10.00">uses</text>
</g>
<!-- lightning_reputation::types::NormalizedMeasurements::normalize&#45;&gt;lightning_reputation::types::NormalizedMeasurements -->
<g id="edge35" class="edge">
<title>lightning_reputation::types::NormalizedMeasurements::normalize&#45;&gt;lightning_reputation::types::NormalizedMeasurements</title>
<path fill="none" stroke="#7f7f7f" stroke-dasharray="5,2" d="M421.66,-1239.8C478.53,-1220.2 540.27,-1192.82 571.71,-1171.21"/>
<polygon fill="#7f7f7f" stroke="#7f7f7f" points="574.15,-1173.76 580.1,-1164.99 569.98,-1168.13 574.15,-1173.76"/>
<text text-anchor="middle" x="484.19" y="-1208.5" font-family="monospace" font-size="10.00">uses</text>
</g>
<!-- lightning_reputation::types::NormalizedMeasurements::normalize&#45;&gt;lightning_reputation::types::Values -->
<g id="edge36" class="edge">
<title>lightning_reputation::types::NormalizedMeasurements::normalize&#45;&gt;lightning_reputation::types::Values</title>
<path fill="none" stroke="#7f7f7f" stroke-dasharray="5,2" d="M427.45,-1256.83C505.32,-1255.58 601.6,-1254.04 665.64,-1253.02"/>
<polygon fill="#7f7f7f" stroke="#7f7f7f" points="666.08,-1256.51 676.02,-1252.85 665.97,-1249.51 666.08,-1256.51"/>
<text text-anchor="middle" x="534.04" y="-1257.92" font-family="monospace" font-size="10.00">uses</text>
</g>
<!-- lightning_reputation::types::WeightedFloat::get_weighted_value -->
<g id="node22" class="node">
<title>lightning_reputation::types::WeightedFloat::get_weighted_value</title>
<polygon fill="#db5367" stroke="black" points="661.05,-0.5 661.05,-38.5 918.05,-38.5 918.05,-0.5 661.05,-0.5"/>
<text text-anchor="middle" x="789.55" y="-26.5" font-family="monospace" font-size="10.00">pub(self) fn</text>
<polyline fill="none" stroke="black" points="661.05,-19.5 918.05,-19.5 "/>
<text text-anchor="middle" x="789.55" y="-7.5" font-family="monospace" font-size="10.00">types::WeightedFloat::get_weighted_value</text>
</g>
<!-- lightning_reputation::types::WeightedFloat&#45;&gt;lightning_reputation::types::WeightedFloat::get_weighted_value -->
<g id="edge37" class="edge">
<title>lightning_reputation::types::WeightedFloat&#45;&gt;lightning_reputation::types::WeightedFloat::get_weighted_value</title>
<path fill="none" stroke="#000000" d="M900.73,-423.17C904.27,-355.64 849.5,-128.25 812.13,-47.84"/>
<polygon fill="#000000" stroke="#000000" points="815.22,-46.2 807.66,-38.78 808.94,-49.3 815.22,-46.2"/>
<text text-anchor="middle" x="843.93" y="-238.5" font-family="monospace" font-size="10.00">owns</text>
</g>
<!-- lightning_reputation::types::WeightedFloat::get_weighted_value&#45;&gt;lightning_reputation::types::WeightedFloat -->
<g id="edge38" class="edge">
<title>lightning_reputation::types::WeightedFloat::get_weighted_value&#45;&gt;lightning_reputation::types::WeightedFloat</title>
<path fill="none" stroke="#7f7f7f" stroke-dasharray="5,2" d="M782.65,-38.51C779.11,-106.04 833.87,-333.43 871.25,-413.84"/>
<polygon fill="#7f7f7f" stroke="#7f7f7f" points="868.15,-415.47 875.71,-422.89 874.43,-412.38 868.15,-415.47"/>
<text text-anchor="middle" x="814.45" y="-229.17" font-family="monospace" font-size="10.00">uses</text>
</g>
</g>
</svg>
