<?xml version="1.0" encoding="UTF-8" standalone="no"?>
<!DOCTYPE svg PUBLIC "-//W3C//DTD SVG 1.1//EN"
 "http://www.w3.org/Graphics/SVG/1.1/DTD/svg11.dtd">
<!-- Generated by graphviz version 4.0.0 (0)
 -->
<!-- Pages: 1 -->
<svg width="1519pt" height="1273pt"
 viewBox="0.00 0.00 1518.66 1272.71" xmlns="http://www.w3.org/2000/svg" xmlns:xlink="http://www.w3.org/1999/xlink">
<g id="graph0" class="graph" transform="scale(1 1) rotate(0) translate(28.8 1243.91)">
<polygon fill="white" stroke="transparent" points="-28.8,28.8 -28.8,-1243.91 1489.86,-1243.91 1489.86,28.8 -28.8,28.8"/>
<text text-anchor="middle" x="730.53" y="-1182.31" font-family="Helvetica,sans-Serif" font-size="36.00">lightning_origin_demuxer</text>
<!-- lightning_origin_demuxer -->
<g id="node1" class="node">
<title>lightning_origin_demuxer</title>
<polygon fill="#5397c8" stroke="black" points="820.81,-392.8 820.81,-430.8 981.81,-430.8 981.81,-392.8 820.81,-392.8"/>
<text text-anchor="middle" x="901.31" y="-418.8" font-family="monospace" font-size="10.00">crate</text>
<polyline fill="none" stroke="black" points="820.81,-411.8 981.81,-411.8 "/>
<text text-anchor="middle" x="901.31" y="-399.8" font-family="monospace" font-size="10.00">lightning_origin_demuxer</text>
</g>
<!-- lightning_origin_demuxer::OriginDemuxer -->
<g id="node2" class="node">
<title>lightning_origin_demuxer::OriginDemuxer</title>
<polygon fill="#81c169" stroke="black" points="403.34,-389.74 403.34,-427.74 498.34,-427.74 498.34,-389.74 403.34,-389.74"/>
<text text-anchor="middle" x="450.84" y="-415.74" font-family="monospace" font-size="10.00">pub struct</text>
<polyline fill="none" stroke="black" points="403.34,-408.74 498.34,-408.74 "/>
<text text-anchor="middle" x="450.84" y="-396.74" font-family="monospace" font-size="10.00">OriginDemuxer</text>
</g>
<!-- lightning_origin_demuxer&#45;&gt;lightning_origin_demuxer::OriginDemuxer -->
<g id="edge1" class="edge">
<title>lightning_origin_demuxer&#45;&gt;lightning_origin_demuxer::OriginDemuxer</title>
<path fill="none" stroke="#000000" d="M820.77,-411.25C731.04,-410.64 588.17,-409.67 508.8,-409.13"/>
<polygon fill="#000000" stroke="#000000" points="508.53,-405.63 498.5,-409.06 508.48,-412.63 508.53,-405.63"/>
<text text-anchor="middle" x="652.29" y="-413.19" font-family="monospace" font-size="10.00">owns</text>
</g>
<!-- lightning_origin_demuxer::Status -->
<g id="node9" class="node">
<title>lightning_origin_demuxer::Status</title>
<polygon fill="#f8c04c" stroke="black" points="763.87,-712.32 763.87,-750.32 870.87,-750.32 870.87,-712.32 763.87,-712.32"/>
<text text-anchor="middle" x="817.37" y="-738.32" font-family="monospace" font-size="10.00">pub(crate) enum</text>
<polyline fill="none" stroke="black" points="763.87,-731.32 870.87,-731.32 "/>
<text text-anchor="middle" x="817.37" y="-719.32" font-family="monospace" font-size="10.00">Status</text>
</g>
<!-- lightning_origin_demuxer&#45;&gt;lightning_origin_demuxer::Status -->
<g id="edge2" class="edge">
<title>lightning_origin_demuxer&#45;&gt;lightning_origin_demuxer::Status</title>
<path fill="none" stroke="#000000" d="M896.31,-430.83C882.2,-484.54 842,-637.55 825.06,-702.07"/>
<polygon fill="#000000" stroke="#000000" points="821.61,-701.42 822.45,-711.99 828.38,-703.2 821.61,-701.42"/>
<text text-anchor="middle" x="848.18" y="-569.45" font-family="monospace" font-size="10.00">owns</text>
</g>
<!-- lightning_origin_demuxer::config::Config -->
<g id="node10" class="node">
<title>lightning_origin_demuxer::config::Config</title>
<polygon fill="#81c169" stroke="black" points="920.07,-83.45 920.07,-121.45 1021.07,-121.45 1021.07,-83.45 920.07,-83.45"/>
<text text-anchor="middle" x="970.57" y="-109.45" font-family="monospace" font-size="10.00">pub struct</text>
<polyline fill="none" stroke="black" points="920.07,-102.45 1021.07,-102.45 "/>
<text text-anchor="middle" x="970.57" y="-90.45" font-family="monospace" font-size="10.00">config::Config</text>
</g>
<!-- lightning_origin_demuxer&#45;&gt;lightning_origin_demuxer::config::Config -->
<g id="edge3" class="edge">
<title>lightning_origin_demuxer&#45;&gt;lightning_origin_demuxer::config::Config</title>
<path fill="none" stroke="#000000" d="M920.74,-392.79C948.82,-340.35 981.84,-194.22 980.18,-131.5"/>
<polygon fill="#000000" stroke="#000000" points="983.67,-131.24 979.53,-121.49 976.68,-131.69 983.67,-131.24"/>
<text text-anchor="middle" x="937.96" y="-265.14" font-family="monospace" font-size="10.00">owns</text>
</g>
<!-- lightning_origin_demuxer&#45;&gt;lightning_origin_demuxer::config::Config -->
<g id="edge4" class="edge">
<title>lightning_origin_demuxer&#45;&gt;lightning_origin_demuxer::config::Config</title>
<path fill="none" stroke="#7f7f7f" stroke-dasharray="5,2" d="M892.34,-392.79C886.5,-340.17 917.88,-193.29 946.47,-130.91"/>
<polygon fill="#7f7f7f" stroke="#7f7f7f" points="949.75,-132.17 951.03,-121.65 943.47,-129.08 949.75,-132.17"/>
<text text-anchor="middle" x="906.91" y="-264.85" font-family="monospace" font-size="10.00">uses</text>
</g>
<!-- lightning_origin_demuxer::demuxer::Demuxer -->
<g id="node11" class="node">
<title>lightning_origin_demuxer::demuxer::Demuxer</title>
<polygon fill="#81c169" stroke="black" points="952.25,-721.91 952.25,-759.91 1065.25,-759.91 1065.25,-721.91 952.25,-721.91"/>
<text text-anchor="middle" x="1008.75" y="-747.91" font-family="monospace" font-size="10.00">pub struct</text>
<polyline fill="none" stroke="black" points="952.25,-740.91 1065.25,-740.91 "/>
<text text-anchor="middle" x="1008.75" y="-728.91" font-family="monospace" font-size="10.00">demuxer::Demuxer</text>
</g>
<!-- lightning_origin_demuxer&#45;&gt;lightning_origin_demuxer::demuxer::Demuxer -->
<g id="edge5" class="edge">
<title>lightning_origin_demuxer&#45;&gt;lightning_origin_demuxer::demuxer::Demuxer</title>
<path fill="none" stroke="#000000" d="M894.67,-431.04C894.11,-486.85 944.75,-647.17 981.53,-712.73"/>
<polygon fill="#000000" stroke="#000000" points="978.74,-714.88 986.85,-721.69 984.76,-711.3 978.74,-714.88"/>
<text text-anchor="middle" x="925.6" y="-574.89" font-family="monospace" font-size="10.00">owns</text>
</g>
<!-- lightning_origin_demuxer&#45;&gt;lightning_origin_demuxer::demuxer::Demuxer -->
<g id="edge6" class="edge">
<title>lightning_origin_demuxer&#45;&gt;lightning_origin_demuxer::demuxer::Demuxer</title>
<path fill="none" stroke="#7f7f7f" stroke-dasharray="5,2" d="M923.11,-430.87C958.17,-486.17 1010.17,-645.16 1015.03,-711.54"/>
<polygon fill="#7f7f7f" stroke="#7f7f7f" points="1011.54,-711.86 1015.39,-721.73 1018.53,-711.61 1011.54,-711.86"/>
<text text-anchor="middle" x="956.57" y="-574.2" font-family="monospace" font-size="10.00">uses</text>
</g>
<!-- lightning_origin_demuxer::OriginDemuxer::Config -->
<g id="node3" class="node">
<title>lightning_origin_demuxer::OriginDemuxer::Config</title>
<polygon fill="#f8c04c" stroke="black" points="521.67,-0.5 521.67,-38.5 664.67,-38.5 664.67,-0.5 521.67,-0.5"/>
<text text-anchor="middle" x="593.17" y="-26.5" font-family="monospace" font-size="10.00">pub(crate) type</text>
<polyline fill="none" stroke="black" points="521.67,-19.5 664.67,-19.5 "/>
<text text-anchor="middle" x="593.17" y="-7.5" font-family="monospace" font-size="10.00">OriginDemuxer::Config</text>
</g>
<!-- lightning_origin_demuxer::OriginDemuxer&#45;&gt;lightning_origin_demuxer::OriginDemuxer::Config -->
<g id="edge7" class="edge">
<title>lightning_origin_demuxer::OriginDemuxer&#45;&gt;lightning_origin_demuxer::OriginDemuxer::Config</title>
<path fill="none" stroke="#000000" d="M457.8,-389.7C480.88,-326.58 554.99,-123.91 582.64,-48.3"/>
<polygon fill="#000000" stroke="#000000" points="586.08,-49.09 586.22,-38.5 579.5,-46.69 586.08,-49.09"/>
<text text-anchor="middle" x="507.72" y="-222" font-family="monospace" font-size="10.00">owns</text>
</g>
<!-- lightning_origin_demuxer::OriginDemuxer::get_socket -->
<g id="node4" class="node">
<title>lightning_origin_demuxer::OriginDemuxer::get_socket</title>
<polygon fill="#f8c04c" stroke="black" points="0,-511.52 0,-549.52 167,-549.52 167,-511.52 0,-511.52"/>
<text text-anchor="middle" x="83.5" y="-537.52" font-family="monospace" font-size="10.00">pub(crate) fn</text>
<polyline fill="none" stroke="black" points="0,-530.52 167,-530.52 "/>
<text text-anchor="middle" x="83.5" y="-518.52" font-family="monospace" font-size="10.00">OriginDemuxer::get_socket</text>
</g>
<!-- lightning_origin_demuxer::OriginDemuxer&#45;&gt;lightning_origin_demuxer::OriginDemuxer::get_socket -->
<g id="edge8" class="edge">
<title>lightning_origin_demuxer::OriginDemuxer&#45;&gt;lightning_origin_demuxer::OriginDemuxer::get_socket</title>
<path fill="none" stroke="#000000" d="M403.04,-405.64C323.73,-418.44 168.2,-470.88 107.93,-506.11"/>
<polygon fill="#000000" stroke="#000000" points="106.07,-503.15 99.42,-511.4 109.77,-509.09 106.07,-503.15"/>
<text text-anchor="middle" x="242.99" y="-458.88" font-family="monospace" font-size="10.00">owns</text>
</g>
<!-- lightning_origin_demuxer::OriginDemuxer::init -->
<g id="node5" class="node">
<title>lightning_origin_demuxer::OriginDemuxer::init</title>
<polygon fill="#f8c04c" stroke="black" points="681.79,-406.46 681.79,-444.46 812.79,-444.46 812.79,-406.46 681.79,-406.46"/>
<text text-anchor="middle" x="747.29" y="-432.46" font-family="monospace" font-size="10.00">pub(crate) fn</text>
<polyline fill="none" stroke="black" points="681.79,-425.46 812.79,-425.46 "/>
<text text-anchor="middle" x="747.29" y="-413.46" font-family="monospace" font-size="10.00">OriginDemuxer::init</text>
</g>
<!-- lightning_origin_demuxer::OriginDemuxer&#45;&gt;lightning_origin_demuxer::OriginDemuxer::init -->
<g id="edge9" class="edge">
<title>lightning_origin_demuxer::OriginDemuxer&#45;&gt;lightning_origin_demuxer::OriginDemuxer::init</title>
<path fill="none" stroke="#000000" d="M480.75,-427.74C525.2,-440.51 610.08,-447.44 672.16,-444.98"/>
<polygon fill="#000000" stroke="#000000" points="672.48,-448.46 682.3,-444.48 672.14,-441.47 672.48,-448.46"/>
<text text-anchor="middle" x="563.95" y="-439.36" font-family="monospace" font-size="10.00">owns</text>
</g>
<!-- lightning_origin_demuxer::OriginDemuxer::is_running -->
<g id="node6" class="node">
<title>lightning_origin_demuxer::OriginDemuxer::is_running</title>
<polygon fill="#f8c04c" stroke="black" points="82.9,-158.68 82.9,-196.68 249.9,-196.68 249.9,-158.68 82.9,-158.68"/>
<text text-anchor="middle" x="166.4" y="-184.68" font-family="monospace" font-size="10.00">pub(crate) fn</text>
<polyline fill="none" stroke="black" points="82.9,-177.68 249.9,-177.68 "/>
<text text-anchor="middle" x="166.4" y="-165.68" font-family="monospace" font-size="10.00">OriginDemuxer::is_running</text>
</g>
<!-- lightning_origin_demuxer::OriginDemuxer&#45;&gt;lightning_origin_demuxer::OriginDemuxer::is_running -->
<g id="edge10" class="edge">
<title>lightning_origin_demuxer::OriginDemuxer&#45;&gt;lightning_origin_demuxer::OriginDemuxer::is_running</title>
<path fill="none" stroke="#000000" d="M446.07,-389.64C418.68,-346.31 304.61,-249.61 230.47,-202.36"/>
<polygon fill="#000000" stroke="#000000" points="231.97,-199.17 221.63,-196.85 228.27,-205.11 231.97,-199.17"/>
<text text-anchor="middle" x="325.77" y="-299" font-family="monospace" font-size="10.00">owns</text>
</g>
<!-- lightning_origin_demuxer::OriginDemuxer::shutdown -->
<g id="node7" class="node">
<title>lightning_origin_demuxer::OriginDemuxer::shutdown</title>
<polygon fill="#f8c04c" stroke="black" points="499.61,-685.81 499.61,-723.81 654.61,-723.81 654.61,-685.81 499.61,-685.81"/>
<text text-anchor="middle" x="577.11" y="-711.81" font-family="monospace" font-size="10.00">pub(crate) async fn</text>
<polyline fill="none" stroke="black" points="499.61,-704.81 654.61,-704.81 "/>
<text text-anchor="middle" x="577.11" y="-692.81" font-family="monospace" font-size="10.00">OriginDemuxer::shutdown</text>
</g>
<!-- lightning_origin_demuxer::OriginDemuxer&#45;&gt;lightning_origin_demuxer::OriginDemuxer::shutdown -->
<g id="edge11" class="edge">
<title>lightning_origin_demuxer::OriginDemuxer&#45;&gt;lightning_origin_demuxer::OriginDemuxer::shutdown</title>
<path fill="none" stroke="#000000" d="M445.49,-427.9C448.61,-479.27 505.52,-617.54 545.64,-677.23"/>
<polygon fill="#000000" stroke="#000000" points="542.81,-679.29 551.43,-685.45 548.53,-675.26 542.81,-679.29"/>
<text text-anchor="middle" x="483.06" y="-555.56" font-family="monospace" font-size="10.00">owns</text>
</g>
<!-- lightning_origin_demuxer::OriginDemuxer::start -->
<g id="node8" class="node">
<title>lightning_origin_demuxer::OriginDemuxer::start</title>
<polygon fill="#f8c04c" stroke="black" points="516.8,-821.21 516.8,-859.21 653.8,-859.21 653.8,-821.21 516.8,-821.21"/>
<text text-anchor="middle" x="585.3" y="-847.21" font-family="monospace" font-size="10.00">pub(crate) async fn</text>
<polyline fill="none" stroke="black" points="516.8,-840.21 653.8,-840.21 "/>
<text text-anchor="middle" x="585.3" y="-828.21" font-family="monospace" font-size="10.00">OriginDemuxer::start</text>
</g>
<!-- lightning_origin_demuxer::OriginDemuxer&#45;&gt;lightning_origin_demuxer::OriginDemuxer::start -->
<g id="edge12" class="edge">
<title>lightning_origin_demuxer::OriginDemuxer&#45;&gt;lightning_origin_demuxer::OriginDemuxer::start</title>
<path fill="none" stroke="#000000" d="M445.27,-427.88C445.97,-496.75 517.27,-730.21 560.59,-811.9"/>
<polygon fill="#000000" stroke="#000000" points="557.79,-814.07 565.73,-821.09 563.9,-810.65 557.79,-814.07"/>
<text text-anchor="middle" x="490.43" y="-622.89" font-family="monospace" font-size="10.00">owns</text>
</g>
<!-- lightning_origin_demuxer::OriginDemuxer::Config&#45;&gt;lightning_origin_demuxer::config::Config -->
<g id="edge13" class="edge">
<title>lightning_origin_demuxer::OriginDemuxer::Config&#45;&gt;lightning_origin_demuxer::config::Config</title>
<path fill="none" stroke="#7f7f7f" stroke-dasharray="5,2" d="M665.04,-35.3C735.94,-50.88 843.1,-74.43 909.85,-89.1"/>
<polygon fill="#7f7f7f" stroke="#7f7f7f" points="909.28,-92.56 919.8,-91.29 910.78,-85.72 909.28,-92.56"/>
<text text-anchor="middle" x="774.95" y="-65.2" font-family="monospace" font-size="10.00">uses</text>
</g>
<!-- lightning_origin_demuxer::OriginDemuxer::get_socket&#45;&gt;lightning_origin_demuxer::OriginDemuxer -->
<g id="edge14" class="edge">
<title>lightning_origin_demuxer::OriginDemuxer::get_socket&#45;&gt;lightning_origin_demuxer::OriginDemuxer</title>
<path fill="none" stroke="#7f7f7f" stroke-dasharray="5,2" d="M167.11,-526.41C250.72,-507.01 373.99,-463.72 426.23,-433.24"/>
<polygon fill="#7f7f7f" stroke="#7f7f7f" points="428.2,-436.15 434.85,-427.9 424.51,-430.2 428.2,-436.15"/>
<text text-anchor="middle" x="284.17" y="-482.83" font-family="monospace" font-size="10.00">uses</text>
</g>
<!-- lightning_origin_demuxer::OriginDemuxer::init&#45;&gt;lightning_origin_demuxer::OriginDemuxer -->
<g id="edge15" class="edge">
<title>lightning_origin_demuxer::OriginDemuxer::init&#45;&gt;lightning_origin_demuxer::OriginDemuxer</title>
<path fill="none" stroke="#7f7f7f" stroke-dasharray="5,2" d="M717.38,-406.46C668.63,-392.46 571.25,-385.47 508.66,-390.21"/>
<polygon fill="#7f7f7f" stroke="#7f7f7f" points="508.19,-386.73 498.54,-391.11 508.81,-393.71 508.19,-386.73"/>
<text text-anchor="middle" x="600.52" y="-401.33" font-family="monospace" font-size="10.00">uses</text>
</g>
<!-- lightning_origin_demuxer::OriginDemuxer::init&#45;&gt;lightning_origin_demuxer::Status -->
<g id="edge16" class="edge">
<title>lightning_origin_demuxer::OriginDemuxer::init&#45;&gt;lightning_origin_demuxer::Status</title>
<path fill="none" stroke="#7f7f7f" stroke-dasharray="5,2" d="M751.67,-444.6C763.57,-496.52 796.52,-640.33 810.72,-702.3"/>
<polygon fill="#7f7f7f" stroke="#7f7f7f" points="807.34,-703.23 812.99,-712.2 814.17,-701.67 807.34,-703.23"/>
<text text-anchor="middle" x="768.7" y="-576.45" font-family="monospace" font-size="10.00">uses</text>
</g>
<!-- lightning_origin_demuxer::OriginDemuxer::init&#45;&gt;lightning_origin_demuxer::config::Config -->
<g id="edge17" class="edge">
<title>lightning_origin_demuxer::OriginDemuxer::init&#45;&gt;lightning_origin_demuxer::config::Config</title>
<path fill="none" stroke="#7f7f7f" stroke-dasharray="5,2" d="M760.59,-406.23C798.52,-351.35 907.32,-193.94 951.54,-129.97"/>
<polygon fill="#7f7f7f" stroke="#7f7f7f" points="954.53,-131.8 957.34,-121.58 948.77,-127.82 954.53,-131.8"/>
<text text-anchor="middle" x="843.57" y="-271.1" font-family="monospace" font-size="10.00">uses</text>
</g>
<!-- lightning_origin_demuxer::OriginDemuxer::init&#45;&gt;lightning_origin_demuxer::demuxer::Demuxer -->
<g id="edge18" class="edge">
<title>lightning_origin_demuxer::OriginDemuxer::init&#45;&gt;lightning_origin_demuxer::demuxer::Demuxer</title>
<path fill="none" stroke="#7f7f7f" stroke-dasharray="5,2" d="M763.25,-444.72C808.03,-498.75 934.92,-651.83 986.52,-714.09"/>
<polygon fill="#7f7f7f" stroke="#7f7f7f" points="983.92,-716.44 993,-721.9 989.31,-711.97 983.92,-716.44"/>
<text text-anchor="middle" x="862.38" y="-582.4" font-family="monospace" font-size="10.00">uses</text>
</g>
<!-- lightning_origin_demuxer::OriginDemuxer::is_running&#45;&gt;lightning_origin_demuxer::OriginDemuxer -->
<g id="edge19" class="edge">
<title>lightning_origin_demuxer::OriginDemuxer::is_running&#45;&gt;lightning_origin_demuxer::OriginDemuxer</title>
<path fill="none" stroke="#7f7f7f" stroke-dasharray="5,2" d="M171.17,-196.78C199.53,-241.63 320.77,-343.69 394.45,-388.86"/>
<polygon fill="#7f7f7f" stroke="#7f7f7f" points="392.81,-391.95 403.19,-394.08 396.4,-385.94 392.81,-391.95"/>
<text text-anchor="middle" x="270.31" y="-295.82" font-family="monospace" font-size="10.00">uses</text>
</g>
<!-- lightning_origin_demuxer::OriginDemuxer::shutdown&#45;&gt;lightning_origin_demuxer::OriginDemuxer -->
<g id="edge20" class="edge">
<title>lightning_origin_demuxer::OriginDemuxer::shutdown&#45;&gt;lightning_origin_demuxer::OriginDemuxer</title>
<path fill="none" stroke="#7f7f7f" stroke-dasharray="5,2" d="M582.46,-685.65C579.34,-634.28 522.43,-496 482.31,-436.31"/>
<polygon fill="#7f7f7f" stroke="#7f7f7f" points="485.14,-434.26 476.52,-428.1 479.42,-438.29 485.14,-434.26"/>
<text text-anchor="middle" x="519.88" y="-563.98" font-family="monospace" font-size="10.00">uses</text>
</g>
<!-- lightning_origin_demuxer::OriginDemuxer::shutdown&#45;&gt;lightning_origin_demuxer::Status -->
<g id="edge21" class="edge">
<title>lightning_origin_demuxer::OriginDemuxer::shutdown&#45;&gt;lightning_origin_demuxer::Status</title>
<path fill="none" stroke="#7f7f7f" stroke-dasharray="5,2" d="M654.78,-713.38C686.69,-716.9 723.17,-720.93 753.49,-724.27"/>
<polygon fill="#7f7f7f" stroke="#7f7f7f" points="753.19,-727.76 763.52,-725.38 753.96,-720.8 753.19,-727.76"/>
<text text-anchor="middle" x="691.64" y="-721.83" font-family="monospace" font-size="10.00">uses</text>
</g>
<!-- lightning_origin_demuxer::OriginDemuxer::shutdown&#45;&gt;lightning_origin_demuxer::demuxer::Demuxer -->
<g id="edge22" class="edge">
<title>lightning_origin_demuxer::OriginDemuxer::shutdown&#45;&gt;lightning_origin_demuxer::demuxer::Demuxer</title>
<path fill="none" stroke="#7f7f7f" stroke-dasharray="5,2" d="M654.78,-711.3C736.66,-718.15 864.31,-728.83 941.87,-735.32"/>
<polygon fill="#7f7f7f" stroke="#7f7f7f" points="941.75,-738.82 952.01,-736.16 942.33,-731.84 941.75,-738.82"/>
<text text-anchor="middle" x="785.82" y="-726.31" font-family="monospace" font-size="10.00">uses</text>
</g>
<!-- lightning_origin_demuxer::OriginDemuxer::start&#45;&gt;lightning_origin_demuxer::OriginDemuxer -->
<g id="edge23" class="edge">
<title>lightning_origin_demuxer::OriginDemuxer::start&#45;&gt;lightning_origin_demuxer::OriginDemuxer</title>
<path fill="none" stroke="#7f7f7f" stroke-dasharray="5,2" d="M590.87,-821.07C590.18,-752.2 518.88,-518.74 475.56,-437.05"/>
<polygon fill="#7f7f7f" stroke="#7f7f7f" points="478.35,-434.88 470.42,-427.86 472.24,-438.3 478.35,-434.88"/>
<text text-anchor="middle" x="520.71" y="-632.06" font-family="monospace" font-size="10.00">uses</text>
</g>
<!-- lightning_origin_demuxer::OriginDemuxer::start&#45;&gt;lightning_origin_demuxer::Status -->
<g id="edge24" class="edge">
<title>lightning_origin_demuxer::OriginDemuxer::start&#45;&gt;lightning_origin_demuxer::Status</title>
<path fill="none" stroke="#7f7f7f" stroke-dasharray="5,2" d="M625.99,-821.12C665.39,-802.63 725.21,-774.57 767.46,-754.74"/>
<polygon fill="#7f7f7f" stroke="#7f7f7f" points="769.16,-757.81 776.73,-750.39 766.19,-751.47 769.16,-757.81"/>
<text text-anchor="middle" x="684.23" y="-790.93" font-family="monospace" font-size="10.00">uses</text>
</g>
<!-- lightning_origin_demuxer::OriginDemuxer::start&#45;&gt;lightning_origin_demuxer::demuxer::Demuxer -->
<g id="edge25" class="edge">
<title>lightning_origin_demuxer::OriginDemuxer::start&#45;&gt;lightning_origin_demuxer::demuxer::Demuxer</title>
<path fill="none" stroke="#7f7f7f" stroke-dasharray="5,2" d="M653.81,-824.15C733.38,-805.49 863.77,-774.91 942.41,-756.47"/>
<polygon fill="#7f7f7f" stroke="#7f7f7f" points="943.27,-759.86 952.21,-754.17 941.67,-753.05 943.27,-759.86"/>
<text text-anchor="middle" x="785.61" y="-793.31" font-family="monospace" font-size="10.00">uses</text>
</g>
<!-- lightning_origin_demuxer::Status&#45;&gt;lightning_origin_demuxer::demuxer::Demuxer -->
<g id="edge26" class="edge">
<title>lightning_origin_demuxer::Status&#45;&gt;lightning_origin_demuxer::demuxer::Demuxer</title>
<path fill="none" stroke="#7f7f7f" stroke-dasharray="5,2" d="M870.94,-734C892.99,-735.11 918.78,-736.4 942.05,-737.57"/>
<polygon fill="#7f7f7f" stroke="#7f7f7f" points="942.03,-741.07 952.19,-738.08 942.38,-734.08 942.03,-741.07"/>
<text text-anchor="middle" x="893.99" y="-738.79" font-family="monospace" font-size="10.00">uses</text>
</g>
<!-- lightning_origin_demuxer::demuxer::Demuxer::handle -->
<g id="node12" class="node">
<title>lightning_origin_demuxer::demuxer::Demuxer::handle</title>
<polygon fill="#db5367" stroke="black" points="881.16,-1128.61 881.16,-1166.61 1042.16,-1166.61 1042.16,-1128.61 881.16,-1128.61"/>
<text text-anchor="middle" x="961.66" y="-1154.61" font-family="monospace" font-size="10.00">pub(self) fn</text>
<polyline fill="none" stroke="black" points="881.16,-1147.61 1042.16,-1147.61 "/>
<text text-anchor="middle" x="961.66" y="-1135.61" font-family="monospace" font-size="10.00">demuxer::Demuxer::handle</text>
</g>
<!-- lightning_origin_demuxer::demuxer::Demuxer&#45;&gt;lightning_origin_demuxer::demuxer::Demuxer::handle -->
<g id="edge27" class="edge">
<title>lightning_origin_demuxer::demuxer::Demuxer&#45;&gt;lightning_origin_demuxer::demuxer::Demuxer::handle</title>
<path fill="none" stroke="#000000" d="M993.69,-760.17C967.58,-825.61 942.24,-1039.44 950.49,-1118.18"/>
<polygon fill="#000000" stroke="#000000" points="947.06,-1118.93 951.88,-1128.37 953.99,-1117.99 947.06,-1118.93"/>
<text text-anchor="middle" x="959.59" y="-942.18" font-family="monospace" font-size="10.00">owns</text>
</g>
<!-- lightning_origin_demuxer::demuxer::Demuxer::new -->
<g id="node13" class="node">
<title>lightning_origin_demuxer::demuxer::Demuxer::new</title>
<polygon fill="#81c169" stroke="black" points="1163.11,-366.42 1163.11,-404.42 1306.11,-404.42 1306.11,-366.42 1163.11,-366.42"/>
<text text-anchor="middle" x="1234.61" y="-392.42" font-family="monospace" font-size="10.00">pub fn</text>
<polyline fill="none" stroke="black" points="1163.11,-385.42 1306.11,-385.42 "/>
<text text-anchor="middle" x="1234.61" y="-373.42" font-family="monospace" font-size="10.00">demuxer::Demuxer::new</text>
</g>
<!-- lightning_origin_demuxer::demuxer::Demuxer&#45;&gt;lightning_origin_demuxer::demuxer::Demuxer::new -->
<g id="edge28" class="edge">
<title>lightning_origin_demuxer::demuxer::Demuxer&#45;&gt;lightning_origin_demuxer::demuxer::Demuxer::new</title>
<path fill="none" stroke="#000000" d="M1038.96,-721.77C1095.92,-662.26 1207.76,-485.33 1232.5,-414.45"/>
<polygon fill="#000000" stroke="#000000" points="1235.87,-415.38 1235.5,-404.79 1229.19,-413.3 1235.87,-415.38"/>
<text text-anchor="middle" x="1123.23" y="-571.11" font-family="monospace" font-size="10.00">owns</text>
</g>
<!-- lightning_origin_demuxer::demuxer::Demuxer::spawn -->
<g id="node14" class="node">
<title>lightning_origin_demuxer::demuxer::Demuxer::spawn</title>
<polygon fill="#81c169" stroke="black" points="1306.06,-738.6 1306.06,-776.6 1461.06,-776.6 1461.06,-738.6 1306.06,-738.6"/>
<text text-anchor="middle" x="1383.56" y="-764.6" font-family="monospace" font-size="10.00">pub fn</text>
<polyline fill="none" stroke="black" points="1306.06,-757.6 1461.06,-757.6 "/>
<text text-anchor="middle" x="1383.56" y="-745.6" font-family="monospace" font-size="10.00">demuxer::Demuxer::spawn</text>
</g>
<!-- lightning_origin_demuxer::demuxer::Demuxer&#45;&gt;lightning_origin_demuxer::demuxer::Demuxer::spawn -->
<g id="edge29" class="edge">
<title>lightning_origin_demuxer::demuxer::Demuxer&#45;&gt;lightning_origin_demuxer::demuxer::Demuxer::spawn</title>
<path fill="none" stroke="#000000" d="M1047.03,-759.92C1105.06,-773.04 1216.85,-779.99 1295.63,-776.91"/>
<polygon fill="#000000" stroke="#000000" points="1296.2,-780.39 1306.03,-776.43 1295.88,-773.39 1296.2,-780.39"/>
<text text-anchor="middle" x="1158.83" y="-771.42" font-family="monospace" font-size="10.00">owns</text>
</g>
<!-- lightning_origin_demuxer::demuxer::Demuxer::start -->
<g id="node15" class="node">
<title>lightning_origin_demuxer::demuxer::Demuxer::start</title>
<polygon fill="#db5367" stroke="black" points="1160.2,-1008.16 1160.2,-1046.16 1315.2,-1046.16 1315.2,-1008.16 1160.2,-1008.16"/>
<text text-anchor="middle" x="1237.7" y="-1034.16" font-family="monospace" font-size="10.00">pub(self) async fn</text>
<polyline fill="none" stroke="black" points="1160.2,-1027.16 1315.2,-1027.16 "/>
<text text-anchor="middle" x="1237.7" y="-1015.16" font-family="monospace" font-size="10.00">demuxer::Demuxer::start</text>
</g>
<!-- lightning_origin_demuxer::demuxer::Demuxer&#45;&gt;lightning_origin_demuxer::demuxer::Demuxer::start -->
<g id="edge30" class="edge">
<title>lightning_origin_demuxer::demuxer::Demuxer&#45;&gt;lightning_origin_demuxer::demuxer::Demuxer::start</title>
<path fill="none" stroke="#000000" d="M1009.2,-760.12C1027.5,-811.2 1130.3,-943.66 1192.54,-1001.14"/>
<polygon fill="#000000" stroke="#000000" points="1190.51,-1004.02 1200.29,-1008.09 1195.18,-998.81 1190.51,-1004.02"/>
<text text-anchor="middle" x="1088.37" y="-883.63" font-family="monospace" font-size="10.00">owns</text>
</g>
<!-- lightning_origin_demuxer::demuxer::Demuxer::handle&#45;&gt;lightning_origin_demuxer::demuxer::Demuxer -->
<g id="edge31" class="edge">
<title>lightning_origin_demuxer::demuxer::Demuxer::handle&#45;&gt;lightning_origin_demuxer::demuxer::Demuxer</title>
<path fill="none" stroke="#7f7f7f" stroke-dasharray="5,2" d="M976.72,-1128.34C1002.83,-1062.9 1028.17,-849.08 1019.92,-770.33"/>
<polygon fill="#7f7f7f" stroke="#7f7f7f" points="1023.35,-769.58 1018.53,-760.15 1016.42,-770.53 1023.35,-769.58"/>
<text text-anchor="middle" x="985.82" y="-952.34" font-family="monospace" font-size="10.00">uses</text>
</g>
<!-- lightning_origin_demuxer::demuxer::Demuxer::new&#45;&gt;lightning_origin_demuxer::config::Config -->
<g id="edge32" class="edge">
<title>lightning_origin_demuxer::demuxer::Demuxer::new&#45;&gt;lightning_origin_demuxer::config::Config</title>
<path fill="none" stroke="#7f7f7f" stroke-dasharray="5,2" d="M1216.88,-366.41C1171.05,-317.3 1048.56,-186.03 995.57,-129.24"/>
<polygon fill="#7f7f7f" stroke="#7f7f7f" points="997.95,-126.67 988.57,-121.74 992.83,-131.44 997.95,-126.67"/>
<text text-anchor="middle" x="1093.73" y="-250.83" font-family="monospace" font-size="10.00">uses</text>
</g>
<!-- lightning_origin_demuxer::demuxer::Demuxer::new&#45;&gt;lightning_origin_demuxer::demuxer::Demuxer -->
<g id="edge33" class="edge">
<title>lightning_origin_demuxer::demuxer::Demuxer::new&#45;&gt;lightning_origin_demuxer::demuxer::Demuxer</title>
<path fill="none" stroke="#7f7f7f" stroke-dasharray="5,2" d="M1204.41,-404.55C1147.45,-464.07 1035.61,-641 1010.87,-711.88"/>
<polygon fill="#7f7f7f" stroke="#7f7f7f" points="1007.49,-710.95 1007.87,-721.54 1014.18,-713.03 1007.49,-710.95"/>
<text text-anchor="middle" x="1095.14" y="-561.22" font-family="monospace" font-size="10.00">uses</text>
</g>
<!-- lightning_origin_demuxer::demuxer::Demuxer::spawn&#45;&gt;lightning_origin_demuxer::demuxer::Demuxer -->
<g id="edge34" class="edge">
<title>lightning_origin_demuxer::demuxer::Demuxer::spawn&#45;&gt;lightning_origin_demuxer::demuxer::Demuxer</title>
<path fill="none" stroke="#7f7f7f" stroke-dasharray="5,2" d="M1345.28,-738.59C1281.91,-724.26 1154.43,-717.3 1075.84,-722.71"/>
<polygon fill="#7f7f7f" stroke="#7f7f7f" points="1075.26,-719.25 1065.56,-723.52 1075.81,-726.22 1075.26,-719.25"/>
<text text-anchor="middle" x="1198.06" y="-733.65" font-family="monospace" font-size="10.00">uses</text>
</g>
<!-- lightning_origin_demuxer::demuxer::Demuxer::start&#45;&gt;lightning_origin_demuxer::demuxer::Demuxer -->
<g id="edge35" class="edge">
<title>lightning_origin_demuxer::demuxer::Demuxer::start&#45;&gt;lightning_origin_demuxer::demuxer::Demuxer</title>
<path fill="none" stroke="#7f7f7f" stroke-dasharray="5,2" d="M1237.26,-1007.95C1218.95,-956.87 1116.15,-824.41 1053.92,-766.93"/>
<polygon fill="#7f7f7f" stroke="#7f7f7f" points="1055.95,-764.05 1046.16,-759.98 1051.27,-769.26 1055.95,-764.05"/>
<text text-anchor="middle" x="1133.09" y="-890.44" font-family="monospace" font-size="10.00">uses</text>
</g>
</g>
</svg>
