<?xml version="1.0" encoding="UTF-8" standalone="no"?>
<!DOCTYPE svg PUBLIC "-//W3C//DTD SVG 1.1//EN"
 "http://www.w3.org/Graphics/SVG/1.1/DTD/svg11.dtd">
<!-- Generated by graphviz version 4.0.0 (0)
 -->
<!-- Pages: 1 -->
<svg width="438pt" height="278pt"
 viewBox="0.00 0.00 438.01 277.61" xmlns="http://www.w3.org/2000/svg" xmlns:xlink="http://www.w3.org/1999/xlink">
<g id="graph0" class="graph" transform="scale(1 1) rotate(0) translate(28.8 248.81)">
<polygon fill="white" stroke="transparent" points="-28.8,28.8 -28.8,-248.81 409.21,-248.81 409.21,28.8 -28.8,28.8"/>
<text text-anchor="middle" x="190.2" y="-187.21" font-family="Helvetica,sans-Serif" font-size="36.00">infusion_proc</text>
<!-- infusion_proc -->
<g id="node1" class="node">
<title>infusion_proc</title>
<polygon fill="#5397c8" stroke="black" points="163.01,-67.01 163.01,-105.01 258.01,-105.01 258.01,-67.01 163.01,-67.01"/>
<text text-anchor="middle" x="210.51" y="-93.01" font-family="monospace" font-size="10.00">crate</text>
<polyline fill="none" stroke="black" points="163.01,-86.01 258.01,-86.01 "/>
<text text-anchor="middle" x="210.51" y="-74.01" font-family="monospace" font-size="10.00">infusion_proc</text>
</g>
<!-- infusion_proc::helpers -->
<g id="node2" class="node">
<title>infusion_proc::helpers</title>
<polygon fill="#f8c04c" stroke="black" points="231.41,-15.71 231.41,-53.71 380.41,-53.71 380.41,-15.71 231.41,-15.71"/>
<text text-anchor="middle" x="305.91" y="-41.71" font-family="monospace" font-size="10.00">pub(crate) mod</text>
<polyline fill="none" stroke="black" points="231.41,-34.71 380.41,-34.71 "/>
<text text-anchor="middle" x="305.91" y="-22.71" font-family="monospace" font-size="10.00">infusion_proc::helpers</text>
</g>
<!-- infusion_proc&#45;&gt;infusion_proc::helpers -->
<g id="edge1" class="edge">
<title>infusion_proc&#45;&gt;infusion_proc::helpers</title>
<path fill="none" stroke="#000000" d="M258.15,-90.1C273.98,-83.9 289.78,-73.49 299.2,-62.28"/>
<polygon fill="#000000" stroke="#000000" points="302.09,-64.25 304.85,-54.02 296.32,-60.3 302.09,-64.25"/>
<text text-anchor="middle" x="291.18" y="-79.19" font-family="monospace" font-size="10.00">owns</text>
</g>
<!-- infusion_proc&#45;&gt;infusion_proc::helpers -->
<g id="edge2" class="edge">
<title>infusion_proc&#45;&gt;infusion_proc::helpers</title>
<path fill="none" stroke="#7f7f7f" stroke-dasharray="5,2" d="M211.52,-66.78C214.08,-61.87 218.1,-56.95 223.09,-52.3"/>
<polygon fill="#7f7f7f" stroke="#7f7f7f" points="225.58,-54.78 231.03,-45.7 221.1,-49.4 225.58,-54.78"/>
<text text-anchor="middle" x="204.81" y="-51.54" font-family="monospace" font-size="10.00">uses</text>
</g>
<!-- infusion_proc::on_trait -->
<g id="node3" class="node">
<title>infusion_proc::on_trait</title>
<polygon fill="#f8c04c" stroke="black" points="0,-67.01 0,-105.01 155,-105.01 155,-67.01 0,-67.01"/>
<text text-anchor="middle" x="77.5" y="-93.01" font-family="monospace" font-size="10.00">pub(crate) mod</text>
<polyline fill="none" stroke="black" points="0,-86.01 155,-86.01 "/>
<text text-anchor="middle" x="77.5" y="-74.01" font-family="monospace" font-size="10.00">infusion_proc::on_trait</text>
</g>
<!-- infusion_proc&#45;&gt;infusion_proc::on_trait -->
<g id="edge3" class="edge">
<title>infusion_proc&#45;&gt;infusion_proc::on_trait</title>
<path fill="none" stroke="#000000" d="M162.87,-86.01C162.71,-86.01 162.55,-86.01 162.39,-86.01"/>
<polygon fill="#000000" stroke="#000000" points="165.16,-82.51 155.16,-86.01 165.16,-89.51 165.16,-82.51"/>
<text text-anchor="middle" x="156.38" y="-78.01" font-family="monospace" font-size="10.00">owns</text>
</g>
<!-- infusion_proc::parse -->
<g id="node4" class="node">
<title>infusion_proc::parse</title>
<polygon fill="#f8c04c" stroke="black" points="237.38,-118.38 237.38,-156.38 374.38,-156.38 374.38,-118.38 237.38,-118.38"/>
<text text-anchor="middle" x="305.88" y="-144.38" font-family="monospace" font-size="10.00">pub(crate) mod</text>
<polyline fill="none" stroke="black" points="237.38,-137.38 374.38,-137.38 "/>
<text text-anchor="middle" x="305.88" y="-125.38" font-family="monospace" font-size="10.00">infusion_proc::parse</text>
</g>
<!-- infusion_proc&#45;&gt;infusion_proc::parse -->
<g id="edge4" class="edge">
<title>infusion_proc&#45;&gt;infusion_proc::parse</title>
<path fill="none" stroke="#000000" d="M211.51,-105.23C215.01,-111.99 221.29,-118.75 229.04,-124.83"/>
<polygon fill="#000000" stroke="#000000" points="227.05,-127.7 237.22,-130.64 231.1,-122 227.05,-127.7"/>
<text text-anchor="middle" x="207.78" y="-118.03" font-family="monospace" font-size="10.00">owns</text>
</g>
<!-- infusion_proc&#45;&gt;infusion_proc::parse -->
<g id="edge5" class="edge">
<title>infusion_proc&#45;&gt;infusion_proc::parse</title>
<path fill="none" stroke="#7f7f7f" stroke-dasharray="5,2" d="M258.16,-81.95C273.99,-88.17 289.78,-98.59 299.2,-109.81"/>
<polygon fill="#7f7f7f" stroke="#7f7f7f" points="296.31,-111.78 304.84,-118.07 302.09,-107.84 296.31,-111.78"/>
<text text-anchor="middle" x="291.18" y="-98.88" font-family="monospace" font-size="10.00">uses</text>
</g>
<!-- infusion_proc::sig -->
<g id="node5" class="node">
<title>infusion_proc::sig</title>
<polygon fill="#f8c04c" stroke="black" points="81.51,-0.5 81.51,-38.5 206.51,-38.5 206.51,-0.5 81.51,-0.5"/>
<text text-anchor="middle" x="144.01" y="-26.5" font-family="monospace" font-size="10.00">pub(crate) mod</text>
<polyline fill="none" stroke="black" points="81.51,-19.5 206.51,-19.5 "/>
<text text-anchor="middle" x="144.01" y="-7.5" font-family="monospace" font-size="10.00">infusion_proc::sig</text>
</g>
<!-- infusion_proc&#45;&gt;infusion_proc::sig -->
<g id="edge6" class="edge">
<title>infusion_proc&#45;&gt;infusion_proc::sig</title>
<path fill="none" stroke="#000000" d="M191.28,-66.77C184.85,-60.35 177.58,-53.07 170.69,-46.18"/>
<polygon fill="#000000" stroke="#000000" points="172.98,-43.52 163.43,-38.92 168.03,-48.47 172.98,-43.52"/>
<text text-anchor="middle" x="168.48" y="-48.48" font-family="monospace" font-size="10.00">owns</text>
</g>
<!-- infusion_proc::utils -->
<g id="node6" class="node">
<title>infusion_proc::utils</title>
<polygon fill="#f8c04c" stroke="black" points="75.51,-133.51 75.51,-171.51 212.51,-171.51 212.51,-133.51 75.51,-133.51"/>
<text text-anchor="middle" x="144.01" y="-159.51" font-family="monospace" font-size="10.00">pub(crate) mod</text>
<polyline fill="none" stroke="black" points="75.51,-152.51 212.51,-152.51 "/>
<text text-anchor="middle" x="144.01" y="-140.51" font-family="monospace" font-size="10.00">infusion_proc::utils</text>
</g>
<!-- infusion_proc&#45;&gt;infusion_proc::utils -->
<g id="edge7" class="edge">
<title>infusion_proc&#45;&gt;infusion_proc::utils</title>
<path fill="none" stroke="#000000" d="M163,-95.67C153.82,-103.61 145.94,-113.68 141.69,-123.56"/>
<polygon fill="#000000" stroke="#000000" points="138.29,-122.7 138.72,-133.29 144.98,-124.74 138.29,-122.7"/>
<text text-anchor="middle" x="139.84" y="-112.62" font-family="monospace" font-size="10.00">owns</text>
</g>
<!-- infusion_proc&#45;&gt;infusion_proc::utils -->
<g id="edge8" class="edge">
<title>infusion_proc&#45;&gt;infusion_proc::utils</title>
<path fill="none" stroke="#7f7f7f" stroke-dasharray="5,2" d="M215.83,-105.06C214.78,-111.56 211.65,-118.54 207.19,-125.22"/>
<polygon fill="#7f7f7f" stroke="#7f7f7f" points="204.18,-123.39 200.9,-133.46 209.74,-127.64 204.18,-123.39"/>
<text text-anchor="middle" x="199.01" y="-107.14" font-family="monospace" font-size="10.00">uses</text>
</g>
<!-- infusion_proc::on_trait&#45;&gt;infusion_proc::sig -->
<g id="edge9" class="edge">
<title>infusion_proc::on_trait&#45;&gt;infusion_proc::sig</title>
<path fill="none" stroke="#7f7f7f" stroke-dasharray="5,2" d="M96.74,-66.77C103.16,-60.35 110.44,-53.07 117.32,-46.18"/>
<polygon fill="#7f7f7f" stroke="#7f7f7f" points="119.99,-48.47 124.58,-38.92 115.04,-43.52 119.99,-48.47"/>
<text text-anchor="middle" x="94.53" y="-48.48" font-family="monospace" font-size="10.00">uses</text>
</g>
<!-- infusion_proc::on_trait&#45;&gt;infusion_proc::utils -->
<g id="edge10" class="edge">
<title>infusion_proc::on_trait&#45;&gt;infusion_proc::utils</title>
<path fill="none" stroke="#7f7f7f" stroke-dasharray="5,2" d="M96.74,-105.24C103.16,-111.67 110.44,-118.94 117.32,-125.83"/>
<polygon fill="#7f7f7f" stroke="#7f7f7f" points="115.04,-128.49 124.58,-133.09 119.99,-123.54 115.04,-128.49"/>
<text text-anchor="middle" x="94.53" y="-118.54" font-family="monospace" font-size="10.00">uses</text>
</g>
</g>
</svg>
