<?xml version="1.0" encoding="UTF-8" standalone="no"?>
<!DOCTYPE svg PUBLIC "-//W3C//DTD SVG 1.1//EN"
 "http://www.w3.org/Graphics/SVG/1.1/DTD/svg11.dtd">
<!-- Generated by graphviz version 4.0.0 (0)
 -->
<!-- Pages: 1 -->
<svg width="504pt" height="239pt"
 viewBox="0.00 0.00 503.60 238.61" xmlns="http://www.w3.org/2000/svg" xmlns:xlink="http://www.w3.org/1999/xlink">
<g id="graph0" class="graph" transform="scale(1 1) rotate(0) translate(28.8 209.81)">
<polygon fill="white" stroke="transparent" points="-28.8,28.8 -28.8,-209.81 474.8,-209.81 474.8,28.8 -28.8,28.8"/>
<text text-anchor="middle" x="223" y="-148.21" font-family="Helvetica,sans-Serif" font-size="36.00">generate_openrpc_spec</text>
<!-- generate_openrpc_spec -->
<g id="node1" class="node">
<title>generate_openrpc_spec</title>
<polygon fill="#5397c8" stroke="black" points="151.5,-47.5 151.5,-85.5 294.5,-85.5 294.5,-47.5 151.5,-47.5"/>
<text text-anchor="middle" x="223" y="-73.5" font-family="monospace" font-size="10.00">crate</text>
<polyline fill="none" stroke="black" points="151.5,-66.5 294.5,-66.5 "/>
<text text-anchor="middle" x="223" y="-54.5" font-family="monospace" font-size="10.00">generate_openrpc_spec</text>
</g>
<!-- generate_openrpc_spec::Args -->
<g id="node2" class="node">
<title>generate_openrpc_spec::Args</title>
<polygon fill="#f8c04c" stroke="black" points="163.5,-94.51 163.5,-132.51 282.5,-132.51 282.5,-94.51 163.5,-94.51"/>
<text text-anchor="middle" x="223" y="-120.51" font-family="monospace" font-size="10.00">pub(crate) struct</text>
<polyline fill="none" stroke="black" points="163.5,-113.51 282.5,-113.51 "/>
<text text-anchor="middle" x="223" y="-101.51" font-family="monospace" font-size="10.00">Args</text>
</g>
<!-- generate_openrpc_spec&#45;&gt;generate_openrpc_spec::Args -->
<g id="edge1" class="edge">
<title>generate_openrpc_spec&#45;&gt;generate_openrpc_spec::Args</title>
<path fill="none" stroke="#000000" d="M223,-85.62C223,-85.71 223,-85.8 223,-85.89"/>
<polygon fill="#000000" stroke="#000000" points="219.5,-84.26 223,-94.26 226.5,-84.26 219.5,-84.26"/>
<text text-anchor="middle" x="210.5" y="-88.76" font-family="monospace" font-size="10.00">owns</text>
</g>
<!-- generate_openrpc_spec::main -->
<g id="node3" class="node">
<title>generate_openrpc_spec::main</title>
<polygon fill="#f8c04c" stroke="black" points="175.5,-0.5 175.5,-38.5 270.5,-38.5 270.5,-0.5 175.5,-0.5"/>
<text text-anchor="middle" x="223" y="-26.5" font-family="monospace" font-size="10.00">pub(crate) fn</text>
<polyline fill="none" stroke="black" points="175.5,-19.5 270.5,-19.5 "/>
<text text-anchor="middle" x="223" y="-7.5" font-family="monospace" font-size="10.00">main</text>
</g>
<!-- generate_openrpc_spec&#45;&gt;generate_openrpc_spec::main -->
<g id="edge2" class="edge">
<title>generate_openrpc_spec&#45;&gt;generate_openrpc_spec::main</title>
<path fill="none" stroke="#000000" d="M223,-47.39C223,-47.3 223,-47.21 223,-47.12"/>
<polygon fill="#000000" stroke="#000000" points="226.5,-48.75 223,-38.75 219.5,-48.75 226.5,-48.75"/>
<text text-anchor="middle" x="210.5" y="-39.25" font-family="monospace" font-size="10.00">owns</text>
</g>
<!-- generate_openrpc_spec::main&#45;&gt;generate_openrpc_spec::Args -->
<g id="edge3" class="edge">
<title>generate_openrpc_spec::main&#45;&gt;generate_openrpc_spec::Args</title>
<path fill="none" stroke="#7f7f7f" stroke-dasharray="5,2" d="M223,-38.52C223,-51.56 223,-69.12 223,-83.96"/>
<polygon fill="#7f7f7f" stroke="#7f7f7f" points="219.5,-84.19 223,-94.19 226.5,-84.19 219.5,-84.19"/>
<text text-anchor="middle" x="210.5" y="-64.24" font-family="monospace" font-size="10.00">uses</text>
</g>
</g>
</svg>
