<?xml version="1.0" encoding="UTF-8" standalone="no"?>
<!DOCTYPE svg PUBLIC "-//W3C//DTD SVG 1.1//EN"
 "http://www.w3.org/Graphics/SVG/1.1/DTD/svg11.dtd">
<!-- Generated by graphviz version 4.0.0 (0)
 -->
<!-- Pages: 1 -->
<svg width="781pt" height="799pt"
 viewBox="0.00 0.00 780.96 798.99" xmlns="http://www.w3.org/2000/svg" xmlns:xlink="http://www.w3.org/1999/xlink">
<g id="graph0" class="graph" transform="scale(1 1) rotate(0) translate(28.8 770.19)">
<polygon fill="white" stroke="transparent" points="-28.8,28.8 -28.8,-770.19 752.16,-770.19 752.16,28.8 -28.8,28.8"/>
<text text-anchor="middle" x="361.68" y="-708.59" font-family="Helvetica,sans-Serif" font-size="36.00">lightning_forwarder</text>
<!-- core::cmp -->
<g id="node1" class="node">
<title>core::cmp</title>
<polygon fill="#81c169" stroke="black" points="634.36,-125.48 634.36,-163.48 723.36,-163.48 723.36,-125.48 634.36,-125.48"/>
<text text-anchor="middle" x="678.86" y="-151.48" font-family="monospace" font-size="10.00">external mod</text>
<polyline fill="none" stroke="black" points="634.36,-144.48 723.36,-144.48 "/>
<text text-anchor="middle" x="678.86" y="-132.48" font-family="monospace" font-size="10.00">core::cmp</text>
</g>
<!-- fdi -->
<g id="node2" class="node">
<title>fdi</title>
<polygon fill="#5397c8" stroke="black" points="243.72,-654.89 243.72,-692.89 344.72,-692.89 344.72,-654.89 243.72,-654.89"/>
<text text-anchor="middle" x="294.22" y="-680.89" font-family="monospace" font-size="10.00">external crate</text>
<polyline fill="none" stroke="black" points="243.72,-673.89 344.72,-673.89 "/>
<text text-anchor="middle" x="294.22" y="-661.89" font-family="monospace" font-size="10.00">fdi</text>
</g>
<!-- lightning_forwarder -->
<g id="node3" class="node">
<title>lightning_forwarder</title>
<polygon fill="#5397c8" stroke="black" points="335.03,-327.7 335.03,-365.7 466.03,-365.7 466.03,-327.7 335.03,-327.7"/>
<text text-anchor="middle" x="400.53" y="-353.7" font-family="monospace" font-size="10.00">crate</text>
<polyline fill="none" stroke="black" points="335.03,-346.7 466.03,-346.7 "/>
<text text-anchor="middle" x="400.53" y="-334.7" font-family="monospace" font-size="10.00">lightning_forwarder</text>
</g>
<!-- lightning_forwarder::config -->
<g id="node4" class="node">
<title>lightning_forwarder::config</title>
<polygon fill="#81c169" stroke="black" points="450.2,-428.81 450.2,-466.81 629.2,-466.81 629.2,-428.81 450.2,-428.81"/>
<text text-anchor="middle" x="539.7" y="-454.81" font-family="monospace" font-size="10.00">pub mod</text>
<polyline fill="none" stroke="black" points="450.2,-447.81 629.2,-447.81 "/>
<text text-anchor="middle" x="539.7" y="-435.81" font-family="monospace" font-size="10.00">lightning_forwarder::config</text>
</g>
<!-- lightning_forwarder&#45;&gt;lightning_forwarder::config -->
<g id="edge1" class="edge">
<title>lightning_forwarder&#45;&gt;lightning_forwarder::config</title>
<path fill="none" stroke="#000000" d="M426.71,-365.71C448.83,-381.78 480.68,-404.93 504.93,-422.55"/>
<polygon fill="#000000" stroke="#000000" points="503.02,-425.48 513.17,-428.53 507.13,-419.82 503.02,-425.48"/>
<text text-anchor="middle" x="453.32" y="-397.13" font-family="monospace" font-size="10.00">owns</text>
</g>
<!-- lightning_forwarder::forwarder -->
<g id="node5" class="node">
<title>lightning_forwarder::forwarder</title>
<polygon fill="#f8c04c" stroke="black" points="130.02,-327.7 130.02,-365.7 327.02,-365.7 327.02,-327.7 130.02,-327.7"/>
<text text-anchor="middle" x="228.52" y="-353.7" font-family="monospace" font-size="10.00">pub(crate) mod</text>
<polyline fill="none" stroke="black" points="130.02,-346.7 327.02,-346.7 "/>
<text text-anchor="middle" x="228.52" y="-334.7" font-family="monospace" font-size="10.00">lightning_forwarder::forwarder</text>
</g>
<!-- lightning_forwarder&#45;&gt;lightning_forwarder::forwarder -->
<g id="edge2" class="edge">
<title>lightning_forwarder&#45;&gt;lightning_forwarder::forwarder</title>
<path fill="none" stroke="#000000" d="M377.69,-327.66C347.88,-318.05 295.49,-317.14 261.4,-324.93"/>
<polygon fill="#000000" stroke="#000000" points="260.19,-321.63 251.45,-327.63 262.02,-328.39 260.19,-321.63"/>
<text text-anchor="middle" x="307.05" y="-318.29" font-family="monospace" font-size="10.00">owns</text>
</g>
<!-- lightning_forwarder&#45;&gt;lightning_forwarder::forwarder -->
<g id="edge3" class="edge">
<title>lightning_forwarder&#45;&gt;lightning_forwarder::forwarder</title>
<path fill="none" stroke="#7f7f7f" stroke-dasharray="5,2" d="M377.69,-365.74C347.88,-375.35 295.49,-376.25 261.4,-368.46"/>
<polygon fill="#7f7f7f" stroke="#7f7f7f" points="262.02,-365.01 251.45,-365.77 260.19,-371.76 262.02,-365.01"/>
<text text-anchor="middle" x="307.05" y="-370.1" font-family="monospace" font-size="10.00">uses</text>
</g>
<!-- lightning_forwarder::worker -->
<g id="node6" class="node">
<title>lightning_forwarder::worker</title>
<polygon fill="#f8c04c" stroke="black" points="450.2,-226.59 450.2,-264.59 629.2,-264.59 629.2,-226.59 450.2,-226.59"/>
<text text-anchor="middle" x="539.7" y="-252.59" font-family="monospace" font-size="10.00">pub(crate) mod</text>
<polyline fill="none" stroke="black" points="450.2,-245.59 629.2,-245.59 "/>
<text text-anchor="middle" x="539.7" y="-233.59" font-family="monospace" font-size="10.00">lightning_forwarder::worker</text>
</g>
<!-- lightning_forwarder&#45;&gt;lightning_forwarder::worker -->
<g id="edge4" class="edge">
<title>lightning_forwarder&#45;&gt;lightning_forwarder::worker</title>
<path fill="none" stroke="#000000" d="M426.71,-327.68C448.83,-311.61 480.68,-288.47 504.93,-270.85"/>
<polygon fill="#000000" stroke="#000000" points="507.13,-273.57 513.17,-264.86 503.02,-267.91 507.13,-273.57"/>
<text text-anchor="middle" x="453.32" y="-302.26" font-family="monospace" font-size="10.00">owns</text>
</g>
<!-- lightning_forwarder::forwarder&#45;&gt;fdi -->
<g id="edge5" class="edge">
<title>lightning_forwarder::forwarder&#45;&gt;fdi</title>
<path fill="none" stroke="#7f7f7f" stroke-dasharray="5,2" d="M232.33,-365.7C243.33,-420.48 275.16,-578.97 288.37,-644.74"/>
<polygon fill="#7f7f7f" stroke="#7f7f7f" points="284.99,-645.72 290.39,-654.83 291.86,-644.34 284.99,-645.72"/>
<text text-anchor="middle" x="247.85" y="-508.22" font-family="monospace" font-size="10.00">uses</text>
</g>
<!-- lightning_forwarder::forwarder&#45;&gt;lightning_forwarder::config -->
<g id="edge6" class="edge">
<title>lightning_forwarder::forwarder&#45;&gt;lightning_forwarder::config</title>
<path fill="none" stroke="#7f7f7f" stroke-dasharray="5,2" d="M287.05,-365.71C339.45,-382.74 416.3,-407.71 471.47,-425.64"/>
<polygon fill="#7f7f7f" stroke="#7f7f7f" points="470.57,-429.03 481.17,-428.79 472.74,-422.37 470.57,-429.03"/>
<text text-anchor="middle" x="366.76" y="-398.68" font-family="monospace" font-size="10.00">uses</text>
</g>
<!-- lightning_forwarder::forwarder&#45;&gt;lightning_forwarder::worker -->
<g id="edge7" class="edge">
<title>lightning_forwarder::forwarder&#45;&gt;lightning_forwarder::worker</title>
<path fill="none" stroke="#7f7f7f" stroke-dasharray="5,2" d="M287.05,-327.68C339.45,-310.65 416.3,-285.68 471.47,-267.75"/>
<polygon fill="#7f7f7f" stroke="#7f7f7f" points="472.74,-271.02 481.17,-264.61 470.57,-264.37 472.74,-271.02"/>
<text text-anchor="middle" x="366.76" y="-300.72" font-family="monospace" font-size="10.00">uses</text>
</g>
<!-- lightning_schema -->
<g id="node7" class="node">
<title>lightning_schema</title>
<polygon fill="#5397c8" stroke="black" points="0,-327.7 0,-365.7 113,-365.7 113,-327.7 0,-327.7"/>
<text text-anchor="middle" x="56.5" y="-353.7" font-family="monospace" font-size="10.00">external crate</text>
<polyline fill="none" stroke="black" points="0,-346.7 113,-346.7 "/>
<text text-anchor="middle" x="56.5" y="-334.7" font-family="monospace" font-size="10.00">lightning_schema</text>
</g>
<!-- lightning_forwarder::forwarder&#45;&gt;lightning_schema -->
<g id="edge8" class="edge">
<title>lightning_forwarder::forwarder&#45;&gt;lightning_schema</title>
<path fill="none" stroke="#7f7f7f" stroke-dasharray="5,2" d="M129.95,-346.7C127.72,-346.7 125.5,-346.7 123.3,-346.7"/>
<polygon fill="#7f7f7f" stroke="#7f7f7f" points="123.16,-343.2 113.16,-346.7 123.16,-350.2 123.16,-343.2"/>
<text text-anchor="middle" x="126.63" y="-338.7" font-family="monospace" font-size="10.00">uses</text>
</g>
<!-- lightning_types -->
<g id="node8" class="node">
<title>lightning_types</title>
<polygon fill="#5397c8" stroke="black" points="240.72,-0.5 240.72,-38.5 347.72,-38.5 347.72,-0.5 240.72,-0.5"/>
<text text-anchor="middle" x="294.22" y="-26.5" font-family="monospace" font-size="10.00">external crate</text>
<polyline fill="none" stroke="black" points="240.72,-19.5 347.72,-19.5 "/>
<text text-anchor="middle" x="294.22" y="-7.5" font-family="monospace" font-size="10.00">lightning_types</text>
</g>
<!-- lightning_forwarder::forwarder&#45;&gt;lightning_types -->
<g id="edge9" class="edge">
<title>lightning_forwarder::forwarder&#45;&gt;lightning_types</title>
<path fill="none" stroke="#7f7f7f" stroke-dasharray="5,2" d="M232.33,-327.69C243.33,-272.91 275.16,-114.42 288.37,-48.65"/>
<polygon fill="#7f7f7f" stroke="#7f7f7f" points="291.86,-49.05 290.39,-38.56 284.99,-47.67 291.86,-49.05"/>
<text text-anchor="middle" x="247.85" y="-191.17" font-family="monospace" font-size="10.00">uses</text>
</g>
<!-- lightning_forwarder::worker&#45;&gt;core::cmp -->
<g id="edge10" class="edge">
<title>lightning_forwarder::worker&#45;&gt;core::cmp</title>
<path fill="none" stroke="#7f7f7f" stroke-dasharray="5,2" d="M565.88,-226.57C587.99,-210.5 619.85,-187.36 644.1,-169.74"/>
<polygon fill="#7f7f7f" stroke="#7f7f7f" points="646.3,-172.46 652.33,-163.75 642.19,-166.8 646.3,-172.46"/>
<text text-anchor="middle" x="592.49" y="-201.15" font-family="monospace" font-size="10.00">uses</text>
</g>
</g>
</svg>
