<?xml version="1.0" encoding="UTF-8" standalone="no"?>
<!DOCTYPE svg PUBLIC "-//W3C//DTD SVG 1.1//EN"
 "http://www.w3.org/Graphics/SVG/1.1/DTD/svg11.dtd">
<!-- Generated by graphviz version 4.0.0 (0)
 -->
<!-- Pages: 1 -->
<svg width="953pt" height="815pt"
 viewBox="0.00 0.00 953.26 815.27" xmlns="http://www.w3.org/2000/svg" xmlns:xlink="http://www.w3.org/1999/xlink">
<g id="graph0" class="graph" transform="scale(1 1) rotate(0) translate(28.8 786.47)">
<polygon fill="white" stroke="transparent" points="-28.8,28.8 -28.8,-786.47 924.46,-786.47 924.46,28.8 -28.8,28.8"/>
<text text-anchor="middle" x="447.83" y="-724.87" font-family="Helvetica,sans-Serif" font-size="36.00">lightning_notifier</text>
<!-- lightning_notifier -->
<g id="node1" class="node">
<title>lightning_notifier</title>
<polygon fill="#5397c8" stroke="black" points="366.86,-101.3 366.86,-139.3 491.86,-139.3 491.86,-101.3 366.86,-101.3"/>
<text text-anchor="middle" x="429.36" y="-127.3" font-family="monospace" font-size="10.00">crate</text>
<polyline fill="none" stroke="black" points="366.86,-120.3 491.86,-120.3 "/>
<text text-anchor="middle" x="429.36" y="-108.3" font-family="monospace" font-size="10.00">lightning_notifier</text>
</g>
<!-- lightning_notifier::NotificationsEmitter -->
<g id="node2" class="node">
<title>lightning_notifier::NotificationsEmitter</title>
<polygon fill="#81c169" stroke="black" points="362.18,-311.66 362.18,-349.66 499.18,-349.66 499.18,-311.66 362.18,-311.66"/>
<text text-anchor="middle" x="430.68" y="-337.66" font-family="monospace" font-size="10.00">pub struct</text>
<polyline fill="none" stroke="black" points="362.18,-330.66 499.18,-330.66 "/>
<text text-anchor="middle" x="430.68" y="-318.66" font-family="monospace" font-size="10.00">NotificationsEmitter</text>
</g>
<!-- lightning_notifier&#45;&gt;lightning_notifier::NotificationsEmitter -->
<g id="edge1" class="edge">
<title>lightning_notifier&#45;&gt;lightning_notifier::NotificationsEmitter</title>
<path fill="none" stroke="#000000" d="M429.48,-139.34C429.71,-176.24 430.22,-257.73 430.49,-301.5"/>
<polygon fill="#000000" stroke="#000000" points="426.99,-301.54 430.56,-311.51 433.99,-301.49 426.99,-301.54"/>
<text text-anchor="middle" x="417.48" y="-223.42" font-family="monospace" font-size="10.00">owns</text>
</g>
<!-- lightning_notifier::Notifier -->
<g id="node6" class="node">
<title>lightning_notifier::Notifier</title>
<polygon fill="#81c169" stroke="black" points="549.51,-316.92 549.51,-354.92 626.51,-354.92 626.51,-316.92 549.51,-316.92"/>
<text text-anchor="middle" x="588.01" y="-342.92" font-family="monospace" font-size="10.00">pub struct</text>
<polyline fill="none" stroke="black" points="549.51,-335.92 626.51,-335.92 "/>
<text text-anchor="middle" x="588.01" y="-323.92" font-family="monospace" font-size="10.00">Notifier</text>
</g>
<!-- lightning_notifier&#45;&gt;lightning_notifier::Notifier -->
<g id="edge2" class="edge">
<title>lightning_notifier&#45;&gt;lightning_notifier::Notifier</title>
<path fill="none" stroke="#000000" d="M443.44,-139.43C471.66,-177.79 535.25,-264.21 567.87,-308.55"/>
<polygon fill="#000000" stroke="#000000" points="565.22,-310.85 573.97,-316.83 570.86,-306.7 565.22,-310.85"/>
<text text-anchor="middle" x="493.15" y="-226.99" font-family="monospace" font-size="10.00">owns</text>
</g>
<!-- lightning_notifier::NotificationsEmitter::epoch_changed -->
<g id="node3" class="node">
<title>lightning_notifier::NotificationsEmitter::epoch_changed</title>
<polygon fill="#f8c04c" stroke="black" points="0,-286.15 0,-324.15 227,-324.15 227,-286.15 0,-286.15"/>
<text text-anchor="middle" x="113.5" y="-312.15" font-family="monospace" font-size="10.00">pub(crate) fn</text>
<polyline fill="none" stroke="black" points="0,-305.15 227,-305.15 "/>
<text text-anchor="middle" x="113.5" y="-293.15" font-family="monospace" font-size="10.00">NotificationsEmitter::epoch_changed</text>
</g>
<!-- lightning_notifier::NotificationsEmitter&#45;&gt;lightning_notifier::NotificationsEmitter::epoch_changed -->
<g id="edge3" class="edge">
<title>lightning_notifier::NotificationsEmitter&#45;&gt;lightning_notifier::NotificationsEmitter::epoch_changed</title>
<path fill="none" stroke="#000000" d="M401.89,-311.64C364.72,-300 297.69,-291.36 237.6,-288.7"/>
<polygon fill="#000000" stroke="#000000" points="237.37,-285.18 227.24,-288.29 237.1,-292.18 237.37,-285.18"/>
<text text-anchor="middle" x="307.24" y="-303.17" font-family="monospace" font-size="10.00">owns</text>
</g>
<!-- lightning_notifier::NotificationsEmitter::new_block -->
<g id="node4" class="node">
<title>lightning_notifier::NotificationsEmitter::new_block</title>
<polygon fill="#f8c04c" stroke="black" points="199.57,-623.64 199.57,-661.64 402.57,-661.64 402.57,-623.64 199.57,-623.64"/>
<text text-anchor="middle" x="301.07" y="-649.64" font-family="monospace" font-size="10.00">pub(crate) fn</text>
<polyline fill="none" stroke="black" points="199.57,-642.64 402.57,-642.64 "/>
<text text-anchor="middle" x="301.07" y="-630.64" font-family="monospace" font-size="10.00">NotificationsEmitter::new_block</text>
</g>
<!-- lightning_notifier::NotificationsEmitter&#45;&gt;lightning_notifier::NotificationsEmitter::new_block -->
<g id="edge4" class="edge">
<title>lightning_notifier::NotificationsEmitter&#45;&gt;lightning_notifier::NotificationsEmitter::new_block</title>
<path fill="none" stroke="#000000" d="M405.97,-349.71C367.23,-402.7 306.33,-549.62 296.9,-613.17"/>
<polygon fill="#000000" stroke="#000000" points="293.4,-613.01 295.8,-623.33 300.36,-613.77 293.4,-613.01"/>
<text text-anchor="middle" x="338.94" y="-484.44" font-family="monospace" font-size="10.00">owns</text>
</g>
<!-- lightning_notifier::NotificationsEmitter::shutdown -->
<g id="node5" class="node">
<title>lightning_notifier::NotificationsEmitter::shutdown</title>
<polygon fill="#f8c04c" stroke="black" points="17.68,-495.97 17.68,-533.97 214.68,-533.97 214.68,-495.97 17.68,-495.97"/>
<text text-anchor="middle" x="116.18" y="-521.97" font-family="monospace" font-size="10.00">pub(crate) fn</text>
<polyline fill="none" stroke="black" points="17.68,-514.97 214.68,-514.97 "/>
<text text-anchor="middle" x="116.18" y="-502.97" font-family="monospace" font-size="10.00">NotificationsEmitter::shutdown</text>
</g>
<!-- lightning_notifier::NotificationsEmitter&#45;&gt;lightning_notifier::NotificationsEmitter::shutdown -->
<g id="edge5" class="edge">
<title>lightning_notifier::NotificationsEmitter&#45;&gt;lightning_notifier::NotificationsEmitter::shutdown</title>
<path fill="none" stroke="#000000" d="M362.15,-345.96C287.56,-379.08 174,-448.13 131.89,-488.38"/>
<polygon fill="#000000" stroke="#000000" points="129.14,-486.19 124.67,-495.79 134.15,-491.07 129.14,-486.19"/>
<text text-anchor="middle" x="234.52" y="-420.17" font-family="monospace" font-size="10.00">owns</text>
</g>
<!-- lightning_notifier::NotificationsEmitter::epoch_changed&#45;&gt;lightning_notifier::NotificationsEmitter -->
<g id="edge6" class="edge">
<title>lightning_notifier::NotificationsEmitter::epoch_changed&#45;&gt;lightning_notifier::NotificationsEmitter</title>
<path fill="none" stroke="#7f7f7f" stroke-dasharray="5,2" d="M142.29,-324.17C189.22,-338.87 283.76,-348.78 351.82,-347.93"/>
<polygon fill="#7f7f7f" stroke="#7f7f7f" points="352.16,-351.42 362.08,-347.71 352.01,-344.42 352.16,-351.42"/>
<text text-anchor="middle" x="234.55" y="-339.05" font-family="monospace" font-size="10.00">uses</text>
</g>
<!-- lightning_notifier::NotificationsEmitter::new_block&#45;&gt;lightning_notifier::NotificationsEmitter -->
<g id="edge7" class="edge">
<title>lightning_notifier::NotificationsEmitter::new_block&#45;&gt;lightning_notifier::NotificationsEmitter</title>
<path fill="none" stroke="#7f7f7f" stroke-dasharray="5,2" d="M325.78,-623.58C364.51,-570.6 425.42,-423.68 434.84,-360.12"/>
<polygon fill="#7f7f7f" stroke="#7f7f7f" points="438.34,-360.29 435.95,-349.97 431.39,-359.53 438.34,-360.29"/>
<text text-anchor="middle" x="367.81" y="-494.85" font-family="monospace" font-size="10.00">uses</text>
</g>
<!-- lightning_notifier::NotificationsEmitter::shutdown&#45;&gt;lightning_notifier::NotificationsEmitter -->
<g id="edge8" class="edge">
<title>lightning_notifier::NotificationsEmitter::shutdown&#45;&gt;lightning_notifier::NotificationsEmitter</title>
<path fill="none" stroke="#7f7f7f" stroke-dasharray="5,2" d="M193.06,-495.9C267.66,-461.47 374.79,-395.79 415.19,-357.04"/>
<polygon fill="#7f7f7f" stroke="#7f7f7f" points="417.9,-359.28 422.35,-349.66 412.88,-354.4 417.9,-359.28"/>
<text text-anchor="middle" x="291.63" y="-429.47" font-family="monospace" font-size="10.00">uses</text>
</g>
<!-- lightning_notifier::Notifier&#45;&gt;lightning_notifier::NotificationsEmitter -->
<g id="edge9" class="edge">
<title>lightning_notifier::Notifier&#45;&gt;lightning_notifier::NotificationsEmitter</title>
<path fill="none" stroke="#7f7f7f" stroke-dasharray="5,2" d="M549.12,-334.62C537.04,-334.22 523.26,-333.76 509.47,-333.3"/>
<polygon fill="#7f7f7f" stroke="#7f7f7f" points="509.57,-329.8 499.46,-332.96 509.33,-336.8 509.57,-329.8"/>
<text text-anchor="middle" x="516.8" y="-336.96" font-family="monospace" font-size="10.00">uses</text>
</g>
<!-- lightning_notifier::Notifier::Emitter -->
<g id="node7" class="node">
<title>lightning_notifier::Notifier::Emitter</title>
<polygon fill="#f8c04c" stroke="black" points="639.96,-112.35 639.96,-150.35 758.96,-150.35 758.96,-112.35 639.96,-112.35"/>
<text text-anchor="middle" x="699.46" y="-138.35" font-family="monospace" font-size="10.00">pub(crate) type</text>
<polyline fill="none" stroke="black" points="639.96,-131.35 758.96,-131.35 "/>
<text text-anchor="middle" x="699.46" y="-119.35" font-family="monospace" font-size="10.00">Notifier::Emitter</text>
</g>
<!-- lightning_notifier::Notifier&#45;&gt;lightning_notifier::Notifier::Emitter -->
<g id="edge10" class="edge">
<title>lightning_notifier::Notifier&#45;&gt;lightning_notifier::Notifier::Emitter</title>
<path fill="none" stroke="#000000" d="M598.5,-316.68C618.3,-280.34 661.26,-201.49 684.24,-159.31"/>
<polygon fill="#000000" stroke="#000000" points="687.38,-160.85 689.09,-150.4 681.23,-157.51 687.38,-160.85"/>
<text text-anchor="middle" x="628.87" y="-240.99" font-family="monospace" font-size="10.00">owns</text>
</g>
<!-- lightning_notifier::Notifier::get_emitter -->
<g id="node8" class="node">
<title>lightning_notifier::Notifier::get_emitter</title>
<polygon fill="#f8c04c" stroke="black" points="206.99,-164.57 206.99,-202.57 349.99,-202.57 349.99,-164.57 206.99,-164.57"/>
<text text-anchor="middle" x="278.49" y="-190.57" font-family="monospace" font-size="10.00">pub(crate) fn</text>
<polyline fill="none" stroke="black" points="206.99,-183.57 349.99,-183.57 "/>
<text text-anchor="middle" x="278.49" y="-171.57" font-family="monospace" font-size="10.00">Notifier::get_emitter</text>
</g>
<!-- lightning_notifier::Notifier&#45;&gt;lightning_notifier::Notifier::get_emitter -->
<g id="edge11" class="edge">
<title>lightning_notifier::Notifier&#45;&gt;lightning_notifier::Notifier::get_emitter</title>
<path fill="none" stroke="#000000" d="M577.87,-316.72C543.9,-283.91 436.52,-227.19 359.94,-197.86"/>
<polygon fill="#000000" stroke="#000000" points="360.89,-194.48 350.29,-194.26 358.44,-201.04 360.89,-194.48"/>
<text text-anchor="middle" x="456.41" y="-260.29" font-family="monospace" font-size="10.00">owns</text>
</g>
<!-- lightning_notifier::Notifier::get_until_epoch_end -->
<g id="node9" class="node">
<title>lightning_notifier::Notifier::get_until_epoch_end</title>
<polygon fill="#f8c04c" stroke="black" points="463.64,-671.17 463.64,-709.17 654.64,-709.17 654.64,-671.17 463.64,-671.17"/>
<text text-anchor="middle" x="559.14" y="-697.17" font-family="monospace" font-size="10.00">pub(crate) fn</text>
<polyline fill="none" stroke="black" points="463.64,-690.17 654.64,-690.17 "/>
<text text-anchor="middle" x="559.14" y="-678.17" font-family="monospace" font-size="10.00">Notifier::get_until_epoch_end</text>
</g>
<!-- lightning_notifier::Notifier&#45;&gt;lightning_notifier::Notifier::get_until_epoch_end -->
<g id="edge12" class="edge">
<title>lightning_notifier::Notifier&#45;&gt;lightning_notifier::Notifier::get_until_epoch_end</title>
<path fill="none" stroke="#000000" d="M572.98,-355.15C550.71,-413.87 535.62,-590.97 546.09,-661.12"/>
<polygon fill="#000000" stroke="#000000" points="542.66,-661.84 547.9,-671.05 549.55,-660.58 542.66,-661.84"/>
<text text-anchor="middle" x="547.03" y="-511.14" font-family="monospace" font-size="10.00">owns</text>
</g>
<!-- lightning_notifier::Notifier::init -->
<g id="node10" class="node">
<title>lightning_notifier::Notifier::init</title>
<polygon fill="#f8c04c" stroke="black" points="499.73,-0.5 499.73,-38.5 600.73,-38.5 600.73,-0.5 499.73,-0.5"/>
<text text-anchor="middle" x="550.23" y="-26.5" font-family="monospace" font-size="10.00">pub(crate) fn</text>
<polyline fill="none" stroke="black" points="499.73,-19.5 600.73,-19.5 "/>
<text text-anchor="middle" x="550.23" y="-7.5" font-family="monospace" font-size="10.00">Notifier::init</text>
</g>
<!-- lightning_notifier::Notifier&#45;&gt;lightning_notifier::Notifier::init -->
<g id="edge13" class="edge">
<title>lightning_notifier::Notifier&#45;&gt;lightning_notifier::Notifier::init</title>
<path fill="none" stroke="#000000" d="M599.04,-316.9C609.88,-263.46 593.01,-112.05 570.6,-48.3"/>
<polygon fill="#000000" stroke="#000000" points="573.83,-46.93 566.96,-38.86 567.29,-49.45 573.83,-46.93"/>
<text text-anchor="middle" x="572.32" y="-185.6" font-family="monospace" font-size="10.00">owns</text>
</g>
<!-- lightning_notifier::Notifier::notify_before_epoch_change -->
<g id="node11" class="node">
<title>lightning_notifier::Notifier::notify_before_epoch_change</title>
<polygon fill="#f8c04c" stroke="black" points="662.66,-628.58 662.66,-666.58 895.66,-666.58 895.66,-628.58 662.66,-628.58"/>
<text text-anchor="middle" x="779.16" y="-654.58" font-family="monospace" font-size="10.00">pub(crate) fn</text>
<polyline fill="none" stroke="black" points="662.66,-647.58 895.66,-647.58 "/>
<text text-anchor="middle" x="779.16" y="-635.58" font-family="monospace" font-size="10.00">Notifier::notify_before_epoch_change</text>
</g>
<!-- lightning_notifier::Notifier&#45;&gt;lightning_notifier::Notifier::notify_before_epoch_change -->
<g id="edge14" class="edge">
<title>lightning_notifier::Notifier&#45;&gt;lightning_notifier::Notifier::notify_before_epoch_change</title>
<path fill="none" stroke="#000000" d="M586.05,-355.01C598.1,-409.2 687.51,-559.03 741.72,-621.01"/>
<polygon fill="#000000" stroke="#000000" points="739.17,-623.41 748.48,-628.47 744.36,-618.71 739.17,-623.41"/>
<text text-anchor="middle" x="651.39" y="-491.01" font-family="monospace" font-size="10.00">owns</text>
</g>
<!-- lightning_notifier::Notifier::notify_on_new_block -->
<g id="node12" class="node">
<title>lightning_notifier::Notifier::notify_on_new_block</title>
<polygon fill="#f8c04c" stroke="black" points="607.76,-447.56 607.76,-485.56 798.76,-485.56 798.76,-447.56 607.76,-447.56"/>
<text text-anchor="middle" x="703.26" y="-473.56" font-family="monospace" font-size="10.00">pub(crate) fn</text>
<polyline fill="none" stroke="black" points="607.76,-466.56 798.76,-466.56 "/>
<text text-anchor="middle" x="703.26" y="-454.56" font-family="monospace" font-size="10.00">Notifier::notify_on_new_block</text>
</g>
<!-- lightning_notifier::Notifier&#45;&gt;lightning_notifier::Notifier::notify_on_new_block -->
<g id="edge15" class="edge">
<title>lightning_notifier::Notifier&#45;&gt;lightning_notifier::Notifier::notify_on_new_block</title>
<path fill="none" stroke="#000000" d="M585.2,-355.12C591.29,-378.56 618.73,-415.07 646.22,-440.51"/>
<polygon fill="#000000" stroke="#000000" points="644.15,-443.35 653.95,-447.37 648.79,-438.11 644.15,-443.35"/>
<text text-anchor="middle" x="603.21" y="-400.81" font-family="monospace" font-size="10.00">owns</text>
</g>
<!-- lightning_notifier::Notifier::notify_on_new_epoch -->
<g id="node13" class="node">
<title>lightning_notifier::Notifier::notify_on_new_epoch</title>
<polygon fill="#f8c04c" stroke="black" points="703.99,-273.57 703.99,-311.57 894.99,-311.57 894.99,-273.57 703.99,-273.57"/>
<text text-anchor="middle" x="799.49" y="-299.57" font-family="monospace" font-size="10.00">pub(crate) fn</text>
<polyline fill="none" stroke="black" points="703.99,-292.57 894.99,-292.57 "/>
<text text-anchor="middle" x="799.49" y="-280.57" font-family="monospace" font-size="10.00">Notifier::notify_on_new_epoch</text>
</g>
<!-- lightning_notifier::Notifier&#45;&gt;lightning_notifier::Notifier::notify_on_new_epoch -->
<g id="edge16" class="edge">
<title>lightning_notifier::Notifier&#45;&gt;lightning_notifier::Notifier::notify_on_new_epoch</title>
<path fill="none" stroke="#000000" d="M626.59,-349.01C670.33,-349.38 740.07,-334.47 776.22,-316.49"/>
<polygon fill="#000000" stroke="#000000" points="778,-319.51 785.07,-311.61 774.62,-313.38 778,-319.51"/>
<text text-anchor="middle" x="688.91" y="-335.75" font-family="monospace" font-size="10.00">owns</text>
</g>
<!-- lightning_notifier::Notifier::Emitter&#45;&gt;lightning_notifier::NotificationsEmitter -->
<g id="edge17" class="edge">
<title>lightning_notifier::Notifier::Emitter&#45;&gt;lightning_notifier::NotificationsEmitter</title>
<path fill="none" stroke="#7f7f7f" stroke-dasharray="5,2" d="M673.69,-150.46C624.93,-186.63 519.16,-265.05 464.66,-305.46"/>
<polygon fill="#7f7f7f" stroke="#7f7f7f" points="462.32,-302.84 456.37,-311.61 466.49,-308.46 462.32,-302.84"/>
<text text-anchor="middle" x="556.68" y="-230.96" font-family="monospace" font-size="10.00">uses</text>
</g>
<!-- lightning_notifier::Notifier::get_emitter&#45;&gt;lightning_notifier::NotificationsEmitter -->
<g id="edge18" class="edge">
<title>lightning_notifier::Notifier::get_emitter&#45;&gt;lightning_notifier::NotificationsEmitter</title>
<path fill="none" stroke="#7f7f7f" stroke-dasharray="5,2" d="M298.39,-202.8C325.27,-228.79 373.31,-275.22 403.51,-304.4"/>
<polygon fill="#7f7f7f" stroke="#7f7f7f" points="401.15,-306.99 410.78,-311.43 406.02,-301.96 401.15,-306.99"/>
<text text-anchor="middle" x="338.45" y="-256.6" font-family="monospace" font-size="10.00">uses</text>
</g>
<!-- lightning_notifier::Notifier::get_emitter&#45;&gt;lightning_notifier::Notifier -->
<g id="edge19" class="edge">
<title>lightning_notifier::Notifier::get_emitter&#45;&gt;lightning_notifier::Notifier</title>
<path fill="none" stroke="#7f7f7f" stroke-dasharray="5,2" d="M288.64,-202.77C327.89,-240.7 465.22,-310.56 539.71,-333.14"/>
<polygon fill="#7f7f7f" stroke="#7f7f7f" points="538.77,-336.52 549.35,-335.89 540.69,-329.78 538.77,-336.52"/>
<text text-anchor="middle" x="401.67" y="-270.96" font-family="monospace" font-size="10.00">uses</text>
</g>
<!-- lightning_notifier::Notifier::get_until_epoch_end&#45;&gt;lightning_notifier::Notifier -->
<g id="edge20" class="edge">
<title>lightning_notifier::Notifier::get_until_epoch_end&#45;&gt;lightning_notifier::Notifier</title>
<path fill="none" stroke="#7f7f7f" stroke-dasharray="5,2" d="M574.18,-670.94C596.45,-612.23 611.53,-435.13 601.07,-364.98"/>
<polygon fill="#7f7f7f" stroke="#7f7f7f" points="604.5,-364.26 599.26,-355.05 597.61,-365.52 604.5,-364.26"/>
<text text-anchor="middle" x="575.13" y="-520.96" font-family="monospace" font-size="10.00">uses</text>
</g>
<!-- lightning_notifier::Notifier::init&#45;&gt;lightning_notifier::NotificationsEmitter -->
<g id="edge21" class="edge">
<title>lightning_notifier::Notifier::init&#45;&gt;lightning_notifier::NotificationsEmitter</title>
<path fill="none" stroke="#7f7f7f" stroke-dasharray="5,2" d="M542.75,-38.96C522.36,-92.02 465.74,-239.4 441.7,-301.97"/>
<polygon fill="#7f7f7f" stroke="#7f7f7f" points="438.32,-301.01 438,-311.6 444.85,-303.52 438.32,-301.01"/>
<text text-anchor="middle" x="479.72" y="-173.47" font-family="monospace" font-size="10.00">uses</text>
</g>
<!-- lightning_notifier::Notifier::init&#45;&gt;lightning_notifier::Notifier -->
<g id="edge22" class="edge">
<title>lightning_notifier::Notifier::init&#45;&gt;lightning_notifier::Notifier</title>
<path fill="none" stroke="#7f7f7f" stroke-dasharray="5,2" d="M539.2,-38.53C528.36,-91.96 545.23,-243.38 567.64,-307.12"/>
<polygon fill="#7f7f7f" stroke="#7f7f7f" points="564.42,-308.5 571.28,-316.57 570.95,-305.98 564.42,-308.5"/>
<text text-anchor="middle" x="540.92" y="-175.82" font-family="monospace" font-size="10.00">uses</text>
</g>
<!-- lightning_notifier::Notifier::notify_before_epoch_change&#45;&gt;lightning_notifier::Notifier -->
<g id="edge23" class="edge">
<title>lightning_notifier::Notifier::notify_before_epoch_change&#45;&gt;lightning_notifier::Notifier</title>
<path fill="none" stroke="#7f7f7f" stroke-dasharray="5,2" d="M781.13,-628.5C769.08,-574.31 679.67,-424.48 625.46,-362.5"/>
<polygon fill="#7f7f7f" stroke="#7f7f7f" points="628.01,-360.1 618.7,-355.04 622.82,-364.8 628.01,-360.1"/>
<text text-anchor="middle" x="690.79" y="-498.5" font-family="monospace" font-size="10.00">uses</text>
</g>
<!-- lightning_notifier::Notifier::notify_on_new_block&#45;&gt;lightning_notifier::NotificationsEmitter -->
<g id="edge24" class="edge">
<title>lightning_notifier::Notifier::notify_on_new_block&#45;&gt;lightning_notifier::NotificationsEmitter</title>
<path fill="none" stroke="#7f7f7f" stroke-dasharray="5,2" d="M665.07,-447.52C616.14,-423.12 531.32,-380.84 478.25,-354.38"/>
<polygon fill="#7f7f7f" stroke="#7f7f7f" points="479.56,-351.12 469.05,-349.79 476.43,-357.39 479.56,-351.12"/>
<text text-anchor="middle" x="559.16" y="-403.95" font-family="monospace" font-size="10.00">uses</text>
</g>
<!-- lightning_notifier::Notifier::notify_on_new_block&#45;&gt;lightning_notifier::Notifier -->
<g id="edge25" class="edge">
<title>lightning_notifier::Notifier::notify_on_new_block&#45;&gt;lightning_notifier::Notifier</title>
<path fill="none" stroke="#7f7f7f" stroke-dasharray="5,2" d="M706.08,-447.36C699.21,-420.95 665.23,-377.93 634.63,-352.88"/>
<polygon fill="#7f7f7f" stroke="#7f7f7f" points="636.58,-349.96 626.53,-346.61 632.3,-355.5 636.58,-349.96"/>
<text text-anchor="middle" x="657.85" y="-403.12" font-family="monospace" font-size="10.00">uses</text>
</g>
<!-- lightning_notifier::Notifier::notify_on_new_epoch&#45;&gt;lightning_notifier::NotificationsEmitter -->
<g id="edge26" class="edge">
<title>lightning_notifier::Notifier::notify_on_new_epoch&#45;&gt;lightning_notifier::NotificationsEmitter</title>
<path fill="none" stroke="#7f7f7f" stroke-dasharray="5,2" d="M703.55,-302.48C643.15,-308.72 566.15,-316.67 509.36,-322.54"/>
<polygon fill="#7f7f7f" stroke="#7f7f7f" points="508.94,-319.06 499.35,-323.57 509.66,-326.02 508.94,-319.06"/>
<text text-anchor="middle" x="593.95" y="-304.51" font-family="monospace" font-size="10.00">uses</text>
</g>
<!-- lightning_notifier::Notifier::notify_on_new_epoch&#45;&gt;lightning_notifier::Notifier -->
<g id="edge27" class="edge">
<title>lightning_notifier::Notifier::notify_on_new_epoch&#45;&gt;lightning_notifier::Notifier</title>
<path fill="none" stroke="#7f7f7f" stroke-dasharray="5,2" d="M703.82,-284.88C669.61,-290.73 633.97,-300.74 611.39,-311.95"/>
<polygon fill="#7f7f7f" stroke="#7f7f7f" points="609.62,-308.93 602.55,-316.82 613,-315.06 609.62,-308.93"/>
<text text-anchor="middle" x="645.1" y="-301.42" font-family="monospace" font-size="10.00">uses</text>
</g>
</g>
</svg>
