<?xml version="1.0" encoding="UTF-8" standalone="no"?>
<!DOCTYPE svg PUBLIC "-//W3C//DTD SVG 1.1//EN"
 "http://www.w3.org/Graphics/SVG/1.1/DTD/svg11.dtd">
<!-- Generated by graphviz version 4.0.0 (0)
 -->
<!-- Pages: 1 -->
<svg width="1474pt" height="999pt"
 viewBox="0.00 0.00 1473.62 998.66" xmlns="http://www.w3.org/2000/svg" xmlns:xlink="http://www.w3.org/1999/xlink">
<g id="graph0" class="graph" transform="scale(1 1) rotate(0) translate(28.8 969.86)">
<polygon fill="white" stroke="transparent" points="-28.8,28.8 -28.8,-969.86 1444.82,-969.86 1444.82,28.8 -28.8,28.8"/>
<text text-anchor="middle" x="708.01" y="-908.26" font-family="Helvetica,sans-Serif" font-size="36.00">infusion_proc</text>
<!-- infusion_proc -->
<g id="node1" class="node">
<title>infusion_proc</title>
<polygon fill="#5397c8" stroke="black" points="435.66,-352.76 435.66,-390.76 530.66,-390.76 530.66,-352.76 435.66,-352.76"/>
<text text-anchor="middle" x="483.16" y="-378.76" font-family="monospace" font-size="10.00">crate</text>
<polyline fill="none" stroke="black" points="435.66,-371.76 530.66,-371.76 "/>
<text text-anchor="middle" x="483.16" y="-359.76" font-family="monospace" font-size="10.00">infusion_proc</text>
</g>
<!-- infusion_proc::__blank_helper -->
<g id="node2" class="node">
<title>infusion_proc::__blank_helper</title>
<polygon fill="#81c169" stroke="black" points="651.39,-424.91 651.39,-462.91 752.39,-462.91 752.39,-424.91 651.39,-424.91"/>
<text text-anchor="middle" x="701.89" y="-450.91" font-family="monospace" font-size="10.00">pub fn</text>
<polyline fill="none" stroke="black" points="651.39,-443.91 752.39,-443.91 "/>
<text text-anchor="middle" x="701.89" y="-431.91" font-family="monospace" font-size="10.00">__blank_helper</text>
</g>
<!-- infusion_proc&#45;&gt;infusion_proc::__blank_helper -->
<g id="edge1" class="edge">
<title>infusion_proc&#45;&gt;infusion_proc::__blank_helper</title>
<path fill="none" stroke="#000000" d="M530.89,-387.5C563.41,-398.23 606.72,-412.51 641.61,-424.02"/>
<polygon fill="#000000" stroke="#000000" points="640.62,-427.38 651.21,-427.19 642.81,-420.74 640.62,-427.38"/>
<text text-anchor="middle" x="573.75" y="-408.76" font-family="monospace" font-size="10.00">owns</text>
</g>
<!-- infusion_proc::__gen_macros_helper -->
<g id="node3" class="node">
<title>infusion_proc::__gen_macros_helper</title>
<polygon fill="#81c169" stroke="black" points="950.49,-735.31 950.49,-773.31 1081.49,-773.31 1081.49,-735.31 950.49,-735.31"/>
<text text-anchor="middle" x="1015.99" y="-761.31" font-family="monospace" font-size="10.00">pub fn</text>
<polyline fill="none" stroke="black" points="950.49,-754.31 1081.49,-754.31 "/>
<text text-anchor="middle" x="1015.99" y="-742.31" font-family="monospace" font-size="10.00">__gen_macros_helper</text>
</g>
<!-- infusion_proc&#45;&gt;infusion_proc::__gen_macros_helper -->
<g id="edge2" class="edge">
<title>infusion_proc&#45;&gt;infusion_proc::__gen_macros_helper</title>
<path fill="none" stroke="#000000" d="M509.95,-390.99C598.53,-454.59 882,-658.11 981.26,-729.37"/>
<polygon fill="#000000" stroke="#000000" points="979.3,-732.27 989.46,-735.26 983.38,-726.59 979.3,-732.27"/>
<text text-anchor="middle" x="733.11" y="-563.18" font-family="monospace" font-size="10.00">owns</text>
</g>
<!-- infusion_proc::__modifier_helper -->
<g id="node4" class="node">
<title>infusion_proc::__modifier_helper</title>
<polygon fill="#81c169" stroke="black" points="891.82,-790.46 891.82,-828.46 1010.82,-828.46 1010.82,-790.46 891.82,-790.46"/>
<text text-anchor="middle" x="951.32" y="-816.46" font-family="monospace" font-size="10.00">pub fn</text>
<polyline fill="none" stroke="black" points="891.82,-809.46 1010.82,-809.46 "/>
<text text-anchor="middle" x="951.32" y="-797.46" font-family="monospace" font-size="10.00">__modifier_helper</text>
</g>
<!-- infusion_proc&#45;&gt;infusion_proc::__modifier_helper -->
<g id="edge3" class="edge">
<title>infusion_proc&#45;&gt;infusion_proc::__modifier_helper</title>
<path fill="none" stroke="#000000" d="M503.58,-390.85C578.33,-460.73 837.19,-702.75 923.25,-783.21"/>
<polygon fill="#000000" stroke="#000000" points="921.1,-785.99 930.8,-790.27 925.88,-780.88 921.1,-785.99"/>
<text text-anchor="middle" x="700.91" y="-590.03" font-family="monospace" font-size="10.00">owns</text>
</g>
<!-- infusion_proc::blank -->
<g id="node5" class="node">
<title>infusion_proc::blank</title>
<polygon fill="#81c169" stroke="black" points="829.79,-827.6 829.79,-865.6 883.79,-865.6 883.79,-827.6 829.79,-827.6"/>
<text text-anchor="middle" x="856.79" y="-853.6" font-family="monospace" font-size="10.00">pub fn</text>
<polyline fill="none" stroke="black" points="829.79,-846.6 883.79,-846.6 "/>
<text text-anchor="middle" x="856.79" y="-834.6" font-family="monospace" font-size="10.00">blank</text>
</g>
<!-- infusion_proc&#45;&gt;infusion_proc::blank -->
<g id="edge4" class="edge">
<title>infusion_proc&#45;&gt;infusion_proc::blank</title>
<path fill="none" stroke="#000000" d="M498.27,-390.96C556.6,-465.09 767.26,-732.81 835.38,-819.39"/>
<polygon fill="#000000" stroke="#000000" points="832.77,-821.72 841.7,-827.42 838.27,-817.39 832.77,-821.72"/>
<text text-anchor="middle" x="654.33" y="-608.17" font-family="monospace" font-size="10.00">owns</text>
</g>
<!-- infusion_proc::helpers::IdentSet -->
<g id="node6" class="node">
<title>infusion_proc::helpers::IdentSet</title>
<polygon fill="#81c169" stroke="black" points="1062.09,-475.62 1062.09,-513.62 1181.09,-513.62 1181.09,-475.62 1062.09,-475.62"/>
<text text-anchor="middle" x="1121.59" y="-501.62" font-family="monospace" font-size="10.00">pub struct</text>
<polyline fill="none" stroke="black" points="1062.09,-494.62 1181.09,-494.62 "/>
<text text-anchor="middle" x="1121.59" y="-482.62" font-family="monospace" font-size="10.00">helpers::IdentSet</text>
</g>
<!-- infusion_proc&#45;&gt;infusion_proc::helpers::IdentSet -->
<g id="edge5" class="edge">
<title>infusion_proc&#45;&gt;infusion_proc::helpers::IdentSet</title>
<path fill="none" stroke="#000000" d="M530.89,-380.94C642.61,-402.44 921.54,-456.13 1052.12,-481.26"/>
<polygon fill="#000000" stroke="#000000" points="1051.53,-484.71 1062.02,-483.16 1052.86,-477.83 1051.53,-484.71"/>
<text text-anchor="middle" x="779" y="-423.1" font-family="monospace" font-size="10.00">owns</text>
</g>
<!-- infusion_proc::helpers::IdentSetPair -->
<g id="node8" class="node">
<title>infusion_proc::helpers::IdentSetPair</title>
<polygon fill="#81c169" stroke="black" points="845.06,-498.69 845.06,-536.69 988.06,-536.69 988.06,-498.69 845.06,-498.69"/>
<text text-anchor="middle" x="916.56" y="-524.69" font-family="monospace" font-size="10.00">pub struct</text>
<polyline fill="none" stroke="black" points="845.06,-517.69 988.06,-517.69 "/>
<text text-anchor="middle" x="916.56" y="-505.69" font-family="monospace" font-size="10.00">helpers::IdentSetPair</text>
</g>
<!-- infusion_proc&#45;&gt;infusion_proc::helpers::IdentSetPair -->
<g id="edge6" class="edge">
<title>infusion_proc&#45;&gt;infusion_proc::helpers::IdentSetPair</title>
<path fill="none" stroke="#000000" d="M530.78,-387.79C608.36,-413.91 762.18,-465.71 850.35,-495.39"/>
<polygon fill="#000000" stroke="#000000" points="849.38,-498.76 859.98,-498.64 851.62,-492.13 849.38,-498.76"/>
<text text-anchor="middle" x="678.06" y="-444.59" font-family="monospace" font-size="10.00">owns</text>
</g>
<!-- infusion_proc::helpers::generate_macros -->
<g id="node10" class="node">
<title>infusion_proc::helpers::generate_macros</title>
<polygon fill="#81c169" stroke="black" points="660.74,-854.56 660.74,-892.56 821.74,-892.56 821.74,-854.56 660.74,-854.56"/>
<text text-anchor="middle" x="741.24" y="-880.56" font-family="monospace" font-size="10.00">pub fn</text>
<polyline fill="none" stroke="black" points="660.74,-873.56 821.74,-873.56 "/>
<text text-anchor="middle" x="741.24" y="-861.56" font-family="monospace" font-size="10.00">helpers::generate_macros</text>
</g>
<!-- infusion_proc&#45;&gt;infusion_proc::helpers::generate_macros -->
<g id="edge7" class="edge">
<title>infusion_proc&#45;&gt;infusion_proc::helpers::generate_macros</title>
<path fill="none" stroke="#000000" d="M492.96,-390.82C532.45,-467.59 679.96,-754.4 726.84,-845.56"/>
<polygon fill="#000000" stroke="#000000" points="723.75,-847.19 731.43,-854.49 729.97,-843.99 723.75,-847.19"/>
<text text-anchor="middle" x="597.4" y="-621.19" font-family="monospace" font-size="10.00">owns</text>
</g>
<!-- infusion_proc::helpers::generate_partial_blank -->
<g id="node11" class="node">
<title>infusion_proc::helpers::generate_partial_blank</title>
<polygon fill="#81c169" stroke="black" points="961.84,-662.12 961.84,-700.12 1164.84,-700.12 1164.84,-662.12 961.84,-662.12"/>
<text text-anchor="middle" x="1063.34" y="-688.12" font-family="monospace" font-size="10.00">pub fn</text>
<polyline fill="none" stroke="black" points="961.84,-681.12 1164.84,-681.12 "/>
<text text-anchor="middle" x="1063.34" y="-669.12" font-family="monospace" font-size="10.00">helpers::generate_partial_blank</text>
</g>
<!-- infusion_proc&#45;&gt;infusion_proc::helpers::generate_partial_blank -->
<g id="edge8" class="edge">
<title>infusion_proc&#45;&gt;infusion_proc::helpers::generate_partial_blank</title>
<path fill="none" stroke="#000000" d="M519.02,-390.88C620.06,-444.76 907.02,-597.77 1018.39,-657.15"/>
<polygon fill="#000000" stroke="#000000" points="1016.89,-660.32 1027.36,-661.93 1020.18,-654.14 1016.89,-660.32"/>
<text text-anchor="middle" x="756.2" y="-527.01" font-family="monospace" font-size="10.00">owns</text>
</g>
<!-- infusion_proc::helpers::generate_partial_modifier -->
<g id="node12" class="node">
<title>infusion_proc::helpers::generate_partial_modifier</title>
<polygon fill="#81c169" stroke="black" points="431.66,-830.36 431.66,-868.36 652.66,-868.36 652.66,-830.36 431.66,-830.36"/>
<text text-anchor="middle" x="542.16" y="-856.36" font-family="monospace" font-size="10.00">pub fn</text>
<polyline fill="none" stroke="black" points="431.66,-849.36 652.66,-849.36 "/>
<text text-anchor="middle" x="542.16" y="-837.36" font-family="monospace" font-size="10.00">helpers::generate_partial_modifier</text>
</g>
<!-- infusion_proc&#45;&gt;infusion_proc::helpers::generate_partial_modifier -->
<g id="edge9" class="edge">
<title>infusion_proc&#45;&gt;infusion_proc::helpers::generate_partial_modifier</title>
<path fill="none" stroke="#000000" d="M485.51,-390.77C494.61,-464.46 527.6,-731.48 538.57,-820.36"/>
<polygon fill="#000000" stroke="#000000" points="535.1,-820.79 539.8,-830.29 542.05,-819.93 535.1,-820.79"/>
<text text-anchor="middle" x="499.54" y="-608.57" font-family="monospace" font-size="10.00">owns</text>
</g>
<!-- infusion_proc::on_trait::extract_default_attribute -->
<g id="node13" class="node">
<title>infusion_proc::on_trait::extract_default_attribute</title>
<polygon fill="#db5367" stroke="black" points="307.85,-782.69 307.85,-820.69 534.85,-820.69 534.85,-782.69 307.85,-782.69"/>
<text text-anchor="middle" x="421.35" y="-808.69" font-family="monospace" font-size="10.00">pub(self) fn</text>
<polyline fill="none" stroke="black" points="307.85,-801.69 534.85,-801.69 "/>
<text text-anchor="middle" x="421.35" y="-789.69" font-family="monospace" font-size="10.00">on_trait::extract_default_attribute</text>
</g>
<!-- infusion_proc&#45;&gt;infusion_proc::on_trait::extract_default_attribute -->
<g id="edge10" class="edge">
<title>infusion_proc&#45;&gt;infusion_proc::on_trait::extract_default_attribute</title>
<path fill="none" stroke="#000000" d="M480.42,-390.79C470.64,-458.82 437.36,-690.32 425.55,-772.48"/>
<polygon fill="#000000" stroke="#000000" points="422.08,-772 424.12,-782.4 429.01,-773 422.08,-772"/>
<text text-anchor="middle" x="440.49" y="-584.63" font-family="monospace" font-size="10.00">owns</text>
</g>
<!-- infusion_proc::on_trait::impl_init -->
<g id="node14" class="node">
<title>infusion_proc::on_trait::impl_init</title>
<polygon fill="#db5367" stroke="black" points="303.82,-728.05 303.82,-766.05 434.82,-766.05 434.82,-728.05 303.82,-728.05"/>
<text text-anchor="middle" x="369.32" y="-754.05" font-family="monospace" font-size="10.00">pub(self) fn</text>
<polyline fill="none" stroke="black" points="303.82,-747.05 434.82,-747.05 "/>
<text text-anchor="middle" x="369.32" y="-735.05" font-family="monospace" font-size="10.00">on_trait::impl_init</text>
</g>
<!-- infusion_proc&#45;&gt;infusion_proc::on_trait::impl_init -->
<g id="edge11" class="edge">
<title>infusion_proc&#45;&gt;infusion_proc::on_trait::impl_init</title>
<path fill="none" stroke="#000000" d="M477.36,-390.88C458.75,-452.24 400.45,-644.42 378.13,-717.99"/>
<polygon fill="#000000" stroke="#000000" points="374.66,-717.37 375.11,-727.96 381.36,-719.41 374.66,-717.37"/>
<text text-anchor="middle" x="415.24" y="-557.44" font-family="monospace" font-size="10.00">owns</text>
</g>
<!-- infusion_proc::on_trait::impl_post -->
<g id="node15" class="node">
<title>infusion_proc::on_trait::impl_post</title>
<polygon fill="#db5367" stroke="black" points="251.65,-656.78 251.65,-694.78 382.65,-694.78 382.65,-656.78 251.65,-656.78"/>
<text text-anchor="middle" x="317.15" y="-682.78" font-family="monospace" font-size="10.00">pub(self) fn</text>
<polyline fill="none" stroke="black" points="251.65,-675.78 382.65,-675.78 "/>
<text text-anchor="middle" x="317.15" y="-663.78" font-family="monospace" font-size="10.00">on_trait::impl_post</text>
</g>
<!-- infusion_proc&#45;&gt;infusion_proc::on_trait::impl_post -->
<g id="edge12" class="edge">
<title>infusion_proc&#45;&gt;infusion_proc::on_trait::impl_post</title>
<path fill="none" stroke="#000000" d="M472.78,-390.77C444.48,-442.6 365.89,-586.51 332.49,-647.69"/>
<polygon fill="#000000" stroke="#000000" points="329.25,-646.31 327.53,-656.77 335.39,-649.67 329.25,-646.31"/>
<text text-anchor="middle" x="390.13" y="-522.23" font-family="monospace" font-size="10.00">owns</text>
</g>
<!-- infusion_proc::on_trait::implement_blank_method -->
<g id="node16" class="node">
<title>infusion_proc::on_trait::implement_blank_method</title>
<polygon fill="#db5367" stroke="black" points="177.55,-571.23 177.55,-609.23 386.55,-609.23 386.55,-571.23 177.55,-571.23"/>
<text text-anchor="middle" x="282.05" y="-597.23" font-family="monospace" font-size="10.00">pub(self) fn</text>
<polyline fill="none" stroke="black" points="177.55,-590.23 386.55,-590.23 "/>
<text text-anchor="middle" x="282.05" y="-578.23" font-family="monospace" font-size="10.00">on_trait::implement_blank_method</text>
</g>
<!-- infusion_proc&#45;&gt;infusion_proc::on_trait::implement_blank_method -->
<g id="edge13" class="edge">
<title>infusion_proc&#45;&gt;infusion_proc::on_trait::implement_blank_method</title>
<path fill="none" stroke="#000000" d="M465.67,-390.76C429.79,-429.74 347.79,-518.82 306.61,-563.55"/>
<polygon fill="#000000" stroke="#000000" points="303.85,-561.38 299.65,-571.11 309,-566.13 303.85,-561.38"/>
<text text-anchor="middle" x="373.64" y="-480.16" font-family="monospace" font-size="10.00">owns</text>
</g>
<!-- infusion_proc::on_trait::process_trait -->
<g id="node17" class="node">
<title>infusion_proc::on_trait::process_trait</title>
<polygon fill="#81c169" stroke="black" points="199.45,-475.67 199.45,-513.67 354.45,-513.67 354.45,-475.67 199.45,-475.67"/>
<text text-anchor="middle" x="276.95" y="-501.67" font-family="monospace" font-size="10.00">pub fn</text>
<polyline fill="none" stroke="black" points="199.45,-494.67 354.45,-494.67 "/>
<text text-anchor="middle" x="276.95" y="-482.67" font-family="monospace" font-size="10.00">on_trait::process_trait</text>
</g>
<!-- infusion_proc&#45;&gt;infusion_proc::on_trait::process_trait -->
<g id="edge14" class="edge">
<title>infusion_proc&#45;&gt;infusion_proc::on_trait::process_trait</title>
<path fill="none" stroke="#000000" d="M450.94,-390.96C415.07,-412.34 357.03,-446.94 317.95,-470.23"/>
<polygon fill="#000000" stroke="#000000" points="315.74,-467.48 308.94,-475.6 319.32,-473.49 315.74,-467.48"/>
<text text-anchor="middle" x="371.95" y="-433.6" font-family="monospace" font-size="10.00">owns</text>
</g>
<!-- infusion_proc::parse::Item -->
<g id="node18" class="node">
<title>infusion_proc::parse::Item</title>
<polygon fill="#81c169" stroke="black" points="235.93,-374.98 235.93,-412.98 318.93,-412.98 318.93,-374.98 235.93,-374.98"/>
<text text-anchor="middle" x="277.43" y="-400.98" font-family="monospace" font-size="10.00">pub enum</text>
<polyline fill="none" stroke="black" points="235.93,-393.98 318.93,-393.98 "/>
<text text-anchor="middle" x="277.43" y="-381.98" font-family="monospace" font-size="10.00">parse::Item</text>
</g>
<!-- infusion_proc&#45;&gt;infusion_proc::parse::Item -->
<g id="edge15" class="edge">
<title>infusion_proc&#45;&gt;infusion_proc::parse::Item</title>
<path fill="none" stroke="#000000" d="M435.56,-353.97C395.32,-351.81 339.03,-358.9 305.59,-371.02"/>
<polygon fill="#000000" stroke="#000000" points="303.92,-367.93 295.98,-374.95 306.56,-374.41 303.92,-367.93"/>
<text text-anchor="middle" x="358.07" y="-365.5" font-family="monospace" font-size="10.00">owns</text>
</g>
<!-- infusion_proc&#45;&gt;infusion_proc::parse::Item -->
<g id="edge16" class="edge">
<title>infusion_proc&#45;&gt;infusion_proc::parse::Item</title>
<path fill="none" stroke="#7f7f7f" stroke-dasharray="5,2" d="M464.51,-390.85C434.22,-404.84 373.42,-413.58 329.32,-411.96"/>
<polygon fill="#7f7f7f" stroke="#7f7f7f" points="329.25,-408.45 319.06,-411.37 328.85,-415.44 329.25,-408.45"/>
<text text-anchor="middle" x="384.41" y="-404.4" font-family="monospace" font-size="10.00">uses</text>
</g>
<!-- infusion_proc::service -->
<g id="node20" class="node">
<title>infusion_proc::service</title>
<polygon fill="#81c169" stroke="black" points="262.01,-278.24 262.01,-316.24 321.01,-316.24 321.01,-278.24 262.01,-278.24"/>
<text text-anchor="middle" x="291.51" y="-304.24" font-family="monospace" font-size="10.00">pub fn</text>
<polyline fill="none" stroke="black" points="262.01,-297.24 321.01,-297.24 "/>
<text text-anchor="middle" x="291.51" y="-285.24" font-family="monospace" font-size="10.00">service</text>
</g>
<!-- infusion_proc&#45;&gt;infusion_proc::service -->
<g id="edge17" class="edge">
<title>infusion_proc&#45;&gt;infusion_proc::service</title>
<path fill="none" stroke="#000000" d="M435.29,-353.14C402.98,-340.58 360.86,-324.2 330.58,-312.43"/>
<polygon fill="#000000" stroke="#000000" points="331.77,-309.14 321.19,-308.77 329.24,-315.66 331.77,-309.14"/>
<text text-anchor="middle" x="370.43" y="-335.78" font-family="monospace" font-size="10.00">owns</text>
</g>
<!-- infusion_proc::sig::InfuFnKind -->
<g id="node21" class="node">
<title>infusion_proc::sig::InfuFnKind</title>
<polygon fill="#81c169" stroke="black" points="275.56,-192.02 275.56,-230.02 382.56,-230.02 382.56,-192.02 275.56,-192.02"/>
<text text-anchor="middle" x="329.06" y="-218.02" font-family="monospace" font-size="10.00">pub enum</text>
<polyline fill="none" stroke="black" points="275.56,-211.02 382.56,-211.02 "/>
<text text-anchor="middle" x="329.06" y="-199.02" font-family="monospace" font-size="10.00">sig::InfuFnKind</text>
</g>
<!-- infusion_proc&#45;&gt;infusion_proc::sig::InfuFnKind -->
<g id="edge18" class="edge">
<title>infusion_proc&#45;&gt;infusion_proc::sig::InfuFnKind</title>
<path fill="none" stroke="#000000" d="M464.88,-352.69C437.42,-324.05 385.45,-269.84 354.37,-237.42"/>
<polygon fill="#000000" stroke="#000000" points="356.76,-234.87 347.32,-230.07 351.71,-239.71 356.76,-234.87"/>
<text text-anchor="middle" x="397.12" y="-298.05" font-family="monospace" font-size="10.00">owns</text>
</g>
<!-- infusion_proc::sig::get_infu_collection_member_from_arg -->
<g id="node22" class="node">
<title>infusion_proc::sig::get_infu_collection_member_from_arg</title>
<polygon fill="#db5367" stroke="black" points="248.55,-119.57 248.55,-157.57 505.55,-157.57 505.55,-119.57 248.55,-119.57"/>
<text text-anchor="middle" x="377.05" y="-145.57" font-family="monospace" font-size="10.00">pub(self) fn</text>
<polyline fill="none" stroke="black" points="248.55,-138.57 505.55,-138.57 "/>
<text text-anchor="middle" x="377.05" y="-126.57" font-family="monospace" font-size="10.00">sig::get_infu_collection_member_from_arg</text>
</g>
<!-- infusion_proc&#45;&gt;infusion_proc::sig::get_infu_collection_member_from_arg -->
<g id="edge19" class="edge">
<title>infusion_proc&#45;&gt;infusion_proc::sig::get_infu_collection_member_from_arg</title>
<path fill="none" stroke="#000000" d="M474.48,-352.67C455.82,-311.66 411.81,-214.95 389.9,-166.81"/>
<polygon fill="#000000" stroke="#000000" points="393.03,-165.24 385.71,-157.59 386.66,-168.14 393.03,-165.24"/>
<text text-anchor="middle" x="419.69" y="-262.74" font-family="monospace" font-size="10.00">owns</text>
</g>
<!-- infusion_proc::sig::get_infu_param_name -->
<g id="node23" class="node">
<title>infusion_proc::sig::get_infu_param_name</title>
<polygon fill="#db5367" stroke="black" points="363.77,-63.37 363.77,-101.37 524.77,-101.37 524.77,-63.37 363.77,-63.37"/>
<text text-anchor="middle" x="444.27" y="-89.37" font-family="monospace" font-size="10.00">pub(self) fn</text>
<polyline fill="none" stroke="black" points="363.77,-82.37 524.77,-82.37 "/>
<text text-anchor="middle" x="444.27" y="-70.37" font-family="monospace" font-size="10.00">sig::get_infu_param_name</text>
</g>
<!-- infusion_proc&#45;&gt;infusion_proc::sig::get_infu_param_name -->
<g id="edge20" class="edge">
<title>infusion_proc&#45;&gt;infusion_proc::sig::get_infu_param_name</title>
<path fill="none" stroke="#000000" d="M480.55,-352.32C473.88,-302.69 456.19,-171.04 448.24,-111.89"/>
<polygon fill="#000000" stroke="#000000" points="451.67,-111.16 446.87,-101.72 444.74,-112.1 451.67,-111.16"/>
<text text-anchor="middle" x="451.89" y="-235.1" font-family="monospace" font-size="10.00">owns</text>
</g>
<!-- infusion_proc::sig::verify_fn_signature -->
<g id="node24" class="node">
<title>infusion_proc::sig::verify_fn_signature</title>
<polygon fill="#81c169" stroke="black" points="487.74,-16.34 487.74,-54.34 648.74,-54.34 648.74,-16.34 487.74,-16.34"/>
<text text-anchor="middle" x="568.24" y="-42.34" font-family="monospace" font-size="10.00">pub fn</text>
<polyline fill="none" stroke="black" points="487.74,-35.34 648.74,-35.34 "/>
<text text-anchor="middle" x="568.24" y="-23.34" font-family="monospace" font-size="10.00">sig::verify_fn_signature</text>
</g>
<!-- infusion_proc&#45;&gt;infusion_proc::sig::verify_fn_signature -->
<g id="edge21" class="edge">
<title>infusion_proc&#45;&gt;infusion_proc::sig::verify_fn_signature</title>
<path fill="none" stroke="#000000" d="M487.98,-352.71C502.16,-296.63 543.83,-131.89 560.86,-64.54"/>
<polygon fill="#000000" stroke="#000000" points="564.32,-65.15 563.37,-54.6 557.53,-63.43 564.32,-65.15"/>
<text text-anchor="middle" x="511.92" y="-211.62" font-family="monospace" font-size="10.00">owns</text>
</g>
<!-- infusion_proc::utils::Mode -->
<g id="node25" class="node">
<title>infusion_proc::utils::Mode</title>
<polygon fill="#81c169" stroke="black" points="657.08,-0.5 657.08,-38.5 740.08,-38.5 740.08,-0.5 657.08,-0.5"/>
<text text-anchor="middle" x="698.58" y="-26.5" font-family="monospace" font-size="10.00">pub enum</text>
<polyline fill="none" stroke="black" points="657.08,-19.5 740.08,-19.5 "/>
<text text-anchor="middle" x="698.58" y="-7.5" font-family="monospace" font-size="10.00">utils::Mode</text>
</g>
<!-- infusion_proc&#45;&gt;infusion_proc::utils::Mode -->
<g id="edge22" class="edge">
<title>infusion_proc&#45;&gt;infusion_proc::utils::Mode</title>
<path fill="none" stroke="#000000" d="M494.9,-352.57C530.77,-293.9 639.14,-116.7 681.42,-47.56"/>
<polygon fill="#000000" stroke="#000000" points="684.47,-49.28 686.7,-38.92 678.5,-45.63 684.47,-49.28"/>
<text text-anchor="middle" x="575.66" y="-203.06" font-family="monospace" font-size="10.00">owns</text>
</g>
<!-- infusion_proc::utils::collect_generics_names -->
<g id="node26" class="node">
<title>infusion_proc::utils::collect_generics_names</title>
<polygon fill="#81c169" stroke="black" points="748.46,-18.23 748.46,-56.23 939.46,-56.23 939.46,-18.23 748.46,-18.23"/>
<text text-anchor="middle" x="843.96" y="-44.23" font-family="monospace" font-size="10.00">pub fn</text>
<polyline fill="none" stroke="black" points="748.46,-37.23 939.46,-37.23 "/>
<text text-anchor="middle" x="843.96" y="-25.23" font-family="monospace" font-size="10.00">utils::collect_generics_names</text>
</g>
<!-- infusion_proc&#45;&gt;infusion_proc::utils::collect_generics_names -->
<g id="edge23" class="edge">
<title>infusion_proc&#45;&gt;infusion_proc::utils::collect_generics_names</title>
<path fill="none" stroke="#000000" d="M503.85,-352.57C565.13,-295.76 745.72,-128.31 815.75,-63.38"/>
<polygon fill="#000000" stroke="#000000" points="818.39,-65.71 823.34,-56.34 813.63,-60.57 818.39,-65.71"/>
<text text-anchor="middle" x="647.3" y="-210.97" font-family="monospace" font-size="10.00">owns</text>
</g>
<!-- infusion_proc::utils::generics_to_blank -->
<g id="node27" class="node">
<title>infusion_proc::utils::generics_to_blank</title>
<polygon fill="#81c169" stroke="black" points="887.14,-65.24 887.14,-103.24 1048.14,-103.24 1048.14,-65.24 887.14,-65.24"/>
<text text-anchor="middle" x="967.64" y="-91.24" font-family="monospace" font-size="10.00">pub fn</text>
<polyline fill="none" stroke="black" points="887.14,-84.24 1048.14,-84.24 "/>
<text text-anchor="middle" x="967.64" y="-72.24" font-family="monospace" font-size="10.00">utils::generics_to_blank</text>
</g>
<!-- infusion_proc&#45;&gt;infusion_proc::utils::generics_to_blank -->
<g id="edge24" class="edge">
<title>infusion_proc&#45;&gt;infusion_proc::utils::generics_to_blank</title>
<path fill="none" stroke="#000000" d="M515.32,-352.67C600.6,-302.06 832.37,-164.51 926.79,-108.48"/>
<polygon fill="#000000" stroke="#000000" points="928.68,-111.43 935.49,-103.32 925.1,-105.41 928.68,-111.43"/>
<text text-anchor="middle" x="708.56" y="-233.57" font-family="monospace" font-size="10.00">owns</text>
</g>
<!-- infusion_proc::utils::impl_trait_const -->
<g id="node28" class="node">
<title>infusion_proc::utils::impl_trait_const</title>
<polygon fill="#81c169" stroke="black" points="958.8,-120.59 958.8,-158.59 1113.8,-158.59 1113.8,-120.59 958.8,-120.59"/>
<text text-anchor="middle" x="1036.3" y="-146.59" font-family="monospace" font-size="10.00">pub fn</text>
<polyline fill="none" stroke="black" points="958.8,-139.59 1113.8,-139.59 "/>
<text text-anchor="middle" x="1036.3" y="-127.59" font-family="monospace" font-size="10.00">utils::impl_trait_const</text>
</g>
<!-- infusion_proc&#45;&gt;infusion_proc::utils::impl_trait_const -->
<g id="edge25" class="edge">
<title>infusion_proc&#45;&gt;infusion_proc::utils::impl_trait_const</title>
<path fill="none" stroke="#000000" d="M528.9,-352.56C630.03,-310.11 872.29,-208.43 981.39,-162.64"/>
<polygon fill="#000000" stroke="#000000" points="983.03,-165.75 990.9,-158.65 980.32,-159.29 983.03,-165.75"/>
<text text-anchor="middle" x="742.64" y="-260.6" font-family="monospace" font-size="10.00">owns</text>
</g>
<!-- infusion_proc::utils::impl_trait_fn -->
<g id="node29" class="node">
<title>infusion_proc::utils::impl_trait_fn</title>
<polygon fill="#81c169" stroke="black" points="1012.57,-192.36 1012.57,-230.36 1149.57,-230.36 1149.57,-192.36 1012.57,-192.36"/>
<text text-anchor="middle" x="1081.07" y="-218.36" font-family="monospace" font-size="10.00">pub fn</text>
<polyline fill="none" stroke="black" points="1012.57,-211.36 1149.57,-211.36 "/>
<text text-anchor="middle" x="1081.07" y="-199.36" font-family="monospace" font-size="10.00">utils::impl_trait_fn</text>
</g>
<!-- infusion_proc&#45;&gt;infusion_proc::utils::impl_trait_fn -->
<g id="edge26" class="edge">
<title>infusion_proc&#45;&gt;infusion_proc::utils::impl_trait_fn</title>
<path fill="none" stroke="#000000" d="M530.83,-358.97C633.46,-331.44 876.21,-266.32 1002.17,-232.53"/>
<polygon fill="#000000" stroke="#000000" points="1003.39,-235.82 1012.14,-229.85 1001.57,-229.06 1003.39,-235.82"/>
<text text-anchor="middle" x="754" y="-298.75" font-family="monospace" font-size="10.00">owns</text>
</g>
<!-- infusion_proc::utils::impl_trait_type -->
<g id="node30" class="node">
<title>infusion_proc::utils::impl_trait_type</title>
<polygon fill="#81c169" stroke="black" points="1041.68,-278.31 1041.68,-316.31 1190.68,-316.31 1190.68,-278.31 1041.68,-278.31"/>
<text text-anchor="middle" x="1116.18" y="-304.31" font-family="monospace" font-size="10.00">pub fn</text>
<polyline fill="none" stroke="black" points="1041.68,-297.31 1190.68,-297.31 "/>
<text text-anchor="middle" x="1116.18" y="-285.31" font-family="monospace" font-size="10.00">utils::impl_trait_type</text>
</g>
<!-- infusion_proc&#45;&gt;infusion_proc::utils::impl_trait_type -->
<g id="edge27" class="edge">
<title>infusion_proc&#45;&gt;infusion_proc::utils::impl_trait_type</title>
<path fill="none" stroke="#000000" d="M530.74,-366.16C637.3,-353.63 896.32,-323.17 1031.26,-307.3"/>
<polygon fill="#000000" stroke="#000000" points="1032.03,-310.73 1041.55,-306.09 1031.21,-303.78 1032.03,-310.73"/>
<text text-anchor="middle" x="768.5" y="-339.73" font-family="monospace" font-size="10.00">owns</text>
</g>
<!-- infusion_proc::utils::tag -->
<g id="node31" class="node">
<title>infusion_proc::utils::tag</title>
<polygon fill="#81c169" stroke="black" points="1088.87,-374.87 1088.87,-412.87 1165.87,-412.87 1165.87,-374.87 1088.87,-374.87"/>
<text text-anchor="middle" x="1127.37" y="-400.87" font-family="monospace" font-size="10.00">pub fn</text>
<polyline fill="none" stroke="black" points="1088.87,-393.87 1165.87,-393.87 "/>
<text text-anchor="middle" x="1127.37" y="-381.87" font-family="monospace" font-size="10.00">utils::tag</text>
</g>
<!-- infusion_proc&#45;&gt;infusion_proc::utils::tag -->
<g id="edge28" class="edge">
<title>infusion_proc&#45;&gt;infusion_proc::utils::tag</title>
<path fill="none" stroke="#000000" d="M530.79,-373.39C649.73,-377.48 958.77,-388.09 1078.75,-392.2"/>
<polygon fill="#000000" stroke="#000000" points="1078.64,-395.7 1088.75,-392.55 1078.88,-388.71 1078.64,-395.7"/>
<text text-anchor="middle" x="792.27" y="-385.8" font-family="monospace" font-size="10.00">owns</text>
</g>
<!-- infusion_proc::__blank_helper&#45;&gt;infusion_proc::helpers::IdentSetPair -->
<g id="edge29" class="edge">
<title>infusion_proc::__blank_helper&#45;&gt;infusion_proc::helpers::IdentSetPair</title>
<path fill="none" stroke="#7f7f7f" stroke-dasharray="5,2" d="M752.49,-461.3C782.04,-471.45 819.63,-484.37 851.37,-495.29"/>
<polygon fill="#7f7f7f" stroke="#7f7f7f" points="850.43,-498.66 861.02,-498.6 852.7,-492.04 850.43,-498.66"/>
<text text-anchor="middle" x="789.43" y="-481.29" font-family="monospace" font-size="10.00">uses</text>
</g>
<!-- infusion_proc::__gen_macros_helper&#45;&gt;infusion_proc::helpers::IdentSet -->
<g id="edge30" class="edge">
<title>infusion_proc::__gen_macros_helper&#45;&gt;infusion_proc::helpers::IdentSet</title>
<path fill="none" stroke="#7f7f7f" stroke-dasharray="5,2" d="M1023.75,-735.21C1042.1,-690.1 1088.21,-576.7 1109.93,-523.29"/>
<polygon fill="#7f7f7f" stroke="#7f7f7f" points="1113.28,-524.33 1113.81,-513.75 1106.8,-521.69 1113.28,-524.33"/>
<text text-anchor="middle" x="1054.34" y="-632.25" font-family="monospace" font-size="10.00">uses</text>
</g>
<!-- infusion_proc::__modifier_helper&#45;&gt;infusion_proc::helpers::IdentSet -->
<g id="edge31" class="edge">
<title>infusion_proc::__modifier_helper&#45;&gt;infusion_proc::helpers::IdentSet</title>
<path fill="none" stroke="#7f7f7f" stroke-dasharray="5,2" d="M961.72,-790.24C990.63,-736.77 1072.11,-586.11 1106.24,-523"/>
<polygon fill="#7f7f7f" stroke="#7f7f7f" points="1109.43,-524.45 1111.11,-513.99 1103.28,-521.12 1109.43,-524.45"/>
<text text-anchor="middle" x="1021.48" y="-648.62" font-family="monospace" font-size="10.00">uses</text>
</g>
<!-- infusion_proc::blank&#45;&gt;infusion_proc::utils::Mode -->
<g id="edge32" class="edge">
<title>infusion_proc::blank&#45;&gt;infusion_proc::utils::Mode</title>
<path fill="none" stroke="#7f7f7f" stroke-dasharray="5,2" d="M853.12,-827.37C832.31,-718.61 729.42,-180.73 704.18,-48.77"/>
<polygon fill="#7f7f7f" stroke="#7f7f7f" points="707.55,-47.79 702.24,-38.62 700.68,-49.1 707.55,-47.79"/>
<text text-anchor="middle" x="766.15" y="-441.07" font-family="monospace" font-size="10.00">uses</text>
</g>
<!-- infusion_proc::helpers::IdentSet::parse -->
<g id="node7" class="node">
<title>infusion_proc::helpers::IdentSet::parse</title>
<polygon fill="#db5367" stroke="black" points="1255.02,-500.69 1255.02,-538.69 1416.02,-538.69 1416.02,-500.69 1255.02,-500.69"/>
<text text-anchor="middle" x="1335.52" y="-526.69" font-family="monospace" font-size="10.00">pub(self) fn</text>
<polyline fill="none" stroke="black" points="1255.02,-519.69 1416.02,-519.69 "/>
<text text-anchor="middle" x="1335.52" y="-507.69" font-family="monospace" font-size="10.00">helpers::IdentSet::parse</text>
</g>
<!-- infusion_proc::helpers::IdentSet&#45;&gt;infusion_proc::helpers::IdentSet::parse -->
<g id="edge33" class="edge">
<title>infusion_proc::helpers::IdentSet&#45;&gt;infusion_proc::helpers::IdentSet::parse</title>
<path fill="none" stroke="#000000" d="M1140.15,-513.63C1163.59,-524.61 1205.49,-532.84 1244.5,-535.82"/>
<polygon fill="#000000" stroke="#000000" points="1244.67,-539.34 1254.87,-536.49 1245.12,-532.36 1244.67,-539.34"/>
<text text-anchor="middle" x="1179.83" y="-527.73" font-family="monospace" font-size="10.00">owns</text>
</g>
<!-- infusion_proc::helpers::IdentSet::parse&#45;&gt;infusion_proc::helpers::IdentSet -->
<g id="edge34" class="edge">
<title>infusion_proc::helpers::IdentSet::parse&#45;&gt;infusion_proc::helpers::IdentSet</title>
<path fill="none" stroke="#7f7f7f" stroke-dasharray="5,2" d="M1316.95,-500.68C1289.16,-487.66 1235.41,-478.51 1191.3,-477.39"/>
<polygon fill="#7f7f7f" stroke="#7f7f7f" points="1191.23,-473.89 1181.19,-477.28 1191.15,-480.89 1191.23,-473.89"/>
<text text-anchor="middle" x="1241.63" y="-492.04" font-family="monospace" font-size="10.00">uses</text>
</g>
<!-- infusion_proc::helpers::IdentSetPair&#45;&gt;infusion_proc::helpers::IdentSet -->
<g id="edge35" class="edge">
<title>infusion_proc::helpers::IdentSetPair&#45;&gt;infusion_proc::helpers::IdentSet</title>
<path fill="none" stroke="#7f7f7f" stroke-dasharray="5,2" d="M988.27,-509.62C1008.82,-507.31 1031.18,-504.79 1051.63,-502.5"/>
<polygon fill="#7f7f7f" stroke="#7f7f7f" points="1052.26,-505.95 1061.8,-501.35 1051.47,-498.99 1052.26,-505.95"/>
<text text-anchor="middle" x="1007.45" y="-509.06" font-family="monospace" font-size="10.00">uses</text>
</g>
<!-- infusion_proc::helpers::IdentSetPair::parse -->
<g id="node9" class="node">
<title>infusion_proc::helpers::IdentSetPair::parse</title>
<polygon fill="#db5367" stroke="black" points="1007.93,-573.45 1007.93,-611.45 1192.93,-611.45 1192.93,-573.45 1007.93,-573.45"/>
<text text-anchor="middle" x="1100.43" y="-599.45" font-family="monospace" font-size="10.00">pub(self) fn</text>
<polyline fill="none" stroke="black" points="1007.93,-592.45 1192.93,-592.45 "/>
<text text-anchor="middle" x="1100.43" y="-580.45" font-family="monospace" font-size="10.00">helpers::IdentSetPair::parse</text>
</g>
<!-- infusion_proc::helpers::IdentSetPair&#45;&gt;infusion_proc::helpers::IdentSetPair::parse -->
<g id="edge36" class="edge">
<title>infusion_proc::helpers::IdentSetPair&#45;&gt;infusion_proc::helpers::IdentSetPair::parse</title>
<path fill="none" stroke="#000000" d="M924.21,-536.79C938.09,-551.2 967.43,-567.52 998.31,-580.08"/>
<polygon fill="#000000" stroke="#000000" points="997.34,-583.45 1007.93,-583.85 999.89,-576.94 997.34,-583.45"/>
<text text-anchor="middle" x="948.76" y="-561.43" font-family="monospace" font-size="10.00">owns</text>
</g>
<!-- infusion_proc::helpers::IdentSetPair::parse&#45;&gt;infusion_proc::helpers::IdentSet -->
<g id="edge37" class="edge">
<title>infusion_proc::helpers::IdentSetPair::parse&#45;&gt;infusion_proc::helpers::IdentSet</title>
<path fill="none" stroke="#7f7f7f" stroke-dasharray="5,2" d="M1104.61,-573.12C1107.65,-559.06 1111.83,-539.76 1115.27,-523.81"/>
<polygon fill="#7f7f7f" stroke="#7f7f7f" points="1118.72,-524.43 1117.42,-513.91 1111.88,-522.95 1118.72,-524.43"/>
<text text-anchor="middle" x="1097.44" y="-551.47" font-family="monospace" font-size="10.00">uses</text>
</g>
<!-- infusion_proc::helpers::IdentSetPair::parse&#45;&gt;infusion_proc::helpers::IdentSetPair -->
<g id="edge38" class="edge">
<title>infusion_proc::helpers::IdentSetPair::parse&#45;&gt;infusion_proc::helpers::IdentSetPair</title>
<path fill="none" stroke="#7f7f7f" stroke-dasharray="5,2" d="M1092.79,-573.35C1075.81,-555.72 1035.68,-535.24 997.92,-522.28"/>
<polygon fill="#7f7f7f" stroke="#7f7f7f" points="998.98,-518.94 988.38,-519.15 996.79,-525.59 998.98,-518.94"/>
<text text-anchor="middle" x="1032.85" y="-550.82" font-family="monospace" font-size="10.00">uses</text>
</g>
<!-- infusion_proc::helpers::generate_macros&#45;&gt;infusion_proc::helpers::IdentSet -->
<g id="edge39" class="edge">
<title>infusion_proc::helpers::generate_macros&#45;&gt;infusion_proc::helpers::IdentSet</title>
<path fill="none" stroke="#7f7f7f" stroke-dasharray="5,2" d="M760.37,-854.51C823.01,-792.1 1022.18,-593.66 1094.78,-521.33"/>
<polygon fill="#7f7f7f" stroke="#7f7f7f" points="1097.59,-523.48 1102.2,-513.94 1092.64,-518.52 1097.59,-523.48"/>
<text text-anchor="middle" x="915.07" y="-690.92" font-family="monospace" font-size="10.00">uses</text>
</g>
<!-- infusion_proc::helpers::generate_partial_blank&#45;&gt;infusion_proc::helpers::IdentSetPair -->
<g id="edge40" class="edge">
<title>infusion_proc::helpers::generate_partial_blank&#45;&gt;infusion_proc::helpers::IdentSetPair</title>
<path fill="none" stroke="#7f7f7f" stroke-dasharray="5,2" d="M1046.22,-662.06C1020.1,-632.98 970.24,-577.45 940.54,-544.38"/>
<polygon fill="#7f7f7f" stroke="#7f7f7f" points="943.09,-541.99 933.8,-536.89 937.88,-546.67 943.09,-541.99"/>
<text text-anchor="middle" x="980.88" y="-606.22" font-family="monospace" font-size="10.00">uses</text>
</g>
<!-- infusion_proc::helpers::generate_partial_modifier&#45;&gt;infusion_proc::helpers::IdentSet -->
<g id="edge41" class="edge">
<title>infusion_proc::helpers::generate_partial_modifier&#45;&gt;infusion_proc::helpers::IdentSet</title>
<path fill="none" stroke="#7f7f7f" stroke-dasharray="5,2" d="M573.31,-830.29C671.17,-770.38 972.36,-585.98 1081.54,-519.14"/>
<polygon fill="#7f7f7f" stroke="#7f7f7f" points="1083.58,-522 1090.28,-513.79 1079.92,-516.03 1083.58,-522"/>
<text text-anchor="middle" x="814.92" y="-677.72" font-family="monospace" font-size="10.00">uses</text>
</g>
<!-- infusion_proc::on_trait::process_trait&#45;&gt;infusion_proc::utils::Mode -->
<g id="edge42" class="edge">
<title>infusion_proc::on_trait::process_trait&#45;&gt;infusion_proc::utils::Mode</title>
<path fill="none" stroke="#7f7f7f" stroke-dasharray="5,2" d="M294,-475.46C359.96,-401.12 598.5,-132.29 674.88,-46.21"/>
<polygon fill="#7f7f7f" stroke="#7f7f7f" points="677.53,-48.5 681.55,-38.69 672.29,-43.85 677.53,-48.5"/>
<text text-anchor="middle" x="471.94" y="-263.83" font-family="monospace" font-size="10.00">uses</text>
</g>
<!-- infusion_proc::parse::Item::parse -->
<g id="node19" class="node">
<title>infusion_proc::parse::Item::parse</title>
<polygon fill="#db5367" stroke="black" points="0,-350.09 0,-388.09 125,-388.09 125,-350.09 0,-350.09"/>
<text text-anchor="middle" x="62.5" y="-376.09" font-family="monospace" font-size="10.00">pub(self) fn</text>
<polyline fill="none" stroke="black" points="0,-369.09 125,-369.09 "/>
<text text-anchor="middle" x="62.5" y="-357.09" font-family="monospace" font-size="10.00">parse::Item::parse</text>
</g>
<!-- infusion_proc::parse::Item&#45;&gt;infusion_proc::parse::Item::parse -->
<g id="edge43" class="edge">
<title>infusion_proc::parse::Item&#45;&gt;infusion_proc::parse::Item::parse</title>
<path fill="none" stroke="#000000" d="M258.37,-374.82C230.93,-362.19 178.9,-353.26 135.35,-351.88"/>
<polygon fill="#000000" stroke="#000000" points="135.41,-348.38 125.34,-351.7 135.28,-355.38 135.41,-348.38"/>
<text text-anchor="middle" x="184.36" y="-366.35" font-family="monospace" font-size="10.00">owns</text>
</g>
<!-- infusion_proc::parse::Item::parse&#45;&gt;infusion_proc::parse::Item -->
<g id="edge44" class="edge">
<title>infusion_proc::parse::Item::parse&#45;&gt;infusion_proc::parse::Item</title>
<path fill="none" stroke="#7f7f7f" stroke-dasharray="5,2" d="M81.56,-388.26C113.59,-403 179.14,-412.69 225.58,-411.24"/>
<polygon fill="#7f7f7f" stroke="#7f7f7f" points="225.97,-414.72 235.77,-410.72 225.61,-407.73 225.97,-414.72"/>
<text text-anchor="middle" x="141.07" y="-402.75" font-family="monospace" font-size="10.00">uses</text>
</g>
<!-- infusion_proc::service&#45;&gt;infusion_proc::parse::Item -->
<g id="edge45" class="edge">
<title>infusion_proc::service&#45;&gt;infusion_proc::parse::Item</title>
<path fill="none" stroke="#7f7f7f" stroke-dasharray="5,2" d="M288.73,-316.35C286.72,-330.13 283.98,-348.99 281.7,-364.66"/>
<polygon fill="#7f7f7f" stroke="#7f7f7f" points="278.18,-364.51 280.21,-374.91 285.11,-365.52 278.18,-364.51"/>
<text text-anchor="middle" x="272.71" y="-343.51" font-family="monospace" font-size="10.00">uses</text>
</g>
<!-- infusion_proc::service&#45;&gt;infusion_proc::utils::Mode -->
<g id="edge46" class="edge">
<title>infusion_proc::service&#45;&gt;infusion_proc::utils::Mode</title>
<path fill="none" stroke="#7f7f7f" stroke-dasharray="5,2" d="M319.49,-278.15C391.33,-229.13 582.23,-98.88 662.37,-44.21"/>
<polygon fill="#7f7f7f" stroke="#7f7f7f" points="664.39,-47.07 670.67,-38.54 660.44,-41.28 664.39,-47.07"/>
<text text-anchor="middle" x="478.43" y="-164.18" font-family="monospace" font-size="10.00">uses</text>
</g>
<!-- infusion_proc::sig::verify_fn_signature&#45;&gt;infusion_proc::sig::InfuFnKind -->
<g id="edge47" class="edge">
<title>infusion_proc::sig::verify_fn_signature&#45;&gt;infusion_proc::sig::InfuFnKind</title>
<path fill="none" stroke="#7f7f7f" stroke-dasharray="5,2" d="M542.19,-54.47C498.79,-86.35 411.68,-150.34 363.35,-185.84"/>
<polygon fill="#7f7f7f" stroke="#7f7f7f" points="361.07,-183.17 355.08,-191.91 365.21,-188.81 361.07,-183.17"/>
<text text-anchor="middle" x="440.27" y="-112.16" font-family="monospace" font-size="10.00">uses</text>
</g>
</g>
</svg>
