<?xml version="1.0" encoding="UTF-8" standalone="no"?>
<!DOCTYPE svg PUBLIC "-//W3C//DTD SVG 1.1//EN"
 "http://www.w3.org/Graphics/SVG/1.1/DTD/svg11.dtd">
<!-- Generated by graphviz version 4.0.0 (0)
 -->
<!-- Pages: 1 -->
<svg width="1408pt" height="1579pt"
 viewBox="0.00 0.00 1408.32 1579.03" xmlns="http://www.w3.org/2000/svg" xmlns:xlink="http://www.w3.org/1999/xlink">
<g id="graph0" class="graph" transform="scale(1 1) rotate(0) translate(28.8 1550.23)">
<polygon fill="white" stroke="transparent" points="-28.8,28.8 -28.8,-1550.23 1379.52,-1550.23 1379.52,28.8 -28.8,28.8"/>
<text text-anchor="middle" x="675.36" y="-1488.63" font-family="Helvetica,sans-Serif" font-size="36.00">lightning_fetcher</text>
<!-- lightning_fetcher -->
<g id="node1" class="node">
<title>lightning_fetcher</title>
<polygon fill="#5397c8" stroke="black" points="824.05,-778.49 824.05,-816.49 943.05,-816.49 943.05,-778.49 824.05,-778.49"/>
<text text-anchor="middle" x="883.55" y="-804.49" font-family="monospace" font-size="10.00">crate</text>
<polyline fill="none" stroke="black" points="824.05,-797.49 943.05,-797.49 "/>
<text text-anchor="middle" x="883.55" y="-785.49" font-family="monospace" font-size="10.00">lightning_fetcher</text>
</g>
<!-- lightning_fetcher::config::Config -->
<g id="node2" class="node">
<title>lightning_fetcher::config::Config</title>
<polygon fill="#81c169" stroke="black" points="585.46,-1036.42 585.46,-1074.42 686.46,-1074.42 686.46,-1036.42 585.46,-1036.42"/>
<text text-anchor="middle" x="635.96" y="-1062.42" font-family="monospace" font-size="10.00">pub struct</text>
<polyline fill="none" stroke="black" points="585.46,-1055.42 686.46,-1055.42 "/>
<text text-anchor="middle" x="635.96" y="-1043.42" font-family="monospace" font-size="10.00">config::Config</text>
</g>
<!-- lightning_fetcher&#45;&gt;lightning_fetcher::config::Config -->
<g id="edge1" class="edge">
<title>lightning_fetcher&#45;&gt;lightning_fetcher::config::Config</title>
<path fill="none" stroke="#000000" d="M839.58,-816.55C778.1,-862.59 673.51,-973.41 642.79,-1027.13"/>
<polygon fill="#000000" stroke="#000000" points="639.6,-1025.68 638.08,-1036.17 645.8,-1028.92 639.6,-1025.68"/>
<text text-anchor="middle" x="728.68" y="-924.84" font-family="monospace" font-size="10.00">owns</text>
</g>
<!-- lightning_fetcher&#45;&gt;lightning_fetcher::config::Config -->
<g id="edge2" class="edge">
<title>lightning_fetcher&#45;&gt;lightning_fetcher::config::Config</title>
<path fill="none" stroke="#7f7f7f" stroke-dasharray="5,2" d="M881.43,-816.75C859.63,-863.96 754.22,-977.75 688.15,-1030.02"/>
<polygon fill="#7f7f7f" stroke="#7f7f7f" points="685.68,-1027.51 679.89,-1036.38 689.95,-1033.05 685.68,-1027.51"/>
<text text-anchor="middle" x="772.29" y="-926.39" font-family="monospace" font-size="10.00">uses</text>
</g>
<!-- lightning_fetcher::fetcher::Fetcher -->
<g id="node3" class="node">
<title>lightning_fetcher::fetcher::Fetcher</title>
<polygon fill="#81c169" stroke="black" points="421.76,-1021.27 421.76,-1059.27 534.76,-1059.27 534.76,-1021.27 421.76,-1021.27"/>
<text text-anchor="middle" x="478.26" y="-1047.27" font-family="monospace" font-size="10.00">pub struct</text>
<polyline fill="none" stroke="black" points="421.76,-1040.27 534.76,-1040.27 "/>
<text text-anchor="middle" x="478.26" y="-1028.27" font-family="monospace" font-size="10.00">fetcher::Fetcher</text>
</g>
<!-- lightning_fetcher&#45;&gt;lightning_fetcher::fetcher::Fetcher -->
<g id="edge3" class="edge">
<title>lightning_fetcher&#45;&gt;lightning_fetcher::fetcher::Fetcher</title>
<path fill="none" stroke="#000000" d="M851.74,-816.54C778.88,-860.18 599.94,-967.38 519.09,-1015.81"/>
<polygon fill="#000000" stroke="#000000" points="516.97,-1013 510.19,-1021.14 520.57,-1019 516.97,-1013"/>
<text text-anchor="middle" x="672.92" y="-919.17" font-family="monospace" font-size="10.00">owns</text>
</g>
<!-- lightning_fetcher::fetcher::FetcherWorker -->
<g id="node8" class="node">
<title>lightning_fetcher::fetcher::FetcherWorker</title>
<polygon fill="#db5367" stroke="black" points="725.86,-342.35 725.86,-380.35 874.86,-380.35 874.86,-342.35 725.86,-342.35"/>
<text text-anchor="middle" x="800.36" y="-368.35" font-family="monospace" font-size="10.00">pub(self) struct</text>
<polyline fill="none" stroke="black" points="725.86,-361.35 874.86,-361.35 "/>
<text text-anchor="middle" x="800.36" y="-349.35" font-family="monospace" font-size="10.00">fetcher::FetcherWorker</text>
</g>
<!-- lightning_fetcher&#45;&gt;lightning_fetcher::fetcher::FetcherWorker -->
<g id="edge4" class="edge">
<title>lightning_fetcher&#45;&gt;lightning_fetcher::fetcher::FetcherWorker</title>
<path fill="none" stroke="#000000" d="M879.92,-778.47C866.8,-709.67 821.74,-473.48 805.91,-390.48"/>
<polygon fill="#000000" stroke="#000000" points="809.31,-389.64 804,-380.47 802.44,-390.95 809.31,-389.64"/>
<text text-anchor="middle" x="830.41" y="-587.47" font-family="monospace" font-size="10.00">owns</text>
</g>
<!-- lightning_fetcher::fetcher::Uri -->
<g id="node15" class="node">
<title>lightning_fetcher::fetcher::Uri</title>
<polygon fill="#f8c04c" stroke="black" points="1059.3,-1132.7 1059.3,-1170.7 1166.3,-1170.7 1166.3,-1132.7 1059.3,-1132.7"/>
<text text-anchor="middle" x="1112.8" y="-1158.7" font-family="monospace" font-size="10.00">pub(crate) type</text>
<polyline fill="none" stroke="black" points="1059.3,-1151.7 1166.3,-1151.7 "/>
<text text-anchor="middle" x="1112.8" y="-1139.7" font-family="monospace" font-size="10.00">fetcher::Uri</text>
</g>
<!-- lightning_fetcher&#45;&gt;lightning_fetcher::fetcher::Uri -->
<g id="edge5" class="edge">
<title>lightning_fetcher&#45;&gt;lightning_fetcher::fetcher::Uri</title>
<path fill="none" stroke="#000000" d="M882.73,-816.5C898.88,-876.48 1012.61,-1055.94 1075.12,-1124.99"/>
<polygon fill="#000000" stroke="#000000" points="1072.73,-1127.55 1082.11,-1132.47 1077.84,-1122.77 1072.73,-1127.55"/>
<text text-anchor="middle" x="966.43" y="-973.74" font-family="monospace" font-size="10.00">owns</text>
</g>
<!-- lightning_fetcher&#45;&gt;lightning_fetcher::fetcher::Uri -->
<g id="edge6" class="edge">
<title>lightning_fetcher&#45;&gt;lightning_fetcher::fetcher::Uri</title>
<path fill="none" stroke="#7f7f7f" stroke-dasharray="5,2" d="M914.19,-816.67C971.82,-876.1 1085.11,-1052.07 1110.44,-1122.7"/>
<polygon fill="#7f7f7f" stroke="#7f7f7f" points="1107.14,-1123.88 1113.52,-1132.34 1113.8,-1121.74 1107.14,-1123.88"/>
<text text-anchor="middle" x="999.81" y="-972.69" font-family="monospace" font-size="10.00">uses</text>
</g>
<!-- lightning_fetcher::origin::ErrorResponse -->
<g id="node16" class="node">
<title>lightning_fetcher::origin::ErrorResponse</title>
<polygon fill="#db5367" stroke="black" points="1154.73,-899.87 1154.73,-937.87 1297.73,-937.87 1297.73,-899.87 1154.73,-899.87"/>
<text text-anchor="middle" x="1226.23" y="-925.87" font-family="monospace" font-size="10.00">pub(self) enum</text>
<polyline fill="none" stroke="black" points="1154.73,-918.87 1297.73,-918.87 "/>
<text text-anchor="middle" x="1226.23" y="-906.87" font-family="monospace" font-size="10.00">origin::ErrorResponse</text>
</g>
<!-- lightning_fetcher&#45;&gt;lightning_fetcher::origin::ErrorResponse -->
<g id="edge7" class="edge">
<title>lightning_fetcher&#45;&gt;lightning_fetcher::origin::ErrorResponse</title>
<path fill="none" stroke="#000000" d="M937.47,-816.59C998.51,-838.21 1097.87,-873.4 1162.65,-896.35"/>
<polygon fill="#000000" stroke="#000000" points="1161.74,-899.74 1172.34,-899.78 1164.08,-893.14 1161.74,-899.74"/>
<text text-anchor="middle" x="1037.56" y="-859.47" font-family="monospace" font-size="10.00">owns</text>
</g>
<!-- lightning_fetcher::origin::OriginError -->
<g id="node17" class="node">
<title>lightning_fetcher::origin::OriginError</title>
<polygon fill="#81c169" stroke="black" points="1219.72,-671.2 1219.72,-709.2 1350.72,-709.2 1350.72,-671.2 1219.72,-671.2"/>
<text text-anchor="middle" x="1285.22" y="-697.2" font-family="monospace" font-size="10.00">pub struct</text>
<polyline fill="none" stroke="black" points="1219.72,-690.2 1350.72,-690.2 "/>
<text text-anchor="middle" x="1285.22" y="-678.2" font-family="monospace" font-size="10.00">origin::OriginError</text>
</g>
<!-- lightning_fetcher&#45;&gt;lightning_fetcher::origin::OriginError -->
<g id="edge8" class="edge">
<title>lightning_fetcher&#45;&gt;lightning_fetcher::origin::OriginError</title>
<path fill="none" stroke="#000000" d="M943.25,-781.54C1014.19,-762.59 1132.64,-730.95 1209.84,-710.33"/>
<polygon fill="#000000" stroke="#000000" points="1210.76,-713.71 1219.51,-707.75 1208.95,-706.95 1210.76,-713.71"/>
<text text-anchor="middle" x="1064.05" y="-748.94" font-family="monospace" font-size="10.00">owns</text>
</g>
<!-- lightning_fetcher::origin::OriginFetcher -->
<g id="node18" class="node">
<title>lightning_fetcher::origin::OriginFetcher</title>
<polygon fill="#81c169" stroke="black" points="638.22,-809.46 638.22,-847.46 781.22,-847.46 781.22,-809.46 638.22,-809.46"/>
<text text-anchor="middle" x="709.72" y="-835.46" font-family="monospace" font-size="10.00">pub struct</text>
<polyline fill="none" stroke="black" points="638.22,-828.46 781.22,-828.46 "/>
<text text-anchor="middle" x="709.72" y="-816.46" font-family="monospace" font-size="10.00">origin::OriginFetcher</text>
</g>
<!-- lightning_fetcher&#45;&gt;lightning_fetcher::origin::OriginFetcher -->
<g id="edge9" class="edge">
<title>lightning_fetcher&#45;&gt;lightning_fetcher::origin::OriginFetcher</title>
<path fill="none" stroke="#000000" d="M823.62,-782.4C791.9,-784.62 754.89,-793.1 731.83,-804.41"/>
<polygon fill="#000000" stroke="#000000" points="729.89,-801.48 722.86,-809.41 733.3,-807.6 729.89,-801.48"/>
<text text-anchor="middle" x="765.23" y="-796.4" font-family="monospace" font-size="10.00">owns</text>
</g>
<!-- lightning_fetcher&#45;&gt;lightning_fetcher::origin::OriginFetcher -->
<g id="edge10" class="edge">
<title>lightning_fetcher&#45;&gt;lightning_fetcher::origin::OriginFetcher</title>
<path fill="none" stroke="#7f7f7f" stroke-dasharray="5,2" d="M870.39,-816.54C853.27,-827.58 822.12,-836.65 791.76,-841.12"/>
<polygon fill="#7f7f7f" stroke="#7f7f7f" points="790.98,-837.69 781.52,-842.45 791.89,-844.63 790.98,-837.69"/>
<text text-anchor="middle" x="818.58" y="-831.83" font-family="monospace" font-size="10.00">uses</text>
</g>
<!-- lightning_fetcher::origin::OriginRequest -->
<g id="node22" class="node">
<title>lightning_fetcher::origin::OriginRequest</title>
<polygon fill="#81c169" stroke="black" points="640.7,-544.64 640.7,-582.64 783.7,-582.64 783.7,-544.64 640.7,-544.64"/>
<text text-anchor="middle" x="712.2" y="-570.64" font-family="monospace" font-size="10.00">pub struct</text>
<polyline fill="none" stroke="black" points="640.7,-563.64 783.7,-563.64 "/>
<text text-anchor="middle" x="712.2" y="-551.64" font-family="monospace" font-size="10.00">origin::OriginRequest</text>
</g>
<!-- lightning_fetcher&#45;&gt;lightning_fetcher::origin::OriginRequest -->
<g id="edge11" class="edge">
<title>lightning_fetcher&#45;&gt;lightning_fetcher::origin::OriginRequest</title>
<path fill="none" stroke="#000000" d="M885.21,-778.45C873.79,-735.75 805.14,-637.56 756.74,-589.62"/>
<polygon fill="#000000" stroke="#000000" points="759.1,-587.03 749.46,-582.64 754.26,-592.09 759.1,-587.03"/>
<text text-anchor="middle" x="808.47" y="-687.03" font-family="monospace" font-size="10.00">owns</text>
</g>
<!-- lightning_fetcher&#45;&gt;lightning_fetcher::origin::OriginRequest -->
<g id="edge12" class="edge">
<title>lightning_fetcher&#45;&gt;lightning_fetcher::origin::OriginRequest</title>
<path fill="none" stroke="#7f7f7f" stroke-dasharray="5,2" d="M845.88,-778.1C800.69,-736.25 732.6,-641.56 713.84,-592.64"/>
<polygon fill="#7f7f7f" stroke="#7f7f7f" points="717.08,-591.31 710.61,-582.93 710.44,-593.52 717.08,-591.31"/>
<text text-anchor="middle" x="767.36" y="-688.37" font-family="monospace" font-size="10.00">uses</text>
</g>
<!-- lightning_fetcher::origin::SuccessResponse -->
<g id="node23" class="node">
<title>lightning_fetcher::origin::SuccessResponse</title>
<polygon fill="#db5367" stroke="black" points="1036.28,-946.87 1036.28,-984.87 1191.28,-984.87 1191.28,-946.87 1036.28,-946.87"/>
<text text-anchor="middle" x="1113.78" y="-972.87" font-family="monospace" font-size="10.00">pub(self) struct</text>
<polyline fill="none" stroke="black" points="1036.28,-965.87 1191.28,-965.87 "/>
<text text-anchor="middle" x="1113.78" y="-953.87" font-family="monospace" font-size="10.00">origin::SuccessResponse</text>
</g>
<!-- lightning_fetcher&#45;&gt;lightning_fetcher::origin::SuccessResponse -->
<g id="edge13" class="edge">
<title>lightning_fetcher&#45;&gt;lightning_fetcher::origin::SuccessResponse</title>
<path fill="none" stroke="#000000" d="M909.96,-816.8C951.77,-847.38 1033.18,-906.93 1079.46,-940.77"/>
<polygon fill="#000000" stroke="#000000" points="1077.54,-943.7 1087.67,-946.78 1081.67,-938.05 1077.54,-943.7"/>
<text text-anchor="middle" x="982.21" y="-881.79" font-family="monospace" font-size="10.00">owns</text>
</g>
<!-- lightning_fetcher::fetcher::Fetcher::Config -->
<g id="node4" class="node">
<title>lightning_fetcher::fetcher::Fetcher::Config</title>
<polygon fill="#db5367" stroke="black" points="250.77,-1279.39 250.77,-1317.39 411.77,-1317.39 411.77,-1279.39 250.77,-1279.39"/>
<text text-anchor="middle" x="331.27" y="-1305.39" font-family="monospace" font-size="10.00">pub(self) type</text>
<polyline fill="none" stroke="black" points="250.77,-1298.39 411.77,-1298.39 "/>
<text text-anchor="middle" x="331.27" y="-1286.39" font-family="monospace" font-size="10.00">fetcher::Fetcher::Config</text>
</g>
<!-- lightning_fetcher::fetcher::Fetcher&#45;&gt;lightning_fetcher::fetcher::Fetcher::Config -->
<g id="edge14" class="edge">
<title>lightning_fetcher::fetcher::Fetcher&#45;&gt;lightning_fetcher::fetcher::Fetcher::Config</title>
<path fill="none" stroke="#000000" d="M467.21,-1059.67C441.45,-1104.91 377.32,-1217.53 347.28,-1270.29"/>
<polygon fill="#000000" stroke="#000000" points="344.16,-1268.69 342.25,-1279.12 350.24,-1272.16 344.16,-1268.69"/>
<text text-anchor="middle" x="394.74" y="-1167.98" font-family="monospace" font-size="10.00">owns</text>
</g>
<!-- lightning_fetcher::fetcher::Fetcher::build_graph -->
<g id="node5" class="node">
<title>lightning_fetcher::fetcher::Fetcher::build_graph</title>
<polygon fill="#db5367" stroke="black" points="436.38,-1434.93 436.38,-1472.93 627.38,-1472.93 627.38,-1434.93 436.38,-1434.93"/>
<text text-anchor="middle" x="531.88" y="-1460.93" font-family="monospace" font-size="10.00">pub(self) fn</text>
<polyline fill="none" stroke="black" points="436.38,-1453.93 627.38,-1453.93 "/>
<text text-anchor="middle" x="531.88" y="-1441.93" font-family="monospace" font-size="10.00">fetcher::Fetcher::build_graph</text>
</g>
<!-- lightning_fetcher::fetcher::Fetcher&#45;&gt;lightning_fetcher::fetcher::Fetcher::build_graph -->
<g id="edge15" class="edge">
<title>lightning_fetcher::fetcher::Fetcher&#45;&gt;lightning_fetcher::fetcher::Fetcher::build_graph</title>
<path fill="none" stroke="#000000" d="M480.73,-1059.39C489.29,-1125.41 517.64,-1344.07 528.03,-1424.18"/>
<polygon fill="#000000" stroke="#000000" points="524.61,-1425.06 529.37,-1434.53 531.55,-1424.16 524.61,-1425.06"/>
<text text-anchor="middle" x="491.88" y="-1244.79" font-family="monospace" font-size="10.00">owns</text>
</g>
<!-- lightning_fetcher::fetcher::Fetcher::get_socket -->
<g id="node6" class="node">
<title>lightning_fetcher::fetcher::Fetcher::get_socket</title>
<polygon fill="#db5367" stroke="black" points="0,-1048.86 0,-1086.86 185,-1086.86 185,-1048.86 0,-1048.86"/>
<text text-anchor="middle" x="92.5" y="-1074.86" font-family="monospace" font-size="10.00">pub(self) fn</text>
<polyline fill="none" stroke="black" points="0,-1067.86 185,-1067.86 "/>
<text text-anchor="middle" x="92.5" y="-1055.86" font-family="monospace" font-size="10.00">fetcher::Fetcher::get_socket</text>
</g>
<!-- lightning_fetcher::fetcher::Fetcher&#45;&gt;lightning_fetcher::fetcher::Fetcher::get_socket -->
<g id="edge16" class="edge">
<title>lightning_fetcher::fetcher::Fetcher&#45;&gt;lightning_fetcher::fetcher::Fetcher::get_socket</title>
<path fill="none" stroke="#000000" d="M421.59,-1024.67C344.31,-1019.87 207.46,-1030.12 137.06,-1046.39"/>
<polygon fill="#000000" stroke="#000000" points="136.04,-1043.04 127.17,-1048.84 137.72,-1049.84 136.04,-1043.04"/>
<text text-anchor="middle" x="266.82" y="-1038.53" font-family="monospace" font-size="10.00">owns</text>
</g>
<!-- lightning_fetcher::fetcher::Fetcher::new -->
<g id="node7" class="node">
<title>lightning_fetcher::fetcher::Fetcher::new</title>
<polygon fill="#81c169" stroke="black" points="449.72,-674.51 449.72,-712.51 592.72,-712.51 592.72,-674.51 449.72,-674.51"/>
<text text-anchor="middle" x="521.22" y="-700.51" font-family="monospace" font-size="10.00">pub fn</text>
<polyline fill="none" stroke="black" points="449.72,-693.51 592.72,-693.51 "/>
<text text-anchor="middle" x="521.22" y="-681.51" font-family="monospace" font-size="10.00">fetcher::Fetcher::new</text>
</g>
<!-- lightning_fetcher::fetcher::Fetcher&#45;&gt;lightning_fetcher::fetcher::Fetcher::new -->
<g id="edge17" class="edge">
<title>lightning_fetcher::fetcher::Fetcher&#45;&gt;lightning_fetcher::fetcher::Fetcher::new</title>
<path fill="none" stroke="#000000" d="M494.47,-1021.05C518.86,-963.39 540.67,-791.9 533.12,-722.8"/>
<polygon fill="#000000" stroke="#000000" points="536.55,-722.02 531.65,-712.63 529.62,-723.02 536.55,-722.02"/>
<text text-anchor="middle" x="501.29" y="-874.93" font-family="monospace" font-size="10.00">owns</text>
</g>
<!-- lightning_fetcher::fetcher::Fetcher::Config&#45;&gt;lightning_fetcher::config::Config -->
<g id="edge18" class="edge">
<title>lightning_fetcher::fetcher::Fetcher::Config&#45;&gt;lightning_fetcher::config::Config</title>
<path fill="none" stroke="#7f7f7f" stroke-dasharray="5,2" d="M355.18,-1279.32C409.56,-1235.96 542.52,-1129.94 603.92,-1080.97"/>
<polygon fill="#7f7f7f" stroke="#7f7f7f" points="606.11,-1083.7 611.74,-1074.73 601.74,-1078.23 606.11,-1083.7"/>
<text text-anchor="middle" x="467.05" y="-1183.15" font-family="monospace" font-size="10.00">uses</text>
</g>
<!-- lightning_fetcher::fetcher::Fetcher::get_socket&#45;&gt;lightning_fetcher::fetcher::Fetcher -->
<g id="edge19" class="edge">
<title>lightning_fetcher::fetcher::Fetcher::get_socket&#45;&gt;lightning_fetcher::fetcher::Fetcher</title>
<path fill="none" stroke="#7f7f7f" stroke-dasharray="5,2" d="M185.09,-1084.62C263.66,-1085.25 372.97,-1075.74 433.48,-1061.79"/>
<polygon fill="#7f7f7f" stroke="#7f7f7f" points="434.6,-1065.12 443.47,-1059.32 432.93,-1058.32 434.6,-1065.12"/>
<text text-anchor="middle" x="296.79" y="-1076.2" font-family="monospace" font-size="10.00">uses</text>
</g>
<!-- lightning_fetcher::fetcher::Fetcher::new&#45;&gt;lightning_fetcher::config::Config -->
<g id="edge20" class="edge">
<title>lightning_fetcher::fetcher::Fetcher::new&#45;&gt;lightning_fetcher::config::Config</title>
<path fill="none" stroke="#7f7f7f" stroke-dasharray="5,2" d="M527.3,-712.71C546.25,-772.47 604.24,-955.35 626.82,-1026.59"/>
<polygon fill="#7f7f7f" stroke="#7f7f7f" points="623.53,-1027.79 629.89,-1036.26 630.2,-1025.67 623.53,-1027.79"/>
<text text-anchor="middle" x="564.56" y="-872.65" font-family="monospace" font-size="10.00">uses</text>
</g>
<!-- lightning_fetcher::fetcher::Fetcher::new&#45;&gt;lightning_fetcher::fetcher::Fetcher -->
<g id="edge21" class="edge">
<title>lightning_fetcher::fetcher::Fetcher::new&#45;&gt;lightning_fetcher::fetcher::Fetcher</title>
<path fill="none" stroke="#7f7f7f" stroke-dasharray="5,2" d="M505,-712.74C480.61,-770.4 458.8,-941.89 466.35,-1010.98"/>
<polygon fill="#7f7f7f" stroke="#7f7f7f" points="462.93,-1011.76 467.82,-1021.16 469.85,-1010.76 462.93,-1011.76"/>
<text text-anchor="middle" x="473.18" y="-864.86" font-family="monospace" font-size="10.00">uses</text>
</g>
<!-- lightning_fetcher::fetcher::Fetcher::new&#45;&gt;lightning_fetcher::fetcher::FetcherWorker -->
<g id="edge22" class="edge">
<title>lightning_fetcher::fetcher::Fetcher::new&#45;&gt;lightning_fetcher::fetcher::FetcherWorker</title>
<path fill="none" stroke="#7f7f7f" stroke-dasharray="5,2" d="M537.43,-674.22C584.74,-617.92 722.73,-453.72 777.53,-388.51"/>
<polygon fill="#7f7f7f" stroke="#7f7f7f" points="780.34,-390.61 784.1,-380.7 774.98,-386.1 780.34,-390.61"/>
<text text-anchor="middle" x="644.98" y="-534.36" font-family="monospace" font-size="10.00">uses</text>
</g>
<!-- lightning_fetcher::fetcher::Fetcher::new&#45;&gt;lightning_fetcher::origin::OriginFetcher -->
<g id="edge23" class="edge">
<title>lightning_fetcher::fetcher::Fetcher::new&#45;&gt;lightning_fetcher::origin::OriginFetcher</title>
<path fill="none" stroke="#7f7f7f" stroke-dasharray="5,2" d="M547.82,-712.56C580.99,-736.3 637.77,-776.96 674.52,-803.26"/>
<polygon fill="#7f7f7f" stroke="#7f7f7f" points="672.77,-806.32 682.94,-809.29 676.85,-800.62 672.77,-806.32"/>
<text text-anchor="middle" x="598.67" y="-760.91" font-family="monospace" font-size="10.00">uses</text>
</g>
<!-- lightning_fetcher::fetcher::Fetcher::new&#45;&gt;lightning_fetcher::origin::OriginRequest -->
<g id="edge24" class="edge">
<title>lightning_fetcher::fetcher::Fetcher::new&#45;&gt;lightning_fetcher::origin::OriginRequest</title>
<path fill="none" stroke="#7f7f7f" stroke-dasharray="5,2" d="M549.4,-674.35C582.92,-651.55 638.97,-613.44 675.76,-588.42"/>
<polygon fill="#7f7f7f" stroke="#7f7f7f" points="677.92,-591.19 684.22,-582.67 673.98,-585.4 677.92,-591.19"/>
<text text-anchor="middle" x="600.08" y="-634.38" font-family="monospace" font-size="10.00">uses</text>
</g>
<!-- lightning_fetcher::fetcher::FetcherWorker::Request -->
<g id="node9" class="node">
<title>lightning_fetcher::fetcher::FetcherWorker::Request</title>
<polygon fill="#db5367" stroke="black" points="373.07,-86.05 373.07,-124.05 576.07,-124.05 576.07,-86.05 373.07,-86.05"/>
<text text-anchor="middle" x="474.57" y="-112.05" font-family="monospace" font-size="10.00">pub(self) type</text>
<polyline fill="none" stroke="black" points="373.07,-105.05 576.07,-105.05 "/>
<text text-anchor="middle" x="474.57" y="-93.05" font-family="monospace" font-size="10.00">fetcher::FetcherWorker::Request</text>
</g>
<!-- lightning_fetcher::fetcher::FetcherWorker&#45;&gt;lightning_fetcher::fetcher::FetcherWorker::Request -->
<g id="edge25" class="edge">
<title>lightning_fetcher::fetcher::FetcherWorker&#45;&gt;lightning_fetcher::fetcher::FetcherWorker::Request</title>
<path fill="none" stroke="#000000" d="M776.13,-342.3C718.3,-296.79 572.1,-181.78 506.86,-130.45"/>
<polygon fill="#000000" stroke="#000000" points="508.97,-127.66 498.95,-124.23 504.64,-133.16 508.97,-127.66"/>
<text text-anchor="middle" x="629" y="-239.38" font-family="monospace" font-size="10.00">owns</text>
</g>
<!-- lightning_fetcher::fetcher::FetcherWorker::Response -->
<g id="node10" class="node">
<title>lightning_fetcher::fetcher::FetcherWorker::Response</title>
<polygon fill="#db5367" stroke="black" points="781.85,-2.1 781.85,-40.1 990.85,-40.1 990.85,-2.1 781.85,-2.1"/>
<text text-anchor="middle" x="886.35" y="-28.1" font-family="monospace" font-size="10.00">pub(self) type</text>
<polyline fill="none" stroke="black" points="781.85,-21.1 990.85,-21.1 "/>
<text text-anchor="middle" x="886.35" y="-9.1" font-family="monospace" font-size="10.00">fetcher::FetcherWorker::Response</text>
</g>
<!-- lightning_fetcher::fetcher::FetcherWorker&#45;&gt;lightning_fetcher::fetcher::FetcherWorker::Response -->
<g id="edge26" class="edge">
<title>lightning_fetcher::fetcher::FetcherWorker&#45;&gt;lightning_fetcher::fetcher::FetcherWorker::Response</title>
<path fill="none" stroke="#000000" d="M805.23,-342.08C819.59,-285.24 861.87,-117.97 879.01,-50.16"/>
<polygon fill="#000000" stroke="#000000" points="882.48,-50.71 881.54,-40.16 875.69,-49 882.48,-50.71"/>
<text text-anchor="middle" x="829.62" y="-199.12" font-family="monospace" font-size="10.00">owns</text>
</g>
<!-- lightning_fetcher::fetcher::FetcherWorker::fetch -->
<g id="node11" class="node">
<title>lightning_fetcher::fetcher::FetcherWorker::fetch</title>
<polygon fill="#db5367" stroke="black" points="582.81,-0.5 582.81,-38.5 773.81,-38.5 773.81,-0.5 582.81,-0.5"/>
<text text-anchor="middle" x="678.31" y="-26.5" font-family="monospace" font-size="10.00">pub(self) async fn</text>
<polyline fill="none" stroke="black" points="582.81,-19.5 773.81,-19.5 "/>
<text text-anchor="middle" x="678.31" y="-7.5" font-family="monospace" font-size="10.00">fetcher::FetcherWorker::fetch</text>
</g>
<!-- lightning_fetcher::fetcher::FetcherWorker&#45;&gt;lightning_fetcher::fetcher::FetcherWorker::fetch -->
<g id="edge27" class="edge">
<title>lightning_fetcher::fetcher::FetcherWorker&#45;&gt;lightning_fetcher::fetcher::FetcherWorker::fetch</title>
<path fill="none" stroke="#000000" d="M806.23,-342.2C805.03,-284.6 746.21,-114.96 706.2,-47.41"/>
<polygon fill="#000000" stroke="#000000" points="708.96,-45.21 700.69,-38.58 703.02,-48.91 708.96,-45.21"/>
<text text-anchor="middle" x="743.72" y="-197.8" font-family="monospace" font-size="10.00">owns</text>
</g>
<!-- lightning_fetcher::fetcher::FetcherWorker::fetch_origin -->
<g id="node12" class="node">
<title>lightning_fetcher::fetcher::FetcherWorker::fetch_origin</title>
<polygon fill="#db5367" stroke="black" points="387.5,-287.95 387.5,-325.95 620.5,-325.95 620.5,-287.95 387.5,-287.95"/>
<text text-anchor="middle" x="504" y="-313.95" font-family="monospace" font-size="10.00">pub(self) async fn</text>
<polyline fill="none" stroke="black" points="387.5,-306.95 620.5,-306.95 "/>
<text text-anchor="middle" x="504" y="-294.95" font-family="monospace" font-size="10.00">fetcher::FetcherWorker::fetch_origin</text>
</g>
<!-- lightning_fetcher::fetcher::FetcherWorker&#45;&gt;lightning_fetcher::fetcher::FetcherWorker::fetch_origin -->
<g id="edge28" class="edge">
<title>lightning_fetcher::fetcher::FetcherWorker&#45;&gt;lightning_fetcher::fetcher::FetcherWorker::fetch_origin</title>
<path fill="none" stroke="#000000" d="M780.34,-342.19C749.47,-327.12 687.98,-311.97 630.81,-303.16"/>
<polygon fill="#000000" stroke="#000000" points="630.97,-299.65 620.57,-301.64 629.95,-306.57 630.97,-299.65"/>
<text text-anchor="middle" x="693.08" y="-325.68" font-family="monospace" font-size="10.00">owns</text>
</g>
<!-- lightning_fetcher::fetcher::FetcherWorker::handle -->
<g id="node13" class="node">
<title>lightning_fetcher::fetcher::FetcherWorker::handle</title>
<polygon fill="#db5367" stroke="black" points="964.98,-89.07 964.98,-127.07 1161.98,-127.07 1161.98,-89.07 964.98,-89.07"/>
<text text-anchor="middle" x="1063.48" y="-115.07" font-family="monospace" font-size="10.00">pub(self) async fn</text>
<polyline fill="none" stroke="black" points="964.98,-108.07 1161.98,-108.07 "/>
<text text-anchor="middle" x="1063.48" y="-96.07" font-family="monospace" font-size="10.00">fetcher::FetcherWorker::handle</text>
</g>
<!-- lightning_fetcher::fetcher::FetcherWorker&#45;&gt;lightning_fetcher::fetcher::FetcherWorker::handle -->
<g id="edge29" class="edge">
<title>lightning_fetcher::fetcher::FetcherWorker&#45;&gt;lightning_fetcher::fetcher::FetcherWorker::handle</title>
<path fill="none" stroke="#000000" d="M847.26,-342.31C912.01,-296.89 1022.03,-189.03 1055.32,-136.18"/>
<polygon fill="#000000" stroke="#000000" points="1058.49,-137.69 1060.46,-127.28 1052.43,-134.19 1058.49,-137.69"/>
<text text-anchor="middle" x="938.79" y="-242.24" font-family="monospace" font-size="10.00">owns</text>
</g>
<!-- lightning_fetcher::fetcher::FetcherWorker::put -->
<g id="node14" class="node">
<title>lightning_fetcher::fetcher::FetcherWorker::put</title>
<polygon fill="#db5367" stroke="black" points="1084.5,-233.46 1084.5,-271.46 1263.5,-271.46 1263.5,-233.46 1084.5,-233.46"/>
<text text-anchor="middle" x="1174" y="-259.46" font-family="monospace" font-size="10.00">pub(self) async fn</text>
<polyline fill="none" stroke="black" points="1084.5,-252.46 1263.5,-252.46 "/>
<text text-anchor="middle" x="1174" y="-240.46" font-family="monospace" font-size="10.00">fetcher::FetcherWorker::put</text>
</g>
<!-- lightning_fetcher::fetcher::FetcherWorker&#45;&gt;lightning_fetcher::fetcher::FetcherWorker::put -->
<g id="edge30" class="edge">
<title>lightning_fetcher::fetcher::FetcherWorker&#45;&gt;lightning_fetcher::fetcher::FetcherWorker::put</title>
<path fill="none" stroke="#000000" d="M874.89,-361.98C959.05,-346.8 1091.39,-306.23 1147.56,-276.52"/>
<polygon fill="#000000" stroke="#000000" points="1149.52,-279.44 1156.52,-271.48 1146.09,-273.34 1149.52,-279.44"/>
<text text-anchor="middle" x="998.72" y="-322.25" font-family="monospace" font-size="10.00">owns</text>
</g>
<!-- lightning_fetcher::fetcher::FetcherWorker&#45;&gt;lightning_fetcher::origin::OriginRequest -->
<g id="edge31" class="edge">
<title>lightning_fetcher::fetcher::FetcherWorker&#45;&gt;lightning_fetcher::origin::OriginRequest</title>
<path fill="none" stroke="#7f7f7f" stroke-dasharray="5,2" d="M792.06,-380.38C776.51,-416.07 742.88,-493.24 724.62,-535.15"/>
<polygon fill="#7f7f7f" stroke="#7f7f7f" points="721.32,-533.94 720.54,-544.51 727.74,-536.74 721.32,-533.94"/>
<text text-anchor="middle" x="745.84" y="-460.76" font-family="monospace" font-size="10.00">uses</text>
</g>
<!-- lightning_fetcher::fetcher::FetcherWorker::fetch&#45;&gt;lightning_fetcher::fetcher::FetcherWorker -->
<g id="edge32" class="edge">
<title>lightning_fetcher::fetcher::FetcherWorker::fetch&#45;&gt;lightning_fetcher::fetcher::FetcherWorker</title>
<path fill="none" stroke="#7f7f7f" stroke-dasharray="5,2" d="M672.44,-38.65C673.64,-96.25 732.46,-265.89 772.47,-333.44"/>
<polygon fill="#7f7f7f" stroke="#7f7f7f" points="769.71,-335.64 777.98,-342.27 775.65,-331.94 769.71,-335.64"/>
<text text-anchor="middle" x="709.95" y="-189.05" font-family="monospace" font-size="10.00">uses</text>
</g>
<!-- lightning_fetcher::fetcher::FetcherWorker::fetch_origin&#45;&gt;lightning_fetcher::fetcher::FetcherWorker -->
<g id="edge33" class="edge">
<title>lightning_fetcher::fetcher::FetcherWorker::fetch_origin&#45;&gt;lightning_fetcher::fetcher::FetcherWorker</title>
<path fill="none" stroke="#7f7f7f" stroke-dasharray="5,2" d="M524.01,-326.11C562.72,-345.01 649.58,-364.03 715.68,-370.52"/>
<polygon fill="#7f7f7f" stroke="#7f7f7f" points="715.42,-374.01 725.69,-371.42 716.04,-367.04 715.42,-374.01"/>
<text text-anchor="middle" x="607.35" y="-351.32" font-family="monospace" font-size="10.00">uses</text>
</g>
<!-- lightning_fetcher::fetcher::FetcherWorker::fetch_origin&#45;&gt;lightning_fetcher::origin::OriginRequest -->
<g id="edge34" class="edge">
<title>lightning_fetcher::fetcher::FetcherWorker::fetch_origin&#45;&gt;lightning_fetcher::origin::OriginRequest</title>
<path fill="none" stroke="#7f7f7f" stroke-dasharray="5,2" d="M519.65,-326.24C556.36,-371.51 648.11,-484.62 690.32,-536.66"/>
<polygon fill="#7f7f7f" stroke="#7f7f7f" points="687.64,-538.91 696.65,-544.47 693.07,-534.5 687.64,-538.91"/>
<text text-anchor="middle" x="592.49" y="-434.45" font-family="monospace" font-size="10.00">uses</text>
</g>
<!-- lightning_fetcher::fetcher::FetcherWorker::handle&#45;&gt;lightning_fetcher::fetcher::FetcherWorker -->
<g id="edge35" class="edge">
<title>lightning_fetcher::fetcher::FetcherWorker::handle&#45;&gt;lightning_fetcher::fetcher::FetcherWorker</title>
<path fill="none" stroke="#7f7f7f" stroke-dasharray="5,2" d="M1016.58,-127.11C951.83,-172.53 841.8,-280.39 808.51,-333.24"/>
<polygon fill="#7f7f7f" stroke="#7f7f7f" points="805.35,-331.73 803.37,-342.14 811.41,-335.23 805.35,-331.73"/>
<text text-anchor="middle" x="900.05" y="-233.18" font-family="monospace" font-size="10.00">uses</text>
</g>
<!-- lightning_fetcher::fetcher::FetcherWorker::put&#45;&gt;lightning_fetcher::fetcher::FetcherWorker -->
<g id="edge36" class="edge">
<title>lightning_fetcher::fetcher::FetcherWorker::put&#45;&gt;lightning_fetcher::fetcher::FetcherWorker</title>
<path fill="none" stroke="#7f7f7f" stroke-dasharray="5,2" d="M1084.2,-254.76C999.99,-271.75 879.51,-309.37 826.69,-337.35"/>
<polygon fill="#7f7f7f" stroke="#7f7f7f" points="824.93,-334.32 817.93,-342.28 828.36,-340.42 824.93,-334.32"/>
<text text-anchor="middle" x="942.94" y="-299.05" font-family="monospace" font-size="10.00">uses</text>
</g>
<!-- lightning_fetcher::origin::OriginFetcher::new -->
<g id="node19" class="node">
<title>lightning_fetcher::origin::OriginFetcher::new</title>
<polygon fill="#81c169" stroke="black" points="251.55,-600.05 251.55,-638.05 424.55,-638.05 424.55,-600.05 251.55,-600.05"/>
<text text-anchor="middle" x="338.05" y="-626.05" font-family="monospace" font-size="10.00">pub fn</text>
<polyline fill="none" stroke="black" points="251.55,-619.05 424.55,-619.05 "/>
<text text-anchor="middle" x="338.05" y="-607.05" font-family="monospace" font-size="10.00">origin::OriginFetcher::new</text>
</g>
<!-- lightning_fetcher::origin::OriginFetcher&#45;&gt;lightning_fetcher::origin::OriginFetcher::new -->
<g id="edge37" class="edge">
<title>lightning_fetcher::origin::OriginFetcher&#45;&gt;lightning_fetcher::origin::OriginFetcher::new</title>
<path fill="none" stroke="#000000" d="M699.55,-809.17C659.71,-768.58 518.25,-684.9 424.37,-642.19"/>
<polygon fill="#000000" stroke="#000000" points="425.72,-638.96 415.16,-638.06 422.85,-645.35 425.72,-638.96"/>
<text text-anchor="middle" x="549.46" y="-728.68" font-family="monospace" font-size="10.00">owns</text>
</g>
<!-- lightning_fetcher::origin::OriginFetcher::spawn -->
<g id="node20" class="node">
<title>lightning_fetcher::origin::OriginFetcher::spawn</title>
<polygon fill="#db5367" stroke="black" points="866.28,-1169.14 866.28,-1207.14 1051.28,-1207.14 1051.28,-1169.14 866.28,-1169.14"/>
<text text-anchor="middle" x="958.78" y="-1195.14" font-family="monospace" font-size="10.00">pub(self) async fn</text>
<polyline fill="none" stroke="black" points="866.28,-1188.14 1051.28,-1188.14 "/>
<text text-anchor="middle" x="958.78" y="-1176.14" font-family="monospace" font-size="10.00">origin::OriginFetcher::spawn</text>
</g>
<!-- lightning_fetcher::origin::OriginFetcher&#45;&gt;lightning_fetcher::origin::OriginFetcher::spawn -->
<g id="edge38" class="edge">
<title>lightning_fetcher::origin::OriginFetcher&#45;&gt;lightning_fetcher::origin::OriginFetcher::spawn</title>
<path fill="none" stroke="#000000" d="M709.75,-847.7C728.76,-908.78 853.14,-1091.99 919.73,-1161.68"/>
<polygon fill="#000000" stroke="#000000" points="917.26,-1164.16 926.77,-1168.83 922.25,-1159.25 917.26,-1164.16"/>
<text text-anchor="middle" x="802.24" y="-1007.69" font-family="monospace" font-size="10.00">owns</text>
</g>
<!-- lightning_fetcher::origin::OriginFetcher::start -->
<g id="node21" class="node">
<title>lightning_fetcher::origin::OriginFetcher::start</title>
<polygon fill="#81c169" stroke="black" points="965.73,-638.47 965.73,-676.47 1150.73,-676.47 1150.73,-638.47 965.73,-638.47"/>
<text text-anchor="middle" x="1058.23" y="-664.47" font-family="monospace" font-size="10.00">pub async fn</text>
<polyline fill="none" stroke="black" points="965.73,-657.47 1150.73,-657.47 "/>
<text text-anchor="middle" x="1058.23" y="-645.47" font-family="monospace" font-size="10.00">origin::OriginFetcher::start</text>
</g>
<!-- lightning_fetcher::origin::OriginFetcher&#45;&gt;lightning_fetcher::origin::OriginFetcher::start -->
<g id="edge39" class="edge">
<title>lightning_fetcher::origin::OriginFetcher&#45;&gt;lightning_fetcher::origin::OriginFetcher::start</title>
<path fill="none" stroke="#000000" d="M781.39,-816.98C863.1,-787.34 991.06,-722.19 1039.4,-683.3"/>
<polygon fill="#000000" stroke="#000000" points="1041.9,-685.76 1047.21,-676.59 1037.35,-680.45 1041.9,-685.76"/>
<text text-anchor="middle" x="897.89" y="-753.14" font-family="monospace" font-size="10.00">owns</text>
</g>
<!-- lightning_fetcher::origin::OriginFetcher&#45;&gt;lightning_fetcher::origin::OriginRequest -->
<g id="edge40" class="edge">
<title>lightning_fetcher::origin::OriginFetcher&#45;&gt;lightning_fetcher::origin::OriginRequest</title>
<path fill="none" stroke="#7f7f7f" stroke-dasharray="5,2" d="M709.9,-809.42C710.33,-763.72 711.41,-647.6 711.93,-592.94"/>
<polygon fill="#7f7f7f" stroke="#7f7f7f" points="715.43,-592.9 712.02,-582.87 708.43,-592.83 715.43,-592.9"/>
<text text-anchor="middle" x="698.41" y="-704.18" font-family="monospace" font-size="10.00">uses</text>
</g>
<!-- lightning_fetcher::origin::OriginFetcher::new&#45;&gt;lightning_fetcher::origin::OriginFetcher -->
<g id="edge41" class="edge">
<title>lightning_fetcher::origin::OriginFetcher::new&#45;&gt;lightning_fetcher::origin::OriginFetcher</title>
<path fill="none" stroke="#7f7f7f" stroke-dasharray="5,2" d="M348.22,-638.34C388.85,-679.74 535.15,-765.94 628.91,-807.81"/>
<polygon fill="#7f7f7f" stroke="#7f7f7f" points="627.53,-811.02 638.09,-811.84 630.34,-804.61 627.53,-811.02"/>
<text text-anchor="middle" x="476.06" y="-726.07" font-family="monospace" font-size="10.00">uses</text>
</g>
<!-- lightning_fetcher::origin::OriginFetcher::new&#45;&gt;lightning_fetcher::origin::OriginRequest -->
<g id="edge42" class="edge">
<title>lightning_fetcher::origin::OriginFetcher::new&#45;&gt;lightning_fetcher::origin::OriginRequest</title>
<path fill="none" stroke="#7f7f7f" stroke-dasharray="5,2" d="M424.83,-606.2C486.89,-597.01 569.86,-584.72 630.69,-575.71"/>
<polygon fill="#7f7f7f" stroke="#7f7f7f" points="631.26,-579.16 640.64,-574.24 630.24,-572.24 631.26,-579.16"/>
<text text-anchor="middle" x="515.26" y="-593.95" font-family="monospace" font-size="10.00">uses</text>
</g>
<!-- lightning_fetcher::origin::OriginFetcher::spawn&#45;&gt;lightning_fetcher::origin::ErrorResponse -->
<g id="edge43" class="edge">
<title>lightning_fetcher::origin::OriginFetcher::spawn&#45;&gt;lightning_fetcher::origin::ErrorResponse</title>
<path fill="none" stroke="#7f7f7f" stroke-dasharray="5,2" d="M978.02,-1168.77C1025.14,-1121.32 1146.44,-999.2 1200.07,-945.21"/>
<polygon fill="#7f7f7f" stroke="#7f7f7f" points="1202.6,-947.62 1207.17,-938.06 1197.64,-942.69 1202.6,-947.62"/>
<text text-anchor="middle" x="1076.54" y="-1059.99" font-family="monospace" font-size="10.00">uses</text>
</g>
<!-- lightning_fetcher::origin::OriginFetcher::spawn&#45;&gt;lightning_fetcher::origin::OriginFetcher -->
<g id="edge44" class="edge">
<title>lightning_fetcher::origin::OriginFetcher::spawn&#45;&gt;lightning_fetcher::origin::OriginFetcher</title>
<path fill="none" stroke="#7f7f7f" stroke-dasharray="5,2" d="M958.76,-1168.9C939.75,-1107.82 815.36,-924.61 748.78,-854.92"/>
<polygon fill="#7f7f7f" stroke="#7f7f7f" points="751.25,-852.44 741.74,-847.77 746.26,-857.35 751.25,-852.44"/>
<text text-anchor="middle" x="841.27" y="-1014.91" font-family="monospace" font-size="10.00">uses</text>
</g>
<!-- lightning_fetcher::origin::OriginFetcher::spawn&#45;&gt;lightning_fetcher::origin::SuccessResponse -->
<g id="edge45" class="edge">
<title>lightning_fetcher::origin::OriginFetcher::spawn&#45;&gt;lightning_fetcher::origin::SuccessResponse</title>
<path fill="none" stroke="#7f7f7f" stroke-dasharray="5,2" d="M972.27,-1168.8C999.87,-1129.21 1062.9,-1038.82 1094.69,-993.23"/>
<polygon fill="#7f7f7f" stroke="#7f7f7f" points="1097.58,-995.21 1100.43,-985 1091.84,-991.2 1097.58,-995.21"/>
<text text-anchor="middle" x="1020.98" y="-1084.02" font-family="monospace" font-size="10.00">uses</text>
</g>
<!-- lightning_fetcher::origin::OriginFetcher::start&#45;&gt;lightning_fetcher::origin::ErrorResponse -->
<g id="edge46" class="edge">
<title>lightning_fetcher::origin::OriginFetcher::start&#45;&gt;lightning_fetcher::origin::ErrorResponse</title>
<path fill="none" stroke="#7f7f7f" stroke-dasharray="5,2" d="M1070.58,-676.69C1099.95,-722.39 1174.05,-837.68 1208.32,-891.01"/>
<polygon fill="#7f7f7f" stroke="#7f7f7f" points="1205.5,-893.1 1213.86,-899.62 1211.39,-889.31 1205.5,-893.1"/>
<text text-anchor="middle" x="1126.95" y="-786.85" font-family="monospace" font-size="10.00">uses</text>
</g>
<!-- lightning_fetcher::origin::OriginFetcher::start&#45;&gt;lightning_fetcher::origin::OriginError -->
<g id="edge47" class="edge">
<title>lightning_fetcher::origin::OriginFetcher::start&#45;&gt;lightning_fetcher::origin::OriginError</title>
<path fill="none" stroke="#7f7f7f" stroke-dasharray="5,2" d="M1150.88,-670.83C1170.42,-673.65 1190.81,-676.59 1209.63,-679.3"/>
<polygon fill="#7f7f7f" stroke="#7f7f7f" points="1209.21,-682.78 1219.61,-680.74 1210.21,-675.85 1209.21,-682.78"/>
<text text-anchor="middle" x="1167.75" y="-678.07" font-family="monospace" font-size="10.00">uses</text>
</g>
<!-- lightning_fetcher::origin::OriginFetcher::start&#45;&gt;lightning_fetcher::origin::OriginFetcher -->
<g id="edge48" class="edge">
<title>lightning_fetcher::origin::OriginFetcher::start&#45;&gt;lightning_fetcher::origin::OriginFetcher</title>
<path fill="none" stroke="#7f7f7f" stroke-dasharray="5,2" d="M966.72,-676.48C885.41,-708.57 773.05,-766.8 728.5,-802.67"/>
<polygon fill="#7f7f7f" stroke="#7f7f7f" points="726.07,-800.14 720.76,-809.31 730.63,-805.46 726.07,-800.14"/>
<text text-anchor="middle" x="835.11" y="-742.57" font-family="monospace" font-size="10.00">uses</text>
</g>
<!-- lightning_fetcher::origin::OriginFetcher::start&#45;&gt;lightning_fetcher::origin::OriginRequest -->
<g id="edge49" class="edge">
<title>lightning_fetcher::origin::OriginFetcher::start&#45;&gt;lightning_fetcher::origin::OriginRequest</title>
<path fill="none" stroke="#7f7f7f" stroke-dasharray="5,2" d="M987.79,-638.37C931.07,-622.99 851.34,-601.37 792.22,-585.34"/>
<polygon fill="#7f7f7f" stroke="#7f7f7f" points="793.11,-581.95 782.54,-582.71 791.28,-588.71 793.11,-581.95"/>
<text text-anchor="middle" x="877.5" y="-614.85" font-family="monospace" font-size="10.00">uses</text>
</g>
<!-- lightning_fetcher::origin::OriginFetcher::start&#45;&gt;lightning_fetcher::origin::SuccessResponse -->
<g id="edge50" class="edge">
<title>lightning_fetcher::origin::OriginFetcher::start&#45;&gt;lightning_fetcher::origin::SuccessResponse</title>
<path fill="none" stroke="#7f7f7f" stroke-dasharray="5,2" d="M1061.7,-676.76C1071.13,-729.12 1097.25,-874.12 1108.5,-936.61"/>
<polygon fill="#7f7f7f" stroke="#7f7f7f" points="1105.08,-937.37 1110.3,-946.59 1111.97,-936.12 1105.08,-937.37"/>
<text text-anchor="middle" x="1072.6" y="-809.68" font-family="monospace" font-size="10.00">uses</text>
</g>
</g>
</svg>
