<?xml version="1.0" encoding="UTF-8" standalone="no"?>
<!DOCTYPE svg PUBLIC "-//W3C//DTD SVG 1.1//EN"
 "http://www.w3.org/Graphics/SVG/1.1/DTD/svg11.dtd">
<!-- Generated by graphviz version 4.0.0 (0)
 -->
<!-- Pages: 1 -->
<svg width="496pt" height="515pt"
 viewBox="0.00 0.00 496.35 514.51" xmlns="http://www.w3.org/2000/svg" xmlns:xlink="http://www.w3.org/1999/xlink">
<g id="graph0" class="graph" transform="scale(1 1) rotate(0) translate(28.8 485.71)">
<polygon fill="white" stroke="transparent" points="-28.8,28.8 -28.8,-485.71 467.55,-485.71 467.55,28.8 -28.8,28.8"/>
<text text-anchor="middle" x="219.38" y="-424.11" font-family="Helvetica,sans-Serif" font-size="36.00">lightning_fetcher</text>
<!-- fdi -->
<g id="node1" class="node">
<title>fdi</title>
<polygon fill="#5397c8" stroke="black" points="41.98,-302.11 41.98,-340.11 142.98,-340.11 142.98,-302.11 41.98,-302.11"/>
<text text-anchor="middle" x="92.48" y="-328.11" font-family="monospace" font-size="10.00">external crate</text>
<polyline fill="none" stroke="black" points="41.98,-321.11 142.98,-321.11 "/>
<text text-anchor="middle" x="92.48" y="-309.11" font-family="monospace" font-size="10.00">fdi</text>
</g>
<!-- lightning_fetcher -->
<g id="node2" class="node">
<title>lightning_fetcher</title>
<polygon fill="#5397c8" stroke="black" points="307.97,-161.81 307.97,-199.81 426.97,-199.81 426.97,-161.81 307.97,-161.81"/>
<text text-anchor="middle" x="367.47" y="-187.81" font-family="monospace" font-size="10.00">crate</text>
<polyline fill="none" stroke="black" points="307.97,-180.81 426.97,-180.81 "/>
<text text-anchor="middle" x="367.47" y="-168.81" font-family="monospace" font-size="10.00">lightning_fetcher</text>
</g>
<!-- lightning_fetcher::config -->
<g id="node3" class="node">
<title>lightning_fetcher::config</title>
<polygon fill="#81c169" stroke="black" points="198.36,-0.5 198.36,-38.5 365.36,-38.5 365.36,-0.5 198.36,-0.5"/>
<text text-anchor="middle" x="281.86" y="-26.5" font-family="monospace" font-size="10.00">pub mod</text>
<polyline fill="none" stroke="black" points="198.36,-19.5 365.36,-19.5 "/>
<text text-anchor="middle" x="281.86" y="-7.5" font-family="monospace" font-size="10.00">lightning_fetcher::config</text>
</g>
<!-- lightning_fetcher&#45;&gt;lightning_fetcher::config -->
<g id="edge1" class="edge">
<title>lightning_fetcher&#45;&gt;lightning_fetcher::config</title>
<path fill="none" stroke="#000000" d="M357.31,-161.67C342.31,-133.42 314.16,-80.36 296.8,-47.66"/>
<polygon fill="#000000" stroke="#000000" points="299.78,-45.81 292,-38.61 293.6,-49.09 299.78,-45.81"/>
<text text-anchor="middle" x="314.56" y="-96.67" font-family="monospace" font-size="10.00">owns</text>
</g>
<!-- lightning_fetcher::fetcher -->
<g id="node4" class="node">
<title>lightning_fetcher::fetcher</title>
<polygon fill="#81c169" stroke="black" points="115.01,-157.49 115.01,-195.49 288.01,-195.49 288.01,-157.49 115.01,-157.49"/>
<text text-anchor="middle" x="201.51" y="-183.49" font-family="monospace" font-size="10.00">pub mod</text>
<polyline fill="none" stroke="black" points="115.01,-176.49 288.01,-176.49 "/>
<text text-anchor="middle" x="201.51" y="-164.49" font-family="monospace" font-size="10.00">lightning_fetcher::fetcher</text>
</g>
<!-- lightning_fetcher&#45;&gt;lightning_fetcher::fetcher -->
<g id="edge2" class="edge">
<title>lightning_fetcher&#45;&gt;lightning_fetcher::fetcher</title>
<path fill="none" stroke="#000000" d="M307.55,-179.25C304.5,-179.17 301.39,-179.09 298.26,-179.01"/>
<polygon fill="#000000" stroke="#000000" points="298.28,-175.51 288.2,-178.75 298.1,-182.51 298.28,-175.51"/>
<text text-anchor="middle" x="296.66" y="-171.13" font-family="monospace" font-size="10.00">owns</text>
</g>
<!-- lightning_fetcher::origin -->
<g id="node5" class="node">
<title>lightning_fetcher::origin</title>
<polygon fill="#f8c04c" stroke="black" points="149.12,-237.01 149.12,-275.01 316.12,-275.01 316.12,-237.01 149.12,-237.01"/>
<text text-anchor="middle" x="232.62" y="-263.01" font-family="monospace" font-size="10.00">pub(crate) mod</text>
<polyline fill="none" stroke="black" points="149.12,-256.01 316.12,-256.01 "/>
<text text-anchor="middle" x="232.62" y="-244.01" font-family="monospace" font-size="10.00">lightning_fetcher::origin</text>
</g>
<!-- lightning_fetcher&#45;&gt;lightning_fetcher::origin -->
<g id="edge3" class="edge">
<title>lightning_fetcher&#45;&gt;lightning_fetcher::origin</title>
<path fill="none" stroke="#000000" d="M333.09,-199.98C315.66,-209.71 294.31,-221.61 275.78,-231.95"/>
<polygon fill="#000000" stroke="#000000" points="273.97,-228.95 266.94,-236.88 277.37,-235.06 273.97,-228.95"/>
<text text-anchor="middle" x="291.93" y="-218.96" font-family="monospace" font-size="10.00">owns</text>
</g>
<!-- lightning_fetcher::fetcher&#45;&gt;fdi -->
<g id="edge4" class="edge">
<title>lightning_fetcher::fetcher&#45;&gt;fdi</title>
<path fill="none" stroke="#7f7f7f" stroke-dasharray="5,2" d="M187.04,-195.69C168.06,-220.87 134.65,-265.19 113.05,-293.83"/>
<polygon fill="#7f7f7f" stroke="#7f7f7f" points="110.25,-291.74 107.02,-301.83 115.84,-295.95 110.25,-291.74"/>
<text text-anchor="middle" x="137.54" y="-236.76" font-family="monospace" font-size="10.00">uses</text>
</g>
<!-- lightning_fetcher::fetcher&#45;&gt;lightning_fetcher::config -->
<g id="edge5" class="edge">
<title>lightning_fetcher::fetcher&#45;&gt;lightning_fetcher::config</title>
<path fill="none" stroke="#7f7f7f" stroke-dasharray="5,2" d="M211.37,-157.24C225.34,-129.93 251.02,-79.76 267.22,-48.09"/>
<polygon fill="#7f7f7f" stroke="#7f7f7f" points="270.49,-49.4 271.93,-38.91 264.25,-46.21 270.49,-49.4"/>
<text text-anchor="middle" x="226.8" y="-105.67" font-family="monospace" font-size="10.00">uses</text>
</g>
<!-- lightning_fetcher::fetcher&#45;&gt;lightning_fetcher::origin -->
<g id="edge6" class="edge">
<title>lightning_fetcher::fetcher&#45;&gt;lightning_fetcher::origin</title>
<path fill="none" stroke="#7f7f7f" stroke-dasharray="5,2" d="M187.58,-195.87C186.12,-205.49 188.15,-217.04 192.51,-227.53"/>
<polygon fill="#7f7f7f" stroke="#7f7f7f" points="189.52,-229.39 197.12,-236.78 195.79,-226.27 189.52,-229.39"/>
<text text-anchor="middle" x="177.54" y="-214.7" font-family="monospace" font-size="10.00">uses</text>
</g>
<!-- lightning_schema -->
<g id="node6" class="node">
<title>lightning_schema</title>
<polygon fill="#5397c8" stroke="black" points="153.47,-360.54 153.47,-398.54 266.47,-398.54 266.47,-360.54 153.47,-360.54"/>
<text text-anchor="middle" x="209.97" y="-386.54" font-family="monospace" font-size="10.00">external crate</text>
<polyline fill="none" stroke="black" points="153.47,-379.54 266.47,-379.54 "/>
<text text-anchor="middle" x="209.97" y="-367.54" font-family="monospace" font-size="10.00">lightning_schema</text>
</g>
<!-- lightning_fetcher::fetcher&#45;&gt;lightning_schema -->
<g id="edge7" class="edge">
<title>lightning_fetcher::fetcher&#45;&gt;lightning_schema</title>
<path fill="none" stroke="#7f7f7f" stroke-dasharray="5,2" d="M202.31,-195.59C203.79,-231.19 206.99,-307.89 208.75,-350.14"/>
<polygon fill="#7f7f7f" stroke="#7f7f7f" points="205.26,-350.49 209.17,-360.34 212.25,-350.2 205.26,-350.49"/>
<text text-anchor="middle" x="193.03" y="-275.86" font-family="monospace" font-size="10.00">uses</text>
</g>
<!-- lightning_types -->
<g id="node7" class="node">
<title>lightning_types</title>
<polygon fill="#5397c8" stroke="black" points="0,-185.8 0,-223.8 107,-223.8 107,-185.8 0,-185.8"/>
<text text-anchor="middle" x="53.5" y="-211.8" font-family="monospace" font-size="10.00">external crate</text>
<polyline fill="none" stroke="black" points="0,-204.8 107,-204.8 "/>
<text text-anchor="middle" x="53.5" y="-192.8" font-family="monospace" font-size="10.00">lightning_types</text>
</g>
<!-- lightning_fetcher::fetcher&#45;&gt;lightning_types -->
<g id="edge8" class="edge">
<title>lightning_fetcher::fetcher&#45;&gt;lightning_types</title>
<path fill="none" stroke="#7f7f7f" stroke-dasharray="5,2" d="M114.99,-193.04C114.82,-193.07 114.65,-193.1 114.49,-193.13"/>
<polygon fill="#7f7f7f" stroke="#7f7f7f" points="116.26,-189.23 107.1,-194.55 117.57,-196.11 116.26,-189.23"/>
<text text-anchor="middle" x="127.24" y="-196.09" font-family="monospace" font-size="10.00">uses</text>
</g>
<!-- tokio::sync::mpsc -->
<g id="node9" class="node">
<title>tokio::sync::mpsc</title>
<polygon fill="#81c169" stroke="black" points="52.83,-65.07 52.83,-103.07 171.83,-103.07 171.83,-65.07 52.83,-65.07"/>
<text text-anchor="middle" x="112.33" y="-91.07" font-family="monospace" font-size="10.00">external mod</text>
<polyline fill="none" stroke="black" points="52.83,-84.07 171.83,-84.07 "/>
<text text-anchor="middle" x="112.33" y="-72.07" font-family="monospace" font-size="10.00">tokio::sync::mpsc</text>
</g>
<!-- lightning_fetcher::fetcher&#45;&gt;tokio::sync::mpsc -->
<g id="edge9" class="edge">
<title>lightning_fetcher::fetcher&#45;&gt;tokio::sync::mpsc</title>
<path fill="none" stroke="#7f7f7f" stroke-dasharray="5,2" d="M183.04,-157.34C170,-143.83 152.37,-125.57 137.98,-110.65"/>
<polygon fill="#7f7f7f" stroke="#7f7f7f" points="140.25,-107.96 130.79,-103.2 135.21,-112.82 140.25,-107.96"/>
<text text-anchor="middle" x="148.01" y="-137" font-family="monospace" font-size="10.00">uses</text>
</g>
<!-- tokio::sync::oneshot -->
<g id="node10" class="node">
<title>tokio::sync::oneshot</title>
<polygon fill="#81c169" stroke="black" points="277.24,-99.33 277.24,-137.33 414.24,-137.33 414.24,-99.33 277.24,-99.33"/>
<text text-anchor="middle" x="345.74" y="-125.33" font-family="monospace" font-size="10.00">external mod</text>
<polyline fill="none" stroke="black" points="277.24,-118.33 414.24,-118.33 "/>
<text text-anchor="middle" x="345.74" y="-106.33" font-family="monospace" font-size="10.00">tokio::sync::oneshot</text>
</g>
<!-- lightning_fetcher::fetcher&#45;&gt;tokio::sync::oneshot -->
<g id="edge10" class="edge">
<title>lightning_fetcher::fetcher&#45;&gt;tokio::sync::oneshot</title>
<path fill="none" stroke="#7f7f7f" stroke-dasharray="5,2" d="M248.74,-157.45C261.56,-152.28 275.59,-146.62 288.88,-141.26"/>
<polygon fill="#7f7f7f" stroke="#7f7f7f" points="290.44,-144.4 298.41,-137.42 287.83,-137.91 290.44,-144.4"/>
<text text-anchor="middle" x="256.31" y="-141.35" font-family="monospace" font-size="10.00">uses</text>
</g>
<!-- lightning_fetcher::origin&#45;&gt;fdi -->
<g id="edge11" class="edge">
<title>lightning_fetcher::origin&#45;&gt;fdi</title>
<path fill="none" stroke="#7f7f7f" stroke-dasharray="5,2" d="M191.71,-275.02C176.45,-282.11 158.94,-290.24 142.92,-297.68"/>
<polygon fill="#7f7f7f" stroke="#7f7f7f" points="141.28,-294.58 133.69,-301.97 144.23,-300.93 141.28,-294.58"/>
<text text-anchor="middle" x="154.82" y="-289.35" font-family="monospace" font-size="10.00">uses</text>
</g>
<!-- lightning_fetcher::origin&#45;&gt;lightning_fetcher::fetcher -->
<g id="edge12" class="edge">
<title>lightning_fetcher::origin&#45;&gt;lightning_fetcher::fetcher</title>
<path fill="none" stroke="#7f7f7f" stroke-dasharray="5,2" d="M246.56,-236.63C248.02,-227.01 245.98,-215.46 241.63,-204.97"/>
<polygon fill="#7f7f7f" stroke="#7f7f7f" points="244.61,-203.11 237.02,-195.72 238.35,-206.23 244.61,-203.11"/>
<text text-anchor="middle" x="231.6" y="-223.8" font-family="monospace" font-size="10.00">uses</text>
</g>
<!-- lightning_fetcher::origin&#45;&gt;lightning_schema -->
<g id="edge13" class="edge">
<title>lightning_fetcher::origin&#45;&gt;lightning_schema</title>
<path fill="none" stroke="#7f7f7f" stroke-dasharray="5,2" d="M229.13,-275.04C225.45,-295.11 219.61,-326.99 215.34,-350.27"/>
<polygon fill="#7f7f7f" stroke="#7f7f7f" points="211.86,-349.81 213.5,-360.28 218.75,-351.08 211.86,-349.81"/>
<text text-anchor="middle" x="209.74" y="-315.65" font-family="monospace" font-size="10.00">uses</text>
</g>
<!-- lightning_fetcher::origin&#45;&gt;lightning_types -->
<g id="edge14" class="edge">
<title>lightning_fetcher::origin&#45;&gt;lightning_types</title>
<path fill="none" stroke="#7f7f7f" stroke-dasharray="5,2" d="M165.92,-236.94C149.86,-232.35 132.75,-227.46 116.84,-222.91"/>
<polygon fill="#7f7f7f" stroke="#7f7f7f" points="117.69,-219.51 107.12,-220.13 115.77,-226.24 117.69,-219.51"/>
<text text-anchor="middle" x="128.88" y="-221.92" font-family="monospace" font-size="10.00">uses</text>
</g>
<!-- tokio::sync::broadcast -->
<g id="node8" class="node">
<title>tokio::sync::broadcast</title>
<polygon fill="#81c169" stroke="black" points="289.75,-370.41 289.75,-408.41 438.75,-408.41 438.75,-370.41 289.75,-370.41"/>
<text text-anchor="middle" x="364.25" y="-396.41" font-family="monospace" font-size="10.00">external mod</text>
<polyline fill="none" stroke="black" points="289.75,-389.41 438.75,-389.41 "/>
<text text-anchor="middle" x="364.25" y="-377.41" font-family="monospace" font-size="10.00">tokio::sync::broadcast</text>
</g>
<!-- lightning_fetcher::origin&#45;&gt;tokio::sync::broadcast -->
<g id="edge15" class="edge">
<title>lightning_fetcher::origin&#45;&gt;tokio::sync::broadcast</title>
<path fill="none" stroke="#7f7f7f" stroke-dasharray="5,2" d="M251.48,-275.12C274.26,-298.2 312.68,-337.15 338.26,-363.06"/>
<polygon fill="#7f7f7f" stroke="#7f7f7f" points="335.91,-365.67 345.43,-370.33 340.89,-360.75 335.91,-365.67"/>
<text text-anchor="middle" x="282.37" y="-322.09" font-family="monospace" font-size="10.00">uses</text>
</g>
<!-- lightning_fetcher::origin&#45;&gt;tokio::sync::mpsc -->
<g id="edge16" class="edge">
<title>lightning_fetcher::origin&#45;&gt;tokio::sync::mpsc</title>
<path fill="none" stroke="#7f7f7f" stroke-dasharray="5,2" d="M219.29,-236.95C197.97,-206.49 156.13,-146.67 131.57,-111.58"/>
<polygon fill="#7f7f7f" stroke="#7f7f7f" points="134.32,-109.4 125.72,-103.22 128.59,-113.42 134.32,-109.4"/>
<text text-anchor="middle" x="162.93" y="-177.26" font-family="monospace" font-size="10.00">uses</text>
</g>
<!-- lightning_fetcher::origin&#45;&gt;tokio::sync::oneshot -->
<g id="edge17" class="edge">
<title>lightning_fetcher::origin&#45;&gt;tokio::sync::oneshot</title>
<path fill="none" stroke="#7f7f7f" stroke-dasharray="5,2" d="M248.35,-236.87C267.83,-213.16 301.13,-172.63 323.29,-145.66"/>
<polygon fill="#7f7f7f" stroke="#7f7f7f" points="326.14,-147.71 329.78,-137.76 320.73,-143.26 326.14,-147.71"/>
<text text-anchor="middle" x="298.32" y="-194.26" font-family="monospace" font-size="10.00">uses</text>
</g>
</g>
</svg>
