<?xml version="1.0" encoding="UTF-8" standalone="no"?>
<!DOCTYPE svg PUBLIC "-//W3C//DTD SVG 1.1//EN"
 "http://www.w3.org/Graphics/SVG/1.1/DTD/svg11.dtd">
<!-- Generated by graphviz version 4.0.0 (0)
 -->
<!-- Pages: 1 -->
<svg width="658pt" height="599pt"
 viewBox="0.00 0.00 657.52 598.52" xmlns="http://www.w3.org/2000/svg" xmlns:xlink="http://www.w3.org/1999/xlink">
<g id="graph0" class="graph" transform="scale(1 1) rotate(0) translate(28.8 569.72)">
<polygon fill="white" stroke="transparent" points="-28.8,28.8 -28.8,-569.72 628.72,-569.72 628.72,28.8 -28.8,28.8"/>
<text text-anchor="middle" x="299.96" y="-508.12" font-family="Helvetica,sans-Serif" font-size="36.00">lightning_blockstore</text>
<!-- fdi -->
<g id="node1" class="node">
<title>fdi</title>
<polygon fill="#5397c8" stroke="black" points="229.96,-227.46 229.96,-265.46 330.96,-265.46 330.96,-227.46 229.96,-227.46"/>
<text text-anchor="middle" x="280.46" y="-253.46" font-family="monospace" font-size="10.00">external crate</text>
<polyline fill="none" stroke="black" points="229.96,-246.46 330.96,-246.46 "/>
<text text-anchor="middle" x="280.46" y="-234.46" font-family="monospace" font-size="10.00">fdi</text>
</g>
<!-- lightning_blockstore -->
<g id="node2" class="node">
<title>lightning_blockstore</title>
<polygon fill="#5397c8" stroke="black" points="305.97,-0.5 305.97,-38.5 442.97,-38.5 442.97,-0.5 305.97,-0.5"/>
<text text-anchor="middle" x="374.47" y="-26.5" font-family="monospace" font-size="10.00">crate</text>
<polyline fill="none" stroke="black" points="305.97,-19.5 442.97,-19.5 "/>
<text text-anchor="middle" x="374.47" y="-7.5" font-family="monospace" font-size="10.00">lightning_blockstore</text>
</g>
<!-- lightning_blockstore::blockstore -->
<g id="node3" class="node">
<title>lightning_blockstore::blockstore</title>
<polygon fill="#81c169" stroke="black" points="62.48,-274.46 62.48,-312.46 271.48,-312.46 271.48,-274.46 62.48,-274.46"/>
<text text-anchor="middle" x="166.98" y="-300.46" font-family="monospace" font-size="10.00">pub mod</text>
<polyline fill="none" stroke="black" points="62.48,-293.46 271.48,-293.46 "/>
<text text-anchor="middle" x="166.98" y="-281.46" font-family="monospace" font-size="10.00">lightning_blockstore::blockstore</text>
</g>
<!-- lightning_blockstore&#45;&gt;lightning_blockstore::blockstore -->
<g id="edge1" class="edge">
<title>lightning_blockstore&#45;&gt;lightning_blockstore::blockstore</title>
<path fill="none" stroke="#000000" d="M359.88,-38.76C323.72,-86.51 229.84,-210.46 187.83,-265.93"/>
<polygon fill="#000000" stroke="#000000" points="184.8,-264.14 181.55,-274.22 190.38,-268.36 184.8,-264.14"/>
<text text-anchor="middle" x="261.36" y="-155.35" font-family="monospace" font-size="10.00">owns</text>
</g>
<!-- lightning_blockstore::config -->
<g id="node4" class="node">
<title>lightning_blockstore::config</title>
<polygon fill="#81c169" stroke="black" points="414.92,-321.47 414.92,-359.47 599.92,-359.47 599.92,-321.47 414.92,-321.47"/>
<text text-anchor="middle" x="507.42" y="-347.47" font-family="monospace" font-size="10.00">pub mod</text>
<polyline fill="none" stroke="black" points="414.92,-340.47 599.92,-340.47 "/>
<text text-anchor="middle" x="507.42" y="-328.47" font-family="monospace" font-size="10.00">lightning_blockstore::config</text>
</g>
<!-- lightning_blockstore&#45;&gt;lightning_blockstore::config -->
<g id="edge2" class="edge">
<title>lightning_blockstore&#45;&gt;lightning_blockstore::config</title>
<path fill="none" stroke="#000000" d="M382.39,-38.62C404.83,-92.81 468.97,-247.64 495.6,-311.94"/>
<polygon fill="#000000" stroke="#000000" points="492.48,-313.55 499.54,-321.45 498.95,-310.87 492.48,-313.55"/>
<text text-anchor="middle" x="426.49" y="-167.28" font-family="monospace" font-size="10.00">owns</text>
</g>
<!-- lightning_blockstore::put -->
<g id="node5" class="node">
<title>lightning_blockstore::put</title>
<polygon fill="#81c169" stroke="black" points="310.44,-180.45 310.44,-218.45 477.44,-218.45 477.44,-180.45 310.44,-180.45"/>
<text text-anchor="middle" x="393.94" y="-206.45" font-family="monospace" font-size="10.00">pub mod</text>
<polyline fill="none" stroke="black" points="310.44,-199.45 477.44,-199.45 "/>
<text text-anchor="middle" x="393.94" y="-187.45" font-family="monospace" font-size="10.00">lightning_blockstore::put</text>
</g>
<!-- lightning_blockstore&#45;&gt;lightning_blockstore::put -->
<g id="edge3" class="edge">
<title>lightning_blockstore&#45;&gt;lightning_blockstore::put</title>
<path fill="none" stroke="#000000" d="M376.55,-38.76C379.96,-70.28 386.76,-133.09 390.77,-170.16"/>
<polygon fill="#000000" stroke="#000000" points="387.31,-170.77 391.87,-180.33 394.27,-170.02 387.31,-170.77"/>
<text text-anchor="middle" x="371.16" y="-107.46" font-family="monospace" font-size="10.00">owns</text>
</g>
<!-- lightning_blockstore::store -->
<g id="node6" class="node">
<title>lightning_blockstore::store</title>
<polygon fill="#f8c04c" stroke="black" points="284.97,-454.42 284.97,-492.42 463.97,-492.42 463.97,-454.42 284.97,-454.42"/>
<text text-anchor="middle" x="374.47" y="-480.42" font-family="monospace" font-size="10.00">pub(crate) mod</text>
<polyline fill="none" stroke="black" points="284.97,-473.42 463.97,-473.42 "/>
<text text-anchor="middle" x="374.47" y="-461.42" font-family="monospace" font-size="10.00">lightning_blockstore::store</text>
</g>
<!-- lightning_blockstore&#45;&gt;lightning_blockstore::store -->
<g id="edge4" class="edge">
<title>lightning_blockstore&#45;&gt;lightning_blockstore::store</title>
<path fill="none" stroke="#000000" d="M374.47,-38.71C374.47,-109.84 374.47,-358.44 374.47,-444.12"/>
<polygon fill="#000000" stroke="#000000" points="370.97,-444.2 374.47,-454.2 377.97,-444.2 370.97,-444.2"/>
<text text-anchor="middle" x="361.97" y="-244.42" font-family="monospace" font-size="10.00">owns</text>
</g>
<!-- lightning_blockstore::blockstore&#45;&gt;fdi -->
<g id="edge5" class="edge">
<title>lightning_blockstore::blockstore&#45;&gt;fdi</title>
<path fill="none" stroke="#7f7f7f" stroke-dasharray="5,2" d="M213.14,-274.34C217.07,-272.71 221.08,-271.06 225.07,-269.4"/>
<polygon fill="#7f7f7f" stroke="#7f7f7f" points="226.44,-272.62 234.34,-265.56 223.77,-266.15 226.44,-272.62"/>
<text text-anchor="middle" x="206.6" y="-263.87" font-family="monospace" font-size="10.00">uses</text>
</g>
<!-- lightning_blockstore::blockstore&#45;&gt;lightning_blockstore::config -->
<g id="edge6" class="edge">
<title>lightning_blockstore::blockstore&#45;&gt;lightning_blockstore::config</title>
<path fill="none" stroke="#7f7f7f" stroke-dasharray="5,2" d="M271.9,-307.95C314.13,-313.78 362.69,-320.49 404.7,-326.29"/>
<polygon fill="#7f7f7f" stroke="#7f7f7f" points="404.28,-329.76 414.67,-327.66 405.24,-322.83 404.28,-329.76"/>
<text text-anchor="middle" x="325.8" y="-320.12" font-family="monospace" font-size="10.00">uses</text>
</g>
<!-- lightning_blockstore::blockstore&#45;&gt;lightning_blockstore::put -->
<g id="edge7" class="edge">
<title>lightning_blockstore::blockstore&#45;&gt;lightning_blockstore::put</title>
<path fill="none" stroke="#7f7f7f" stroke-dasharray="5,2" d="M212.91,-274.44C249.09,-259.45 299.67,-238.5 338.18,-222.55"/>
<polygon fill="#7f7f7f" stroke="#7f7f7f" points="339.79,-225.67 347.69,-218.61 337.11,-219.2 339.79,-225.67"/>
<text text-anchor="middle" x="263.04" y="-251.5" font-family="monospace" font-size="10.00">uses</text>
</g>
<!-- lightning_blockstore::blockstore&#45;&gt;lightning_blockstore::store -->
<g id="edge8" class="edge">
<title>lightning_blockstore::blockstore&#45;&gt;lightning_blockstore::store</title>
<path fill="none" stroke="#7f7f7f" stroke-dasharray="5,2" d="M189.18,-312.72C226.7,-345.26 302.65,-411.13 344.73,-447.63"/>
<polygon fill="#7f7f7f" stroke="#7f7f7f" points="342.58,-450.39 352.42,-454.3 347.16,-445.1 342.58,-450.39"/>
<text text-anchor="middle" x="254.46" y="-383.17" font-family="monospace" font-size="10.00">uses</text>
</g>
<!-- lightning_schema -->
<g id="node7" class="node">
<title>lightning_schema</title>
<polygon fill="#5397c8" stroke="black" points="129.95,-454.42 129.95,-492.42 242.95,-492.42 242.95,-454.42 129.95,-454.42"/>
<text text-anchor="middle" x="186.45" y="-480.42" font-family="monospace" font-size="10.00">external crate</text>
<polyline fill="none" stroke="black" points="129.95,-473.42 242.95,-473.42 "/>
<text text-anchor="middle" x="186.45" y="-461.42" font-family="monospace" font-size="10.00">lightning_schema</text>
</g>
<!-- lightning_blockstore::blockstore&#45;&gt;lightning_schema -->
<g id="edge9" class="edge">
<title>lightning_blockstore::blockstore&#45;&gt;lightning_schema</title>
<path fill="none" stroke="#7f7f7f" stroke-dasharray="5,2" d="M169.06,-312.72C172.47,-344.25 179.27,-407.06 183.28,-444.13"/>
<polygon fill="#7f7f7f" stroke="#7f7f7f" points="179.83,-444.73 184.38,-454.3 186.78,-443.98 179.83,-444.73"/>
<text text-anchor="middle" x="163.67" y="-381.42" font-family="monospace" font-size="10.00">uses</text>
</g>
<!-- lightning_types -->
<g id="node8" class="node">
<title>lightning_types</title>
<polygon fill="#5397c8" stroke="black" points="0,-321.47 0,-359.47 107,-359.47 107,-321.47 0,-321.47"/>
<text text-anchor="middle" x="53.5" y="-347.47" font-family="monospace" font-size="10.00">external crate</text>
<polyline fill="none" stroke="black" points="0,-340.47 107,-340.47 "/>
<text text-anchor="middle" x="53.5" y="-328.47" font-family="monospace" font-size="10.00">lightning_types</text>
</g>
<!-- lightning_blockstore::blockstore&#45;&gt;lightning_types -->
<g id="edge10" class="edge">
<title>lightning_blockstore::blockstore&#45;&gt;lightning_types</title>
<path fill="none" stroke="#7f7f7f" stroke-dasharray="5,2" d="M120.82,-312.58C116.89,-314.21 112.88,-315.87 108.89,-317.53"/>
<polygon fill="#7f7f7f" stroke="#7f7f7f" points="107.51,-314.31 99.62,-321.37 110.19,-320.77 107.51,-314.31"/>
<text text-anchor="middle" x="127.35" y="-318.05" font-family="monospace" font-size="10.00">uses</text>
</g>
<!-- std::io -->
<g id="node9" class="node">
<title>std::io</title>
<polygon fill="#81c169" stroke="black" points="9,-133.45 9,-171.45 98,-171.45 98,-133.45 9,-133.45"/>
<text text-anchor="middle" x="53.5" y="-159.45" font-family="monospace" font-size="10.00">external mod</text>
<polyline fill="none" stroke="black" points="9,-152.45 98,-152.45 "/>
<text text-anchor="middle" x="53.5" y="-140.45" font-family="monospace" font-size="10.00">std::io</text>
</g>
<!-- lightning_blockstore::blockstore&#45;&gt;std::io -->
<g id="edge11" class="edge">
<title>lightning_blockstore::blockstore&#45;&gt;std::io</title>
<path fill="none" stroke="#7f7f7f" stroke-dasharray="5,2" d="M151.68,-274.45C132.05,-250.06 97.87,-207.59 75.47,-179.75"/>
<polygon fill="#7f7f7f" stroke="#7f7f7f" points="77.92,-177.21 68.92,-171.62 72.47,-181.6 77.92,-177.21"/>
<text text-anchor="middle" x="101.07" y="-230.1" font-family="monospace" font-size="10.00">uses</text>
</g>
<!-- tokio::fs -->
<g id="node10" class="node">
<title>tokio::fs</title>
<polygon fill="#81c169" stroke="black" points="141.95,-0.5 141.95,-38.5 230.95,-38.5 230.95,-0.5 141.95,-0.5"/>
<text text-anchor="middle" x="186.45" y="-26.5" font-family="monospace" font-size="10.00">external mod</text>
<polyline fill="none" stroke="black" points="141.95,-19.5 230.95,-19.5 "/>
<text text-anchor="middle" x="186.45" y="-7.5" font-family="monospace" font-size="10.00">tokio::fs</text>
</g>
<!-- lightning_blockstore::blockstore&#45;&gt;tokio::fs -->
<g id="edge12" class="edge">
<title>lightning_blockstore::blockstore&#45;&gt;tokio::fs</title>
<path fill="none" stroke="#7f7f7f" stroke-dasharray="5,2" d="M168.35,-274.2C171.71,-226.94 180.37,-105.04 184.37,-48.77"/>
<polygon fill="#7f7f7f" stroke="#7f7f7f" points="187.86,-48.97 185.08,-38.74 180.88,-48.47 187.86,-48.97"/>
<text text-anchor="middle" x="163.86" y="-164.48" font-family="monospace" font-size="10.00">uses</text>
</g>
<!-- lightning_blockstore::put&#45;&gt;fdi -->
<g id="edge13" class="edge">
<title>lightning_blockstore::put&#45;&gt;fdi</title>
<path fill="none" stroke="#7f7f7f" stroke-dasharray="5,2" d="M347.78,-218.57C343.85,-220.2 339.84,-221.86 335.85,-223.52"/>
<polygon fill="#7f7f7f" stroke="#7f7f7f" points="334.47,-220.3 326.57,-227.36 337.15,-226.76 334.47,-220.3"/>
<text text-anchor="middle" x="354.31" y="-224.04" font-family="monospace" font-size="10.00">uses</text>
</g>
<!-- lightning_blockstore::put&#45;&gt;lightning_schema -->
<g id="edge14" class="edge">
<title>lightning_blockstore::put&#45;&gt;lightning_schema</title>
<path fill="none" stroke="#7f7f7f" stroke-dasharray="5,2" d="M379.35,-218.72C343.19,-266.47 249.31,-390.42 207.3,-445.88"/>
<polygon fill="#7f7f7f" stroke="#7f7f7f" points="204.27,-444.09 201.02,-454.17 209.85,-448.32 204.27,-444.09"/>
<text text-anchor="middle" x="280.83" y="-335.3" font-family="monospace" font-size="10.00">uses</text>
</g>
<!-- lightning_blockstore::put&#45;&gt;lightning_types -->
<g id="edge15" class="edge">
<title>lightning_blockstore::put&#45;&gt;lightning_types</title>
<path fill="none" stroke="#7f7f7f" stroke-dasharray="5,2" d="M348.03,-218.47C286.01,-244.16 175.59,-289.9 109,-317.48"/>
<polygon fill="#7f7f7f" stroke="#7f7f7f" points="107.4,-314.35 99.5,-321.41 110.08,-320.82 107.4,-314.35"/>
<text text-anchor="middle" x="216.01" y="-259.98" font-family="monospace" font-size="10.00">uses</text>
</g>
<!-- lightning_blockstore::store&#45;&gt;std::io -->
<g id="edge16" class="edge">
<title>lightning_blockstore::store&#45;&gt;std::io</title>
<path fill="none" stroke="#7f7f7f" stroke-dasharray="5,2" d="M355.35,-454.3C300.49,-399.44 142.49,-241.44 79.69,-178.64"/>
<polygon fill="#7f7f7f" stroke="#7f7f7f" points="82.06,-176.06 72.52,-171.47 77.11,-181.01 82.06,-176.06"/>
<text text-anchor="middle" x="205.02" y="-319.47" font-family="monospace" font-size="10.00">uses</text>
</g>
</g>
</svg>
