<?xml version="1.0" encoding="UTF-8" standalone="no"?>
<!DOCTYPE svg PUBLIC "-//W3C//DTD SVG 1.1//EN"
 "http://www.w3.org/Graphics/SVG/1.1/DTD/svg11.dtd">
<!-- Generated by graphviz version 4.0.0 (0)
 -->
<!-- Pages: 1 -->
<svg width="493pt" height="381pt"
 viewBox="0.00 0.00 493.43 381.18" xmlns="http://www.w3.org/2000/svg" xmlns:xlink="http://www.w3.org/1999/xlink">
<g id="graph0" class="graph" transform="scale(1 1) rotate(0) translate(28.8 352.38)">
<polygon fill="white" stroke="transparent" points="-28.8,28.8 -28.8,-352.38 464.63,-352.38 464.63,28.8 -28.8,28.8"/>
<text text-anchor="middle" x="217.91" y="-290.78" font-family="Helvetica,sans-Serif" font-size="36.00">infusion_proc</text>
<!-- infusion_proc -->
<g id="node1" class="node">
<title>infusion_proc</title>
<polygon fill="#5397c8" stroke="black" points="180.86,-140.34 180.86,-178.34 275.86,-178.34 275.86,-140.34 180.86,-140.34"/>
<text text-anchor="middle" x="228.36" y="-166.34" font-family="monospace" font-size="10.00">crate</text>
<polyline fill="none" stroke="black" points="180.86,-159.34 275.86,-159.34 "/>
<text text-anchor="middle" x="228.36" y="-147.34" font-family="monospace" font-size="10.00">infusion_proc</text>
</g>
<!-- infusion_proc::helpers -->
<g id="node2" class="node">
<title>infusion_proc::helpers</title>
<polygon fill="#f8c04c" stroke="black" points="286.83,-185.65 286.83,-223.65 435.83,-223.65 435.83,-185.65 286.83,-185.65"/>
<text text-anchor="middle" x="361.33" y="-211.65" font-family="monospace" font-size="10.00">pub(crate) mod</text>
<polyline fill="none" stroke="black" points="286.83,-204.65 435.83,-204.65 "/>
<text text-anchor="middle" x="361.33" y="-192.65" font-family="monospace" font-size="10.00">infusion_proc::helpers</text>
</g>
<!-- infusion_proc&#45;&gt;infusion_proc::helpers -->
<g id="edge1" class="edge">
<title>infusion_proc&#45;&gt;infusion_proc::helpers</title>
<path fill="none" stroke="#000000" d="M234.94,-178.68C243.69,-188.14 259.37,-197.2 276.8,-204.11"/>
<polygon fill="#000000" stroke="#000000" points="276.04,-207.56 286.64,-207.72 278.45,-200.99 276.04,-207.56"/>
<text text-anchor="middle" x="243.37" y="-194.4" font-family="monospace" font-size="10.00">owns</text>
</g>
<!-- infusion_proc&#45;&gt;infusion_proc::helpers -->
<g id="edge2" class="edge">
<title>infusion_proc&#45;&gt;infusion_proc::helpers</title>
<path fill="none" stroke="#7f7f7f" stroke-dasharray="5,2" d="M275.94,-149.22C301.05,-153.67 329.98,-165.18 347.1,-178.41"/>
<polygon fill="#7f7f7f" stroke="#7f7f7f" points="345.13,-181.35 354.89,-185.46 349.83,-176.16 345.13,-181.35"/>
<text text-anchor="middle" x="299.02" y="-166.82" font-family="monospace" font-size="10.00">uses</text>
</g>
<!-- infusion_proc::on_trait -->
<g id="node3" class="node">
<title>infusion_proc::on_trait</title>
<polygon fill="#f8c04c" stroke="black" points="65.41,-76.74 65.41,-114.74 220.41,-114.74 220.41,-76.74 65.41,-76.74"/>
<text text-anchor="middle" x="142.91" y="-102.74" font-family="monospace" font-size="10.00">pub(crate) mod</text>
<polyline fill="none" stroke="black" points="65.41,-95.74 220.41,-95.74 "/>
<text text-anchor="middle" x="142.91" y="-83.74" font-family="monospace" font-size="10.00">infusion_proc::on_trait</text>
</g>
<!-- infusion_proc&#45;&gt;infusion_proc::on_trait -->
<g id="edge3" class="edge">
<title>infusion_proc&#45;&gt;infusion_proc::on_trait</title>
<path fill="none" stroke="#000000" d="M202.73,-140.25C194.53,-134.15 185.33,-127.31 176.65,-120.85"/>
<polygon fill="#000000" stroke="#000000" points="178.64,-117.97 168.53,-114.81 174.46,-123.58 178.64,-117.97"/>
<text text-anchor="middle" x="177.19" y="-122.55" font-family="monospace" font-size="10.00">owns</text>
</g>
<!-- infusion_proc::parse -->
<g id="node4" class="node">
<title>infusion_proc::parse</title>
<polygon fill="#f8c04c" stroke="black" points="0,-190.08 0,-228.08 137,-228.08 137,-190.08 0,-190.08"/>
<text text-anchor="middle" x="68.5" y="-216.08" font-family="monospace" font-size="10.00">pub(crate) mod</text>
<polyline fill="none" stroke="black" points="0,-209.08 137,-209.08 "/>
<text text-anchor="middle" x="68.5" y="-197.08" font-family="monospace" font-size="10.00">infusion_proc::parse</text>
</g>
<!-- infusion_proc&#45;&gt;infusion_proc::parse -->
<g id="edge4" class="edge">
<title>infusion_proc&#45;&gt;infusion_proc::parse</title>
<path fill="none" stroke="#000000" d="M180.52,-149.21C148.23,-153.69 107.71,-167.85 85.16,-183.52"/>
<polygon fill="#000000" stroke="#000000" points="82.86,-180.88 77.19,-189.83 87.21,-186.37 82.86,-180.88"/>
<text text-anchor="middle" x="120.34" y="-169.37" font-family="monospace" font-size="10.00">owns</text>
</g>
<!-- infusion_proc&#45;&gt;infusion_proc::parse -->
<g id="edge5" class="edge">
<title>infusion_proc&#45;&gt;infusion_proc::parse</title>
<path fill="none" stroke="#7f7f7f" stroke-dasharray="5,2" d="M219.93,-178.35C205.63,-191.67 176.26,-204.72 147.12,-212.72"/>
<polygon fill="#7f7f7f" stroke="#7f7f7f" points="146.09,-209.37 137.27,-215.24 147.82,-216.16 146.09,-209.37"/>
<text text-anchor="middle" x="171.03" y="-187.53" font-family="monospace" font-size="10.00">uses</text>
</g>
<!-- infusion_proc::sig -->
<g id="node5" class="node">
<title>infusion_proc::sig</title>
<polygon fill="#f8c04c" stroke="black" points="175.59,-0.5 175.59,-38.5 300.59,-38.5 300.59,-0.5 175.59,-0.5"/>
<text text-anchor="middle" x="238.09" y="-26.5" font-family="monospace" font-size="10.00">pub(crate) mod</text>
<polyline fill="none" stroke="black" points="175.59,-19.5 300.59,-19.5 "/>
<text text-anchor="middle" x="238.09" y="-7.5" font-family="monospace" font-size="10.00">infusion_proc::sig</text>
</g>
<!-- infusion_proc&#45;&gt;infusion_proc::sig -->
<g id="edge6" class="edge">
<title>infusion_proc&#45;&gt;infusion_proc::sig</title>
<path fill="none" stroke="#000000" d="M229.7,-140.19C231.33,-116.68 234.12,-76.56 236.04,-49.08"/>
<polygon fill="#000000" stroke="#000000" points="239.54,-49.09 236.75,-38.87 232.56,-48.6 239.54,-49.09"/>
<text text-anchor="middle" x="245.37" y="-97.63" font-family="monospace" font-size="10.00">owns</text>
</g>
<!-- infusion_proc::utils -->
<g id="node6" class="node">
<title>infusion_proc::utils</title>
<polygon fill="#f8c04c" stroke="black" points="107.76,-237.08 107.76,-275.08 244.76,-275.08 244.76,-237.08 107.76,-237.08"/>
<text text-anchor="middle" x="176.26" y="-263.08" font-family="monospace" font-size="10.00">pub(crate) mod</text>
<polyline fill="none" stroke="black" points="107.76,-256.08 244.76,-256.08 "/>
<text text-anchor="middle" x="176.26" y="-244.08" font-family="monospace" font-size="10.00">infusion_proc::utils</text>
</g>
<!-- infusion_proc&#45;&gt;infusion_proc::utils -->
<g id="edge7" class="edge">
<title>infusion_proc&#45;&gt;infusion_proc::utils</title>
<path fill="none" stroke="#000000" d="M189.21,-178.43C178.36,-192.38 169.67,-210.94 167.15,-226.69"/>
<polygon fill="#000000" stroke="#000000" points="163.63,-226.84 166.43,-237.05 170.61,-227.32 163.63,-226.84"/>
<text text-anchor="middle" x="165.68" y="-205.56" font-family="monospace" font-size="10.00">owns</text>
</g>
<!-- infusion_proc&#45;&gt;infusion_proc::utils -->
<g id="edge8" class="edge">
<title>infusion_proc&#45;&gt;infusion_proc::utils</title>
<path fill="none" stroke="#7f7f7f" stroke-dasharray="5,2" d="M238.2,-178.47C238.71,-192.98 231.7,-212.29 221.55,-228.26"/>
<polygon fill="#7f7f7f" stroke="#7f7f7f" points="218.48,-226.53 215.61,-236.73 224.22,-230.55 218.48,-226.53"/>
<text text-anchor="middle" x="217.37" y="-206.36" font-family="monospace" font-size="10.00">uses</text>
</g>
<!-- infusion_proc::on_trait&#45;&gt;infusion_proc::sig -->
<g id="edge9" class="edge">
<title>infusion_proc::on_trait&#45;&gt;infusion_proc::sig</title>
<path fill="none" stroke="#7f7f7f" stroke-dasharray="5,2" d="M166.93,-76.5C178.77,-67.02 193.21,-55.45 205.98,-45.23"/>
<polygon fill="#7f7f7f" stroke="#7f7f7f" points="208.47,-47.72 214.08,-38.73 204.09,-42.25 208.47,-47.72"/>
<text text-anchor="middle" x="173.95" y="-63.86" font-family="monospace" font-size="10.00">uses</text>
</g>
<!-- infusion_proc::on_trait&#45;&gt;infusion_proc::utils -->
<g id="edge10" class="edge">
<title>infusion_proc::on_trait&#45;&gt;infusion_proc::utils</title>
<path fill="none" stroke="#7f7f7f" stroke-dasharray="5,2" d="M146.87,-114.76C152.64,-142.53 163.43,-194.4 170.21,-226.99"/>
<polygon fill="#7f7f7f" stroke="#7f7f7f" points="166.79,-227.76 172.26,-236.84 173.65,-226.33 166.79,-227.76"/>
<text text-anchor="middle" x="146.04" y="-173.87" font-family="monospace" font-size="10.00">uses</text>
</g>
</g>
</svg>
