<?xml version="1.0" encoding="UTF-8" standalone="no"?>
<!DOCTYPE svg PUBLIC "-//W3C//DTD SVG 1.1//EN"
 "http://www.w3.org/Graphics/SVG/1.1/DTD/svg11.dtd">
<!-- Generated by graphviz version 4.0.0 (0)
 -->
<!-- Pages: 1 -->
<svg width="720pt" height="636pt"
 viewBox="0.00 0.00 719.60 635.60" xmlns="http://www.w3.org/2000/svg" xmlns:xlink="http://www.w3.org/1999/xlink">
<g id="graph0" class="graph" transform="scale(1 1) rotate(0) translate(28.8 606.8)">
<polygon fill="white" stroke="transparent" points="-28.8,28.8 -28.8,-606.8 690.8,-606.8 690.8,28.8 -28.8,28.8"/>
<text text-anchor="middle" x="331" y="-545.2" font-family="Helvetica,sans-Serif" font-size="36.00">lightning_blockstore_server</text>
<!-- core::mem -->
<g id="node1" class="node">
<title>core::mem</title>
<polygon fill="#81c169" stroke="black" points="89.68,-433.94 89.68,-471.94 178.68,-471.94 178.68,-433.94 89.68,-433.94"/>
<text text-anchor="middle" x="134.18" y="-459.94" font-family="monospace" font-size="10.00">external mod</text>
<polyline fill="none" stroke="black" points="89.68,-452.94 178.68,-452.94 "/>
<text text-anchor="middle" x="134.18" y="-440.94" font-family="monospace" font-size="10.00">core::mem</text>
</g>
<!-- fdi -->
<g id="node2" class="node">
<title>fdi</title>
<polygon fill="#5397c8" stroke="black" points="252.42,-491.5 252.42,-529.5 353.42,-529.5 353.42,-491.5 252.42,-491.5"/>
<text text-anchor="middle" x="302.92" y="-517.5" font-family="monospace" font-size="10.00">external crate</text>
<polyline fill="none" stroke="black" points="252.42,-510.5 353.42,-510.5 "/>
<text text-anchor="middle" x="302.92" y="-498.5" font-family="monospace" font-size="10.00">fdi</text>
</g>
<!-- lightning_blockstore_server -->
<g id="node3" class="node">
<title>lightning_blockstore_server</title>
<polygon fill="#5397c8" stroke="black" points="345.29,-48.63 345.29,-86.63 524.29,-86.63 524.29,-48.63 345.29,-48.63"/>
<text text-anchor="middle" x="434.79" y="-74.63" font-family="monospace" font-size="10.00">crate</text>
<polyline fill="none" stroke="black" points="345.29,-67.63 524.29,-67.63 "/>
<text text-anchor="middle" x="434.79" y="-55.63" font-family="monospace" font-size="10.00">lightning_blockstore_server</text>
</g>
<!-- lightning_blockstore_server::blockstore_server -->
<g id="node4" class="node">
<title>lightning_blockstore_server::blockstore_server</title>
<polygon fill="#f8c04c" stroke="black" points="134.22,-230.73 134.22,-268.73 427.22,-268.73 427.22,-230.73 134.22,-230.73"/>
<text text-anchor="middle" x="280.72" y="-256.73" font-family="monospace" font-size="10.00">pub(crate) mod</text>
<polyline fill="none" stroke="black" points="134.22,-249.73 427.22,-249.73 "/>
<text text-anchor="middle" x="280.72" y="-237.73" font-family="monospace" font-size="10.00">lightning_blockstore_server::blockstore_server</text>
</g>
<!-- lightning_blockstore_server&#45;&gt;lightning_blockstore_server::blockstore_server -->
<g id="edge1" class="edge">
<title>lightning_blockstore_server&#45;&gt;lightning_blockstore_server::blockstore_server</title>
<path fill="none" stroke="#000000" d="M390.58,-86.81C351.22,-119.7 299.55,-183.12 282.88,-221.14"/>
<polygon fill="#000000" stroke="#000000" points="279.54,-220.09 279.29,-230.68 286.09,-222.56 279.54,-220.09"/>
<text text-anchor="middle" x="324.23" y="-156.98" font-family="monospace" font-size="10.00">owns</text>
</g>
<!-- lightning_blockstore_server&#45;&gt;lightning_blockstore_server::blockstore_server -->
<g id="edge2" class="edge">
<title>lightning_blockstore_server&#45;&gt;lightning_blockstore_server::blockstore_server</title>
<path fill="none" stroke="#7f7f7f" stroke-dasharray="5,2" d="M436.15,-86.93C425.69,-120.88 374.31,-186.47 332.64,-223.87"/>
<polygon fill="#7f7f7f" stroke="#7f7f7f" points="330.24,-221.31 324.98,-230.51 334.83,-226.6 330.24,-221.31"/>
<text text-anchor="middle" x="371.89" y="-158.4" font-family="monospace" font-size="10.00">uses</text>
</g>
<!-- lightning_blockstore_server::config -->
<g id="node5" class="node">
<title>lightning_blockstore_server::config</title>
<polygon fill="#f8c04c" stroke="black" points="435.25,-208.19 435.25,-246.19 662.25,-246.19 662.25,-208.19 435.25,-208.19"/>
<text text-anchor="middle" x="548.75" y="-234.19" font-family="monospace" font-size="10.00">pub(crate) mod</text>
<polyline fill="none" stroke="black" points="435.25,-227.19 662.25,-227.19 "/>
<text text-anchor="middle" x="548.75" y="-215.19" font-family="monospace" font-size="10.00">lightning_blockstore_server::config</text>
</g>
<!-- lightning_blockstore_server&#45;&gt;lightning_blockstore_server::config -->
<g id="edge3" class="edge">
<title>lightning_blockstore_server&#45;&gt;lightning_blockstore_server::config</title>
<path fill="none" stroke="#000000" d="M430.74,-86.71C436.04,-115.84 469.54,-168.17 500.49,-200.63"/>
<polygon fill="#000000" stroke="#000000" points="498.33,-203.42 507.87,-208.03 503.28,-198.47 498.33,-203.42"/>
<text text-anchor="middle" x="453.11" y="-146.67" font-family="monospace" font-size="10.00">owns</text>
</g>
<!-- lightning_blockstore_server&#45;&gt;lightning_blockstore_server::config -->
<g id="edge4" class="edge">
<title>lightning_blockstore_server&#45;&gt;lightning_blockstore_server::config</title>
<path fill="none" stroke="#7f7f7f" stroke-dasharray="5,2" d="M475.57,-86.69C505.13,-114.89 539.5,-165.32 550.18,-198.06"/>
<polygon fill="#7f7f7f" stroke="#7f7f7f" points="546.87,-199.23 552.78,-208.02 553.65,-197.46 546.87,-199.23"/>
<text text-anchor="middle" x="500.37" y="-145.38" font-family="monospace" font-size="10.00">uses</text>
</g>
<!-- lightning_blockstore_server::blockstore_server&#45;&gt;core::mem -->
<g id="edge5" class="edge">
<title>lightning_blockstore_server::blockstore_server&#45;&gt;core::mem</title>
<path fill="none" stroke="#7f7f7f" stroke-dasharray="5,2" d="M266.94,-268.85C240.86,-305.01 184.24,-383.53 154.06,-425.38"/>
<polygon fill="#7f7f7f" stroke="#7f7f7f" points="151.05,-423.56 148.04,-433.72 156.73,-427.66 151.05,-423.56"/>
<text text-anchor="middle" x="198" y="-350.11" font-family="monospace" font-size="10.00">uses</text>
</g>
<!-- lightning_blockstore_server::blockstore_server&#45;&gt;fdi -->
<g id="edge6" class="edge">
<title>lightning_blockstore_server::blockstore_server&#45;&gt;fdi</title>
<path fill="none" stroke="#7f7f7f" stroke-dasharray="5,2" d="M282.36,-268.91C286.2,-314.02 295.82,-427.13 300.41,-481.04"/>
<polygon fill="#7f7f7f" stroke="#7f7f7f" points="296.95,-481.63 301.28,-491.29 303.92,-481.03 296.95,-481.63"/>
<text text-anchor="middle" x="278.88" y="-377.97" font-family="monospace" font-size="10.00">uses</text>
</g>
<!-- lightning_blockstore_server::blockstore_server&#45;&gt;lightning_blockstore_server::config -->
<g id="edge7" class="edge">
<title>lightning_blockstore_server::blockstore_server&#45;&gt;lightning_blockstore_server::config</title>
<path fill="none" stroke="#7f7f7f" stroke-dasharray="5,2" d="M427.29,-237.4C427.45,-237.39 427.61,-237.38 427.77,-237.36"/>
<polygon fill="#7f7f7f" stroke="#7f7f7f" points="425.29,-241.08 434.96,-236.76 424.7,-234.11 425.29,-241.08"/>
<text text-anchor="middle" x="421.28" y="-229.38" font-family="monospace" font-size="10.00">uses</text>
</g>
<!-- lightning_schema -->
<g id="node6" class="node">
<title>lightning_schema</title>
<polygon fill="#5397c8" stroke="black" points="60.09,-94.46 60.09,-132.46 173.09,-132.46 173.09,-94.46 60.09,-94.46"/>
<text text-anchor="middle" x="116.59" y="-120.46" font-family="monospace" font-size="10.00">external crate</text>
<polyline fill="none" stroke="black" points="60.09,-113.46 173.09,-113.46 "/>
<text text-anchor="middle" x="116.59" y="-101.46" font-family="monospace" font-size="10.00">lightning_schema</text>
</g>
<!-- lightning_blockstore_server::blockstore_server&#45;&gt;lightning_schema -->
<g id="edge8" class="edge">
<title>lightning_blockstore_server::blockstore_server&#45;&gt;lightning_schema</title>
<path fill="none" stroke="#7f7f7f" stroke-dasharray="5,2" d="M257.56,-230.5C228.72,-206.55 179.37,-165.59 147.38,-139.02"/>
<polygon fill="#7f7f7f" stroke="#7f7f7f" points="149.57,-136.29 139.64,-132.6 145.1,-141.68 149.57,-136.29"/>
<text text-anchor="middle" x="189.97" y="-187.76" font-family="monospace" font-size="10.00">uses</text>
</g>
<!-- lightning_types -->
<g id="node7" class="node">
<title>lightning_types</title>
<polygon fill="#5397c8" stroke="black" points="0.34,-251.96 0.34,-289.96 107.34,-289.96 107.34,-251.96 0.34,-251.96"/>
<text text-anchor="middle" x="53.84" y="-277.96" font-family="monospace" font-size="10.00">external crate</text>
<polyline fill="none" stroke="black" points="0.34,-270.96 107.34,-270.96 "/>
<text text-anchor="middle" x="53.84" y="-258.96" font-family="monospace" font-size="10.00">lightning_types</text>
</g>
<!-- lightning_blockstore_server::blockstore_server&#45;&gt;lightning_types -->
<g id="edge9" class="edge">
<title>lightning_blockstore_server::blockstore_server&#45;&gt;lightning_types</title>
<path fill="none" stroke="#7f7f7f" stroke-dasharray="5,2" d="M134.15,-263.44C128.52,-263.97 123.02,-264.48 117.69,-264.98"/>
<polygon fill="#7f7f7f" stroke="#7f7f7f" points="117.32,-261.5 107.69,-265.92 117.98,-268.47 117.32,-261.5"/>
<text text-anchor="middle" x="119.67" y="-256.21" font-family="monospace" font-size="10.00">uses</text>
</g>
<!-- tokio::sync::broadcast -->
<g id="node8" class="node">
<title>tokio::sync::broadcast</title>
<polygon fill="#81c169" stroke="black" points="417.42,-387.72 417.42,-425.72 566.42,-425.72 566.42,-387.72 417.42,-387.72"/>
<text text-anchor="middle" x="491.92" y="-413.72" font-family="monospace" font-size="10.00">external mod</text>
<polyline fill="none" stroke="black" points="417.42,-406.72 566.42,-406.72 "/>
<text text-anchor="middle" x="491.92" y="-394.72" font-family="monospace" font-size="10.00">tokio::sync::broadcast</text>
</g>
<!-- lightning_blockstore_server::blockstore_server&#45;&gt;tokio::sync::broadcast -->
<g id="edge10" class="edge">
<title>lightning_blockstore_server::blockstore_server&#45;&gt;tokio::sync::broadcast</title>
<path fill="none" stroke="#7f7f7f" stroke-dasharray="5,2" d="M306.62,-268.98C344.72,-297.31 415.93,-350.23 458.11,-381.59"/>
<polygon fill="#7f7f7f" stroke="#7f7f7f" points="456.03,-384.4 466.14,-387.56 460.2,-378.78 456.03,-384.4"/>
<text text-anchor="middle" x="369.86" y="-328.28" font-family="monospace" font-size="10.00">uses</text>
</g>
<!-- tokio::sync::mpsc -->
<g id="node9" class="node">
<title>tokio::sync::mpsc</title>
<polygon fill="#81c169" stroke="black" points="214.88,-0.92 214.88,-38.92 333.88,-38.92 333.88,-0.92 214.88,-0.92"/>
<text text-anchor="middle" x="274.38" y="-26.92" font-family="monospace" font-size="10.00">external mod</text>
<polyline fill="none" stroke="black" points="214.88,-19.92 333.88,-19.92 "/>
<text text-anchor="middle" x="274.38" y="-7.92" font-family="monospace" font-size="10.00">tokio::sync::mpsc</text>
</g>
<!-- lightning_blockstore_server::blockstore_server&#45;&gt;tokio::sync::mpsc -->
<g id="edge11" class="edge">
<title>lightning_blockstore_server::blockstore_server&#45;&gt;tokio::sync::mpsc</title>
<path fill="none" stroke="#7f7f7f" stroke-dasharray="5,2" d="M280.19,-230.53C279.08,-190.32 276.51,-97.01 275.19,-49.24"/>
<polygon fill="#7f7f7f" stroke="#7f7f7f" points="278.69,-49.13 274.91,-39.23 271.69,-49.32 278.69,-49.13"/>
<text text-anchor="middle" x="265.19" y="-142.89" font-family="monospace" font-size="10.00">uses</text>
</g>
</g>
</svg>
