<?xml version="1.0" encoding="UTF-8" standalone="no"?>
<!DOCTYPE svg PUBLIC "-//W3C//DTD SVG 1.1//EN"
 "http://www.w3.org/Graphics/SVG/1.1/DTD/svg11.dtd">
<!-- Generated by graphviz version 4.0.0 (0)
 -->
<!-- Pages: 1 -->
<svg width="1209pt" height="3214pt"
 viewBox="0.00 0.00 1208.60 3213.60" xmlns="http://www.w3.org/2000/svg" xmlns:xlink="http://www.w3.org/1999/xlink">
<g id="graph0" class="graph" transform="scale(1 1) rotate(0) translate(28.8 3184.8)">
<polygon fill="white" stroke="transparent" points="-28.8,28.8 -28.8,-3184.8 1179.8,-3184.8 1179.8,28.8 -28.8,28.8"/>
<text text-anchor="middle" x="575.5" y="-3123.2" font-family="Helvetica,sans-Serif" font-size="36.00">lightning_syncronizer</text>
<!-- lightning_syncronizer -->
<g id="node1" class="node">
<title>lightning_syncronizer</title>
<polygon fill="#5397c8" stroke="black" points="0,-2333.5 0,-2371.5 143,-2371.5 143,-2333.5 0,-2333.5"/>
<text text-anchor="middle" x="71.5" y="-2359.5" font-family="monospace" font-size="10.00">crate</text>
<polyline fill="none" stroke="black" points="0,-2352.5 143,-2352.5 "/>
<text text-anchor="middle" x="71.5" y="-2340.5" font-family="monospace" font-size="10.00">lightning_syncronizer</text>
</g>
<!-- lightning_syncronizer::config -->
<g id="node2" class="node">
<title>lightning_syncronizer::config</title>
<polygon fill="#81c169" stroke="black" points="945,-3069.5 945,-3107.5 1136,-3107.5 1136,-3069.5 945,-3069.5"/>
<text text-anchor="middle" x="1040.5" y="-3095.5" font-family="monospace" font-size="10.00">pub mod</text>
<polyline fill="none" stroke="black" points="945,-3088.5 1136,-3088.5 "/>
<text text-anchor="middle" x="1040.5" y="-3076.5" font-family="monospace" font-size="10.00">lightning_syncronizer::config</text>
</g>
<!-- lightning_syncronizer&#45;&gt;lightning_syncronizer::config -->
<g id="edge1" class="edge">
<title>lightning_syncronizer&#45;&gt;lightning_syncronizer::config</title>
<path fill="none" stroke="#000000" d="M85.91,-2371.73C161.82,-2473.07 512,-2940.5 512,-2940.5 512,-2940.5 815.64,-3025.53 962.61,-3066.69"/>
<polygon fill="#000000" stroke="#000000" points="961.92,-3070.13 972.49,-3069.45 963.8,-3063.39 961.92,-3070.13"/>
<text text-anchor="middle" x="524.5" y="-2943.5" font-family="monospace" font-size="10.00">owns</text>
</g>
<!-- lightning_syncronizer::rpc -->
<g id="node3" class="node">
<title>lightning_syncronizer::rpc</title>
<polygon fill="#81c169" stroke="black" points="954,-2958.5 954,-2996.5 1127,-2996.5 1127,-2958.5 954,-2958.5"/>
<text text-anchor="middle" x="1040.5" y="-2984.5" font-family="monospace" font-size="10.00">pub mod</text>
<polyline fill="none" stroke="black" points="954,-2977.5 1127,-2977.5 "/>
<text text-anchor="middle" x="1040.5" y="-2965.5" font-family="monospace" font-size="10.00">lightning_syncronizer::rpc</text>
</g>
<!-- lightning_syncronizer&#45;&gt;lightning_syncronizer::rpc -->
<g id="edge2" class="edge">
<title>lightning_syncronizer&#45;&gt;lightning_syncronizer::rpc</title>
<path fill="none" stroke="#000000" d="M101.68,-2371.69C204.84,-2437.29 537,-2648.5 537,-2648.5 537,-2648.5 885.4,-2876.16 1002.58,-2952.72"/>
<polygon fill="#000000" stroke="#000000" points="1000.97,-2955.85 1011.25,-2958.39 1004.8,-2949.99 1000.97,-2955.85"/>
<text text-anchor="middle" x="524.5" y="-2640.5" font-family="monospace" font-size="10.00">owns</text>
</g>
<!-- lightning_syncronizer::syncronizer -->
<g id="node4" class="node">
<title>lightning_syncronizer::syncronizer</title>
<polygon fill="#81c169" stroke="black" points="930,-1479.5 930,-1517.5 1151,-1517.5 1151,-1479.5 930,-1479.5"/>
<text text-anchor="middle" x="1040.5" y="-1505.5" font-family="monospace" font-size="10.00">pub mod</text>
<polyline fill="none" stroke="black" points="930,-1498.5 1151,-1498.5 "/>
<text text-anchor="middle" x="1040.5" y="-1486.5" font-family="monospace" font-size="10.00">lightning_syncronizer::syncronizer</text>
</g>
<!-- lightning_syncronizer&#45;&gt;lightning_syncronizer::syncronizer -->
<g id="edge3" class="edge">
<title>lightning_syncronizer&#45;&gt;lightning_syncronizer::syncronizer</title>
<path fill="none" stroke="#000000" d="M87.52,-2333.29C169.38,-2235.17 537,-1794.5 537,-1794.5 537,-1794.5 878.27,-1593.87 998.88,-1522.97"/>
<polygon fill="#000000" stroke="#000000" points="1001.01,-1525.78 1007.85,-1517.69 997.46,-1519.74 1001.01,-1525.78"/>
<text text-anchor="middle" x="524.5" y="-1786.5" font-family="monospace" font-size="10.00">owns</text>
</g>
<!-- lightning_syncronizer::utils -->
<g id="node5" class="node">
<title>lightning_syncronizer::utils</title>
<polygon fill="#f8c04c" stroke="black" points="948,-0.5 948,-38.5 1133,-38.5 1133,-0.5 948,-0.5"/>
<text text-anchor="middle" x="1040.5" y="-26.5" font-family="monospace" font-size="10.00">pub(crate) mod</text>
<polyline fill="none" stroke="black" points="948,-19.5 1133,-19.5 "/>
<text text-anchor="middle" x="1040.5" y="-7.5" font-family="monospace" font-size="10.00">lightning_syncronizer::utils</text>
</g>
<!-- lightning_syncronizer&#45;&gt;lightning_syncronizer::utils -->
<g id="edge4" class="edge">
<title>lightning_syncronizer&#45;&gt;lightning_syncronizer::utils</title>
<path fill="none" stroke="#000000" d="M77.99,-2333.33C134.24,-2167.19 537,-977.5 537,-977.5 537,-977.5 942.33,-206.29 1025.64,-47.77"/>
<polygon fill="#000000" stroke="#000000" points="1028.89,-49.12 1030.44,-38.64 1022.69,-45.86 1028.89,-49.12"/>
<text text-anchor="middle" x="524.5" y="-969.5" font-family="monospace" font-size="10.00">owns</text>
</g>
<!-- lightning_syncronizer::syncronizer&#45;&gt;lightning_syncronizer::config -->
<g id="edge5" class="edge">
<title>lightning_syncronizer::syncronizer&#45;&gt;lightning_syncronizer::config</title>
<path fill="none" stroke="#7f7f7f" stroke-dasharray="5,2" d="M1036.78,-1517.76C1013.34,-1639.17 887,-2293.5 887,-2293.5 887,-2293.5 1007.25,-2916.27 1034.88,-3059.41"/>
<polygon fill="#7f7f7f" stroke="#7f7f7f" points="1031.45,-3060.09 1036.78,-3069.24 1038.32,-3058.76 1031.45,-3060.09"/>
<text text-anchor="middle" x="881.5" y="-2291" font-family="monospace" font-size="10.00">uses</text>
</g>
<!-- lightning_syncronizer::syncronizer&#45;&gt;lightning_syncronizer::rpc -->
<g id="edge6" class="edge">
<title>lightning_syncronizer::syncronizer&#45;&gt;lightning_syncronizer::rpc</title>
</g>
<!-- lightning_syncronizer::syncronizer&#45;&gt;lightning_syncronizer::utils -->
<g id="edge7" class="edge">
<title>lightning_syncronizer::syncronizer&#45;&gt;lightning_syncronizer::utils</title>
</g>
<!-- tokio::sync::oneshot -->
<g id="node6" class="node">
<title>tokio::sync::oneshot</title>
<polygon fill="#81c169" stroke="black" points="3,-2161.5 3,-2199.5 140,-2199.5 140,-2161.5 3,-2161.5"/>
<text text-anchor="middle" x="71.5" y="-2187.5" font-family="monospace" font-size="10.00">external mod</text>
<polyline fill="none" stroke="black" points="3,-2180.5 140,-2180.5 "/>
<text text-anchor="middle" x="71.5" y="-2168.5" font-family="monospace" font-size="10.00">tokio::sync::oneshot</text>
</g>
<!-- lightning_syncronizer::syncronizer&#45;&gt;tokio::sync::oneshot -->
<g id="edge8" class="edge">
<title>lightning_syncronizer::syncronizer&#45;&gt;tokio::sync::oneshot</title>
<path fill="none" stroke="#7f7f7f" stroke-dasharray="5,2" d="M1026.24,-1479.36C944.3,-1369.35 537,-822.5 537,-822.5 537,-822.5 148.68,-1955.34 81.38,-2151.68"/>
<polygon fill="#7f7f7f" stroke="#7f7f7f" points="78.01,-2150.71 78.08,-2161.3 84.63,-2152.98 78.01,-2150.71"/>
<text text-anchor="middle" x="524.5" y="-814.5" font-family="monospace" font-size="10.00">uses</text>
</g>
<!-- lightning_syncronizer::utils&#45;&gt;lightning_syncronizer::rpc -->
<g id="edge9" class="edge">
<title>lightning_syncronizer::utils&#45;&gt;lightning_syncronizer::rpc</title>
<path fill="none" stroke="#7f7f7f" stroke-dasharray="5,2" d="M1039.03,-38.77C1023.32,-244.67 887,-2031.5 887,-2031.5 887,-2031.5 1009.82,-2788.4 1035.73,-2948.13"/>
<polygon fill="#7f7f7f" stroke="#7f7f7f" points="1032.31,-2948.86 1037.36,-2958.17 1039.22,-2947.74 1032.31,-2948.86"/>
<text text-anchor="middle" x="881.5" y="-2029" font-family="monospace" font-size="10.00">uses</text>
</g>
</g>
</svg>
