<?xml version="1.0" encoding="UTF-8" standalone="no"?>
<!DOCTYPE svg PUBLIC "-//W3C//DTD SVG 1.1//EN"
 "http://www.w3.org/Graphics/SVG/1.1/DTD/svg11.dtd">
<!-- Generated by graphviz version 4.0.0 (0)
 -->
<!-- Pages: 1 -->
<svg width="1194pt" height="1106pt"
 viewBox="0.00 0.00 1193.77 1105.98" xmlns="http://www.w3.org/2000/svg" xmlns:xlink="http://www.w3.org/1999/xlink">
<g id="graph0" class="graph" transform="scale(1 1) rotate(0) translate(28.8 1077.18)">
<polygon fill="white" stroke="transparent" points="-28.8,28.8 -28.8,-1077.18 1164.97,-1077.18 1164.97,28.8 -28.8,28.8"/>
<text text-anchor="middle" x="568.09" y="-1015.58" font-family="Helvetica,sans-Serif" font-size="36.00">lightning_keystore</text>
<!-- lightning_keystore -->
<g id="node1" class="node">
<title>lightning_keystore</title>
<polygon fill="#5397c8" stroke="black" points="319.02,-619.85 319.02,-657.85 444.02,-657.85 444.02,-619.85 319.02,-619.85"/>
<text text-anchor="middle" x="381.52" y="-645.85" font-family="monospace" font-size="10.00">crate</text>
<polyline fill="none" stroke="black" points="319.02,-638.85 444.02,-638.85 "/>
<text text-anchor="middle" x="381.52" y="-626.85" font-family="monospace" font-size="10.00">lightning_keystore</text>
</g>
<!-- lightning_keystore::config::KeystoreConfig -->
<g id="node2" class="node">
<title>lightning_keystore::config::KeystoreConfig</title>
<polygon fill="#81c169" stroke="black" points="633.51,-666.75 633.51,-704.75 782.51,-704.75 782.51,-666.75 633.51,-666.75"/>
<text text-anchor="middle" x="708.01" y="-692.75" font-family="monospace" font-size="10.00">pub struct</text>
<polyline fill="none" stroke="black" points="633.51,-685.75 782.51,-685.75 "/>
<text text-anchor="middle" x="708.01" y="-673.75" font-family="monospace" font-size="10.00">config::KeystoreConfig</text>
</g>
<!-- lightning_keystore&#45;&gt;lightning_keystore::config::KeystoreConfig -->
<g id="edge1" class="edge">
<title>lightning_keystore&#45;&gt;lightning_keystore::config::KeystoreConfig</title>
<path fill="none" stroke="#000000" d="M405.22,-657.85C450.36,-676.27 550.5,-693.44 623.3,-697.54"/>
<polygon fill="#000000" stroke="#000000" points="623.23,-701.04 633.39,-698.03 623.57,-694.05 623.23,-701.04"/>
<text text-anchor="middle" x="501.76" y="-680.7" font-family="monospace" font-size="10.00">owns</text>
</g>
<!-- lightning_keystore&#45;&gt;lightning_keystore::config::KeystoreConfig -->
<g id="edge2" class="edge">
<title>lightning_keystore&#45;&gt;lightning_keystore::config::KeystoreConfig</title>
<path fill="none" stroke="#7f7f7f" stroke-dasharray="5,2" d="M444.07,-626.2C512.81,-627.44 620.61,-644.19 674.72,-663.13"/>
<polygon fill="#7f7f7f" stroke="#7f7f7f" points="673.59,-666.44 684.18,-666.69 676.05,-659.89 673.59,-666.44"/>
<text text-anchor="middle" x="546.9" y="-647.67" font-family="monospace" font-size="10.00">uses</text>
</g>
<!-- lightning_keystore::keystore::Keystore -->
<g id="node6" class="node">
<title>lightning_keystore::keystore::Keystore</title>
<polygon fill="#81c169" stroke="black" points="351.23,-286.06 351.23,-324.06 476.23,-324.06 476.23,-286.06 351.23,-286.06"/>
<text text-anchor="middle" x="413.73" y="-312.06" font-family="monospace" font-size="10.00">pub struct</text>
<polyline fill="none" stroke="black" points="351.23,-305.06 476.23,-305.06 "/>
<text text-anchor="middle" x="413.73" y="-293.06" font-family="monospace" font-size="10.00">keystore::Keystore</text>
</g>
<!-- lightning_keystore&#45;&gt;lightning_keystore::keystore::Keystore -->
<g id="edge3" class="edge">
<title>lightning_keystore&#45;&gt;lightning_keystore::keystore::Keystore</title>
<path fill="none" stroke="#000000" d="M397.22,-619.79C419.61,-564.05 435.98,-401.16 426.72,-334.25"/>
<polygon fill="#000000" stroke="#000000" points="430.16,-333.62 425.01,-324.36 423.27,-334.81 430.16,-333.62"/>
<text text-anchor="middle" x="399.47" y="-480.02" font-family="monospace" font-size="10.00">owns</text>
</g>
<!-- lightning_keystore&#45;&gt;lightning_keystore::keystore::Keystore -->
<g id="edge4" class="edge">
<title>lightning_keystore&#45;&gt;lightning_keystore::keystore::Keystore</title>
<path fill="none" stroke="#7f7f7f" stroke-dasharray="5,2" d="M370.26,-619.65C358.15,-563.62 372.82,-400.26 394.56,-333.73"/>
<polygon fill="#7f7f7f" stroke="#7f7f7f" points="397.87,-334.87 397.96,-324.28 391.28,-332.5 397.87,-334.87"/>
<text text-anchor="middle" x="369.91" y="-479.69" font-family="monospace" font-size="10.00">uses</text>
</g>
<!-- lightning_keystore::keystore::save -->
<g id="node14" class="node">
<title>lightning_keystore::keystore::save</title>
<polygon fill="#db5367" stroke="black" points="116.3,-815.58 116.3,-853.58 217.3,-853.58 217.3,-815.58 116.3,-815.58"/>
<text text-anchor="middle" x="166.8" y="-841.58" font-family="monospace" font-size="10.00">pub(self) fn</text>
<polyline fill="none" stroke="black" points="116.3,-834.58 217.3,-834.58 "/>
<text text-anchor="middle" x="166.8" y="-822.58" font-family="monospace" font-size="10.00">keystore::save</text>
</g>
<!-- lightning_keystore&#45;&gt;lightning_keystore::keystore::save -->
<g id="edge5" class="edge">
<title>lightning_keystore&#45;&gt;lightning_keystore::keystore::save</title>
<path fill="none" stroke="#000000" d="M360.54,-657.97C321.82,-693.27 239.07,-768.69 195.31,-808.59"/>
<polygon fill="#000000" stroke="#000000" points="192.89,-806.05 187.86,-815.38 197.61,-811.23 192.89,-806.05"/>
<text text-anchor="middle" x="265.42" y="-736.28" font-family="monospace" font-size="10.00">owns</text>
</g>
<!-- lightning_keystore::config::KeystoreConfig::load_test_keys -->
<g id="node3" class="node">
<title>lightning_keystore::config::KeystoreConfig::load_test_keys</title>
<polygon fill="#81c169" stroke="black" points="891.17,-633.05 891.17,-671.05 1136.17,-671.05 1136.17,-633.05 891.17,-633.05"/>
<text text-anchor="middle" x="1013.67" y="-659.05" font-family="monospace" font-size="10.00">pub fn</text>
<polyline fill="none" stroke="black" points="891.17,-652.05 1136.17,-652.05 "/>
<text text-anchor="middle" x="1013.67" y="-640.05" font-family="monospace" font-size="10.00">config::KeystoreConfig::load_test_keys</text>
</g>
<!-- lightning_keystore::config::KeystoreConfig&#45;&gt;lightning_keystore::config::KeystoreConfig::load_test_keys -->
<g id="edge6" class="edge">
<title>lightning_keystore::config::KeystoreConfig&#45;&gt;lightning_keystore::config::KeystoreConfig::load_test_keys</title>
<path fill="none" stroke="#000000" d="M782.62,-700.98C845.09,-700.35 931.42,-689.16 978.91,-674.31"/>
<polygon fill="#000000" stroke="#000000" points="980.08,-677.61 988.43,-671.09 977.84,-670.98 980.08,-677.61"/>
<text text-anchor="middle" x="868.26" y="-690.65" font-family="monospace" font-size="10.00">owns</text>
</g>
<!-- lightning_keystore::config::KeystoreConfig::test -->
<g id="node4" class="node">
<title>lightning_keystore::config::KeystoreConfig::test</title>
<polygon fill="#81c169" stroke="black" points="569.31,-961.88 569.31,-999.88 754.31,-999.88 754.31,-961.88 569.31,-961.88"/>
<text text-anchor="middle" x="661.81" y="-987.88" font-family="monospace" font-size="10.00">pub fn</text>
<polyline fill="none" stroke="black" points="569.31,-980.88 754.31,-980.88 "/>
<text text-anchor="middle" x="661.81" y="-968.88" font-family="monospace" font-size="10.00">config::KeystoreConfig::test</text>
</g>
<!-- lightning_keystore::config::KeystoreConfig&#45;&gt;lightning_keystore::config::KeystoreConfig::test -->
<g id="edge7" class="edge">
<title>lightning_keystore::config::KeystoreConfig&#45;&gt;lightning_keystore::config::KeystoreConfig::test</title>
<path fill="none" stroke="#000000" d="M689.84,-705.14C666.14,-755.72 644.42,-891.54 649.87,-951.65"/>
<polygon fill="#000000" stroke="#000000" points="646.41,-952.15 651.15,-961.62 653.35,-951.26 646.41,-952.15"/>
<text text-anchor="middle" x="657.36" y="-831.39" font-family="monospace" font-size="10.00">owns</text>
</g>
<!-- lightning_keystore::config::KeystoreConfig::test2 -->
<g id="node5" class="node">
<title>lightning_keystore::config::KeystoreConfig::test2</title>
<polygon fill="#81c169" stroke="black" points="808.04,-868.58 808.04,-906.58 999.04,-906.58 999.04,-868.58 808.04,-868.58"/>
<text text-anchor="middle" x="903.54" y="-894.58" font-family="monospace" font-size="10.00">pub fn</text>
<polyline fill="none" stroke="black" points="808.04,-887.58 999.04,-887.58 "/>
<text text-anchor="middle" x="903.54" y="-875.58" font-family="monospace" font-size="10.00">config::KeystoreConfig::test2</text>
</g>
<!-- lightning_keystore::config::KeystoreConfig&#45;&gt;lightning_keystore::config::KeystoreConfig::test2 -->
<g id="edge8" class="edge">
<title>lightning_keystore::config::KeystoreConfig&#45;&gt;lightning_keystore::config::KeystoreConfig::test2</title>
<path fill="none" stroke="#000000" d="M708.82,-704.9C724.5,-742.63 795.31,-820.27 847.69,-861.91"/>
<polygon fill="#000000" stroke="#000000" points="845.87,-864.93 855.93,-868.27 850.15,-859.39 845.87,-864.93"/>
<text text-anchor="middle" x="765.76" y="-786.41" font-family="monospace" font-size="10.00">owns</text>
</g>
<!-- lightning_keystore::config::KeystoreConfig::load_test_keys&#45;&gt;lightning_keystore::config::KeystoreConfig -->
<g id="edge9" class="edge">
<title>lightning_keystore::config::KeystoreConfig::load_test_keys&#45;&gt;lightning_keystore::config::KeystoreConfig</title>
<path fill="none" stroke="#7f7f7f" stroke-dasharray="5,2" d="M890.85,-638.99C837.44,-643.02 778.95,-652.18 742.85,-663.46"/>
<polygon fill="#7f7f7f" stroke="#7f7f7f" points="741.64,-660.18 733.29,-666.69 743.88,-666.81 741.64,-660.18"/>
<text text-anchor="middle" x="804.35" y="-654.23" font-family="monospace" font-size="10.00">uses</text>
</g>
<!-- lightning_keystore::config::KeystoreConfig::test&#45;&gt;lightning_keystore::config::KeystoreConfig -->
<g id="edge10" class="edge">
<title>lightning_keystore::config::KeystoreConfig::test&#45;&gt;lightning_keystore::config::KeystoreConfig</title>
<path fill="none" stroke="#7f7f7f" stroke-dasharray="5,2" d="M679.98,-961.49C703.69,-910.91 725.41,-775.09 719.96,-714.98"/>
<polygon fill="#7f7f7f" stroke="#7f7f7f" points="723.42,-714.48 718.67,-705 716.48,-715.37 723.42,-714.48"/>
<text text-anchor="middle" x="687.47" y="-841.23" font-family="monospace" font-size="10.00">uses</text>
</g>
<!-- lightning_keystore::config::KeystoreConfig::test2&#45;&gt;lightning_keystore::config::KeystoreConfig -->
<g id="edge11" class="edge">
<title>lightning_keystore::config::KeystoreConfig::test2&#45;&gt;lightning_keystore::config::KeystoreConfig</title>
<path fill="none" stroke="#7f7f7f" stroke-dasharray="5,2" d="M902.73,-868.43C887.05,-830.7 816.24,-753.05 763.86,-711.42"/>
<polygon fill="#7f7f7f" stroke="#7f7f7f" points="765.68,-708.4 755.63,-705.06 761.4,-713.94 765.68,-708.4"/>
<text text-anchor="middle" x="820.8" y="-792.92" font-family="monospace" font-size="10.00">uses</text>
</g>
<!-- lightning_keystore::keystore::Keystore::Config -->
<g id="node7" class="node">
<title>lightning_keystore::keystore::Keystore::Config</title>
<polygon fill="#db5367" stroke="black" points="415.38,-521.39 415.38,-559.39 588.38,-559.39 588.38,-521.39 415.38,-521.39"/>
<text text-anchor="middle" x="501.88" y="-547.39" font-family="monospace" font-size="10.00">pub(self) type</text>
<polyline fill="none" stroke="black" points="415.38,-540.39 588.38,-540.39 "/>
<text text-anchor="middle" x="501.88" y="-528.39" font-family="monospace" font-size="10.00">keystore::Keystore::Config</text>
</g>
<!-- lightning_keystore::keystore::Keystore&#45;&gt;lightning_keystore::keystore::Keystore::Config -->
<g id="edge12" class="edge">
<title>lightning_keystore::keystore::Keystore&#45;&gt;lightning_keystore::keystore::Keystore::Config</title>
<path fill="none" stroke="#000000" d="M420.94,-324.32C436.41,-365.62 472.85,-462.9 491.09,-511.59"/>
<polygon fill="#000000" stroke="#000000" points="487.9,-513.06 494.69,-521.2 494.46,-510.61 487.9,-513.06"/>
<text text-anchor="middle" x="443.51" y="-420.95" font-family="monospace" font-size="10.00">owns</text>
</g>
<!-- lightning_keystore::keystore::Keystore::generate_keys -->
<g id="node8" class="node">
<title>lightning_keystore::keystore::Keystore::generate_keys</title>
<polygon fill="#db5367" stroke="black" points="630.77,-341.73 630.77,-379.73 845.77,-379.73 845.77,-341.73 630.77,-341.73"/>
<text text-anchor="middle" x="738.27" y="-367.73" font-family="monospace" font-size="10.00">pub(self) fn</text>
<polyline fill="none" stroke="black" points="630.77,-360.73 845.77,-360.73 "/>
<text text-anchor="middle" x="738.27" y="-348.73" font-family="monospace" font-size="10.00">keystore::Keystore::generate_keys</text>
</g>
<!-- lightning_keystore::keystore::Keystore&#45;&gt;lightning_keystore::keystore::Keystore::generate_keys -->
<g id="edge13" class="edge">
<title>lightning_keystore::keystore::Keystore&#45;&gt;lightning_keystore::keystore::Keystore::generate_keys</title>
<path fill="none" stroke="#000000" d="M476.3,-315.79C517.15,-322.8 571.74,-332.16 620.52,-340.53"/>
<polygon fill="#000000" stroke="#000000" points="620.07,-344 630.52,-342.25 621.25,-337.11 620.07,-344"/>
<text text-anchor="middle" x="535.91" y="-331.16" font-family="monospace" font-size="10.00">owns</text>
</g>
<!-- lightning_keystore::keystore::Keystore::get_bls_pk -->
<g id="node9" class="node">
<title>lightning_keystore::keystore::Keystore::get_bls_pk</title>
<polygon fill="#db5367" stroke="black" points="77.44,-123.06 77.44,-161.06 274.44,-161.06 274.44,-123.06 77.44,-123.06"/>
<text text-anchor="middle" x="175.94" y="-149.06" font-family="monospace" font-size="10.00">pub(self) fn</text>
<polyline fill="none" stroke="black" points="77.44,-142.06 274.44,-142.06 "/>
<text text-anchor="middle" x="175.94" y="-130.06" font-family="monospace" font-size="10.00">keystore::Keystore::get_bls_pk</text>
</g>
<!-- lightning_keystore::keystore::Keystore&#45;&gt;lightning_keystore::keystore::Keystore::get_bls_pk -->
<g id="edge14" class="edge">
<title>lightning_keystore::keystore::Keystore&#45;&gt;lightning_keystore::keystore::Keystore::get_bls_pk</title>
<path fill="none" stroke="#000000" d="M408.57,-285.88C386.68,-254.48 312.81,-199.24 253.85,-166.03"/>
<polygon fill="#000000" stroke="#000000" points="255.35,-162.86 244.9,-161.09 251.97,-168.99 255.35,-162.86"/>
<text text-anchor="middle" x="318.71" y="-228.96" font-family="monospace" font-size="10.00">owns</text>
</g>
<!-- lightning_keystore::keystore::Keystore::get_bls_sk -->
<g id="node10" class="node">
<title>lightning_keystore::keystore::Keystore::get_bls_sk</title>
<polygon fill="#db5367" stroke="black" points="485.69,-21.62 485.69,-59.62 682.69,-59.62 682.69,-21.62 485.69,-21.62"/>
<text text-anchor="middle" x="584.19" y="-47.62" font-family="monospace" font-size="10.00">pub(self) fn</text>
<polyline fill="none" stroke="black" points="485.69,-40.62 682.69,-40.62 "/>
<text text-anchor="middle" x="584.19" y="-28.62" font-family="monospace" font-size="10.00">keystore::Keystore::get_bls_sk</text>
</g>
<!-- lightning_keystore::keystore::Keystore&#45;&gt;lightning_keystore::keystore::Keystore::get_bls_sk -->
<g id="edge15" class="edge">
<title>lightning_keystore::keystore::Keystore&#45;&gt;lightning_keystore::keystore::Keystore::get_bls_sk</title>
<path fill="none" stroke="#000000" d="M447.09,-285.79C492.82,-239.26 565.82,-124.66 583.71,-69.76"/>
<polygon fill="#000000" stroke="#000000" points="587.14,-70.5 586.46,-59.93 580.4,-68.62 587.14,-70.5"/>
<text text-anchor="middle" x="502.9" y="-180.78" font-family="monospace" font-size="10.00">owns</text>
</g>
<!-- lightning_keystore::keystore::Keystore::get_ed25519_pk -->
<g id="node11" class="node">
<title>lightning_keystore::keystore::Keystore::get_ed25519_pk</title>
<polygon fill="#db5367" stroke="black" points="256.66,-0.5 256.66,-38.5 477.66,-38.5 477.66,-0.5 256.66,-0.5"/>
<text text-anchor="middle" x="367.16" y="-26.5" font-family="monospace" font-size="10.00">pub(self) fn</text>
<polyline fill="none" stroke="black" points="256.66,-19.5 477.66,-19.5 "/>
<text text-anchor="middle" x="367.16" y="-7.5" font-family="monospace" font-size="10.00">keystore::Keystore::get_ed25519_pk</text>
</g>
<!-- lightning_keystore::keystore::Keystore&#45;&gt;lightning_keystore::keystore::Keystore::get_ed25519_pk -->
<g id="edge16" class="edge">
<title>lightning_keystore::keystore::Keystore&#45;&gt;lightning_keystore::keystore::Keystore::get_ed25519_pk</title>
<path fill="none" stroke="#000000" d="M424.43,-285.85C432.97,-236.57 412.99,-105.87 389.64,-47.85"/>
<polygon fill="#000000" stroke="#000000" points="392.78,-46.29 385.56,-38.54 386.37,-49.1 392.78,-46.29"/>
<text text-anchor="middle" x="394.54" y="-169.85" font-family="monospace" font-size="10.00">owns</text>
</g>
<!-- lightning_keystore::keystore::Keystore::get_ed25519_sk -->
<g id="node12" class="node">
<title>lightning_keystore::keystore::Keystore::get_ed25519_sk</title>
<polygon fill="#db5367" stroke="black" points="0,-327.85 0,-365.85 221,-365.85 221,-327.85 0,-327.85"/>
<text text-anchor="middle" x="110.5" y="-353.85" font-family="monospace" font-size="10.00">pub(self) fn</text>
<polyline fill="none" stroke="black" points="0,-346.85 221,-346.85 "/>
<text text-anchor="middle" x="110.5" y="-334.85" font-family="monospace" font-size="10.00">keystore::Keystore::get_ed25519_sk</text>
</g>
<!-- lightning_keystore::keystore::Keystore&#45;&gt;lightning_keystore::keystore::Keystore::get_ed25519_sk -->
<g id="edge17" class="edge">
<title>lightning_keystore::keystore::Keystore&#45;&gt;lightning_keystore::keystore::Keystore::get_ed25519_sk</title>
<path fill="none" stroke="#000000" d="M351.18,-291.5C287.99,-292.31 192.85,-306.74 143.22,-324.11"/>
<polygon fill="#000000" stroke="#000000" points="141.74,-320.93 133.63,-327.74 144.22,-327.47 141.74,-320.93"/>
<text text-anchor="middle" x="234.7" y="-310.81" font-family="monospace" font-size="10.00">owns</text>
</g>
<!-- lightning_keystore::keystore::Keystore::init -->
<g id="node13" class="node">
<title>lightning_keystore::keystore::Keystore::init</title>
<polygon fill="#db5367" stroke="black" points="565.63,-414.86 565.63,-452.86 726.63,-452.86 726.63,-414.86 565.63,-414.86"/>
<text text-anchor="middle" x="646.13" y="-440.86" font-family="monospace" font-size="10.00">pub(self) fn</text>
<polyline fill="none" stroke="black" points="565.63,-433.86 726.63,-433.86 "/>
<text text-anchor="middle" x="646.13" y="-421.86" font-family="monospace" font-size="10.00">keystore::Keystore::init</text>
</g>
<!-- lightning_keystore::keystore::Keystore&#45;&gt;lightning_keystore::keystore::Keystore::init -->
<g id="edge18" class="edge">
<title>lightning_keystore::keystore::Keystore&#45;&gt;lightning_keystore::keystore::Keystore::init</title>
<path fill="none" stroke="#000000" d="M420.68,-324.35C442.04,-349.76 502.94,-388.13 556.21,-413.32"/>
<polygon fill="#000000" stroke="#000000" points="554.83,-416.53 565.37,-417.55 557.76,-410.18 554.83,-416.53"/>
<text text-anchor="middle" x="475.95" y="-371.83" font-family="monospace" font-size="10.00">owns</text>
</g>
<!-- lightning_keystore::keystore::Keystore::Config&#45;&gt;lightning_keystore::config::KeystoreConfig -->
<g id="edge19" class="edge">
<title>lightning_keystore::keystore::Keystore::Config&#45;&gt;lightning_keystore::config::KeystoreConfig</title>
<path fill="none" stroke="#7f7f7f" stroke-dasharray="5,2" d="M528.83,-559.4C565.71,-585.4 631.97,-632.13 672.76,-660.89"/>
<polygon fill="#7f7f7f" stroke="#7f7f7f" points="670.87,-663.84 681.06,-666.74 674.9,-658.12 670.87,-663.84"/>
<text text-anchor="middle" x="588.29" y="-613.14" font-family="monospace" font-size="10.00">uses</text>
</g>
<!-- lightning_keystore::keystore::Keystore::generate_keys&#45;&gt;lightning_keystore::config::KeystoreConfig -->
<g id="edge20" class="edge">
<title>lightning_keystore::keystore::Keystore::generate_keys&#45;&gt;lightning_keystore::config::KeystoreConfig</title>
<path fill="none" stroke="#7f7f7f" stroke-dasharray="5,2" d="M736.47,-380.09C731.37,-434.85 716.83,-591.1 710.74,-656.45"/>
<polygon fill="#7f7f7f" stroke="#7f7f7f" points="707.25,-656.21 709.81,-666.49 714.22,-656.86 707.25,-656.21"/>
<text text-anchor="middle" x="711.11" y="-521.27" font-family="monospace" font-size="10.00">uses</text>
</g>
<!-- lightning_keystore::keystore::Keystore::get_bls_pk&#45;&gt;lightning_keystore::keystore::Keystore -->
<g id="edge21" class="edge">
<title>lightning_keystore::keystore::Keystore::get_bls_pk&#45;&gt;lightning_keystore::keystore::Keystore</title>
<path fill="none" stroke="#7f7f7f" stroke-dasharray="5,2" d="M181.1,-161.23C203.76,-193.75 282.15,-251.81 342.02,-284.53"/>
<polygon fill="#7f7f7f" stroke="#7f7f7f" points="340.61,-287.74 351.08,-289.36 343.9,-281.57 340.61,-287.74"/>
<text text-anchor="middle" x="249.06" y="-225.88" font-family="monospace" font-size="10.00">uses</text>
</g>
<!-- lightning_keystore::keystore::Keystore::get_bls_sk&#45;&gt;lightning_keystore::keystore::Keystore -->
<g id="edge22" class="edge">
<title>lightning_keystore::keystore::Keystore::get_bls_sk&#45;&gt;lightning_keystore::keystore::Keystore</title>
<path fill="none" stroke="#7f7f7f" stroke-dasharray="5,2" d="M550.82,-59.89C505.09,-106.42 432.1,-221.02 414.2,-275.92"/>
<polygon fill="#7f7f7f" stroke="#7f7f7f" points="410.78,-275.18 411.45,-285.75 417.52,-277.07 410.78,-275.18"/>
<text text-anchor="middle" x="470.01" y="-170.9" font-family="monospace" font-size="10.00">uses</text>
</g>
<!-- lightning_keystore::keystore::Keystore::get_ed25519_pk&#45;&gt;lightning_keystore::keystore::Keystore -->
<g id="edge23" class="edge">
<title>lightning_keystore::keystore::Keystore::get_ed25519_pk&#45;&gt;lightning_keystore::keystore::Keystore</title>
<path fill="none" stroke="#7f7f7f" stroke-dasharray="5,2" d="M356.46,-38.7C347.93,-87.99 367.9,-218.69 391.25,-276.71"/>
<polygon fill="#7f7f7f" stroke="#7f7f7f" points="388.11,-278.27 395.33,-286.02 394.52,-275.46 388.11,-278.27"/>
<text text-anchor="middle" x="361.36" y="-160.71" font-family="monospace" font-size="10.00">uses</text>
</g>
<!-- lightning_keystore::keystore::Keystore::get_ed25519_sk&#45;&gt;lightning_keystore::keystore::Keystore -->
<g id="edge24" class="edge">
<title>lightning_keystore::keystore::Keystore::get_ed25519_sk&#45;&gt;lightning_keystore::keystore::Keystore</title>
<path fill="none" stroke="#7f7f7f" stroke-dasharray="5,2" d="M221.38,-357.76C278.21,-352.71 343.29,-341.06 381.33,-327.68"/>
<polygon fill="#7f7f7f" stroke="#7f7f7f" points="382.75,-330.89 390.85,-324.06 380.26,-324.34 382.75,-330.89"/>
<text text-anchor="middle" x="288.85" y="-345.72" font-family="monospace" font-size="10.00">uses</text>
</g>
<!-- lightning_keystore::keystore::Keystore::init&#45;&gt;lightning_keystore::config::KeystoreConfig -->
<g id="edge25" class="edge">
<title>lightning_keystore::keystore::Keystore::init&#45;&gt;lightning_keystore::config::KeystoreConfig</title>
<path fill="none" stroke="#7f7f7f" stroke-dasharray="5,2" d="M650.89,-453.21C661.69,-497.18 688.14,-604.83 700.9,-656.77"/>
<polygon fill="#7f7f7f" stroke="#7f7f7f" points="697.54,-657.8 703.33,-666.68 704.34,-656.13 697.54,-657.8"/>
<text text-anchor="middle" x="663.39" y="-557.99" font-family="monospace" font-size="10.00">uses</text>
</g>
<!-- lightning_keystore::keystore::Keystore::init&#45;&gt;lightning_keystore::keystore::Keystore -->
<g id="edge26" class="edge">
<title>lightning_keystore::keystore::Keystore::init&#45;&gt;lightning_keystore::keystore::Keystore</title>
<path fill="none" stroke="#7f7f7f" stroke-dasharray="5,2" d="M639.18,-414.57C615.36,-386.23 542.33,-341.75 485.57,-317.44"/>
<polygon fill="#7f7f7f" stroke="#7f7f7f" points="486.83,-314.17 476.25,-313.57 484.15,-320.64 486.83,-314.17"/>
<text text-anchor="middle" x="549.88" y="-369" font-family="monospace" font-size="10.00">uses</text>
</g>
</g>
</svg>
