<?xml version="1.0" encoding="UTF-8" standalone="no"?>
<!DOCTYPE svg PUBLIC "-//W3C//DTD SVG 1.1//EN"
 "http://www.w3.org/Graphics/SVG/1.1/DTD/svg11.dtd">
<!-- Generated by graphviz version 4.0.0 (0)
 -->
<!-- Pages: 1 -->
<svg width="441pt" height="366pt"
 viewBox="0.00 0.00 440.60 365.95" xmlns="http://www.w3.org/2000/svg" xmlns:xlink="http://www.w3.org/1999/xlink">
<g id="graph0" class="graph" transform="scale(1 1) rotate(0) translate(28.8 337.15)">
<polygon fill="white" stroke="transparent" points="-28.8,28.8 -28.8,-337.15 411.8,-337.15 411.8,28.8 -28.8,28.8"/>
<text text-anchor="middle" x="191.5" y="-275.55" font-family="Helvetica,sans-Serif" font-size="36.00">lightning_origin_http</text>
<!-- fdi -->
<g id="node1" class="node">
<title>fdi</title>
<polygon fill="#5397c8" stroke="black" points="28.87,-64.29 28.87,-102.29 129.87,-102.29 129.87,-64.29 28.87,-64.29"/>
<text text-anchor="middle" x="79.37" y="-90.29" font-family="monospace" font-size="10.00">external crate</text>
<polyline fill="none" stroke="black" points="28.87,-83.29 129.87,-83.29 "/>
<text text-anchor="middle" x="79.37" y="-71.29" font-family="monospace" font-size="10.00">fdi</text>
</g>
<!-- lightning_origin_http -->
<g id="node2" class="node">
<title>lightning_origin_http</title>
<polygon fill="#5397c8" stroke="black" points="118.8,-111.3 118.8,-149.3 261.8,-149.3 261.8,-111.3 118.8,-111.3"/>
<text text-anchor="middle" x="190.3" y="-137.3" font-family="monospace" font-size="10.00">crate</text>
<polyline fill="none" stroke="black" points="118.8,-130.3 261.8,-130.3 "/>
<text text-anchor="middle" x="190.3" y="-118.3" font-family="monospace" font-size="10.00">lightning_origin_http</text>
</g>
<!-- lightning_origin_http&#45;&gt;fdi -->
<g id="edge1" class="edge">
<title>lightning_origin_http&#45;&gt;fdi</title>
<path fill="none" stroke="#7f7f7f" stroke-dasharray="5,2" d="M145.18,-111.18C141.44,-109.59 137.63,-107.98 133.83,-106.37"/>
<polygon fill="#7f7f7f" stroke="#7f7f7f" points="135.02,-103.07 124.45,-102.39 132.29,-109.52 135.02,-103.07"/>
<text text-anchor="middle" x="152.01" y="-100.77" font-family="monospace" font-size="10.00">uses</text>
</g>
<!-- lightning_origin_http::config -->
<g id="node3" class="node">
<title>lightning_origin_http::config</title>
<polygon fill="#f8c04c" stroke="black" points="141.88,-0.5 141.88,-38.5 332.88,-38.5 332.88,-0.5 141.88,-0.5"/>
<text text-anchor="middle" x="237.38" y="-26.5" font-family="monospace" font-size="10.00">pub(crate) mod</text>
<polyline fill="none" stroke="black" points="141.88,-19.5 332.88,-19.5 "/>
<text text-anchor="middle" x="237.38" y="-7.5" font-family="monospace" font-size="10.00">lightning_origin_http::config</text>
</g>
<!-- lightning_origin_http&#45;&gt;lightning_origin_http::config -->
<g id="edge2" class="edge">
<title>lightning_origin_http&#45;&gt;lightning_origin_http::config</title>
<path fill="none" stroke="#000000" d="M224.47,-111.13C237,-93.74 246.88,-68.49 248.46,-48.68"/>
<polygon fill="#000000" stroke="#000000" points="251.96,-48.6 248.47,-38.59 244.96,-48.59 251.96,-48.6"/>
<text text-anchor="middle" x="223.96" y="-82.9" font-family="monospace" font-size="10.00">owns</text>
</g>
<!-- lightning_origin_http&#45;&gt;lightning_origin_http::config -->
<g id="edge3" class="edge">
<title>lightning_origin_http&#45;&gt;lightning_origin_http::config</title>
<path fill="none" stroke="#7f7f7f" stroke-dasharray="5,2" d="M179.2,-111.08C177.61,-93.14 185.83,-66.98 197.75,-47"/>
<polygon fill="#7f7f7f" stroke="#7f7f7f" points="200.71,-48.87 203.27,-38.58 194.86,-45.03 200.71,-48.87"/>
<text text-anchor="middle" x="175.97" y="-82.04" font-family="monospace" font-size="10.00">uses</text>
</g>
<!-- lightning_schema -->
<g id="node4" class="node">
<title>lightning_schema</title>
<polygon fill="#5397c8" stroke="black" points="85.77,-221.85 85.77,-259.85 198.77,-259.85 198.77,-221.85 85.77,-221.85"/>
<text text-anchor="middle" x="142.27" y="-247.85" font-family="monospace" font-size="10.00">external crate</text>
<polyline fill="none" stroke="black" points="85.77,-240.85 198.77,-240.85 "/>
<text text-anchor="middle" x="142.27" y="-228.85" font-family="monospace" font-size="10.00">lightning_schema</text>
</g>
<!-- lightning_origin_http&#45;&gt;lightning_schema -->
<g id="edge4" class="edge">
<title>lightning_origin_http&#45;&gt;lightning_schema</title>
<path fill="none" stroke="#7f7f7f" stroke-dasharray="5,2" d="M181.93,-149.55C174.39,-166.91 163.2,-192.66 154.63,-212.39"/>
<polygon fill="#7f7f7f" stroke="#7f7f7f" points="151.31,-211.24 150.54,-221.81 157.73,-214.03 151.31,-211.24"/>
<text text-anchor="middle" x="155.78" y="-183.97" font-family="monospace" font-size="10.00">uses</text>
</g>
<!-- lightning_types -->
<g id="node5" class="node">
<title>lightning_types</title>
<polygon fill="#5397c8" stroke="black" points="247.13,-159.54 247.13,-197.54 354.13,-197.54 354.13,-159.54 247.13,-159.54"/>
<text text-anchor="middle" x="300.63" y="-185.54" font-family="monospace" font-size="10.00">external crate</text>
<polyline fill="none" stroke="black" points="247.13,-178.54 354.13,-178.54 "/>
<text text-anchor="middle" x="300.63" y="-166.54" font-family="monospace" font-size="10.00">lightning_types</text>
</g>
<!-- lightning_origin_http&#45;&gt;lightning_types -->
<g id="edge5" class="edge">
<title>lightning_origin_http&#45;&gt;lightning_types</title>
<path fill="none" stroke="#7f7f7f" stroke-dasharray="5,2" d="M233.9,-149.36C238.41,-151.33 243.02,-153.35 247.62,-155.36"/>
<polygon fill="#7f7f7f" stroke="#7f7f7f" points="246.41,-158.65 256.98,-159.45 249.22,-152.24 246.41,-158.65"/>
<text text-anchor="middle" x="228.26" y="-155.36" font-family="monospace" font-size="10.00">uses</text>
</g>
</g>
</svg>
