<?xml version="1.0" encoding="UTF-8" standalone="no"?>
<!DOCTYPE svg PUBLIC "-//W3C//DTD SVG 1.1//EN"
 "http://www.w3.org/Graphics/SVG/1.1/DTD/svg11.dtd">
<!-- Generated by graphviz version 4.0.0 (0)
 -->
<!-- Pages: 1 -->
<svg width="642pt" height="575pt"
 viewBox="0.00 0.00 641.84 575.23" xmlns="http://www.w3.org/2000/svg" xmlns:xlink="http://www.w3.org/1999/xlink">
<g id="graph0" class="graph" transform="scale(1 1) rotate(0) translate(28.8 546.43)">
<polygon fill="white" stroke="transparent" points="-28.8,28.8 -28.8,-546.43 613.04,-546.43 613.04,28.8 -28.8,28.8"/>
<text text-anchor="middle" x="292.12" y="-484.83" font-family="Helvetica,sans-Serif" font-size="36.00">lightning_syncronizer</text>
<!-- lightning_syncronizer -->
<g id="node1" class="node">
<title>lightning_syncronizer</title>
<polygon fill="#5397c8" stroke="black" points="418,-191.87 418,-229.87 561,-229.87 561,-191.87 418,-191.87"/>
<text text-anchor="middle" x="489.5" y="-217.87" font-family="monospace" font-size="10.00">crate</text>
<polyline fill="none" stroke="black" points="418,-210.87 561,-210.87 "/>
<text text-anchor="middle" x="489.5" y="-198.87" font-family="monospace" font-size="10.00">lightning_syncronizer</text>
</g>
<!-- lightning_syncronizer::config -->
<g id="node2" class="node">
<title>lightning_syncronizer::config</title>
<polygon fill="#81c169" stroke="black" points="393.24,-431.13 393.24,-469.13 584.24,-469.13 584.24,-431.13 393.24,-431.13"/>
<text text-anchor="middle" x="488.74" y="-457.13" font-family="monospace" font-size="10.00">pub mod</text>
<polyline fill="none" stroke="black" points="393.24,-450.13 584.24,-450.13 "/>
<text text-anchor="middle" x="488.74" y="-438.13" font-family="monospace" font-size="10.00">lightning_syncronizer::config</text>
</g>
<!-- lightning_syncronizer&#45;&gt;lightning_syncronizer::config -->
<g id="edge1" class="edge">
<title>lightning_syncronizer&#45;&gt;lightning_syncronizer::config</title>
<path fill="none" stroke="#000000" d="M489.44,-230.05C489.31,-271.78 488.99,-371.09 488.84,-420.77"/>
<polygon fill="#000000" stroke="#000000" points="485.34,-420.86 488.81,-430.87 492.34,-420.88 485.34,-420.86"/>
<text text-anchor="middle" x="476.64" y="-328.41" font-family="monospace" font-size="10.00">owns</text>
</g>
<!-- lightning_syncronizer::rpc -->
<g id="node3" class="node">
<title>lightning_syncronizer::rpc</title>
<polygon fill="#81c169" stroke="black" points="157.96,-38.09 157.96,-76.09 330.96,-76.09 330.96,-38.09 157.96,-38.09"/>
<text text-anchor="middle" x="244.46" y="-64.09" font-family="monospace" font-size="10.00">pub mod</text>
<polyline fill="none" stroke="black" points="157.96,-57.09 330.96,-57.09 "/>
<text text-anchor="middle" x="244.46" y="-45.09" font-family="monospace" font-size="10.00">lightning_syncronizer::rpc</text>
</g>
<!-- lightning_syncronizer&#45;&gt;lightning_syncronizer::rpc -->
<g id="edge2" class="edge">
<title>lightning_syncronizer&#45;&gt;lightning_syncronizer::rpc</title>
<path fill="none" stroke="#000000" d="M458.96,-191.7C414.64,-163.89 332.46,-112.32 283.7,-81.72"/>
<polygon fill="#000000" stroke="#000000" points="285.33,-78.61 275,-76.26 281.61,-84.54 285.33,-78.61"/>
<text text-anchor="middle" x="358.83" y="-139.71" font-family="monospace" font-size="10.00">owns</text>
</g>
<!-- lightning_syncronizer::syncronizer -->
<g id="node4" class="node">
<title>lightning_syncronizer::syncronizer</title>
<polygon fill="#81c169" stroke="black" points="181.17,-258.46 181.17,-296.46 402.17,-296.46 402.17,-258.46 181.17,-258.46"/>
<text text-anchor="middle" x="291.67" y="-284.46" font-family="monospace" font-size="10.00">pub mod</text>
<polyline fill="none" stroke="black" points="181.17,-277.46 402.17,-277.46 "/>
<text text-anchor="middle" x="291.67" y="-265.46" font-family="monospace" font-size="10.00">lightning_syncronizer::syncronizer</text>
</g>
<!-- lightning_syncronizer&#45;&gt;lightning_syncronizer::syncronizer -->
<g id="edge3" class="edge">
<title>lightning_syncronizer&#45;&gt;lightning_syncronizer::syncronizer</title>
<path fill="none" stroke="#000000" d="M432.81,-229.95C409.42,-237.82 382.16,-247 357.87,-255.18"/>
<polygon fill="#000000" stroke="#000000" points="356.73,-251.87 348.37,-258.38 358.96,-258.5 356.73,-251.87"/>
<text text-anchor="middle" x="382.84" y="-245.57" font-family="monospace" font-size="10.00">owns</text>
</g>
<!-- lightning_syncronizer::utils -->
<g id="node5" class="node">
<title>lightning_syncronizer::utils</title>
<polygon fill="#f8c04c" stroke="black" points="338.98,-0.5 338.98,-38.5 523.98,-38.5 523.98,-0.5 338.98,-0.5"/>
<text text-anchor="middle" x="431.48" y="-26.5" font-family="monospace" font-size="10.00">pub(crate) mod</text>
<polyline fill="none" stroke="black" points="338.98,-19.5 523.98,-19.5 "/>
<text text-anchor="middle" x="431.48" y="-7.5" font-family="monospace" font-size="10.00">lightning_syncronizer::utils</text>
</g>
<!-- lightning_syncronizer&#45;&gt;lightning_syncronizer::utils -->
<g id="edge4" class="edge">
<title>lightning_syncronizer&#45;&gt;lightning_syncronizer::utils</title>
<path fill="none" stroke="#000000" d="M483.73,-191.82C473.52,-158.16 452.25,-88 440.23,-48.37"/>
<polygon fill="#000000" stroke="#000000" points="443.57,-47.31 437.32,-38.76 436.87,-49.34 443.57,-47.31"/>
<text text-anchor="middle" x="449.48" y="-123.09" font-family="monospace" font-size="10.00">owns</text>
</g>
<!-- lightning_syncronizer::syncronizer&#45;&gt;lightning_syncronizer::config -->
<g id="edge5" class="edge">
<title>lightning_syncronizer::syncronizer&#45;&gt;lightning_syncronizer::config</title>
<path fill="none" stroke="#7f7f7f" stroke-dasharray="5,2" d="M313.51,-296.6C349.03,-327.72 419.33,-389.31 459.24,-424.29"/>
<polygon fill="#7f7f7f" stroke="#7f7f7f" points="456.98,-426.95 466.8,-430.91 461.59,-421.69 456.98,-426.95"/>
<text text-anchor="middle" x="373.88" y="-363.44" font-family="monospace" font-size="10.00">uses</text>
</g>
<!-- lightning_syncronizer::syncronizer&#45;&gt;lightning_syncronizer::rpc -->
<g id="edge6" class="edge">
<title>lightning_syncronizer::syncronizer&#45;&gt;lightning_syncronizer::rpc</title>
<path fill="none" stroke="#7f7f7f" stroke-dasharray="5,2" d="M287.56,-258.29C279.28,-219.63 260.53,-132.09 250.71,-86.28"/>
<polygon fill="#7f7f7f" stroke="#7f7f7f" points="254.11,-85.42 248.59,-76.37 247.26,-86.89 254.11,-85.42"/>
<text text-anchor="middle" x="256.64" y="-175.29" font-family="monospace" font-size="10.00">uses</text>
</g>
<!-- lightning_syncronizer::syncronizer&#45;&gt;lightning_syncronizer::utils -->
<g id="edge7" class="edge">
<title>lightning_syncronizer::syncronizer&#45;&gt;lightning_syncronizer::utils</title>
<path fill="none" stroke="#7f7f7f" stroke-dasharray="5,2" d="M302.18,-258.07C326.68,-212.87 387.68,-100.31 416.26,-47.58"/>
<polygon fill="#7f7f7f" stroke="#7f7f7f" points="419.35,-49.22 421.04,-38.76 413.2,-45.89 419.35,-49.22"/>
<text text-anchor="middle" x="346.72" y="-155.83" font-family="monospace" font-size="10.00">uses</text>
</g>
<!-- tokio::sync::oneshot -->
<g id="node6" class="node">
<title>tokio::sync::oneshot</title>
<polygon fill="#81c169" stroke="black" points="0,-389.14 0,-427.14 137,-427.14 137,-389.14 0,-389.14"/>
<text text-anchor="middle" x="68.5" y="-415.14" font-family="monospace" font-size="10.00">external mod</text>
<polyline fill="none" stroke="black" points="0,-408.14 137,-408.14 "/>
<text text-anchor="middle" x="68.5" y="-396.14" font-family="monospace" font-size="10.00">tokio::sync::oneshot</text>
</g>
<!-- lightning_syncronizer::syncronizer&#45;&gt;tokio::sync::oneshot -->
<g id="edge8" class="edge">
<title>lightning_syncronizer::syncronizer&#45;&gt;tokio::sync::oneshot</title>
<path fill="none" stroke="#7f7f7f" stroke-dasharray="5,2" d="M259.22,-296.47C219.72,-319.6 152.96,-358.69 109.82,-383.95"/>
<polygon fill="#7f7f7f" stroke="#7f7f7f" points="107.85,-381.05 100.99,-389.12 111.39,-387.09 107.85,-381.05"/>
<text text-anchor="middle" x="172.02" y="-343.21" font-family="monospace" font-size="10.00">uses</text>
</g>
<!-- lightning_syncronizer::utils&#45;&gt;lightning_syncronizer::rpc -->
<g id="edge9" class="edge">
<title>lightning_syncronizer::utils&#45;&gt;lightning_syncronizer::rpc</title>
<path fill="none" stroke="#7f7f7f" stroke-dasharray="5,2" d="M338.79,-38.13C338.63,-38.16 338.47,-38.19 338.31,-38.23"/>
<polygon fill="#7f7f7f" stroke="#7f7f7f" points="340.2,-34.28 331.08,-39.68 341.57,-41.14 340.2,-34.28"/>
<text text-anchor="middle" x="351.05" y="-41.18" font-family="monospace" font-size="10.00">uses</text>
</g>
</g>
</svg>
