<?xml version="1.0" encoding="UTF-8" standalone="no"?>
<!DOCTYPE svg PUBLIC "-//W3C//DTD SVG 1.1//EN"
 "http://www.w3.org/Graphics/SVG/1.1/DTD/svg11.dtd">
<!-- Generated by graphviz version 4.0.0 (0)
 -->
<!-- Pages: 1 -->
<svg width="1587pt" height="1746pt"
 viewBox="0.00 0.00 1586.54 1746.41" xmlns="http://www.w3.org/2000/svg" xmlns:xlink="http://www.w3.org/1999/xlink">
<g id="graph0" class="graph" transform="scale(1 1) rotate(0) translate(28.8 1717.61)">
<polygon fill="white" stroke="transparent" points="-28.8,28.8 -28.8,-1717.61 1557.74,-1717.61 1557.74,28.8 -28.8,28.8"/>
<text text-anchor="middle" x="764.47" y="-1656.01" font-family="Helvetica,sans-Serif" font-size="36.00">lightning_node</text>
<!-- lightning_node -->
<g id="node1" class="node">
<title>lightning_node</title>
<polygon fill="#5397c8" stroke="black" points="854.79,-1279.78 854.79,-1317.78 955.79,-1317.78 955.79,-1279.78 854.79,-1279.78"/>
<text text-anchor="middle" x="905.29" y="-1305.78" font-family="monospace" font-size="10.00">crate</text>
<polyline fill="none" stroke="black" points="854.79,-1298.78 955.79,-1298.78 "/>
<text text-anchor="middle" x="905.29" y="-1286.78" font-family="monospace" font-size="10.00">lightning_node</text>
</g>
<!-- lightning_node::FinalTypes -->
<g id="node2" class="node">
<title>lightning_node::FinalTypes</title>
<polygon fill="#81c169" stroke="black" points="498.51,-417.71 498.51,-455.71 575.51,-455.71 575.51,-417.71 498.51,-417.71"/>
<text text-anchor="middle" x="537.01" y="-443.71" font-family="monospace" font-size="10.00">pub struct</text>
<polyline fill="none" stroke="black" points="498.51,-436.71 575.51,-436.71 "/>
<text text-anchor="middle" x="537.01" y="-424.71" font-family="monospace" font-size="10.00">FinalTypes</text>
</g>
<!-- lightning_node&#45;&gt;lightning_node::FinalTypes -->
<g id="edge1" class="edge">
<title>lightning_node&#45;&gt;lightning_node::FinalTypes</title>
<path fill="none" stroke="#000000" d="M897.08,-1279.57C849.24,-1167.59 606.59,-599.59 549.19,-465.23"/>
<polygon fill="#000000" stroke="#000000" points="552.38,-463.79 545.23,-455.97 545.94,-466.54 552.38,-463.79"/>
<text text-anchor="middle" x="710.63" y="-875.4" font-family="monospace" font-size="10.00">owns</text>
</g>
<!-- lightning_node::UseMockConsensusMarker -->
<g id="node27" class="node">
<title>lightning_node::UseMockConsensusMarker</title>
<polygon fill="#81c169" stroke="black" points="962.6,-1573.37 962.6,-1611.37 1111.6,-1611.37 1111.6,-1573.37 962.6,-1573.37"/>
<text text-anchor="middle" x="1037.1" y="-1599.37" font-family="monospace" font-size="10.00">pub struct</text>
<polyline fill="none" stroke="black" points="962.6,-1592.37 1111.6,-1592.37 "/>
<text text-anchor="middle" x="1037.1" y="-1580.37" font-family="monospace" font-size="10.00">UseMockConsensusMarker</text>
</g>
<!-- lightning_node&#45;&gt;lightning_node::UseMockConsensusMarker -->
<g id="edge2" class="edge">
<title>lightning_node&#45;&gt;lightning_node::UseMockConsensusMarker</title>
<path fill="none" stroke="#000000" d="M913.94,-1318.04C936.56,-1368.43 997.58,-1504.36 1024.29,-1563.84"/>
<polygon fill="#000000" stroke="#000000" points="1021.13,-1565.35 1028.42,-1573.04 1027.51,-1562.48 1021.13,-1565.35"/>
<text text-anchor="middle" x="956.61" y="-1443.94" font-family="monospace" font-size="10.00">owns</text>
</g>
<!-- lightning_node::WithMockConsensus -->
<g id="node28" class="node">
<title>lightning_node::WithMockConsensus</title>
<polygon fill="#81c169" stroke="black" points="788.53,-1602.31 788.53,-1640.31 907.53,-1640.31 907.53,-1602.31 788.53,-1602.31"/>
<text text-anchor="middle" x="848.03" y="-1628.31" font-family="monospace" font-size="10.00">pub type</text>
<polyline fill="none" stroke="black" points="788.53,-1621.31 907.53,-1621.31 "/>
<text text-anchor="middle" x="848.03" y="-1609.31" font-family="monospace" font-size="10.00">WithMockConsensus</text>
</g>
<!-- lightning_node&#45;&gt;lightning_node::WithMockConsensus -->
<g id="edge3" class="edge">
<title>lightning_node&#45;&gt;lightning_node::WithMockConsensus</title>
<path fill="none" stroke="#000000" d="M901.88,-1317.99C892.23,-1372.33 864.7,-1527.39 853.19,-1592.24"/>
<polygon fill="#000000" stroke="#000000" points="849.72,-1591.75 851.42,-1602.2 856.61,-1592.97 849.72,-1591.75"/>
<text text-anchor="middle" x="865.03" y="-1458.12" font-family="monospace" font-size="10.00">owns</text>
</g>
<!-- lightning_node::config::TomlConfigProvider -->
<g id="node29" class="node">
<title>lightning_node::config::TomlConfigProvider</title>
<polygon fill="#81c169" stroke="black" points="928.95,-878.37 928.95,-916.37 1101.95,-916.37 1101.95,-878.37 928.95,-878.37"/>
<text text-anchor="middle" x="1015.45" y="-904.37" font-family="monospace" font-size="10.00">pub struct</text>
<polyline fill="none" stroke="black" points="928.95,-897.37 1101.95,-897.37 "/>
<text text-anchor="middle" x="1015.45" y="-885.37" font-family="monospace" font-size="10.00">config::TomlConfigProvider</text>
</g>
<!-- lightning_node&#45;&gt;lightning_node::config::TomlConfigProvider -->
<g id="edge4" class="edge">
<title>lightning_node&#45;&gt;lightning_node::config::TomlConfigProvider</title>
<path fill="none" stroke="#000000" d="M924.4,-1279.58C960.86,-1214.64 1018.82,-1004.31 1022,-926.49"/>
<polygon fill="#000000" stroke="#000000" points="1025.5,-926.45 1022.08,-916.42 1018.5,-926.39 1025.5,-926.45"/>
<text text-anchor="middle" x="960.7" y="-1106.04" font-family="monospace" font-size="10.00">owns</text>
</g>
<!-- lightning_node&#45;&gt;lightning_node::config::TomlConfigProvider -->
<g id="edge5" class="edge">
<title>lightning_node&#45;&gt;lightning_node::config::TomlConfigProvider</title>
<path fill="none" stroke="#7f7f7f" stroke-dasharray="5,2" d="M898.67,-1279.78C896.49,-1214.82 953.22,-1002.87 991.55,-925.66"/>
<polygon fill="#7f7f7f" stroke="#7f7f7f" points="994.81,-926.99 996.37,-916.51 988.61,-923.73 994.81,-926.99"/>
<text text-anchor="middle" x="932.61" y="-1105.72" font-family="monospace" font-size="10.00">uses</text>
</g>
<!-- lightning_node::FinalTypes::ApplicationInterface -->
<g id="node3" class="node">
<title>lightning_node::FinalTypes::ApplicationInterface</title>
<polygon fill="#f8c04c" stroke="black" points="621.7,-1283.91 621.7,-1321.91 830.7,-1321.91 830.7,-1283.91 621.7,-1283.91"/>
<text text-anchor="middle" x="726.2" y="-1309.91" font-family="monospace" font-size="10.00">pub(crate) type</text>
<polyline fill="none" stroke="black" points="621.7,-1302.91 830.7,-1302.91 "/>
<text text-anchor="middle" x="726.2" y="-1290.91" font-family="monospace" font-size="10.00">FinalTypes::ApplicationInterface</text>
</g>
<!-- lightning_node::FinalTypes&#45;&gt;lightning_node::FinalTypes::ApplicationInterface -->
<g id="edge6" class="edge">
<title>lightning_node::FinalTypes&#45;&gt;lightning_node::FinalTypes::ApplicationInterface</title>
<path fill="none" stroke="#000000" d="M541.22,-456.02C565.75,-568.3 689.96,-1136.97 719.77,-1273.44"/>
<polygon fill="#000000" stroke="#000000" points="716.42,-1274.53 721.98,-1283.56 723.26,-1273.04 716.42,-1274.53"/>
<text text-anchor="middle" x="617.99" y="-867.73" font-family="monospace" font-size="10.00">owns</text>
</g>
<!-- lightning_node::FinalTypes::ArchiveInterface -->
<g id="node4" class="node">
<title>lightning_node::FinalTypes::ArchiveInterface</title>
<polygon fill="#f8c04c" stroke="black" points="452.17,-1236.91 452.17,-1274.91 637.17,-1274.91 637.17,-1236.91 452.17,-1236.91"/>
<text text-anchor="middle" x="544.67" y="-1262.91" font-family="monospace" font-size="10.00">pub(crate) type</text>
<polyline fill="none" stroke="black" points="452.17,-1255.91 637.17,-1255.91 "/>
<text text-anchor="middle" x="544.67" y="-1243.91" font-family="monospace" font-size="10.00">FinalTypes::ArchiveInterface</text>
</g>
<!-- lightning_node::FinalTypes&#45;&gt;lightning_node::FinalTypes::ArchiveInterface -->
<g id="edge7" class="edge">
<title>lightning_node::FinalTypes&#45;&gt;lightning_node::FinalTypes::ArchiveInterface</title>
<path fill="none" stroke="#000000" d="M537.18,-455.75C538.19,-563.36 543.16,-1095.06 544.39,-1226.49"/>
<polygon fill="#000000" stroke="#000000" points="540.9,-1226.64 544.49,-1236.61 547.9,-1226.58 540.9,-1226.64"/>
<text text-anchor="middle" x="528.29" y="-844.12" font-family="monospace" font-size="10.00">owns</text>
</g>
<!-- lightning_node::FinalTypes::BlockStoreInterface -->
<g id="node5" class="node">
<title>lightning_node::FinalTypes::BlockStoreInterface</title>
<polygon fill="#f8c04c" stroke="black" points="335.21,-1182.38 335.21,-1220.38 538.21,-1220.38 538.21,-1182.38 335.21,-1182.38"/>
<text text-anchor="middle" x="436.71" y="-1208.38" font-family="monospace" font-size="10.00">pub(crate) type</text>
<polyline fill="none" stroke="black" points="335.21,-1201.38 538.21,-1201.38 "/>
<text text-anchor="middle" x="436.71" y="-1189.38" font-family="monospace" font-size="10.00">FinalTypes::BlockStoreInterface</text>
</g>
<!-- lightning_node::FinalTypes&#45;&gt;lightning_node::FinalTypes::BlockStoreInterface -->
<g id="edge8" class="edge">
<title>lightning_node::FinalTypes&#45;&gt;lightning_node::FinalTypes::BlockStoreInterface</title>
<path fill="none" stroke="#000000" d="M534.48,-455.99C520.93,-559.3 456.93,-1047.2 440.54,-1172.17"/>
<polygon fill="#000000" stroke="#000000" points="437.06,-1171.78 439.23,-1182.15 444,-1172.69 437.06,-1171.78"/>
<text text-anchor="middle" x="475.01" y="-817.08" font-family="monospace" font-size="10.00">owns</text>
</g>
<!-- lightning_node::FinalTypes::BlockStoreServerInterface -->
<g id="node6" class="node">
<title>lightning_node::FinalTypes::BlockStoreServerInterface</title>
<polygon fill="#f8c04c" stroke="black" points="225.98,-1105.15 225.98,-1143.15 464.98,-1143.15 464.98,-1105.15 225.98,-1105.15"/>
<text text-anchor="middle" x="345.48" y="-1131.15" font-family="monospace" font-size="10.00">pub(crate) type</text>
<polyline fill="none" stroke="black" points="225.98,-1124.15 464.98,-1124.15 "/>
<text text-anchor="middle" x="345.48" y="-1112.15" font-family="monospace" font-size="10.00">FinalTypes::BlockStoreServerInterface</text>
</g>
<!-- lightning_node::FinalTypes&#45;&gt;lightning_node::FinalTypes::BlockStoreServerInterface -->
<g id="edge9" class="edge">
<title>lightning_node::FinalTypes&#45;&gt;lightning_node::FinalTypes::BlockStoreServerInterface</title>
<path fill="none" stroke="#000000" d="M531.68,-455.81C505,-551.6 385.77,-979.54 353.54,-1095.24"/>
<polygon fill="#000000" stroke="#000000" points="350.09,-1094.57 350.78,-1105.14 356.84,-1096.45 350.09,-1094.57"/>
<text text-anchor="middle" x="430.11" y="-778.53" font-family="monospace" font-size="10.00">owns</text>
</g>
<!-- lightning_node::FinalTypes::BroadcastInterface -->
<g id="node7" class="node">
<title>lightning_node::FinalTypes::BroadcastInterface</title>
<polygon fill="#f8c04c" stroke="black" points="164.69,-1009.11 164.69,-1047.11 361.69,-1047.11 361.69,-1009.11 164.69,-1009.11"/>
<text text-anchor="middle" x="263.19" y="-1035.11" font-family="monospace" font-size="10.00">pub(crate) type</text>
<polyline fill="none" stroke="black" points="164.69,-1028.11 361.69,-1028.11 "/>
<text text-anchor="middle" x="263.19" y="-1016.11" font-family="monospace" font-size="10.00">FinalTypes::BroadcastInterface</text>
</g>
<!-- lightning_node::FinalTypes&#45;&gt;lightning_node::FinalTypes::BroadcastInterface -->
<g id="edge10" class="edge">
<title>lightning_node::FinalTypes&#45;&gt;lightning_node::FinalTypes::BroadcastInterface</title>
<path fill="none" stroke="#000000" d="M528.21,-455.72C488.3,-541.91 324.22,-896.29 276.36,-999.68"/>
<polygon fill="#000000" stroke="#000000" points="273.12,-998.34 272.09,-1008.88 279.47,-1001.28 273.12,-998.34"/>
<text text-anchor="middle" x="389.78" y="-730.7" font-family="monospace" font-size="10.00">owns</text>
</g>
<!-- lightning_node::FinalTypes::ConfigProviderInterface -->
<g id="node8" class="node">
<title>lightning_node::FinalTypes::ConfigProviderInterface</title>
<polygon fill="#f8c04c" stroke="black" points="680.08,-647.22 680.08,-685.22 907.08,-685.22 907.08,-647.22 680.08,-647.22"/>
<text text-anchor="middle" x="793.58" y="-673.22" font-family="monospace" font-size="10.00">pub(crate) type</text>
<polyline fill="none" stroke="black" points="680.08,-666.22 907.08,-666.22 "/>
<text text-anchor="middle" x="793.58" y="-654.22" font-family="monospace" font-size="10.00">FinalTypes::ConfigProviderInterface</text>
</g>
<!-- lightning_node::FinalTypes&#45;&gt;lightning_node::FinalTypes::ConfigProviderInterface -->
<g id="edge11" class="edge">
<title>lightning_node::FinalTypes&#45;&gt;lightning_node::FinalTypes::ConfigProviderInterface</title>
<path fill="none" stroke="#000000" d="M558.44,-455.88C604.38,-496.98 712.37,-593.57 764.46,-640.17"/>
<polygon fill="#000000" stroke="#000000" points="762.24,-642.88 772.03,-646.94 766.91,-637.66 762.24,-642.88"/>
<text text-anchor="middle" x="648.95" y="-551.03" font-family="monospace" font-size="10.00">owns</text>
</g>
<!-- lightning_node::FinalTypes::ConsensusInterface -->
<g id="node9" class="node">
<title>lightning_node::FinalTypes::ConsensusInterface</title>
<polygon fill="#f8c04c" stroke="black" points="96.81,-898.12 96.81,-936.12 293.81,-936.12 293.81,-898.12 96.81,-898.12"/>
<text text-anchor="middle" x="195.31" y="-924.12" font-family="monospace" font-size="10.00">pub(crate) type</text>
<polyline fill="none" stroke="black" points="96.81,-917.12 293.81,-917.12 "/>
<text text-anchor="middle" x="195.31" y="-905.12" font-family="monospace" font-size="10.00">FinalTypes::ConsensusInterface</text>
</g>
<!-- lightning_node::FinalTypes&#45;&gt;lightning_node::FinalTypes::ConsensusInterface -->
<g id="edge12" class="edge">
<title>lightning_node::FinalTypes&#45;&gt;lightning_node::FinalTypes::ConsensusInterface</title>
<path fill="none" stroke="#000000" d="M523.4,-455.84C470.36,-530.41 277.31,-801.83 214.91,-889.56"/>
<polygon fill="#000000" stroke="#000000" points="211.9,-887.76 208.96,-897.93 217.61,-891.81 211.9,-887.76"/>
<text text-anchor="middle" x="356.66" y="-675.7" font-family="monospace" font-size="10.00">owns</text>
</g>
<!-- lightning_node::FinalTypes::DeliveryAcknowledgmentAggregatorInterface -->
<g id="node10" class="node">
<title>lightning_node::FinalTypes::DeliveryAcknowledgmentAggregatorInterface</title>
<polygon fill="#f8c04c" stroke="black" points="0,-775.23 0,-813.23 335,-813.23 335,-775.23 0,-775.23"/>
<text text-anchor="middle" x="167.5" y="-801.23" font-family="monospace" font-size="10.00">pub(crate) type</text>
<polyline fill="none" stroke="black" points="0,-794.23 335,-794.23 "/>
<text text-anchor="middle" x="167.5" y="-782.23" font-family="monospace" font-size="10.00">FinalTypes::DeliveryAcknowledgmentAggregatorInterface</text>
</g>
<!-- lightning_node::FinalTypes&#45;&gt;lightning_node::FinalTypes::DeliveryAcknowledgmentAggregatorInterface -->
<g id="edge13" class="edge">
<title>lightning_node::FinalTypes&#45;&gt;lightning_node::FinalTypes::DeliveryAcknowledgmentAggregatorInterface</title>
<path fill="none" stroke="#000000" d="M517.14,-455.93C455.24,-515.83 265.74,-699.18 194.74,-767.87"/>
<polygon fill="#000000" stroke="#000000" points="192.22,-765.45 187.46,-774.91 197.08,-770.48 192.22,-765.45"/>
<text text-anchor="middle" x="343.44" y="-614.9" font-family="monospace" font-size="10.00">owns</text>
</g>
<!-- lightning_node::FinalTypes::FetcherInterface -->
<g id="node11" class="node">
<title>lightning_node::FinalTypes::FetcherInterface</title>
<polygon fill="#f8c04c" stroke="black" points="60.69,-647.09 60.69,-685.09 245.69,-685.09 245.69,-647.09 60.69,-647.09"/>
<text text-anchor="middle" x="153.19" y="-673.09" font-family="monospace" font-size="10.00">pub(crate) type</text>
<polyline fill="none" stroke="black" points="60.69,-666.09 245.69,-666.09 "/>
<text text-anchor="middle" x="153.19" y="-654.09" font-family="monospace" font-size="10.00">FinalTypes::FetcherInterface</text>
</g>
<!-- lightning_node::FinalTypes&#45;&gt;lightning_node::FinalTypes::FetcherInterface -->
<g id="edge14" class="edge">
<title>lightning_node::FinalTypes&#45;&gt;lightning_node::FinalTypes::FetcherInterface</title>
<path fill="none" stroke="#000000" d="M504.94,-455.87C435.43,-497.41 270.94,-595.71 194.08,-641.64"/>
<polygon fill="#000000" stroke="#000000" points="191.95,-638.84 185.16,-646.98 195.54,-644.85 191.95,-638.84"/>
<text text-anchor="middle" x="337.01" y="-551.76" font-family="monospace" font-size="10.00">owns</text>
</g>
<!-- lightning_node::FinalTypes::ForwarderInterface -->
<g id="node12" class="node">
<title>lightning_node::FinalTypes::ForwarderInterface</title>
<polygon fill="#f8c04c" stroke="black" points="66.63,-518.94 66.63,-556.94 263.63,-556.94 263.63,-518.94 66.63,-518.94"/>
<text text-anchor="middle" x="165.13" y="-544.94" font-family="monospace" font-size="10.00">pub(crate) type</text>
<polyline fill="none" stroke="black" points="66.63,-537.94 263.63,-537.94 "/>
<text text-anchor="middle" x="165.13" y="-525.94" font-family="monospace" font-size="10.00">FinalTypes::ForwarderInterface</text>
</g>
<!-- lightning_node::FinalTypes&#45;&gt;lightning_node::FinalTypes::ForwarderInterface -->
<g id="edge15" class="edge">
<title>lightning_node::FinalTypes&#45;&gt;lightning_node::FinalTypes::ForwarderInterface</title>
<path fill="none" stroke="#000000" d="M498.26,-447.26C438.59,-463.5 322.92,-494.98 244.85,-516.24"/>
<polygon fill="#000000" stroke="#000000" points="243.78,-512.9 235.05,-518.91 245.61,-519.66 243.78,-512.9"/>
<text text-anchor="middle" x="359.05" y="-484.75" font-family="monospace" font-size="10.00">owns</text>
</g>
<!-- lightning_node::FinalTypes::HandshakeInterface -->
<g id="node13" class="node">
<title>lightning_node::FinalTypes::HandshakeInterface</title>
<polygon fill="#f8c04c" stroke="black" points="93.58,-396.04 93.58,-434.04 290.58,-434.04 290.58,-396.04 93.58,-396.04"/>
<text text-anchor="middle" x="192.08" y="-422.04" font-family="monospace" font-size="10.00">pub(crate) type</text>
<polyline fill="none" stroke="black" points="93.58,-415.04 290.58,-415.04 "/>
<text text-anchor="middle" x="192.08" y="-403.04" font-family="monospace" font-size="10.00">FinalTypes::HandshakeInterface</text>
</g>
<!-- lightning_node::FinalTypes&#45;&gt;lightning_node::FinalTypes::HandshakeInterface -->
<g id="edge16" class="edge">
<title>lightning_node::FinalTypes&#45;&gt;lightning_node::FinalTypes::HandshakeInterface</title>
<path fill="none" stroke="#000000" d="M498.44,-434.29C451.04,-431.31 368.59,-426.13 301.15,-421.89"/>
<polygon fill="#000000" stroke="#000000" points="301.09,-418.38 290.89,-421.25 300.65,-425.37 301.09,-418.38"/>
<text text-anchor="middle" x="387.3" y="-431.09" font-family="monospace" font-size="10.00">owns</text>
</g>
<!-- lightning_node::FinalTypes::IndexerInterface -->
<g id="node14" class="node">
<title>lightning_node::FinalTypes::IndexerInterface</title>
<polygon fill="#f8c04c" stroke="black" points="143.02,-284.86 143.02,-322.86 328.02,-322.86 328.02,-284.86 143.02,-284.86"/>
<text text-anchor="middle" x="235.52" y="-310.86" font-family="monospace" font-size="10.00">pub(crate) type</text>
<polyline fill="none" stroke="black" points="143.02,-303.86 328.02,-303.86 "/>
<text text-anchor="middle" x="235.52" y="-291.86" font-family="monospace" font-size="10.00">FinalTypes::IndexerInterface</text>
</g>
<!-- lightning_node::FinalTypes&#45;&gt;lightning_node::FinalTypes::IndexerInterface -->
<g id="edge17" class="edge">
<title>lightning_node::FinalTypes&#45;&gt;lightning_node::FinalTypes::IndexerInterface</title>
<path fill="none" stroke="#000000" d="M498.21,-419.61C444.77,-396.07 348.33,-353.57 288.35,-327.14"/>
<polygon fill="#000000" stroke="#000000" points="289.61,-323.87 279.04,-323.04 286.78,-330.27 289.61,-323.87"/>
<text text-anchor="middle" x="380.78" y="-376.38" font-family="monospace" font-size="10.00">owns</text>
</g>
<!-- lightning_node::FinalTypes::KeystoreInterface -->
<g id="node15" class="node">
<title>lightning_node::FinalTypes::KeystoreInterface</title>
<polygon fill="#f8c04c" stroke="black" points="207.11,-190.68 207.11,-228.68 398.11,-228.68 398.11,-190.68 207.11,-190.68"/>
<text text-anchor="middle" x="302.61" y="-216.68" font-family="monospace" font-size="10.00">pub(crate) type</text>
<polyline fill="none" stroke="black" points="207.11,-209.68 398.11,-209.68 "/>
<text text-anchor="middle" x="302.61" y="-197.68" font-family="monospace" font-size="10.00">FinalTypes::KeystoreInterface</text>
</g>
<!-- lightning_node::FinalTypes&#45;&gt;lightning_node::FinalTypes::KeystoreInterface -->
<g id="edge18" class="edge">
<title>lightning_node::FinalTypes&#45;&gt;lightning_node::FinalTypes::KeystoreInterface</title>
<path fill="none" stroke="#000000" d="M517.02,-417.35C474.99,-376.64 377.38,-282.1 329.74,-235.96"/>
<polygon fill="#000000" stroke="#000000" points="332.16,-233.43 322.54,-228.99 327.29,-238.46 332.16,-233.43"/>
<text text-anchor="middle" x="410.88" y="-329.66" font-family="monospace" font-size="10.00">owns</text>
</g>
<!-- lightning_node::FinalTypes::NotifierInterface -->
<g id="node16" class="node">
<title>lightning_node::FinalTypes::NotifierInterface</title>
<polygon fill="#f8c04c" stroke="black" points="280.99,-114.46 280.99,-152.46 471.99,-152.46 471.99,-114.46 280.99,-114.46"/>
<text text-anchor="middle" x="376.49" y="-140.46" font-family="monospace" font-size="10.00">pub(crate) type</text>
<polyline fill="none" stroke="black" points="280.99,-133.46 471.99,-133.46 "/>
<text text-anchor="middle" x="376.49" y="-121.46" font-family="monospace" font-size="10.00">FinalTypes::NotifierInterface</text>
</g>
<!-- lightning_node::FinalTypes&#45;&gt;lightning_node::FinalTypes::NotifierInterface -->
<g id="edge19" class="edge">
<title>lightning_node::FinalTypes&#45;&gt;lightning_node::FinalTypes::NotifierInterface</title>
<path fill="none" stroke="#000000" d="M526.72,-417.28C499.2,-365.29 423.78,-222.81 391.48,-161.8"/>
<polygon fill="#000000" stroke="#000000" points="394.46,-159.93 386.69,-152.73 388.27,-163.21 394.46,-159.93"/>
<text text-anchor="middle" x="446.6" y="-292.54" font-family="monospace" font-size="10.00">owns</text>
</g>
<!-- lightning_node::FinalTypes::OriginProviderInterface -->
<g id="node17" class="node">
<title>lightning_node::FinalTypes::OriginProviderInterface</title>
<polygon fill="#f8c04c" stroke="black" points="335.69,-58.92 335.69,-96.92 562.69,-96.92 562.69,-58.92 335.69,-58.92"/>
<text text-anchor="middle" x="449.19" y="-84.92" font-family="monospace" font-size="10.00">pub(crate) type</text>
<polyline fill="none" stroke="black" points="335.69,-77.92 562.69,-77.92 "/>
<text text-anchor="middle" x="449.19" y="-65.92" font-family="monospace" font-size="10.00">FinalTypes::OriginProviderInterface</text>
</g>
<!-- lightning_node::FinalTypes&#45;&gt;lightning_node::FinalTypes::OriginProviderInterface -->
<g id="edge20" class="edge">
<title>lightning_node::FinalTypes&#45;&gt;lightning_node::FinalTypes::OriginProviderInterface</title>
<path fill="none" stroke="#000000" d="M532.28,-417.42C517.78,-358.16 473.81,-178.5 456.4,-107.37"/>
<polygon fill="#000000" stroke="#000000" points="459.71,-106.18 453.94,-97.3 452.91,-107.85 459.71,-106.18"/>
<text text-anchor="middle" x="481.84" y="-265.39" font-family="monospace" font-size="10.00">owns</text>
</g>
<!-- lightning_node::FinalTypes::PingerInterface -->
<g id="node18" class="node">
<title>lightning_node::FinalTypes::PingerInterface</title>
<polygon fill="#f8c04c" stroke="black" points="525.84,-9.83 525.84,-47.83 704.84,-47.83 704.84,-9.83 525.84,-9.83"/>
<text text-anchor="middle" x="615.34" y="-35.83" font-family="monospace" font-size="10.00">pub(crate) type</text>
<polyline fill="none" stroke="black" points="525.84,-28.83 704.84,-28.83 "/>
<text text-anchor="middle" x="615.34" y="-16.83" font-family="monospace" font-size="10.00">FinalTypes::PingerInterface</text>
</g>
<!-- lightning_node::FinalTypes&#45;&gt;lightning_node::FinalTypes::PingerInterface -->
<g id="edge21" class="edge">
<title>lightning_node::FinalTypes&#45;&gt;lightning_node::FinalTypes::PingerInterface</title>
<path fill="none" stroke="#000000" d="M540.68,-417.58C553.24,-352.15 594.58,-136.94 609.71,-58.11"/>
<polygon fill="#000000" stroke="#000000" points="613.22,-58.4 611.67,-47.92 606.35,-57.08 613.22,-58.4"/>
<text text-anchor="middle" x="562.7" y="-240.85" font-family="monospace" font-size="10.00">owns</text>
</g>
<!-- lightning_node::FinalTypes::PoolInterface -->
<g id="node19" class="node">
<title>lightning_node::FinalTypes::PoolInterface</title>
<polygon fill="#f8c04c" stroke="black" points="713.01,-0.5 713.01,-38.5 880.01,-38.5 880.01,-0.5 713.01,-0.5"/>
<text text-anchor="middle" x="796.51" y="-26.5" font-family="monospace" font-size="10.00">pub(crate) type</text>
<polyline fill="none" stroke="black" points="713.01,-19.5 880.01,-19.5 "/>
<text text-anchor="middle" x="796.51" y="-7.5" font-family="monospace" font-size="10.00">FinalTypes::PoolInterface</text>
</g>
<!-- lightning_node::FinalTypes&#45;&gt;lightning_node::FinalTypes::PoolInterface -->
<g id="edge22" class="edge">
<title>lightning_node::FinalTypes&#45;&gt;lightning_node::FinalTypes::PoolInterface</title>
<path fill="none" stroke="#000000" d="M548.83,-417.7C590.37,-350.91 729.78,-126.79 779.07,-47.55"/>
<polygon fill="#000000" stroke="#000000" points="782.31,-48.96 784.62,-38.62 776.36,-45.27 782.31,-48.96"/>
<text text-anchor="middle" x="651.45" y="-235.62" font-family="monospace" font-size="10.00">owns</text>
</g>
<!-- lightning_node::FinalTypes::ReputationAggregatorInterface -->
<g id="node20" class="node">
<title>lightning_node::FinalTypes::ReputationAggregatorInterface</title>
<polygon fill="#f8c04c" stroke="black" points="888.23,-34.58 888.23,-72.58 1151.23,-72.58 1151.23,-34.58 888.23,-34.58"/>
<text text-anchor="middle" x="1019.73" y="-60.58" font-family="monospace" font-size="10.00">pub(crate) type</text>
<polyline fill="none" stroke="black" points="888.23,-53.58 1151.23,-53.58 "/>
<text text-anchor="middle" x="1019.73" y="-41.58" font-family="monospace" font-size="10.00">FinalTypes::ReputationAggregatorInterface</text>
</g>
<!-- lightning_node::FinalTypes&#45;&gt;lightning_node::FinalTypes::ReputationAggregatorInterface -->
<g id="edge23" class="edge">
<title>lightning_node::FinalTypes&#45;&gt;lightning_node::FinalTypes::ReputationAggregatorInterface</title>
<path fill="none" stroke="#000000" d="M561.27,-417.45C641.37,-353.88 897.31,-150.74 987.73,-78.98"/>
<polygon fill="#000000" stroke="#000000" points="990.04,-81.61 995.7,-72.65 985.69,-76.13 990.04,-81.61"/>
<text text-anchor="middle" x="762" y="-251.21" font-family="monospace" font-size="10.00">owns</text>
</g>
<!-- lightning_node::FinalTypes::ResolverInterface -->
<g id="node21" class="node">
<title>lightning_node::FinalTypes::ResolverInterface</title>
<polygon fill="#f8c04c" stroke="black" points="1050.98,-81.6 1050.98,-119.6 1241.98,-119.6 1241.98,-81.6 1050.98,-81.6"/>
<text text-anchor="middle" x="1146.48" y="-107.6" font-family="monospace" font-size="10.00">pub(crate) type</text>
<polyline fill="none" stroke="black" points="1050.98,-100.6 1241.98,-100.6 "/>
<text text-anchor="middle" x="1146.48" y="-88.6" font-family="monospace" font-size="10.00">FinalTypes::ResolverInterface</text>
</g>
<!-- lightning_node::FinalTypes&#45;&gt;lightning_node::FinalTypes::ResolverInterface -->
<g id="edge24" class="edge">
<title>lightning_node::FinalTypes&#45;&gt;lightning_node::FinalTypes::ResolverInterface</title>
<path fill="none" stroke="#000000" d="M571.52,-417.68C675.84,-360.14 987.78,-188.12 1103.05,-124.56"/>
<polygon fill="#000000" stroke="#000000" points="1104.91,-127.53 1111.97,-119.63 1101.53,-121.4 1104.91,-127.53"/>
<text text-anchor="middle" x="824.78" y="-274.12" font-family="monospace" font-size="10.00">owns</text>
</g>
<!-- lightning_node::FinalTypes::RpcInterface -->
<g id="node22" class="node">
<title>lightning_node::FinalTypes::RpcInterface</title>
<polygon fill="#f8c04c" stroke="black" points="1158.54,-148.27 1158.54,-186.27 1319.54,-186.27 1319.54,-148.27 1158.54,-148.27"/>
<text text-anchor="middle" x="1239.04" y="-174.27" font-family="monospace" font-size="10.00">pub(crate) type</text>
<polyline fill="none" stroke="black" points="1158.54,-167.27 1319.54,-167.27 "/>
<text text-anchor="middle" x="1239.04" y="-155.27" font-family="monospace" font-size="10.00">FinalTypes::RpcInterface</text>
</g>
<!-- lightning_node::FinalTypes&#45;&gt;lightning_node::FinalTypes::RpcInterface -->
<g id="edge25" class="edge">
<title>lightning_node::FinalTypes&#45;&gt;lightning_node::FinalTypes::RpcInterface</title>
<path fill="none" stroke="#000000" d="M575.75,-421.84C692.25,-377.13 1039.9,-243.7 1179.78,-190.02"/>
<polygon fill="#000000" stroke="#000000" points="1181.4,-193.14 1189.49,-186.29 1178.9,-186.61 1181.4,-193.14"/>
<text text-anchor="middle" x="865.27" y="-308.93" font-family="monospace" font-size="10.00">owns</text>
</g>
<!-- lightning_node::FinalTypes::ServiceExecutorInterface -->
<g id="node23" class="node">
<title>lightning_node::FinalTypes::ServiceExecutorInterface</title>
<polygon fill="#f8c04c" stroke="black" points="1192.01,-234.49 1192.01,-272.49 1425.01,-272.49 1425.01,-234.49 1192.01,-234.49"/>
<text text-anchor="middle" x="1308.51" y="-260.49" font-family="monospace" font-size="10.00">pub(crate) type</text>
<polyline fill="none" stroke="black" points="1192.01,-253.49 1425.01,-253.49 "/>
<text text-anchor="middle" x="1308.51" y="-241.49" font-family="monospace" font-size="10.00">FinalTypes::ServiceExecutorInterface</text>
</g>
<!-- lightning_node::FinalTypes&#45;&gt;lightning_node::FinalTypes::ServiceExecutorInterface -->
<g id="edge26" class="edge">
<title>lightning_node::FinalTypes&#45;&gt;lightning_node::FinalTypes::ServiceExecutorInterface</title>
<path fill="none" stroke="#000000" d="M575.53,-427.56C693.2,-399.62 1050.15,-314.85 1218.64,-274.83"/>
<polygon fill="#000000" stroke="#000000" points="1219.56,-278.21 1228.48,-272.5 1217.94,-271.4 1219.56,-278.21"/>
<text text-anchor="middle" x="884.58" y="-354.2" font-family="monospace" font-size="10.00">owns</text>
</g>
<!-- lightning_node::FinalTypes::SignerInterface -->
<g id="node24" class="node">
<title>lightning_node::FinalTypes::SignerInterface</title>
<polygon fill="#f8c04c" stroke="black" points="1272.53,-338.31 1272.53,-376.31 1451.53,-376.31 1451.53,-338.31 1272.53,-338.31"/>
<text text-anchor="middle" x="1362.03" y="-364.31" font-family="monospace" font-size="10.00">pub(crate) type</text>
<polyline fill="none" stroke="black" points="1272.53,-357.31 1451.53,-357.31 "/>
<text text-anchor="middle" x="1362.03" y="-345.31" font-family="monospace" font-size="10.00">FinalTypes::SignerInterface</text>
</g>
<!-- lightning_node::FinalTypes&#45;&gt;lightning_node::FinalTypes::SignerInterface -->
<g id="edge27" class="edge">
<title>lightning_node::FinalTypes&#45;&gt;lightning_node::FinalTypes::SignerInterface</title>
<path fill="none" stroke="#000000" d="M575.69,-432.99C698.02,-421.21 1079.16,-384.53 1262.09,-366.93"/>
<polygon fill="#000000" stroke="#000000" points="1262.63,-370.39 1272.25,-365.95 1261.96,-363.42 1262.63,-370.39"/>
<text text-anchor="middle" x="906.39" y="-402.96" font-family="monospace" font-size="10.00">owns</text>
</g>
<!-- lightning_node::FinalTypes::SyncronizerInterface -->
<g id="node25" class="node">
<title>lightning_node::FinalTypes::SyncronizerInterface</title>
<polygon fill="#f8c04c" stroke="black" points="1298.12,-456.43 1298.12,-494.43 1507.12,-494.43 1507.12,-456.43 1298.12,-456.43"/>
<text text-anchor="middle" x="1402.62" y="-482.43" font-family="monospace" font-size="10.00">pub(crate) type</text>
<polyline fill="none" stroke="black" points="1298.12,-475.43 1507.12,-475.43 "/>
<text text-anchor="middle" x="1402.62" y="-463.43" font-family="monospace" font-size="10.00">FinalTypes::SyncronizerInterface</text>
</g>
<!-- lightning_node::FinalTypes&#45;&gt;lightning_node::FinalTypes::SyncronizerInterface -->
<g id="edge28" class="edge">
<title>lightning_node::FinalTypes&#45;&gt;lightning_node::FinalTypes::SyncronizerInterface</title>
<path fill="none" stroke="#000000" d="M575.6,-438.44C699.59,-443.98 1091.14,-461.5 1287.7,-470.29"/>
<polygon fill="#000000" stroke="#000000" points="1287.63,-473.79 1297.77,-470.74 1287.94,-466.8 1287.63,-473.79"/>
<text text-anchor="middle" x="919.15" y="-457.36" font-family="monospace" font-size="10.00">owns</text>
</g>
<!-- lightning_node::FinalTypes::TopologyInterface -->
<g id="node26" class="node">
<title>lightning_node::FinalTypes::TopologyInterface</title>
<polygon fill="#f8c04c" stroke="black" points="1331.81,-582.64 1331.81,-620.64 1522.81,-620.64 1522.81,-582.64 1331.81,-582.64"/>
<text text-anchor="middle" x="1427.31" y="-608.64" font-family="monospace" font-size="10.00">pub(crate) type</text>
<polyline fill="none" stroke="black" points="1331.81,-601.64 1522.81,-601.64 "/>
<text text-anchor="middle" x="1427.31" y="-589.64" font-family="monospace" font-size="10.00">FinalTypes::TopologyInterface</text>
</g>
<!-- lightning_node::FinalTypes&#45;&gt;lightning_node::FinalTypes::TopologyInterface -->
<g id="edge29" class="edge">
<title>lightning_node::FinalTypes&#45;&gt;lightning_node::FinalTypes::TopologyInterface</title>
<path fill="none" stroke="#000000" d="M575.55,-443.85C704.45,-467.73 1123.58,-545.37 1321.71,-582.08"/>
<polygon fill="#000000" stroke="#000000" points="1321.08,-585.52 1331.55,-583.9 1322.36,-578.64 1321.08,-585.52"/>
<text text-anchor="middle" x="936.13" y="-515.96" font-family="monospace" font-size="10.00">owns</text>
</g>
<!-- lightning_node::FinalTypes::ConfigProviderInterface&#45;&gt;lightning_node::config::TomlConfigProvider -->
<g id="edge30" class="edge">
<title>lightning_node::FinalTypes::ConfigProviderInterface&#45;&gt;lightning_node::config::TomlConfigProvider</title>
<path fill="none" stroke="#7f7f7f" stroke-dasharray="5,2" d="M812.12,-685.53C851.78,-726.85 944.92,-823.89 990.05,-870.9"/>
<polygon fill="#7f7f7f" stroke="#7f7f7f" points="987.68,-873.48 997.13,-878.27 992.73,-868.63 987.68,-873.48"/>
<text text-anchor="middle" x="888.59" y="-781.22" font-family="monospace" font-size="10.00">uses</text>
</g>
<!-- lightning_node::config::TomlConfigProvider::get -->
<g id="node30" class="node">
<title>lightning_node::config::TomlConfigProvider::get</title>
<polygon fill="#db5367" stroke="black" points="1325.94,-711.48 1325.94,-749.48 1528.94,-749.48 1528.94,-711.48 1325.94,-711.48"/>
<text text-anchor="middle" x="1427.44" y="-737.48" font-family="monospace" font-size="10.00">pub(self) fn</text>
<polyline fill="none" stroke="black" points="1325.94,-730.48 1528.94,-730.48 "/>
<text text-anchor="middle" x="1427.44" y="-718.48" font-family="monospace" font-size="10.00">config::TomlConfigProvider::get</text>
</g>
<!-- lightning_node::config::TomlConfigProvider&#45;&gt;lightning_node::config::TomlConfigProvider::get -->
<g id="edge31" class="edge">
<title>lightning_node::config::TomlConfigProvider&#45;&gt;lightning_node::config::TomlConfigProvider::get</title>
<path fill="none" stroke="#000000" d="M1102.08,-885.73C1198.27,-856.36 1347.23,-793.45 1404.36,-755.56"/>
<polygon fill="#000000" stroke="#000000" points="1406.54,-758.31 1412.72,-749.7 1402.52,-752.57 1406.54,-758.31"/>
<text text-anchor="middle" x="1240.72" y="-823.65" font-family="monospace" font-size="10.00">owns</text>
</g>
<!-- lightning_node::config::TomlConfigProvider::inject -->
<g id="node31" class="node">
<title>lightning_node::config::TomlConfigProvider::inject</title>
<polygon fill="#81c169" stroke="black" points="1291.3,-837.68 1291.3,-875.68 1512.3,-875.68 1512.3,-837.68 1291.3,-837.68"/>
<text text-anchor="middle" x="1401.8" y="-863.68" font-family="monospace" font-size="10.00">pub fn</text>
<polyline fill="none" stroke="black" points="1291.3,-856.68 1512.3,-856.68 "/>
<text text-anchor="middle" x="1401.8" y="-844.68" font-family="monospace" font-size="10.00">config::TomlConfigProvider::inject</text>
</g>
<!-- lightning_node::config::TomlConfigProvider&#45;&gt;lightning_node::config::TomlConfigProvider::inject -->
<g id="edge32" class="edge">
<title>lightning_node::config::TomlConfigProvider&#45;&gt;lightning_node::config::TomlConfigProvider::inject</title>
<path fill="none" stroke="#000000" d="M1102.15,-911.12C1183.22,-909.66 1300.69,-895.56 1361.68,-878.59"/>
<polygon fill="#000000" stroke="#000000" points="1362.73,-881.93 1371.33,-875.73 1360.74,-875.22 1362.73,-881.93"/>
<text text-anchor="middle" x="1219.41" y="-897.85" font-family="monospace" font-size="10.00">owns</text>
</g>
<!-- lightning_node::config::TomlConfigProvider::into_inner -->
<g id="node32" class="node">
<title>lightning_node::config::TomlConfigProvider::into_inner</title>
<polygon fill="#81c169" stroke="black" points="1228.87,-956.1 1228.87,-994.1 1473.87,-994.1 1473.87,-956.1 1228.87,-956.1"/>
<text text-anchor="middle" x="1351.37" y="-982.1" font-family="monospace" font-size="10.00">pub fn</text>
<polyline fill="none" stroke="black" points="1228.87,-975.1 1473.87,-975.1 "/>
<text text-anchor="middle" x="1351.37" y="-963.1" font-family="monospace" font-size="10.00">config::TomlConfigProvider::into_inner</text>
</g>
<!-- lightning_node::config::TomlConfigProvider&#45;&gt;lightning_node::config::TomlConfigProvider::into_inner -->
<g id="edge33" class="edge">
<title>lightning_node::config::TomlConfigProvider&#45;&gt;lightning_node::config::TomlConfigProvider::into_inner</title>
<path fill="none" stroke="#000000" d="M1034.77,-916.6C1070.35,-935.54 1148.64,-957.72 1218.48,-971.31"/>
<polygon fill="#000000" stroke="#000000" points="1218.24,-974.83 1228.72,-973.25 1219.55,-967.95 1218.24,-974.83"/>
<text text-anchor="middle" x="1114.13" y="-946.96" font-family="monospace" font-size="10.00">owns</text>
</g>
<!-- lightning_node::config::TomlConfigProvider::load_or_write_config -->
<g id="node33" class="node">
<title>lightning_node::config::TomlConfigProvider::load_or_write_config</title>
<polygon fill="#81c169" stroke="black" points="1129.79,-1061.85 1129.79,-1099.85 1434.79,-1099.85 1434.79,-1061.85 1129.79,-1061.85"/>
<text text-anchor="middle" x="1282.29" y="-1087.85" font-family="monospace" font-size="10.00">pub async fn</text>
<polyline fill="none" stroke="black" points="1129.79,-1080.85 1434.79,-1080.85 "/>
<text text-anchor="middle" x="1282.29" y="-1068.85" font-family="monospace" font-size="10.00">config::TomlConfigProvider::load_or_write_config</text>
</g>
<!-- lightning_node::config::TomlConfigProvider&#45;&gt;lightning_node::config::TomlConfigProvider::load_or_write_config -->
<g id="edge34" class="edge">
<title>lightning_node::config::TomlConfigProvider&#45;&gt;lightning_node::config::TomlConfigProvider::load_or_write_config</title>
<path fill="none" stroke="#000000" d="M1043.25,-916.48C1091.81,-949.87 1192.02,-1018.78 1245.98,-1055.89"/>
<polygon fill="#000000" stroke="#000000" points="1244.32,-1059 1254.55,-1061.78 1248.29,-1053.23 1244.32,-1059"/>
<text text-anchor="middle" x="1132.12" y="-989.19" font-family="monospace" font-size="10.00">owns</text>
</g>
<!-- lightning_node::config::TomlConfigProvider::open -->
<g id="node34" class="node">
<title>lightning_node::config::TomlConfigProvider::open</title>
<polygon fill="#db5367" stroke="black" points="1083.97,-1151.22 1083.97,-1189.22 1292.97,-1189.22 1292.97,-1151.22 1083.97,-1151.22"/>
<text text-anchor="middle" x="1188.47" y="-1177.22" font-family="monospace" font-size="10.00">pub(self) fn</text>
<polyline fill="none" stroke="black" points="1083.97,-1170.22 1292.97,-1170.22 "/>
<text text-anchor="middle" x="1188.47" y="-1158.22" font-family="monospace" font-size="10.00">config::TomlConfigProvider::open</text>
</g>
<!-- lightning_node::config::TomlConfigProvider&#45;&gt;lightning_node::config::TomlConfigProvider::open -->
<g id="edge35" class="edge">
<title>lightning_node::config::TomlConfigProvider&#45;&gt;lightning_node::config::TomlConfigProvider::open</title>
<path fill="none" stroke="#000000" d="M1013.19,-916.74C1024,-965.48 1099.33,-1088.55 1148.99,-1143.71"/>
<polygon fill="#000000" stroke="#000000" points="1146.44,-1146.1 1155.82,-1151.03 1151.55,-1141.33 1146.44,-1146.1"/>
<text text-anchor="middle" x="1068.59" y="-1033.22" font-family="monospace" font-size="10.00">owns</text>
</g>
<!-- lightning_node::config::TomlConfigProvider::serialize_config -->
<g id="node35" class="node">
<title>lightning_node::config::TomlConfigProvider::serialize_config</title>
<polygon fill="#db5367" stroke="black" points="938.19,-1220.2 938.19,-1258.2 1219.19,-1258.2 1219.19,-1220.2 938.19,-1220.2"/>
<text text-anchor="middle" x="1078.69" y="-1246.2" font-family="monospace" font-size="10.00">pub(self) fn</text>
<polyline fill="none" stroke="black" points="938.19,-1239.2 1219.19,-1239.2 "/>
<text text-anchor="middle" x="1078.69" y="-1227.2" font-family="monospace" font-size="10.00">config::TomlConfigProvider::serialize_config</text>
</g>
<!-- lightning_node::config::TomlConfigProvider&#45;&gt;lightning_node::config::TomlConfigProvider::serialize_config -->
<g id="edge36" class="edge">
<title>lightning_node::config::TomlConfigProvider&#45;&gt;lightning_node::config::TomlConfigProvider::serialize_config</title>
<path fill="none" stroke="#000000" d="M1006.21,-916.61C998.67,-973.91 1028.66,-1143.02 1056.72,-1210.76"/>
<polygon fill="#000000" stroke="#000000" points="1053.57,-1212.29 1060.85,-1219.99 1059.97,-1209.43 1053.57,-1212.29"/>
<text text-anchor="middle" x="1018.97" y="-1066.68" font-family="monospace" font-size="10.00">owns</text>
</g>
<!-- lightning_node::config::TomlConfigProvider::get&#45;&gt;lightning_node::config::TomlConfigProvider -->
<g id="edge37" class="edge">
<title>lightning_node::config::TomlConfigProvider::get&#45;&gt;lightning_node::config::TomlConfigProvider</title>
<path fill="none" stroke="#7f7f7f" stroke-dasharray="5,2" d="M1325.83,-746.82C1229.54,-777.86 1092.07,-836.61 1038.11,-872.57"/>
<polygon fill="#7f7f7f" stroke="#7f7f7f" points="1036.06,-869.73 1029.9,-878.35 1040.09,-875.45 1036.06,-869.73"/>
<text text-anchor="middle" x="1169.47" y="-812.69" font-family="monospace" font-size="10.00">uses</text>
</g>
<!-- lightning_node::config::TomlConfigProvider::inject&#45;&gt;lightning_node::config::TomlConfigProvider -->
<g id="edge38" class="edge">
<title>lightning_node::config::TomlConfigProvider::inject&#45;&gt;lightning_node::config::TomlConfigProvider</title>
<path fill="none" stroke="#7f7f7f" stroke-dasharray="5,2" d="M1291.1,-843.68C1212.2,-847.09 1110.72,-860.11 1055.53,-875.47"/>
<polygon fill="#7f7f7f" stroke="#7f7f7f" points="1054.37,-872.16 1045.78,-878.36 1056.36,-878.87 1054.37,-872.16"/>
<text text-anchor="middle" x="1160.81" y="-862.57" font-family="monospace" font-size="10.00">uses</text>
</g>
<!-- lightning_node::config::TomlConfigProvider::into_inner&#45;&gt;lightning_node::config::TomlConfigProvider -->
<g id="edge39" class="edge">
<title>lightning_node::config::TomlConfigProvider::into_inner&#45;&gt;lightning_node::config::TomlConfigProvider</title>
<path fill="none" stroke="#7f7f7f" stroke-dasharray="5,2" d="M1332.05,-955.86C1290.19,-933.58 1189.18,-906.8 1112.39,-894.82"/>
<polygon fill="#7f7f7f" stroke="#7f7f7f" points="1112.61,-891.31 1102.2,-893.29 1111.58,-898.23 1112.61,-891.31"/>
<text text-anchor="middle" x="1209.72" y="-928.34" font-family="monospace" font-size="10.00">uses</text>
</g>
<!-- lightning_node::config::TomlConfigProvider::open&#45;&gt;lightning_node::config::TomlConfigProvider -->
<g id="edge40" class="edge">
<title>lightning_node::config::TomlConfigProvider::open&#45;&gt;lightning_node::config::TomlConfigProvider</title>
<path fill="none" stroke="#7f7f7f" stroke-dasharray="5,2" d="M1190.73,-1150.85C1179.93,-1102.11 1104.6,-979.04 1054.94,-923.88"/>
<polygon fill="#7f7f7f" stroke="#7f7f7f" points="1057.49,-921.48 1048.11,-916.56 1052.37,-926.26 1057.49,-921.48"/>
<text text-anchor="middle" x="1110.34" y="-1040.36" font-family="monospace" font-size="10.00">uses</text>
</g>
<!-- lightning_node::config::TomlConfigProvider::serialize_config&#45;&gt;lightning_node::config::TomlConfigProvider -->
<g id="edge41" class="edge">
<title>lightning_node::config::TomlConfigProvider::serialize_config&#45;&gt;lightning_node::config::TomlConfigProvider</title>
<path fill="none" stroke="#7f7f7f" stroke-dasharray="5,2" d="M1087.94,-1219.96C1095.47,-1162.66 1065.49,-993.55 1037.42,-925.81"/>
<polygon fill="#7f7f7f" stroke="#7f7f7f" points="1040.57,-924.28 1033.3,-916.57 1034.18,-927.13 1040.57,-924.28"/>
<text text-anchor="middle" x="1050.18" y="-1075.88" font-family="monospace" font-size="10.00">uses</text>
</g>
</g>
</svg>
