<?xml version="1.0" encoding="UTF-8" standalone="no"?>
<!DOCTYPE svg PUBLIC "-//W3C//DTD SVG 1.1//EN"
 "http://www.w3.org/Graphics/SVG/1.1/DTD/svg11.dtd">
<!-- Generated by graphviz version 4.0.0 (0)
 -->
<!-- Pages: 1 -->
<svg width="350pt" height="239pt"
 viewBox="0.00 0.00 349.60 238.61" xmlns="http://www.w3.org/2000/svg" xmlns:xlink="http://www.w3.org/1999/xlink">
<g id="graph0" class="graph" transform="scale(1 1) rotate(0) translate(28.8 209.81)">
<polygon fill="white" stroke="transparent" points="-28.8,28.8 -28.8,-209.81 320.8,-209.81 320.8,28.8 -28.8,28.8"/>
<text text-anchor="middle" x="146" y="-148.21" font-family="Helvetica,sans-Serif" font-size="36.00">interfaces_proc</text>
<!-- interfaces_proc -->
<g id="node1" class="node">
<title>interfaces_proc</title>
<polygon fill="#5397c8" stroke="black" points="92.5,-47.5 92.5,-85.5 199.5,-85.5 199.5,-47.5 92.5,-47.5"/>
<text text-anchor="middle" x="146" y="-73.5" font-family="monospace" font-size="10.00">crate</text>
<polyline fill="none" stroke="black" points="92.5,-66.5 199.5,-66.5 "/>
<text text-anchor="middle" x="146" y="-54.5" font-family="monospace" font-size="10.00">interfaces_proc</text>
</g>
<!-- interfaces_proc::blank -->
<g id="node2" class="node">
<title>interfaces_proc::blank</title>
<polygon fill="#f8c04c" stroke="black" points="71.5,-94.51 71.5,-132.51 220.5,-132.51 220.5,-94.51 71.5,-94.51"/>
<text text-anchor="middle" x="146" y="-120.51" font-family="monospace" font-size="10.00">pub(crate) mod</text>
<polyline fill="none" stroke="black" points="71.5,-113.51 220.5,-113.51 "/>
<text text-anchor="middle" x="146" y="-101.51" font-family="monospace" font-size="10.00">interfaces_proc::blank</text>
</g>
<!-- interfaces_proc&#45;&gt;interfaces_proc::blank -->
<g id="edge1" class="edge">
<title>interfaces_proc&#45;&gt;interfaces_proc::blank</title>
<path fill="none" stroke="#000000" d="M146,-85.62C146,-85.71 146,-85.8 146,-85.89"/>
<polygon fill="#000000" stroke="#000000" points="142.5,-84.26 146,-94.26 149.5,-84.26 142.5,-84.26"/>
<text text-anchor="middle" x="133.5" y="-88.76" font-family="monospace" font-size="10.00">owns</text>
</g>
<!-- interfaces_proc::partial -->
<g id="node3" class="node">
<title>interfaces_proc::partial</title>
<polygon fill="#f8c04c" stroke="black" points="65.5,-0.5 65.5,-38.5 226.5,-38.5 226.5,-0.5 65.5,-0.5"/>
<text text-anchor="middle" x="146" y="-26.5" font-family="monospace" font-size="10.00">pub(crate) mod</text>
<polyline fill="none" stroke="black" points="65.5,-19.5 226.5,-19.5 "/>
<text text-anchor="middle" x="146" y="-7.5" font-family="monospace" font-size="10.00">interfaces_proc::partial</text>
</g>
<!-- interfaces_proc&#45;&gt;interfaces_proc::partial -->
<g id="edge2" class="edge">
<title>interfaces_proc&#45;&gt;interfaces_proc::partial</title>
<path fill="none" stroke="#000000" d="M172.58,-47.39C172.6,-47.3 172.61,-47.21 172.63,-47.12"/>
<polygon fill="#000000" stroke="#000000" points="176.13,-48.74 172.6,-38.75 169.13,-48.76 176.13,-48.74"/>
<text text-anchor="middle" x="160.1" y="-39.25" font-family="monospace" font-size="10.00">owns</text>
</g>
<!-- interfaces_proc&#45;&gt;interfaces_proc::partial -->
<g id="edge3" class="edge">
<title>interfaces_proc&#45;&gt;interfaces_proc::partial</title>
<path fill="none" stroke="#7f7f7f" stroke-dasharray="5,2" d="M119.42,-47.39C119.4,-47.3 119.39,-47.21 119.37,-47.12"/>
<polygon fill="#7f7f7f" stroke="#7f7f7f" points="122.87,-48.76 119.4,-38.75 115.87,-48.74 122.87,-48.76"/>
<text text-anchor="middle" x="106.9" y="-39.25" font-family="monospace" font-size="10.00">uses</text>
</g>
</g>
</svg>
