<?xml version="1.0" encoding="UTF-8" standalone="no"?>
<!DOCTYPE svg PUBLIC "-//W3C//DTD SVG 1.1//EN"
 "http://www.w3.org/Graphics/SVG/1.1/DTD/svg11.dtd">
<!-- Generated by graphviz version 4.0.0 (0)
 -->
<!-- Pages: 1 -->
<svg width="1089pt" height="745pt"
 viewBox="0.00 0.00 1088.60 745.10" xmlns="http://www.w3.org/2000/svg" xmlns:xlink="http://www.w3.org/1999/xlink">
<g id="graph0" class="graph" transform="scale(1 1) rotate(0) translate(28.8 716.3)">
<polygon fill="white" stroke="transparent" points="-28.8,28.8 -28.8,-716.3 1059.8,-716.3 1059.8,28.8 -28.8,28.8"/>
<text text-anchor="middle" x="515.5" y="-654.7" font-family="Helvetica,sans-Serif" font-size="36.00">mock</text>
<!-- mock -->
<g id="node1" class="node">
<title>mock</title>
<polygon fill="#5397c8" stroke="black" points="47.5,-574 47.5,-612 101.5,-612 101.5,-574 47.5,-574"/>
<text text-anchor="middle" x="74.5" y="-600" font-family="monospace" font-size="10.00">crate</text>
<polyline fill="none" stroke="black" points="47.5,-593 101.5,-593 "/>
<text text-anchor="middle" x="74.5" y="-581" font-family="monospace" font-size="10.00">mock</text>
</g>
<!-- mock::consensus -->
<g id="node2" class="node">
<title>mock::consensus</title>
<polygon fill="#81c169" stroke="black" points="918,-601 918,-639 1025,-639 1025,-601 918,-601"/>
<text text-anchor="middle" x="971.5" y="-627" font-family="monospace" font-size="10.00">pub mod</text>
<polyline fill="none" stroke="black" points="918,-620 1025,-620 "/>
<text text-anchor="middle" x="971.5" y="-608" font-family="monospace" font-size="10.00">mock::consensus</text>
</g>
<!-- mock&#45;&gt;mock::consensus -->
<g id="edge1" class="edge">
<title>mock&#45;&gt;mock::consensus</title>
<path fill="none" stroke="#000000" d="M101.58,-594.65C197.87,-600.51 518,-620 518,-620 518,-620 782.49,-620 907.49,-620"/>
<polygon fill="#000000" stroke="#000000" points="907.7,-623.5 917.7,-620 907.7,-616.5 907.7,-623.5"/>
<text text-anchor="middle" x="530.5" y="-623" font-family="monospace" font-size="10.00">owns</text>
</g>
<!-- mock::syncronizer -->
<g id="node3" class="node">
<title>mock::syncronizer</title>
<polygon fill="#81c169" stroke="black" points="912,-446 912,-484 1031,-484 1031,-446 912,-446"/>
<text text-anchor="middle" x="971.5" y="-472" font-family="monospace" font-size="10.00">pub mod</text>
<polyline fill="none" stroke="black" points="912,-465 1031,-465 "/>
<text text-anchor="middle" x="971.5" y="-453" font-family="monospace" font-size="10.00">mock::syncronizer</text>
</g>
<!-- mock&#45;&gt;mock::syncronizer -->
<g id="edge2" class="edge">
<title>mock&#45;&gt;mock::syncronizer</title>
<path fill="none" stroke="#000000" d="M101.71,-586.2C201.7,-561.23 543,-476 543,-476 543,-476 780.15,-469.91 901.6,-466.79"/>
<polygon fill="#000000" stroke="#000000" points="902.01,-470.29 911.92,-466.53 901.83,-463.29 902.01,-470.29"/>
<text text-anchor="middle" x="530.5" y="-468" font-family="monospace" font-size="10.00">owns</text>
</g>
<!-- tokio::sync::broadcast -->
<g id="node4" class="node">
<title>tokio::sync::broadcast</title>
<polygon fill="#81c169" stroke="black" points="0,-439 0,-477 149,-477 149,-439 0,-439"/>
<text text-anchor="middle" x="74.5" y="-465" font-family="monospace" font-size="10.00">external mod</text>
<polyline fill="none" stroke="black" points="0,-458 149,-458 "/>
<text text-anchor="middle" x="74.5" y="-446" font-family="monospace" font-size="10.00">tokio::sync::broadcast</text>
</g>
<!-- mock::consensus&#45;&gt;tokio::sync::broadcast -->
<g id="edge3" class="edge">
<title>mock::consensus&#45;&gt;tokio::sync::broadcast</title>
<path fill="none" stroke="#7f7f7f" stroke-dasharray="5,2" d="M944.04,-600.84C849.47,-534.85 543,-321 543,-321 543,-321 281.62,-397.43 149.33,-436.12"/>
<polygon fill="#7f7f7f" stroke="#7f7f7f" points="148.26,-432.78 139.64,-438.95 150.22,-439.5 148.26,-432.78"/>
<text text-anchor="middle" x="530.5" y="-313" font-family="monospace" font-size="10.00">uses</text>
</g>
<!-- tokio::sync::mpsc -->
<g id="node5" class="node">
<title>tokio::sync::mpsc</title>
<polygon fill="#81c169" stroke="black" points="15,-280 15,-318 134,-318 134,-280 15,-280"/>
<text text-anchor="middle" x="74.5" y="-306" font-family="monospace" font-size="10.00">external mod</text>
<polyline fill="none" stroke="black" points="15,-299 134,-299 "/>
<text text-anchor="middle" x="74.5" y="-287" font-family="monospace" font-size="10.00">tokio::sync::mpsc</text>
</g>
<!-- mock::consensus&#45;&gt;tokio::sync::mpsc -->
<g id="edge4" class="edge">
<title>mock::consensus&#45;&gt;tokio::sync::mpsc</title>
<path fill="none" stroke="#7f7f7f" stroke-dasharray="5,2" d="M953.36,-600.78C871.8,-514.37 543,-166 543,-166 543,-166 274.77,-242.15 144.23,-279.21"/>
<polygon fill="#7f7f7f" stroke="#7f7f7f" points="142.98,-275.92 134.31,-282.02 144.89,-282.66 142.98,-275.92"/>
<text text-anchor="middle" x="530.5" y="-158" font-family="monospace" font-size="10.00">uses</text>
</g>
<!-- tokio::sync::oneshot -->
<g id="node6" class="node">
<title>tokio::sync::oneshot</title>
<polygon fill="#81c169" stroke="black" points="6,-73 6,-111 143,-111 143,-73 6,-73"/>
<text text-anchor="middle" x="74.5" y="-99" font-family="monospace" font-size="10.00">external mod</text>
<polyline fill="none" stroke="black" points="6,-92 143,-92 "/>
<text text-anchor="middle" x="74.5" y="-80" font-family="monospace" font-size="10.00">tokio::sync::oneshot</text>
</g>
<!-- mock::syncronizer&#45;&gt;tokio::sync::oneshot -->
<g id="edge5" class="edge">
<title>mock::syncronizer&#45;&gt;tokio::sync::oneshot</title>
<path fill="none" stroke="#7f7f7f" stroke-dasharray="5,2" d="M953.36,-445.78C871.8,-359.37 543,-11 543,-11 543,-11 286.78,-55.3 153.3,-78.38"/>
<polygon fill="#7f7f7f" stroke="#7f7f7f" points="152.38,-74.98 143.13,-80.14 153.58,-81.88 152.38,-74.98"/>
<text text-anchor="middle" x="530.5" y="-3" font-family="monospace" font-size="10.00">uses</text>
</g>
</g>
</svg>
