<?xml version="1.0" encoding="UTF-8" standalone="no"?>
<!DOCTYPE svg PUBLIC "-//W3C//DTD SVG 1.1//EN"
 "http://www.w3.org/Graphics/SVG/1.1/DTD/svg11.dtd">
<!-- Generated by graphviz version 4.0.0 (0)
 -->
<!-- Pages: 1 -->
<svg width="1482pt" height="4050pt"
 viewBox="0.00 0.00 1482.04 4050.00" xmlns="http://www.w3.org/2000/svg" xmlns:xlink="http://www.w3.org/1999/xlink">
<g id="graph0" class="graph" transform="scale(0.691056 0.691056) rotate(0) translate(28.8 5831.8)">
<polygon fill="white" stroke="transparent" points="-28.8,28.8 -28.8,-5831.8 2115.8,-5831.8 2115.8,28.8 -28.8,28.8"/>
<text text-anchor="middle" x="1043.5" y="-5770.2" font-family="Helvetica,sans-Serif" font-size="36.00">lightning_resolver</text>
<!-- lightning_resolver -->
<g id="node1" class="node">
<title>lightning_resolver</title>
<polygon fill="#5397c8" stroke="black" points="0,-4135 0,-4173 125,-4173 125,-4135 0,-4135"/>
<text text-anchor="middle" x="62.5" y="-4161" font-family="monospace" font-size="10.00">crate</text>
<polyline fill="none" stroke="black" points="0,-4154 125,-4154 "/>
<text text-anchor="middle" x="62.5" y="-4142" font-family="monospace" font-size="10.00">lightning_resolver</text>
</g>
<!-- lightning_resolver::config::Config -->
<g id="node2" class="node">
<title>lightning_resolver::config::Config</title>
<polygon fill="#81c169" stroke="black" points="927,-5216 927,-5254 1028,-5254 1028,-5216 927,-5216"/>
<text text-anchor="middle" x="977.5" y="-5242" font-family="monospace" font-size="10.00">pub struct</text>
<polyline fill="none" stroke="black" points="927,-5235 1028,-5235 "/>
<text text-anchor="middle" x="977.5" y="-5223" font-family="monospace" font-size="10.00">config::Config</text>
</g>
<!-- lightning_resolver&#45;&gt;lightning_resolver::config::Config -->
<g id="edge1" class="edge">
<title>lightning_resolver&#45;&gt;lightning_resolver::config::Config</title>
<path fill="none" stroke="#000000" d="M70.36,-4173.08C128.84,-4315.12 494,-5202 494,-5202 494,-5202 786.48,-5221.96 916.48,-5230.83"/>
<polygon fill="#000000" stroke="#000000" points="916.46,-5234.34 926.67,-5231.53 916.93,-5227.36 916.46,-5234.34"/>
<text text-anchor="middle" x="506.5" y="-5205" font-family="monospace" font-size="10.00">owns</text>
</g>
<!-- lightning_resolver&#45;&gt;lightning_resolver::config::Config -->
<g id="edge2" class="edge">
<title>lightning_resolver&#45;&gt;lightning_resolver::config::Config</title>
<path fill="none" stroke="#7f7f7f" stroke-dasharray="5,2" d="M72.12,-4173.17C135.78,-4300.06 494,-5014 494,-5014 494,-5014 802.31,-5154.92 926.53,-5211.7"/>
<polygon fill="#7f7f7f" stroke="#7f7f7f" points="925.31,-5214.99 935.86,-5215.97 928.22,-5208.63 925.31,-5214.99"/>
<text text-anchor="middle" x="506.5" y="-5017" font-family="monospace" font-size="10.00">uses</text>
</g>
<!-- lightning_resolver::origin_finder::OriginFinder -->
<g id="node3" class="node">
<title>lightning_resolver::origin_finder::OriginFinder</title>
<polygon fill="#81c169" stroke="black" points="888,-5105 888,-5143 1067,-5143 1067,-5105 888,-5105"/>
<text text-anchor="middle" x="977.5" y="-5131" font-family="monospace" font-size="10.00">pub struct</text>
<polyline fill="none" stroke="black" points="888,-5124 1067,-5124 "/>
<text text-anchor="middle" x="977.5" y="-5112" font-family="monospace" font-size="10.00">origin_finder::OriginFinder</text>
</g>
<!-- lightning_resolver&#45;&gt;lightning_resolver::origin_finder::OriginFinder -->
<g id="edge3" class="edge">
<title>lightning_resolver&#45;&gt;lightning_resolver::origin_finder::OriginFinder</title>
<path fill="none" stroke="#000000" d="M75.41,-4173.15C147.21,-4279.64 494,-4794 494,-4794 494,-4794 828.57,-5022.35 941.08,-5099.14"/>
<polygon fill="#000000" stroke="#000000" points="939.18,-5102.08 949.42,-5104.83 943.13,-5096.3 939.18,-5102.08"/>
<text text-anchor="middle" x="506.5" y="-4797" font-family="monospace" font-size="10.00">owns</text>
</g>
<!-- lightning_resolver&#45;&gt;lightning_resolver::origin_finder::OriginFinder -->
<g id="edge4" class="edge">
<title>lightning_resolver&#45;&gt;lightning_resolver::origin_finder::OriginFinder</title>
<path fill="none" stroke="#7f7f7f" stroke-dasharray="5,2" d="M86.4,-4173.16C180.33,-4248.47 519,-4520 519,-4520 519,-4520 867.43,-4979 956.81,-5096.74"/>
<polygon fill="#7f7f7f" stroke="#7f7f7f" points="954.19,-5099.08 963.02,-5104.93 959.76,-5094.84 954.19,-5099.08"/>
<text text-anchor="middle" x="506.5" y="-4512" font-family="monospace" font-size="10.00">uses</text>
</g>
<!-- lightning_resolver::resolver::Resolver -->
<g id="node7" class="node">
<title>lightning_resolver::resolver::Resolver</title>
<polygon fill="#81c169" stroke="black" points="915,-3555 915,-3593 1040,-3593 1040,-3555 915,-3555"/>
<text text-anchor="middle" x="977.5" y="-3581" font-family="monospace" font-size="10.00">pub struct</text>
<polyline fill="none" stroke="black" points="915,-3574 1040,-3574 "/>
<text text-anchor="middle" x="977.5" y="-3562" font-family="monospace" font-size="10.00">resolver::Resolver</text>
</g>
<!-- lightning_resolver&#45;&gt;lightning_resolver::resolver::Resolver -->
<g id="edge5" class="edge">
<title>lightning_resolver&#45;&gt;lightning_resolver::resolver::Resolver</title>
<path fill="none" stroke="#000000" d="M125.24,-4145.28C244.92,-4128.63 494,-4094 494,-4094 494,-4094 854.23,-3706.57 952.82,-3600.54"/>
<polygon fill="#000000" stroke="#000000" points="955.47,-3602.83 959.72,-3593.12 950.35,-3598.06 955.47,-3602.83"/>
<text text-anchor="middle" x="506.5" y="-4097" font-family="monospace" font-size="10.00">owns</text>
</g>
<!-- lightning_resolver::resolver::ResolverInner -->
<g id="node18" class="node">
<title>lightning_resolver::resolver::ResolverInner</title>
<polygon fill="#db5367" stroke="black" points="900,-997 900,-1035 1055,-1035 1055,-997 900,-997"/>
<text text-anchor="middle" x="977.5" y="-1023" font-family="monospace" font-size="10.00">pub(self) struct</text>
<polyline fill="none" stroke="black" points="900,-1016 1055,-1016 "/>
<text text-anchor="middle" x="977.5" y="-1004" font-family="monospace" font-size="10.00">resolver::ResolverInner</text>
</g>
<!-- lightning_resolver&#45;&gt;lightning_resolver::resolver::ResolverInner -->
<g id="edge6" class="edge">
<title>lightning_resolver&#45;&gt;lightning_resolver::resolver::ResolverInner</title>
<path fill="none" stroke="#000000" d="M67.78,-4134.73C118.61,-3949.33 519,-2489 519,-2489 519,-2489 904.28,-1251.24 968.48,-1044.97"/>
<polygon fill="#000000" stroke="#000000" points="971.9,-1045.75 971.54,-1035.16 965.22,-1043.67 971.9,-1045.75"/>
<text text-anchor="middle" x="506.5" y="-2481" font-family="monospace" font-size="10.00">owns</text>
</g>
<!-- lightning_resolver::origin_finder::OriginFinder::hash -->
<g id="node4" class="node">
<title>lightning_resolver::origin_finder::OriginFinder::hash</title>
<polygon fill="#db5367" stroke="black" points="1851,-5415 1851,-5453 2066,-5453 2066,-5415 1851,-5415"/>
<text text-anchor="middle" x="1958.5" y="-5441" font-family="monospace" font-size="10.00">pub(self) fn</text>
<polyline fill="none" stroke="black" points="1851,-5434 2066,-5434 "/>
<text text-anchor="middle" x="1958.5" y="-5422" font-family="monospace" font-size="10.00">origin_finder::OriginFinder::hash</text>
</g>
<!-- lightning_resolver::origin_finder::OriginFinder&#45;&gt;lightning_resolver::origin_finder::OriginFinder::hash -->
<g id="edge7" class="edge">
<title>lightning_resolver::origin_finder::OriginFinder&#45;&gt;lightning_resolver::origin_finder::OriginFinder::hash</title>
<path fill="none" stroke="#000000" d="M1005.84,-5143.16C1105.8,-5210.74 1436,-5434 1436,-5434 1436,-5434 1686.78,-5434 1840.87,-5434"/>
<polygon fill="#000000" stroke="#000000" points="1840.87,-5437.5 1850.87,-5434 1840.87,-5430.5 1840.87,-5437.5"/>
<text text-anchor="middle" x="1448.5" y="-5437" font-family="monospace" font-size="10.00">owns</text>
</g>
<!-- lightning_resolver::origin_finder::OriginFinder::next -->
<g id="node5" class="node">
<title>lightning_resolver::origin_finder::OriginFinder::next</title>
<polygon fill="#db5367" stroke="black" points="1851,-5260 1851,-5298 2066,-5298 2066,-5260 1851,-5260"/>
<text text-anchor="middle" x="1958.5" y="-5286" font-family="monospace" font-size="10.00">pub(self) async fn</text>
<polyline fill="none" stroke="black" points="1851,-5279 2066,-5279 "/>
<text text-anchor="middle" x="1958.5" y="-5267" font-family="monospace" font-size="10.00">origin_finder::OriginFinder::next</text>
</g>
<!-- lightning_resolver::origin_finder::OriginFinder&#45;&gt;lightning_resolver::origin_finder::OriginFinder::next -->
<g id="edge8" class="edge">
<title>lightning_resolver::origin_finder::OriginFinder&#45;&gt;lightning_resolver::origin_finder::OriginFinder::next</title>
<path fill="none" stroke="#000000" d="M1033.72,-5143.01C1156.15,-5184.4 1436,-5279 1436,-5279 1436,-5279 1686.78,-5279 1840.87,-5279"/>
<polygon fill="#000000" stroke="#000000" points="1840.87,-5282.5 1850.87,-5279 1840.87,-5275.5 1840.87,-5282.5"/>
<text text-anchor="middle" x="1448.5" y="-5282" font-family="monospace" font-size="10.00">owns</text>
</g>
<!-- lightning_resolver::origin_finder::OriginFinder::next_sync -->
<g id="node6" class="node">
<title>lightning_resolver::origin_finder::OriginFinder::next_sync</title>
<polygon fill="#db5367" stroke="black" points="1836,-5105 1836,-5143 2081,-5143 2081,-5105 1836,-5105"/>
<text text-anchor="middle" x="1958.5" y="-5131" font-family="monospace" font-size="10.00">pub(self) fn</text>
<polyline fill="none" stroke="black" points="1836,-5124 2081,-5124 "/>
<text text-anchor="middle" x="1958.5" y="-5112" font-family="monospace" font-size="10.00">origin_finder::OriginFinder::next_sync</text>
</g>
<!-- lightning_resolver::origin_finder::OriginFinder&#45;&gt;lightning_resolver::origin_finder::OriginFinder::next_sync -->
<g id="edge9" class="edge">
<title>lightning_resolver::origin_finder::OriginFinder&#45;&gt;lightning_resolver::origin_finder::OriginFinder::next_sync</title>
<path fill="none" stroke="#000000" d="M1067.26,-5124C1200.74,-5124 1436,-5124 1436,-5124 1436,-5124 1671.12,-5124 1825.92,-5124"/>
<polygon fill="#000000" stroke="#000000" points="1826,-5127.5 1836,-5124 1826,-5120.5 1826,-5127.5"/>
<text text-anchor="middle" x="1448.5" y="-5127" font-family="monospace" font-size="10.00">owns</text>
</g>
<!-- lightning_resolver::origin_finder::OriginFinder::hash&#45;&gt;lightning_resolver::origin_finder::OriginFinder -->
<g id="edge10" class="edge">
<title>lightning_resolver::origin_finder::OriginFinder::hash&#45;&gt;lightning_resolver::origin_finder::OriginFinder</title>
<path fill="none" stroke="#7f7f7f" stroke-dasharray="5,2" d="M1937.44,-5414.78C1842.75,-5328.37 1461,-4980 1461,-4980 1461,-4980 1187.11,-5061.57 1051.61,-5101.93"/>
<polygon fill="#7f7f7f" stroke="#7f7f7f" points="1050.29,-5098.67 1041.71,-5104.88 1052.29,-5105.38 1050.29,-5098.67"/>
<text text-anchor="middle" x="1448.5" y="-4972" font-family="monospace" font-size="10.00">uses</text>
</g>
<!-- lightning_resolver::origin_finder::OriginFinder::next&#45;&gt;lightning_resolver::origin_finder::OriginFinder -->
<g id="edge11" class="edge">
<title>lightning_resolver::origin_finder::OriginFinder::next&#45;&gt;lightning_resolver::origin_finder::OriginFinder</title>
<path fill="none" stroke="#7f7f7f" stroke-dasharray="5,2" d="M1937.44,-5259.78C1842.75,-5173.37 1461,-4825 1461,-4825 1461,-4825 1132.53,-5028.13 1017.06,-5099.53"/>
<polygon fill="#7f7f7f" stroke="#7f7f7f" points="1015.14,-5096.6 1008.48,-5104.84 1018.83,-5102.56 1015.14,-5096.6"/>
<text text-anchor="middle" x="1448.5" y="-4817" font-family="monospace" font-size="10.00">uses</text>
</g>
<!-- lightning_resolver::origin_finder::OriginFinder::next_sync&#45;&gt;lightning_resolver::origin_finder::OriginFinder -->
<g id="edge12" class="edge">
<title>lightning_resolver::origin_finder::OriginFinder::next_sync&#45;&gt;lightning_resolver::origin_finder::OriginFinder</title>
<path fill="none" stroke="#7f7f7f" stroke-dasharray="5,2" d="M1937.44,-5104.78C1842.75,-5018.37 1461,-4670 1461,-4670 1461,-4670 1108.59,-5000.9 1005.51,-5097.7"/>
<polygon fill="#7f7f7f" stroke="#7f7f7f" points="1002.86,-5095.39 997.97,-5104.78 1007.65,-5100.49 1002.86,-5095.39"/>
<text text-anchor="middle" x="1448.5" y="-4662" font-family="monospace" font-size="10.00">uses</text>
</g>
<!-- lightning_resolver::resolver::Resolver::Config -->
<g id="node8" class="node">
<title>lightning_resolver::resolver::Resolver::Config</title>
<polygon fill="#db5367" stroke="black" points="1872,-4175 1872,-4213 2045,-4213 2045,-4175 1872,-4175"/>
<text text-anchor="middle" x="1958.5" y="-4201" font-family="monospace" font-size="10.00">pub(self) type</text>
<polyline fill="none" stroke="black" points="1872,-4194 2045,-4194 "/>
<text text-anchor="middle" x="1958.5" y="-4182" font-family="monospace" font-size="10.00">resolver::Resolver::Config</text>
</g>
<!-- lightning_resolver::resolver::Resolver&#45;&gt;lightning_resolver::resolver::Resolver::Config -->
<g id="edge13" class="edge">
<title>lightning_resolver::resolver::Resolver&#45;&gt;lightning_resolver::resolver::Resolver::Config</title>
<path fill="none" stroke="#000000" d="M991.72,-3593.24C1069.11,-3697.88 1436,-4194 1436,-4194 1436,-4194 1710.67,-4194 1861.72,-4194"/>
<polygon fill="#000000" stroke="#000000" points="1861.93,-4197.5 1871.93,-4194 1861.93,-4190.5 1861.93,-4197.5"/>
<text text-anchor="middle" x="1448.5" y="-4197" font-family="monospace" font-size="10.00">owns</text>
</g>
<!-- lightning_resolver::resolver::Resolver::OriginFinder -->
<g id="node9" class="node">
<title>lightning_resolver::resolver::Resolver::OriginFinder</title>
<polygon fill="#db5367" stroke="black" points="1854,-4020 1854,-4058 2063,-4058 2063,-4020 1854,-4020"/>
<text text-anchor="middle" x="1958.5" y="-4046" font-family="monospace" font-size="10.00">pub(self) type</text>
<polyline fill="none" stroke="black" points="1854,-4039 2063,-4039 "/>
<text text-anchor="middle" x="1958.5" y="-4027" font-family="monospace" font-size="10.00">resolver::Resolver::OriginFinder</text>
</g>
<!-- lightning_resolver::resolver::Resolver&#45;&gt;lightning_resolver::resolver::Resolver::OriginFinder -->
<g id="edge14" class="edge">
<title>lightning_resolver::resolver::Resolver&#45;&gt;lightning_resolver::resolver::Resolver::OriginFinder</title>
<path fill="none" stroke="#000000" d="M996.33,-3593.1C1082.61,-3680.6 1436,-4039 1436,-4039 1436,-4039 1689.4,-4039 1843.26,-4039"/>
<polygon fill="#000000" stroke="#000000" points="1843.71,-4042.5 1853.71,-4039 1843.71,-4035.5 1843.71,-4042.5"/>
<text text-anchor="middle" x="1448.5" y="-4042" font-family="monospace" font-size="10.00">owns</text>
</g>
<!-- lightning_resolver::resolver::Resolver::get_blake3_hash -->
<g id="node10" class="node">
<title>lightning_resolver::resolver::Resolver::get_blake3_hash</title>
<polygon fill="#db5367" stroke="black" points="1845,-3865 1845,-3903 2072,-3903 2072,-3865 1845,-3865"/>
<text text-anchor="middle" x="1958.5" y="-3891" font-family="monospace" font-size="10.00">pub(self) async fn</text>
<polyline fill="none" stroke="black" points="1845,-3884 2072,-3884 "/>
<text text-anchor="middle" x="1958.5" y="-3872" font-family="monospace" font-size="10.00">resolver::Resolver::get_blake3_hash</text>
</g>
<!-- lightning_resolver::resolver::Resolver&#45;&gt;lightning_resolver::resolver::Resolver::get_blake3_hash -->
<g id="edge15" class="edge">
<title>lightning_resolver::resolver::Resolver&#45;&gt;lightning_resolver::resolver::Resolver::get_blake3_hash</title>
<path fill="none" stroke="#000000" d="M1005.84,-3593.16C1105.8,-3660.74 1436,-3884 1436,-3884 1436,-3884 1680.25,-3884 1834.76,-3884"/>
<polygon fill="#000000" stroke="#000000" points="1834.8,-3887.5 1844.8,-3884 1834.8,-3880.5 1834.8,-3887.5"/>
<text text-anchor="middle" x="1448.5" y="-3887" font-family="monospace" font-size="10.00">owns</text>
</g>
<!-- lightning_resolver::resolver::Resolver::get_origin_finder -->
<g id="node11" class="node">
<title>lightning_resolver::resolver::Resolver::get_origin_finder</title>
<polygon fill="#db5367" stroke="black" points="1839,-3710 1839,-3748 2078,-3748 2078,-3710 1839,-3710"/>
<text text-anchor="middle" x="1958.5" y="-3736" font-family="monospace" font-size="10.00">pub(self) fn</text>
<polyline fill="none" stroke="black" points="1839,-3729 2078,-3729 "/>
<text text-anchor="middle" x="1958.5" y="-3717" font-family="monospace" font-size="10.00">resolver::Resolver::get_origin_finder</text>
</g>
<!-- lightning_resolver::resolver::Resolver&#45;&gt;lightning_resolver::resolver::Resolver::get_origin_finder -->
<g id="edge16" class="edge">
<title>lightning_resolver::resolver::Resolver&#45;&gt;lightning_resolver::resolver::Resolver::get_origin_finder</title>
<path fill="none" stroke="#000000" d="M1033.72,-3593.01C1156.15,-3634.4 1436,-3729 1436,-3729 1436,-3729 1674.15,-3729 1828.89,-3729"/>
<polygon fill="#000000" stroke="#000000" points="1828.96,-3732.5 1838.96,-3729 1828.96,-3725.5 1828.96,-3732.5"/>
<text text-anchor="middle" x="1448.5" y="-3732" font-family="monospace" font-size="10.00">owns</text>
</g>
<!-- lightning_resolver::resolver::Resolver::get_origins -->
<g id="node12" class="node">
<title>lightning_resolver::resolver::Resolver::get_origins</title>
<polygon fill="#db5367" stroke="black" points="1857,-3555 1857,-3593 2060,-3593 2060,-3555 1857,-3555"/>
<text text-anchor="middle" x="1958.5" y="-3581" font-family="monospace" font-size="10.00">pub(self) fn</text>
<polyline fill="none" stroke="black" points="1857,-3574 2060,-3574 "/>
<text text-anchor="middle" x="1958.5" y="-3562" font-family="monospace" font-size="10.00">resolver::Resolver::get_origins</text>
</g>
<!-- lightning_resolver::resolver::Resolver&#45;&gt;lightning_resolver::resolver::Resolver::get_origins -->
<g id="edge17" class="edge">
<title>lightning_resolver::resolver::Resolver&#45;&gt;lightning_resolver::resolver::Resolver::get_origins</title>
<path fill="none" stroke="#000000" d="M1040.29,-3574C1165.86,-3574 1436,-3574 1436,-3574 1436,-3574 1692.88,-3574 1846.41,-3574"/>
<polygon fill="#000000" stroke="#000000" points="1846.83,-3577.5 1856.83,-3574 1846.83,-3570.5 1846.83,-3577.5"/>
<text text-anchor="middle" x="1448.5" y="-3577" font-family="monospace" font-size="10.00">owns</text>
</g>
<!-- lightning_resolver::resolver::Resolver::init -->
<g id="node13" class="node">
<title>lightning_resolver::resolver::Resolver::init</title>
<polygon fill="#db5367" stroke="black" points="1878,-3400 1878,-3438 2039,-3438 2039,-3400 1878,-3400"/>
<text text-anchor="middle" x="1958.5" y="-3426" font-family="monospace" font-size="10.00">pub(self) fn</text>
<polyline fill="none" stroke="black" points="1878,-3419 2039,-3419 "/>
<text text-anchor="middle" x="1958.5" y="-3407" font-family="monospace" font-size="10.00">resolver::Resolver::init</text>
</g>
<!-- lightning_resolver::resolver::Resolver&#45;&gt;lightning_resolver::resolver::Resolver::init -->
<g id="edge18" class="edge">
<title>lightning_resolver::resolver::Resolver&#45;&gt;lightning_resolver::resolver::Resolver::init</title>
<path fill="none" stroke="#000000" d="M1040.21,-3555.32C1171.04,-3516.36 1461,-3430 1461,-3430 1461,-3430 1724.07,-3424.18 1867.61,-3421.01"/>
<polygon fill="#000000" stroke="#000000" points="1867.82,-3424.51 1877.74,-3420.79 1867.66,-3417.51 1867.82,-3424.51"/>
<text text-anchor="middle" x="1448.5" y="-3422" font-family="monospace" font-size="10.00">owns</text>
</g>
<!-- lightning_resolver::resolver::Resolver::is_running -->
<g id="node14" class="node">
<title>lightning_resolver::resolver::Resolver::is_running</title>
<polygon fill="#db5367" stroke="black" points="1860,-3245 1860,-3283 2057,-3283 2057,-3245 1860,-3245"/>
<text text-anchor="middle" x="1958.5" y="-3271" font-family="monospace" font-size="10.00">pub(self) fn</text>
<polyline fill="none" stroke="black" points="1860,-3264 2057,-3264 "/>
<text text-anchor="middle" x="1958.5" y="-3252" font-family="monospace" font-size="10.00">resolver::Resolver::is_running</text>
</g>
<!-- lightning_resolver::resolver::Resolver&#45;&gt;lightning_resolver::resolver::Resolver::is_running -->
<g id="edge19" class="edge">
<title>lightning_resolver::resolver::Resolver&#45;&gt;lightning_resolver::resolver::Resolver::is_running</title>
<path fill="none" stroke="#000000" d="M1008.48,-3554.84C1115.19,-3488.85 1461,-3275 1461,-3275 1461,-3275 1703.12,-3269.65 1849.54,-3266.41"/>
<polygon fill="#000000" stroke="#000000" points="1849.99,-3269.9 1859.91,-3266.18 1849.84,-3262.9 1849.99,-3269.9"/>
<text text-anchor="middle" x="1448.5" y="-3267" font-family="monospace" font-size="10.00">owns</text>
</g>
<!-- lightning_resolver::resolver::Resolver::publish -->
<g id="node15" class="node">
<title>lightning_resolver::resolver::Resolver::publish</title>
<polygon fill="#db5367" stroke="black" points="1869,-3090 1869,-3128 2048,-3128 2048,-3090 1869,-3090"/>
<text text-anchor="middle" x="1958.5" y="-3116" font-family="monospace" font-size="10.00">pub(self) async fn</text>
<polyline fill="none" stroke="black" points="1869,-3109 2048,-3109 "/>
<text text-anchor="middle" x="1958.5" y="-3097" font-family="monospace" font-size="10.00">resolver::Resolver::publish</text>
</g>
<!-- lightning_resolver::resolver::Resolver&#45;&gt;lightning_resolver::resolver::Resolver::publish -->
<g id="edge20" class="edge">
<title>lightning_resolver::resolver::Resolver&#45;&gt;lightning_resolver::resolver::Resolver::publish</title>
<path fill="none" stroke="#000000" d="M997.97,-3554.78C1089.99,-3468.37 1461,-3120 1461,-3120 1461,-3120 1713.48,-3114.42 1858.72,-3111.21"/>
<polygon fill="#000000" stroke="#000000" points="1859.06,-3114.7 1868.98,-3110.98 1858.91,-3107.7 1859.06,-3114.7"/>
<text text-anchor="middle" x="1448.5" y="-3112" font-family="monospace" font-size="10.00">owns</text>
</g>
<!-- lightning_resolver::resolver::Resolver::shutdown -->
<g id="node16" class="node">
<title>lightning_resolver::resolver::Resolver::shutdown</title>
<polygon fill="#db5367" stroke="black" points="1866,-2935 1866,-2973 2051,-2973 2051,-2935 1866,-2935"/>
<text text-anchor="middle" x="1958.5" y="-2961" font-family="monospace" font-size="10.00">pub(self) async fn</text>
<polyline fill="none" stroke="black" points="1866,-2954 2051,-2954 "/>
<text text-anchor="middle" x="1958.5" y="-2942" font-family="monospace" font-size="10.00">resolver::Resolver::shutdown</text>
</g>
<!-- lightning_resolver::resolver::Resolver&#45;&gt;lightning_resolver::resolver::Resolver::shutdown -->
<g id="edge21" class="edge">
<title>lightning_resolver::resolver::Resolver&#45;&gt;lightning_resolver::resolver::Resolver::shutdown</title>
<path fill="none" stroke="#000000" d="M992.77,-3554.77C1074.95,-3451.25 1461,-2965 1461,-2965 1461,-2965 1709.78,-2959.5 1855.49,-2956.28"/>
<polygon fill="#000000" stroke="#000000" points="1855.88,-2959.77 1865.8,-2956.05 1855.72,-2952.77 1855.88,-2959.77"/>
<text text-anchor="middle" x="1448.5" y="-2957" font-family="monospace" font-size="10.00">owns</text>
</g>
<!-- lightning_resolver::resolver::Resolver::start -->
<g id="node17" class="node">
<title>lightning_resolver::resolver::Resolver::start</title>
<polygon fill="#db5367" stroke="black" points="1875,-2780 1875,-2818 2042,-2818 2042,-2780 1875,-2780"/>
<text text-anchor="middle" x="1958.5" y="-2806" font-family="monospace" font-size="10.00">pub(self) async fn</text>
<polyline fill="none" stroke="black" points="1875,-2799 2042,-2799 "/>
<text text-anchor="middle" x="1958.5" y="-2787" font-family="monospace" font-size="10.00">resolver::Resolver::start</text>
</g>
<!-- lightning_resolver::resolver::Resolver&#45;&gt;lightning_resolver::resolver::Resolver::start -->
<g id="edge22" class="edge">
<title>lightning_resolver::resolver::Resolver&#45;&gt;lightning_resolver::resolver::Resolver::start</title>
<path fill="none" stroke="#000000" d="M989.69,-3554.73C1064.76,-3436.11 1461,-2810 1461,-2810 1461,-2810 1720.63,-2804.26 1864.78,-2801.07"/>
<polygon fill="#000000" stroke="#000000" points="1865.03,-2804.57 1874.95,-2800.85 1864.87,-2797.57 1865.03,-2804.57"/>
<text text-anchor="middle" x="1448.5" y="-2802" font-family="monospace" font-size="10.00">owns</text>
</g>
<!-- lightning_resolver::resolver::Resolver::Config&#45;&gt;lightning_resolver::config::Config -->
<g id="edge23" class="edge">
<title>lightning_resolver::resolver::Resolver::Config&#45;&gt;lightning_resolver::config::Config</title>
<path fill="none" stroke="#7f7f7f" stroke-dasharray="5,2" d="M1952.08,-4213.04C1892.36,-4390.2 1436,-5744 1436,-5744 1436,-5744 1095.83,-5366.36 1001.5,-5261.64"/>
<polygon fill="#7f7f7f" stroke="#7f7f7f" points="1003.93,-5259.11 994.64,-5254.02 998.73,-5263.8 1003.93,-5259.11"/>
<text text-anchor="middle" x="1448.5" y="-5747" font-family="monospace" font-size="10.00">uses</text>
</g>
<!-- lightning_resolver::resolver::Resolver::OriginFinder&#45;&gt;lightning_resolver::origin_finder::OriginFinder -->
<g id="edge24" class="edge">
<title>lightning_resolver::resolver::Resolver::OriginFinder&#45;&gt;lightning_resolver::origin_finder::OriginFinder</title>
<path fill="none" stroke="#7f7f7f" stroke-dasharray="5,2" d="M1938.38,-4058.25C1845.31,-4147.3 1461,-4515 1461,-4515 1461,-4515 1092.84,-4978.72 999.04,-5096.87"/>
<polygon fill="#7f7f7f" stroke="#7f7f7f" points="996.25,-5094.76 992.77,-5104.77 1001.73,-5099.11 996.25,-5094.76"/>
<text text-anchor="middle" x="1448.5" y="-4507" font-family="monospace" font-size="10.00">uses</text>
</g>
<!-- lightning_resolver::resolver::Resolver::get_blake3_hash&#45;&gt;lightning_resolver::resolver::Resolver -->
<g id="edge25" class="edge">
<title>lightning_resolver::resolver::Resolver::get_blake3_hash&#45;&gt;lightning_resolver::resolver::Resolver</title>
<path fill="none" stroke="#7f7f7f" stroke-dasharray="5,2" d="M1950.69,-3864.7C1887.39,-3708.34 1461,-2655 1461,-2655 1461,-2655 1073.43,-3391.66 992.29,-3545.9"/>
<polygon fill="#7f7f7f" stroke="#7f7f7f" points="989.16,-3544.33 987.6,-3554.81 995.35,-3547.59 989.16,-3544.33"/>
<text text-anchor="middle" x="1448.5" y="-2647" font-family="monospace" font-size="10.00">uses</text>
</g>
<!-- lightning_resolver::resolver::Resolver::get_origin_finder&#45;&gt;lightning_resolver::origin_finder::OriginFinder -->
<g id="edge26" class="edge">
<title>lightning_resolver::resolver::Resolver::get_origin_finder&#45;&gt;lightning_resolver::origin_finder::OriginFinder</title>
<path fill="none" stroke="#7f7f7f" stroke-dasharray="5,2" d="M1943.34,-3748.23C1859.96,-3853.98 1461,-4360 1461,-4360 1461,-4360 1082.36,-4958.3 995.23,-5095.98"/>
<polygon fill="#7f7f7f" stroke="#7f7f7f" points="992.08,-5094.41 989.69,-5104.73 998,-5098.15 992.08,-5094.41"/>
<text text-anchor="middle" x="1448.5" y="-4352" font-family="monospace" font-size="10.00">uses</text>
</g>
<!-- lightning_resolver::resolver::Resolver::get_origin_finder&#45;&gt;lightning_resolver::resolver::Resolver -->
<g id="edge27" class="edge">
<title>lightning_resolver::resolver::Resolver::get_origin_finder&#45;&gt;lightning_resolver::resolver::Resolver</title>
<path fill="none" stroke="#7f7f7f" stroke-dasharray="5,2" d="M1950.69,-3709.7C1887.39,-3553.34 1461,-2500 1461,-2500 1461,-2500 1066.83,-3375.58 990.29,-3545.6"/>
<polygon fill="#7f7f7f" stroke="#7f7f7f" points="987.01,-3544.35 986.1,-3554.9 993.39,-3547.22 987.01,-3544.35"/>
<text text-anchor="middle" x="1448.5" y="-2492" font-family="monospace" font-size="10.00">uses</text>
</g>
<!-- lightning_resolver::resolver::Resolver::get_origins&#45;&gt;lightning_resolver::resolver::Resolver -->
<g id="edge28" class="edge">
<title>lightning_resolver::resolver::Resolver::get_origins&#45;&gt;lightning_resolver::resolver::Resolver</title>
<path fill="none" stroke="#7f7f7f" stroke-dasharray="5,2" d="M1950.69,-3554.7C1887.39,-3398.34 1461,-2345 1461,-2345 1461,-2345 1061.44,-3360.62 988.77,-3545.35"/>
<polygon fill="#7f7f7f" stroke="#7f7f7f" points="985.5,-3544.11 985.09,-3554.7 992.01,-3546.67 985.5,-3544.11"/>
<text text-anchor="middle" x="1448.5" y="-2337" font-family="monospace" font-size="10.00">uses</text>
</g>
<!-- lightning_resolver::resolver::Resolver::init&#45;&gt;lightning_resolver::config::Config -->
<g id="edge29" class="edge">
<title>lightning_resolver::resolver::Resolver::init&#45;&gt;lightning_resolver::config::Config</title>
<path fill="none" stroke="#7f7f7f" stroke-dasharray="5,2" d="M1953.9,-3438.09C1902.43,-3651.86 1436,-5589 1436,-5589 1436,-5589 1115.01,-5341.17 1010.18,-5260.23"/>
<polygon fill="#7f7f7f" stroke="#7f7f7f" points="1012.21,-5257.37 1002.15,-5254.03 1007.93,-5262.91 1012.21,-5257.37"/>
<text text-anchor="middle" x="1448.5" y="-5592" font-family="monospace" font-size="10.00">uses</text>
</g>
<!-- lightning_resolver::resolver::Resolver::init&#45;&gt;lightning_resolver::resolver::Resolver -->
<g id="edge30" class="edge">
<title>lightning_resolver::resolver::Resolver::init&#45;&gt;lightning_resolver::resolver::Resolver</title>
<path fill="none" stroke="#7f7f7f" stroke-dasharray="5,2" d="M1950.69,-3399.7C1887.39,-3243.34 1461,-2190 1461,-2190 1461,-2190 1056.82,-3346.96 987.54,-3545.25"/>
<polygon fill="#7f7f7f" stroke="#7f7f7f" points="984.14,-3544.37 984.15,-3554.96 990.75,-3546.68 984.14,-3544.37"/>
<text text-anchor="middle" x="1448.5" y="-2182" font-family="monospace" font-size="10.00">uses</text>
</g>
<!-- lightning_resolver::resolver::Resolver::init&#45;&gt;lightning_resolver::resolver::ResolverInner -->
<g id="edge31" class="edge">
<title>lightning_resolver::resolver::Resolver::init&#45;&gt;lightning_resolver::resolver::ResolverInner</title>
<path fill="none" stroke="#7f7f7f" stroke-dasharray="5,2" d="M1953.74,-3399.81C1902.82,-3194.72 1461,-1415 1461,-1415 1461,-1415 1115.63,-1129.99 1008.68,-1041.73"/>
<polygon fill="#7f7f7f" stroke="#7f7f7f" points="1010.76,-1038.91 1000.82,-1035.24 1006.31,-1044.31 1010.76,-1038.91"/>
<text text-anchor="middle" x="1448.5" y="-1407" font-family="monospace" font-size="10.00">uses</text>
</g>
<!-- lightning_resolver::resolver::Resolver::is_running&#45;&gt;lightning_resolver::resolver::Resolver -->
<g id="edge32" class="edge">
<title>lightning_resolver::resolver::Resolver::is_running&#45;&gt;lightning_resolver::resolver::Resolver</title>
<path fill="none" stroke="#7f7f7f" stroke-dasharray="5,2" d="M1950.69,-3244.7C1887.39,-3088.34 1461,-2035 1461,-2035 1461,-2035 1053.03,-3333.58 986.59,-3545.05"/>
<polygon fill="#7f7f7f" stroke="#7f7f7f" points="983.18,-3544.23 983.53,-3554.82 989.86,-3546.33 983.18,-3544.23"/>
<text text-anchor="middle" x="1448.5" y="-2027" font-family="monospace" font-size="10.00">uses</text>
</g>
<!-- lightning_resolver::resolver::Resolver::publish&#45;&gt;lightning_resolver::resolver::Resolver -->
<g id="edge33" class="edge">
<title>lightning_resolver::resolver::Resolver::publish&#45;&gt;lightning_resolver::resolver::Resolver</title>
<path fill="none" stroke="#7f7f7f" stroke-dasharray="5,2" d="M1950.69,-3089.7C1887.39,-2933.34 1461,-1880 1461,-1880 1461,-1880 1049.22,-3322.7 985.69,-3545.31"/>
<polygon fill="#7f7f7f" stroke="#7f7f7f" points="982.31,-3544.4 982.93,-3554.98 989.04,-3546.32 982.31,-3544.4"/>
<text text-anchor="middle" x="1448.5" y="-1872" font-family="monospace" font-size="10.00">uses</text>
</g>
<!-- lightning_resolver::resolver::Resolver::shutdown&#45;&gt;lightning_resolver::resolver::Resolver -->
<g id="edge34" class="edge">
<title>lightning_resolver::resolver::Resolver::shutdown&#45;&gt;lightning_resolver::resolver::Resolver</title>
<path fill="none" stroke="#7f7f7f" stroke-dasharray="5,2" d="M1950.69,-2934.7C1887.39,-2778.34 1461,-1725 1461,-1725 1461,-1725 1046.67,-3309.49 985.11,-3544.91"/>
<polygon fill="#7f7f7f" stroke="#7f7f7f" points="981.67,-3544.23 982.52,-3554.79 988.44,-3546 981.67,-3544.23"/>
<text text-anchor="middle" x="1448.5" y="-1717" font-family="monospace" font-size="10.00">uses</text>
</g>
<!-- lightning_resolver::resolver::Resolver::start&#45;&gt;lightning_resolver::resolver::Resolver -->
<g id="edge35" class="edge">
<title>lightning_resolver::resolver::Resolver::start&#45;&gt;lightning_resolver::resolver::Resolver</title>
<path fill="none" stroke="#7f7f7f" stroke-dasharray="5,2" d="M1950.69,-2779.7C1887.39,-2623.34 1461,-1570 1461,-1570 1461,-1570 1044.1,-3297.96 984.55,-3544.79"/>
<polygon fill="#7f7f7f" stroke="#7f7f7f" points="981.07,-3544.27 982.13,-3554.81 987.88,-3545.91 981.07,-3544.27"/>
<text text-anchor="middle" x="1448.5" y="-1562" font-family="monospace" font-size="10.00">uses</text>
</g>
<!-- lightning_resolver::resolver::ResolverInner::get_blake3_hash -->
<g id="node19" class="node">
<title>lightning_resolver::resolver::ResolverInner::get_blake3_hash</title>
<polygon fill="#db5367" stroke="black" points="1830,-1230 1830,-1268 2087,-1268 2087,-1230 1830,-1230"/>
<text text-anchor="middle" x="1958.5" y="-1256" font-family="monospace" font-size="10.00">pub(self) async fn</text>
<polyline fill="none" stroke="black" points="1830,-1249 2087,-1249 "/>
<text text-anchor="middle" x="1958.5" y="-1237" font-family="monospace" font-size="10.00">resolver::ResolverInner::get_blake3_hash</text>
</g>
<!-- lightning_resolver::resolver::ResolverInner&#45;&gt;lightning_resolver::resolver::ResolverInner::get_blake3_hash -->
<g id="edge36" class="edge">
<title>lightning_resolver::resolver::ResolverInner&#45;&gt;lightning_resolver::resolver::ResolverInner::get_blake3_hash</title>
<path fill="none" stroke="#000000" d="M1015.02,-1035.07C1124.52,-1090.71 1436,-1249 1436,-1249 1436,-1249 1664.8,-1249 1819.59,-1249"/>
<polygon fill="#000000" stroke="#000000" points="1819.68,-1252.5 1829.68,-1249 1819.68,-1245.5 1819.68,-1252.5"/>
<text text-anchor="middle" x="1448.5" y="-1252" font-family="monospace" font-size="10.00">owns</text>
</g>
<!-- lightning_resolver::resolver::ResolverInner::get_origins -->
<g id="node20" class="node">
<title>lightning_resolver::resolver::ResolverInner::get_origins</title>
<polygon fill="#db5367" stroke="black" points="1842,-1075 1842,-1113 2075,-1113 2075,-1075 1842,-1075"/>
<text text-anchor="middle" x="1958.5" y="-1101" font-family="monospace" font-size="10.00">pub(self) fn</text>
<polyline fill="none" stroke="black" points="1842,-1094 2075,-1094 "/>
<text text-anchor="middle" x="1958.5" y="-1082" font-family="monospace" font-size="10.00">resolver::ResolverInner::get_origins</text>
</g>
<!-- lightning_resolver::resolver::ResolverInner&#45;&gt;lightning_resolver::resolver::ResolverInner::get_origins -->
<g id="edge37" class="edge">
<title>lightning_resolver::resolver::ResolverInner&#45;&gt;lightning_resolver::resolver::ResolverInner::get_origins</title>
<path fill="none" stroke="#000000" d="M1055.02,-1029.19C1185.76,-1051.43 1436,-1094 1436,-1094 1436,-1094 1677.19,-1094 1831.83,-1094"/>
<polygon fill="#000000" stroke="#000000" points="1831.89,-1097.5 1841.89,-1094 1831.89,-1090.5 1831.89,-1097.5"/>
<text text-anchor="middle" x="1448.5" y="-1097" font-family="monospace" font-size="10.00">owns</text>
</g>
<!-- lightning_resolver::resolver::ResolverInner::publish -->
<g id="node21" class="node">
<title>lightning_resolver::resolver::ResolverInner::publish</title>
<polygon fill="#db5367" stroke="black" points="1854,-920 1854,-958 2063,-958 2063,-920 1854,-920"/>
<text text-anchor="middle" x="1958.5" y="-946" font-family="monospace" font-size="10.00">pub(self) async fn</text>
<polyline fill="none" stroke="black" points="1854,-939 2063,-939 "/>
<text text-anchor="middle" x="1958.5" y="-927" font-family="monospace" font-size="10.00">resolver::ResolverInner::publish</text>
</g>
<!-- lightning_resolver::resolver::ResolverInner&#45;&gt;lightning_resolver::resolver::ResolverInner::publish -->
<g id="edge38" class="edge">
<title>lightning_resolver::resolver::ResolverInner&#45;&gt;lightning_resolver::resolver::ResolverInner::publish</title>
<path fill="none" stroke="#000000" d="M1055.18,-1005.4C1191.86,-986.74 1461,-950 1461,-950 1461,-950 1696.54,-944.79 1843.48,-941.54"/>
<polygon fill="#000000" stroke="#000000" points="1843.98,-945.03 1853.9,-941.31 1843.83,-938.03 1843.98,-945.03"/>
<text text-anchor="middle" x="1448.5" y="-942" font-family="monospace" font-size="10.00">owns</text>
</g>
<!-- lightning_resolver::resolver::ResolverInner::start -->
<g id="node22" class="node">
<title>lightning_resolver::resolver::ResolverInner::start</title>
<polygon fill="#db5367" stroke="black" points="1860,-765 1860,-803 2057,-803 2057,-765 1860,-765"/>
<text text-anchor="middle" x="1958.5" y="-791" font-family="monospace" font-size="10.00">pub(self) async fn</text>
<polyline fill="none" stroke="black" points="1860,-784 2057,-784 "/>
<text text-anchor="middle" x="1958.5" y="-772" font-family="monospace" font-size="10.00">resolver::ResolverInner::start</text>
</g>
<!-- lightning_resolver::resolver::ResolverInner&#45;&gt;lightning_resolver::resolver::ResolverInner::start -->
<g id="edge39" class="edge">
<title>lightning_resolver::resolver::ResolverInner&#45;&gt;lightning_resolver::resolver::ResolverInner::start</title>
<path fill="none" stroke="#000000" d="M1019.14,-996.97C1136.42,-943.36 1461,-795 1461,-795 1461,-795 1703.12,-789.65 1849.54,-786.41"/>
<polygon fill="#000000" stroke="#000000" points="1849.99,-789.9 1859.91,-786.18 1849.84,-782.9 1849.99,-789.9"/>
<text text-anchor="middle" x="1448.5" y="-787" font-family="monospace" font-size="10.00">owns</text>
</g>
<!-- lightning_resolver::resolver::ResolverInner::store_mapping -->
<g id="node23" class="node">
<title>lightning_resolver::resolver::ResolverInner::store_mapping</title>
<polygon fill="#db5367" stroke="black" points="1836,-610 1836,-648 2081,-648 2081,-610 1836,-610"/>
<text text-anchor="middle" x="1958.5" y="-636" font-family="monospace" font-size="10.00">pub(self) fn</text>
<polyline fill="none" stroke="black" points="1836,-629 2081,-629 "/>
<text text-anchor="middle" x="1958.5" y="-617" font-family="monospace" font-size="10.00">resolver::ResolverInner::store_mapping</text>
</g>
<!-- lightning_resolver::resolver::ResolverInner&#45;&gt;lightning_resolver::resolver::ResolverInner::store_mapping -->
<g id="edge40" class="edge">
<title>lightning_resolver::resolver::ResolverInner&#45;&gt;lightning_resolver::resolver::ResolverInner::store_mapping</title>
<path fill="none" stroke="#000000" d="M1002.14,-996.84C1100.67,-920.22 1461,-640 1461,-640 1461,-640 1678.42,-635.19 1825.8,-631.93"/>
<polygon fill="#000000" stroke="#000000" points="1825.92,-635.43 1835.84,-631.71 1825.77,-628.43 1825.92,-635.43"/>
<text text-anchor="middle" x="1448.5" y="-632" font-family="monospace" font-size="10.00">owns</text>
</g>
<!-- lightning_resolver::resolver::ResolverInner::get_blake3_hash&#45;&gt;lightning_resolver::resolver::ResolverInner -->
<g id="edge41" class="edge">
<title>lightning_resolver::resolver::ResolverInner::get_blake3_hash&#45;&gt;lightning_resolver::resolver::ResolverInner</title>
<path fill="none" stroke="#7f7f7f" stroke-dasharray="5,2" d="M1946.2,-1229.89C1869.59,-1110.86 1461,-476 1461,-476 1461,-476 1099.17,-880.11 1001.53,-989.16"/>
<polygon fill="#7f7f7f" stroke="#7f7f7f" points="998.77,-987 994.71,-996.78 1003.99,-991.67 998.77,-987"/>
<text text-anchor="middle" x="1448.5" y="-468" font-family="monospace" font-size="10.00">uses</text>
</g>
<!-- lightning_resolver::resolver::ResolverInner::get_origins&#45;&gt;lightning_resolver::resolver::ResolverInner -->
<g id="edge42" class="edge">
<title>lightning_resolver::resolver::ResolverInner::get_origins&#45;&gt;lightning_resolver::resolver::ResolverInner</title>
<path fill="none" stroke="#7f7f7f" stroke-dasharray="5,2" d="M1946.2,-1074.89C1869.59,-955.86 1461,-321 1461,-321 1461,-321 1086.44,-859.41 996.67,-988.45"/>
<polygon fill="#7f7f7f" stroke="#7f7f7f" points="993.77,-986.48 990.94,-996.69 999.52,-990.48 993.77,-986.48"/>
<text text-anchor="middle" x="1448.5" y="-313" font-family="monospace" font-size="10.00">uses</text>
</g>
<!-- lightning_resolver::resolver::ResolverInner::publish&#45;&gt;lightning_resolver::resolver::ResolverInner -->
<g id="edge43" class="edge">
<title>lightning_resolver::resolver::ResolverInner::publish&#45;&gt;lightning_resolver::resolver::ResolverInner</title>
<path fill="none" stroke="#7f7f7f" stroke-dasharray="5,2" d="M1946.2,-919.89C1869.59,-800.86 1461,-166 1461,-166 1461,-166 1077.5,-840.2 993.59,-987.71"/>
<polygon fill="#7f7f7f" stroke="#7f7f7f" points="990.41,-986.23 988.51,-996.65 996.49,-989.69 990.41,-986.23"/>
<text text-anchor="middle" x="1448.5" y="-158" font-family="monospace" font-size="10.00">uses</text>
</g>
<!-- lightning_resolver::resolver::ResolverInner::start&#45;&gt;lightning_resolver::resolver::ResolverInner -->
<g id="edge44" class="edge">
<title>lightning_resolver::resolver::ResolverInner::start&#45;&gt;lightning_resolver::resolver::ResolverInner</title>
<path fill="none" stroke="#7f7f7f" stroke-dasharray="5,2" d="M1946.2,-764.89C1869.59,-645.86 1461,-11 1461,-11 1461,-11 1070.11,-823.5 991.26,-987.39"/>
<polygon fill="#7f7f7f" stroke="#7f7f7f" points="987.91,-986.29 986.73,-996.82 994.22,-989.33 987.91,-986.29"/>
<text text-anchor="middle" x="1448.5" y="-3" font-family="monospace" font-size="10.00">uses</text>
</g>
</g>
</svg>
