<?xml version="1.0" encoding="UTF-8" standalone="no"?>
<!DOCTYPE svg PUBLIC "-//W3C//DTD SVG 1.1//EN"
 "http://www.w3.org/Graphics/SVG/1.1/DTD/svg11.dtd">
<!-- Generated by graphviz version 4.0.0 (0)
 -->
<!-- Pages: 1 -->
<svg width="477pt" height="422pt"
 viewBox="0.00 0.00 476.62 421.76" xmlns="http://www.w3.org/2000/svg" xmlns:xlink="http://www.w3.org/1999/xlink">
<g id="graph0" class="graph" transform="scale(1 1) rotate(0) translate(28.8 392.96)">
<polygon fill="white" stroke="transparent" points="-28.8,28.8 -28.8,-392.96 447.82,-392.96 447.82,28.8 -28.8,28.8"/>
<text text-anchor="middle" x="209.51" y="-331.36" font-family="Helvetica,sans-Serif" font-size="36.00">lightning_metrics</text>
<!-- lightning_metrics -->
<g id="node1" class="node">
<title>lightning_metrics</title>
<polygon fill="#5397c8" stroke="black" points="193.02,-139.08 193.02,-177.08 312.02,-177.08 312.02,-139.08 193.02,-139.08"/>
<text text-anchor="middle" x="252.52" y="-165.08" font-family="monospace" font-size="10.00">crate</text>
<polyline fill="none" stroke="black" points="193.02,-158.08 312.02,-158.08 "/>
<text text-anchor="middle" x="252.52" y="-146.08" font-family="monospace" font-size="10.00">lightning_metrics</text>
</g>
<!-- lightning_metrics::counter -->
<g id="node2" class="node">
<title>lightning_metrics::counter</title>
<polygon fill="#81c169" stroke="black" points="246.02,-277.66 246.02,-315.66 419.02,-315.66 419.02,-277.66 246.02,-277.66"/>
<text text-anchor="middle" x="332.52" y="-303.66" font-family="monospace" font-size="10.00">pub mod</text>
<polyline fill="none" stroke="black" points="246.02,-296.66 419.02,-296.66 "/>
<text text-anchor="middle" x="332.52" y="-284.66" font-family="monospace" font-size="10.00">lightning_metrics::counter</text>
</g>
<!-- lightning_metrics&#45;&gt;lightning_metrics::counter -->
<g id="edge1" class="edge">
<title>lightning_metrics&#45;&gt;lightning_metrics::counter</title>
<path fill="none" stroke="#000000" d="M263.64,-177.35C277.31,-201.03 300.63,-241.41 316.3,-268.55"/>
<polygon fill="#000000" stroke="#000000" points="313.46,-270.64 321.49,-277.55 319.52,-267.14 313.46,-270.64"/>
<text text-anchor="middle" x="277.47" y="-225.95" font-family="monospace" font-size="10.00">owns</text>
</g>
<!-- lightning_metrics::histogram -->
<g id="node3" class="node">
<title>lightning_metrics::histogram</title>
<polygon fill="#81c169" stroke="black" points="0,-139.08 0,-177.08 185,-177.08 185,-139.08 0,-139.08"/>
<text text-anchor="middle" x="92.5" y="-165.08" font-family="monospace" font-size="10.00">pub mod</text>
<polyline fill="none" stroke="black" points="0,-158.08 185,-158.08 "/>
<text text-anchor="middle" x="92.5" y="-146.08" font-family="monospace" font-size="10.00">lightning_metrics::histogram</text>
</g>
<!-- lightning_metrics&#45;&gt;lightning_metrics::histogram -->
<g id="edge2" class="edge">
<title>lightning_metrics&#45;&gt;lightning_metrics::histogram</title>
<path fill="none" stroke="#000000" d="M192.93,-158.08C192.77,-158.08 192.61,-158.08 192.45,-158.08"/>
<polygon fill="#000000" stroke="#000000" points="195.12,-154.58 185.12,-158.08 195.12,-161.58 195.12,-154.58"/>
<text text-anchor="middle" x="180.19" y="-161.08" font-family="monospace" font-size="10.00">owns</text>
</g>
<!-- lightning_metrics::labels -->
<g id="node4" class="node">
<title>lightning_metrics::labels</title>
<polygon fill="#81c169" stroke="black" points="249.02,-0.5 249.02,-38.5 416.02,-38.5 416.02,-0.5 249.02,-0.5"/>
<text text-anchor="middle" x="332.52" y="-26.5" font-family="monospace" font-size="10.00">pub mod</text>
<polyline fill="none" stroke="black" points="249.02,-19.5 416.02,-19.5 "/>
<text text-anchor="middle" x="332.52" y="-7.5" font-family="monospace" font-size="10.00">lightning_metrics::labels</text>
</g>
<!-- lightning_metrics&#45;&gt;lightning_metrics::labels -->
<g id="edge3" class="edge">
<title>lightning_metrics&#45;&gt;lightning_metrics::labels</title>
<path fill="none" stroke="#000000" d="M263.64,-138.81C277.31,-115.13 300.63,-74.75 316.3,-47.6"/>
<polygon fill="#000000" stroke="#000000" points="319.52,-49.02 321.49,-38.61 313.46,-45.52 319.52,-49.02"/>
<text text-anchor="middle" x="277.47" y="-96.21" font-family="monospace" font-size="10.00">owns</text>
</g>
<!-- lightning_metrics::counter&#45;&gt;lightning_metrics::labels -->
<g id="edge4" class="edge">
<title>lightning_metrics::counter&#45;&gt;lightning_metrics::labels</title>
<path fill="none" stroke="#7f7f7f" stroke-dasharray="5,2" d="M332.52,-277.61C332.52,-230.04 332.52,-105.8 332.52,-48.82"/>
<polygon fill="#7f7f7f" stroke="#7f7f7f" points="336.02,-48.68 332.52,-38.68 329.02,-48.68 336.02,-48.68"/>
<text text-anchor="middle" x="345.02" y="-166.21" font-family="monospace" font-size="10.00">uses</text>
</g>
<!-- lightning_metrics::histogram&#45;&gt;lightning_metrics::labels -->
<g id="edge5" class="edge">
<title>lightning_metrics::histogram&#45;&gt;lightning_metrics::labels</title>
<path fill="none" stroke="#7f7f7f" stroke-dasharray="5,2" d="M125.62,-138.95C168.63,-114.12 243.74,-70.76 290.65,-43.67"/>
<polygon fill="#7f7f7f" stroke="#7f7f7f" points="292.45,-46.68 299.36,-38.65 288.95,-40.62 292.45,-46.68"/>
<text text-anchor="middle" x="195.64" y="-94.31" font-family="monospace" font-size="10.00">uses</text>
</g>
</g>
</svg>
