<?xml version="1.0" encoding="UTF-8" standalone="no"?>
<!DOCTYPE svg PUBLIC "-//W3C//DTD SVG 1.1//EN"
 "http://www.w3.org/Graphics/SVG/1.1/DTD/svg11.dtd">
<!-- Generated by graphviz version 4.0.0 (0)
 -->
<!-- Pages: 1 -->
<svg width="1119pt" height="1072pt"
 viewBox="0.00 0.00 1118.60 1071.60" xmlns="http://www.w3.org/2000/svg" xmlns:xlink="http://www.w3.org/1999/xlink">
<g id="graph0" class="graph" transform="scale(1 1) rotate(0) translate(28.8 1042.8)">
<polygon fill="white" stroke="transparent" points="-28.8,28.8 -28.8,-1042.8 1089.8,-1042.8 1089.8,28.8 -28.8,28.8"/>
<text text-anchor="middle" x="530.5" y="-981.2" font-family="Helvetica,sans-Serif" font-size="36.00">lightning_utils</text>
<!-- fdi -->
<g id="node1" class="node">
<title>fdi</title>
<polygon fill="#5397c8" stroke="black" points="6,-759 6,-797 107,-797 107,-759 6,-759"/>
<text text-anchor="middle" x="56.5" y="-785" font-family="monospace" font-size="10.00">external crate</text>
<polyline fill="none" stroke="black" points="6,-778 107,-778 "/>
<text text-anchor="middle" x="56.5" y="-766" font-family="monospace" font-size="10.00">fdi</text>
</g>
<!-- lightning_schema -->
<g id="node2" class="node">
<title>lightning_schema</title>
<polygon fill="#5397c8" stroke="black" points="0,-414 0,-452 113,-452 113,-414 0,-414"/>
<text text-anchor="middle" x="56.5" y="-440" font-family="monospace" font-size="10.00">external crate</text>
<polyline fill="none" stroke="black" points="0,-433 113,-433 "/>
<text text-anchor="middle" x="56.5" y="-421" font-family="monospace" font-size="10.00">lightning_schema</text>
</g>
<!-- lightning_types -->
<g id="node3" class="node">
<title>lightning_types</title>
<polygon fill="#5397c8" stroke="black" points="3,-258 3,-296 110,-296 110,-258 3,-258"/>
<text text-anchor="middle" x="56.5" y="-284" font-family="monospace" font-size="10.00">external crate</text>
<polyline fill="none" stroke="black" points="3,-277 110,-277 "/>
<text text-anchor="middle" x="56.5" y="-265" font-family="monospace" font-size="10.00">lightning_types</text>
</g>
<!-- lightning_utils -->
<g id="node4" class="node">
<title>lightning_utils</title>
<polygon fill="#5397c8" stroke="black" points="3,-548 3,-586 110,-586 110,-548 3,-548"/>
<text text-anchor="middle" x="56.5" y="-574" font-family="monospace" font-size="10.00">crate</text>
<polyline fill="none" stroke="black" points="3,-567 110,-567 "/>
<text text-anchor="middle" x="56.5" y="-555" font-family="monospace" font-size="10.00">lightning_utils</text>
</g>
<!-- lightning_utils::application -->
<g id="node5" class="node">
<title>lightning_utils::application</title>
<polygon fill="#81c169" stroke="black" points="876,-781 876,-819 1061,-819 1061,-781 876,-781"/>
<text text-anchor="middle" x="968.5" y="-807" font-family="monospace" font-size="10.00">pub mod</text>
<polyline fill="none" stroke="black" points="876,-800 1061,-800 "/>
<text text-anchor="middle" x="968.5" y="-788" font-family="monospace" font-size="10.00">lightning_utils::application</text>
</g>
<!-- lightning_utils&#45;&gt;lightning_utils::application -->
<g id="edge1" class="edge">
<title>lightning_utils&#45;&gt;lightning_utils::application</title>
<path fill="none" stroke="#000000" d="M91.32,-586.07C192.94,-641.71 482,-800 482,-800 482,-800 722.99,-800 865.74,-800"/>
<polygon fill="#000000" stroke="#000000" points="865.85,-803.5 875.85,-800 865.85,-796.5 865.85,-803.5"/>
<text text-anchor="middle" x="494.5" y="-803" font-family="monospace" font-size="10.00">owns</text>
</g>
<!-- lightning_utils::eth -->
<g id="node6" class="node">
<title>lightning_utils::eth</title>
<polygon fill="#81c169" stroke="black" points="900,-626 900,-664 1037,-664 1037,-626 900,-626"/>
<text text-anchor="middle" x="968.5" y="-652" font-family="monospace" font-size="10.00">pub mod</text>
<polyline fill="none" stroke="black" points="900,-645 1037,-645 "/>
<text text-anchor="middle" x="968.5" y="-633" font-family="monospace" font-size="10.00">lightning_utils::eth</text>
</g>
<!-- lightning_utils&#45;&gt;lightning_utils::eth -->
<g id="edge2" class="edge">
<title>lightning_utils&#45;&gt;lightning_utils::eth</title>
<path fill="none" stroke="#000000" d="M110.39,-576.88C224.89,-597.87 482,-645 482,-645 482,-645 752.04,-645 889.74,-645"/>
<polygon fill="#000000" stroke="#000000" points="889.83,-648.5 899.83,-645 889.83,-641.5 889.83,-648.5"/>
<text text-anchor="middle" x="494.5" y="-648" font-family="monospace" font-size="10.00">owns</text>
</g>
<!-- lightning_utils::rpc -->
<g id="node7" class="node">
<title>lightning_utils::rpc</title>
<polygon fill="#81c169" stroke="black" points="900,-471 900,-509 1037,-509 1037,-471 900,-471"/>
<text text-anchor="middle" x="968.5" y="-497" font-family="monospace" font-size="10.00">pub mod</text>
<polyline fill="none" stroke="black" points="900,-490 1037,-490 "/>
<text text-anchor="middle" x="968.5" y="-478" font-family="monospace" font-size="10.00">lightning_utils::rpc</text>
</g>
<!-- lightning_utils&#45;&gt;lightning_utils::rpc -->
<g id="edge3" class="edge">
<title>lightning_utils&#45;&gt;lightning_utils::rpc</title>
<path fill="none" stroke="#000000" d="M110.39,-559.1C229.97,-541.59 507,-501 507,-501 507,-501 758.09,-495.02 889.86,-491.87"/>
<polygon fill="#000000" stroke="#000000" points="889.99,-495.37 899.91,-491.63 889.83,-488.37 889.99,-495.37"/>
<text text-anchor="middle" x="494.5" y="-493" font-family="monospace" font-size="10.00">owns</text>
</g>
<!-- lightning_utils::shutdown -->
<g id="node8" class="node">
<title>lightning_utils::shutdown</title>
<polygon fill="#81c169" stroke="black" points="885,-316 885,-354 1052,-354 1052,-316 885,-316"/>
<text text-anchor="middle" x="968.5" y="-342" font-family="monospace" font-size="10.00">pub mod</text>
<polyline fill="none" stroke="black" points="885,-335 1052,-335 "/>
<text text-anchor="middle" x="968.5" y="-323" font-family="monospace" font-size="10.00">lightning_utils::shutdown</text>
</g>
<!-- lightning_utils&#45;&gt;lightning_utils::shutdown -->
<g id="edge4" class="edge">
<title>lightning_utils&#45;&gt;lightning_utils::shutdown</title>
<path fill="none" stroke="#000000" d="M95.3,-547.97C204.57,-494.36 507,-346 507,-346 507,-346 739.65,-340.45 874.58,-337.24"/>
<polygon fill="#000000" stroke="#000000" points="875.01,-340.73 884.93,-336.99 874.85,-333.73 875.01,-340.73"/>
<text text-anchor="middle" x="494.5" y="-338" font-family="monospace" font-size="10.00">owns</text>
</g>
<!-- lightning_utils::application&#45;&gt;fdi -->
<g id="edge5" class="edge">
<title>lightning_utils::application&#45;&gt;fdi</title>
<path fill="none" stroke="#7f7f7f" stroke-dasharray="5,2" d="M908.85,-819.01C778.94,-860.4 482,-955 482,-955 482,-955 227,-848.93 111.81,-801.01"/>
<polygon fill="#7f7f7f" stroke="#7f7f7f" points="113.02,-797.72 102.44,-797.11 110.33,-804.18 113.02,-797.72"/>
<text text-anchor="middle" x="494.5" y="-958" font-family="monospace" font-size="10.00">uses</text>
</g>
<!-- lightning_utils::application&#45;&gt;lightning_schema -->
<g id="edge6" class="edge">
<title>lightning_utils::application&#45;&gt;lightning_schema</title>
<path fill="none" stroke="#7f7f7f" stroke-dasharray="5,2" d="M954.44,-780.68C877.09,-674.43 507,-166 507,-166 507,-166 209.17,-342.51 97.84,-408.5"/>
<polygon fill="#7f7f7f" stroke="#7f7f7f" points="95.72,-405.69 88.9,-413.8 99.29,-411.71 95.72,-405.69"/>
<text text-anchor="middle" x="494.5" y="-158" font-family="monospace" font-size="10.00">uses</text>
</g>
<!-- lightning_utils::application&#45;&gt;lightning_types -->
<g id="edge7" class="edge">
<title>lightning_utils::application&#45;&gt;lightning_types</title>
<path fill="none" stroke="#7f7f7f" stroke-dasharray="5,2" d="M957.32,-780.89C886.84,-660.39 507,-11 507,-11 507,-11 209.17,-186.85 97.84,-252.59"/>
<polygon fill="#7f7f7f" stroke="#7f7f7f" points="95.73,-249.77 88.9,-257.87 99.29,-255.8 95.73,-249.77"/>
<text text-anchor="middle" x="494.5" y="-3" font-family="monospace" font-size="10.00">uses</text>
</g>
</g>
</svg>
