<?xml version="1.0" encoding="UTF-8" standalone="no"?>
<!DOCTYPE svg PUBLIC "-//W3C//DTD SVG 1.1//EN"
 "http://www.w3.org/Graphics/SVG/1.1/DTD/svg11.dtd">
<!-- Generated by graphviz version 4.0.0 (0)
 -->
<!-- Pages: 1 -->
<svg width="1917pt" height="1385pt"
 viewBox="0.00 0.00 1916.60 1385.10" xmlns="http://www.w3.org/2000/svg" xmlns:xlink="http://www.w3.org/1999/xlink">
<g id="graph0" class="graph" transform="scale(1 1) rotate(0) translate(28.8 1356.3)">
<polygon fill="white" stroke="transparent" points="-28.8,28.8 -28.8,-1356.3 1887.8,-1356.3 1887.8,28.8 -28.8,28.8"/>
<text text-anchor="middle" x="929.5" y="-1294.7" font-family="Helvetica,sans-Serif" font-size="36.00">lightning_indexer</text>
<!-- lightning_indexer -->
<g id="node1" class="node">
<title>lightning_indexer</title>
<polygon fill="#5397c8" stroke="black" points="0,-931 0,-969 119,-969 119,-931 0,-931"/>
<text text-anchor="middle" x="59.5" y="-957" font-family="monospace" font-size="10.00">crate</text>
<polyline fill="none" stroke="black" points="0,-950 119,-950 "/>
<text text-anchor="middle" x="59.5" y="-938" font-family="monospace" font-size="10.00">lightning_indexer</text>
</g>
<!-- lightning_indexer::Indexer -->
<g id="node2" class="node">
<title>lightning_indexer::Indexer</title>
<polygon fill="#81c169" stroke="black" points="882,-931 882,-969 959,-969 959,-931 882,-931"/>
<text text-anchor="middle" x="920.5" y="-957" font-family="monospace" font-size="10.00">pub struct</text>
<polyline fill="none" stroke="black" points="882,-950 959,-950 "/>
<text text-anchor="middle" x="920.5" y="-938" font-family="monospace" font-size="10.00">Indexer</text>
</g>
<!-- lightning_indexer&#45;&gt;lightning_indexer::Indexer -->
<g id="edge1" class="edge">
<title>lightning_indexer&#45;&gt;lightning_indexer::Indexer</title>
<path fill="none" stroke="#000000" d="M119.08,-950C236.82,-950 488,-950 488,-950 488,-950 758.43,-950 871.61,-950"/>
<polygon fill="#000000" stroke="#000000" points="871.74,-953.5 881.74,-950 871.74,-946.5 871.74,-953.5"/>
<text text-anchor="middle" x="500.5" y="-953" font-family="monospace" font-size="10.00">owns</text>
</g>
<!-- lightning_indexer::Indexer::build_graph -->
<g id="node3" class="node">
<title>lightning_indexer::Indexer::build_graph</title>
<polygon fill="#f8c04c" stroke="black" points="1722,-1241 1722,-1279 1859,-1279 1859,-1241 1722,-1241"/>
<text text-anchor="middle" x="1790.5" y="-1267" font-family="monospace" font-size="10.00">pub(crate) fn</text>
<polyline fill="none" stroke="black" points="1722,-1260 1859,-1260 "/>
<text text-anchor="middle" x="1790.5" y="-1248" font-family="monospace" font-size="10.00">Indexer::build_graph</text>
</g>
<!-- lightning_indexer::Indexer&#45;&gt;lightning_indexer::Indexer::build_graph -->
<g id="edge2" class="edge">
<title>lightning_indexer::Indexer&#45;&gt;lightning_indexer::Indexer::build_graph</title>
<path fill="none" stroke="#000000" d="M945.68,-969.16C1034.53,-1036.74 1328,-1260 1328,-1260 1328,-1260 1579.64,-1260 1711.69,-1260"/>
<polygon fill="#000000" stroke="#000000" points="1711.76,-1263.5 1721.76,-1260 1711.76,-1256.5 1711.76,-1263.5"/>
<text text-anchor="middle" x="1340.5" y="-1263" font-family="monospace" font-size="10.00">owns</text>
</g>
<!-- lightning_indexer::Indexer::get_index -->
<g id="node4" class="node">
<title>lightning_indexer::Indexer::get_index</title>
<polygon fill="#f8c04c" stroke="black" points="1728,-1086 1728,-1124 1853,-1124 1853,-1086 1728,-1086"/>
<text text-anchor="middle" x="1790.5" y="-1112" font-family="monospace" font-size="10.00">pub(crate) fn</text>
<polyline fill="none" stroke="black" points="1728,-1105 1853,-1105 "/>
<text text-anchor="middle" x="1790.5" y="-1093" font-family="monospace" font-size="10.00">Indexer::get_index</text>
</g>
<!-- lightning_indexer::Indexer&#45;&gt;lightning_indexer::Indexer::get_index -->
<g id="edge3" class="edge">
<title>lightning_indexer::Indexer&#45;&gt;lightning_indexer::Indexer::get_index</title>
<path fill="none" stroke="#000000" d="M959.2,-964.72C1060.92,-1003.41 1328,-1105 1328,-1105 1328,-1105 1586.97,-1105 1717.34,-1105"/>
<polygon fill="#000000" stroke="#000000" points="1717.64,-1108.5 1727.64,-1105 1717.64,-1101.5 1717.64,-1108.5"/>
<text text-anchor="middle" x="1340.5" y="-1108" font-family="monospace" font-size="10.00">owns</text>
</g>
<!-- lightning_indexer::Indexer::init -->
<g id="node5" class="node">
<title>lightning_indexer::Indexer::init</title>
<polygon fill="#f8c04c" stroke="black" points="1743,-931 1743,-969 1838,-969 1838,-931 1743,-931"/>
<text text-anchor="middle" x="1790.5" y="-957" font-family="monospace" font-size="10.00">pub(crate) fn</text>
<polyline fill="none" stroke="black" points="1743,-950 1838,-950 "/>
<text text-anchor="middle" x="1790.5" y="-938" font-family="monospace" font-size="10.00">Indexer::init</text>
</g>
<!-- lightning_indexer::Indexer&#45;&gt;lightning_indexer::Indexer::init -->
<g id="edge4" class="edge">
<title>lightning_indexer::Indexer&#45;&gt;lightning_indexer::Indexer::init</title>
<path fill="none" stroke="#000000" d="M959.2,-950C1060.92,-950 1328,-950 1328,-950 1328,-950 1608.58,-950 1732.66,-950"/>
<polygon fill="#000000" stroke="#000000" points="1732.75,-953.5 1742.75,-950 1732.75,-946.5 1732.75,-953.5"/>
<text text-anchor="middle" x="1340.5" y="-953" font-family="monospace" font-size="10.00">owns</text>
</g>
<!-- lightning_indexer::Indexer::register -->
<g id="node6" class="node">
<title>lightning_indexer::Indexer::register</title>
<polygon fill="#f8c04c" stroke="black" points="1725,-776 1725,-814 1856,-814 1856,-776 1725,-776"/>
<text text-anchor="middle" x="1790.5" y="-802" font-family="monospace" font-size="10.00">pub(crate) async fn</text>
<polyline fill="none" stroke="black" points="1725,-795 1856,-795 "/>
<text text-anchor="middle" x="1790.5" y="-783" font-family="monospace" font-size="10.00">Indexer::register</text>
</g>
<!-- lightning_indexer::Indexer&#45;&gt;lightning_indexer::Indexer::register -->
<g id="edge5" class="edge">
<title>lightning_indexer::Indexer&#45;&gt;lightning_indexer::Indexer::register</title>
<path fill="none" stroke="#000000" d="M959.26,-937.09C1065.42,-901.75 1353,-806 1353,-806 1353,-806 1588.86,-800.07 1714.22,-796.92"/>
<polygon fill="#000000" stroke="#000000" points="1714.62,-800.41 1724.53,-796.66 1714.44,-793.41 1714.62,-800.41"/>
<text text-anchor="middle" x="1340.5" y="-798" font-family="monospace" font-size="10.00">owns</text>
</g>
<!-- lightning_indexer::Indexer::unregister -->
<g id="node7" class="node">
<title>lightning_indexer::Indexer::unregister</title>
<polygon fill="#f8c04c" stroke="black" points="1725,-621 1725,-659 1856,-659 1856,-621 1725,-621"/>
<text text-anchor="middle" x="1790.5" y="-647" font-family="monospace" font-size="10.00">pub(crate) async fn</text>
<polyline fill="none" stroke="black" points="1725,-640 1856,-640 "/>
<text text-anchor="middle" x="1790.5" y="-628" font-family="monospace" font-size="10.00">Indexer::unregister</text>
</g>
<!-- lightning_indexer::Indexer&#45;&gt;lightning_indexer::Indexer::unregister -->
<g id="edge6" class="edge">
<title>lightning_indexer::Indexer&#45;&gt;lightning_indexer::Indexer::unregister</title>
<path fill="none" stroke="#000000" d="M948.21,-930.84C1043.67,-864.85 1353,-651 1353,-651 1353,-651 1588.86,-645.07 1714.22,-641.92"/>
<polygon fill="#000000" stroke="#000000" points="1714.62,-645.41 1724.53,-641.66 1714.44,-638.41 1714.62,-645.41"/>
<text text-anchor="middle" x="1340.5" y="-643" font-family="monospace" font-size="10.00">owns</text>
</g>
<!-- lightning_indexer::Indexer::get_index&#45;&gt;lightning_indexer::Indexer -->
<g id="edge7" class="edge">
<title>lightning_indexer::Indexer::get_index&#45;&gt;lightning_indexer::Indexer</title>
<path fill="none" stroke="#7f7f7f" stroke-dasharray="5,2" d="M1776.68,-1085.67C1702.32,-981.65 1353,-493 1353,-493 1353,-493 1037.7,-826.16 945.52,-923.56"/>
<polygon fill="#7f7f7f" stroke="#7f7f7f" points="942.86,-921.28 938.53,-930.95 947.95,-926.09 942.86,-921.28"/>
<text text-anchor="middle" x="1340.5" y="-485" font-family="monospace" font-size="10.00">uses</text>
</g>
<!-- lightning_indexer::Indexer::init&#45;&gt;lightning_indexer::Indexer -->
<g id="edge8" class="edge">
<title>lightning_indexer::Indexer::init&#45;&gt;lightning_indexer::Indexer</title>
<path fill="none" stroke="#7f7f7f" stroke-dasharray="5,2" d="M1776.93,-930.83C1703.08,-826.52 1353,-332 1353,-332 1353,-332 1023.61,-802.66 939.74,-922.5"/>
<polygon fill="#7f7f7f" stroke="#7f7f7f" points="936.78,-920.63 933.92,-930.83 942.52,-924.64 936.78,-920.63"/>
<text text-anchor="middle" x="1340.5" y="-324" font-family="monospace" font-size="10.00">uses</text>
</g>
<!-- lightning_indexer::Indexer::register&#45;&gt;lightning_indexer::Indexer -->
<g id="edge9" class="edge">
<title>lightning_indexer::Indexer::register&#45;&gt;lightning_indexer::Indexer</title>
<path fill="none" stroke="#7f7f7f" stroke-dasharray="5,2" d="M1777.17,-775.83C1703.85,-670.42 1353,-166 1353,-166 1353,-166 1013.57,-781.29 936.11,-921.71"/>
<polygon fill="#7f7f7f" stroke="#7f7f7f" points="932.96,-920.17 931.19,-930.62 939.09,-923.55 932.96,-920.17"/>
<text text-anchor="middle" x="1340.5" y="-158" font-family="monospace" font-size="10.00">uses</text>
</g>
<!-- lightning_indexer::Indexer::unregister&#45;&gt;lightning_indexer::Indexer -->
<g id="edge10" class="edge">
<title>lightning_indexer::Indexer::unregister&#45;&gt;lightning_indexer::Indexer</title>
<path fill="none" stroke="#7f7f7f" stroke-dasharray="5,2" d="M1777.17,-620.83C1703.85,-515.42 1353,-11 1353,-11 1353,-11 1006.26,-763.8 933.71,-921.32"/>
<polygon fill="#7f7f7f" stroke="#7f7f7f" points="930.34,-920.27 929.34,-930.82 936.7,-923.2 930.34,-920.27"/>
<text text-anchor="middle" x="1340.5" y="-3" font-family="monospace" font-size="10.00">uses</text>
</g>
</g>
</svg>
