<?xml version="1.0" encoding="UTF-8" standalone="no"?>
<!DOCTYPE svg PUBLIC "-//W3C//DTD SVG 1.1//EN"
 "http://www.w3.org/Graphics/SVG/1.1/DTD/svg11.dtd">
<!-- Generated by graphviz version 4.0.0 (0)
 -->
<!-- Pages: 1 -->
<svg width="1832pt" height="4050pt"
 viewBox="0.00 0.00 1832.12 4050.00" xmlns="http://www.w3.org/2000/svg" xmlns:xlink="http://www.w3.org/1999/xlink">
<g id="graph0" class="graph" transform="scale(0.883971 0.883971) rotate(0) translate(28.8 4552.8)">
<polygon fill="white" stroke="transparent" points="-28.8,28.8 -28.8,-4552.8 2043.8,-4552.8 2043.8,28.8 -28.8,28.8"/>
<text text-anchor="middle" x="1007.5" y="-4491.2" font-family="Helvetica,sans-Serif" font-size="36.00">blake3_tree</text>
<!-- blake3::platform -->
<g id="node1" class="node">
<title>blake3::platform</title>
<polygon fill="#81c169" stroke="black" points="0,-1740.5 0,-1778.5 113,-1778.5 113,-1740.5 0,-1740.5"/>
<text text-anchor="middle" x="56.5" y="-1766.5" font-family="monospace" font-size="10.00">external mod</text>
<polyline fill="none" stroke="black" points="0,-1759.5 113,-1759.5 "/>
<text text-anchor="middle" x="56.5" y="-1747.5" font-family="monospace" font-size="10.00">blake3::platform</text>
</g>
<!-- blake3_tree -->
<g id="node2" class="node">
<title>blake3_tree</title>
<polygon fill="#5397c8" stroke="black" points="15,-1551.5 15,-1589.5 98,-1589.5 98,-1551.5 15,-1551.5"/>
<text text-anchor="middle" x="56.5" y="-1577.5" font-family="monospace" font-size="10.00">crate</text>
<polyline fill="none" stroke="black" points="15,-1570.5 98,-1570.5 "/>
<text text-anchor="middle" x="56.5" y="-1558.5" font-family="monospace" font-size="10.00">blake3_tree</text>
</g>
<!-- blake3_tree::directory -->
<g id="node3" class="node">
<title>blake3_tree::directory</title>
<polygon fill="#81c169" stroke="black" points="876,-1667.5 876,-1705.5 1025,-1705.5 1025,-1667.5 876,-1667.5"/>
<text text-anchor="middle" x="950.5" y="-1693.5" font-family="monospace" font-size="10.00">pub mod</text>
<polyline fill="none" stroke="black" points="876,-1686.5 1025,-1686.5 "/>
<text text-anchor="middle" x="950.5" y="-1674.5" font-family="monospace" font-size="10.00">blake3_tree::directory</text>
</g>
<!-- blake3_tree&#45;&gt;blake3_tree::directory -->
<g id="edge1" class="edge">
<title>blake3_tree&#45;&gt;blake3_tree::directory</title>
<path fill="none" stroke="#000000" d="M98.07,-1581.83C205.14,-1611.02 482,-1686.5 482,-1686.5 482,-1686.5 730.37,-1686.5 865.43,-1686.5"/>
<polygon fill="#000000" stroke="#000000" points="865.75,-1690 875.75,-1686.5 865.75,-1683 865.75,-1690"/>
<text text-anchor="middle" x="494.5" y="-1689.5" font-family="monospace" font-size="10.00">owns</text>
</g>
<!-- blake3_tree::utils -->
<g id="node8" class="node">
<title>blake3_tree::utils</title>
<polygon fill="#81c169" stroke="black" points="888,-1512.5 888,-1550.5 1013,-1550.5 1013,-1512.5 888,-1512.5"/>
<text text-anchor="middle" x="950.5" y="-1538.5" font-family="monospace" font-size="10.00">pub mod</text>
<polyline fill="none" stroke="black" points="888,-1531.5 1013,-1531.5 "/>
<text text-anchor="middle" x="950.5" y="-1519.5" font-family="monospace" font-size="10.00">blake3_tree::utils</text>
</g>
<!-- blake3_tree&#45;&gt;blake3_tree::utils -->
<g id="edge2" class="edge">
<title>blake3_tree&#45;&gt;blake3_tree::utils</title>
<path fill="none" stroke="#000000" d="M98.07,-1567.92C209.6,-1560.98 507,-1542.5 507,-1542.5 507,-1542.5 751.7,-1536.43 877.57,-1533.31"/>
<polygon fill="#000000" stroke="#000000" points="877.99,-1536.8 887.9,-1533.05 877.81,-1529.8 877.99,-1536.8"/>
<text text-anchor="middle" x="494.5" y="-1534.5" font-family="monospace" font-size="10.00">owns</text>
</g>
<!-- fleek_blake3 -->
<g id="node9" class="node">
<title>fleek_blake3</title>
<polygon fill="#5397c8" stroke="black" points="6,-72.5 6,-110.5 107,-110.5 107,-72.5 6,-72.5"/>
<text text-anchor="middle" x="56.5" y="-98.5" font-family="monospace" font-size="10.00">external crate</text>
<polyline fill="none" stroke="black" points="6,-91.5 107,-91.5 "/>
<text text-anchor="middle" x="56.5" y="-79.5" font-family="monospace" font-size="10.00">fleek_blake3</text>
</g>
<!-- blake3_tree&#45;&gt;fleek_blake3 -->
<g id="edge3" class="edge">
<title>blake3_tree&#45;&gt;fleek_blake3</title>
</g>
<!-- blake3_tree::directory::builder -->
<g id="node4" class="node">
<title>blake3_tree::directory::builder</title>
<polygon fill="#db5367" stroke="black" points="1812,-4437.5 1812,-4475.5 2015,-4475.5 2015,-4437.5 1812,-4437.5"/>
<text text-anchor="middle" x="1913.5" y="-4463.5" font-family="monospace" font-size="10.00">pub(self) mod</text>
<polyline fill="none" stroke="black" points="1812,-4456.5 2015,-4456.5 "/>
<text text-anchor="middle" x="1913.5" y="-4444.5" font-family="monospace" font-size="10.00">blake3_tree::directory::builder</text>
</g>
<!-- blake3_tree::directory&#45;&gt;blake3_tree::directory::builder -->
<g id="edge4" class="edge">
<title>blake3_tree::directory&#45;&gt;blake3_tree::directory::builder</title>
<path fill="none" stroke="#000000" d="M958.24,-1705.77C1019.15,-1857.37 1419,-2852.5 1419,-2852.5 1419,-2852.5 1837.97,-4211.52 1904.61,-4427.68"/>
<polygon fill="#000000" stroke="#000000" points="1901.31,-4428.84 1907.6,-4437.37 1908,-4426.78 1901.31,-4428.84"/>
<text text-anchor="middle" x="1406.5" y="-2844.5" font-family="monospace" font-size="10.00">owns</text>
</g>
<!-- blake3_tree::directory&#45;&gt;blake3_tree::directory::builder -->
<g id="edge5" class="edge">
<title>blake3_tree::directory&#45;&gt;blake3_tree::directory::builder</title>
<path fill="none" stroke="#7f7f7f" stroke-dasharray="5,2" d="M959.86,-1705.76C1025.89,-1841.62 1419,-2650.5 1419,-2650.5 1419,-2650.5 1842.32,-4196.54 1905.62,-4427.72"/>
<polygon fill="#7f7f7f" stroke="#7f7f7f" points="1902.26,-4428.72 1908.28,-4437.44 1909.02,-4426.87 1902.26,-4428.72"/>
<text text-anchor="middle" x="1406.5" y="-2642.5" font-family="monospace" font-size="10.00">uses</text>
</g>
<!-- blake3_tree::directory::hash -->
<g id="node5" class="node">
<title>blake3_tree::directory::hash</title>
<polygon fill="#db5367" stroke="black" points="1821,-2958.5 1821,-2996.5 2006,-2996.5 2006,-2958.5 1821,-2958.5"/>
<text text-anchor="middle" x="1913.5" y="-2984.5" font-family="monospace" font-size="10.00">pub(self) mod</text>
<polyline fill="none" stroke="black" points="1821,-2977.5 2006,-2977.5 "/>
<text text-anchor="middle" x="1913.5" y="-2965.5" font-family="monospace" font-size="10.00">blake3_tree::directory::hash</text>
</g>
<!-- blake3_tree::directory&#45;&gt;blake3_tree::directory::hash -->
<g id="edge6" class="edge">
<title>blake3_tree::directory&#45;&gt;blake3_tree::directory::hash</title>
<path fill="none" stroke="#000000" d="M962.59,-1705.72C1033.67,-1818.71 1394,-2391.5 1394,-2391.5 1394,-2391.5 1787.85,-2835.76 1889.69,-2950.64"/>
<polygon fill="#000000" stroke="#000000" points="1887.26,-2953.17 1896.51,-2958.34 1892.5,-2948.53 1887.26,-2953.17"/>
<text text-anchor="middle" x="1406.5" y="-2394.5" font-family="monospace" font-size="10.00">owns</text>
</g>
<!-- blake3_tree::directory&#45;&gt;blake3_tree::directory::hash -->
<g id="edge7" class="edge">
<title>blake3_tree::directory&#45;&gt;blake3_tree::directory::hash</title>
<path fill="none" stroke="#7f7f7f" stroke-dasharray="5,2" d="M974.38,-1705.56C1069.85,-1781.77 1419,-2060.5 1419,-2060.5 1419,-2060.5 1815.39,-2795.56 1898.38,-2949.46"/>
<polygon fill="#7f7f7f" stroke="#7f7f7f" points="1895.34,-2951.21 1903.17,-2958.35 1901.51,-2947.88 1895.34,-2951.21"/>
<text text-anchor="middle" x="1406.5" y="-2052.5" font-family="monospace" font-size="10.00">uses</text>
</g>
<!-- blake3_tree::directory::proof -->
<g id="node6" class="node">
<title>blake3_tree::directory::proof</title>
<polygon fill="#db5367" stroke="black" points="1818,-1479.5 1818,-1517.5 2009,-1517.5 2009,-1479.5 1818,-1479.5"/>
<text text-anchor="middle" x="1913.5" y="-1505.5" font-family="monospace" font-size="10.00">pub(self) mod</text>
<polyline fill="none" stroke="black" points="1818,-1498.5 2009,-1498.5 "/>
<text text-anchor="middle" x="1913.5" y="-1486.5" font-family="monospace" font-size="10.00">blake3_tree::directory::proof</text>
</g>
<!-- blake3_tree::directory&#45;&gt;blake3_tree::directory::proof -->
<g id="edge8" class="edge">
<title>blake3_tree::directory&#45;&gt;blake3_tree::directory::proof</title>
<path fill="none" stroke="#000000" d="M1008.42,-1667.46C1133.76,-1626.26 1419,-1532.5 1419,-1532.5 1419,-1532.5 1662.29,-1515.77 1807.58,-1505.78"/>
<polygon fill="#000000" stroke="#000000" points="1808.13,-1509.25 1817.86,-1505.08 1807.65,-1502.27 1808.13,-1509.25"/>
<text text-anchor="middle" x="1406.5" y="-1524.5" font-family="monospace" font-size="10.00">owns</text>
</g>
<!-- blake3_tree::directory&#45;&gt;blake3_tree::directory::proof -->
<g id="edge9" class="edge">
<title>blake3_tree::directory&#45;&gt;blake3_tree::directory::proof</title>
<path fill="none" stroke="#7f7f7f" stroke-dasharray="5,2" d="M979.45,-1667.34C1081.6,-1599.76 1419,-1376.5 1419,-1376.5 1419,-1376.5 1684.27,-1441.95 1826.23,-1476.97"/>
<polygon fill="#7f7f7f" stroke="#7f7f7f" points="1825.69,-1480.44 1836.23,-1479.44 1827.36,-1473.64 1825.69,-1480.44"/>
<text text-anchor="middle" x="1406.5" y="-1368.5" font-family="monospace" font-size="10.00">uses</text>
</g>
<!-- blake3_tree::directory::types -->
<g id="node7" class="node">
<title>blake3_tree::directory::types</title>
<polygon fill="#db5367" stroke="black" points="1818,-0.5 1818,-38.5 2009,-38.5 2009,-0.5 1818,-0.5"/>
<text text-anchor="middle" x="1913.5" y="-26.5" font-family="monospace" font-size="10.00">pub(self) mod</text>
<polyline fill="none" stroke="black" points="1818,-19.5 2009,-19.5 "/>
<text text-anchor="middle" x="1913.5" y="-7.5" font-family="monospace" font-size="10.00">blake3_tree::directory::types</text>
</g>
<!-- blake3_tree::directory&#45;&gt;blake3_tree::directory::types -->
<g id="edge10" class="edge">
<title>blake3_tree::directory&#45;&gt;blake3_tree::directory::types</title>
<path fill="none" stroke="#000000" d="M968.16,-1667.47C1050.65,-1578.56 1394,-1208.5 1394,-1208.5 1394,-1208.5 1821.97,-228.98 1901.03,-48.05"/>
<polygon fill="#000000" stroke="#000000" points="1904.33,-49.22 1905.13,-38.66 1897.92,-46.42 1904.33,-49.22"/>
<text text-anchor="middle" x="1406.5" y="-1211.5" font-family="monospace" font-size="10.00">owns</text>
</g>
<!-- blake3_tree::directory&#45;&gt;blake3_tree::directory::types -->
<g id="edge11" class="edge">
<title>blake3_tree::directory&#45;&gt;blake3_tree::directory::types</title>
<path fill="none" stroke="#7f7f7f" stroke-dasharray="5,2" d="M963.77,-1667.41C1037.57,-1561.25 1394,-1048.5 1394,-1048.5 1394,-1048.5 1815.73,-213.16 1899.23,-47.76"/>
<polygon fill="#7f7f7f" stroke="#7f7f7f" points="1902.43,-49.19 1903.81,-38.69 1896.18,-46.03 1902.43,-49.19"/>
<text text-anchor="middle" x="1406.5" y="-1051.5" font-family="monospace" font-size="10.00">uses</text>
</g>
<!-- blake3_tree::directory::builder&#45;&gt;blake3_tree::directory::hash -->
<g id="edge12" class="edge">
<title>blake3_tree::directory::builder&#45;&gt;blake3_tree::directory::hash</title>
</g>
<!-- blake3_tree::directory::builder&#45;&gt;blake3_tree::directory::types -->
<g id="edge13" class="edge">
<title>blake3_tree::directory::builder&#45;&gt;blake3_tree::directory::types</title>
<path fill="none" stroke="#7f7f7f" stroke-dasharray="5,2" d="M1912.74,-4437.2C1901.48,-4151.48 1769,-788.5 1769,-788.5 1769,-788.5 1881.73,-188.59 1908.05,-48.5"/>
<polygon fill="#7f7f7f" stroke="#7f7f7f" points="1911.52,-48.98 1909.93,-38.51 1904.64,-47.69 1911.52,-48.98"/>
<text text-anchor="middle" x="1763.5" y="-786" font-family="monospace" font-size="10.00">uses</text>
</g>
<!-- blake3_tree::directory::builder&#45;&gt;blake3_tree::utils -->
<g id="edge14" class="edge">
<title>blake3_tree::directory::builder&#45;&gt;blake3_tree::utils</title>
<path fill="none" stroke="#7f7f7f" stroke-dasharray="5,2" d="M1910.84,-4437.38C1871.92,-4157.64 1419,-902.5 1419,-902.5 1419,-902.5 1060.7,-1383.55 970.78,-1504.27"/>
<polygon fill="#7f7f7f" stroke="#7f7f7f" points="967.94,-1502.22 964.78,-1512.33 973.56,-1506.4 967.94,-1502.22"/>
<text text-anchor="middle" x="1406.5" y="-894.5" font-family="monospace" font-size="10.00">uses</text>
</g>
<!-- blake3_tree::directory::hash&#45;&gt;blake3::platform -->
<g id="edge15" class="edge">
<title>blake3_tree::directory::hash&#45;&gt;blake3::platform</title>
<path fill="none" stroke="#7f7f7f" stroke-dasharray="5,2" d="M1875.86,-2958.48C1696.58,-2867.87 938,-2484.5 938,-2484.5 938,-2484.5 243.77,-1913.52 87.49,-1784.99"/>
<polygon fill="#7f7f7f" stroke="#7f7f7f" points="89.57,-1782.17 79.62,-1778.52 85.12,-1787.57 89.57,-1782.17"/>
<text text-anchor="middle" x="950.5" y="-2487.5" font-family="monospace" font-size="10.00">uses</text>
</g>
<!-- blake3_tree::directory::hash&#45;&gt;blake3_tree::directory::types -->
<g id="edge16" class="edge">
<title>blake3_tree::directory::hash&#45;&gt;blake3_tree::directory::types</title>
<path fill="none" stroke="#7f7f7f" stroke-dasharray="5,2" d="M1911.67,-2958.33C1894.95,-2782.84 1769,-1461.5 1769,-1461.5 1769,-1461.5 1890.18,-252.26 1910.6,-48.49"/>
<polygon fill="#7f7f7f" stroke="#7f7f7f" points="1914.08,-48.83 1911.59,-38.53 1907.11,-48.13 1914.08,-48.83"/>
<text text-anchor="middle" x="1763.5" y="-1459" font-family="monospace" font-size="10.00">uses</text>
</g>
<!-- blake3_tree::directory::hash&#45;&gt;blake3_tree::utils -->
<g id="edge17" class="edge">
<title>blake3_tree::directory::hash&#45;&gt;blake3_tree::utils</title>
<path fill="none" stroke="#7f7f7f" stroke-dasharray="5,2" d="M1909.23,-2958.19C1860.89,-2739.84 1419,-743.5 1419,-743.5 1419,-743.5 1050.52,-1363.26 967.14,-1503.52"/>
<polygon fill="#7f7f7f" stroke="#7f7f7f" points="963.95,-1502.03 961.85,-1512.41 969.97,-1505.6 963.95,-1502.03"/>
<text text-anchor="middle" x="1406.5" y="-735.5" font-family="monospace" font-size="10.00">uses</text>
</g>
<!-- blake3_tree::directory::proof&#45;&gt;blake3_tree -->
<g id="edge18" class="edge">
<title>blake3_tree::directory::proof&#45;&gt;blake3_tree</title>
<path fill="none" stroke="#7f7f7f" stroke-dasharray="5,2" d="M1817.57,-1490.43C1576.23,-1470.11 963,-1418.5 963,-1418.5 963,-1418.5 300.52,-1529.58 108.23,-1561.83"/>
<polygon fill="#7f7f7f" stroke="#7f7f7f" points="107.39,-1558.42 98.1,-1563.52 108.55,-1565.32 107.39,-1558.42"/>
<text text-anchor="middle" x="950.5" y="-1410.5" font-family="monospace" font-size="10.00">uses</text>
</g>
<!-- blake3_tree::directory::proof&#45;&gt;blake3_tree::directory::hash -->
<g id="edge19" class="edge">
<title>blake3_tree::directory::proof&#45;&gt;blake3_tree::directory::hash</title>
</g>
<!-- blake3_tree::directory::proof&#45;&gt;blake3_tree::directory::types -->
<g id="edge20" class="edge">
<title>blake3_tree::directory::proof&#45;&gt;blake3_tree::directory::types</title>
</g>
<!-- blake3_tree::directory::types&#45;&gt;blake3_tree -->
<g id="edge21" class="edge">
<title>blake3_tree::directory::types&#45;&gt;blake3_tree</title>
<path fill="none" stroke="#7f7f7f" stroke-dasharray="5,2" d="M1862.73,-38.62C1665.77,-112.81 963,-377.5 963,-377.5 963,-377.5 212.49,-1365.21 77.25,-1543.19"/>
<polygon fill="#7f7f7f" stroke="#7f7f7f" points="74.37,-1541.2 71.11,-1551.28 79.94,-1545.43 74.37,-1541.2"/>
<text text-anchor="middle" x="950.5" y="-369.5" font-family="monospace" font-size="10.00">uses</text>
</g>
<!-- blake3_tree::directory::types&#45;&gt;blake3_tree::directory::hash -->
<g id="edge22" class="edge">
<title>blake3_tree::directory::types&#45;&gt;blake3_tree::directory::hash</title>
<path fill="none" stroke="#7f7f7f" stroke-dasharray="5,2" d="M1911.59,-38.53C1894.55,-208.6 1769,-1461.5 1769,-1461.5 1769,-1461.5 1890.68,-2738.06 1910.72,-2948.34"/>
<polygon fill="#7f7f7f" stroke="#7f7f7f" points="1907.24,-2948.71 1911.67,-2958.33 1914.21,-2948.05 1907.24,-2948.71"/>
<text text-anchor="middle" x="1763.5" y="-1459" font-family="monospace" font-size="10.00">uses</text>
</g>
<!-- blake3_tree::directory::types&#45;&gt;blake3_tree::directory::proof -->
<g id="edge23" class="edge">
<title>blake3_tree::directory::types&#45;&gt;blake3_tree::directory::proof</title>
</g>
<!-- blake3_tree::directory::types&#45;&gt;blake3_tree::utils -->
<g id="edge24" class="edge">
<title>blake3_tree::directory::types&#45;&gt;blake3_tree::utils</title>
<path fill="none" stroke="#7f7f7f" stroke-dasharray="5,2" d="M1896.48,-38.81C1809.53,-137.46 1419,-580.5 1419,-580.5 1419,-580.5 1042.65,-1344.44 964.58,-1502.93"/>
<polygon fill="#7f7f7f" stroke="#7f7f7f" points="961.35,-1501.56 960.07,-1512.07 967.63,-1504.65 961.35,-1501.56"/>
<text text-anchor="middle" x="1406.5" y="-572.5" font-family="monospace" font-size="10.00">uses</text>
</g>
</g>
</svg>
