<?xml version="1.0" encoding="UTF-8" standalone="no"?>
<!DOCTYPE svg PUBLIC "-//W3C//DTD SVG 1.1//EN"
 "http://www.w3.org/Graphics/SVG/1.1/DTD/svg11.dtd">
<!-- Generated by graphviz version 4.0.0 (0)
 -->
<!-- Pages: 1 -->
<svg width="195pt" height="239pt"
 viewBox="0.00 0.00 194.60 238.61" xmlns="http://www.w3.org/2000/svg" xmlns:xlink="http://www.w3.org/1999/xlink">
<g id="graph0" class="graph" transform="scale(1 1) rotate(0) translate(28.8 209.81)">
<polygon fill="white" stroke="transparent" points="-28.8,28.8 -28.8,-209.81 165.8,-209.81 165.8,28.8 -28.8,28.8"/>
<text text-anchor="middle" x="68.5" y="-148.21" font-family="Helvetica,sans-Serif" font-size="36.00">affair</text>
<!-- affair -->
<g id="node1" class="node">
<title>affair</title>
<polygon fill="#5397c8" stroke="black" points="41.5,-47.5 41.5,-85.5 95.5,-85.5 95.5,-47.5 41.5,-47.5"/>
<text text-anchor="middle" x="68.5" y="-73.5" font-family="monospace" font-size="10.00">crate</text>
<polyline fill="none" stroke="black" points="41.5,-66.5 95.5,-66.5 "/>
<text text-anchor="middle" x="68.5" y="-54.5" font-family="monospace" font-size="10.00">affair</text>
</g>
<!-- tokio::sync::mpsc -->
<g id="node2" class="node">
<title>tokio::sync::mpsc</title>
<polygon fill="#81c169" stroke="black" points="9,-94.51 9,-132.51 128,-132.51 128,-94.51 9,-94.51"/>
<text text-anchor="middle" x="68.5" y="-120.51" font-family="monospace" font-size="10.00">external mod</text>
<polyline fill="none" stroke="black" points="9,-113.51 128,-113.51 "/>
<text text-anchor="middle" x="68.5" y="-101.51" font-family="monospace" font-size="10.00">tokio::sync::mpsc</text>
</g>
<!-- affair&#45;&gt;tokio::sync::mpsc -->
<g id="edge1" class="edge">
<title>affair&#45;&gt;tokio::sync::mpsc</title>
<path fill="none" stroke="#7f7f7f" stroke-dasharray="5,2" d="M68.5,-85.62C68.5,-85.71 68.5,-85.8 68.5,-85.89"/>
<polygon fill="#7f7f7f" stroke="#7f7f7f" points="65,-84.26 68.5,-94.26 72,-84.26 65,-84.26"/>
<text text-anchor="middle" x="56" y="-88.76" font-family="monospace" font-size="10.00">uses</text>
</g>
<!-- tokio::sync::oneshot -->
<g id="node3" class="node">
<title>tokio::sync::oneshot</title>
<polygon fill="#81c169" stroke="black" points="0,-0.5 0,-38.5 137,-38.5 137,-0.5 0,-0.5"/>
<text text-anchor="middle" x="68.5" y="-26.5" font-family="monospace" font-size="10.00">external mod</text>
<polyline fill="none" stroke="black" points="0,-19.5 137,-19.5 "/>
<text text-anchor="middle" x="68.5" y="-7.5" font-family="monospace" font-size="10.00">tokio::sync::oneshot</text>
</g>
<!-- affair&#45;&gt;tokio::sync::oneshot -->
<g id="edge2" class="edge">
<title>affair&#45;&gt;tokio::sync::oneshot</title>
<path fill="none" stroke="#7f7f7f" stroke-dasharray="5,2" d="M68.5,-47.39C68.5,-47.3 68.5,-47.21 68.5,-47.12"/>
<polygon fill="#7f7f7f" stroke="#7f7f7f" points="72,-48.75 68.5,-38.75 65,-48.75 72,-48.75"/>
<text text-anchor="middle" x="56" y="-39.25" font-family="monospace" font-size="10.00">uses</text>
</g>
</g>
</svg>
