<?xml version="1.0" encoding="UTF-8" standalone="no"?>
<!DOCTYPE svg PUBLIC "-//W3C//DTD SVG 1.1//EN"
 "http://www.w3.org/Graphics/SVG/1.1/DTD/svg11.dtd">
<!-- Generated by graphviz version 4.0.0 (0)
 -->
<!-- Pages: 1 -->
<svg width="996pt" height="952pt"
 viewBox="0.00 0.00 996.40 952.40" xmlns="http://www.w3.org/2000/svg" xmlns:xlink="http://www.w3.org/1999/xlink">
<g id="graph0" class="graph" transform="scale(1 1) rotate(0) translate(28.8 923.6)">
<polygon fill="white" stroke="transparent" points="-28.8,28.8 -28.8,-923.6 967.6,-923.6 967.6,28.8 -28.8,28.8"/>
<text text-anchor="middle" x="469.4" y="-862" font-family="Helvetica,sans-Serif" font-size="36.00">lightning_signer</text>
<!-- lightning_signer -->
<g id="node1" class="node">
<title>lightning_signer</title>
<polygon fill="#5397c8" stroke="black" points="290.27,-440.47 290.27,-478.47 403.27,-478.47 403.27,-440.47 290.27,-440.47"/>
<text text-anchor="middle" x="346.77" y="-466.47" font-family="monospace" font-size="10.00">crate</text>
<polyline fill="none" stroke="black" points="290.27,-459.47 403.27,-459.47 "/>
<text text-anchor="middle" x="346.77" y="-447.47" font-family="monospace" font-size="10.00">lightning_signer</text>
</g>
<!-- lightning_signer::PendingTransaction -->
<g id="node2" class="node">
<title>lightning_signer::PendingTransaction</title>
<polygon fill="#f8c04c" stroke="black" points="418.21,-404.58 418.21,-442.58 543.21,-442.58 543.21,-404.58 418.21,-404.58"/>
<text text-anchor="middle" x="480.71" y="-430.58" font-family="monospace" font-size="10.00">pub(crate) struct</text>
<polyline fill="none" stroke="black" points="418.21,-423.58 543.21,-423.58 "/>
<text text-anchor="middle" x="480.71" y="-411.58" font-family="monospace" font-size="10.00">PendingTransaction</text>
</g>
<!-- lightning_signer&#45;&gt;lightning_signer::PendingTransaction -->
<g id="edge1" class="edge">
<title>lightning_signer&#45;&gt;lightning_signer::PendingTransaction</title>
<path fill="none" stroke="#000000" d="M403.57,-444.25C405.04,-443.86 406.52,-443.46 408,-443.07"/>
<polygon fill="#000000" stroke="#000000" points="409.04,-446.41 417.8,-440.44 407.23,-439.65 409.04,-446.41"/>
<text text-anchor="middle" x="418.28" y="-446.66" font-family="monospace" font-size="10.00">owns</text>
</g>
<!-- lightning_signer::Signer -->
<g id="node3" class="node">
<title>lightning_signer::Signer</title>
<polygon fill="#81c169" stroke="black" points="303.52,-645.81 303.52,-683.81 380.52,-683.81 380.52,-645.81 303.52,-645.81"/>
<text text-anchor="middle" x="342.02" y="-671.81" font-family="monospace" font-size="10.00">pub struct</text>
<polyline fill="none" stroke="black" points="303.52,-664.81 380.52,-664.81 "/>
<text text-anchor="middle" x="342.02" y="-652.81" font-family="monospace" font-size="10.00">Signer</text>
</g>
<!-- lightning_signer&#45;&gt;lightning_signer::Signer -->
<g id="edge2" class="edge">
<title>lightning_signer&#45;&gt;lightning_signer::Signer</title>
<path fill="none" stroke="#000000" d="M346.32,-478.79C345.48,-514.96 343.67,-593.09 342.69,-635.68"/>
<polygon fill="#000000" stroke="#000000" points="339.19,-635.62 342.46,-645.7 346.19,-635.78 339.19,-635.62"/>
<text text-anchor="middle" x="332" y="-560.24" font-family="monospace" font-size="10.00">owns</text>
</g>
<!-- lightning_signer::SignerInner -->
<g id="node12" class="node">
<title>lightning_signer::SignerInner</title>
<polygon fill="#f8c04c" stroke="black" points="421.9,-125.63 421.9,-163.63 540.9,-163.63 540.9,-125.63 421.9,-125.63"/>
<text text-anchor="middle" x="481.4" y="-151.63" font-family="monospace" font-size="10.00">pub(crate) struct</text>
<polyline fill="none" stroke="black" points="421.9,-144.63 540.9,-144.63 "/>
<text text-anchor="middle" x="481.4" y="-132.63" font-family="monospace" font-size="10.00">SignerInner</text>
</g>
<!-- lightning_signer&#45;&gt;lightning_signer::SignerInner -->
<g id="edge3" class="edge">
<title>lightning_signer&#45;&gt;lightning_signer::SignerInner</title>
<path fill="none" stroke="#000000" d="M354.98,-440.25C377.8,-386.9 442.01,-236.74 469.1,-173.4"/>
<polygon fill="#000000" stroke="#000000" points="472.4,-174.57 473.12,-164 465.97,-171.82 472.4,-174.57"/>
<text text-anchor="middle" x="399.54" y="-309.82" font-family="monospace" font-size="10.00">owns</text>
</g>
<!-- lightning_signer::config::SignerConfig -->
<g id="node16" class="node">
<title>lightning_signer::config::SignerConfig</title>
<polygon fill="#81c169" stroke="black" points="610.01,-207.28 610.01,-245.28 747.01,-245.28 747.01,-207.28 610.01,-207.28"/>
<text text-anchor="middle" x="678.51" y="-233.28" font-family="monospace" font-size="10.00">pub struct</text>
<polyline fill="none" stroke="black" points="610.01,-226.28 747.01,-226.28 "/>
<text text-anchor="middle" x="678.51" y="-214.28" font-family="monospace" font-size="10.00">config::SignerConfig</text>
</g>
<!-- lightning_signer&#45;&gt;lightning_signer::config::SignerConfig -->
<g id="edge4" class="edge">
<title>lightning_signer&#45;&gt;lightning_signer::config::SignerConfig</title>
<path fill="none" stroke="#000000" d="M403.28,-443.3C482.33,-402.12 619.86,-303.42 664.79,-253.4"/>
<polygon fill="#000000" stroke="#000000" points="667.65,-255.42 671.4,-245.51 662.29,-250.92 667.65,-255.42"/>
<text text-anchor="middle" x="521.53" y="-351.35" font-family="monospace" font-size="10.00">owns</text>
</g>
<!-- lightning_signer&#45;&gt;lightning_signer::config::SignerConfig -->
<g id="edge5" class="edge">
<title>lightning_signer&#45;&gt;lightning_signer::config::SignerConfig</title>
<path fill="none" stroke="#7f7f7f" stroke-dasharray="5,2" d="M353.9,-440.22C387.98,-396.06 522.42,-297.67 607.54,-250.26"/>
<polygon fill="#7f7f7f" stroke="#7f7f7f" points="609.29,-253.29 616.39,-245.42 605.93,-247.15 609.29,-253.29"/>
<text text-anchor="middle" x="468.22" y="-348.24" font-family="monospace" font-size="10.00">uses</text>
</g>
<!-- lightning_signer::Signer::Config -->
<g id="node4" class="node">
<title>lightning_signer::Signer::Config</title>
<polygon fill="#f8c04c" stroke="black" points="831.8,-512.62 831.8,-550.62 938.8,-550.62 938.8,-512.62 831.8,-512.62"/>
<text text-anchor="middle" x="885.3" y="-538.62" font-family="monospace" font-size="10.00">pub(crate) type</text>
<polyline fill="none" stroke="black" points="831.8,-531.62 938.8,-531.62 "/>
<text text-anchor="middle" x="885.3" y="-519.62" font-family="monospace" font-size="10.00">Signer::Config</text>
</g>
<!-- lightning_signer::Signer&#45;&gt;lightning_signer::Signer::Config -->
<g id="edge6" class="edge">
<title>lightning_signer::Signer&#45;&gt;lightning_signer::Signer::Config</title>
<path fill="none" stroke="#000000" d="M380.65,-655.34C473.13,-632.67 707.96,-575.1 821.67,-547.22"/>
<polygon fill="#000000" stroke="#000000" points="822.75,-550.56 831.62,-544.78 821.08,-543.76 822.75,-550.56"/>
<text text-anchor="middle" x="588.66" y="-604.28" font-family="monospace" font-size="10.00">owns</text>
</g>
<!-- lightning_signer::Signer::get_socket -->
<g id="node5" class="node">
<title>lightning_signer::Signer::get_socket</title>
<polygon fill="#f8c04c" stroke="black" points="714.57,-700.07 714.57,-738.07 839.57,-738.07 839.57,-700.07 714.57,-700.07"/>
<text text-anchor="middle" x="777.07" y="-726.07" font-family="monospace" font-size="10.00">pub(crate) fn</text>
<polyline fill="none" stroke="black" points="714.57,-719.07 839.57,-719.07 "/>
<text text-anchor="middle" x="777.07" y="-707.07" font-family="monospace" font-size="10.00">Signer::get_socket</text>
</g>
<!-- lightning_signer::Signer&#45;&gt;lightning_signer::Signer::get_socket -->
<g id="edge7" class="edge">
<title>lightning_signer::Signer&#45;&gt;lightning_signer::Signer::get_socket</title>
<path fill="none" stroke="#000000" d="M372.85,-683.87C441.31,-706.31 607.43,-728.85 704.08,-730.65"/>
<polygon fill="#000000" stroke="#000000" points="704.32,-734.15 714.35,-730.76 704.39,-727.15 704.32,-734.15"/>
<text text-anchor="middle" x="525.96" y="-710.26" font-family="monospace" font-size="10.00">owns</text>
</g>
<!-- lightning_signer::Signer::init -->
<g id="node6" class="node">
<title>lightning_signer::Signer::init</title>
<polygon fill="#f8c04c" stroke="black" points="542.12,-808.3 542.12,-846.3 637.12,-846.3 637.12,-808.3 542.12,-808.3"/>
<text text-anchor="middle" x="589.62" y="-834.3" font-family="monospace" font-size="10.00">pub(crate) fn</text>
<polyline fill="none" stroke="black" points="542.12,-827.3 637.12,-827.3 "/>
<text text-anchor="middle" x="589.62" y="-815.3" font-family="monospace" font-size="10.00">Signer::init</text>
</g>
<!-- lightning_signer::Signer&#45;&gt;lightning_signer::Signer::init -->
<g id="edge8" class="edge">
<title>lightning_signer::Signer&#45;&gt;lightning_signer::Signer::init</title>
<path fill="none" stroke="#000000" d="M347.9,-684.11C374.29,-719.72 469.39,-785.53 532.49,-815.46"/>
<polygon fill="#000000" stroke="#000000" points="531.39,-818.8 541.94,-819.77 534.3,-812.44 531.39,-818.8"/>
<text text-anchor="middle" x="427.69" y="-752.78" font-family="monospace" font-size="10.00">owns</text>
</g>
<!-- lightning_signer::Signer::is_running -->
<g id="node7" class="node">
<title>lightning_signer::Signer::is_running</title>
<polygon fill="#f8c04c" stroke="black" points="310.67,-808.3 310.67,-846.3 435.67,-846.3 435.67,-808.3 310.67,-808.3"/>
<text text-anchor="middle" x="373.17" y="-834.3" font-family="monospace" font-size="10.00">pub(crate) fn</text>
<polyline fill="none" stroke="black" points="310.67,-827.3 435.67,-827.3 "/>
<text text-anchor="middle" x="373.17" y="-815.3" font-family="monospace" font-size="10.00">Signer::is_running</text>
</g>
<!-- lightning_signer::Signer&#45;&gt;lightning_signer::Signer::is_running -->
<g id="edge9" class="edge">
<title>lightning_signer::Signer&#45;&gt;lightning_signer::Signer::is_running</title>
<path fill="none" stroke="#000000" d="M328.52,-683.86C322.29,-712.41 330.82,-766.12 345.32,-799.16"/>
<polygon fill="#000000" stroke="#000000" points="342.24,-800.84 349.78,-808.29 348.53,-797.77 342.24,-800.84"/>
<text text-anchor="middle" x="324.42" y="-744.51" font-family="monospace" font-size="10.00">owns</text>
</g>
<!-- lightning_signer::Signer::provide_new_block_notify -->
<g id="node8" class="node">
<title>lightning_signer::Signer::provide_new_block_notify</title>
<polygon fill="#f8c04c" stroke="black" points="81.22,-700.07 81.22,-738.07 290.22,-738.07 290.22,-700.07 81.22,-700.07"/>
<text text-anchor="middle" x="185.72" y="-726.07" font-family="monospace" font-size="10.00">pub(crate) fn</text>
<polyline fill="none" stroke="black" points="81.22,-719.07 290.22,-719.07 "/>
<text text-anchor="middle" x="185.72" y="-707.07" font-family="monospace" font-size="10.00">Signer::provide_new_block_notify</text>
</g>
<!-- lightning_signer::Signer&#45;&gt;lightning_signer::Signer::provide_new_block_notify -->
<g id="edge10" class="edge">
<title>lightning_signer::Signer&#45;&gt;lightning_signer::Signer::provide_new_block_notify</title>
<path fill="none" stroke="#000000" d="M303.51,-654.78C270.48,-658.48 224.91,-675.27 201.08,-693.24"/>
<polygon fill="#000000" stroke="#000000" points="198.64,-690.71 193.34,-699.89 203.21,-696.02 198.64,-690.71"/>
<text text-anchor="middle" x="239.8" y="-677.01" font-family="monospace" font-size="10.00">owns</text>
</g>
<!-- lightning_signer::Signer::shutdown -->
<g id="node9" class="node">
<title>lightning_signer::Signer::shutdown</title>
<polygon fill="#f8c04c" stroke="black" points="12,-512.62 12,-550.62 143,-550.62 143,-512.62 12,-512.62"/>
<text text-anchor="middle" x="77.5" y="-538.62" font-family="monospace" font-size="10.00">pub(crate) async fn</text>
<polyline fill="none" stroke="black" points="12,-531.62 143,-531.62 "/>
<text text-anchor="middle" x="77.5" y="-519.62" font-family="monospace" font-size="10.00">Signer::shutdown</text>
</g>
<!-- lightning_signer::Signer&#45;&gt;lightning_signer::Signer::shutdown -->
<g id="edge11" class="edge">
<title>lightning_signer::Signer&#45;&gt;lightning_signer::Signer::shutdown</title>
<path fill="none" stroke="#000000" d="M333.36,-645.67C304.92,-615.92 217.62,-568.09 152.69,-543.09"/>
<polygon fill="#000000" stroke="#000000" points="153.87,-539.79 143.28,-539.57 151.42,-546.35 153.87,-539.79"/>
<text text-anchor="middle" x="230.52" y="-597.38" font-family="monospace" font-size="10.00">owns</text>
</g>
<!-- lightning_signer::Signer::sign_raw_digest -->
<g id="node10" class="node">
<title>lightning_signer::Signer::sign_raw_digest</title>
<polygon fill="#f8c04c" stroke="black" points="0,-296.17 0,-334.17 155,-334.17 155,-296.17 0,-296.17"/>
<text text-anchor="middle" x="77.5" y="-322.17" font-family="monospace" font-size="10.00">pub(crate) fn</text>
<polyline fill="none" stroke="black" points="0,-315.17 155,-315.17 "/>
<text text-anchor="middle" x="77.5" y="-303.17" font-family="monospace" font-size="10.00">Signer::sign_raw_digest</text>
</g>
<!-- lightning_signer::Signer&#45;&gt;lightning_signer::Signer::sign_raw_digest -->
<g id="edge12" class="edge">
<title>lightning_signer::Signer&#45;&gt;lightning_signer::Signer::sign_raw_digest</title>
<path fill="none" stroke="#000000" d="M341.16,-645.57C319.68,-585.67 189.18,-409.62 119.22,-341.53"/>
<polygon fill="#000000" stroke="#000000" points="121.49,-338.85 111.82,-334.52 116.68,-343.94 121.49,-338.85"/>
<text text-anchor="middle" x="217.69" y="-496.55" font-family="monospace" font-size="10.00">owns</text>
</g>
<!-- lightning_signer::Signer::start -->
<g id="node11" class="node">
<title>lightning_signer::Signer::start</title>
<polygon fill="#f8c04c" stroke="black" points="120.22,-108.72 120.22,-146.72 251.22,-146.72 251.22,-108.72 120.22,-108.72"/>
<text text-anchor="middle" x="185.72" y="-134.72" font-family="monospace" font-size="10.00">pub(crate) async fn</text>
<polyline fill="none" stroke="black" points="120.22,-127.72 251.22,-127.72 "/>
<text text-anchor="middle" x="185.72" y="-115.72" font-family="monospace" font-size="10.00">Signer::start</text>
</g>
<!-- lightning_signer::Signer&#45;&gt;lightning_signer::Signer::start -->
<g id="edge13" class="edge">
<title>lightning_signer::Signer&#45;&gt;lightning_signer::Signer::start</title>
<path fill="none" stroke="#000000" d="M346.96,-645.62C345.53,-564.64 255.94,-252.48 208.24,-156.1"/>
<polygon fill="#000000" stroke="#000000" points="211.2,-154.2 203.48,-146.95 204.99,-157.43 211.2,-154.2"/>
<text text-anchor="middle" x="265.1" y="-403.86" font-family="monospace" font-size="10.00">owns</text>
</g>
<!-- lightning_signer::Signer::Config&#45;&gt;lightning_signer::config::SignerConfig -->
<g id="edge14" class="edge">
<title>lightning_signer::Signer::Config&#45;&gt;lightning_signer::config::SignerConfig</title>
<path fill="none" stroke="#7f7f7f" stroke-dasharray="5,2" d="M872.36,-512.52C836.97,-460.26 738.42,-314.74 697.11,-253.74"/>
<polygon fill="#7f7f7f" stroke="#7f7f7f" points="699.95,-251.69 691.44,-245.38 694.15,-255.62 699.95,-251.69"/>
<text text-anchor="middle" x="772.24" y="-386.13" font-family="monospace" font-size="10.00">uses</text>
</g>
<!-- lightning_signer::Signer::get_socket&#45;&gt;lightning_signer::Signer -->
<g id="edge15" class="edge">
<title>lightning_signer::Signer::get_socket&#45;&gt;lightning_signer::Signer</title>
<path fill="none" stroke="#7f7f7f" stroke-dasharray="5,2" d="M746.24,-700.02C671.68,-675.58 481.29,-651.02 390.96,-653.27"/>
<polygon fill="#7f7f7f" stroke="#7f7f7f" points="390.57,-649.78 380.71,-653.66 390.84,-656.78 390.57,-649.78"/>
<text text-anchor="middle" x="556.1" y="-679.64" font-family="monospace" font-size="10.00">uses</text>
</g>
<!-- lightning_signer::Signer::init&#45;&gt;lightning_signer::Signer -->
<g id="edge16" class="edge">
<title>lightning_signer::Signer::init&#45;&gt;lightning_signer::Signer</title>
<path fill="none" stroke="#7f7f7f" stroke-dasharray="5,2" d="M583.74,-808C556.02,-770.6 452.5,-699.88 389.88,-672.41"/>
<polygon fill="#7f7f7f" stroke="#7f7f7f" points="391.15,-669.15 380.57,-668.54 388.46,-675.61 391.15,-669.15"/>
<text text-anchor="middle" x="474.31" y="-743.21" font-family="monospace" font-size="10.00">uses</text>
</g>
<!-- lightning_signer::Signer::init&#45;&gt;lightning_signer::config::SignerConfig -->
<g id="edge17" class="edge">
<title>lightning_signer::Signer::init&#45;&gt;lightning_signer::config::SignerConfig</title>
<path fill="none" stroke="#7f7f7f" stroke-dasharray="5,2" d="M592.48,-807.98C605.42,-720.47 658.6,-360.91 674.2,-255.47"/>
<polygon fill="#7f7f7f" stroke="#7f7f7f" points="677.67,-255.93 675.67,-245.53 670.74,-254.91 677.67,-255.93"/>
<text text-anchor="middle" x="620.84" y="-534.72" font-family="monospace" font-size="10.00">uses</text>
</g>
<!-- lightning_signer::Signer::is_running&#45;&gt;lightning_signer::Signer -->
<g id="edge18" class="edge">
<title>lightning_signer::Signer::is_running&#45;&gt;lightning_signer::Signer</title>
<path fill="none" stroke="#7f7f7f" stroke-dasharray="5,2" d="M386.67,-808.25C392.9,-779.7 384.37,-725.99 369.87,-692.95"/>
<polygon fill="#7f7f7f" stroke="#7f7f7f" points="372.95,-691.27 365.41,-683.82 366.66,-694.34 372.95,-691.27"/>
<text text-anchor="middle" x="365.77" y="-753.6" font-family="monospace" font-size="10.00">uses</text>
</g>
<!-- lightning_signer::Signer::provide_new_block_notify&#45;&gt;lightning_signer::Signer -->
<g id="edge19" class="edge">
<title>lightning_signer::Signer::provide_new_block_notify&#45;&gt;lightning_signer::Signer</title>
<path fill="none" stroke="#7f7f7f" stroke-dasharray="5,2" d="M290.24,-710.71C304.41,-704.68 317.29,-697.73 326.74,-690.59"/>
<polygon fill="#7f7f7f" stroke="#7f7f7f" points="329.1,-693.18 334.39,-684 324.53,-687.88 329.1,-693.18"/>
<text text-anchor="middle" x="320.99" y="-703.65" font-family="monospace" font-size="10.00">uses</text>
</g>
<!-- lightning_signer::Signer::shutdown&#45;&gt;lightning_signer::Signer -->
<g id="edge20" class="edge">
<title>lightning_signer::Signer::shutdown&#45;&gt;lightning_signer::Signer</title>
<path fill="none" stroke="#7f7f7f" stroke-dasharray="5,2" d="M86.16,-550.77C118.72,-584.83 228.49,-642.61 293.45,-662.67"/>
<polygon fill="#7f7f7f" stroke="#7f7f7f" points="292.5,-666.04 303.08,-665.46 294.44,-659.32 292.5,-666.04"/>
<text text-anchor="middle" x="177.3" y="-609.72" font-family="monospace" font-size="10.00">uses</text>
</g>
<!-- lightning_signer::Signer::sign_raw_digest&#45;&gt;lightning_signer::Signer -->
<g id="edge21" class="edge">
<title>lightning_signer::Signer::sign_raw_digest&#45;&gt;lightning_signer::Signer</title>
<path fill="none" stroke="#7f7f7f" stroke-dasharray="5,2" d="M78.35,-334.42C99.84,-394.32 230.34,-570.37 300.3,-638.46"/>
<polygon fill="#7f7f7f" stroke="#7f7f7f" points="298.03,-641.13 307.7,-645.47 302.84,-636.05 298.03,-641.13"/>
<text text-anchor="middle" x="176.83" y="-489.44" font-family="monospace" font-size="10.00">uses</text>
</g>
<!-- lightning_signer::Signer::start&#45;&gt;lightning_signer::Signer -->
<g id="edge22" class="edge">
<title>lightning_signer::Signer::start&#45;&gt;lightning_signer::Signer</title>
<path fill="none" stroke="#7f7f7f" stroke-dasharray="5,2" d="M180.78,-146.92C182.21,-227.9 271.8,-540.06 319.5,-636.44"/>
<polygon fill="#7f7f7f" stroke="#7f7f7f" points="316.54,-638.34 324.26,-645.59 322.75,-635.11 316.54,-638.34"/>
<text text-anchor="middle" x="237.64" y="-394.68" font-family="monospace" font-size="10.00">uses</text>
</g>
<!-- lightning_signer::SignerInner::handle -->
<g id="node13" class="node">
<title>lightning_signer::SignerInner::handle</title>
<polygon fill="#f8c04c" stroke="black" points="551.22,-368.14 551.22,-406.14 682.22,-406.14 682.22,-368.14 551.22,-368.14"/>
<text text-anchor="middle" x="616.72" y="-394.14" font-family="monospace" font-size="10.00">pub(crate) async fn</text>
<polyline fill="none" stroke="black" points="551.22,-387.14 682.22,-387.14 "/>
<text text-anchor="middle" x="616.72" y="-375.14" font-family="monospace" font-size="10.00">SignerInner::handle</text>
</g>
<!-- lightning_signer::SignerInner&#45;&gt;lightning_signer::SignerInner::handle -->
<g id="edge23" class="edge">
<title>lightning_signer::SignerInner&#45;&gt;lightning_signer::SignerInner::handle</title>
<path fill="none" stroke="#000000" d="M492.02,-163.66C515.72,-206.15 573.06,-308.9 600.96,-358.88"/>
<polygon fill="#000000" stroke="#000000" points="598.04,-360.83 605.97,-367.86 604.15,-357.42 598.04,-360.83"/>
<text text-anchor="middle" x="533.99" y="-264.27" font-family="monospace" font-size="10.00">owns</text>
</g>
<!-- lightning_signer::SignerInner::init -->
<g id="node14" class="node">
<title>lightning_signer::SignerInner::init</title>
<polygon fill="#f8c04c" stroke="black" points="313.67,-0.5 313.67,-38.5 432.67,-38.5 432.67,-0.5 313.67,-0.5"/>
<text text-anchor="middle" x="373.17" y="-26.5" font-family="monospace" font-size="10.00">pub(crate) fn</text>
<polyline fill="none" stroke="black" points="313.67,-19.5 432.67,-19.5 "/>
<text text-anchor="middle" x="373.17" y="-7.5" font-family="monospace" font-size="10.00">SignerInner::init</text>
</g>
<!-- lightning_signer::SignerInner&#45;&gt;lightning_signer::SignerInner::init -->
<g id="edge24" class="edge">
<title>lightning_signer::SignerInner&#45;&gt;lightning_signer::SignerInner::init</title>
<path fill="none" stroke="#000000" d="M484.68,-125.36C479.33,-103.12 454.87,-69.4 429.62,-45.4"/>
<polygon fill="#000000" stroke="#000000" points="431.9,-42.73 422.14,-38.59 427.19,-47.91 431.9,-42.73"/>
<text text-anchor="middle" x="444.65" y="-88.38" font-family="monospace" font-size="10.00">owns</text>
</g>
<!-- lightning_signer::SignerInner::sync_with_application -->
<g id="node15" class="node">
<title>lightning_signer::SignerInner::sync_with_application</title>
<polygon fill="#f8c04c" stroke="black" points="479.12,-0.5 479.12,-38.5 700.12,-38.5 700.12,-0.5 479.12,-0.5"/>
<text text-anchor="middle" x="589.62" y="-26.5" font-family="monospace" font-size="10.00">pub(crate) async fn</text>
<polyline fill="none" stroke="black" points="479.12,-19.5 700.12,-19.5 "/>
<text text-anchor="middle" x="589.62" y="-7.5" font-family="monospace" font-size="10.00">SignerInner::sync_with_application</text>
</g>
<!-- lightning_signer::SignerInner&#45;&gt;lightning_signer::SignerInner::sync_with_application -->
<g id="edge25" class="edge">
<title>lightning_signer::SignerInner&#45;&gt;lightning_signer::SignerInner::sync_with_application</title>
<path fill="none" stroke="#000000" d="M497.83,-125.63C516.11,-104.5 545.77,-70.21 566.41,-46.34"/>
<polygon fill="#000000" stroke="#000000" points="569.14,-48.54 573.03,-38.68 563.84,-43.96 569.14,-48.54"/>
<text text-anchor="middle" x="519.62" y="-88.99" font-family="monospace" font-size="10.00">owns</text>
</g>
<!-- lightning_signer::SignerInner::handle&#45;&gt;lightning_signer::PendingTransaction -->
<g id="edge26" class="edge">
<title>lightning_signer::SignerInner::handle&#45;&gt;lightning_signer::PendingTransaction</title>
<path fill="none" stroke="#7f7f7f" stroke-dasharray="5,2" d="M551.11,-404.72C550.95,-404.76 550.78,-404.81 550.62,-404.85"/>
<polygon fill="#7f7f7f" stroke="#7f7f7f" points="552.12,-400.83 543.36,-406.79 553.93,-407.59 552.12,-400.83"/>
<text text-anchor="middle" x="538.36" y="-396.78" font-family="monospace" font-size="10.00">uses</text>
</g>
<!-- lightning_signer::SignerInner::init&#45;&gt;lightning_signer::SignerInner -->
<g id="edge27" class="edge">
<title>lightning_signer::SignerInner::init&#45;&gt;lightning_signer::SignerInner</title>
<path fill="none" stroke="#7f7f7f" stroke-dasharray="5,2" d="M369.89,-38.78C375.24,-61.01 399.7,-94.74 424.95,-118.74"/>
<polygon fill="#7f7f7f" stroke="#7f7f7f" points="422.67,-121.4 432.43,-125.54 427.38,-116.22 422.67,-121.4"/>
<text text-anchor="middle" x="384.92" y="-81.76" font-family="monospace" font-size="10.00">uses</text>
</g>
</g>
</svg>
