<?xml version="1.0" encoding="UTF-8" standalone="no"?>
<!DOCTYPE svg PUBLIC "-//W3C//DTD SVG 1.1//EN"
 "http://www.w3.org/Graphics/SVG/1.1/DTD/svg11.dtd">
<!-- Generated by graphviz version 4.0.0 (0)
 -->
<!-- Pages: 1 -->
<svg width="1831pt" height="1511pt"
 viewBox="0.00 0.00 1831.39 1511.35" xmlns="http://www.w3.org/2000/svg" xmlns:xlink="http://www.w3.org/1999/xlink">
<g id="graph0" class="graph" transform="scale(1 1) rotate(0) translate(28.8 1482.55)">
<polygon fill="white" stroke="transparent" points="-28.8,28.8 -28.8,-1482.55 1802.59,-1482.55 1802.59,28.8 -28.8,28.8"/>
<text text-anchor="middle" x="886.89" y="-1420.95" font-family="Helvetica,sans-Serif" font-size="36.00">lightning_blockstore_server</text>
<!-- lightning_blockstore_server -->
<g id="node1" class="node">
<title>lightning_blockstore_server</title>
<polygon fill="#5397c8" stroke="black" points="973.97,-893.49 973.97,-931.49 1152.97,-931.49 1152.97,-893.49 973.97,-893.49"/>
<text text-anchor="middle" x="1063.47" y="-919.49" font-family="monospace" font-size="10.00">crate</text>
<polyline fill="none" stroke="black" points="973.97,-912.49 1152.97,-912.49 "/>
<text text-anchor="middle" x="1063.47" y="-900.49" font-family="monospace" font-size="10.00">lightning_blockstore_server</text>
</g>
<!-- lightning_blockstore_server::blockstore_server::BlockStoreServer -->
<g id="node2" class="node">
<title>lightning_blockstore_server::blockstore_server::BlockStoreServer</title>
<polygon fill="#81c169" stroke="black" points="455.34,-823.48 455.34,-861.48 682.34,-861.48 682.34,-823.48 455.34,-823.48"/>
<text text-anchor="middle" x="568.84" y="-849.48" font-family="monospace" font-size="10.00">pub struct</text>
<polyline fill="none" stroke="black" points="455.34,-842.48 682.34,-842.48 "/>
<text text-anchor="middle" x="568.84" y="-830.48" font-family="monospace" font-size="10.00">blockstore_server::BlockStoreServer</text>
</g>
<!-- lightning_blockstore_server&#45;&gt;lightning_blockstore_server::blockstore_server::BlockStoreServer -->
<g id="edge1" class="edge">
<title>lightning_blockstore_server&#45;&gt;lightning_blockstore_server::blockstore_server::BlockStoreServer</title>
<path fill="none" stroke="#000000" d="M1031.89,-893.42C964.92,-871.07 805.67,-845.47 692.67,-836.21"/>
<polygon fill="#000000" stroke="#000000" points="692.81,-832.71 682.57,-835.42 692.27,-839.69 692.81,-832.71"/>
<text text-anchor="middle" x="849.78" y="-867.81" font-family="monospace" font-size="10.00">owns</text>
</g>
<!-- lightning_blockstore_server&#45;&gt;lightning_blockstore_server::blockstore_server::BlockStoreServer -->
<g id="edge2" class="edge">
<title>lightning_blockstore_server&#45;&gt;lightning_blockstore_server::blockstore_server::BlockStoreServer</title>
<path fill="none" stroke="#7f7f7f" stroke-dasharray="5,2" d="M973.79,-921.12C865.95,-915.21 689.57,-888.56 610.02,-864.59"/>
<polygon fill="#7f7f7f" stroke="#7f7f7f" points="610.94,-861.21 600.35,-861.53 608.83,-867.88 610.94,-861.21"/>
<text text-anchor="middle" x="779.4" y="-895.85" font-family="monospace" font-size="10.00">uses</text>
</g>
<!-- lightning_blockstore_server::blockstore_server::BlockstoreServerInner -->
<g id="node9" class="node">
<title>lightning_blockstore_server::blockstore_server::BlockstoreServerInner</title>
<polygon fill="#81c169" stroke="black" points="1060.99,-410.65 1060.99,-448.65 1317.99,-448.65 1317.99,-410.65 1060.99,-410.65"/>
<text text-anchor="middle" x="1189.49" y="-436.65" font-family="monospace" font-size="10.00">pub struct</text>
<polyline fill="none" stroke="black" points="1060.99,-429.65 1317.99,-429.65 "/>
<text text-anchor="middle" x="1189.49" y="-417.65" font-family="monospace" font-size="10.00">blockstore_server::BlockstoreServerInner</text>
</g>
<!-- lightning_blockstore_server&#45;&gt;lightning_blockstore_server::blockstore_server::BlockstoreServerInner -->
<g id="edge3" class="edge">
<title>lightning_blockstore_server&#45;&gt;lightning_blockstore_server::blockstore_server::BlockstoreServerInner</title>
<path fill="none" stroke="#000000" d="M1068.49,-893.26C1087.97,-818.6 1158.69,-547.66 1181.99,-458.39"/>
<polygon fill="#000000" stroke="#000000" points="1185.39,-459.23 1184.53,-448.67 1178.61,-457.46 1185.39,-459.23"/>
<text text-anchor="middle" x="1112.74" y="-678.83" font-family="monospace" font-size="10.00">owns</text>
</g>
<!-- lightning_blockstore_server::blockstore_server::ErrorResponse -->
<g id="node12" class="node">
<title>lightning_blockstore_server::blockstore_server::ErrorResponse</title>
<polygon fill="#81c169" stroke="black" points="947.69,-1157.65 947.69,-1195.65 1156.69,-1195.65 1156.69,-1157.65 947.69,-1157.65"/>
<text text-anchor="middle" x="1052.19" y="-1183.65" font-family="monospace" font-size="10.00">pub struct</text>
<polyline fill="none" stroke="black" points="947.69,-1176.65 1156.69,-1176.65 "/>
<text text-anchor="middle" x="1052.19" y="-1164.65" font-family="monospace" font-size="10.00">blockstore_server::ErrorResponse</text>
</g>
<!-- lightning_blockstore_server&#45;&gt;lightning_blockstore_server::blockstore_server::ErrorResponse -->
<g id="edge4" class="edge">
<title>lightning_blockstore_server&#45;&gt;lightning_blockstore_server::blockstore_server::ErrorResponse</title>
<path fill="none" stroke="#000000" d="M1062.64,-931.91C1060.68,-977.82 1055.75,-1093.24 1053.43,-1147.54"/>
<polygon fill="#000000" stroke="#000000" points="1049.94,-1147.41 1053.01,-1157.55 1056.93,-1147.71 1049.94,-1147.41"/>
<text text-anchor="middle" x="1045.54" y="-1042.73" font-family="monospace" font-size="10.00">owns</text>
</g>
<!-- lightning_blockstore_server::blockstore_server::Frame -->
<g id="node13" class="node">
<title>lightning_blockstore_server::blockstore_server::Frame</title>
<polygon fill="#81c169" stroke="black" points="1357.9,-1274.94 1357.9,-1312.94 1518.9,-1312.94 1518.9,-1274.94 1357.9,-1274.94"/>
<text text-anchor="middle" x="1438.4" y="-1300.94" font-family="monospace" font-size="10.00">pub enum</text>
<polyline fill="none" stroke="black" points="1357.9,-1293.94 1518.9,-1293.94 "/>
<text text-anchor="middle" x="1438.4" y="-1281.94" font-family="monospace" font-size="10.00">blockstore_server::Frame</text>
</g>
<!-- lightning_blockstore_server&#45;&gt;lightning_blockstore_server::blockstore_server::Frame -->
<g id="edge5" class="edge">
<title>lightning_blockstore_server&#45;&gt;lightning_blockstore_server::blockstore_server::Frame</title>
<path fill="none" stroke="#000000" d="M1082.32,-931.66C1144.07,-994.49 1340.41,-1194.25 1411.98,-1267.06"/>
<polygon fill="#000000" stroke="#000000" points="1409.79,-1269.82 1419.29,-1274.5 1414.78,-1264.91 1409.79,-1269.82"/>
<text text-anchor="middle" x="1234.65" y="-1102.36" font-family="monospace" font-size="10.00">owns</text>
</g>
<!-- lightning_blockstore_server::blockstore_server::Message -->
<g id="node14" class="node">
<title>lightning_blockstore_server::blockstore_server::Message</title>
<polygon fill="#db5367" stroke="black" points="826.5,-1367.25 826.5,-1405.25 999.5,-1405.25 999.5,-1367.25 826.5,-1367.25"/>
<text text-anchor="middle" x="913" y="-1393.25" font-family="monospace" font-size="10.00">pub(self) enum</text>
<polyline fill="none" stroke="black" points="826.5,-1386.25 999.5,-1386.25 "/>
<text text-anchor="middle" x="913" y="-1374.25" font-family="monospace" font-size="10.00">blockstore_server::Message</text>
</g>
<!-- lightning_blockstore_server&#45;&gt;lightning_blockstore_server::blockstore_server::Message -->
<g id="edge6" class="edge">
<title>lightning_blockstore_server&#45;&gt;lightning_blockstore_server::blockstore_server::Message</title>
<path fill="none" stroke="#000000" d="M1057.39,-931.64C1034.04,-1005.16 950.09,-1269.49 922.13,-1357.51"/>
<polygon fill="#000000" stroke="#000000" points="918.77,-1356.52 919.08,-1367.11 925.44,-1358.64 918.77,-1356.52"/>
<text text-anchor="middle" x="977.26" y="-1147.58" font-family="monospace" font-size="10.00">owns</text>
</g>
<!-- lightning_blockstore_server::blockstore_server::PeerRequest -->
<g id="node15" class="node">
<title>lightning_blockstore_server::blockstore_server::PeerRequest</title>
<polygon fill="#81c169" stroke="black" points="1278.12,-887.17 1278.12,-925.17 1475.12,-925.17 1475.12,-887.17 1278.12,-887.17"/>
<text text-anchor="middle" x="1376.62" y="-913.17" font-family="monospace" font-size="10.00">pub struct</text>
<polyline fill="none" stroke="black" points="1278.12,-906.17 1475.12,-906.17 "/>
<text text-anchor="middle" x="1376.62" y="-894.17" font-family="monospace" font-size="10.00">blockstore_server::PeerRequest</text>
</g>
<!-- lightning_blockstore_server&#45;&gt;lightning_blockstore_server::blockstore_server::PeerRequest -->
<g id="edge7" class="edge">
<title>lightning_blockstore_server&#45;&gt;lightning_blockstore_server::blockstore_server::PeerRequest</title>
<path fill="none" stroke="#000000" d="M1153.21,-910.68C1188.89,-909.96 1230.27,-909.12 1267.66,-908.37"/>
<polygon fill="#000000" stroke="#000000" points="1268.16,-911.86 1278.09,-908.16 1268.02,-904.86 1268.16,-911.86"/>
<text text-anchor="middle" x="1197.93" y="-912.52" font-family="monospace" font-size="10.00">owns</text>
</g>
<!-- lightning_blockstore_server::blockstore_server::ServerRequestTask -->
<g id="node16" class="node">
<title>lightning_blockstore_server::blockstore_server::ServerRequestTask</title>
<polygon fill="#db5367" stroke="black" points="1253.34,-629.12 1253.34,-667.12 1486.34,-667.12 1486.34,-629.12 1253.34,-629.12"/>
<text text-anchor="middle" x="1369.84" y="-655.12" font-family="monospace" font-size="10.00">pub(self) type</text>
<polyline fill="none" stroke="black" points="1253.34,-648.12 1486.34,-648.12 "/>
<text text-anchor="middle" x="1369.84" y="-636.12" font-family="monospace" font-size="10.00">blockstore_server::ServerRequestTask</text>
</g>
<!-- lightning_blockstore_server&#45;&gt;lightning_blockstore_server::blockstore_server::ServerRequestTask -->
<g id="edge8" class="edge">
<title>lightning_blockstore_server&#45;&gt;lightning_blockstore_server::blockstore_server::ServerRequestTask</title>
<path fill="none" stroke="#000000" d="M1085.51,-893.47C1139.47,-846.91 1278.33,-727.09 1339.8,-674.05"/>
<polygon fill="#000000" stroke="#000000" points="1342.31,-676.5 1347.59,-667.32 1337.73,-671.2 1342.31,-676.5"/>
<text text-anchor="middle" x="1200.15" y="-786.76" font-family="monospace" font-size="10.00">owns</text>
</g>
<!-- lightning_blockstore_server::blockstore_server::handle_request -->
<g id="node17" class="node">
<title>lightning_blockstore_server::blockstore_server::handle_request</title>
<polygon fill="#db5367" stroke="black" points="1450.84,-1018.25 1450.84,-1056.25 1665.84,-1056.25 1665.84,-1018.25 1450.84,-1018.25"/>
<text text-anchor="middle" x="1558.34" y="-1044.25" font-family="monospace" font-size="10.00">pub(self) async fn</text>
<polyline fill="none" stroke="black" points="1450.84,-1037.25 1665.84,-1037.25 "/>
<text text-anchor="middle" x="1558.34" y="-1025.25" font-family="monospace" font-size="10.00">blockstore_server::handle_request</text>
</g>
<!-- lightning_blockstore_server&#45;&gt;lightning_blockstore_server::blockstore_server::handle_request -->
<g id="edge9" class="edge">
<title>lightning_blockstore_server&#45;&gt;lightning_blockstore_server::blockstore_server::handle_request</title>
<path fill="none" stroke="#000000" d="M1138.9,-931.5C1228.93,-954.2 1379.08,-992.05 1473.19,-1015.78"/>
<polygon fill="#000000" stroke="#000000" points="1472.42,-1019.19 1482.97,-1018.25 1474.13,-1012.41 1472.42,-1019.19"/>
<text text-anchor="middle" x="1293.55" y="-976.64" font-family="monospace" font-size="10.00">owns</text>
</g>
<!-- lightning_blockstore_server::blockstore_server::send_request -->
<g id="node18" class="node">
<title>lightning_blockstore_server::blockstore_server::send_request</title>
<polygon fill="#db5367" stroke="black" points="1146.88,-1234.8 1146.88,-1272.8 1349.88,-1272.8 1349.88,-1234.8 1146.88,-1234.8"/>
<text text-anchor="middle" x="1248.38" y="-1260.8" font-family="monospace" font-size="10.00">pub(self) async fn</text>
<polyline fill="none" stroke="black" points="1146.88,-1253.8 1349.88,-1253.8 "/>
<text text-anchor="middle" x="1248.38" y="-1241.8" font-family="monospace" font-size="10.00">blockstore_server::send_request</text>
</g>
<!-- lightning_blockstore_server&#45;&gt;lightning_blockstore_server::blockstore_server::send_request -->
<g id="edge10" class="edge">
<title>lightning_blockstore_server&#45;&gt;lightning_blockstore_server::blockstore_server::send_request</title>
<path fill="none" stroke="#000000" d="M1073.94,-931.81C1104.96,-989.07 1196.49,-1158.01 1233.05,-1225.49"/>
<polygon fill="#000000" stroke="#000000" points="1230.19,-1227.56 1238.03,-1234.68 1236.34,-1224.22 1230.19,-1227.56"/>
<text text-anchor="middle" x="1140.99" y="-1081.65" font-family="monospace" font-size="10.00">owns</text>
</g>
<!-- lightning_blockstore_server::config::Config -->
<g id="node19" class="node">
<title>lightning_blockstore_server::config::Config</title>
<polygon fill="#81c169" stroke="black" points="795.91,-608.91 795.91,-646.91 896.91,-646.91 896.91,-608.91 795.91,-608.91"/>
<text text-anchor="middle" x="846.41" y="-634.91" font-family="monospace" font-size="10.00">pub struct</text>
<polyline fill="none" stroke="black" points="795.91,-627.91 896.91,-627.91 "/>
<text text-anchor="middle" x="846.41" y="-615.91" font-family="monospace" font-size="10.00">config::Config</text>
</g>
<!-- lightning_blockstore_server&#45;&gt;lightning_blockstore_server::config::Config -->
<g id="edge11" class="edge">
<title>lightning_blockstore_server&#45;&gt;lightning_blockstore_server::config::Config</title>
<path fill="none" stroke="#000000" d="M1063.54,-893.09C1046.7,-842.19 949.64,-711 890.13,-653.92"/>
<polygon fill="#000000" stroke="#000000" points="892.41,-651.26 882.71,-647.01 887.65,-656.39 892.41,-651.26"/>
<text text-anchor="middle" x="964.33" y="-776.51" font-family="monospace" font-size="10.00">owns</text>
</g>
<!-- lightning_blockstore_server&#45;&gt;lightning_blockstore_server::config::Config -->
<g id="edge12" class="edge">
<title>lightning_blockstore_server&#45;&gt;lightning_blockstore_server::config::Config</title>
<path fill="none" stroke="#7f7f7f" stroke-dasharray="5,2" d="M1027.11,-893.32C971.69,-843.42 874.76,-714.84 849.81,-656.34"/>
<polygon fill="#7f7f7f" stroke="#7f7f7f" points="853.05,-655.03 846.22,-646.93 846.51,-657.52 853.05,-655.03"/>
<text text-anchor="middle" x="925.96" y="-777.83" font-family="monospace" font-size="10.00">uses</text>
</g>
<!-- lightning_blockstore_server::blockstore_server::BlockStoreServer::Config -->
<g id="node3" class="node">
<title>lightning_blockstore_server::blockstore_server::BlockStoreServer::Config</title>
<polygon fill="#db5367" stroke="black" points="316.7,-445.5 316.7,-483.5 591.7,-483.5 591.7,-445.5 316.7,-445.5"/>
<text text-anchor="middle" x="454.2" y="-471.5" font-family="monospace" font-size="10.00">pub(self) type</text>
<polyline fill="none" stroke="black" points="316.7,-464.5 591.7,-464.5 "/>
<text text-anchor="middle" x="454.2" y="-452.5" font-family="monospace" font-size="10.00">blockstore_server::BlockStoreServer::Config</text>
</g>
<!-- lightning_blockstore_server::blockstore_server::BlockStoreServer&#45;&gt;lightning_blockstore_server::blockstore_server::BlockStoreServer::Config -->
<g id="edge13" class="edge">
<title>lightning_blockstore_server::blockstore_server::BlockStoreServer&#45;&gt;lightning_blockstore_server::blockstore_server::BlockStoreServer::Config</title>
<path fill="none" stroke="#000000" d="M563.08,-823.48C544.39,-761.85 485.37,-567.28 462.96,-493.37"/>
<polygon fill="#000000" stroke="#000000" points="466.3,-492.32 460.04,-483.77 459.6,-494.35 466.3,-492.32"/>
<text text-anchor="middle" x="500.52" y="-661.42" font-family="monospace" font-size="10.00">owns</text>
</g>
<!-- lightning_blockstore_server::blockstore_server::BlockStoreServer::get_socket -->
<g id="node4" class="node">
<title>lightning_blockstore_server::blockstore_server::BlockStoreServer::get_socket</title>
<polygon fill="#db5367" stroke="black" points="261.42,-1256.28 261.42,-1294.28 560.42,-1294.28 560.42,-1256.28 261.42,-1256.28"/>
<text text-anchor="middle" x="410.92" y="-1282.28" font-family="monospace" font-size="10.00">pub(self) fn</text>
<polyline fill="none" stroke="black" points="261.42,-1275.28 560.42,-1275.28 "/>
<text text-anchor="middle" x="410.92" y="-1263.28" font-family="monospace" font-size="10.00">blockstore_server::BlockStoreServer::get_socket</text>
</g>
<!-- lightning_blockstore_server::blockstore_server::BlockStoreServer&#45;&gt;lightning_blockstore_server::blockstore_server::BlockStoreServer::get_socket -->
<g id="edge14" class="edge">
<title>lightning_blockstore_server::blockstore_server::BlockStoreServer&#45;&gt;lightning_blockstore_server::blockstore_server::BlockStoreServer::get_socket</title>
<path fill="none" stroke="#000000" d="M547.91,-861.56C503.24,-930.28 418.21,-1163.05 407.35,-1245.94"/>
<polygon fill="#000000" stroke="#000000" points="403.86,-1245.65 406.36,-1255.95 410.83,-1246.34 403.86,-1245.65"/>
<text text-anchor="middle" x="465.13" y="-1056.75" font-family="monospace" font-size="10.00">owns</text>
</g>
<!-- lightning_blockstore_server::blockstore_server::BlockStoreServer::init -->
<g id="node5" class="node">
<title>lightning_blockstore_server::blockstore_server::BlockStoreServer::init</title>
<polygon fill="#db5367" stroke="black" points="617.97,-347.28 617.97,-385.28 880.97,-385.28 880.97,-347.28 617.97,-347.28"/>
<text text-anchor="middle" x="749.47" y="-373.28" font-family="monospace" font-size="10.00">pub(self) fn</text>
<polyline fill="none" stroke="black" points="617.97,-366.28 880.97,-366.28 "/>
<text text-anchor="middle" x="749.47" y="-354.28" font-family="monospace" font-size="10.00">blockstore_server::BlockStoreServer::init</text>
</g>
<!-- lightning_blockstore_server::blockstore_server::BlockStoreServer&#45;&gt;lightning_blockstore_server::blockstore_server::BlockStoreServer::init -->
<g id="edge15" class="edge">
<title>lightning_blockstore_server::blockstore_server::BlockStoreServer&#45;&gt;lightning_blockstore_server::blockstore_server::BlockStoreServer::init</title>
<path fill="none" stroke="#000000" d="M589.57,-823.33C638.11,-749.33 738.66,-484.46 752.13,-395.44"/>
<polygon fill="#000000" stroke="#000000" points="755.61,-395.83 753.33,-385.48 748.66,-394.99 755.61,-395.83"/>
<text text-anchor="middle" x="658.35" y="-612.39" font-family="monospace" font-size="10.00">owns</text>
</g>
<!-- lightning_blockstore_server::blockstore_server::BlockStoreServer::is_running -->
<g id="node6" class="node">
<title>lightning_blockstore_server::blockstore_server::BlockStoreServer::is_running</title>
<polygon fill="#db5367" stroke="black" points="74.96,-1092.01 74.96,-1130.01 373.96,-1130.01 373.96,-1092.01 74.96,-1092.01"/>
<text text-anchor="middle" x="224.46" y="-1118.01" font-family="monospace" font-size="10.00">pub(self) fn</text>
<polyline fill="none" stroke="black" points="74.96,-1111.01 373.96,-1111.01 "/>
<text text-anchor="middle" x="224.46" y="-1099.01" font-family="monospace" font-size="10.00">blockstore_server::BlockStoreServer::is_running</text>
</g>
<!-- lightning_blockstore_server::blockstore_server::BlockStoreServer&#45;&gt;lightning_blockstore_server::blockstore_server::BlockStoreServer::is_running -->
<g id="edge16" class="edge">
<title>lightning_blockstore_server::blockstore_server::BlockStoreServer&#45;&gt;lightning_blockstore_server::blockstore_server::BlockStoreServer::is_running</title>
<path fill="none" stroke="#000000" d="M514.12,-861.52C431.81,-909.76 282.73,-1028.03 237.09,-1083.63"/>
<polygon fill="#000000" stroke="#000000" points="234.22,-1081.62 230.9,-1091.68 239.77,-1085.89 234.22,-1081.62"/>
<text text-anchor="middle" x="363.1" y="-975.58" font-family="monospace" font-size="10.00">owns</text>
</g>
<!-- lightning_blockstore_server::blockstore_server::BlockStoreServer::shutdown -->
<g id="node7" class="node">
<title>lightning_blockstore_server::blockstore_server::BlockStoreServer::shutdown</title>
<polygon fill="#db5367" stroke="black" points="0,-831.27 0,-869.27 287,-869.27 287,-831.27 0,-831.27"/>
<text text-anchor="middle" x="143.5" y="-857.27" font-family="monospace" font-size="10.00">pub(self) async fn</text>
<polyline fill="none" stroke="black" points="0,-850.27 287,-850.27 "/>
<text text-anchor="middle" x="143.5" y="-838.27" font-family="monospace" font-size="10.00">blockstore_server::BlockStoreServer::shutdown</text>
</g>
<!-- lightning_blockstore_server::blockstore_server::BlockStoreServer&#45;&gt;lightning_blockstore_server::blockstore_server::BlockStoreServer::shutdown -->
<g id="edge17" class="edge">
<title>lightning_blockstore_server::blockstore_server::BlockStoreServer&#45;&gt;lightning_blockstore_server::blockstore_server::BlockStoreServer::shutdown</title>
<path fill="none" stroke="#000000" d="M502.01,-823.45C419.89,-815.71 281.8,-818.49 203.12,-829.69"/>
<polygon fill="#000000" stroke="#000000" points="202.26,-826.28 192.9,-831.25 203.31,-833.2 202.26,-826.28"/>
<text text-anchor="middle" x="340.07" y="-829.57" font-family="monospace" font-size="10.00">owns</text>
</g>
<!-- lightning_blockstore_server::blockstore_server::BlockStoreServer::start -->
<g id="node8" class="node">
<title>lightning_blockstore_server::blockstore_server::BlockStoreServer::start</title>
<polygon fill="#db5367" stroke="black" points="63.57,-544.63 63.57,-582.63 332.57,-582.63 332.57,-544.63 63.57,-544.63"/>
<text text-anchor="middle" x="198.07" y="-570.63" font-family="monospace" font-size="10.00">pub(self) async fn</text>
<polyline fill="none" stroke="black" points="63.57,-563.63 332.57,-563.63 "/>
<text text-anchor="middle" x="198.07" y="-551.63" font-family="monospace" font-size="10.00">blockstore_server::BlockStoreServer::start</text>
</g>
<!-- lightning_blockstore_server::blockstore_server::BlockStoreServer&#45;&gt;lightning_blockstore_server::blockstore_server::BlockStoreServer::start -->
<g id="edge18" class="edge">
<title>lightning_blockstore_server::blockstore_server::BlockStoreServer&#45;&gt;lightning_blockstore_server::blockstore_server::BlockStoreServer::start</title>
<path fill="none" stroke="#000000" d="M561.82,-823.43C523.73,-772.38 357.46,-643.74 263.1,-587.99"/>
<polygon fill="#000000" stroke="#000000" points="264.61,-584.82 254.2,-582.83 261.1,-590.87 264.61,-584.82"/>
<text text-anchor="middle" x="399.96" y="-708.71" font-family="monospace" font-size="10.00">owns</text>
</g>
<!-- lightning_blockstore_server::blockstore_server::BlockStoreServer::Config&#45;&gt;lightning_blockstore_server::config::Config -->
<g id="edge19" class="edge">
<title>lightning_blockstore_server::blockstore_server::BlockStoreServer::Config&#45;&gt;lightning_blockstore_server::config::Config</title>
<path fill="none" stroke="#7f7f7f" stroke-dasharray="5,2" d="M499.96,-483.57C572.34,-513.72 713,-572.33 790.99,-604.82"/>
<polygon fill="#7f7f7f" stroke="#7f7f7f" points="790.06,-608.22 800.64,-608.84 792.75,-601.76 790.06,-608.22"/>
<text text-anchor="middle" x="632.97" y="-547.19" font-family="monospace" font-size="10.00">uses</text>
</g>
<!-- lightning_blockstore_server::blockstore_server::BlockStoreServer::get_socket&#45;&gt;lightning_blockstore_server::blockstore_server::BlockStoreServer -->
<g id="edge20" class="edge">
<title>lightning_blockstore_server::blockstore_server::BlockStoreServer::get_socket&#45;&gt;lightning_blockstore_server::blockstore_server::BlockStoreServer</title>
<path fill="none" stroke="#7f7f7f" stroke-dasharray="5,2" d="M431.85,-1256.2C476.52,-1187.48 561.55,-954.71 572.41,-871.82"/>
<polygon fill="#7f7f7f" stroke="#7f7f7f" points="575.9,-872.11 573.4,-861.81 568.93,-871.42 575.9,-872.11"/>
<text text-anchor="middle" x="489.63" y="-1067.01" font-family="monospace" font-size="10.00">uses</text>
</g>
<!-- lightning_blockstore_server::blockstore_server::BlockStoreServer::init&#45;&gt;lightning_blockstore_server::blockstore_server::BlockStoreServer -->
<g id="edge21" class="edge">
<title>lightning_blockstore_server::blockstore_server::BlockStoreServer::init&#45;&gt;lightning_blockstore_server::blockstore_server::BlockStoreServer</title>
<path fill="none" stroke="#7f7f7f" stroke-dasharray="5,2" d="M728.74,-385.43C680.21,-459.44 579.65,-724.31 566.18,-813.32"/>
<polygon fill="#7f7f7f" stroke="#7f7f7f" points="562.71,-812.93 564.98,-823.28 569.66,-813.77 562.71,-812.93"/>
<text text-anchor="middle" x="634.96" y="-591.38" font-family="monospace" font-size="10.00">uses</text>
</g>
<!-- lightning_blockstore_server::blockstore_server::BlockStoreServer::init&#45;&gt;lightning_blockstore_server::blockstore_server::BlockstoreServerInner -->
<g id="edge22" class="edge">
<title>lightning_blockstore_server::blockstore_server::BlockStoreServer::init&#45;&gt;lightning_blockstore_server::blockstore_server::BlockstoreServerInner</title>
<path fill="none" stroke="#7f7f7f" stroke-dasharray="5,2" d="M881.19,-385.25C934.71,-392.96 996.57,-401.87 1050.77,-409.67"/>
<polygon fill="#7f7f7f" stroke="#7f7f7f" points="1050.41,-413.16 1060.8,-411.12 1051.4,-406.23 1050.41,-413.16"/>
<text text-anchor="middle" x="953.48" y="-400.46" font-family="monospace" font-size="10.00">uses</text>
</g>
<!-- lightning_blockstore_server::blockstore_server::BlockStoreServer::init&#45;&gt;lightning_blockstore_server::config::Config -->
<g id="edge23" class="edge">
<title>lightning_blockstore_server::blockstore_server::BlockStoreServer::init&#45;&gt;lightning_blockstore_server::config::Config</title>
<path fill="none" stroke="#7f7f7f" stroke-dasharray="5,2" d="M756.6,-385.52C773.44,-430.98 815.77,-545.22 835.71,-599.03"/>
<polygon fill="#7f7f7f" stroke="#7f7f7f" points="832.51,-600.48 839.27,-608.64 839.08,-598.05 832.51,-600.48"/>
<text text-anchor="middle" x="783.65" y="-495.27" font-family="monospace" font-size="10.00">uses</text>
</g>
<!-- lightning_blockstore_server::blockstore_server::BlockStoreServer::is_running&#45;&gt;lightning_blockstore_server::blockstore_server::BlockStoreServer -->
<g id="edge24" class="edge">
<title>lightning_blockstore_server::blockstore_server::BlockStoreServer::is_running&#45;&gt;lightning_blockstore_server::blockstore_server::BlockStoreServer</title>
<path fill="none" stroke="#7f7f7f" stroke-dasharray="5,2" d="M279.19,-1091.97C361.5,-1043.74 510.57,-925.46 556.22,-869.86"/>
<polygon fill="#7f7f7f" stroke="#7f7f7f" points="559.08,-871.87 562.41,-861.81 553.54,-867.61 559.08,-871.87"/>
<text text-anchor="middle" x="405.2" y="-983.92" font-family="monospace" font-size="10.00">uses</text>
</g>
<!-- lightning_blockstore_server::blockstore_server::BlockStoreServer::shutdown&#45;&gt;lightning_blockstore_server::blockstore_server::BlockStoreServer -->
<g id="edge25" class="edge">
<title>lightning_blockstore_server::blockstore_server::BlockStoreServer::shutdown&#45;&gt;lightning_blockstore_server::blockstore_server::BlockStoreServer</title>
<path fill="none" stroke="#7f7f7f" stroke-dasharray="5,2" d="M210.33,-869.3C292.45,-877.05 430.54,-874.26 509.22,-863.06"/>
<polygon fill="#7f7f7f" stroke="#7f7f7f" points="510.09,-866.47 519.44,-861.5 509.03,-859.55 510.09,-866.47"/>
<text text-anchor="middle" x="347.27" y="-869.18" font-family="monospace" font-size="10.00">uses</text>
</g>
<!-- lightning_blockstore_server::blockstore_server::BlockStoreServer::start&#45;&gt;lightning_blockstore_server::blockstore_server::BlockStoreServer -->
<g id="edge26" class="edge">
<title>lightning_blockstore_server::blockstore_server::BlockStoreServer::start&#45;&gt;lightning_blockstore_server::blockstore_server::BlockStoreServer</title>
<path fill="none" stroke="#7f7f7f" stroke-dasharray="5,2" d="M205.08,-582.68C243.18,-633.73 409.45,-762.37 503.81,-818.12"/>
<polygon fill="#7f7f7f" stroke="#7f7f7f" points="502.3,-821.29 512.71,-823.28 505.81,-815.23 502.3,-821.29"/>
<text text-anchor="middle" x="341.94" y="-703.4" font-family="monospace" font-size="10.00">uses</text>
</g>
<!-- lightning_blockstore_server::blockstore_server::BlockstoreServerInner::new -->
<g id="node10" class="node">
<title>lightning_blockstore_server::blockstore_server::BlockstoreServerInner::new</title>
<polygon fill="#81c169" stroke="black" points="1187.81,-0.5 1187.81,-38.5 1474.81,-38.5 1474.81,-0.5 1187.81,-0.5"/>
<text text-anchor="middle" x="1331.31" y="-26.5" font-family="monospace" font-size="10.00">pub fn</text>
<polyline fill="none" stroke="black" points="1187.81,-19.5 1474.81,-19.5 "/>
<text text-anchor="middle" x="1331.31" y="-7.5" font-family="monospace" font-size="10.00">blockstore_server::BlockstoreServerInner::new</text>
</g>
<!-- lightning_blockstore_server::blockstore_server::BlockstoreServerInner&#45;&gt;lightning_blockstore_server::blockstore_server::BlockstoreServerInner::new -->
<g id="edge27" class="edge">
<title>lightning_blockstore_server::blockstore_server::BlockstoreServerInner&#45;&gt;lightning_blockstore_server::blockstore_server::BlockstoreServerInner::new</title>
<path fill="none" stroke="#000000" d="M1210.31,-410.51C1252.15,-344.53 1327.01,-128.38 1335.71,-48.9"/>
<polygon fill="#000000" stroke="#000000" points="1339.22,-48.86 1336.48,-38.63 1332.24,-48.33 1339.22,-48.86"/>
<text text-anchor="middle" x="1260.51" y="-232.71" font-family="monospace" font-size="10.00">owns</text>
</g>
<!-- lightning_blockstore_server::blockstore_server::BlockstoreServerInner::start -->
<g id="node11" class="node">
<title>lightning_blockstore_server::blockstore_server::BlockstoreServerInner::start</title>
<polygon fill="#81c169" stroke="black" points="1474.79,-492.14 1474.79,-530.14 1773.79,-530.14 1773.79,-492.14 1474.79,-492.14"/>
<text text-anchor="middle" x="1624.29" y="-518.14" font-family="monospace" font-size="10.00">pub async fn</text>
<polyline fill="none" stroke="black" points="1474.79,-511.14 1773.79,-511.14 "/>
<text text-anchor="middle" x="1624.29" y="-499.14" font-family="monospace" font-size="10.00">blockstore_server::BlockstoreServerInner::start</text>
</g>
<!-- lightning_blockstore_server::blockstore_server::BlockstoreServerInner&#45;&gt;lightning_blockstore_server::blockstore_server::BlockstoreServerInner::start -->
<g id="edge28" class="edge">
<title>lightning_blockstore_server::blockstore_server::BlockstoreServerInner&#45;&gt;lightning_blockstore_server::blockstore_server::BlockstoreServerInner::start</title>
<path fill="none" stroke="#000000" d="M1214.75,-448.72C1262.95,-468.97 1371.35,-493.32 1464.54,-507.64"/>
<polygon fill="#000000" stroke="#000000" points="1464.25,-511.13 1474.66,-509.16 1465.29,-504.21 1464.25,-511.13"/>
<text text-anchor="middle" x="1327.14" y="-481.18" font-family="monospace" font-size="10.00">owns</text>
</g>
<!-- lightning_blockstore_server::blockstore_server::BlockstoreServerInner::new&#45;&gt;lightning_blockstore_server::blockstore_server::BlockstoreServerInner -->
<g id="edge29" class="edge">
<title>lightning_blockstore_server::blockstore_server::BlockstoreServerInner::new&#45;&gt;lightning_blockstore_server::blockstore_server::BlockstoreServerInner</title>
<path fill="none" stroke="#7f7f7f" stroke-dasharray="5,2" d="M1310.48,-38.64C1268.64,-104.62 1193.78,-320.77 1185.09,-400.25"/>
<polygon fill="#7f7f7f" stroke="#7f7f7f" points="1181.58,-400.29 1184.31,-410.52 1188.56,-400.82 1181.58,-400.29"/>
<text text-anchor="middle" x="1235.28" y="-222.44" font-family="monospace" font-size="10.00">uses</text>
</g>
<!-- lightning_blockstore_server::blockstore_server::BlockstoreServerInner::start&#45;&gt;lightning_blockstore_server::blockstore_server::BlockstoreServerInner -->
<g id="edge30" class="edge">
<title>lightning_blockstore_server::blockstore_server::BlockstoreServerInner::start&#45;&gt;lightning_blockstore_server::blockstore_server::BlockstoreServerInner</title>
<path fill="none" stroke="#7f7f7f" stroke-dasharray="5,2" d="M1599.02,-492.07C1547.12,-470.27 1425.4,-443.71 1328.05,-430.03"/>
<polygon fill="#7f7f7f" stroke="#7f7f7f" points="1328.49,-426.56 1318.11,-428.67 1327.54,-433.5 1328.49,-426.56"/>
<text text-anchor="middle" x="1451.04" y="-464.05" font-family="monospace" font-size="10.00">uses</text>
</g>
<!-- lightning_blockstore_server::blockstore_server::BlockstoreServerInner::start&#45;&gt;lightning_blockstore_server::blockstore_server::PeerRequest -->
<g id="edge31" class="edge">
<title>lightning_blockstore_server::blockstore_server::BlockstoreServerInner::start&#45;&gt;lightning_blockstore_server::blockstore_server::PeerRequest</title>
<path fill="none" stroke="#7f7f7f" stroke-dasharray="5,2" d="M1612.34,-530.19C1572.14,-594.32 1441.6,-802.52 1394.1,-878.28"/>
<polygon fill="#7f7f7f" stroke="#7f7f7f" points="1391.08,-876.51 1388.73,-886.84 1397.01,-880.23 1391.08,-876.51"/>
<text text-anchor="middle" x="1490.72" y="-707.24" font-family="monospace" font-size="10.00">uses</text>
</g>
<!-- lightning_blockstore_server::blockstore_server::ErrorResponse&#45;&gt;lightning_blockstore_server::blockstore_server::PeerRequest -->
<g id="edge32" class="edge">
<title>lightning_blockstore_server::blockstore_server::ErrorResponse&#45;&gt;lightning_blockstore_server::blockstore_server::PeerRequest</title>
<path fill="none" stroke="#7f7f7f" stroke-dasharray="5,2" d="M1075,-1157.63C1131.99,-1110.12 1280.63,-986.19 1345.54,-932.08"/>
<polygon fill="#7f7f7f" stroke="#7f7f7f" points="1347.95,-934.62 1353.39,-925.53 1343.47,-929.24 1347.95,-934.62"/>
<text text-anchor="middle" x="1197.77" y="-1047.85" font-family="monospace" font-size="10.00">uses</text>
</g>
<!-- lightning_blockstore_server::blockstore_server::handle_request&#45;&gt;lightning_blockstore_server::blockstore_server::Frame -->
<g id="edge33" class="edge">
<title>lightning_blockstore_server::blockstore_server::handle_request&#45;&gt;lightning_blockstore_server::blockstore_server::Frame</title>
<path fill="none" stroke="#7f7f7f" stroke-dasharray="5,2" d="M1549.33,-1056.54C1528.35,-1101.44 1476.19,-1213.07 1451.61,-1265.67"/>
<polygon fill="#7f7f7f" stroke="#7f7f7f" points="1448.42,-1264.23 1447.36,-1274.78 1454.76,-1267.2 1448.42,-1264.23"/>
<text text-anchor="middle" x="1487.97" y="-1164.11" font-family="monospace" font-size="10.00">uses</text>
</g>
<!-- lightning_blockstore_server::blockstore_server::handle_request&#45;&gt;lightning_blockstore_server::blockstore_server::PeerRequest -->
<g id="edge34" class="edge">
<title>lightning_blockstore_server::blockstore_server::handle_request&#45;&gt;lightning_blockstore_server::blockstore_server::PeerRequest</title>
<path fill="none" stroke="#7f7f7f" stroke-dasharray="5,2" d="M1531.92,-1018.19C1500.15,-995.28 1446.75,-956.75 1411.59,-931.4"/>
<polygon fill="#7f7f7f" stroke="#7f7f7f" points="1413.23,-928.26 1403.07,-925.25 1409.13,-933.94 1413.23,-928.26"/>
<text text-anchor="middle" x="1459.25" y="-977.79" font-family="monospace" font-size="10.00">uses</text>
</g>
<!-- lightning_blockstore_server::blockstore_server::send_request&#45;&gt;lightning_blockstore_server::blockstore_server::ErrorResponse -->
<g id="edge35" class="edge">
<title>lightning_blockstore_server::blockstore_server::send_request&#45;&gt;lightning_blockstore_server::blockstore_server::ErrorResponse</title>
<path fill="none" stroke="#7f7f7f" stroke-dasharray="5,2" d="M1199.89,-1234.73C1172.77,-1224.06 1138.79,-1210.7 1110.26,-1199.48"/>
<polygon fill="#7f7f7f" stroke="#7f7f7f" points="1111.4,-1196.17 1100.81,-1195.77 1108.83,-1202.68 1111.4,-1196.17"/>
<text text-anchor="middle" x="1142.57" y="-1220.11" font-family="monospace" font-size="10.00">uses</text>
</g>
<!-- lightning_blockstore_server::blockstore_server::send_request&#45;&gt;lightning_blockstore_server::blockstore_server::Frame -->
<g id="edge36" class="edge">
<title>lightning_blockstore_server::blockstore_server::send_request&#45;&gt;lightning_blockstore_server::blockstore_server::Frame</title>
<path fill="none" stroke="#7f7f7f" stroke-dasharray="5,2" d="M1338.38,-1272.81C1341.5,-1273.47 1344.62,-1274.13 1347.73,-1274.79"/>
<polygon fill="#7f7f7f" stroke="#7f7f7f" points="1347.13,-1278.24 1357.64,-1276.88 1348.58,-1271.39 1347.13,-1278.24"/>
<text text-anchor="middle" x="1330.56" y="-1276.8" font-family="monospace" font-size="10.00">uses</text>
</g>
<!-- lightning_blockstore_server::blockstore_server::send_request&#45;&gt;lightning_blockstore_server::blockstore_server::PeerRequest -->
<g id="edge37" class="edge">
<title>lightning_blockstore_server::blockstore_server::send_request&#45;&gt;lightning_blockstore_server::blockstore_server::PeerRequest</title>
<path fill="none" stroke="#7f7f7f" stroke-dasharray="5,2" d="M1255.46,-1234.61C1276.79,-1176.8 1340.52,-1004.03 1365.96,-935.06"/>
<polygon fill="#7f7f7f" stroke="#7f7f7f" points="1369.38,-935.89 1369.56,-925.29 1362.82,-933.46 1369.38,-935.89"/>
<text text-anchor="middle" x="1298.21" y="-1087.84" font-family="monospace" font-size="10.00">uses</text>
</g>
</g>
</svg>
