<?xml version="1.0" encoding="UTF-8" standalone="no"?>
<!DOCTYPE svg PUBLIC "-//W3C//DTD SVG 1.1//EN"
 "http://www.w3.org/Graphics/SVG/1.1/DTD/svg11.dtd">
<!-- Generated by graphviz version 4.0.0 (0)
 -->
<!-- Pages: 1 -->
<svg width="567pt" height="358pt"
 viewBox="0.00 0.00 566.60 358.46" xmlns="http://www.w3.org/2000/svg" xmlns:xlink="http://www.w3.org/1999/xlink">
<g id="graph0" class="graph" transform="scale(1 1) rotate(0) translate(28.8 329.66)">
<polygon fill="white" stroke="transparent" points="-28.8,28.8 -28.8,-329.66 537.8,-329.66 537.8,28.8 -28.8,28.8"/>
<text text-anchor="middle" x="254.5" y="-268.06" font-family="Helvetica,sans-Serif" font-size="36.00">lightning_blockstore_server</text>
<!-- core::mem -->
<g id="node1" class="node">
<title>core::mem</title>
<polygon fill="#81c169" stroke="black" points="112.16,-15.85 112.16,-53.85 201.16,-53.85 201.16,-15.85 112.16,-15.85"/>
<text text-anchor="middle" x="156.66" y="-41.85" font-family="monospace" font-size="10.00">external mod</text>
<polyline fill="none" stroke="black" points="112.16,-34.85 201.16,-34.85 "/>
<text text-anchor="middle" x="156.66" y="-22.85" font-family="monospace" font-size="10.00">core::mem</text>
</g>
<!-- lightning_blockstore_server -->
<g id="node2" class="node">
<title>lightning_blockstore_server</title>
<polygon fill="#5397c8" stroke="black" points="257.51,-149.67 257.51,-187.67 436.51,-187.67 436.51,-149.67 257.51,-149.67"/>
<text text-anchor="middle" x="347.01" y="-175.67" font-family="monospace" font-size="10.00">crate</text>
<polyline fill="none" stroke="black" points="257.51,-168.67 436.51,-168.67 "/>
<text text-anchor="middle" x="347.01" y="-156.67" font-family="monospace" font-size="10.00">lightning_blockstore_server</text>
</g>
<!-- lightning_blockstore_server::blockstore_server -->
<g id="node3" class="node">
<title>lightning_blockstore_server::blockstore_server</title>
<polygon fill="#f8c04c" stroke="black" points="92.19,-102.66 92.19,-140.66 385.19,-140.66 385.19,-102.66 92.19,-102.66"/>
<text text-anchor="middle" x="238.69" y="-128.66" font-family="monospace" font-size="10.00">pub(crate) mod</text>
<polyline fill="none" stroke="black" points="92.19,-121.66 385.19,-121.66 "/>
<text text-anchor="middle" x="238.69" y="-109.66" font-family="monospace" font-size="10.00">lightning_blockstore_server::blockstore_server</text>
</g>
<!-- lightning_blockstore_server&#45;&gt;lightning_blockstore_server::blockstore_server -->
<g id="edge1" class="edge">
<title>lightning_blockstore_server&#45;&gt;lightning_blockstore_server::blockstore_server</title>
<path fill="none" stroke="#000000" d="M343.84,-149.65C343.53,-149.17 343.2,-148.7 342.85,-148.24"/>
<polygon fill="#000000" stroke="#000000" points="345.39,-145.82 336.09,-140.74 340.19,-150.51 345.39,-145.82"/>
<text text-anchor="middle" x="330.85" y="-140.94" font-family="monospace" font-size="10.00">owns</text>
</g>
<!-- lightning_blockstore_server&#45;&gt;lightning_blockstore_server::blockstore_server -->
<g id="edge2" class="edge">
<title>lightning_blockstore_server&#45;&gt;lightning_blockstore_server::blockstore_server</title>
<path fill="none" stroke="#7f7f7f" stroke-dasharray="5,2" d="M257.3,-155.93C254.07,-153.56 251.12,-151.09 248.54,-148.57"/>
<polygon fill="#7f7f7f" stroke="#7f7f7f" points="251.12,-146.2 241.97,-140.86 245.79,-150.74 251.12,-146.2"/>
<text text-anchor="middle" x="240.42" y="-155.25" font-family="monospace" font-size="10.00">uses</text>
</g>
<!-- lightning_blockstore_server::config -->
<g id="node4" class="node">
<title>lightning_blockstore_server::config</title>
<polygon fill="#f8c04c" stroke="black" points="163.25,-214.36 163.25,-252.36 390.25,-252.36 390.25,-214.36 163.25,-214.36"/>
<text text-anchor="middle" x="276.75" y="-240.36" font-family="monospace" font-size="10.00">pub(crate) mod</text>
<polyline fill="none" stroke="black" points="163.25,-233.36 390.25,-233.36 "/>
<text text-anchor="middle" x="276.75" y="-221.36" font-family="monospace" font-size="10.00">lightning_blockstore_server::config</text>
</g>
<!-- lightning_blockstore_server&#45;&gt;lightning_blockstore_server::config -->
<g id="edge3" class="edge">
<title>lightning_blockstore_server&#45;&gt;lightning_blockstore_server::config</title>
<path fill="none" stroke="#000000" d="M286.96,-187.91C282.21,-193.27 278.23,-199.04 275.53,-204.78"/>
<polygon fill="#000000" stroke="#000000" points="272.2,-203.71 272.27,-214.31 278.82,-205.98 272.2,-203.71"/>
<text text-anchor="middle" x="268.75" y="-199.34" font-family="monospace" font-size="10.00">owns</text>
</g>
<!-- lightning_blockstore_server&#45;&gt;lightning_blockstore_server::config -->
<g id="edge4" class="edge">
<title>lightning_blockstore_server&#45;&gt;lightning_blockstore_server::config</title>
<path fill="none" stroke="#7f7f7f" stroke-dasharray="5,2" d="M351.43,-188.02C350.18,-193.92 347.19,-200.14 343.07,-206.14"/>
<polygon fill="#7f7f7f" stroke="#7f7f7f" points="340.21,-204.12 336.78,-214.14 345.71,-208.44 340.21,-204.12"/>
<text text-anchor="middle" x="334.75" y="-200.08" font-family="monospace" font-size="10.00">uses</text>
</g>
<!-- lightning_blockstore_server::blockstore_server&#45;&gt;core::mem -->
<g id="edge5" class="edge">
<title>lightning_blockstore_server::blockstore_server&#45;&gt;core::mem</title>
<path fill="none" stroke="#7f7f7f" stroke-dasharray="5,2" d="M220.48,-102.4C209.12,-90.37 194.33,-74.72 181.85,-61.51"/>
<polygon fill="#7f7f7f" stroke="#7f7f7f" points="184.23,-58.93 174.81,-54.06 179.14,-63.73 184.23,-58.93"/>
<text text-anchor="middle" x="188.67" y="-84.95" font-family="monospace" font-size="10.00">uses</text>
</g>
<!-- lightning_blockstore_server::blockstore_server&#45;&gt;lightning_blockstore_server::config -->
<g id="edge6" class="edge">
<title>lightning_blockstore_server::blockstore_server&#45;&gt;lightning_blockstore_server::config</title>
<path fill="none" stroke="#7f7f7f" stroke-dasharray="5,2" d="M245.23,-140.86C251.2,-158.37 260.09,-184.46 266.91,-204.48"/>
<polygon fill="#7f7f7f" stroke="#7f7f7f" points="263.63,-205.7 270.17,-214.04 270.25,-203.44 263.63,-205.7"/>
<text text-anchor="middle" x="243.57" y="-175.67" font-family="monospace" font-size="10.00">uses</text>
</g>
<!-- tokio::sync::broadcast -->
<g id="node5" class="node">
<title>tokio::sync::broadcast</title>
<polygon fill="#81c169" stroke="black" points="231.82,-0.5 231.82,-38.5 380.82,-38.5 380.82,-0.5 231.82,-0.5"/>
<text text-anchor="middle" x="306.32" y="-26.5" font-family="monospace" font-size="10.00">external mod</text>
<polyline fill="none" stroke="black" points="231.82,-19.5 380.82,-19.5 "/>
<text text-anchor="middle" x="306.32" y="-7.5" font-family="monospace" font-size="10.00">tokio::sync::broadcast</text>
</g>
<!-- lightning_blockstore_server::blockstore_server&#45;&gt;tokio::sync::broadcast -->
<g id="edge7" class="edge">
<title>lightning_blockstore_server::blockstore_server&#45;&gt;tokio::sync::broadcast</title>
<path fill="none" stroke="#7f7f7f" stroke-dasharray="5,2" d="M251.41,-102.45C261.71,-86.89 276.35,-64.78 287.92,-47.29"/>
<polygon fill="#7f7f7f" stroke="#7f7f7f" points="291.06,-48.9 293.66,-38.63 285.22,-45.04 291.06,-48.9"/>
<text text-anchor="middle" x="257.17" y="-77.87" font-family="monospace" font-size="10.00">uses</text>
</g>
<!-- tokio::sync::mpsc -->
<g id="node6" class="node">
<title>tokio::sync::mpsc</title>
<polygon fill="#81c169" stroke="black" points="72.49,-163.31 72.49,-201.31 191.49,-201.31 191.49,-163.31 72.49,-163.31"/>
<text text-anchor="middle" x="131.99" y="-189.31" font-family="monospace" font-size="10.00">external mod</text>
<polyline fill="none" stroke="black" points="72.49,-182.31 191.49,-182.31 "/>
<text text-anchor="middle" x="131.99" y="-170.31" font-family="monospace" font-size="10.00">tokio::sync::mpsc</text>
</g>
<!-- lightning_blockstore_server::blockstore_server&#45;&gt;tokio::sync::mpsc -->
<g id="edge8" class="edge">
<title>lightning_blockstore_server::blockstore_server&#45;&gt;tokio::sync::mpsc</title>
<path fill="none" stroke="#7f7f7f" stroke-dasharray="5,2" d="M205.22,-140.68C195.48,-146.22 184.71,-152.34 174.5,-158.15"/>
<polygon fill="#7f7f7f" stroke="#7f7f7f" points="172.67,-155.16 165.7,-163.14 176.13,-161.25 172.67,-155.16"/>
<text text-anchor="middle" x="177.36" y="-152.42" font-family="monospace" font-size="10.00">uses</text>
</g>
</g>
</svg>
