<?xml version="1.0" encoding="UTF-8" standalone="no"?>
<!DOCTYPE svg PUBLIC "-//W3C//DTD SVG 1.1//EN"
 "http://www.w3.org/Graphics/SVG/1.1/DTD/svg11.dtd">
<!-- Generated by graphviz version 4.0.0 (0)
 -->
<!-- Pages: 1 -->
<svg width="350pt" height="275pt"
 viewBox="0.00 0.00 349.60 274.60" xmlns="http://www.w3.org/2000/svg" xmlns:xlink="http://www.w3.org/1999/xlink">
<g id="graph0" class="graph" transform="scale(1 1) rotate(0) translate(37.3 245.8)">
<polygon fill="white" stroke="transparent" points="-37.3,28.8 -37.3,-245.8 312.3,-245.8 312.3,28.8 -37.3,28.8"/>
<text text-anchor="middle" x="137.5" y="-184.2" font-family="Helvetica,sans-Serif" font-size="36.00">interfaces_proc</text>
<!-- interfaces_proc -->
<g id="node1" class="node">
<title>interfaces_proc</title>
<polygon fill="#5397c8" stroke="black" points="50.31,-83.44 50.31,-121.44 157.31,-121.44 157.31,-83.44 50.31,-83.44"/>
<text text-anchor="middle" x="103.81" y="-109.44" font-family="monospace" font-size="10.00">crate</text>
<polyline fill="none" stroke="black" points="50.31,-102.44 157.31,-102.44 "/>
<text text-anchor="middle" x="103.81" y="-90.44" font-family="monospace" font-size="10.00">interfaces_proc</text>
</g>
<!-- interfaces_proc::blank -->
<g id="node2" class="node">
<title>interfaces_proc::blank</title>
<polygon fill="#f8c04c" stroke="black" points="112.49,-130.44 112.49,-168.44 261.49,-168.44 261.49,-130.44 112.49,-130.44"/>
<text text-anchor="middle" x="186.99" y="-156.44" font-family="monospace" font-size="10.00">pub(crate) mod</text>
<polyline fill="none" stroke="black" points="112.49,-149.44 261.49,-149.44 "/>
<text text-anchor="middle" x="186.99" y="-137.44" font-family="monospace" font-size="10.00">interfaces_proc::blank</text>
</g>
<!-- interfaces_proc&#45;&gt;interfaces_proc::blank -->
<g id="edge1" class="edge">
<title>interfaces_proc&#45;&gt;interfaces_proc::blank</title>
<path fill="none" stroke="#000000" d="M137.64,-121.55C139.88,-122.82 142.16,-124.11 144.44,-125.4"/>
<polygon fill="#000000" stroke="#000000" points="142.76,-128.47 153.19,-130.34 146.2,-122.37 142.76,-128.47"/>
<text text-anchor="middle" x="128.54" y="-126.48" font-family="monospace" font-size="10.00">owns</text>
</g>
<!-- interfaces_proc::partial -->
<g id="node3" class="node">
<title>interfaces_proc::partial</title>
<polygon fill="#f8c04c" stroke="black" points="13.88,-0.65 13.88,-38.65 174.88,-38.65 174.88,-0.65 13.88,-0.65"/>
<text text-anchor="middle" x="94.38" y="-26.65" font-family="monospace" font-size="10.00">pub(crate) mod</text>
<polyline fill="none" stroke="black" points="13.88,-19.65 174.88,-19.65 "/>
<text text-anchor="middle" x="94.38" y="-7.65" font-family="monospace" font-size="10.00">interfaces_proc::partial</text>
</g>
<!-- interfaces_proc&#45;&gt;interfaces_proc::partial -->
<g id="edge2" class="edge">
<title>interfaces_proc&#45;&gt;interfaces_proc::partial</title>
<path fill="none" stroke="#000000" d="M123.95,-83.17C127.2,-72.81 127.11,-59.85 124.14,-48.33"/>
<polygon fill="#000000" stroke="#000000" points="127.38,-46.99 120.8,-38.68 120.76,-49.28 127.38,-46.99"/>
<text text-anchor="middle" x="111.55" y="-68.75" font-family="monospace" font-size="10.00">owns</text>
</g>
<!-- interfaces_proc&#45;&gt;interfaces_proc::partial -->
<g id="edge3" class="edge">
<title>interfaces_proc&#45;&gt;interfaces_proc::partial</title>
<path fill="none" stroke="#7f7f7f" stroke-dasharray="5,2" d="M77.39,-83.41C72.8,-73.16 70.92,-60.32 72.2,-48.84"/>
<polygon fill="#7f7f7f" stroke="#7f7f7f" points="75.68,-49.29 74.27,-38.79 68.82,-47.88 75.68,-49.29"/>
<text text-anchor="middle" x="62.29" y="-69.13" font-family="monospace" font-size="10.00">uses</text>
</g>
</g>
</svg>
