<?xml version="1.0" encoding="UTF-8" standalone="no"?>
<!DOCTYPE svg PUBLIC "-//W3C//DTD SVG 1.1//EN"
 "http://www.w3.org/Graphics/SVG/1.1/DTD/svg11.dtd">
<!-- Generated by graphviz version 4.0.0 (0)
 -->
<!-- Pages: 1 -->
<svg width="383pt" height="361pt"
 viewBox="0.00 0.00 382.60 360.60" xmlns="http://www.w3.org/2000/svg" xmlns:xlink="http://www.w3.org/1999/xlink">
<g id="graph0" class="graph" transform="scale(1 1) rotate(0) translate(32.8 331.8)">
<polygon fill="white" stroke="transparent" points="-32.8,28.8 -32.8,-331.8 349.8,-331.8 349.8,28.8 -32.8,28.8"/>
<text text-anchor="middle" x="158.5" y="-270.2" font-family="Helvetica,sans-Serif" font-size="36.00">lightning_indexer</text>
<!-- lightning_indexer -->
<g id="node1" class="node">
<title>lightning_indexer</title>
<polygon fill="#5397c8" stroke="black" points="-0.23,-62.51 -0.23,-100.51 118.77,-100.51 118.77,-62.51 -0.23,-62.51"/>
<text text-anchor="middle" x="59.27" y="-88.51" font-family="monospace" font-size="10.00">crate</text>
<polyline fill="none" stroke="black" points="-0.23,-81.51 118.77,-81.51 "/>
<text text-anchor="middle" x="59.27" y="-69.51" font-family="monospace" font-size="10.00">lightning_indexer</text>
</g>
<!-- lightning_indexer::Indexer -->
<g id="node2" class="node">
<title>lightning_indexer::Indexer</title>
<polygon fill="#81c169" stroke="black" points="111.72,-116.5 111.72,-154.5 188.72,-154.5 188.72,-116.5 111.72,-116.5"/>
<text text-anchor="middle" x="150.22" y="-142.5" font-family="monospace" font-size="10.00">pub struct</text>
<polyline fill="none" stroke="black" points="111.72,-135.5 188.72,-135.5 "/>
<text text-anchor="middle" x="150.22" y="-123.5" font-family="monospace" font-size="10.00">Indexer</text>
</g>
<!-- lightning_indexer&#45;&gt;lightning_indexer::Indexer -->
<g id="edge1" class="edge">
<title>lightning_indexer&#45;&gt;lightning_indexer::Indexer</title>
<path fill="none" stroke="#000000" d="M91.33,-100.54C97.18,-104.01 103.34,-107.67 109.4,-111.27"/>
<polygon fill="#000000" stroke="#000000" points="107.75,-114.36 118.14,-116.46 111.32,-108.34 107.75,-114.36"/>
<text text-anchor="middle" x="87.86" y="-108.91" font-family="monospace" font-size="10.00">owns</text>
</g>
<!-- lightning_indexer::Indexer::build_graph -->
<g id="node3" class="node">
<title>lightning_indexer::Indexer::build_graph</title>
<polygon fill="#f8c04c" stroke="black" points="180.31,-51.81 180.31,-89.81 317.31,-89.81 317.31,-51.81 180.31,-51.81"/>
<text text-anchor="middle" x="248.81" y="-77.81" font-family="monospace" font-size="10.00">pub(crate) fn</text>
<polyline fill="none" stroke="black" points="180.31,-70.81 317.31,-70.81 "/>
<text text-anchor="middle" x="248.81" y="-58.81" font-family="monospace" font-size="10.00">Indexer::build_graph</text>
</g>
<!-- lightning_indexer::Indexer&#45;&gt;lightning_indexer::Indexer::build_graph -->
<g id="edge2" class="edge">
<title>lightning_indexer::Indexer&#45;&gt;lightning_indexer::Indexer::build_graph</title>
<path fill="none" stroke="#000000" d="M179.27,-116.44C189.21,-109.92 200.48,-102.53 211.01,-95.62"/>
<polygon fill="#000000" stroke="#000000" points="213.19,-98.37 219.63,-89.96 209.35,-92.52 213.19,-98.37"/>
<text text-anchor="middle" x="182.64" y="-98.03" font-family="monospace" font-size="10.00">owns</text>
</g>
<!-- lightning_indexer::Indexer::get_index -->
<g id="node4" class="node">
<title>lightning_indexer::Indexer::get_index</title>
<polygon fill="#f8c04c" stroke="black" points="93.08,-216.91 93.08,-254.91 218.08,-254.91 218.08,-216.91 93.08,-216.91"/>
<text text-anchor="middle" x="155.58" y="-242.91" font-family="monospace" font-size="10.00">pub(crate) fn</text>
<polyline fill="none" stroke="black" points="93.08,-235.91 218.08,-235.91 "/>
<text text-anchor="middle" x="155.58" y="-223.91" font-family="monospace" font-size="10.00">Indexer::get_index</text>
</g>
<!-- lightning_indexer::Indexer&#45;&gt;lightning_indexer::Indexer::get_index -->
<g id="edge3" class="edge">
<title>lightning_indexer::Indexer&#45;&gt;lightning_indexer::Indexer::get_index</title>
<path fill="none" stroke="#000000" d="M129.94,-154.59C124.65,-169.39 124.51,-190.15 128.99,-206.99"/>
<polygon fill="#000000" stroke="#000000" points="125.83,-208.55 132.38,-216.88 132.45,-206.28 125.83,-208.55"/>
<text text-anchor="middle" x="141.97" y="-183.79" font-family="monospace" font-size="10.00">owns</text>
</g>
<!-- lightning_indexer::Indexer::init -->
<g id="node5" class="node">
<title>lightning_indexer::Indexer::init</title>
<polygon fill="#f8c04c" stroke="black" points="196.73,-162.09 196.73,-200.09 291.73,-200.09 291.73,-162.09 196.73,-162.09"/>
<text text-anchor="middle" x="244.23" y="-188.09" font-family="monospace" font-size="10.00">pub(crate) fn</text>
<polyline fill="none" stroke="black" points="196.73,-181.09 291.73,-181.09 "/>
<text text-anchor="middle" x="244.23" y="-169.09" font-family="monospace" font-size="10.00">Indexer::init</text>
</g>
<!-- lightning_indexer::Indexer&#45;&gt;lightning_indexer::Indexer::init -->
<g id="edge4" class="edge">
<title>lightning_indexer::Indexer&#45;&gt;lightning_indexer::Indexer::init</title>
<path fill="none" stroke="#000000" d="M151.72,-154.52C157.8,-165.55 171.67,-176.18 186.97,-183.32"/>
<polygon fill="#000000" stroke="#000000" points="186.04,-186.72 196.62,-187.28 188.7,-180.25 186.04,-186.72"/>
<text text-anchor="middle" x="156.84" y="-171.92" font-family="monospace" font-size="10.00">owns</text>
</g>
<!-- lightning_indexer::Indexer::register -->
<g id="node6" class="node">
<title>lightning_indexer::Indexer::register</title>
<polygon fill="#f8c04c" stroke="black" points="0.31,-165.81 0.31,-203.81 131.31,-203.81 131.31,-165.81 0.31,-165.81"/>
<text text-anchor="middle" x="65.81" y="-191.81" font-family="monospace" font-size="10.00">pub(crate) async fn</text>
<polyline fill="none" stroke="black" points="0.31,-184.81 131.31,-184.81 "/>
<text text-anchor="middle" x="65.81" y="-172.81" font-family="monospace" font-size="10.00">Indexer::register</text>
</g>
<!-- lightning_indexer::Indexer&#45;&gt;lightning_indexer::Indexer::register -->
<g id="edge5" class="edge">
<title>lightning_indexer::Indexer&#45;&gt;lightning_indexer::Indexer::register</title>
<path fill="none" stroke="#000000" d="M111.52,-128.98C95.96,-134.22 79.92,-144.93 70.81,-156.79"/>
<polygon fill="#000000" stroke="#000000" points="67.68,-155.2 65.51,-165.57 73.67,-158.82 67.68,-155.2"/>
<text text-anchor="middle" x="78.66" y="-145.89" font-family="monospace" font-size="10.00">owns</text>
</g>
<!-- lightning_indexer::Indexer::unregister -->
<g id="node7" class="node">
<title>lightning_indexer::Indexer::unregister</title>
<polygon fill="#f8c04c" stroke="black" points="83.13,-0.84 83.13,-38.84 214.13,-38.84 214.13,-0.84 83.13,-0.84"/>
<text text-anchor="middle" x="148.63" y="-26.84" font-family="monospace" font-size="10.00">pub(crate) async fn</text>
<polyline fill="none" stroke="black" points="83.13,-19.84 214.13,-19.84 "/>
<text text-anchor="middle" x="148.63" y="-7.84" font-family="monospace" font-size="10.00">Indexer::unregister</text>
</g>
<!-- lightning_indexer::Indexer&#45;&gt;lightning_indexer::Indexer::unregister -->
<g id="edge6" class="edge">
<title>lightning_indexer::Indexer&#45;&gt;lightning_indexer::Indexer::unregister</title>
<path fill="none" stroke="#000000" d="M170.52,-116.38C177.56,-98.02 178.27,-70.03 172.89,-48.91"/>
<polygon fill="#000000" stroke="#000000" points="176.15,-47.61 169.76,-39.16 169.49,-49.75 176.15,-47.61"/>
<text text-anchor="middle" x="159.21" y="-85.64" font-family="monospace" font-size="10.00">owns</text>
</g>
<!-- lightning_indexer::Indexer::get_index&#45;&gt;lightning_indexer::Indexer -->
<g id="edge7" class="edge">
<title>lightning_indexer::Indexer::get_index&#45;&gt;lightning_indexer::Indexer</title>
<path fill="none" stroke="#7f7f7f" stroke-dasharray="5,2" d="M175.85,-216.83C181.15,-202.02 181.29,-181.27 176.81,-164.43"/>
<polygon fill="#7f7f7f" stroke="#7f7f7f" points="179.97,-162.86 173.42,-154.53 173.35,-165.13 179.97,-162.86"/>
<text text-anchor="middle" x="182.58" y="-182.63" font-family="monospace" font-size="10.00">uses</text>
</g>
<!-- lightning_indexer::Indexer::init&#45;&gt;lightning_indexer::Indexer -->
<g id="edge8" class="edge">
<title>lightning_indexer::Indexer::init&#45;&gt;lightning_indexer::Indexer</title>
<path fill="none" stroke="#7f7f7f" stroke-dasharray="5,2" d="M242.73,-162.08C235.51,-148.98 217.31,-136.45 198.78,-129.66"/>
<polygon fill="#7f7f7f" stroke="#7f7f7f" points="199.7,-126.28 189.12,-126.65 197.63,-132.96 199.7,-126.28"/>
<text text-anchor="middle" x="208.26" y="-148.87" font-family="monospace" font-size="10.00">uses</text>
</g>
<!-- lightning_indexer::Indexer::register&#45;&gt;lightning_indexer::Indexer -->
<g id="edge9" class="edge">
<title>lightning_indexer::Indexer::register&#45;&gt;lightning_indexer::Indexer</title>
<path fill="none" stroke="#7f7f7f" stroke-dasharray="5,2" d="M131.56,-176.83C136.92,-172.74 141.65,-168.18 145.27,-163.45"/>
<polygon fill="#7f7f7f" stroke="#7f7f7f" points="148.33,-165.16 150.5,-154.79 142.34,-161.55 148.33,-165.16"/>
<text text-anchor="middle" x="144.67" y="-162.14" font-family="monospace" font-size="10.00">uses</text>
</g>
<!-- lightning_indexer::Indexer::unregister&#45;&gt;lightning_indexer::Indexer -->
<g id="edge10" class="edge">
<title>lightning_indexer::Indexer::unregister&#45;&gt;lightning_indexer::Indexer</title>
<path fill="none" stroke="#7f7f7f" stroke-dasharray="5,2" d="M128.33,-38.97C121.29,-57.33 120.58,-85.32 125.96,-106.44"/>
<polygon fill="#7f7f7f" stroke="#7f7f7f" points="122.7,-107.74 129.09,-116.19 129.36,-105.59 122.7,-107.74"/>
<text text-anchor="middle" x="139.64" y="-64.7" font-family="monospace" font-size="10.00">uses</text>
</g>
</g>
</svg>
