<?xml version="1.0" encoding="UTF-8" standalone="no"?>
<!DOCTYPE svg PUBLIC "-//W3C//DTD SVG 1.1//EN"
 "http://www.w3.org/Graphics/SVG/1.1/DTD/svg11.dtd">
<!-- Generated by graphviz version 4.0.0 (0)
 -->
<!-- Pages: 1 -->
<svg width="1588pt" height="1779pt"
 viewBox="0.00 0.00 1587.60 1778.60" xmlns="http://www.w3.org/2000/svg" xmlns:xlink="http://www.w3.org/1999/xlink">
<g id="graph0" class="graph" transform="scale(1 1) rotate(0) translate(28.8 1749.8)">
<polygon fill="white" stroke="transparent" points="-28.8,28.8 -28.8,-1749.8 1558.8,-1749.8 1558.8,28.8 -28.8,28.8"/>
<text text-anchor="middle" x="765" y="-1688.2" font-family="Helvetica,sans-Serif" font-size="36.00">lightning_blockstore_server</text>
<!-- lightning_blockstore_server -->
<g id="node1" class="node">
<title>lightning_blockstore_server</title>
<polygon fill="#5397c8" stroke="black" points="711.06,-1073.81 711.06,-1111.81 890.06,-1111.81 890.06,-1073.81 711.06,-1073.81"/>
<text text-anchor="middle" x="800.56" y="-1099.81" font-family="monospace" font-size="10.00">crate</text>
<polyline fill="none" stroke="black" points="711.06,-1092.81 890.06,-1092.81 "/>
<text text-anchor="middle" x="800.56" y="-1080.81" font-family="monospace" font-size="10.00">lightning_blockstore_server</text>
</g>
<!-- lightning_blockstore_server::blockstore_server::BlockStoreServer -->
<g id="node2" class="node">
<title>lightning_blockstore_server::blockstore_server::BlockStoreServer</title>
<polygon fill="#81c169" stroke="black" points="760.46,-660.05 760.46,-698.05 987.46,-698.05 987.46,-660.05 760.46,-660.05"/>
<text text-anchor="middle" x="873.96" y="-686.05" font-family="monospace" font-size="10.00">pub struct</text>
<polyline fill="none" stroke="black" points="760.46,-679.05 987.46,-679.05 "/>
<text text-anchor="middle" x="873.96" y="-667.05" font-family="monospace" font-size="10.00">blockstore_server::BlockStoreServer</text>
</g>
<!-- lightning_blockstore_server&#45;&gt;lightning_blockstore_server::blockstore_server::BlockStoreServer -->
<g id="edge1" class="edge">
<title>lightning_blockstore_server&#45;&gt;lightning_blockstore_server::blockstore_server::BlockStoreServer</title>
<path fill="none" stroke="#000000" d="M816.98,-1073.68C847.43,-1007.51 886.72,-788.71 883.16,-708.66"/>
<polygon fill="#000000" stroke="#000000" points="886.63,-708.01 882.37,-698.31 879.65,-708.55 886.63,-708.01"/>
<text text-anchor="middle" x="837.57" y="-894.17" font-family="monospace" font-size="10.00">owns</text>
</g>
<!-- lightning_blockstore_server&#45;&gt;lightning_blockstore_server::blockstore_server::BlockStoreServer -->
<g id="edge2" class="edge">
<title>lightning_blockstore_server&#45;&gt;lightning_blockstore_server::blockstore_server::BlockStoreServer</title>
<path fill="none" stroke="#7f7f7f" stroke-dasharray="5,2" d="M792.18,-1073.8C784.34,-1007.58 822.17,-787.42 853.42,-707.93"/>
<polygon fill="#7f7f7f" stroke="#7f7f7f" points="856.73,-709.1 857.39,-698.52 850.28,-706.38 856.73,-709.1"/>
<text text-anchor="middle" x="810.3" y="-893.86" font-family="monospace" font-size="10.00">uses</text>
</g>
<!-- lightning_blockstore_server::blockstore_server::BlockstoreServerInner -->
<g id="node9" class="node">
<title>lightning_blockstore_server::blockstore_server::BlockstoreServerInner</title>
<polygon fill="#81c169" stroke="black" points="647.21,-320.51 647.21,-358.51 904.21,-358.51 904.21,-320.51 647.21,-320.51"/>
<text text-anchor="middle" x="775.71" y="-346.51" font-family="monospace" font-size="10.00">pub struct</text>
<polyline fill="none" stroke="black" points="647.21,-339.51 904.21,-339.51 "/>
<text text-anchor="middle" x="775.71" y="-327.51" font-family="monospace" font-size="10.00">blockstore_server::BlockstoreServerInner</text>
</g>
<!-- lightning_blockstore_server&#45;&gt;lightning_blockstore_server::blockstore_server::BlockstoreServerInner -->
<g id="edge3" class="edge">
<title>lightning_blockstore_server&#45;&gt;lightning_blockstore_server::blockstore_server::BlockstoreServerInner</title>
<path fill="none" stroke="#000000" d="M799.92,-1073.43C796.55,-971.05 780.78,-493.1 776.68,-369.01"/>
<polygon fill="#000000" stroke="#000000" points="780.17,-368.64 776.35,-358.76 773.18,-368.87 780.17,-368.64"/>
<text text-anchor="middle" x="775.8" y="-724.22" font-family="monospace" font-size="10.00">owns</text>
</g>
<!-- lightning_blockstore_server::blockstore_server::ErrorResponse -->
<g id="node12" class="node">
<title>lightning_blockstore_server::blockstore_server::ErrorResponse</title>
<polygon fill="#81c169" stroke="black" points="176.94,-1229.23 176.94,-1267.23 385.94,-1267.23 385.94,-1229.23 176.94,-1229.23"/>
<text text-anchor="middle" x="281.44" y="-1255.23" font-family="monospace" font-size="10.00">pub struct</text>
<polyline fill="none" stroke="black" points="176.94,-1248.23 385.94,-1248.23 "/>
<text text-anchor="middle" x="281.44" y="-1236.23" font-family="monospace" font-size="10.00">blockstore_server::ErrorResponse</text>
</g>
<!-- lightning_blockstore_server&#45;&gt;lightning_blockstore_server::blockstore_server::ErrorResponse -->
<g id="edge4" class="edge">
<title>lightning_blockstore_server&#45;&gt;lightning_blockstore_server::blockstore_server::ErrorResponse</title>
<path fill="none" stroke="#000000" d="M736.91,-1111.87C640.26,-1140.81 456.96,-1195.68 354.83,-1226.26"/>
<polygon fill="#000000" stroke="#000000" points="353.78,-1222.92 345.21,-1229.14 355.79,-1229.63 353.78,-1222.92"/>
<text text-anchor="middle" x="533.37" y="-1172.06" font-family="monospace" font-size="10.00">owns</text>
</g>
<!-- lightning_blockstore_server::blockstore_server::Frame -->
<g id="node13" class="node">
<title>lightning_blockstore_server::blockstore_server::Frame</title>
<polygon fill="#81c169" stroke="black" points="730.54,-1634.87 730.54,-1672.87 891.54,-1672.87 891.54,-1634.87 730.54,-1634.87"/>
<text text-anchor="middle" x="811.04" y="-1660.87" font-family="monospace" font-size="10.00">pub enum</text>
<polyline fill="none" stroke="black" points="730.54,-1653.87 891.54,-1653.87 "/>
<text text-anchor="middle" x="811.04" y="-1641.87" font-family="monospace" font-size="10.00">blockstore_server::Frame</text>
</g>
<!-- lightning_blockstore_server&#45;&gt;lightning_blockstore_server::blockstore_server::Frame -->
<g id="edge5" class="edge">
<title>lightning_blockstore_server&#45;&gt;lightning_blockstore_server::blockstore_server::Frame</title>
<path fill="none" stroke="#000000" d="M800.92,-1112.13C802.48,-1195.41 808.62,-1524.19 810.5,-1624.59"/>
<polygon fill="#000000" stroke="#000000" points="807,-1624.7 810.69,-1634.64 814,-1624.57 807,-1624.7"/>
<text text-anchor="middle" x="793.21" y="-1371.36" font-family="monospace" font-size="10.00">owns</text>
</g>
<!-- lightning_blockstore_server::blockstore_server::Message -->
<g id="node14" class="node">
<title>lightning_blockstore_server::blockstore_server::Message</title>
<polygon fill="#db5367" stroke="black" points="1115.37,-1365.46 1115.37,-1403.46 1288.37,-1403.46 1288.37,-1365.46 1115.37,-1365.46"/>
<text text-anchor="middle" x="1201.87" y="-1391.46" font-family="monospace" font-size="10.00">pub(self) enum</text>
<polyline fill="none" stroke="black" points="1115.37,-1384.46 1288.37,-1384.46 "/>
<text text-anchor="middle" x="1201.87" y="-1372.46" font-family="monospace" font-size="10.00">blockstore_server::Message</text>
</g>
<!-- lightning_blockstore_server&#45;&gt;lightning_blockstore_server::blockstore_server::Message -->
<g id="edge6" class="edge">
<title>lightning_blockstore_server&#45;&gt;lightning_blockstore_server::blockstore_server::Message</title>
<path fill="none" stroke="#000000" d="M826.89,-1111.95C897.14,-1163 1088.96,-1302.4 1167.58,-1359.54"/>
<polygon fill="#000000" stroke="#000000" points="1165.56,-1362.4 1175.71,-1365.44 1169.67,-1356.73 1165.56,-1362.4"/>
<text text-anchor="middle" x="984.73" y="-1238.74" font-family="monospace" font-size="10.00">owns</text>
</g>
<!-- lightning_blockstore_server::blockstore_server::PeerRequest -->
<g id="node15" class="node">
<title>lightning_blockstore_server::blockstore_server::PeerRequest</title>
<polygon fill="#81c169" stroke="black" points="330.09,-1057.93 330.09,-1095.93 527.09,-1095.93 527.09,-1057.93 330.09,-1057.93"/>
<text text-anchor="middle" x="428.59" y="-1083.93" font-family="monospace" font-size="10.00">pub struct</text>
<polyline fill="none" stroke="black" points="330.09,-1076.93 527.09,-1076.93 "/>
<text text-anchor="middle" x="428.59" y="-1064.93" font-family="monospace" font-size="10.00">blockstore_server::PeerRequest</text>
</g>
<!-- lightning_blockstore_server&#45;&gt;lightning_blockstore_server::blockstore_server::PeerRequest -->
<g id="edge7" class="edge">
<title>lightning_blockstore_server&#45;&gt;lightning_blockstore_server::blockstore_server::PeerRequest</title>
<path fill="none" stroke="#000000" d="M710.99,-1088.99C658.78,-1086.76 592.55,-1083.93 537.36,-1081.57"/>
<polygon fill="#000000" stroke="#000000" points="537.33,-1078.07 527.19,-1081.14 537.03,-1085.06 537.33,-1078.07"/>
<text text-anchor="middle" x="611.68" y="-1088.28" font-family="monospace" font-size="10.00">owns</text>
</g>
<!-- lightning_blockstore_server::blockstore_server::ServerRequestTask -->
<g id="node16" class="node">
<title>lightning_blockstore_server::blockstore_server::ServerRequestTask</title>
<polygon fill="#db5367" stroke="black" points="1219.9,-631.37 1219.9,-669.37 1452.9,-669.37 1452.9,-631.37 1219.9,-631.37"/>
<text text-anchor="middle" x="1336.4" y="-657.37" font-family="monospace" font-size="10.00">pub(self) type</text>
<polyline fill="none" stroke="black" points="1219.9,-650.37 1452.9,-650.37 "/>
<text text-anchor="middle" x="1336.4" y="-638.37" font-family="monospace" font-size="10.00">blockstore_server::ServerRequestTask</text>
</g>
<!-- lightning_blockstore_server&#45;&gt;lightning_blockstore_server::blockstore_server::ServerRequestTask -->
<g id="edge8" class="edge">
<title>lightning_blockstore_server&#45;&gt;lightning_blockstore_server::blockstore_server::ServerRequestTask</title>
<path fill="none" stroke="#000000" d="M823.59,-1073.8C909.02,-1003.26 1207.98,-756.41 1305.43,-675.95"/>
<polygon fill="#000000" stroke="#000000" points="1307.68,-678.63 1313.16,-669.56 1303.22,-673.23 1307.68,-678.63"/>
<text text-anchor="middle" x="1052.01" y="-877.87" font-family="monospace" font-size="10.00">owns</text>
</g>
<!-- lightning_blockstore_server::blockstore_server::handle_request -->
<g id="node17" class="node">
<title>lightning_blockstore_server::blockstore_server::handle_request</title>
<polygon fill="#db5367" stroke="black" points="638.7,-1265.8 638.7,-1303.8 853.7,-1303.8 853.7,-1265.8 638.7,-1265.8"/>
<text text-anchor="middle" x="746.2" y="-1291.8" font-family="monospace" font-size="10.00">pub(self) async fn</text>
<polyline fill="none" stroke="black" points="638.7,-1284.8 853.7,-1284.8 "/>
<text text-anchor="middle" x="746.2" y="-1272.8" font-family="monospace" font-size="10.00">blockstore_server::handle_request</text>
</g>
<!-- lightning_blockstore_server&#45;&gt;lightning_blockstore_server::blockstore_server::handle_request -->
<g id="edge9" class="edge">
<title>lightning_blockstore_server&#45;&gt;lightning_blockstore_server::blockstore_server::handle_request</title>
<path fill="none" stroke="#000000" d="M795.15,-1111.92C785.58,-1145.71 765.64,-1216.15 754.38,-1255.9"/>
<polygon fill="#000000" stroke="#000000" points="750.94,-1255.2 751.59,-1265.77 757.68,-1257.1 750.94,-1255.2"/>
<text text-anchor="middle" x="762.27" y="-1186.91" font-family="monospace" font-size="10.00">owns</text>
</g>
<!-- lightning_blockstore_server::blockstore_server::send_request -->
<g id="node18" class="node">
<title>lightning_blockstore_server::blockstore_server::send_request</title>
<polygon fill="#db5367" stroke="black" points="348.38,-1439.04 348.38,-1477.04 551.38,-1477.04 551.38,-1439.04 348.38,-1439.04"/>
<text text-anchor="middle" x="449.88" y="-1465.04" font-family="monospace" font-size="10.00">pub(self) async fn</text>
<polyline fill="none" stroke="black" points="348.38,-1458.04 551.38,-1458.04 "/>
<text text-anchor="middle" x="449.88" y="-1446.04" font-family="monospace" font-size="10.00">blockstore_server::send_request</text>
</g>
<!-- lightning_blockstore_server&#45;&gt;lightning_blockstore_server::blockstore_server::send_request -->
<g id="edge10" class="edge">
<title>lightning_blockstore_server&#45;&gt;lightning_blockstore_server::blockstore_server::send_request</title>
<path fill="none" stroke="#000000" d="M782.2,-1111.93C723.99,-1172.56 543.39,-1360.65 475.78,-1431.07"/>
<polygon fill="#000000" stroke="#000000" points="472.88,-1429.03 468.48,-1438.67 477.93,-1433.88 472.88,-1429.03"/>
<text text-anchor="middle" x="616.49" y="-1274.5" font-family="monospace" font-size="10.00">owns</text>
</g>
<!-- lightning_blockstore_server::config::Config -->
<g id="node19" class="node">
<title>lightning_blockstore_server::config::Config</title>
<polygon fill="#81c169" stroke="black" points="495.5,-777.44 495.5,-815.44 596.5,-815.44 596.5,-777.44 495.5,-777.44"/>
<text text-anchor="middle" x="546" y="-803.44" font-family="monospace" font-size="10.00">pub struct</text>
<polyline fill="none" stroke="black" points="495.5,-796.44 596.5,-796.44 "/>
<text text-anchor="middle" x="546" y="-784.44" font-family="monospace" font-size="10.00">config::Config</text>
</g>
<!-- lightning_blockstore_server&#45;&gt;lightning_blockstore_server::config::Config -->
<g id="edge11" class="edge">
<title>lightning_blockstore_server&#45;&gt;lightning_blockstore_server::config::Config</title>
<path fill="none" stroke="#000000" d="M799.18,-1073.81C777.77,-1021.25 661.06,-881.56 593,-822.3"/>
<polygon fill="#000000" stroke="#000000" points="594.85,-819.28 584.95,-815.49 590.32,-824.62 594.85,-819.28"/>
<text text-anchor="middle" x="683.59" y="-951.06" font-family="monospace" font-size="10.00">owns</text>
</g>
<!-- lightning_blockstore_server&#45;&gt;lightning_blockstore_server::config::Config -->
<g id="edge12" class="edge">
<title>lightning_blockstore_server&#45;&gt;lightning_blockstore_server::config::Config</title>
<path fill="none" stroke="#7f7f7f" stroke-dasharray="5,2" d="M761.49,-1073.67C698.51,-1021.91 582.72,-885.56 551.74,-824.86"/>
<polygon fill="#7f7f7f" stroke="#7f7f7f" points="554.92,-823.38 547.52,-815.79 548.57,-826.34 554.92,-823.38"/>
<text text-anchor="middle" x="644.12" y="-952.27" font-family="monospace" font-size="10.00">uses</text>
</g>
<!-- lightning_blockstore_server::blockstore_server::BlockStoreServer::Config -->
<g id="node3" class="node">
<title>lightning_blockstore_server::blockstore_server::BlockStoreServer::Config</title>
<polygon fill="#db5367" stroke="black" points="409.93,-444.83 409.93,-482.83 684.93,-482.83 684.93,-444.83 409.93,-444.83"/>
<text text-anchor="middle" x="547.43" y="-470.83" font-family="monospace" font-size="10.00">pub(self) type</text>
<polyline fill="none" stroke="black" points="409.93,-463.83 684.93,-463.83 "/>
<text text-anchor="middle" x="547.43" y="-451.83" font-family="monospace" font-size="10.00">blockstore_server::BlockStoreServer::Config</text>
</g>
<!-- lightning_blockstore_server::blockstore_server::BlockStoreServer&#45;&gt;lightning_blockstore_server::blockstore_server::BlockStoreServer::Config -->
<g id="edge13" class="edge">
<title>lightning_blockstore_server::blockstore_server::BlockStoreServer&#45;&gt;lightning_blockstore_server::blockstore_server::BlockStoreServer::Config</title>
<path fill="none" stroke="#000000" d="M844.98,-659.95C785.68,-620.87 650.54,-531.79 584.77,-488.44"/>
<polygon fill="#000000" stroke="#000000" points="586.62,-485.47 576.34,-482.89 582.76,-491.32 586.62,-485.47"/>
<text text-anchor="middle" x="702.38" y="-577.2" font-family="monospace" font-size="10.00">owns</text>
</g>
<!-- lightning_blockstore_server::blockstore_server::BlockStoreServer::get_socket -->
<g id="node4" class="node">
<title>lightning_blockstore_server::blockstore_server::BlockStoreServer::get_socket</title>
<polygon fill="#db5367" stroke="black" points="980.12,-969.58 980.12,-1007.58 1279.12,-1007.58 1279.12,-969.58 980.12,-969.58"/>
<text text-anchor="middle" x="1129.62" y="-995.58" font-family="monospace" font-size="10.00">pub(self) fn</text>
<polyline fill="none" stroke="black" points="980.12,-988.58 1279.12,-988.58 "/>
<text text-anchor="middle" x="1129.62" y="-976.58" font-family="monospace" font-size="10.00">blockstore_server::BlockStoreServer::get_socket</text>
</g>
<!-- lightning_blockstore_server::blockstore_server::BlockStoreServer&#45;&gt;lightning_blockstore_server::blockstore_server::BlockStoreServer::get_socket -->
<g id="edge14" class="edge">
<title>lightning_blockstore_server::blockstore_server::BlockStoreServer&#45;&gt;lightning_blockstore_server::blockstore_server::BlockStoreServer::get_socket</title>
<path fill="none" stroke="#000000" d="M875.25,-698.4C896.79,-753.03 1016.03,-901.11 1084.2,-962.53"/>
<polygon fill="#000000" stroke="#000000" points="1082.02,-965.27 1091.85,-969.23 1086.64,-960.01 1082.02,-965.27"/>
<text text-anchor="middle" x="967.22" y="-833.47" font-family="monospace" font-size="10.00">owns</text>
</g>
<!-- lightning_blockstore_server::blockstore_server::BlockStoreServer::init -->
<g id="node5" class="node">
<title>lightning_blockstore_server::blockstore_server::BlockStoreServer::init</title>
<polygon fill="#db5367" stroke="black" points="960.88,-514.33 960.88,-552.33 1223.88,-552.33 1223.88,-514.33 960.88,-514.33"/>
<text text-anchor="middle" x="1092.38" y="-540.33" font-family="monospace" font-size="10.00">pub(self) fn</text>
<polyline fill="none" stroke="black" points="960.88,-533.33 1223.88,-533.33 "/>
<text text-anchor="middle" x="1092.38" y="-521.33" font-family="monospace" font-size="10.00">blockstore_server::BlockStoreServer::init</text>
</g>
<!-- lightning_blockstore_server::blockstore_server::BlockStoreServer&#45;&gt;lightning_blockstore_server::blockstore_server::BlockStoreServer::init -->
<g id="edge15" class="edge">
<title>lightning_blockstore_server::blockstore_server::BlockStoreServer&#45;&gt;lightning_blockstore_server::blockstore_server::BlockStoreServer::init</title>
<path fill="none" stroke="#000000" d="M946.25,-659.99C995.44,-633.66 1055.61,-590.41 1081.2,-560.64"/>
<polygon fill="#000000" stroke="#000000" points="1084.06,-562.66 1087.46,-552.63 1078.55,-558.35 1084.06,-562.66"/>
<text text-anchor="middle" x="1001.22" y="-613.32" font-family="monospace" font-size="10.00">owns</text>
</g>
<!-- lightning_blockstore_server::blockstore_server::BlockStoreServer::is_running -->
<g id="node6" class="node">
<title>lightning_blockstore_server::blockstore_server::BlockStoreServer::is_running</title>
<polygon fill="#db5367" stroke="black" points="0.27,-818.6 0.27,-856.6 299.27,-856.6 299.27,-818.6 0.27,-818.6"/>
<text text-anchor="middle" x="149.77" y="-844.6" font-family="monospace" font-size="10.00">pub(self) fn</text>
<polyline fill="none" stroke="black" points="0.27,-837.6 299.27,-837.6 "/>
<text text-anchor="middle" x="149.77" y="-825.6" font-family="monospace" font-size="10.00">blockstore_server::BlockStoreServer::is_running</text>
</g>
<!-- lightning_blockstore_server::blockstore_server::BlockStoreServer&#45;&gt;lightning_blockstore_server::blockstore_server::BlockStoreServer::is_running -->
<g id="edge16" class="edge">
<title>lightning_blockstore_server::blockstore_server::BlockStoreServer&#45;&gt;lightning_blockstore_server::blockstore_server::BlockStoreServer::is_running</title>
<path fill="none" stroke="#000000" d="M760.09,-683.5C594.94,-708.28 297.07,-775.67 189.67,-814.93"/>
<polygon fill="#000000" stroke="#000000" points="188.3,-811.71 180.18,-818.52 190.77,-818.25 188.3,-811.71"/>
<text text-anchor="middle" x="462.38" y="-752.21" font-family="monospace" font-size="10.00">owns</text>
</g>
<!-- lightning_blockstore_server::blockstore_server::BlockStoreServer::shutdown -->
<g id="node7" class="node">
<title>lightning_blockstore_server::blockstore_server::BlockStoreServer::shutdown</title>
<polygon fill="#db5367" stroke="black" points="490.26,-56.38 490.26,-94.38 777.26,-94.38 777.26,-56.38 490.26,-56.38"/>
<text text-anchor="middle" x="633.76" y="-82.38" font-family="monospace" font-size="10.00">pub(self) async fn</text>
<polyline fill="none" stroke="black" points="490.26,-75.38 777.26,-75.38 "/>
<text text-anchor="middle" x="633.76" y="-63.38" font-family="monospace" font-size="10.00">blockstore_server::BlockStoreServer::shutdown</text>
</g>
<!-- lightning_blockstore_server::blockstore_server::BlockStoreServer&#45;&gt;lightning_blockstore_server::blockstore_server::BlockStoreServer::shutdown -->
<g id="edge17" class="edge">
<title>lightning_blockstore_server::blockstore_server::BlockStoreServer&#45;&gt;lightning_blockstore_server::blockstore_server::BlockStoreServer::shutdown</title>
<path fill="none" stroke="#000000" d="M876.42,-659.73C865.01,-571.19 721.64,-207.55 658.95,-103.25"/>
<polygon fill="#000000" stroke="#000000" points="661.77,-101.15 653.5,-94.53 655.83,-104.86 661.77,-101.15"/>
<text text-anchor="middle" x="755.19" y="-384.49" font-family="monospace" font-size="10.00">owns</text>
</g>
<!-- lightning_blockstore_server::blockstore_server::BlockStoreServer::start -->
<g id="node8" class="node">
<title>lightning_blockstore_server::blockstore_server::BlockStoreServer::start</title>
<polygon fill="#db5367" stroke="black" points="1260.58,-1016.59 1260.58,-1054.59 1529.58,-1054.59 1529.58,-1016.59 1260.58,-1016.59"/>
<text text-anchor="middle" x="1395.08" y="-1042.59" font-family="monospace" font-size="10.00">pub(self) async fn</text>
<polyline fill="none" stroke="black" points="1260.58,-1035.59 1529.58,-1035.59 "/>
<text text-anchor="middle" x="1395.08" y="-1023.59" font-family="monospace" font-size="10.00">blockstore_server::BlockStoreServer::start</text>
</g>
<!-- lightning_blockstore_server::blockstore_server::BlockStoreServer&#45;&gt;lightning_blockstore_server::blockstore_server::BlockStoreServer::start -->
<g id="edge18" class="edge">
<title>lightning_blockstore_server::blockstore_server::BlockStoreServer&#45;&gt;lightning_blockstore_server::blockstore_server::BlockStoreServer::start</title>
<path fill="none" stroke="#000000" d="M884.14,-698.26C940.42,-760.61 1203.28,-943.46 1328.73,-1011.47"/>
<polygon fill="#000000" stroke="#000000" points="1327.41,-1014.74 1337.88,-1016.36 1330.71,-1008.56 1327.41,-1014.74"/>
<text text-anchor="middle" x="1093.93" y="-857.87" font-family="monospace" font-size="10.00">owns</text>
</g>
<!-- lightning_blockstore_server::blockstore_server::BlockStoreServer::Config&#45;&gt;lightning_blockstore_server::config::Config -->
<g id="edge19" class="edge">
<title>lightning_blockstore_server::blockstore_server::BlockStoreServer::Config&#45;&gt;lightning_blockstore_server::config::Config</title>
<path fill="none" stroke="#7f7f7f" stroke-dasharray="5,2" d="M547.34,-483.15C547.11,-538.84 546.41,-699.95 546.13,-766.81"/>
<polygon fill="#7f7f7f" stroke="#7f7f7f" points="542.62,-767.06 546.08,-777.07 549.62,-767.09 542.62,-767.06"/>
<text text-anchor="middle" x="534.24" y="-627.98" font-family="monospace" font-size="10.00">uses</text>
</g>
<!-- lightning_blockstore_server::blockstore_server::BlockStoreServer::get_socket&#45;&gt;lightning_blockstore_server::blockstore_server::BlockStoreServer -->
<g id="edge20" class="edge">
<title>lightning_blockstore_server::blockstore_server::BlockStoreServer::get_socket&#45;&gt;lightning_blockstore_server::blockstore_server::BlockStoreServer</title>
<path fill="none" stroke="#7f7f7f" stroke-dasharray="5,2" d="M1128.34,-969.23C1106.79,-914.61 987.55,-766.53 919.38,-705.11"/>
<polygon fill="#7f7f7f" stroke="#7f7f7f" points="921.56,-702.36 911.73,-698.4 916.94,-707.63 921.56,-702.36"/>
<text text-anchor="middle" x="1011.36" y="-840.17" font-family="monospace" font-size="10.00">uses</text>
</g>
<!-- lightning_blockstore_server::blockstore_server::BlockStoreServer::init&#45;&gt;lightning_blockstore_server::blockstore_server::BlockStoreServer -->
<g id="edge21" class="edge">
<title>lightning_blockstore_server::blockstore_server::BlockStoreServer::init&#45;&gt;lightning_blockstore_server::blockstore_server::BlockStoreServer</title>
<path fill="none" stroke="#7f7f7f" stroke-dasharray="5,2" d="M1020.1,-552.39C970.9,-578.72 910.73,-621.97 885.14,-651.74"/>
<polygon fill="#7f7f7f" stroke="#7f7f7f" points="882.28,-649.71 878.88,-659.75 887.8,-654.03 882.28,-649.71"/>
<text text-anchor="middle" x="940.12" y="-605.06" font-family="monospace" font-size="10.00">uses</text>
</g>
<!-- lightning_blockstore_server::blockstore_server::BlockStoreServer::init&#45;&gt;lightning_blockstore_server::blockstore_server::BlockstoreServerInner -->
<g id="edge22" class="edge">
<title>lightning_blockstore_server::blockstore_server::BlockStoreServer::init&#45;&gt;lightning_blockstore_server::blockstore_server::BlockstoreServerInner</title>
<path fill="none" stroke="#7f7f7f" stroke-dasharray="5,2" d="M1061.15,-514.21C1003.33,-478.82 879.68,-403.14 815.78,-364.03"/>
<polygon fill="#7f7f7f" stroke="#7f7f7f" points="817.53,-361 807.17,-358.76 813.88,-366.97 817.53,-361"/>
<text text-anchor="middle" x="925.97" y="-442.12" font-family="monospace" font-size="10.00">uses</text>
</g>
<!-- lightning_blockstore_server::blockstore_server::BlockStoreServer::init&#45;&gt;lightning_blockstore_server::config::Config -->
<g id="edge23" class="edge">
<title>lightning_blockstore_server::blockstore_server::BlockStoreServer::init&#45;&gt;lightning_blockstore_server::config::Config</title>
<path fill="none" stroke="#7f7f7f" stroke-dasharray="5,2" d="M1052.65,-552.46C954.67,-599.64 701.76,-721.44 594.86,-772.92"/>
<polygon fill="#7f7f7f" stroke="#7f7f7f" points="593.08,-769.89 585.58,-777.38 596.11,-776.2 593.08,-769.89"/>
<text text-anchor="middle" x="811.25" y="-654.69" font-family="monospace" font-size="10.00">uses</text>
</g>
<!-- lightning_blockstore_server::blockstore_server::BlockStoreServer::is_running&#45;&gt;lightning_blockstore_server::blockstore_server::BlockStoreServer -->
<g id="edge24" class="edge">
<title>lightning_blockstore_server::blockstore_server::BlockStoreServer::is_running&#45;&gt;lightning_blockstore_server::blockstore_server::BlockStoreServer</title>
<path fill="none" stroke="#7f7f7f" stroke-dasharray="5,2" d="M299.31,-827.49C468.74,-799.26 734.23,-738.23 834.18,-701.67"/>
<polygon fill="#7f7f7f" stroke="#7f7f7f" points="835.5,-704.92 843.61,-698.1 833.02,-698.37 835.5,-704.92"/>
<text text-anchor="middle" x="554.25" y="-767.58" font-family="monospace" font-size="10.00">uses</text>
</g>
<!-- lightning_blockstore_server::blockstore_server::BlockStoreServer::shutdown&#45;&gt;lightning_blockstore_server::blockstore_server::BlockStoreServer -->
<g id="edge25" class="edge">
<title>lightning_blockstore_server::blockstore_server::BlockStoreServer::shutdown&#45;&gt;lightning_blockstore_server::blockstore_server::BlockStoreServer</title>
<path fill="none" stroke="#7f7f7f" stroke-dasharray="5,2" d="M631.3,-94.7C642.71,-183.24 786.09,-546.88 848.78,-651.18"/>
<polygon fill="#7f7f7f" stroke="#7f7f7f" points="845.96,-653.28 854.23,-659.9 851.9,-649.57 845.96,-653.28"/>
<text text-anchor="middle" x="727.54" y="-375.94" font-family="monospace" font-size="10.00">uses</text>
</g>
<!-- lightning_blockstore_server::blockstore_server::BlockStoreServer::start&#45;&gt;lightning_blockstore_server::blockstore_server::BlockStoreServer -->
<g id="edge26" class="edge">
<title>lightning_blockstore_server::blockstore_server::BlockStoreServer::start&#45;&gt;lightning_blockstore_server::blockstore_server::BlockStoreServer</title>
<path fill="none" stroke="#7f7f7f" stroke-dasharray="5,2" d="M1384.91,-1016.38C1328.62,-954.03 1065.77,-771.18 940.32,-703.17"/>
<polygon fill="#7f7f7f" stroke="#7f7f7f" points="941.63,-699.9 931.16,-698.28 938.34,-706.08 941.63,-699.9"/>
<text text-anchor="middle" x="1150.11" y="-862.77" font-family="monospace" font-size="10.00">uses</text>
</g>
<!-- lightning_blockstore_server::blockstore_server::BlockstoreServerInner::new -->
<g id="node10" class="node">
<title>lightning_blockstore_server::blockstore_server::BlockstoreServerInner::new</title>
<polygon fill="#81c169" stroke="black" points="1081.19,-0.86 1081.19,-38.86 1368.19,-38.86 1368.19,-0.86 1081.19,-0.86"/>
<text text-anchor="middle" x="1224.69" y="-26.86" font-family="monospace" font-size="10.00">pub fn</text>
<polyline fill="none" stroke="black" points="1081.19,-19.86 1368.19,-19.86 "/>
<text text-anchor="middle" x="1224.69" y="-7.86" font-family="monospace" font-size="10.00">blockstore_server::BlockstoreServerInner::new</text>
</g>
<!-- lightning_blockstore_server::blockstore_server::BlockstoreServerInner&#45;&gt;lightning_blockstore_server::blockstore_server::BlockstoreServerInner::new -->
<g id="edge27" class="edge">
<title>lightning_blockstore_server::blockstore_server::BlockstoreServerInner&#45;&gt;lightning_blockstore_server::blockstore_server::BlockstoreServerInner::new</title>
<path fill="none" stroke="#000000" d="M832.52,-320.29C936.01,-264.16 1148.37,-111.13 1208.94,-46.81"/>
<polygon fill="#000000" stroke="#000000" points="1211.81,-48.85 1215.85,-39.06 1206.59,-44.19 1211.81,-48.85"/>
<text text-anchor="middle" x="1008.23" y="-186.55" font-family="monospace" font-size="10.00">owns</text>
</g>
<!-- lightning_blockstore_server::blockstore_server::BlockstoreServerInner::start -->
<g id="node11" class="node">
<title>lightning_blockstore_server::blockstore_server::BlockstoreServerInner::start</title>
<polygon fill="#81c169" stroke="black" points="102.9,-434.23 102.9,-472.23 401.9,-472.23 401.9,-434.23 102.9,-434.23"/>
<text text-anchor="middle" x="252.4" y="-460.23" font-family="monospace" font-size="10.00">pub async fn</text>
<polyline fill="none" stroke="black" points="102.9,-453.23 401.9,-453.23 "/>
<text text-anchor="middle" x="252.4" y="-441.23" font-family="monospace" font-size="10.00">blockstore_server::BlockstoreServerInner::start</text>
</g>
<!-- lightning_blockstore_server::blockstore_server::BlockstoreServerInner&#45;&gt;lightning_blockstore_server::blockstore_server::BlockstoreServerInner::start -->
<g id="edge28" class="edge">
<title>lightning_blockstore_server::blockstore_server::BlockstoreServerInner&#45;&gt;lightning_blockstore_server::blockstore_server::BlockstoreServerInner::start</title>
<path fill="none" stroke="#000000" d="M647.07,-343.58C528.42,-362.33 360.12,-401.77 287.69,-430.26"/>
<polygon fill="#000000" stroke="#000000" points="286.04,-427.16 278.13,-434.2 288.71,-433.63 286.04,-427.16"/>
<text text-anchor="middle" x="454.88" y="-389.92" font-family="monospace" font-size="10.00">owns</text>
</g>
<!-- lightning_blockstore_server::blockstore_server::BlockstoreServerInner::new&#45;&gt;lightning_blockstore_server::blockstore_server::BlockstoreServerInner -->
<g id="edge29" class="edge">
<title>lightning_blockstore_server::blockstore_server::BlockstoreServerInner::new&#45;&gt;lightning_blockstore_server::blockstore_server::BlockstoreServerInner</title>
<path fill="none" stroke="#7f7f7f" stroke-dasharray="5,2" d="M1167.88,-39.08C1064.39,-95.21 852.02,-248.23 791.46,-312.56"/>
<polygon fill="#7f7f7f" stroke="#7f7f7f" points="788.59,-310.52 784.54,-320.31 793.81,-315.18 788.59,-310.52"/>
<text text-anchor="middle" x="967.17" y="-178.82" font-family="monospace" font-size="10.00">uses</text>
</g>
<!-- lightning_blockstore_server::blockstore_server::BlockstoreServerInner::start&#45;&gt;lightning_blockstore_server::blockstore_server::BlockstoreServerInner -->
<g id="edge30" class="edge">
<title>lightning_blockstore_server::blockstore_server::BlockstoreServerInner::start&#45;&gt;lightning_blockstore_server::blockstore_server::BlockstoreServerInner</title>
<path fill="none" stroke="#7f7f7f" stroke-dasharray="5,2" d="M401.97,-445.73C518.75,-425.9 672.23,-389.31 740.47,-362.46"/>
<polygon fill="#7f7f7f" stroke="#7f7f7f" points="741.99,-365.62 749.9,-358.57 739.32,-359.14 741.99,-365.62"/>
<text text-anchor="middle" x="558.72" y="-407.09" font-family="monospace" font-size="10.00">uses</text>
</g>
<!-- lightning_blockstore_server::blockstore_server::BlockstoreServerInner::start&#45;&gt;lightning_blockstore_server::blockstore_server::PeerRequest -->
<g id="edge31" class="edge">
<title>lightning_blockstore_server::blockstore_server::BlockstoreServerInner::start&#45;&gt;lightning_blockstore_server::blockstore_server::PeerRequest</title>
<path fill="none" stroke="#7f7f7f" stroke-dasharray="5,2" d="M257.77,-472.24C283,-561.54 389.81,-939.63 420.38,-1047.87"/>
<polygon fill="#7f7f7f" stroke="#7f7f7f" points="417.09,-1049.09 423.18,-1057.76 423.83,-1047.19 417.09,-1049.09"/>
<text text-anchor="middle" x="326.58" y="-763.05" font-family="monospace" font-size="10.00">uses</text>
</g>
<!-- lightning_blockstore_server::blockstore_server::ErrorResponse&#45;&gt;lightning_blockstore_server::blockstore_server::PeerRequest -->
<g id="edge32" class="edge">
<title>lightning_blockstore_server::blockstore_server::ErrorResponse&#45;&gt;lightning_blockstore_server::blockstore_server::PeerRequest</title>
<path fill="none" stroke="#7f7f7f" stroke-dasharray="5,2" d="M298.03,-1228.91C324.27,-1198.37 375.4,-1138.84 405.3,-1104.04"/>
<polygon fill="#7f7f7f" stroke="#7f7f7f" points="408.2,-1106.04 412.06,-1096.17 402.89,-1101.48 408.2,-1106.04"/>
<text text-anchor="middle" x="339.17" y="-1169.48" font-family="monospace" font-size="10.00">uses</text>
</g>
<!-- lightning_blockstore_server::blockstore_server::handle_request&#45;&gt;lightning_blockstore_server::blockstore_server::Frame -->
<g id="edge33" class="edge">
<title>lightning_blockstore_server::blockstore_server::handle_request&#45;&gt;lightning_blockstore_server::blockstore_server::Frame</title>
<path fill="none" stroke="#7f7f7f" stroke-dasharray="5,2" d="M749.55,-1303.87C760.15,-1364.24 793.06,-1551.51 805.87,-1624.41"/>
<polygon fill="#7f7f7f" stroke="#7f7f7f" points="802.5,-1625.45 807.68,-1634.7 809.39,-1624.24 802.5,-1625.45"/>
<text text-anchor="middle" x="765.21" y="-1467.14" font-family="monospace" font-size="10.00">uses</text>
</g>
<!-- lightning_blockstore_server::blockstore_server::handle_request&#45;&gt;lightning_blockstore_server::blockstore_server::PeerRequest -->
<g id="edge34" class="edge">
<title>lightning_blockstore_server::blockstore_server::handle_request&#45;&gt;lightning_blockstore_server::blockstore_server::PeerRequest</title>
<path fill="none" stroke="#7f7f7f" stroke-dasharray="5,2" d="M716.89,-1265.62C659.1,-1227.8 530.53,-1143.64 466.43,-1101.69"/>
<polygon fill="#7f7f7f" stroke="#7f7f7f" points="468.12,-1098.61 457.83,-1096.06 464.28,-1104.47 468.12,-1098.61"/>
<text text-anchor="middle" x="579.16" y="-1186.66" font-family="monospace" font-size="10.00">uses</text>
</g>
<!-- lightning_blockstore_server::blockstore_server::send_request&#45;&gt;lightning_blockstore_server::blockstore_server::ErrorResponse -->
<g id="edge35" class="edge">
<title>lightning_blockstore_server::blockstore_server::send_request&#45;&gt;lightning_blockstore_server::blockstore_server::ErrorResponse</title>
<path fill="none" stroke="#7f7f7f" stroke-dasharray="5,2" d="M434.34,-1438.68C404.18,-1401.11 337.66,-1318.26 303.15,-1275.28"/>
<polygon fill="#7f7f7f" stroke="#7f7f7f" points="305.69,-1272.85 296.7,-1267.24 300.23,-1277.23 305.69,-1272.85"/>
<text text-anchor="middle" x="356.25" y="-1359.98" font-family="monospace" font-size="10.00">uses</text>
</g>
<!-- lightning_blockstore_server::blockstore_server::send_request&#45;&gt;lightning_blockstore_server::blockstore_server::Frame -->
<g id="edge36" class="edge">
<title>lightning_blockstore_server::blockstore_server::send_request&#45;&gt;lightning_blockstore_server::blockstore_server::Frame</title>
<path fill="none" stroke="#7f7f7f" stroke-dasharray="5,2" d="M485.17,-1477.17C551.47,-1513.12 694.47,-1590.66 766.98,-1629.97"/>
<polygon fill="#7f7f7f" stroke="#7f7f7f" points="765.42,-1633.11 775.88,-1634.8 768.76,-1626.96 765.42,-1633.11"/>
<text text-anchor="middle" x="613.57" y="-1556.57" font-family="monospace" font-size="10.00">uses</text>
</g>
<!-- lightning_blockstore_server::blockstore_server::send_request&#45;&gt;lightning_blockstore_server::blockstore_server::PeerRequest -->
<g id="edge37" class="edge">
<title>lightning_blockstore_server::blockstore_server::send_request&#45;&gt;lightning_blockstore_server::blockstore_server::PeerRequest</title>
<path fill="none" stroke="#7f7f7f" stroke-dasharray="5,2" d="M448.81,-1438.88C445.35,-1376.87 434.43,-1181.36 430.24,-1106.49"/>
<polygon fill="#7f7f7f" stroke="#7f7f7f" points="433.73,-1106.14 429.68,-1096.35 426.74,-1106.53 433.73,-1106.14"/>
<text text-anchor="middle" x="427.03" y="-1275.69" font-family="monospace" font-size="10.00">uses</text>
</g>
</g>
</svg>
