<?xml version="1.0" encoding="UTF-8" standalone="no"?>
<!DOCTYPE svg PUBLIC "-//W3C//DTD SVG 1.1//EN"
 "http://www.w3.org/Graphics/SVG/1.1/DTD/svg11.dtd">
<!-- Generated by graphviz version 4.0.0 (0)
 -->
<!-- Pages: 1 -->
<svg width="448pt" height="449pt"
 viewBox="0.00 0.00 447.93 448.82" xmlns="http://www.w3.org/2000/svg" xmlns:xlink="http://www.w3.org/1999/xlink">
<g id="graph0" class="graph" transform="scale(1 1) rotate(0) translate(28.8 420.02)">
<polygon fill="white" stroke="transparent" points="-28.8,28.8 -28.8,-420.02 419.13,-420.02 419.13,28.8 -28.8,28.8"/>
<text text-anchor="middle" x="195.17" y="-358.42" font-family="Helvetica,sans-Serif" font-size="36.00">lightning_keystore</text>
<!-- fdi -->
<g id="node1" class="node">
<title>fdi</title>
<polygon fill="#5397c8" stroke="black" points="116.51,-304.72 116.51,-342.72 217.51,-342.72 217.51,-304.72 116.51,-304.72"/>
<text text-anchor="middle" x="167.01" y="-330.72" font-family="monospace" font-size="10.00">external crate</text>
<polyline fill="none" stroke="black" points="116.51,-323.72 217.51,-323.72 "/>
<text text-anchor="middle" x="167.01" y="-311.72" font-family="monospace" font-size="10.00">fdi</text>
</g>
<!-- lightning_keystore -->
<g id="node2" class="node">
<title>lightning_keystore</title>
<polygon fill="#5397c8" stroke="black" points="153.94,-152.61 153.94,-190.61 278.94,-190.61 278.94,-152.61 153.94,-152.61"/>
<text text-anchor="middle" x="216.44" y="-178.61" font-family="monospace" font-size="10.00">crate</text>
<polyline fill="none" stroke="black" points="153.94,-171.61 278.94,-171.61 "/>
<text text-anchor="middle" x="216.44" y="-159.61" font-family="monospace" font-size="10.00">lightning_keystore</text>
</g>
<!-- lightning_keystore::config -->
<g id="node3" class="node">
<title>lightning_keystore::config</title>
<polygon fill="#f8c04c" stroke="black" points="194.63,-199.62 194.63,-237.62 367.63,-237.62 367.63,-199.62 194.63,-199.62"/>
<text text-anchor="middle" x="281.13" y="-225.62" font-family="monospace" font-size="10.00">pub(crate) mod</text>
<polyline fill="none" stroke="black" points="194.63,-218.62 367.63,-218.62 "/>
<text text-anchor="middle" x="281.13" y="-206.62" font-family="monospace" font-size="10.00">lightning_keystore::config</text>
</g>
<!-- lightning_keystore&#45;&gt;lightning_keystore::config -->
<g id="edge1" class="edge">
<title>lightning_keystore&#45;&gt;lightning_keystore::config</title>
<path fill="none" stroke="#000000" d="M213.09,-190.78C213.11,-190.88 213.13,-190.97 213.16,-191.06"/>
<polygon fill="#000000" stroke="#000000" points="209.6,-191.64 216.72,-199.49 216.05,-188.91 209.6,-191.64"/>
<text text-anchor="middle" x="200.62" y="-193.92" font-family="monospace" font-size="10.00">owns</text>
</g>
<!-- lightning_keystore&#45;&gt;lightning_keystore::config -->
<g id="edge2" class="edge">
<title>lightning_keystore&#45;&gt;lightning_keystore::config</title>
<path fill="none" stroke="#7f7f7f" stroke-dasharray="5,2" d="M279.05,-187.85C279.53,-188.56 279.98,-189.26 280.41,-189.98"/>
<polygon fill="#7f7f7f" stroke="#7f7f7f" points="277.33,-191.68 284.5,-199.49 283.77,-188.92 277.33,-191.68"/>
<text text-anchor="middle" x="292.23" y="-191.92" font-family="monospace" font-size="10.00">uses</text>
</g>
<!-- lightning_keystore::keystore -->
<g id="node4" class="node">
<title>lightning_keystore::keystore</title>
<polygon fill="#f8c04c" stroke="black" points="59.24,-105.61 59.24,-143.61 244.24,-143.61 244.24,-105.61 59.24,-105.61"/>
<text text-anchor="middle" x="151.74" y="-131.61" font-family="monospace" font-size="10.00">pub(crate) mod</text>
<polyline fill="none" stroke="black" points="59.24,-124.61 244.24,-124.61 "/>
<text text-anchor="middle" x="151.74" y="-112.61" font-family="monospace" font-size="10.00">lightning_keystore::keystore</text>
</g>
<!-- lightning_keystore&#45;&gt;lightning_keystore::keystore -->
<g id="edge3" class="edge">
<title>lightning_keystore&#45;&gt;lightning_keystore::keystore</title>
<path fill="none" stroke="#000000" d="M219.79,-152.44C219.77,-152.35 219.74,-152.25 219.72,-152.16"/>
<polygon fill="#000000" stroke="#000000" points="223.27,-151.58 216.16,-143.73 216.82,-154.31 223.27,-151.58"/>
<text text-anchor="middle" x="207.25" y="-144.3" font-family="monospace" font-size="10.00">owns</text>
</g>
<!-- lightning_keystore&#45;&gt;lightning_keystore::keystore -->
<g id="edge4" class="edge">
<title>lightning_keystore&#45;&gt;lightning_keystore::keystore</title>
<path fill="none" stroke="#7f7f7f" stroke-dasharray="5,2" d="M153.83,-155.37C153.35,-154.67 152.9,-153.96 152.47,-153.24"/>
<polygon fill="#7f7f7f" stroke="#7f7f7f" points="155.54,-151.54 148.38,-143.73 149.11,-154.3 155.54,-151.54"/>
<text text-anchor="middle" x="140.65" y="-157.3" font-family="monospace" font-size="10.00">uses</text>
</g>
<!-- lightning_keystore::keystore&#45;&gt;fdi -->
<g id="edge5" class="edge">
<title>lightning_keystore::keystore&#45;&gt;fdi</title>
<path fill="none" stroke="#7f7f7f" stroke-dasharray="5,2" d="M153.21,-143.7C155.89,-178.71 161.62,-253.38 164.79,-294.7"/>
<polygon fill="#7f7f7f" stroke="#7f7f7f" points="161.3,-294.98 165.55,-304.69 168.28,-294.45 161.3,-294.98"/>
<text text-anchor="middle" x="146.5" y="-222.2" font-family="monospace" font-size="10.00">uses</text>
</g>
<!-- lightning_keystore::keystore&#45;&gt;lightning_keystore::config -->
<g id="edge6" class="edge">
<title>lightning_keystore::keystore&#45;&gt;lightning_keystore::config</title>
<path fill="none" stroke="#7f7f7f" stroke-dasharray="5,2" d="M177.93,-143.63C197.61,-157.93 224.78,-177.67 246.3,-193.31"/>
<polygon fill="#7f7f7f" stroke="#7f7f7f" points="244.4,-196.25 254.55,-199.3 248.51,-190.59 244.4,-196.25"/>
<text text-anchor="middle" x="199.62" y="-171.47" font-family="monospace" font-size="10.00">uses</text>
</g>
<!-- lightning_schema -->
<g id="node5" class="node">
<title>lightning_schema</title>
<polygon fill="#5397c8" stroke="black" points="0,-152.61 0,-190.61 113,-190.61 113,-152.61 0,-152.61"/>
<text text-anchor="middle" x="56.5" y="-178.61" font-family="monospace" font-size="10.00">external crate</text>
<polyline fill="none" stroke="black" points="0,-171.61 113,-171.61 "/>
<text text-anchor="middle" x="56.5" y="-159.61" font-family="monospace" font-size="10.00">lightning_schema</text>
</g>
<!-- lightning_keystore::keystore&#45;&gt;lightning_schema -->
<g id="edge7" class="edge">
<title>lightning_keystore::keystore&#45;&gt;lightning_schema</title>
<path fill="none" stroke="#7f7f7f" stroke-dasharray="5,2" d="M113,-143.72C110.16,-145.13 107.27,-146.55 104.38,-147.98"/>
<polygon fill="#7f7f7f" stroke="#7f7f7f" points="102.62,-144.94 95.2,-152.51 105.72,-151.22 102.62,-144.94"/>
<text text-anchor="middle" x="121.19" y="-148.85" font-family="monospace" font-size="10.00">uses</text>
</g>
<!-- lightning_types -->
<g id="node6" class="node">
<title>lightning_types</title>
<polygon fill="#5397c8" stroke="black" points="113.51,-0.5 113.51,-38.5 220.51,-38.5 220.51,-0.5 113.51,-0.5"/>
<text text-anchor="middle" x="167.01" y="-26.5" font-family="monospace" font-size="10.00">external crate</text>
<polyline fill="none" stroke="black" points="113.51,-19.5 220.51,-19.5 "/>
<text text-anchor="middle" x="167.01" y="-7.5" font-family="monospace" font-size="10.00">lightning_types</text>
</g>
<!-- lightning_keystore::keystore&#45;&gt;lightning_types -->
<g id="edge8" class="edge">
<title>lightning_keystore::keystore&#45;&gt;lightning_types</title>
<path fill="none" stroke="#7f7f7f" stroke-dasharray="5,2" d="M154.54,-105.33C156.85,-89.47 160.15,-66.76 162.77,-48.68"/>
<polygon fill="#7f7f7f" stroke="#7f7f7f" points="166.26,-49.06 164.23,-38.66 159.33,-48.05 166.26,-49.06"/>
<text text-anchor="middle" x="146.16" y="-80" font-family="monospace" font-size="10.00">uses</text>
</g>
<!-- std::fs -->
<g id="node7" class="node">
<title>std::fs</title>
<polygon fill="#81c169" stroke="black" points="301.33,-58.6 301.33,-96.6 390.33,-96.6 390.33,-58.6 301.33,-58.6"/>
<text text-anchor="middle" x="345.83" y="-84.6" font-family="monospace" font-size="10.00">external mod</text>
<polyline fill="none" stroke="black" points="301.33,-77.6 390.33,-77.6 "/>
<text text-anchor="middle" x="345.83" y="-65.6" font-family="monospace" font-size="10.00">std::fs</text>
</g>
<!-- lightning_keystore::keystore&#45;&gt;std::fs -->
<g id="edge9" class="edge">
<title>lightning_keystore::keystore&#45;&gt;std::fs</title>
<path fill="none" stroke="#7f7f7f" stroke-dasharray="5,2" d="M230.41,-105.55C250.8,-100.61 272.33,-95.4 291.19,-90.83"/>
<polygon fill="#7f7f7f" stroke="#7f7f7f" points="292.18,-94.2 301.08,-88.44 290.53,-87.39 292.18,-94.2"/>
<text text-anchor="middle" x="248.3" y="-90.19" font-family="monospace" font-size="10.00">uses</text>
</g>
</g>
</svg>
