<?xml version="1.0" encoding="UTF-8" standalone="no"?>
<!DOCTYPE svg PUBLIC "-//W3C//DTD SVG 1.1//EN"
 "http://www.w3.org/Graphics/SVG/1.1/DTD/svg11.dtd">
<!-- Generated by graphviz version 4.0.0 (0)
 -->
<!-- Pages: 1 -->
<svg width="1953pt" height="745pt"
 viewBox="0.00 0.00 1952.60 745.10" xmlns="http://www.w3.org/2000/svg" xmlns:xlink="http://www.w3.org/1999/xlink">
<g id="graph0" class="graph" transform="scale(1 1) rotate(0) translate(28.8 716.3)">
<polygon fill="white" stroke="transparent" points="-28.8,28.8 -28.8,-716.3 1923.8,-716.3 1923.8,28.8 -28.8,28.8"/>
<text text-anchor="middle" x="947.5" y="-654.7" font-family="Helvetica,sans-Serif" font-size="36.00">lightning_origin_http</text>
<!-- lightning_origin_http -->
<g id="node1" class="node">
<title>lightning_origin_http</title>
<polygon fill="#5397c8" stroke="black" points="0,-368 0,-406 143,-406 143,-368 0,-368"/>
<text text-anchor="middle" x="71.5" y="-394" font-family="monospace" font-size="10.00">crate</text>
<polyline fill="none" stroke="black" points="0,-387 143,-387 "/>
<text text-anchor="middle" x="71.5" y="-375" font-family="monospace" font-size="10.00">lightning_origin_http</text>
</g>
<!-- lightning_origin_http::HttpOrigin -->
<g id="node2" class="node">
<title>lightning_origin_http::HttpOrigin</title>
<polygon fill="#81c169" stroke="black" points="921,-523 921,-561 998,-561 998,-523 921,-523"/>
<text text-anchor="middle" x="959.5" y="-549" font-family="monospace" font-size="10.00">pub struct</text>
<polyline fill="none" stroke="black" points="921,-542 998,-542 "/>
<text text-anchor="middle" x="959.5" y="-530" font-family="monospace" font-size="10.00">HttpOrigin</text>
</g>
<!-- lightning_origin_http&#45;&gt;lightning_origin_http::HttpOrigin -->
<g id="edge1" class="edge">
<title>lightning_origin_http&#45;&gt;lightning_origin_http::HttpOrigin</title>
<path fill="none" stroke="#000000" d="M125.51,-406.01C243.14,-447.4 512,-542 512,-542 512,-542 795.07,-542 910.94,-542"/>
<polygon fill="#000000" stroke="#000000" points="910.96,-545.5 920.96,-542 910.96,-538.5 910.96,-545.5"/>
<text text-anchor="middle" x="524.5" y="-545" font-family="monospace" font-size="10.00">owns</text>
</g>
<!-- lightning_origin_http::config::Config -->
<g id="node5" class="node">
<title>lightning_origin_http::config::Config</title>
<polygon fill="#81c169" stroke="black" points="909,-368 909,-406 1010,-406 1010,-368 909,-368"/>
<text text-anchor="middle" x="959.5" y="-394" font-family="monospace" font-size="10.00">pub struct</text>
<polyline fill="none" stroke="black" points="909,-387 1010,-387 "/>
<text text-anchor="middle" x="959.5" y="-375" font-family="monospace" font-size="10.00">config::Config</text>
</g>
<!-- lightning_origin_http&#45;&gt;lightning_origin_http::config::Config -->
<g id="edge2" class="edge">
<title>lightning_origin_http&#45;&gt;lightning_origin_http::config::Config</title>
<path fill="none" stroke="#000000" d="M143.25,-387C268.08,-387 512,-387 512,-387 512,-387 775.72,-387 898.26,-387"/>
<polygon fill="#000000" stroke="#000000" points="898.6,-390.5 908.6,-387 898.6,-383.5 898.6,-390.5"/>
<text text-anchor="middle" x="524.5" y="-390" font-family="monospace" font-size="10.00">owns</text>
</g>
<!-- lightning_origin_http&#45;&gt;lightning_origin_http::config::Config -->
<g id="edge3" class="edge">
<title>lightning_origin_http&#45;&gt;lightning_origin_http::config::Config</title>
<path fill="none" stroke="#7f7f7f" stroke-dasharray="5,2" d="M133.31,-367.88C259.94,-328.71 537,-243 537,-243 537,-243 782.8,-326.77 899.43,-366.53"/>
<polygon fill="#7f7f7f" stroke="#7f7f7f" points="898.36,-369.86 908.96,-369.77 900.62,-363.23 898.36,-369.86"/>
<text text-anchor="middle" x="524.5" y="-235" font-family="monospace" font-size="10.00">uses</text>
</g>
<!-- lightning_origin_http::get_url_and_sri -->
<g id="node6" class="node">
<title>lightning_origin_http::get_url_and_sri</title>
<polygon fill="#f8c04c" stroke="black" points="906,-58 906,-96 1013,-96 1013,-58 906,-58"/>
<text text-anchor="middle" x="959.5" y="-84" font-family="monospace" font-size="10.00">pub(crate) fn</text>
<polyline fill="none" stroke="black" points="906,-77 1013,-77 "/>
<text text-anchor="middle" x="959.5" y="-65" font-family="monospace" font-size="10.00">get_url_and_sri</text>
</g>
<!-- lightning_origin_http&#45;&gt;lightning_origin_http::get_url_and_sri -->
<g id="edge4" class="edge">
<title>lightning_origin_http&#45;&gt;lightning_origin_http::get_url_and_sri</title>
<path fill="none" stroke="#000000" d="M101.33,-367.84C204.07,-301.85 537,-88 537,-88 537,-88 777.56,-81.74 895.64,-78.66"/>
<polygon fill="#000000" stroke="#000000" points="896.08,-82.15 905.99,-78.39 895.9,-75.15 896.08,-82.15"/>
<text text-anchor="middle" x="524.5" y="-80" font-family="monospace" font-size="10.00">owns</text>
</g>
<!-- lightning_origin_http::HttpOrigin::fetch -->
<g id="node3" class="node">
<title>lightning_origin_http::HttpOrigin::fetch</title>
<polygon fill="#81c169" stroke="black" points="1776,-601 1776,-639 1895,-639 1895,-601 1776,-601"/>
<text text-anchor="middle" x="1835.5" y="-627" font-family="monospace" font-size="10.00">pub async fn</text>
<polyline fill="none" stroke="black" points="1776,-620 1895,-620 "/>
<text text-anchor="middle" x="1835.5" y="-608" font-family="monospace" font-size="10.00">HttpOrigin::fetch</text>
</g>
<!-- lightning_origin_http::HttpOrigin&#45;&gt;lightning_origin_http::HttpOrigin::fetch -->
<g id="edge5" class="edge">
<title>lightning_origin_http::HttpOrigin&#45;&gt;lightning_origin_http::HttpOrigin::fetch</title>
<path fill="none" stroke="#000000" d="M998.11,-549.13C1102.41,-568.38 1382,-620 1382,-620 1382,-620 1638.52,-620 1765.71,-620"/>
<polygon fill="#000000" stroke="#000000" points="1765.75,-623.5 1775.75,-620 1765.75,-616.5 1765.75,-623.5"/>
<text text-anchor="middle" x="1394.5" y="-623" font-family="monospace" font-size="10.00">owns</text>
</g>
<!-- lightning_origin_http::HttpOrigin::new -->
<g id="node4" class="node">
<title>lightning_origin_http::HttpOrigin::new</title>
<polygon fill="#81c169" stroke="black" points="1782,-446 1782,-484 1889,-484 1889,-446 1782,-446"/>
<text text-anchor="middle" x="1835.5" y="-472" font-family="monospace" font-size="10.00">pub fn</text>
<polyline fill="none" stroke="black" points="1782,-465 1889,-465 "/>
<text text-anchor="middle" x="1835.5" y="-453" font-family="monospace" font-size="10.00">HttpOrigin::new</text>
</g>
<!-- lightning_origin_http::HttpOrigin&#45;&gt;lightning_origin_http::HttpOrigin::new -->
<g id="edge6" class="edge">
<title>lightning_origin_http::HttpOrigin&#45;&gt;lightning_origin_http::HttpOrigin::new</title>
<path fill="none" stroke="#000000" d="M998.04,-536.32C1106.59,-520.31 1407,-476 1407,-476 1407,-476 1652.08,-469.71 1771.55,-466.64"/>
<polygon fill="#000000" stroke="#000000" points="1771.76,-470.14 1781.66,-466.38 1771.58,-463.14 1771.76,-470.14"/>
<text text-anchor="middle" x="1394.5" y="-468" font-family="monospace" font-size="10.00">owns</text>
</g>
<!-- lightning_origin_http::HttpOrigin::fetch&#45;&gt;lightning_origin_http::HttpOrigin -->
<g id="edge7" class="edge">
<title>lightning_origin_http::HttpOrigin::fetch&#45;&gt;lightning_origin_http::HttpOrigin</title>
<path fill="none" stroke="#7f7f7f" stroke-dasharray="5,2" d="M1808.04,-600.84C1713.47,-534.85 1407,-321 1407,-321 1407,-321 1122.22,-461.64 1007.02,-518.53"/>
<polygon fill="#7f7f7f" stroke="#7f7f7f" points="1005.46,-515.4 998.04,-522.97 1008.56,-521.68 1005.46,-515.4"/>
<text text-anchor="middle" x="1394.5" y="-313" font-family="monospace" font-size="10.00">uses</text>
</g>
<!-- lightning_origin_http::HttpOrigin::new&#45;&gt;lightning_origin_http::HttpOrigin -->
<g id="edge8" class="edge">
<title>lightning_origin_http::HttpOrigin::new&#45;&gt;lightning_origin_http::HttpOrigin</title>
<path fill="none" stroke="#7f7f7f" stroke-dasharray="5,2" d="M1808.04,-445.84C1713.47,-379.85 1407,-166 1407,-166 1407,-166 1090.85,-431.63 990.02,-516.36"/>
<polygon fill="#7f7f7f" stroke="#7f7f7f" points="987.71,-513.72 982.31,-522.84 992.21,-519.08 987.71,-513.72"/>
<text text-anchor="middle" x="1394.5" y="-158" font-family="monospace" font-size="10.00">uses</text>
</g>
<!-- lightning_origin_http::HttpOrigin::new&#45;&gt;lightning_origin_http::config::Config -->
<g id="edge9" class="edge">
<title>lightning_origin_http::HttpOrigin::new&#45;&gt;lightning_origin_http::config::Config</title>
<path fill="none" stroke="#7f7f7f" stroke-dasharray="5,2" d="M1817.36,-445.78C1735.8,-359.37 1407,-11 1407,-11 1407,-11 1090.85,-276.63 990.02,-361.36"/>
<polygon fill="#7f7f7f" stroke="#7f7f7f" points="987.71,-358.72 982.31,-367.84 992.21,-364.08 987.71,-358.72"/>
<text text-anchor="middle" x="1394.5" y="-3" font-family="monospace" font-size="10.00">uses</text>
</g>
</g>
</svg>
