<?xml version="1.0" encoding="UTF-8" standalone="no"?>
<!DOCTYPE svg PUBLIC "-//W3C//DTD SVG 1.1//EN"
 "http://www.w3.org/Graphics/SVG/1.1/DTD/svg11.dtd">
<!-- Generated by graphviz version 4.0.0 (0)
 -->
<!-- Pages: 1 -->
<svg width="413pt" height="417pt"
 viewBox="0.00 0.00 413.45 417.37" xmlns="http://www.w3.org/2000/svg" xmlns:xlink="http://www.w3.org/1999/xlink">
<g id="graph0" class="graph" transform="scale(1 1) rotate(0) translate(28.8 388.57)">
<polygon fill="white" stroke="transparent" points="-28.8,28.8 -28.8,-388.57 384.65,-388.57 384.65,28.8 -28.8,28.8"/>
<text text-anchor="middle" x="177.92" y="-326.97" font-family="Helvetica,sans-Serif" font-size="36.00">panic_report</text>
<!-- panic_report -->
<g id="node1" class="node">
<title>panic_report</title>
<polygon fill="#5397c8" stroke="black" points="92.32,-89.55 92.32,-127.55 181.32,-127.55 181.32,-89.55 92.32,-89.55"/>
<text text-anchor="middle" x="136.82" y="-115.55" font-family="monospace" font-size="10.00">crate</text>
<polyline fill="none" stroke="black" points="92.32,-108.55 181.32,-108.55 "/>
<text text-anchor="middle" x="136.82" y="-96.55" font-family="monospace" font-size="10.00">panic_report</text>
</g>
<!-- panic_report::Context -->
<g id="node2" class="node">
<title>panic_report::Context</title>
<polygon fill="#f8c04c" stroke="black" points="141.18,-0.5 141.18,-38.5 248.18,-38.5 248.18,-0.5 141.18,-0.5"/>
<text text-anchor="middle" x="194.68" y="-26.5" font-family="monospace" font-size="10.00">pub(crate) type</text>
<polyline fill="none" stroke="black" points="141.18,-19.5 248.18,-19.5 "/>
<text text-anchor="middle" x="194.68" y="-7.5" font-family="monospace" font-size="10.00">Context</text>
</g>
<!-- panic_report&#45;&gt;panic_report::Context -->
<g id="edge1" class="edge">
<title>panic_report&#45;&gt;panic_report::Context</title>
<path fill="none" stroke="#000000" d="M149.37,-89.23C157.33,-76.97 167.76,-60.92 176.61,-47.31"/>
<polygon fill="#000000" stroke="#000000" points="179.63,-49.08 182.15,-38.78 173.76,-45.26 179.63,-49.08"/>
<text text-anchor="middle" x="150.49" y="-71.27" font-family="monospace" font-size="10.00">owns</text>
</g>
<!-- panic_report::Report -->
<g id="node3" class="node">
<title>panic_report::Report</title>
<polygon fill="#81c169" stroke="black" points="169.52,-170.42 169.52,-208.42 246.52,-208.42 246.52,-170.42 169.52,-170.42"/>
<text text-anchor="middle" x="208.02" y="-196.42" font-family="monospace" font-size="10.00">pub struct</text>
<polyline fill="none" stroke="black" points="169.52,-189.42 246.52,-189.42 "/>
<text text-anchor="middle" x="208.02" y="-177.42" font-family="monospace" font-size="10.00">Report</text>
</g>
<!-- panic_report&#45;&gt;panic_report::Report -->
<g id="edge2" class="edge">
<title>panic_report&#45;&gt;panic_report::Report</title>
<path fill="none" stroke="#000000" d="M153.69,-127.71C162.91,-138.19 174.48,-151.32 184.57,-162.78"/>
<polygon fill="#000000" stroke="#000000" points="182.03,-165.2 191.27,-170.39 187.29,-160.57 182.03,-165.2"/>
<text text-anchor="middle" x="156.63" y="-148.25" font-family="monospace" font-size="10.00">owns</text>
</g>
<!-- panic_report::add_context -->
<g id="node6" class="node">
<title>panic_report::add_context</title>
<polygon fill="#81c169" stroke="black" points="0,-136.61 0,-174.61 83,-174.61 83,-136.61 0,-136.61"/>
<text text-anchor="middle" x="41.5" y="-162.61" font-family="monospace" font-size="10.00">pub fn</text>
<polyline fill="none" stroke="black" points="0,-155.61 83,-155.61 "/>
<text text-anchor="middle" x="41.5" y="-143.61" font-family="monospace" font-size="10.00">add_context</text>
</g>
<!-- panic_report&#45;&gt;panic_report::add_context -->
<g id="edge3" class="edge">
<title>panic_report&#45;&gt;panic_report::add_context</title>
<path fill="none" stroke="#000000" d="M98.32,-127.55C95.33,-129.03 92.28,-130.54 89.23,-132.04"/>
<polygon fill="#000000" stroke="#000000" points="87.56,-128.97 80.14,-136.53 90.65,-135.24 87.56,-128.97"/>
<text text-anchor="middle" x="106.28" y="-132.8" font-family="monospace" font-size="10.00">owns</text>
</g>
<!-- panic_report::print_default_panic -->
<g id="node7" class="node">
<title>panic_report::print_default_panic</title>
<polygon fill="#81c169" stroke="black" points="2.17,-12.48 2.17,-50.48 133.17,-50.48 133.17,-12.48 2.17,-12.48"/>
<text text-anchor="middle" x="67.67" y="-38.48" font-family="monospace" font-size="10.00">pub fn</text>
<polyline fill="none" stroke="black" points="2.17,-31.48 133.17,-31.48 "/>
<text text-anchor="middle" x="67.67" y="-19.48" font-family="monospace" font-size="10.00">print_default_panic</text>
</g>
<!-- panic_report&#45;&gt;panic_report::print_default_panic -->
<g id="edge4" class="edge">
<title>panic_report&#45;&gt;panic_report::print_default_panic</title>
<path fill="none" stroke="#000000" d="M119.72,-89.5C111.25,-80.05 100.86,-68.48 91.61,-58.17"/>
<polygon fill="#000000" stroke="#000000" points="94.09,-55.69 84.8,-50.58 88.88,-60.36 94.09,-55.69"/>
<text text-anchor="middle" x="93.17" y="-76.83" font-family="monospace" font-size="10.00">owns</text>
</g>
<!-- panic_report::Report::new -->
<g id="node4" class="node">
<title>panic_report::Report::new</title>
<polygon fill="#81c169" stroke="black" points="153.67,-273.27 153.67,-311.27 236.67,-311.27 236.67,-273.27 153.67,-273.27"/>
<text text-anchor="middle" x="195.17" y="-299.27" font-family="monospace" font-size="10.00">pub fn</text>
<polyline fill="none" stroke="black" points="153.67,-292.27 236.67,-292.27 "/>
<text text-anchor="middle" x="195.17" y="-280.27" font-family="monospace" font-size="10.00">Report::new</text>
</g>
<!-- panic_report::Report&#45;&gt;panic_report::Report::new -->
<g id="edge5" class="edge">
<title>panic_report::Report&#45;&gt;panic_report::Report::new</title>
<path fill="none" stroke="#000000" d="M182.93,-208.44C175.56,-223.68 172.38,-245.29 174.71,-262.76"/>
<polygon fill="#000000" stroke="#000000" points="171.38,-263.96 176.88,-273.02 178.23,-262.51 171.38,-263.96"/>
<text text-anchor="middle" x="166.32" y="-238.6" font-family="monospace" font-size="10.00">owns</text>
</g>
<!-- panic_report::Report::save -->
<g id="node5" class="node">
<title>panic_report::Report::save</title>
<polygon fill="#81c169" stroke="black" points="266.85,-173.24 266.85,-211.24 355.85,-211.24 355.85,-173.24 266.85,-173.24"/>
<text text-anchor="middle" x="311.35" y="-199.24" font-family="monospace" font-size="10.00">pub fn</text>
<polyline fill="none" stroke="black" points="266.85,-192.24 355.85,-192.24 "/>
<text text-anchor="middle" x="311.35" y="-180.24" font-family="monospace" font-size="10.00">Report::save</text>
</g>
<!-- panic_report::Report&#45;&gt;panic_report::Report::save -->
<g id="edge6" class="edge">
<title>panic_report::Report&#45;&gt;panic_report::Report::save</title>
<path fill="none" stroke="#000000" d="M220.6,-208.46C236.96,-218.19 265.9,-220.49 286.7,-214.79"/>
<polygon fill="#000000" stroke="#000000" points="287.97,-218.06 296.17,-211.35 285.58,-211.48 287.97,-218.06"/>
<text text-anchor="middle" x="241.15" y="-214.63" font-family="monospace" font-size="10.00">owns</text>
</g>
<!-- panic_report::Report::new&#45;&gt;panic_report::Report -->
<g id="edge7" class="edge">
<title>panic_report::Report::new&#45;&gt;panic_report::Report</title>
<path fill="none" stroke="#7f7f7f" stroke-dasharray="5,2" d="M220.27,-273.25C227.64,-258.01 230.81,-236.4 228.49,-218.93"/>
<polygon fill="#7f7f7f" stroke="#7f7f7f" points="231.81,-217.73 226.32,-208.67 224.96,-219.18 231.81,-217.73"/>
<text text-anchor="middle" x="211.88" y="-249.09" font-family="monospace" font-size="10.00">uses</text>
</g>
<!-- panic_report::Report::save&#45;&gt;panic_report::Report -->
<g id="edge8" class="edge">
<title>panic_report::Report::save&#45;&gt;panic_report::Report</title>
<path fill="none" stroke="#7f7f7f" stroke-dasharray="5,2" d="M298.77,-173.2C282.41,-163.47 253.47,-161.17 232.67,-166.87"/>
<polygon fill="#7f7f7f" stroke="#7f7f7f" points="231.4,-163.6 223.2,-170.31 233.79,-170.18 231.4,-163.6"/>
<text text-anchor="middle" x="278.22" y="-162.03" font-family="monospace" font-size="10.00">uses</text>
</g>
</g>
</svg>
