<?xml version="1.0" encoding="UTF-8" standalone="no"?>
<!DOCTYPE svg PUBLIC "-//W3C//DTD SVG 1.1//EN"
 "http://www.w3.org/Graphics/SVG/1.1/DTD/svg11.dtd">
<!-- Generated by graphviz version 4.0.0 (0)
 -->
<!-- Pages: 1 -->
<svg width="1420pt" height="1181pt"
 viewBox="0.00 0.00 1419.99 1180.83" xmlns="http://www.w3.org/2000/svg" xmlns:xlink="http://www.w3.org/1999/xlink">
<g id="graph0" class="graph" transform="scale(1 1) rotate(0) translate(28.8 1152.03)">
<polygon fill="white" stroke="transparent" points="-28.8,28.8 -28.8,-1152.03 1391.19,-1152.03 1391.19,28.8 -28.8,28.8"/>
<text text-anchor="middle" x="681.2" y="-1090.43" font-family="Helvetica,sans-Serif" font-size="36.00">lightning_types</text>
<!-- lightning_types -->
<g id="node1" class="node">
<title>lightning_types</title>
<polygon fill="#5397c8" stroke="black" points="531.02,-519.24 531.02,-557.24 638.02,-557.24 638.02,-519.24 531.02,-519.24"/>
<text text-anchor="middle" x="584.52" y="-545.24" font-family="monospace" font-size="10.00">crate</text>
<polyline fill="none" stroke="black" points="531.02,-538.24 638.02,-538.24 "/>
<text text-anchor="middle" x="584.52" y="-526.24" font-family="monospace" font-size="10.00">lightning_types</text>
</g>
<!-- lightning_types::application -->
<g id="node2" class="node">
<title>lightning_types::application</title>
<polygon fill="#f8c04c" stroke="black" points="1003.24,-418.41 1003.24,-456.41 1188.24,-456.41 1188.24,-418.41 1003.24,-418.41"/>
<text text-anchor="middle" x="1095.74" y="-444.41" font-family="monospace" font-size="10.00">pub(crate) mod</text>
<polyline fill="none" stroke="black" points="1003.24,-437.41 1188.24,-437.41 "/>
<text text-anchor="middle" x="1095.74" y="-425.41" font-family="monospace" font-size="10.00">lightning_types::application</text>
</g>
<!-- lightning_types&#45;&gt;lightning_types::application -->
<g id="edge1" class="edge">
<title>lightning_types&#45;&gt;lightning_types::application</title>
<path fill="none" stroke="#000000" d="M638.21,-544.88C742.65,-538.54 970.49,-493.04 1059.32,-460.13"/>
<polygon fill="#000000" stroke="#000000" points="1060.65,-463.37 1068.71,-456.49 1058.12,-456.85 1060.65,-463.37"/>
<text text-anchor="middle" x="836.26" y="-505.51" font-family="monospace" font-size="10.00">owns</text>
</g>
<!-- lightning_types&#45;&gt;lightning_types::application -->
<g id="edge2" class="edge">
<title>lightning_types&#45;&gt;lightning_types::application</title>
<path fill="none" stroke="#7f7f7f" stroke-dasharray="5,2" d="M611.6,-519.13C682,-490.39 873.26,-449.84 993.26,-435.39"/>
<polygon fill="#7f7f7f" stroke="#7f7f7f" points="993.68,-438.87 1003.21,-434.23 992.87,-431.91 993.68,-438.87"/>
<text text-anchor="middle" x="789.93" y="-480.26" font-family="monospace" font-size="10.00">uses</text>
</g>
<!-- lightning_types::blockstore -->
<g id="node3" class="node">
<title>lightning_types::blockstore</title>
<polygon fill="#f8c04c" stroke="black" points="234.58,-383.71 234.58,-421.71 413.58,-421.71 413.58,-383.71 234.58,-383.71"/>
<text text-anchor="middle" x="324.08" y="-409.71" font-family="monospace" font-size="10.00">pub(crate) mod</text>
<polyline fill="none" stroke="black" points="234.58,-402.71 413.58,-402.71 "/>
<text text-anchor="middle" x="324.08" y="-390.71" font-family="monospace" font-size="10.00">lightning_types::blockstore</text>
</g>
<!-- lightning_types&#45;&gt;lightning_types::blockstore -->
<g id="edge3" class="edge">
<title>lightning_types&#45;&gt;lightning_types::blockstore</title>
<path fill="none" stroke="#000000" d="M576.24,-519.05C551.95,-492.8 483.07,-452.28 423.3,-425.42"/>
<polygon fill="#000000" stroke="#000000" points="424.36,-422.06 413.79,-421.23 421.53,-428.46 424.36,-422.06"/>
<text text-anchor="middle" x="487.27" y="-475.23" font-family="monospace" font-size="10.00">owns</text>
</g>
<!-- lightning_types&#45;&gt;lightning_types::blockstore -->
<g id="edge4" class="edge">
<title>lightning_types&#45;&gt;lightning_types::blockstore</title>
<path fill="none" stroke="#7f7f7f" stroke-dasharray="5,2" d="M530.7,-533.76C470.74,-513.24 377.99,-463.27 340.2,-429.53"/>
<polygon fill="#7f7f7f" stroke="#7f7f7f" points="342.23,-426.62 332.61,-422.17 337.35,-431.64 342.23,-426.62"/>
<text text-anchor="middle" x="422.95" y="-484.64" font-family="monospace" font-size="10.00">uses</text>
</g>
<!-- lightning_types::blockstore_server -->
<g id="node4" class="node">
<title>lightning_types::blockstore_server</title>
<polygon fill="#f8c04c" stroke="black" points="161.27,-728.46 161.27,-766.46 382.27,-766.46 382.27,-728.46 161.27,-728.46"/>
<text text-anchor="middle" x="271.77" y="-754.46" font-family="monospace" font-size="10.00">pub(crate) mod</text>
<polyline fill="none" stroke="black" points="161.27,-747.46 382.27,-747.46 "/>
<text text-anchor="middle" x="271.77" y="-735.46" font-family="monospace" font-size="10.00">lightning_types::blockstore_server</text>
</g>
<!-- lightning_types&#45;&gt;lightning_types::blockstore_server -->
<g id="edge5" class="edge">
<title>lightning_types&#45;&gt;lightning_types::blockstore_server</title>
<path fill="none" stroke="#000000" d="M530.98,-550.88C456.97,-586.36 329,-673.8 285.68,-720.48"/>
<polygon fill="#000000" stroke="#000000" points="282.94,-718.3 279.04,-728.15 288.23,-722.88 282.94,-718.3"/>
<text text-anchor="middle" x="395.83" y="-638.68" font-family="monospace" font-size="10.00">owns</text>
</g>
<!-- lightning_types&#45;&gt;lightning_types::blockstore_server -->
<g id="edge6" class="edge">
<title>lightning_types&#45;&gt;lightning_types::blockstore_server</title>
<path fill="none" stroke="#7f7f7f" stroke-dasharray="5,2" d="M577.33,-557.45C545.54,-597.61 427.19,-680.87 347.19,-723.68"/>
<polygon fill="#7f7f7f" stroke="#7f7f7f" points="345.34,-720.7 338.11,-728.45 348.59,-726.89 345.34,-720.7"/>
<text text-anchor="middle" x="449.76" y="-643.56" font-family="monospace" font-size="10.00">uses</text>
</g>
<!-- lightning_types::bridge -->
<g id="node5" class="node">
<title>lightning_types::bridge</title>
<polygon fill="#f8c04c" stroke="black" points="716.64,-1009.25 716.64,-1047.25 871.64,-1047.25 871.64,-1009.25 716.64,-1009.25"/>
<text text-anchor="middle" x="794.14" y="-1035.25" font-family="monospace" font-size="10.00">pub(crate) mod</text>
<polyline fill="none" stroke="black" points="716.64,-1028.25 871.64,-1028.25 "/>
<text text-anchor="middle" x="794.14" y="-1016.25" font-family="monospace" font-size="10.00">lightning_types::bridge</text>
</g>
<!-- lightning_types&#45;&gt;lightning_types::bridge -->
<g id="edge7" class="edge">
<title>lightning_types&#45;&gt;lightning_types::bridge</title>
<path fill="none" stroke="#000000" d="M581.65,-557.45C591.54,-633.68 708.84,-911.48 766.67,-1000.73"/>
<polygon fill="#000000" stroke="#000000" points="763.91,-1002.91 772.41,-1009.25 769.72,-999 763.91,-1002.91"/>
<text text-anchor="middle" x="661.66" y="-782.09" font-family="monospace" font-size="10.00">owns</text>
</g>
<!-- lightning_types&#45;&gt;lightning_types::bridge -->
<g id="edge8" class="edge">
<title>lightning_types&#45;&gt;lightning_types::bridge</title>
<path fill="none" stroke="#7f7f7f" stroke-dasharray="5,2" d="M606.28,-557.28C659.61,-632.86 777.53,-908.51 795.39,-999.32"/>
<polygon fill="#7f7f7f" stroke="#7f7f7f" points="791.94,-999.92 797.03,-1009.22 798.84,-998.78 791.94,-999.92"/>
<text text-anchor="middle" x="688.33" y="-781.3" font-family="monospace" font-size="10.00">uses</text>
</g>
<!-- lightning_types::broadcast -->
<g id="node6" class="node">
<title>lightning_types::broadcast</title>
<polygon fill="#f8c04c" stroke="black" points="1.83,-681.45 1.83,-719.45 174.83,-719.45 174.83,-681.45 1.83,-681.45"/>
<text text-anchor="middle" x="88.33" y="-707.45" font-family="monospace" font-size="10.00">pub(crate) mod</text>
<polyline fill="none" stroke="black" points="1.83,-700.45 174.83,-700.45 "/>
<text text-anchor="middle" x="88.33" y="-688.45" font-family="monospace" font-size="10.00">lightning_types::broadcast</text>
</g>
<!-- lightning_types&#45;&gt;lightning_types::broadcast -->
<g id="edge9" class="edge">
<title>lightning_types&#45;&gt;lightning_types::broadcast</title>
<path fill="none" stroke="#000000" d="M530.8,-538.08C425.82,-557.31 197.2,-632.94 116.8,-676.09"/>
<polygon fill="#000000" stroke="#000000" points="114.75,-673.23 107.75,-681.19 118.18,-679.33 114.75,-673.23"/>
<text text-anchor="middle" x="311.3" y="-610.08" font-family="monospace" font-size="10.00">owns</text>
</g>
<!-- lightning_types&#45;&gt;lightning_types::broadcast -->
<g id="edge10" class="edge">
<title>lightning_types&#45;&gt;lightning_types::broadcast</title>
<path fill="none" stroke="#7f7f7f" stroke-dasharray="5,2" d="M565.37,-557.34C503.22,-594.43 305.55,-662.27 184.98,-691.34"/>
<polygon fill="#7f7f7f" stroke="#7f7f7f" points="183.93,-687.99 175,-693.7 185.54,-694.81 183.93,-687.99"/>
<text text-anchor="middle" x="362.68" y="-627.34" font-family="monospace" font-size="10.00">uses</text>
</g>
<!-- lightning_types::compression -->
<g id="node7" class="node">
<title>lightning_types::compression</title>
<polygon fill="#f8c04c" stroke="black" points="293.92,-55.3 293.92,-93.3 478.92,-93.3 478.92,-55.3 293.92,-55.3"/>
<text text-anchor="middle" x="386.42" y="-81.3" font-family="monospace" font-size="10.00">pub(crate) mod</text>
<polyline fill="none" stroke="black" points="293.92,-74.3 478.92,-74.3 "/>
<text text-anchor="middle" x="386.42" y="-62.3" font-family="monospace" font-size="10.00">lightning_types::compression</text>
</g>
<!-- lightning_types&#45;&gt;lightning_types::compression -->
<g id="edge11" class="edge">
<title>lightning_types&#45;&gt;lightning_types::compression</title>
<path fill="none" stroke="#000000" d="M587.64,-518.97C578.65,-445.68 470.04,-187.61 414.32,-101.89"/>
<polygon fill="#000000" stroke="#000000" points="417.11,-99.77 408.61,-93.46 411.32,-103.7 417.11,-99.77"/>
<text text-anchor="middle" x="488.48" y="-313.43" font-family="monospace" font-size="10.00">owns</text>
</g>
<!-- lightning_types&#45;&gt;lightning_types::compression -->
<g id="edge12" class="edge">
<title>lightning_types&#45;&gt;lightning_types::compression</title>
<path fill="none" stroke="#7f7f7f" stroke-dasharray="5,2" d="M562.28,-519.01C510.74,-446.22 401.59,-190.54 384.87,-103.35"/>
<polygon fill="#7f7f7f" stroke="#7f7f7f" points="388.31,-102.67 383.27,-93.35 381.4,-103.78 388.31,-102.67"/>
<text text-anchor="middle" x="461.08" y="-314.18" font-family="monospace" font-size="10.00">uses</text>
</g>
<!-- lightning_types::connection -->
<g id="node8" class="node">
<title>lightning_types::connection</title>
<polygon fill="#f8c04c" stroke="black" points="522.96,-0.5 522.96,-38.5 701.96,-38.5 701.96,-0.5 522.96,-0.5"/>
<text text-anchor="middle" x="612.46" y="-26.5" font-family="monospace" font-size="10.00">pub(crate) mod</text>
<polyline fill="none" stroke="black" points="522.96,-19.5 701.96,-19.5 "/>
<text text-anchor="middle" x="612.46" y="-7.5" font-family="monospace" font-size="10.00">lightning_types::connection</text>
</g>
<!-- lightning_types&#45;&gt;lightning_types::connection -->
<g id="edge13" class="edge">
<title>lightning_types&#45;&gt;lightning_types::connection</title>
<path fill="none" stroke="#000000" d="M596.74,-519.14C621.4,-440.76 638.08,-143.56 624.09,-48.75"/>
<polygon fill="#000000" stroke="#000000" points="627.5,-47.96 622.33,-38.71 620.61,-49.16 627.5,-47.96"/>
<text text-anchor="middle" x="597.91" y="-286.94" font-family="monospace" font-size="10.00">owns</text>
</g>
<!-- lightning_types&#45;&gt;lightning_types::connection -->
<g id="edge14" class="edge">
<title>lightning_types&#45;&gt;lightning_types::connection</title>
<path fill="none" stroke="#7f7f7f" stroke-dasharray="5,2" d="M574.68,-519.19C558.21,-440.76 573.44,-142.49 597.52,-48.23"/>
<polygon fill="#7f7f7f" stroke="#7f7f7f" points="600.92,-49.08 600.27,-38.51 594.18,-47.18 600.92,-49.08"/>
<text text-anchor="middle" x="573.6" y="-275.71" font-family="monospace" font-size="10.00">uses</text>
</g>
<!-- lightning_types::content -->
<g id="node9" class="node">
<title>lightning_types::content</title>
<polygon fill="#f8c04c" stroke="black" points="125.15,-180.42 125.15,-218.42 286.15,-218.42 286.15,-180.42 125.15,-180.42"/>
<text text-anchor="middle" x="205.65" y="-206.42" font-family="monospace" font-size="10.00">pub(crate) mod</text>
<polyline fill="none" stroke="black" points="125.15,-199.42 286.15,-199.42 "/>
<text text-anchor="middle" x="205.65" y="-187.42" font-family="monospace" font-size="10.00">lightning_types::content</text>
</g>
<!-- lightning_types&#45;&gt;lightning_types::content -->
<g id="edge15" class="edge">
<title>lightning_types&#45;&gt;lightning_types::content</title>
<path fill="none" stroke="#000000" d="M578.93,-519.12C541.36,-459.79 354.89,-289.77 260.06,-224.17"/>
<polygon fill="#000000" stroke="#000000" points="261.97,-221.24 251.73,-218.52 258.04,-227.03 261.97,-221.24"/>
<text text-anchor="middle" x="406.99" y="-374.65" font-family="monospace" font-size="10.00">owns</text>
</g>
<!-- lightning_types&#45;&gt;lightning_types::content -->
<g id="edge16" class="edge">
<title>lightning_types&#45;&gt;lightning_types::content</title>
<path fill="none" stroke="#7f7f7f" stroke-dasharray="5,2" d="M538.59,-519.24C450.83,-461.06 266.76,-294.89 217.12,-227.09"/>
<polygon fill="#7f7f7f" stroke="#7f7f7f" points="219.81,-224.83 211.27,-218.57 214.04,-228.79 219.81,-224.83"/>
<text text-anchor="middle" x="365.35" y="-365.16" font-family="monospace" font-size="10.00">uses</text>
</g>
<!-- lightning_types::content_registry -->
<g id="node10" class="node">
<title>lightning_types::content_registry</title>
<polygon fill="#f8c04c" stroke="black" points="616.84,-319.17 616.84,-357.17 831.84,-357.17 831.84,-319.17 616.84,-319.17"/>
<text text-anchor="middle" x="724.34" y="-345.17" font-family="monospace" font-size="10.00">pub(crate) mod</text>
<polyline fill="none" stroke="black" points="616.84,-338.17 831.84,-338.17 "/>
<text text-anchor="middle" x="724.34" y="-326.17" font-family="monospace" font-size="10.00">lightning_types::content_registry</text>
</g>
<!-- lightning_types&#45;&gt;lightning_types::content_registry -->
<g id="edge17" class="edge">
<title>lightning_types&#45;&gt;lightning_types::content_registry</title>
<path fill="none" stroke="#000000" d="M622.57,-518.96C660.13,-482.96 710.55,-408.83 724.62,-366.97"/>
<polygon fill="#000000" stroke="#000000" points="728,-367.89 727.33,-357.32 721.26,-366 728,-367.89"/>
<text text-anchor="middle" x="661.09" y="-445.97" font-family="monospace" font-size="10.00">owns</text>
</g>
<!-- lightning_types&#45;&gt;lightning_types::content_registry -->
<g id="edge18" class="edge">
<title>lightning_types&#45;&gt;lightning_types::content_registry</title>
<path fill="none" stroke="#7f7f7f" stroke-dasharray="5,2" d="M581.57,-518.88C589.63,-481.98 639.57,-405.64 679.27,-364.46"/>
<polygon fill="#7f7f7f" stroke="#7f7f7f" points="681.94,-366.74 686.55,-357.2 677,-361.78 681.94,-366.74"/>
<text text-anchor="middle" x="617.92" y="-444.67" font-family="monospace" font-size="10.00">uses</text>
</g>
<!-- lightning_types::dack_aggregator -->
<g id="node11" class="node">
<title>lightning_types::dack_aggregator</title>
<polygon fill="#f8c04c" stroke="black" points="887.56,-289.56 887.56,-327.56 1096.56,-327.56 1096.56,-289.56 887.56,-289.56"/>
<text text-anchor="middle" x="992.06" y="-315.56" font-family="monospace" font-size="10.00">pub(crate) mod</text>
<polyline fill="none" stroke="black" points="887.56,-308.56 1096.56,-308.56 "/>
<text text-anchor="middle" x="992.06" y="-296.56" font-family="monospace" font-size="10.00">lightning_types::dack_aggregator</text>
</g>
<!-- lightning_types&#45;&gt;lightning_types::dack_aggregator -->
<g id="edge19" class="edge">
<title>lightning_types&#45;&gt;lightning_types::dack_aggregator</title>
<path fill="none" stroke="#000000" d="M638.4,-528.23C730.95,-491.61 914.63,-386.61 973.79,-334.75"/>
<polygon fill="#000000" stroke="#000000" points="976.34,-337.17 981.29,-327.8 971.58,-332.03 976.34,-337.17"/>
<text text-anchor="middle" x="793.59" y="-434.49" font-family="monospace" font-size="10.00">owns</text>
</g>
<!-- lightning_types&#45;&gt;lightning_types::dack_aggregator -->
<g id="edge20" class="edge">
<title>lightning_types&#45;&gt;lightning_types::dack_aggregator</title>
<path fill="none" stroke="#7f7f7f" stroke-dasharray="5,2" d="M595.36,-518.94C639.85,-474.87 804.47,-378.3 907.33,-331.75"/>
<polygon fill="#7f7f7f" stroke="#7f7f7f" points="908.76,-334.94 916.47,-327.67 905.91,-328.55 908.76,-334.94"/>
<text text-anchor="middle" x="738.84" y="-428.34" font-family="monospace" font-size="10.00">uses</text>
</g>
<!-- lightning_types::fetcher -->
<g id="node12" class="node">
<title>lightning_types::fetcher</title>
<polygon fill="#f8c04c" stroke="black" points="0,-417.89 0,-455.89 161,-455.89 161,-417.89 0,-417.89"/>
<text text-anchor="middle" x="80.5" y="-443.89" font-family="monospace" font-size="10.00">pub(crate) mod</text>
<polyline fill="none" stroke="black" points="0,-436.89 161,-436.89 "/>
<text text-anchor="middle" x="80.5" y="-424.89" font-family="monospace" font-size="10.00">lightning_types::fetcher</text>
</g>
<!-- lightning_types&#45;&gt;lightning_types::fetcher -->
<g id="edge21" class="edge">
<title>lightning_types&#45;&gt;lightning_types::fetcher</title>
<path fill="none" stroke="#000000" d="M557.9,-519.11C486.55,-489.46 288.85,-447.16 171.42,-433.77"/>
<polygon fill="#000000" stroke="#000000" points="171.68,-430.28 161.36,-432.67 170.92,-437.24 171.68,-430.28"/>
<text text-anchor="middle" x="352.16" y="-479.44" font-family="monospace" font-size="10.00">owns</text>
</g>
<!-- lightning_types&#45;&gt;lightning_types::fetcher -->
<g id="edge22" class="edge">
<title>lightning_types&#45;&gt;lightning_types::fetcher</title>
<path fill="none" stroke="#7f7f7f" stroke-dasharray="5,2" d="M531,-544.79C427.8,-538.23 203.97,-492.64 116.49,-459.71"/>
<polygon fill="#7f7f7f" stroke="#7f7f7f" points="117.59,-456.38 107,-455.97 115.01,-462.89 117.59,-456.38"/>
<text text-anchor="middle" x="311.25" y="-505.25" font-family="monospace" font-size="10.00">uses</text>
</g>
<!-- lightning_types::misbehavior -->
<g id="node13" class="node">
<title>lightning_types::misbehavior</title>
<polygon fill="#f8c04c" stroke="black" points="1037.11,-615.68 1037.11,-653.68 1222.11,-653.68 1222.11,-615.68 1037.11,-615.68"/>
<text text-anchor="middle" x="1129.61" y="-641.68" font-family="monospace" font-size="10.00">pub(crate) mod</text>
<polyline fill="none" stroke="black" points="1037.11,-634.68 1222.11,-634.68 "/>
<text text-anchor="middle" x="1129.61" y="-622.68" font-family="monospace" font-size="10.00">lightning_types::misbehavior</text>
</g>
<!-- lightning_types&#45;&gt;lightning_types::misbehavior -->
<g id="edge23" class="edge">
<title>lightning_types&#45;&gt;lightning_types::misbehavior</title>
<path fill="none" stroke="#000000" d="M614.22,-557.28C691.19,-585.86 899.75,-625.41 1026.74,-638.21"/>
<polygon fill="#000000" stroke="#000000" points="1026.59,-641.71 1036.88,-639.19 1027.26,-634.74 1026.59,-641.71"/>
<text text-anchor="middle" x="807.98" y="-600.74" font-family="monospace" font-size="10.00">owns</text>
</g>
<!-- lightning_types&#45;&gt;lightning_types::misbehavior -->
<g id="edge24" class="edge">
<title>lightning_types&#45;&gt;lightning_types::misbehavior</title>
<path fill="none" stroke="#7f7f7f" stroke-dasharray="5,2" d="M638.19,-530.96C747.65,-535.72 994.25,-579.78 1090.31,-612.25"/>
<polygon fill="#7f7f7f" stroke="#7f7f7f" points="1089.34,-615.61 1099.94,-615.65 1091.67,-609.02 1089.34,-615.61"/>
<text text-anchor="middle" x="851.75" y="-574.6" font-family="monospace" font-size="10.00">uses</text>
</g>
<!-- lightning_types::pool -->
<g id="node14" class="node">
<title>lightning_types::pool</title>
<polygon fill="#f8c04c" stroke="black" points="216.54,-967.85 216.54,-1005.85 359.54,-1005.85 359.54,-967.85 216.54,-967.85"/>
<text text-anchor="middle" x="288.04" y="-993.85" font-family="monospace" font-size="10.00">pub(crate) mod</text>
<polyline fill="none" stroke="black" points="216.54,-986.85 359.54,-986.85 "/>
<text text-anchor="middle" x="288.04" y="-974.85" font-family="monospace" font-size="10.00">lightning_types::pool</text>
</g>
<!-- lightning_types&#45;&gt;lightning_types::pool -->
<g id="edge25" class="edge">
<title>lightning_types&#45;&gt;lightning_types::pool</title>
<path fill="none" stroke="#000000" d="M555.47,-557.43C486.53,-628.8 325.71,-872.83 292.12,-957.95"/>
<polygon fill="#000000" stroke="#000000" points="288.77,-956.93 288.67,-967.52 295.35,-959.3 288.77,-956.93"/>
<text text-anchor="middle" x="411.3" y="-760.69" font-family="monospace" font-size="10.00">owns</text>
</g>
<!-- lightning_types&#45;&gt;lightning_types::pool -->
<g id="edge26" class="edge">
<title>lightning_types&#45;&gt;lightning_types::pool</title>
<path fill="none" stroke="#7f7f7f" stroke-dasharray="5,2" d="M583.91,-557.48C560.93,-629.67 399.14,-877.63 323.9,-960.37"/>
<polygon fill="#7f7f7f" stroke="#7f7f7f" points="321.18,-958.16 316.9,-967.85 326.29,-962.94 321.18,-958.16"/>
<text text-anchor="middle" x="441.41" y="-761.93" font-family="monospace" font-size="10.00">uses</text>
</g>
<!-- lightning_types::reputation -->
<g id="node15" class="node">
<title>lightning_types::reputation</title>
<polygon fill="#f8c04c" stroke="black" points="513.48,-1036.73 513.48,-1074.73 692.48,-1074.73 692.48,-1036.73 513.48,-1036.73"/>
<text text-anchor="middle" x="602.98" y="-1062.73" font-family="monospace" font-size="10.00">pub(crate) mod</text>
<polyline fill="none" stroke="black" points="513.48,-1055.73 692.48,-1055.73 "/>
<text text-anchor="middle" x="602.98" y="-1043.73" font-family="monospace" font-size="10.00">lightning_types::reputation</text>
</g>
<!-- lightning_types&#45;&gt;lightning_types::reputation -->
<g id="edge27" class="edge">
<title>lightning_types&#45;&gt;lightning_types::reputation</title>
<path fill="none" stroke="#000000" d="M574.26,-557.35C556.46,-635.72 566.25,-932.71 588.59,-1026.89"/>
<polygon fill="#000000" stroke="#000000" points="585.21,-1027.83 591.15,-1036.61 591.98,-1026.05 585.21,-1027.83"/>
<text text-anchor="middle" x="568.92" y="-795.12" font-family="monospace" font-size="10.00">owns</text>
</g>
<!-- lightning_types&#45;&gt;lightning_types::reputation -->
<g id="edge28" class="edge">
<title>lightning_types&#45;&gt;lightning_types::reputation</title>
<path fill="none" stroke="#7f7f7f" stroke-dasharray="5,2" d="M596.39,-557.5C619.58,-635.97 630.83,-931.89 615.19,-1026.48"/>
<polygon fill="#7f7f7f" stroke="#7f7f7f" points="611.72,-1026.01 613.26,-1036.49 618.59,-1027.33 611.72,-1026.01"/>
<text text-anchor="middle" x="593.29" y="-783.99" font-family="monospace" font-size="10.00">uses</text>
</g>
<!-- lightning_types::response -->
<g id="node16" class="node">
<title>lightning_types::response</title>
<polygon fill="#f8c04c" stroke="black" points="789.75,-583.95 789.75,-621.95 956.75,-621.95 956.75,-583.95 789.75,-583.95"/>
<text text-anchor="middle" x="873.25" y="-609.95" font-family="monospace" font-size="10.00">pub(crate) mod</text>
<polyline fill="none" stroke="black" points="789.75,-602.95 956.75,-602.95 "/>
<text text-anchor="middle" x="873.25" y="-590.95" font-family="monospace" font-size="10.00">lightning_types::response</text>
</g>
<!-- lightning_types&#45;&gt;lightning_types::response -->
<g id="edge29" class="edge">
<title>lightning_types&#45;&gt;lightning_types::response</title>
<path fill="none" stroke="#000000" d="M602.04,-557.35C636.69,-576.73 715.71,-597.95 779.59,-607.67"/>
<polygon fill="#000000" stroke="#000000" points="779.3,-611.17 789.7,-609.13 780.3,-604.24 779.3,-611.17"/>
<text text-anchor="middle" x="678.32" y="-585.51" font-family="monospace" font-size="10.00">owns</text>
</g>
<!-- lightning_types&#45;&gt;lightning_types::response -->
<g id="edge30" class="edge">
<title>lightning_types&#45;&gt;lightning_types::response</title>
<path fill="none" stroke="#7f7f7f" stroke-dasharray="5,2" d="M638.06,-528.85C699.98,-533.29 799.3,-556.75 846.64,-579.19"/>
<polygon fill="#7f7f7f" stroke="#7f7f7f" points="845.16,-582.36 855.65,-583.8 848.35,-576.13 845.16,-582.36"/>
<text text-anchor="middle" x="729.85" y="-557.02" font-family="monospace" font-size="10.00">uses</text>
</g>
<!-- lightning_types::rpc -->
<g id="node17" class="node">
<title>lightning_types::rpc</title>
<polygon fill="#f8c04c" stroke="black" points="760.78,-33.5 760.78,-71.5 897.78,-71.5 897.78,-33.5 760.78,-33.5"/>
<text text-anchor="middle" x="829.28" y="-59.5" font-family="monospace" font-size="10.00">pub(crate) mod</text>
<polyline fill="none" stroke="black" points="760.78,-52.5 897.78,-52.5 "/>
<text text-anchor="middle" x="829.28" y="-40.5" font-family="monospace" font-size="10.00">lightning_types::rpc</text>
</g>
<!-- lightning_types&#45;&gt;lightning_types::rpc -->
<g id="edge31" class="edge">
<title>lightning_types&#45;&gt;lightning_types::rpc</title>
<path fill="none" stroke="#000000" d="M608.38,-519.22C667.66,-444.04 804.71,-171.81 828.6,-81.46"/>
<polygon fill="#000000" stroke="#000000" points="832.03,-82.14 830.89,-71.6 825.21,-80.55 832.03,-82.14"/>
<text text-anchor="middle" x="705.99" y="-303.34" font-family="monospace" font-size="10.00">owns</text>
</g>
<!-- lightning_types&#45;&gt;lightning_types::rpc -->
<g id="edge32" class="edge">
<title>lightning_types&#45;&gt;lightning_types::rpc</title>
<path fill="none" stroke="#7f7f7f" stroke-dasharray="5,2" d="M582.89,-519.19C597.54,-443.53 734.25,-168.77 799.02,-79.98"/>
<polygon fill="#7f7f7f" stroke="#7f7f7f" points="802,-81.84 805.24,-71.75 796.42,-77.62 802,-81.84"/>
<text text-anchor="middle" x="678.46" y="-302.59" font-family="monospace" font-size="10.00">uses</text>
</g>
<!-- lightning_types::state -->
<g id="node18" class="node">
<title>lightning_types::state</title>
<polygon fill="#f8c04c" stroke="black" points="523.76,-824.63 523.76,-862.63 672.76,-862.63 672.76,-824.63 523.76,-824.63"/>
<text text-anchor="middle" x="598.26" y="-850.63" font-family="monospace" font-size="10.00">pub(crate) mod</text>
<polyline fill="none" stroke="black" points="523.76,-843.63 672.76,-843.63 "/>
<text text-anchor="middle" x="598.26" y="-831.63" font-family="monospace" font-size="10.00">lightning_types::state</text>
</g>
<!-- lightning_types&#45;&gt;lightning_types::state -->
<g id="edge33" class="edge">
<title>lightning_types&#45;&gt;lightning_types::state</title>
<path fill="none" stroke="#000000" d="M571.57,-557.5C557.39,-609.42 562.79,-752.44 580.05,-814.39"/>
<polygon fill="#000000" stroke="#000000" points="576.82,-815.81 583.16,-824.3 583.5,-813.71 576.82,-815.81"/>
<text text-anchor="middle" x="563.31" y="-688.95" font-family="monospace" font-size="10.00">owns</text>
</g>
<!-- lightning_types&#45;&gt;lightning_types::state -->
<g id="edge34" class="edge">
<title>lightning_types&#45;&gt;lightning_types::state</title>
<path fill="none" stroke="#7f7f7f" stroke-dasharray="5,2" d="M599.64,-557.64C618.24,-609.72 625.42,-752.81 613.45,-814.6"/>
<polygon fill="#7f7f7f" stroke="#7f7f7f" points="610.01,-813.94 611.18,-824.47 616.83,-815.51 610.01,-813.94"/>
<text text-anchor="middle" x="594.05" y="-689.12" font-family="monospace" font-size="10.00">uses</text>
</g>
<!-- lightning_types::transaction -->
<g id="node19" class="node">
<title>lightning_types::transaction</title>
<polygon fill="#f8c04c" stroke="black" points="834.97,-761.28 834.97,-799.28 1019.97,-799.28 1019.97,-761.28 834.97,-761.28"/>
<text text-anchor="middle" x="927.47" y="-787.28" font-family="monospace" font-size="10.00">pub(crate) mod</text>
<polyline fill="none" stroke="black" points="834.97,-780.28 1019.97,-780.28 "/>
<text text-anchor="middle" x="927.47" y="-768.28" font-family="monospace" font-size="10.00">lightning_types::transaction</text>
</g>
<!-- lightning_types&#45;&gt;lightning_types::transaction -->
<g id="edge35" class="edge">
<title>lightning_types&#45;&gt;lightning_types::transaction</title>
<path fill="none" stroke="#000000" d="M591.76,-557.42C627.12,-602.99 769.45,-707.25 857.34,-756.31"/>
<polygon fill="#000000" stroke="#000000" points="855.75,-759.43 866.2,-761.17 859.11,-753.29 855.75,-759.43"/>
<text text-anchor="middle" x="712.05" y="-659.87" font-family="monospace" font-size="10.00">owns</text>
</g>
<!-- lightning_types&#45;&gt;lightning_types::transaction -->
<g id="edge36" class="edge">
<title>lightning_types&#45;&gt;lightning_types::transaction</title>
<path fill="none" stroke="#7f7f7f" stroke-dasharray="5,2" d="M638.35,-553.42C719.32,-595.28 866.41,-700.92 913.47,-753.09"/>
<polygon fill="#7f7f7f" stroke="#7f7f7f" points="911.01,-755.6 920.14,-760.98 916.36,-751.08 911.01,-755.6"/>
<text text-anchor="middle" x="763.41" y="-656.26" font-family="monospace" font-size="10.00">uses</text>
</g>
<!-- lightning_types::application&#45;&gt;lightning_types::response -->
<g id="edge37" class="edge">
<title>lightning_types::application&#45;&gt;lightning_types::response</title>
<path fill="none" stroke="#7f7f7f" stroke-dasharray="5,2" d="M1031.49,-456.48C979.09,-486.75 910.26,-540.81 883.31,-575.3"/>
<polygon fill="#7f7f7f" stroke="#7f7f7f" points="880.34,-573.43 877.4,-583.61 886.05,-577.49 880.34,-573.43"/>
<text text-anchor="middle" x="944.9" y="-518.89" font-family="monospace" font-size="10.00">uses</text>
</g>
<!-- lightning_types::blockstore_server&#45;&gt;lightning_types::blockstore -->
<g id="edge38" class="edge">
<title>lightning_types::blockstore_server&#45;&gt;lightning_types::blockstore</title>
<path fill="none" stroke="#7f7f7f" stroke-dasharray="5,2" d="M274.66,-728.43C283.32,-671.35 309.13,-501.26 319.59,-432.27"/>
<polygon fill="#7f7f7f" stroke="#7f7f7f" points="323.1,-432.51 321.14,-422.1 316.17,-431.46 323.1,-432.51"/>
<text text-anchor="middle" x="284.63" y="-583.35" font-family="monospace" font-size="10.00">uses</text>
</g>
<!-- lightning_types::blockstore_server&#45;&gt;lightning_types::pool -->
<g id="edge39" class="edge">
<title>lightning_types::blockstore_server&#45;&gt;lightning_types::pool</title>
<path fill="none" stroke="#7f7f7f" stroke-dasharray="5,2" d="M273.08,-766.64C275.91,-808.4 282.67,-907.77 286.04,-957.48"/>
<polygon fill="#7f7f7f" stroke="#7f7f7f" points="282.56,-957.83 286.73,-967.57 289.54,-957.36 282.56,-957.83"/>
<text text-anchor="middle" x="267.06" y="-865.06" font-family="monospace" font-size="10.00">uses</text>
</g>
<!-- lightning_types::blockstore_server&#45;&gt;lightning_types::state -->
<g id="edge40" class="edge">
<title>lightning_types::blockstore_server&#45;&gt;lightning_types::state</title>
<path fill="none" stroke="#7f7f7f" stroke-dasharray="5,2" d="M336.28,-766.46C390.3,-782.37 467.42,-805.09 524.01,-821.76"/>
<polygon fill="#7f7f7f" stroke="#7f7f7f" points="523.03,-825.12 533.61,-824.59 525.01,-818.41 523.03,-825.12"/>
<text text-anchor="middle" x="417.64" y="-797.11" font-family="monospace" font-size="10.00">uses</text>
</g>
<!-- lightning_types::connection&#45;&gt;lightning_types::compression -->
<g id="edge41" class="edge">
<title>lightning_types::connection&#45;&gt;lightning_types::compression</title>
<path fill="none" stroke="#7f7f7f" stroke-dasharray="5,2" d="M534.04,-38.51C514.95,-43.14 494.4,-48.12 474.88,-52.85"/>
<polygon fill="#7f7f7f" stroke="#7f7f7f" points="473.98,-49.47 465.09,-55.23 475.63,-56.27 473.98,-49.47"/>
<text text-anchor="middle" x="491.96" y="-48.68" font-family="monospace" font-size="10.00">uses</text>
</g>
<!-- lightning_types::content_registry&#45;&gt;lightning_types::blockstore -->
<g id="edge42" class="edge">
<title>lightning_types::content_registry&#45;&gt;lightning_types::blockstore</title>
<path fill="none" stroke="#7f7f7f" stroke-dasharray="5,2" d="M616.81,-355.51C556.84,-365.18 482.62,-377.14 423.93,-386.61"/>
<polygon fill="#7f7f7f" stroke="#7f7f7f" points="423.22,-383.18 413.9,-388.22 424.33,-390.09 423.22,-383.18"/>
<text text-anchor="middle" x="507.87" y="-374.06" font-family="monospace" font-size="10.00">uses</text>
</g>
<!-- lightning_types::fetcher&#45;&gt;lightning_types::blockstore -->
<g id="edge43" class="edge">
<title>lightning_types::fetcher&#45;&gt;lightning_types::blockstore</title>
<path fill="none" stroke="#7f7f7f" stroke-dasharray="5,2" d="M161.27,-425.55C181.38,-422.73 203.18,-419.67 224.1,-416.74"/>
<polygon fill="#7f7f7f" stroke="#7f7f7f" points="224.87,-420.16 234.28,-415.31 223.89,-413.23 224.87,-420.16"/>
<text text-anchor="middle" x="180.18" y="-424.15" font-family="monospace" font-size="10.00">uses</text>
</g>
<!-- lightning_types::fetcher&#45;&gt;lightning_types::content -->
<g id="edge44" class="edge">
<title>lightning_types::fetcher&#45;&gt;lightning_types::content</title>
<path fill="none" stroke="#7f7f7f" stroke-dasharray="5,2" d="M90.53,-417.86C112.5,-376.17 164.96,-276.63 190.78,-227.64"/>
<polygon fill="#7f7f7f" stroke="#7f7f7f" points="194.01,-229.02 195.58,-218.54 187.82,-225.76 194.01,-229.02"/>
<text text-anchor="middle" x="128.16" y="-325.75" font-family="monospace" font-size="10.00">uses</text>
</g>
<!-- lightning_types::response&#45;&gt;lightning_types::application -->
<g id="edge45" class="edge">
<title>lightning_types::response&#45;&gt;lightning_types::application</title>
<path fill="none" stroke="#7f7f7f" stroke-dasharray="5,2" d="M937.49,-583.87C989.89,-553.61 1058.72,-499.54 1085.67,-465.06"/>
<polygon fill="#7f7f7f" stroke="#7f7f7f" points="1088.64,-466.92 1091.59,-456.74 1082.94,-462.87 1088.64,-466.92"/>
<text text-anchor="middle" x="999.08" y="-527.47" font-family="monospace" font-size="10.00">uses</text>
</g>
<!-- lightning_types::response&#45;&gt;lightning_types::state -->
<g id="edge46" class="edge">
<title>lightning_types::response&#45;&gt;lightning_types::state</title>
<path fill="none" stroke="#7f7f7f" stroke-dasharray="5,2" d="M851.21,-622.24C802.01,-665.3 683.22,-769.28 627.73,-817.84"/>
<polygon fill="#7f7f7f" stroke="#7f7f7f" points="625.24,-815.37 620.02,-824.59 629.85,-820.63 625.24,-815.37"/>
<text text-anchor="middle" x="726.97" y="-723.04" font-family="monospace" font-size="10.00">uses</text>
</g>
<!-- lightning_types::response&#45;&gt;lightning_types::transaction -->
<g id="edge47" class="edge">
<title>lightning_types::response&#45;&gt;lightning_types::transaction</title>
<path fill="none" stroke="#7f7f7f" stroke-dasharray="5,2" d="M862.72,-622.04C859.13,-653.65 876.07,-716.09 896.16,-752.51"/>
<polygon fill="#7f7f7f" stroke="#7f7f7f" points="893.2,-754.37 901.32,-761.17 899.21,-750.79 893.2,-754.37"/>
<text text-anchor="middle" x="866.94" y="-690.27" font-family="monospace" font-size="10.00">uses</text>
</g>
<!-- lightning_types::state&#45;&gt;lightning_types::reputation -->
<g id="edge48" class="edge">
<title>lightning_types::state&#45;&gt;lightning_types::reputation</title>
<path fill="none" stroke="#7f7f7f" stroke-dasharray="5,2" d="M598.69,-862.83C599.52,-900.13 601.35,-982.61 602.33,-1026.67"/>
<polygon fill="#7f7f7f" stroke="#7f7f7f" points="598.83,-1026.81 602.56,-1036.73 605.83,-1026.66 598.83,-1026.81"/>
<text text-anchor="middle" x="588.01" y="-947.75" font-family="monospace" font-size="10.00">uses</text>
</g>
<!-- lightning_types::transaction&#45;&gt;lightning_types::application -->
<g id="edge49" class="edge">
<title>lightning_types::transaction&#45;&gt;lightning_types::application</title>
<path fill="none" stroke="#7f7f7f" stroke-dasharray="5,2" d="M937,-760.86C965.23,-703.34 1048.51,-533.63 1081.78,-465.85"/>
<polygon fill="#7f7f7f" stroke="#7f7f7f" points="1085.05,-467.13 1086.31,-456.61 1078.76,-464.05 1085.05,-467.13"/>
<text text-anchor="middle" x="996.89" y="-616.35" font-family="monospace" font-size="10.00">uses</text>
</g>
<!-- lightning_types::transaction&#45;&gt;lightning_types::bridge -->
<g id="edge50" class="edge">
<title>lightning_types::transaction&#45;&gt;lightning_types::bridge</title>
<path fill="none" stroke="#7f7f7f" stroke-dasharray="5,2" d="M917.23,-799.32C893.86,-842.78 836.54,-949.4 809.16,-1000.31"/>
<polygon fill="#7f7f7f" stroke="#7f7f7f" points="806.07,-998.67 804.41,-1009.14 812.23,-1001.99 806.07,-998.67"/>
<text text-anchor="middle" x="850.7" y="-902.81" font-family="monospace" font-size="10.00">uses</text>
</g>
<!-- lightning_types::transaction&#45;&gt;lightning_types::content_registry -->
<g id="edge51" class="edge">
<title>lightning_types::transaction&#45;&gt;lightning_types::content_registry</title>
<path fill="none" stroke="#7f7f7f" stroke-dasharray="5,2" d="M918.61,-761C886.44,-690.97 775.66,-449.88 737.43,-366.68"/>
<polygon fill="#7f7f7f" stroke="#7f7f7f" points="740.6,-365.18 733.24,-357.56 734.24,-368.1 740.6,-365.18"/>
<text text-anchor="middle" x="815.52" y="-566.84" font-family="monospace" font-size="10.00">uses</text>
</g>
<!-- lightning_types::transaction&#45;&gt;lightning_types::dack_aggregator -->
<g id="edge52" class="edge">
<title>lightning_types::transaction&#45;&gt;lightning_types::dack_aggregator</title>
<path fill="none" stroke="#7f7f7f" stroke-dasharray="5,2" d="M930.08,-761.2C940.09,-688.15 976,-425.88 988.07,-337.71"/>
<polygon fill="#7f7f7f" stroke="#7f7f7f" points="991.57,-338 989.46,-327.62 984.63,-337.05 991.57,-338"/>
<text text-anchor="middle" x="946.58" y="-552.46" font-family="monospace" font-size="10.00">uses</text>
</g>
<!-- lightning_types::transaction&#45;&gt;lightning_types::misbehavior -->
<g id="edge53" class="edge">
<title>lightning_types::transaction&#45;&gt;lightning_types::misbehavior</title>
<path fill="none" stroke="#7f7f7f" stroke-dasharray="5,2" d="M953.9,-761.24C990.06,-735.19 1055.04,-688.39 1095.04,-659.58"/>
<polygon fill="#7f7f7f" stroke="#7f7f7f" points="1097.11,-662.41 1103.18,-653.72 1093.02,-656.73 1097.11,-662.41"/>
<text text-anchor="middle" x="1011.97" y="-713.41" font-family="monospace" font-size="10.00">uses</text>
</g>
<!-- lightning_types::transaction&#45;&gt;lightning_types::reputation -->
<g id="edge54" class="edge">
<title>lightning_types::transaction&#45;&gt;lightning_types::reputation</title>
<path fill="none" stroke="#7f7f7f" stroke-dasharray="5,2" d="M904.91,-799.43C847.85,-847.87 697.73,-975.3 633.19,-1030.09"/>
<polygon fill="#7f7f7f" stroke="#7f7f7f" points="630.75,-1027.57 625.39,-1036.71 635.28,-1032.9 630.75,-1027.57"/>
<text text-anchor="middle" x="756.55" y="-917.76" font-family="monospace" font-size="10.00">uses</text>
</g>
<!-- lightning_types::transaction&#45;&gt;lightning_types::response -->
<g id="edge55" class="edge">
<title>lightning_types::transaction&#45;&gt;lightning_types::response</title>
<path fill="none" stroke="#7f7f7f" stroke-dasharray="5,2" d="M938,-761.19C941.59,-729.57 924.65,-667.14 904.56,-630.72"/>
<polygon fill="#7f7f7f" stroke="#7f7f7f" points="907.52,-628.85 899.4,-622.06 901.51,-632.44 907.52,-628.85"/>
<text text-anchor="middle" x="908.78" y="-698.95" font-family="monospace" font-size="10.00">uses</text>
</g>
<!-- lightning_types::transaction&#45;&gt;lightning_types::state -->
<g id="edge56" class="edge">
<title>lightning_types::transaction&#45;&gt;lightning_types::state</title>
<path fill="none" stroke="#7f7f7f" stroke-dasharray="5,2" d="M834.89,-798.09C787.23,-807.27 729.53,-818.37 683.04,-827.32"/>
<polygon fill="#7f7f7f" stroke="#7f7f7f" points="682.16,-823.92 673,-829.25 683.48,-830.8 682.16,-823.92"/>
<text text-anchor="middle" x="746.47" y="-815.7" font-family="monospace" font-size="10.00">uses</text>
</g>
<!-- rlp -->
<g id="node20" class="node">
<title>rlp</title>
<polygon fill="#5397c8" stroke="black" points="1261.39,-1030.04 1261.39,-1068.04 1362.39,-1068.04 1362.39,-1030.04 1261.39,-1030.04"/>
<text text-anchor="middle" x="1311.89" y="-1056.04" font-family="monospace" font-size="10.00">external crate</text>
<polyline fill="none" stroke="black" points="1261.39,-1049.04 1362.39,-1049.04 "/>
<text text-anchor="middle" x="1311.89" y="-1037.04" font-family="monospace" font-size="10.00">rlp</text>
</g>
<!-- lightning_types::transaction&#45;&gt;rlp -->
<g id="edge57" class="edge">
<title>lightning_types::transaction&#45;&gt;rlp</title>
<path fill="none" stroke="#7f7f7f" stroke-dasharray="5,2" d="M954.81,-799.39C1022.94,-847.02 1200.26,-970.99 1276.36,-1024.2"/>
<polygon fill="#7f7f7f" stroke="#7f7f7f" points="1274.49,-1027.16 1284.69,-1030.02 1278.5,-1021.42 1274.49,-1027.16"/>
<text text-anchor="middle" x="1103.08" y="-914.79" font-family="monospace" font-size="10.00">uses</text>
</g>
</g>
</svg>
