<?xml version="1.0" encoding="UTF-8" standalone="no"?>
<!DOCTYPE svg PUBLIC "-//W3C//DTD SVG 1.1//EN"
 "http://www.w3.org/Graphics/SVG/1.1/DTD/svg11.dtd">
<!-- Generated by graphviz version 4.0.0 (0)
 -->
<!-- Pages: 1 -->
<svg width="1185pt" height="2193pt"
 viewBox="0.00 0.00 1184.60 2192.60" xmlns="http://www.w3.org/2000/svg" xmlns:xlink="http://www.w3.org/1999/xlink">
<g id="graph0" class="graph" transform="scale(1 1) rotate(0) translate(28.8 2163.8)">
<polygon fill="white" stroke="transparent" points="-28.8,28.8 -28.8,-2163.8 1155.8,-2163.8 1155.8,28.8 -28.8,28.8"/>
<text text-anchor="middle" x="563.5" y="-2102.2" font-family="Helvetica,sans-Serif" font-size="36.00">lightning_resolver</text>
<!-- fdi -->
<g id="node1" class="node">
<title>fdi</title>
<polygon fill="#5397c8" stroke="black" points="12,-1193.5 12,-1231.5 113,-1231.5 113,-1193.5 12,-1193.5"/>
<text text-anchor="middle" x="62.5" y="-1219.5" font-family="monospace" font-size="10.00">external crate</text>
<polyline fill="none" stroke="black" points="12,-1212.5 113,-1212.5 "/>
<text text-anchor="middle" x="62.5" y="-1200.5" font-family="monospace" font-size="10.00">fdi</text>
</g>
<!-- lightning_resolver -->
<g id="node2" class="node">
<title>lightning_resolver</title>
<polygon fill="#5397c8" stroke="black" points="0,-1021.5 0,-1059.5 125,-1059.5 125,-1021.5 0,-1021.5"/>
<text text-anchor="middle" x="62.5" y="-1047.5" font-family="monospace" font-size="10.00">crate</text>
<polyline fill="none" stroke="black" points="0,-1040.5 125,-1040.5 "/>
<text text-anchor="middle" x="62.5" y="-1028.5" font-family="monospace" font-size="10.00">lightning_resolver</text>
</g>
<!-- lightning_resolver::config -->
<g id="node3" class="node">
<title>lightning_resolver::config</title>
<polygon fill="#81c169" stroke="black" points="933,-2048.5 933,-2086.5 1106,-2086.5 1106,-2048.5 933,-2048.5"/>
<text text-anchor="middle" x="1019.5" y="-2074.5" font-family="monospace" font-size="10.00">pub mod</text>
<polyline fill="none" stroke="black" points="933,-2067.5 1106,-2067.5 "/>
<text text-anchor="middle" x="1019.5" y="-2055.5" font-family="monospace" font-size="10.00">lightning_resolver::config</text>
</g>
<!-- lightning_resolver&#45;&gt;lightning_resolver::config -->
<g id="edge1" class="edge">
<title>lightning_resolver&#45;&gt;lightning_resolver::config</title>
<path fill="none" stroke="#000000" d="M114.87,-1059.54C234.77,-1103.15 519,-1206.5 519,-1206.5 519,-1206.5 916.83,-1890.89 1003.12,-2039.32"/>
<polygon fill="#000000" stroke="#000000" points="1000.29,-2041.42 1008.34,-2048.31 1006.34,-2037.91 1000.29,-2041.42"/>
<text text-anchor="middle" x="506.5" y="-1198.5" font-family="monospace" font-size="10.00">owns</text>
</g>
<!-- lightning_resolver::origin_finder -->
<g id="node4" class="node">
<title>lightning_resolver::origin_finder</title>
<polygon fill="#81c169" stroke="black" points="912,-1479.5 912,-1517.5 1127,-1517.5 1127,-1479.5 912,-1479.5"/>
<text text-anchor="middle" x="1019.5" y="-1505.5" font-family="monospace" font-size="10.00">pub mod</text>
<polyline fill="none" stroke="black" points="912,-1498.5 1127,-1498.5 "/>
<text text-anchor="middle" x="1019.5" y="-1486.5" font-family="monospace" font-size="10.00">lightning_resolver::origin_finder</text>
</g>
<!-- lightning_resolver&#45;&gt;lightning_resolver::origin_finder -->
<g id="edge2" class="edge">
<title>lightning_resolver&#45;&gt;lightning_resolver::origin_finder</title>
<path fill="none" stroke="#000000" d="M125.02,-1042.01C250.04,-1045.02 519,-1051.5 519,-1051.5 519,-1051.5 883.71,-1377.23 990.47,-1472.58"/>
<polygon fill="#000000" stroke="#000000" points="988.2,-1475.24 997.99,-1479.29 992.87,-1470.02 988.2,-1475.24"/>
<text text-anchor="middle" x="506.5" y="-1043.5" font-family="monospace" font-size="10.00">owns</text>
</g>
<!-- lightning_resolver::resolver -->
<g id="node5" class="node">
<title>lightning_resolver::resolver</title>
<polygon fill="#81c169" stroke="black" points="927,-0.5 927,-38.5 1112,-38.5 1112,-0.5 927,-0.5"/>
<text text-anchor="middle" x="1019.5" y="-26.5" font-family="monospace" font-size="10.00">pub mod</text>
<polyline fill="none" stroke="black" points="927,-19.5 1112,-19.5 "/>
<text text-anchor="middle" x="1019.5" y="-7.5" font-family="monospace" font-size="10.00">lightning_resolver::resolver</text>
</g>
<!-- lightning_resolver&#45;&gt;lightning_resolver::resolver -->
<g id="edge3" class="edge">
<title>lightning_resolver&#45;&gt;lightning_resolver::resolver</title>
<path fill="none" stroke="#000000" d="M98.18,-1021.4C201.56,-966.06 494,-809.5 494,-809.5 494,-809.5 908.13,-186.92 1001.12,-47.13"/>
<polygon fill="#000000" stroke="#000000" points="1004.15,-48.9 1006.77,-38.64 998.32,-45.02 1004.15,-48.9"/>
<text text-anchor="middle" x="506.5" y="-812.5" font-family="monospace" font-size="10.00">owns</text>
</g>
<!-- lightning_resolver::resolver&#45;&gt;fdi -->
<g id="edge4" class="edge">
<title>lightning_resolver::resolver&#45;&gt;fdi</title>
<path fill="none" stroke="#7f7f7f" stroke-dasharray="5,2" d="M1011.97,-38.57C947.72,-201.3 494,-1350.5 494,-1350.5 494,-1350.5 241.72,-1269.82 122.96,-1231.84"/>
<polygon fill="#7f7f7f" stroke="#7f7f7f" points="123.86,-1228.45 113.27,-1228.74 121.73,-1235.12 123.86,-1228.45"/>
<text text-anchor="middle" x="506.5" y="-1353.5" font-family="monospace" font-size="10.00">uses</text>
</g>
<!-- lightning_resolver::resolver&#45;&gt;lightning_resolver::config -->
<g id="edge5" class="edge">
<title>lightning_resolver::resolver&#45;&gt;lightning_resolver::config</title>
<path fill="none" stroke="#7f7f7f" stroke-dasharray="5,2" d="M1017.29,-38.68C998.67,-199.84 869,-1322.5 869,-1322.5 869,-1322.5 985.9,-1901.18 1013.65,-2038.52"/>
<polygon fill="#7f7f7f" stroke="#7f7f7f" points="1010.22,-2039.23 1015.63,-2048.34 1017.08,-2037.84 1010.22,-2039.23"/>
<text text-anchor="middle" x="863.5" y="-1320" font-family="monospace" font-size="10.00">uses</text>
</g>
<!-- lightning_resolver::resolver&#45;&gt;lightning_resolver::origin_finder -->
<g id="edge6" class="edge">
<title>lightning_resolver::resolver&#45;&gt;lightning_resolver::origin_finder</title>
</g>
<!-- lightning_schema -->
<g id="node6" class="node">
<title>lightning_schema</title>
<polygon fill="#5397c8" stroke="black" points="6,-887.5 6,-925.5 119,-925.5 119,-887.5 6,-887.5"/>
<text text-anchor="middle" x="62.5" y="-913.5" font-family="monospace" font-size="10.00">external crate</text>
<polyline fill="none" stroke="black" points="6,-906.5 119,-906.5 "/>
<text text-anchor="middle" x="62.5" y="-894.5" font-family="monospace" font-size="10.00">lightning_schema</text>
</g>
<!-- lightning_resolver::resolver&#45;&gt;lightning_schema -->
<g id="edge7" class="edge">
<title>lightning_resolver::resolver&#45;&gt;lightning_schema</title>
<path fill="none" stroke="#7f7f7f" stroke-dasharray="5,2" d="M998.58,-38.77C900.84,-128.79 494,-503.5 494,-503.5 494,-503.5 186.32,-790.86 90.58,-880.27"/>
<polygon fill="#7f7f7f" stroke="#7f7f7f" points="87.94,-877.95 83.02,-887.33 92.72,-883.07 87.94,-877.95"/>
<text text-anchor="middle" x="506.5" y="-506.5" font-family="monospace" font-size="10.00">uses</text>
</g>
<!-- lightning_types -->
<g id="node7" class="node">
<title>lightning_types</title>
<polygon fill="#5397c8" stroke="black" points="9,-731.5 9,-769.5 116,-769.5 116,-731.5 9,-731.5"/>
<text text-anchor="middle" x="62.5" y="-757.5" font-family="monospace" font-size="10.00">external crate</text>
<polyline fill="none" stroke="black" points="9,-750.5 116,-750.5 "/>
<text text-anchor="middle" x="62.5" y="-738.5" font-family="monospace" font-size="10.00">lightning_types</text>
</g>
<!-- lightning_resolver::resolver&#45;&gt;lightning_types -->
<g id="edge8" class="edge">
<title>lightning_resolver::resolver&#45;&gt;lightning_types</title>
<path fill="none" stroke="#7f7f7f" stroke-dasharray="5,2" d="M926.83,-21.54C782.15,-24.72 519,-30.5 519,-30.5 519,-30.5 164.53,-589.58 80.3,-722.43"/>
<polygon fill="#7f7f7f" stroke="#7f7f7f" points="77.11,-720.92 74.71,-731.24 83.02,-724.67 77.11,-720.92"/>
<text text-anchor="middle" x="506.5" y="-22.5" font-family="monospace" font-size="10.00">uses</text>
</g>
</g>
</svg>
