<?xml version="1.0" encoding="UTF-8" standalone="no"?>
<!DOCTYPE svg PUBLIC "-//W3C//DTD SVG 1.1//EN"
 "http://www.w3.org/Graphics/SVG/1.1/DTD/svg11.dtd">
<!-- Generated by graphviz version 4.0.0 (0)
 -->
<!-- Pages: 1 -->
<svg width="1113pt" height="1624pt"
 viewBox="0.00 0.00 1112.60 1623.60" xmlns="http://www.w3.org/2000/svg" xmlns:xlink="http://www.w3.org/1999/xlink">
<g id="graph0" class="graph" transform="scale(1 1) rotate(0) translate(28.8 1594.8)">
<polygon fill="white" stroke="transparent" points="-28.8,28.8 -28.8,-1594.8 1083.8,-1594.8 1083.8,28.8 -28.8,28.8"/>
<text text-anchor="middle" x="527.5" y="-1533.2" font-family="Helvetica,sans-Serif" font-size="36.00">lightning_archive</text>
<!-- fdi -->
<g id="node1" class="node">
<title>fdi</title>
<polygon fill="#5397c8" stroke="black" points="9,-849.5 9,-887.5 110,-887.5 110,-849.5 9,-849.5"/>
<text text-anchor="middle" x="59.5" y="-875.5" font-family="monospace" font-size="10.00">external crate</text>
<polyline fill="none" stroke="black" points="9,-868.5 110,-868.5 "/>
<text text-anchor="middle" x="59.5" y="-856.5" font-family="monospace" font-size="10.00">fdi</text>
</g>
<!-- lightning_archive -->
<g id="node2" class="node">
<title>lightning_archive</title>
<polygon fill="#5397c8" stroke="black" points="0,-722.5 0,-760.5 119,-760.5 119,-722.5 0,-722.5"/>
<text text-anchor="middle" x="59.5" y="-748.5" font-family="monospace" font-size="10.00">crate</text>
<polyline fill="none" stroke="black" points="0,-741.5 119,-741.5 "/>
<text text-anchor="middle" x="59.5" y="-729.5" font-family="monospace" font-size="10.00">lightning_archive</text>
</g>
<!-- lightning_archive::archive -->
<g id="node3" class="node">
<title>lightning_archive::archive</title>
<polygon fill="#81c169" stroke="black" points="882,-1479.5 882,-1517.5 1055,-1517.5 1055,-1479.5 882,-1479.5"/>
<text text-anchor="middle" x="968.5" y="-1505.5" font-family="monospace" font-size="10.00">pub mod</text>
<polyline fill="none" stroke="black" points="882,-1498.5 1055,-1498.5 "/>
<text text-anchor="middle" x="968.5" y="-1486.5" font-family="monospace" font-size="10.00">lightning_archive::archive</text>
</g>
<!-- lightning_archive&#45;&gt;lightning_archive::archive -->
<g id="edge1" class="edge">
<title>lightning_archive&#45;&gt;lightning_archive::archive</title>
<path fill="none" stroke="#000000" d="M84.2,-760.73C178.84,-834.39 513,-1094.5 513,-1094.5 513,-1094.5 838.45,-1383.15 939.16,-1472.48"/>
<polygon fill="#000000" stroke="#000000" points="937.03,-1475.27 946.84,-1479.29 941.68,-1470.03 937.03,-1475.27"/>
<text text-anchor="middle" x="500.5" y="-1086.5" font-family="monospace" font-size="10.00">owns</text>
</g>
<!-- lightning_archive::config -->
<g id="node4" class="node">
<title>lightning_archive::config</title>
<polygon fill="#81c169" stroke="black" points="885,-0.5 885,-38.5 1052,-38.5 1052,-0.5 885,-0.5"/>
<text text-anchor="middle" x="968.5" y="-26.5" font-family="monospace" font-size="10.00">pub mod</text>
<polyline fill="none" stroke="black" points="885,-19.5 1052,-19.5 "/>
<text text-anchor="middle" x="968.5" y="-7.5" font-family="monospace" font-size="10.00">lightning_archive::config</text>
</g>
<!-- lightning_archive&#45;&gt;lightning_archive::config -->
<g id="edge2" class="edge">
<title>lightning_archive&#45;&gt;lightning_archive::config</title>
<path fill="none" stroke="#000000" d="M80.76,-722.37C170.42,-641.71 513,-333.5 513,-333.5 513,-333.5 824.69,-118.64 932.4,-44.39"/>
<polygon fill="#000000" stroke="#000000" points="934.45,-47.23 940.69,-38.67 930.47,-41.46 934.45,-47.23"/>
<text text-anchor="middle" x="500.5" y="-325.5" font-family="monospace" font-size="10.00">owns</text>
</g>
<!-- lightning_archive::archive&#45;&gt;fdi -->
<g id="edge3" class="edge">
<title>lightning_archive::archive&#45;&gt;fdi</title>
<path fill="none" stroke="#7f7f7f" stroke-dasharray="5,2" d="M933.17,-1479.38C822.2,-1419.34 488,-1238.5 488,-1238.5 488,-1238.5 186.57,-978.22 89.34,-894.27"/>
<polygon fill="#7f7f7f" stroke="#7f7f7f" points="91.49,-891.5 81.64,-887.61 86.92,-896.8 91.49,-891.5"/>
<text text-anchor="middle" x="500.5" y="-1241.5" font-family="monospace" font-size="10.00">uses</text>
</g>
<!-- lightning_archive::archive&#45;&gt;lightning_archive::config -->
<g id="edge4" class="edge">
<title>lightning_archive::archive&#45;&gt;lightning_archive::config</title>
</g>
<!-- lightning_schema -->
<g id="node5" class="node">
<title>lightning_schema</title>
<polygon fill="#5397c8" stroke="black" points="3,-580.5 3,-618.5 116,-618.5 116,-580.5 3,-580.5"/>
<text text-anchor="middle" x="59.5" y="-606.5" font-family="monospace" font-size="10.00">external crate</text>
<polyline fill="none" stroke="black" points="3,-599.5 116,-599.5 "/>
<text text-anchor="middle" x="59.5" y="-587.5" font-family="monospace" font-size="10.00">lightning_schema</text>
</g>
<!-- lightning_archive::archive&#45;&gt;lightning_schema -->
<g id="edge5" class="edge">
<title>lightning_archive::archive&#45;&gt;lightning_schema</title>
<path fill="none" stroke="#7f7f7f" stroke-dasharray="5,2" d="M961.89,-1479.33C905.87,-1317.01 513,-178.5 513,-178.5 513,-178.5 186.79,-481.33 87.7,-573.32"/>
<polygon fill="#7f7f7f" stroke="#7f7f7f" points="85.11,-570.95 80.16,-580.32 89.87,-576.08 85.11,-570.95"/>
<text text-anchor="middle" x="500.5" y="-170.5" font-family="monospace" font-size="10.00">uses</text>
</g>
<!-- lightning_types -->
<g id="node6" class="node">
<title>lightning_types</title>
<polygon fill="#5397c8" stroke="black" points="6,-406.5 6,-444.5 113,-444.5 113,-406.5 6,-406.5"/>
<text text-anchor="middle" x="59.5" y="-432.5" font-family="monospace" font-size="10.00">external crate</text>
<polyline fill="none" stroke="black" points="6,-425.5 113,-425.5 "/>
<text text-anchor="middle" x="59.5" y="-413.5" font-family="monospace" font-size="10.00">lightning_types</text>
</g>
<!-- lightning_archive::archive&#45;&gt;lightning_types -->
<g id="edge6" class="edge">
<title>lightning_archive::archive&#45;&gt;lightning_types</title>
<path fill="none" stroke="#7f7f7f" stroke-dasharray="5,2" d="M962.57,-1479.31C909.18,-1306.42 513,-23.5 513,-23.5 513,-23.5 188.98,-310.72 88.71,-399.61"/>
<polygon fill="#7f7f7f" stroke="#7f7f7f" points="86.23,-397.13 81.07,-406.38 90.87,-402.37 86.23,-397.13"/>
<text text-anchor="middle" x="500.5" y="-15.5" font-family="monospace" font-size="10.00">uses</text>
</g>
</g>
</svg>
