<?xml version="1.0" encoding="UTF-8" standalone="no"?>
<!DOCTYPE svg PUBLIC "-//W3C//DTD SVG 1.1//EN"
 "http://www.w3.org/Graphics/SVG/1.1/DTD/svg11.dtd">
<!-- Generated by graphviz version 4.0.0 (0)
 -->
<!-- Pages: 1 -->
<svg width="528pt" height="239pt"
 viewBox="0.00 0.00 527.60 238.61" xmlns="http://www.w3.org/2000/svg" xmlns:xlink="http://www.w3.org/1999/xlink">
<g id="graph0" class="graph" transform="scale(1 1) rotate(0) translate(28.8 209.81)">
<polygon fill="white" stroke="transparent" points="-28.8,28.8 -28.8,-209.81 498.8,-209.81 498.8,28.8 -28.8,28.8"/>
<text text-anchor="middle" x="235" y="-148.21" font-family="Helvetica,sans-Serif" font-size="36.00">lightning_origin_demuxer</text>
<!-- lightning_origin_demuxer -->
<g id="node1" class="node">
<title>lightning_origin_demuxer</title>
<polygon fill="#5397c8" stroke="black" points="154.5,-47.5 154.5,-85.5 315.5,-85.5 315.5,-47.5 154.5,-47.5"/>
<text text-anchor="middle" x="235" y="-73.5" font-family="monospace" font-size="10.00">crate</text>
<polyline fill="none" stroke="black" points="154.5,-66.5 315.5,-66.5 "/>
<text text-anchor="middle" x="235" y="-54.5" font-family="monospace" font-size="10.00">lightning_origin_demuxer</text>
</g>
<!-- lightning_origin_demuxer::config -->
<g id="node2" class="node">
<title>lightning_origin_demuxer::config</title>
<polygon fill="#f8c04c" stroke="black" points="130.5,-94.51 130.5,-132.51 339.5,-132.51 339.5,-94.51 130.5,-94.51"/>
<text text-anchor="middle" x="235" y="-120.51" font-family="monospace" font-size="10.00">pub(crate) mod</text>
<polyline fill="none" stroke="black" points="130.5,-113.51 339.5,-113.51 "/>
<text text-anchor="middle" x="235" y="-101.51" font-family="monospace" font-size="10.00">lightning_origin_demuxer::config</text>
</g>
<!-- lightning_origin_demuxer&#45;&gt;lightning_origin_demuxer::config -->
<g id="edge1" class="edge">
<title>lightning_origin_demuxer&#45;&gt;lightning_origin_demuxer::config</title>
<path fill="none" stroke="#000000" d="M208.42,-85.62C208.4,-85.71 208.39,-85.8 208.37,-85.89"/>
<polygon fill="#000000" stroke="#000000" points="204.87,-84.27 208.4,-94.26 211.87,-84.24 204.87,-84.27"/>
<text text-anchor="middle" x="195.9" y="-88.76" font-family="monospace" font-size="10.00">owns</text>
</g>
<!-- lightning_origin_demuxer&#45;&gt;lightning_origin_demuxer::config -->
<g id="edge2" class="edge">
<title>lightning_origin_demuxer&#45;&gt;lightning_origin_demuxer::config</title>
<path fill="none" stroke="#7f7f7f" stroke-dasharray="5,2" d="M261.58,-85.62C261.6,-85.71 261.61,-85.8 261.63,-85.89"/>
<polygon fill="#7f7f7f" stroke="#7f7f7f" points="258.13,-84.24 261.6,-94.26 265.13,-84.27 258.13,-84.24"/>
<text text-anchor="middle" x="249.1" y="-88.76" font-family="monospace" font-size="10.00">uses</text>
</g>
<!-- lightning_origin_demuxer::demuxer -->
<g id="node3" class="node">
<title>lightning_origin_demuxer::demuxer</title>
<polygon fill="#f8c04c" stroke="black" points="127.5,-0.5 127.5,-38.5 342.5,-38.5 342.5,-0.5 127.5,-0.5"/>
<text text-anchor="middle" x="235" y="-26.5" font-family="monospace" font-size="10.00">pub(crate) mod</text>
<polyline fill="none" stroke="black" points="127.5,-19.5 342.5,-19.5 "/>
<text text-anchor="middle" x="235" y="-7.5" font-family="monospace" font-size="10.00">lightning_origin_demuxer::demuxer</text>
</g>
<!-- lightning_origin_demuxer&#45;&gt;lightning_origin_demuxer::demuxer -->
<g id="edge3" class="edge">
<title>lightning_origin_demuxer&#45;&gt;lightning_origin_demuxer::demuxer</title>
<path fill="none" stroke="#000000" d="M261.58,-47.39C261.6,-47.3 261.61,-47.21 261.63,-47.12"/>
<polygon fill="#000000" stroke="#000000" points="265.13,-48.74 261.6,-38.75 258.13,-48.76 265.13,-48.74"/>
<text text-anchor="middle" x="249.1" y="-39.25" font-family="monospace" font-size="10.00">owns</text>
</g>
<!-- lightning_origin_demuxer&#45;&gt;lightning_origin_demuxer::demuxer -->
<g id="edge4" class="edge">
<title>lightning_origin_demuxer&#45;&gt;lightning_origin_demuxer::demuxer</title>
<path fill="none" stroke="#7f7f7f" stroke-dasharray="5,2" d="M208.42,-47.39C208.4,-47.3 208.39,-47.21 208.37,-47.12"/>
<polygon fill="#7f7f7f" stroke="#7f7f7f" points="211.87,-48.76 208.4,-38.75 204.87,-48.74 211.87,-48.76"/>
<text text-anchor="middle" x="195.9" y="-39.25" font-family="monospace" font-size="10.00">uses</text>
</g>
<!-- lightning_origin_demuxer::demuxer&#45;&gt;lightning_origin_demuxer::config -->
<g id="edge5" class="edge">
<title>lightning_origin_demuxer::demuxer&#45;&gt;lightning_origin_demuxer::config</title>
<path fill="none" stroke="#7f7f7f" stroke-dasharray="5,2" d="M235,-38.52C235,-51.56 235,-69.12 235,-83.96"/>
<polygon fill="#7f7f7f" stroke="#7f7f7f" points="231.5,-84.19 235,-94.19 238.5,-84.19 231.5,-84.19"/>
<text text-anchor="middle" x="222.5" y="-64.24" font-family="monospace" font-size="10.00">uses</text>
</g>
</g>
</svg>
