<?xml version="1.0" encoding="UTF-8" standalone="no"?>
<!DOCTYPE svg PUBLIC "-//W3C//DTD SVG 1.1//EN"
 "http://www.w3.org/Graphics/SVG/1.1/DTD/svg11.dtd">
<!-- Generated by graphviz version 4.0.0 (0)
 -->
<!-- Pages: 1 -->
<svg width="2079pt" height="3747pt"
 viewBox="0.00 0.00 2078.60 3747.10" xmlns="http://www.w3.org/2000/svg" xmlns:xlink="http://www.w3.org/1999/xlink">
<g id="graph0" class="graph" transform="scale(1 1) rotate(0) translate(28.8 3718.3)">
<polygon fill="white" stroke="transparent" points="-28.8,28.8 -28.8,-3718.3 2049.8,-3718.3 2049.8,28.8 -28.8,28.8"/>
<text text-anchor="middle" x="1010.5" y="-3656.7" font-family="Helvetica,sans-Serif" font-size="36.00">lightning_notifier</text>
<!-- lightning_notifier -->
<g id="node1" class="node">
<title>lightning_notifier</title>
<polygon fill="#5397c8" stroke="black" points="0,-2439 0,-2477 125,-2477 125,-2439 0,-2439"/>
<text text-anchor="middle" x="62.5" y="-2465" font-family="monospace" font-size="10.00">crate</text>
<polyline fill="none" stroke="black" points="0,-2458 125,-2458 "/>
<text text-anchor="middle" x="62.5" y="-2446" font-family="monospace" font-size="10.00">lightning_notifier</text>
</g>
<!-- lightning_notifier::NotificationsEmitter -->
<g id="node2" class="node">
<title>lightning_notifier::NotificationsEmitter</title>
<polygon fill="#81c169" stroke="black" points="888,-3370 888,-3408 1025,-3408 1025,-3370 888,-3370"/>
<text text-anchor="middle" x="956.5" y="-3396" font-family="monospace" font-size="10.00">pub struct</text>
<polyline fill="none" stroke="black" points="888,-3389 1025,-3389 "/>
<text text-anchor="middle" x="956.5" y="-3377" font-family="monospace" font-size="10.00">NotificationsEmitter</text>
</g>
<!-- lightning_notifier&#45;&gt;lightning_notifier::NotificationsEmitter -->
<g id="edge1" class="edge">
<title>lightning_notifier&#45;&gt;lightning_notifier::NotificationsEmitter</title>
<path fill="none" stroke="#000000" d="M80.22,-2477.14C161.42,-2564.83 494,-2924 494,-2924 494,-2924 832.6,-3264.43 930.37,-3362.73"/>
<polygon fill="#000000" stroke="#000000" points="927.97,-3365.28 937.51,-3369.9 932.94,-3360.35 927.97,-3365.28"/>
<text text-anchor="middle" x="506.5" y="-2927" font-family="monospace" font-size="10.00">owns</text>
</g>
<!-- lightning_notifier::Notifier -->
<g id="node6" class="node">
<title>lightning_notifier::Notifier</title>
<polygon fill="#81c169" stroke="black" points="918,-1510 918,-1548 995,-1548 995,-1510 918,-1510"/>
<text text-anchor="middle" x="956.5" y="-1536" font-family="monospace" font-size="10.00">pub struct</text>
<polyline fill="none" stroke="black" points="918,-1529 995,-1529 "/>
<text text-anchor="middle" x="956.5" y="-1517" font-family="monospace" font-size="10.00">Notifier</text>
</g>
<!-- lightning_notifier&#45;&gt;lightning_notifier::Notifier -->
<g id="edge2" class="edge">
<title>lightning_notifier&#45;&gt;lightning_notifier::Notifier</title>
<path fill="none" stroke="#000000" d="M125.24,-2446.8C244.92,-2425.45 494,-2381 494,-2381 494,-2381 860.84,-1705.22 941.11,-1557.36"/>
<polygon fill="#000000" stroke="#000000" points="944.28,-1558.85 945.97,-1548.4 938.12,-1555.51 944.28,-1558.85"/>
<text text-anchor="middle" x="506.5" y="-2384" font-family="monospace" font-size="10.00">owns</text>
</g>
<!-- lightning_notifier::NotificationsEmitter::epoch_changed -->
<g id="node3" class="node">
<title>lightning_notifier::NotificationsEmitter::epoch_changed</title>
<polygon fill="#f8c04c" stroke="black" points="1791,-3603 1791,-3641 2018,-3641 2018,-3603 1791,-3603"/>
<text text-anchor="middle" x="1904.5" y="-3629" font-family="monospace" font-size="10.00">pub(crate) fn</text>
<polyline fill="none" stroke="black" points="1791,-3622 2018,-3622 "/>
<text text-anchor="middle" x="1904.5" y="-3610" font-family="monospace" font-size="10.00">NotificationsEmitter::epoch_changed</text>
</g>
<!-- lightning_notifier::NotificationsEmitter&#45;&gt;lightning_notifier::NotificationsEmitter::epoch_changed -->
<g id="edge3" class="edge">
<title>lightning_notifier::NotificationsEmitter&#45;&gt;lightning_notifier::NotificationsEmitter::epoch_changed</title>
<path fill="none" stroke="#000000" d="M992.3,-3408.07C1096.79,-3463.71 1394,-3622 1394,-3622 1394,-3622 1629.51,-3622 1780.61,-3622"/>
<polygon fill="#000000" stroke="#000000" points="1780.89,-3625.5 1790.89,-3622 1780.89,-3618.5 1780.89,-3625.5"/>
<text text-anchor="middle" x="1406.5" y="-3625" font-family="monospace" font-size="10.00">owns</text>
</g>
<!-- lightning_notifier::NotificationsEmitter::new_block -->
<g id="node4" class="node">
<title>lightning_notifier::NotificationsEmitter::new_block</title>
<polygon fill="#f8c04c" stroke="black" points="1803,-3448 1803,-3486 2006,-3486 2006,-3448 1803,-3448"/>
<text text-anchor="middle" x="1904.5" y="-3474" font-family="monospace" font-size="10.00">pub(crate) fn</text>
<polyline fill="none" stroke="black" points="1803,-3467 2006,-3467 "/>
<text text-anchor="middle" x="1904.5" y="-3455" font-family="monospace" font-size="10.00">NotificationsEmitter::new_block</text>
</g>
<!-- lightning_notifier::NotificationsEmitter&#45;&gt;lightning_notifier::NotificationsEmitter::new_block -->
<g id="edge4" class="edge">
<title>lightning_notifier::NotificationsEmitter&#45;&gt;lightning_notifier::NotificationsEmitter::new_block</title>
<path fill="none" stroke="#000000" d="M1025.34,-3401.27C1148.55,-3423.24 1394,-3467 1394,-3467 1394,-3467 1642.26,-3467 1792.53,-3467"/>
<polygon fill="#000000" stroke="#000000" points="1792.73,-3470.5 1802.73,-3467 1792.73,-3463.5 1792.73,-3470.5"/>
<text text-anchor="middle" x="1406.5" y="-3470" font-family="monospace" font-size="10.00">owns</text>
</g>
<!-- lightning_notifier::NotificationsEmitter::shutdown -->
<g id="node5" class="node">
<title>lightning_notifier::NotificationsEmitter::shutdown</title>
<polygon fill="#f8c04c" stroke="black" points="1806,-3293 1806,-3331 2003,-3331 2003,-3293 1806,-3293"/>
<text text-anchor="middle" x="1904.5" y="-3319" font-family="monospace" font-size="10.00">pub(crate) fn</text>
<polyline fill="none" stroke="black" points="1806,-3312 2003,-3312 "/>
<text text-anchor="middle" x="1904.5" y="-3300" font-family="monospace" font-size="10.00">NotificationsEmitter::shutdown</text>
</g>
<!-- lightning_notifier::NotificationsEmitter&#45;&gt;lightning_notifier::NotificationsEmitter::shutdown -->
<g id="edge5" class="edge">
<title>lightning_notifier::NotificationsEmitter&#45;&gt;lightning_notifier::NotificationsEmitter::shutdown</title>
<path fill="none" stroke="#000000" d="M1025.24,-3379.19C1154.08,-3360.8 1419,-3323 1419,-3323 1419,-3323 1652.7,-3317.71 1795.82,-3314.46"/>
<polygon fill="#000000" stroke="#000000" points="1796.04,-3317.96 1805.96,-3314.23 1795.88,-3310.96 1796.04,-3317.96"/>
<text text-anchor="middle" x="1406.5" y="-3315" font-family="monospace" font-size="10.00">owns</text>
</g>
<!-- lightning_notifier::NotificationsEmitter::epoch_changed&#45;&gt;lightning_notifier::NotificationsEmitter -->
<g id="edge6" class="edge">
<title>lightning_notifier::NotificationsEmitter::epoch_changed&#45;&gt;lightning_notifier::NotificationsEmitter</title>
<path fill="none" stroke="#7f7f7f" stroke-dasharray="5,2" d="M1883.95,-3602.78C1791.54,-3516.37 1419,-3168 1419,-3168 1419,-3168 1124.68,-3308.64 1005.61,-3365.53"/>
<polygon fill="#7f7f7f" stroke="#7f7f7f" points="1003.85,-3362.5 996.33,-3369.97 1006.86,-3368.81 1003.85,-3362.5"/>
<text text-anchor="middle" x="1406.5" y="-3160" font-family="monospace" font-size="10.00">uses</text>
</g>
<!-- lightning_notifier::NotificationsEmitter::new_block&#45;&gt;lightning_notifier::NotificationsEmitter -->
<g id="edge7" class="edge">
<title>lightning_notifier::NotificationsEmitter::new_block&#45;&gt;lightning_notifier::NotificationsEmitter</title>
<path fill="none" stroke="#7f7f7f" stroke-dasharray="5,2" d="M1883.95,-3447.78C1791.54,-3361.37 1419,-3013 1419,-3013 1419,-3013 1092.26,-3278.63 988.04,-3363.36"/>
<polygon fill="#7f7f7f" stroke="#7f7f7f" points="985.62,-3360.81 980.07,-3369.84 990.04,-3366.24 985.62,-3360.81"/>
<text text-anchor="middle" x="1406.5" y="-3005" font-family="monospace" font-size="10.00">uses</text>
</g>
<!-- lightning_notifier::NotificationsEmitter::shutdown&#45;&gt;lightning_notifier::NotificationsEmitter -->
<g id="edge8" class="edge">
<title>lightning_notifier::NotificationsEmitter::shutdown&#45;&gt;lightning_notifier::NotificationsEmitter</title>
<path fill="none" stroke="#7f7f7f" stroke-dasharray="5,2" d="M1883.95,-3292.78C1791.54,-3206.37 1419,-2858 1419,-2858 1419,-2858 1074.34,-3253.7 980.08,-3361.93"/>
<polygon fill="#7f7f7f" stroke="#7f7f7f" points="977.16,-3359.95 973.23,-3369.79 982.44,-3364.55 977.16,-3359.95"/>
<text text-anchor="middle" x="1406.5" y="-2850" font-family="monospace" font-size="10.00">uses</text>
</g>
<!-- lightning_notifier::Notifier&#45;&gt;lightning_notifier::NotificationsEmitter -->
<g id="edge9" class="edge">
<title>lightning_notifier::Notifier&#45;&gt;lightning_notifier::NotificationsEmitter</title>
</g>
<!-- lightning_notifier::Notifier::Emitter -->
<g id="node7" class="node">
<title>lightning_notifier::Notifier::Emitter</title>
<polygon fill="#f8c04c" stroke="black" points="1845,-1898 1845,-1936 1964,-1936 1964,-1898 1845,-1898"/>
<text text-anchor="middle" x="1904.5" y="-1924" font-family="monospace" font-size="10.00">pub(crate) type</text>
<polyline fill="none" stroke="black" points="1845,-1917 1964,-1917 "/>
<text text-anchor="middle" x="1904.5" y="-1905" font-family="monospace" font-size="10.00">Notifier::Emitter</text>
</g>
<!-- lightning_notifier::Notifier&#45;&gt;lightning_notifier::Notifier::Emitter -->
<g id="edge10" class="edge">
<title>lightning_notifier::Notifier&#45;&gt;lightning_notifier::Notifier::Emitter</title>
<path fill="none" stroke="#000000" d="M978.2,-1548.24C1066.47,-1626.53 1394,-1917 1394,-1917 1394,-1917 1695.02,-1917 1834.76,-1917"/>
<polygon fill="#000000" stroke="#000000" points="1834.94,-1920.5 1844.94,-1917 1834.94,-1913.5 1834.94,-1920.5"/>
<text text-anchor="middle" x="1406.5" y="-1920" font-family="monospace" font-size="10.00">owns</text>
</g>
<!-- lightning_notifier::Notifier::get_emitter -->
<g id="node8" class="node">
<title>lightning_notifier::Notifier::get_emitter</title>
<polygon fill="#f8c04c" stroke="black" points="1833,-1743 1833,-1781 1976,-1781 1976,-1743 1833,-1743"/>
<text text-anchor="middle" x="1904.5" y="-1769" font-family="monospace" font-size="10.00">pub(crate) fn</text>
<polyline fill="none" stroke="black" points="1833,-1762 1976,-1762 "/>
<text text-anchor="middle" x="1904.5" y="-1750" font-family="monospace" font-size="10.00">Notifier::get_emitter</text>
</g>
<!-- lightning_notifier::Notifier&#45;&gt;lightning_notifier::Notifier::get_emitter -->
<g id="edge11" class="edge">
<title>lightning_notifier::Notifier&#45;&gt;lightning_notifier::Notifier::get_emitter</title>
<path fill="none" stroke="#000000" d="M992.3,-1548.07C1096.79,-1603.71 1394,-1762 1394,-1762 1394,-1762 1678.66,-1762 1822.85,-1762"/>
<polygon fill="#000000" stroke="#000000" points="1822.98,-1765.5 1832.98,-1762 1822.98,-1758.5 1822.98,-1765.5"/>
<text text-anchor="middle" x="1406.5" y="-1765" font-family="monospace" font-size="10.00">owns</text>
</g>
<!-- lightning_notifier::Notifier::get_until_epoch_end -->
<g id="node9" class="node">
<title>lightning_notifier::Notifier::get_until_epoch_end</title>
<polygon fill="#f8c04c" stroke="black" points="1809,-1588 1809,-1626 2000,-1626 2000,-1588 1809,-1588"/>
<text text-anchor="middle" x="1904.5" y="-1614" font-family="monospace" font-size="10.00">pub(crate) fn</text>
<polyline fill="none" stroke="black" points="1809,-1607 2000,-1607 "/>
<text text-anchor="middle" x="1904.5" y="-1595" font-family="monospace" font-size="10.00">Notifier::get_until_epoch_end</text>
</g>
<!-- lightning_notifier::Notifier&#45;&gt;lightning_notifier::Notifier::get_until_epoch_end -->
<g id="edge12" class="edge">
<title>lightning_notifier::Notifier&#45;&gt;lightning_notifier::Notifier::get_until_epoch_end</title>
<path fill="none" stroke="#000000" d="M995.33,-1535.92C1102.4,-1555.01 1394,-1607 1394,-1607 1394,-1607 1649.1,-1607 1798.64,-1607"/>
<polygon fill="#000000" stroke="#000000" points="1798.78,-1610.5 1808.78,-1607 1798.78,-1603.5 1798.78,-1610.5"/>
<text text-anchor="middle" x="1406.5" y="-1610" font-family="monospace" font-size="10.00">owns</text>
</g>
<!-- lightning_notifier::Notifier::init -->
<g id="node10" class="node">
<title>lightning_notifier::Notifier::init</title>
<polygon fill="#f8c04c" stroke="black" points="1854,-1433 1854,-1471 1955,-1471 1955,-1433 1854,-1433"/>
<text text-anchor="middle" x="1904.5" y="-1459" font-family="monospace" font-size="10.00">pub(crate) fn</text>
<polyline fill="none" stroke="black" points="1854,-1452 1955,-1452 "/>
<text text-anchor="middle" x="1904.5" y="-1440" font-family="monospace" font-size="10.00">Notifier::init</text>
</g>
<!-- lightning_notifier::Notifier&#45;&gt;lightning_notifier::Notifier::init -->
<g id="edge13" class="edge">
<title>lightning_notifier::Notifier&#45;&gt;lightning_notifier::Notifier::init</title>
<path fill="none" stroke="#000000" d="M995.14,-1523.49C1106.29,-1507.62 1419,-1463 1419,-1463 1419,-1463 1713.41,-1456.33 1843.7,-1453.38"/>
<polygon fill="#000000" stroke="#000000" points="1844,-1456.87 1853.92,-1453.15 1843.84,-1449.87 1844,-1456.87"/>
<text text-anchor="middle" x="1406.5" y="-1455" font-family="monospace" font-size="10.00">owns</text>
</g>
<!-- lightning_notifier::Notifier::notify_before_epoch_change -->
<g id="node11" class="node">
<title>lightning_notifier::Notifier::notify_before_epoch_change</title>
<polygon fill="#f8c04c" stroke="black" points="1788,-1278 1788,-1316 2021,-1316 2021,-1278 1788,-1278"/>
<text text-anchor="middle" x="1904.5" y="-1304" font-family="monospace" font-size="10.00">pub(crate) fn</text>
<polyline fill="none" stroke="black" points="1788,-1297 2021,-1297 "/>
<text text-anchor="middle" x="1904.5" y="-1285" font-family="monospace" font-size="10.00">Notifier::notify_before_epoch_change</text>
</g>
<!-- lightning_notifier::Notifier&#45;&gt;lightning_notifier::Notifier::notify_before_epoch_change -->
<g id="edge14" class="edge">
<title>lightning_notifier::Notifier&#45;&gt;lightning_notifier::Notifier::notify_before_epoch_change</title>
<path fill="none" stroke="#000000" d="M995.14,-1510.54C1106.29,-1457.42 1419,-1308 1419,-1308 1419,-1308 1633.82,-1303.13 1777.67,-1299.87"/>
<polygon fill="#000000" stroke="#000000" points="1777.98,-1303.37 1787.9,-1299.64 1777.83,-1296.37 1777.98,-1303.37"/>
<text text-anchor="middle" x="1406.5" y="-1300" font-family="monospace" font-size="10.00">owns</text>
</g>
<!-- lightning_notifier::Notifier::notify_on_new_block -->
<g id="node12" class="node">
<title>lightning_notifier::Notifier::notify_on_new_block</title>
<polygon fill="#f8c04c" stroke="black" points="1809,-1123 1809,-1161 2000,-1161 2000,-1123 1809,-1123"/>
<text text-anchor="middle" x="1904.5" y="-1149" font-family="monospace" font-size="10.00">pub(crate) fn</text>
<polyline fill="none" stroke="black" points="1809,-1142 2000,-1142 "/>
<text text-anchor="middle" x="1904.5" y="-1130" font-family="monospace" font-size="10.00">Notifier::notify_on_new_block</text>
</g>
<!-- lightning_notifier::Notifier&#45;&gt;lightning_notifier::Notifier::notify_on_new_block -->
<g id="edge15" class="edge">
<title>lightning_notifier::Notifier&#45;&gt;lightning_notifier::Notifier::notify_on_new_block</title>
<path fill="none" stroke="#000000" d="M980.07,-1509.84C1074.32,-1433.22 1419,-1153 1419,-1153 1419,-1153 1655.92,-1147.63 1798.75,-1144.4"/>
<polygon fill="#000000" stroke="#000000" points="1798.95,-1147.89 1808.87,-1144.17 1798.79,-1140.89 1798.95,-1147.89"/>
<text text-anchor="middle" x="1406.5" y="-1145" font-family="monospace" font-size="10.00">owns</text>
</g>
<!-- lightning_notifier::Notifier::notify_on_new_epoch -->
<g id="node13" class="node">
<title>lightning_notifier::Notifier::notify_on_new_epoch</title>
<polygon fill="#f8c04c" stroke="black" points="1809,-968 1809,-1006 2000,-1006 2000,-968 1809,-968"/>
<text text-anchor="middle" x="1904.5" y="-994" font-family="monospace" font-size="10.00">pub(crate) fn</text>
<polyline fill="none" stroke="black" points="1809,-987 2000,-987 "/>
<text text-anchor="middle" x="1904.5" y="-975" font-family="monospace" font-size="10.00">Notifier::notify_on_new_epoch</text>
</g>
<!-- lightning_notifier::Notifier&#45;&gt;lightning_notifier::Notifier::notify_on_new_epoch -->
<g id="edge16" class="edge">
<title>lightning_notifier::Notifier&#45;&gt;lightning_notifier::Notifier::notify_on_new_epoch</title>
<path fill="none" stroke="#000000" d="M973.23,-1509.79C1056.15,-1414.59 1419,-998 1419,-998 1419,-998 1655.92,-992.63 1798.75,-989.4"/>
<polygon fill="#000000" stroke="#000000" points="1798.95,-992.89 1808.87,-989.17 1798.79,-985.89 1798.95,-992.89"/>
<text text-anchor="middle" x="1406.5" y="-990" font-family="monospace" font-size="10.00">owns</text>
</g>
<!-- lightning_notifier::Notifier::Emitter&#45;&gt;lightning_notifier::NotificationsEmitter -->
<g id="edge17" class="edge">
<title>lightning_notifier::Notifier::Emitter&#45;&gt;lightning_notifier::NotificationsEmitter</title>
<path fill="none" stroke="#7f7f7f" stroke-dasharray="5,2" d="M1891.88,-1936.16C1813.27,-2055.5 1394,-2692 1394,-2692 1394,-2692 1055.01,-3232.05 973.82,-3361.4"/>
<polygon fill="#7f7f7f" stroke="#7f7f7f" points="970.78,-3359.66 968.43,-3370 976.71,-3363.39 970.78,-3359.66"/>
<text text-anchor="middle" x="1406.5" y="-2695" font-family="monospace" font-size="10.00">uses</text>
</g>
<!-- lightning_notifier::Notifier::get_emitter&#45;&gt;lightning_notifier::NotificationsEmitter -->
<g id="edge18" class="edge">
<title>lightning_notifier::Notifier::get_emitter&#45;&gt;lightning_notifier::NotificationsEmitter</title>
<path fill="none" stroke="#7f7f7f" stroke-dasharray="5,2" d="M1892.74,-1781.04C1818.6,-1901.07 1419,-2548 1419,-2548 1419,-2548 1052.16,-3215.06 971.89,-3361.01"/>
<polygon fill="#7f7f7f" stroke="#7f7f7f" points="968.78,-3359.41 967.03,-3369.85 974.91,-3362.78 968.78,-3359.41"/>
<text text-anchor="middle" x="1406.5" y="-2540" font-family="monospace" font-size="10.00">uses</text>
</g>
<!-- lightning_notifier::Notifier::get_emitter&#45;&gt;lightning_notifier::Notifier -->
<g id="edge19" class="edge">
<title>lightning_notifier::Notifier::get_emitter&#45;&gt;lightning_notifier::Notifier</title>
<path fill="none" stroke="#7f7f7f" stroke-dasharray="5,2" d="M1894.36,-1742.78C1824.64,-1610.67 1419,-842 1419,-842 1419,-842 1061.42,-1373.15 975.09,-1501.39"/>
<polygon fill="#7f7f7f" stroke="#7f7f7f" points="972.03,-1499.66 969.35,-1509.91 977.84,-1503.57 972.03,-1499.66"/>
<text text-anchor="middle" x="1406.5" y="-834" font-family="monospace" font-size="10.00">uses</text>
</g>
<!-- lightning_notifier::Notifier::get_until_epoch_end&#45;&gt;lightning_notifier::Notifier -->
<g id="edge20" class="edge">
<title>lightning_notifier::Notifier::get_until_epoch_end&#45;&gt;lightning_notifier::Notifier</title>
<path fill="none" stroke="#7f7f7f" stroke-dasharray="5,2" d="M1894.36,-1587.74C1824.64,-1455.34 1419,-685 1419,-685 1419,-685 1052.16,-1354.44 971.89,-1500.91"/>
<polygon fill="#7f7f7f" stroke="#7f7f7f" points="968.77,-1499.33 967.03,-1509.79 974.9,-1502.7 968.77,-1499.33"/>
<text text-anchor="middle" x="1406.5" y="-677" font-family="monospace" font-size="10.00">uses</text>
</g>
<!-- lightning_notifier::Notifier::init&#45;&gt;lightning_notifier::NotificationsEmitter -->
<g id="edge21" class="edge">
<title>lightning_notifier::Notifier::init&#45;&gt;lightning_notifier::NotificationsEmitter</title>
<path fill="none" stroke="#7f7f7f" stroke-dasharray="5,2" d="M1894.58,-1471.22C1825.51,-1605.1 1419,-2393 1419,-2393 1419,-2393 1045.09,-3198.22 969.66,-3360.65"/>
<polygon fill="#7f7f7f" stroke="#7f7f7f" points="966.36,-3359.45 965.33,-3369.99 972.71,-3362.4 966.36,-3359.45"/>
<text text-anchor="middle" x="1406.5" y="-2385" font-family="monospace" font-size="10.00">uses</text>
</g>
<!-- lightning_notifier::Notifier::init&#45;&gt;lightning_notifier::Notifier -->
<g id="edge22" class="edge">
<title>lightning_notifier::Notifier::init&#45;&gt;lightning_notifier::Notifier</title>
<path fill="none" stroke="#7f7f7f" stroke-dasharray="5,2" d="M1894.36,-1432.66C1824.64,-1299.68 1419,-526 1419,-526 1419,-526 1045.09,-1336.88 969.66,-1500.45"/>
<polygon fill="#7f7f7f" stroke="#7f7f7f" points="966.34,-1499.31 965.33,-1509.86 972.69,-1502.24 966.34,-1499.31"/>
<text text-anchor="middle" x="1406.5" y="-518" font-family="monospace" font-size="10.00">uses</text>
</g>
<!-- lightning_notifier::Notifier::notify_before_epoch_change&#45;&gt;lightning_notifier::Notifier -->
<g id="edge23" class="edge">
<title>lightning_notifier::Notifier::notify_before_epoch_change&#45;&gt;lightning_notifier::Notifier</title>
<path fill="none" stroke="#7f7f7f" stroke-dasharray="5,2" d="M1894.58,-1277.94C1825.51,-1145.2 1419,-364 1419,-364 1419,-364 1039.17,-1320.77 967.94,-1500.19"/>
<polygon fill="#7f7f7f" stroke="#7f7f7f" points="964.58,-1499.17 964.14,-1509.75 971.08,-1501.75 964.58,-1499.17"/>
<text text-anchor="middle" x="1406.5" y="-356" font-family="monospace" font-size="10.00">uses</text>
</g>
<!-- lightning_notifier::Notifier::notify_on_new_block&#45;&gt;lightning_notifier::NotificationsEmitter -->
<g id="edge24" class="edge">
<title>lightning_notifier::Notifier::notify_on_new_block&#45;&gt;lightning_notifier::NotificationsEmitter</title>
<path fill="none" stroke="#7f7f7f" stroke-dasharray="5,2" d="M1896.07,-1161.02C1831.6,-1306.56 1419,-2238 1419,-2238 1419,-2238 1039.17,-3183.27 967.94,-3360.54"/>
<polygon fill="#7f7f7f" stroke="#7f7f7f" points="964.62,-3359.4 964.14,-3369.98 971.12,-3362.01 964.62,-3359.4"/>
<text text-anchor="middle" x="1406.5" y="-2230" font-family="monospace" font-size="10.00">uses</text>
</g>
<!-- lightning_notifier::Notifier::notify_on_new_block&#45;&gt;lightning_notifier::Notifier -->
<g id="edge25" class="edge">
<title>lightning_notifier::Notifier::notify_on_new_block&#45;&gt;lightning_notifier::Notifier</title>
<path fill="none" stroke="#7f7f7f" stroke-dasharray="5,2" d="M1894.58,-1122.65C1825.51,-987.92 1419,-195 1419,-195 1419,-195 1033.59,-1306.65 966.42,-1500.38"/>
<polygon fill="#7f7f7f" stroke="#7f7f7f" points="963.1,-1499.29 963.13,-1509.89 969.71,-1501.58 963.1,-1499.29"/>
<text text-anchor="middle" x="1406.5" y="-187" font-family="monospace" font-size="10.00">uses</text>
</g>
<!-- lightning_notifier::Notifier::notify_on_new_epoch&#45;&gt;lightning_notifier::NotificationsEmitter -->
<g id="edge26" class="edge">
<title>lightning_notifier::Notifier::notify_on_new_epoch&#45;&gt;lightning_notifier::NotificationsEmitter</title>
<path fill="none" stroke="#7f7f7f" stroke-dasharray="5,2" d="M1896.07,-1006.02C1831.6,-1151.56 1419,-2083 1419,-2083 1419,-2083 1034.78,-3167.96 966.74,-3360.09"/>
<polygon fill="#7f7f7f" stroke="#7f7f7f" points="963.35,-3359.19 963.31,-3369.78 969.94,-3361.52 963.35,-3359.19"/>
<text text-anchor="middle" x="1406.5" y="-2075" font-family="monospace" font-size="10.00">uses</text>
</g>
<!-- lightning_notifier::Notifier::notify_on_new_epoch&#45;&gt;lightning_notifier::Notifier -->
<g id="edge27" class="edge">
<title>lightning_notifier::Notifier::notify_on_new_epoch&#45;&gt;lightning_notifier::Notifier</title>
<path fill="none" stroke="#7f7f7f" stroke-dasharray="5,2" d="M1895.02,-967.94C1827.24,-831.69 1419,-11 1419,-11 1419,-11 1029.16,-1290.52 965.3,-1500.12"/>
<polygon fill="#7f7f7f" stroke="#7f7f7f" points="961.91,-1499.22 962.35,-1509.81 968.61,-1501.26 961.91,-1499.22"/>
<text text-anchor="middle" x="1406.5" y="-3" font-family="monospace" font-size="10.00">uses</text>
</g>
</g>
</svg>
