<?xml version="1.0" encoding="UTF-8" standalone="no"?>
<!DOCTYPE svg PUBLIC "-//W3C//DTD SVG 1.1//EN"
 "http://www.w3.org/Graphics/SVG/1.1/DTD/svg11.dtd">
<!-- Generated by graphviz version 4.0.0 (0)
 -->
<!-- Pages: 1 -->
<svg width="644pt" height="596pt"
 viewBox="0.00 0.00 643.52 596.45" xmlns="http://www.w3.org/2000/svg" xmlns:xlink="http://www.w3.org/1999/xlink">
<g id="graph0" class="graph" transform="scale(1 1) rotate(0) translate(28.8 567.65)">
<polygon fill="white" stroke="transparent" points="-28.8,28.8 -28.8,-567.65 614.72,-567.65 614.72,28.8 -28.8,28.8"/>
<text text-anchor="middle" x="292.96" y="-506.05" font-family="Helvetica,sans-Serif" font-size="36.00">fn_sdk</text>
<!-- fn_sdk -->
<g id="node1" class="node">
<title>fn_sdk</title>
<polygon fill="#5397c8" stroke="black" points="388.98,-172.87 388.98,-210.87 442.98,-210.87 442.98,-172.87 388.98,-172.87"/>
<text text-anchor="middle" x="415.98" y="-198.87" font-family="monospace" font-size="10.00">crate</text>
<polyline fill="none" stroke="black" points="388.98,-191.87 442.98,-191.87 "/>
<text text-anchor="middle" x="415.98" y="-179.87" font-family="monospace" font-size="10.00">fn_sdk</text>
</g>
<!-- fn_sdk::api -->
<g id="node2" class="node">
<title>fn_sdk::api</title>
<polygon fill="#81c169" stroke="black" points="137.23,-345.24 137.23,-383.24 220.23,-383.24 220.23,-345.24 137.23,-345.24"/>
<text text-anchor="middle" x="178.73" y="-371.24" font-family="monospace" font-size="10.00">pub mod</text>
<polyline fill="none" stroke="black" points="137.23,-364.24 220.23,-364.24 "/>
<text text-anchor="middle" x="178.73" y="-352.24" font-family="monospace" font-size="10.00">fn_sdk::api</text>
</g>
<!-- fn_sdk&#45;&gt;fn_sdk::api -->
<g id="edge1" class="edge">
<title>fn_sdk&#45;&gt;fn_sdk::api</title>
<path fill="none" stroke="#000000" d="M389.68,-210.97C346.66,-242.23 261.24,-304.29 213.35,-339.08"/>
<polygon fill="#000000" stroke="#000000" points="211.18,-336.34 205.15,-345.04 215.29,-342 211.18,-336.34"/>
<text text-anchor="middle" x="289.01" y="-278.03" font-family="monospace" font-size="10.00">owns</text>
</g>
<!-- fn_sdk::blockstore -->
<g id="node3" class="node">
<title>fn_sdk::blockstore</title>
<polygon fill="#81c169" stroke="black" points="460.92,-116.47 460.92,-154.47 585.92,-154.47 585.92,-116.47 460.92,-116.47"/>
<text text-anchor="middle" x="523.42" y="-142.47" font-family="monospace" font-size="10.00">pub mod</text>
<polyline fill="none" stroke="black" points="460.92,-135.47 585.92,-135.47 "/>
<text text-anchor="middle" x="523.42" y="-123.47" font-family="monospace" font-size="10.00">fn_sdk::blockstore</text>
</g>
<!-- fn_sdk&#45;&gt;fn_sdk::blockstore -->
<g id="edge2" class="edge">
<title>fn_sdk&#45;&gt;fn_sdk::blockstore</title>
<path fill="none" stroke="#000000" d="M443.09,-177.64C453.69,-172.07 466.14,-165.53 478.03,-159.29"/>
<polygon fill="#000000" stroke="#000000" points="479.75,-162.34 486.98,-154.6 476.5,-156.15 479.75,-162.34"/>
<text text-anchor="middle" x="448.06" y="-160.46" font-family="monospace" font-size="10.00">owns</text>
</g>
<!-- fn_sdk::connection -->
<g id="node4" class="node">
<title>fn_sdk::connection</title>
<polygon fill="#81c169" stroke="black" points="318.86,-66.34 318.86,-104.34 443.86,-104.34 443.86,-66.34 318.86,-66.34"/>
<text text-anchor="middle" x="381.36" y="-92.34" font-family="monospace" font-size="10.00">pub mod</text>
<polyline fill="none" stroke="black" points="318.86,-85.34 443.86,-85.34 "/>
<text text-anchor="middle" x="381.36" y="-73.34" font-family="monospace" font-size="10.00">fn_sdk::connection</text>
</g>
<!-- fn_sdk&#45;&gt;fn_sdk::connection -->
<g id="edge3" class="edge">
<title>fn_sdk&#45;&gt;fn_sdk::connection</title>
<path fill="none" stroke="#000000" d="M409.79,-172.82C404.5,-156.56 396.82,-132.93 390.78,-114.32"/>
<polygon fill="#000000" stroke="#000000" points="394.03,-113.01 387.61,-104.58 387.38,-115.17 394.03,-113.01"/>
<text text-anchor="middle" x="387.78" y="-146.57" font-family="monospace" font-size="10.00">owns</text>
</g>
<!-- fn_sdk::futures -->
<g id="node5" class="node">
<title>fn_sdk::futures</title>
<polygon fill="#81c169" stroke="black" points="0,-172.87 0,-210.87 107,-210.87 107,-172.87 0,-172.87"/>
<text text-anchor="middle" x="53.5" y="-198.87" font-family="monospace" font-size="10.00">pub mod</text>
<polyline fill="none" stroke="black" points="0,-191.87 107,-191.87 "/>
<text text-anchor="middle" x="53.5" y="-179.87" font-family="monospace" font-size="10.00">fn_sdk::futures</text>
</g>
<!-- fn_sdk&#45;&gt;fn_sdk::futures -->
<g id="edge4" class="edge">
<title>fn_sdk&#45;&gt;fn_sdk::futures</title>
<path fill="none" stroke="#000000" d="M388.73,-191.87C331.61,-191.87 197.99,-191.87 117.76,-191.87"/>
<polygon fill="#000000" stroke="#000000" points="117.29,-188.37 107.29,-191.87 117.29,-195.37 117.29,-188.37"/>
<text text-anchor="middle" x="240.75" y="-194.87" font-family="monospace" font-size="10.00">owns</text>
</g>
<!-- fn_sdk::header -->
<g id="node6" class="node">
<title>fn_sdk::header</title>
<polygon fill="#81c169" stroke="black" points="128.23,-0.5 128.23,-38.5 229.23,-38.5 229.23,-0.5 128.23,-0.5"/>
<text text-anchor="middle" x="178.73" y="-26.5" font-family="monospace" font-size="10.00">pub mod</text>
<polyline fill="none" stroke="black" points="128.23,-19.5 229.23,-19.5 "/>
<text text-anchor="middle" x="178.73" y="-7.5" font-family="monospace" font-size="10.00">fn_sdk::header</text>
</g>
<!-- fn_sdk&#45;&gt;fn_sdk::header -->
<g id="edge5" class="edge">
<title>fn_sdk&#45;&gt;fn_sdk::header</title>
<path fill="none" stroke="#000000" d="M389.68,-172.76C346.66,-141.51 261.24,-79.45 213.35,-44.65"/>
<polygon fill="#000000" stroke="#000000" points="215.29,-41.74 205.15,-38.69 211.18,-47.4 215.29,-41.74"/>
<text text-anchor="middle" x="289.01" y="-111.71" font-family="monospace" font-size="10.00">owns</text>
</g>
<!-- fn_sdk::http_util -->
<g id="node7" class="node">
<title>fn_sdk::http_util</title>
<polygon fill="#81c169" stroke="black" points="28.61,-66.34 28.61,-104.34 147.61,-104.34 147.61,-66.34 28.61,-66.34"/>
<text text-anchor="middle" x="88.11" y="-92.34" font-family="monospace" font-size="10.00">pub mod</text>
<polyline fill="none" stroke="black" points="28.61,-85.34 147.61,-85.34 "/>
<text text-anchor="middle" x="88.11" y="-73.34" font-family="monospace" font-size="10.00">fn_sdk::http_util</text>
</g>
<!-- fn_sdk&#45;&gt;fn_sdk::http_util -->
<g id="edge6" class="edge">
<title>fn_sdk&#45;&gt;fn_sdk::http_util</title>
<path fill="none" stroke="#000000" d="M388.87,-183.06C338.39,-166.66 228.59,-130.98 156.55,-107.58"/>
<polygon fill="#000000" stroke="#000000" points="157.24,-104.12 146.65,-104.36 155.08,-110.78 157.24,-104.12"/>
<text text-anchor="middle" x="260.21" y="-148.32" font-family="monospace" font-size="10.00">owns</text>
</g>
<!-- fn_sdk::io_util -->
<g id="node8" class="node">
<title>fn_sdk::io_util</title>
<polygon fill="#81c169" stroke="black" points="237.24,-0.5 237.24,-38.5 344.24,-38.5 344.24,-0.5 237.24,-0.5"/>
<text text-anchor="middle" x="290.74" y="-26.5" font-family="monospace" font-size="10.00">pub mod</text>
<polyline fill="none" stroke="black" points="237.24,-19.5 344.24,-19.5 "/>
<text text-anchor="middle" x="290.74" y="-7.5" font-family="monospace" font-size="10.00">fn_sdk::io_util</text>
</g>
<!-- fn_sdk&#45;&gt;fn_sdk::io_util -->
<g id="edge7" class="edge">
<title>fn_sdk&#45;&gt;fn_sdk::io_util</title>
<path fill="none" stroke="#000000" d="M402.1,-172.76C379.9,-142.22 336.34,-82.26 310.77,-47.07"/>
<polygon fill="#000000" stroke="#000000" points="313.4,-44.72 304.69,-38.69 307.73,-48.84 313.4,-44.72"/>
<text text-anchor="middle" x="343.93" y="-112.92" font-family="monospace" font-size="10.00">owns</text>
</g>
<!-- fn_sdk::ipc -->
<g id="node9" class="node">
<title>fn_sdk::ipc</title>
<polygon fill="#81c169" stroke="black" points="249.24,-345.24 249.24,-383.24 332.24,-383.24 332.24,-345.24 249.24,-345.24"/>
<text text-anchor="middle" x="290.74" y="-371.24" font-family="monospace" font-size="10.00">pub mod</text>
<polyline fill="none" stroke="black" points="249.24,-364.24 332.24,-364.24 "/>
<text text-anchor="middle" x="290.74" y="-352.24" font-family="monospace" font-size="10.00">fn_sdk::ipc</text>
</g>
<!-- fn_sdk&#45;&gt;fn_sdk::ipc -->
<g id="edge8" class="edge">
<title>fn_sdk&#45;&gt;fn_sdk::ipc</title>
<path fill="none" stroke="#000000" d="M402.1,-210.97C379.9,-241.52 336.34,-301.48 310.77,-336.67"/>
<polygon fill="#000000" stroke="#000000" points="307.73,-334.9 304.69,-345.04 313.4,-339.01 307.73,-334.9"/>
<text text-anchor="middle" x="343.93" y="-265.82" font-family="monospace" font-size="10.00">owns</text>
</g>
<!-- fn_sdk::ipc_types -->
<g id="node10" class="node">
<title>fn_sdk::ipc_types</title>
<polygon fill="#81c169" stroke="black" points="28.61,-279.4 28.61,-317.4 147.61,-317.4 147.61,-279.4 28.61,-279.4"/>
<text text-anchor="middle" x="88.11" y="-305.4" font-family="monospace" font-size="10.00">pub mod</text>
<polyline fill="none" stroke="black" points="28.61,-298.4 147.61,-298.4 "/>
<text text-anchor="middle" x="88.11" y="-286.4" font-family="monospace" font-size="10.00">fn_sdk::ipc_types</text>
</g>
<!-- fn_sdk&#45;&gt;fn_sdk::ipc_types -->
<g id="edge9" class="edge">
<title>fn_sdk&#45;&gt;fn_sdk::ipc_types</title>
<path fill="none" stroke="#000000" d="M388.87,-200.68C338.39,-217.08 228.59,-252.75 156.55,-276.16"/>
<polygon fill="#000000" stroke="#000000" points="155.08,-272.96 146.65,-279.38 157.24,-279.62 155.08,-272.96"/>
<text text-anchor="middle" x="260.21" y="-241.42" font-family="monospace" font-size="10.00">owns</text>
</g>
<!-- fn_sdk::reqres -->
<g id="node11" class="node">
<title>fn_sdk::reqres</title>
<polygon fill="#f8c04c" stroke="black" points="472.89,-229.45 472.89,-267.45 573.89,-267.45 573.89,-229.45 472.89,-229.45"/>
<text text-anchor="middle" x="523.39" y="-255.45" font-family="monospace" font-size="10.00">pub(crate) mod</text>
<polyline fill="none" stroke="black" points="472.89,-248.45 573.89,-248.45 "/>
<text text-anchor="middle" x="523.39" y="-236.45" font-family="monospace" font-size="10.00">fn_sdk::reqres</text>
</g>
<!-- fn_sdk&#45;&gt;fn_sdk::reqres -->
<g id="edge10" class="edge">
<title>fn_sdk&#45;&gt;fn_sdk::reqres</title>
<path fill="none" stroke="#000000" d="M443.08,-206.15C453.68,-211.73 466.12,-218.29 478.01,-224.55"/>
<polygon fill="#000000" stroke="#000000" points="476.48,-227.7 486.96,-229.26 479.74,-221.5 476.48,-227.7"/>
<text text-anchor="middle" x="448.05" y="-218.35" font-family="monospace" font-size="10.00">owns</text>
</g>
<!-- fn_sdk::api&#45;&gt;fn_sdk::ipc -->
<g id="edge11" class="edge">
<title>fn_sdk::api&#45;&gt;fn_sdk::ipc</title>
<path fill="none" stroke="#7f7f7f" stroke-dasharray="5,2" d="M220.44,-364.24C226.42,-364.24 232.63,-364.24 238.77,-364.24"/>
<polygon fill="#7f7f7f" stroke="#7f7f7f" points="239,-367.74 249,-364.24 239,-360.74 239,-367.74"/>
<text text-anchor="middle" x="235.86" y="-356.24" font-family="monospace" font-size="10.00">uses</text>
</g>
<!-- fn_sdk::api&#45;&gt;fn_sdk::ipc_types -->
<g id="edge12" class="edge">
<title>fn_sdk::api&#45;&gt;fn_sdk::ipc_types</title>
<path fill="none" stroke="#7f7f7f" stroke-dasharray="5,2" d="M152.52,-345.19C143.13,-338.37 132.4,-330.57 122.42,-323.32"/>
<polygon fill="#7f7f7f" stroke="#7f7f7f" points="124.41,-320.44 114.27,-317.4 120.3,-326.11 124.41,-320.44"/>
<text text-anchor="middle" x="124.97" y="-337.26" font-family="monospace" font-size="10.00">uses</text>
</g>
<!-- fn_sdk::connection&#45;&gt;fn_sdk::header -->
<g id="edge13" class="edge">
<title>fn_sdk::connection&#45;&gt;fn_sdk::header</title>
<path fill="none" stroke="#7f7f7f" stroke-dasharray="5,2" d="M322.75,-66.3C296.42,-57.74 265.37,-47.65 238.85,-39.03"/>
<polygon fill="#7f7f7f" stroke="#7f7f7f" points="239.9,-35.69 229.31,-35.93 237.74,-42.35 239.9,-35.69"/>
<text text-anchor="middle" x="268.3" y="-55.66" font-family="monospace" font-size="10.00">uses</text>
</g>
<!-- fn_sdk::connection&#45;&gt;fn_sdk::io_util -->
<g id="edge14" class="edge">
<title>fn_sdk::connection&#45;&gt;fn_sdk::io_util</title>
<path fill="none" stroke="#7f7f7f" stroke-dasharray="5,2" d="M355.15,-66.3C345.76,-59.47 335.03,-51.67 325.05,-44.43"/>
<polygon fill="#7f7f7f" stroke="#7f7f7f" points="327.04,-41.55 316.9,-38.5 322.93,-47.21 327.04,-41.55"/>
<text text-anchor="middle" x="327.6" y="-47.36" font-family="monospace" font-size="10.00">uses</text>
</g>
<!-- tokio::sync::mpsc -->
<g id="node13" class="node">
<title>tokio::sync::mpsc</title>
<polygon fill="#81c169" stroke="black" points="321.86,-279.4 321.86,-317.4 440.86,-317.4 440.86,-279.4 321.86,-279.4"/>
<text text-anchor="middle" x="381.36" y="-305.4" font-family="monospace" font-size="10.00">external mod</text>
<polyline fill="none" stroke="black" points="321.86,-298.4 440.86,-298.4 "/>
<text text-anchor="middle" x="381.36" y="-286.4" font-family="monospace" font-size="10.00">tokio::sync::mpsc</text>
</g>
<!-- fn_sdk::connection&#45;&gt;tokio::sync::mpsc -->
<g id="edge15" class="edge">
<title>fn_sdk::connection&#45;&gt;tokio::sync::mpsc</title>
<path fill="none" stroke="#7f7f7f" stroke-dasharray="5,2" d="M381.36,-104.62C381.36,-142.1 381.36,-224.95 381.36,-269.2"/>
<polygon fill="#7f7f7f" stroke="#7f7f7f" points="377.86,-269.31 381.36,-279.31 384.86,-269.31 377.86,-269.31"/>
<text text-anchor="middle" x="368.86" y="-189.91" font-family="monospace" font-size="10.00">uses</text>
</g>
<!-- fn_sdk::futures&#45;&gt;fn_sdk::ipc_types -->
<g id="edge16" class="edge">
<title>fn_sdk::futures&#45;&gt;fn_sdk::ipc_types</title>
<path fill="none" stroke="#7f7f7f" stroke-dasharray="5,2" d="M59.69,-210.91C64.97,-227.17 72.65,-250.81 78.7,-269.42"/>
<polygon fill="#7f7f7f" stroke="#7f7f7f" points="75.44,-270.73 81.86,-279.16 82.1,-268.56 75.44,-270.73"/>
<text text-anchor="middle" x="56.69" y="-243.16" font-family="monospace" font-size="10.00">uses</text>
</g>
<!-- fn_sdk::header&#45;&gt;fn_sdk::io_util -->
<g id="edge17" class="edge">
<title>fn_sdk::header&#45;&gt;fn_sdk::io_util</title>
<path fill="none" stroke="#7f7f7f" stroke-dasharray="5,2" d="M229.49,-19.5C229.65,-19.5 229.81,-19.5 229.97,-19.5"/>
<polygon fill="#7f7f7f" stroke="#7f7f7f" points="227.16,-23 237.16,-19.5 227.16,-16 227.16,-23"/>
<text text-anchor="middle" x="242.23" y="-22.5" font-family="monospace" font-size="10.00">uses</text>
</g>
<!-- fn_sdk::http_util&#45;&gt;fn_sdk::connection -->
<g id="edge18" class="edge">
<title>fn_sdk::http_util&#45;&gt;fn_sdk::connection</title>
<path fill="none" stroke="#7f7f7f" stroke-dasharray="5,2" d="M147.81,-85.34C194.34,-85.34 259.15,-85.34 308.7,-85.34"/>
<polygon fill="#7f7f7f" stroke="#7f7f7f" points="308.71,-88.84 318.71,-85.34 308.71,-81.84 308.71,-88.84"/>
<text text-anchor="middle" x="215.75" y="-88.34" font-family="monospace" font-size="10.00">uses</text>
</g>
<!-- fn_sdk::http_util&#45;&gt;fn_sdk::header -->
<g id="edge19" class="edge">
<title>fn_sdk::http_util&#45;&gt;fn_sdk::header</title>
<path fill="none" stroke="#7f7f7f" stroke-dasharray="5,2" d="M114.32,-66.3C123.72,-59.47 134.45,-51.67 144.43,-44.43"/>
<polygon fill="#7f7f7f" stroke="#7f7f7f" points="146.55,-47.21 152.58,-38.5 142.43,-41.55 146.55,-47.21"/>
<text text-anchor="middle" x="116.87" y="-47.36" font-family="monospace" font-size="10.00">uses</text>
</g>
<!-- fn_sdk::ipc&#45;&gt;fn_sdk::connection -->
<g id="edge20" class="edge">
<title>fn_sdk::ipc&#45;&gt;fn_sdk::connection</title>
<path fill="none" stroke="#7f7f7f" stroke-dasharray="5,2" d="M296.97,-345.07C312.56,-297.1 353.31,-171.66 371.89,-114.49"/>
<polygon fill="#7f7f7f" stroke="#7f7f7f" points="375.33,-115.23 375.09,-104.64 368.67,-113.07 375.33,-115.23"/>
<text text-anchor="middle" x="321.93" y="-232.78" font-family="monospace" font-size="10.00">uses</text>
</g>
<!-- fn_sdk::ipc&#45;&gt;fn_sdk::futures -->
<g id="edge21" class="edge">
<title>fn_sdk::ipc&#45;&gt;fn_sdk::futures</title>
<path fill="none" stroke="#7f7f7f" stroke-dasharray="5,2" d="M264.45,-345.13C221.43,-313.87 136.01,-251.81 88.12,-217.02"/>
<polygon fill="#7f7f7f" stroke="#7f7f7f" points="90.06,-214.1 79.91,-211.06 85.95,-219.77 90.06,-214.1"/>
<text text-anchor="middle" x="163.78" y="-284.07" font-family="monospace" font-size="10.00">uses</text>
</g>
<!-- fn_sdk::ipc&#45;&gt;fn_sdk::ipc_types -->
<g id="edge22" class="edge">
<title>fn_sdk::ipc&#45;&gt;fn_sdk::ipc_types</title>
<path fill="none" stroke="#7f7f7f" stroke-dasharray="5,2" d="M248.76,-350.59C222.19,-341.96 187.22,-330.6 156.69,-320.68"/>
<polygon fill="#7f7f7f" stroke="#7f7f7f" points="157.54,-317.27 146.95,-317.51 155.38,-323.93 157.54,-317.27"/>
<text text-anchor="middle" x="190.22" y="-327.64" font-family="monospace" font-size="10.00">uses</text>
</g>
<!-- tokio::io -->
<g id="node12" class="node">
<title>tokio::io</title>
<polygon fill="#81c169" stroke="black" points="281.05,-452.35 281.05,-490.35 370.05,-490.35 370.05,-452.35 281.05,-452.35"/>
<text text-anchor="middle" x="325.55" y="-478.35" font-family="monospace" font-size="10.00">external mod</text>
<polyline fill="none" stroke="black" points="281.05,-471.35 370.05,-471.35 "/>
<text text-anchor="middle" x="325.55" y="-459.35" font-family="monospace" font-size="10.00">tokio::io</text>
</g>
<!-- fn_sdk::ipc&#45;&gt;tokio::io -->
<g id="edge23" class="edge">
<title>fn_sdk::ipc&#45;&gt;tokio::io</title>
<path fill="none" stroke="#7f7f7f" stroke-dasharray="5,2" d="M296.97,-383.38C302.3,-399.81 310.07,-423.72 316.16,-442.47"/>
<polygon fill="#7f7f7f" stroke="#7f7f7f" points="312.84,-443.57 319.26,-452 319.5,-441.41 312.84,-443.57"/>
<text text-anchor="middle" x="294.06" y="-415.93" font-family="monospace" font-size="10.00">uses</text>
</g>
<!-- fn_sdk::ipc&#45;&gt;tokio::sync::mpsc -->
<g id="edge24" class="edge">
<title>fn_sdk::ipc&#45;&gt;tokio::sync::mpsc</title>
<path fill="none" stroke="#7f7f7f" stroke-dasharray="5,2" d="M316.95,-345.19C326.35,-338.37 337.08,-330.57 347.06,-323.32"/>
<polygon fill="#7f7f7f" stroke="#7f7f7f" points="349.18,-326.11 355.21,-317.4 345.06,-320.44 349.18,-326.11"/>
<text text-anchor="middle" x="319.5" y="-326.26" font-family="monospace" font-size="10.00">uses</text>
</g>
</g>
</svg>
