<?xml version="1.0" encoding="UTF-8" standalone="no"?>
<!DOCTYPE svg PUBLIC "-//W3C//DTD SVG 1.1//EN"
 "http://www.w3.org/Graphics/SVG/1.1/DTD/svg11.dtd">
<!-- Generated by graphviz version 4.0.0 (0)
 -->
<!-- Pages: 1 -->
<svg width="998pt" height="1238pt"
 viewBox="0.00 0.00 997.90 1237.59" xmlns="http://www.w3.org/2000/svg" xmlns:xlink="http://www.w3.org/1999/xlink">
<g id="graph0" class="graph" transform="scale(1 1) rotate(0) translate(28.8 1208.79)">
<polygon fill="white" stroke="transparent" points="-28.8,28.8 -28.8,-1208.79 969.1,-1208.79 969.1,28.8 -28.8,28.8"/>
<text text-anchor="middle" x="470.15" y="-1147.19" font-family="Helvetica,sans-Serif" font-size="36.00">lightning_blockstore</text>
<!-- lightning_blockstore -->
<g id="node1" class="node">
<title>lightning_blockstore</title>
<polygon fill="#5397c8" stroke="black" points="455.57,-586.98 455.57,-624.98 592.57,-624.98 592.57,-586.98 455.57,-586.98"/>
<text text-anchor="middle" x="524.07" y="-612.98" font-family="monospace" font-size="10.00">crate</text>
<polyline fill="none" stroke="black" points="455.57,-605.98 592.57,-605.98 "/>
<text text-anchor="middle" x="524.07" y="-593.98" font-family="monospace" font-size="10.00">lightning_blockstore</text>
</g>
<!-- lightning_blockstore::blockstore::Blockstore -->
<g id="node2" class="node">
<title>lightning_blockstore::blockstore::Blockstore</title>
<polygon fill="#81c169" stroke="black" points="369.87,-269.55 369.87,-307.55 518.87,-307.55 518.87,-269.55 369.87,-269.55"/>
<text text-anchor="middle" x="444.37" y="-295.55" font-family="monospace" font-size="10.00">pub struct</text>
<polyline fill="none" stroke="black" points="369.87,-288.55 518.87,-288.55 "/>
<text text-anchor="middle" x="444.37" y="-276.55" font-family="monospace" font-size="10.00">blockstore::Blockstore</text>
</g>
<!-- lightning_blockstore&#45;&gt;lightning_blockstore::blockstore::Blockstore -->
<g id="edge1" class="edge">
<title>lightning_blockstore&#45;&gt;lightning_blockstore::blockstore::Blockstore</title>
<path fill="none" stroke="#000000" d="M519.2,-586.6C505.69,-532.79 467.66,-381.32 451.64,-317.49"/>
<polygon fill="#000000" stroke="#000000" points="455,-316.52 449.17,-307.68 448.21,-318.23 455,-316.52"/>
<text text-anchor="middle" x="472.92" y="-455.05" font-family="monospace" font-size="10.00">owns</text>
</g>
<!-- lightning_blockstore::config::Config -->
<g id="node14" class="node">
<title>lightning_blockstore::config::Config</title>
<polygon fill="#81c169" stroke="black" points="740.4,-525.7 740.4,-563.7 841.4,-563.7 841.4,-525.7 740.4,-525.7"/>
<text text-anchor="middle" x="790.9" y="-551.7" font-family="monospace" font-size="10.00">pub struct</text>
<polyline fill="none" stroke="black" points="740.4,-544.7 841.4,-544.7 "/>
<text text-anchor="middle" x="790.9" y="-532.7" font-family="monospace" font-size="10.00">config::Config</text>
</g>
<!-- lightning_blockstore&#45;&gt;lightning_blockstore::config::Config -->
<g id="edge2" class="edge">
<title>lightning_blockstore&#45;&gt;lightning_blockstore::config::Config</title>
<path fill="none" stroke="#000000" d="M592.88,-614.18C649.27,-607.65 725.89,-588.12 765.31,-568.77"/>
<polygon fill="#000000" stroke="#000000" points="767.32,-571.66 774.49,-563.86 764.03,-565.49 767.32,-571.66"/>
<text text-anchor="middle" x="666.59" y="-594.48" font-family="monospace" font-size="10.00">owns</text>
</g>
<!-- lightning_blockstore&#45;&gt;lightning_blockstore::config::Config -->
<g id="edge3" class="edge">
<title>lightning_blockstore&#45;&gt;lightning_blockstore::config::Config</title>
<path fill="none" stroke="#7f7f7f" stroke-dasharray="5,2" d="M540.34,-586.9C577.34,-565.08 668.67,-541.56 730.27,-535.63"/>
<polygon fill="#7f7f7f" stroke="#7f7f7f" points="730.59,-539.11 740.27,-534.81 730.02,-532.14 730.59,-539.11"/>
<text text-anchor="middle" x="622.81" y="-564.26" font-family="monospace" font-size="10.00">uses</text>
</g>
<!-- lightning_blockstore::put::Putter -->
<g id="node15" class="node">
<title>lightning_blockstore::put::Putter</title>
<polygon fill="#81c169" stroke="black" points="309.83,-795.56 309.83,-833.56 392.83,-833.56 392.83,-795.56 309.83,-795.56"/>
<text text-anchor="middle" x="351.33" y="-821.56" font-family="monospace" font-size="10.00">pub struct</text>
<polyline fill="none" stroke="black" points="309.83,-814.56 392.83,-814.56 "/>
<text text-anchor="middle" x="351.33" y="-802.56" font-family="monospace" font-size="10.00">put::Putter</text>
</g>
<!-- lightning_blockstore&#45;&gt;lightning_blockstore::put::Putter -->
<g id="edge4" class="edge">
<title>lightning_blockstore&#45;&gt;lightning_blockstore::put::Putter</title>
<path fill="none" stroke="#000000" d="M481.94,-625.26C437.28,-662.99 373.39,-742.25 354.07,-785.99"/>
<polygon fill="#000000" stroke="#000000" points="350.72,-784.94 350.4,-795.53 357.26,-787.46 350.72,-784.94"/>
<text text-anchor="middle" x="405.51" y="-708.63" font-family="monospace" font-size="10.00">owns</text>
</g>
<!-- lightning_blockstore&#45;&gt;lightning_blockstore::put::Putter -->
<g id="edge5" class="edge">
<title>lightning_blockstore&#45;&gt;lightning_blockstore::put::Putter</title>
<path fill="none" stroke="#7f7f7f" stroke-dasharray="5,2" d="M524.96,-625.13C512.58,-663.87 448.3,-746.07 400.67,-788.97"/>
<polygon fill="#7f7f7f" stroke="#7f7f7f" points="398.12,-786.55 392.88,-795.75 402.72,-791.82 398.12,-786.55"/>
<text text-anchor="middle" x="450.32" y="-710.05" font-family="monospace" font-size="10.00">uses</text>
</g>
<!-- lightning_blockstore::put::PutterMode -->
<g id="node24" class="node">
<title>lightning_blockstore::put::PutterMode</title>
<polygon fill="#db5367" stroke="black" points="310.55,-871.82 310.55,-909.82 417.55,-909.82 417.55,-871.82 310.55,-871.82"/>
<text text-anchor="middle" x="364.05" y="-897.82" font-family="monospace" font-size="10.00">pub(self) enum</text>
<polyline fill="none" stroke="black" points="310.55,-890.82 417.55,-890.82 "/>
<text text-anchor="middle" x="364.05" y="-878.82" font-family="monospace" font-size="10.00">put::PutterMode</text>
</g>
<!-- lightning_blockstore&#45;&gt;lightning_blockstore::put::PutterMode -->
<g id="edge6" class="edge">
<title>lightning_blockstore&#45;&gt;lightning_blockstore::put::PutterMode</title>
<path fill="none" stroke="#000000" d="M513.32,-625.11C485.71,-674.26 412.18,-805.15 379.77,-862.85"/>
<polygon fill="#000000" stroke="#000000" points="376.6,-861.34 374.75,-871.77 382.7,-864.77 376.6,-861.34"/>
<text text-anchor="middle" x="434.04" y="-746.98" font-family="monospace" font-size="10.00">owns</text>
</g>
<!-- lightning_blockstore::store::Block -->
<g id="node25" class="node">
<title>lightning_blockstore::store::Block</title>
<polygon fill="#81c169" stroke="black" points="765.67,-695.77 765.67,-733.77 854.67,-733.77 854.67,-695.77 765.67,-695.77"/>
<text text-anchor="middle" x="810.17" y="-721.77" font-family="monospace" font-size="10.00">pub type</text>
<polyline fill="none" stroke="black" points="765.67,-714.77 854.67,-714.77 "/>
<text text-anchor="middle" x="810.17" y="-702.77" font-family="monospace" font-size="10.00">store::Block</text>
</g>
<!-- lightning_blockstore&#45;&gt;lightning_blockstore::store::Block -->
<g id="edge7" class="edge">
<title>lightning_blockstore&#45;&gt;lightning_blockstore::store::Block</title>
<path fill="none" stroke="#000000" d="M536.26,-625.22C573.83,-655.57 686.7,-701 755.41,-716.08"/>
<polygon fill="#000000" stroke="#000000" points="755.13,-719.6 765.63,-718.16 756.52,-712.74 755.13,-719.6"/>
<text text-anchor="middle" x="633.33" y="-673.65" font-family="monospace" font-size="10.00">owns</text>
</g>
<!-- lightning_blockstore&#45;&gt;lightning_blockstore::store::Block -->
<g id="edge8" class="edge">
<title>lightning_blockstore&#45;&gt;lightning_blockstore::store::Block</title>
<path fill="none" stroke="#7f7f7f" stroke-dasharray="5,2" d="M592.76,-607.98C657.34,-624.43 749.7,-661.78 790.22,-689.76"/>
<polygon fill="#7f7f7f" stroke="#7f7f7f" points="788.16,-692.59 798.27,-695.76 792.34,-686.98 788.16,-692.59"/>
<text text-anchor="middle" x="678.99" y="-651.87" font-family="monospace" font-size="10.00">uses</text>
</g>
<!-- lightning_blockstore::store::_Store -->
<g id="node26" class="node">
<title>lightning_blockstore::store::_Store</title>
<polygon fill="#81c169" stroke="black" points="58.68,-496.62 58.68,-534.62 153.68,-534.62 153.68,-496.62 58.68,-496.62"/>
<text text-anchor="middle" x="106.18" y="-522.62" font-family="monospace" font-size="10.00">pub trait</text>
<polyline fill="none" stroke="black" points="58.68,-515.62 153.68,-515.62 "/>
<text text-anchor="middle" x="106.18" y="-503.62" font-family="monospace" font-size="10.00">store::_Store</text>
</g>
<!-- lightning_blockstore&#45;&gt;lightning_blockstore::store::_Store -->
<g id="edge9" class="edge">
<title>lightning_blockstore&#45;&gt;lightning_blockstore::store::_Store</title>
<path fill="none" stroke="#000000" d="M455.53,-591.16C374.2,-573.57 240.06,-544.57 163.83,-528.09"/>
<polygon fill="#000000" stroke="#000000" points="164.44,-524.64 153.92,-525.94 162.96,-531.48 164.44,-524.64"/>
<text text-anchor="middle" x="297.18" y="-562.62" font-family="monospace" font-size="10.00">owns</text>
</g>
<!-- lightning_blockstore::blockstore::Blockstore::Config -->
<g id="node3" class="node">
<title>lightning_blockstore::blockstore::Blockstore::Config</title>
<polygon fill="#db5367" stroke="black" points="550.19,-286.63 550.19,-324.63 747.19,-324.63 747.19,-286.63 550.19,-286.63"/>
<text text-anchor="middle" x="648.69" y="-312.63" font-family="monospace" font-size="10.00">pub(self) type</text>
<polyline fill="none" stroke="black" points="550.19,-305.63 747.19,-305.63 "/>
<text text-anchor="middle" x="648.69" y="-293.63" font-family="monospace" font-size="10.00">blockstore::Blockstore::Config</text>
</g>
<!-- lightning_blockstore::blockstore::Blockstore&#45;&gt;lightning_blockstore::blockstore::Blockstore::Config -->
<g id="edge10" class="edge">
<title>lightning_blockstore::blockstore::Blockstore&#45;&gt;lightning_blockstore::blockstore::Blockstore::Config</title>
<path fill="none" stroke="#000000" d="M519,-294.79C525.82,-295.36 532.81,-295.95 539.85,-296.53"/>
<polygon fill="#000000" stroke="#000000" points="539.91,-300.05 550.17,-297.4 540.5,-293.08 539.91,-300.05"/>
<text text-anchor="middle" x="535.68" y="-287.66" font-family="monospace" font-size="10.00">owns</text>
</g>
<!-- lightning_blockstore::blockstore::Blockstore::DirPut -->
<g id="node4" class="node">
<title>lightning_blockstore::blockstore::Blockstore::DirPut</title>
<polygon fill="#db5367" stroke="black" points="18.68,-218.34 18.68,-256.34 215.68,-256.34 215.68,-218.34 18.68,-218.34"/>
<text text-anchor="middle" x="117.18" y="-244.34" font-family="monospace" font-size="10.00">pub(self) type</text>
<polyline fill="none" stroke="black" points="18.68,-237.34 215.68,-237.34 "/>
<text text-anchor="middle" x="117.18" y="-225.34" font-family="monospace" font-size="10.00">blockstore::Blockstore::DirPut</text>
</g>
<!-- lightning_blockstore::blockstore::Blockstore&#45;&gt;lightning_blockstore::blockstore::Blockstore::DirPut -->
<g id="edge11" class="edge">
<title>lightning_blockstore::blockstore::Blockstore&#45;&gt;lightning_blockstore::blockstore::Blockstore::DirPut</title>
<path fill="none" stroke="#000000" d="M369.72,-276.87C327.11,-270.2 272.93,-261.72 225.69,-254.32"/>
<polygon fill="#000000" stroke="#000000" points="226.14,-250.85 215.72,-252.76 225.06,-257.77 226.14,-250.85"/>
<text text-anchor="middle" x="285.2" y="-268.59" font-family="monospace" font-size="10.00">owns</text>
</g>
<!-- lightning_blockstore::blockstore::Blockstore::Put -->
<g id="node5" class="node">
<title>lightning_blockstore::blockstore::Blockstore::Put</title>
<polygon fill="#db5367" stroke="black" points="359.65,-530.21 359.65,-568.21 538.65,-568.21 538.65,-530.21 359.65,-530.21"/>
<text text-anchor="middle" x="449.15" y="-556.21" font-family="monospace" font-size="10.00">pub(self) type</text>
<polyline fill="none" stroke="black" points="359.65,-549.21 538.65,-549.21 "/>
<text text-anchor="middle" x="449.15" y="-537.21" font-family="monospace" font-size="10.00">blockstore::Blockstore::Put</text>
</g>
<!-- lightning_blockstore::blockstore::Blockstore&#45;&gt;lightning_blockstore::blockstore::Blockstore::Put -->
<g id="edge12" class="edge">
<title>lightning_blockstore::blockstore::Blockstore&#45;&gt;lightning_blockstore::blockstore::Blockstore::Put</title>
<path fill="none" stroke="#000000" d="M429.91,-307.57C415.52,-352.81 416.64,-467.05 430.89,-520.64"/>
<polygon fill="#000000" stroke="#000000" points="427.54,-521.66 433.81,-530.21 434.24,-519.62 427.54,-521.66"/>
<text text-anchor="middle" x="417.9" y="-417.1" font-family="monospace" font-size="10.00">owns</text>
</g>
<!-- lightning_blockstore::blockstore::Blockstore::SharedPointer -->
<g id="node6" class="node">
<title>lightning_blockstore::blockstore::Blockstore::SharedPointer</title>
<polygon fill="#db5367" stroke="black" points="14.08,-113.79 14.08,-151.79 253.08,-151.79 253.08,-113.79 14.08,-113.79"/>
<text text-anchor="middle" x="133.58" y="-139.79" font-family="monospace" font-size="10.00">pub(self) type</text>
<polyline fill="none" stroke="black" points="14.08,-132.79 253.08,-132.79 "/>
<text text-anchor="middle" x="133.58" y="-120.79" font-family="monospace" font-size="10.00">blockstore::Blockstore::SharedPointer</text>
</g>
<!-- lightning_blockstore::blockstore::Blockstore&#45;&gt;lightning_blockstore::blockstore::Blockstore::SharedPointer -->
<g id="edge13" class="edge">
<title>lightning_blockstore::blockstore::Blockstore&#45;&gt;lightning_blockstore::blockstore::Blockstore::SharedPointer</title>
<path fill="none" stroke="#000000" d="M406.26,-269.45C349.37,-240.94 242.34,-187.3 180.64,-156.38"/>
<polygon fill="#000000" stroke="#000000" points="182.02,-153.15 171.51,-151.8 178.88,-159.41 182.02,-153.15"/>
<text text-anchor="middle" x="280.95" y="-215.92" font-family="monospace" font-size="10.00">owns</text>
</g>
<!-- lightning_blockstore::blockstore::Blockstore::get -->
<g id="node7" class="node">
<title>lightning_blockstore::blockstore::Blockstore::get</title>
<polygon fill="#db5367" stroke="black" points="133.72,-48.11 133.72,-86.11 312.72,-86.11 312.72,-48.11 133.72,-48.11"/>
<text text-anchor="middle" x="223.22" y="-74.11" font-family="monospace" font-size="10.00">pub(self) async fn</text>
<polyline fill="none" stroke="black" points="133.72,-67.11 312.72,-67.11 "/>
<text text-anchor="middle" x="223.22" y="-55.11" font-family="monospace" font-size="10.00">blockstore::Blockstore::get</text>
</g>
<!-- lightning_blockstore::blockstore::Blockstore&#45;&gt;lightning_blockstore::blockstore::Blockstore::get -->
<g id="edge14" class="edge">
<title>lightning_blockstore::blockstore::Blockstore&#45;&gt;lightning_blockstore::blockstore::Blockstore::get</title>
<path fill="none" stroke="#000000" d="M442.69,-269.49C423.9,-228.23 337.92,-137.83 278.69,-92.35"/>
<polygon fill="#000000" stroke="#000000" points="280.62,-89.43 270.52,-86.24 276.43,-95.03 280.62,-89.43"/>
<text text-anchor="middle" x="348.19" y="-183.92" font-family="monospace" font-size="10.00">owns</text>
</g>
<!-- lightning_blockstore::blockstore::Blockstore::get_root_dir -->
<g id="node8" class="node">
<title>lightning_blockstore::blockstore::Blockstore::get_root_dir</title>
<polygon fill="#db5367" stroke="black" points="566.65,-50.88 566.65,-88.88 799.65,-88.88 799.65,-50.88 566.65,-50.88"/>
<text text-anchor="middle" x="683.15" y="-76.88" font-family="monospace" font-size="10.00">pub(self) fn</text>
<polyline fill="none" stroke="black" points="566.65,-69.88 799.65,-69.88 "/>
<text text-anchor="middle" x="683.15" y="-57.88" font-family="monospace" font-size="10.00">blockstore::Blockstore::get_root_dir</text>
</g>
<!-- lightning_blockstore::blockstore::Blockstore&#45;&gt;lightning_blockstore::blockstore::Blockstore::get_root_dir -->
<g id="edge15" class="edge">
<title>lightning_blockstore::blockstore::Blockstore&#45;&gt;lightning_blockstore::blockstore::Blockstore::get_root_dir</title>
<path fill="none" stroke="#000000" d="M495.06,-269.52C554.1,-229.7 645.47,-143.76 675.19,-97.77"/>
<polygon fill="#000000" stroke="#000000" points="678.22,-99.52 680.28,-89.13 672.19,-95.97 678.22,-99.52"/>
<text text-anchor="middle" x="572.62" y="-186.64" font-family="monospace" font-size="10.00">owns</text>
</g>
<!-- lightning_blockstore::blockstore::Blockstore::get_tree -->
<g id="node9" class="node">
<title>lightning_blockstore::blockstore::Blockstore::get_tree</title>
<polygon fill="#db5367" stroke="black" points="222.9,-0.5 222.9,-38.5 431.9,-38.5 431.9,-0.5 222.9,-0.5"/>
<text text-anchor="middle" x="327.4" y="-26.5" font-family="monospace" font-size="10.00">pub(self) async fn</text>
<polyline fill="none" stroke="black" points="222.9,-19.5 431.9,-19.5 "/>
<text text-anchor="middle" x="327.4" y="-7.5" font-family="monospace" font-size="10.00">blockstore::Blockstore::get_tree</text>
</g>
<!-- lightning_blockstore::blockstore::Blockstore&#45;&gt;lightning_blockstore::blockstore::Blockstore::get_tree -->
<g id="edge16" class="edge">
<title>lightning_blockstore::blockstore::Blockstore&#45;&gt;lightning_blockstore::blockstore::Blockstore::get_tree</title>
<path fill="none" stroke="#000000" d="M450.08,-269.32C447.48,-221.88 397.4,-101.7 359.91,-46.93"/>
<polygon fill="#000000" stroke="#000000" points="362.68,-44.79 354,-38.72 357,-48.88 362.68,-44.79"/>
<text text-anchor="middle" x="392.49" y="-161.12" font-family="monospace" font-size="10.00">owns</text>
</g>
<!-- lightning_blockstore::blockstore::Blockstore::init -->
<g id="node10" class="node">
<title>lightning_blockstore::blockstore::Blockstore::init</title>
<polygon fill="#db5367" stroke="black" points="755.3,-304.86 755.3,-342.86 940.3,-342.86 940.3,-304.86 755.3,-304.86"/>
<text text-anchor="middle" x="847.8" y="-330.86" font-family="monospace" font-size="10.00">pub(self) fn</text>
<polyline fill="none" stroke="black" points="755.3,-323.86 940.3,-323.86 "/>
<text text-anchor="middle" x="847.8" y="-311.86" font-family="monospace" font-size="10.00">blockstore::Blockstore::init</text>
</g>
<!-- lightning_blockstore::blockstore::Blockstore&#45;&gt;lightning_blockstore::blockstore::Blockstore::init -->
<g id="edge17" class="edge">
<title>lightning_blockstore::blockstore::Blockstore&#45;&gt;lightning_blockstore::blockstore::Blockstore::init</title>
<path fill="none" stroke="#000000" d="M478.07,-307.62C536.15,-324.03 657.3,-337.2 745.13,-338.69"/>
<polygon fill="#000000" stroke="#000000" points="745.09,-342.19 755.13,-338.81 745.18,-335.19 745.09,-342.19"/>
<text text-anchor="middle" x="599.1" y="-326.15" font-family="monospace" font-size="10.00">owns</text>
</g>
<!-- lightning_blockstore::blockstore::Blockstore::provide_indexer -->
<g id="node11" class="node">
<title>lightning_blockstore::blockstore::Blockstore::provide_indexer</title>
<polygon fill="#db5367" stroke="black" points="440.05,-3.86 440.05,-41.86 691.05,-41.86 691.05,-3.86 440.05,-3.86"/>
<text text-anchor="middle" x="565.55" y="-29.86" font-family="monospace" font-size="10.00">pub(self) fn</text>
<polyline fill="none" stroke="black" points="440.05,-22.86 691.05,-22.86 "/>
<text text-anchor="middle" x="565.55" y="-10.86" font-family="monospace" font-size="10.00">blockstore::Blockstore::provide_indexer</text>
</g>
<!-- lightning_blockstore::blockstore::Blockstore&#45;&gt;lightning_blockstore::blockstore::Blockstore::provide_indexer -->
<g id="edge18" class="edge">
<title>lightning_blockstore::blockstore::Blockstore&#45;&gt;lightning_blockstore::blockstore::Blockstore::provide_indexer</title>
<path fill="none" stroke="#000000" d="M471.88,-269.15C508.14,-222.66 560.44,-107.15 569.69,-52.19"/>
<polygon fill="#000000" stroke="#000000" points="573.19,-52.39 570.95,-42.04 566.24,-51.53 573.19,-52.39"/>
<text text-anchor="middle" x="508.28" y="-163.67" font-family="monospace" font-size="10.00">owns</text>
</g>
<!-- lightning_blockstore::blockstore::Blockstore::put -->
<g id="node12" class="node">
<title>lightning_blockstore::blockstore::Blockstore::put</title>
<polygon fill="#db5367" stroke="black" points="172.53,-501.97 172.53,-539.97 351.53,-539.97 351.53,-501.97 172.53,-501.97"/>
<text text-anchor="middle" x="262.03" y="-527.97" font-family="monospace" font-size="10.00">pub(self) fn</text>
<polyline fill="none" stroke="black" points="172.53,-520.97 351.53,-520.97 "/>
<text text-anchor="middle" x="262.03" y="-508.97" font-family="monospace" font-size="10.00">blockstore::Blockstore::put</text>
</g>
<!-- lightning_blockstore::blockstore::Blockstore&#45;&gt;lightning_blockstore::blockstore::Blockstore::put -->
<g id="edge19" class="edge">
<title>lightning_blockstore::blockstore::Blockstore&#45;&gt;lightning_blockstore::blockstore::Blockstore::put</title>
<path fill="none" stroke="#000000" d="M405.18,-307.66C357.77,-349.25 285.33,-443.39 264.71,-492.13"/>
<polygon fill="#000000" stroke="#000000" points="261.31,-491.22 261.12,-501.81 267.88,-493.65 261.31,-491.22"/>
<text text-anchor="middle" x="322.44" y="-402.9" font-family="monospace" font-size="10.00">owns</text>
</g>
<!-- lightning_blockstore::blockstore::Blockstore::put_dir -->
<g id="node13" class="node">
<title>lightning_blockstore::blockstore::Blockstore::put_dir</title>
<polygon fill="#db5367" stroke="black" points="663.24,-127.02 663.24,-165.02 866.24,-165.02 866.24,-127.02 663.24,-127.02"/>
<text text-anchor="middle" x="764.74" y="-153.02" font-family="monospace" font-size="10.00">pub(self) fn</text>
<polyline fill="none" stroke="black" points="663.24,-146.02 866.24,-146.02 "/>
<text text-anchor="middle" x="764.74" y="-134.02" font-family="monospace" font-size="10.00">blockstore::Blockstore::put_dir</text>
</g>
<!-- lightning_blockstore::blockstore::Blockstore&#45;&gt;lightning_blockstore::blockstore::Blockstore::put_dir -->
<g id="edge20" class="edge">
<title>lightning_blockstore::blockstore::Blockstore&#45;&gt;lightning_blockstore::blockstore::Blockstore::put_dir</title>
<path fill="none" stroke="#000000" d="M519.03,-279.73C593.01,-255.62 701.11,-205.07 745.3,-171.67"/>
<polygon fill="#000000" stroke="#000000" points="747.68,-174.25 753.25,-165.24 743.27,-168.81 747.68,-174.25"/>
<text text-anchor="middle" x="619.66" y="-228.7" font-family="monospace" font-size="10.00">owns</text>
</g>
<!-- lightning_blockstore::blockstore::Blockstore::Config&#45;&gt;lightning_blockstore::config::Config -->
<g id="edge21" class="edge">
<title>lightning_blockstore::blockstore::Blockstore::Config&#45;&gt;lightning_blockstore::config::Config</title>
<path fill="none" stroke="#7f7f7f" stroke-dasharray="5,2" d="M660.09,-324.79C685.1,-366.85 744.91,-467.4 774.19,-516.61"/>
<polygon fill="#7f7f7f" stroke="#7f7f7f" points="771.33,-518.65 779.45,-525.45 777.34,-515.07 771.33,-518.65"/>
<text text-anchor="middle" x="704.64" y="-423.7" font-family="monospace" font-size="10.00">uses</text>
</g>
<!-- lightning_blockstore::blockstore::Blockstore::Put&#45;&gt;lightning_blockstore::blockstore::Blockstore -->
<g id="edge22" class="edge">
<title>lightning_blockstore::blockstore::Blockstore::Put&#45;&gt;lightning_blockstore::blockstore::Blockstore</title>
<path fill="none" stroke="#7f7f7f" stroke-dasharray="5,2" d="M463.61,-530.19C478,-484.95 476.88,-370.71 462.63,-317.13"/>
<polygon fill="#7f7f7f" stroke="#7f7f7f" points="465.98,-316.1 459.71,-307.56 459.28,-318.14 465.98,-316.1"/>
<text text-anchor="middle" x="450.62" y="-426.66" font-family="monospace" font-size="10.00">uses</text>
</g>
<!-- lightning_blockstore::blockstore::Blockstore::Put&#45;&gt;lightning_blockstore::put::Putter -->
<g id="edge23" class="edge">
<title>lightning_blockstore::blockstore::Blockstore::Put&#45;&gt;lightning_blockstore::put::Putter</title>
<path fill="none" stroke="#7f7f7f" stroke-dasharray="5,2" d="M442.11,-568.29C425.16,-614.27 381.98,-731.39 361.9,-785.88"/>
<polygon fill="#7f7f7f" stroke="#7f7f7f" points="358.61,-784.7 358.43,-795.29 365.17,-787.12 358.61,-784.7"/>
<text text-anchor="middle" x="389.51" y="-680.09" font-family="monospace" font-size="10.00">uses</text>
</g>
<!-- lightning_blockstore::blockstore::Blockstore::get&#45;&gt;lightning_blockstore::blockstore::Blockstore -->
<g id="edge24" class="edge">
<title>lightning_blockstore::blockstore::Blockstore::get&#45;&gt;lightning_blockstore::blockstore::Blockstore</title>
<path fill="none" stroke="#7f7f7f" stroke-dasharray="5,2" d="M224.9,-86.17C243.69,-127.43 329.67,-217.83 388.9,-263.31"/>
<polygon fill="#7f7f7f" stroke="#7f7f7f" points="386.97,-266.24 397.08,-269.42 391.16,-260.63 386.97,-266.24"/>
<text text-anchor="middle" x="294.4" y="-177.74" font-family="monospace" font-size="10.00">uses</text>
</g>
<!-- lightning_blockstore::blockstore::Blockstore::get_root_dir&#45;&gt;lightning_blockstore::blockstore::Blockstore -->
<g id="edge25" class="edge">
<title>lightning_blockstore::blockstore::Blockstore::get_root_dir&#45;&gt;lightning_blockstore::blockstore::Blockstore</title>
<path fill="none" stroke="#7f7f7f" stroke-dasharray="5,2" d="M632.46,-88.91C573.41,-128.74 482.05,-214.67 452.33,-260.67"/>
<polygon fill="#7f7f7f" stroke="#7f7f7f" points="449.3,-258.91 447.24,-269.31 455.33,-262.47 449.3,-258.91"/>
<text text-anchor="middle" x="529.9" y="-177.79" font-family="monospace" font-size="10.00">uses</text>
</g>
<!-- lightning_blockstore::blockstore::Blockstore::get_tree&#45;&gt;lightning_blockstore::blockstore::Blockstore -->
<g id="edge26" class="edge">
<title>lightning_blockstore::blockstore::Blockstore::get_tree&#45;&gt;lightning_blockstore::blockstore::Blockstore</title>
<path fill="none" stroke="#7f7f7f" stroke-dasharray="5,2" d="M321.69,-38.73C324.29,-86.17 374.36,-206.35 411.86,-261.13"/>
<polygon fill="#7f7f7f" stroke="#7f7f7f" points="409.08,-263.26 417.76,-269.34 414.77,-259.17 409.08,-263.26"/>
<text text-anchor="middle" x="354.28" y="-152.93" font-family="monospace" font-size="10.00">uses</text>
</g>
<!-- lightning_blockstore::blockstore::Blockstore::init&#45;&gt;lightning_blockstore::blockstore::Blockstore -->
<g id="edge27" class="edge">
<title>lightning_blockstore::blockstore::Blockstore::init&#45;&gt;lightning_blockstore::blockstore::Blockstore</title>
<path fill="none" stroke="#7f7f7f" stroke-dasharray="5,2" d="M814.1,-304.8C751.93,-287.23 617.52,-273.37 529.04,-273.58"/>
<polygon fill="#7f7f7f" stroke="#7f7f7f" points="528.99,-270.08 519.02,-273.67 529.05,-277.08 528.99,-270.08"/>
<text text-anchor="middle" x="659.07" y="-281.19" font-family="monospace" font-size="10.00">uses</text>
</g>
<!-- lightning_blockstore::blockstore::Blockstore::init&#45;&gt;lightning_blockstore::config::Config -->
<g id="edge28" class="edge">
<title>lightning_blockstore::blockstore::Blockstore::init&#45;&gt;lightning_blockstore::config::Config</title>
<path fill="none" stroke="#7f7f7f" stroke-dasharray="5,2" d="M842.85,-343.07C832.84,-381.92 810.15,-469.99 798.35,-515.8"/>
<polygon fill="#7f7f7f" stroke="#7f7f7f" points="794.9,-515.14 795.8,-525.69 801.68,-516.88 794.9,-515.14"/>
<text text-anchor="middle" x="808.1" y="-432.44" font-family="monospace" font-size="10.00">uses</text>
</g>
<!-- lightning_blockstore::blockstore::Blockstore::provide_indexer&#45;&gt;lightning_blockstore::blockstore::Blockstore -->
<g id="edge29" class="edge">
<title>lightning_blockstore::blockstore::Blockstore::provide_indexer&#45;&gt;lightning_blockstore::blockstore::Blockstore</title>
<path fill="none" stroke="#7f7f7f" stroke-dasharray="5,2" d="M538.04,-42.26C501.78,-88.75 449.48,-204.26 440.23,-259.22"/>
<polygon fill="#7f7f7f" stroke="#7f7f7f" points="436.73,-259.02 438.97,-269.37 443.68,-259.88 436.73,-259.02"/>
<text text-anchor="middle" x="476.64" y="-153.74" font-family="monospace" font-size="10.00">uses</text>
</g>
<!-- lightning_blockstore::blockstore::Blockstore::put&#45;&gt;lightning_blockstore::blockstore::Blockstore -->
<g id="edge30" class="edge">
<title>lightning_blockstore::blockstore::Blockstore::put&#45;&gt;lightning_blockstore::blockstore::Blockstore</title>
<path fill="none" stroke="#7f7f7f" stroke-dasharray="5,2" d="M301.22,-501.86C348.63,-460.28 421.07,-366.14 441.69,-317.39"/>
<polygon fill="#7f7f7f" stroke="#7f7f7f" points="445.09,-318.31 445.28,-307.71 438.52,-315.87 445.09,-318.31"/>
<text text-anchor="middle" x="358.96" y="-412.63" font-family="monospace" font-size="10.00">uses</text>
</g>
<!-- lightning_blockstore::blockstore::Blockstore::put&#45;&gt;lightning_blockstore::put::Putter -->
<g id="edge31" class="edge">
<title>lightning_blockstore::blockstore::Blockstore::put&#45;&gt;lightning_blockstore::put::Putter</title>
<path fill="none" stroke="#7f7f7f" stroke-dasharray="5,2" d="M267.89,-540.23C283.15,-590.42 324.22,-725.42 342.42,-785.29"/>
<polygon fill="#7f7f7f" stroke="#7f7f7f" points="339.19,-786.67 345.45,-795.22 345.89,-784.64 339.19,-786.67"/>
<text text-anchor="middle" x="292.66" y="-665.76" font-family="monospace" font-size="10.00">uses</text>
</g>
<!-- lightning_blockstore::blockstore::Blockstore::put_dir&#45;&gt;lightning_blockstore::blockstore::Blockstore -->
<g id="edge32" class="edge">
<title>lightning_blockstore::blockstore::Blockstore::put_dir&#45;&gt;lightning_blockstore::blockstore::Blockstore</title>
<path fill="none" stroke="#7f7f7f" stroke-dasharray="5,2" d="M662.9,-164.32C591.78,-190.51 503.01,-233.33 463.93,-262.82"/>
<polygon fill="#7f7f7f" stroke="#7f7f7f" points="461.53,-260.26 455.95,-269.27 465.92,-265.71 461.53,-260.26"/>
<text text-anchor="middle" x="550.92" y="-216.57" font-family="monospace" font-size="10.00">uses</text>
</g>
<!-- lightning_blockstore::put::Putter::feed_proof -->
<g id="node16" class="node">
<title>lightning_blockstore::put::Putter::feed_proof</title>
<polygon fill="#db5367" stroke="black" points="541.05,-905.41 541.05,-943.41 696.05,-943.41 696.05,-905.41 541.05,-905.41"/>
<text text-anchor="middle" x="618.55" y="-931.41" font-family="monospace" font-size="10.00">pub(self) fn</text>
<polyline fill="none" stroke="black" points="541.05,-924.41 696.05,-924.41 "/>
<text text-anchor="middle" x="618.55" y="-912.41" font-family="monospace" font-size="10.00">put::Putter::feed_proof</text>
</g>
<!-- lightning_blockstore::put::Putter&#45;&gt;lightning_blockstore::put::Putter::feed_proof -->
<g id="edge33" class="edge">
<title>lightning_blockstore::put::Putter&#45;&gt;lightning_blockstore::put::Putter::feed_proof</title>
<path fill="none" stroke="#000000" d="M362.05,-833.73C390.68,-859.02 468.53,-895.04 531.11,-915.28"/>
<polygon fill="#000000" stroke="#000000" points="530.42,-918.74 541.01,-918.39 532.52,-912.06 530.42,-918.74"/>
<text text-anchor="middle" x="434.08" y="-877.51" font-family="monospace" font-size="10.00">owns</text>
</g>
<!-- lightning_blockstore::put::Putter::finalize -->
<g id="node17" class="node">
<title>lightning_blockstore::put::Putter::finalize</title>
<polygon fill="#db5367" stroke="black" points="508.65,-1006.3 508.65,-1044.3 651.65,-1044.3 651.65,-1006.3 508.65,-1006.3"/>
<text text-anchor="middle" x="580.15" y="-1032.3" font-family="monospace" font-size="10.00">pub(self) async fn</text>
<polyline fill="none" stroke="black" points="508.65,-1025.3 651.65,-1025.3 "/>
<text text-anchor="middle" x="580.15" y="-1013.3" font-family="monospace" font-size="10.00">put::Putter::finalize</text>
</g>
<!-- lightning_blockstore::put::Putter&#45;&gt;lightning_blockstore::put::Putter::finalize -->
<g id="edge34" class="edge">
<title>lightning_blockstore::put::Putter&#45;&gt;lightning_blockstore::put::Putter::finalize</title>
<path fill="none" stroke="#000000" d="M353.94,-833.87C374.29,-873.63 460.44,-957.26 520.88,-1000.47"/>
<polygon fill="#000000" stroke="#000000" points="519.03,-1003.44 529.23,-1006.29 523.03,-997.7 519.03,-1003.44"/>
<text text-anchor="middle" x="424.91" y="-920.17" font-family="monospace" font-size="10.00">owns</text>
</g>
<!-- lightning_blockstore::put::Putter::flush -->
<g id="node18" class="node">
<title>lightning_blockstore::put::Putter::flush</title>
<polygon fill="#db5367" stroke="black" points="281.7,-1093.49 281.7,-1131.49 406.7,-1131.49 406.7,-1093.49 281.7,-1093.49"/>
<text text-anchor="middle" x="344.2" y="-1119.49" font-family="monospace" font-size="10.00">pub(self) fn</text>
<polyline fill="none" stroke="black" points="281.7,-1112.49 406.7,-1112.49 "/>
<text text-anchor="middle" x="344.2" y="-1100.49" font-family="monospace" font-size="10.00">put::Putter::flush</text>
</g>
<!-- lightning_blockstore::put::Putter&#45;&gt;lightning_blockstore::put::Putter::flush -->
<g id="edge35" class="edge">
<title>lightning_blockstore::put::Putter&#45;&gt;lightning_blockstore::put::Putter::flush</title>
<path fill="none" stroke="#000000" d="M336.63,-833.76C319.28,-884.55 315.13,-1022.61 328.11,-1083.25"/>
<polygon fill="#000000" stroke="#000000" points="324.81,-1084.46 330.64,-1093.3 331.6,-1082.75 324.81,-1084.46"/>
<text text-anchor="middle" x="319.87" y="-961.51" font-family="monospace" font-size="10.00">owns</text>
</g>
<!-- lightning_blockstore::put::Putter::is_finished -->
<g id="node19" class="node">
<title>lightning_blockstore::put::Putter::is_finished</title>
<polygon fill="#db5367" stroke="black" points="41.78,-973.71 41.78,-1011.71 202.78,-1011.71 202.78,-973.71 41.78,-973.71"/>
<text text-anchor="middle" x="122.28" y="-999.71" font-family="monospace" font-size="10.00">pub(self) fn</text>
<polyline fill="none" stroke="black" points="41.78,-992.71 202.78,-992.71 "/>
<text text-anchor="middle" x="122.28" y="-980.71" font-family="monospace" font-size="10.00">put::Putter::is_finished</text>
</g>
<!-- lightning_blockstore::put::Putter&#45;&gt;lightning_blockstore::put::Putter::is_finished -->
<g id="edge36" class="edge">
<title>lightning_blockstore::put::Putter&#45;&gt;lightning_blockstore::put::Putter::is_finished</title>
<path fill="none" stroke="#000000" d="M309.76,-822.91C254.93,-850.75 163.73,-922.96 132.04,-964.96"/>
<polygon fill="#000000" stroke="#000000" points="128.99,-963.21 126.22,-973.43 134.76,-967.17 128.99,-963.21"/>
<text text-anchor="middle" x="208.4" y="-896.93" font-family="monospace" font-size="10.00">owns</text>
</g>
<!-- lightning_blockstore::put::Putter::new -->
<g id="node20" class="node">
<title>lightning_blockstore::put::Putter::new</title>
<polygon fill="#db5367" stroke="black" points="160.69,-1054.99 160.69,-1092.99 273.69,-1092.99 273.69,-1054.99 160.69,-1054.99"/>
<text text-anchor="middle" x="217.19" y="-1080.99" font-family="monospace" font-size="10.00">pub(self) fn</text>
<polyline fill="none" stroke="black" points="160.69,-1073.99 273.69,-1073.99 "/>
<text text-anchor="middle" x="217.19" y="-1061.99" font-family="monospace" font-size="10.00">put::Putter::new</text>
</g>
<!-- lightning_blockstore::put::Putter&#45;&gt;lightning_blockstore::put::Putter::new -->
<g id="edge37" class="edge">
<title>lightning_blockstore::put::Putter&#45;&gt;lightning_blockstore::put::Putter::new</title>
<path fill="none" stroke="#000000" d="M321.81,-833.86C283.22,-879.44 226.09,-991.02 214.42,-1044.83"/>
<polygon fill="#000000" stroke="#000000" points="210.96,-1044.34 212.71,-1054.78 217.86,-1045.52 210.96,-1044.34"/>
<text text-anchor="middle" x="255.62" y="-942.34" font-family="monospace" font-size="10.00">owns</text>
</g>
<!-- lightning_blockstore::put::Putter::trust -->
<g id="node21" class="node">
<title>lightning_blockstore::put::Putter::trust</title>
<polygon fill="#81c169" stroke="black" points="6.65,-872.56 6.65,-910.56 131.65,-910.56 131.65,-872.56 6.65,-872.56"/>
<text text-anchor="middle" x="69.15" y="-898.56" font-family="monospace" font-size="10.00">pub fn</text>
<polyline fill="none" stroke="black" points="6.65,-891.56 131.65,-891.56 "/>
<text text-anchor="middle" x="69.15" y="-879.56" font-family="monospace" font-size="10.00">put::Putter::trust</text>
</g>
<!-- lightning_blockstore::put::Putter&#45;&gt;lightning_blockstore::put::Putter::trust -->
<g id="edge38" class="edge">
<title>lightning_blockstore::put::Putter&#45;&gt;lightning_blockstore::put::Putter::trust</title>
<path fill="none" stroke="#000000" d="M309.76,-806.34C249.86,-810.87 141.54,-841.04 93.27,-867.25"/>
<polygon fill="#000000" stroke="#000000" points="91.3,-864.35 84.45,-872.43 94.84,-870.39 91.3,-864.35"/>
<text text-anchor="middle" x="189.01" y="-839.8" font-family="monospace" font-size="10.00">owns</text>
</g>
<!-- lightning_blockstore::put::Putter::verifier -->
<g id="node22" class="node">
<title>lightning_blockstore::put::Putter::verifier</title>
<polygon fill="#81c169" stroke="black" points="0,-769.2 0,-807.2 143,-807.2 143,-769.2 0,-769.2"/>
<text text-anchor="middle" x="71.5" y="-795.2" font-family="monospace" font-size="10.00">pub fn</text>
<polyline fill="none" stroke="black" points="0,-788.2 143,-788.2 "/>
<text text-anchor="middle" x="71.5" y="-776.2" font-family="monospace" font-size="10.00">put::Putter::verifier</text>
</g>
<!-- lightning_blockstore::put::Putter&#45;&gt;lightning_blockstore::put::Putter::verifier -->
<g id="edge39" class="edge">
<title>lightning_blockstore::put::Putter&#45;&gt;lightning_blockstore::put::Putter::verifier</title>
<path fill="none" stroke="#000000" d="M326.06,-795.39C287.38,-781.53 211.83,-771.78 153.04,-771.17"/>
<polygon fill="#000000" stroke="#000000" points="153.01,-767.67 143.01,-771.16 153.01,-774.67 153.01,-767.67"/>
<text text-anchor="middle" x="227.05" y="-786.28" font-family="monospace" font-size="10.00">owns</text>
</g>
<!-- lightning_blockstore::put::Putter::write -->
<g id="node23" class="node">
<title>lightning_blockstore::put::Putter::write</title>
<polygon fill="#db5367" stroke="black" points="414.82,-1071.77 414.82,-1109.77 539.82,-1109.77 539.82,-1071.77 414.82,-1071.77"/>
<text text-anchor="middle" x="477.32" y="-1097.77" font-family="monospace" font-size="10.00">pub(self) fn</text>
<polyline fill="none" stroke="black" points="414.82,-1090.77 539.82,-1090.77 "/>
<text text-anchor="middle" x="477.32" y="-1078.77" font-family="monospace" font-size="10.00">put::Putter::write</text>
</g>
<!-- lightning_blockstore::put::Putter&#45;&gt;lightning_blockstore::put::Putter::write -->
<g id="edge40" class="edge">
<title>lightning_blockstore::put::Putter&#45;&gt;lightning_blockstore::put::Putter::write</title>
<path fill="none" stroke="#000000" d="M346.15,-833.92C349.96,-882.59 404.66,-1007.32 444.23,-1063.36"/>
<polygon fill="#000000" stroke="#000000" points="441.43,-1065.47 450.19,-1071.43 447.06,-1061.3 441.43,-1065.47"/>
<text text-anchor="middle" x="382.69" y="-951.64" font-family="monospace" font-size="10.00">owns</text>
</g>
<!-- lightning_blockstore::put::Putter&#45;&gt;lightning_blockstore::put::PutterMode -->
<g id="edge41" class="edge">
<title>lightning_blockstore::put::Putter&#45;&gt;lightning_blockstore::put::PutterMode</title>
<path fill="none" stroke="#7f7f7f" stroke-dasharray="5,2" d="M354.54,-833.8C355.94,-842.2 357.61,-852.24 359.16,-861.53"/>
<polygon fill="#7f7f7f" stroke="#7f7f7f" points="355.74,-862.3 360.84,-871.58 362.65,-861.14 355.74,-862.3"/>
<text text-anchor="middle" x="344.35" y="-850.67" font-family="monospace" font-size="10.00">uses</text>
</g>
<!-- lightning_blockstore::put::Putter::feed_proof&#45;&gt;lightning_blockstore::put::Putter -->
<g id="edge42" class="edge">
<title>lightning_blockstore::put::Putter::feed_proof&#45;&gt;lightning_blockstore::put::Putter</title>
<path fill="none" stroke="#7f7f7f" stroke-dasharray="5,2" d="M607.82,-905.24C573.34,-874.78 467.45,-828.75 402.84,-813.47"/>
<polygon fill="#7f7f7f" stroke="#7f7f7f" points="403.36,-810 392.84,-811.29 401.87,-816.84 403.36,-810"/>
<text text-anchor="middle" x="492.83" y="-862.36" font-family="monospace" font-size="10.00">uses</text>
</g>
<!-- lightning_blockstore::put::Putter::feed_proof&#45;&gt;lightning_blockstore::put::PutterMode -->
<g id="edge43" class="edge">
<title>lightning_blockstore::put::Putter::feed_proof&#45;&gt;lightning_blockstore::put::PutterMode</title>
<path fill="none" stroke="#7f7f7f" stroke-dasharray="5,2" d="M540.81,-914.15C504.64,-909.38 462.16,-903.77 427.9,-899.25"/>
<polygon fill="#7f7f7f" stroke="#7f7f7f" points="427.92,-895.72 417.55,-897.88 427.01,-902.66 427.92,-895.72"/>
<text text-anchor="middle" x="471.85" y="-909.7" font-family="monospace" font-size="10.00">uses</text>
</g>
<!-- lightning_blockstore::put::Putter::finalize&#45;&gt;lightning_blockstore::put::Putter -->
<g id="edge44" class="edge">
<title>lightning_blockstore::put::Putter::finalize&#45;&gt;lightning_blockstore::put::Putter</title>
<path fill="none" stroke="#7f7f7f" stroke-dasharray="5,2" d="M577.54,-1005.98C556.19,-964.27 462.43,-874.29 401.9,-833.33"/>
<polygon fill="#7f7f7f" stroke="#7f7f7f" points="403.51,-830.2 393.23,-827.66 399.68,-836.06 403.51,-830.2"/>
<text text-anchor="middle" x="477.22" y="-922.66" font-family="monospace" font-size="10.00">uses</text>
</g>
<!-- lightning_blockstore::put::Putter::finalize&#45;&gt;lightning_blockstore::put::PutterMode -->
<g id="edge45" class="edge">
<title>lightning_blockstore::put::Putter::finalize&#45;&gt;lightning_blockstore::put::PutterMode</title>
<path fill="none" stroke="#7f7f7f" stroke-dasharray="5,2" d="M549.19,-1006.03C510.73,-982.1 445.08,-941.24 403.17,-915.17"/>
<polygon fill="#7f7f7f" stroke="#7f7f7f" points="404.95,-912.15 394.61,-909.84 401.25,-918.09 404.95,-912.15"/>
<text text-anchor="middle" x="463.68" y="-963.6" font-family="monospace" font-size="10.00">uses</text>
</g>
<!-- lightning_blockstore::put::Putter::flush&#45;&gt;lightning_blockstore::put::Putter -->
<g id="edge46" class="edge">
<title>lightning_blockstore::put::Putter::flush&#45;&gt;lightning_blockstore::put::Putter</title>
<path fill="none" stroke="#7f7f7f" stroke-dasharray="5,2" d="M358.9,-1093.28C376.24,-1042.5 380.39,-904.44 367.41,-843.79"/>
<polygon fill="#7f7f7f" stroke="#7f7f7f" points="370.72,-842.59 364.89,-833.74 363.93,-844.29 370.72,-842.59"/>
<text text-anchor="middle" x="350.66" y="-971.54" font-family="monospace" font-size="10.00">uses</text>
</g>
<!-- lightning_blockstore::put::Putter::flush&#45;&gt;lightning_blockstore::put::PutterMode -->
<g id="edge47" class="edge">
<title>lightning_blockstore::put::Putter::flush&#45;&gt;lightning_blockstore::put::PutterMode</title>
<path fill="none" stroke="#7f7f7f" stroke-dasharray="5,2" d="M345.93,-1093.2C349.41,-1054.3 357.3,-966.19 361.43,-920.12"/>
<polygon fill="#7f7f7f" stroke="#7f7f7f" points="364.94,-920.18 362.34,-909.9 357.96,-919.55 364.94,-920.18"/>
<text text-anchor="middle" x="341.18" y="-1009.66" font-family="monospace" font-size="10.00">uses</text>
</g>
<!-- lightning_blockstore::put::Putter::is_finished&#45;&gt;lightning_blockstore::put::Putter -->
<g id="edge48" class="edge">
<title>lightning_blockstore::put::Putter::is_finished&#45;&gt;lightning_blockstore::put::Putter</title>
<path fill="none" stroke="#7f7f7f" stroke-dasharray="5,2" d="M183.17,-973.64C238.1,-940.94 313.49,-879.58 341.64,-842.23"/>
<polygon fill="#7f7f7f" stroke="#7f7f7f" points="344.69,-843.96 347.46,-833.73 338.92,-840 344.69,-843.96"/>
<text text-anchor="middle" x="249.9" y="-910.93" font-family="monospace" font-size="10.00">uses</text>
</g>
<!-- lightning_blockstore::put::Putter::is_finished&#45;&gt;lightning_blockstore::put::PutterMode -->
<g id="edge49" class="edge">
<title>lightning_blockstore::put::Putter::is_finished&#45;&gt;lightning_blockstore::put::PutterMode</title>
<path fill="none" stroke="#7f7f7f" stroke-dasharray="5,2" d="M167.47,-973.67C207.63,-956.75 266.42,-931.97 309.25,-913.92"/>
<polygon fill="#7f7f7f" stroke="#7f7f7f" points="310.82,-917.06 318.67,-909.95 308.1,-910.61 310.82,-917.06"/>
<text text-anchor="middle" x="225.86" y="-946.79" font-family="monospace" font-size="10.00">uses</text>
</g>
<!-- lightning_blockstore::put::Putter::new&#45;&gt;lightning_blockstore::put::Putter -->
<g id="edge50" class="edge">
<title>lightning_blockstore::put::Putter::new&#45;&gt;lightning_blockstore::put::Putter</title>
<path fill="none" stroke="#7f7f7f" stroke-dasharray="5,2" d="M246.71,-1054.69C285.3,-1009.1 342.42,-897.52 354.09,-843.72"/>
<polygon fill="#7f7f7f" stroke="#7f7f7f" points="357.56,-844.21 355.8,-833.76 350.66,-843.02 357.56,-844.21"/>
<text text-anchor="middle" x="287.9" y="-952.2" font-family="monospace" font-size="10.00">uses</text>
</g>
<!-- lightning_blockstore::put::Putter::new&#45;&gt;lightning_blockstore::put::PutterMode -->
<g id="edge51" class="edge">
<title>lightning_blockstore::put::Putter::new&#45;&gt;lightning_blockstore::put::PutterMode</title>
<path fill="none" stroke="#7f7f7f" stroke-dasharray="5,2" d="M232.63,-1054.73C258.85,-1022.03 312.16,-955.54 342.2,-918.07"/>
<polygon fill="#7f7f7f" stroke="#7f7f7f" points="345.07,-920.09 348.6,-910.1 339.61,-915.71 345.07,-920.09"/>
<text text-anchor="middle" x="274.91" y="-989.4" font-family="monospace" font-size="10.00">uses</text>
</g>
<!-- lightning_blockstore::put::Putter::trust&#45;&gt;lightning_blockstore::put::Putter -->
<g id="edge52" class="edge">
<title>lightning_blockstore::put::Putter::trust&#45;&gt;lightning_blockstore::put::Putter</title>
<path fill="none" stroke="#7f7f7f" stroke-dasharray="5,2" d="M131.75,-897.44C193.49,-888.74 284.51,-862.14 327.45,-838.74"/>
<polygon fill="#7f7f7f" stroke="#7f7f7f" points="329.26,-841.74 336.1,-833.65 325.71,-835.7 329.26,-841.74"/>
<text text-anchor="middle" x="217.1" y="-871.09" font-family="monospace" font-size="10.00">uses</text>
</g>
<!-- lightning_blockstore::put::Putter::trust&#45;&gt;lightning_blockstore::put::PutterMode -->
<g id="edge53" class="edge">
<title>lightning_blockstore::put::Putter::trust&#45;&gt;lightning_blockstore::put::PutterMode</title>
<path fill="none" stroke="#7f7f7f" stroke-dasharray="5,2" d="M131.69,-891.41C181.36,-891.28 250.53,-891.11 300.46,-890.98"/>
<polygon fill="#7f7f7f" stroke="#7f7f7f" points="300.51,-894.48 310.5,-890.96 300.49,-887.48 300.51,-894.48"/>
<text text-anchor="middle" x="203.58" y="-883.19" font-family="monospace" font-size="10.00">uses</text>
</g>
<!-- lightning_blockstore::put::Putter::verifier&#45;&gt;lightning_blockstore::put::Putter -->
<g id="edge54" class="edge">
<title>lightning_blockstore::put::Putter::verifier&#45;&gt;lightning_blockstore::put::Putter</title>
<path fill="none" stroke="#7f7f7f" stroke-dasharray="5,2" d="M96.76,-807.37C142.45,-823.73 239.56,-834.38 299.77,-830.99"/>
<polygon fill="#7f7f7f" stroke="#7f7f7f" points="300.11,-834.47 309.83,-830.26 299.6,-827.49 300.11,-834.47"/>
<text text-anchor="middle" x="185.76" y="-822.18" font-family="monospace" font-size="10.00">uses</text>
</g>
<!-- lightning_blockstore::put::Putter::verifier&#45;&gt;lightning_blockstore::put::PutterMode -->
<g id="edge55" class="edge">
<title>lightning_blockstore::put::Putter::verifier&#45;&gt;lightning_blockstore::put::PutterMode</title>
<path fill="none" stroke="#7f7f7f" stroke-dasharray="5,2" d="M125.84,-807.26C175.46,-824.67 248.83,-850.4 301.01,-868.71"/>
<polygon fill="#7f7f7f" stroke="#7f7f7f" points="299.9,-872.03 310.5,-872.04 302.22,-865.42 299.9,-872.03"/>
<text text-anchor="middle" x="225.93" y="-840.99" font-family="monospace" font-size="10.00">uses</text>
</g>
<!-- lightning_blockstore::put::Putter::write&#45;&gt;lightning_blockstore::put::Putter -->
<g id="edge56" class="edge">
<title>lightning_blockstore::put::Putter::write&#45;&gt;lightning_blockstore::put::Putter</title>
<path fill="none" stroke="#7f7f7f" stroke-dasharray="5,2" d="M482.5,-1071.41C478.7,-1022.74 423.99,-898.01 384.43,-841.97"/>
<polygon fill="#7f7f7f" stroke="#7f7f7f" points="387.22,-839.86 378.46,-833.9 381.59,-844.03 387.22,-839.86"/>
<text text-anchor="middle" x="420.96" y="-959.69" font-family="monospace" font-size="10.00">uses</text>
</g>
<!-- lightning_blockstore::put::Putter::write&#45;&gt;lightning_blockstore::put::PutterMode -->
<g id="edge57" class="edge">
<title>lightning_blockstore::put::Putter::write&#45;&gt;lightning_blockstore::put::PutterMode</title>
<path fill="none" stroke="#7f7f7f" stroke-dasharray="5,2" d="M466.46,-1071.6C446.33,-1036.07 403.17,-959.87 379.82,-918.65"/>
<polygon fill="#7f7f7f" stroke="#7f7f7f" points="382.85,-916.91 374.88,-909.94 376.76,-920.36 382.85,-916.91"/>
<text text-anchor="middle" x="410.64" y="-998.13" font-family="monospace" font-size="10.00">uses</text>
</g>
</g>
</svg>
