<?xml version="1.0" encoding="UTF-8" standalone="no"?>
<!DOCTYPE svg PUBLIC "-//W3C//DTD SVG 1.1//EN"
 "http://www.w3.org/Graphics/SVG/1.1/DTD/svg11.dtd">
<!-- Generated by graphviz version 4.0.0 (0)
 -->
<!-- Pages: 1 -->
<svg width="1671pt" height="976pt"
 viewBox="0.00 0.00 1670.70 975.99" xmlns="http://www.w3.org/2000/svg" xmlns:xlink="http://www.w3.org/1999/xlink">
<g id="graph0" class="graph" transform="scale(1 1) rotate(0) translate(28.8 947.19)">
<polygon fill="white" stroke="transparent" points="-28.8,28.8 -28.8,-947.19 1641.9,-947.19 1641.9,28.8 -28.8,28.8"/>
<text text-anchor="middle" x="806.55" y="-885.59" font-family="Helvetica,sans-Serif" font-size="36.00">lightning_service_executor</text>
<!-- fdi -->
<g id="node1" class="node">
<title>fdi</title>
<polygon fill="#5397c8" stroke="black" points="652.88,-333.66 652.88,-371.66 753.88,-371.66 753.88,-333.66 652.88,-333.66"/>
<text text-anchor="middle" x="703.38" y="-359.66" font-family="monospace" font-size="10.00">external crate</text>
<polyline fill="none" stroke="black" points="652.88,-352.66 753.88,-352.66 "/>
<text text-anchor="middle" x="703.38" y="-340.66" font-family="monospace" font-size="10.00">fdi</text>
</g>
<!-- fn_sdk::ipc_types -->
<g id="node2" class="node">
<title>fn_sdk::ipc_types</title>
<polygon fill="#81c169" stroke="black" points="0,-284.34 0,-322.34 119,-322.34 119,-284.34 0,-284.34"/>
<text text-anchor="middle" x="59.5" y="-310.34" font-family="monospace" font-size="10.00">external mod</text>
<polyline fill="none" stroke="black" points="0,-303.34 119,-303.34 "/>
<text text-anchor="middle" x="59.5" y="-291.34" font-family="monospace" font-size="10.00">fn_sdk::ipc_types</text>
</g>
<!-- lightning_schema -->
<g id="node3" class="node">
<title>lightning_schema</title>
<polygon fill="#5397c8" stroke="black" points="215.4,-582.77 215.4,-620.77 328.4,-620.77 328.4,-582.77 215.4,-582.77"/>
<text text-anchor="middle" x="271.9" y="-608.77" font-family="monospace" font-size="10.00">external crate</text>
<polyline fill="none" stroke="black" points="215.4,-601.77 328.4,-601.77 "/>
<text text-anchor="middle" x="271.9" y="-589.77" font-family="monospace" font-size="10.00">lightning_schema</text>
</g>
<!-- lightning_service_executor -->
<g id="node4" class="node">
<title>lightning_service_executor</title>
<polygon fill="#5397c8" stroke="black" points="760.71,-582.77 760.71,-620.77 933.71,-620.77 933.71,-582.77 760.71,-582.77"/>
<text text-anchor="middle" x="847.21" y="-608.77" font-family="monospace" font-size="10.00">crate</text>
<polyline fill="none" stroke="black" points="760.71,-601.77 933.71,-601.77 "/>
<text text-anchor="middle" x="847.21" y="-589.77" font-family="monospace" font-size="10.00">lightning_service_executor</text>
</g>
<!-- lightning_service_executor::service -->
<g id="node5" class="node">
<title>lightning_service_executor::service</title>
<polygon fill="#81c169" stroke="black" points="302.23,-333.66 302.23,-371.66 529.23,-371.66 529.23,-333.66 302.23,-333.66"/>
<text text-anchor="middle" x="415.73" y="-359.66" font-family="monospace" font-size="10.00">pub mod</text>
<polyline fill="none" stroke="black" points="302.23,-352.66 529.23,-352.66 "/>
<text text-anchor="middle" x="415.73" y="-340.66" font-family="monospace" font-size="10.00">lightning_service_executor::service</text>
</g>
<!-- lightning_service_executor&#45;&gt;lightning_service_executor::service -->
<g id="edge1" class="edge">
<title>lightning_service_executor&#45;&gt;lightning_service_executor::service</title>
<path fill="none" stroke="#000000" d="M814.07,-582.64C736.48,-537.84 543.15,-426.23 457.6,-376.83"/>
<polygon fill="#000000" stroke="#000000" points="459.09,-373.65 448.68,-371.68 455.59,-379.72 459.09,-373.65"/>
<text text-anchor="middle" x="623.33" y="-482.73" font-family="monospace" font-size="10.00">owns</text>
</g>
<!-- lightning_service_executor::shim -->
<g id="node6" class="node">
<title>lightning_service_executor::shim</title>
<polygon fill="#81c169" stroke="black" points="598.88,-831.89 598.88,-869.89 807.88,-869.89 807.88,-831.89 598.88,-831.89"/>
<text text-anchor="middle" x="703.38" y="-857.89" font-family="monospace" font-size="10.00">pub mod</text>
<polyline fill="none" stroke="black" points="598.88,-850.89 807.88,-850.89 "/>
<text text-anchor="middle" x="703.38" y="-838.89" font-family="monospace" font-size="10.00">lightning_service_executor::shim</text>
</g>
<!-- lightning_service_executor&#45;&gt;lightning_service_executor::shim -->
<g id="edge2" class="edge">
<title>lightning_service_executor&#45;&gt;lightning_service_executor::shim</title>
<path fill="none" stroke="#000000" d="M836.16,-620.91C810.96,-664.56 749.12,-771.67 719.59,-822.82"/>
<polygon fill="#000000" stroke="#000000" points="716.43,-821.28 714.47,-831.69 722.5,-824.78 716.43,-821.28"/>
<text text-anchor="middle" x="765.37" y="-724.86" font-family="monospace" font-size="10.00">owns</text>
</g>
<!-- lightning_service_executor::test_services -->
<g id="node7" class="node">
<title>lightning_service_executor::test_services</title>
<polygon fill="#81c169" stroke="black" points="1013.07,-582.77 1013.07,-620.77 1276.07,-620.77 1276.07,-582.77 1013.07,-582.77"/>
<text text-anchor="middle" x="1144.57" y="-608.77" font-family="monospace" font-size="10.00">pub mod</text>
<polyline fill="none" stroke="black" points="1013.07,-601.77 1276.07,-601.77 "/>
<text text-anchor="middle" x="1144.57" y="-589.77" font-family="monospace" font-size="10.00">lightning_service_executor::test_services</text>
</g>
<!-- lightning_service_executor&#45;&gt;lightning_service_executor::test_services -->
<g id="edge3" class="edge">
<title>lightning_service_executor&#45;&gt;lightning_service_executor::test_services</title>
<path fill="none" stroke="#000000" d="M934.02,-601.77C955.62,-601.77 979.34,-601.77 1002.82,-601.77"/>
<polygon fill="#000000" stroke="#000000" points="1002.87,-605.27 1012.87,-601.77 1002.87,-598.27 1002.87,-605.27"/>
<text text-anchor="middle" x="955.92" y="-604.77" font-family="monospace" font-size="10.00">owns</text>
</g>
<!-- lightning_service_executor::service&#45;&gt;fdi -->
<g id="edge4" class="edge">
<title>lightning_service_executor::service&#45;&gt;fdi</title>
<path fill="none" stroke="#7f7f7f" stroke-dasharray="5,2" d="M529.41,-352.66C567.96,-352.66 609.53,-352.66 642.36,-352.66"/>
<polygon fill="#7f7f7f" stroke="#7f7f7f" points="642.7,-356.16 652.7,-352.66 642.7,-349.16 642.7,-356.16"/>
<text text-anchor="middle" x="573.39" y="-355.66" font-family="monospace" font-size="10.00">uses</text>
</g>
<!-- lightning_service_executor::service&#45;&gt;fn_sdk::ipc_types -->
<g id="edge5" class="edge">
<title>lightning_service_executor::service&#45;&gt;fn_sdk::ipc_types</title>
<path fill="none" stroke="#7f7f7f" stroke-dasharray="5,2" d="M302.03,-336.92C245.29,-329.06 178.47,-319.81 129.34,-313.01"/>
<polygon fill="#7f7f7f" stroke="#7f7f7f" points="129.53,-309.5 119.14,-311.6 128.57,-316.43 129.53,-309.5"/>
<text text-anchor="middle" x="203.19" y="-327.96" font-family="monospace" font-size="10.00">uses</text>
</g>
<!-- lightning_service_executor::service&#45;&gt;lightning_schema -->
<g id="edge6" class="edge">
<title>lightning_service_executor::service&#45;&gt;lightning_schema</title>
<path fill="none" stroke="#7f7f7f" stroke-dasharray="5,2" d="M404.68,-371.79C379.48,-415.44 317.63,-522.56 288.1,-573.7"/>
<polygon fill="#7f7f7f" stroke="#7f7f7f" points="284.95,-572.16 282.98,-582.57 291.01,-575.66 284.95,-572.16"/>
<text text-anchor="middle" x="333.89" y="-475.75" font-family="monospace" font-size="10.00">uses</text>
</g>
<!-- lightning_types -->
<g id="node9" class="node">
<title>lightning_types</title>
<polygon fill="#5397c8" stroke="black" points="362.23,-831.89 362.23,-869.89 469.23,-869.89 469.23,-831.89 362.23,-831.89"/>
<text text-anchor="middle" x="415.73" y="-857.89" font-family="monospace" font-size="10.00">external crate</text>
<polyline fill="none" stroke="black" points="362.23,-850.89 469.23,-850.89 "/>
<text text-anchor="middle" x="415.73" y="-838.89" font-family="monospace" font-size="10.00">lightning_types</text>
</g>
<!-- lightning_service_executor::service&#45;&gt;lightning_types -->
<g id="edge7" class="edge">
<title>lightning_service_executor::service&#45;&gt;lightning_types</title>
<path fill="none" stroke="#7f7f7f" stroke-dasharray="5,2" d="M415.73,-371.88C415.73,-448.1 415.73,-729.31 415.73,-821.45"/>
<polygon fill="#7f7f7f" stroke="#7f7f7f" points="412.23,-821.72 415.73,-831.72 419.23,-821.72 412.23,-821.72"/>
<text text-anchor="middle" x="403.23" y="-599.66" font-family="monospace" font-size="10.00">uses</text>
</g>
<!-- tokio::io -->
<g id="node10" class="node">
<title>tokio::io</title>
<polygon fill="#81c169" stroke="black" points="223.67,-78.58 223.67,-116.58 312.67,-116.58 312.67,-78.58 223.67,-78.58"/>
<text text-anchor="middle" x="268.17" y="-104.58" font-family="monospace" font-size="10.00">external mod</text>
<polyline fill="none" stroke="black" points="223.67,-97.58 312.67,-97.58 "/>
<text text-anchor="middle" x="268.17" y="-85.58" font-family="monospace" font-size="10.00">tokio::io</text>
</g>
<!-- lightning_service_executor::service&#45;&gt;tokio::io -->
<g id="edge8" class="edge">
<title>lightning_service_executor::service&#45;&gt;tokio::io</title>
<path fill="none" stroke="#7f7f7f" stroke-dasharray="5,2" d="M404.64,-333.48C378.78,-288.78 314.4,-177.48 284.24,-125.35"/>
<polygon fill="#7f7f7f" stroke="#7f7f7f" points="287.23,-123.53 279.19,-116.62 281.17,-127.03 287.23,-123.53"/>
<text text-anchor="middle" x="331.94" y="-232.41" font-family="monospace" font-size="10.00">uses</text>
</g>
<!-- tracing::instrument -->
<g id="node11" class="node">
<title>tracing::instrument</title>
<polygon fill="#81c169" stroke="black" points="485.39,-0.5 485.39,-38.5 616.39,-38.5 616.39,-0.5 485.39,-0.5"/>
<text text-anchor="middle" x="550.89" y="-26.5" font-family="monospace" font-size="10.00">external mod</text>
<polyline fill="none" stroke="black" points="485.39,-19.5 616.39,-19.5 "/>
<text text-anchor="middle" x="550.89" y="-7.5" font-family="monospace" font-size="10.00">tracing::instrument</text>
</g>
<!-- lightning_service_executor::service&#45;&gt;tracing::instrument -->
<g id="edge9" class="edge">
<title>lightning_service_executor::service&#45;&gt;tracing::instrument</title>
<path fill="none" stroke="#7f7f7f" stroke-dasharray="5,2" d="M423.58,-333.3C446.3,-277.3 512.21,-114.82 539.18,-48.35"/>
<polygon fill="#7f7f7f" stroke="#7f7f7f" points="542.5,-49.49 543.01,-38.91 536.01,-46.86 542.5,-49.49"/>
<text text-anchor="middle" x="468.88" y="-193.83" font-family="monospace" font-size="10.00">uses</text>
</g>
<!-- lightning_service_executor::shim&#45;&gt;fdi -->
<g id="edge10" class="edge">
<title>lightning_service_executor::shim&#45;&gt;fdi</title>
<path fill="none" stroke="#7f7f7f" stroke-dasharray="5,2" d="M703.38,-831.66C703.38,-755.45 703.38,-474.23 703.38,-382.1"/>
<polygon fill="#7f7f7f" stroke="#7f7f7f" points="706.88,-381.82 703.38,-371.82 699.88,-381.82 706.88,-381.82"/>
<text text-anchor="middle" x="690.88" y="-609.88" font-family="monospace" font-size="10.00">uses</text>
</g>
<!-- lightning_service_executor::shim&#45;&gt;lightning_schema -->
<g id="edge11" class="edge">
<title>lightning_service_executor::shim&#45;&gt;lightning_schema</title>
<path fill="none" stroke="#7f7f7f" stroke-dasharray="5,2" d="M670.24,-831.75C592.65,-786.96 399.33,-675.34 313.77,-625.95"/>
<polygon fill="#7f7f7f" stroke="#7f7f7f" points="315.27,-622.77 304.86,-620.8 311.77,-628.83 315.27,-622.77"/>
<text text-anchor="middle" x="479.5" y="-731.85" font-family="monospace" font-size="10.00">uses</text>
</g>
<!-- lightning_service_executor::shim&#45;&gt;lightning_service_executor::service -->
<g id="edge12" class="edge">
<title>lightning_service_executor::shim&#45;&gt;lightning_service_executor::service</title>
<path fill="none" stroke="#7f7f7f" stroke-dasharray="5,2" d="M692.28,-831.66C648.05,-755.06 484.27,-471.37 431.92,-380.71"/>
<polygon fill="#7f7f7f" stroke="#7f7f7f" points="434.82,-378.73 426.79,-371.82 428.76,-382.23 434.82,-378.73"/>
<text text-anchor="middle" x="549.6" y="-609.18" font-family="monospace" font-size="10.00">uses</text>
</g>
<!-- lightning_service_executor::shim&#45;&gt;lightning_types -->
<g id="edge13" class="edge">
<title>lightning_service_executor::shim&#45;&gt;lightning_types</title>
<path fill="none" stroke="#7f7f7f" stroke-dasharray="5,2" d="M598.72,-850.89C558.8,-850.89 514.53,-850.89 479.53,-850.89"/>
<polygon fill="#7f7f7f" stroke="#7f7f7f" points="479.45,-847.39 469.45,-850.89 479.45,-854.39 479.45,-847.39"/>
<text text-anchor="middle" x="526.63" y="-853.89" font-family="monospace" font-size="10.00">uses</text>
</g>
<!-- lightning_service_executor::test_services::io_stress -->
<g id="node8" class="node">
<title>lightning_service_executor::test_services::io_stress</title>
<polygon fill="#81c169" stroke="black" points="1284.1,-582.77 1284.1,-620.77 1613.1,-620.77 1613.1,-582.77 1284.1,-582.77"/>
<text text-anchor="middle" x="1448.6" y="-608.77" font-family="monospace" font-size="10.00">pub mod</text>
<polyline fill="none" stroke="black" points="1284.1,-601.77 1613.1,-601.77 "/>
<text text-anchor="middle" x="1448.6" y="-589.77" font-family="monospace" font-size="10.00">lightning_service_executor::test_services::io_stress</text>
</g>
<!-- lightning_service_executor::test_services&#45;&gt;lightning_service_executor::test_services::io_stress -->
<g id="edge14" class="edge">
<title>lightning_service_executor::test_services&#45;&gt;lightning_service_executor::test_services::io_stress</title>
<path fill="none" stroke="#000000" d="M1276.15,-601.77C1276.31,-601.77 1276.47,-601.77 1276.63,-601.77"/>
<polygon fill="#000000" stroke="#000000" points="1273.88,-605.27 1283.88,-601.77 1273.88,-598.27 1273.88,-605.27"/>
<text text-anchor="middle" x="1288.89" y="-604.77" font-family="monospace" font-size="10.00">owns</text>
</g>
</g>
</svg>
