<?xml version="1.0" encoding="UTF-8" standalone="no"?>
<!DOCTYPE svg PUBLIC "-//W3C//DTD SVG 1.1//EN"
 "http://www.w3.org/Graphics/SVG/1.1/DTD/svg11.dtd">
<!-- Generated by graphviz version 4.0.0 (0)
 -->
<!-- Pages: 1 -->
<svg width="1908pt" height="1392pt"
 viewBox="0.00 0.00 1907.62 1392.08" xmlns="http://www.w3.org/2000/svg" xmlns:xlink="http://www.w3.org/1999/xlink">
<g id="graph0" class="graph" transform="scale(1 1) rotate(0) translate(28.8 1363.28)">
<polygon fill="white" stroke="transparent" points="-28.8,28.8 -28.8,-1363.28 1878.82,-1363.28 1878.82,28.8 -28.8,28.8"/>
<text text-anchor="middle" x="925.01" y="-1301.68" font-family="Helvetica,sans-Serif" font-size="36.00">lightning_consensus</text>
<!-- fdi -->
<g id="node1" class="node">
<title>fdi</title>
<polygon fill="#5397c8" stroke="black" points="1417.07,-337.09 1417.07,-375.09 1518.07,-375.09 1518.07,-337.09 1417.07,-337.09"/>
<text text-anchor="middle" x="1467.57" y="-363.09" font-family="monospace" font-size="10.00">external crate</text>
<polyline fill="none" stroke="black" points="1417.07,-356.09 1518.07,-356.09 "/>
<text text-anchor="middle" x="1467.57" y="-344.09" font-family="monospace" font-size="10.00">fdi</text>
</g>
<!-- fleek_blake3 -->
<g id="node2" class="node">
<title>fleek_blake3</title>
<polygon fill="#5397c8" stroke="black" points="1629.58,-0.5 1629.58,-38.5 1730.58,-38.5 1730.58,-0.5 1629.58,-0.5"/>
<text text-anchor="middle" x="1680.08" y="-26.5" font-family="monospace" font-size="10.00">external crate</text>
<polyline fill="none" stroke="black" points="1629.58,-19.5 1730.58,-19.5 "/>
<text text-anchor="middle" x="1680.08" y="-7.5" font-family="monospace" font-size="10.00">fleek_blake3</text>
</g>
<!-- lightning_consensus -->
<g id="node3" class="node">
<title>lightning_consensus</title>
<polygon fill="#5397c8" stroke="black" points="935.76,-557.65 935.76,-595.65 1066.76,-595.65 1066.76,-557.65 935.76,-557.65"/>
<text text-anchor="middle" x="1001.26" y="-583.65" font-family="monospace" font-size="10.00">crate</text>
<polyline fill="none" stroke="black" points="935.76,-576.65 1066.76,-576.65 "/>
<text text-anchor="middle" x="1001.26" y="-564.65" font-family="monospace" font-size="10.00">lightning_consensus</text>
</g>
<!-- lightning_consensus::config -->
<g id="node4" class="node">
<title>lightning_consensus::config</title>
<polygon fill="#81c169" stroke="black" points="881.33,-876.88 881.33,-914.88 1060.33,-914.88 1060.33,-876.88 881.33,-876.88"/>
<text text-anchor="middle" x="970.83" y="-902.88" font-family="monospace" font-size="10.00">pub mod</text>
<polyline fill="none" stroke="black" points="881.33,-895.88 1060.33,-895.88 "/>
<text text-anchor="middle" x="970.83" y="-883.88" font-family="monospace" font-size="10.00">lightning_consensus::config</text>
</g>
<!-- lightning_consensus&#45;&gt;lightning_consensus::config -->
<g id="edge1" class="edge">
<title>lightning_consensus&#45;&gt;lightning_consensus::config</title>
<path fill="none" stroke="#000000" d="M999.45,-595.66C994.34,-649.21 979.82,-801.56 973.65,-866.25"/>
<polygon fill="#000000" stroke="#000000" points="970.13,-866.27 972.67,-876.56 977.1,-866.94 970.13,-866.27"/>
<text text-anchor="middle" x="974.05" y="-733.96" font-family="monospace" font-size="10.00">owns</text>
</g>
<!-- lightning_consensus::consensus -->
<g id="node5" class="node">
<title>lightning_consensus::consensus</title>
<polygon fill="#81c169" stroke="black" points="1245.98,-748.06 1245.98,-786.06 1442.98,-786.06 1442.98,-748.06 1245.98,-748.06"/>
<text text-anchor="middle" x="1344.48" y="-774.06" font-family="monospace" font-size="10.00">pub mod</text>
<polyline fill="none" stroke="black" points="1245.98,-767.06 1442.98,-767.06 "/>
<text text-anchor="middle" x="1344.48" y="-755.06" font-family="monospace" font-size="10.00">lightning_consensus::consensus</text>
</g>
<!-- lightning_consensus&#45;&gt;lightning_consensus::consensus -->
<g id="edge2" class="edge">
<title>lightning_consensus&#45;&gt;lightning_consensus::consensus</title>
<path fill="none" stroke="#000000" d="M1035.74,-595.78C1098.7,-630.71 1232.13,-704.73 1301.13,-743.01"/>
<polygon fill="#000000" stroke="#000000" points="1299.58,-746.15 1310.03,-747.94 1302.98,-740.03 1299.58,-746.15"/>
<text text-anchor="middle" x="1155.94" y="-672.39" font-family="monospace" font-size="10.00">owns</text>
</g>
<!-- lightning_consensus::edge_node -->
<g id="node6" class="node">
<title>lightning_consensus::edge_node</title>
<polygon fill="#81c169" stroke="black" points="1187.3,-382.96 1187.3,-420.96 1384.3,-420.96 1384.3,-382.96 1187.3,-382.96"/>
<text text-anchor="middle" x="1285.8" y="-408.96" font-family="monospace" font-size="10.00">pub mod</text>
<polyline fill="none" stroke="black" points="1187.3,-401.96 1384.3,-401.96 "/>
<text text-anchor="middle" x="1285.8" y="-389.96" font-family="monospace" font-size="10.00">lightning_consensus::edge_node</text>
</g>
<!-- lightning_consensus&#45;&gt;lightning_consensus::edge_node -->
<g id="edge3" class="edge">
<title>lightning_consensus&#45;&gt;lightning_consensus::edge_node</title>
<path fill="none" stroke="#000000" d="M1032.25,-557.62C1084.21,-525.72 1188.8,-461.51 1246.08,-426.35"/>
<polygon fill="#000000" stroke="#000000" points="1248.16,-429.18 1254.85,-420.96 1244.49,-423.21 1248.16,-429.18"/>
<text text-anchor="middle" x="1126.66" y="-494.98" font-family="monospace" font-size="10.00">owns</text>
</g>
<!-- lightning_consensus::execution -->
<g id="node10" class="node">
<title>lightning_consensus::execution</title>
<polygon fill="#81c169" stroke="black" points="1329.18,-482.87 1329.18,-520.87 1526.18,-520.87 1526.18,-482.87 1329.18,-482.87"/>
<text text-anchor="middle" x="1427.68" y="-508.87" font-family="monospace" font-size="10.00">pub mod</text>
<polyline fill="none" stroke="black" points="1329.18,-501.87 1526.18,-501.87 "/>
<text text-anchor="middle" x="1427.68" y="-489.87" font-family="monospace" font-size="10.00">lightning_consensus::execution</text>
</g>
<!-- lightning_consensus&#45;&gt;lightning_consensus::execution -->
<g id="edge4" class="edge">
<title>lightning_consensus&#45;&gt;lightning_consensus::execution</title>
<path fill="none" stroke="#000000" d="M1066.95,-565.13C1134.05,-553.36 1239.38,-534.89 1318.94,-520.94"/>
<polygon fill="#000000" stroke="#000000" points="1319.76,-524.35 1329,-519.17 1318.55,-517.45 1319.76,-524.35"/>
<text text-anchor="middle" x="1180.45" y="-546.03" font-family="monospace" font-size="10.00">owns</text>
</g>
<!-- lightning_consensus::narwhal -->
<g id="node11" class="node">
<title>lightning_consensus::narwhal</title>
<polygon fill="#81c169" stroke="black" points="714.54,-640.38 714.54,-678.38 899.54,-678.38 899.54,-640.38 714.54,-640.38"/>
<text text-anchor="middle" x="807.04" y="-666.38" font-family="monospace" font-size="10.00">pub mod</text>
<polyline fill="none" stroke="black" points="714.54,-659.38 899.54,-659.38 "/>
<text text-anchor="middle" x="807.04" y="-647.38" font-family="monospace" font-size="10.00">lightning_consensus::narwhal</text>
</g>
<!-- lightning_consensus&#45;&gt;lightning_consensus::narwhal -->
<g id="edge5" class="edge">
<title>lightning_consensus&#45;&gt;lightning_consensus::narwhal</title>
<path fill="none" stroke="#000000" d="M956.21,-595.84C927.9,-607.9 891.21,-623.53 861.3,-636.27"/>
<polygon fill="#000000" stroke="#000000" points="859.67,-633.16 851.84,-640.29 862.42,-639.6 859.67,-633.16"/>
<text text-anchor="middle" x="896.25" y="-619.05" font-family="monospace" font-size="10.00">owns</text>
</g>
<!-- lightning_consensus::validator -->
<g id="node12" class="node">
<title>lightning_consensus::validator</title>
<polygon fill="#81c169" stroke="black" points="390.94,-500.38 390.94,-538.38 587.94,-538.38 587.94,-500.38 390.94,-500.38"/>
<text text-anchor="middle" x="489.44" y="-526.38" font-family="monospace" font-size="10.00">pub mod</text>
<polyline fill="none" stroke="black" points="390.94,-519.38 587.94,-519.38 "/>
<text text-anchor="middle" x="489.44" y="-507.38" font-family="monospace" font-size="10.00">lightning_consensus::validator</text>
</g>
<!-- lightning_consensus&#45;&gt;lightning_consensus::validator -->
<g id="edge6" class="edge">
<title>lightning_consensus&#45;&gt;lightning_consensus::validator</title>
<path fill="none" stroke="#000000" d="M935.66,-569.31C850.42,-559.77 700.44,-542.99 598.09,-531.54"/>
<polygon fill="#000000" stroke="#000000" points="598.36,-528.04 588.03,-530.41 597.58,-535 598.36,-528.04"/>
<text text-anchor="middle" x="754.37" y="-553.42" font-family="monospace" font-size="10.00">owns</text>
</g>
<!-- lightning_consensus::consensus&#45;&gt;fdi -->
<g id="edge7" class="edge">
<title>lightning_consensus::consensus&#45;&gt;fdi</title>
<path fill="none" stroke="#7f7f7f" stroke-dasharray="5,2" d="M1350.26,-747.79C1370.04,-681.72 1435.21,-464.13 1458.88,-385.1"/>
<polygon fill="#7f7f7f" stroke="#7f7f7f" points="1462.3,-385.91 1461.81,-375.32 1455.59,-383.9 1462.3,-385.91"/>
<text text-anchor="middle" x="1392.07" y="-569.44" font-family="monospace" font-size="10.00">uses</text>
</g>
<!-- lightning_consensus::consensus&#45;&gt;lightning_consensus::config -->
<g id="edge8" class="edge">
<title>lightning_consensus::consensus&#45;&gt;lightning_consensus::config</title>
<path fill="none" stroke="#7f7f7f" stroke-dasharray="5,2" d="M1289.35,-786.06C1221.88,-809.32 1107.78,-848.66 1036.02,-873.4"/>
<polygon fill="#7f7f7f" stroke="#7f7f7f" points="1034.5,-870.22 1026.19,-876.79 1036.78,-876.84 1034.5,-870.22"/>
<text text-anchor="middle" x="1150.19" y="-832.73" font-family="monospace" font-size="10.00">uses</text>
</g>
<!-- lightning_consensus::edge_node::consensus -->
<g id="node7" class="node">
<title>lightning_consensus::edge_node::consensus</title>
<polygon fill="#81c169" stroke="black" points="1394.88,-647.46 1394.88,-685.46 1657.88,-685.46 1657.88,-647.46 1394.88,-647.46"/>
<text text-anchor="middle" x="1526.38" y="-673.46" font-family="monospace" font-size="10.00">pub mod</text>
<polyline fill="none" stroke="black" points="1394.88,-666.46 1657.88,-666.46 "/>
<text text-anchor="middle" x="1526.38" y="-654.46" font-family="monospace" font-size="10.00">lightning_consensus::edge_node::consensus</text>
</g>
<!-- lightning_consensus::consensus&#45;&gt;lightning_consensus::edge_node::consensus -->
<g id="edge9" class="edge">
<title>lightning_consensus::consensus&#45;&gt;lightning_consensus::edge_node::consensus</title>
<path fill="none" stroke="#7f7f7f" stroke-dasharray="5,2" d="M1434.02,-748.05C1465.47,-732.15 1497.12,-711.3 1514.34,-693.6"/>
<polygon fill="#7f7f7f" stroke="#7f7f7f" points="1517.27,-695.57 1521.19,-685.72 1511.99,-690.97 1517.27,-695.57"/>
<text text-anchor="middle" x="1461.68" y="-723.83" font-family="monospace" font-size="10.00">uses</text>
</g>
<!-- lightning_consensus::consensus&#45;&gt;lightning_consensus::execution -->
<g id="edge10" class="edge">
<title>lightning_consensus::consensus&#45;&gt;lightning_consensus::execution</title>
<path fill="none" stroke="#7f7f7f" stroke-dasharray="5,2" d="M1350.47,-747.98C1364.85,-702.13 1401.45,-585.47 1418.58,-530.87"/>
<polygon fill="#7f7f7f" stroke="#7f7f7f" points="1421.98,-531.71 1421.64,-521.12 1415.3,-529.62 1421.98,-531.71"/>
<text text-anchor="middle" x="1372.02" y="-642.43" font-family="monospace" font-size="10.00">uses</text>
</g>
<!-- lightning_consensus::consensus&#45;&gt;lightning_consensus::narwhal -->
<g id="edge11" class="edge">
<title>lightning_consensus::consensus&#45;&gt;lightning_consensus::narwhal</title>
<path fill="none" stroke="#7f7f7f" stroke-dasharray="5,2" d="M1249.64,-748.05C1154.22,-728.94 1007.56,-699.55 909.52,-679.91"/>
<polygon fill="#7f7f7f" stroke="#7f7f7f" points="910.09,-676.45 899.59,-677.92 908.71,-683.32 910.09,-676.45"/>
<text text-anchor="middle" x="1067.08" y="-716.98" font-family="monospace" font-size="10.00">uses</text>
</g>
<!-- lightning_schema -->
<g id="node13" class="node">
<title>lightning_schema</title>
<polygon fill="#5397c8" stroke="black" points="1737.02,-576.88 1737.02,-614.88 1850.02,-614.88 1850.02,-576.88 1737.02,-576.88"/>
<text text-anchor="middle" x="1793.52" y="-602.88" font-family="monospace" font-size="10.00">external crate</text>
<polyline fill="none" stroke="black" points="1737.02,-595.88 1850.02,-595.88 "/>
<text text-anchor="middle" x="1793.52" y="-583.88" font-family="monospace" font-size="10.00">lightning_schema</text>
</g>
<!-- lightning_consensus::consensus&#45;&gt;lightning_schema -->
<g id="edge12" class="edge">
<title>lightning_consensus::consensus&#45;&gt;lightning_schema</title>
<path fill="none" stroke="#7f7f7f" stroke-dasharray="5,2" d="M1394.69,-747.92C1478.15,-716.1 1645.08,-652.47 1734.22,-618.49"/>
<polygon fill="#7f7f7f" stroke="#7f7f7f" points="1735.54,-621.73 1743.64,-614.9 1733.05,-615.19 1735.54,-621.73"/>
<text text-anchor="middle" x="1551.95" y="-686.2" font-family="monospace" font-size="10.00">uses</text>
</g>
<!-- lightning_types -->
<g id="node14" class="node">
<title>lightning_types</title>
<polygon fill="#5397c8" stroke="black" points="1668.22,-712.24 1668.22,-750.24 1775.22,-750.24 1775.22,-712.24 1668.22,-712.24"/>
<text text-anchor="middle" x="1721.72" y="-738.24" font-family="monospace" font-size="10.00">external crate</text>
<polyline fill="none" stroke="black" points="1668.22,-731.24 1775.22,-731.24 "/>
<text text-anchor="middle" x="1721.72" y="-719.24" font-family="monospace" font-size="10.00">lightning_types</text>
</g>
<!-- lightning_consensus::consensus&#45;&gt;lightning_types -->
<g id="edge13" class="edge">
<title>lightning_consensus::consensus&#45;&gt;lightning_types</title>
<path fill="none" stroke="#7f7f7f" stroke-dasharray="5,2" d="M1443.1,-757.69C1510.96,-751.25 1599.11,-742.88 1657.91,-737.29"/>
<polygon fill="#7f7f7f" stroke="#7f7f7f" points="1658.55,-740.75 1668.17,-736.32 1657.89,-733.78 1658.55,-740.75"/>
<text text-anchor="middle" x="1538.01" y="-750.49" font-family="monospace" font-size="10.00">uses</text>
</g>
<!-- tokio::sync::mpsc -->
<g id="node16" class="node">
<title>tokio::sync::mpsc</title>
<polygon fill="#81c169" stroke="black" points="1519.19,-897.58 1519.19,-935.58 1638.19,-935.58 1638.19,-897.58 1519.19,-897.58"/>
<text text-anchor="middle" x="1578.69" y="-923.58" font-family="monospace" font-size="10.00">external mod</text>
<polyline fill="none" stroke="black" points="1519.19,-916.58 1638.19,-916.58 "/>
<text text-anchor="middle" x="1578.69" y="-904.58" font-family="monospace" font-size="10.00">tokio::sync::mpsc</text>
</g>
<!-- lightning_consensus::consensus&#45;&gt;tokio::sync::mpsc -->
<g id="edge14" class="edge">
<title>lightning_consensus::consensus&#45;&gt;tokio::sync::mpsc</title>
<path fill="none" stroke="#7f7f7f" stroke-dasharray="5,2" d="M1374.62,-786.3C1416.87,-813.27 1493.71,-862.33 1540.09,-891.94"/>
<polygon fill="#7f7f7f" stroke="#7f7f7f" points="1538.35,-894.98 1548.66,-897.41 1542.12,-889.08 1538.35,-894.98"/>
<text text-anchor="middle" x="1444.86" y="-842.12" font-family="monospace" font-size="10.00">uses</text>
</g>
<!-- tokio::task -->
<g id="node17" class="node">
<title>tokio::task</title>
<polygon fill="#81c169" stroke="black" points="1132.37,-1215.85 1132.37,-1253.85 1221.37,-1253.85 1221.37,-1215.85 1132.37,-1215.85"/>
<text text-anchor="middle" x="1176.87" y="-1241.85" font-family="monospace" font-size="10.00">external mod</text>
<polyline fill="none" stroke="black" points="1132.37,-1234.85 1221.37,-1234.85 "/>
<text text-anchor="middle" x="1176.87" y="-1222.85" font-family="monospace" font-size="10.00">tokio::task</text>
</g>
<!-- lightning_consensus::consensus&#45;&gt;tokio::task -->
<g id="edge15" class="edge">
<title>lightning_consensus::consensus&#45;&gt;tokio::task</title>
<path fill="none" stroke="#7f7f7f" stroke-dasharray="5,2" d="M1337.6,-786.27C1311.47,-859.2 1218.3,-1119.21 1187.12,-1206.24"/>
<polygon fill="#7f7f7f" stroke="#7f7f7f" points="1183.79,-1205.14 1183.71,-1215.74 1190.38,-1207.51 1183.79,-1205.14"/>
<text text-anchor="middle" x="1249.86" y="-999.25" font-family="monospace" font-size="10.00">uses</text>
</g>
<!-- tokio::time -->
<g id="node18" class="node">
<title>tokio::time</title>
<polygon fill="#81c169" stroke="black" points="1444.74,-1247.98 1444.74,-1285.98 1533.74,-1285.98 1533.74,-1247.98 1444.74,-1247.98"/>
<text text-anchor="middle" x="1489.24" y="-1273.98" font-family="monospace" font-size="10.00">external mod</text>
<polyline fill="none" stroke="black" points="1444.74,-1266.98 1533.74,-1266.98 "/>
<text text-anchor="middle" x="1489.24" y="-1254.98" font-family="monospace" font-size="10.00">tokio::time</text>
</g>
<!-- lightning_consensus::consensus&#45;&gt;tokio::time -->
<g id="edge16" class="edge">
<title>lightning_consensus::consensus&#45;&gt;tokio::time</title>
<path fill="none" stroke="#7f7f7f" stroke-dasharray="5,2" d="M1350.07,-786.35C1372.26,-862.98 1454.25,-1146.14 1480.85,-1238"/>
<polygon fill="#7f7f7f" stroke="#7f7f7f" points="1477.52,-1239.11 1483.67,-1247.74 1484.25,-1237.17 1477.52,-1239.11"/>
<text text-anchor="middle" x="1402.96" y="-1015.17" font-family="monospace" font-size="10.00">uses</text>
</g>
<!-- lightning_consensus::edge_node&#45;&gt;lightning_consensus::edge_node::consensus -->
<g id="edge17" class="edge">
<title>lightning_consensus::edge_node&#45;&gt;lightning_consensus::edge_node::consensus</title>
<path fill="none" stroke="#000000" d="M1303.1,-420.98C1345.22,-467.29 1453.19,-585.99 1501.9,-639.54"/>
<polygon fill="#000000" stroke="#000000" points="1499.6,-642.21 1508.91,-647.26 1504.77,-637.5 1499.6,-642.21"/>
<text text-anchor="middle" x="1390" y="-533.26" font-family="monospace" font-size="10.00">owns</text>
</g>
<!-- lightning_consensus::edge_node::ring_buffer -->
<g id="node8" class="node">
<title>lightning_consensus::edge_node::ring_buffer</title>
<polygon fill="#f8c04c" stroke="black" points="1505.33,-406.23 1505.33,-444.23 1780.33,-444.23 1780.33,-406.23 1505.33,-406.23"/>
<text text-anchor="middle" x="1642.83" y="-432.23" font-family="monospace" font-size="10.00">pub(crate) mod</text>
<polyline fill="none" stroke="black" points="1505.33,-425.23 1780.33,-425.23 "/>
<text text-anchor="middle" x="1642.83" y="-413.23" font-family="monospace" font-size="10.00">lightning_consensus::edge_node::ring_buffer</text>
</g>
<!-- lightning_consensus::edge_node&#45;&gt;lightning_consensus::edge_node::ring_buffer -->
<g id="edge18" class="edge">
<title>lightning_consensus::edge_node&#45;&gt;lightning_consensus::edge_node::ring_buffer</title>
<path fill="none" stroke="#000000" d="M1384.31,-408.38C1418.45,-410.6 1457.53,-413.15 1494.78,-415.58"/>
<polygon fill="#000000" stroke="#000000" points="1495.02,-419.1 1505.23,-416.26 1495.48,-412.12 1495.02,-419.1"/>
<text text-anchor="middle" x="1427.04" y="-414.98" font-family="monospace" font-size="10.00">owns</text>
</g>
<!-- lightning_consensus::edge_node::transaction_store -->
<g id="node9" class="node">
<title>lightning_consensus::edge_node::transaction_store</title>
<polygon fill="#db5367" stroke="black" points="1487.91,-529.87 1487.91,-567.87 1798.91,-567.87 1798.91,-529.87 1487.91,-529.87"/>
<text text-anchor="middle" x="1643.41" y="-555.87" font-family="monospace" font-size="10.00">pub(self) mod</text>
<polyline fill="none" stroke="black" points="1487.91,-548.87 1798.91,-548.87 "/>
<text text-anchor="middle" x="1643.41" y="-536.87" font-family="monospace" font-size="10.00">lightning_consensus::edge_node::transaction_store</text>
</g>
<!-- lightning_consensus::edge_node&#45;&gt;lightning_consensus::edge_node::transaction_store -->
<g id="edge19" class="edge">
<title>lightning_consensus::edge_node&#45;&gt;lightning_consensus::edge_node::transaction_store</title>
<path fill="none" stroke="#000000" d="M1332.18,-421.02C1397.7,-447.93 1517.19,-497.02 1587.52,-525.91"/>
<polygon fill="#000000" stroke="#000000" points="1586.52,-529.29 1597.1,-529.85 1589.18,-522.81 1586.52,-529.29"/>
<text text-anchor="middle" x="1447.35" y="-465.46" font-family="monospace" font-size="10.00">owns</text>
</g>
<!-- lightning_consensus::edge_node::consensus&#45;&gt;fdi -->
<g id="edge20" class="edge">
<title>lightning_consensus::edge_node::consensus&#45;&gt;fdi</title>
<path fill="none" stroke="#7f7f7f" stroke-dasharray="5,2" d="M1522.7,-647.05C1512.7,-594.23 1484.94,-447.73 1473.07,-385.1"/>
<polygon fill="#7f7f7f" stroke="#7f7f7f" points="1476.47,-384.28 1471.17,-375.11 1469.6,-385.58 1476.47,-384.28"/>
<text text-anchor="middle" x="1485.39" y="-519.07" font-family="monospace" font-size="10.00">uses</text>
</g>
<!-- lightning_consensus::edge_node::consensus&#45;&gt;lightning_consensus::consensus -->
<g id="edge21" class="edge">
<title>lightning_consensus::edge_node::consensus&#45;&gt;lightning_consensus::consensus</title>
<path fill="none" stroke="#7f7f7f" stroke-dasharray="5,2" d="M1436.85,-685.47C1405.4,-701.37 1373.75,-722.22 1356.52,-739.92"/>
<polygon fill="#7f7f7f" stroke="#7f7f7f" points="1353.59,-737.95 1349.68,-747.8 1358.88,-742.54 1353.59,-737.95"/>
<text text-anchor="middle" x="1384.18" y="-715.69" font-family="monospace" font-size="10.00">uses</text>
</g>
<!-- lightning_consensus::edge_node::consensus&#45;&gt;lightning_consensus::edge_node::transaction_store -->
<g id="edge22" class="edge">
<title>lightning_consensus::edge_node::consensus&#45;&gt;lightning_consensus::edge_node::transaction_store</title>
<path fill="none" stroke="#7f7f7f" stroke-dasharray="5,2" d="M1545.44,-647.31C1564.91,-627.75 1595.28,-597.23 1617.04,-575.36"/>
<polygon fill="#7f7f7f" stroke="#7f7f7f" points="1619.78,-577.58 1624.35,-568.02 1614.82,-572.64 1619.78,-577.58"/>
<text text-anchor="middle" x="1568.74" y="-603.34" font-family="monospace" font-size="10.00">uses</text>
</g>
<!-- lightning_consensus::edge_node::consensus&#45;&gt;lightning_consensus::execution -->
<g id="edge23" class="edge">
<title>lightning_consensus::edge_node::consensus&#45;&gt;lightning_consensus::execution</title>
<path fill="none" stroke="#7f7f7f" stroke-dasharray="5,2" d="M1514.87,-647.26C1497.48,-618.27 1464.44,-563.18 1444.4,-529.76"/>
<polygon fill="#7f7f7f" stroke="#7f7f7f" points="1447.26,-527.73 1439.12,-520.95 1441.26,-531.33 1447.26,-527.73"/>
<text text-anchor="middle" x="1467.13" y="-591.51" font-family="monospace" font-size="10.00">uses</text>
</g>
<!-- lightning_consensus::edge_node::consensus&#45;&gt;lightning_schema -->
<g id="edge24" class="edge">
<title>lightning_consensus::edge_node::consensus&#45;&gt;lightning_schema</title>
<path fill="none" stroke="#7f7f7f" stroke-dasharray="5,2" d="M1598.32,-647.46C1638.35,-636.88 1687.85,-623.8 1726.98,-613.47"/>
<polygon fill="#7f7f7f" stroke="#7f7f7f" points="1727.92,-616.84 1736.69,-610.9 1726.13,-610.07 1727.92,-616.84"/>
<text text-anchor="middle" x="1650.15" y="-633.46" font-family="monospace" font-size="10.00">uses</text>
</g>
<!-- lightning_consensus::edge_node::consensus&#45;&gt;lightning_types -->
<g id="edge25" class="edge">
<title>lightning_consensus::edge_node::consensus&#45;&gt;lightning_types</title>
<path fill="none" stroke="#7f7f7f" stroke-dasharray="5,2" d="M1583.93,-685.55C1607.27,-693.29 1634.32,-702.25 1658.23,-710.18"/>
<polygon fill="#7f7f7f" stroke="#7f7f7f" points="1657.33,-713.57 1667.92,-713.4 1659.53,-706.93 1657.33,-713.57"/>
<text text-anchor="middle" x="1608.58" y="-700.87" font-family="monospace" font-size="10.00">uses</text>
</g>
<!-- lightning_consensus::edge_node::consensus&#45;&gt;tokio::sync::mpsc -->
<g id="edge26" class="edge">
<title>lightning_consensus::edge_node::consensus&#45;&gt;tokio::sync::mpsc</title>
<path fill="none" stroke="#7f7f7f" stroke-dasharray="5,2" d="M1530.4,-685.67C1539.51,-729.23 1561.78,-835.71 1572.59,-887.43"/>
<polygon fill="#7f7f7f" stroke="#7f7f7f" points="1569.18,-888.23 1574.66,-897.31 1576.04,-886.8 1569.18,-888.23"/>
<text text-anchor="middle" x="1539" y="-789.55" font-family="monospace" font-size="10.00">uses</text>
</g>
<!-- lightning_consensus::edge_node::ring_buffer&#45;&gt;fdi -->
<g id="edge27" class="edge">
<title>lightning_consensus::edge_node::ring_buffer&#45;&gt;fdi</title>
<path fill="none" stroke="#7f7f7f" stroke-dasharray="5,2" d="M1594.48,-406.15C1573.02,-397.69 1547.61,-387.67 1525.18,-378.82"/>
<polygon fill="#7f7f7f" stroke="#7f7f7f" points="1526.35,-375.52 1515.77,-375.11 1523.79,-382.03 1526.35,-375.52"/>
<text text-anchor="middle" x="1547.33" y="-395.49" font-family="monospace" font-size="10.00">uses</text>
</g>
<!-- lightning_consensus::edge_node::ring_buffer&#45;&gt;lightning_consensus::consensus -->
<g id="edge28" class="edge">
<title>lightning_consensus::edge_node::ring_buffer&#45;&gt;lightning_consensus::consensus</title>
<path fill="none" stroke="#7f7f7f" stroke-dasharray="5,2" d="M1625.93,-444.59C1575.47,-502.4 1425.79,-673.9 1367.8,-740.34"/>
<polygon fill="#7f7f7f" stroke="#7f7f7f" points="1365.13,-738.07 1361.19,-747.91 1370.41,-742.68 1365.13,-738.07"/>
<text text-anchor="middle" x="1509.37" y="-595.46" font-family="monospace" font-size="10.00">uses</text>
</g>
<!-- lightning_consensus::edge_node::ring_buffer&#45;&gt;lightning_consensus::edge_node::transaction_store -->
<g id="edge29" class="edge">
<title>lightning_consensus::edge_node::ring_buffer&#45;&gt;lightning_consensus::edge_node::transaction_store</title>
<path fill="none" stroke="#7f7f7f" stroke-dasharray="5,2" d="M1622.77,-444.37C1614.93,-464.59 1614.04,-496.7 1619.99,-520"/>
<polygon fill="#7f7f7f" stroke="#7f7f7f" points="1616.71,-521.23 1623.08,-529.69 1623.38,-519.1 1616.71,-521.23"/>
<text text-anchor="middle" x="1608.88" y="-485.18" font-family="monospace" font-size="10.00">uses</text>
</g>
<!-- lightning_consensus::edge_node::ring_buffer&#45;&gt;lightning_consensus::execution -->
<g id="edge30" class="edge">
<title>lightning_consensus::edge_node::ring_buffer&#45;&gt;lightning_consensus::execution</title>
<path fill="none" stroke="#7f7f7f" stroke-dasharray="5,2" d="M1589.37,-444.27C1559.48,-454.92 1522.06,-468.25 1490.74,-479.4"/>
<polygon fill="#7f7f7f" stroke="#7f7f7f" points="1489.48,-476.14 1481.24,-482.79 1491.83,-482.73 1489.48,-476.14"/>
<text text-anchor="middle" x="1527.56" y="-464.84" font-family="monospace" font-size="10.00">uses</text>
</g>
<!-- lightning_consensus::edge_node::ring_buffer&#45;&gt;lightning_schema -->
<g id="edge31" class="edge">
<title>lightning_consensus::edge_node::ring_buffer&#45;&gt;lightning_schema</title>
<path fill="none" stroke="#7f7f7f" stroke-dasharray="5,2" d="M1659.82,-444.47C1686.69,-474.9 1739.05,-534.2 1769.67,-568.87"/>
<polygon fill="#7f7f7f" stroke="#7f7f7f" points="1767.35,-571.53 1776.59,-576.71 1772.6,-566.9 1767.35,-571.53"/>
<text text-anchor="middle" x="1702.25" y="-509.67" font-family="monospace" font-size="10.00">uses</text>
</g>
<!-- lightning_consensus::edge_node::ring_buffer&#45;&gt;lightning_types -->
<g id="edge32" class="edge">
<title>lightning_consensus::edge_node::ring_buffer&#45;&gt;lightning_types</title>
<path fill="none" stroke="#7f7f7f" stroke-dasharray="5,2" d="M1647.76,-444.37C1661.16,-496.32 1698.25,-640.2 1714.23,-702.2"/>
<polygon fill="#7f7f7f" stroke="#7f7f7f" points="1710.9,-703.29 1716.78,-712.1 1717.68,-701.54 1710.9,-703.29"/>
<text text-anchor="middle" x="1668.5" y="-576.28" font-family="monospace" font-size="10.00">uses</text>
</g>
<!-- lightning_consensus::edge_node::transaction_store&#45;&gt;fdi -->
<g id="edge33" class="edge">
<title>lightning_consensus::edge_node::transaction_store&#45;&gt;fdi</title>
<path fill="none" stroke="#7f7f7f" stroke-dasharray="5,2" d="M1625.9,-529.69C1594.31,-495.04 1527.69,-422.01 1491.76,-382.61"/>
<polygon fill="#7f7f7f" stroke="#7f7f7f" points="1494.33,-380.24 1485,-375.21 1489.16,-384.95 1494.33,-380.24"/>
<text text-anchor="middle" x="1546.33" y="-448.15" font-family="monospace" font-size="10.00">uses</text>
</g>
<!-- lightning_consensus::edge_node::transaction_store&#45;&gt;lightning_consensus::consensus -->
<g id="edge34" class="edge">
<title>lightning_consensus::edge_node::transaction_store&#45;&gt;lightning_consensus::consensus</title>
<path fill="none" stroke="#7f7f7f" stroke-dasharray="5,2" d="M1617.14,-568.05C1563.1,-607.49 1439.46,-697.73 1379.03,-741.84"/>
<polygon fill="#7f7f7f" stroke="#7f7f7f" points="1376.6,-739.28 1370.58,-748.01 1380.72,-744.94 1376.6,-739.28"/>
<text text-anchor="middle" x="1485.58" y="-646.94" font-family="monospace" font-size="10.00">uses</text>
</g>
<!-- lightning_consensus::edge_node::transaction_store&#45;&gt;lightning_consensus::edge_node::ring_buffer -->
<g id="edge35" class="edge">
<title>lightning_consensus::edge_node::transaction_store&#45;&gt;lightning_consensus::edge_node::ring_buffer</title>
<path fill="none" stroke="#7f7f7f" stroke-dasharray="5,2" d="M1663.46,-529.73C1671.3,-509.51 1672.2,-477.4 1666.24,-454.1"/>
<polygon fill="#7f7f7f" stroke="#7f7f7f" points="1669.53,-452.87 1663.15,-444.41 1662.86,-455 1669.53,-452.87"/>
<text text-anchor="middle" x="1652.35" y="-494.92" font-family="monospace" font-size="10.00">uses</text>
</g>
<!-- lightning_consensus::edge_node::transaction_store&#45;&gt;lightning_consensus::execution -->
<g id="edge36" class="edge">
<title>lightning_consensus::edge_node::transaction_store&#45;&gt;lightning_consensus::execution</title>
<path fill="none" stroke="#7f7f7f" stroke-dasharray="5,2" d="M1555.97,-529.82C1545.71,-527.59 1535.18,-525.29 1524.79,-523.03"/>
<polygon fill="#7f7f7f" stroke="#7f7f7f" points="1525.4,-519.58 1514.89,-520.87 1523.91,-526.42 1525.4,-519.58"/>
<text text-anchor="middle" x="1552.88" y="-518.43" font-family="monospace" font-size="10.00">uses</text>
</g>
<!-- lightning_consensus::edge_node::transaction_store&#45;&gt;lightning_schema -->
<g id="edge37" class="edge">
<title>lightning_consensus::edge_node::transaction_store&#45;&gt;lightning_schema</title>
<path fill="none" stroke="#7f7f7f" stroke-dasharray="5,2" d="M1704.46,-568C1712,-570.35 1719.73,-572.77 1727.33,-575.16"/>
<polygon fill="#7f7f7f" stroke="#7f7f7f" points="1726.29,-578.5 1736.88,-578.15 1728.38,-571.82 1726.29,-578.5"/>
<text text-anchor="middle" x="1703.4" y="-574.58" font-family="monospace" font-size="10.00">uses</text>
</g>
<!-- lightning_consensus::edge_node::transaction_store&#45;&gt;lightning_types -->
<g id="edge38" class="edge">
<title>lightning_consensus::edge_node::transaction_store&#45;&gt;lightning_types</title>
<path fill="none" stroke="#7f7f7f" stroke-dasharray="5,2" d="M1651.64,-568.05C1665.44,-600.2 1693.33,-665.14 1709.45,-702.68"/>
<polygon fill="#7f7f7f" stroke="#7f7f7f" points="1706.31,-704.24 1713.48,-712.05 1712.75,-701.48 1706.31,-704.24"/>
<text text-anchor="middle" x="1693.05" y="-638.36" font-family="monospace" font-size="10.00">uses</text>
</g>
<!-- lightning_consensus::execution&#45;&gt;fdi -->
<g id="edge39" class="edge">
<title>lightning_consensus::execution&#45;&gt;fdi</title>
<path fill="none" stroke="#7f7f7f" stroke-dasharray="5,2" d="M1432.89,-482.81C1439.7,-457.93 1451.69,-414.14 1459.63,-385.12"/>
<polygon fill="#7f7f7f" stroke="#7f7f7f" points="1463.09,-385.73 1462.35,-375.16 1456.34,-383.88 1463.09,-385.73"/>
<text text-anchor="middle" x="1433.76" y="-436.96" font-family="monospace" font-size="10.00">uses</text>
</g>
<!-- lightning_consensus::execution&#45;&gt;fleek_blake3 -->
<g id="edge40" class="edge">
<title>lightning_consensus::execution&#45;&gt;fleek_blake3</title>
<path fill="none" stroke="#7f7f7f" stroke-dasharray="5,2" d="M1437.73,-482.66C1476.83,-407.94 1618.93,-136.36 1665.32,-47.71"/>
<polygon fill="#7f7f7f" stroke="#7f7f7f" points="1668.46,-49.25 1670,-38.76 1662.26,-46 1668.46,-49.25"/>
<text text-anchor="middle" x="1539.02" y="-268.18" font-family="monospace" font-size="10.00">uses</text>
</g>
<!-- lightning_consensus::execution&#45;&gt;lightning_schema -->
<g id="edge41" class="edge">
<title>lightning_consensus::execution&#45;&gt;lightning_schema</title>
<path fill="none" stroke="#7f7f7f" stroke-dasharray="5,2" d="M1501.71,-520.9C1567.71,-537.85 1663.44,-562.46 1727.03,-578.8"/>
<polygon fill="#7f7f7f" stroke="#7f7f7f" points="1726.4,-582.25 1736.95,-581.35 1728.14,-575.47 1726.4,-582.25"/>
<text text-anchor="middle" x="1601.87" y="-552.85" font-family="monospace" font-size="10.00">uses</text>
</g>
<!-- lightning_consensus::execution&#45;&gt;lightning_types -->
<g id="edge42" class="edge">
<title>lightning_consensus::execution&#45;&gt;lightning_types</title>
<path fill="none" stroke="#7f7f7f" stroke-dasharray="5,2" d="M1452.24,-521.03C1505.1,-562.27 1629.66,-659.43 1689.08,-705.78"/>
<polygon fill="#7f7f7f" stroke="#7f7f7f" points="1686.98,-708.58 1697.01,-711.97 1691.28,-703.06 1686.98,-708.58"/>
<text text-anchor="middle" x="1558.16" y="-616.4" font-family="monospace" font-size="10.00">uses</text>
</g>
<!-- lightning_consensus::execution&#45;&gt;tokio::sync::mpsc -->
<g id="edge43" class="edge">
<title>lightning_consensus::execution&#45;&gt;tokio::sync::mpsc</title>
<path fill="none" stroke="#7f7f7f" stroke-dasharray="5,2" d="M1434.66,-521.04C1458.86,-587.49 1539.24,-808.23 1568.18,-887.73"/>
<polygon fill="#7f7f7f" stroke="#7f7f7f" points="1564.9,-888.94 1571.61,-897.14 1571.47,-886.54 1564.9,-888.94"/>
<text text-anchor="middle" x="1488.92" y="-707.39" font-family="monospace" font-size="10.00">uses</text>
</g>
<!-- lightning_consensus::narwhal&#45;&gt;lightning_consensus::validator -->
<g id="edge44" class="edge">
<title>lightning_consensus::narwhal&#45;&gt;lightning_consensus::validator</title>
<path fill="none" stroke="#7f7f7f" stroke-dasharray="5,2" d="M763.88,-640.35C706.2,-614.93 604.08,-569.92 541.99,-542.55"/>
<polygon fill="#7f7f7f" stroke="#7f7f7f" points="543.32,-539.31 532.76,-538.48 540.5,-545.71 543.32,-539.31"/>
<text text-anchor="middle" x="640.44" y="-594.45" font-family="monospace" font-size="10.00">uses</text>
</g>
<!-- lightning_utils::eth -->
<g id="node15" class="node">
<title>lightning_utils::eth</title>
<polygon fill="#81c169" stroke="black" points="0,-420.23 0,-458.23 137,-458.23 137,-420.23 0,-420.23"/>
<text text-anchor="middle" x="68.5" y="-446.23" font-family="monospace" font-size="10.00">external mod</text>
<polyline fill="none" stroke="black" points="0,-439.23 137,-439.23 "/>
<text text-anchor="middle" x="68.5" y="-427.23" font-family="monospace" font-size="10.00">lightning_utils::eth</text>
</g>
<!-- lightning_consensus::validator&#45;&gt;lightning_utils::eth -->
<g id="edge45" class="edge">
<title>lightning_consensus::validator&#45;&gt;lightning_utils::eth</title>
<path fill="none" stroke="#7f7f7f" stroke-dasharray="5,2" d="M390.74,-500.59C316.4,-486.43 215.84,-467.28 146.94,-454.16"/>
<polygon fill="#7f7f7f" stroke="#7f7f7f" points="147.49,-450.7 137.01,-452.27 146.18,-457.58 147.49,-450.7"/>
<text text-anchor="middle" x="256.34" y="-480.37" font-family="monospace" font-size="10.00">uses</text>
</g>
</g>
</svg>
