<?xml version="1.0" encoding="UTF-8" standalone="no"?>
<!DOCTYPE svg PUBLIC "-//W3C//DTD SVG 1.1//EN"
 "http://www.w3.org/Graphics/SVG/1.1/DTD/svg11.dtd">
<!-- Generated by graphviz version 4.0.0 (0)
 -->
<!-- Pages: 1 -->
<svg width="1514pt" height="843pt"
 viewBox="0.00 0.00 1514.33 842.88" xmlns="http://www.w3.org/2000/svg" xmlns:xlink="http://www.w3.org/1999/xlink">
<g id="graph0" class="graph" transform="scale(1 1) rotate(0) translate(28.8 814.08)">
<polygon fill="white" stroke="transparent" points="-28.8,28.8 -28.8,-814.08 1485.53,-814.08 1485.53,28.8 -28.8,28.8"/>
<text text-anchor="middle" x="728.36" y="-752.48" font-family="Helvetica,sans-Serif" font-size="36.00">lightning_application</text>
<!-- fdi -->
<g id="node1" class="node">
<title>fdi</title>
<polygon fill="#5397c8" stroke="black" points="232.45,-698.78 232.45,-736.78 333.45,-736.78 333.45,-698.78 232.45,-698.78"/>
<text text-anchor="middle" x="282.95" y="-724.78" font-family="monospace" font-size="10.00">external crate</text>
<polyline fill="none" stroke="black" points="232.45,-717.78 333.45,-717.78 "/>
<text text-anchor="middle" x="282.95" y="-705.78" font-family="monospace" font-size="10.00">fdi</text>
</g>
<!-- lightning_application -->
<g id="node2" class="node">
<title>lightning_application</title>
<polygon fill="#5397c8" stroke="black" points="546.69,-221.02 546.69,-259.02 689.69,-259.02 689.69,-221.02 546.69,-221.02"/>
<text text-anchor="middle" x="618.19" y="-247.02" font-family="monospace" font-size="10.00">crate</text>
<polyline fill="none" stroke="black" points="546.69,-240.02 689.69,-240.02 "/>
<text text-anchor="middle" x="618.19" y="-228.02" font-family="monospace" font-size="10.00">lightning_application</text>
</g>
<!-- lightning_application::app -->
<g id="node3" class="node">
<title>lightning_application::app</title>
<polygon fill="#81c169" stroke="black" points="217.02,-406.66 217.02,-444.66 390.02,-444.66 390.02,-406.66 217.02,-406.66"/>
<text text-anchor="middle" x="303.52" y="-432.66" font-family="monospace" font-size="10.00">pub mod</text>
<polyline fill="none" stroke="black" points="217.02,-425.66 390.02,-425.66 "/>
<text text-anchor="middle" x="303.52" y="-413.66" font-family="monospace" font-size="10.00">lightning_application::app</text>
</g>
<!-- lightning_application&#45;&gt;lightning_application::app -->
<g id="edge1" class="edge">
<title>lightning_application&#45;&gt;lightning_application::app</title>
<path fill="none" stroke="#000000" d="M585.7,-259.19C528.08,-293.18 408.1,-363.96 344.75,-401.34"/>
<polygon fill="#000000" stroke="#000000" points="342.66,-398.51 335.83,-406.6 346.22,-404.53 342.66,-398.51"/>
<text text-anchor="middle" x="452.73" y="-333.26" font-family="monospace" font-size="10.00">owns</text>
</g>
<!-- lightning_application::config -->
<g id="node4" class="node">
<title>lightning_application::config</title>
<polygon fill="#81c169" stroke="black" points="366.03,-453.67 366.03,-491.67 557.03,-491.67 557.03,-453.67 366.03,-453.67"/>
<text text-anchor="middle" x="461.53" y="-479.67" font-family="monospace" font-size="10.00">pub mod</text>
<polyline fill="none" stroke="black" points="366.03,-472.67 557.03,-472.67 "/>
<text text-anchor="middle" x="461.53" y="-460.67" font-family="monospace" font-size="10.00">lightning_application::config</text>
</g>
<!-- lightning_application&#45;&gt;lightning_application::config -->
<g id="edge2" class="edge">
<title>lightning_application&#45;&gt;lightning_application::config</title>
<path fill="none" stroke="#000000" d="M605.37,-259.06C577.72,-300.13 512.36,-397.19 480.14,-445.03"/>
<polygon fill="#000000" stroke="#000000" points="477.21,-443.12 474.53,-453.37 483.02,-447.03 477.21,-443.12"/>
<text text-anchor="middle" x="530.26" y="-355.05" font-family="monospace" font-size="10.00">owns</text>
</g>
<!-- lightning_application::env -->
<g id="node5" class="node">
<title>lightning_application::env</title>
<polygon fill="#81c169" stroke="black" points="384.7,-313.83 384.7,-351.83 557.7,-351.83 557.7,-313.83 384.7,-313.83"/>
<text text-anchor="middle" x="471.2" y="-339.83" font-family="monospace" font-size="10.00">pub mod</text>
<polyline fill="none" stroke="black" points="384.7,-332.83 557.7,-332.83 "/>
<text text-anchor="middle" x="471.2" y="-320.83" font-family="monospace" font-size="10.00">lightning_application::env</text>
</g>
<!-- lightning_application&#45;&gt;lightning_application::env -->
<g id="edge3" class="edge">
<title>lightning_application&#45;&gt;lightning_application::env</title>
<path fill="none" stroke="#000000" d="M588.09,-259.03C565.57,-273.24 534.59,-292.8 510.18,-308.22"/>
<polygon fill="#000000" stroke="#000000" points="508.1,-305.39 501.52,-313.69 511.84,-311.31 508.1,-305.39"/>
<text text-anchor="middle" x="536.64" y="-286.62" font-family="monospace" font-size="10.00">owns</text>
</g>
<!-- lightning_application::genesis -->
<g id="node6" class="node">
<title>lightning_application::genesis</title>
<polygon fill="#81c169" stroke="black" points="274.76,-88.33 274.76,-126.33 471.76,-126.33 471.76,-88.33 274.76,-88.33"/>
<text text-anchor="middle" x="373.26" y="-114.33" font-family="monospace" font-size="10.00">pub mod</text>
<polyline fill="none" stroke="black" points="274.76,-107.33 471.76,-107.33 "/>
<text text-anchor="middle" x="373.26" y="-95.33" font-family="monospace" font-size="10.00">lightning_application::genesis</text>
</g>
<!-- lightning_application&#45;&gt;lightning_application::genesis -->
<g id="edge4" class="edge">
<title>lightning_application&#45;&gt;lightning_application::genesis</title>
<path fill="none" stroke="#000000" d="M583.1,-221.01C539.48,-197.38 465.01,-157.03 417.52,-131.3"/>
<polygon fill="#000000" stroke="#000000" points="419.15,-128.21 408.69,-126.52 415.81,-134.36 419.15,-128.21"/>
<text text-anchor="middle" x="487.81" y="-179.16" font-family="monospace" font-size="10.00">owns</text>
</g>
<!-- lightning_application::query_runner -->
<g id="node7" class="node">
<title>lightning_application::query_runner</title>
<polygon fill="#81c169" stroke="black" points="593.13,-332.82 593.13,-370.82 820.13,-370.82 820.13,-332.82 593.13,-332.82"/>
<text text-anchor="middle" x="706.63" y="-358.82" font-family="monospace" font-size="10.00">pub mod</text>
<polyline fill="none" stroke="black" points="593.13,-351.82 820.13,-351.82 "/>
<text text-anchor="middle" x="706.63" y="-339.82" font-family="monospace" font-size="10.00">lightning_application::query_runner</text>
</g>
<!-- lightning_application&#45;&gt;lightning_application::query_runner -->
<g id="edge5" class="edge">
<title>lightning_application&#45;&gt;lightning_application::query_runner</title>
<path fill="none" stroke="#000000" d="M633.39,-259.24C647.63,-277.24 669.05,-304.32 685.06,-324.55"/>
<polygon fill="#000000" stroke="#000000" points="682.38,-326.81 691.33,-332.48 687.87,-322.47 682.38,-326.81"/>
<text text-anchor="middle" x="646.73" y="-294.9" font-family="monospace" font-size="10.00">owns</text>
</g>
<!-- lightning_application::state -->
<g id="node8" class="node">
<title>lightning_application::state</title>
<polygon fill="#81c169" stroke="black" points="845.79,-400.73 845.79,-438.73 1030.79,-438.73 1030.79,-400.73 845.79,-400.73"/>
<text text-anchor="middle" x="938.29" y="-426.73" font-family="monospace" font-size="10.00">pub mod</text>
<polyline fill="none" stroke="black" points="845.79,-419.73 1030.79,-419.73 "/>
<text text-anchor="middle" x="938.29" y="-407.73" font-family="monospace" font-size="10.00">lightning_application::state</text>
</g>
<!-- lightning_application&#45;&gt;lightning_application::state -->
<g id="edge6" class="edge">
<title>lightning_application&#45;&gt;lightning_application::state</title>
<path fill="none" stroke="#000000" d="M652.14,-259.08C710.73,-291.97 830.69,-359.32 895.12,-395.49"/>
<polygon fill="#000000" stroke="#000000" points="893.77,-398.75 904.21,-400.59 897.2,-392.64 893.77,-398.75"/>
<text text-anchor="middle" x="761.13" y="-319.29" font-family="monospace" font-size="10.00">owns</text>
</g>
<!-- lightning_application::storage -->
<g id="node9" class="node">
<title>lightning_application::storage</title>
<polygon fill="#f8c04c" stroke="black" points="576.14,-0.5 576.14,-38.5 773.14,-38.5 773.14,-0.5 576.14,-0.5"/>
<text text-anchor="middle" x="674.64" y="-26.5" font-family="monospace" font-size="10.00">pub(crate) mod</text>
<polyline fill="none" stroke="black" points="576.14,-19.5 773.14,-19.5 "/>
<text text-anchor="middle" x="674.64" y="-7.5" font-family="monospace" font-size="10.00">lightning_application::storage</text>
</g>
<!-- lightning_application&#45;&gt;lightning_application::storage -->
<g id="edge7" class="edge">
<title>lightning_application&#45;&gt;lightning_application::storage</title>
<path fill="none" stroke="#000000" d="M623.1,-220.84C633.01,-182.15 655.43,-94.55 667.16,-48.71"/>
<polygon fill="#000000" stroke="#000000" points="670.61,-49.35 669.7,-38.8 663.83,-47.62 670.61,-49.35"/>
<text text-anchor="middle" x="632.63" y="-137.77" font-family="monospace" font-size="10.00">owns</text>
</g>
<!-- lightning_application::table -->
<g id="node10" class="node">
<title>lightning_application::table</title>
<polygon fill="#81c169" stroke="black" points="772.97,-198.99 772.97,-236.99 957.97,-236.99 957.97,-198.99 772.97,-198.99"/>
<text text-anchor="middle" x="865.47" y="-224.99" font-family="monospace" font-size="10.00">pub mod</text>
<polyline fill="none" stroke="black" points="772.97,-217.99 957.97,-217.99 "/>
<text text-anchor="middle" x="865.47" y="-205.99" font-family="monospace" font-size="10.00">lightning_application::table</text>
</g>
<!-- lightning_application&#45;&gt;lightning_application::table -->
<g id="edge8" class="edge">
<title>lightning_application&#45;&gt;lightning_application::table</title>
<path fill="none" stroke="#000000" d="M689.71,-233.65C712.53,-231.62 738.24,-229.33 762.82,-227.14"/>
<polygon fill="#000000" stroke="#000000" points="763.25,-230.61 772.9,-226.24 762.63,-223.64 763.25,-230.61"/>
<text text-anchor="middle" x="713.77" y="-233.39" font-family="monospace" font-size="10.00">owns</text>
</g>
<!-- lightning_application::app&#45;&gt;fdi -->
<g id="edge9" class="edge">
<title>lightning_application::app&#45;&gt;fdi</title>
<path fill="none" stroke="#7f7f7f" stroke-dasharray="5,2" d="M302.17,-444.83C298.66,-494.66 289.23,-628.54 285.02,-688.29"/>
<polygon fill="#7f7f7f" stroke="#7f7f7f" points="281.51,-688.32 284.3,-698.55 288.49,-688.82 281.51,-688.32"/>
<text text-anchor="middle" x="281.1" y="-569.56" font-family="monospace" font-size="10.00">uses</text>
</g>
<!-- lightning_application::app&#45;&gt;lightning_application::config -->
<g id="edge10" class="edge">
<title>lightning_application::app&#45;&gt;lightning_application::config</title>
<path fill="none" stroke="#7f7f7f" stroke-dasharray="5,2" d="M367.79,-444.78C374.39,-446.75 381.13,-448.75 387.83,-450.74"/>
<polygon fill="#7f7f7f" stroke="#7f7f7f" points="386.99,-454.15 397.57,-453.64 388.99,-447.44 386.99,-454.15"/>
<text text-anchor="middle" x="365.31" y="-450.76" font-family="monospace" font-size="10.00">uses</text>
</g>
<!-- lightning_application::app&#45;&gt;lightning_application::env -->
<g id="edge11" class="edge">
<title>lightning_application::app&#45;&gt;lightning_application::env</title>
<path fill="none" stroke="#7f7f7f" stroke-dasharray="5,2" d="M337.86,-406.65C363.88,-392.24 399.82,-372.35 427.83,-356.84"/>
<polygon fill="#7f7f7f" stroke="#7f7f7f" points="429.57,-359.88 436.62,-351.97 426.18,-353.75 429.57,-359.88"/>
<text text-anchor="middle" x="370.34" y="-384.75" font-family="monospace" font-size="10.00">uses</text>
</g>
<!-- lightning_application::app&#45;&gt;lightning_application::query_runner -->
<g id="edge12" class="edge">
<title>lightning_application::app&#45;&gt;lightning_application::query_runner</title>
<path fill="none" stroke="#7f7f7f" stroke-dasharray="5,2" d="M390.49,-409.73C449.59,-398.91 528.37,-384.48 592.5,-372.73"/>
<polygon fill="#7f7f7f" stroke="#7f7f7f" points="593.46,-376.11 602.67,-370.87 592.2,-369.23 593.46,-376.11"/>
<text text-anchor="middle" x="479" y="-383.23" font-family="monospace" font-size="10.00">uses</text>
</g>
<!-- lightning_schema -->
<g id="node12" class="node">
<title>lightning_schema</title>
<polygon fill="#5397c8" stroke="black" points="0,-483.98 0,-521.98 113,-521.98 113,-483.98 0,-483.98"/>
<text text-anchor="middle" x="56.5" y="-509.98" font-family="monospace" font-size="10.00">external crate</text>
<polyline fill="none" stroke="black" points="0,-502.98 113,-502.98 "/>
<text text-anchor="middle" x="56.5" y="-490.98" font-family="monospace" font-size="10.00">lightning_schema</text>
</g>
<!-- lightning_application::app&#45;&gt;lightning_schema -->
<g id="edge13" class="edge">
<title>lightning_application::app&#45;&gt;lightning_schema</title>
<path fill="none" stroke="#7f7f7f" stroke-dasharray="5,2" d="M242.77,-444.68C206.45,-456.05 160.26,-470.5 122.97,-482.18"/>
<polygon fill="#7f7f7f" stroke="#7f7f7f" points="121.69,-478.91 113.19,-485.24 123.78,-485.59 121.69,-478.91"/>
<text text-anchor="middle" x="170.37" y="-466.43" font-family="monospace" font-size="10.00">uses</text>
</g>
<!-- lightning_types -->
<g id="node13" class="node">
<title>lightning_types</title>
<polygon fill="#5397c8" stroke="black" points="19.41,-198.96 19.41,-236.96 126.41,-236.96 126.41,-198.96 19.41,-198.96"/>
<text text-anchor="middle" x="72.91" y="-224.96" font-family="monospace" font-size="10.00">external crate</text>
<polyline fill="none" stroke="black" points="19.41,-217.96 126.41,-217.96 "/>
<text text-anchor="middle" x="72.91" y="-205.96" font-family="monospace" font-size="10.00">lightning_types</text>
</g>
<!-- lightning_application::app&#45;&gt;lightning_types -->
<g id="edge14" class="edge">
<title>lightning_application::app&#45;&gt;lightning_types</title>
<path fill="none" stroke="#7f7f7f" stroke-dasharray="5,2" d="M282.24,-406.5C240.71,-369.09 148.83,-286.34 101.83,-244"/>
<polygon fill="#7f7f7f" stroke="#7f7f7f" points="103.91,-241.17 94.14,-237.08 99.23,-246.37 103.91,-241.17"/>
<text text-anchor="middle" x="179.53" y="-328.25" font-family="monospace" font-size="10.00">uses</text>
</g>
<!-- lightning_application::config&#45;&gt;lightning_application::genesis -->
<g id="edge15" class="edge">
<title>lightning_application::config&#45;&gt;lightning_application::genesis</title>
<path fill="none" stroke="#7f7f7f" stroke-dasharray="5,2" d="M456.91,-453.54C442.41,-393.51 397.72,-208.55 380.31,-136.49"/>
<polygon fill="#7f7f7f" stroke="#7f7f7f" points="383.69,-135.61 377.94,-126.71 376.89,-137.25 383.69,-135.61"/>
<text text-anchor="middle" x="406.11" y="-298.02" font-family="monospace" font-size="10.00">uses</text>
</g>
<!-- lightning_application::env&#45;&gt;fdi -->
<g id="edge16" class="edge">
<title>lightning_application::env&#45;&gt;fdi</title>
<path fill="none" stroke="#7f7f7f" stroke-dasharray="5,2" d="M461.87,-351.92C431.19,-414.64 333.39,-614.63 296.87,-689.3"/>
<polygon fill="#7f7f7f" stroke="#7f7f7f" points="293.59,-688.06 292.34,-698.58 299.88,-691.13 293.59,-688.06"/>
<text text-anchor="middle" x="366.87" y="-523.61" font-family="monospace" font-size="10.00">uses</text>
</g>
<!-- lightning_application::env&#45;&gt;lightning_application::config -->
<g id="edge17" class="edge">
<title>lightning_application::env&#45;&gt;lightning_application::config</title>
<path fill="none" stroke="#7f7f7f" stroke-dasharray="5,2" d="M469.88,-351.98C468.25,-375.49 465.48,-415.61 463.58,-443.09"/>
<polygon fill="#7f7f7f" stroke="#7f7f7f" points="460.07,-443.08 462.87,-453.3 467.05,-443.57 460.07,-443.08"/>
<text text-anchor="middle" x="454.23" y="-400.53" font-family="monospace" font-size="10.00">uses</text>
</g>
<!-- lightning_application::env&#45;&gt;lightning_application::genesis -->
<g id="edge18" class="edge">
<title>lightning_application::env&#45;&gt;lightning_application::genesis</title>
<path fill="none" stroke="#7f7f7f" stroke-dasharray="5,2" d="M462.85,-313.6C445.58,-273.83 405.84,-182.34 385.6,-135.73"/>
<polygon fill="#7f7f7f" stroke="#7f7f7f" points="388.79,-134.28 381.59,-126.5 382.36,-137.07 388.79,-134.28"/>
<text text-anchor="middle" x="411.73" y="-227.67" font-family="monospace" font-size="10.00">uses</text>
</g>
<!-- lightning_application::env&#45;&gt;lightning_application::query_runner -->
<g id="edge19" class="edge">
<title>lightning_application::env&#45;&gt;lightning_application::query_runner</title>
<path fill="none" stroke="#7f7f7f" stroke-dasharray="5,2" d="M557.87,-339.82C565.98,-340.47 574.3,-341.14 582.66,-341.82"/>
<polygon fill="#7f7f7f" stroke="#7f7f7f" points="582.62,-345.33 592.87,-342.64 583.18,-338.35 582.62,-345.33"/>
<text text-anchor="middle" x="576.51" y="-332.82" font-family="monospace" font-size="10.00">uses</text>
</g>
<!-- lightning_application::env&#45;&gt;lightning_application::state -->
<g id="edge20" class="edge">
<title>lightning_application::env&#45;&gt;lightning_application::state</title>
<path fill="none" stroke="#7f7f7f" stroke-dasharray="5,2" d="M557.97,-348.97C636.56,-363.59 752.44,-385.15 835.62,-400.62"/>
<polygon fill="#7f7f7f" stroke="#7f7f7f" points="835.13,-404.09 845.6,-402.48 836.41,-397.21 835.13,-404.09"/>
<text text-anchor="middle" x="684.29" y="-377.8" font-family="monospace" font-size="10.00">uses</text>
</g>
<!-- lightning_application::env&#45;&gt;lightning_application::storage -->
<g id="edge21" class="edge">
<title>lightning_application::env&#45;&gt;lightning_application::storage</title>
<path fill="none" stroke="#7f7f7f" stroke-dasharray="5,2" d="M483.62,-313.7C518.24,-260.38 615.92,-109.93 656.56,-47.35"/>
<polygon fill="#7f7f7f" stroke="#7f7f7f" points="659.62,-49.07 662.13,-38.78 653.74,-45.26 659.62,-49.07"/>
<text text-anchor="middle" x="557.59" y="-183.52" font-family="monospace" font-size="10.00">uses</text>
</g>
<!-- lightning_application::env&#45;&gt;lightning_application::table -->
<g id="edge22" class="edge">
<title>lightning_application::env&#45;&gt;lightning_application::table</title>
<path fill="none" stroke="#7f7f7f" stroke-dasharray="5,2" d="M536.75,-313.73C606.64,-293.38 717.13,-261.19 790.45,-239.84"/>
<polygon fill="#7f7f7f" stroke="#7f7f7f" points="791.47,-243.19 800.09,-237.03 789.51,-236.47 791.47,-243.19"/>
<text text-anchor="middle" x="651.1" y="-279.79" font-family="monospace" font-size="10.00">uses</text>
</g>
<!-- lightning_application::env&#45;&gt;lightning_schema -->
<g id="edge23" class="edge">
<title>lightning_application::env&#45;&gt;lightning_schema</title>
<path fill="none" stroke="#7f7f7f" stroke-dasharray="5,2" d="M424.84,-351.85C348.09,-383.34 194.93,-446.18 112.35,-480.07"/>
<polygon fill="#7f7f7f" stroke="#7f7f7f" points="110.81,-476.92 102.88,-483.95 113.46,-483.39 110.81,-476.92"/>
<text text-anchor="middle" x="256.1" y="-407.96" font-family="monospace" font-size="10.00">uses</text>
</g>
<!-- lightning_application::env&#45;&gt;lightning_types -->
<g id="edge24" class="edge">
<title>lightning_application::env&#45;&gt;lightning_types</title>
<path fill="none" stroke="#7f7f7f" stroke-dasharray="5,2" d="M404.99,-313.73C330.41,-292.22 210.06,-257.51 136.55,-236.31"/>
<polygon fill="#7f7f7f" stroke="#7f7f7f" points="137.08,-232.82 126.5,-233.41 135.14,-239.55 137.08,-232.82"/>
<text text-anchor="middle" x="258.27" y="-278.02" font-family="monospace" font-size="10.00">uses</text>
</g>
<!-- lightning_application::query_runner&#45;&gt;lightning_application::state -->
<g id="edge25" class="edge">
<title>lightning_application::query_runner&#45;&gt;lightning_application::state</title>
<path fill="none" stroke="#7f7f7f" stroke-dasharray="5,2" d="M771.47,-370.83C800.09,-379.22 833.9,-389.13 863.58,-397.83"/>
<polygon fill="#7f7f7f" stroke="#7f7f7f" points="862.89,-401.27 873.47,-400.73 864.86,-394.55 862.89,-401.27"/>
<text text-anchor="middle" x="805.03" y="-387.33" font-family="monospace" font-size="10.00">uses</text>
</g>
<!-- lightning_application::query_runner&#45;&gt;lightning_application::storage -->
<g id="edge26" class="edge">
<title>lightning_application::query_runner&#45;&gt;lightning_application::storage</title>
<path fill="none" stroke="#7f7f7f" stroke-dasharray="5,2" d="M704.77,-332.52C699.42,-276.88 683.92,-115.91 677.49,-49.1"/>
<polygon fill="#7f7f7f" stroke="#7f7f7f" points="680.95,-48.48 676.5,-38.86 673.98,-49.15 680.95,-48.48"/>
<text text-anchor="middle" x="678.63" y="-193.81" font-family="monospace" font-size="10.00">uses</text>
</g>
<!-- lightning_application::query_runner&#45;&gt;lightning_application::table -->
<g id="edge27" class="edge">
<title>lightning_application::query_runner&#45;&gt;lightning_application::table</title>
<path fill="none" stroke="#7f7f7f" stroke-dasharray="5,2" d="M729.39,-332.65C757.11,-309.29 804.04,-269.75 834.89,-243.75"/>
<polygon fill="#7f7f7f" stroke="#7f7f7f" points="837.36,-246.25 842.75,-237.13 832.85,-240.9 837.36,-246.25"/>
<text text-anchor="middle" x="769.64" y="-291.2" font-family="monospace" font-size="10.00">uses</text>
</g>
<!-- lightning_application::state&#45;&gt;lightning_application::table -->
<g id="edge28" class="edge">
<title>lightning_application::state&#45;&gt;lightning_application::table</title>
<path fill="none" stroke="#7f7f7f" stroke-dasharray="5,2" d="M931.31,-400.38C918.45,-364.76 890.96,-288.62 875.89,-246.86"/>
<polygon fill="#7f7f7f" stroke="#7f7f7f" points="879.12,-245.49 872.43,-237.27 872.53,-247.87 879.12,-245.49"/>
<text text-anchor="middle" x="891.1" y="-326.62" font-family="monospace" font-size="10.00">uses</text>
</g>
<!-- lightning_reputation::statistics -->
<g id="node11" class="node">
<title>lightning_reputation::statistics</title>
<polygon fill="#81c169" stroke="black" points="1247.73,-529.21 1247.73,-567.21 1456.73,-567.21 1456.73,-529.21 1247.73,-529.21"/>
<text text-anchor="middle" x="1352.23" y="-555.21" font-family="monospace" font-size="10.00">external mod</text>
<polyline fill="none" stroke="black" points="1247.73,-548.21 1456.73,-548.21 "/>
<text text-anchor="middle" x="1352.23" y="-536.21" font-family="monospace" font-size="10.00">lightning_reputation::statistics</text>
</g>
<!-- lightning_application::state&#45;&gt;lightning_reputation::statistics -->
<g id="edge29" class="edge">
<title>lightning_application::state&#45;&gt;lightning_reputation::statistics</title>
<path fill="none" stroke="#7f7f7f" stroke-dasharray="5,2" d="M999.82,-438.82C1074.87,-462.12 1201.51,-501.43 1280.8,-526.04"/>
<polygon fill="#7f7f7f" stroke="#7f7f7f" points="1280.12,-529.49 1290.7,-529.11 1282.19,-522.81 1280.12,-529.49"/>
<text text-anchor="middle" x="1127.81" y="-485.43" font-family="monospace" font-size="10.00">uses</text>
</g>
</g>
</svg>
