<?xml version="1.0" encoding="UTF-8" standalone="no"?>
<!DOCTYPE svg PUBLIC "-//W3C//DTD SVG 1.1//EN"
 "http://www.w3.org/Graphics/SVG/1.1/DTD/svg11.dtd">
<!-- Generated by graphviz version 4.0.0 (0)
 -->
<!-- Pages: 1 -->
<svg width="1310pt" height="1197pt"
 viewBox="0.00 0.00 1309.75 1196.61" xmlns="http://www.w3.org/2000/svg" xmlns:xlink="http://www.w3.org/1999/xlink">
<g id="graph0" class="graph" transform="scale(1 1) rotate(0) translate(28.8 1167.81)">
<polygon fill="white" stroke="transparent" points="-28.8,28.8 -28.8,-1167.81 1280.95,-1167.81 1280.95,28.8 -28.8,28.8"/>
<text text-anchor="middle" x="626.08" y="-1106.21" font-family="Helvetica,sans-Serif" font-size="36.00">fleek_ipld</text>
<!-- fleek_ipld -->
<g id="node1" class="node">
<title>fleek_ipld</title>
<polygon fill="#5397c8" stroke="black" points="571.34,-531.12 571.34,-569.12 648.34,-569.12 648.34,-531.12 571.34,-531.12"/>
<text text-anchor="middle" x="609.84" y="-557.12" font-family="monospace" font-size="10.00">crate</text>
<polyline fill="none" stroke="black" points="571.34,-550.12 648.34,-550.12 "/>
<text text-anchor="middle" x="609.84" y="-538.12" font-family="monospace" font-size="10.00">fleek_ipld</text>
</g>
<!-- fleek_ipld::unixfs::proto::unixfs::Data -->
<g id="node2" class="node">
<title>fleek_ipld::unixfs::proto::unixfs::Data</title>
<polygon fill="#81c169" stroke="black" points="729.45,-755.63 729.45,-793.63 908.45,-793.63 908.45,-755.63 729.45,-755.63"/>
<text text-anchor="middle" x="818.95" y="-781.63" font-family="monospace" font-size="10.00">pub struct</text>
<polyline fill="none" stroke="black" points="729.45,-774.63 908.45,-774.63 "/>
<text text-anchor="middle" x="818.95" y="-762.63" font-family="monospace" font-size="10.00">unixfs::proto::unixfs::Data</text>
</g>
<!-- fleek_ipld&#45;&gt;fleek_ipld::unixfs::proto::unixfs::Data -->
<g id="edge1" class="edge">
<title>fleek_ipld&#45;&gt;fleek_ipld::unixfs::proto::unixfs::Data</title>
<path fill="none" stroke="#000000" d="M610.82,-569.43C628.04,-611.08 709.44,-702.8 765.9,-748.9"/>
<polygon fill="#000000" stroke="#000000" points="764.03,-751.88 774.04,-755.36 768.39,-746.4 764.03,-751.88"/>
<text text-anchor="middle" x="675.86" y="-662.16" font-family="monospace" font-size="10.00">owns</text>
</g>
<!-- fleek_ipld&#45;&gt;fleek_ipld::unixfs::proto::unixfs::Data -->
<g id="edge2" class="edge">
<title>fleek_ipld&#45;&gt;fleek_ipld::unixfs::proto::unixfs::Data</title>
<path fill="none" stroke="#7f7f7f" stroke-dasharray="5,2" d="M648.48,-564.7C700.98,-602.79 787.85,-697.49 813.74,-746.43"/>
<polygon fill="#7f7f7f" stroke="#7f7f7f" points="810.63,-748.04 818.07,-755.58 816.95,-745.05 810.63,-748.04"/>
<text text-anchor="middle" x="718.61" y="-658.57" font-family="monospace" font-size="10.00">uses</text>
</g>
<!-- fleek_ipld::unixfs::proto::unixfs::Metadata -->
<g id="node6" class="node">
<title>fleek_ipld::unixfs::proto::unixfs::Metadata</title>
<polygon fill="#81c169" stroke="black" points="356.08,-262.65 356.08,-300.65 559.08,-300.65 559.08,-262.65 356.08,-262.65"/>
<text text-anchor="middle" x="457.58" y="-288.65" font-family="monospace" font-size="10.00">pub struct</text>
<polyline fill="none" stroke="black" points="356.08,-281.65 559.08,-281.65 "/>
<text text-anchor="middle" x="457.58" y="-269.65" font-family="monospace" font-size="10.00">unixfs::proto::unixfs::Metadata</text>
</g>
<!-- fleek_ipld&#45;&gt;fleek_ipld::unixfs::proto::unixfs::Metadata -->
<g id="edge3" class="edge">
<title>fleek_ipld&#45;&gt;fleek_ipld::unixfs::proto::unixfs::Metadata</title>
<path fill="none" stroke="#000000" d="M613.31,-531.03C605.65,-483.5 540.32,-363.69 495.2,-308.92"/>
<polygon fill="#000000" stroke="#000000" points="497.59,-306.33 488.42,-301.02 492.27,-310.89 497.59,-306.33"/>
<text text-anchor="middle" x="541.76" y="-422.98" font-family="monospace" font-size="10.00">owns</text>
</g>
<!-- fleek_ipld&#45;&gt;fleek_ipld::unixfs::proto::unixfs::Metadata -->
<g id="edge4" class="edge">
<title>fleek_ipld&#45;&gt;fleek_ipld::unixfs::proto::unixfs::Metadata</title>
<path fill="none" stroke="#7f7f7f" stroke-dasharray="5,2" d="M579.13,-530.9C536.83,-483.86 470.81,-366.26 456.26,-310.7"/>
<polygon fill="#7f7f7f" stroke="#7f7f7f" points="459.65,-309.8 454.11,-300.77 452.81,-311.28 459.65,-309.8"/>
<text text-anchor="middle" x="505.2" y="-423.8" font-family="monospace" font-size="10.00">uses</text>
</g>
<!-- fleek_ipld::unixfs::proto::unixfs::mod_Data::DataType -->
<g id="node10" class="node">
<title>fleek_ipld::unixfs::proto::unixfs::mod_Data::DataType</title>
<polygon fill="#81c169" stroke="black" points="473.51,-819.02 473.51,-857.02 736.51,-857.02 736.51,-819.02 473.51,-819.02"/>
<text text-anchor="middle" x="605.01" y="-845.02" font-family="monospace" font-size="10.00">pub enum</text>
<polyline fill="none" stroke="black" points="473.51,-838.02 736.51,-838.02 "/>
<text text-anchor="middle" x="605.01" y="-826.02" font-family="monospace" font-size="10.00">unixfs::proto::unixfs::mod_Data::DataType</text>
</g>
<!-- fleek_ipld&#45;&gt;fleek_ipld::unixfs::proto::unixfs::mod_Data::DataType -->
<g id="edge5" class="edge">
<title>fleek_ipld&#45;&gt;fleek_ipld::unixfs::proto::unixfs::mod_Data::DataType</title>
<path fill="none" stroke="#000000" d="M595.13,-569.22C578.39,-618.54 575.32,-750.45 588.54,-809.15"/>
<polygon fill="#000000" stroke="#000000" points="585.17,-810.12 591.1,-818.9 591.94,-808.34 585.17,-810.12"/>
<text text-anchor="middle" x="579.33" y="-692.18" font-family="monospace" font-size="10.00">owns</text>
</g>
<!-- fleek_ipld&#45;&gt;fleek_ipld::unixfs::proto::unixfs::mod_Data::DataType -->
<g id="edge6" class="edge">
<title>fleek_ipld&#45;&gt;fleek_ipld::unixfs::proto::unixfs::mod_Data::DataType</title>
<path fill="none" stroke="#7f7f7f" stroke-dasharray="5,2" d="M623.76,-569.25C638.94,-618.61 637.68,-750.5 622.58,-809.18"/>
<polygon fill="#7f7f7f" stroke="#7f7f7f" points="619.18,-808.34 619.72,-818.92 625.9,-810.32 619.18,-808.34"/>
<text text-anchor="middle" x="610.67" y="-692.21" font-family="monospace" font-size="10.00">uses</text>
</g>
<!-- fleek_ipld::unixfs::proto::unixfs::Data::from_reader -->
<g id="node3" class="node">
<title>fleek_ipld::unixfs::proto::unixfs::Data::from_reader</title>
<polygon fill="#db5367" stroke="black" points="995.15,-704.34 995.15,-742.34 1252.15,-742.34 1252.15,-704.34 995.15,-704.34"/>
<text text-anchor="middle" x="1123.65" y="-730.34" font-family="monospace" font-size="10.00">pub(self) fn</text>
<polyline fill="none" stroke="black" points="995.15,-723.34 1252.15,-723.34 "/>
<text text-anchor="middle" x="1123.65" y="-711.34" font-family="monospace" font-size="10.00">unixfs::proto::unixfs::Data::from_reader</text>
</g>
<!-- fleek_ipld::unixfs::proto::unixfs::Data&#45;&gt;fleek_ipld::unixfs::proto::unixfs::Data::from_reader -->
<g id="edge7" class="edge">
<title>fleek_ipld::unixfs::proto::unixfs::Data&#45;&gt;fleek_ipld::unixfs::proto::unixfs::Data::from_reader</title>
<path fill="none" stroke="#000000" d="M908.72,-759.52C937.55,-754.66 970,-749.2 1000.78,-744.02"/>
<polygon fill="#000000" stroke="#000000" points="1001.43,-747.46 1010.71,-742.35 1000.26,-740.56 1001.43,-747.46"/>
<text text-anchor="middle" x="942.25" y="-754.77" font-family="monospace" font-size="10.00">owns</text>
</g>
<!-- fleek_ipld::unixfs::proto::unixfs::Data::get_size -->
<g id="node4" class="node">
<title>fleek_ipld::unixfs::proto::unixfs::Data::get_size</title>
<polygon fill="#db5367" stroke="black" points="500.19,-1052.51 500.19,-1090.51 739.19,-1090.51 739.19,-1052.51 500.19,-1052.51"/>
<text text-anchor="middle" x="619.69" y="-1078.51" font-family="monospace" font-size="10.00">pub(self) fn</text>
<polyline fill="none" stroke="black" points="500.19,-1071.51 739.19,-1071.51 "/>
<text text-anchor="middle" x="619.69" y="-1059.51" font-family="monospace" font-size="10.00">unixfs::proto::unixfs::Data::get_size</text>
</g>
<!-- fleek_ipld::unixfs::proto::unixfs::Data&#45;&gt;fleek_ipld::unixfs::proto::unixfs::Data::get_size -->
<g id="edge8" class="edge">
<title>fleek_ipld::unixfs::proto::unixfs::Data&#45;&gt;fleek_ipld::unixfs::proto::unixfs::Data::get_size</title>
<path fill="none" stroke="#000000" d="M785.96,-793.78C734.17,-845.18 643.47,-981.54 621.53,-1042.45"/>
<polygon fill="#000000" stroke="#000000" points="618.11,-1041.64 618.43,-1052.23 624.78,-1043.75 618.11,-1041.64"/>
<text text-anchor="middle" x="691.25" y="-921.11" font-family="monospace" font-size="10.00">owns</text>
</g>
<!-- fleek_ipld::unixfs::proto::unixfs::Data::write_message -->
<g id="node5" class="node">
<title>fleek_ipld::unixfs::proto::unixfs::Data::write_message</title>
<polygon fill="#db5367" stroke="black" points="747.22,-1009.45 747.22,-1047.45 1016.22,-1047.45 1016.22,-1009.45 747.22,-1009.45"/>
<text text-anchor="middle" x="881.72" y="-1035.45" font-family="monospace" font-size="10.00">pub(self) fn</text>
<polyline fill="none" stroke="black" points="747.22,-1028.45 1016.22,-1028.45 "/>
<text text-anchor="middle" x="881.72" y="-1016.45" font-family="monospace" font-size="10.00">unixfs::proto::unixfs::Data::write_message</text>
</g>
<!-- fleek_ipld::unixfs::proto::unixfs::Data&#45;&gt;fleek_ipld::unixfs::proto::unixfs::Data::write_message -->
<g id="edge9" class="edge">
<title>fleek_ipld::unixfs::proto::unixfs::Data&#45;&gt;fleek_ipld::unixfs::proto::unixfs::Data::write_message</title>
<path fill="none" stroke="#000000" d="M809.34,-793.85C804.29,-838.47 829.8,-948.32 855.43,-1000.4"/>
<polygon fill="#000000" stroke="#000000" points="852.43,-1002.22 860.21,-1009.42 858.62,-998.95 852.43,-1002.22"/>
<text text-anchor="middle" x="819.88" y="-900.12" font-family="monospace" font-size="10.00">owns</text>
</g>
<!-- fleek_ipld::unixfs::proto::unixfs::Data&#45;&gt;fleek_ipld::unixfs::proto::unixfs::mod_Data::DataType -->
<g id="edge10" class="edge">
<title>fleek_ipld::unixfs::proto::unixfs::Data&#45;&gt;fleek_ipld::unixfs::proto::unixfs::mod_Data::DataType</title>
<path fill="none" stroke="#7f7f7f" stroke-dasharray="5,2" d="M754.76,-793.65C730.86,-800.73 703.54,-808.82 678.84,-816.14"/>
<polygon fill="#7f7f7f" stroke="#7f7f7f" points="677.75,-812.81 669.15,-819.01 679.74,-819.53 677.75,-812.81"/>
<text text-anchor="middle" x="704.3" y="-807.89" font-family="monospace" font-size="10.00">uses</text>
</g>
<!-- fleek_ipld::unixfs::proto::unixfs::Data::get_size&#45;&gt;fleek_ipld::unixfs::proto::unixfs::Data -->
<g id="edge11" class="edge">
<title>fleek_ipld::unixfs::proto::unixfs::Data::get_size&#45;&gt;fleek_ipld::unixfs::proto::unixfs::Data</title>
<path fill="none" stroke="#7f7f7f" stroke-dasharray="5,2" d="M652.68,-1052.36C704.47,-1000.96 795.17,-864.6 817.11,-803.69"/>
<polygon fill="#7f7f7f" stroke="#7f7f7f" points="820.53,-804.5 820.21,-793.91 813.85,-802.39 820.53,-804.5"/>
<text text-anchor="middle" x="722.39" y="-931.03" font-family="monospace" font-size="10.00">uses</text>
</g>
<!-- fleek_ipld::unixfs::proto::unixfs::Data::get_size&#45;&gt;fleek_ipld::unixfs::proto::unixfs::mod_Data::DataType -->
<g id="edge12" class="edge">
<title>fleek_ipld::unixfs::proto::unixfs::Data::get_size&#45;&gt;fleek_ipld::unixfs::proto::unixfs::mod_Data::DataType</title>
<path fill="none" stroke="#7f7f7f" stroke-dasharray="5,2" d="M618.49,-1052.41C615.92,-1011.6 609.9,-915.71 606.85,-867.21"/>
<polygon fill="#7f7f7f" stroke="#7f7f7f" points="610.33,-866.82 606.21,-857.06 603.34,-867.26 610.33,-866.82"/>
<text text-anchor="middle" x="600.17" y="-962.81" font-family="monospace" font-size="10.00">uses</text>
</g>
<!-- fleek_ipld::unixfs::proto::unixfs::Data::write_message&#45;&gt;fleek_ipld::unixfs::proto::unixfs::Data -->
<g id="edge13" class="edge">
<title>fleek_ipld::unixfs::proto::unixfs::Data::write_message&#45;&gt;fleek_ipld::unixfs::proto::unixfs::Data</title>
<path fill="none" stroke="#7f7f7f" stroke-dasharray="5,2" d="M891.33,-1009.22C896.37,-964.61 870.87,-854.76 845.24,-802.68"/>
<polygon fill="#7f7f7f" stroke="#7f7f7f" points="848.23,-800.85 840.46,-793.65 842.05,-804.13 848.23,-800.85"/>
<text text-anchor="middle" x="855.78" y="-908.95" font-family="monospace" font-size="10.00">uses</text>
</g>
<!-- fleek_ipld::unixfs::proto::unixfs::Data::write_message&#45;&gt;fleek_ipld::unixfs::proto::unixfs::mod_Data::DataType -->
<g id="edge14" class="edge">
<title>fleek_ipld::unixfs::proto::unixfs::Data::write_message&#45;&gt;fleek_ipld::unixfs::proto::unixfs::mod_Data::DataType</title>
<path fill="none" stroke="#7f7f7f" stroke-dasharray="5,2" d="M853.92,-1009.32C803.57,-974.67 697.34,-901.56 641.33,-863.01"/>
<polygon fill="#7f7f7f" stroke="#7f7f7f" points="643.01,-859.92 632.79,-857.14 639.05,-865.69 643.01,-859.92"/>
<text text-anchor="middle" x="760.13" y="-939.17" font-family="monospace" font-size="10.00">uses</text>
</g>
<!-- fleek_ipld::unixfs::proto::unixfs::Metadata::from_reader -->
<g id="node7" class="node">
<title>fleek_ipld::unixfs::proto::unixfs::Metadata::from_reader</title>
<polygon fill="#db5367" stroke="black" points="0,-305.74 0,-343.74 281,-343.74 281,-305.74 0,-305.74"/>
<text text-anchor="middle" x="140.5" y="-331.74" font-family="monospace" font-size="10.00">pub(self) fn</text>
<polyline fill="none" stroke="black" points="0,-324.74 281,-324.74 "/>
<text text-anchor="middle" x="140.5" y="-312.74" font-family="monospace" font-size="10.00">unixfs::proto::unixfs::Metadata::from_reader</text>
</g>
<!-- fleek_ipld::unixfs::proto::unixfs::Metadata&#45;&gt;fleek_ipld::unixfs::proto::unixfs::Metadata::from_reader -->
<g id="edge15" class="edge">
<title>fleek_ipld::unixfs::proto::unixfs::Metadata&#45;&gt;fleek_ipld::unixfs::proto::unixfs::Metadata::from_reader</title>
<path fill="none" stroke="#000000" d="M355.95,-295.47C335.13,-298.29 312.81,-301.33 290.71,-304.33"/>
<polygon fill="#000000" stroke="#000000" points="290.01,-300.89 280.57,-305.71 290.95,-307.83 290.01,-300.89"/>
<text text-anchor="middle" x="310.83" y="-302.9" font-family="monospace" font-size="10.00">owns</text>
</g>
<!-- fleek_ipld::unixfs::proto::unixfs::Metadata::get_size -->
<g id="node8" class="node">
<title>fleek_ipld::unixfs::proto::unixfs::Metadata::get_size</title>
<polygon fill="#db5367" stroke="black" points="533.9,-19.86 533.9,-57.86 796.9,-57.86 796.9,-19.86 533.9,-19.86"/>
<text text-anchor="middle" x="665.4" y="-45.86" font-family="monospace" font-size="10.00">pub(self) fn</text>
<polyline fill="none" stroke="black" points="533.9,-38.86 796.9,-38.86 "/>
<text text-anchor="middle" x="665.4" y="-26.86" font-family="monospace" font-size="10.00">unixfs::proto::unixfs::Metadata::get_size</text>
</g>
<!-- fleek_ipld::unixfs::proto::unixfs::Metadata&#45;&gt;fleek_ipld::unixfs::proto::unixfs::Metadata::get_size -->
<g id="edge16" class="edge">
<title>fleek_ipld::unixfs::proto::unixfs::Metadata&#45;&gt;fleek_ipld::unixfs::proto::unixfs::Metadata::get_size</title>
<path fill="none" stroke="#000000" d="M498.62,-262.64C551.51,-219.29 636.27,-118.45 660.93,-67.58"/>
<polygon fill="#000000" stroke="#000000" points="664.28,-68.67 665.04,-58.1 657.85,-65.88 664.28,-68.67"/>
<text text-anchor="middle" x="567.28" y="-168.11" font-family="monospace" font-size="10.00">owns</text>
</g>
<!-- fleek_ipld::unixfs::proto::unixfs::Metadata::write_message -->
<g id="node9" class="node">
<title>fleek_ipld::unixfs::proto::unixfs::Metadata::write_message</title>
<polygon fill="#db5367" stroke="black" points="170.38,-0.5 170.38,-38.5 463.38,-38.5 463.38,-0.5 170.38,-0.5"/>
<text text-anchor="middle" x="316.88" y="-26.5" font-family="monospace" font-size="10.00">pub(self) fn</text>
<polyline fill="none" stroke="black" points="170.38,-19.5 463.38,-19.5 "/>
<text text-anchor="middle" x="316.88" y="-7.5" font-family="monospace" font-size="10.00">unixfs::proto::unixfs::Metadata::write_message</text>
</g>
<!-- fleek_ipld::unixfs::proto::unixfs::Metadata&#45;&gt;fleek_ipld::unixfs::proto::unixfs::Metadata::write_message -->
<g id="edge17" class="edge">
<title>fleek_ipld::unixfs::proto::unixfs::Metadata&#45;&gt;fleek_ipld::unixfs::proto::unixfs::Metadata::write_message</title>
<path fill="none" stroke="#000000" d="M461.64,-262.27C455.24,-215.47 395.62,-99.76 353.25,-46.44"/>
<polygon fill="#000000" stroke="#000000" points="355.94,-44.2 346.87,-38.74 350.55,-48.67 355.94,-44.2"/>
<text text-anchor="middle" x="394.95" y="-157.35" font-family="monospace" font-size="10.00">owns</text>
</g>
<!-- fleek_ipld::unixfs::proto::unixfs::Metadata::get_size&#45;&gt;fleek_ipld::unixfs::proto::unixfs::Metadata -->
<g id="edge18" class="edge">
<title>fleek_ipld::unixfs::proto::unixfs::Metadata::get_size&#45;&gt;fleek_ipld::unixfs::proto::unixfs::Metadata</title>
<path fill="none" stroke="#7f7f7f" stroke-dasharray="5,2" d="M624.37,-57.87C571.48,-101.22 486.72,-202.06 462.05,-252.94"/>
<polygon fill="#7f7f7f" stroke="#7f7f7f" points="458.71,-251.85 457.95,-262.42 465.13,-254.63 458.71,-251.85"/>
<text text-anchor="middle" x="530.71" y="-158.41" font-family="monospace" font-size="10.00">uses</text>
</g>
<!-- fleek_ipld::unixfs::proto::unixfs::Metadata::write_message&#45;&gt;fleek_ipld::unixfs::proto::unixfs::Metadata -->
<g id="edge19" class="edge">
<title>fleek_ipld::unixfs::proto::unixfs::Metadata::write_message&#45;&gt;fleek_ipld::unixfs::proto::unixfs::Metadata</title>
<path fill="none" stroke="#7f7f7f" stroke-dasharray="5,2" d="M312.82,-38.89C319.23,-85.69 378.85,-201.39 421.22,-254.72"/>
<polygon fill="#7f7f7f" stroke="#7f7f7f" points="418.53,-256.95 427.6,-262.42 423.92,-252.49 418.53,-256.95"/>
<text text-anchor="middle" x="354.52" y="-149.8" font-family="monospace" font-size="10.00">uses</text>
</g>
</g>
</svg>
