<?xml version="1.0" encoding="UTF-8" standalone="no"?>
<!DOCTYPE svg PUBLIC "-//W3C//DTD SVG 1.1//EN"
 "http://www.w3.org/Graphics/SVG/1.1/DTD/svg11.dtd">
<!-- Generated by graphviz version 4.0.0 (0)
 -->
<!-- Pages: 1 -->
<svg width="652pt" height="599pt"
 viewBox="0.00 0.00 651.52 598.52" xmlns="http://www.w3.org/2000/svg" xmlns:xlink="http://www.w3.org/1999/xlink">
<g id="graph0" class="graph" transform="scale(1 1) rotate(0) translate(28.8 569.72)">
<polygon fill="white" stroke="transparent" points="-28.8,28.8 -28.8,-569.72 622.72,-569.72 622.72,28.8 -28.8,28.8"/>
<text text-anchor="middle" x="296.96" y="-508.12" font-family="Helvetica,sans-Serif" font-size="36.00">lightning_topology</text>
<!-- fdi -->
<g id="node1" class="node">
<title>fdi</title>
<polygon fill="#5397c8" stroke="black" points="492.92,-321.47 492.92,-359.47 593.92,-359.47 593.92,-321.47 492.92,-321.47"/>
<text text-anchor="middle" x="543.42" y="-347.47" font-family="monospace" font-size="10.00">external crate</text>
<polyline fill="none" stroke="black" points="492.92,-340.47 593.92,-340.47 "/>
<text text-anchor="middle" x="543.42" y="-328.47" font-family="monospace" font-size="10.00">fdi</text>
</g>
<!-- lightning_schema -->
<g id="node2" class="node">
<title>lightning_schema</title>
<polygon fill="#5397c8" stroke="black" points="353.97,-454.42 353.97,-492.42 466.97,-492.42 466.97,-454.42 353.97,-454.42"/>
<text text-anchor="middle" x="410.47" y="-480.42" font-family="monospace" font-size="10.00">external crate</text>
<polyline fill="none" stroke="black" points="353.97,-473.42 466.97,-473.42 "/>
<text text-anchor="middle" x="410.47" y="-461.42" font-family="monospace" font-size="10.00">lightning_schema</text>
</g>
<!-- lightning_topology -->
<g id="node3" class="node">
<title>lightning_topology</title>
<polygon fill="#5397c8" stroke="black" points="140.48,-274.46 140.48,-312.46 265.48,-312.46 265.48,-274.46 140.48,-274.46"/>
<text text-anchor="middle" x="202.98" y="-300.46" font-family="monospace" font-size="10.00">crate</text>
<polyline fill="none" stroke="black" points="140.48,-293.46 265.48,-293.46 "/>
<text text-anchor="middle" x="202.98" y="-281.46" font-family="monospace" font-size="10.00">lightning_topology</text>
</g>
<!-- lightning_topology&#45;&gt;fdi -->
<g id="edge1" class="edge">
<title>lightning_topology&#45;&gt;fdi</title>
<path fill="none" stroke="#7f7f7f" stroke-dasharray="5,2" d="M265.82,-302.14C327.66,-310.68 421.46,-323.63 482.59,-332.07"/>
<polygon fill="#7f7f7f" stroke="#7f7f7f" points="482.48,-335.59 492.86,-333.49 483.44,-328.65 482.48,-335.59"/>
<text text-anchor="middle" x="361.71" y="-320.1" font-family="monospace" font-size="10.00">uses</text>
</g>
<!-- lightning_topology&#45;&gt;lightning_schema -->
<g id="edge2" class="edge">
<title>lightning_topology&#45;&gt;lightning_schema</title>
<path fill="none" stroke="#7f7f7f" stroke-dasharray="5,2" d="M225.18,-312.72C262.7,-345.26 338.65,-411.13 380.73,-447.63"/>
<polygon fill="#7f7f7f" stroke="#7f7f7f" points="378.58,-450.39 388.42,-454.3 383.16,-445.1 378.58,-450.39"/>
<text text-anchor="middle" x="290.46" y="-383.17" font-family="monospace" font-size="10.00">uses</text>
</g>
<!-- lightning_topology::clustering -->
<g id="node4" class="node">
<title>lightning_topology::clustering</title>
<polygon fill="#81c169" stroke="black" points="217.96,-227.46 217.96,-265.46 414.96,-265.46 414.96,-227.46 217.96,-227.46"/>
<text text-anchor="middle" x="316.46" y="-253.46" font-family="monospace" font-size="10.00">pub mod</text>
<polyline fill="none" stroke="black" points="217.96,-246.46 414.96,-246.46 "/>
<text text-anchor="middle" x="316.46" y="-234.46" font-family="monospace" font-size="10.00">lightning_topology::clustering</text>
</g>
<!-- lightning_topology&#45;&gt;lightning_topology::clustering -->
<g id="edge3" class="edge">
<title>lightning_topology&#45;&gt;lightning_topology::clustering</title>
<path fill="none" stroke="#000000" d="M249.14,-274.34C253.07,-272.71 257.08,-271.06 261.07,-269.4"/>
<polygon fill="#000000" stroke="#000000" points="262.44,-272.62 270.34,-265.56 259.77,-266.15 262.44,-272.62"/>
<text text-anchor="middle" x="267.6" y="-274.87" font-family="monospace" font-size="10.00">owns</text>
</g>
<!-- lightning_topology::config -->
<g id="node5" class="node">
<title>lightning_topology::config</title>
<polygon fill="#81c169" stroke="black" points="135.95,-454.42 135.95,-492.42 308.95,-492.42 308.95,-454.42 135.95,-454.42"/>
<text text-anchor="middle" x="222.45" y="-480.42" font-family="monospace" font-size="10.00">pub mod</text>
<polyline fill="none" stroke="black" points="135.95,-473.42 308.95,-473.42 "/>
<text text-anchor="middle" x="222.45" y="-461.42" font-family="monospace" font-size="10.00">lightning_topology::config</text>
</g>
<!-- lightning_topology&#45;&gt;lightning_topology::config -->
<g id="edge4" class="edge">
<title>lightning_topology&#45;&gt;lightning_topology::config</title>
<path fill="none" stroke="#000000" d="M188.23,-312.52C179.49,-344.13 184.9,-407.5 198.2,-444.6"/>
<polygon fill="#000000" stroke="#000000" points="195.15,-446.37 202.16,-454.31 201.63,-443.73 195.15,-446.37"/>
<text text-anchor="middle" x="180.72" y="-381.56" font-family="monospace" font-size="10.00">owns</text>
</g>
<!-- lightning_topology&#45;&gt;lightning_topology::config -->
<g id="edge5" class="edge">
<title>lightning_topology&#45;&gt;lightning_topology::config</title>
<path fill="none" stroke="#7f7f7f" stroke-dasharray="5,2" d="M223.24,-312.51C237.91,-343.96 245.35,-406.85 239.4,-444.03"/>
<polygon fill="#7f7f7f" stroke="#7f7f7f" points="235.88,-443.72 237.24,-454.23 242.73,-445.17 235.88,-443.72"/>
<text text-anchor="middle" x="218.82" y="-381.27" font-family="monospace" font-size="10.00">uses</text>
</g>
<!-- lightning_topology::core -->
<g id="node6" class="node">
<title>lightning_topology::core</title>
<polygon fill="#f8c04c" stroke="black" points="9,-321.47 9,-359.47 170,-359.47 170,-321.47 9,-321.47"/>
<text text-anchor="middle" x="89.5" y="-347.47" font-family="monospace" font-size="10.00">pub(crate) mod</text>
<polyline fill="none" stroke="black" points="9,-340.47 170,-340.47 "/>
<text text-anchor="middle" x="89.5" y="-328.47" font-family="monospace" font-size="10.00">lightning_topology::core</text>
</g>
<!-- lightning_topology&#45;&gt;lightning_topology::core -->
<g id="edge6" class="edge">
<title>lightning_topology&#45;&gt;lightning_topology::core</title>
<path fill="none" stroke="#000000" d="M140.25,-290.3C124.85,-296.14 110.03,-304.57 100.19,-313.74"/>
<polygon fill="#000000" stroke="#000000" points="97.55,-311.45 93.46,-321.22 102.75,-316.13 97.55,-311.45"/>
<text text-anchor="middle" x="107.72" y="-305.02" font-family="monospace" font-size="10.00">owns</text>
</g>
<!-- lightning_topology&#45;&gt;lightning_topology::core -->
<g id="edge7" class="edge">
<title>lightning_topology&#45;&gt;lightning_topology::core</title>
<path fill="none" stroke="#7f7f7f" stroke-dasharray="5,2" d="M199.1,-312.59C194.61,-318.83 187.42,-324.96 178.79,-330.46"/>
<polygon fill="#7f7f7f" stroke="#7f7f7f" points="177,-327.45 170.13,-335.51 180.53,-333.49 177,-327.45"/>
<text text-anchor="middle" x="201.45" y="-324.52" font-family="monospace" font-size="10.00">uses</text>
</g>
<!-- lightning_topology::divisive -->
<g id="node7" class="node">
<title>lightning_topology::divisive</title>
<polygon fill="#81c169" stroke="black" points="337.44,-180.45 337.44,-218.45 522.44,-218.45 522.44,-180.45 337.44,-180.45"/>
<text text-anchor="middle" x="429.94" y="-206.45" font-family="monospace" font-size="10.00">pub mod</text>
<polyline fill="none" stroke="black" points="337.44,-199.45 522.44,-199.45 "/>
<text text-anchor="middle" x="429.94" y="-187.45" font-family="monospace" font-size="10.00">lightning_topology::divisive</text>
</g>
<!-- lightning_topology&#45;&gt;lightning_topology::divisive -->
<g id="edge8" class="edge">
<title>lightning_topology&#45;&gt;lightning_topology::divisive</title>
<path fill="none" stroke="#000000" d="M248.91,-274.44C285.09,-259.45 335.67,-238.5 374.18,-222.55"/>
<polygon fill="#000000" stroke="#000000" points="375.79,-225.67 383.69,-218.61 373.11,-219.2 375.79,-225.67"/>
<text text-anchor="middle" x="299.04" y="-251.5" font-family="monospace" font-size="10.00">owns</text>
</g>
<!-- lightning_topology::pairing -->
<g id="node8" class="node">
<title>lightning_topology::pairing</title>
<polygon fill="#81c169" stroke="black" points="0,-133.45 0,-171.45 179,-171.45 179,-133.45 0,-133.45"/>
<text text-anchor="middle" x="89.5" y="-159.45" font-family="monospace" font-size="10.00">pub mod</text>
<polyline fill="none" stroke="black" points="0,-152.45 179,-152.45 "/>
<text text-anchor="middle" x="89.5" y="-140.45" font-family="monospace" font-size="10.00">lightning_topology::pairing</text>
</g>
<!-- lightning_topology&#45;&gt;lightning_topology::pairing -->
<g id="edge9" class="edge">
<title>lightning_topology&#45;&gt;lightning_topology::pairing</title>
<path fill="none" stroke="#000000" d="M187.68,-274.45C168.05,-250.06 133.87,-207.59 111.47,-179.75"/>
<polygon fill="#000000" stroke="#000000" points="113.92,-177.21 104.92,-171.62 108.47,-181.6 113.92,-177.21"/>
<text text-anchor="middle" x="137.07" y="-230.1" font-family="monospace" font-size="10.00">owns</text>
</g>
<!-- lightning_types -->
<g id="node9" class="node">
<title>lightning_types</title>
<polygon fill="#5397c8" stroke="black" points="168.95,-0.5 168.95,-38.5 275.95,-38.5 275.95,-0.5 168.95,-0.5"/>
<text text-anchor="middle" x="222.45" y="-26.5" font-family="monospace" font-size="10.00">external crate</text>
<polyline fill="none" stroke="black" points="168.95,-19.5 275.95,-19.5 "/>
<text text-anchor="middle" x="222.45" y="-7.5" font-family="monospace" font-size="10.00">lightning_types</text>
</g>
<!-- lightning_topology&#45;&gt;lightning_types -->
<g id="edge10" class="edge">
<title>lightning_topology&#45;&gt;lightning_types</title>
<path fill="none" stroke="#7f7f7f" stroke-dasharray="5,2" d="M204.35,-274.2C207.71,-226.94 216.37,-105.04 220.37,-48.77"/>
<polygon fill="#7f7f7f" stroke="#7f7f7f" points="223.86,-48.97 221.08,-38.74 216.88,-48.47 223.86,-48.97"/>
<text text-anchor="middle" x="199.86" y="-164.48" font-family="monospace" font-size="10.00">uses</text>
</g>
<!-- tokio::sync::watch -->
<g id="node10" class="node">
<title>tokio::sync::watch</title>
<polygon fill="#81c169" stroke="black" points="347.97,-0.5 347.97,-38.5 472.97,-38.5 472.97,-0.5 347.97,-0.5"/>
<text text-anchor="middle" x="410.47" y="-26.5" font-family="monospace" font-size="10.00">external mod</text>
<polyline fill="none" stroke="black" points="347.97,-19.5 472.97,-19.5 "/>
<text text-anchor="middle" x="410.47" y="-7.5" font-family="monospace" font-size="10.00">tokio::sync::watch</text>
</g>
<!-- lightning_topology&#45;&gt;tokio::sync::watch -->
<g id="edge11" class="edge">
<title>lightning_topology&#45;&gt;tokio::sync::watch</title>
<path fill="none" stroke="#7f7f7f" stroke-dasharray="5,2" d="M217.57,-274.2C253.73,-226.45 347.61,-102.5 389.61,-47.04"/>
<polygon fill="#7f7f7f" stroke="#7f7f7f" points="392.65,-48.83 395.89,-38.74 387.07,-44.6 392.65,-48.83"/>
<text text-anchor="middle" x="291.09" y="-163.62" font-family="monospace" font-size="10.00">uses</text>
</g>
<!-- lightning_topology::core&#45;&gt;lightning_topology::divisive -->
<g id="edge12" class="edge">
<title>lightning_topology::core&#45;&gt;lightning_topology::divisive</title>
<path fill="none" stroke="#7f7f7f" stroke-dasharray="5,2" d="M135.41,-321.45C197.43,-295.76 307.85,-250.03 374.44,-222.44"/>
<polygon fill="#7f7f7f" stroke="#7f7f7f" points="376.04,-225.57 383.94,-218.51 373.36,-219.1 376.04,-225.57"/>
<text text-anchor="middle" x="242.43" y="-263.95" font-family="monospace" font-size="10.00">uses</text>
</g>
<!-- lightning_topology::divisive&#45;&gt;lightning_topology::clustering -->
<g id="edge13" class="edge">
<title>lightning_topology::divisive&#45;&gt;lightning_topology::clustering</title>
<path fill="none" stroke="#7f7f7f" stroke-dasharray="5,2" d="M383.78,-218.57C379.85,-220.2 375.84,-221.86 371.85,-223.52"/>
<polygon fill="#7f7f7f" stroke="#7f7f7f" points="370.47,-220.3 362.57,-227.36 373.15,-226.76 370.47,-220.3"/>
<text text-anchor="middle" x="365.31" y="-224.04" font-family="monospace" font-size="10.00">uses</text>
</g>
<!-- lightning_topology::divisive&#45;&gt;lightning_topology::pairing -->
<g id="edge14" class="edge">
<title>lightning_topology::divisive&#45;&gt;lightning_topology::pairing</title>
<path fill="none" stroke="#7f7f7f" stroke-dasharray="5,2" d="M337.36,-186.67C291.5,-180.34 236.07,-172.69 189.27,-166.23"/>
<polygon fill="#7f7f7f" stroke="#7f7f7f" points="189.5,-162.72 179.12,-164.82 188.55,-169.66 189.5,-162.72"/>
<text text-anchor="middle" x="250.82" y="-179.45" font-family="monospace" font-size="10.00">uses</text>
</g>
</g>
</svg>
