<?xml version="1.0" encoding="UTF-8" standalone="no"?>
<!DOCTYPE svg PUBLIC "-//W3C//DTD SVG 1.1//EN"
 "http://www.w3.org/Graphics/SVG/1.1/DTD/svg11.dtd">
<!-- Generated by graphviz version 4.0.0 (0)
 -->
<!-- Pages: 1 -->
<svg width="394pt" height="319pt"
 viewBox="0.00 0.00 393.60 318.60" xmlns="http://www.w3.org/2000/svg" xmlns:xlink="http://www.w3.org/1999/xlink">
<g id="graph0" class="graph" transform="scale(1 1) rotate(0) translate(36.8 289.8)">
<polygon fill="white" stroke="transparent" points="-36.8,28.8 -36.8,-289.8 356.8,-289.8 356.8,28.8 -36.8,28.8"/>
<text text-anchor="middle" x="160" y="-228.2" font-family="Helvetica,sans-Serif" font-size="36.00">lightning_resolver</text>
<!-- lightning_resolver -->
<g id="node1" class="node">
<title>lightning_resolver</title>
<polygon fill="#5397c8" stroke="black" points="0.76,-91 0.76,-129 125.76,-129 125.76,-91 0.76,-91"/>
<text text-anchor="middle" x="63.26" y="-117" font-family="monospace" font-size="10.00">crate</text>
<polyline fill="none" stroke="black" points="0.76,-110 125.76,-110 "/>
<text text-anchor="middle" x="63.26" y="-98" font-family="monospace" font-size="10.00">lightning_resolver</text>
</g>
<!-- lightning_resolver::config -->
<g id="node2" class="node">
<title>lightning_resolver::config</title>
<polygon fill="#81c169" stroke="black" points="146.35,-127.53 146.35,-165.53 319.35,-165.53 319.35,-127.53 146.35,-127.53"/>
<text text-anchor="middle" x="232.85" y="-153.53" font-family="monospace" font-size="10.00">pub mod</text>
<polyline fill="none" stroke="black" points="146.35,-146.53 319.35,-146.53 "/>
<text text-anchor="middle" x="232.85" y="-134.53" font-family="monospace" font-size="10.00">lightning_resolver::config</text>
</g>
<!-- lightning_resolver&#45;&gt;lightning_resolver::config -->
<g id="edge1" class="edge">
<title>lightning_resolver&#45;&gt;lightning_resolver::config</title>
<path fill="none" stroke="#000000" d="M125.93,-123.5C129.33,-124.23 132.79,-124.98 136.27,-125.73"/>
<polygon fill="#000000" stroke="#000000" points="135.63,-129.17 146.14,-127.85 137.1,-122.32 135.63,-129.17"/>
<text text-anchor="middle" x="143.6" y="-116.61" font-family="monospace" font-size="10.00">owns</text>
</g>
<!-- lightning_resolver::origin_finder -->
<g id="node3" class="node">
<title>lightning_resolver::origin_finder</title>
<polygon fill="#81c169" stroke="black" points="25,-0.36 25,-38.36 240,-38.36 240,-0.36 25,-0.36"/>
<text text-anchor="middle" x="132.5" y="-26.36" font-family="monospace" font-size="10.00">pub mod</text>
<polyline fill="none" stroke="black" points="25,-19.36 240,-19.36 "/>
<text text-anchor="middle" x="132.5" y="-7.36" font-family="monospace" font-size="10.00">lightning_resolver::origin_finder</text>
</g>
<!-- lightning_resolver&#45;&gt;lightning_resolver::origin_finder -->
<g id="edge2" class="edge">
<title>lightning_resolver&#45;&gt;lightning_resolver::origin_finder</title>
<path fill="none" stroke="#000000" d="M77.94,-90.78C87.76,-77.92 100.83,-60.81 111.72,-46.56"/>
<polygon fill="#000000" stroke="#000000" points="114.55,-48.63 117.84,-38.55 108.98,-44.38 114.55,-48.63"/>
<text text-anchor="middle" x="82.33" y="-71.67" font-family="monospace" font-size="10.00">owns</text>
</g>
<!-- lightning_resolver::resolver -->
<g id="node4" class="node">
<title>lightning_resolver::resolver</title>
<polygon fill="#81c169" stroke="black" points="36.33,-174.53 36.33,-212.53 221.33,-212.53 221.33,-174.53 36.33,-174.53"/>
<text text-anchor="middle" x="128.83" y="-200.53" font-family="monospace" font-size="10.00">pub mod</text>
<polyline fill="none" stroke="black" points="36.33,-193.53 221.33,-193.53 "/>
<text text-anchor="middle" x="128.83" y="-181.53" font-family="monospace" font-size="10.00">lightning_resolver::resolver</text>
</g>
<!-- lightning_resolver&#45;&gt;lightning_resolver::resolver -->
<g id="edge3" class="edge">
<title>lightning_resolver&#45;&gt;lightning_resolver::resolver</title>
<path fill="none" stroke="#000000" d="M78.47,-129.37C87.07,-140.34 97.97,-154.23 107.43,-166.27"/>
<polygon fill="#000000" stroke="#000000" points="104.78,-168.56 113.7,-174.26 110.28,-164.24 104.78,-168.56"/>
<text text-anchor="middle" x="80.45" y="-150.82" font-family="monospace" font-size="10.00">owns</text>
</g>
<!-- lightning_resolver::resolver&#45;&gt;lightning_resolver::config -->
<g id="edge4" class="edge">
<title>lightning_resolver::resolver&#45;&gt;lightning_resolver::config</title>
<path fill="none" stroke="#7f7f7f" stroke-dasharray="5,2" d="M171.14,-174.41C174.45,-172.92 177.81,-171.4 181.16,-169.88"/>
<polygon fill="#7f7f7f" stroke="#7f7f7f" points="182.91,-172.94 190.58,-165.63 180.02,-166.56 182.91,-172.94"/>
<text text-anchor="middle" x="163.65" y="-164.15" font-family="monospace" font-size="10.00">uses</text>
</g>
<!-- lightning_resolver::resolver&#45;&gt;lightning_resolver::origin_finder -->
<g id="edge5" class="edge">
<title>lightning_resolver::resolver&#45;&gt;lightning_resolver::origin_finder</title>
<path fill="none" stroke="#7f7f7f" stroke-dasharray="5,2" d="M129.24,-174.23C129.88,-143.81 131.13,-84.51 131.88,-48.76"/>
<polygon fill="#7f7f7f" stroke="#7f7f7f" points="135.38,-48.56 132.09,-38.49 128.39,-48.41 135.38,-48.56"/>
<text text-anchor="middle" x="143.06" y="-103.5" font-family="monospace" font-size="10.00">uses</text>
</g>
</g>
</svg>
