<?xml version="1.0" encoding="UTF-8" standalone="no"?>
<!DOCTYPE svg PUBLIC "-//W3C//DTD SVG 1.1//EN"
 "http://www.w3.org/Graphics/SVG/1.1/DTD/svg11.dtd">
<!-- Generated by graphviz version 4.0.0 (0)
 -->
<!-- Pages: 1 -->
<svg width="528pt" height="333pt"
 viewBox="0.00 0.00 527.60 332.62" xmlns="http://www.w3.org/2000/svg" xmlns:xlink="http://www.w3.org/1999/xlink">
<g id="graph0" class="graph" transform="scale(1 1) rotate(0) translate(28.8 303.82)">
<polygon fill="white" stroke="transparent" points="-28.8,28.8 -28.8,-303.82 498.8,-303.82 498.8,28.8 -28.8,28.8"/>
<text text-anchor="middle" x="235" y="-242.22" font-family="Helvetica,sans-Serif" font-size="36.00">lightning_origin_demuxer</text>
<!-- fdi -->
<g id="node1" class="node">
<title>fdi</title>
<polygon fill="#5397c8" stroke="black" points="276.51,-188.52 276.51,-226.52 377.51,-226.52 377.51,-188.52 276.51,-188.52"/>
<text text-anchor="middle" x="327.01" y="-214.52" font-family="monospace" font-size="10.00">external crate</text>
<polyline fill="none" stroke="black" points="276.51,-207.52 377.51,-207.52 "/>
<text text-anchor="middle" x="327.01" y="-195.52" font-family="monospace" font-size="10.00">fdi</text>
</g>
<!-- lightning_origin_demuxer -->
<g id="node2" class="node">
<title>lightning_origin_demuxer</title>
<polygon fill="#5397c8" stroke="black" points="105.5,-141.51 105.5,-179.51 266.5,-179.51 266.5,-141.51 105.5,-141.51"/>
<text text-anchor="middle" x="186" y="-167.51" font-family="monospace" font-size="10.00">crate</text>
<polyline fill="none" stroke="black" points="105.5,-160.51 266.5,-160.51 "/>
<text text-anchor="middle" x="186" y="-148.51" font-family="monospace" font-size="10.00">lightning_origin_demuxer</text>
</g>
<!-- lightning_origin_demuxer&#45;&gt;fdi -->
<g id="edge1" class="edge">
<title>lightning_origin_demuxer&#45;&gt;fdi</title>
<path fill="none" stroke="#7f7f7f" stroke-dasharray="5,2" d="M243.35,-179.63C251.07,-182.21 259.01,-184.85 266.78,-187.44"/>
<polygon fill="#7f7f7f" stroke="#7f7f7f" points="265.91,-190.84 276.5,-190.68 268.12,-184.2 265.91,-190.84"/>
<text text-anchor="middle" x="242.57" y="-186.54" font-family="monospace" font-size="10.00">uses</text>
</g>
<!-- lightning_origin_demuxer::config -->
<g id="node3" class="node">
<title>lightning_origin_demuxer::config</title>
<polygon fill="#f8c04c" stroke="black" points="128.5,-94.51 128.5,-132.51 337.5,-132.51 337.5,-94.51 128.5,-94.51"/>
<text text-anchor="middle" x="233" y="-120.51" font-family="monospace" font-size="10.00">pub(crate) mod</text>
<polyline fill="none" stroke="black" points="128.5,-113.51 337.5,-113.51 "/>
<text text-anchor="middle" x="233" y="-101.51" font-family="monospace" font-size="10.00">lightning_origin_demuxer::config</text>
</g>
<!-- lightning_origin_demuxer&#45;&gt;lightning_origin_demuxer::config -->
<g id="edge2" class="edge">
<title>lightning_origin_demuxer&#45;&gt;lightning_origin_demuxer::config</title>
<path fill="none" stroke="#000000" d="M238.25,-141.51C238.28,-141.43 238.32,-141.34 238.35,-141.25"/>
<polygon fill="#000000" stroke="#000000" points="241.44,-143.44 240.25,-132.91 234.61,-141.89 241.44,-143.44"/>
<text text-anchor="middle" x="225.8" y="-133.38" font-family="monospace" font-size="10.00">owns</text>
</g>
<!-- lightning_origin_demuxer&#45;&gt;lightning_origin_demuxer::config -->
<g id="edge3" class="edge">
<title>lightning_origin_demuxer&#45;&gt;lightning_origin_demuxer::config</title>
<path fill="none" stroke="#7f7f7f" stroke-dasharray="5,2" d="M178.73,-141.34C178.74,-141.25 178.75,-141.16 178.75,-141.07"/>
<polygon fill="#7f7f7f" stroke="#7f7f7f" points="181.88,-143.09 180.73,-132.55 175.06,-141.5 181.88,-143.09"/>
<text text-anchor="middle" x="166.24" y="-133.2" font-family="monospace" font-size="10.00">uses</text>
</g>
<!-- lightning_origin_demuxer::demuxer -->
<g id="node4" class="node">
<title>lightning_origin_demuxer::demuxer</title>
<polygon fill="#f8c04c" stroke="black" points="172.51,-47.5 172.51,-85.5 387.51,-85.5 387.51,-47.5 172.51,-47.5"/>
<text text-anchor="middle" x="280.01" y="-73.5" font-family="monospace" font-size="10.00">pub(crate) mod</text>
<polyline fill="none" stroke="black" points="172.51,-66.5 387.51,-66.5 "/>
<text text-anchor="middle" x="280.01" y="-54.5" font-family="monospace" font-size="10.00">lightning_origin_demuxer::demuxer</text>
</g>
<!-- lightning_origin_demuxer&#45;&gt;lightning_origin_demuxer::demuxer -->
<g id="edge4" class="edge">
<title>lightning_origin_demuxer&#45;&gt;lightning_origin_demuxer::demuxer</title>
<path fill="none" stroke="#000000" d="M242.74,-141.32C258.41,-127.73 272.74,-110.37 279.78,-95.21"/>
<polygon fill="#000000" stroke="#000000" points="283.13,-96.23 283.29,-85.63 276.56,-93.82 283.13,-96.23"/>
<text text-anchor="middle" x="248.76" y="-121.27" font-family="monospace" font-size="10.00">owns</text>
</g>
<!-- lightning_origin_demuxer&#45;&gt;lightning_origin_demuxer::demuxer -->
<g id="edge5" class="edge">
<title>lightning_origin_demuxer&#45;&gt;lightning_origin_demuxer::demuxer</title>
<path fill="none" stroke="#7f7f7f" stroke-dasharray="5,2" d="M182.69,-141.5C186.39,-126.83 199.7,-108.24 215.61,-92.74"/>
<polygon fill="#7f7f7f" stroke="#7f7f7f" points="218.09,-95.21 223.08,-85.86 213.35,-90.06 218.09,-95.21"/>
<text text-anchor="middle" x="186.65" y="-120.12" font-family="monospace" font-size="10.00">uses</text>
</g>
<!-- lightning_schema -->
<g id="node5" class="node">
<title>lightning_schema</title>
<polygon fill="#5397c8" stroke="black" points="82.49,-188.52 82.49,-226.52 195.49,-226.52 195.49,-188.52 82.49,-188.52"/>
<text text-anchor="middle" x="138.99" y="-214.52" font-family="monospace" font-size="10.00">external crate</text>
<polyline fill="none" stroke="black" points="82.49,-207.52 195.49,-207.52 "/>
<text text-anchor="middle" x="138.99" y="-195.52" font-family="monospace" font-size="10.00">lightning_schema</text>
</g>
<!-- lightning_origin_demuxer&#45;&gt;lightning_schema -->
<g id="edge6" class="edge">
<title>lightning_origin_demuxer&#45;&gt;lightning_schema</title>
<path fill="none" stroke="#7f7f7f" stroke-dasharray="5,2" d="M166.88,-179.63C166.43,-180.08 165.99,-180.52 165.54,-180.97"/>
<polygon fill="#7f7f7f" stroke="#7f7f7f" points="162.84,-178.72 158.25,-188.26 167.79,-183.67 162.84,-178.72"/>
<text text-anchor="middle" x="153.71" y="-183.3" font-family="monospace" font-size="10.00">uses</text>
</g>
<!-- lightning_types -->
<g id="node6" class="node">
<title>lightning_types</title>
<polygon fill="#5397c8" stroke="black" points="85.49,-0.5 85.49,-38.5 192.49,-38.5 192.49,-0.5 85.49,-0.5"/>
<text text-anchor="middle" x="138.99" y="-26.5" font-family="monospace" font-size="10.00">external crate</text>
<polyline fill="none" stroke="black" points="85.49,-19.5 192.49,-19.5 "/>
<text text-anchor="middle" x="138.99" y="-7.5" font-family="monospace" font-size="10.00">lightning_types</text>
</g>
<!-- lightning_origin_demuxer&#45;&gt;lightning_types -->
<g id="edge7" class="edge">
<title>lightning_origin_demuxer&#45;&gt;lightning_types</title>
<path fill="none" stroke="#7f7f7f" stroke-dasharray="5,2" d="M179.66,-141.5C171.67,-117.53 157.86,-76.1 148.58,-48.25"/>
<polygon fill="#7f7f7f" stroke="#7f7f7f" points="151.86,-47.05 145.38,-38.67 145.22,-49.26 151.86,-47.05"/>
<text text-anchor="middle" x="151.62" y="-86.88" font-family="monospace" font-size="10.00">uses</text>
</g>
<!-- lightning_origin_demuxer::demuxer&#45;&gt;lightning_origin_demuxer::config -->
<g id="edge8" class="edge">
<title>lightning_origin_demuxer::demuxer&#45;&gt;lightning_origin_demuxer::config</title>
<path fill="none" stroke="#7f7f7f" stroke-dasharray="5,2" d="M260.89,-85.62C260.44,-86.07 260,-86.52 259.55,-86.96"/>
<polygon fill="#7f7f7f" stroke="#7f7f7f" points="256.85,-84.71 252.26,-94.26 261.8,-89.66 256.85,-84.71"/>
<text text-anchor="middle" x="247.72" y="-89.29" font-family="monospace" font-size="10.00">uses</text>
</g>
</g>
</svg>
