<?xml version="1.0" encoding="UTF-8" standalone="no"?>
<!DOCTYPE svg PUBLIC "-//W3C//DTD SVG 1.1//EN"
 "http://www.w3.org/Graphics/SVG/1.1/DTD/svg11.dtd">
<!-- Generated by graphviz version 4.0.0 (0)
 -->
<!-- Pages: 1 -->
<svg width="765pt" height="619pt"
 viewBox="0.00 0.00 765.35 619.25" xmlns="http://www.w3.org/2000/svg" xmlns:xlink="http://www.w3.org/1999/xlink">
<g id="graph0" class="graph" transform="scale(1 1) rotate(0) translate(28.8 590.45)">
<polygon fill="white" stroke="transparent" points="-28.8,28.8 -28.8,-590.45 736.55,-590.45 736.55,28.8 -28.8,28.8"/>
<text text-anchor="middle" x="353.87" y="-528.85" font-family="Helvetica,sans-Serif" font-size="36.00">blake3_wasm</text>
<!-- blake3_wasm -->
<g id="node1" class="node">
<title>blake3_wasm</title>
<polygon fill="#5397c8" stroke="black" points="339.43,-237.82 339.43,-275.82 422.43,-275.82 422.43,-237.82 339.43,-237.82"/>
<text text-anchor="middle" x="380.93" y="-263.82" font-family="monospace" font-size="10.00">crate</text>
<polyline fill="none" stroke="black" points="339.43,-256.82 422.43,-256.82 "/>
<text text-anchor="middle" x="380.93" y="-244.82" font-family="monospace" font-size="10.00">blake3_wasm</text>
</g>
<!-- blake3_wasm::IncrementalVerifier -->
<g id="node2" class="node">
<title>blake3_wasm::IncrementalVerifier</title>
<polygon fill="#81c169" stroke="black" points="205.77,-290.63 205.77,-328.63 336.77,-328.63 336.77,-290.63 205.77,-290.63"/>
<text text-anchor="middle" x="271.27" y="-316.63" font-family="monospace" font-size="10.00">pub struct</text>
<polyline fill="none" stroke="black" points="205.77,-309.63 336.77,-309.63 "/>
<text text-anchor="middle" x="271.27" y="-297.63" font-family="monospace" font-size="10.00">IncrementalVerifier</text>
</g>
<!-- blake3_wasm&#45;&gt;blake3_wasm::IncrementalVerifier -->
<g id="edge1" class="edge">
<title>blake3_wasm&#45;&gt;blake3_wasm::IncrementalVerifier</title>
<path fill="none" stroke="#000000" d="M341.34,-275.89C334.5,-279.18 327.33,-282.63 320.28,-286.03"/>
<polygon fill="#000000" stroke="#000000" points="318.29,-283.1 310.8,-290.59 321.33,-289.41 318.29,-283.1"/>
<text text-anchor="middle" x="318.31" y="-272.96" font-family="monospace" font-size="10.00">owns</text>
</g>
<!-- blake3_wasm::hash -->
<g id="node9" class="node">
<title>blake3_wasm::hash</title>
<polygon fill="#81c169" stroke="black" points="463.59,-185.01 463.59,-223.01 517.59,-223.01 517.59,-185.01 463.59,-185.01"/>
<text text-anchor="middle" x="490.59" y="-211.01" font-family="monospace" font-size="10.00">pub fn</text>
<polyline fill="none" stroke="black" points="463.59,-204.01 517.59,-204.01 "/>
<text text-anchor="middle" x="490.59" y="-192.01" font-family="monospace" font-size="10.00">hash</text>
</g>
<!-- blake3_wasm&#45;&gt;blake3_wasm::hash -->
<g id="edge2" class="edge">
<title>blake3_wasm&#45;&gt;blake3_wasm::hash</title>
<path fill="none" stroke="#000000" d="M420.52,-237.76C431.52,-232.46 443.42,-226.73 454.24,-221.52"/>
<polygon fill="#000000" stroke="#000000" points="455.92,-224.59 463.41,-217.1 452.88,-218.29 455.92,-224.59"/>
<text text-anchor="middle" x="424.88" y="-221.64" font-family="monospace" font-size="10.00">owns</text>
</g>
<!-- blake3_wasm::IncrementalVerifier::feed_content -->
<g id="node3" class="node">
<title>blake3_wasm::IncrementalVerifier::feed_content</title>
<polygon fill="#81c169" stroke="black" points="492.75,-343.44 492.75,-381.44 707.75,-381.44 707.75,-343.44 492.75,-343.44"/>
<text text-anchor="middle" x="600.25" y="-369.44" font-family="monospace" font-size="10.00">pub fn</text>
<polyline fill="none" stroke="black" points="492.75,-362.44 707.75,-362.44 "/>
<text text-anchor="middle" x="600.25" y="-350.44" font-family="monospace" font-size="10.00">IncrementalVerifier::feed_content</text>
</g>
<!-- blake3_wasm::IncrementalVerifier&#45;&gt;blake3_wasm::IncrementalVerifier::feed_content -->
<g id="edge3" class="edge">
<title>blake3_wasm::IncrementalVerifier&#45;&gt;blake3_wasm::IncrementalVerifier::feed_content</title>
<path fill="none" stroke="#000000" d="M294.12,-328.73C332.78,-345.39 413.47,-361.92 482.31,-369.67"/>
<polygon fill="#000000" stroke="#000000" points="482.06,-373.16 492.37,-370.75 482.8,-366.2 482.06,-373.16"/>
<text text-anchor="middle" x="375.71" y="-352.2" font-family="monospace" font-size="10.00">owns</text>
</g>
<!-- blake3_wasm::IncrementalVerifier::feed_content_inner -->
<g id="node4" class="node">
<title>blake3_wasm::IncrementalVerifier::feed_content_inner</title>
<polygon fill="#f8c04c" stroke="black" points="309.59,-475.15 309.59,-513.15 560.59,-513.15 560.59,-475.15 309.59,-475.15"/>
<text text-anchor="middle" x="435.09" y="-501.15" font-family="monospace" font-size="10.00">pub(crate) fn</text>
<polyline fill="none" stroke="black" points="309.59,-494.15 560.59,-494.15 "/>
<text text-anchor="middle" x="435.09" y="-482.15" font-family="monospace" font-size="10.00">IncrementalVerifier::feed_content_inner</text>
</g>
<!-- blake3_wasm::IncrementalVerifier&#45;&gt;blake3_wasm::IncrementalVerifier::feed_content_inner -->
<g id="edge4" class="edge">
<title>blake3_wasm::IncrementalVerifier&#45;&gt;blake3_wasm::IncrementalVerifier::feed_content_inner</title>
<path fill="none" stroke="#000000" d="M270.56,-328.95C282.35,-363.49 337.78,-430.69 381.84,-468.57"/>
<polygon fill="#000000" stroke="#000000" points="379.71,-471.36 389.64,-475.06 384.19,-465.98 379.71,-471.36"/>
<text text-anchor="middle" x="313.7" y="-401.76" font-family="monospace" font-size="10.00">owns</text>
</g>
<!-- blake3_wasm::IncrementalVerifier::feed_proof -->
<g id="node5" class="node">
<title>blake3_wasm::IncrementalVerifier::feed_proof</title>
<polygon fill="#81c169" stroke="black" points="127.65,-428.14 127.65,-466.14 330.65,-466.14 330.65,-428.14 127.65,-428.14"/>
<text text-anchor="middle" x="229.15" y="-454.14" font-family="monospace" font-size="10.00">pub fn</text>
<polyline fill="none" stroke="black" points="127.65,-447.14 330.65,-447.14 "/>
<text text-anchor="middle" x="229.15" y="-435.14" font-family="monospace" font-size="10.00">IncrementalVerifier::feed_proof</text>
</g>
<!-- blake3_wasm::IncrementalVerifier&#45;&gt;blake3_wasm::IncrementalVerifier::feed_proof -->
<g id="edge5" class="edge">
<title>blake3_wasm::IncrementalVerifier&#45;&gt;blake3_wasm::IncrementalVerifier::feed_proof</title>
<path fill="none" stroke="#000000" d="M242.84,-328.86C227.84,-352.17 216.19,-391.1 216.34,-418.03"/>
<polygon fill="#000000" stroke="#000000" points="212.86,-418.33 217.05,-428.06 219.84,-417.84 212.86,-418.33"/>
<text text-anchor="middle" x="217.09" y="-376.45" font-family="monospace" font-size="10.00">owns</text>
</g>
<!-- blake3_wasm::IncrementalVerifier::feed_proof_and_content -->
<g id="node6" class="node">
<title>blake3_wasm::IncrementalVerifier::feed_proof_and_content</title>
<polygon fill="#81c169" stroke="black" points="0,-237.82 0,-275.82 275,-275.82 275,-237.82 0,-237.82"/>
<text text-anchor="middle" x="137.5" y="-263.82" font-family="monospace" font-size="10.00">pub fn</text>
<polyline fill="none" stroke="black" points="0,-256.82 275,-256.82 "/>
<text text-anchor="middle" x="137.5" y="-244.82" font-family="monospace" font-size="10.00">IncrementalVerifier::feed_proof_and_content</text>
</g>
<!-- blake3_wasm::IncrementalVerifier&#45;&gt;blake3_wasm::IncrementalVerifier::feed_proof_and_content -->
<g id="edge6" class="edge">
<title>blake3_wasm::IncrementalVerifier&#45;&gt;blake3_wasm::IncrementalVerifier::feed_proof_and_content</title>
<path fill="none" stroke="#000000" d="M265.71,-290.32C263.36,-287.51 260.43,-284.7 257.06,-281.93"/>
<polygon fill="#000000" stroke="#000000" points="259.11,-279.09 248.99,-275.95 254.94,-284.72 259.11,-279.09"/>
<text text-anchor="middle" x="273.88" y="-278.13" font-family="monospace" font-size="10.00">owns</text>
</g>
<!-- blake3_wasm::IncrementalVerifier::feed_proof_inner -->
<g id="node7" class="node">
<title>blake3_wasm::IncrementalVerifier::feed_proof_inner</title>
<polygon fill="#f8c04c" stroke="black" points="109.65,-47.5 109.65,-85.5 348.65,-85.5 348.65,-47.5 109.65,-47.5"/>
<text text-anchor="middle" x="229.15" y="-73.5" font-family="monospace" font-size="10.00">pub(crate) fn</text>
<polyline fill="none" stroke="black" points="109.65,-66.5 348.65,-66.5 "/>
<text text-anchor="middle" x="229.15" y="-54.5" font-family="monospace" font-size="10.00">IncrementalVerifier::feed_proof_inner</text>
</g>
<!-- blake3_wasm::IncrementalVerifier&#45;&gt;blake3_wasm::IncrementalVerifier::feed_proof_inner -->
<g id="edge7" class="edge">
<title>blake3_wasm::IncrementalVerifier&#45;&gt;blake3_wasm::IncrementalVerifier::feed_proof_inner</title>
<path fill="none" stroke="#000000" d="M282.69,-290.44C290.53,-247.75 274.24,-145.15 253.27,-94.99"/>
<polygon fill="#000000" stroke="#000000" points="256.36,-93.33 249.03,-85.68 250,-96.23 256.36,-93.33"/>
<text text-anchor="middle" x="255.48" y="-195.71" font-family="monospace" font-size="10.00">owns</text>
</g>
<!-- blake3_wasm::IncrementalVerifier::new -->
<g id="node8" class="node">
<title>blake3_wasm::IncrementalVerifier::new</title>
<polygon fill="#81c169" stroke="black" points="354.59,-0.5 354.59,-38.5 515.59,-38.5 515.59,-0.5 354.59,-0.5"/>
<text text-anchor="middle" x="435.09" y="-26.5" font-family="monospace" font-size="10.00">pub fn</text>
<polyline fill="none" stroke="black" points="354.59,-19.5 515.59,-19.5 "/>
<text text-anchor="middle" x="435.09" y="-7.5" font-family="monospace" font-size="10.00">IncrementalVerifier::new</text>
</g>
<!-- blake3_wasm::IncrementalVerifier&#45;&gt;blake3_wasm::IncrementalVerifier::new -->
<g id="edge8" class="edge">
<title>blake3_wasm::IncrementalVerifier&#45;&gt;blake3_wasm::IncrementalVerifier::new</title>
<path fill="none" stroke="#000000" d="M301.12,-290.49C346.04,-240.21 420.13,-107.94 436,-48.43"/>
<polygon fill="#000000" stroke="#000000" points="439.45,-49.05 438.22,-38.52 432.62,-47.52 439.45,-49.05"/>
<text text-anchor="middle" x="356.06" y="-172.46" font-family="monospace" font-size="10.00">owns</text>
</g>
<!-- blake3_wasm::IncrementalVerifier::feed_content&#45;&gt;blake3_wasm::IncrementalVerifier -->
<g id="edge9" class="edge">
<title>blake3_wasm::IncrementalVerifier::feed_content&#45;&gt;blake3_wasm::IncrementalVerifier</title>
<path fill="none" stroke="#7f7f7f" stroke-dasharray="5,2" d="M577.39,-343.34C530.45,-323.12 421.55,-303.08 347.12,-298.71"/>
<polygon fill="#7f7f7f" stroke="#7f7f7f" points="347.02,-295.21 336.86,-298.2 346.67,-302.2 347.02,-295.21"/>
<text text-anchor="middle" x="449.76" y="-324.03" font-family="monospace" font-size="10.00">uses</text>
</g>
<!-- blake3_wasm::IncrementalVerifier::feed_content_inner&#45;&gt;blake3_wasm::IncrementalVerifier -->
<g id="edge10" class="edge">
<title>blake3_wasm::IncrementalVerifier::feed_content_inner&#45;&gt;blake3_wasm::IncrementalVerifier</title>
<path fill="none" stroke="#7f7f7f" stroke-dasharray="5,2" d="M435.8,-474.83C424.01,-440.29 368.58,-373.09 324.52,-335.21"/>
<polygon fill="#7f7f7f" stroke="#7f7f7f" points="326.65,-332.42 316.72,-328.71 322.17,-337.8 326.65,-332.42"/>
<text text-anchor="middle" x="367.66" y="-408.02" font-family="monospace" font-size="10.00">uses</text>
</g>
<!-- blake3_wasm::IncrementalVerifier::feed_proof&#45;&gt;blake3_wasm::IncrementalVerifier -->
<g id="edge11" class="edge">
<title>blake3_wasm::IncrementalVerifier::feed_proof&#45;&gt;blake3_wasm::IncrementalVerifier</title>
<path fill="none" stroke="#7f7f7f" stroke-dasharray="5,2" d="M257.58,-427.91C272.58,-404.6 284.23,-365.68 284.07,-338.74"/>
<polygon fill="#7f7f7f" stroke="#7f7f7f" points="287.56,-338.44 283.37,-328.71 280.58,-338.93 287.56,-338.44"/>
<text text-anchor="middle" x="258.33" y="-386.33" font-family="monospace" font-size="10.00">uses</text>
</g>
<!-- blake3_wasm::IncrementalVerifier::feed_proof_and_content&#45;&gt;blake3_wasm::IncrementalVerifier -->
<g id="edge12" class="edge">
<title>blake3_wasm::IncrementalVerifier::feed_proof_and_content&#45;&gt;blake3_wasm::IncrementalVerifier</title>
<path fill="none" stroke="#7f7f7f" stroke-dasharray="5,2" d="M143.06,-276.13C153.22,-288.28 174.02,-300.46 196.02,-308.95"/>
<polygon fill="#7f7f7f" stroke="#7f7f7f" points="194.9,-312.26 205.5,-312.35 197.27,-305.68 194.9,-312.26"/>
<text text-anchor="middle" x="157.04" y="-295.54" font-family="monospace" font-size="10.00">uses</text>
</g>
<!-- blake3_wasm::IncrementalVerifier::feed_proof_inner&#45;&gt;blake3_wasm::IncrementalVerifier -->
<g id="edge13" class="edge">
<title>blake3_wasm::IncrementalVerifier::feed_proof_inner&#45;&gt;blake3_wasm::IncrementalVerifier</title>
<path fill="none" stroke="#7f7f7f" stroke-dasharray="5,2" d="M217.73,-85.7C209.89,-128.39 226.18,-230.98 247.14,-281.15"/>
<polygon fill="#7f7f7f" stroke="#7f7f7f" points="244.05,-282.81 251.39,-290.45 250.42,-279.9 244.05,-282.81"/>
<text text-anchor="middle" x="219.94" y="-186.42" font-family="monospace" font-size="10.00">uses</text>
</g>
<!-- blake3_wasm::IncrementalVerifier::new&#45;&gt;blake3_wasm::IncrementalVerifier -->
<g id="edge14" class="edge">
<title>blake3_wasm::IncrementalVerifier::new&#45;&gt;blake3_wasm::IncrementalVerifier</title>
<path fill="none" stroke="#7f7f7f" stroke-dasharray="5,2" d="M405.24,-38.64C360.32,-88.92 286.23,-221.19 270.36,-280.71"/>
<polygon fill="#7f7f7f" stroke="#7f7f7f" points="266.91,-280.08 268.14,-290.61 273.74,-281.61 266.91,-280.08"/>
<text text-anchor="middle" x="325.3" y="-162.67" font-family="monospace" font-size="10.00">uses</text>
</g>
</g>
</svg>
