<?xml version="1.0" encoding="UTF-8" standalone="no"?>
<!DOCTYPE svg PUBLIC "-//W3C//DTD SVG 1.1//EN"
 "http://www.w3.org/Graphics/SVG/1.1/DTD/svg11.dtd">
<!-- Generated by graphviz version 4.0.0 (0)
 -->
<!-- Pages: 1 -->
<svg width="812pt" height="417pt"
 viewBox="0.00 0.00 811.59 416.63" xmlns="http://www.w3.org/2000/svg" xmlns:xlink="http://www.w3.org/1999/xlink">
<g id="graph0" class="graph" transform="scale(1 1) rotate(0) translate(28.8 387.83)">
<polygon fill="white" stroke="transparent" points="-28.8,28.8 -28.8,-387.83 782.79,-387.83 782.79,28.8 -28.8,28.8"/>
<text text-anchor="middle" x="377" y="-326.23" font-family="Helvetica,sans-Serif" font-size="36.00">mock</text>
<!-- mock -->
<g id="node1" class="node">
<title>mock</title>
<polygon fill="#5397c8" stroke="black" points="380.96,-136.51 380.96,-174.51 434.96,-174.51 434.96,-136.51 380.96,-136.51"/>
<text text-anchor="middle" x="407.96" y="-162.51" font-family="monospace" font-size="10.00">crate</text>
<polyline fill="none" stroke="black" points="380.96,-155.51 434.96,-155.51 "/>
<text text-anchor="middle" x="407.96" y="-143.51" font-family="monospace" font-size="10.00">mock</text>
</g>
<!-- mock::consensus -->
<g id="node2" class="node">
<title>mock::consensus</title>
<polygon fill="#81c169" stroke="black" points="625.99,-136.51 625.99,-174.51 732.99,-174.51 732.99,-136.51 625.99,-136.51"/>
<text text-anchor="middle" x="679.49" y="-162.51" font-family="monospace" font-size="10.00">pub mod</text>
<polyline fill="none" stroke="black" points="625.99,-155.51 732.99,-155.51 "/>
<text text-anchor="middle" x="679.49" y="-143.51" font-family="monospace" font-size="10.00">mock::consensus</text>
</g>
<!-- mock&#45;&gt;mock::consensus -->
<g id="edge1" class="edge">
<title>mock&#45;&gt;mock::consensus</title>
<path fill="none" stroke="#000000" d="M434.99,-155.51C476.81,-155.51 558.36,-155.51 615.75,-155.51"/>
<polygon fill="#000000" stroke="#000000" points="615.81,-159.01 625.81,-155.51 615.81,-152.01 615.81,-159.01"/>
<text text-anchor="middle" x="512.87" y="-158.51" font-family="monospace" font-size="10.00">owns</text>
</g>
<!-- mock::syncronizer -->
<g id="node3" class="node">
<title>mock::syncronizer</title>
<polygon fill="#81c169" stroke="black" points="145.01,-136.51 145.01,-174.51 264.01,-174.51 264.01,-136.51 145.01,-136.51"/>
<text text-anchor="middle" x="204.51" y="-162.51" font-family="monospace" font-size="10.00">pub mod</text>
<polyline fill="none" stroke="black" points="145.01,-155.51 264.01,-155.51 "/>
<text text-anchor="middle" x="204.51" y="-143.51" font-family="monospace" font-size="10.00">mock::syncronizer</text>
</g>
<!-- mock&#45;&gt;mock::syncronizer -->
<g id="edge2" class="edge">
<title>mock&#45;&gt;mock::syncronizer</title>
<path fill="none" stroke="#000000" d="M380.94,-155.51C353.87,-155.51 311.07,-155.51 274.4,-155.51"/>
<polygon fill="#000000" stroke="#000000" points="274.24,-152.01 264.24,-155.51 274.24,-159.01 274.24,-152.01"/>
<text text-anchor="middle" x="315.17" y="-158.51" font-family="monospace" font-size="10.00">owns</text>
</g>
<!-- tokio::sync::broadcast -->
<g id="node4" class="node">
<title>tokio::sync::broadcast</title>
<polygon fill="#81c169" stroke="black" points="604.99,-0.5 604.99,-38.5 753.99,-38.5 753.99,-0.5 604.99,-0.5"/>
<text text-anchor="middle" x="679.49" y="-26.5" font-family="monospace" font-size="10.00">external mod</text>
<polyline fill="none" stroke="black" points="604.99,-19.5 753.99,-19.5 "/>
<text text-anchor="middle" x="679.49" y="-7.5" font-family="monospace" font-size="10.00">tokio::sync::broadcast</text>
</g>
<!-- mock::consensus&#45;&gt;tokio::sync::broadcast -->
<g id="edge3" class="edge">
<title>mock::consensus&#45;&gt;tokio::sync::broadcast</title>
<path fill="none" stroke="#7f7f7f" stroke-dasharray="5,2" d="M679.49,-136.31C679.49,-113.53 679.49,-75.3 679.49,-48.81"/>
<polygon fill="#7f7f7f" stroke="#7f7f7f" points="682.99,-48.6 679.49,-38.6 675.99,-48.6 682.99,-48.6"/>
<text text-anchor="middle" x="666.99" y="-95.56" font-family="monospace" font-size="10.00">uses</text>
</g>
<!-- tokio::sync::mpsc -->
<g id="node5" class="node">
<title>tokio::sync::mpsc</title>
<polygon fill="#81c169" stroke="black" points="619.99,-272.53 619.99,-310.53 738.99,-310.53 738.99,-272.53 619.99,-272.53"/>
<text text-anchor="middle" x="679.49" y="-298.53" font-family="monospace" font-size="10.00">external mod</text>
<polyline fill="none" stroke="black" points="619.99,-291.53 738.99,-291.53 "/>
<text text-anchor="middle" x="679.49" y="-279.53" font-family="monospace" font-size="10.00">tokio::sync::mpsc</text>
</g>
<!-- mock::consensus&#45;&gt;tokio::sync::mpsc -->
<g id="edge4" class="edge">
<title>mock::consensus&#45;&gt;tokio::sync::mpsc</title>
<path fill="none" stroke="#7f7f7f" stroke-dasharray="5,2" d="M679.49,-174.71C679.49,-197.5 679.49,-235.73 679.49,-262.22"/>
<polygon fill="#7f7f7f" stroke="#7f7f7f" points="675.99,-262.43 679.49,-272.43 682.99,-262.43 675.99,-262.43"/>
<text text-anchor="middle" x="666.99" y="-221.46" font-family="monospace" font-size="10.00">uses</text>
</g>
<!-- tokio::sync::oneshot -->
<g id="node6" class="node">
<title>tokio::sync::oneshot</title>
<polygon fill="#81c169" stroke="black" points="0,-136.51 0,-174.51 137,-174.51 137,-136.51 0,-136.51"/>
<text text-anchor="middle" x="68.5" y="-162.51" font-family="monospace" font-size="10.00">external mod</text>
<polyline fill="none" stroke="black" points="0,-155.51 137,-155.51 "/>
<text text-anchor="middle" x="68.5" y="-143.51" font-family="monospace" font-size="10.00">tokio::sync::oneshot</text>
</g>
<!-- mock::syncronizer&#45;&gt;tokio::sync::oneshot -->
<g id="edge5" class="edge">
<title>mock::syncronizer&#45;&gt;tokio::sync::oneshot</title>
<path fill="none" stroke="#7f7f7f" stroke-dasharray="5,2" d="M144.86,-155.51C144.7,-155.51 144.53,-155.51 144.37,-155.51"/>
<polygon fill="#7f7f7f" stroke="#7f7f7f" points="147.11,-152.01 137.11,-155.51 147.11,-159.01 147.11,-152.01"/>
<text text-anchor="middle" x="138.37" y="-147.51" font-family="monospace" font-size="10.00">uses</text>
</g>
</g>
</svg>
