<?xml version="1.0" encoding="UTF-8" standalone="no"?>
<!DOCTYPE svg PUBLIC "-//W3C//DTD SVG 1.1//EN"
 "http://www.w3.org/Graphics/SVG/1.1/DTD/svg11.dtd">
<!-- Generated by graphviz version 4.0.0 (0)
 -->
<!-- Pages: 1 -->
<svg width="1233pt" height="4050pt"
 viewBox="0.00 0.00 1232.97 4050.00" xmlns="http://www.w3.org/2000/svg" xmlns:xlink="http://www.w3.org/1999/xlink">
<g id="graph0" class="graph" transform="scale(0.965067 0.965067) rotate(0) translate(28.8 4167.8)">
<polygon fill="white" stroke="transparent" points="-28.8,28.8 -28.8,-4167.8 1248.8,-4167.8 1248.8,28.8 -28.8,28.8"/>
<text text-anchor="middle" x="610" y="-4106.2" font-family="Helvetica,sans-Serif" font-size="36.00">lightning_topology</text>
<!-- fdi -->
<g id="node1" class="node">
<title>fdi</title>
<polygon fill="#5397c8" stroke="black" points="123,-4052.5 123,-4090.5 224,-4090.5 224,-4052.5 123,-4052.5"/>
<text text-anchor="middle" x="173.5" y="-4078.5" font-family="monospace" font-size="10.00">external crate</text>
<polyline fill="none" stroke="black" points="123,-4071.5 224,-4071.5 "/>
<text text-anchor="middle" x="173.5" y="-4059.5" font-family="monospace" font-size="10.00">fdi</text>
</g>
<!-- lightning_schema -->
<g id="node2" class="node">
<title>lightning_schema</title>
<polygon fill="#5397c8" stroke="black" points="117,-1094.5 117,-1132.5 230,-1132.5 230,-1094.5 117,-1094.5"/>
<text text-anchor="middle" x="173.5" y="-1120.5" font-family="monospace" font-size="10.00">external crate</text>
<polyline fill="none" stroke="black" points="117,-1113.5 230,-1113.5 "/>
<text text-anchor="middle" x="173.5" y="-1101.5" font-family="monospace" font-size="10.00">lightning_schema</text>
</g>
<!-- lightning_topology -->
<g id="node3" class="node">
<title>lightning_topology</title>
<polygon fill="#5397c8" stroke="black" points="111,-2573.5 111,-2611.5 236,-2611.5 236,-2573.5 111,-2573.5"/>
<text text-anchor="middle" x="173.5" y="-2599.5" font-family="monospace" font-size="10.00">crate</text>
<polyline fill="none" stroke="black" points="111,-2592.5 236,-2592.5 "/>
<text text-anchor="middle" x="173.5" y="-2580.5" font-family="monospace" font-size="10.00">lightning_topology</text>
</g>
<!-- lightning_topology&#45;&gt;fdi -->
<g id="edge1" class="edge">
<title>lightning_topology&#45;&gt;fdi</title>
</g>
<!-- lightning_topology&#45;&gt;lightning_schema -->
<g id="edge2" class="edge">
<title>lightning_topology&#45;&gt;lightning_schema</title>
</g>
<!-- lightning_topology::clustering -->
<g id="node4" class="node">
<title>lightning_topology::clustering</title>
<polygon fill="#81c169" stroke="black" points="1023,-3366.5 1023,-3404.5 1220,-3404.5 1220,-3366.5 1023,-3366.5"/>
<text text-anchor="middle" x="1121.5" y="-3392.5" font-family="monospace" font-size="10.00">pub mod</text>
<polyline fill="none" stroke="black" points="1023,-3385.5 1220,-3385.5 "/>
<text text-anchor="middle" x="1121.5" y="-3373.5" font-family="monospace" font-size="10.00">lightning_topology::clustering</text>
</g>
<!-- lightning_topology&#45;&gt;lightning_topology::clustering -->
<g id="edge3" class="edge">
<title>lightning_topology&#45;&gt;lightning_topology::clustering</title>
<path fill="none" stroke="#000000" d="M185.04,-2611.79C253.66,-2726.44 605,-3313.5 605,-3313.5 605,-3313.5 861.01,-3349.19 1012.55,-3370.31"/>
<polygon fill="#000000" stroke="#000000" points="1012.44,-3373.83 1022.83,-3371.75 1013.41,-3366.9 1012.44,-3373.83"/>
<text text-anchor="middle" x="617.5" y="-3316.5" font-family="monospace" font-size="10.00">owns</text>
</g>
<!-- lightning_topology::config -->
<g id="node5" class="node">
<title>lightning_topology::config</title>
<polygon fill="#81c169" stroke="black" points="1035,-3069.5 1035,-3107.5 1208,-3107.5 1208,-3069.5 1035,-3069.5"/>
<text text-anchor="middle" x="1121.5" y="-3095.5" font-family="monospace" font-size="10.00">pub mod</text>
<polyline fill="none" stroke="black" points="1035,-3088.5 1208,-3088.5 "/>
<text text-anchor="middle" x="1121.5" y="-3076.5" font-family="monospace" font-size="10.00">lightning_topology::config</text>
</g>
<!-- lightning_topology&#45;&gt;lightning_topology::config -->
<g id="edge4" class="edge">
<title>lightning_topology&#45;&gt;lightning_topology::config</title>
<path fill="none" stroke="#000000" d="M191.77,-2611.51C273.89,-2696.97 605,-3041.5 605,-3041.5 605,-3041.5 875.09,-3066.08 1024.64,-3079.69"/>
<polygon fill="#000000" stroke="#000000" points="1024.48,-3083.19 1034.76,-3080.61 1025.12,-3076.21 1024.48,-3083.19"/>
<text text-anchor="middle" x="617.5" y="-3044.5" font-family="monospace" font-size="10.00">owns</text>
</g>
<!-- lightning_topology&#45;&gt;lightning_topology::config -->
<g id="edge5" class="edge">
<title>lightning_topology&#45;&gt;lightning_topology::config</title>
<path fill="none" stroke="#7f7f7f" stroke-dasharray="5,2" d="M214.41,-2611.5C326.46,-2663.54 630,-2804.5 630,-2804.5 630,-2804.5 960.83,-2995.66 1079.64,-3064.31"/>
<polygon fill="#7f7f7f" stroke="#7f7f7f" points="1078.08,-3067.45 1088.49,-3069.42 1081.58,-3061.39 1078.08,-3067.45"/>
<text text-anchor="middle" x="617.5" y="-2796.5" font-family="monospace" font-size="10.00">uses</text>
</g>
<!-- lightning_topology::core -->
<g id="node6" class="node">
<title>lightning_topology::core</title>
<polygon fill="#f8c04c" stroke="black" points="1041,-2958.5 1041,-2996.5 1202,-2996.5 1202,-2958.5 1041,-2958.5"/>
<text text-anchor="middle" x="1121.5" y="-2984.5" font-family="monospace" font-size="10.00">pub(crate) mod</text>
<polyline fill="none" stroke="black" points="1041,-2977.5 1202,-2977.5 "/>
<text text-anchor="middle" x="1121.5" y="-2965.5" font-family="monospace" font-size="10.00">lightning_topology::core</text>
</g>
<!-- lightning_topology&#45;&gt;lightning_topology::core -->
<g id="edge6" class="edge">
<title>lightning_topology&#45;&gt;lightning_topology::core</title>
<path fill="none" stroke="#000000" d="M236.02,-2594.01C361.04,-2597.02 630,-2603.5 630,-2603.5 630,-2603.5 977.93,-2868.25 1088.32,-2952.25"/>
<polygon fill="#000000" stroke="#000000" points="1086.37,-2955.17 1096.45,-2958.44 1090.61,-2949.6 1086.37,-2955.17"/>
<text text-anchor="middle" x="617.5" y="-2595.5" font-family="monospace" font-size="10.00">owns</text>
</g>
<!-- lightning_topology&#45;&gt;lightning_topology::core -->
<g id="edge7" class="edge">
<title>lightning_topology&#45;&gt;lightning_topology::core</title>
<path fill="none" stroke="#7f7f7f" stroke-dasharray="5,2" d="M199.02,-2573.49C295.16,-2501.89 630,-2252.5 630,-2252.5 630,-2252.5 1013.24,-2817.81 1102.9,-2950.06"/>
<polygon fill="#7f7f7f" stroke="#7f7f7f" points="1100.1,-2952.17 1108.61,-2958.48 1105.89,-2948.24 1100.1,-2952.17"/>
<text text-anchor="middle" x="617.5" y="-2244.5" font-family="monospace" font-size="10.00">uses</text>
</g>
<!-- lightning_topology::divisive -->
<g id="node7" class="node">
<title>lightning_topology::divisive</title>
<polygon fill="#81c169" stroke="black" points="1029,-1479.5 1029,-1517.5 1214,-1517.5 1214,-1479.5 1029,-1479.5"/>
<text text-anchor="middle" x="1121.5" y="-1505.5" font-family="monospace" font-size="10.00">pub mod</text>
<polyline fill="none" stroke="black" points="1029,-1498.5 1214,-1498.5 "/>
<text text-anchor="middle" x="1121.5" y="-1486.5" font-family="monospace" font-size="10.00">lightning_topology::divisive</text>
</g>
<!-- lightning_topology&#45;&gt;lightning_topology::divisive -->
<g id="edge8" class="edge">
<title>lightning_topology&#45;&gt;lightning_topology::divisive</title>
<path fill="none" stroke="#000000" d="M183.46,-2573.15C250.22,-2443.43 630,-1705.5 630,-1705.5 630,-1705.5 938.82,-1575.44 1066.88,-1521.51"/>
<polygon fill="#000000" stroke="#000000" points="1068.28,-1524.71 1076.14,-1517.6 1065.57,-1518.26 1068.28,-1524.71"/>
<text text-anchor="middle" x="617.5" y="-1697.5" font-family="monospace" font-size="10.00">owns</text>
</g>
<!-- lightning_topology::pairing -->
<g id="node8" class="node">
<title>lightning_topology::pairing</title>
<polygon fill="#81c169" stroke="black" points="1032,-0.5 1032,-38.5 1211,-38.5 1211,-0.5 1032,-0.5"/>
<text text-anchor="middle" x="1121.5" y="-26.5" font-family="monospace" font-size="10.00">pub mod</text>
<polyline fill="none" stroke="black" points="1032,-19.5 1211,-19.5 "/>
<text text-anchor="middle" x="1121.5" y="-7.5" font-family="monospace" font-size="10.00">lightning_topology::pairing</text>
</g>
<!-- lightning_topology&#45;&gt;lightning_topology::pairing -->
<g id="edge9" class="edge">
<title>lightning_topology&#45;&gt;lightning_topology::pairing</title>
<path fill="none" stroke="#000000" d="M177.66,-2573.42C223.33,-2363.72 630,-496.5 630,-496.5 630,-496.5 991.36,-145.8 1094.38,-45.82"/>
<polygon fill="#000000" stroke="#000000" points="1096.89,-48.27 1101.62,-38.79 1092.01,-43.24 1096.89,-48.27"/>
<text text-anchor="middle" x="617.5" y="-488.5" font-family="monospace" font-size="10.00">owns</text>
</g>
<!-- lightning_types -->
<g id="node9" class="node">
<title>lightning_types</title>
<polygon fill="#5397c8" stroke="black" points="120,-983.5 120,-1021.5 227,-1021.5 227,-983.5 120,-983.5"/>
<text text-anchor="middle" x="173.5" y="-1009.5" font-family="monospace" font-size="10.00">external crate</text>
<polyline fill="none" stroke="black" points="120,-1002.5 227,-1002.5 "/>
<text text-anchor="middle" x="173.5" y="-990.5" font-family="monospace" font-size="10.00">lightning_types</text>
</g>
<!-- lightning_topology&#45;&gt;lightning_types -->
<g id="edge10" class="edge">
<title>lightning_topology&#45;&gt;lightning_types</title>
<path fill="none" stroke="#7f7f7f" stroke-dasharray="5,2" d="M171,-2573.44C155.02,-2451.84 68,-1789.5 68,-1789.5 68,-1789.5 150.48,-1174.23 169.58,-1031.72"/>
<polygon fill="#7f7f7f" stroke="#7f7f7f" points="173.08,-1031.94 170.94,-1021.56 166.15,-1031.01 173.08,-1031.94"/>
<text text-anchor="middle" x="62.5" y="-1787" font-family="monospace" font-size="10.00">uses</text>
</g>
<!-- tokio::sync::watch -->
<g id="node10" class="node">
<title>tokio::sync::watch</title>
<polygon fill="#81c169" stroke="black" points="111,-872.5 111,-910.5 236,-910.5 236,-872.5 111,-872.5"/>
<text text-anchor="middle" x="173.5" y="-898.5" font-family="monospace" font-size="10.00">external mod</text>
<polyline fill="none" stroke="black" points="111,-891.5 236,-891.5 "/>
<text text-anchor="middle" x="173.5" y="-879.5" font-family="monospace" font-size="10.00">tokio::sync::watch</text>
</g>
<!-- lightning_topology&#45;&gt;tokio::sync::watch -->
<g id="edge11" class="edge">
<title>lightning_topology&#45;&gt;tokio::sync::watch</title>
<path fill="none" stroke="#7f7f7f" stroke-dasharray="5,2" d="M170.84,-2573.18C154.46,-2454.25 68,-1826.5 68,-1826.5 68,-1826.5 152.24,-1079.89 170.17,-921.01"/>
<polygon fill="#7f7f7f" stroke="#7f7f7f" points="173.7,-920.93 171.34,-910.6 166.75,-920.15 173.7,-920.93"/>
<text text-anchor="middle" x="62.5" y="-1824" font-family="monospace" font-size="10.00">uses</text>
</g>
<!-- lightning_topology::core&#45;&gt;lightning_topology::divisive -->
<g id="edge12" class="edge">
<title>lightning_topology::core&#45;&gt;lightning_topology::divisive</title>
</g>
<!-- lightning_topology::divisive&#45;&gt;lightning_topology::clustering -->
<g id="edge13" class="edge">
<title>lightning_topology::divisive&#45;&gt;lightning_topology::clustering</title>
<path fill="none" stroke="#7f7f7f" stroke-dasharray="5,2" d="M1119.1,-1517.84C1100.51,-1667.91 980,-2640.5 980,-2640.5 980,-2640.5 1089.69,-3218.02 1115.92,-3356.1"/>
<polygon fill="#7f7f7f" stroke="#7f7f7f" points="1112.56,-3357.16 1117.86,-3366.34 1119.43,-3355.86 1112.56,-3357.16"/>
<text text-anchor="middle" x="974.5" y="-2638" font-family="monospace" font-size="10.00">uses</text>
</g>
<!-- lightning_topology::divisive&#45;&gt;lightning_topology::pairing -->
<g id="edge14" class="edge">
<title>lightning_topology::divisive&#45;&gt;lightning_topology::pairing</title>
</g>
</g>
</svg>
