<?xml version="1.0" encoding="UTF-8" standalone="no"?>
<!DOCTYPE svg PUBLIC "-//W3C//DTD SVG 1.1//EN"
 "http://www.w3.org/Graphics/SVG/1.1/DTD/svg11.dtd">
<!-- Generated by graphviz version 4.0.0 (0)
 -->
<!-- Pages: 1 -->
<svg width="444pt" height="318pt"
 viewBox="0.00 0.00 444.41 317.74" xmlns="http://www.w3.org/2000/svg" xmlns:xlink="http://www.w3.org/1999/xlink">
<g id="graph0" class="graph" transform="scale(1 1) rotate(0) translate(28.8 288.94)">
<polygon fill="white" stroke="transparent" points="-28.8,28.8 -28.8,-288.94 415.61,-288.94 415.61,28.8 -28.8,28.8"/>
<text text-anchor="middle" x="193.41" y="-227.34" font-family="Helvetica,sans-Serif" font-size="36.00">infusion_proc</text>
<!-- infusion_proc -->
<g id="node1" class="node">
<title>infusion_proc</title>
<polygon fill="#5397c8" stroke="black" points="162.73,-109.34 162.73,-147.34 257.73,-147.34 257.73,-109.34 162.73,-109.34"/>
<text text-anchor="middle" x="210.23" y="-135.34" font-family="monospace" font-size="10.00">crate</text>
<polyline fill="none" stroke="black" points="162.73,-128.34 257.73,-128.34 "/>
<text text-anchor="middle" x="210.23" y="-116.34" font-family="monospace" font-size="10.00">infusion_proc</text>
</g>
<!-- infusion_proc::helpers -->
<g id="node2" class="node">
<title>infusion_proc::helpers</title>
<polygon fill="#f8c04c" stroke="black" points="0,-126.64 0,-164.64 149,-164.64 149,-126.64 0,-126.64"/>
<text text-anchor="middle" x="74.5" y="-152.64" font-family="monospace" font-size="10.00">pub(crate) mod</text>
<polyline fill="none" stroke="black" points="0,-145.64 149,-145.64 "/>
<text text-anchor="middle" x="74.5" y="-133.64" font-family="monospace" font-size="10.00">infusion_proc::helpers</text>
</g>
<!-- infusion_proc&#45;&gt;infusion_proc::helpers -->
<g id="edge1" class="edge">
<title>infusion_proc&#45;&gt;infusion_proc::helpers</title>
<path fill="none" stroke="#000000" d="M175.81,-109.34C150.51,-106.83 116.97,-111.81 95.53,-121.7"/>
<polygon fill="#000000" stroke="#000000" points="93.7,-118.72 86.6,-126.59 97.06,-124.86 93.7,-118.72"/>
<text text-anchor="middle" x="123.17" y="-118.52" font-family="monospace" font-size="10.00">owns</text>
</g>
<!-- infusion_proc&#45;&gt;infusion_proc::helpers -->
<g id="edge2" class="edge">
<title>infusion_proc&#45;&gt;infusion_proc::helpers</title>
<path fill="none" stroke="#7f7f7f" stroke-dasharray="5,2" d="M197.91,-147.54C180.21,-159.04 146.83,-165.86 119.22,-165.25"/>
<polygon fill="#7f7f7f" stroke="#7f7f7f" points="119.16,-161.74 108.97,-164.65 118.75,-168.73 119.16,-161.74"/>
<text text-anchor="middle" x="171.07" y="-159.39" font-family="monospace" font-size="10.00">uses</text>
</g>
<!-- infusion_proc::on_trait -->
<g id="node3" class="node">
<title>infusion_proc::on_trait</title>
<polygon fill="#f8c04c" stroke="black" points="76.15,-53.96 76.15,-91.96 231.15,-91.96 231.15,-53.96 76.15,-53.96"/>
<text text-anchor="middle" x="153.65" y="-79.96" font-family="monospace" font-size="10.00">pub(crate) mod</text>
<polyline fill="none" stroke="black" points="76.15,-72.96 231.15,-72.96 "/>
<text text-anchor="middle" x="153.65" y="-60.96" font-family="monospace" font-size="10.00">infusion_proc::on_trait</text>
</g>
<!-- infusion_proc&#45;&gt;infusion_proc::on_trait -->
<g id="edge3" class="edge">
<title>infusion_proc&#45;&gt;infusion_proc::on_trait</title>
<path fill="none" stroke="#000000" d="M190.76,-109.28C187.5,-106.1 184.08,-102.75 180.68,-99.42"/>
<polygon fill="#000000" stroke="#000000" points="182.94,-96.74 173.35,-92.24 178.04,-101.74 182.94,-96.74"/>
<text text-anchor="middle" x="173.22" y="-96.35" font-family="monospace" font-size="10.00">owns</text>
</g>
<!-- infusion_proc::parse -->
<g id="node4" class="node">
<title>infusion_proc::parse</title>
<polygon fill="#f8c04c" stroke="black" points="249.81,-158.06 249.81,-196.06 386.81,-196.06 386.81,-158.06 249.81,-158.06"/>
<text text-anchor="middle" x="318.31" y="-184.06" font-family="monospace" font-size="10.00">pub(crate) mod</text>
<polyline fill="none" stroke="black" points="249.81,-177.06 386.81,-177.06 "/>
<text text-anchor="middle" x="318.31" y="-165.06" font-family="monospace" font-size="10.00">infusion_proc::parse</text>
</g>
<!-- infusion_proc&#45;&gt;infusion_proc::parse -->
<g id="edge4" class="edge">
<title>infusion_proc&#45;&gt;infusion_proc::parse</title>
<path fill="none" stroke="#000000" d="M213.17,-147.43C218.63,-155.82 228.79,-164.11 240.74,-170.98"/>
<polygon fill="#000000" stroke="#000000" points="239.25,-174.14 249.72,-175.71 242.51,-167.95 239.25,-174.14"/>
<text text-anchor="middle" x="214.45" y="-162.2" font-family="monospace" font-size="10.00">owns</text>
</g>
<!-- infusion_proc&#45;&gt;infusion_proc::parse -->
<g id="edge5" class="edge">
<title>infusion_proc&#45;&gt;infusion_proc::parse</title>
<path fill="none" stroke="#7f7f7f" stroke-dasharray="5,2" d="M258.02,-121.59C276.94,-127.24 296.8,-138.03 308.72,-149.94"/>
<polygon fill="#7f7f7f" stroke="#7f7f7f" points="306.23,-152.43 315.31,-157.89 311.62,-147.96 306.23,-152.43"/>
<text text-anchor="middle" x="270.87" y="-138.77" font-family="monospace" font-size="10.00">uses</text>
</g>
<!-- infusion_proc::sig -->
<g id="node5" class="node">
<title>infusion_proc::sig</title>
<polygon fill="#f8c04c" stroke="black" points="97.67,-173.64 97.67,-211.64 222.67,-211.64 222.67,-173.64 97.67,-173.64"/>
<text text-anchor="middle" x="160.17" y="-199.64" font-family="monospace" font-size="10.00">pub(crate) mod</text>
<polyline fill="none" stroke="black" points="97.67,-192.64 222.67,-192.64 "/>
<text text-anchor="middle" x="160.17" y="-180.64" font-family="monospace" font-size="10.00">infusion_proc::sig</text>
</g>
<!-- infusion_proc&#45;&gt;infusion_proc::sig -->
<g id="edge6" class="edge">
<title>infusion_proc&#45;&gt;infusion_proc::sig</title>
<path fill="none" stroke="#000000" d="M195.21,-147.64C190.85,-153.23 186.01,-159.45 181.35,-165.43"/>
<polygon fill="#000000" stroke="#000000" points="178.56,-163.33 175.18,-173.37 184.08,-167.63 178.56,-163.33"/>
<text text-anchor="middle" x="175.78" y="-148.53" font-family="monospace" font-size="10.00">owns</text>
</g>
<!-- infusion_proc::utils -->
<g id="node6" class="node">
<title>infusion_proc::utils</title>
<polygon fill="#f8c04c" stroke="black" points="161.83,-0.5 161.83,-38.5 298.83,-38.5 298.83,-0.5 161.83,-0.5"/>
<text text-anchor="middle" x="230.33" y="-26.5" font-family="monospace" font-size="10.00">pub(crate) mod</text>
<polyline fill="none" stroke="black" points="161.83,-19.5 298.83,-19.5 "/>
<text text-anchor="middle" x="230.33" y="-7.5" font-family="monospace" font-size="10.00">infusion_proc::utils</text>
</g>
<!-- infusion_proc&#45;&gt;infusion_proc::utils -->
<g id="edge7" class="edge">
<title>infusion_proc&#45;&gt;infusion_proc::utils</title>
<path fill="none" stroke="#000000" d="M236.79,-109.1C245.64,-92.32 250.33,-67.85 248.46,-48.68"/>
<polygon fill="#000000" stroke="#000000" points="251.88,-47.91 246.72,-38.66 244.98,-49.11 251.88,-47.91"/>
<text text-anchor="middle" x="255.12" y="-81.89" font-family="monospace" font-size="10.00">owns</text>
</g>
<!-- infusion_proc&#45;&gt;infusion_proc::utils -->
<g id="edge8" class="edge">
<title>infusion_proc&#45;&gt;infusion_proc::utils</title>
<path fill="none" stroke="#7f7f7f" stroke-dasharray="5,2" d="M193.83,-109.19C189.37,-92.14 192.15,-67.14 199.65,-47.82"/>
<polygon fill="#7f7f7f" stroke="#7f7f7f" points="202.9,-49.13 203.85,-38.57 196.53,-46.23 202.9,-49.13"/>
<text text-anchor="middle" x="184.24" y="-81.5" font-family="monospace" font-size="10.00">uses</text>
</g>
<!-- infusion_proc::on_trait&#45;&gt;infusion_proc::sig -->
<g id="edge9" class="edge">
<title>infusion_proc::on_trait&#45;&gt;infusion_proc::sig</title>
<path fill="none" stroke="#7f7f7f" stroke-dasharray="5,2" d="M154.7,-92.19C155.74,-111.38 157.36,-141.13 158.57,-163.28"/>
<polygon fill="#7f7f7f" stroke="#7f7f7f" points="155.08,-163.67 159.12,-173.46 162.07,-163.29 155.08,-163.67"/>
<text text-anchor="middle" x="150.38" y="-119.73" font-family="monospace" font-size="10.00">uses</text>
</g>
<!-- infusion_proc::on_trait&#45;&gt;infusion_proc::utils -->
<g id="edge10" class="edge">
<title>infusion_proc::on_trait&#45;&gt;infusion_proc::utils</title>
<path fill="none" stroke="#7f7f7f" stroke-dasharray="5,2" d="M181.33,-53.66C185.62,-50.67 190.1,-47.55 194.53,-44.45"/>
<polygon fill="#7f7f7f" stroke="#7f7f7f" points="196.74,-47.18 202.94,-38.59 192.74,-41.44 196.74,-47.18"/>
<text text-anchor="middle" x="175.43" y="-41.06" font-family="monospace" font-size="10.00">uses</text>
</g>
</g>
</svg>
