<?xml version="1.0" encoding="UTF-8" standalone="no"?>
<!DOCTYPE svg PUBLIC "-//W3C//DTD SVG 1.1//EN"
 "http://www.w3.org/Graphics/SVG/1.1/DTD/svg11.dtd">
<!-- Generated by graphviz version 4.0.0 (0)
 -->
<!-- Pages: 1 -->
<svg width="544pt" height="247pt"
 viewBox="0.00 0.00 543.60 247.44" xmlns="http://www.w3.org/2000/svg" xmlns:xlink="http://www.w3.org/1999/xlink">
<g id="graph0" class="graph" transform="scale(1 1) rotate(0) translate(28.8 218.64)">
<polygon fill="white" stroke="transparent" points="-28.8,28.8 -28.8,-218.64 514.8,-218.64 514.8,28.8 -28.8,28.8"/>
<text text-anchor="middle" x="243" y="-157.04" font-family="Helvetica,sans-Serif" font-size="36.00">lightning_openrpc_macros</text>
<!-- lightning_openrpc_macros -->
<g id="node1" class="node">
<title>lightning_openrpc_macros</title>
<polygon fill="#5397c8" stroke="black" points="169.31,-56.34 169.31,-94.34 330.31,-94.34 330.31,-56.34 169.31,-56.34"/>
<text text-anchor="middle" x="249.81" y="-82.34" font-family="monospace" font-size="10.00">crate</text>
<polyline fill="none" stroke="black" points="169.31,-75.34 330.31,-75.34 "/>
<text text-anchor="middle" x="249.81" y="-63.34" font-family="monospace" font-size="10.00">lightning_openrpc_macros</text>
</g>
<!-- syn::parse -->
<g id="node2" class="node">
<title>syn::parse</title>
<polygon fill="#81c169" stroke="black" points="241.24,-103.34 241.24,-141.34 330.24,-141.34 330.24,-103.34 241.24,-103.34"/>
<text text-anchor="middle" x="285.74" y="-129.34" font-family="monospace" font-size="10.00">external mod</text>
<polyline fill="none" stroke="black" points="241.24,-122.34 330.24,-122.34 "/>
<text text-anchor="middle" x="285.74" y="-110.34" font-family="monospace" font-size="10.00">syn::parse</text>
</g>
<!-- lightning_openrpc_macros&#45;&gt;syn::parse -->
<g id="edge1" class="edge">
<title>lightning_openrpc_macros&#45;&gt;syn::parse</title>
<path fill="none" stroke="#7f7f7f" stroke-dasharray="5,2" d="M264.42,-94.45C264.56,-94.63 264.69,-94.81 264.83,-94.99"/>
<polygon fill="#7f7f7f" stroke="#7f7f7f" points="262.17,-97.27 271.02,-103.09 267.73,-93.02 262.17,-97.27"/>
<text text-anchor="middle" x="252.13" y="-97.72" font-family="monospace" font-size="10.00">uses</text>
</g>
<!-- syn::parse_macro_input -->
<g id="node3" class="node">
<title>syn::parse_macro_input</title>
<polygon fill="#81c169" stroke="black" points="155.69,-0.5 155.69,-38.5 304.69,-38.5 304.69,-0.5 155.69,-0.5"/>
<text text-anchor="middle" x="230.19" y="-26.5" font-family="monospace" font-size="10.00">external mod</text>
<polyline fill="none" stroke="black" points="155.69,-19.5 304.69,-19.5 "/>
<text text-anchor="middle" x="230.19" y="-7.5" font-family="monospace" font-size="10.00">syn::parse_macro_input</text>
</g>
<!-- lightning_openrpc_macros&#45;&gt;syn::parse_macro_input -->
<g id="edge2" class="edge">
<title>lightning_openrpc_macros&#45;&gt;syn::parse_macro_input</title>
<path fill="none" stroke="#7f7f7f" stroke-dasharray="5,2" d="M243.06,-56.12C242.15,-53.55 241.21,-50.86 240.27,-48.17"/>
<polygon fill="#7f7f7f" stroke="#7f7f7f" points="243.51,-46.84 236.89,-38.56 236.9,-49.16 243.51,-46.84"/>
<text text-anchor="middle" x="229.16" y="-44.15" font-family="monospace" font-size="10.00">uses</text>
</g>
</g>
</svg>
