<?xml version="1.0" encoding="UTF-8" standalone="no"?>
<!DOCTYPE svg PUBLIC "-//W3C//DTD SVG 1.1//EN"
 "http://www.w3.org/Graphics/SVG/1.1/DTD/svg11.dtd">
<!-- Generated by graphviz version 4.0.0 (0)
 -->
<!-- Pages: 1 -->
<svg width="1665pt" height="1447pt"
 viewBox="0.00 0.00 1665.04 1446.97" xmlns="http://www.w3.org/2000/svg" xmlns:xlink="http://www.w3.org/1999/xlink">
<g id="graph0" class="graph" transform="scale(1 1) rotate(0) translate(28.8 1418.17)">
<polygon fill="white" stroke="transparent" points="-28.8,28.8 -28.8,-1418.17 1636.24,-1418.17 1636.24,28.8 -28.8,28.8"/>
<text text-anchor="middle" x="803.72" y="-1356.57" font-family="Helvetica,sans-Serif" font-size="36.00">lightning_archive</text>
<!-- lightning_archive -->
<g id="node1" class="node">
<title>lightning_archive</title>
<polygon fill="#5397c8" stroke="black" points="772.81,-891.54 772.81,-929.54 891.81,-929.54 891.81,-891.54 772.81,-891.54"/>
<text text-anchor="middle" x="832.31" y="-917.54" font-family="monospace" font-size="10.00">crate</text>
<polyline fill="none" stroke="black" points="772.81,-910.54 891.81,-910.54 "/>
<text text-anchor="middle" x="832.31" y="-898.54" font-family="monospace" font-size="10.00">lightning_archive</text>
</g>
<!-- lightning_archive::archive::Archive -->
<g id="node2" class="node">
<title>lightning_archive::archive::Archive</title>
<polygon fill="#81c169" stroke="black" points="1012.23,-566.06 1012.23,-604.06 1125.23,-604.06 1125.23,-566.06 1012.23,-566.06"/>
<text text-anchor="middle" x="1068.73" y="-592.06" font-family="monospace" font-size="10.00">pub struct</text>
<polyline fill="none" stroke="black" points="1012.23,-585.06 1125.23,-585.06 "/>
<text text-anchor="middle" x="1068.73" y="-573.06" font-family="monospace" font-size="10.00">archive::Archive</text>
</g>
<!-- lightning_archive&#45;&gt;lightning_archive::archive::Archive -->
<g id="edge1" class="edge">
<title>lightning_archive&#45;&gt;lightning_archive::archive::Archive</title>
<path fill="none" stroke="#000000" d="M846.39,-891.15C886.55,-835.86 1001.77,-677.25 1048.59,-612.8"/>
<polygon fill="#000000" stroke="#000000" points="1051.68,-614.5 1054.72,-604.35 1046.01,-610.38 1051.68,-614.5"/>
<text text-anchor="middle" x="934.99" y="-754.98" font-family="monospace" font-size="10.00">owns</text>
</g>
<!-- lightning_archive::archive::ArchiveInner -->
<g id="node12" class="node">
<title>lightning_archive::archive::ArchiveInner</title>
<polygon fill="#db5367" stroke="black" points="549.24,-891.54 549.24,-929.54 692.24,-929.54 692.24,-891.54 549.24,-891.54"/>
<text text-anchor="middle" x="620.74" y="-917.54" font-family="monospace" font-size="10.00">pub(self) struct</text>
<polyline fill="none" stroke="black" points="549.24,-910.54 692.24,-910.54 "/>
<text text-anchor="middle" x="620.74" y="-898.54" font-family="monospace" font-size="10.00">archive::ArchiveInner</text>
</g>
<!-- lightning_archive&#45;&gt;lightning_archive::archive::ArchiveInner -->
<g id="edge2" class="edge">
<title>lightning_archive&#45;&gt;lightning_archive::archive::ArchiveInner</title>
<path fill="none" stroke="#000000" d="M772.53,-910.54C750.82,-910.54 725.89,-910.54 702.6,-910.54"/>
<polygon fill="#000000" stroke="#000000" points="702.38,-907.04 692.38,-910.54 702.38,-914.04 702.38,-907.04"/>
<text text-anchor="middle" x="725.07" y="-913.54" font-family="monospace" font-size="10.00">owns</text>
</g>
<!-- lightning_archive::archive::BlockInfo -->
<g id="node21" class="node">
<title>lightning_archive::archive::BlockInfo</title>
<polygon fill="#f8c04c" stroke="black" points="387.14,-364.91 387.14,-402.91 512.14,-402.91 512.14,-364.91 387.14,-364.91"/>
<text text-anchor="middle" x="449.64" y="-390.91" font-family="monospace" font-size="10.00">pub(crate) struct</text>
<polyline fill="none" stroke="black" points="387.14,-383.91 512.14,-383.91 "/>
<text text-anchor="middle" x="449.64" y="-371.91" font-family="monospace" font-size="10.00">archive::BlockInfo</text>
</g>
<!-- lightning_archive&#45;&gt;lightning_archive::archive::BlockInfo -->
<g id="edge3" class="edge">
<title>lightning_archive&#45;&gt;lightning_archive::archive::BlockInfo</title>
<path fill="none" stroke="#000000" d="M818.47,-891.48C760.52,-811.73 537.29,-504.53 469.37,-411.05"/>
<polygon fill="#000000" stroke="#000000" points="472.18,-408.97 463.47,-402.94 466.52,-413.09 472.18,-408.97"/>
<text text-anchor="middle" x="631.42" y="-654.27" font-family="monospace" font-size="10.00">owns</text>
</g>
<!-- lightning_archive::archive::insertion_task -->
<g id="node22" class="node">
<title>lightning_archive::archive::insertion_task</title>
<polygon fill="#db5367" stroke="black" points="925.87,-767.22 925.87,-805.22 1080.87,-805.22 1080.87,-767.22 925.87,-767.22"/>
<text text-anchor="middle" x="1003.37" y="-793.22" font-family="monospace" font-size="10.00">pub(self) async fn</text>
<polyline fill="none" stroke="black" points="925.87,-786.22 1080.87,-786.22 "/>
<text text-anchor="middle" x="1003.37" y="-774.22" font-family="monospace" font-size="10.00">archive::insertion_task</text>
</g>
<!-- lightning_archive&#45;&gt;lightning_archive::archive::insertion_task -->
<g id="edge4" class="edge">
<title>lightning_archive&#45;&gt;lightning_archive::archive::insertion_task</title>
<path fill="none" stroke="#000000" d="M858.67,-891.39C888.17,-869.94 936.11,-835.1 968.66,-811.45"/>
<polygon fill="#000000" stroke="#000000" points="970.96,-814.1 976.99,-805.39 966.84,-808.44 970.96,-814.1"/>
<text text-anchor="middle" x="901.16" y="-854.42" font-family="monospace" font-size="10.00">owns</text>
</g>
<!-- lightning_archive::config::Config -->
<g id="node23" class="node">
<title>lightning_archive::config::Config</title>
<polygon fill="#81c169" stroke="black" points="570.25,-240.59 570.25,-278.59 671.25,-278.59 671.25,-240.59 570.25,-240.59"/>
<text text-anchor="middle" x="620.75" y="-266.59" font-family="monospace" font-size="10.00">pub struct</text>
<polyline fill="none" stroke="black" points="570.25,-259.59 671.25,-259.59 "/>
<text text-anchor="middle" x="620.75" y="-247.59" font-family="monospace" font-size="10.00">config::Config</text>
</g>
<!-- lightning_archive&#45;&gt;lightning_archive::config::Config -->
<g id="edge5" class="edge">
<title>lightning_archive&#45;&gt;lightning_archive::config::Config</title>
<path fill="none" stroke="#000000" d="M835.79,-891.26C829.2,-798.18 700.21,-397.76 643.02,-287.6"/>
<polygon fill="#000000" stroke="#000000" points="646.05,-285.84 638.21,-278.72 639.9,-289.18 646.05,-285.84"/>
<text text-anchor="middle" x="726.9" y="-581.43" font-family="monospace" font-size="10.00">owns</text>
</g>
<!-- lightning_archive&#45;&gt;lightning_archive::config::Config -->
<g id="edge6" class="edge">
<title>lightning_archive&#45;&gt;lightning_archive::config::Config</title>
<path fill="none" stroke="#7f7f7f" stroke-dasharray="5,2" d="M814.87,-891.43C762.25,-799.1 632.72,-401.36 618.33,-289.07"/>
<polygon fill="#7f7f7f" stroke="#7f7f7f" points="621.78,-288.41 617.28,-278.82 614.81,-289.13 621.78,-288.41"/>
<text text-anchor="middle" x="704.1" y="-593.25" font-family="monospace" font-size="10.00">uses</text>
</g>
<!-- lightning_archive::archive::Archive::Config -->
<g id="node3" class="node">
<title>lightning_archive::archive::Archive::Config</title>
<polygon fill="#db5367" stroke="black" points="751.76,-240.59 751.76,-278.59 912.76,-278.59 912.76,-240.59 751.76,-240.59"/>
<text text-anchor="middle" x="832.26" y="-266.59" font-family="monospace" font-size="10.00">pub(self) type</text>
<polyline fill="none" stroke="black" points="751.76,-259.59 912.76,-259.59 "/>
<text text-anchor="middle" x="832.26" y="-247.59" font-family="monospace" font-size="10.00">archive::Archive::Config</text>
</g>
<!-- lightning_archive::archive::Archive&#45;&gt;lightning_archive::archive::Archive::Config -->
<g id="edge7" class="edge">
<title>lightning_archive::archive::Archive&#45;&gt;lightning_archive::archive::Archive::Config</title>
<path fill="none" stroke="#000000" d="M1054.65,-565.68C1014.48,-510.39 899.24,-351.78 852.41,-287.32"/>
<polygon fill="#000000" stroke="#000000" points="854.98,-284.91 846.27,-278.87 849.32,-289.02 854.98,-284.91"/>
<text text-anchor="middle" x="941.03" y="-429.5" font-family="monospace" font-size="10.00">owns</text>
</g>
<!-- lightning_archive::archive::Archive::build_graph -->
<g id="node4" class="node">
<title>lightning_archive::archive::Archive::build_graph</title>
<polygon fill="#db5367" stroke="black" points="1108.89,-0.5 1108.89,-38.5 1299.89,-38.5 1299.89,-0.5 1108.89,-0.5"/>
<text text-anchor="middle" x="1204.39" y="-26.5" font-family="monospace" font-size="10.00">pub(self) fn</text>
<polyline fill="none" stroke="black" points="1108.89,-19.5 1299.89,-19.5 "/>
<text text-anchor="middle" x="1204.39" y="-7.5" font-family="monospace" font-size="10.00">archive::Archive::build_graph</text>
</g>
<!-- lightning_archive::archive::Archive&#45;&gt;lightning_archive::archive::Archive::build_graph -->
<g id="edge8" class="edge">
<title>lightning_archive::archive::Archive&#45;&gt;lightning_archive::archive::Archive::build_graph</title>
<path fill="none" stroke="#000000" d="M1073.32,-565.92C1093.37,-482.34 1173.31,-149.07 1197.45,-48.43"/>
<polygon fill="#000000" stroke="#000000" points="1200.87,-49.18 1199.8,-38.64 1194.06,-47.54 1200.87,-49.18"/>
<text text-anchor="middle" x="1122.89" y="-310.17" font-family="monospace" font-size="10.00">owns</text>
</g>
<!-- lightning_archive::archive::Archive::get_block_by_hash -->
<g id="node5" class="node">
<title>lightning_archive::archive::Archive::get_block_by_hash</title>
<polygon fill="#db5367" stroke="black" points="1232.16,-160.01 1232.16,-198.01 1459.16,-198.01 1459.16,-160.01 1232.16,-160.01"/>
<text text-anchor="middle" x="1345.66" y="-186.01" font-family="monospace" font-size="10.00">pub(self) async fn</text>
<polyline fill="none" stroke="black" points="1232.16,-179.01 1459.16,-179.01 "/>
<text text-anchor="middle" x="1345.66" y="-167.01" font-family="monospace" font-size="10.00">archive::Archive::get_block_by_hash</text>
</g>
<!-- lightning_archive::archive::Archive&#45;&gt;lightning_archive::archive::Archive::get_block_by_hash -->
<g id="edge9" class="edge">
<title>lightning_archive::archive::Archive&#45;&gt;lightning_archive::archive::Archive::get_block_by_hash</title>
<path fill="none" stroke="#000000" d="M1099.21,-565.89C1165.24,-499.73 1309.86,-286.86 1341.64,-207.99"/>
<polygon fill="#000000" stroke="#000000" points="1345.07,-208.79 1345.22,-198.2 1338.49,-206.39 1345.07,-208.79"/>
<text text-anchor="middle" x="1207.92" y="-389.94" font-family="monospace" font-size="10.00">owns</text>
</g>
<!-- lightning_archive::archive::Archive::get_block_by_number -->
<g id="node6" class="node">
<title>lightning_archive::archive::Archive::get_block_by_number</title>
<polygon fill="#db5367" stroke="black" points="1316.36,-353.8 1316.36,-391.8 1555.36,-391.8 1555.36,-353.8 1316.36,-353.8"/>
<text text-anchor="middle" x="1435.86" y="-379.8" font-family="monospace" font-size="10.00">pub(self) async fn</text>
<polyline fill="none" stroke="black" points="1316.36,-372.8 1555.36,-372.8 "/>
<text text-anchor="middle" x="1435.86" y="-360.8" font-family="monospace" font-size="10.00">archive::Archive::get_block_by_number</text>
</g>
<!-- lightning_archive::archive::Archive&#45;&gt;lightning_archive::archive::Archive::get_block_by_number -->
<g id="edge10" class="edge">
<title>lightning_archive::archive::Archive&#45;&gt;lightning_archive::archive::Archive::get_block_by_number</title>
<path fill="none" stroke="#000000" d="M1125.39,-574.03C1210.75,-538.87 1366.77,-446.89 1418.96,-398.99"/>
<polygon fill="#000000" stroke="#000000" points="1421.44,-401.46 1426.16,-391.98 1416.55,-396.45 1421.44,-401.46"/>
<text text-anchor="middle" x="1259.68" y="-489.51" font-family="monospace" font-size="10.00">owns</text>
</g>
<!-- lightning_archive::archive::Archive::get_historical_epoch_state -->
<g id="node7" class="node">
<title>lightning_archive::archive::Archive::get_historical_epoch_state</title>
<polygon fill="#db5367" stroke="black" points="1326.44,-566.06 1326.44,-604.06 1607.44,-604.06 1607.44,-566.06 1326.44,-566.06"/>
<text text-anchor="middle" x="1466.94" y="-592.06" font-family="monospace" font-size="10.00">pub(self) async fn</text>
<polyline fill="none" stroke="black" points="1326.44,-585.06 1607.44,-585.06 "/>
<text text-anchor="middle" x="1466.94" y="-573.06" font-family="monospace" font-size="10.00">archive::Archive::get_historical_epoch_state</text>
</g>
<!-- lightning_archive::archive::Archive&#45;&gt;lightning_archive::archive::Archive::get_historical_epoch_state -->
<g id="edge11" class="edge">
<title>lightning_archive::archive::Archive&#45;&gt;lightning_archive::archive::Archive::get_historical_epoch_state</title>
<path fill="none" stroke="#000000" d="M1121.61,-604.1C1194.6,-614.27 1326.02,-614.7 1403.99,-605.4"/>
<polygon fill="#000000" stroke="#000000" points="1404.69,-608.84 1414.16,-604.09 1403.79,-601.9 1404.69,-608.84"/>
<text text-anchor="middle" x="1250.3" y="-607.75" font-family="monospace" font-size="10.00">owns</text>
</g>
<!-- lightning_archive::archive::Archive::get_transaction -->
<g id="node8" class="node">
<title>lightning_archive::archive::Archive::get_transaction</title>
<polygon fill="#db5367" stroke="black" points="1328.46,-778 1328.46,-816 1543.46,-816 1543.46,-778 1328.46,-778"/>
<text text-anchor="middle" x="1435.96" y="-804" font-family="monospace" font-size="10.00">pub(self) async fn</text>
<polyline fill="none" stroke="black" points="1328.46,-797 1543.46,-797 "/>
<text text-anchor="middle" x="1435.96" y="-785" font-family="monospace" font-size="10.00">archive::Archive::get_transaction</text>
</g>
<!-- lightning_archive::archive::Archive&#45;&gt;lightning_archive::archive::Archive::get_transaction -->
<g id="edge12" class="edge">
<title>lightning_archive::archive::Archive&#45;&gt;lightning_archive::archive::Archive::get_transaction</title>
<path fill="none" stroke="#000000" d="M1078.61,-604.4C1117.9,-645.41 1258.63,-730.59 1351.51,-773.78"/>
<polygon fill="#000000" stroke="#000000" points="1350.08,-776.97 1360.63,-777.95 1352.99,-770.61 1350.08,-776.97"/>
<text text-anchor="middle" x="1202.56" y="-692.09" font-family="monospace" font-size="10.00">owns</text>
</g>
<!-- lightning_archive::archive::Archive::get_transaction_receipt -->
<g id="node9" class="node">
<title>lightning_archive::archive::Archive::get_transaction_receipt</title>
<polygon fill="#db5367" stroke="black" points="1214.25,-971.98 1214.25,-1009.98 1477.25,-1009.98 1477.25,-971.98 1214.25,-971.98"/>
<text text-anchor="middle" x="1345.75" y="-997.98" font-family="monospace" font-size="10.00">pub(self) async fn</text>
<polyline fill="none" stroke="black" points="1214.25,-990.98 1477.25,-990.98 "/>
<text text-anchor="middle" x="1345.75" y="-978.98" font-family="monospace" font-size="10.00">archive::Archive::get_transaction_receipt</text>
</g>
<!-- lightning_archive::archive::Archive&#45;&gt;lightning_archive::archive::Archive::get_transaction_receipt -->
<g id="edge13" class="edge">
<title>lightning_archive::archive::Archive&#45;&gt;lightning_archive::archive::Archive::get_transaction_receipt</title>
<path fill="none" stroke="#000000" d="M1069.17,-604.22C1090.62,-671.1 1236,-887.5 1308.04,-964.34"/>
<polygon fill="#000000" stroke="#000000" points="1305.73,-966.98 1315.19,-971.75 1310.77,-962.12 1305.73,-966.98"/>
<text text-anchor="middle" x="1176.1" y="-787.28" font-family="monospace" font-size="10.00">owns</text>
</g>
<!-- lightning_archive::archive::Archive::is_active -->
<g id="node10" class="node">
<title>lightning_archive::archive::Archive::is_active</title>
<polygon fill="#db5367" stroke="black" points="1114.76,-1131.74 1114.76,-1169.74 1293.76,-1169.74 1293.76,-1131.74 1114.76,-1131.74"/>
<text text-anchor="middle" x="1204.26" y="-1157.74" font-family="monospace" font-size="10.00">pub(self) fn</text>
<polyline fill="none" stroke="black" points="1114.76,-1150.74 1293.76,-1150.74 "/>
<text text-anchor="middle" x="1204.26" y="-1138.74" font-family="monospace" font-size="10.00">archive::Archive::is_active</text>
</g>
<!-- lightning_archive::archive::Archive&#45;&gt;lightning_archive::archive::Archive::is_active -->
<g id="edge14" class="edge">
<title>lightning_archive::archive::Archive&#45;&gt;lightning_archive::archive::Archive::is_active</title>
<path fill="none" stroke="#000000" d="M1063.04,-604.33C1061.08,-688.42 1139.94,-1022.23 1183.82,-1122.32"/>
<polygon fill="#000000" stroke="#000000" points="1180.7,-1123.92 1188.08,-1131.52 1187.05,-1120.98 1180.7,-1123.92"/>
<text text-anchor="middle" x="1110.93" y="-866.32" font-family="monospace" font-size="10.00">owns</text>
</g>
<!-- lightning_archive::archive::Archive::new -->
<g id="node11" class="node">
<title>lightning_archive::archive::Archive::new</title>
<polygon fill="#81c169" stroke="black" points="931.87,-364.91 931.87,-402.91 1074.87,-402.91 1074.87,-364.91 931.87,-364.91"/>
<text text-anchor="middle" x="1003.37" y="-390.91" font-family="monospace" font-size="10.00">pub fn</text>
<polyline fill="none" stroke="black" points="931.87,-383.91 1074.87,-383.91 "/>
<text text-anchor="middle" x="1003.37" y="-371.91" font-family="monospace" font-size="10.00">archive::Archive::new</text>
</g>
<!-- lightning_archive::archive::Archive&#45;&gt;lightning_archive::archive::Archive::new -->
<g id="edge15" class="edge">
<title>lightning_archive::archive::Archive&#45;&gt;lightning_archive::archive::Archive::new</title>
<path fill="none" stroke="#000000" d="M1078.12,-566.02C1081.03,-530.09 1058.24,-453.38 1034.4,-411.75"/>
<polygon fill="#000000" stroke="#000000" points="1037.36,-409.88 1029.15,-403.18 1031.39,-413.54 1037.36,-409.88"/>
<text text-anchor="middle" x="1043.76" y="-491.89" font-family="monospace" font-size="10.00">owns</text>
</g>
<!-- lightning_archive::archive::Archive::Config&#45;&gt;lightning_archive::config::Config -->
<g id="edge16" class="edge">
<title>lightning_archive::archive::Archive::Config&#45;&gt;lightning_archive::config::Config</title>
<path fill="none" stroke="#7f7f7f" stroke-dasharray="5,2" d="M751.7,-259.59C728.42,-259.59 703.41,-259.59 681.55,-259.59"/>
<polygon fill="#7f7f7f" stroke="#7f7f7f" points="681.42,-256.09 671.42,-259.59 681.42,-263.09 681.42,-256.09"/>
<text text-anchor="middle" x="704.12" y="-262.59" font-family="monospace" font-size="10.00">uses</text>
</g>
<!-- lightning_archive::archive::Archive::get_block_by_hash&#45;&gt;lightning_archive::archive::Archive -->
<g id="edge17" class="edge">
<title>lightning_archive::archive::Archive::get_block_by_hash&#45;&gt;lightning_archive::archive::Archive</title>
<path fill="none" stroke="#7f7f7f" stroke-dasharray="5,2" d="M1315.18,-198.17C1249.15,-264.34 1104.53,-477.21 1072.75,-556.08"/>
<polygon fill="#7f7f7f" stroke="#7f7f7f" points="1069.32,-555.28 1069.17,-565.87 1075.9,-557.68 1069.32,-555.28"/>
<text text-anchor="middle" x="1181.47" y="-380.13" font-family="monospace" font-size="10.00">uses</text>
</g>
<!-- lightning_archive::archive::Archive::get_block_by_number&#45;&gt;lightning_archive::archive::Archive -->
<g id="edge18" class="edge">
<title>lightning_archive::archive::Archive::get_block_by_number&#45;&gt;lightning_archive::archive::Archive</title>
<path fill="none" stroke="#7f7f7f" stroke-dasharray="5,2" d="M1360.47,-391.94C1272.78,-431.51 1134.46,-514.14 1085.76,-558.75"/>
<polygon fill="#7f7f7f" stroke="#7f7f7f" points="1083.21,-556.35 1078.48,-565.83 1088.09,-561.36 1083.21,-556.35"/>
<text text-anchor="middle" x="1210.62" y="-478.34" font-family="monospace" font-size="10.00">uses</text>
</g>
<!-- lightning_archive::archive::Archive::get_historical_epoch_state&#45;&gt;lightning_archive::archive::Archive -->
<g id="edge19" class="edge">
<title>lightning_archive::archive::Archive::get_historical_epoch_state&#45;&gt;lightning_archive::archive::Archive</title>
<path fill="none" stroke="#7f7f7f" stroke-dasharray="5,2" d="M1414.06,-566.02C1341.07,-555.86 1209.64,-555.43 1131.68,-564.73"/>
<polygon fill="#7f7f7f" stroke="#7f7f7f" points="1130.98,-561.29 1121.51,-566.04 1131.88,-568.23 1130.98,-561.29"/>
<text text-anchor="middle" x="1260.37" y="-568.37" font-family="monospace" font-size="10.00">uses</text>
</g>
<!-- lightning_archive::archive::Archive::get_transaction&#45;&gt;lightning_archive::archive::Archive -->
<g id="edge20" class="edge">
<title>lightning_archive::archive::Archive::get_transaction&#45;&gt;lightning_archive::archive::Archive</title>
<path fill="none" stroke="#7f7f7f" stroke-dasharray="5,2" d="M1426.08,-777.66C1384.11,-733.86 1226.4,-639.66 1134.9,-600.06"/>
<polygon fill="#7f7f7f" stroke="#7f7f7f" points="1136.01,-596.73 1125.44,-596.07 1133.29,-603.18 1136.01,-596.73"/>
<text text-anchor="middle" x="1267.99" y="-691.86" font-family="monospace" font-size="10.00">uses</text>
</g>
<!-- lightning_archive::archive::Archive::get_transaction_receipt&#45;&gt;lightning_archive::archive::Archive -->
<g id="edge21" class="edge">
<title>lightning_archive::archive::Archive::get_transaction_receipt&#45;&gt;lightning_archive::archive::Archive</title>
<path fill="none" stroke="#7f7f7f" stroke-dasharray="5,2" d="M1345.32,-971.82C1323.87,-904.94 1178.48,-688.54 1106.45,-611.71"/>
<polygon fill="#7f7f7f" stroke="#7f7f7f" points="1108.76,-609.06 1099.29,-604.29 1103.72,-613.92 1108.76,-609.06"/>
<text text-anchor="middle" x="1213.38" y="-794.76" font-family="monospace" font-size="10.00">uses</text>
</g>
<!-- lightning_archive::archive::Archive::is_active&#45;&gt;lightning_archive::archive::Archive -->
<g id="edge22" class="edge">
<title>lightning_archive::archive::Archive::is_active&#45;&gt;lightning_archive::archive::Archive</title>
<path fill="none" stroke="#7f7f7f" stroke-dasharray="5,2" d="M1209.95,-1131.47C1211.91,-1047.39 1133.04,-713.57 1089.17,-613.48"/>
<polygon fill="#7f7f7f" stroke="#7f7f7f" points="1092.29,-611.88 1084.91,-604.28 1085.94,-614.82 1092.29,-611.88"/>
<text text-anchor="middle" x="1137.06" y="-875.48" font-family="monospace" font-size="10.00">uses</text>
</g>
<!-- lightning_archive::archive::Archive::new&#45;&gt;lightning_archive::archive::Archive -->
<g id="edge23" class="edge">
<title>lightning_archive::archive::Archive::new&#45;&gt;lightning_archive::archive::Archive</title>
<path fill="none" stroke="#7f7f7f" stroke-dasharray="5,2" d="M993.99,-402.95C991.07,-438.88 1013.86,-515.59 1037.7,-557.22"/>
<polygon fill="#7f7f7f" stroke="#7f7f7f" points="1034.74,-559.09 1042.96,-565.79 1040.71,-555.43 1034.74,-559.09"/>
<text text-anchor="middle" x="1003.34" y="-483.09" font-family="monospace" font-size="10.00">uses</text>
</g>
<!-- lightning_archive::archive::Archive::new&#45;&gt;lightning_archive::archive::ArchiveInner -->
<g id="edge24" class="edge">
<title>lightning_archive::archive::Archive::new&#45;&gt;lightning_archive::archive::ArchiveInner</title>
<path fill="none" stroke="#7f7f7f" stroke-dasharray="5,2" d="M989.53,-402.96C931.58,-482.72 708.38,-789.91 640.46,-883.39"/>
<polygon fill="#7f7f7f" stroke="#7f7f7f" points="637.61,-881.36 634.57,-891.51 643.27,-885.48 637.61,-881.36"/>
<text text-anchor="middle" x="802.5" y="-646.18" font-family="monospace" font-size="10.00">uses</text>
</g>
<!-- lightning_archive::archive::Archive::new&#45;&gt;lightning_archive::config::Config -->
<g id="edge25" class="edge">
<title>lightning_archive::archive::Archive::new&#45;&gt;lightning_archive::config::Config</title>
<path fill="none" stroke="#7f7f7f" stroke-dasharray="5,2" d="M944.84,-364.89C873.47,-341.7 753.43,-302.7 681.19,-279.23"/>
<polygon fill="#7f7f7f" stroke="#7f7f7f" points="681.92,-275.78 671.33,-276.02 679.76,-282.44 681.92,-275.78"/>
<text text-anchor="middle" x="800.52" y="-325.06" font-family="monospace" font-size="10.00">uses</text>
</g>
<!-- lightning_archive::archive::ArchiveInner::get_block_by_block_number -->
<g id="node13" class="node">
<title>lightning_archive::archive::ArchiveInner::get_block_by_block_number</title>
<polygon fill="#db5367" stroke="black" points="870.74,-1245.35 870.74,-1283.35 1175.74,-1283.35 1175.74,-1245.35 870.74,-1245.35"/>
<text text-anchor="middle" x="1023.24" y="-1271.35" font-family="monospace" font-size="10.00">pub(self) fn</text>
<polyline fill="none" stroke="black" points="870.74,-1264.35 1175.74,-1264.35 "/>
<text text-anchor="middle" x="1023.24" y="-1252.35" font-family="monospace" font-size="10.00">archive::ArchiveInner::get_block_by_block_number</text>
</g>
<!-- lightning_archive::archive::ArchiveInner&#45;&gt;lightning_archive::archive::ArchiveInner::get_block_by_block_number -->
<g id="edge26" class="edge">
<title>lightning_archive::archive::ArchiveInner&#45;&gt;lightning_archive::archive::ArchiveInner::get_block_by_block_number</title>
<path fill="none" stroke="#000000" d="M626.84,-929.69C667.19,-991.1 869.04,-1171.71 968.61,-1239.61"/>
<polygon fill="#000000" stroke="#000000" points="966.79,-1242.61 977.05,-1245.26 970.68,-1236.79 966.79,-1242.61"/>
<text text-anchor="middle" x="785.23" y="-1087.65" font-family="monospace" font-size="10.00">owns</text>
</g>
<!-- lightning_archive::archive::ArchiveInner::get_block_by_hash -->
<g id="node14" class="node">
<title>lightning_archive::archive::ArchiveInner::get_block_by_hash</title>
<polygon fill="#db5367" stroke="black" points="726.63,-1302.87 726.63,-1340.87 983.63,-1340.87 983.63,-1302.87 726.63,-1302.87"/>
<text text-anchor="middle" x="855.13" y="-1328.87" font-family="monospace" font-size="10.00">pub(self) fn</text>
<polyline fill="none" stroke="black" points="726.63,-1321.87 983.63,-1321.87 "/>
<text text-anchor="middle" x="855.13" y="-1309.87" font-family="monospace" font-size="10.00">archive::ArchiveInner::get_block_by_hash</text>
</g>
<!-- lightning_archive::archive::ArchiveInner&#45;&gt;lightning_archive::archive::ArchiveInner::get_block_by_hash -->
<g id="edge27" class="edge">
<title>lightning_archive::archive::ArchiveInner&#45;&gt;lightning_archive::archive::ArchiveInner::get_block_by_hash</title>
<path fill="none" stroke="#000000" d="M619.46,-929.71C634.81,-996.83 757.75,-1216.2 821.1,-1294.42"/>
<polygon fill="#000000" stroke="#000000" points="818.67,-1296.97 827.78,-1302.39 824.04,-1292.48 818.67,-1296.97"/>
<text text-anchor="middle" x="707.78" y="-1115.06" font-family="monospace" font-size="10.00">owns</text>
</g>
<!-- lightning_archive::archive::ArchiveInner::get_block_by_num -->
<g id="node15" class="node">
<title>lightning_archive::archive::ArchiveInner::get_block_by_num</title>
<polygon fill="#db5367" stroke="black" points="258.78,-566.06 258.78,-604.06 509.78,-604.06 509.78,-566.06 258.78,-566.06"/>
<text text-anchor="middle" x="384.28" y="-592.06" font-family="monospace" font-size="10.00">pub(self) fn</text>
<polyline fill="none" stroke="black" points="258.78,-585.06 509.78,-585.06 "/>
<text text-anchor="middle" x="384.28" y="-573.06" font-family="monospace" font-size="10.00">archive::ArchiveInner::get_block_by_num</text>
</g>
<!-- lightning_archive::archive::ArchiveInner&#45;&gt;lightning_archive::archive::ArchiveInner::get_block_by_num -->
<g id="edge28" class="edge">
<title>lightning_archive::archive::ArchiveInner&#45;&gt;lightning_archive::archive::ArchiveInner::get_block_by_num</title>
<path fill="none" stroke="#000000" d="M620.64,-891.12C602.22,-834.44 489.53,-675.61 425.58,-611.46"/>
<polygon fill="#000000" stroke="#000000" points="427.65,-608.59 418.04,-604.12 422.76,-613.6 427.65,-608.59"/>
<text text-anchor="middle" x="510.61" y="-754.29" font-family="monospace" font-size="10.00">owns</text>
</g>
<!-- lightning_archive::archive::ArchiveInner::get_historical_query_runner -->
<g id="node16" class="node">
<title>lightning_archive::archive::ArchiveInner::get_historical_query_runner</title>
<polygon fill="#db5367" stroke="black" points="401.6,-1295.3 401.6,-1333.3 718.6,-1333.3 718.6,-1295.3 401.6,-1295.3"/>
<text text-anchor="middle" x="560.1" y="-1321.3" font-family="monospace" font-size="10.00">pub(self) fn</text>
<polyline fill="none" stroke="black" points="401.6,-1314.3 718.6,-1314.3 "/>
<text text-anchor="middle" x="560.1" y="-1302.3" font-family="monospace" font-size="10.00">archive::ArchiveInner::get_historical_query_runner</text>
</g>
<!-- lightning_archive::archive::ArchiveInner&#45;&gt;lightning_archive::archive::ArchiveInner::get_historical_query_runner -->
<g id="edge29" class="edge">
<title>lightning_archive::archive::ArchiveInner&#45;&gt;lightning_archive::archive::ArchiveInner::get_historical_query_runner</title>
<path fill="none" stroke="#000000" d="M604.81,-929.76C576.57,-994.77 544.28,-1206.26 549.92,-1284.71"/>
<polygon fill="#000000" stroke="#000000" points="546.46,-1285.28 550.97,-1294.87 553.43,-1284.56 546.46,-1285.28"/>
<text text-anchor="middle" x="564.87" y="-1110.23" font-family="monospace" font-size="10.00">owns</text>
</g>
<!-- lightning_archive::archive::ArchiveInner::get_transaction_receipt -->
<g id="node17" class="node">
<title>lightning_archive::archive::ArchiveInner::get_transaction_receipt</title>
<polygon fill="#db5367" stroke="black" points="248.2,-1228.93 248.2,-1266.93 541.2,-1266.93 541.2,-1228.93 248.2,-1228.93"/>
<text text-anchor="middle" x="394.7" y="-1254.93" font-family="monospace" font-size="10.00">pub(self) fn</text>
<polyline fill="none" stroke="black" points="248.2,-1247.93 541.2,-1247.93 "/>
<text text-anchor="middle" x="394.7" y="-1235.93" font-family="monospace" font-size="10.00">archive::ArchiveInner::get_transaction_receipt</text>
</g>
<!-- lightning_archive::archive::ArchiveInner&#45;&gt;lightning_archive::archive::ArchiveInner::get_transaction_receipt -->
<g id="edge30" class="edge">
<title>lightning_archive::archive::ArchiveInner&#45;&gt;lightning_archive::archive::ArchiveInner::get_transaction_receipt</title>
<path fill="none" stroke="#000000" d="M588.74,-929.94C531.51,-987.41 422.21,-1151.68 397.18,-1219.27"/>
<polygon fill="#000000" stroke="#000000" points="393.82,-1218.29 394.01,-1228.88 400.46,-1220.48 393.82,-1218.29"/>
<text text-anchor="middle" x="480.46" y="-1077.6" font-family="monospace" font-size="10.00">owns</text>
</g>
<!-- lightning_archive::archive::ArchiveInner::handle_block -->
<g id="node18" class="node">
<title>lightning_archive::archive::ArchiveInner::handle_block</title>
<polygon fill="#db5367" stroke="black" points="336.14,-767.22 336.14,-805.22 563.14,-805.22 563.14,-767.22 336.14,-767.22"/>
<text text-anchor="middle" x="449.64" y="-793.22" font-family="monospace" font-size="10.00">pub(self) fn</text>
<polyline fill="none" stroke="black" points="336.14,-786.22 563.14,-786.22 "/>
<text text-anchor="middle" x="449.64" y="-774.22" font-family="monospace" font-size="10.00">archive::ArchiveInner::handle_block</text>
</g>
<!-- lightning_archive::archive::ArchiveInner&#45;&gt;lightning_archive::archive::ArchiveInner::handle_block -->
<g id="edge31" class="edge">
<title>lightning_archive::archive::ArchiveInner&#45;&gt;lightning_archive::archive::ArchiveInner::handle_block</title>
<path fill="none" stroke="#000000" d="M618.23,-891.48C605.35,-868.59 565.69,-834.75 527.84,-810.73"/>
<polygon fill="#000000" stroke="#000000" points="529.64,-807.73 519.29,-805.45 525.96,-813.68 529.64,-807.73"/>
<text text-anchor="middle" x="560.54" y="-854.1" font-family="monospace" font-size="10.00">owns</text>
</g>
<!-- lightning_archive::archive::ArchiveInner::handle_epoch -->
<g id="node19" class="node">
<title>lightning_archive::archive::ArchiveInner::handle_epoch</title>
<polygon fill="#db5367" stroke="black" points="105.58,-1106.23 105.58,-1144.23 332.58,-1144.23 332.58,-1106.23 105.58,-1106.23"/>
<text text-anchor="middle" x="219.08" y="-1132.23" font-family="monospace" font-size="10.00">pub(self) async fn</text>
<polyline fill="none" stroke="black" points="105.58,-1125.23 332.58,-1125.23 "/>
<text text-anchor="middle" x="219.08" y="-1113.23" font-family="monospace" font-size="10.00">archive::ArchiveInner::handle_epoch</text>
</g>
<!-- lightning_archive::archive::ArchiveInner&#45;&gt;lightning_archive::archive::ArchiveInner::handle_epoch -->
<g id="edge32" class="edge">
<title>lightning_archive::archive::ArchiveInner&#45;&gt;lightning_archive::archive::ArchiveInner::handle_epoch</title>
<path fill="none" stroke="#000000" d="M548.9,-926.04C454.11,-964.47 293.49,-1052.65 238.05,-1099.15"/>
<polygon fill="#000000" stroke="#000000" points="235.53,-1096.71 230.37,-1105.97 240.17,-1101.95 235.53,-1096.71"/>
<text text-anchor="middle" x="380.98" y="-1015.59" font-family="monospace" font-size="10.00">owns</text>
</g>
<!-- lightning_archive::archive::ArchiveInner::new -->
<g id="node20" class="node">
<title>lightning_archive::archive::ArchiveInner::new</title>
<polygon fill="#db5367" stroke="black" points="0,-939.76 0,-977.76 173,-977.76 173,-939.76 0,-939.76"/>
<text text-anchor="middle" x="86.5" y="-965.76" font-family="monospace" font-size="10.00">pub(self) fn</text>
<polyline fill="none" stroke="black" points="0,-958.76 173,-958.76 "/>
<text text-anchor="middle" x="86.5" y="-946.76" font-family="monospace" font-size="10.00">archive::ArchiveInner::new</text>
</g>
<!-- lightning_archive::archive::ArchiveInner&#45;&gt;lightning_archive::archive::ArchiveInner::new -->
<g id="edge33" class="edge">
<title>lightning_archive::archive::ArchiveInner&#45;&gt;lightning_archive::archive::ArchiveInner::new</title>
<path fill="none" stroke="#000000" d="M549.2,-897.99C439.42,-896.42 232.17,-915.84 136.82,-937.36"/>
<polygon fill="#000000" stroke="#000000" points="135.78,-934.01 126.85,-939.72 137.39,-940.82 135.78,-934.01"/>
<text text-anchor="middle" x="330.51" y="-920.68" font-family="monospace" font-size="10.00">owns</text>
</g>
<!-- lightning_archive::archive::ArchiveInner::get_block_by_block_number&#45;&gt;lightning_archive::archive::ArchiveInner -->
<g id="edge34" class="edge">
<title>lightning_archive::archive::ArchiveInner::get_block_by_block_number&#45;&gt;lightning_archive::archive::ArchiveInner</title>
<path fill="none" stroke="#7f7f7f" stroke-dasharray="5,2" d="M1017.14,-1245.2C976.79,-1183.79 774.93,-1003.18 675.36,-935.28"/>
<polygon fill="#7f7f7f" stroke="#7f7f7f" points="677.18,-932.28 666.92,-929.63 673.29,-938.1 677.18,-932.28"/>
<text text-anchor="middle" x="833.75" y="-1093.24" font-family="monospace" font-size="10.00">uses</text>
</g>
<!-- lightning_archive::archive::ArchiveInner::get_block_by_hash&#45;&gt;lightning_archive::archive::ArchiveInner -->
<g id="edge35" class="edge">
<title>lightning_archive::archive::ArchiveInner::get_block_by_hash&#45;&gt;lightning_archive::archive::ArchiveInner</title>
<path fill="none" stroke="#7f7f7f" stroke-dasharray="5,2" d="M856.41,-1302.7C841.05,-1235.57 718.11,-1016.2 654.77,-937.99"/>
<polygon fill="#7f7f7f" stroke="#7f7f7f" points="657.19,-935.43 648.09,-930.02 651.83,-939.93 657.19,-935.43"/>
<text text-anchor="middle" x="743.09" y="-1123.34" font-family="monospace" font-size="10.00">uses</text>
</g>
<!-- lightning_archive::archive::ArchiveInner::get_block_by_num&#45;&gt;lightning_archive::archive::ArchiveInner -->
<g id="edge36" class="edge">
<title>lightning_archive::archive::ArchiveInner::get_block_by_num&#45;&gt;lightning_archive::archive::ArchiveInner</title>
<path fill="none" stroke="#7f7f7f" stroke-dasharray="5,2" d="M384.38,-604.48C402.81,-661.16 515.49,-819.99 579.44,-884.14"/>
<polygon fill="#7f7f7f" stroke="#7f7f7f" points="577.38,-887.01 586.99,-891.48 582.26,-882 577.38,-887.01"/>
<text text-anchor="middle" x="469.41" y="-747.31" font-family="monospace" font-size="10.00">uses</text>
</g>
<!-- lightning_archive::archive::ArchiveInner::get_block_by_num&#45;&gt;lightning_archive::archive::BlockInfo -->
<g id="edge37" class="edge">
<title>lightning_archive::archive::ArchiveInner::get_block_by_num&#45;&gt;lightning_archive::archive::BlockInfo</title>
<path fill="none" stroke="#7f7f7f" stroke-dasharray="5,2" d="M390.55,-565.78C402.09,-530.26 426.76,-454.33 440.29,-412.7"/>
<polygon fill="#7f7f7f" stroke="#7f7f7f" points="443.63,-413.73 443.4,-403.14 436.98,-411.57 443.63,-413.73"/>
<text text-anchor="middle" x="402.92" y="-492.24" font-family="monospace" font-size="10.00">uses</text>
</g>
<!-- lightning_archive::archive::ArchiveInner::get_historical_query_runner&#45;&gt;lightning_archive::archive::ArchiveInner -->
<g id="edge38" class="edge">
<title>lightning_archive::archive::ArchiveInner::get_historical_query_runner&#45;&gt;lightning_archive::archive::ArchiveInner</title>
<path fill="none" stroke="#7f7f7f" stroke-dasharray="5,2" d="M576.03,-1295.07C604.26,-1230.06 636.55,-1018.57 630.91,-940.12"/>
<polygon fill="#7f7f7f" stroke="#7f7f7f" points="634.37,-939.55 629.86,-929.97 627.41,-940.27 634.37,-939.55"/>
<text text-anchor="middle" x="590.97" y="-1120.6" font-family="monospace" font-size="10.00">uses</text>
</g>
<!-- lightning_archive::archive::ArchiveInner::get_transaction_receipt&#45;&gt;lightning_archive::archive::ArchiveInner -->
<g id="edge39" class="edge">
<title>lightning_archive::archive::ArchiveInner::get_transaction_receipt&#45;&gt;lightning_archive::archive::ArchiveInner</title>
<path fill="none" stroke="#7f7f7f" stroke-dasharray="5,2" d="M426.7,-1228.53C483.93,-1171.06 593.23,-1006.78 618.26,-939.2"/>
<polygon fill="#7f7f7f" stroke="#7f7f7f" points="621.63,-940.18 621.43,-929.58 614.98,-937.98 621.63,-940.18"/>
<text text-anchor="middle" x="509.98" y="-1086.86" font-family="monospace" font-size="10.00">uses</text>
</g>
<!-- lightning_archive::archive::ArchiveInner::handle_block&#45;&gt;lightning_archive::archive::ArchiveInner -->
<g id="edge40" class="edge">
<title>lightning_archive::archive::ArchiveInner::handle_block&#45;&gt;lightning_archive::archive::ArchiveInner</title>
<path fill="none" stroke="#7f7f7f" stroke-dasharray="5,2" d="M452.15,-805.28C465.03,-828.16 504.69,-862 542.54,-886.03"/>
<polygon fill="#7f7f7f" stroke="#7f7f7f" points="540.74,-889.03 551.09,-891.3 544.42,-883.07 540.74,-889.03"/>
<text text-anchor="middle" x="484.85" y="-848.65" font-family="monospace" font-size="10.00">uses</text>
</g>
<!-- lightning_archive::archive::ArchiveInner::handle_block&#45;&gt;lightning_archive::archive::BlockInfo -->
<g id="edge41" class="edge">
<title>lightning_archive::archive::ArchiveInner::handle_block&#45;&gt;lightning_archive::archive::BlockInfo</title>
<path fill="none" stroke="#7f7f7f" stroke-dasharray="5,2" d="M449.64,-767.08C449.64,-702.36 449.64,-491.29 449.64,-413.26"/>
<polygon fill="#7f7f7f" stroke="#7f7f7f" points="453.14,-413.16 449.64,-403.16 446.14,-413.16 453.14,-413.16"/>
<text text-anchor="middle" x="437.14" y="-593.17" font-family="monospace" font-size="10.00">uses</text>
</g>
<!-- lightning_archive::archive::ArchiveInner::handle_epoch&#45;&gt;lightning_archive::archive::ArchiveInner -->
<g id="edge42" class="edge">
<title>lightning_archive::archive::ArchiveInner::handle_epoch&#45;&gt;lightning_archive::archive::ArchiveInner</title>
<path fill="none" stroke="#7f7f7f" stroke-dasharray="5,2" d="M299.46,-1106.21C395.03,-1066.17 547.8,-981.85 601.68,-936.69"/>
<polygon fill="#7f7f7f" stroke="#7f7f7f" points="604.3,-939.05 609.45,-929.8 599.65,-933.81 604.3,-939.05"/>
<text text-anchor="middle" x="438.07" y="-1024.45" font-family="monospace" font-size="10.00">uses</text>
</g>
<!-- lightning_archive::archive::ArchiveInner::new&#45;&gt;lightning_archive::archive::ArchiveInner -->
<g id="edge43" class="edge">
<title>lightning_archive::archive::ArchiveInner::new&#45;&gt;lightning_archive::archive::ArchiveInner</title>
<path fill="none" stroke="#7f7f7f" stroke-dasharray="5,2" d="M173.28,-971.39C286.12,-971.14 479.49,-952.48 570.54,-931.92"/>
<polygon fill="#7f7f7f" stroke="#7f7f7f" points="571.42,-935.31 580.34,-929.6 569.81,-928.49 571.42,-935.31"/>
<text text-anchor="middle" x="359.41" y="-954.65" font-family="monospace" font-size="10.00">uses</text>
</g>
<!-- lightning_archive::archive::insertion_task&#45;&gt;lightning_archive::archive::Archive -->
<g id="edge44" class="edge">
<title>lightning_archive::archive::insertion_task&#45;&gt;lightning_archive::archive::Archive</title>
<path fill="none" stroke="#7f7f7f" stroke-dasharray="5,2" d="M1009.64,-766.93C1021.18,-731.41 1045.85,-655.49 1059.38,-613.85"/>
<polygon fill="#7f7f7f" stroke="#7f7f7f" points="1062.72,-614.88 1062.48,-604.29 1056.06,-612.72 1062.72,-614.88"/>
<text text-anchor="middle" x="1022.01" y="-693.39" font-family="monospace" font-size="10.00">uses</text>
</g>
</g>
</svg>
