<?xml version="1.0" encoding="UTF-8" standalone="no"?>
<!DOCTYPE svg PUBLIC "-//W3C//DTD SVG 1.1//EN"
 "http://www.w3.org/Graphics/SVG/1.1/DTD/svg11.dtd">
<!-- Generated by graphviz version 4.0.0 (0)
 -->
<!-- Pages: 1 -->
<svg width="1179pt" height="1174pt"
 viewBox="0.00 0.00 1179.06 1173.57" xmlns="http://www.w3.org/2000/svg" xmlns:xlink="http://www.w3.org/1999/xlink">
<g id="graph0" class="graph" transform="scale(1 1) rotate(0) translate(28.8 1144.77)">
<polygon fill="white" stroke="transparent" points="-28.8,28.8 -28.8,-1144.77 1150.26,-1144.77 1150.26,28.8 -28.8,28.8"/>
<text text-anchor="middle" x="560.73" y="-1083.17" font-family="Helvetica,sans-Serif" font-size="36.00">lightning_forwarder</text>
<!-- lightning_forwarder -->
<g id="node1" class="node">
<title>lightning_forwarder</title>
<polygon fill="#5397c8" stroke="black" points="606.36,-616.35 606.36,-654.35 737.36,-654.35 737.36,-616.35 606.36,-616.35"/>
<text text-anchor="middle" x="671.86" y="-642.35" font-family="monospace" font-size="10.00">crate</text>
<polyline fill="none" stroke="black" points="606.36,-635.35 737.36,-635.35 "/>
<text text-anchor="middle" x="671.86" y="-623.35" font-family="monospace" font-size="10.00">lightning_forwarder</text>
</g>
<!-- lightning_forwarder::config::ForwarderConfig -->
<g id="node2" class="node">
<title>lightning_forwarder::config::ForwarderConfig</title>
<polygon fill="#81c169" stroke="black" points="671.61,-906.07 671.61,-944.07 826.61,-944.07 826.61,-906.07 671.61,-906.07"/>
<text text-anchor="middle" x="749.11" y="-932.07" font-family="monospace" font-size="10.00">pub struct</text>
<polyline fill="none" stroke="black" points="671.61,-925.07 826.61,-925.07 "/>
<text text-anchor="middle" x="749.11" y="-913.07" font-family="monospace" font-size="10.00">config::ForwarderConfig</text>
</g>
<!-- lightning_forwarder&#45;&gt;lightning_forwarder::config::ForwarderConfig -->
<g id="edge1" class="edge">
<title>lightning_forwarder&#45;&gt;lightning_forwarder::config::ForwarderConfig</title>
<path fill="none" stroke="#000000" d="M663.36,-654.74C659.49,-704.88 693.33,-837.89 722.98,-896.67"/>
<polygon fill="#000000" stroke="#000000" points="720.06,-898.63 727.89,-905.77 726.22,-895.31 720.06,-898.63"/>
<text text-anchor="middle" x="680.67" y="-778.7" font-family="monospace" font-size="10.00">owns</text>
</g>
<!-- lightning_forwarder&#45;&gt;lightning_forwarder::config::ForwarderConfig -->
<g id="edge2" class="edge">
<title>lightning_forwarder&#45;&gt;lightning_forwarder::config::ForwarderConfig</title>
<path fill="none" stroke="#7f7f7f" stroke-dasharray="5,2" d="M693.03,-654.57C721.94,-704.27 757.33,-836.23 757.9,-895.61"/>
<polygon fill="#7f7f7f" stroke="#7f7f7f" points="754.4,-895.71 757.59,-905.82 761.39,-895.92 754.4,-895.71"/>
<text text-anchor="middle" x="712.97" y="-778.09" font-family="monospace" font-size="10.00">uses</text>
</g>
<!-- lightning_forwarder::forwarder::Forwarder -->
<g id="node3" class="node">
<title>lightning_forwarder::forwarder::Forwarder</title>
<polygon fill="#81c169" stroke="black" points="331.59,-744.86 331.59,-782.86 468.59,-782.86 468.59,-744.86 331.59,-744.86"/>
<text text-anchor="middle" x="400.09" y="-770.86" font-family="monospace" font-size="10.00">pub struct</text>
<polyline fill="none" stroke="black" points="331.59,-763.86 468.59,-763.86 "/>
<text text-anchor="middle" x="400.09" y="-751.86" font-family="monospace" font-size="10.00">forwarder::Forwarder</text>
</g>
<!-- lightning_forwarder&#45;&gt;lightning_forwarder::forwarder::Forwarder -->
<g id="edge3" class="edge">
<title>lightning_forwarder&#45;&gt;lightning_forwarder::forwarder::Forwarder</title>
<path fill="none" stroke="#000000" d="M606.33,-641.64C544.03,-662.41 454.86,-706.84 417.26,-737.84"/>
<polygon fill="#000000" stroke="#000000" points="414.78,-735.36 409.65,-744.63 419.44,-740.59 414.78,-735.36"/>
<text text-anchor="middle" x="499.3" y="-692.74" font-family="monospace" font-size="10.00">owns</text>
</g>
<!-- lightning_forwarder&#45;&gt;lightning_forwarder::forwarder::Forwarder -->
<g id="edge4" class="edge">
<title>lightning_forwarder&#45;&gt;lightning_forwarder::forwarder::Forwarder</title>
<path fill="none" stroke="#7f7f7f" stroke-dasharray="5,2" d="M662.5,-654.38C633.08,-683.4 544.59,-729.13 478.31,-753.15"/>
<polygon fill="#7f7f7f" stroke="#7f7f7f" points="476.97,-749.91 468.7,-756.53 479.3,-756.52 476.97,-749.91"/>
<text text-anchor="middle" x="557.91" y="-706.76" font-family="monospace" font-size="10.00">uses</text>
</g>
<!-- lightning_forwarder::worker::Worker -->
<g id="node7" class="node">
<title>lightning_forwarder::worker::Worker</title>
<polygon fill="#81c169" stroke="black" points="697.03,-301.89 697.03,-339.89 798.03,-339.89 798.03,-301.89 697.03,-301.89"/>
<text text-anchor="middle" x="747.53" y="-327.89" font-family="monospace" font-size="10.00">pub struct</text>
<polyline fill="none" stroke="black" points="697.03,-320.89 798.03,-320.89 "/>
<text text-anchor="middle" x="747.53" y="-308.89" font-family="monospace" font-size="10.00">worker::Worker</text>
</g>
<!-- lightning_forwarder&#45;&gt;lightning_forwarder::worker::Worker -->
<g id="edge5" class="edge">
<title>lightning_forwarder&#45;&gt;lightning_forwarder::worker::Worker</title>
<path fill="none" stroke="#000000" d="M691.7,-616.2C720.94,-562.96 757.1,-413.85 756.55,-350.16"/>
<polygon fill="#000000" stroke="#000000" points="760.03,-349.83 756.07,-340 753.04,-350.15 760.03,-349.83"/>
<text text-anchor="middle" x="711.62" y="-486.18" font-family="monospace" font-size="10.00">owns</text>
</g>
<!-- lightning_forwarder&#45;&gt;lightning_forwarder::worker::Worker -->
<g id="edge6" class="edge">
<title>lightning_forwarder&#45;&gt;lightning_forwarder::worker::Worker</title>
<path fill="none" stroke="#7f7f7f" stroke-dasharray="5,2" d="M663.32,-616.34C658.28,-562.86 693.1,-411.91 723.16,-348.9"/>
<polygon fill="#7f7f7f" stroke="#7f7f7f" points="726.32,-350.41 727.75,-339.92 720.09,-347.23 726.32,-350.41"/>
<text text-anchor="middle" x="680.74" y="-485.62" font-family="monospace" font-size="10.00">uses</text>
</g>
<!-- lightning_forwarder::forwarder::Forwarder::Config -->
<g id="node4" class="node">
<title>lightning_forwarder::forwarder::Forwarder::Config</title>
<polygon fill="#db5367" stroke="black" points="401.19,-1029.47 401.19,-1067.47 586.19,-1067.47 586.19,-1029.47 401.19,-1029.47"/>
<text text-anchor="middle" x="493.69" y="-1055.47" font-family="monospace" font-size="10.00">pub(self) type</text>
<polyline fill="none" stroke="black" points="401.19,-1048.47 586.19,-1048.47 "/>
<text text-anchor="middle" x="493.69" y="-1036.47" font-family="monospace" font-size="10.00">forwarder::Forwarder::Config</text>
</g>
<!-- lightning_forwarder::forwarder::Forwarder&#45;&gt;lightning_forwarder::forwarder::Forwarder::Config -->
<g id="edge7" class="edge">
<title>lightning_forwarder::forwarder::Forwarder&#45;&gt;lightning_forwarder::forwarder::Forwarder::Config</title>
<path fill="none" stroke="#000000" d="M406.37,-782.98C422.46,-831.89 465.18,-961.8 484.26,-1019.8"/>
<polygon fill="#000000" stroke="#000000" points="480.98,-1021.03 487.43,-1029.44 487.63,-1018.85 480.98,-1021.03"/>
<text text-anchor="middle" x="432.81" y="-904.39" font-family="monospace" font-size="10.00">owns</text>
</g>
<!-- lightning_forwarder::forwarder::Forwarder::build_graph -->
<g id="node5" class="node">
<title>lightning_forwarder::forwarder::Forwarder::build_graph</title>
<polygon fill="#db5367" stroke="black" points="391.54,-473.91 391.54,-511.91 606.54,-511.91 606.54,-473.91 391.54,-473.91"/>
<text text-anchor="middle" x="499.04" y="-499.91" font-family="monospace" font-size="10.00">pub(self) fn</text>
<polyline fill="none" stroke="black" points="391.54,-492.91 606.54,-492.91 "/>
<text text-anchor="middle" x="499.04" y="-480.91" font-family="monospace" font-size="10.00">forwarder::Forwarder::build_graph</text>
</g>
<!-- lightning_forwarder::forwarder::Forwarder&#45;&gt;lightning_forwarder::forwarder::Forwarder::build_graph -->
<g id="edge8" class="edge">
<title>lightning_forwarder::forwarder::Forwarder&#45;&gt;lightning_forwarder::forwarder::Forwarder::build_graph</title>
<path fill="none" stroke="#000000" d="M424.67,-744.5C456.95,-697.41 500.32,-578.35 505.47,-522.4"/>
<polygon fill="#000000" stroke="#000000" points="508.98,-522.25 505.98,-512.09 501.99,-521.91 508.98,-522.25"/>
<text text-anchor="middle" x="452.57" y="-636.45" font-family="monospace" font-size="10.00">owns</text>
</g>
<!-- lightning_forwarder::forwarder::Forwarder::mempool_socket -->
<g id="node6" class="node">
<title>lightning_forwarder::forwarder::Forwarder::mempool_socket</title>
<polygon fill="#db5367" stroke="black" points="0,-803.1 0,-841.1 233,-841.1 233,-803.1 0,-803.1"/>
<text text-anchor="middle" x="116.5" y="-829.1" font-family="monospace" font-size="10.00">pub(self) fn</text>
<polyline fill="none" stroke="black" points="0,-822.1 233,-822.1 "/>
<text text-anchor="middle" x="116.5" y="-810.1" font-family="monospace" font-size="10.00">forwarder::Forwarder::mempool_socket</text>
</g>
<!-- lightning_forwarder::forwarder::Forwarder&#45;&gt;lightning_forwarder::forwarder::Forwarder::mempool_socket -->
<g id="edge9" class="edge">
<title>lightning_forwarder::forwarder::Forwarder&#45;&gt;lightning_forwarder::forwarder::Forwarder::mempool_socket</title>
<path fill="none" stroke="#000000" d="M331.46,-754.47C271.18,-759.95 186.65,-779.16 143.72,-798.57"/>
<polygon fill="#000000" stroke="#000000" points="142.16,-795.43 134.72,-802.97 145.24,-801.72 142.16,-795.43"/>
<text text-anchor="middle" x="225.09" y="-779.52" font-family="monospace" font-size="10.00">owns</text>
</g>
<!-- lightning_forwarder::forwarder::Forwarder::Config&#45;&gt;lightning_forwarder::config::ForwarderConfig -->
<g id="edge10" class="edge">
<title>lightning_forwarder::forwarder::Forwarder::Config&#45;&gt;lightning_forwarder::config::ForwarderConfig</title>
<path fill="none" stroke="#7f7f7f" stroke-dasharray="5,2" d="M533.04,-1029.46C578.13,-1007.68 652.05,-971.96 700.65,-948.48"/>
<polygon fill="#7f7f7f" stroke="#7f7f7f" points="702.23,-951.61 709.72,-944.1 699.19,-945.3 702.23,-951.61"/>
<text text-anchor="middle" x="604.34" y="-991.97" font-family="monospace" font-size="10.00">uses</text>
</g>
<!-- lightning_forwarder::forwarder::Forwarder::build_graph&#45;&gt;lightning_forwarder::forwarder::Forwarder -->
<g id="edge11" class="edge">
<title>lightning_forwarder::forwarder::Forwarder::build_graph&#45;&gt;lightning_forwarder::forwarder::Forwarder</title>
<path fill="none" stroke="#7f7f7f" stroke-dasharray="5,2" d="M474.45,-512.27C442.18,-559.37 398.8,-678.42 393.65,-734.37"/>
<polygon fill="#7f7f7f" stroke="#7f7f7f" points="390.14,-734.52 393.15,-744.68 397.13,-734.87 390.14,-734.52"/>
<text text-anchor="middle" x="421.55" y="-626.32" font-family="monospace" font-size="10.00">uses</text>
</g>
<!-- lightning_forwarder::forwarder::Forwarder::build_graph&#45;&gt;lightning_forwarder::worker::Worker -->
<g id="edge12" class="edge">
<title>lightning_forwarder::forwarder::Forwarder::build_graph&#45;&gt;lightning_forwarder::worker::Worker</title>
<path fill="none" stroke="#7f7f7f" stroke-dasharray="5,2" d="M526.58,-473.84C571.73,-442.58 661.48,-380.46 711.58,-345.77"/>
<polygon fill="#7f7f7f" stroke="#7f7f7f" points="713.63,-348.61 719.86,-340.04 709.65,-342.86 713.63,-348.61"/>
<text text-anchor="middle" x="606.58" y="-412.81" font-family="monospace" font-size="10.00">uses</text>
</g>
<!-- lightning_forwarder::forwarder::Forwarder::mempool_socket&#45;&gt;lightning_forwarder::forwarder::Forwarder -->
<g id="edge13" class="edge">
<title>lightning_forwarder::forwarder::Forwarder::mempool_socket&#45;&gt;lightning_forwarder::forwarder::Forwarder</title>
<path fill="none" stroke="#7f7f7f" stroke-dasharray="5,2" d="M233.08,-825.14C284.37,-816.56 340.2,-802.1 372.6,-787.51"/>
<polygon fill="#7f7f7f" stroke="#7f7f7f" points="374.43,-790.52 381.88,-782.99 371.36,-784.23 374.43,-790.52"/>
<text text-anchor="middle" x="290.34" y="-809.33" font-family="monospace" font-size="10.00">uses</text>
</g>
<!-- lightning_forwarder::worker::Worker::Request -->
<g id="node8" class="node">
<title>lightning_forwarder::worker::Worker::Request</title>
<polygon fill="#db5367" stroke="black" points="945.71,-175.21 945.71,-213.21 1100.71,-213.21 1100.71,-175.21 945.71,-175.21"/>
<text text-anchor="middle" x="1023.21" y="-201.21" font-family="monospace" font-size="10.00">pub(self) type</text>
<polyline fill="none" stroke="black" points="945.71,-194.21 1100.71,-194.21 "/>
<text text-anchor="middle" x="1023.21" y="-182.21" font-family="monospace" font-size="10.00">worker::Worker::Request</text>
</g>
<!-- lightning_forwarder::worker::Worker&#45;&gt;lightning_forwarder::worker::Worker::Request -->
<g id="edge14" class="edge">
<title>lightning_forwarder::worker::Worker&#45;&gt;lightning_forwarder::worker::Worker::Request</title>
<path fill="none" stroke="#000000" d="M789.1,-301.79C838.2,-279.23 919.84,-241.71 972.58,-217.48"/>
<polygon fill="#000000" stroke="#000000" points="974.13,-220.62 981.76,-213.26 971.21,-214.26 974.13,-220.62"/>
<text text-anchor="middle" x="868.34" y="-262.63" font-family="monospace" font-size="10.00">owns</text>
</g>
<!-- lightning_forwarder::worker::Worker::Response -->
<g id="node9" class="node">
<title>lightning_forwarder::worker::Worker::Response</title>
<polygon fill="#db5367" stroke="black" points="463.85,-63.92 463.85,-101.92 624.85,-101.92 624.85,-63.92 463.85,-63.92"/>
<text text-anchor="middle" x="544.35" y="-89.92" font-family="monospace" font-size="10.00">pub(self) type</text>
<polyline fill="none" stroke="black" points="463.85,-82.92 624.85,-82.92 "/>
<text text-anchor="middle" x="544.35" y="-70.92" font-family="monospace" font-size="10.00">worker::Worker::Response</text>
</g>
<!-- lightning_forwarder::worker::Worker&#45;&gt;lightning_forwarder::worker::Worker::Response -->
<g id="edge15" class="edge">
<title>lightning_forwarder::worker::Worker&#45;&gt;lightning_forwarder::worker::Worker::Response</title>
<path fill="none" stroke="#000000" d="M731.24,-301.82C695.28,-259.7 608.98,-158.62 567.45,-109.98"/>
<polygon fill="#000000" stroke="#000000" points="569.87,-107.42 560.71,-102.09 564.54,-111.96 569.87,-107.42"/>
<text text-anchor="middle" x="636.85" y="-208.9" font-family="monospace" font-size="10.00">owns</text>
</g>
<!-- lightning_forwarder::worker::Worker::handle -->
<g id="node10" class="node">
<title>lightning_forwarder::worker::Worker::handle</title>
<polygon fill="#db5367" stroke="black" points="820.71,-40.93 820.71,-78.93 969.71,-78.93 969.71,-40.93 820.71,-40.93"/>
<text text-anchor="middle" x="895.21" y="-66.93" font-family="monospace" font-size="10.00">pub(self) async fn</text>
<polyline fill="none" stroke="black" points="820.71,-59.93 969.71,-59.93 "/>
<text text-anchor="middle" x="895.21" y="-47.93" font-family="monospace" font-size="10.00">worker::Worker::handle</text>
</g>
<!-- lightning_forwarder::worker::Worker&#45;&gt;lightning_forwarder::worker::Worker::handle -->
<g id="edge16" class="edge">
<title>lightning_forwarder::worker::Worker&#45;&gt;lightning_forwarder::worker::Worker::handle</title>
<path fill="none" stroke="#000000" d="M778.54,-301.57C819.73,-255.71 882.58,-143.45 896.67,-89.25"/>
<polygon fill="#000000" stroke="#000000" points="900.15,-89.73 898.82,-79.22 893.31,-88.26 900.15,-89.73"/>
<text text-anchor="middle" x="825.11" y="-198.41" font-family="monospace" font-size="10.00">owns</text>
</g>
<!-- lightning_forwarder::worker::Worker::handle_forward -->
<g id="node11" class="node">
<title>lightning_forwarder::worker::Worker::handle_forward</title>
<polygon fill="#db5367" stroke="black" points="615.69,-0.5 615.69,-38.5 812.69,-38.5 812.69,-0.5 615.69,-0.5"/>
<text text-anchor="middle" x="714.19" y="-26.5" font-family="monospace" font-size="10.00">pub(self) async fn</text>
<polyline fill="none" stroke="black" points="615.69,-19.5 812.69,-19.5 "/>
<text text-anchor="middle" x="714.19" y="-7.5" font-family="monospace" font-size="10.00">worker::Worker::handle_forward</text>
</g>
<!-- lightning_forwarder::worker::Worker&#45;&gt;lightning_forwarder::worker::Worker::handle_forward -->
<g id="edge17" class="edge">
<title>lightning_forwarder::worker::Worker&#45;&gt;lightning_forwarder::worker::Worker::handle_forward</title>
<path fill="none" stroke="#000000" d="M759.11,-301.44C770.07,-249.68 755.6,-108.59 734.46,-47.87"/>
<polygon fill="#000000" stroke="#000000" points="737.72,-46.59 730.87,-38.5 731.18,-49.09 737.72,-46.59"/>
<text text-anchor="middle" x="734.28" y="-177.65" font-family="monospace" font-size="10.00">owns</text>
</g>
<!-- lightning_forwarder::worker::Worker::make_connections -->
<g id="node12" class="node">
<title>lightning_forwarder::worker::Worker::make_connections</title>
<polygon fill="#db5367" stroke="black" points="355.34,-213.07 355.34,-251.07 564.34,-251.07 564.34,-213.07 355.34,-213.07"/>
<text text-anchor="middle" x="459.84" y="-239.07" font-family="monospace" font-size="10.00">pub(self) async fn</text>
<polyline fill="none" stroke="black" points="355.34,-232.07 564.34,-232.07 "/>
<text text-anchor="middle" x="459.84" y="-220.07" font-family="monospace" font-size="10.00">worker::Worker::make_connections</text>
</g>
<!-- lightning_forwarder::worker::Worker&#45;&gt;lightning_forwarder::worker::Worker::make_connections -->
<g id="edge18" class="edge">
<title>lightning_forwarder::worker::Worker&#45;&gt;lightning_forwarder::worker::Worker::make_connections</title>
<path fill="none" stroke="#000000" d="M733.25,-301.73C703.94,-281.41 635.39,-256.03 574.23,-239.99"/>
<polygon fill="#000000" stroke="#000000" points="575.04,-236.58 564.48,-237.49 573.3,-243.36 575.04,-236.58"/>
<text text-anchor="middle" x="641.24" y="-273.86" font-family="monospace" font-size="10.00">owns</text>
</g>
<!-- lightning_forwarder::worker::Worker::new -->
<g id="node13" class="node">
<title>lightning_forwarder::worker::Worker::new</title>
<polygon fill="#81c169" stroke="black" points="990.46,-353.74 990.46,-391.74 1121.46,-391.74 1121.46,-353.74 990.46,-353.74"/>
<text text-anchor="middle" x="1055.96" y="-379.74" font-family="monospace" font-size="10.00">pub fn</text>
<polyline fill="none" stroke="black" points="990.46,-372.74 1121.46,-372.74 "/>
<text text-anchor="middle" x="1055.96" y="-360.74" font-family="monospace" font-size="10.00">worker::Worker::new</text>
</g>
<!-- lightning_forwarder::worker::Worker&#45;&gt;lightning_forwarder::worker::Worker::new -->
<g id="edge19" class="edge">
<title>lightning_forwarder::worker::Worker&#45;&gt;lightning_forwarder::worker::Worker::new</title>
<path fill="none" stroke="#000000" d="M768.69,-339.9C811.63,-359.57 910.56,-378.9 980.29,-383.58"/>
<polygon fill="#000000" stroke="#000000" points="980.18,-387.08 990.36,-384.16 980.58,-380.09 980.18,-387.08"/>
<text text-anchor="middle" x="861.99" y="-364.74" font-family="monospace" font-size="10.00">owns</text>
</g>
<!-- lightning_forwarder::worker::Worker::refresh_epoch -->
<g id="node14" class="node">
<title>lightning_forwarder::worker::Worker::refresh_epoch</title>
<polygon fill="#db5367" stroke="black" points="868.78,-499.06 868.78,-537.06 1059.78,-537.06 1059.78,-499.06 868.78,-499.06"/>
<text text-anchor="middle" x="964.28" y="-525.06" font-family="monospace" font-size="10.00">pub(self) fn</text>
<polyline fill="none" stroke="black" points="868.78,-518.06 1059.78,-518.06 "/>
<text text-anchor="middle" x="964.28" y="-506.06" font-family="monospace" font-size="10.00">worker::Worker::refresh_epoch</text>
</g>
<!-- lightning_forwarder::worker::Worker&#45;&gt;lightning_forwarder::worker::Worker::refresh_epoch -->
<g id="edge20" class="edge">
<title>lightning_forwarder::worker::Worker&#45;&gt;lightning_forwarder::worker::Worker::refresh_epoch</title>
<path fill="none" stroke="#000000" d="M749.8,-339.98C768.53,-377.29 846.62,-452.77 903.69,-493.31"/>
<polygon fill="#000000" stroke="#000000" points="901.74,-496.22 911.95,-499.03 905.72,-490.46 901.74,-496.22"/>
<text text-anchor="middle" x="814.25" y="-419.65" font-family="monospace" font-size="10.00">owns</text>
</g>
<!-- lightning_forwarder::worker::Worker::handle&#45;&gt;lightning_forwarder::worker::Worker -->
<g id="edge21" class="edge">
<title>lightning_forwarder::worker::Worker::handle&#45;&gt;lightning_forwarder::worker::Worker</title>
<path fill="none" stroke="#7f7f7f" stroke-dasharray="5,2" d="M864.19,-79.25C823.01,-125.11 760.15,-237.37 746.06,-291.58"/>
<polygon fill="#7f7f7f" stroke="#7f7f7f" points="742.58,-291.09 743.91,-301.6 749.43,-292.56 742.58,-291.09"/>
<text text-anchor="middle" x="792.62" y="-188.41" font-family="monospace" font-size="10.00">uses</text>
</g>
<!-- lightning_forwarder::worker::Worker::handle_forward&#45;&gt;lightning_forwarder::worker::Worker -->
<g id="edge22" class="edge">
<title>lightning_forwarder::worker::Worker::handle_forward&#45;&gt;lightning_forwarder::worker::Worker</title>
<path fill="none" stroke="#7f7f7f" stroke-dasharray="5,2" d="M702.61,-38.95C691.64,-90.71 706.11,-231.81 727.25,-292.52"/>
<polygon fill="#7f7f7f" stroke="#7f7f7f" points="724,-293.8 730.84,-301.89 730.53,-291.3 724,-293.8"/>
<text text-anchor="middle" x="702.43" y="-168.74" font-family="monospace" font-size="10.00">uses</text>
</g>
<!-- lightning_forwarder::worker::Worker::make_connections&#45;&gt;lightning_forwarder::worker::Worker -->
<g id="edge23" class="edge">
<title>lightning_forwarder::worker::Worker::make_connections&#45;&gt;lightning_forwarder::worker::Worker</title>
<path fill="none" stroke="#7f7f7f" stroke-dasharray="5,2" d="M474.12,-251.23C512.53,-277.87 618.35,-313.19 686.6,-324.79"/>
<polygon fill="#7f7f7f" stroke="#7f7f7f" points="686.38,-328.3 696.8,-326.39 687.46,-321.39 686.38,-328.3"/>
<text text-anchor="middle" x="567.86" y="-291.01" font-family="monospace" font-size="10.00">uses</text>
</g>
<!-- lightning_forwarder::worker::Worker::new&#45;&gt;lightning_forwarder::worker::Worker -->
<g id="edge24" class="edge">
<title>lightning_forwarder::worker::Worker::new&#45;&gt;lightning_forwarder::worker::Worker</title>
<path fill="none" stroke="#7f7f7f" stroke-dasharray="5,2" d="M1034.79,-353.73C988.74,-332.63 878.28,-311.92 808.5,-309.27"/>
<polygon fill="#7f7f7f" stroke="#7f7f7f" points="808.18,-305.76 798.1,-309.01 808,-312.76 808.18,-305.76"/>
<text text-anchor="middle" x="909.15" y="-334.5" font-family="monospace" font-size="10.00">uses</text>
</g>
<!-- lightning_forwarder::worker::Worker::refresh_epoch&#45;&gt;lightning_forwarder::worker::Worker -->
<g id="edge25" class="edge">
<title>lightning_forwarder::worker::Worker::refresh_epoch&#45;&gt;lightning_forwarder::worker::Worker</title>
<path fill="none" stroke="#7f7f7f" stroke-dasharray="5,2" d="M962,-498.97C943.11,-461.34 863.86,-384.9 806.67,-344.61"/>
<polygon fill="#7f7f7f" stroke="#7f7f7f" points="808.62,-341.71 798.4,-338.94 804.67,-347.49 808.62,-341.71"/>
<text text-anchor="middle" x="871.84" y="-424.79" font-family="monospace" font-size="10.00">uses</text>
</g>
</g>
</svg>
