<?xml version="1.0" encoding="UTF-8" standalone="no"?>
<!DOCTYPE svg PUBLIC "-//W3C//DTD SVG 1.1//EN"
 "http://www.w3.org/Graphics/SVG/1.1/DTD/svg11.dtd">
<!-- Generated by graphviz version 4.0.0 (0)
 -->
<!-- Pages: 1 -->
<svg width="722pt" height="528pt"
 viewBox="0.00 0.00 722.07 528.36" xmlns="http://www.w3.org/2000/svg" xmlns:xlink="http://www.w3.org/1999/xlink">
<g id="graph0" class="graph" transform="scale(1 1) rotate(0) translate(28.8 499.56)">
<polygon fill="white" stroke="transparent" points="-28.8,28.8 -28.8,-499.56 693.27,-499.56 693.27,28.8 -28.8,28.8"/>
<text text-anchor="middle" x="332.24" y="-437.96" font-family="Helvetica,sans-Serif" font-size="36.00">lightning_forwarder</text>
<!-- core::cmp -->
<g id="node1" class="node">
<title>core::cmp</title>
<polygon fill="#81c169" stroke="black" points="0,-217.64 0,-255.64 89,-255.64 89,-217.64 0,-217.64"/>
<text text-anchor="middle" x="44.5" y="-243.64" font-family="monospace" font-size="10.00">external mod</text>
<polyline fill="none" stroke="black" points="0,-236.64 89,-236.64 "/>
<text text-anchor="middle" x="44.5" y="-224.64" font-family="monospace" font-size="10.00">core::cmp</text>
</g>
<!-- fdi -->
<g id="node2" class="node">
<title>fdi</title>
<polygon fill="#5397c8" stroke="black" points="563.47,-242.1 563.47,-280.1 664.47,-280.1 664.47,-242.1 563.47,-242.1"/>
<text text-anchor="middle" x="613.97" y="-268.1" font-family="monospace" font-size="10.00">external crate</text>
<polyline fill="none" stroke="black" points="563.47,-261.1 664.47,-261.1 "/>
<text text-anchor="middle" x="613.97" y="-249.1" font-family="monospace" font-size="10.00">fdi</text>
</g>
<!-- lightning_forwarder -->
<g id="node3" class="node">
<title>lightning_forwarder</title>
<polygon fill="#5397c8" stroke="black" points="252.88,-336.06 252.88,-374.06 383.88,-374.06 383.88,-336.06 252.88,-336.06"/>
<text text-anchor="middle" x="318.38" y="-362.06" font-family="monospace" font-size="10.00">crate</text>
<polyline fill="none" stroke="black" points="252.88,-355.06 383.88,-355.06 "/>
<text text-anchor="middle" x="318.38" y="-343.06" font-family="monospace" font-size="10.00">lightning_forwarder</text>
</g>
<!-- lightning_forwarder::config -->
<g id="node4" class="node">
<title>lightning_forwarder::config</title>
<polygon fill="#81c169" stroke="black" points="374.21,-384.26 374.21,-422.26 553.21,-422.26 553.21,-384.26 374.21,-384.26"/>
<text text-anchor="middle" x="463.71" y="-410.26" font-family="monospace" font-size="10.00">pub mod</text>
<polyline fill="none" stroke="black" points="374.21,-403.26 553.21,-403.26 "/>
<text text-anchor="middle" x="463.71" y="-391.26" font-family="monospace" font-size="10.00">lightning_forwarder::config</text>
</g>
<!-- lightning_forwarder&#45;&gt;lightning_forwarder::config -->
<g id="edge1" class="edge">
<title>lightning_forwarder&#45;&gt;lightning_forwarder::config</title>
<path fill="none" stroke="#000000" d="M375.82,-374.11C382.53,-376.34 389.43,-378.63 396.27,-380.89"/>
<polygon fill="#000000" stroke="#000000" points="395.62,-384.36 406.21,-384.19 397.82,-377.72 395.62,-384.36"/>
<text text-anchor="middle" x="398.54" y="-369.5" font-family="monospace" font-size="10.00">owns</text>
</g>
<!-- lightning_forwarder::forwarder -->
<g id="node5" class="node">
<title>lightning_forwarder::forwarder</title>
<polygon fill="#f8c04c" stroke="black" points="324.36,-190.62 324.36,-228.62 521.36,-228.62 521.36,-190.62 324.36,-190.62"/>
<text text-anchor="middle" x="422.86" y="-216.62" font-family="monospace" font-size="10.00">pub(crate) mod</text>
<polyline fill="none" stroke="black" points="324.36,-209.62 521.36,-209.62 "/>
<text text-anchor="middle" x="422.86" y="-197.62" font-family="monospace" font-size="10.00">lightning_forwarder::forwarder</text>
</g>
<!-- lightning_forwarder&#45;&gt;lightning_forwarder::forwarder -->
<g id="edge2" class="edge">
<title>lightning_forwarder&#45;&gt;lightning_forwarder::forwarder</title>
<path fill="none" stroke="#000000" d="M360.47,-335.82C386.8,-310.44 415.63,-267.81 424.91,-238.62"/>
<polygon fill="#000000" stroke="#000000" points="428.31,-239.46 427.34,-228.91 421.52,-237.76 428.31,-239.46"/>
<text text-anchor="middle" x="380.19" y="-290.22" font-family="monospace" font-size="10.00">owns</text>
</g>
<!-- lightning_forwarder&#45;&gt;lightning_forwarder::forwarder -->
<g id="edge3" class="edge">
<title>lightning_forwarder&#45;&gt;lightning_forwarder::forwarder</title>
<path fill="none" stroke="#7f7f7f" stroke-dasharray="5,2" d="M313.86,-335.96C318.25,-309.66 346.23,-265.15 373.66,-236.06"/>
<polygon fill="#7f7f7f" stroke="#7f7f7f" points="376.44,-238.22 380.98,-228.65 371.46,-233.3 376.44,-238.22"/>
<text text-anchor="middle" x="331.26" y="-289.01" font-family="monospace" font-size="10.00">uses</text>
</g>
<!-- lightning_forwarder::worker -->
<g id="node6" class="node">
<title>lightning_forwarder::worker</title>
<polygon fill="#f8c04c" stroke="black" points="137.34,-204.85 137.34,-242.85 316.34,-242.85 316.34,-204.85 137.34,-204.85"/>
<text text-anchor="middle" x="226.84" y="-230.85" font-family="monospace" font-size="10.00">pub(crate) mod</text>
<polyline fill="none" stroke="black" points="137.34,-223.85 316.34,-223.85 "/>
<text text-anchor="middle" x="226.84" y="-211.85" font-family="monospace" font-size="10.00">lightning_forwarder::worker</text>
</g>
<!-- lightning_forwarder&#45;&gt;lightning_forwarder::worker -->
<g id="edge4" class="edge">
<title>lightning_forwarder&#45;&gt;lightning_forwarder::worker</title>
<path fill="none" stroke="#000000" d="M305.07,-335.98C289.54,-313.73 263.75,-276.77 246.06,-251.4"/>
<polygon fill="#000000" stroke="#000000" points="248.76,-249.15 240.16,-242.96 243.01,-253.16 248.76,-249.15"/>
<text text-anchor="middle" x="263.06" y="-296.69" font-family="monospace" font-size="10.00">owns</text>
</g>
<!-- lightning_forwarder::forwarder&#45;&gt;fdi -->
<g id="edge5" class="edge">
<title>lightning_forwarder::forwarder&#45;&gt;fdi</title>
<path fill="none" stroke="#7f7f7f" stroke-dasharray="5,2" d="M493.48,-228.64C513.22,-233.96 534.48,-239.69 553.57,-244.83"/>
<polygon fill="#7f7f7f" stroke="#7f7f7f" points="552.77,-248.24 563.34,-247.46 554.59,-241.48 552.77,-248.24"/>
<text text-anchor="middle" x="511.03" y="-239.74" font-family="monospace" font-size="10.00">uses</text>
</g>
<!-- lightning_forwarder::forwarder&#45;&gt;lightning_forwarder::config -->
<g id="edge6" class="edge">
<title>lightning_forwarder::forwarder&#45;&gt;lightning_forwarder::config</title>
<path fill="none" stroke="#7f7f7f" stroke-dasharray="5,2" d="M426.92,-228.9C434.11,-262.97 449.1,-334.01 457.56,-374.1"/>
<polygon fill="#7f7f7f" stroke="#7f7f7f" points="454.17,-375 459.66,-384.06 461.02,-373.55 454.17,-375"/>
<text text-anchor="middle" x="429.74" y="-304.5" font-family="monospace" font-size="10.00">uses</text>
</g>
<!-- lightning_forwarder::forwarder&#45;&gt;lightning_forwarder::worker -->
<g id="edge7" class="edge">
<title>lightning_forwarder::forwarder&#45;&gt;lightning_forwarder::worker</title>
<path fill="none" stroke="#7f7f7f" stroke-dasharray="5,2" d="M324.27,-216.78C324.11,-216.79 323.95,-216.8 323.79,-216.81"/>
<polygon fill="#7f7f7f" stroke="#7f7f7f" points="326.28,-213.12 316.56,-217.34 326.79,-220.11 326.28,-213.12"/>
<text text-anchor="middle" x="311.53" y="-219.8" font-family="monospace" font-size="10.00">uses</text>
</g>
<!-- lightning_schema -->
<g id="node7" class="node">
<title>lightning_schema</title>
<polygon fill="#5397c8" stroke="black" points="311.36,-0.5 311.36,-38.5 424.36,-38.5 424.36,-0.5 311.36,-0.5"/>
<text text-anchor="middle" x="367.86" y="-26.5" font-family="monospace" font-size="10.00">external crate</text>
<polyline fill="none" stroke="black" points="311.36,-19.5 424.36,-19.5 "/>
<text text-anchor="middle" x="367.86" y="-7.5" font-family="monospace" font-size="10.00">lightning_schema</text>
</g>
<!-- lightning_forwarder::forwarder&#45;&gt;lightning_schema -->
<g id="edge8" class="edge">
<title>lightning_forwarder::forwarder&#45;&gt;lightning_schema</title>
<path fill="none" stroke="#7f7f7f" stroke-dasharray="5,2" d="M417.28,-190.34C407.58,-156.81 387.55,-87.56 376.19,-48.3"/>
<polygon fill="#7f7f7f" stroke="#7f7f7f" points="379.51,-47.18 373.37,-38.54 372.79,-49.12 379.51,-47.18"/>
<text text-anchor="middle" x="384.24" y="-122.32" font-family="monospace" font-size="10.00">uses</text>
</g>
<!-- lightning_types -->
<g id="node8" class="node">
<title>lightning_types</title>
<polygon fill="#5397c8" stroke="black" points="501.66,-50.25 501.66,-88.25 608.66,-88.25 608.66,-50.25 501.66,-50.25"/>
<text text-anchor="middle" x="555.16" y="-76.25" font-family="monospace" font-size="10.00">external crate</text>
<polyline fill="none" stroke="black" points="501.66,-69.25 608.66,-69.25 "/>
<text text-anchor="middle" x="555.16" y="-57.25" font-family="monospace" font-size="10.00">lightning_types</text>
</g>
<!-- lightning_forwarder::forwarder&#45;&gt;lightning_types -->
<g id="edge9" class="edge">
<title>lightning_forwarder::forwarder&#45;&gt;lightning_types</title>
<path fill="none" stroke="#7f7f7f" stroke-dasharray="5,2" d="M440.98,-190.4C464.01,-165.96 503.89,-123.65 529.9,-96.06"/>
<polygon fill="#7f7f7f" stroke="#7f7f7f" points="532.53,-98.37 536.84,-88.69 527.43,-93.57 532.53,-98.37"/>
<text text-anchor="middle" x="472.94" y="-146.23" font-family="monospace" font-size="10.00">uses</text>
</g>
<!-- lightning_forwarder::worker&#45;&gt;core::cmp -->
<g id="edge10" class="edge">
<title>lightning_forwarder::worker&#45;&gt;core::cmp</title>
<path fill="none" stroke="#7f7f7f" stroke-dasharray="5,2" d="M137.27,-230.13C124.31,-231.04 111.31,-231.95 99.32,-232.79"/>
<polygon fill="#7f7f7f" stroke="#7f7f7f" points="98.79,-229.32 89.06,-233.51 99.28,-236.3 98.79,-229.32"/>
<text text-anchor="middle" x="105.79" y="-234.46" font-family="monospace" font-size="10.00">uses</text>
</g>
</g>
</svg>
