<?xml version="1.0" encoding="UTF-8" standalone="no"?>
<!DOCTYPE svg PUBLIC "-//W3C//DTD SVG 1.1//EN"
 "http://www.w3.org/Graphics/SVG/1.1/DTD/svg11.dtd">
<!-- Generated by graphviz version 4.0.0 (0)
 -->
<!-- Pages: 1 -->
<svg width="1117pt" height="1071pt"
 viewBox="0.00 0.00 1117.25 1071.00" xmlns="http://www.w3.org/2000/svg" xmlns:xlink="http://www.w3.org/1999/xlink">
<g id="graph0" class="graph" transform="scale(1 1) rotate(0) translate(28.8 1042.2)">
<polygon fill="white" stroke="transparent" points="-28.8,28.8 -28.8,-1042.2 1088.45,-1042.2 1088.45,28.8 -28.8,28.8"/>
<text text-anchor="middle" x="529.82" y="-980.6" font-family="Helvetica,sans-Serif" font-size="36.00">lightning_signer</text>
<!-- lightning_signer -->
<g id="node1" class="node">
<title>lightning_signer</title>
<polygon fill="#5397c8" stroke="black" points="336.59,-500.92 336.59,-538.92 449.59,-538.92 449.59,-500.92 336.59,-500.92"/>
<text text-anchor="middle" x="393.09" y="-526.92" font-family="monospace" font-size="10.00">crate</text>
<polyline fill="none" stroke="black" points="336.59,-519.92 449.59,-519.92 "/>
<text text-anchor="middle" x="393.09" y="-507.92" font-family="monospace" font-size="10.00">lightning_signer</text>
</g>
<!-- lightning_signer::LazyNodeIndex -->
<g id="node2" class="node">
<title>lightning_signer::LazyNodeIndex</title>
<polygon fill="#f8c04c" stroke="black" points="717.44,-669.98 717.44,-707.98 836.44,-707.98 836.44,-669.98 717.44,-669.98"/>
<text text-anchor="middle" x="776.94" y="-695.98" font-family="monospace" font-size="10.00">pub(crate) struct</text>
<polyline fill="none" stroke="black" points="717.44,-688.98 836.44,-688.98 "/>
<text text-anchor="middle" x="776.94" y="-676.98" font-family="monospace" font-size="10.00">LazyNodeIndex</text>
</g>
<!-- lightning_signer&#45;&gt;lightning_signer::LazyNodeIndex -->
<g id="edge1" class="edge">
<title>lightning_signer&#45;&gt;lightning_signer::LazyNodeIndex</title>
<path fill="none" stroke="#000000" d="M436.38,-538.99C507.17,-570.17 647.48,-631.96 724.05,-665.69"/>
<polygon fill="#000000" stroke="#000000" points="722.96,-669.03 733.52,-669.85 725.78,-662.62 722.96,-669.03"/>
<text text-anchor="middle" x="567.72" y="-605.34" font-family="monospace" font-size="10.00">owns</text>
</g>
<!-- lightning_signer::PendingTransaction -->
<g id="node5" class="node">
<title>lightning_signer::PendingTransaction</title>
<polygon fill="#f8c04c" stroke="black" points="481.6,-463.7 481.6,-501.7 606.6,-501.7 606.6,-463.7 481.6,-463.7"/>
<text text-anchor="middle" x="544.1" y="-489.7" font-family="monospace" font-size="10.00">pub(crate) struct</text>
<polyline fill="none" stroke="black" points="481.6,-482.7 606.6,-482.7 "/>
<text text-anchor="middle" x="544.1" y="-470.7" font-family="monospace" font-size="10.00">PendingTransaction</text>
</g>
<!-- lightning_signer&#45;&gt;lightning_signer::PendingTransaction -->
<g id="edge2" class="edge">
<title>lightning_signer&#45;&gt;lightning_signer::PendingTransaction</title>
<path fill="none" stroke="#000000" d="M449.75,-505.96C456.89,-504.2 464.26,-502.38 471.6,-500.57"/>
<polygon fill="#000000" stroke="#000000" points="472.68,-503.91 481.55,-498.12 471.01,-497.11 472.68,-503.91"/>
<text text-anchor="middle" x="473.17" y="-506.27" font-family="monospace" font-size="10.00">owns</text>
</g>
<!-- lightning_signer::Signer -->
<g id="node6" class="node">
<title>lightning_signer::Signer</title>
<polygon fill="#81c169" stroke="black" points="328.9,-719.71 328.9,-757.71 405.9,-757.71 405.9,-719.71 328.9,-719.71"/>
<text text-anchor="middle" x="367.4" y="-745.71" font-family="monospace" font-size="10.00">pub struct</text>
<polyline fill="none" stroke="black" points="328.9,-738.71 405.9,-738.71 "/>
<text text-anchor="middle" x="367.4" y="-726.71" font-family="monospace" font-size="10.00">Signer</text>
</g>
<!-- lightning_signer&#45;&gt;lightning_signer::Signer -->
<g id="edge3" class="edge">
<title>lightning_signer&#45;&gt;lightning_signer::Signer</title>
<path fill="none" stroke="#000000" d="M390.85,-538.96C386.36,-577.26 376.18,-663.88 370.83,-709.44"/>
<polygon fill="#000000" stroke="#000000" points="367.33,-709.22 369.64,-719.56 374.29,-710.04 367.33,-709.22"/>
<text text-anchor="middle" x="368.34" y="-627.2" font-family="monospace" font-size="10.00">owns</text>
</g>
<!-- lightning_signer::SignerState -->
<g id="node11" class="node">
<title>lightning_signer::SignerState</title>
<polygon fill="#f8c04c" stroke="black" points="182.57,-389.26 182.57,-427.26 301.57,-427.26 301.57,-389.26 182.57,-389.26"/>
<text text-anchor="middle" x="242.07" y="-415.26" font-family="monospace" font-size="10.00">pub(crate) struct</text>
<polyline fill="none" stroke="black" points="182.57,-408.26 301.57,-408.26 "/>
<text text-anchor="middle" x="242.07" y="-396.26" font-family="monospace" font-size="10.00">SignerState</text>
</g>
<!-- lightning_signer&#45;&gt;lightning_signer::SignerState -->
<g id="edge4" class="edge">
<title>lightning_signer&#45;&gt;lightning_signer::SignerState</title>
<path fill="none" stroke="#000000" d="M367.13,-500.73C341.98,-482.14 303.72,-453.84 276.14,-433.45"/>
<polygon fill="#000000" stroke="#000000" points="278.07,-430.52 267.95,-427.39 273.91,-436.15 278.07,-430.52"/>
<text text-anchor="middle" x="309.13" y="-470.09" font-family="monospace" font-size="10.00">owns</text>
</g>
<!-- lightning_signer::SignerWorker -->
<g id="node15" class="node">
<title>lightning_signer::SignerWorker</title>
<polygon fill="#f8c04c" stroke="black" points="447.11,-154.9 447.11,-192.9 566.11,-192.9 566.11,-154.9 447.11,-154.9"/>
<text text-anchor="middle" x="506.61" y="-180.9" font-family="monospace" font-size="10.00">pub(crate) struct</text>
<polyline fill="none" stroke="black" points="447.11,-173.9 566.11,-173.9 "/>
<text text-anchor="middle" x="506.61" y="-161.9" font-family="monospace" font-size="10.00">SignerWorker</text>
</g>
<!-- lightning_signer&#45;&gt;lightning_signer::SignerWorker -->
<g id="edge5" class="edge">
<title>lightning_signer&#45;&gt;lightning_signer::SignerWorker</title>
<path fill="none" stroke="#000000" d="M399.35,-500.83C418.23,-443.28 474.65,-271.31 497.17,-202.66"/>
<polygon fill="#000000" stroke="#000000" points="500.57,-203.53 500.36,-192.94 493.92,-201.35 500.57,-203.53"/>
<text text-anchor="middle" x="435.76" y="-354.75" font-family="monospace" font-size="10.00">owns</text>
</g>
<!-- lightning_signer::new_block_task -->
<g id="node19" class="node">
<title>lightning_signer::new_block_task</title>
<polygon fill="#f8c04c" stroke="black" points="711.44,-257.42 711.44,-295.42 842.44,-295.42 842.44,-257.42 711.44,-257.42"/>
<text text-anchor="middle" x="776.94" y="-283.42" font-family="monospace" font-size="10.00">pub(crate) async fn</text>
<polyline fill="none" stroke="black" points="711.44,-276.42 842.44,-276.42 "/>
<text text-anchor="middle" x="776.94" y="-264.42" font-family="monospace" font-size="10.00">new_block_task</text>
</g>
<!-- lightning_signer&#45;&gt;lightning_signer::new_block_task -->
<g id="edge6" class="edge">
<title>lightning_signer&#45;&gt;lightning_signer::new_block_task</title>
<path fill="none" stroke="#000000" d="M423.21,-500.82C492.16,-457.08 661.42,-349.71 738.08,-301.07"/>
<polygon fill="#000000" stroke="#000000" points="740.39,-303.76 746.96,-295.44 736.64,-297.84 740.39,-303.76"/>
<text text-anchor="middle" x="568.15" y="-403.95" font-family="monospace" font-size="10.00">owns</text>
</g>
<!-- lightning_signer::LazyNodeIndex::new -->
<g id="node3" class="node">
<title>lightning_signer::LazyNodeIndex::new</title>
<polygon fill="#f8c04c" stroke="black" points="934.65,-575.37 934.65,-613.37 1059.65,-613.37 1059.65,-575.37 934.65,-575.37"/>
<text text-anchor="middle" x="997.15" y="-601.37" font-family="monospace" font-size="10.00">pub(crate) fn</text>
<polyline fill="none" stroke="black" points="934.65,-594.37 1059.65,-594.37 "/>
<text text-anchor="middle" x="997.15" y="-582.37" font-family="monospace" font-size="10.00">LazyNodeIndex::new</text>
</g>
<!-- lightning_signer::LazyNodeIndex&#45;&gt;lightning_signer::LazyNodeIndex::new -->
<g id="edge7" class="edge">
<title>lightning_signer::LazyNodeIndex&#45;&gt;lightning_signer::LazyNodeIndex::new</title>
<path fill="none" stroke="#000000" d="M836.59,-688.52C885.18,-674.88 950.21,-644.87 980.69,-620.39"/>
<polygon fill="#000000" stroke="#000000" points="983.14,-622.89 988.33,-613.65 978.51,-617.64 983.14,-622.89"/>
<text text-anchor="middle" x="896.14" y="-657.45" font-family="monospace" font-size="10.00">owns</text>
</g>
<!-- lightning_signer::LazyNodeIndex::query_nonce -->
<g id="node4" class="node">
<title>lightning_signer::LazyNodeIndex::query_nonce</title>
<polygon fill="#f8c04c" stroke="black" points="806.86,-773.12 806.86,-811.12 979.86,-811.12 979.86,-773.12 806.86,-773.12"/>
<text text-anchor="middle" x="893.36" y="-799.12" font-family="monospace" font-size="10.00">pub(crate) fn</text>
<polyline fill="none" stroke="black" points="806.86,-792.12 979.86,-792.12 "/>
<text text-anchor="middle" x="893.36" y="-780.12" font-family="monospace" font-size="10.00">LazyNodeIndex::query_nonce</text>
</g>
<!-- lightning_signer::LazyNodeIndex&#45;&gt;lightning_signer::LazyNodeIndex::query_nonce -->
<g id="edge8" class="edge">
<title>lightning_signer::LazyNodeIndex&#45;&gt;lightning_signer::LazyNodeIndex::query_nonce</title>
<path fill="none" stroke="#000000" d="M775.68,-708.03C781.89,-725.42 802.12,-748.56 824.35,-766.82"/>
<polygon fill="#000000" stroke="#000000" points="822.26,-769.63 832.28,-773.06 826.59,-764.12 822.26,-769.63"/>
<text text-anchor="middle" x="787.52" y="-740.42" font-family="monospace" font-size="10.00">owns</text>
</g>
<!-- lightning_signer::LazyNodeIndex::new&#45;&gt;lightning_signer::LazyNodeIndex -->
<g id="edge9" class="edge">
<title>lightning_signer::LazyNodeIndex::new&#45;&gt;lightning_signer::LazyNodeIndex</title>
<path fill="none" stroke="#7f7f7f" stroke-dasharray="5,2" d="M934.56,-595.67C886.49,-609.62 823.7,-638.77 793.7,-662.71"/>
<polygon fill="#7f7f7f" stroke="#7f7f7f" points="791.03,-660.4 785.83,-669.63 795.65,-665.66 791.03,-660.4"/>
<text text-anchor="middle" x="851.63" y="-632.19" font-family="monospace" font-size="10.00">uses</text>
</g>
<!-- lightning_signer::LazyNodeIndex::query_nonce&#45;&gt;lightning_signer::LazyNodeIndex -->
<g id="edge10" class="edge">
<title>lightning_signer::LazyNodeIndex::query_nonce&#45;&gt;lightning_signer::LazyNodeIndex</title>
<path fill="none" stroke="#7f7f7f" stroke-dasharray="5,2" d="M894.62,-773.07C888.29,-755.34 867.39,-731.63 844.65,-713.21"/>
<polygon fill="#7f7f7f" stroke="#7f7f7f" points="846.59,-710.29 836.55,-706.94 842.31,-715.83 846.59,-710.29"/>
<text text-anchor="middle" x="857.13" y="-746.14" font-family="monospace" font-size="10.00">uses</text>
</g>
<!-- lightning_signer::Signer::build_graph -->
<g id="node7" class="node">
<title>lightning_signer::Signer::build_graph</title>
<polygon fill="#f8c04c" stroke="black" points="422.36,-926.9 422.36,-964.9 553.36,-964.9 553.36,-926.9 422.36,-926.9"/>
<text text-anchor="middle" x="487.86" y="-952.9" font-family="monospace" font-size="10.00">pub(crate) fn</text>
<polyline fill="none" stroke="black" points="422.36,-945.9 553.36,-945.9 "/>
<text text-anchor="middle" x="487.86" y="-933.9" font-family="monospace" font-size="10.00">Signer::build_graph</text>
</g>
<!-- lightning_signer::Signer&#45;&gt;lightning_signer::Signer::build_graph -->
<g id="edge11" class="edge">
<title>lightning_signer::Signer&#45;&gt;lightning_signer::Signer::build_graph</title>
<path fill="none" stroke="#000000" d="M378.51,-757.83C399.89,-794.6 446.82,-875.32 471.68,-918.06"/>
<polygon fill="#000000" stroke="#000000" points="468.72,-919.94 476.77,-926.83 474.77,-916.42 468.72,-919.94"/>
<text text-anchor="middle" x="412.59" y="-840.95" font-family="monospace" font-size="10.00">owns</text>
</g>
<!-- lightning_signer::Signer::get_socket -->
<g id="node8" class="node">
<title>lightning_signer::Signer::get_socket</title>
<polygon fill="#f8c04c" stroke="black" points="216.54,-847.71 216.54,-885.71 341.54,-885.71 341.54,-847.71 216.54,-847.71"/>
<text text-anchor="middle" x="279.04" y="-873.71" font-family="monospace" font-size="10.00">pub(crate) fn</text>
<polyline fill="none" stroke="black" points="216.54,-866.71 341.54,-866.71 "/>
<text text-anchor="middle" x="279.04" y="-854.71" font-family="monospace" font-size="10.00">Signer::get_socket</text>
</g>
<!-- lightning_signer::Signer&#45;&gt;lightning_signer::Signer::get_socket -->
<g id="edge12" class="edge">
<title>lightning_signer::Signer&#45;&gt;lightning_signer::Signer::get_socket</title>
<path fill="none" stroke="#000000" d="M328.67,-754.39C306.28,-775.63 282.94,-811.47 275.49,-837.51"/>
<polygon fill="#000000" stroke="#000000" points="272.06,-836.8 273.4,-847.31 278.91,-838.26 272.06,-836.8"/>
<text text-anchor="middle" x="289.58" y="-798.95" font-family="monospace" font-size="10.00">owns</text>
</g>
<!-- lightning_signer::Signer::init -->
<g id="node9" class="node">
<title>lightning_signer::Signer::init</title>
<polygon fill="#81c169" stroke="black" points="86.45,-680.54 86.45,-718.54 175.45,-718.54 175.45,-680.54 86.45,-680.54"/>
<text text-anchor="middle" x="130.95" y="-706.54" font-family="monospace" font-size="10.00">pub fn</text>
<polyline fill="none" stroke="black" points="86.45,-699.54 175.45,-699.54 "/>
<text text-anchor="middle" x="130.95" y="-687.54" font-family="monospace" font-size="10.00">Signer::init</text>
</g>
<!-- lightning_signer::Signer&#45;&gt;lightning_signer::Signer::init -->
<g id="edge13" class="edge">
<title>lightning_signer::Signer&#45;&gt;lightning_signer::Signer::init</title>
<path fill="none" stroke="#000000" d="M349.84,-719.66C315.57,-701.84 238.8,-686.83 185.91,-685.63"/>
<polygon fill="#000000" stroke="#000000" points="185.69,-682.13 175.67,-685.58 185.65,-689.13 185.69,-682.13"/>
<text text-anchor="middle" x="255.37" y="-705.65" font-family="monospace" font-size="10.00">owns</text>
</g>
<!-- lightning_signer::Signer::start -->
<g id="node10" class="node">
<title>lightning_signer::Signer::start</title>
<polygon fill="#81c169" stroke="black" points="662.06,-899.98 662.06,-937.98 757.06,-937.98 757.06,-899.98 662.06,-899.98"/>
<text text-anchor="middle" x="709.56" y="-925.98" font-family="monospace" font-size="10.00">pub async fn</text>
<polyline fill="none" stroke="black" points="662.06,-918.98 757.06,-918.98 "/>
<text text-anchor="middle" x="709.56" y="-906.98" font-family="monospace" font-size="10.00">Signer::start</text>
</g>
<!-- lightning_signer::Signer&#45;&gt;lightning_signer::Signer::start -->
<g id="edge14" class="edge">
<title>lightning_signer::Signer&#45;&gt;lightning_signer::Signer::start</title>
<path fill="none" stroke="#000000" d="M377.72,-758.03C419.12,-798.85 568.39,-880.21 652.15,-910.77"/>
<polygon fill="#000000" stroke="#000000" points="651.19,-914.14 661.78,-914.16 653.51,-907.54 651.19,-914.14"/>
<text text-anchor="middle" x="502.43" y="-837.4" font-family="monospace" font-size="10.00">owns</text>
</g>
<!-- lightning_signer::Signer&#45;&gt;lightning_signer::SignerWorker -->
<g id="edge15" class="edge">
<title>lightning_signer::Signer&#45;&gt;lightning_signer::SignerWorker</title>
<path fill="none" stroke="#7f7f7f" stroke-dasharray="5,2" d="M372.11,-719.59C392.68,-636.12 474.72,-303.3 499.49,-202.79"/>
<polygon fill="#7f7f7f" stroke="#7f7f7f" points="502.9,-203.56 501.9,-193.01 496.11,-201.88 502.9,-203.56"/>
<text text-anchor="middle" x="423.3" y="-464.19" font-family="monospace" font-size="10.00">uses</text>
</g>
<!-- lightning_signer::Signer::get_socket&#45;&gt;lightning_signer::Signer -->
<g id="edge16" class="edge">
<title>lightning_signer::Signer::get_socket&#45;&gt;lightning_signer::Signer</title>
<path fill="none" stroke="#7f7f7f" stroke-dasharray="5,2" d="M321.22,-847.64C342.49,-826.15 363.83,-792.68 370.93,-767.99"/>
<polygon fill="#7f7f7f" stroke="#7f7f7f" points="374.39,-768.51 373.05,-758 367.55,-767.05 374.39,-768.51"/>
<text text-anchor="middle" x="333.57" y="-810.82" font-family="monospace" font-size="10.00">uses</text>
</g>
<!-- lightning_signer::Signer::init&#45;&gt;lightning_signer::Signer -->
<g id="edge17" class="edge">
<title>lightning_signer::Signer::init&#45;&gt;lightning_signer::Signer</title>
<path fill="none" stroke="#7f7f7f" stroke-dasharray="5,2" d="M148.5,-718.59C184.06,-737.08 265.37,-752.54 318.29,-752.69"/>
<polygon fill="#7f7f7f" stroke="#7f7f7f" points="318.53,-756.19 328.47,-752.52 318.41,-749.19 318.53,-756.19"/>
<text text-anchor="middle" x="220.9" y="-738.64" font-family="monospace" font-size="10.00">uses</text>
</g>
<!-- lightning_signer::Signer::init&#45;&gt;lightning_signer::SignerState -->
<g id="edge18" class="edge">
<title>lightning_signer::Signer::init&#45;&gt;lightning_signer::SignerState</title>
<path fill="none" stroke="#7f7f7f" stroke-dasharray="5,2" d="M138.24,-680.43C157.27,-630.54 208.55,-496.14 231.14,-436.93"/>
<polygon fill="#7f7f7f" stroke="#7f7f7f" points="234.46,-438.03 234.76,-427.44 227.92,-435.54 234.46,-438.03"/>
<text text-anchor="middle" x="172.19" y="-561.68" font-family="monospace" font-size="10.00">uses</text>
</g>
<!-- lightning_signer::Signer::init&#45;&gt;lightning_signer::SignerWorker -->
<g id="edge19" class="edge">
<title>lightning_signer::Signer::init&#45;&gt;lightning_signer::SignerWorker</title>
<path fill="none" stroke="#7f7f7f" stroke-dasharray="5,2" d="M144.54,-680.53C201.37,-601.01 420.07,-294.99 487.02,-201.31"/>
<polygon fill="#7f7f7f" stroke="#7f7f7f" points="489.87,-203.34 492.84,-193.17 484.18,-199.27 489.87,-203.34"/>
<text text-anchor="middle" x="303.28" y="-443.92" font-family="monospace" font-size="10.00">uses</text>
</g>
<!-- lightning_signer::Signer::start&#45;&gt;lightning_signer::LazyNodeIndex -->
<g id="edge20" class="edge">
<title>lightning_signer::Signer::start&#45;&gt;lightning_signer::LazyNodeIndex</title>
<path fill="none" stroke="#7f7f7f" stroke-dasharray="5,2" d="M715.19,-899.77C727.01,-859.43 754.46,-765.73 768.43,-718.02"/>
<polygon fill="#7f7f7f" stroke="#7f7f7f" points="771.83,-718.88 771.28,-708.3 765.11,-716.91 771.83,-718.88"/>
<text text-anchor="middle" x="729.31" y="-811.9" font-family="monospace" font-size="10.00">uses</text>
</g>
<!-- lightning_signer::Signer::start&#45;&gt;lightning_signer::Signer -->
<g id="edge21" class="edge">
<title>lightning_signer::Signer::start&#45;&gt;lightning_signer::Signer</title>
<path fill="none" stroke="#7f7f7f" stroke-dasharray="5,2" d="M699.25,-899.66C656.28,-857.3 497.18,-771.29 415.63,-743.69"/>
<polygon fill="#7f7f7f" stroke="#7f7f7f" points="416.68,-740.35 406.09,-740.62 414.54,-747.01 416.68,-740.35"/>
<text text-anchor="middle" x="544.94" y="-824.68" font-family="monospace" font-size="10.00">uses</text>
</g>
<!-- lightning_signer::Signer::start&#45;&gt;lightning_signer::SignerWorker -->
<g id="edge22" class="edge">
<title>lightning_signer::Signer::start&#45;&gt;lightning_signer::SignerWorker</title>
<path fill="none" stroke="#7f7f7f" stroke-dasharray="5,2" d="M704.34,-899.82C676.73,-798.45 547.73,-324.87 514.46,-202.71"/>
<polygon fill="#7f7f7f" stroke="#7f7f7f" points="517.8,-201.67 511.8,-192.94 511.05,-203.51 517.8,-201.67"/>
<text text-anchor="middle" x="596.9" y="-554.26" font-family="monospace" font-size="10.00">uses</text>
</g>
<!-- lightning_signer::SignerState::init_state -->
<g id="node12" class="node">
<title>lightning_signer::SignerState::init_state</title>
<polygon fill="#f8c04c" stroke="black" points="0,-463.7 0,-501.7 155,-501.7 155,-463.7 0,-463.7"/>
<text text-anchor="middle" x="77.5" y="-489.7" font-family="monospace" font-size="10.00">pub(crate) fn</text>
<polyline fill="none" stroke="black" points="0,-482.7 155,-482.7 "/>
<text text-anchor="middle" x="77.5" y="-470.7" font-family="monospace" font-size="10.00">SignerState::init_state</text>
</g>
<!-- lightning_signer::SignerState&#45;&gt;lightning_signer::SignerState::init_state -->
<g id="edge23" class="edge">
<title>lightning_signer::SignerState&#45;&gt;lightning_signer::SignerState::init_state</title>
<path fill="none" stroke="#000000" d="M182.4,-407.83C149.12,-418.4 110.65,-438.13 90.5,-456.36"/>
<polygon fill="#000000" stroke="#000000" points="87.99,-453.93 83.51,-463.52 93,-458.82 87.99,-453.93"/>
<text text-anchor="middle" x="123.95" y="-435.1" font-family="monospace" font-size="10.00">owns</text>
</g>
<!-- lightning_signer::SignerState::sign_new_tx -->
<g id="node13" class="node">
<title>lightning_signer::SignerState::sign_new_tx</title>
<polygon fill="#f8c04c" stroke="black" points="614.62,-426.48 614.62,-464.48 775.62,-464.48 775.62,-426.48 614.62,-426.48"/>
<text text-anchor="middle" x="695.12" y="-452.48" font-family="monospace" font-size="10.00">pub(crate) async fn</text>
<polyline fill="none" stroke="black" points="614.62,-445.48 775.62,-445.48 "/>
<text text-anchor="middle" x="695.12" y="-433.48" font-family="monospace" font-size="10.00">SignerState::sign_new_tx</text>
</g>
<!-- lightning_signer::SignerState&#45;&gt;lightning_signer::SignerState::sign_new_tx -->
<g id="edge24" class="edge">
<title>lightning_signer::SignerState&#45;&gt;lightning_signer::SignerState::sign_new_tx</title>
<path fill="none" stroke="#000000" d="M279.4,-427.3C349.96,-445.5 504.74,-460.24 604.25,-460.07"/>
<polygon fill="#000000" stroke="#000000" points="604.33,-463.57 614.3,-460 604.28,-456.57 604.33,-463.57"/>
<text text-anchor="middle" x="429.32" y="-446.68" font-family="monospace" font-size="10.00">owns</text>
</g>
<!-- lightning_signer::SignerState::sync_with_application -->
<g id="node14" class="node">
<title>lightning_signer::SignerState::sync_with_application</title>
<polygon fill="#f8c04c" stroke="black" points="20.45,-246.86 20.45,-284.86 241.45,-284.86 241.45,-246.86 20.45,-246.86"/>
<text text-anchor="middle" x="130.95" y="-272.86" font-family="monospace" font-size="10.00">pub(crate) async fn</text>
<polyline fill="none" stroke="black" points="20.45,-265.86 241.45,-265.86 "/>
<text text-anchor="middle" x="130.95" y="-253.86" font-family="monospace" font-size="10.00">SignerState::sync_with_application</text>
</g>
<!-- lightning_signer::SignerState&#45;&gt;lightning_signer::SignerState::sync_with_application -->
<g id="edge25" class="edge">
<title>lightning_signer::SignerState&#45;&gt;lightning_signer::SignerState::sync_with_application</title>
<path fill="none" stroke="#000000" d="M245.82,-389.22C240.53,-363.43 211.33,-320.52 182.9,-292.12"/>
<polygon fill="#000000" stroke="#000000" points="184.96,-289.26 175.31,-284.88 180.13,-294.32 184.96,-289.26"/>
<text text-anchor="middle" x="201.86" y="-343.67" font-family="monospace" font-size="10.00">owns</text>
</g>
<!-- lightning_signer::SignerState::init_state&#45;&gt;lightning_signer::SignerState -->
<g id="edge26" class="edge">
<title>lightning_signer::SignerState::init_state&#45;&gt;lightning_signer::SignerState</title>
<path fill="none" stroke="#7f7f7f" stroke-dasharray="5,2" d="M155.39,-476.64C183.55,-465.58 212.38,-449.65 228.94,-434.71"/>
<polygon fill="#7f7f7f" stroke="#7f7f7f" points="231.53,-437.07 236.03,-427.48 226.53,-432.17 231.53,-437.07"/>
<text text-anchor="middle" x="179.67" y="-458.68" font-family="monospace" font-size="10.00">uses</text>
</g>
<!-- lightning_signer::SignerState::sign_new_tx&#45;&gt;lightning_signer::PendingTransaction -->
<g id="edge27" class="edge">
<title>lightning_signer::SignerState::sign_new_tx&#45;&gt;lightning_signer::PendingTransaction</title>
<path fill="none" stroke="#7f7f7f" stroke-dasharray="5,2" d="M617.84,-464.53C617.5,-464.61 617.16,-464.69 616.82,-464.78"/>
<polygon fill="#7f7f7f" stroke="#7f7f7f" points="615.88,-461.41 607.01,-467.2 617.55,-468.2 615.88,-461.41"/>
<text text-anchor="middle" x="629.83" y="-467.65" font-family="monospace" font-size="10.00">uses</text>
</g>
<!-- lightning_signer::SignerState::sign_new_tx&#45;&gt;lightning_signer::SignerState -->
<g id="edge28" class="edge">
<title>lightning_signer::SignerState::sign_new_tx&#45;&gt;lightning_signer::SignerState</title>
<path fill="none" stroke="#7f7f7f" stroke-dasharray="5,2" d="M657.8,-426.44C582,-406.89 409.06,-391.33 311.8,-393.96"/>
<polygon fill="#7f7f7f" stroke="#7f7f7f" points="311.64,-390.46 301.77,-394.31 311.88,-397.46 311.64,-390.46"/>
<text text-anchor="middle" x="472.3" y="-413.2" font-family="monospace" font-size="10.00">uses</text>
</g>
<!-- lightning_signer::SignerState::sync_with_application&#45;&gt;lightning_signer::SignerState -->
<g id="edge29" class="edge">
<title>lightning_signer::SignerState::sync_with_application&#45;&gt;lightning_signer::SignerState</title>
<path fill="none" stroke="#7f7f7f" stroke-dasharray="5,2" d="M127.2,-284.9C132.49,-310.69 161.69,-353.6 190.12,-381.99"/>
<polygon fill="#7f7f7f" stroke="#7f7f7f" points="188.06,-384.86 197.71,-389.23 192.89,-379.8 188.06,-384.86"/>
<text text-anchor="middle" x="146.16" y="-336.45" font-family="monospace" font-size="10.00">uses</text>
</g>
<!-- lightning_signer::SignerWorker::Request -->
<g id="node16" class="node">
<title>lightning_signer::SignerWorker::Request</title>
<polygon fill="#f8c04c" stroke="black" points="207.54,-79.69 207.54,-117.69 350.54,-117.69 350.54,-79.69 207.54,-79.69"/>
<text text-anchor="middle" x="279.04" y="-105.69" font-family="monospace" font-size="10.00">pub(crate) type</text>
<polyline fill="none" stroke="black" points="207.54,-98.69 350.54,-98.69 "/>
<text text-anchor="middle" x="279.04" y="-86.69" font-family="monospace" font-size="10.00">SignerWorker::Request</text>
</g>
<!-- lightning_signer::SignerWorker&#45;&gt;lightning_signer::SignerWorker::Request -->
<g id="edge30" class="edge">
<title>lightning_signer::SignerWorker&#45;&gt;lightning_signer::SignerWorker::Request</title>
<path fill="none" stroke="#000000" d="M448.89,-154.83C417.74,-144.53 379.13,-131.77 346.59,-121.02"/>
<polygon fill="#000000" stroke="#000000" points="347.29,-117.56 336.7,-117.75 345.1,-124.21 347.29,-117.56"/>
<text text-anchor="middle" x="385.24" y="-140.92" font-family="monospace" font-size="10.00">owns</text>
</g>
<!-- lightning_signer::SignerWorker::Response -->
<g id="node17" class="node">
<title>lightning_signer::SignerWorker::Response</title>
<polygon fill="#f8c04c" stroke="black" points="413.36,-0.5 413.36,-38.5 562.36,-38.5 562.36,-0.5 413.36,-0.5"/>
<text text-anchor="middle" x="487.86" y="-26.5" font-family="monospace" font-size="10.00">pub(crate) type</text>
<polyline fill="none" stroke="black" points="413.36,-19.5 562.36,-19.5 "/>
<text text-anchor="middle" x="487.86" y="-7.5" font-family="monospace" font-size="10.00">SignerWorker::Response</text>
</g>
<!-- lightning_signer::SignerWorker&#45;&gt;lightning_signer::SignerWorker::Response -->
<g id="edge31" class="edge">
<title>lightning_signer::SignerWorker&#45;&gt;lightning_signer::SignerWorker::Response</title>
<path fill="none" stroke="#000000" d="M504.27,-154.66C501.04,-128.05 495.18,-79.78 491.41,-48.71"/>
<polygon fill="#000000" stroke="#000000" points="494.85,-48.01 490.17,-38.5 487.9,-48.85 494.85,-48.01"/>
<text text-anchor="middle" x="485.34" y="-104.68" font-family="monospace" font-size="10.00">owns</text>
</g>
<!-- lightning_signer::SignerWorker::handle -->
<g id="node18" class="node">
<title>lightning_signer::SignerWorker::handle</title>
<polygon fill="#f8c04c" stroke="black" points="641.06,-27.42 641.06,-65.42 778.06,-65.42 778.06,-27.42 641.06,-27.42"/>
<text text-anchor="middle" x="709.56" y="-53.42" font-family="monospace" font-size="10.00">pub(crate) async fn</text>
<polyline fill="none" stroke="black" points="641.06,-46.42 778.06,-46.42 "/>
<text text-anchor="middle" x="709.56" y="-34.42" font-family="monospace" font-size="10.00">SignerWorker::handle</text>
</g>
<!-- lightning_signer::SignerWorker&#45;&gt;lightning_signer::SignerWorker::handle -->
<g id="edge32" class="edge">
<title>lightning_signer::SignerWorker&#45;&gt;lightning_signer::SignerWorker::handle</title>
<path fill="none" stroke="#000000" d="M566.3,-163.85C612.66,-142.51 672.64,-102.39 698.29,-73.59"/>
<polygon fill="#000000" stroke="#000000" points="701.32,-75.41 704.84,-65.42 695.86,-71.03 701.32,-75.41"/>
<text text-anchor="middle" x="619.8" y="-121.72" font-family="monospace" font-size="10.00">owns</text>
</g>
<!-- lightning_signer::SignerWorker::handle&#45;&gt;lightning_signer::SignerWorker -->
<g id="edge33" class="edge">
<title>lightning_signer::SignerWorker::handle&#45;&gt;lightning_signer::SignerWorker</title>
<path fill="none" stroke="#7f7f7f" stroke-dasharray="5,2" d="M640.86,-60.76C596.02,-82.87 541.91,-119.76 517.89,-146.72"/>
<polygon fill="#7f7f7f" stroke="#7f7f7f" points="514.97,-144.76 511.44,-154.74 520.43,-149.14 514.97,-144.76"/>
<text text-anchor="middle" x="566.87" y="-106.74" font-family="monospace" font-size="10.00">uses</text>
</g>
<!-- lightning_signer::new_block_task&#45;&gt;lightning_signer::LazyNodeIndex -->
<g id="edge34" class="edge">
<title>lightning_signer::new_block_task&#45;&gt;lightning_signer::LazyNodeIndex</title>
<path fill="none" stroke="#7f7f7f" stroke-dasharray="5,2" d="M776.94,-295.5C776.94,-361.33 776.94,-579.41 776.94,-659.31"/>
<polygon fill="#7f7f7f" stroke="#7f7f7f" points="773.44,-659.63 776.94,-669.63 780.44,-659.63 773.44,-659.63"/>
<text text-anchor="middle" x="764.44" y="-480.4" font-family="monospace" font-size="10.00">uses</text>
</g>
<!-- lightning_signer::new_block_task&#45;&gt;lightning_signer::SignerWorker -->
<g id="edge35" class="edge">
<title>lightning_signer::new_block_task&#45;&gt;lightning_signer::SignerWorker</title>
<path fill="none" stroke="#7f7f7f" stroke-dasharray="5,2" d="M726.73,-257.38C681.35,-240.17 614.49,-214.81 566.37,-196.57"/>
<polygon fill="#7f7f7f" stroke="#7f7f7f" points="567.6,-193.29 557.01,-193.02 565.12,-199.83 567.6,-193.29"/>
<text text-anchor="middle" x="634.05" y="-229.97" font-family="monospace" font-size="10.00">uses</text>
</g>
</g>
</svg>
