<?xml version="1.0" encoding="UTF-8" standalone="no"?>
<!DOCTYPE svg PUBLIC "-//W3C//DTD SVG 1.1//EN"
 "http://www.w3.org/Graphics/SVG/1.1/DTD/svg11.dtd">
<!-- Generated by graphviz version 4.0.0 (0)
 -->
<!-- Pages: 1 -->
<svg width="492pt" height="466pt"
 viewBox="0.00 0.00 491.91 465.69" xmlns="http://www.w3.org/2000/svg" xmlns:xlink="http://www.w3.org/1999/xlink">
<g id="graph0" class="graph" transform="scale(1 1) rotate(0) translate(28.8 436.89)">
<polygon fill="white" stroke="transparent" points="-28.8,28.8 -28.8,-436.89 463.11,-436.89 463.11,28.8 -28.8,28.8"/>
<text text-anchor="middle" x="217.15" y="-375.29" font-family="Helvetica,sans-Serif" font-size="36.00">lightning_origin_http</text>
<!-- lightning_origin_http -->
<g id="node1" class="node">
<title>lightning_origin_http</title>
<polygon fill="#5397c8" stroke="black" points="115.01,-206.81 115.01,-244.81 258.01,-244.81 258.01,-206.81 115.01,-206.81"/>
<text text-anchor="middle" x="186.51" y="-232.81" font-family="monospace" font-size="10.00">crate</text>
<polyline fill="none" stroke="black" points="115.01,-225.81 258.01,-225.81 "/>
<text text-anchor="middle" x="186.51" y="-213.81" font-family="monospace" font-size="10.00">lightning_origin_http</text>
</g>
<!-- lightning_origin_http::HttpOrigin -->
<g id="node2" class="node">
<title>lightning_origin_http::HttpOrigin</title>
<polygon fill="#81c169" stroke="black" points="262.27,-127.09 262.27,-165.09 339.27,-165.09 339.27,-127.09 262.27,-127.09"/>
<text text-anchor="middle" x="300.77" y="-153.09" font-family="monospace" font-size="10.00">pub struct</text>
<polyline fill="none" stroke="black" points="262.27,-146.09 339.27,-146.09 "/>
<text text-anchor="middle" x="300.77" y="-134.09" font-family="monospace" font-size="10.00">HttpOrigin</text>
</g>
<!-- lightning_origin_http&#45;&gt;lightning_origin_http::HttpOrigin -->
<g id="edge1" class="edge">
<title>lightning_origin_http&#45;&gt;lightning_origin_http::HttpOrigin</title>
<path fill="none" stroke="#000000" d="M213.88,-206.72C229.17,-196.05 248.41,-182.62 264.9,-171.12"/>
<polygon fill="#000000" stroke="#000000" points="267.03,-173.9 273.23,-165.31 263.03,-168.16 267.03,-173.9"/>
<text text-anchor="middle" x="226.89" y="-191.92" font-family="monospace" font-size="10.00">owns</text>
</g>
<!-- lightning_origin_http::config::Config -->
<g id="node5" class="node">
<title>lightning_origin_http::config::Config</title>
<polygon fill="#81c169" stroke="black" points="216.82,-321.59 216.82,-359.59 317.82,-359.59 317.82,-321.59 216.82,-321.59"/>
<text text-anchor="middle" x="267.32" y="-347.59" font-family="monospace" font-size="10.00">pub struct</text>
<polyline fill="none" stroke="black" points="216.82,-340.59 317.82,-340.59 "/>
<text text-anchor="middle" x="267.32" y="-328.59" font-family="monospace" font-size="10.00">config::Config</text>
</g>
<!-- lightning_origin_http&#45;&gt;lightning_origin_http::config::Config -->
<g id="edge2" class="edge">
<title>lightning_origin_http&#45;&gt;lightning_origin_http::config::Config</title>
<path fill="none" stroke="#000000" d="M180.42,-245.04C182.58,-264.44 198.34,-292.64 216.56,-313.82"/>
<polygon fill="#000000" stroke="#000000" points="214.04,-316.25 223.36,-321.28 219.21,-311.53 214.04,-316.25"/>
<text text-anchor="middle" x="185.99" y="-282.43" font-family="monospace" font-size="10.00">owns</text>
</g>
<!-- lightning_origin_http&#45;&gt;lightning_origin_http::config::Config -->
<g id="edge3" class="edge">
<title>lightning_origin_http&#45;&gt;lightning_origin_http::config::Config</title>
<path fill="none" stroke="#7f7f7f" stroke-dasharray="5,2" d="M230.38,-245.04C248.45,-263.62 265.5,-290.62 271.45,-311.69"/>
<polygon fill="#7f7f7f" stroke="#7f7f7f" points="268.02,-312.39 273.43,-321.5 274.88,-311 268.02,-312.39"/>
<text text-anchor="middle" x="238.42" y="-281.37" font-family="monospace" font-size="10.00">uses</text>
</g>
<!-- lightning_origin_http::get_url_and_sri -->
<g id="node6" class="node">
<title>lightning_origin_http::get_url_and_sri</title>
<polygon fill="#f8c04c" stroke="black" points="0,-203.98 0,-241.98 107,-241.98 107,-203.98 0,-203.98"/>
<text text-anchor="middle" x="53.5" y="-229.98" font-family="monospace" font-size="10.00">pub(crate) fn</text>
<polyline fill="none" stroke="black" points="0,-222.98 107,-222.98 "/>
<text text-anchor="middle" x="53.5" y="-210.98" font-family="monospace" font-size="10.00">get_url_and_sri</text>
</g>
<!-- lightning_origin_http&#45;&gt;lightning_origin_http::get_url_and_sri -->
<g id="edge4" class="edge">
<title>lightning_origin_http&#45;&gt;lightning_origin_http::get_url_and_sri</title>
<path fill="none" stroke="#000000" d="M114.95,-224.29C114.78,-224.28 114.62,-224.28 114.46,-224.28"/>
<polygon fill="#000000" stroke="#000000" points="117.32,-220.84 107.24,-224.12 117.17,-227.83 117.32,-220.84"/>
<text text-anchor="middle" x="102.2" y="-227.28" font-family="monospace" font-size="10.00">owns</text>
</g>
<!-- lightning_origin_http::HttpOrigin::fetch -->
<g id="node3" class="node">
<title>lightning_origin_http::HttpOrigin::fetch</title>
<polygon fill="#81c169" stroke="black" points="282.22,-0.5 282.22,-38.5 401.22,-38.5 401.22,-0.5 282.22,-0.5"/>
<text text-anchor="middle" x="341.72" y="-26.5" font-family="monospace" font-size="10.00">pub async fn</text>
<polyline fill="none" stroke="black" points="282.22,-19.5 401.22,-19.5 "/>
<text text-anchor="middle" x="341.72" y="-7.5" font-family="monospace" font-size="10.00">HttpOrigin::fetch</text>
</g>
<!-- lightning_origin_http::HttpOrigin&#45;&gt;lightning_origin_http::HttpOrigin::fetch -->
<g id="edge5" class="edge">
<title>lightning_origin_http::HttpOrigin&#45;&gt;lightning_origin_http::HttpOrigin::fetch</title>
<path fill="none" stroke="#000000" d="M330.36,-127.03C344.06,-106.12 354.46,-72.88 354.63,-48.74"/>
<polygon fill="#000000" stroke="#000000" points="358.12,-48.45 354.01,-38.69 351.13,-48.88 358.12,-48.45"/>
<text text-anchor="middle" x="329.99" y="-90.88" font-family="monospace" font-size="10.00">owns</text>
</g>
<!-- lightning_origin_http::HttpOrigin::new -->
<g id="node4" class="node">
<title>lightning_origin_http::HttpOrigin::new</title>
<polygon fill="#81c169" stroke="black" points="327.31,-242.35 327.31,-280.35 434.31,-280.35 434.31,-242.35 327.31,-242.35"/>
<text text-anchor="middle" x="380.81" y="-268.35" font-family="monospace" font-size="10.00">pub fn</text>
<polyline fill="none" stroke="black" points="327.31,-261.35 434.31,-261.35 "/>
<text text-anchor="middle" x="380.81" y="-249.35" font-family="monospace" font-size="10.00">HttpOrigin::new</text>
</g>
<!-- lightning_origin_http::HttpOrigin&#45;&gt;lightning_origin_http::HttpOrigin::new -->
<g id="edge6" class="edge">
<title>lightning_origin_http::HttpOrigin&#45;&gt;lightning_origin_http::HttpOrigin::new</title>
<path fill="none" stroke="#000000" d="M294.55,-165.27C296.6,-184.82 312.37,-213.37 330.61,-234.71"/>
<polygon fill="#000000" stroke="#000000" points="328.11,-237.16 337.42,-242.21 333.29,-232.46 328.11,-237.16"/>
<text text-anchor="middle" x="300.08" y="-202.99" font-family="monospace" font-size="10.00">owns</text>
</g>
<!-- lightning_origin_http::HttpOrigin::fetch&#45;&gt;lightning_origin_http::HttpOrigin -->
<g id="edge7" class="edge">
<title>lightning_origin_http::HttpOrigin::fetch&#45;&gt;lightning_origin_http::HttpOrigin</title>
<path fill="none" stroke="#7f7f7f" stroke-dasharray="5,2" d="M312.13,-38.57C298.43,-59.47 288.03,-92.71 287.86,-116.85"/>
<polygon fill="#7f7f7f" stroke="#7f7f7f" points="284.37,-117.14 288.48,-126.9 291.36,-116.71 284.37,-117.14"/>
<text text-anchor="middle" x="287.5" y="-80.71" font-family="monospace" font-size="10.00">uses</text>
</g>
<!-- lightning_origin_http::HttpOrigin::new&#45;&gt;lightning_origin_http::HttpOrigin -->
<g id="edge8" class="edge">
<title>lightning_origin_http::HttpOrigin::new&#45;&gt;lightning_origin_http::HttpOrigin</title>
<path fill="none" stroke="#7f7f7f" stroke-dasharray="5,2" d="M387.03,-242.17C384.82,-221.05 366.58,-189.41 346.52,-167.72"/>
<polygon fill="#7f7f7f" stroke="#7f7f7f" points="348.89,-165.15 339.37,-160.5 343.92,-170.07 348.89,-165.15"/>
<text text-anchor="middle" x="354.28" y="-207.94" font-family="monospace" font-size="10.00">uses</text>
</g>
<!-- lightning_origin_http::HttpOrigin::new&#45;&gt;lightning_origin_http::config::Config -->
<g id="edge9" class="edge">
<title>lightning_origin_http::HttpOrigin::new&#45;&gt;lightning_origin_http::config::Config</title>
<path fill="none" stroke="#7f7f7f" stroke-dasharray="5,2" d="M353.34,-280.53C338.14,-291.14 319.09,-304.44 302.78,-315.83"/>
<polygon fill="#7f7f7f" stroke="#7f7f7f" points="300.73,-312.99 294.54,-321.59 304.74,-318.73 300.73,-312.99"/>
<text text-anchor="middle" x="315.56" y="-301.18" font-family="monospace" font-size="10.00">uses</text>
</g>
</g>
</svg>
